<?xml version="1.0" standalone="no"?>
<!DOCTYPE svg PUBLIC "-//W3C//DTD SVG 1.1//EN" "http://www.w3.org/Graphics/SVG/1.1/DTD/svg11.dtd" >
<svg xmlns="http://www.w3.org/2000/svg" xmlns:xlink="http://www.w3.org/1999/xlink" version="1.1">
<metadata>
Created by FontForge 20170731 at Sat Dec 31 14:07:06 2016
 By Aleksey,,,
Copyright (c) 2017 by Andriy Konstantynov. All rights reserved.
</metadata>
<defs>
<font id="OrchideaPro-Bold" horiz-adv-x="593" >
  <font-face 
    font-family="Orchidea Pro"
    font-weight="700"
    font-stretch="normal"
    units-per-em="1000"
    panose-1="2 11 0 3 6 2 0 0 0 3"
    ascent="800"
    descent="-200"
    x-height="477"
    cap-height="700"
    bbox="-73 -262 1236 970"
    underline-thickness="50"
    underline-position="-250"
    unicode-range="U+0020-FB04"
  />
<missing-glyph horiz-adv-x="229" 
 />
    <glyph glyph-name="ff" unicode="ff" horiz-adv-x="692" 
d="M239 422v-422h-148v423h-79v38l79 20v121q0 77 38.5 118.5t110.5 41.5q43 0 76.5 -14t45.5 -28l13 -13l-23 -23q-18 18 -51 18q-62 0 -62 -89v-136h160v118q0 82 39.5 124.5t114.5 42.5q44 0 78.5 -14t46.5 -28l13 -13l-23 -23q-20 18 -53 18q-68 0 -68 -96v-129h133v-55
h-133v-422h-148v422h-160z" />
    <glyph glyph-name="fi" unicode="fi" horiz-adv-x="607" 
d="M239 560v-83h139q41 0 78.5 3t55.5 6l17 3l12 -12v-477h-148v300q0 64 -13 122h-141v-422h-148v423h-79v38l79 20v58q0 100 66 160.5t184 60.5q88 0 140 -35t52 -95q0 -14 -2.5 -27t-5.5 -19l-3 -6q-44 -12 -124 -12l-12 12q9 24 9 55q0 79 -67 79q-43 0 -66 -42
t-23 -110z" />
    <glyph glyph-name="fl" unicode="fl" horiz-adv-x="614" 
d="M399 0v450q0 139 -18 238q-25 14 -57 14q-85 0 -85 -108v-117h90v-55h-90v-422h-148v423h-79v38l79 20v102q0 91 44.5 135t137.5 44q32 0 60 -5t40 -9l12 -5q40 0 77.5 3t55.5 6l17 3l12 -12v-743h-148z" />
    <glyph glyph-name="ffi" unicode="ffi" horiz-adv-x="916" 
d="M701 0v300q0 64 -13 122h-141v-422h-148v422h-160v-422h-148v423h-79v38l79 20v121q0 77 38.5 118.5t110.5 41.5q43 0 76.5 -14t45.5 -28l13 -13l-23 -23q-18 18 -51 18q-62 0 -62 -89v-136h160v62q0 100 66 160.5t184 60.5q88 0 140 -35t52 -95q0 -14 -2.5 -27t-5.5 -19
l-3 -6q-44 -12 -123 -12l-12 12q9 24 9 55q0 40 -18.5 59.5t-48.5 19.5q-44 0 -67 -42t-23 -110v-83h140q40 0 77.5 3t55.5 6l17 3l12 -12v-477h-148z" />
    <glyph glyph-name="ffl" unicode="ffl" horiz-adv-x="922" 
d="M239 422v-422h-148v423h-79v38l79 20v121q0 77 38.5 118.5t110.5 41.5q43 0 76.5 -14t45.5 -28l13 -13l-23 -23q-18 18 -51 18q-62 0 -62 -89v-136h160v106q0 91 44.5 135t138.5 44q32 0 59.5 -5t39.5 -9l12 -5q41 0 78.5 3t54.5 6l17 3l13 -12v-743h-148v450
q0 139 -18 238q-25 14 -58 14q-85 0 -85 -108v-117h90v-55h-90v-422h-148v422h-160z" />
    <glyph glyph-name="f_f_j" unicode="ffj" horiz-adv-x="916" 
d="M701 -26v326q0 64 -13 122h-141v-422h-148v422h-160v-422h-148v423h-79v38l79 20v121q0 77 38.5 118.5t110.5 41.5q43 0 76.5 -14t45.5 -28l13 -13l-23 -23q-18 18 -51 18q-62 0 -62 -89v-136h160v62q0 100 66 160.5t184 60.5q88 0 140 -35t52 -95q0 -14 -2.5 -27
t-5.5 -19l-3 -6q-44 -12 -123 -12l-12 12q9 24 9 55q0 40 -18.5 59.5t-48.5 19.5q-44 0 -67 -42t-23 -110v-83h140q40 0 77.5 3t55.5 6l17 3l12 -12v-453q0 -57 -22.5 -107t-54.5 -81.5t-63.5 -54.5t-54.5 -33l-22 -10l-23 23q4 3 10 9.5t22 28t28 45t22 59t10 71.5z" />
    <glyph glyph-name="f_j" unicode="fj" horiz-adv-x="607" 
d="M393 -26v326q0 64 -13 122h-141v-422h-148v423h-79v38l79 20v58q0 100 66 160.5t184 60.5q88 0 140 -35t52 -95q0 -14 -2.5 -27t-5.5 -19l-3 -6q-44 -12 -124 -12l-12 12q9 24 9 55q0 79 -67 79q-43 0 -66 -42t-23 -110v-83h139q41 0 78.5 3t55.5 6l17 3l12 -12v-453
q0 -57 -22.5 -107t-54.5 -81.5t-64 -54.5t-54 -33l-23 -10l-23 23q4 3 10 9.5t22 28t28.5 45t22.5 59t10 71.5z" />
    <glyph glyph-name="afii10104_afii10104" unicode="&#x457;&#x457;" horiz-adv-x="570" 
d="M70 0v300q0 50 -7 91.5t-13 57.5l-7 16l13 12q40 0 77.5 3t54.5 6l18 3l12 -12v-477h-148zM-16 620q0 28 18 45.5t47 17.5t46 -17.5t17 -45.5q0 -29 -17.5 -47t-45.5 -18q-29 0 -47 18t-18 47zM221 620q0 28 18 45.5t47 17.5q28 0 45.5 -17.5t17.5 -45.5q0 -29 -17.5 -47
t-45.5 -18q-29 0 -47 18t-18 47zM355 0v300q0 50 -6.5 91.5t-13.5 57.5l-7 16l12 12q41 0 78.5 3t55.5 6l17 3l12 -12v-477h-148zM458 620q0 28 18 45.5t47 17.5t46 -17.5t17 -45.5q0 -29 -17.5 -47t-45.5 -18q-29 0 -47 18t-18 47z" />
    <glyph glyph-name=".notdef" horiz-adv-x="229" 
 />
    <glyph glyph-name=".null" horiz-adv-x="0" 
 />
    <glyph glyph-name="nonmarkingreturn" horiz-adv-x="333" 
 />
    <glyph glyph-name="space" unicode=" " horiz-adv-x="229" 
 />
    <glyph glyph-name="exclam" unicode="!" horiz-adv-x="266" 
d="M54 68q0 35 21.5 57t56.5 22q36 0 57.5 -22t21.5 -57t-21.5 -56.5t-57.5 -21.5q-35 0 -56.5 21.5t-21.5 56.5zM77 223l-22 477h156l-22 -477h-112z" />
    <glyph glyph-name="quotedbl" unicode="&#x22;" horiz-adv-x="337" 
d="M68 502l-15 198h92l-15 -207h-53zM207 502l-15 198h92l-15 -207h-54z" />
    <glyph glyph-name="numbersign" unicode="#" horiz-adv-x="618" 
d="M57 452v62h119l20 186h63l-20 -186h172l20 186h63l-20 -186h114v-62h-120l-21 -204h114v-62h-121l-19 -186h-63l19 186h-172l-19 -186h-63l19 186h-113v62h120l21 204h-113zM233 452l-21 -204h172l21 204h-172z" />
    <glyph glyph-name="dollar" unicode="$" horiz-adv-x="631" 
d="M287 658q-46 0 -70 -21t-24 -58q0 -36 30.5 -63.5t146.5 -104.5q59 -40 85.5 -59t57.5 -44.5t42 -43t19 -40t8 -49.5q0 -174 -236 -184v-91h-62v91q-48 2 -90 11t-67.5 20t-44.5 21.5t-26 17.5l-8 7q0 27 8 52.5t19 43t22 31.5t19 21l8 6h16q3 -7 8.5 -19.5t24.5 -43.5
t40 -54.5t54.5 -43t67.5 -19.5q48 0 78 24t30 61q0 40 -39 73t-133 88q-9 4 -13 7q-110 64 -154 110.5t-44 119.5q0 172 224 184v91h62v-91q64 -3 114.5 -18.5t69.5 -28.5l19 -14q0 -43 -19 -82t-38 -56l-19 -18h-15q-2 7 -6.5 18t-20.5 39.5t-34 50.5t-48 40t-62 18z" />
    <glyph glyph-name="percent" unicode="%" horiz-adv-x="867" 
d="M253 0h-72l432 700h72zM29 515q0 87 50 141t131 54q80 0 130.5 -54t50.5 -141t-50.5 -141t-130.5 -54q-81 0 -131 54t-50 141zM141 514q0 -68 18.5 -105t50.5 -37t50.5 37t18.5 105q0 69 -18.5 106t-50.5 37t-50.5 -37t-18.5 -106zM476 185q0 87 50 141t131 54
q80 0 130.5 -54t50.5 -141t-50.5 -141t-130.5 -54q-81 0 -131 54t-50 141zM588 184q0 -68 18.5 -105t50.5 -37t50.5 37t18.5 105q0 69 -18.5 106t-50.5 37t-50.5 -37t-18.5 -106z" />
    <glyph glyph-name="ampersand" unicode="&#x26;" horiz-adv-x="844" 
d="M566 387h137l12 -12q0 -142 -114 -256q62 -49 103 -49q17 0 42 10t41 20l16 9l23 -23q-3 -4 -9 -10.5t-24 -23t-36.5 -29t-44 -23t-48.5 -10.5q-59 0 -152 61q-104 -61 -229 -61q-120 0 -183.5 54.5t-63.5 138.5q0 41 15 76.5t40.5 60t48 40.5t47.5 28q-53 90 -53 151
q0 69 64.5 120t179.5 51q103 0 159.5 -41.5t56.5 -110.5q0 -17 -4 -33.5t-8 -24.5l-3 -8q-48 -12 -136 -12l-13 12q18 30 18 74q0 43 -22 67.5t-56 24.5q-35 0 -55 -24t-20 -56q0 -64 74 -184.5t167 -214.5q30 82 30 208zM468 82q-146 110 -247 253q-33 -45 -33 -105
q0 -81 53 -129t129 -48q59 0 98 29z" />
    <glyph glyph-name="quotesingle" unicode="'" horiz-adv-x="199" 
d="M68 502l-15 198h92l-15 -207h-53z" />
    <glyph glyph-name="parenleft" unicode="(" horiz-adv-x="339" 
d="M317 -120l-39 -39q-10 5 -25.5 15.5t-56.5 50.5t-72 88t-56.5 130t-25.5 175q0 68 13 130t34 107t46 83.5t50 63.5t46 42.5t34 25.5l13 7l39 -39q-5 -5 -13.5 -15.5t-30.5 -49t-39 -83t-30.5 -118t-13.5 -154.5t13 -154t32 -119.5t37.5 -81.5t31.5 -50z" />
    <glyph glyph-name="parenright" unicode=")" horiz-adv-x="339" 
d="M60 -159l-38 39q5 5 13.5 15.5t30.5 49t39 83t30.5 118t13.5 154.5t-13 154t-32 119.5t-37.5 81.5t-31.5 50l-13 15l38 39q10 -5 25.5 -15.5t56.5 -50t72 -87.5t56.5 -130t25.5 -176q0 -68 -13 -130t-34 -106.5t-46 -83t-50 -63.5t-46 -43t-34 -26z" />
    <glyph glyph-name="asterisk" unicode="*" horiz-adv-x="416" 
d="M181 559l-16 141h86l-16 -141l130 58l26 -81l-138 -29l95 -105l-69 -50l-71 122l-71 -122l-69 50l95 105l-138 29l26 81z" />
    <glyph glyph-name="plus" unicode="+" 
d="M99 294v62h166v166h63v-166h166v-62h-166v-166h-63v166h-166z" />
    <glyph glyph-name="comma" unicode="," horiz-adv-x="233" 
d="M31 -173l-23 23q6 9 16 25.5t26 65.5t16 97q0 25 -4 48t-8 33l-5 10l9 9q36 0 66.5 -5t43.5 -9l12 -5q8 -18 8 -52q0 -43 -16 -83.5t-39.5 -68t-46.5 -48t-39 -30.5z" />
    <glyph glyph-name="hyphen" unicode="-" horiz-adv-x="334" 
d="M55 244v63h224v-63h-224z" />
    <glyph glyph-name="period" unicode="." horiz-adv-x="233" 
d="M38 68q0 35 21.5 57t56.5 22q36 0 57.5 -22t21.5 -57t-21.5 -56.5t-57.5 -21.5q-35 0 -56.5 21.5t-21.5 56.5z" />
    <glyph glyph-name="slash" unicode="/" horiz-adv-x="417" 
d="M79 -150h-67l326 900h67z" />
    <glyph glyph-name="zero" unicode="0" horiz-adv-x="670" 
d="M46 350q0 161 80 260.5t209 99.5t209 -99.5t80 -260.5t-80 -260.5t-209 -99.5t-209 99.5t-80 260.5zM208 350q0 -149 34.5 -228.5t92.5 -79.5t92.5 79.5t34.5 228.5t-34.5 228.5t-92.5 79.5t-92.5 -79.5t-34.5 -228.5z" />
    <glyph glyph-name="one" unicode="1" horiz-adv-x="472" 
d="M216 0v580q-81 -46 -167 -46q-9 16 -9 57l9 9q58 0 120.5 25t96.5 50l34 25h64v-700h-148z" />
    <glyph glyph-name="two" unicode="2" horiz-adv-x="598" 
d="M559 525q0 -46 -20 -92.5t-52.5 -85.5t-71 -75t-77.5 -63.5t-71.5 -48t-52.5 -30.5l-20 -11h191q50 0 91.5 7.5t57.5 15.5l16 8l12 -13v-137h-527v72q15 10 39.5 28t87.5 73t111 108.5t87.5 126t39.5 134.5q0 53 -28 84.5t-78 31.5q-49 0 -78 -32t-29 -94q0 -22 3 -39
t6 -23l3 -7l-12 -12q-38 0 -72.5 3t-50.5 6l-15 3q-11 18 -11 59q0 85 66.5 136.5t191.5 51.5q124 0 193.5 -48.5t69.5 -136.5z" />
    <glyph glyph-name="three" unicode="3" horiz-adv-x="634" 
d="M305 42q60 0 92 38t32 108q0 137 -126 137h-50l-8 9v61h39q64 0 92.5 33t28.5 103q0 127 -101 127q-50 0 -80 -30t-30 -89q0 -19 3 -35t6 -22l3 -6l-12 -12q-38 0 -72.5 3t-49.5 6l-16 3q-11 19 -11 55q0 81 68.5 130t195.5 49q123 0 188.5 -48t65.5 -137
q0 -125 -131 -163q79 -16 119 -60.5t40 -113.5q0 -96 -74.5 -147t-206.5 -51q-136 0 -204 50.5t-68 134.5q0 17 3 31.5t6 19.5l3 6q52 12 138 12l12 -12q-13 -21 -13 -66q0 -62 31 -93t87 -31z" />
    <glyph glyph-name="four" unicode="4" horiz-adv-x="613" 
d="M24 139v31l397 530h74v-499h86v-62h-86v-139h-148v139h-323zM124 201h223v295z" />
    <glyph glyph-name="five" unicode="5" horiz-adv-x="611" 
d="M292 42q57 0 88 42t31 120q0 88 -39 124t-121 36q-45 0 -86 -9t-59 -18l-19 -9l-13 14l44 349h213q50 0 91.5 7.5t57.5 15.5l16 7l12 -12v-137h-335l-21 -171q72 37 163 37q123 0 190.5 -61.5t67.5 -165.5q0 -107 -71.5 -164t-205.5 -57q-128 0 -194 49t-66 130
q0 17 3 31t7 20l3 5q51 12 137 12l12 -12q-12 -19 -12 -65q0 -58 28.5 -88t77.5 -30z" />
    <glyph glyph-name="six" unicode="6" horiz-adv-x="659" 
d="M339 658q-130 0 -131 -299q52 56 159 56q108 0 177 -57t69 -150q0 -99 -77 -158.5t-192 -59.5q-144 0 -221 96t-77 266q0 162 72.5 260t223.5 98q103 0 174.5 -45.5t71.5 -123.5q0 -15 -3 -28t-5 -19l-3 -5q-52 -12 -137 -12l-12 12q12 20 12 59q0 54 -29.5 82t-71.5 28z
M328 363q-72 0 -118 -86q15 -235 128 -235q50 0 81.5 43t31.5 118q0 77 -34 118.5t-89 41.5z" />
    <glyph glyph-name="seven" unicode="7" horiz-adv-x="570" 
d="M314 0h-148q0 100 28 196.5t68 163t80.5 119t68.5 77.5l28 25h-227q-50 0 -91.5 -7.5t-57.5 -15.5l-16 -8l-12 13v137h501v-65q-9 -11 -24 -32t-53.5 -88t-67.5 -137t-53 -174t-24 -204z" />
    <glyph glyph-name="eight" unicode="8" horiz-adv-x="635" 
d="M560 537q0 -106 -121 -168q71 -39 110.5 -83t39.5 -109q0 -82 -67.5 -134.5t-204.5 -52.5q-136 0 -205.5 52.5t-69.5 132.5q0 112 136 176q-113 68 -113 173q0 85 65 135.5t186 50.5q120 0 182 -49t62 -124zM446 147q0 14 -3 26t-11 23.5t-14 20t-21 19t-23 16.5t-28 16
l-28 14t-32.5 15.5t-31.5 14.5q-71 -51 -71 -131q0 -60 38.5 -99.5t101.5 -39.5q56 0 89.5 30.5t33.5 74.5zM306 658q-46 0 -72.5 -24t-26.5 -65q0 -53 40 -88.5t118 -74.5q62 53 62 130q0 56 -34 89t-87 33z" />
    <glyph glyph-name="nine" unicode="9" horiz-adv-x="648" 
d="M303 42q69 0 102 73.5t35 228.5q-54 -54 -154 -54q-103 0 -171.5 53.5t-68.5 149.5q0 99 75.5 158t190.5 59q142 0 216 -93.5t74 -263.5q0 -108 -29.5 -187.5t-98.5 -127.5t-174 -48q-106 0 -179 45t-73 123q0 15 3 27.5t5 18.5l3 5q51 12 137 12l13 -12q-12 -19 -12 -58
q0 -53 30.5 -81t75.5 -28zM327 342q64 0 112 70q-12 246 -123 246q-49 0 -78.5 -42t-29.5 -117q0 -78 32 -117.5t87 -39.5z" />
    <glyph glyph-name="colon" unicode=":" horiz-adv-x="233" 
d="M38 68q0 35 21.5 57t56.5 22q36 0 57.5 -22t21.5 -57t-21.5 -56.5t-57.5 -21.5q-35 0 -56.5 21.5t-21.5 56.5zM38 408q0 36 21.5 57.5t56.5 21.5q36 0 57.5 -21.5t21.5 -57.5q0 -35 -21.5 -56.5t-57.5 -21.5q-35 0 -56.5 21.5t-21.5 56.5z" />
    <glyph glyph-name="semicolon" unicode=";" horiz-adv-x="233" 
d="M38 401q0 36 21.5 57.5t56.5 21.5q36 0 57.5 -21.5t21.5 -57.5q0 -35 -21.5 -56.5t-57.5 -21.5q-35 0 -56.5 21.5t-21.5 56.5zM31 -173l-23 23q6 9 16 25.5t26 65.5t16 97q0 25 -4 48t-8 33l-5 10l9 9q36 0 66.5 -5t43.5 -9l12 -5q8 -18 8 -52q0 -43 -16 -83.5t-39.5 -68
t-46.5 -48t-39 -30.5z" />
    <glyph glyph-name="less" unicode="&#x3c;" 
d="M494 518v-67l-324 -126l324 -126v-67l-415 159v68z" />
    <glyph glyph-name="equal" unicode="=" 
d="M99 387v62h395v-62h-395zM99 201v62h395v-62h-395z" />
    <glyph glyph-name="greater" unicode="&#x3e;" 
d="M99 451v67l415 -159v-68l-415 -159v67l324 126z" />
    <glyph glyph-name="question" unicode="?" horiz-adv-x="570" 
d="M199 68q0 35 21.5 57t56.5 22t57 -22t22 -57t-22 -56.5t-57 -21.5t-56.5 21.5t-21.5 56.5zM536 527q0 -46 -20.5 -86.5t-50 -65t-58.5 -42.5t-49 -25l-21 -8l-4 -77h-111l-6 139q7 1 17.5 3.5t38.5 15.5t49 31t38.5 53t17.5 78q0 53 -25.5 84t-71.5 31q-44 0 -70 -30
t-26 -87q0 -20 3 -36t6 -22l3 -6l-12 -12q-38 0 -72.5 3t-49.5 6l-16 3q-12 17 -12 55q0 81 64 129.5t185 48.5q119 0 186 -48.5t67 -134.5z" />
    <glyph glyph-name="at" unicode="@" horiz-adv-x="1126" 
d="M1078 325q0 -151 -85.5 -243t-230.5 -92q-77 0 -105 29.5t-16 95.5l5 29l-4 4q-4 -6 -10.5 -17t-28 -38t-44 -48t-56.5 -38t-67 -17q-60 0 -92.5 48t-32.5 126q0 140 96 231.5t253 91.5q57 0 97.5 -13t52.5 -26l13 -13l-45 -278q-9 -56 3 -80t43 -24q43 0 74.5 40t46 99
t14.5 128q0 161 -84.5 244t-233.5 83q-107 0 -198 -42.5t-151 -114t-93.5 -163t-33.5 -190.5q0 -162 88 -243.5t253 -81.5q57 0 113.5 9.5t96.5 23t72 27.5t48 24l16 9l19 -24q-6 -6 -16.5 -15.5t-48 -33.5t-80 -43t-110.5 -34t-140 -15q-200 0 -315 107t-115 289
q0 114 46.5 219t126.5 183t194 125t242 47q199 0 311 -106.5t112 -278.5zM470 159q0 -82 36 -82q52 0 142 181v1l23 151q-1 3 -3.5 7.5t-14 12t-28.5 7.5q-59 0 -107 -86.5t-48 -191.5z" />
    <glyph glyph-name="A" unicode="A" horiz-adv-x="724" 
d="M169 186l-72 -186h-78l257 649l-23 39v12h169l283 -700h-160l-75 186h-301zM335 523l-18 42l-124 -317h252z" />
    <glyph glyph-name="B" unicode="B" horiz-adv-x="684" 
d="M77 0v700h269q263 0 263 -174q0 -124 -133 -160q167 -35 167 -178q0 -188 -278 -188h-288zM481 197q0 66 -36 100.5t-104 34.5h-109v-269h109q68 0 104 34t36 100zM450 516q0 59 -33 90t-96 31h-89v-242h89q63 0 96 31t33 90z" />
    <glyph glyph-name="C" unicode="C" horiz-adv-x="729" 
d="M410 658q-87 0 -139 -77t-52 -215q0 -286 230 -286q58 0 111 17.5t78 35.5l24 18l25 -25q-3 -6 -9.5 -15t-30.5 -32.5t-53.5 -41.5t-80 -32.5t-108.5 -14.5q-161 0 -260 100t-99 261t99.5 260t266.5 99q127 0 201.5 -56t74.5 -146q0 -19 -4 -34.5t-8 -21.5l-3 -6
q-51 -12 -137 -12l-12 12q12 22 12 73q0 68 -33.5 103.5t-92.5 35.5z" />
    <glyph glyph-name="D" unicode="D" horiz-adv-x="775" 
d="M77 0v700h292q161 0 260.5 -97t99.5 -253t-99.5 -253t-260.5 -97h-292zM362 637h-130v-574h130q89 0 141.5 74t52.5 213t-52.5 213t-141.5 74z" />
    <glyph glyph-name="E" unicode="E" horiz-adv-x="604" 
d="M77 0v700h469v-81l-12 -12q-52 31 -165 31h-137v-248h245l8 -9v-54h-253v-265h147q50 0 91.5 8t57.5 16l16 7l12 -12v-81h-479z" />
    <glyph glyph-name="F" unicode="F" horiz-adv-x="578" 
d="M77 0v700h466v-81l-12 -12q-52 31 -165 31h-134v-248h243l9 -9v-54h-252v-327h-155z" />
    <glyph glyph-name="G" unicode="G" horiz-adv-x="735" 
d="M455 284v54h76q41 0 76.5 3t50.5 6l16 3l13 -12v-241q-3 -4 -10 -11.5t-31 -26t-53 -32.5t-77.5 -25.5t-102.5 -11.5q-168 0 -267.5 99t-99.5 262q0 162 99.5 260.5t270.5 98.5q124 0 197 -51.5t73 -139.5q0 -20 -3.5 -35t-6.5 -20l-4 -6q-52 -12 -138 -12l-13 12
q14 20 14 71q0 129 -122 129q-90 0 -142 -76.5t-52 -214.5q0 -145 57.5 -223t165.5 -78q50 0 104 19v77q0 54 -11 113h-72z" />
    <glyph glyph-name="H" unicode="H" horiz-adv-x="782" 
d="M550 0v327h-318v-327h-155v700h155v-310h318v310h155v-700h-155z" />
    <glyph glyph-name="I" unicode="I" horiz-adv-x="308" 
d="M77 0v700h155v-700h-155z" />
    <glyph glyph-name="J" unicode="J" horiz-adv-x="516" 
d="M285 211v489h155v-484q0 -226 -238 -226q-58 0 -103.5 13.5t-61.5 26.5l-16 14q0 40 16.5 76.5t32.5 53.5l17 16h11q1 -6 4 -16t13 -35.5t22 -45t31 -35.5t40 -16q77 0 77 169z" />
    <glyph glyph-name="K" unicode="K" horiz-adv-x="691" 
d="M77 0v700h155v-300h36l254 300h93l-238 -278l144 -223q35 -52 73 -98.5t58 -67.5l20 -21v-12h-187l-227 337h-26v-337h-155z" />
    <glyph glyph-name="L" unicode="L" horiz-adv-x="558" 
d="M77 0v700h155v-638h120q50 0 91.5 8t57.5 16l16 7l12 -12v-81h-452z" />
    <glyph glyph-name="M" unicode="M" horiz-adv-x="954" 
d="M742 0l-67 571l-4 4l-177 -555h-103l-21 21l-182 533l-5 -4l-54 -570h-75l53 523q4 51 3.5 87.5t-2.5 57.5l-3 20l12 12h189l170 -494l158 494h185l83 -700h-160z" />
    <glyph glyph-name="N" unicode="N" horiz-adv-x="733" 
d="M77 0v420q0 80 -6.5 147t-13.5 94l-7 27l12 12h53l465 -457v457h77v-700h-46l-465 458v-458h-69z" />
    <glyph glyph-name="O" unicode="O" horiz-adv-x="811" 
d="M46 350q0 161 99.5 260.5t260.5 99.5q160 0 259.5 -99.5t99.5 -260.5t-99.5 -260.5t-259.5 -99.5q-161 0 -260.5 99.5t-99.5 260.5zM219 350q0 -149 50.5 -228.5t136.5 -79.5t136.5 79.5t50.5 228.5t-50.5 228.5t-136.5 79.5t-136.5 -79.5t-50.5 -228.5z" />
    <glyph glyph-name="P" unicode="P" horiz-adv-x="657" 
d="M77 0v700h261q131 0 206 -54.5t75 -151.5t-75 -151t-206 -54h-106v-289h-155zM314 637h-82v-286h82q67 0 105 37t38 106q0 70 -37.5 106.5t-105.5 36.5z" />
    <glyph glyph-name="Q" unicode="Q" horiz-adv-x="811" 
d="M406 -15q-161 0 -260.5 100.5t-99.5 262.5t99.5 262t260.5 100t260 -100t99 -262q0 -123 -59 -212.5t-162 -127.5q14 -5 54.5 -21t68 -22.5t58.5 -6.5q23 0 39.5 3.5t21.5 7.5l5 4l7 -8q0 -36 -4.5 -68t-9.5 -46l-4 -14q-15 -10 -50 -10q-37 0 -74 16.5t-66.5 39.5
t-58 46t-61 39.5t-64.5 16.5zM219 348q0 -151 50.5 -231t136.5 -80t136.5 80t50.5 231q0 150 -50.5 230t-136.5 80t-136.5 -80t-50.5 -230z" />
    <glyph glyph-name="R" unicode="R" horiz-adv-x="677" 
d="M77 0v700h253q131 0 206.5 -52t75.5 -145q0 -65 -38 -111t-108 -68l79 -147q27 -50 55.5 -92t43.5 -59l14 -18l-7 -8h-169l-164 306h-86v-306h-155zM306 637h-74v-269h74q68 0 106 35t38 100t-38 99.5t-106 34.5z" />
    <glyph glyph-name="S" unicode="S" horiz-adv-x="631" 
d="M291 658q-46 0 -70 -21t-24 -58t30.5 -65t142.5 -103q59 -40 85.5 -59t57.5 -44.5t42 -43t19 -40t8 -49.5q0 -185 -265 -185q-55 0 -102.5 8t-77 19.5t-50.5 23t-30 19.5l-9 8q0 27 8 52.5t19 43t22 31.5t19 21l8 6h16q3 -7 8.5 -19.5t24.5 -43.5t40 -54.5t54.5 -43
t67.5 -19.5q48 0 78 24t30 61q0 40 -38 72t-132 88q-9 5 -14 8q-74 43 -111.5 72t-61 68t-23.5 90q0 90 64.5 137.5t191.5 47.5q73 0 131.5 -15.5t80.5 -30.5l22 -16q0 -43 -19 -82t-38 -56l-19 -18h-15q-2 7 -6.5 18t-20.5 39.5t-34 50.5t-48 40t-62 18z" />
    <glyph glyph-name="T" unicode="T" horiz-adv-x="687" 
d="M421 638v-638h-155v638h-62q-50 0 -91.5 -8t-57.5 -16l-16 -7l-12 12v81h633v-81l-12 -12q-52 31 -165 31h-62z" />
    <glyph glyph-name="U" unicode="U" horiz-adv-x="726" 
d="M582 253v447h70v-445q0 -120 -77 -192.5t-213 -72.5q-135 0 -211.5 72.5t-76.5 192.5v445h155v-469q0 -80 47.5 -128t124.5 -48q82 0 131.5 53.5t49.5 144.5z" />
    <glyph glyph-name="V" unicode="V" horiz-adv-x="717" 
d="M302 21l-204 502q-21 50 -41.5 91.5t-30.5 57.5l-10 16v12h177l223 -552l209 552h77l-269 -700h-110z" />
    <glyph glyph-name="W" unicode="W" horiz-adv-x="1080" 
d="M698 21l-140 399l-138 -420h-113l-21 21l-191 502q-19 50 -38.5 91t-30.5 57l-10 16v13h174l208 -547l122 376q-17 48 -34.5 87.5t-26.5 55.5l-9 15v13h175l186 -539l178 539h76l-235 -700h-111z" />
    <glyph glyph-name="X" unicode="X" horiz-adv-x="708" 
d="M209 700l175 -260l185 260h92l-237 -320l122 -180q34 -51 69.5 -98t54.5 -68l18 -22v-12h-185l-193 281l-204 -281h-84l248 341l-245 359h184z" />
    <glyph glyph-name="Y" unicode="Y" horiz-adv-x="682" 
d="M665 700l-239 -377v-323h-155v313l-110 175q-35 55 -71.5 104.5t-55.5 71.5l-19 23v13h191l188 -290l186 290h85z" />
    <glyph glyph-name="Z" unicode="Z" horiz-adv-x="674" 
d="M46 29l386 609h-204q-50 0 -91.5 -8t-57.5 -16l-16 -7l-12 12v81h580v-29l-385 -609h211q50 0 91.5 8t57.5 16l16 7l12 -12v-81h-588v29z" />
    <glyph glyph-name="bracketleft" unicode="[" horiz-adv-x="336" 
d="M70 -150v900h245v-63h-98v-774h98v-63h-245z" />
    <glyph glyph-name="backslash" unicode="\" horiz-adv-x="417" 
d="M405 -150h-67l-326 900h67z" />
    <glyph glyph-name="bracketright" unicode="]" horiz-adv-x="336" 
d="M267 750v-900h-245v63h97v774h-97v63h245z" />
    <glyph glyph-name="asciicircum" unicode="^" horiz-adv-x="470" 
d="M438 483l-8 -9h-74l-121 120l-121 -120h-73l-9 9l185 217h37z" />
    <glyph glyph-name="underscore" unicode="_" horiz-adv-x="500" 
d="M0 -113v63h500v-63h-500z" />
    <glyph glyph-name="grave" unicode="`" horiz-adv-x="302" 
d="M248 564l-8 -8h-44l-143 149v8q36 22 117 22z" />
    <glyph glyph-name="a" unicode="a" horiz-adv-x="564" 
d="M276 487q207 0 207 -142v-244q0 -42 34 -42q7 0 13 2t8 3l3 2l23 -23q-5 -6 -14 -15t-42 -23.5t-72 -14.5q-82 0 -98 60q-69 -60 -164 -60q-65 0 -99 33t-34 94q0 59 43.5 90t164.5 48l86 11v107q0 66 -64 66q-35 0 -55 -20t-20 -56q0 -13 2 -26t4 -19l3 -6l-12 -12
q-33 0 -63 3t-43 6l-13 3q-11 18 -11 47q0 60 55.5 94t157.5 34zM194 136q0 -66 64 -66q20 0 39.5 7t28.5 13l9 7v117l-69 -9q-39 -5 -55.5 -21.5t-16.5 -47.5z" />
    <glyph glyph-name="b" unicode="b" horiz-adv-x="592" 
d="M40 738l12 12q41 0 78.5 3t54.5 6l17 3l13 -12v-264l-5 -50l5 -5q6 6 18 15.5t50 25t79 15.5q88 0 141.5 -64.5t53.5 -178.5q0 -254 -277 -254q-64 0 -117 13t-75 26l-21 13v408q0 84 -6.5 156t-13.5 102zM391 226q0 179 -103 179q-19 0 -37.5 -6t-26.5 -12l-9 -6v-314
q25 -27 70 -27q106 0 106 186z" />
    <glyph glyph-name="c" unicode="c" horiz-adv-x="536" 
d="M482 111l22 -23q-2 -4 -7 -10.5t-22.5 -23.5t-39.5 -30t-60 -23.5t-81 -10.5q-117 0 -187.5 68.5t-70.5 181.5q0 112 71 179.5t198 67.5q90 0 143.5 -34.5t53.5 -96.5q0 -13 -3 -26t-5 -19l-3 -6q-41 -12 -117 -12l-12 12q9 23 9 56q0 78 -68 78q-49 0 -75.5 -49
t-26.5 -129q0 -102 36.5 -148t108.5 -46q38 0 72 11t49 22z" />
    <glyph glyph-name="d" unicode="d" horiz-adv-x="596" 
d="M351 738l12 12q41 0 78.5 3t54.5 6l18 3l12 -12v-449q0 -84 7 -156.5t13 -102.5l7 -30l-13 -12q-40 0 -77.5 -3t-54.5 -6l-18 -3l-12 12l4 39l-4 5q-6 -6 -17.5 -15t-50 -24t-79.5 -15q-89 0 -142 62.5t-53 172.5q0 122 65.5 192t180.5 70q53 0 96 -16q-1 78 -7.5 145
t-12.5 94zM201 251q0 -179 106 -179q19 0 36.5 6t26.5 12l8 5v283q-1 27 -22.5 43t-51.5 16q-48 0 -75.5 -47.5t-27.5 -138.5z" />
    <glyph glyph-name="e" unicode="e" horiz-adv-x="549" 
d="M482 111l23 -23q-2 -4 -7 -10.5t-22.5 -23.5t-39.5 -30t-60 -23.5t-81 -10.5q-118 0 -188.5 68.5t-70.5 181.5q0 114 72 180.5t202 66.5q197 0 197 -156q0 -19 -2.5 -37.5t-5.5 -27.5l-3 -10l-12 -12h-283q3 -93 39.5 -135t106.5 -42q38 0 71.5 11t48.5 22zM306 439
q-44 0 -71.5 -37t-32.5 -109l167 10q5 23 5 49q0 87 -68 87z" />
    <glyph glyph-name="f" unicode="f" horiz-adv-x="383" 
d="M12 423v38l79 20v114q0 82 39 124.5t115 42.5q43 0 77.5 -14t47.5 -28l12 -13l-22 -23q-20 18 -54 18q-67 0 -67 -96v-129h133v-55h-133v-422h-148v423h-79z" />
    <glyph glyph-name="g" unicode="g" horiz-adv-x="574" 
d="M145 -39l12 -12q-17 -28 -17 -65q0 -87 137 -87q74 0 114.5 24.5t40.5 67.5q0 25 -12 41t-36.5 23t-45.5 10t-56 4q-42 2 -62 3t-54.5 5.5t-52 12t-37 19.5t-28 32t-8.5 46q0 73 63 127q-57 44 -57 114q0 72 61.5 116.5t162.5 44.5q77 0 137 -29q65 76 145 76
q12 -39 12 -111l-12 -12q-16 11 -47 11q-17 0 -43 -6q33 -39 33 -90q0 -72 -61.5 -117t-163.5 -45q-67 0 -115 19q-13 -17 -13 -41q0 -19 9 -30.5t32.5 -17t44 -7t62.5 -2.5q56 -1 89.5 -3.5t69 -10.5t54 -21t30.5 -36t12 -57q0 -98 -85 -157t-227 -59q-105 0 -164.5 35.5
t-59.5 107.5q0 19 4 35t8 23l4 7q45 12 120 12zM194 326q0 -54 20.5 -83.5t55.5 -29.5t56 29.5t21 83.5t-21 83.5t-56 29.5t-55.5 -29.5t-20.5 -83.5z" />
    <glyph glyph-name="h" unicode="h" 
d="M67 0v441q0 84 -6.5 158.5t-13.5 106.5l-7 32l12 12q41 0 78.5 3t54.5 6l17 3l13 -12v-268l-5 -50l5 -4q8 7 22.5 16.5t60 26t91.5 16.5q72 0 105 -37t33 -100v-350h-148v336q0 69 -73 69q-23 0 -45.5 -6t-34.5 -11l-11 -6v-382h-148z" />
    <glyph glyph-name="i" unicode="i" horiz-adv-x="285" 
d="M70 0v300q0 50 -7 91.5t-13 57.5l-7 16l12 12q40 0 78 3t55 6l18 3l12 -12v-477h-148zM51 637q0 39 24 63t63 24q40 0 64 -24t24 -63q0 -40 -24 -64t-64 -24q-39 0 -63 24t-24 64z" />
    <glyph glyph-name="j" unicode="j" horiz-adv-x="285" 
d="M70 -26v326q0 50 -7 91.5t-13 57.5l-7 16l13 12q40 0 77.5 3t54.5 6l18 3l12 -12v-453q0 -57 -22.5 -107t-54.5 -81.5t-63.5 -54.5t-53.5 -33l-23 -10l-23 23q4 3 10 9.5t22 28t28 45t22 59t10 71.5zM51 637q0 39 24 63t63 24q40 0 64 -24t24 -63q0 -40 -24 -64t-64 -24
q-39 0 -63 24t-24 64z" />
    <glyph glyph-name="k" unicode="k" horiz-adv-x="556" 
d="M67 0v450q0 84 -6.5 156t-13.5 102l-7 30l12 12q41 0 78.5 3t54.5 6l17 3l13 -12v-455l34 4l16 19q40 45 66.5 82.5t32.5 53.5l7 15l9 8h118l-149 -172l58 -108q31 -51 63.5 -96t49.5 -65l17 -20v-16q-41 0 -79.5 -2t-55.5 -4l-18 -3l-161 252h-8v-243h-148z" />
    <glyph glyph-name="l" unicode="l" horiz-adv-x="281" 
d="M67 0v450q0 84 -6.5 156t-13.5 102l-7 30l12 12q41 0 78.5 3t54.5 6l17 3l13 -12v-750h-148z" />
    <glyph glyph-name="m" unicode="m" horiz-adv-x="870" 
d="M363 0v336q0 69 -67 69q-20 0 -39.5 -6t-28.5 -11l-10 -6v-382h-148v300q0 50 -7 91.5t-13 57.5l-7 16l13 12q40 0 77.5 3t54.5 6l18 3l12 -12l-4 -45l4 -4q7 7 20 16.5t54.5 26t85.5 16.5q86 0 117 -63q12 10 31 22t60.5 26.5t82.5 14.5q68 0 101 -37.5t33 -99.5v-350
h-148v336q0 69 -65 69q-41 0 -83 -21q3 -17 3 -34v-350h-147z" />
    <glyph glyph-name="n" unicode="n" horiz-adv-x="597" 
d="M382 0v336q0 69 -73 69q-22 0 -45 -6t-34 -11l-12 -6v-382h-148v300q0 50 -7 91.5t-13 57.5l-7 16l13 12q40 0 77.5 3t54.5 6l18 3l12 -12l-4 -45l4 -4q8 7 22.5 16.5t60.5 26t92 16.5q72 0 104.5 -37t32.5 -100v-350h-148z" />
    <glyph glyph-name="o" unicode="o" horiz-adv-x="592" 
d="M36 239q0 111 72 179.5t188 68.5t187.5 -68.5t71.5 -179.5t-72 -180t-187 -69q-116 0 -188 69t-72 180zM201 239q0 -97 26 -149t69 -52t68.5 52t25.5 149q0 96 -25.5 148t-68.5 52t-69 -52t-26 -148z" />
    <glyph glyph-name="p" unicode="p" horiz-adv-x="596" 
d="M218 -250h-148v449q0 84 -7 150.5t-13 90.5l-7 25l13 12q40 0 77.5 3t54.5 6l18 3l12 -12l-4 -41l4 -5q6 6 18 15.5t50 25t79 15.5q88 0 141.5 -64t53.5 -174q0 -121 -65.5 -190t-180.5 -69q-51 0 -96 15v-255zM395 226q0 179 -104 179q-19 0 -37.5 -6t-27.5 -12l-8 -6
v-282q1 -27 22 -43t52 -16q48 0 75.5 46.5t27.5 139.5z" />
    <glyph glyph-name="q" unicode="q" horiz-adv-x="592" 
d="M378 -250v241l4 50l-4 5q-6 -6 -18 -15.5t-50.5 -25t-78.5 -15.5q-89 0 -142 64t-53 178q0 255 276 255q64 0 117.5 -13.5t74.5 -27.5l22 -13v-683h-148zM201 250q0 -178 105 -178q18 0 36 6t27 12l9 6v312q-25 29 -71 29q-50 0 -78 -46.5t-28 -140.5z" />
    <glyph glyph-name="r" unicode="r" horiz-adv-x="424" 
d="M389 487q13 -52 13 -126l-13 -12q-14 11 -48 11q-32 0 -63 -14t-46 -28l-14 -14v-304h-148v300q0 50 -7 91.5t-13 57.5l-7 16l13 12q40 0 77.5 3t54.5 6l18 3l12 -12l-4 -100l4 -4q3 5 8 12.5t22.5 27t36 34.5t47 27.5t57.5 12.5z" />
    <glyph glyph-name="s" unicode="s" horiz-adv-x="469" 
d="M227 434q-32 0 -49.5 -13t-17.5 -34q0 -23 24 -41t84 -48l24 -12q82 -43 113 -75.5t31 -81.5q0 -68 -52 -103.5t-150 -35.5q-40 0 -76 6t-58 14t-39 16.5t-24 14.5l-7 6q0 29 15 55t30 38l15 12h12q2 -4 6 -11.5t17 -26.5t28 -33t38.5 -26t47.5 -12q32 0 52.5 14t20.5 38
q0 25 -26 42t-112 58q-67 30 -100.5 63.5t-33.5 89.5q0 66 49.5 102.5t147.5 36.5q55 0 99 -11.5t61 -22.5l17 -11q0 -29 -15 -55.5t-31 -38.5l-15 -12h-12q-1 4 -4 10.5t-13.5 23.5t-22.5 30t-32 23.5t-42 10.5z" />
    <glyph glyph-name="t" unicode="t" horiz-adv-x="392" 
d="M12 422v38l88 38l33 117h102v-138h131v-55h-131v-285q0 -70 65 -70q16 0 30 4.5t20 8.5l6 5l22 -22q-2 -3 -6 -8t-18 -17.5t-30.5 -22t-44 -17.5t-57.5 -8q-65 0 -100 33t-35 95v304h-75z" />
    <glyph glyph-name="u" unicode="u" horiz-adv-x="599" 
d="M218 477v-332q0 -73 74 -73q23 0 45.5 6t32.5 12l11 6v204q0 50 -4 91.5t-8 57.5l-4 16l12 12q39 0 74 3t51 6l15 3l12 -12v-277q0 -50 6.5 -97t12.5 -69l7 -22l-12 -12q-40 0 -77.5 -3t-55.5 -6l-17 -3l-12 12l4 45l-4 4q-7 -7 -21 -16.5t-58.5 -26t-90.5 -16.5
q-74 0 -107.5 38.5t-33.5 102.5v169q0 50 -7 91.5t-13 57.5l-7 16l13 12q40 0 77.5 3t54.5 6l18 3z" />
    <glyph glyph-name="v" unicode="v" horiz-adv-x="543" 
d="M210 21l-109 279q-20 50 -42 92.5t-35 59.5l-12 17l8 8q42 0 80 2t55 4l17 2l142 -357l69 172q21 53 34 95.5t15 58.5l2 15l9 8q17 0 37 2t32 4l11 2l9 -8l-196 -477h-105z" />
    <glyph glyph-name="w" unicode="w" horiz-adv-x="814" 
d="M505 21l-85 257l-90 -278h-102l-21 21l-108 279q-20 50 -41.5 92.5t-33.5 59.5l-12 17l8 8q42 0 80 2t55 4l17 2l132 -339l77 237q-11 26 -22 47.5t-17 29.5l-5 9l8 8q42 0 78.5 2t51.5 4l15 2l113 -342l56 157q17 49 27.5 91t12.5 60l2 18l9 8q17 0 38 2t34 4l12 2l8 -8
l-172 -477h-104z" />
    <glyph glyph-name="x" unicode="x" horiz-adv-x="548" 
d="M200 486l110 -168q34 46 58 84t31 52l7 15l10 8h105l-173 -217l40 -60q34 -51 69.5 -98t54.5 -68l18 -22v-12q-48 0 -92.5 -2t-65.5 -4l-20 -3l-117 177q-34 -44 -61.5 -83.5t-38.5 -57.5l-11 -18l-9 -9h-89l-9 8l179 218l-48 74q-33 50 -64.5 91t-46.5 57l-15 17v12
q48 0 92.5 2.5t65.5 4.5z" />
    <glyph glyph-name="y" unicode="y" horiz-adv-x="539" 
d="M527 477l-235 -550q-20 -47 -37 -91t-23 -64l-7 -21l-9 -8q-32 0 -63 9.5t-46 18.5l-15 9v12q9 7 24 21t50.5 60t58.5 95l14 31l-134 301q-22 49 -45 91t-36 60l-12 18l8 8q42 0 81 2t57 4l18 2l134 -328l65 143q23 52 37 94t16 58l2 17l8 8q18 0 38 2t32 4l11 2z" />
    <glyph glyph-name="z" unicode="z" horiz-adv-x="508" 
d="M36 29l246 389h-64q-50 0 -91.5 -7.5t-57.5 -14.5l-16 -8l-12 12v77h430v-29l-246 -389h71q50 0 91.5 7.5t57.5 15.5l16 7l12 -12v-77h-437v29z" />
    <glyph glyph-name="braceleft" unicode="{" horiz-adv-x="352" 
d="M103 12l18 158q5 48 -19 73.5t-73 25.5v62q49 0 73 25.5t19 73.5l-17 158q-9 84 49 125.5t174 41.5v-63q-86 0 -77 -83l17 -158q12 -111 -89 -151q101 -40 89 -151l-17 -158q-9 -83 77 -83v-63q-116 0 -174 43.5t-50 123.5z" />
    <glyph glyph-name="bar" unicode="|" horiz-adv-x="217" 
d="M139 -150h-62v900h62v-900z" />
    <glyph glyph-name="braceright" unicode="}" horiz-adv-x="352" 
d="M235 170l17 -158q9 -80 -49 -123.5t-174 -43.5v63q85 0 77 83l-17 158q-12 112 88 151q-100 39 -88 151l17 158q9 83 -77 83v63q116 0 174 -41.5t49 -125.5l-17 -158q-5 -49 18.5 -74t73.5 -25v-62q-50 0 -73.5 -25t-18.5 -74z" />
    <glyph glyph-name="asciitilde" unicode="~" horiz-adv-x="500" 
d="M183 369q36 0 79.5 -31t70.5 -31q26 0 52 16t39 32l14 16l34 -34q-3 -4 -8 -11t-21 -25.5t-33 -32t-42.5 -25t-50.5 -11.5q-36 0 -80 30.5t-68 30.5t-50.5 -15.5t-41.5 -31.5l-15 -16l-34 34q3 4 8 11t21 25.5t33 32t42.5 25t50.5 11.5z" />
    <glyph glyph-name="exclamdown" unicode="&#xa1;" horiz-adv-x="266" 
d="M212 409q0 -36 -21.5 -57.5t-56.5 -21.5q-36 0 -57.5 21.5t-21.5 57.5q0 35 21.5 56.5t57.5 21.5q35 0 56.5 -21.5t21.5 -56.5zM189 254l22 -477h-156l22 477h112z" />
    <glyph glyph-name="cent" unicode="&#xa2;" horiz-adv-x="536" 
d="M482 111l22 -23l-6 -9t-19.5 -21t-34 -27.5t-50.5 -24t-68 -14.5v-92h-63v91q-104 9 -165.5 76.5t-61.5 172.5q0 102 59.5 168t167.5 77v92h63v-91q81 -4 128.5 -38t47.5 -92q0 -13 -3 -26t-5 -19l-3 -6q-41 -12 -117 -12l-12 12q9 23 9 56q0 78 -68 78q-49 0 -75.5 -49
t-26.5 -129q0 -102 36.5 -148t108.5 -46q38 0 72 11t49 22z" />
    <glyph glyph-name="sterling" unicode="&#xa3;" horiz-adv-x="605" 
d="M57 518q0 95 65 143.5t183 48.5q126 0 190.5 -51t64.5 -137q0 -18 -3 -33t-6 -21l-3 -5q-51 -12 -136 -12l-13 12q12 20 12 70q0 62 -26.5 93.5t-73.5 31.5q-96 0 -96 -129q0 -29 5.5 -57.5t9.5 -42t16 -41.5t14 -34h139l9 -8v-54h-131q0 -4 0.5 -11t0.5 -10
q0 -33 -11 -65.5t-27 -54.5t-32 -39.5t-27 -25.5l-11 -9h212q50 0 91.5 7.5t57.5 15.5l16 7l12 -12v-95h-505v43q11 12 27.5 32t44 75t27.5 103q0 19 -5 39h-94v62h65q-2 4 -10.5 16t-11.5 17t-10 16.5t-10 19t-7.5 20t-7 23t-4 24.5t-1.5 28z" />
    <glyph glyph-name="currency" unicode="&#xa4;" horiz-adv-x="599" 
d="M115 300q0 61 34 107l-90 89l44 45l90 -90q49 34 107 34q60 0 106 -34l90 90l45 -45l-90 -90q34 -49 34 -106q0 -58 -34 -107l90 -89l-45 -45l-90 89q-47 -33 -106 -33q-61 0 -107 34l-90 -90l-44 45l89 89q-33 47 -33 107zM177 300q0 -50 36 -86t87 -36q50 0 86 36
t36 86t-36 86t-86 36q-51 0 -87 -36t-36 -86z" />
    <glyph glyph-name="yen" unicode="&#xa5;" horiz-adv-x="682" 
d="M665 700l-239 -377v-14h121v-62h-121v-76h121v-63h-121v-108h-155v108h-121v63h121v76h-121v62h121v5l-110 174q-35 55 -71.5 104.5t-55.5 71.5l-19 23v13h191l188 -290l186 290h85z" />
    <glyph glyph-name="brokenbar" unicode="&#xa6;" horiz-adv-x="217" 
d="M139 -150h-62v400h62v-400zM139 750v-400h-62v400h62z" />
    <glyph glyph-name="section" unicode="&#xa7;" horiz-adv-x="495" 
d="M171 609q0 -29 30 -52t72.5 -40.5t84.5 -37.5t72 -52.5t30 -75.5q0 -39 -25 -69t-75 -45q100 -51 100 -121q0 -57 -54.5 -91.5t-163.5 -34.5q-96 0 -152.5 30t-56.5 89q0 12 2.5 22.5t4.5 14.5l3 5q44 12 119 12l12 -12q-9 -15 -9 -41q0 -72 82 -72q39 0 60 17t21 42
q0 28 -29.5 49t-72 36t-85 32.5t-72 50.5t-29.5 80q0 87 88 116q-86 46 -86 118q0 61 52 96t155 35q92 0 143 -29.5t51 -88.5q0 -12 -2 -21.5t-4 -12.5l-2 -4q-43 -12 -118 -12l-13 12q7 12 7 37q0 71 -70 71q-34 0 -52 -15.5t-18 -37.5zM162 374q0 -32 30 -54t88 -46
q26 5 40.5 21t14.5 36q0 18 -9 31.5t-31 26t-36.5 19t-48.5 19.5q-23 -4 -35.5 -19t-12.5 -34z" />
    <glyph glyph-name="dieresis" unicode="&#xa8;" horiz-adv-x="456" 
d="M55 620q0 28 18 45.5t47 17.5q28 0 45.5 -17.5t17.5 -45.5q0 -29 -17.5 -47t-45.5 -18q-29 0 -47 18t-18 47zM273 620q0 28 18 45.5t47 17.5q28 0 45.5 -17.5t17.5 -45.5q0 -29 -17.5 -47t-45.5 -18q-29 0 -47 18t-18 47z" />
    <glyph glyph-name="copyright" unicode="&#xa9;" horiz-adv-x="833" 
d="M57 350q0 149 105.5 254.5t254.5 105.5t254.5 -105.5t105.5 -254.5t-105.5 -254.5t-254.5 -105.5t-254.5 105.5t-105.5 254.5zM119 350q0 -123 87 -210t211 -87q123 0 210 87t87 210t-87 210t-210 87q-124 0 -211 -87t-87 -210zM432 500q-35 0 -56.5 -36.5t-21.5 -103.5
q0 -136 103 -136q28 0 53.5 8t37.5 16l12 9l13 -14q-1 -3 -4 -8t-15 -18t-27 -22.5t-41 -17.5t-57 -8q-82 0 -132 50.5t-50 131.5q0 80 50.5 130t135.5 50q65 0 103.5 -29t38.5 -73q0 -10 -2.5 -18.5t-4.5 -11.5l-2 -3q-32 -7 -85 -7l-7 7q8 12 8 39q0 65 -50 65z" />
    <glyph glyph-name="ordfeminine" unicode="&#xaa;" horiz-adv-x="293" 
d="M143 705q108 0 108 -72v-119q0 -21 16 -21l12 4l12 -13q-22 -29 -71 -29q-43 0 -51 30q-34 -30 -81 -30q-32 0 -49 17t-17 47t22.5 46t84.5 24l38 5v56q0 29 -27 29q-32 0 -32 -35l5 -27l-6 -7q-19 0 -36 2t-25 4l-7 1q-6 9 -6 25q0 29 29 46t81 17zM108 530
q0 -30 28 -30q8 0 16 2.5t12 5.5l3 2v56l-28 -4q-31 -4 -31 -32z" />
    <glyph glyph-name="guillemotleft" unicode="&#xab;" horiz-adv-x="500" 
d="M253 471l9 -9v-51l-114 -136l114 -136v-51l-9 -9l-218 185v22zM453 471l9 -9v-51l-114 -136l114 -136v-51l-9 -9l-218 185v22z" />
    <glyph glyph-name="logicalnot" unicode="&#xac;" 
d="M99 344v62h395v-194h-63v132h-332z" />
    <glyph glyph-name="uni00AD" unicode="&#xad;" horiz-adv-x="334" 
d="M55 244v63h224v-63h-224z" />
    <glyph glyph-name="registered" unicode="&#xae;" horiz-adv-x="833" 
d="M57 350q0 149 105.5 254.5t254.5 105.5t254.5 -105.5t105.5 -254.5t-105.5 -254.5t-254.5 -105.5t-254.5 105.5t-105.5 254.5zM119 350q0 -123 87 -210t211 -87q123 0 210 87t87 210t-87 210t-210 87q-124 0 -211 -87t-87 -210zM283 175v350h134q69 0 108.5 -26t39.5 -74
q0 -64 -67 -87l36 -73q12 -24 26 -45.5t22 -30.5l8 -9l-4 -5h-104l-74 151h-30v-151h-95zM403 488h-25v-125h25q29 0 45.5 16t16.5 46q0 63 -62 63z" />
    <glyph glyph-name="macron" unicode="&#xaf;" horiz-adv-x="298" 
d="M13 586v62h272v-62h-272z" />
    <glyph glyph-name="degree" unicode="&#xb0;" horiz-adv-x="318" 
d="M35 586q0 55 34.5 89.5t90.5 34.5t90 -34t34 -90t-34 -90.5t-90 -34.5t-90.5 34.5t-34.5 90.5zM102 586q0 -27 16 -43.5t42 -16.5t41.5 16.5t15.5 43.5q0 26 -15.5 42t-41.5 16t-42 -16t-16 -42z" />
    <glyph glyph-name="plusminus" unicode="&#xb1;" 
d="M99 319v62h166v166h63v-166h166v-62h-166v-166h-63v166h-166zM99 39v62h395v-62h-395z" />
    <glyph glyph-name="twosuperior" unicode="&#xb2;" horiz-adv-x="308" 
d="M289 613q0 -37 -25 -73t-61 -61.5t-57 -38t-33 -17.5h87q25 0 45.5 4.5t28.5 8.5l9 5l7 -6v-85h-273v43h1l8 5q7 6 14.5 12.5t19.5 16.5t23.5 21t25 24.5t25 27.5t22.5 29.5t18.5 31t12 32t4.5 31.5q0 51 -40 51q-42 0 -42 -58q0 -12 1.5 -21t3.5 -12l2 -4l-7 -7
q-24 0 -45 1.5t-30 3.5l-10 2q-6 10 -6 31q0 43 34.5 69t100.5 26q64 0 100 -24t36 -69z" />
    <glyph glyph-name="threesuperior" unicode="&#xb3;" horiz-adv-x="324" 
d="M155 375q49 0 49 69q0 66 -55 66h-22l-4 4v36h17q29 0 41.5 16t12.5 50q0 59 -39 59q-43 0 -43 -55q0 -11 2 -19.5t4 -11.5l1 -3l-7 -7q-24 0 -45 1.5t-31 3.5l-9 2q-6 9 -6 29q0 41 35 66t102 25q64 0 98.5 -24t34.5 -70q0 -62 -67 -81q80 -16 80 -87q0 -49 -39 -74.5
t-107 -25.5q-71 0 -106 25.5t-35 68.5q0 9 1.5 16.5t3.5 10.5l1 3q33 7 86 7l7 -7q-8 -11 -8 -36q0 -57 47 -57z" />
    <glyph glyph-name="acute" unicode="&#xb4;" horiz-adv-x="302" 
d="M61 556l-8 8l78 171q36 0 65 -5.5t40 -11.5l12 -5v-8l-143 -149h-44z" />
    <glyph glyph-name="paragraph" unicode="&#xb6;" horiz-adv-x="664" 
d="M279 -26v315q-106 0 -168.5 54.5t-62.5 150.5q0 97 62.5 151.5t168.5 54.5h113v-676q0 -57 -18.5 -107t-45.5 -81.5t-54 -54.5t-46 -33l-18 -10l-23 23q4 3 10 9.5t22 28t28 45t22 59t10 71.5zM475 0v700h112v-700h-112z" />
    <glyph glyph-name="periodcentered" unicode="&#xb7;" horiz-adv-x="233" 
d="M38 300q0 35 21.5 57t56.5 22q36 0 57.5 -22t21.5 -57t-21.5 -56.5t-57.5 -21.5q-35 0 -56.5 21.5t-21.5 56.5z" />
    <glyph glyph-name="cedilla" unicode="&#xb8;" horiz-adv-x="252" 
d="M87 -77l13 77h46l-8 -50q30 0 52 -19.5t22 -51.5q0 -33 -24 -54.5t-63 -21.5q-28 0 -49.5 10.5t-29.5 21.5l-8 11l19 19q15 -17 43 -17q40 0 40 33t-44 33z" />
    <glyph glyph-name="onesuperior" unicode="&#xb9;" horiz-adv-x="252" 
d="M106 350v278q-38 -18 -79 -18q-5 11 -5 35l5 5q31 0 64 12.5t51 25.5l17 12h38v-350h-91z" />
    <glyph glyph-name="ordmasculine" unicode="&#xba;" horiz-adv-x="304" 
d="M20 580q0 56 36.5 90.5t95.5 34.5t95 -34.5t36 -90.5t-36.5 -90.5t-94.5 -34.5q-59 0 -95.5 34.5t-36.5 90.5zM114 580q0 -98 38 -98q37 0 37 98q0 99 -37 99q-38 0 -38 -99z" />
    <glyph glyph-name="guillemotright" unicode="&#xbb;" horiz-adv-x="500" 
d="M38 462l9 9l218 -185v-22l-218 -185l-9 9v51l114 136l-114 136v51zM238 462l8 9l219 -185v-22l-219 -185l-8 9v51l114 136l-114 136v51z" />
    <glyph glyph-name="onequarter" unicode="&#xbc;" horiz-adv-x="728" 
d="M195 -25h-72l432 750h72zM426 65v19l200 266h45v-247h40v-38h-40v-65h-91v65h-154zM106 350v278q-38 -18 -79 -18q-5 11 -5 35l5 5q31 0 64 12.5t51 25.5l17 12h38v-350h-91zM487 103h93v123z" />
    <glyph glyph-name="onehalf" unicode="&#xbd;" horiz-adv-x="774" 
d="M756 263q0 -37 -25 -73t-61 -61.5t-57 -38t-33 -17.5h87q25 0 45.5 4.5t28.5 8.5l8 5l7 -6v-85h-272v43h1l7 5q8 6 15.5 12.5t19.5 16.5t23.5 21t25 24.5t25 27.5t22.5 29.5t18.5 31t12 32t4.5 31.5q0 24 -11 37.5t-29 13.5q-42 0 -42 -58q0 -12 2 -21t4 -12l1 -4l-7 -7
q-24 0 -45.5 1.5t-30.5 3.5l-10 2q-6 10 -6 31q0 43 35 69t100 26q64 0 100.5 -24t36.5 -69zM195 -25h-72l432 750h72zM106 350v278q-38 -18 -79 -18q-5 11 -5 35l5 5q31 0 64 12.5t51 25.5l17 12h38v-350h-91z" />
    <glyph glyph-name="threequarters" unicode="&#xbe;" horiz-adv-x="774" 
d="M155 375q49 0 49 69q0 66 -55 66h-22l-4 4v36h17q29 0 41.5 16t12.5 50q0 59 -39 59q-43 0 -43 -55q0 -11 2 -19.5t4 -11.5l1 -3l-7 -7q-24 0 -45 1.5t-31 3.5l-9 2q-6 9 -6 29q0 41 35 66t102 25q64 0 98.5 -24t34.5 -70q0 -62 -67 -81q80 -16 80 -87q0 -49 -39 -74.5
t-107 -25.5q-71 0 -106 25.5t-35 68.5q0 9 1.5 16.5t3.5 10.5l1 3q33 7 86 7l7 -7q-8 -11 -8 -36q0 -57 47 -57zM242 -25h-72l432 750h72zM473 65v19l200 266h45v-247h39v-38h-39v-65h-91v65h-154zM533 103h94v123z" />
    <glyph glyph-name="questiondown" unicode="&#xbf;" horiz-adv-x="570" 
d="M371 409q0 -36 -21.5 -57.5t-56.5 -21.5t-57 21.5t-22 57.5q0 35 22 56.5t57 21.5t56.5 -21.5t21.5 -56.5zM34 -50q0 46 20.5 86.5t50 65t58.5 42.5t49 26l21 7l4 77h111l6 -139q-7 -1 -17.5 -3.5t-38.5 -15.5t-49 -31t-38.5 -53t-17.5 -78q0 -53 25.5 -84t72.5 -31
q43 0 69 30t26 87q0 20 -3 36t-6 22l-3 6l12 12q38 0 72.5 -3t49.5 -6l16 -3q12 -17 12 -55q0 -81 -64 -129.5t-185 -48.5q-119 0 -186 48.5t-67 134.5z" />
    <glyph glyph-name="Agrave" unicode="&#xc0;" horiz-adv-x="724" 
d="M169 186l-72 -186h-78l257 649l-23 39v12h169l283 -700h-160l-75 186h-301zM335 523l-18 42l-124 -317h252zM412 767l-9 -8h-43l-143 149v8q36 22 117 22z" />
    <glyph glyph-name="Aacute" unicode="&#xc1;" horiz-adv-x="724" 
d="M169 186l-72 -186h-78l257 649l-23 39v12h169l283 -700h-160l-75 186h-301zM335 523l-18 42l-124 -317h252zM305 759l-8 8l78 171q36 0 65 -5.5t40 -10.5l12 -6v-8l-143 -149h-44z" />
    <glyph glyph-name="Acircumflex" unicode="&#xc2;" horiz-adv-x="724" 
d="M169 186l-72 -186h-78l257 649l-23 39v12h169l283 -700h-160l-75 186h-301zM335 523l-18 42l-124 -317h252zM514 767l-8 -8h-51l-101 84l-100 -84h-51l-9 8l142 171h37z" />
    <glyph glyph-name="Atilde" unicode="&#xc3;" horiz-adv-x="724" 
d="M169 186l-72 -186h-78l257 649l-23 39v12h169l283 -700h-160l-75 186h-301zM335 523l-18 42l-124 -317h252zM310 872q26 0 55 -18.5t50 -18.5q20 0 39.5 10t28.5 20l9 10l22 -23q-1 -4 -4 -10t-13.5 -22t-23 -28t-32.5 -22t-42 -10q-26 0 -55 18.5t-50 18.5
q-20 0 -39.5 -10t-28.5 -20l-9 -10l-22 23q1 4 4 10t13.5 22t23 28t32.5 22t42 10z" />
    <glyph glyph-name="Adieresis" unicode="&#xc4;" horiz-adv-x="724" 
d="M169 186l-72 -186h-78l257 649l-23 39v12h169l283 -700h-160l-75 186h-301zM335 523l-18 42l-124 -317h252zM400 823q0 29 17.5 46t46.5 17t46.5 -17t17.5 -46t-17.5 -47t-46.5 -18t-46.5 18t-17.5 47zM182 823q0 28 18 45.5t47 17.5t46 -17t17 -46t-17.5 -47t-45.5 -18
q-29 0 -47 18t-18 47z" />
    <glyph glyph-name="Aring" unicode="&#xc5;" horiz-adv-x="724" 
d="M169 186l-72 -186h-78l257 649l-23 39v12h169l283 -700h-160l-75 186h-301zM335 523l-18 42l-124 -317h252zM262 842q0 41 26 66.5t67 25.5t66.5 -25.5t25.5 -66.5t-25.5 -66.5t-66.5 -25.5t-67 25.5t-26 66.5zM319 842q0 -17 10 -27t26 -10t25.5 10t9.5 27q0 16 -9.5 26
t-25.5 10t-26 -10t-10 -26z" />
    <glyph glyph-name="AE" unicode="&#xc6;" horiz-adv-x="864" 
d="M19 0l313 700h474v-81l-12 -12q-53 31 -165 31h-125v-248h232l8 -9v-54h-240v-265h135q50 0 91 8t58 16l16 7l12 -12v-81h-467v204h-162l-90 -204h-78zM214 266h135v306z" />
    <glyph glyph-name="Ccedilla" unicode="&#xc7;" horiz-adv-x="729" 
d="M366 -77l11 68q-150 9 -240.5 107.5t-90.5 252.5q0 161 99.5 260t266.5 99q127 0 201.5 -56t74.5 -146q0 -19 -4 -34.5t-8 -21.5l-3 -6q-51 -12 -137 -12l-12 12q12 22 12 73q0 68 -33.5 103.5t-92.5 35.5q-87 0 -139 -77t-52 -215q0 -286 230 -286q58 0 111 17.5
t78 35.5l24 18l25 -25q-3 -5 -9 -13.5t-29 -31t-50.5 -40t-74.5 -33t-101 -17.5l-6 -41q31 0 53 -19.5t22 -51.5q0 -33 -24.5 -54.5t-63.5 -21.5q-28 0 -49.5 10.5t-29.5 21.5l-8 11l19 19q15 -17 43 -17q40 0 40 33t-44 33z" />
    <glyph glyph-name="Egrave" unicode="&#xc8;" horiz-adv-x="604" 
d="M77 0v700h469v-81l-12 -12q-52 31 -165 31h-137v-248h245l8 -9v-54h-253v-265h147q50 0 91.5 8t57.5 16l16 7l12 -12v-81h-479zM383 767l-9 -8h-44l-142 149v8q35 22 116 22z" />
    <glyph glyph-name="Eacute" unicode="&#xc9;" horiz-adv-x="604" 
d="M77 0v700h469v-81l-12 -12q-52 31 -165 31h-137v-248h245l8 -9v-54h-253v-265h147q50 0 91.5 8t57.5 16l16 7l12 -12v-81h-479zM256 759l-8 8l78 171q36 0 65 -5.5t41 -10.5l11 -6v-8l-143 -149h-44z" />
    <glyph glyph-name="Ecircumflex" unicode="&#xca;" horiz-adv-x="604" 
d="M77 0v700h469v-81l-12 -12q-52 31 -165 31h-137v-248h245l8 -9v-54h-253v-265h147q50 0 91.5 8t57.5 16l16 7l12 -12v-81h-479zM475 767l-8 -8h-51l-101 84l-100 -84h-51l-9 8l142 171h37z" />
    <glyph glyph-name="Edieresis" unicode="&#xcb;" horiz-adv-x="604" 
d="M77 0v700h469v-81l-12 -12q-52 31 -165 31h-137v-248h245l8 -9v-54h-253v-265h147q50 0 91.5 8t57.5 16l16 7l12 -12v-81h-479zM360 820q0 29 17.5 46t46.5 17t46.5 -17t17.5 -46t-17.5 -47t-46.5 -18t-46.5 18t-17.5 47zM142 820q0 28 18 45.5t47 17.5t46 -17.5
t17 -45.5q0 -29 -17.5 -47t-45.5 -18q-29 0 -47 18t-18 47z" />
    <glyph glyph-name="Igrave" unicode="&#xcc;" horiz-adv-x="308" 
d="M77 0v700h155v-700h-155zM212 767l-9 -8h-44l-142 149v8q35 22 117 22z" />
    <glyph glyph-name="Iacute" unicode="&#xcd;" horiz-adv-x="308" 
d="M77 0v700h155v-700h-155zM105 759l-8 8l78 171q36 0 65 -5.5t40 -10.5l12 -6v-8l-143 -149h-44z" />
    <glyph glyph-name="Icircumflex" unicode="&#xce;" horiz-adv-x="308" 
d="M77 0v700h155v-700h-155zM314 767l-8 -8h-51l-101 84l-100 -84h-51l-9 8l142 171h37z" />
    <glyph glyph-name="Idieresis" unicode="&#xcf;" horiz-adv-x="308" 
d="M77 0v700h155v-700h-155zM-18 823q0 29 17.5 46t46.5 17t46.5 -17t17.5 -46t-17.5 -47t-46.5 -18t-46.5 18t-17.5 47zM199 823q0 28 18 45.5t47 17.5q28 0 45.5 -17t17.5 -46t-17.5 -47t-45.5 -18q-29 0 -47 18t-18 47z" />
    <glyph glyph-name="Eth" unicode="&#xd0;" horiz-adv-x="775" 
d="M18 325v63h59v312h292q161 0 260.5 -97t99.5 -253t-99.5 -253t-260.5 -97h-292v325h-59zM362 637h-130v-249h138v-63h-138v-262h130q89 0 141.5 74t52.5 213t-52.5 213t-141.5 74z" />
    <glyph glyph-name="Ntilde" unicode="&#xd1;" horiz-adv-x="733" 
d="M77 0v420q0 80 -6.5 147t-13.5 94l-7 27l12 12h53l465 -457v457h77v-700h-46l-465 458v-458h-69zM323 872q26 0 54.5 -18.5t49.5 -18.5q20 0 39.5 10t28.5 20l9 10l23 -23q-2 -4 -4.5 -10t-13.5 -22t-23 -28t-32.5 -22t-42.5 -10q-26 0 -55 18.5t-50 18.5q-20 0 -39 -10
t-28 -20l-9 -10l-23 23q1 4 4 10t13.5 22t23 28t33 22t42.5 10z" />
    <glyph glyph-name="Ograve" unicode="&#xd2;" horiz-adv-x="812" 
d="M46 350q0 161 99.5 260.5t260.5 99.5q160 0 259.5 -99.5t99.5 -260.5t-99.5 -260.5t-259.5 -99.5q-161 0 -260.5 99.5t-99.5 260.5zM219 350q0 -149 50.5 -228.5t136.5 -79.5t136.5 79.5t50.5 228.5t-50.5 228.5t-136.5 79.5t-136.5 -79.5t-50.5 -228.5zM463 767l-8 -8
h-44l-143 149v8q36 22 117 22z" />
    <glyph glyph-name="Oacute" unicode="&#xd3;" horiz-adv-x="812" 
d="M46 350q0 161 99.5 260.5t260.5 99.5q160 0 259.5 -99.5t99.5 -260.5t-99.5 -260.5t-259.5 -99.5q-161 0 -260.5 99.5t-99.5 260.5zM219 350q0 -149 50.5 -228.5t136.5 -79.5t136.5 79.5t50.5 228.5t-50.5 228.5t-136.5 79.5t-136.5 -79.5t-50.5 -228.5zM357 759l-9 8
l78 171q36 0 65.5 -5.5t40.5 -10.5l11 -6v-8l-142 -149h-44z" />
    <glyph glyph-name="Ocircumflex" unicode="&#xd4;" horiz-adv-x="812" 
d="M46 350q0 161 99.5 260.5t260.5 99.5q160 0 259.5 -99.5t99.5 -260.5t-99.5 -260.5t-259.5 -99.5q-161 0 -260.5 99.5t-99.5 260.5zM219 350q0 -149 50.5 -228.5t136.5 -79.5t136.5 79.5t50.5 228.5t-50.5 228.5t-136.5 79.5t-136.5 -79.5t-50.5 -228.5zM566 767l-9 -8
h-51l-100 84l-101 -84h-51l-8 8l141 171h37z" />
    <glyph glyph-name="Otilde" unicode="&#xd5;" horiz-adv-x="812" 
d="M46 350q0 161 99.5 260.5t260.5 99.5q160 0 259.5 -99.5t99.5 -260.5t-99.5 -260.5t-259.5 -99.5q-161 0 -260.5 99.5t-99.5 260.5zM219 350q0 -149 50.5 -228.5t136.5 -79.5t136.5 79.5t50.5 228.5t-50.5 228.5t-136.5 79.5t-136.5 -79.5t-50.5 -228.5zM362 872
q26 0 54.5 -18.5t49.5 -18.5q20 0 39.5 10t28.5 20l9 10l23 -23q-2 -4 -4.5 -10t-13.5 -22t-23 -28t-32.5 -22t-42.5 -10q-26 0 -55 18.5t-50 18.5q-20 0 -39.5 -10t-28.5 -20l-9 -10l-22 23q1 4 4 10t13.5 22t23 28t33 22t42.5 10z" />
    <glyph glyph-name="Odieresis" unicode="&#xd6;" horiz-adv-x="812" 
d="M46 350q0 161 99.5 260.5t260.5 99.5q160 0 259.5 -99.5t99.5 -260.5t-99.5 -260.5t-259.5 -99.5q-161 0 -260.5 99.5t-99.5 260.5zM219 350q0 -149 50.5 -228.5t136.5 -79.5t136.5 79.5t50.5 228.5t-50.5 228.5t-136.5 79.5t-136.5 -79.5t-50.5 -228.5zM233 823
q0 29 17.5 46t46.5 17t46.5 -17t17.5 -46t-17.5 -47t-46.5 -18t-46.5 18t-17.5 47zM450 823q0 28 18 45.5t47 17.5t46 -17t17 -46t-17.5 -47t-45.5 -18q-29 0 -47 18t-18 47z" />
    <glyph glyph-name="multiply" unicode="&#xd7;" 
d="M140 124l-44 45l156 156l-156 156l44 45l156 -157l157 157l44 -45l-156 -156l156 -156l-44 -45l-157 156z" />
    <glyph glyph-name="Oslash" unicode="&#xd8;" horiz-adv-x="811" 
d="M226 -25h-72l42 73q-71 47 -110.5 125t-39.5 177q0 161 99.5 260.5t260.5 99.5q83 0 154 -30l26 45h72l-43 -74q71 -47 110.5 -124.5t39.5 -176.5q0 -161 -99.5 -260.5t-259.5 -99.5q-85 0 -155 29zM596 350q0 123 -38 202l-266 -462q46 -48 114 -48q87 0 138.5 79.5
t51.5 228.5zM216 350q0 -126 37 -203l266 463q-46 48 -113 48q-87 0 -138.5 -79.5t-51.5 -228.5z" />
    <glyph glyph-name="Ugrave" unicode="&#xd9;" horiz-adv-x="726" 
d="M582 253v447h70v-445q0 -120 -77 -192.5t-213 -72.5q-135 0 -211.5 72.5t-76.5 192.5v445h155v-469q0 -80 47.5 -128t124.5 -48q82 0 131.5 53.5t49.5 144.5zM428 767l-9 -8h-44l-143 149v8q36 22 117 22z" />
    <glyph glyph-name="Uacute" unicode="&#xda;" horiz-adv-x="726" 
d="M582 253v447h70v-445q0 -120 -77 -192.5t-213 -72.5q-135 0 -211.5 72.5t-76.5 192.5v445h155v-469q0 -80 47.5 -128t124.5 -48q82 0 131.5 53.5t49.5 144.5zM321 759l-9 8l79 171q36 0 65 -5.5t40 -10.5l12 -6v-8l-143 -149h-44z" />
    <glyph glyph-name="Ucircumflex" unicode="&#xdb;" horiz-adv-x="726" 
d="M582 253v447h70v-445q0 -120 -77 -192.5t-213 -72.5q-135 0 -211.5 72.5t-76.5 192.5v445h155v-469q0 -80 47.5 -128t124.5 -48q82 0 131.5 53.5t49.5 144.5zM530 767l-9 -8h-50l-101 84l-101 -84h-51l-8 8l141 171h37z" />
    <glyph glyph-name="Udieresis" unicode="&#xdc;" horiz-adv-x="726" 
d="M582 253v447h70v-445q0 -120 -77 -192.5t-213 -72.5q-135 0 -211.5 72.5t-76.5 192.5v445h155v-469q0 -80 47.5 -128t124.5 -48q82 0 131.5 53.5t49.5 144.5zM197 823q0 29 17.5 46t46.5 17t46.5 -17t17.5 -46t-17.5 -47t-46.5 -18t-46.5 18t-17.5 47zM414 823
q0 28 18 45.5t47 17.5t46.5 -17.5t17.5 -45.5q0 -29 -17.5 -47t-46.5 -18t-47 18t-18 47z" />
    <glyph glyph-name="Yacute" unicode="&#xdd;" horiz-adv-x="682" 
d="M665 700l-239 -377v-323h-155v313l-110 175q-35 55 -71.5 104.5t-55.5 71.5l-19 23v13h191l188 -290l186 290h85zM289 759l-9 8l79 171q36 0 65 -5.5t40 -10.5l12 -6v-8l-143 -149h-44z" />
    <glyph glyph-name="Thorn" unicode="&#xde;" horiz-adv-x="657" 
d="M77 0v700h155v-134h105q130 0 205.5 -54.5t75.5 -151.5t-75.5 -151.5t-205.5 -54.5h-105v-154h-155zM313 503h-81v-286h81q67 0 105 37t38 106t-38 106t-105 37z" />
    <glyph glyph-name="germandbls" unicode="&#xdf;" horiz-adv-x="648" 
d="M215 0h-148v547q0 107 57 160t182 53q216 0 216 -163q0 -29 -6.5 -55.5t-16 -42.5t-19.5 -28.5t-16 -17.5l-7 -5q-31 0 -47.5 -15.5t-16.5 -42.5t18 -44.5t69 -49.5q12 -8 19 -12q68 -45 93.5 -75.5t25.5 -79.5q0 -139 -183 -139q-38 0 -69.5 6t-49.5 14.5t-31 17.5
t-17.5 15t-4.5 7q0 27 10.5 51t20.5 34l11 10h12q2 -4 6 -11t17 -24t26.5 -30t33 -24t38.5 -11q26 0 41.5 13.5t15.5 36.5q0 27 -35 52q-16 11 -64 39q-9 6 -14 9q-52 29 -80.5 63t-28.5 92q0 29 8 53.5t19.5 39.5t23 25.5t19.5 14.5l8 4q2 0 10.5 9.5t18 35.5t9.5 60
q0 107 -87 107q-44 0 -65.5 -33t-21.5 -107v-559z" />
    <glyph glyph-name="agrave" unicode="&#xe0;" horiz-adv-x="564" 
d="M276 487q207 0 207 -142v-244q0 -42 34 -42q7 0 13 2t8 3l3 2l23 -23q-5 -6 -14 -15t-42 -23.5t-72 -14.5q-82 0 -98 60q-69 -60 -164 -60q-65 0 -99 33t-34 94q0 59 43.5 90t164.5 48l86 11v107q0 66 -64 66q-35 0 -55 -20t-20 -56q0 -13 2 -26t4 -19l3 -6l-12 -12
q-33 0 -63 3t-43 6l-13 3q-11 18 -11 47q0 60 55.5 94t157.5 34zM194 136q0 -66 64 -66q20 0 39.5 7t28.5 13l9 7v117l-69 -9q-39 -5 -55.5 -21.5t-16.5 -47.5zM328 564l-8 -8h-44l-143 149v8q36 22 117 22z" />
    <glyph glyph-name="aacute" unicode="&#xe1;" horiz-adv-x="564" 
d="M276 487q207 0 207 -142v-244q0 -42 34 -42q7 0 13 2t8 3l3 2l23 -23q-5 -6 -14 -15t-42 -23.5t-72 -14.5q-82 0 -98 60q-69 -60 -164 -60q-65 0 -99 33t-34 94q0 59 43.5 90t164.5 48l86 11v107q0 66 -64 66q-35 0 -55 -20t-20 -56q0 -13 2 -26t4 -19l3 -6l-12 -12
q-33 0 -63 3t-43 6l-13 3q-11 18 -11 47q0 60 55.5 94t157.5 34zM194 136q0 -66 64 -66q20 0 39.5 7t28.5 13l9 7v117l-69 -9q-39 -5 -55.5 -21.5t-16.5 -47.5zM220 556l-8 8l78 171q36 0 65 -5.5t41 -11.5l11 -5v-8l-143 -149h-44z" />
    <glyph glyph-name="acircumflex" unicode="&#xe2;" horiz-adv-x="564" 
d="M276 487q207 0 207 -142v-244q0 -42 34 -42q7 0 13 2t8 3l3 2l23 -23q-5 -6 -14 -15t-42 -23.5t-72 -14.5q-82 0 -98 60q-69 -60 -164 -60q-65 0 -99 33t-34 94q0 59 43.5 90t164.5 48l86 11v107q0 66 -64 66q-35 0 -55 -20t-20 -56q0 -13 2 -26t4 -19l3 -6l-12 -12
q-33 0 -63 3t-43 6l-13 3q-11 18 -11 47q0 60 55.5 94t157.5 34zM439 564l-8 -8h-51l-101 84l-100 -84h-51l-9 8l142 171h37zM194 136q0 -66 64 -66q20 0 39.5 7t28.5 13l9 7v117l-69 -9q-39 -5 -55.5 -21.5t-16.5 -47.5z" />
    <glyph glyph-name="atilde" unicode="&#xe3;" horiz-adv-x="564" 
d="M276 487q207 0 207 -142v-244q0 -42 34 -42q7 0 13 2t8 3l3 2l23 -23q-5 -6 -14 -15t-42 -23.5t-72 -14.5q-82 0 -98 60q-69 -60 -164 -60q-65 0 -99 33t-34 94q0 59 43.5 90t164.5 48l86 11v107q0 66 -64 66q-35 0 -55 -20t-20 -56q0 -13 2 -26t4 -19l3 -6l-12 -12
q-33 0 -63 3t-43 6l-13 3q-11 18 -11 47q0 60 55.5 94t157.5 34zM229 669q26 0 55 -18t50 -18q20 0 39 9.5t28 19.5l9 10l23 -23q-1 -4 -4 -10t-13.5 -22t-23 -28t-33 -22t-42.5 -10q-26 0 -54.5 18.5t-49.5 18.5t-40 -10t-28 -20l-9 -10l-23 23q2 4 4.5 10t13.5 22t23 28
t32.5 22t42.5 10zM194 136q0 -66 64 -66q20 0 39.5 7t28.5 13l9 7v117l-69 -9q-39 -5 -55.5 -21.5t-16.5 -47.5z" />
    <glyph glyph-name="adieresis" unicode="&#xe4;" horiz-adv-x="564" 
d="M276 487q207 0 207 -142v-244q0 -42 34 -42q7 0 13 2t8 3l3 2l23 -23q-5 -6 -14 -15t-42 -23.5t-72 -14.5q-82 0 -98 60q-69 -60 -164 -60q-65 0 -99 33t-34 94q0 59 43.5 90t164.5 48l86 11v107q0 66 -64 66q-35 0 -55 -20t-20 -56q0 -13 2 -26t4 -19l3 -6l-12 -12
q-33 0 -63 3t-43 6l-13 3q-11 18 -11 47q0 60 55.5 94t157.5 34zM194 136q0 -66 64 -66q20 0 39.5 7t28.5 13l9 7v117l-69 -9q-39 -5 -55.5 -21.5t-16.5 -47.5zM98 620q0 28 18 45.5t47 17.5t46 -17.5t17 -45.5q0 -29 -17.5 -47t-45.5 -18q-29 0 -47 18t-18 47zM316 620
q0 28 18 45.5t47 17.5t46 -17.5t17 -45.5q0 -29 -17.5 -47t-45.5 -18q-29 0 -47 18t-18 47z" />
    <glyph glyph-name="aring" unicode="&#xe5;" horiz-adv-x="564" 
d="M276 487q207 0 207 -142v-244q0 -42 34 -42q7 0 13 2t8 3l3 2l23 -23q-5 -6 -14 -15t-42 -23.5t-72 -14.5q-82 0 -98 60q-69 -60 -164 -60q-65 0 -99 33t-34 94q0 59 43.5 90t164.5 48l86 11v107q0 66 -64 66q-35 0 -55 -20t-20 -56q0 -13 2 -26t4 -19l3 -6l-12 -12
q-33 0 -63 3t-43 6l-13 3q-11 18 -11 47q0 60 55.5 94t157.5 34zM181 639q0 41 25.5 66.5t66.5 25.5t66.5 -25.5t25.5 -66.5t-25.5 -66.5t-66.5 -25.5t-66.5 25.5t-25.5 66.5zM194 136q0 -66 64 -66q20 0 39.5 7t28.5 13l9 7v117l-69 -9q-39 -5 -55.5 -21.5t-16.5 -47.5z
M237 639q0 -17 10 -27t26 -10t26 10.5t10 26.5t-10 26t-26 10t-26 -10t-10 -26z" />
    <glyph glyph-name="ae" unicode="&#xe6;" horiz-adv-x="849" 
d="M782 111l23 -23q-2 -4 -7 -10.5t-23 -23.5t-40 -30t-60 -23.5t-81 -10.5q-131 0 -203 83q-79 -83 -205 -83q-145 0 -145 124q0 59 44 91.5t164 49.5l86 11v107q0 66 -64 66q-35 0 -55 -20t-20 -56q0 -13 2 -26t4 -19l3 -6l-12 -12q-33 0 -63 3t-43 6l-13 3q-11 18 -11 47
q0 59 55.5 93.5t151.5 34.5q114 0 157 -51q72 51 182 51q198 0 198 -156q0 -19 -3 -37.5t-6 -27.5l-3 -10l-12 -12h-282q3 -93 39 -135t106 -42q38 0 72 11t49 22zM605 439q-44 0 -71 -37.5t-32 -108.5l167 10q5 23 5 50q0 86 -69 86zM194 135q0 -31 17.5 -48t49.5 -17
q53 0 102 47q-22 42 -27 97l-70 -9q-72 -11 -72 -70z" />
    <glyph glyph-name="ccedilla" unicode="&#xe7;" horiz-adv-x="536" 
d="M257 -77l11 68q-106 8 -169 75.5t-63 173.5q0 112 71 179.5t198 67.5q90 0 143.5 -34.5t53.5 -96.5q0 -13 -3 -26t-5 -19l-3 -6q-41 -12 -117 -12l-12 12q9 23 9 56q0 78 -68 78q-49 0 -75.5 -49t-26.5 -129q0 -102 36.5 -148t108.5 -46q38 0 72 11t49 22l15 11l22 -23
q-2 -4 -6.5 -10t-20.5 -21.5t-36 -28t-54 -24t-73 -13.5l-6 -41q31 0 53 -19.5t22 -51.5q0 -33 -24.5 -54.5t-63.5 -21.5q-28 0 -49.5 10.5t-29.5 21.5l-8 11l19 19q15 -17 43 -17q40 0 40 33t-44 33z" />
    <glyph glyph-name="egrave" unicode="&#xe8;" horiz-adv-x="549" 
d="M482 111l23 -23q-2 -4 -7 -10.5t-22.5 -23.5t-39.5 -30t-60 -23.5t-81 -10.5q-118 0 -188.5 68.5t-70.5 181.5q0 114 72 180.5t202 66.5q197 0 197 -156q0 -19 -2.5 -37.5t-5.5 -27.5l-3 -10l-12 -12h-283q3 -93 39.5 -135t106.5 -42q38 0 71.5 11t48.5 22zM306 439
q-44 0 -71.5 -37t-32.5 -109l167 10q5 23 5 49q0 87 -68 87zM354 564l-8 -8h-44l-143 149v8q36 22 117 22z" />
    <glyph glyph-name="eacute" unicode="&#xe9;" horiz-adv-x="549" 
d="M482 111l23 -23q-2 -4 -7 -10.5t-22.5 -23.5t-39.5 -30t-60 -23.5t-81 -10.5q-118 0 -188.5 68.5t-70.5 181.5q0 114 72 180.5t202 66.5q197 0 197 -156q0 -19 -2.5 -37.5t-5.5 -27.5l-3 -10l-12 -12h-283q3 -93 39.5 -135t106.5 -42q38 0 71.5 11t48.5 22zM306 439
q-44 0 -71.5 -37t-32.5 -109l167 10q5 23 5 49q0 87 -68 87zM247 556l-9 8l78 171q36 0 65.5 -5.5t40.5 -11.5l11 -5v-8l-143 -149h-43z" />
    <glyph glyph-name="ecircumflex" unicode="&#xea;" horiz-adv-x="549" 
d="M482 111l23 -23q-2 -4 -7 -10.5t-22.5 -23.5t-39.5 -30t-60 -23.5t-81 -10.5q-118 0 -188.5 68.5t-70.5 181.5q0 114 72 180.5t202 66.5q197 0 197 -156q0 -19 -2.5 -37.5t-5.5 -27.5l-3 -10l-12 -12h-283q3 -93 39.5 -135t106.5 -42q38 0 71.5 11t48.5 22zM445 564
l-8 -8h-51l-101 84l-100 -84h-51l-9 8l142 171h37zM306 439q-44 0 -71.5 -37t-32.5 -109l167 10q5 23 5 49q0 87 -68 87z" />
    <glyph glyph-name="edieresis" unicode="&#xeb;" horiz-adv-x="549" 
d="M482 111l23 -23q-2 -4 -7 -10.5t-22.5 -23.5t-39.5 -30t-60 -23.5t-81 -10.5q-118 0 -188.5 68.5t-70.5 181.5q0 114 72 180.5t202 66.5q197 0 197 -156q0 -19 -2.5 -37.5t-5.5 -27.5l-3 -10l-12 -12h-283q3 -93 39.5 -135t106.5 -42q38 0 71.5 11t48.5 22zM306 439
q-44 0 -71.5 -37t-32.5 -109l167 10q5 23 5 49q0 87 -68 87zM125 620q0 28 18 45.5t47 17.5q28 0 45.5 -17.5t17.5 -45.5q0 -29 -17.5 -47t-45.5 -18q-29 0 -47 18t-18 47zM343 620q0 28 18 45.5t47 17.5q28 0 45.5 -17.5t17.5 -45.5q0 -29 -17.5 -47t-45.5 -18
q-29 0 -47 18t-18 47z" />
    <glyph glyph-name="igrave" unicode="&#xec;" horiz-adv-x="285" 
d="M200 564l-8 -8h-44l-143 149v8q36 22 117 22zM70 0v300q0 50 -7 91.5t-13 57.5l-7 16l13 12q40 0 77.5 3t54.5 6l18 3l12 -12v-477h-148z" />
    <glyph glyph-name="iacute" unicode="&#xed;" horiz-adv-x="285" 
d="M83 556l-9 8l79 171q36 0 65 -5.5t40 -11.5l12 -5v-8l-143 -149h-44zM70 0v300q0 50 -7 91.5t-13 57.5l-7 16l13 12q40 0 77.5 3t54.5 6l18 3l12 -12v-477h-148z" />
    <glyph glyph-name="icircumflex" unicode="&#xee;" horiz-adv-x="285" 
d="M70 0v300q0 50 -7 91.5t-13 57.5l-7 16l13 12q40 0 77.5 3t54.5 6l18 3l12 -12v-477h-148zM303 564l-9 -8h-51l-100 84l-101 -84h-51l-8 8l141 171h37z" />
    <glyph glyph-name="idieresis" unicode="&#xef;" horiz-adv-x="285" 
d="M70 0v300q0 50 -7 91.5t-13 57.5l-7 16l13 12q40 0 77.5 3t54.5 6l18 3l12 -12v-477h-148zM-16 620q0 28 18 45.5t47 17.5t46 -17.5t17 -45.5q0 -29 -17.5 -47t-45.5 -18q-29 0 -47 18t-18 47zM173 620q0 28 18 45.5t47 17.5q28 0 45.5 -17.5t17.5 -45.5q0 -29 -17.5 -47
t-45.5 -18q-29 0 -47 18t-18 47z" />
    <glyph glyph-name="eth" unicode="&#xf0;" horiz-adv-x="592" 
d="M555 239q0 -111 -72 -180t-187 -69q-116 0 -188 69t-72 180t72 179.5t188 68.5q40 0 74 -9q-28 70 -69 119l-60 -60l-44 45l61 61q-29 28 -61.5 48t-50.5 26l-17 6l37 37q67 -14 146 -63l63 63l44 -45l-55 -55q191 -151 191 -421zM201 239q0 -97 26 -149t69 -52t68.5 52
t25.5 149q0 96 -25.5 148t-68.5 52t-69 -52t-26 -148z" />
    <glyph glyph-name="ntilde" unicode="&#xf1;" horiz-adv-x="597" 
d="M382 0v336q0 69 -73 69q-22 0 -45 -6t-34 -11l-12 -6v-382h-148v300q0 50 -7 91.5t-13 57.5l-7 16l13 12q40 0 77.5 3t54.5 6l18 3l12 -12l-4 -45l4 -4q8 7 22.5 16.5t60.5 26t92 16.5q72 0 104.5 -37t32.5 -100v-350h-148zM254 669q26 0 55 -18t50 -18q20 0 39 9.5
t28 19.5l9 10l23 -23q-1 -4 -4 -10t-13.5 -22t-23 -28t-33 -22t-42.5 -10q-26 0 -54.5 18.5t-49.5 18.5t-40 -10t-28 -20l-9 -10l-23 23q2 4 4.5 10t13.5 22t23 28t32.5 22t42.5 10z" />
    <glyph glyph-name="ograve" unicode="&#xf2;" horiz-adv-x="592" 
d="M36 239q0 111 72 179.5t188 68.5t187.5 -68.5t71.5 -179.5t-72 -180t-187 -69q-116 0 -188 69t-72 180zM201 239q0 -97 26 -149t69 -52t68.5 52t25.5 149q0 96 -25.5 148t-68.5 52t-69 -52t-26 -148zM353 564l-8 -8h-44l-143 149v8q36 22 117 22z" />
    <glyph glyph-name="oacute" unicode="&#xf3;" horiz-adv-x="592" 
d="M36 239q0 111 72 179.5t188 68.5t187.5 -68.5t71.5 -179.5t-72 -180t-187 -69q-116 0 -188 69t-72 180zM201 239q0 -97 26 -149t69 -52t68.5 52t25.5 149q0 96 -25.5 148t-68.5 52t-69 -52t-26 -148zM247 556l-9 8l78 171q36 0 65.5 -5.5t40.5 -11.5l11 -5v-8l-142 -149
h-44z" />
    <glyph glyph-name="ocircumflex" unicode="&#xf4;" horiz-adv-x="592" 
d="M36 239q0 111 72 179.5t188 68.5t187.5 -68.5t71.5 -179.5t-72 -180t-187 -69q-116 0 -188 69t-72 180zM201 239q0 -97 26 -149t69 -52t68.5 52t25.5 149q0 96 -25.5 148t-68.5 52t-69 -52t-26 -148zM456 564l-9 -8h-51l-100 84l-101 -84h-51l-8 8l141 171h37z" />
    <glyph glyph-name="otilde" unicode="&#xf5;" horiz-adv-x="592" 
d="M36 239q0 111 72 179.5t188 68.5t187.5 -68.5t71.5 -179.5t-72 -180t-187 -69q-116 0 -188 69t-72 180zM201 239q0 -97 26 -149t69 -52t68.5 52t25.5 149q0 96 -25.5 148t-68.5 52t-69 -52t-26 -148zM252 669q26 0 54.5 -18t49.5 -18q20 0 39.5 9.5t28.5 19.5l9 10
l23 -23q-2 -4 -4.5 -10t-13.5 -22t-23 -28t-32.5 -22t-42.5 -10q-26 0 -55 18.5t-50 18.5q-20 0 -39.5 -10t-28.5 -20l-9 -10l-22 23q1 4 4 10t13.5 22t23 28t33 22t42.5 10z" />
    <glyph glyph-name="odieresis" unicode="&#xf6;" horiz-adv-x="592" 
d="M36 239q0 111 72 179.5t188 68.5t187.5 -68.5t71.5 -179.5t-72 -180t-187 -69q-116 0 -188 69t-72 180zM201 239q0 -97 26 -149t69 -52t68.5 52t25.5 149q0 96 -25.5 148t-68.5 52t-69 -52t-26 -148zM123 620q0 29 17.5 46t46.5 17t46.5 -17t17.5 -46t-17.5 -47
t-46.5 -18t-46.5 18t-17.5 47zM340 620q0 28 18 45.5t47 17.5t46 -17.5t17 -45.5q0 -29 -17.5 -47t-45.5 -18q-29 0 -47 18t-18 47z" />
    <glyph glyph-name="divide" unicode="&#xf7;" 
d="M85 294v62h423v-62h-423zM232 161q0 29 17.5 46.5t46.5 17.5t46.5 -17.5t17.5 -46.5t-17.5 -46.5t-46.5 -17.5t-46.5 17.5t-17.5 46.5zM232 488q0 29 17.5 46.5t46.5 17.5q28 0 46 -18t18 -46t-17.5 -45.5t-46.5 -17.5t-46.5 17t-17.5 46z" />
    <glyph glyph-name="oslash" unicode="&#xf8;" horiz-adv-x="592" 
d="M99 -1l29 42q-92 70 -92 198q0 111 72 179.5t188 68.5q67 0 126 -27l25 36l41 -25l-25 -36q92 -68 92 -196q0 -111 -72 -180t-187 -69q-67 0 -126 26l-30 -42zM198 239q0 -53 7 -89l163 233q-26 56 -72 56q-45 0 -71.5 -52t-26.5 -148zM393 239q0 42 -7 86l-163 -233
q25 -54 73 -54q45 0 71 52t26 149z" />
    <glyph glyph-name="ugrave" unicode="&#xf9;" horiz-adv-x="599" 
d="M218 477v-332q0 -73 74 -73q23 0 45.5 6t32.5 12l11 6v204q0 50 -4 91.5t-8 57.5l-4 16l12 12q39 0 74 3t51 6l15 3l12 -12v-277q0 -50 6.5 -97t12.5 -69l7 -22l-12 -12q-40 0 -77.5 -3t-55.5 -6l-17 -3l-12 12l4 45l-4 4q-7 -7 -21 -16.5t-58.5 -26t-90.5 -16.5
q-74 0 -107.5 38.5t-33.5 102.5v169q0 50 -7 91.5t-13 57.5l-7 16l13 12q40 0 77.5 3t54.5 6l18 3zM357 564l-9 -8h-44l-143 149v8q36 22 117 22z" />
    <glyph glyph-name="uacute" unicode="&#xfa;" horiz-adv-x="599" 
d="M218 477v-332q0 -73 74 -73q23 0 45.5 6t32.5 12l11 6v204q0 50 -4 91.5t-8 57.5l-4 16l12 12q39 0 74 3t51 6l15 3l12 -12v-277q0 -50 6.5 -97t12.5 -69l7 -22l-12 -12q-40 0 -77.5 -3t-55.5 -6l-17 -3l-12 12l4 45l-4 4q-7 -7 -21 -16.5t-58.5 -26t-90.5 -16.5
q-74 0 -107.5 38.5t-33.5 102.5v169q0 50 -7 91.5t-13 57.5l-7 16l13 12q40 0 77.5 3t54.5 6l18 3zM250 556l-9 8l79 171q36 0 65 -5.5t41 -11.5l11 -5v-8l-143 -149h-44z" />
    <glyph glyph-name="ucircumflex" unicode="&#xfb;" horiz-adv-x="599" 
d="M218 477v-332q0 -73 74 -73q23 0 45.5 6t32.5 12l11 6v204q0 50 -4 91.5t-8 57.5l-4 16l12 12q39 0 74 3t51 6l15 3l12 -12v-277q0 -50 6.5 -97t12.5 -69l7 -22l-12 -12q-40 0 -77.5 -3t-55.5 -6l-17 -3l-12 12l4 45l-4 4q-7 -7 -21 -16.5t-58.5 -26t-90.5 -16.5
q-74 0 -107.5 38.5t-33.5 102.5v169q0 50 -7 91.5t-13 57.5l-7 16l13 12q40 0 77.5 3t54.5 6l18 3zM459 564l-9 -8h-50l-101 84l-101 -84h-51l-8 8l141 171h37z" />
    <glyph glyph-name="udieresis" unicode="&#xfc;" horiz-adv-x="599" 
d="M218 477v-332q0 -73 74 -73q23 0 45.5 6t32.5 12l11 6v204q0 50 -4 91.5t-8 57.5l-4 16l12 12q39 0 74 3t51 6l15 3l12 -12v-277q0 -50 6.5 -97t12.5 -69l7 -22l-12 -12q-40 0 -77.5 -3t-55.5 -6l-17 -3l-12 12l4 45l-4 4q-7 -7 -21 -16.5t-58.5 -26t-90.5 -16.5
q-74 0 -107.5 38.5t-33.5 102.5v169q0 50 -7 91.5t-13 57.5l-7 16l13 12q40 0 77.5 3t54.5 6l18 3zM344 620q0 28 18 45.5t47 17.5t46 -17.5t17 -45.5q0 -29 -17.5 -47t-45.5 -18q-29 0 -47 18t-18 47zM126 620q0 28 18 45.5t47 17.5t46 -17.5t17 -45.5q0 -29 -17.5 -47
t-45.5 -18q-29 0 -47 18t-18 47z" />
    <glyph glyph-name="yacute" unicode="&#xfd;" horiz-adv-x="539" 
d="M527 477l-235 -550q-20 -47 -37 -91t-23 -64l-7 -21l-9 -8q-32 0 -63 9.5t-46 18.5l-15 9v12q9 7 24 21t50.5 60t58.5 95l14 31l-134 301q-22 49 -45 91t-36 60l-12 18l8 8q42 0 81 2t57 4l18 2l134 -328l65 143q23 52 37 94t16 58l2 17l8 8q18 0 38 2t32 4l11 2z
M231 556l-9 8l78 171q36 0 65 -5.5t41 -11.5l11 -5v-8l-143 -149h-43z" />
    <glyph glyph-name="thorn" unicode="&#xfe;" horiz-adv-x="596" 
d="M218 -250h-148v691q0 84 -7 158.5t-13 106.5l-7 32l13 12q40 0 77.5 3t54.5 6l18 3l12 -12v-268q0 -27 -4 -47l4 -4q6 6 18 15.5t50 25t79 15.5q88 0 141.5 -64t53.5 -174q0 -121 -65.5 -190t-180.5 -69q-51 0 -96 15v-255zM395 226q0 179 -104 179q-19 0 -37.5 -6
t-27.5 -12l-8 -6v-279q0 -29 21.5 -45.5t52.5 -16.5q48 0 75.5 46.5t27.5 139.5z" />
    <glyph glyph-name="ydieresis" unicode="&#xff;" horiz-adv-x="539" 
d="M527 477l-235 -550q-20 -47 -37 -91t-23 -64l-7 -21l-9 -8q-32 0 -63 9.5t-46 18.5l-15 9v12q9 7 24 21t50.5 60t58.5 95l14 31l-134 301q-22 49 -45 91t-36 60l-12 18l8 8q42 0 81 2t57 4l18 2l134 -328l65 143q23 52 37 94t16 58l2 17l8 8q18 0 38 2t32 4l11 2z
M325 620q0 28 18 45.5t47 17.5t46.5 -17.5t17.5 -45.5q0 -29 -17.5 -47t-46.5 -18t-47 18t-18 47zM108 620q0 29 17.5 46t46.5 17t46.5 -17t17.5 -46t-17.5 -47t-46.5 -18t-46.5 18t-17.5 47z" />
    <glyph glyph-name="Amacron" unicode="&#x100;" horiz-adv-x="724" 
d="M169 186l-72 -186h-78l257 649l-23 39v12h169l283 -700h-160l-75 186h-301zM335 523l-18 42l-124 -317h252zM219 789v62h272v-62h-272z" />
    <glyph glyph-name="amacron" unicode="&#x101;" horiz-adv-x="564" 
d="M276 487q207 0 207 -142v-244q0 -42 34 -42q7 0 13 2t8 3l3 2l23 -23q-5 -6 -14 -15t-42 -23.5t-72 -14.5q-82 0 -98 60q-69 -60 -164 -60q-65 0 -99 33t-34 94q0 59 43.5 90t164.5 48l86 11v107q0 66 -64 66q-35 0 -55 -20t-20 -56q0 -13 2 -26t4 -19l3 -6l-12 -12
q-33 0 -63 3t-43 6l-13 3q-11 18 -11 47q0 60 55.5 94t157.5 34zM194 136q0 -66 64 -66q20 0 39.5 7t28.5 13l9 7v117l-69 -9q-39 -5 -55.5 -21.5t-16.5 -47.5zM138 586v62h272v-62h-272z" />
    <glyph glyph-name="Abreve" unicode="&#x102;" horiz-adv-x="724" 
d="M169 186l-72 -186h-78l257 649l-23 39v12h169l283 -700h-160l-75 186h-301zM335 523l-18 42l-124 -317h252zM199 864l23 23q6 -6 16.5 -15t45 -24.5t70.5 -15.5t69.5 14t48.5 28l15 13l22 -23q-2 -4 -5 -11.5t-15.5 -26t-28.5 -32.5t-44.5 -25.5t-61.5 -11.5t-61 11
t-44.5 26.5t-28.5 31.5t-16 27z" />
    <glyph glyph-name="abreve" unicode="&#x103;" horiz-adv-x="564" 
d="M276 487q207 0 207 -142v-244q0 -42 34 -42q7 0 13 2t8 3l3 2l23 -23q-5 -6 -14 -15t-42 -23.5t-72 -14.5q-82 0 -98 60q-69 -60 -164 -60q-65 0 -99 33t-34 94q0 59 43.5 90t164.5 48l86 11v107q0 66 -64 66q-35 0 -55 -20t-20 -56q0 -13 2 -26t4 -19l3 -6l-12 -12
q-33 0 -63 3t-43 6l-13 3q-11 18 -11 47q0 60 55.5 94t157.5 34zM117 661l23 23q6 -6 16.5 -15t45.5 -24.5t71 -15.5t69 13.5t48 27.5l15 14l23 -23q-2 -4 -5 -11.5t-16 -26t-29 -32.5t-44 -25.5t-61 -11.5q-52 0 -91 27t-52 53zM194 136q0 -66 64 -66q20 0 39.5 7t28.5 13
l9 7v117l-69 -9q-39 -5 -55.5 -21.5t-16.5 -47.5z" />
    <glyph glyph-name="Aogonek" unicode="&#x104;" horiz-adv-x="724" 
d="M169 186l-72 -186h-78l257 649l-23 39v12h169l283 -700h-41q-37 -42 -37 -92q0 -45 43 -45q8 0 15 1.5t11 3.5l3 2l22 -23q-2 -4 -7 -10t-24 -16.5t-43 -10.5q-38 0 -65.5 23t-27.5 65q0 65 62 102h-71l-75 186h-301zM335 523l-18 42l-124 -317h252z" />
    <glyph glyph-name="aogonek" unicode="&#x105;" horiz-adv-x="564" 
d="M276 487q207 0 207 -142v-244q0 -42 34 -42q7 0 13 2t8 3l3 2l23 -23q-27 -34 -81 -47q-33 -45 -33 -88q0 -45 42 -45q8 0 15.5 1.5t10.5 3.5l3 2l23 -23q-2 -4 -7 -10t-24 -16.5t-43 -10.5q-38 0 -65.5 23t-27.5 65q0 58 48 93q-73 4 -87 59q-69 -60 -164 -60
q-65 0 -99 33t-34 94q0 59 43.5 90t164.5 48l86 11v107q0 66 -64 66q-35 0 -55 -20t-20 -56q0 -13 2 -26t4 -19l3 -6l-12 -12q-33 0 -63 3t-43 6l-13 3q-11 18 -11 47q0 60 55.5 94t157.5 34zM194 136q0 -66 64 -66q20 0 39.5 7t28.5 13l9 7v117l-69 -9q-39 -5 -55.5 -21.5
t-16.5 -47.5z" />
    <glyph glyph-name="Cacute" unicode="&#x106;" horiz-adv-x="729" 
d="M410 658q-87 0 -139 -77t-52 -215q0 -286 230 -286q58 0 111 17.5t78 35.5l24 18l25 -25q-3 -6 -9.5 -15t-30.5 -32.5t-53.5 -41.5t-80 -32.5t-108.5 -14.5q-161 0 -260 100t-99 261t99.5 260t266.5 99q127 0 201.5 -56t74.5 -146q0 -19 -4 -34.5t-8 -21.5l-3 -6
q-51 -12 -137 -12l-12 12q12 22 12 73q0 68 -33.5 103.5t-92.5 35.5zM345 759l-9 8l79 171q36 0 65 -5.5t40 -10.5l12 -6v-8l-143 -149h-44z" />
    <glyph glyph-name="cacute" unicode="&#x107;" horiz-adv-x="536" 
d="M482 111l22 -23q-2 -4 -7 -10.5t-22.5 -23.5t-39.5 -30t-60 -23.5t-81 -10.5q-117 0 -187.5 68.5t-70.5 181.5q0 112 71 179.5t198 67.5q90 0 143.5 -34.5t53.5 -96.5q0 -13 -3 -26t-5 -19l-3 -6q-41 -12 -117 -12l-12 12q9 23 9 56q0 78 -68 78q-49 0 -75.5 -49
t-26.5 -129q0 -102 36.5 -148t108.5 -46q38 0 72 11t49 22zM246 556l-8 8l78 171q36 0 65 -5.5t41 -11.5l11 -5v-8l-143 -149h-44z" />
    <glyph glyph-name="Ccircumflex" unicode="&#x108;" horiz-adv-x="729" 
d="M410 658q-87 0 -139 -77t-52 -215q0 -286 230 -286q58 0 111 17.5t78 35.5l24 18l25 -25q-3 -6 -9.5 -15t-30.5 -32.5t-53.5 -41.5t-80 -32.5t-108.5 -14.5q-161 0 -260 100t-99 261t99.5 260t266.5 99q127 0 201.5 -56t74.5 -146q0 -19 -4 -34.5t-8 -21.5l-3 -6
q-51 -12 -137 -12l-12 12q12 22 12 73q0 68 -33.5 103.5t-92.5 35.5zM554 767l-8 -8h-51l-101 84l-100 -84h-51l-9 8l142 171h37z" />
    <glyph glyph-name="ccircumflex" unicode="&#x109;" horiz-adv-x="536" 
d="M482 111l22 -23q-2 -4 -7 -10.5t-22.5 -23.5t-39.5 -30t-60 -23.5t-81 -10.5q-117 0 -187.5 68.5t-70.5 181.5q0 112 71 179.5t198 67.5q90 0 143.5 -34.5t53.5 -96.5q0 -13 -3 -26t-5 -19l-3 -6q-41 -12 -117 -12l-12 12q9 23 9 56q0 78 -68 78q-49 0 -75.5 -49
t-26.5 -129q0 -102 36.5 -148t108.5 -46q38 0 72 11t49 22zM448 564l-8 -8h-51l-101 84l-100 -84h-51l-9 8l142 171h37z" />
    <glyph glyph-name="Cdotaccent" unicode="&#x10a;" horiz-adv-x="729" 
d="M410 658q-87 0 -139 -77t-52 -215q0 -286 230 -286q58 0 111 17.5t78 35.5l24 18l25 -25q-3 -6 -9.5 -15t-30.5 -32.5t-53.5 -41.5t-80 -32.5t-108.5 -14.5q-161 0 -260 100t-99 261t99.5 260t266.5 99q127 0 201.5 -56t74.5 -146q0 -19 -4 -34.5t-8 -21.5l-3 -6
q-51 -12 -137 -12l-12 12q12 22 12 73q0 68 -33.5 103.5t-92.5 35.5zM323 838q0 32 19.5 51.5t51.5 19.5t51.5 -19.5t19.5 -51.5t-19.5 -52t-51.5 -20t-51.5 20t-19.5 52z" />
    <glyph glyph-name="cdotaccent" unicode="&#x10b;" horiz-adv-x="536" 
d="M482 111l22 -23q-2 -4 -7 -10.5t-22.5 -23.5t-39.5 -30t-60 -23.5t-81 -10.5q-117 0 -187.5 68.5t-70.5 181.5q0 112 71 179.5t198 67.5q90 0 143.5 -34.5t53.5 -96.5q0 -13 -3 -26t-5 -19l-3 -6q-41 -12 -117 -12l-12 12q9 23 9 56q0 78 -68 78q-49 0 -75.5 -49
t-26.5 -129q0 -102 36.5 -148t108.5 -46q38 0 72 11t49 22zM221 620q0 32 19.5 52t51.5 20t51.5 -20t19.5 -52t-19.5 -51.5t-51.5 -19.5t-51.5 19.5t-19.5 51.5z" />
    <glyph glyph-name="Ccaron" unicode="&#x10c;" horiz-adv-x="729" 
d="M410 658q-87 0 -139 -77t-52 -215q0 -286 230 -286q58 0 111 17.5t78 35.5l24 18l25 -25q-3 -6 -9.5 -15t-30.5 -32.5t-53.5 -41.5t-80 -32.5t-108.5 -14.5q-161 0 -260 100t-99 261t99.5 260t266.5 99q127 0 201.5 -56t74.5 -146q0 -19 -4 -34.5t-8 -21.5l-3 -6
q-51 -12 -137 -12l-12 12q12 22 12 73q0 68 -33.5 103.5t-92.5 35.5zM546 933l8 -8l-141 -171h-37l-142 171l9 8h51l100 -84l101 84h51z" />
    <glyph glyph-name="ccaron" unicode="&#x10d;" horiz-adv-x="536" 
d="M482 111l22 -23q-2 -4 -7 -10.5t-22.5 -23.5t-39.5 -30t-60 -23.5t-81 -10.5q-117 0 -187.5 68.5t-70.5 181.5q0 112 71 179.5t198 67.5q90 0 143.5 -34.5t53.5 -96.5q0 -13 -3 -26t-5 -19l-3 -6q-41 -12 -117 -12l-12 12q9 23 9 56q0 78 -68 78q-49 0 -75.5 -49
t-26.5 -129q0 -102 36.5 -148t108.5 -46q38 0 72 11t49 22zM440 730l8 -8l-141 -171h-37l-142 171l9 8h51l100 -84l101 84h51z" />
    <glyph glyph-name="Dcaron" unicode="&#x10e;" horiz-adv-x="775" 
d="M77 0v700h292q161 0 260.5 -97t99.5 -253t-99.5 -253t-260.5 -97h-292zM362 637h-130v-574h130q89 0 141.5 74t52.5 213t-52.5 213t-141.5 74zM531 933l9 -8l-142 -171h-37l-141 171l8 8h51l101 -84l101 84h50z" />
    <glyph glyph-name="dcaron" unicode="&#x10f;" horiz-adv-x="696" 
d="M351 738l12 12q41 0 78.5 3t54.5 6l18 3l12 -12v-449q0 -84 7 -156.5t13 -102.5l7 -30l-13 -12q-40 0 -77.5 -3t-54.5 -6l-18 -3l-12 12l4 39l-4 5q-6 -6 -17.5 -15t-50 -24t-79.5 -15q-89 0 -142 62.5t-53 172.5q0 122 65.5 192t180.5 70q53 0 96 -16q-1 78 -7.5 145
t-12.5 94zM201 251q0 -179 106 -179q19 0 36.5 6t26.5 12l8 5v283q-1 27 -22.5 43t-51.5 16q-48 0 -75.5 -47.5t-27.5 -138.5zM585 554l-15 15q40 50 40 125q0 16 -3 31t-5 21l-3 7l6 5q24 0 46 -3t32 -6l10 -3q5 -11 5 -33q0 -30 -11.5 -57.5t-28 -45.5t-33.5 -31t-29 -19z
" />
    <glyph glyph-name="Dcroat" unicode="&#x110;" horiz-adv-x="775" 
d="M18 325v63h59v312h292q161 0 260.5 -97t99.5 -253t-99.5 -253t-260.5 -97h-292v325h-59zM362 637h-130v-249h138v-63h-138v-262h130q89 0 141.5 74t52.5 213t-52.5 213t-141.5 74z" />
    <glyph glyph-name="dcroat" unicode="&#x111;" horiz-adv-x="596" 
d="M253 570v63h115l-17 105l12 12q41 0 78.5 3t54.5 6l18 3l12 -12v-117h55v-63h-55v-269q0 -84 7 -156.5t13 -102.5l7 -30l-13 -12q-40 0 -77.5 -3t-54.5 -6l-18 -3l-12 12l4 39l-4 5q-6 -6 -17.5 -15t-50 -24t-79.5 -15q-89 0 -142 62.5t-53 172.5q0 122 65.5 192
t180.5 70q53 0 96 -16q-2 67 -4 99h-121zM201 251q0 -179 106 -179q19 0 36.5 6t26.5 12l8 5v280q0 28 -21.5 45t-52.5 17q-48 0 -75.5 -47.5t-27.5 -138.5z" />
    <glyph glyph-name="Emacron" unicode="&#x112;" horiz-adv-x="604" 
d="M77 0v700h469v-81l-12 -12q-52 31 -165 31h-137v-248h245l8 -9v-54h-253v-265h147q50 0 91.5 8t57.5 16l16 7l12 -12v-81h-479zM179 789v62h272v-62h-272z" />
    <glyph glyph-name="emacron" unicode="&#x113;" horiz-adv-x="549" 
d="M482 111l23 -23q-2 -4 -7 -10.5t-22.5 -23.5t-39.5 -30t-60 -23.5t-81 -10.5q-118 0 -188.5 68.5t-70.5 181.5q0 114 72 180.5t202 66.5q197 0 197 -156q0 -19 -2.5 -37.5t-5.5 -27.5l-3 -10l-12 -12h-283q3 -93 39.5 -135t106.5 -42q38 0 71.5 11t48.5 22zM306 439
q-44 0 -71.5 -37t-32.5 -109l167 10q5 23 5 49q0 87 -68 87zM156 586v62h272v-62h-272z" />
    <glyph glyph-name="Ebreve" unicode="&#x114;" horiz-adv-x="604" 
d="M77 0v700h469v-81l-12 -12q-52 31 -165 31h-137v-248h245l8 -9v-54h-253v-265h147q50 0 91.5 8t57.5 16l16 7l12 -12v-81h-479zM160 864l23 23q6 -6 16.5 -15t45 -24.5t70.5 -15.5t69 14t48 28l15 13l23 -23q-2 -4 -5 -11.5t-16 -26t-29 -32.5t-44 -25.5t-61 -11.5
t-61 11t-44.5 26.5t-28.5 31.5t-17 27z" />
    <glyph glyph-name="ebreve" unicode="&#x115;" horiz-adv-x="549" 
d="M482 111l23 -23q-2 -4 -7 -10.5t-22.5 -23.5t-39.5 -30t-60 -23.5t-81 -10.5q-118 0 -188.5 68.5t-70.5 181.5q0 114 72 180.5t202 66.5q197 0 197 -156q0 -19 -2.5 -37.5t-5.5 -27.5l-3 -10l-12 -12h-283q3 -93 39.5 -135t106.5 -42q38 0 71.5 11t48.5 22zM137 661
l23 23q6 -6 16.5 -15t45 -24.5t70.5 -15.5t69 13.5t48 27.5l15 14l23 -23q-2 -4 -5 -11.5t-16 -26t-29 -32.5t-44 -25.5t-61 -11.5t-61 11t-44.5 27t-28.5 31.5t-16 26.5zM306 439q-44 0 -71.5 -37t-32.5 -109l167 10q5 23 5 49q0 87 -68 87z" />
    <glyph glyph-name="Edotaccent" unicode="&#x116;" horiz-adv-x="604" 
d="M77 0v700h469v-81l-12 -12q-52 31 -165 31h-137v-248h245l8 -9v-54h-253v-265h147q50 0 91.5 8t57.5 16l16 7l12 -12v-81h-479zM244 838q0 32 20 51.5t51 19.5q32 0 51.5 -19.5t19.5 -51.5t-19.5 -52t-51.5 -20t-51.5 20t-19.5 52z" />
    <glyph glyph-name="edotaccent" unicode="&#x117;" horiz-adv-x="549" 
d="M482 111l23 -23q-2 -4 -7 -10.5t-22.5 -23.5t-39.5 -30t-60 -23.5t-81 -10.5q-118 0 -188.5 68.5t-70.5 181.5q0 114 72 180.5t202 66.5q197 0 197 -156q0 -19 -2.5 -37.5t-5.5 -27.5l-3 -10l-12 -12h-283q3 -93 39.5 -135t106.5 -42q38 0 71.5 11t48.5 22zM306 439
q-44 0 -71.5 -37t-32.5 -109l167 10q5 23 5 49q0 87 -68 87zM225 620q0 32 19.5 52t51.5 20t52 -20t20 -52t-20 -51.5t-52 -19.5t-51.5 19.5t-19.5 51.5z" />
    <glyph glyph-name="Eogonek" unicode="&#x118;" horiz-adv-x="604" 
d="M77 0v700h469v-81l-12 -12q-52 31 -165 31h-137v-248h245l8 -9v-54h-253v-265h147q50 0 91.5 8t57.5 16l16 7l12 -12v-81h-57q-37 -42 -37 -92q0 -45 43 -45q8 0 15.5 1.5t10.5 3.5l3 2l22 -23q-2 -4 -7 -10t-24 -16.5t-43 -10.5q-38 0 -65.5 23t-27.5 65q0 65 62 102
h-374z" />
    <glyph glyph-name="eogonek" unicode="&#x119;" horiz-adv-x="549" 
d="M482 111l23 -23q-3 -6 -10.5 -15.5t-34.5 -31t-60 -34.5q-35 -40 -35 -89q0 -45 43 -45q8 0 15.5 1.5t10.5 3.5l3 2l23 -23q-2 -4 -7 -10t-24.5 -16.5t-43.5 -10.5q-38 0 -65.5 23t-27.5 65q0 48 38 84q-24 -2 -35 -2q-118 0 -188.5 68.5t-70.5 181.5q0 114 72 180.5
t202 66.5q197 0 197 -156q0 -19 -2.5 -37.5t-5.5 -27.5l-3 -10l-12 -12h-283q3 -93 39.5 -135t106.5 -42q38 0 71.5 11t48.5 22zM306 439q-44 0 -71.5 -37t-32.5 -109l167 10q5 23 5 49q0 87 -68 87z" />
    <glyph glyph-name="Ecaron" unicode="&#x11a;" horiz-adv-x="604" 
d="M77 0v700h469v-81l-12 -12q-52 31 -165 31h-137v-248h245l8 -9v-54h-253v-265h147q50 0 91.5 8t57.5 16l16 7l12 -12v-81h-479zM467 936l8 -8l-141 -171h-37l-142 171l9 8h51l100 -84l101 84h51z" />
    <glyph glyph-name="ecaron" unicode="&#x11b;" horiz-adv-x="549" 
d="M482 111l23 -23q-2 -4 -7 -10.5t-22.5 -23.5t-39.5 -30t-60 -23.5t-81 -10.5q-118 0 -188.5 68.5t-70.5 181.5q0 114 72 180.5t202 66.5q197 0 197 -156q0 -19 -2.5 -37.5t-5.5 -27.5l-3 -10l-12 -12h-283q3 -93 39.5 -135t106.5 -42q38 0 71.5 11t48.5 22zM437 730l8 -8
l-141 -171h-37l-142 171l9 8h51l100 -84l101 84h51zM306 439q-44 0 -71.5 -37t-32.5 -109l167 10q5 23 5 49q0 87 -68 87z" />
    <glyph glyph-name="Gcircumflex" unicode="&#x11c;" horiz-adv-x="735" 
d="M455 284v54h76q41 0 76.5 3t50.5 6l16 3l13 -12v-241q-3 -4 -10 -11.5t-31 -26t-53 -32.5t-77.5 -25.5t-102.5 -11.5q-168 0 -267.5 99t-99.5 262q0 162 99.5 260.5t270.5 98.5q124 0 197 -51.5t73 -139.5q0 -20 -3.5 -35t-6.5 -20l-4 -6q-52 -12 -138 -12l-13 12
q14 20 14 71q0 129 -122 129q-90 0 -142 -76.5t-52 -214.5q0 -145 57.5 -223t165.5 -78q50 0 104 19v77q0 54 -11 113h-72zM554 767l-8 -8h-51l-101 84l-100 -84h-51l-9 8l142 171h37z" />
    <glyph glyph-name="gcircumflex" unicode="&#x11d;" horiz-adv-x="574" 
d="M145 -39l12 -12q-17 -28 -17 -65q0 -87 137 -87q74 0 114.5 24.5t40.5 67.5q0 25 -12 41t-36.5 23t-45.5 10t-56 4q-42 2 -62 3t-54.5 5.5t-52 12t-37 19.5t-28 32t-8.5 46q0 73 63 127q-57 44 -57 114q0 72 61.5 116.5t162.5 44.5q77 0 137 -29q65 76 145 76
q12 -39 12 -111l-12 -12q-16 11 -47 11q-17 0 -43 -6q33 -39 33 -90q0 -72 -61.5 -117t-163.5 -45q-67 0 -115 19q-13 -17 -13 -41q0 -19 9 -30.5t32.5 -17t44 -7t62.5 -2.5q56 -1 89.5 -3.5t69 -10.5t54 -21t30.5 -36t12 -57q0 -98 -85 -157t-227 -59q-105 0 -164.5 35.5
t-59.5 107.5q0 19 4 35t8 23l4 7q45 12 120 12zM194 326q0 -54 20.5 -83.5t55.5 -29.5t56 29.5t21 83.5t-21 83.5t-56 29.5t-55.5 -29.5t-20.5 -83.5zM430 564l-8 -8h-51l-101 84l-100 -84h-51l-9 8l142 171h37z" />
    <glyph glyph-name="Gbreve" unicode="&#x11e;" horiz-adv-x="735" 
d="M455 284v54h76q41 0 76.5 3t50.5 6l16 3l13 -12v-241q-3 -4 -10 -11.5t-31 -26t-53 -32.5t-77.5 -25.5t-102.5 -11.5q-168 0 -267.5 99t-99.5 262q0 162 99.5 260.5t270.5 98.5q124 0 197 -51.5t73 -139.5q0 -20 -3.5 -35t-6.5 -20l-4 -6q-52 -12 -138 -12l-13 12
q14 20 14 71q0 129 -122 129q-90 0 -142 -76.5t-52 -214.5q0 -145 57.5 -223t165.5 -78q50 0 104 19v77q0 54 -11 113h-72zM239 864l23 23q6 -6 16.5 -15t45 -24.5t70.5 -15.5t69 14t48 28l15 13l23 -23q-2 -4 -5 -11.5t-16 -26t-29 -32.5t-44 -25.5t-61 -11.5t-61 11
t-44.5 26.5t-28.5 31.5t-16 27z" />
    <glyph glyph-name="gbreve" unicode="&#x11f;" horiz-adv-x="574" 
d="M145 -39l12 -12q-17 -28 -17 -65q0 -87 137 -87q74 0 114.5 24.5t40.5 67.5q0 25 -12 41t-36.5 23t-45.5 10t-56 4q-42 2 -62 3t-54.5 5.5t-52 12t-37 19.5t-28 32t-8.5 46q0 73 63 127q-57 44 -57 114q0 72 61.5 116.5t162.5 44.5q77 0 137 -29q65 76 145 76
q12 -39 12 -111l-12 -12q-16 11 -47 11q-17 0 -43 -6q33 -39 33 -90q0 -72 -61.5 -117t-163.5 -45q-67 0 -115 19q-13 -17 -13 -41q0 -19 9 -30.5t32.5 -17t44 -7t62.5 -2.5q56 -1 89.5 -3.5t69 -10.5t54 -21t30.5 -36t12 -57q0 -98 -85 -157t-227 -59q-105 0 -164.5 35.5
t-59.5 107.5q0 19 4 35t8 23l4 7q45 12 120 12zM194 326q0 -54 20.5 -83.5t55.5 -29.5t56 29.5t21 83.5t-21 83.5t-56 29.5t-55.5 -29.5t-20.5 -83.5zM114 661l23 23q6 -6 16.5 -15t45 -24.5t70.5 -15.5t69.5 13.5t48.5 27.5l15 14l22 -23q-2 -4 -5 -11.5t-15.5 -26
t-28.5 -32.5t-44.5 -25.5t-61.5 -11.5t-61 11t-44.5 27t-28.5 31.5t-17 26.5z" />
    <glyph glyph-name="Gdotaccent" unicode="&#x120;" horiz-adv-x="735" 
d="M455 284v54h76q41 0 76.5 3t50.5 6l16 3l13 -12v-241q-3 -4 -10 -11.5t-31 -26t-53 -32.5t-77.5 -25.5t-102.5 -11.5q-168 0 -267.5 99t-99.5 262q0 162 99.5 260.5t270.5 98.5q124 0 197 -51.5t73 -139.5q0 -20 -3.5 -35t-6.5 -20l-4 -6q-52 -12 -138 -12l-13 12
q14 20 14 71q0 129 -122 129q-90 0 -142 -76.5t-52 -214.5q0 -145 57.5 -223t165.5 -78q50 0 104 19v77q0 54 -11 113h-72zM323 838q0 32 19.5 51.5t51.5 19.5t51.5 -19.5t19.5 -51.5t-19.5 -52t-51.5 -20t-51.5 20t-19.5 52z" />
    <glyph glyph-name="gdotaccent" unicode="&#x121;" horiz-adv-x="574" 
d="M145 -39l12 -12q-17 -28 -17 -65q0 -87 137 -87q74 0 114.5 24.5t40.5 67.5q0 25 -12 41t-36.5 23t-45.5 10t-56 4q-42 2 -62 3t-54.5 5.5t-52 12t-37 19.5t-28 32t-8.5 46q0 73 63 127q-57 44 -57 114q0 72 61.5 116.5t162.5 44.5q77 0 137 -29q65 76 145 76
q12 -39 12 -111l-12 -12q-16 11 -47 11q-17 0 -43 -6q33 -39 33 -90q0 -72 -61.5 -117t-163.5 -45q-67 0 -115 19q-13 -17 -13 -41q0 -19 9 -30.5t32.5 -17t44 -7t62.5 -2.5q56 -1 89.5 -3.5t69 -10.5t54 -21t30.5 -36t12 -57q0 -98 -85 -157t-227 -59q-105 0 -164.5 35.5
t-59.5 107.5q0 19 4 35t8 23l4 7q45 12 120 12zM194 326q0 -54 20.5 -83.5t55.5 -29.5t56 29.5t21 83.5t-21 83.5t-56 29.5t-55.5 -29.5t-20.5 -83.5zM199 620q0 32 19.5 52t51.5 20t51.5 -20t19.5 -52t-19.5 -51.5t-51.5 -19.5t-51.5 19.5t-19.5 51.5z" />
    <glyph glyph-name="Gcommaaccent" unicode="&#x122;" horiz-adv-x="735" 
d="M455 284v54h76q41 0 76.5 3t50.5 6l16 3l13 -12v-241q-3 -4 -10 -11.5t-31 -26t-53 -32.5t-77.5 -25.5t-102.5 -11.5q-168 0 -267.5 99t-99.5 262q0 162 99.5 260.5t270.5 98.5q124 0 197 -51.5t73 -139.5q0 -20 -3.5 -35t-6.5 -20l-4 -6q-52 -12 -138 -12l-13 12
q14 20 14 71q0 129 -122 129q-90 0 -142 -76.5t-52 -214.5q0 -145 57.5 -223t165.5 -78q50 0 104 19v77q0 54 -11 113h-72zM342 -252l-15 15q40 51 40 125q0 17 -2.5 31.5t-5.5 20.5l-3 7l6 5q24 0 46 -3t32 -6l10 -3q6 -10 6 -33q0 -48 -28.5 -87.5t-57.5 -55.5z" />
    <glyph glyph-name="gcommaaccent" unicode="&#x123;" horiz-adv-x="574" 
d="M145 -39l12 -12q-17 -28 -17 -65q0 -87 137 -87q74 0 114.5 24.5t40.5 67.5q0 25 -12 41t-36.5 23t-45.5 10t-56 4q-42 2 -62 3t-54.5 5.5t-52 12t-37 19.5t-28 32t-8.5 46q0 73 63 127q-57 44 -57 114q0 72 61.5 116.5t162.5 44.5q77 0 137 -29q65 76 145 76
q12 -39 12 -111l-12 -12q-16 11 -47 11q-17 0 -43 -6q33 -39 33 -90q0 -72 -61.5 -117t-163.5 -45q-67 0 -115 19q-13 -17 -13 -41q0 -19 9 -30.5t32.5 -17t44 -7t62.5 -2.5q56 -1 89.5 -3.5t69 -10.5t54 -21t30.5 -36t12 -57q0 -98 -85 -157t-227 -59q-105 0 -164.5 35.5
t-59.5 107.5q0 19 4 35t8 23l4 7q45 12 120 12zM194 326q0 -54 20.5 -83.5t55.5 -29.5t56 29.5t21 83.5t-21 83.5t-56 29.5t-55.5 -29.5t-20.5 -83.5zM333 743l15 -15q-40 -51 -40 -125q0 -17 3 -31.5t5 -21.5l3 -6l-6 -5q-24 0 -46 3t-32 6l-10 3q-5 10 -5 33
q0 30 11.5 57.5t28 45.5t33.5 31t29 19z" />
    <glyph glyph-name="Hcircumflex" unicode="&#x124;" horiz-adv-x="782" 
d="M550 0v327h-318v-327h-155v700h155v-310h318v310h155v-700h-155zM551 767l-9 -8h-51l-100 84l-101 -84h-51l-8 8l141 171h37z" />
    <glyph glyph-name="hcircumflex" unicode="&#x125;" 
d="M67 0v441q0 84 -6.5 158.5t-13.5 106.5l-7 32l12 12q41 0 78.5 3t54.5 6l17 3l13 -12v-268l-5 -50l5 -4q8 7 22.5 16.5t60 26t91.5 16.5q72 0 105 -37t33 -100v-350h-148v336q0 69 -73 69q-23 0 -45.5 -6t-34.5 -11l-11 -6v-382h-148zM300 786l-9 -9h-51l-100 84
l-101 -84h-51l-8 9l141 171h37z" />
    <glyph glyph-name="Hbar" unicode="&#x126;" horiz-adv-x="782" 
d="M550 0v327h-318v-327h-155v510h-59v63h59v127h155v-127h318v127h155v-127h59v-63h-59v-510h-155zM232 510v-120h318v120h-318z" />
    <glyph glyph-name="hbar" unicode="&#x127;" horiz-adv-x="597" 
d="M-5 578v31l76 30v111h148v-116h158v-56h-158v-96l-5 -50l5 -4q8 7 22.5 16.5t60 26t91.5 16.5q72 0 105 -37t33 -100v-350h-148v336q0 69 -73 69q-23 0 -45.5 -6t-34.5 -11l-11 -6v-382h-148v578h-76z" />
    <glyph glyph-name="Itilde" unicode="&#x128;" horiz-adv-x="308" 
d="M77 0v700h155v-700h-155zM110 872q26 0 55 -18.5t50 -18.5q20 0 39 10t28 20l9 10l23 -23q-1 -4 -4 -10t-13.5 -22t-23 -28t-33 -22t-42.5 -10q-26 0 -54.5 18.5t-49.5 18.5q-20 0 -39.5 -10t-28.5 -20l-9 -10l-23 23q2 4 4.5 10t13.5 22t23 28t32.5 22t42.5 10z" />
    <glyph glyph-name="itilde" unicode="&#x129;" horiz-adv-x="285" 
d="M99 669q26 0 54.5 -18t50.5 -18q20 0 39 9.5t28 19.5l9 10l23 -23q-2 -4 -4.5 -10t-13.5 -22t-23 -28t-32.5 -22t-42.5 -10q-26 0 -55 18.5t-50 18.5q-20 0 -39 -10t-28 -20l-9 -10l-23 23q1 4 4 10t13.5 22t23 28t33 22t42.5 10zM70 0v300q0 50 -7 91.5t-13 57.5l-7 16
l13 12q40 0 77.5 3t54.5 6l18 3l12 -12v-477h-148z" />
    <glyph glyph-name="Imacron" unicode="&#x12a;" horiz-adv-x="308" 
d="M77 0v700h155v-700h-155zM18 789v62h272v-62h-272z" />
    <glyph glyph-name="imacron" unicode="&#x12b;" horiz-adv-x="285" 
d="M7 586v62h271v-62h-271zM70 0v300q0 50 -7 91.5t-13 57.5l-7 16l13 12q40 0 77.5 3t54.5 6l18 3l12 -12v-477h-148z" />
    <glyph glyph-name="Ibreve" unicode="&#x12c;" horiz-adv-x="308" 
d="M77 0v700h155v-700h-155zM-1 864l23 23q6 -6 16.5 -15t45 -24.5t70.5 -15.5t69 14t48 28l15 13l23 -23q-2 -4 -5 -11.5t-16 -26t-29 -32.5t-44 -25.5t-61 -11.5t-61 11t-44.5 26.5t-28.5 31.5t-16 27z" />
    <glyph glyph-name="ibreve" unicode="&#x12d;" horiz-adv-x="285" 
d="M-16 661l23 23q6 -6 16.5 -15t45 -24.5t70.5 -15.5t69.5 13.5t48.5 27.5l15 14l22 -23q-2 -4 -5 -11.5t-16 -26t-29 -32.5t-44 -25.5t-61 -11.5t-61 11t-44.5 27t-28.5 31.5t-17 26.5zM70 0v300q0 50 -7 91.5t-13 57.5l-7 16l13 12q40 0 77.5 3t54.5 6l18 3l12 -12v-477
h-148z" />
    <glyph glyph-name="Iogonek" unicode="&#x12e;" horiz-adv-x="308" 
d="M77 0v700h155v-700h-41q-37 -42 -37 -92q0 -45 43 -45q8 0 15.5 1.5t10.5 3.5l3 2l22 -23q-2 -4 -7 -10t-24 -16.5t-43 -10.5q-38 0 -65.5 23t-27.5 65q0 65 62 102h-66z" />
    <glyph glyph-name="iogonek" unicode="&#x12f;" horiz-adv-x="285" 
d="M70 0v300q0 50 -7 91.5t-13 57.5l-7 16l12 12q40 0 78 3t55 6l18 3l12 -12v-477h-36q-37 -42 -37 -92q0 -45 42 -45q8 0 15.5 1.5t10.5 3.5l3 2l23 -23q-2 -4 -7 -10t-24 -16.5t-43 -10.5q-38 0 -65.5 23t-27.5 65q0 65 62 102h-64zM51 637q0 39 24 63t63 24q40 0 64 -24
t24 -63q0 -40 -24 -64t-64 -24q-39 0 -63 24t-24 64z" />
    <glyph glyph-name="Idotaccent" unicode="&#x130;" horiz-adv-x="308" 
d="M77 0v700h155v-700h-155zM69 850q0 38 23 61.5t61 23.5t61 -23.5t23 -61.5t-23 -61t-61 -23q-37 0 -60.5 23t-23.5 61z" />
    <glyph glyph-name="dotlessi" unicode="&#x131;" horiz-adv-x="285" 
d="M70 0v300q0 50 -7 91.5t-13 57.5l-7 16l13 12q40 0 77.5 3t54.5 6l18 3l12 -12v-477h-148z" />
    <glyph glyph-name="IJ" unicode="&#x132;" horiz-adv-x="644" 
d="M77 325v375h155v-375h-155zM308 42q104 0 104 181v477h155v-472q0 -111 -69 -174.5t-196 -63.5q-107 0 -171 43t-64 112q0 17 4 32.5t8 22.5l4 8q49 12 135 12l15 -12q-14 -28 -14 -69q0 -46 24 -71.5t65 -25.5z" />
    <glyph glyph-name="ij" unicode="&#x133;" horiz-adv-x="570" 
d="M70 0v300q0 50 -7 91.5t-13 57.5l-7 16l12 12q40 0 78 3t55 6l18 3l12 -12v-477h-148zM51 637q0 39 24 63t63 24q40 0 64 -24t24 -63q0 -40 -24 -64t-64 -24q-39 0 -63 24t-24 64zM355 -26v326q0 50 -6.5 91.5t-13.5 57.5l-7 16l12 12q41 0 78.5 3t55.5 6l17 3l12 -12
v-453q0 -57 -22.5 -107t-54.5 -81.5t-64 -54.5t-54 -33l-23 -10l-22 23q4 3 10 9.5t22 28t28 45t22 59t10 71.5zM336 637q0 39 24 63t63 24q40 0 64 -24t24 -63q0 -40 -24 -64t-64 -24q-39 0 -63 24t-24 64z" />
    <glyph glyph-name="Jcircumflex" unicode="&#x134;" horiz-adv-x="516" 
d="M285 211v489h155v-484q0 -226 -238 -226q-58 0 -103.5 13.5t-61.5 26.5l-16 14q0 40 16.5 76.5t32.5 53.5l17 16h11q1 -6 4 -16t13 -35.5t22 -45t31 -35.5t40 -16q77 0 77 169zM526 773l-9 -9h-51l-100 85l-101 -85h-51l-8 9l141 171h37z" />
    <glyph glyph-name="jcircumflex" unicode="&#x135;" horiz-adv-x="285" 
d="M70 -26v326q0 50 -7 91.5t-13 57.5l-7 16l13 12q40 0 77.5 3t54.5 6l18 3l12 -12v-453q0 -57 -22.5 -107t-54.5 -81.5t-63.5 -54.5t-53.5 -33l-23 -10l-23 23q4 3 10 9.5t22 28t28 45t22 59t10 71.5zM303 564l-9 -8h-51l-100 84l-101 -84h-51l-8 8l141 171h37z" />
    <glyph glyph-name="Kcommaaccent" unicode="&#x136;" horiz-adv-x="691" 
d="M77 0v700h155v-300h36l254 300h93l-238 -278l144 -223q35 -52 73 -98.5t58 -67.5l20 -21v-12h-187l-227 337h-26v-337h-155zM296 -252l-15 15q40 51 40 125q0 17 -2.5 31.5t-5.5 20.5l-3 7l6 5q24 0 46 -3t32 -6l10 -3q6 -10 6 -33q0 -48 -28.5 -87.5t-57.5 -55.5z" />
    <glyph glyph-name="kcommaaccent" unicode="&#x137;" horiz-adv-x="556" 
d="M67 0v450q0 84 -6.5 156t-13.5 102l-7 30l12 12q41 0 78.5 3t54.5 6l17 3l13 -12v-455l34 4l16 19q40 45 66.5 82.5t32.5 53.5l7 15l9 8h118l-149 -172l58 -108q31 -51 63.5 -96t49.5 -65l17 -20v-16q-41 0 -79.5 -2t-55.5 -4l-18 -3l-161 252h-8v-243h-148zM230 -252
l-15 15q40 51 40 125q0 17 -2.5 31.5t-5.5 20.5l-3 7l6 5q24 0 46 -3t32 -6l10 -3q5 -10 5 -33q0 -48 -28.5 -87.5t-56.5 -55.5z" />
    <glyph glyph-name="Lacute" unicode="&#x139;" horiz-adv-x="558" 
d="M77 0v700h155v-638h120q50 0 91.5 8t57.5 16l16 7l12 -12v-81h-452zM96 759l-9 8l79 171q36 0 65 -5.5t41 -10.5l11 -6v-8l-143 -149h-44z" />
    <glyph glyph-name="lacute" unicode="&#x13a;" horiz-adv-x="281" 
d="M67 0v450q0 84 -6.5 156t-13.5 102l-7 30l12 12q41 0 78.5 3t54.5 6l17 3l13 -12v-750h-148zM92 783l-9 8l78 172q36 0 65 -5.5t40 -11.5l12 -6v-8l-143 -149h-43z" />
    <glyph glyph-name="Lcommaaccent" unicode="&#x13b;" horiz-adv-x="558" 
d="M77 0v700h155v-638h120q50 0 91.5 8t57.5 16l16 7l12 -12v-81h-452zM235 -252l-15 15q40 51 40 125q0 17 -2.5 31.5t-5.5 20.5l-2 7l5 5q24 0 46.5 -3t32.5 -6l10 -3q5 -10 5 -33q0 -48 -28.5 -87.5t-56.5 -55.5z" />
    <glyph glyph-name="lcommaaccent" unicode="&#x13c;" horiz-adv-x="281" 
d="M67 0v450q0 84 -6.5 156t-13.5 102l-7 30l12 12q41 0 78.5 3t54.5 6l17 3l13 -12v-750h-148zM85 -252l-15 15q40 51 40 125q0 17 -3 31.5t-5 20.5l-3 7l6 5q24 0 46 -3t32 -6l10 -3q6 -10 6 -33q0 -48 -28.5 -87.5t-56.5 -55.5z" />
    <glyph glyph-name="Lcaron" unicode="&#x13d;" horiz-adv-x="558" 
d="M77 0v700h155v-638h120q50 0 91.5 8t57.5 16l16 7l12 -12v-81h-452zM374 506l-15 15q40 50 40 124q0 17 -2.5 32t-4.5 21l-3 7l5 5q24 0 46.5 -3t32.5 -6l10 -3q5 -11 5 -33q0 -48 -28.5 -87.5t-57.5 -55.5z" />
    <glyph glyph-name="lcaron" unicode="&#x13e;" horiz-adv-x="384" 
d="M67 0v450q0 84 -6.5 156t-13.5 102l-7 30l12 12q41 0 78.5 3t54.5 6l17 3l13 -12v-750h-148zM273 547l-15 15q40 50 40 125q0 16 -2.5 31t-5.5 22l-2 6l5 5q24 0 46.5 -3t32.5 -6l10 -3q5 -11 5 -33q0 -30 -11.5 -57.5t-28.5 -45.5t-34 -31t-29 -19z" />
    <glyph glyph-name="Ldot" unicode="&#x13f;" horiz-adv-x="558" 
d="M77 0v700h155v-638h120q50 0 91.5 8t57.5 16l16 7l12 -12v-81h-452zM354 349q0 36 21.5 57.5t56.5 21.5q36 0 57.5 -21.5t21.5 -57.5q0 -35 -21.5 -56.5t-57.5 -21.5q-35 0 -56.5 21.5t-21.5 56.5z" />
    <glyph glyph-name="ldot" unicode="&#x140;" horiz-adv-x="430" 
d="M67 0v450q0 84 -6.5 156t-13.5 102l-7 30l12 12q41 0 78.5 3t54.5 6l17 3l13 -12v-750h-148zM281 324q0 36 21.5 57.5t56.5 21.5t57 -21.5t22 -57.5q0 -35 -22 -56.5t-57 -21.5t-56.5 21.5t-21.5 56.5z" />
    <glyph glyph-name="Lslash" unicode="&#x141;" horiz-adv-x="576" 
d="M33 251l-24 42l85 51v356h155v-262l75 45l24 -42l-99 -60v-319h121q50 0 91.5 8t57.5 16l16 7l12 -12v-81h-453v288z" />
    <glyph glyph-name="lslash" unicode="&#x142;" horiz-adv-x="310" 
d="M33 251l-24 42l72 42v115q0 84 -6.5 156t-13.5 102l-7 30l12 12q41 0 78.5 3t55.5 6l17 3l12 -12v-329l48 28l24 -42l-72 -42v-365h-148v279z" />
    <glyph glyph-name="Nacute" unicode="&#x143;" horiz-adv-x="733" 
d="M77 0v420q0 80 -6.5 147t-13.5 94l-7 27l12 12h53l465 -457v457h77v-700h-46l-465 458v-458h-69zM317 759l-8 8l78 171q36 0 65 -5.5t40 -10.5l12 -6v-8l-143 -149h-44z" />
    <glyph glyph-name="nacute" unicode="&#x144;" horiz-adv-x="597" 
d="M382 0v336q0 69 -73 69q-22 0 -45 -6t-34 -11l-12 -6v-382h-148v300q0 50 -7 91.5t-13 57.5l-7 16l13 12q40 0 77.5 3t54.5 6l18 3l12 -12l-4 -45l4 -4q8 7 22.5 16.5t60.5 26t92 16.5q72 0 104.5 -37t32.5 -100v-350h-148zM249 556l-8 8l78 171q36 0 65 -5.5t40 -11.5
l12 -5v-8l-143 -149h-44z" />
    <glyph glyph-name="Ncommaaccent" unicode="&#x145;" horiz-adv-x="733" 
d="M77 0v420q0 80 -6.5 147t-13.5 94l-7 27l12 12h53l465 -457v457h77v-700h-46l-465 458v-458h-69zM317 -252l-15 15q40 51 40 125q0 17 -2.5 31.5t-5.5 20.5l-2 7l5 5q24 0 46.5 -3t32.5 -6l10 -3q5 -10 5 -33q0 -48 -28.5 -87.5t-56.5 -55.5z" />
    <glyph glyph-name="ncommaaccent" unicode="&#x146;" horiz-adv-x="597" 
d="M382 0v336q0 69 -73 69q-22 0 -45 -6t-34 -11l-12 -6v-382h-148v300q0 50 -7 91.5t-13 57.5l-7 16l13 12q40 0 77.5 3t54.5 6l18 3l12 -12l-4 -45l4 -4q8 7 22.5 16.5t60.5 26t92 16.5q72 0 104.5 -37t32.5 -100v-350h-148zM244 -252l-15 15q40 51 40 125q0 17 -2.5 31.5
t-4.5 20.5l-3 7l5 5q24 0 46 -3t32 -6l11 -3q5 -10 5 -33q0 -48 -28.5 -87.5t-57.5 -55.5z" />
    <glyph glyph-name="Ncaron" unicode="&#x147;" horiz-adv-x="733" 
d="M77 0v420q0 80 -6.5 147t-13.5 94l-7 27l12 12h53l465 -457v457h77v-700h-46l-465 458v-458h-69zM518 933l9 -8l-142 -171h-37l-141 171l8 8h51l101 -84l100 84h51z" />
    <glyph glyph-name="ncaron" unicode="&#x148;" horiz-adv-x="597" 
d="M382 0v336q0 69 -73 69q-22 0 -45 -6t-34 -11l-12 -6v-382h-148v300q0 50 -7 91.5t-13 57.5l-7 16l13 12q40 0 77.5 3t54.5 6l18 3l12 -12l-4 -45l4 -4q8 7 22.5 16.5t60.5 26t92 16.5q72 0 104.5 -37t32.5 -100v-350h-148zM450 730l8 -8l-141 -171h-37l-142 171l9 8h51
l100 -84l101 84h51z" />
    <glyph glyph-name="Eng" unicode="&#x14a;" horiz-adv-x="733" 
d="M530 -39v119l-384 378v-458h-69v420q0 80 -6.5 147t-13.5 94l-7 27l12 12h53l465 -457v457h77v-734q0 -226 -210 -226q-58 0 -103.5 13.5t-61.5 26.5l-16 14q0 40 16.5 76.5t33.5 53.5l16 16h11q1 -6 4 -16t13 -35.5t22 -45t31 -35.5t40 -16q38 0 57.5 38.5t19.5 130.5z
" />
    <glyph glyph-name="eng" unicode="&#x14b;" horiz-adv-x="597" 
d="M382 -26v362q0 69 -73 69q-22 0 -45 -6t-34 -11l-12 -6v-382h-148v300q0 50 -7 91.5t-13 57.5l-7 16l13 12q40 0 77.5 3t54.5 6l18 3l12 -12l-4 -45l4 -4q8 7 22.5 16.5t60.5 26t92 16.5q72 0 104.5 -37t32.5 -100v-326q0 -57 -22.5 -107t-54 -81.5t-63.5 -54.5t-54 -33
l-23 -10l-23 23q4 3 10 9.5t22 28t28 45t22 59t10 71.5z" />
    <glyph glyph-name="Omacron" unicode="&#x14c;" horiz-adv-x="812" 
d="M46 350q0 161 99.5 260.5t260.5 99.5q160 0 259.5 -99.5t99.5 -260.5t-99.5 -260.5t-259.5 -99.5q-161 0 -260.5 99.5t-99.5 260.5zM219 350q0 -149 50.5 -228.5t136.5 -79.5t136.5 79.5t50.5 228.5t-50.5 228.5t-136.5 79.5t-136.5 -79.5t-50.5 -228.5zM269 789v62h272
v-62h-272z" />
    <glyph glyph-name="omacron" unicode="&#x14d;" horiz-adv-x="592" 
d="M36 239q0 111 72 179.5t188 68.5t187.5 -68.5t71.5 -179.5t-72 -180t-187 -69q-116 0 -188 69t-72 180zM201 239q0 -97 26 -149t69 -52t68.5 52t25.5 149q0 96 -25.5 148t-68.5 52t-69 -52t-26 -148zM159 586v62h272v-62h-272z" />
    <glyph glyph-name="Obreve" unicode="&#x14e;" horiz-adv-x="812" 
d="M46 350q0 161 99.5 260.5t260.5 99.5q160 0 259.5 -99.5t99.5 -260.5t-99.5 -260.5t-259.5 -99.5q-161 0 -260.5 99.5t-99.5 260.5zM219 350q0 -149 50.5 -228.5t136.5 -79.5t136.5 79.5t50.5 228.5t-50.5 228.5t-136.5 79.5t-136.5 -79.5t-50.5 -228.5zM251 864l22 23
q6 -6 16.5 -15t45.5 -24.5t71 -15.5t69 14t48 28l15 13l23 -23q-2 -4 -5 -11.5t-16 -26t-29 -32.5t-44 -25.5t-61 -11.5t-61 11t-44.5 26.5t-28.5 31.5t-16 27z" />
    <glyph glyph-name="obreve" unicode="&#x14f;" horiz-adv-x="592" 
d="M36 239q0 111 72 179.5t188 68.5t187.5 -68.5t71.5 -179.5t-72 -180t-187 -69q-116 0 -188 69t-72 180zM201 239q0 -97 26 -149t69 -52t68.5 52t25.5 149q0 96 -25.5 148t-68.5 52t-69 -52t-26 -148zM141 661l22 23q6 -6 16.5 -15t45.5 -24.5t71 -15.5t69 13.5t48 27.5
l15 14l23 -23q-2 -4 -5 -11.5t-16 -26t-29 -32.5t-44 -25.5t-61 -11.5t-61 11t-44.5 27t-28.5 31.5t-16 26.5z" />
    <glyph glyph-name="Ohungarumlaut" unicode="&#x150;" horiz-adv-x="812" 
d="M46 350q0 161 99.5 260.5t260.5 99.5q160 0 259.5 -99.5t99.5 -260.5t-99.5 -260.5t-259.5 -99.5q-161 0 -260.5 99.5t-99.5 260.5zM219 350q0 -149 50.5 -228.5t136.5 -79.5t136.5 79.5t50.5 228.5t-50.5 228.5t-136.5 79.5t-136.5 -79.5t-50.5 -228.5zM265 759l-9 8
l75 171q36 0 65 -5.5t40 -10.5l12 -6v-8l-140 -149h-43zM442 759l-8 8l90 171q36 0 64 -5.5t38 -10.5l9 -6v-8l-149 -149h-44z" />
    <glyph glyph-name="ohungarumlaut" unicode="&#x151;" horiz-adv-x="592" 
d="M36 239q0 111 72 179.5t188 68.5t187.5 -68.5t71.5 -179.5t-72 -180t-187 -69q-116 0 -188 69t-72 180zM201 239q0 -97 26 -149t69 -52t68.5 52t25.5 149q0 96 -25.5 148t-68.5 52t-69 -52t-26 -148zM155 556l-9 8l75 171q36 0 65 -5.5t40 -11.5l12 -5v-8l-140 -149h-43z
M332 556l-8 8l90 171q36 0 63.5 -5.5t37.5 -11.5l10 -5v-8l-149 -149h-44z" />
    <glyph glyph-name="OE" unicode="&#x152;" horiz-adv-x="1044" 
d="M530 0v18q-62 -28 -134 -28q-151 0 -250.5 100.5t-99.5 259.5t99 259.5t249 100.5q74 0 136 -31v21h456v-81l-12 -12q-52 31 -165 31h-124v-248h232l8 -9v-54h-240v-265h134q50 0 91.5 8t57.5 16l16 7l12 -12v-81h-466zM406 42q81 0 124 88v442q-45 86 -124 86
q-86 0 -136.5 -79.5t-50.5 -228.5t50.5 -228.5t136.5 -79.5z" />
    <glyph glyph-name="oe" unicode="&#x153;" horiz-adv-x="903" 
d="M836 111l23 -23q-2 -4 -7 -10.5t-23 -23.5t-39.5 -30t-58 -23.5t-77.5 -10.5q-118 0 -182 78q-64 -78 -180 -78q-111 0 -183.5 69.5t-72.5 179.5t72.5 179t183.5 69q116 0 180 -78q67 78 197 78q93 0 143 -40t50 -116q0 -19 -3 -37.5t-6 -27.5l-3 -10l-12 -12h-282
q3 -93 39 -135t106 -42q38 0 71.5 11t48.5 22zM201 239q0 -97 26 -149t69 -52t68.5 52t25.5 149q0 96 -25.5 148t-68.5 52t-69 -52t-26 -148zM660 439q-44 0 -71.5 -37t-31.5 -109l167 10q5 23 5 50q0 86 -69 86z" />
    <glyph glyph-name="Racute" unicode="&#x154;" horiz-adv-x="677" 
d="M77 0v700h253q131 0 206.5 -52t75.5 -145q0 -65 -38 -111t-108 -68l79 -147q27 -50 55.5 -92t43.5 -59l14 -18l-7 -8h-169l-164 306h-86v-306h-155zM306 637h-74v-269h74q68 0 106 35t38 100t-38 99.5t-106 34.5zM272 759l-8 8l78 171q36 0 65 -5.5t41 -10.5l11 -6v-8
l-143 -149h-44z" />
    <glyph glyph-name="racute" unicode="&#x155;" horiz-adv-x="424" 
d="M389 487q13 -52 13 -126l-13 -12q-14 11 -48 11q-32 0 -63 -14t-46 -28l-14 -14v-304h-148v300q0 50 -7 91.5t-13 57.5l-7 16l13 12q40 0 77.5 3t54.5 6l18 3l12 -12l-4 -100l4 -4q3 5 8 12.5t22.5 27t36 34.5t47 27.5t57.5 12.5zM186 556l-9 8l78 171q36 0 65.5 -5.5
t40.5 -11.5l11 -5v-8l-142 -149h-44z" />
    <glyph glyph-name="Rcommaaccent" unicode="&#x156;" horiz-adv-x="677" 
d="M77 0v700h253q131 0 206.5 -52t75.5 -145q0 -65 -38 -111t-108 -68l79 -147q27 -50 55.5 -92t43.5 -59l14 -18l-7 -8h-169l-164 306h-86v-306h-155zM306 637h-74v-269h74q68 0 106 35t38 100t-38 99.5t-106 34.5zM292 -252l-14 15q40 51 40 125q0 17 -3 31.5t-5 20.5
l-3 7l6 5q24 0 46 -3t32 -6l10 -3q5 -10 5 -33q0 -48 -28.5 -87.5t-57.5 -55.5z" />
    <glyph glyph-name="rcommaaccent" unicode="&#x157;" horiz-adv-x="424" 
d="M389 487q13 -52 13 -126l-13 -12q-14 11 -48 11q-32 0 -63 -14t-46 -28l-14 -14v-304h-148v300q0 50 -7 91.5t-13 57.5l-7 16l13 12q40 0 77.5 3t54.5 6l18 3l12 -12l-4 -100l4 -4q3 5 8 12.5t22.5 27t36 34.5t47 27.5t57.5 12.5zM88 -252l-15 15q40 51 40 125
q0 17 -2.5 31.5t-4.5 20.5l-3 7l5 5q24 0 46.5 -3t32.5 -6l10 -3q5 -10 5 -33q0 -48 -28.5 -87.5t-57.5 -55.5z" />
    <glyph glyph-name="Rcaron" unicode="&#x158;" horiz-adv-x="677" 
d="M77 0v700h253q131 0 206.5 -52t75.5 -145q0 -65 -38 -111t-108 -68l79 -147q27 -50 55.5 -92t43.5 -59l14 -18l-7 -8h-169l-164 306h-86v-306h-155zM306 637h-74v-269h74q68 0 106 35t38 100t-38 99.5t-106 34.5zM483 933l8 -8l-141 -171h-37l-142 171l9 8h51l100 -84
l101 84h51z" />
    <glyph glyph-name="rcaron" unicode="&#x159;" horiz-adv-x="424" 
d="M389 487q13 -52 13 -126l-13 -12q-14 11 -48 11q-32 0 -63 -14t-46 -28l-14 -14v-304h-148v300q0 50 -7 91.5t-13 57.5l-7 16l13 12q40 0 77.5 3t54.5 6l18 3l12 -12l-4 -100l4 -4q3 5 8 12.5t22.5 27t36 34.5t47 27.5t57.5 12.5zM386 730l9 -8l-142 -171h-37l-141 171
l8 8h51l101 -84l100 84h51z" />
    <glyph glyph-name="Sacute" unicode="&#x15a;" horiz-adv-x="631" 
d="M291 658q-46 0 -70 -21t-24 -58t30.5 -65t142.5 -103q59 -40 85.5 -59t57.5 -44.5t42 -43t19 -40t8 -49.5q0 -185 -265 -185q-55 0 -102.5 8t-77 19.5t-50.5 23t-30 19.5l-9 8q0 27 8 52.5t19 43t22 31.5t19 21l8 6h16q3 -7 8.5 -19.5t24.5 -43.5t40 -54.5t54.5 -43
t67.5 -19.5q48 0 78 24t30 61q0 40 -38 72t-132 88q-9 5 -14 8q-74 43 -111.5 72t-61 68t-23.5 90q0 90 64.5 137.5t191.5 47.5q73 0 131.5 -15.5t80.5 -30.5l22 -16q0 -43 -19 -82t-38 -56l-19 -18h-15q-2 7 -6.5 18t-20.5 39.5t-34 50.5t-48 40t-62 18zM257 759l-9 8
l78 171q36 0 65.5 -5.5t40.5 -10.5l11 -6v-8l-142 -149h-44z" />
    <glyph glyph-name="sacute" unicode="&#x15b;" horiz-adv-x="469" 
d="M227 434q-32 0 -49.5 -13t-17.5 -34q0 -23 24 -41t84 -48l24 -12q82 -43 113 -75.5t31 -81.5q0 -68 -52 -103.5t-150 -35.5q-40 0 -76 6t-58 14t-39 16.5t-24 14.5l-7 6q0 29 15 55t30 38l15 12h12q2 -4 6 -11.5t17 -26.5t28 -33t38.5 -26t47.5 -12q32 0 52.5 14t20.5 38
q0 25 -26 42t-112 58q-67 30 -100.5 63.5t-33.5 89.5q0 66 49.5 102.5t147.5 36.5q55 0 99 -11.5t61 -22.5l17 -11q0 -29 -15 -55.5t-31 -38.5l-15 -12h-12q-1 4 -4 10.5t-13.5 23.5t-22.5 30t-32 23.5t-42 10.5zM186 556l-8 8l78 171q36 0 65 -5.5t41 -11.5l11 -5v-8
l-143 -149h-44z" />
    <glyph glyph-name="Scircumflex" unicode="&#x15c;" horiz-adv-x="631" 
d="M291 658q-46 0 -70 -21t-24 -58t30.5 -65t142.5 -103q59 -40 85.5 -59t57.5 -44.5t42 -43t19 -40t8 -49.5q0 -185 -265 -185q-55 0 -102.5 8t-77 19.5t-50.5 23t-30 19.5l-9 8q0 27 8 52.5t19 43t22 31.5t19 21l8 6h16q3 -7 8.5 -19.5t24.5 -43.5t40 -54.5t54.5 -43
t67.5 -19.5q48 0 78 24t30 61q0 40 -38 72t-132 88q-9 5 -14 8q-74 43 -111.5 72t-61 68t-23.5 90q0 90 64.5 137.5t191.5 47.5q73 0 131.5 -15.5t80.5 -30.5l22 -16q0 -43 -19 -82t-38 -56l-19 -18h-15q-2 7 -6.5 18t-20.5 39.5t-34 50.5t-48 40t-62 18zM476 787l-9 -8h-51
l-100 84l-101 -84h-51l-8 8l141 171h37z" />
    <glyph glyph-name="scircumflex" unicode="&#x15d;" horiz-adv-x="469" 
d="M227 434q-32 0 -49.5 -13t-17.5 -34q0 -23 24 -41t84 -48l24 -12q82 -43 113 -75.5t31 -81.5q0 -68 -52 -103.5t-150 -35.5q-40 0 -76 6t-58 14t-39 16.5t-24 14.5l-7 6q0 29 15 55t30 38l15 12h12q2 -4 6 -11.5t17 -26.5t28 -33t38.5 -26t47.5 -12q32 0 52.5 14t20.5 38
q0 25 -26 42t-112 58q-67 30 -100.5 63.5t-33.5 89.5q0 66 49.5 102.5t147.5 36.5q55 0 99 -11.5t61 -22.5l17 -11q0 -29 -15 -55.5t-31 -38.5l-15 -12h-12q-1 4 -4 10.5t-13.5 23.5t-22.5 30t-32 23.5t-42 10.5zM394 564l-8 -8h-51l-101 84l-100 -84h-51l-9 8l142 171h37z
" />
    <glyph glyph-name="Scedilla" unicode="&#x15e;" horiz-adv-x="631" 
d="M282 -77l10 68q-50 2 -93 10.5t-69.5 19.5t-46 21.5t-27.5 17.5l-8 8q0 27 8 52.5t19 43t22 31.5t19 21l8 6h16q3 -7 8.5 -19.5t24.5 -43.5t40 -54.5t54.5 -43t67.5 -19.5q48 0 78 24t30 61q0 40 -38 72t-132 88q-9 5 -14 8q-74 43 -111.5 72t-61 68t-23.5 90
q0 90 64.5 137.5t191.5 47.5q73 0 131.5 -15.5t80.5 -30.5l22 -16q0 -43 -19 -82t-38 -56l-19 -18h-15q-2 7 -6.5 18t-20.5 39.5t-34 50.5t-48 40t-62 18q-46 0 -70 -21t-24 -58t30.5 -65t142.5 -103q59 -40 85.5 -59t57.5 -44.5t42 -43t19 -40t8 -49.5q0 -177 -243 -184
l-7 -41q31 0 53 -19.5t22 -51.5q0 -33 -24.5 -54.5t-63.5 -21.5q-28 0 -49.5 10.5t-29.5 21.5l-8 11l20 19q15 -17 42 -17q40 0 40 33t-44 33z" />
    <glyph glyph-name="scedilla" unicode="&#x15f;" horiz-adv-x="469" 
d="M198 -77l11 68q-56 3 -100.5 17t-61.5 26l-17 13q0 29 15 55t30 38l15 12h12q2 -4 6 -11.5t17 -26.5t28 -33t38.5 -26t47.5 -12q32 0 52.5 14t20.5 38q0 25 -26 42t-112 58q-67 30 -100.5 63.5t-33.5 89.5q0 66 49.5 102.5t147.5 36.5q55 0 99 -11.5t61 -22.5l17 -11
q0 -29 -15 -55.5t-31 -38.5l-15 -12h-12q-1 4 -4 10.5t-13.5 23.5t-22.5 30t-32 23.5t-42 10.5q-32 0 -49.5 -13t-17.5 -34q0 -23 24 -41t84 -48l24 -12q82 -43 113 -75.5t31 -81.5q0 -130 -181 -138l-6 -41q31 0 53 -19.5t22 -51.5q0 -33 -24.5 -54.5t-63.5 -21.5
q-28 0 -49.5 10.5t-29.5 21.5l-8 11l19 19q15 -17 43 -17q40 0 40 33t-44 33z" />
    <glyph glyph-name="Scaron" unicode="&#x160;" horiz-adv-x="631" 
d="M291 658q-46 0 -70 -21t-24 -58t30.5 -65t142.5 -103q59 -40 85.5 -59t57.5 -44.5t42 -43t19 -40t8 -49.5q0 -185 -265 -185q-55 0 -102.5 8t-77 19.5t-50.5 23t-30 19.5l-9 8q0 27 8 52.5t19 43t22 31.5t19 21l8 6h16q3 -7 8.5 -19.5t24.5 -43.5t40 -54.5t54.5 -43
t67.5 -19.5q48 0 78 24t30 61q0 40 -38 72t-132 88q-9 5 -14 8q-74 43 -111.5 72t-61 68t-23.5 90q0 90 64.5 137.5t191.5 47.5q73 0 131.5 -15.5t80.5 -30.5l22 -16q0 -43 -19 -82t-38 -56l-19 -18h-15q-2 7 -6.5 18t-20.5 39.5t-34 50.5t-48 40t-62 18zM467 933l9 -8
l-142 -171h-37l-141 171l8 8h51l101 -84l100 84h51z" />
    <glyph glyph-name="scaron" unicode="&#x161;" horiz-adv-x="469" 
d="M227 434q-32 0 -49.5 -13t-17.5 -34q0 -23 24 -41t84 -48l24 -12q82 -43 113 -75.5t31 -81.5q0 -68 -52 -103.5t-150 -35.5q-40 0 -76 6t-58 14t-39 16.5t-24 14.5l-7 6q0 29 15 55t30 38l15 12h12q2 -4 6 -11.5t17 -26.5t28 -33t38.5 -26t47.5 -12q32 0 52.5 14t20.5 38
q0 25 -26 42t-112 58q-67 30 -100.5 63.5t-33.5 89.5q0 66 49.5 102.5t147.5 36.5q55 0 99 -11.5t61 -22.5l17 -11q0 -29 -15 -55.5t-31 -38.5l-15 -12h-12q-1 4 -4 10.5t-13.5 23.5t-22.5 30t-32 23.5t-42 10.5zM386 730l8 -8l-141 -171h-37l-142 171l9 8h51l100 -84
l101 84h51z" />
    <glyph glyph-name="Tcommaaccent" unicode="&#x162;" horiz-adv-x="687" 
d="M421 638v-638h-155v638h-62q-50 0 -91.5 -8t-57.5 -16l-16 -7l-12 12v81h633v-81l-12 -12q-52 31 -165 31h-62zM288 -252l-15 15q40 51 40 125q0 17 -2.5 31.5t-4.5 20.5l-3 7l5 5q24 0 46.5 -3t32.5 -6l10 -3q5 -10 5 -33q0 -48 -28.5 -87.5t-57.5 -55.5z" />
    <glyph glyph-name="tcommaaccent" unicode="&#x163;" horiz-adv-x="392" 
d="M12 422v38l88 38l33 117h102v-138h131v-55h-131v-285q0 -70 65 -70q16 0 30 4.5t20 8.5l6 5l22 -22q-2 -3 -6 -8t-18 -17.5t-30.5 -22t-44 -17.5t-57.5 -8q-65 0 -100 33t-35 95v304h-75zM161 -252l-15 15q40 51 40 125q0 17 -2.5 31.5t-5.5 20.5l-2 7l5 5q24 0 46.5 -3
t32.5 -6l10 -3q5 -10 5 -33q0 -48 -28.5 -87.5t-56.5 -55.5z" />
    <glyph glyph-name="Tcaron" unicode="&#x164;" horiz-adv-x="687" 
d="M421 638v-638h-155v638h-62q-50 0 -91.5 -8t-57.5 -16l-16 -7l-12 12v81h633v-81l-12 -12q-52 31 -165 31h-62zM495 930l9 -8l-142 -171h-37l-141 171l8 8h51l101 -84l100 84h51z" />
    <glyph glyph-name="tcaron" unicode="&#x165;" horiz-adv-x="431" 
d="M12 422v38l88 38l33 117h102v-138h131v-55h-131v-285q0 -70 65 -70q16 0 30 4.5t20 8.5l6 5l22 -22q-2 -3 -6 -8t-18 -17.5t-30.5 -22t-44 -17.5t-57.5 -8q-65 0 -100 33t-35 95v304h-75zM300 554l-15 15q40 50 40 125q0 16 -2.5 31t-4.5 21l-3 7l5 5q24 0 46 -3t32 -6
l11 -3q5 -11 5 -33q0 -48 -28.5 -87.5t-57.5 -55.5z" />
    <glyph glyph-name="Tbar" unicode="&#x166;" horiz-adv-x="687" 
d="M151 338v63h115v237h-62q-50 0 -91.5 -8t-57.5 -16l-16 -7l-12 12v81h633v-81l-12 -12q-52 31 -165 31h-62v-237h114v-63h-114v-338h-155v338h-115z" />
    <glyph glyph-name="tbar" unicode="&#x167;" horiz-adv-x="392" 
d="M12 262v56h75v104h-75v38l88 38l33 117h102v-138h131v-55h-131v-104h131v-56h-131v-125q0 -70 65 -70q16 0 30 4.5t20 8.5l6 5l22 -22q-2 -3 -6 -8t-18 -17.5t-30.5 -22t-44 -17.5t-57.5 -8q-65 0 -100 33t-35 95v144h-75z" />
    <glyph glyph-name="Utilde" unicode="&#x168;" horiz-adv-x="726" 
d="M582 253v447h70v-445q0 -120 -77 -192.5t-213 -72.5q-135 0 -211.5 72.5t-76.5 192.5v445h155v-469q0 -80 47.5 -128t124.5 -48q82 0 131.5 53.5t49.5 144.5zM326 872q26 0 54.5 -18.5t49.5 -18.5t40 10t28 20l9 10l23 -23q-2 -4 -4.5 -10t-13.5 -22t-23 -28t-32.5 -22
t-42.5 -10q-26 0 -55 18.5t-50 18.5q-20 0 -39 -10t-28 -20l-9 -10l-23 23q1 4 4 10t13.5 22t23 28t33 22t42.5 10z" />
    <glyph glyph-name="utilde" unicode="&#x169;" horiz-adv-x="599" 
d="M218 477v-332q0 -73 74 -73q23 0 45.5 6t32.5 12l11 6v204q0 50 -4 91.5t-8 57.5l-4 16l12 12q39 0 74 3t51 6l15 3l12 -12v-277q0 -50 6.5 -97t12.5 -69l7 -22l-12 -12q-40 0 -77.5 -3t-55.5 -6l-17 -3l-12 12l4 45l-4 4q-7 -7 -21 -16.5t-58.5 -26t-90.5 -16.5
q-74 0 -107.5 38.5t-33.5 102.5v169q0 50 -7 91.5t-13 57.5l-7 16l13 12q40 0 77.5 3t54.5 6l18 3zM255 669q26 0 55 -18t50 -18q20 0 39 9.5t28 19.5l9 10l23 -23q-1 -4 -4 -10t-13.5 -22t-23 -28t-33 -22t-42.5 -10q-26 0 -54.5 18.5t-50.5 18.5q-20 0 -39 -10t-28 -20
l-9 -10l-23 23q2 4 4.5 10t13.5 22t23 28t32.5 22t42.5 10z" />
    <glyph glyph-name="Umacron" unicode="&#x16a;" horiz-adv-x="726" 
d="M582 253v447h70v-445q0 -120 -77 -192.5t-213 -72.5q-135 0 -211.5 72.5t-76.5 192.5v445h155v-469q0 -80 47.5 -128t124.5 -48q82 0 131.5 53.5t49.5 144.5zM234 789v62h271v-62h-271z" />
    <glyph glyph-name="umacron" unicode="&#x16b;" horiz-adv-x="599" 
d="M218 477v-332q0 -73 74 -73q23 0 45.5 6t32.5 12l11 6v204q0 50 -4 91.5t-8 57.5l-4 16l12 12q39 0 74 3t51 6l15 3l12 -12v-277q0 -50 6.5 -97t12.5 -69l7 -22l-12 -12q-40 0 -77.5 -3t-55.5 -6l-17 -3l-12 12l4 45l-4 4q-7 -7 -21 -16.5t-58.5 -26t-90.5 -16.5
q-74 0 -107.5 38.5t-33.5 102.5v169q0 50 -7 91.5t-13 57.5l-7 16l13 12q40 0 77.5 3t54.5 6l18 3zM164 586v62h271v-62h-271z" />
    <glyph glyph-name="Ubreve" unicode="&#x16c;" horiz-adv-x="726" 
d="M582 253v447h70v-445q0 -120 -77 -192.5t-213 -72.5q-135 0 -211.5 72.5t-76.5 192.5v445h155v-469q0 -80 47.5 -128t124.5 -48q82 0 131.5 53.5t49.5 144.5zM215 864l23 23q6 -6 16.5 -15t45 -24.5t70.5 -15.5t69 14t48 28l15 13l23 -23q-2 -4 -5 -11.5t-16 -26
t-29 -32.5t-44 -25.5t-61 -11.5t-61 11t-44.5 26.5t-28.5 31.5t-16 27z" />
    <glyph glyph-name="ubreve" unicode="&#x16d;" horiz-adv-x="599" 
d="M218 477v-332q0 -73 74 -73q23 0 45.5 6t32.5 12l11 6v204q0 50 -4 91.5t-8 57.5l-4 16l12 12q39 0 74 3t51 6l15 3l12 -12v-277q0 -50 6.5 -97t12.5 -69l7 -22l-12 -12q-40 0 -77.5 -3t-55.5 -6l-17 -3l-12 12l4 45l-4 4q-7 -7 -21 -16.5t-58.5 -26t-90.5 -16.5
q-74 0 -107.5 38.5t-33.5 102.5v169q0 50 -7 91.5t-13 57.5l-7 16l13 12q40 0 77.5 3t54.5 6l18 3zM144 661l23 23q6 -6 16.5 -15t45 -24.5t70.5 -15.5t69 13.5t48 27.5l15 14l23 -23q-2 -4 -5 -11.5t-16 -26t-29 -32.5t-44 -25.5t-61 -11.5t-61 11t-44.5 27t-28.5 31.5
t-17 26.5z" />
    <glyph glyph-name="Uring" unicode="&#x16e;" horiz-adv-x="726" 
d="M582 253v447h70v-445q0 -120 -77 -192.5t-213 -72.5q-135 0 -211.5 72.5t-76.5 192.5v445h155v-469q0 -80 47.5 -128t124.5 -48q82 0 131.5 53.5t49.5 144.5zM278 842q0 41 25.5 66.5t66.5 25.5t66.5 -25.5t25.5 -66.5t-25.5 -66.5t-66.5 -25.5t-66.5 25.5t-25.5 66.5z
M334 842q0 -17 10 -27t26 -10t26 10.5t10 26.5t-10 26t-26 10t-26 -10t-10 -26z" />
    <glyph glyph-name="uring" unicode="&#x16f;" horiz-adv-x="599" 
d="M218 477v-332q0 -73 74 -73q23 0 45.5 6t32.5 12l11 6v204q0 50 -4 91.5t-8 57.5l-4 16l12 12q39 0 74 3t51 6l15 3l12 -12v-277q0 -50 6.5 -97t12.5 -69l7 -22l-12 -12q-40 0 -77.5 -3t-55.5 -6l-17 -3l-12 12l4 45l-4 4q-7 -7 -21 -16.5t-58.5 -26t-90.5 -16.5
q-74 0 -107.5 38.5t-33.5 102.5v169q0 50 -7 91.5t-13 57.5l-7 16l13 12q40 0 77.5 3t54.5 6l18 3zM208 639q0 41 25.5 66.5t66.5 25.5t66.5 -25.5t25.5 -66.5t-25.5 -66.5t-66.5 -25.5t-66.5 25.5t-25.5 66.5zM264 639q0 -17 10 -27t26 -10t26 10.5t10 26.5t-10 26t-26 10
t-26 -10t-10 -26z" />
    <glyph glyph-name="Uhungarumlaut" unicode="&#x170;" horiz-adv-x="726" 
d="M582 253v447h70v-445q0 -120 -77 -192.5t-213 -72.5q-135 0 -211.5 72.5t-76.5 192.5v445h155v-469q0 -80 47.5 -128t124.5 -48q82 0 131.5 53.5t49.5 144.5zM229 759l-9 8l75 171q36 0 65 -5.5t40 -10.5l12 -6v-8l-139 -149h-44zM407 759l-9 8l90 171q36 0 64 -5.5
t38 -10.5l10 -6v-8l-150 -149h-43z" />
    <glyph glyph-name="uhungarumlaut" unicode="&#x171;" horiz-adv-x="599" 
d="M218 477v-332q0 -73 74 -73q23 0 45.5 6t32.5 12l11 6v204q0 50 -4 91.5t-8 57.5l-4 16l12 12q39 0 74 3t51 6l15 3l12 -12v-277q0 -50 6.5 -97t12.5 -69l7 -22l-12 -12q-40 0 -77.5 -3t-55.5 -6l-17 -3l-12 12l4 45l-4 4q-7 -7 -21 -16.5t-58.5 -26t-90.5 -16.5
q-74 0 -107.5 38.5t-33.5 102.5v169q0 50 -7 91.5t-13 57.5l-7 16l13 12q40 0 77.5 3t54.5 6l18 3zM158 556l-9 8l75 171q36 0 65 -5.5t41 -11.5l11 -5v-8l-139 -149h-44zM336 556l-9 8l90 171q36 0 64 -5.5t38 -11.5l10 -5v-8l-150 -149h-43z" />
    <glyph glyph-name="Uogonek" unicode="&#x172;" horiz-adv-x="726" 
d="M582 253v447h70v-445q0 -99 -53 -166.5t-150 -89.5q-36 -43 -36 -91q0 -45 42 -45q8 0 15.5 1.5t10.5 3.5l3 2l23 -23q-2 -4 -7 -10t-24 -16.5t-43 -10.5q-38 0 -66 23t-28 65q0 56 50 93q-5 0 -14 -0.5t-13 -0.5q-135 0 -211.5 72.5t-76.5 192.5v445h155v-469
q0 -80 47.5 -128t124.5 -48q82 0 131.5 53.5t49.5 144.5z" />
    <glyph glyph-name="uogonek" unicode="&#x173;" horiz-adv-x="599" 
d="M218 477v-332q0 -73 74 -73q23 0 45.5 6t32.5 12l11 6v204q0 50 -4 91.5t-8 57.5l-4 16l12 12q39 0 74 3t51 6l15 3l12 -12v-277q0 -50 6.5 -97t12.5 -69l7 -22l-12 -12h-32q-36 -54 -36 -92q0 -45 43 -45q8 0 15.5 1.5t10.5 3.5l3 2l23 -23q-2 -4 -7 -10t-24.5 -16.5
t-43.5 -10.5q-38 0 -65.5 23t-27.5 65q0 63 57 99l-66 -9l-12 12l4 45l-4 4q-7 -7 -21 -16.5t-58.5 -26t-90.5 -16.5q-74 0 -107.5 38.5t-33.5 102.5v169q0 50 -7 91.5t-13 57.5l-7 16l13 12q40 0 77.5 3t54.5 6l18 3z" />
    <glyph glyph-name="Wcircumflex" unicode="&#x174;" horiz-adv-x="1080" 
d="M698 21l-140 399l-138 -420h-113l-21 21l-191 502q-19 50 -38.5 91t-30.5 57l-10 16v13h174l208 -547l122 376q-17 48 -34.5 87.5t-26.5 55.5l-9 15v13h175l186 -539l178 539h76l-235 -700h-111zM719 767l-8 -8h-51l-101 84l-101 -84h-50l-9 8l142 171h37z" />
    <glyph glyph-name="wcircumflex" unicode="&#x175;" horiz-adv-x="814" 
d="M505 21l-85 257l-90 -278h-102l-21 21l-108 279q-20 50 -41.5 92.5t-33.5 59.5l-12 17l8 8q42 0 80 2t55 4l17 2l132 -339l77 237q-11 26 -22 47.5t-17 29.5l-5 9l8 8q42 0 78.5 2t51.5 4l15 2l113 -342l56 157q17 49 27.5 91t12.5 60l2 18l9 8q17 0 38 2t34 4l12 2l8 -8
l-172 -477h-104zM588 564l-9 -8h-51l-100 84l-101 -84h-51l-8 8l141 171h37z" />
    <glyph glyph-name="Ycircumflex" unicode="&#x176;" horiz-adv-x="682" 
d="M665 700l-239 -377v-323h-155v313l-110 175q-35 55 -71.5 104.5t-55.5 71.5l-19 23v13h191l188 -290l186 290h85zM507 767l-8 -8h-51l-101 84l-100 -84h-51l-9 8l142 171h37z" />
    <glyph glyph-name="ycircumflex" unicode="&#x177;" horiz-adv-x="539" 
d="M527 477l-235 -550q-20 -47 -37 -91t-23 -64l-7 -21l-9 -8q-32 0 -63 9.5t-46 18.5l-15 9v12q9 7 24 21t50.5 60t58.5 95l14 31l-134 301q-22 49 -45 91t-36 60l-12 18l8 8q42 0 81 2t57 4l18 2l134 -328l65 143q23 52 37 94t16 58l2 17l8 8q18 0 38 2t32 4l11 2z
M440 564l-9 -8h-51l-100 84l-101 -84h-51l-8 8l141 171h37z" />
    <glyph glyph-name="Ydieresis" unicode="&#x178;" horiz-adv-x="682" 
d="M665 700l-239 -377v-323h-155v313l-110 175q-35 55 -71.5 104.5t-55.5 71.5l-19 23v13h191l188 -290l186 290h85zM174 823q0 28 18 45.5t47 17.5t46 -17t17 -46t-17.5 -47t-45.5 -18q-29 0 -47 18t-18 47zM392 823q0 28 18 45.5t47 17.5t46 -17t17 -46t-17.5 -47
t-45.5 -18q-29 0 -47 18t-18 47z" />
    <glyph glyph-name="Zacute" unicode="&#x179;" horiz-adv-x="674" 
d="M46 29l386 609h-204q-50 0 -91.5 -8t-57.5 -16l-16 -7l-12 12v81h580v-29l-385 -609h211q50 0 91.5 8t57.5 16l16 7l12 -12v-81h-588v29zM288 759l-9 8l78 171q36 0 65.5 -5.5t40.5 -10.5l11 -6v-8l-142 -149h-44z" />
    <glyph glyph-name="zacute" unicode="&#x17a;" horiz-adv-x="508" 
d="M36 29l246 389h-64q-50 0 -91.5 -7.5t-57.5 -14.5l-16 -8l-12 12v77h430v-29l-246 -389h71q50 0 91.5 7.5t57.5 15.5l16 7l12 -12v-77h-437v29zM205 556l-9 8l79 171q36 0 65 -5.5t40 -11.5l12 -5v-8l-143 -149h-44z" />
    <glyph glyph-name="Zdotaccent" unicode="&#x17b;" horiz-adv-x="674" 
d="M46 29l386 609h-204q-50 0 -91.5 -8t-57.5 -16l-16 -7l-12 12v81h580v-29l-385 -609h211q50 0 91.5 8t57.5 16l16 7l12 -12v-81h-588v29zM266 838q0 32 19.5 51.5t51.5 19.5q31 0 51 -19.5t20 -51.5t-19.5 -52t-51.5 -20t-51.5 20t-19.5 52z" />
    <glyph glyph-name="zdotaccent" unicode="&#x17c;" horiz-adv-x="508" 
d="M36 29l246 389h-64q-50 0 -91.5 -7.5t-57.5 -14.5l-16 -8l-12 12v77h430v-29l-246 -389h71q50 0 91.5 7.5t57.5 15.5l16 7l12 -12v-77h-437v29zM183 620q0 32 19.5 52t51.5 20t51.5 -20t19.5 -52t-19.5 -51.5t-51.5 -19.5t-51.5 19.5t-19.5 51.5z" />
    <glyph glyph-name="Zcaron" unicode="&#x17d;" horiz-adv-x="674" 
d="M46 29l386 609h-204q-50 0 -91.5 -8t-57.5 -16l-16 -7l-12 12v81h580v-29l-385 -609h211q50 0 91.5 8t57.5 16l16 7l12 -12v-81h-588v29zM488 933l9 -8l-142 -171h-37l-141 171l8 8h51l101 -84l100 84h51z" />
    <glyph glyph-name="zcaron" unicode="&#x17e;" horiz-adv-x="508" 
d="M36 29l246 389h-64q-50 0 -91.5 -7.5t-57.5 -14.5l-16 -8l-12 12v77h430v-29l-246 -389h71q50 0 91.5 7.5t57.5 15.5l16 7l12 -12v-77h-437v29zM405 730l9 -8l-142 -171h-37l-141 171l8 8h51l101 -84l100 84h51z" />
    <glyph glyph-name="uni018F" unicode="&#x18f;" horiz-adv-x="750" 
d="M51 248q0 24 3 44.5t6 28.5l3 8l13 12h455q-3 279 -228 279q-60 0 -113.5 -19t-77.5 -37l-23 -19l-25 24q3 6 9 15.5t30 33.5t53.5 43t80 34t109.5 15q161 0 259.5 -100t98.5 -260q0 -161 -99 -260.5t-260 -99.5q-136 0 -215 71.5t-79 186.5zM343 42q77 0 127 64t59 180
l-325 -19q-1 -11 -1 -37q0 -92 37 -140t103 -48z" />
    <glyph glyph-name="florin" unicode="&#x192;" horiz-adv-x="383" 
d="M56 -26l79 449h-79l7 38l82 20l20 114q14 82 61 124.5t122 42.5q44 0 76 -14t42 -28l11 -13l-27 -23q-17 18 -50 18q-68 0 -85 -96l-23 -129h134l-10 -55h-133l-71 -398q-10 -57 -41 -107t-68 -81.5t-73 -54.5t-60 -33l-24 -10l-19 23q4 3 11.5 9.5t27 28t35.5 45
t32.5 59t22.5 71.5z" />
    <glyph glyph-name="uni01DD" unicode="&#x1dd;" horiz-adv-x="540" 
d="M58 366l-23 23q2 4 7 10.5t23 23.5t40 30t60 23.5t81 10.5q117 0 187.5 -68.5t70.5 -181.5q0 -114 -72 -180.5t-202 -66.5q-197 0 -197 156q0 19 3 38t6 28l3 9l12 12h281q-3 93 -39 135t-106 42q-38 0 -71.5 -11t-48.5 -22zM234 38q44 0 71.5 37t32.5 109l-167 -10
q-5 -25 -5 -49q0 -87 68 -87z" />
    <glyph glyph-name="Aringacute" unicode="&#x1fa;" horiz-adv-x="724" 
d="M169 186l-72 -186h-78l257 649l-23 39v12h28q-12 21 -12 50q0 41 26 66.5t67 25.5h5l59 128q36 0 65 -5.5t40 -10.5l11 -6v-9l-115 -121q27 -25 27 -68q0 -40 -25 -67l276 -683h-160l-75 186h-301zM335 523l-18 42l-124 -317h252zM326 750q0 -17 10 -27t26 -10t26 10.5
t10 26.5t-10 26t-26 10t-26 -10t-10 -26z" />
    <glyph glyph-name="aringacute" unicode="&#x1fb;" horiz-adv-x="564" 
d="M276 487q207 0 207 -142v-244q0 -42 34 -42q7 0 13 2t8 3l3 2l23 -23q-5 -6 -14 -15t-42 -23.5t-72 -14.5q-82 0 -98 60q-69 -60 -164 -60q-65 0 -99 33t-34 94q0 59 43.5 90t164.5 48l86 11v107q0 66 -64 66q-35 0 -55 -20t-20 -56q0 -13 2 -26t4 -19l3 -6l-12 -12
q-33 0 -63 3t-43 6l-13 3q-11 18 -11 47q0 60 55.5 94t157.5 34zM189 607q0 41 25.5 66.5t66.5 25.5h5l58 126q36 0 65 -5.5t41 -11.5l11 -5v-8l-115 -120q27 -27 27 -68t-25.5 -67t-66.5 -26t-66.5 26t-25.5 67zM194 136q0 -66 64 -66q20 0 39.5 7t28.5 13l9 7v117l-69 -9
q-39 -5 -55.5 -21.5t-16.5 -47.5zM245 607q0 -17 10 -27t26 -10t26 10.5t10 26.5t-10 26t-26 10t-26 -10t-10 -26z" />
    <glyph glyph-name="AEacute" unicode="&#x1fc;" horiz-adv-x="864" 
d="M19 0l313 700h474v-81l-12 -12q-53 31 -165 31h-125v-248h232l8 -9v-54h-240v-265h135q50 0 91 8t58 16l16 7l12 -12v-81h-467v204h-162l-90 -204h-78zM214 266h135v306zM372 759l-8 8l78 171q36 0 65 -5.5t41 -10.5l11 -6v-8l-143 -149h-44z" />
    <glyph glyph-name="aeacute" unicode="&#x1fd;" horiz-adv-x="849" 
d="M782 111l23 -23q-2 -4 -7 -10.5t-23 -23.5t-40 -30t-60 -23.5t-81 -10.5q-131 0 -203 83q-79 -83 -205 -83q-145 0 -145 124q0 59 44 91.5t164 49.5l86 11v107q0 66 -64 66q-35 0 -55 -20t-20 -56q0 -13 2 -26t4 -19l3 -6l-12 -12q-33 0 -63 3t-43 6l-13 3q-11 18 -11 47
q0 59 55.5 93.5t151.5 34.5q114 0 157 -51q72 51 182 51q198 0 198 -156q0 -19 -3 -37.5t-6 -27.5l-3 -10l-12 -12h-282q3 -93 39 -135t106 -42q38 0 72 11t49 22zM605 439q-44 0 -71 -37.5t-32 -108.5l167 10q5 23 5 50q0 86 -69 86zM194 135q0 -31 17.5 -48t49.5 -17
q53 0 102 47q-22 42 -27 97l-70 -9q-72 -11 -72 -70zM373 556l-8 8l78 171q36 0 65.5 -5.5t40.5 -11.5l11 -5v-8l-143 -149h-44z" />
    <glyph glyph-name="Oslashacute" unicode="&#x1fe;" horiz-adv-x="811" 
d="M226 -25h-72l42 73q-71 47 -110.5 125t-39.5 177q0 161 99.5 260.5t260.5 99.5q83 0 154 -30l26 45h72l-43 -74q71 -47 110.5 -124.5t39.5 -176.5q0 -161 -99.5 -260.5t-259.5 -99.5q-85 0 -155 29zM216 350q0 -126 37 -203l266 463q-46 48 -113 48q-87 0 -138.5 -79.5
t-51.5 -228.5zM596 350q0 123 -38 202l-266 -462q46 -48 114 -48q87 0 138.5 79.5t51.5 228.5zM346 759l-8 8l78 171q36 0 65 -5.5t41 -10.5l11 -6v-8l-143 -149h-44z" />
    <glyph glyph-name="oslashacute" unicode="&#x1ff;" horiz-adv-x="592" 
d="M99 -1l29 42q-92 70 -92 198q0 111 72 179.5t188 68.5q67 0 126 -27l25 36l41 -25l-25 -36q92 -68 92 -196q0 -111 -72 -180t-187 -69q-67 0 -126 26l-30 -42zM198 239q0 -53 7 -89l163 233q-26 56 -72 56q-45 0 -71.5 -52t-26.5 -148zM393 239q0 42 -7 86l-163 -233
q25 -54 73 -54q45 0 71 52t26 149zM247 556l-9 8l78 171q36 0 65.5 -5.5t40.5 -11.5l11 -5v-8l-142 -149h-44z" />
    <glyph glyph-name="Scommaaccent" unicode="&#x218;" horiz-adv-x="631" 
d="M291 658q-46 0 -70 -21t-24 -58t30.5 -65t142.5 -103q59 -40 85.5 -59t57.5 -44.5t42 -43t19 -40t8 -49.5q0 -185 -265 -185q-55 0 -102.5 8t-77 19.5t-50.5 23t-30 19.5l-9 8q0 27 8 52.5t19 43t22 31.5t19 21l8 6h16q3 -7 8.5 -19.5t24.5 -43.5t40 -54.5t54.5 -43
t67.5 -19.5q48 0 78 24t30 61q0 40 -38 72t-132 88q-9 5 -14 8q-74 43 -111.5 72t-61 68t-23.5 90q0 90 64.5 137.5t191.5 47.5q73 0 131.5 -15.5t80.5 -30.5l22 -16q0 -43 -19 -82t-38 -56l-19 -18h-15q-2 7 -6.5 18t-20.5 39.5t-34 50.5t-48 40t-62 18zM259 -252l-15 15
q40 51 40 125q0 17 -2.5 31.5t-5.5 20.5l-2 7l5 5q24 0 46.5 -3t32.5 -6l10 -3q5 -10 5 -33q0 -48 -28.5 -87.5t-56.5 -55.5z" />
    <glyph glyph-name="scommaaccent" unicode="&#x219;" horiz-adv-x="469" 
d="M227 434q-32 0 -49.5 -13t-17.5 -34q0 -23 24 -41t84 -48l24 -12q82 -43 113 -75.5t31 -81.5q0 -68 -52 -103.5t-150 -35.5q-40 0 -76 6t-58 14t-39 16.5t-24 14.5l-7 6q0 29 15 55t30 38l15 12h12q2 -4 6 -11.5t17 -26.5t28 -33t38.5 -26t47.5 -12q32 0 52.5 14t20.5 38
q0 25 -26 42t-112 58q-67 30 -100.5 63.5t-33.5 89.5q0 66 49.5 102.5t147.5 36.5q55 0 99 -11.5t61 -22.5l17 -11q0 -29 -15 -55.5t-31 -38.5l-15 -12h-12q-1 4 -4 10.5t-13.5 23.5t-22.5 30t-32 23.5t-42 10.5zM178 -252l-15 15q40 51 40 125q0 17 -2.5 31.5t-4.5 20.5
l-3 7l5 5q24 0 46 -3t32 -6l11 -3q5 -10 5 -33q0 -48 -28.5 -87.5t-57.5 -55.5z" />
    <glyph glyph-name="uni021A" unicode="&#x21a;" horiz-adv-x="687" 
d="M421 638v-638h-155v638h-62q-50 0 -91.5 -8t-57.5 -16l-16 -7l-12 12v81h633v-81l-12 -12q-52 31 -165 31h-62zM288 -252l-15 15q40 51 40 125q0 17 -2.5 31.5t-4.5 20.5l-3 7l5 5q24 0 46.5 -3t32.5 -6l10 -3q5 -10 5 -33q0 -48 -28.5 -87.5t-57.5 -55.5z" />
    <glyph glyph-name="uni021B" unicode="&#x21b;" horiz-adv-x="392" 
d="M12 422v38l88 38l33 117h102v-138h131v-55h-131v-285q0 -70 65 -70q16 0 30 4.5t20 8.5l6 5l22 -22q-2 -3 -6 -8t-18 -17.5t-30.5 -22t-44 -17.5t-57.5 -8q-65 0 -100 33t-35 95v304h-75zM161 -252l-15 15q40 51 40 125q0 17 -2.5 31.5t-5.5 20.5l-2 7l5 5q24 0 46.5 -3
t32.5 -6l10 -3q5 -10 5 -33q0 -48 -28.5 -87.5t-56.5 -55.5z" />
    <glyph glyph-name="dotlessj" unicode="&#x237;" horiz-adv-x="285" 
d="M70 -26v326q0 50 -7 91.5t-13 57.5l-7 16l13 12q40 0 77.5 3t54.5 6l18 3l12 -12v-453q0 -57 -22.5 -107t-54.5 -81.5t-63.5 -54.5t-53.5 -33l-23 -10l-23 23q4 3 10 9.5t22 28t28 45t22 59t10 71.5z" />
    <glyph glyph-name="circumflex" unicode="&#x2c6;" horiz-adv-x="399" 
d="M359 564l-8 -8h-51l-101 84l-100 -84h-51l-9 8l142 171h37z" />
    <glyph glyph-name="caron" unicode="&#x2c7;" horiz-adv-x="399" 
d="M351 730l8 -8l-141 -171h-37l-142 171l9 8h51l100 -84l101 84h51z" />
    <glyph glyph-name="breve" unicode="&#x2d8;" horiz-adv-x="416" 
d="M53 661l23 23q6 -6 16.5 -15t45 -24.5t70.5 -15.5t69 13.5t48 27.5l15 14l23 -23q-2 -4 -5 -11.5t-16 -26t-29 -32.5t-44 -25.5t-61 -11.5t-61 11t-44.5 27t-28.5 31.5t-16 26.5z" />
    <glyph glyph-name="dotaccent" unicode="&#x2d9;" horiz-adv-x="266" 
d="M62 620q0 32 19.5 52t51.5 20t51.5 -20t19.5 -52t-20 -51.5t-51 -19.5q-32 0 -51.5 19.5t-19.5 51.5z" />
    <glyph glyph-name="ring" unicode="&#x2da;" horiz-adv-x="254" 
d="M35 639q0 41 25.5 66.5t66.5 25.5t66.5 -25.5t25.5 -66.5t-25.5 -66.5t-66.5 -25.5t-66.5 25.5t-25.5 66.5zM91 639q0 -16 10 -26.5t26 -10.5t26 10t10 27q0 16 -10 26t-26 10t-26 -10t-10 -26z" />
    <glyph glyph-name="ogonek" unicode="&#x2db;" horiz-adv-x="248" 
d="M106 0h47q-38 -42 -38 -92q0 -45 43 -45q8 0 15.5 1.5t10.5 3.5l3 2l23 -23q-2 -4 -7 -10t-24.5 -16.5t-43.5 -10.5q-38 0 -65.5 23t-27.5 65q0 31 16 56.5t32 35.5z" />
    <glyph glyph-name="tilde" unicode="&#x2dc;" horiz-adv-x="416" 
d="M164 669q26 0 55 -18t50 -18q20 0 39 9.5t28 19.5l9 10l23 -23q-1 -4 -4 -10t-13.5 -22t-23 -28t-33 -22t-42.5 -10q-26 0 -54.5 18.5t-50.5 18.5q-20 0 -39 -10t-28 -20l-9 -10l-23 23q2 4 4.5 10t13.5 22t23 28t32.5 22t42.5 10z" />
    <glyph glyph-name="hungarumlaut" unicode="&#x2dd;" horiz-adv-x="485" 
d="M61 556l-8 8l75 171q36 0 65 -5.5t41 -11.5l11 -5v-8l-140 -149h-44zM239 556l-8 8l90 171q36 0 63.5 -5.5t37.5 -11.5l10 -5v-8l-149 -149h-44z" />
    <glyph glyph-name="uni0400" unicode="&#x400;" horiz-adv-x="604" 
d="M77 0v700h469v-81l-12 -12q-52 31 -165 31h-137v-248h245l8 -9v-54h-253v-265h147q50 0 91.5 8t57.5 16l16 7l12 -12v-81h-479zM393 767l-9 -8h-44l-142 149v8q35 22 116 22z" />
    <glyph glyph-name="afii10023" unicode="&#x401;" horiz-adv-x="604" 
d="M77 0v700h469v-81l-12 -12q-52 31 -165 31h-137v-248h245l8 -9v-54h-253v-265h147q50 0 91.5 8t57.5 16l16 7l12 -12v-81h-479zM357 823q0 28 18 45.5t47 17.5q28 0 45.5 -17t17.5 -46t-17.5 -47t-45.5 -18q-29 0 -47 18t-18 47zM139 823q0 28 18 45.5t47 17.5
q28 0 45.5 -17t17.5 -46t-17.5 -47t-45.5 -18q-29 0 -47 18t-18 47z" />
    <glyph glyph-name="afii10051" unicode="&#x402;" horiz-adv-x="897" 
d="M683 211v26q0 115 -127 115q-36 0 -69.5 -9t-49.5 -18l-16 -9v-316h-155v638h-62q-50 0 -91.5 -8t-57.5 -16l-16 -7l-12 12v81h633v-81l-12 -12q-52 31 -165 31h-62v-255q10 6 28 15t73.5 24.5t109.5 15.5q195 0 195 -190v-32q0 -226 -204 -226q-50 0 -87 13.5t-50 26.5
l-12 14q0 33 14.5 61.5t29.5 40.5l14 12h11q3 -13 8.5 -32.5t26 -51.5t44.5 -32q30 0 45.5 37.5t15.5 131.5z" />
    <glyph glyph-name="afii10052" unicode="&#x403;" horiz-adv-x="566" 
d="M253 759l-9 8l78 171q36 0 65 -5.5t41 -10.5l11 -6v-8l-143 -149h-43zM77 0v700h462v-81l-13 -12q-52 31 -165 31h-129v-638h-155z" />
    <glyph glyph-name="afii10053" unicode="&#x404;" horiz-adv-x="729" 
d="M410 658q-85 0 -136 -71.5t-55 -200.5h311l9 -8v-54h-319q18 -244 229 -244q58 0 111 17.5t78 35.5l24 18l25 -25q-3 -6 -9.5 -15t-30.5 -32.5t-53.5 -41.5t-80 -32.5t-108.5 -14.5q-161 0 -260 100t-99 261t99.5 260t267.5 99q126 0 200.5 -52.5t74.5 -135.5
q0 -18 -4 -32.5t-8 -19.5l-3 -5q-51 -12 -137 -12l-12 12q12 19 12 66q0 62 -33.5 94.5t-92.5 32.5z" />
    <glyph glyph-name="afii10054" unicode="&#x405;" horiz-adv-x="631" 
d="M291 658q-46 0 -70 -21t-24 -58t30.5 -65t142.5 -103q59 -40 85.5 -59t57.5 -44.5t42 -43t19 -40t8 -49.5q0 -185 -265 -185q-55 0 -102.5 8t-77 19.5t-50.5 23t-30 19.5l-9 8q0 27 8 52.5t19 43t22 31.5t19 21l8 6h16q3 -7 8.5 -19.5t24.5 -43.5t40 -54.5t54.5 -43
t67.5 -19.5q48 0 78 24t30 61q0 40 -38 72t-132 88q-9 5 -14 8q-74 43 -111.5 72t-61 68t-23.5 90q0 90 64.5 137.5t191.5 47.5q73 0 131.5 -15.5t80.5 -30.5l22 -16q0 -43 -19 -82t-38 -56l-19 -18h-15q-2 7 -6.5 18t-20.5 39.5t-34 50.5t-48 40t-62 18z" />
    <glyph glyph-name="afii10055" unicode="&#x406;" horiz-adv-x="308" 
d="M77 0v700h155v-700h-155z" />
    <glyph glyph-name="afii10056" unicode="&#x407;" horiz-adv-x="308" 
d="M-18 803q0 29 17.5 46t46.5 17t46.5 -17t17.5 -46t-17.5 -47t-46.5 -18t-46.5 18t-17.5 47zM199 803q0 28 18 45.5t47 17.5q28 0 45.5 -17t17.5 -46t-17.5 -47t-45.5 -18q-29 0 -47 18t-18 47zM77 0v700h155v-700h-155z" />
    <glyph glyph-name="afii10057" unicode="&#x408;" horiz-adv-x="516" 
d="M285 211v489h155v-484q0 -226 -238 -226q-58 0 -103.5 13.5t-61.5 26.5l-16 14q0 40 16.5 76.5t32.5 53.5l17 16h11q1 -6 4 -16t13 -35.5t22 -45t31 -35.5t40 -16q77 0 77 169z" />
    <glyph glyph-name="afii10058" unicode="&#x409;" horiz-adv-x="1083" 
d="M24 125l12 12q23 -11 49 -11q53 0 77.5 75t24.5 251q0 74 -4.5 133t-8.5 81l-5 22l12 12h481v-299h100q131 0 206.5 -53t75.5 -147q0 -95 -75.5 -148t-206.5 -53h-255v637h-237v-152q0 -270 -42 -382.5t-131 -112.5q-16 0 -31 3t-22 5l-7 3q-13 50 -13 124zM882 201
q0 67 -38 102.5t-106 35.5h-76v-276h76q68 0 106 35.5t38 102.5z" />
    <glyph glyph-name="afii10059" unicode="&#x40a;" horiz-adv-x="1110" 
d="M534 0v334h-302v-334h-155v700h155v-304h302v304h155v-304h100q131 0 206 -51.5t75 -145.5q0 -95 -75 -147t-206 -52h-255zM908 199q0 66 -38 100.5t-105 34.5h-76v-271h76q67 0 105 34.5t38 101.5z" />
    <glyph glyph-name="afii10060" unicode="&#x40b;" horiz-adv-x="897" 
d="M672 0v237q0 115 -121 115q-34 0 -66.5 -9t-48.5 -18l-15 -9v-316h-155v638h-62q-50 0 -91.5 -8t-57.5 -16l-16 -7l-12 12v81h633v-81l-12 -12q-52 31 -165 31h-62v-255q10 6 28 15t73.5 24.5t109.5 15.5q195 0 195 -190v-248h-155z" />
    <glyph glyph-name="afii10061" unicode="&#x40c;" horiz-adv-x="691" 
d="M77 0v700h155v-300h36l254 300h93l-238 -278l144 -223q35 -52 73 -98.5t58 -67.5l20 -21v-12h-187l-227 337h-26v-337h-155zM286 759l-8 8l78 171q36 0 65 -5.5t41 -10.5l11 -6v-8l-143 -149h-44z" />
    <glyph glyph-name="uni040D" unicode="&#x40d;" horiz-adv-x="782" 
d="M209 0h-132v700h155v-525l341 525h132v-700h-155v525zM458 767l-8 -8h-44l-143 149v8q36 22 117 22z" />
    <glyph glyph-name="afii10062" unicode="&#x40e;" horiz-adv-x="662" 
d="M133 112l12 12q18 -12 60 -12q72 0 118 53l-224 405q-21 38 -41.5 68t-31.5 42l-10 11v9h185l205 -374l163 374h77l-212 -473q-62 -138 -106.5 -187.5t-114.5 -49.5q-20 0 -36.5 3t-23.5 6l-7 3q-13 41 -13 110zM356 744q-73 0 -120 26.5t-47 69.5q0 8 1.5 16.5t3.5 12.5
l2 4q39 12 97 12l9 -9q-6 -15 -6 -28q0 -21 16.5 -33t43.5 -12q28 0 44.5 12t16.5 32l-6 29l9 9q26 0 50 -3t36 -6l11 -3q7 -16 7 -34q0 -42 -47 -68.5t-121 -26.5z" />
    <glyph glyph-name="afii10145" unicode="&#x40f;" horiz-adv-x="782" 
d="M232 700v-637h318v637h155v-700h-250l-19 -188h-78l-12 12l-21 176h-248v700h155z" />
    <glyph glyph-name="afii10017" unicode="&#x410;" horiz-adv-x="724" 
d="M169 186l-72 -186h-78l257 649l-23 39v12h169l283 -700h-160l-75 186h-301zM335 523l-18 42l-124 -317h252z" />
    <glyph glyph-name="afii10018" unicode="&#x411;" horiz-adv-x="660" 
d="M77 0v700h474v-81l-12 -12q-52 31 -165 31h-142v-224h106q131 0 206 -54t75 -153q0 -98 -75 -152.5t-206 -54.5h-261zM457 207q0 71 -37.5 108t-105.5 37h-82v-289h82q68 0 105.5 36.5t37.5 107.5z" />
    <glyph glyph-name="afii10019" unicode="&#x412;" horiz-adv-x="684" 
d="M77 0v700h269q263 0 263 -174q0 -124 -133 -160q167 -35 167 -178q0 -188 -278 -188h-288zM481 197q0 66 -36 100.5t-104 34.5h-109v-269h109q68 0 104 34t36 100zM450 516q0 59 -33 90t-96 31h-89v-242h89q63 0 96 31t33 90z" />
    <glyph glyph-name="afii10020" unicode="&#x413;" horiz-adv-x="566" 
d="M77 0v700h462v-81l-13 -12q-52 31 -165 31h-129v-638h-155z" />
    <glyph glyph-name="afii10021" unicode="&#x414;" horiz-adv-x="818" 
d="M781 63l12 -13l-10 -238h-78l-12 12q0 45 -8.5 89t-16.5 65l-8 22h-502q-33 -74 -33 -176l-12 -12h-78l-11 238l13 13h63q9 2 21.5 12t29 37.5t30 68t23 111t9.5 159.5q0 61 -4.5 120.5t-8.5 88.5l-5 28l12 12h491v-637h83zM296 485q0 -327 -76 -422h324v574h-248v-152z
" />
    <glyph glyph-name="afii10022" unicode="&#x415;" horiz-adv-x="604" 
d="M77 0v700h469v-81l-12 -12q-52 31 -165 31h-137v-248h245l8 -9v-54h-253v-265h147q50 0 91.5 8t57.5 16l16 7l12 -12v-81h-479z" />
    <glyph glyph-name="afii10024" unicode="&#x416;" horiz-adv-x="1008" 
d="M154 199l132 225l-221 276h91l236 -297h35v297h155v-297h35l235 297h92l-222 -276l132 -225q32 -52 65.5 -98.5t51.5 -67.5l18 -21v-12h-176l-206 341h-25v-341h-155v341h-25l-207 -341h-175v12q63 71 134 187z" />
    <glyph glyph-name="afii10025" unicode="&#x417;" horiz-adv-x="643" 
d="M311 42q62 0 96 38t34 108q0 141 -140 141h-76l-9 8v54h65q68 0 99.5 34t31.5 105q0 128 -100 128q-32 0 -62 -16.5t-50 -40t-35.5 -47.5t-22.5 -40l-7 -17h-17q-3 1 -7 4t-15.5 14.5t-20 25.5t-15.5 37.5t-7 50.5q2 3 7.5 8.5t26 19.5t46.5 24.5t72.5 19.5t100.5 9
q131 0 197.5 -47.5t66.5 -136.5q0 -126 -135 -164q168 -32 168 -176q0 -96 -76.5 -146t-220.5 -50q-59 0 -107.5 8.5t-76 20t-46.5 23.5t-26 20l-7 9q0 43 16.5 76t32.5 45l16 11h16q2 -7 6.5 -17.5t21.5 -38.5t36.5 -49t52.5 -38.5t70 -17.5z" />
    <glyph glyph-name="afii10026" unicode="&#x418;" horiz-adv-x="782" 
d="M209 0h-132v700h155v-525l341 525h132v-700h-155v525z" />
    <glyph glyph-name="afii10027" unicode="&#x419;" horiz-adv-x="782" 
d="M209 0h-132v700h155v-525l341 525h132v-700h-155v525zM391 744q-74 0 -120.5 26.5t-46.5 69.5q0 8 2 16.5t4 12.5l1 4q39 12 97 12l8 -9q-6 -15 -6 -28q0 -21 17 -33t44 -12t44 12t17 32l-6 29l8 9q26 0 50.5 -3t35.5 -6l12 -3q7 -16 7 -34q0 -42 -47 -68.5t-121 -26.5z
" />
    <glyph glyph-name="afii10028" unicode="&#x41a;" horiz-adv-x="691" 
d="M77 0v700h155v-300h36l254 300h93l-238 -278l144 -223q35 -52 73 -98.5t58 -67.5l20 -21v-12h-187l-227 337h-26v-337h-155z" />
    <glyph glyph-name="afii10029" unicode="&#x41b;" horiz-adv-x="739" 
d="M24 125l12 12q23 -11 49 -11q53 0 77.5 75t24.5 251q0 74 -4.5 133t-8.5 81l-5 22l12 12h481v-700h-155v637h-237v-152q0 -270 -42 -382.5t-131 -112.5q-16 0 -31 3t-22 5l-7 3q-13 50 -13 124z" />
    <glyph glyph-name="afii10030" unicode="&#x41c;" horiz-adv-x="954" 
d="M742 0l-67 571l-4 4l-177 -555h-103l-21 21l-182 533l-5 -4l-54 -570h-75l53 523q4 51 3.5 87.5t-2.5 57.5l-3 20l12 12h189l170 -494l158 494h185l83 -700h-160z" />
    <glyph glyph-name="afii10031" unicode="&#x41d;" horiz-adv-x="782" 
d="M550 0v327h-318v-327h-155v700h155v-310h318v310h155v-700h-155z" />
    <glyph glyph-name="afii10032" unicode="&#x41e;" horiz-adv-x="811" 
d="M46 350q0 161 99.5 260.5t260.5 99.5q160 0 259.5 -99.5t99.5 -260.5t-99.5 -260.5t-259.5 -99.5q-161 0 -260.5 99.5t-99.5 260.5zM219 350q0 -149 50.5 -228.5t136.5 -79.5t136.5 79.5t50.5 228.5t-50.5 228.5t-136.5 79.5t-136.5 -79.5t-50.5 -228.5z" />
    <glyph glyph-name="afii10033" unicode="&#x41f;" horiz-adv-x="782" 
d="M550 0v637h-318v-637h-155v700h628v-700h-155z" />
    <glyph glyph-name="afii10034" unicode="&#x420;" horiz-adv-x="657" 
d="M77 0v700h261q131 0 206 -54.5t75 -151.5t-75 -151t-206 -54h-106v-289h-155zM314 637h-82v-286h82q67 0 105 37t38 106q0 70 -37.5 106.5t-105.5 36.5z" />
    <glyph glyph-name="afii10035" unicode="&#x421;" horiz-adv-x="729" 
d="M410 658q-87 0 -139 -77t-52 -215q0 -286 230 -286q58 0 111 17.5t78 35.5l24 18l25 -25q-3 -6 -9.5 -15t-30.5 -32.5t-53.5 -41.5t-80 -32.5t-108.5 -14.5q-161 0 -260 100t-99 261t99.5 260t266.5 99q127 0 201.5 -56t74.5 -146q0 -19 -4 -34.5t-8 -21.5l-3 -6
q-51 -12 -137 -12l-12 12q12 22 12 73q0 68 -33.5 103.5t-92.5 35.5z" />
    <glyph glyph-name="afii10036" unicode="&#x422;" horiz-adv-x="687" 
d="M421 638v-638h-155v638h-62q-50 0 -91.5 -8t-57.5 -16l-16 -7l-12 12v81h633v-81l-12 -12q-52 31 -165 31h-62z" />
    <glyph glyph-name="afii10037" unicode="&#x423;" horiz-adv-x="662" 
d="M133 112l12 12q18 -12 60 -12q72 0 118 53l-224 405q-21 38 -41.5 68t-31.5 42l-10 11v9h185l205 -374l163 374h77l-212 -473q-62 -138 -106.5 -187.5t-114.5 -49.5q-20 0 -36.5 3t-23.5 6l-7 3q-13 41 -13 110z" />
    <glyph glyph-name="afii10038" unicode="&#x424;" horiz-adv-x="955" 
d="M555 67v-67h-155v67q-161 0 -260 79.5t-99 207.5q0 127 99 206.5t260 79.5v60h155v-60q161 0 260 -79.5t99 -206.5q0 -128 -99 -207.5t-260 -79.5zM400 119v469q-90 0 -142 -60.5t-52 -173.5q0 -114 52 -174.5t142 -60.5zM748 354q0 113 -52 173.5t-141 60.5v-469
q90 0 141.5 61t51.5 174z" />
    <glyph glyph-name="afii10039" unicode="&#x425;" horiz-adv-x="708" 
d="M209 700l175 -260l185 260h92l-237 -320l122 -180q34 -51 69.5 -98t54.5 -68l18 -22v-12h-185l-193 281l-204 -281h-84l248 341l-245 359h184z" />
    <glyph glyph-name="afii10040" unicode="&#x426;" horiz-adv-x="814" 
d="M77 0v700h155v-637h308v637h155v-637h83l12 -13l-18 -238h-78l-12 12q0 45 -6 89t-12 65l-7 22h-580z" />
    <glyph glyph-name="afii10041" unicode="&#x427;" horiz-adv-x="709" 
d="M216 700v-237q0 -115 126 -115q35 0 69 9t50 18l16 9v316h155v-700h-155v317q-10 -6 -28.5 -15t-75.5 -24.5t-113 -15.5q-199 0 -199 190v248h155z" />
    <glyph glyph-name="afii10042" unicode="&#x428;" horiz-adv-x="1090" 
d="M77 0v700h155v-637h236v637h154v-637h236v637h155v-700h-936z" />
    <glyph glyph-name="afii10043" unicode="&#x429;" horiz-adv-x="1133" 
d="M77 0v700h155v-637h236v637h154v-637h236v637h155v-637h83l12 -13l-17 -238h-78l-13 12q0 45 -6 89t-12 65l-7 22h-898z" />
    <glyph glyph-name="afii10044" unicode="&#x42a;" horiz-adv-x="814" 
d="M27 700h367v-299h100q130 0 205.5 -53t75.5 -147q0 -95 -75.5 -148t-205.5 -53h-255v638h-35q-50 0 -91.5 -8t-57.5 -16l-16 -7l-12 12v81zM613 201q0 67 -38 102.5t-106 35.5h-75v-276h75q68 0 106 35.5t38 102.5z" />
    <glyph glyph-name="afii10045" unicode="&#x42b;" horiz-adv-x="937" 
d="M77 0v700h155v-299h100q130 0 205.5 -53t75.5 -147q0 -95 -75.5 -148t-205.5 -53h-255zM706 0v700h155v-700h-155zM451 201q0 67 -38 102.5t-105 35.5h-76v-276h76q67 0 105 35.5t38 102.5z" />
    <glyph glyph-name="afii10046" unicode="&#x42c;" horiz-adv-x="652" 
d="M77 0v700h155v-299h100q130 0 205.5 -53t75.5 -147q0 -95 -75.5 -148t-205.5 -53h-255zM451 201q0 67 -38 102.5t-105 35.5h-76v-276h76q67 0 105 35.5t38 102.5z" />
    <glyph glyph-name="afii10047" unicode="&#x42d;" horiz-adv-x="730" 
d="M309 710q184 0 279.5 -97t95.5 -263q0 -167 -96 -263.5t-285 -96.5q-54 0 -100.5 8.5t-74 20t-47.5 23.5t-28 20l-8 9q0 43 16.5 76t32.5 45l16 11h17q2 -7 7 -17.5t22 -38.5t37 -49t54 -38.5t71 -17.5q87 0 137.5 72.5t54.5 209.5h-248l-8 8v54h256q-6 132 -55.5 202
t-130.5 70q-35 0 -67 -16.5t-53.5 -40t-37.5 -47.5t-24 -40l-7 -17h-17q-3 1 -7 4t-15.5 14.5t-20 25.5t-15.5 37.5t-7 50.5l8.5 8.5t27.5 19.5t48.5 24.5t72.5 19.5t99 9z" />
    <glyph glyph-name="afii10048" unicode="&#x42e;" horiz-adv-x="1067" 
d="M77 0v700h155v-310h127q12 145 102 232.5t229 87.5q148 0 240 -100t92 -260t-92 -260t-240 -100q-143 0 -233.5 92.5t-98.5 244.5h-126v-327h-155zM531 350q0 -149 43 -228.5t116 -79.5t116 79.5t43 228.5t-43 228.5t-116 79.5t-116 -79.5t-43 -228.5z" />
    <glyph glyph-name="afii10049" unicode="&#x42f;" horiz-adv-x="664" 
d="M152 199l62 114q-78 21 -120 68.5t-42 117.5q0 95 75.5 148t206.5 53h256v-700h-155v299h-84l-167 -299h-157v12q60 71 125 187zM214 499q0 -67 38 -102.5t106 -35.5h77v276h-77q-68 0 -106 -35.5t-38 -102.5z" />
    <glyph glyph-name="afii10065" unicode="&#x430;" horiz-adv-x="564" 
d="M276 487q207 0 207 -142v-244q0 -42 34 -42q7 0 13 2t8 3l3 2l23 -23q-5 -6 -14 -15t-42 -23.5t-72 -14.5q-82 0 -98 60q-69 -60 -164 -60q-65 0 -99 33t-34 94q0 59 43.5 90t164.5 48l86 11v107q0 66 -64 66q-35 0 -55 -20t-20 -56q0 -13 2 -26t4 -19l3 -6l-12 -12
q-33 0 -63 3t-43 6l-13 3q-11 18 -11 47q0 60 55.5 94t157.5 34zM194 136q0 -66 64 -66q20 0 39.5 7t28.5 13l9 7v117l-69 -9q-39 -5 -55.5 -21.5t-16.5 -47.5z" />
    <glyph glyph-name="afii10066" unicode="&#x431;" horiz-adv-x="603" 
d="M567 247q0 -124 -64.5 -190.5t-192.5 -66.5q-145 0 -206.5 89.5t-61.5 271.5q0 183 58.5 269.5t189.5 107.5l194 32q34 -44 34 -113l-9 -9l-182 -30q-104 -18 -145.5 -63t-45.5 -136l4 -4q2 3 5.5 8.5t19 20t35.5 25t56 19.5t78 9q115 0 174 -61.5t59 -178.5zM303 427
q-25 0 -46.5 -11.5t-30.5 -22.5l-8 -11q-10 -25 -10 -117q0 -227 97 -227q45 0 70.5 51.5t25.5 150.5q0 187 -98 187z" />
    <glyph glyph-name="afii10067" unicode="&#x432;" horiz-adv-x="561" 
d="M70 0v300q0 50 -5 91.5t-9 57.5l-5 16l12 12h245q93 0 142 -34t49 -91q0 -77 -86 -109q115 -25 115 -117q0 -58 -50.5 -92t-149.5 -34h-258zM296 209h-78v-146h78q38 0 59.5 19t21.5 54t-21.5 54t-59.5 19zM279 414h-61v-143h61q38 0 59 18.5t21 52.5t-21 53t-59 19z" />
    <glyph glyph-name="afii10068" unicode="&#x433;" horiz-adv-x="444" 
d="M276 418h-58v-418h-148v300q0 50 -5 91.5t-9 57.5l-5 16l12 12h365v-77l-12 -12q-43 30 -140 30z" />
    <glyph glyph-name="afii10069" unicode="&#x434;" horiz-adv-x="621" 
d="M146 0q-29 -52 -29 -149l-12 -12h-78l-10 211l12 13h51q72 52 72 259q0 45 -4.5 80.5t-9.5 49.5l-4 13l12 12h372v-414h71l12 -13l-10 -211h-78l-12 12q0 43 -7.5 80.5t-14.5 52.5l-7 16h-326zM231 331q0 -172 -51 -268h191v351h-140v-83z" />
    <glyph glyph-name="afii10070" unicode="&#x435;" horiz-adv-x="549" 
d="M482 111l23 -23q-2 -4 -7 -10.5t-22.5 -23.5t-39.5 -30t-60 -23.5t-81 -10.5q-118 0 -188.5 68.5t-70.5 181.5q0 114 72 180.5t202 66.5q197 0 197 -156q0 -19 -2.5 -37.5t-5.5 -27.5l-3 -10l-12 -12h-283q3 -93 39.5 -135t106.5 -42q38 0 71.5 11t48.5 22zM306 439
q-44 0 -71.5 -37t-32.5 -109l167 10q5 23 5 49q0 87 -68 87z" />
    <glyph glyph-name="afii10072" unicode="&#x436;" horiz-adv-x="793" 
d="M744 477l-134 -181l51 -100q29 -52 58 -97t43 -64l15 -19v-16q-41 0 -78.5 -2t-54.5 -4l-17 -3l-133 237h-23v-228h-148v228h-24l-124 -219l-9 -9h-150l161 296l-131 169v12q31 0 58.5 2.5t39.5 4.5l13 2q36 -74 110 -172l22 -30l34 -4v20q0 50 -3.5 91.5t-7.5 57.5
l-4 16l12 12h151v-197l32 3l24 31q34 43 58 81.5t31 56.5l6 17l9 8h113z" />
    <glyph glyph-name="afii10073" unicode="&#x437;" horiz-adv-x="504" 
d="M223 49q42 0 68 23t26 63q0 36 -21.5 56.5t-59.5 20.5h-75l-8 9v52h67q83 0 83 75q0 39 -22.5 63t-59.5 24q-34 0 -62.5 -26t-40.5 -52l-12 -26h-12q-6 4 -16 11.5t-26 33.5t-16 55q6 6 19 15.5t62 25t109 15.5q101 0 159.5 -37t58.5 -97q0 -76 -89 -107q56 -12 85 -44.5
t29 -74.5q0 -62 -62.5 -99.5t-171.5 -37.5q-68 0 -119.5 15t-69.5 30l-17 15q0 28 14 52.5t29 35.5l14 10h12q1 -4 4 -10.5t14 -24t24 -30.5t35.5 -23.5t47.5 -10.5z" />
    <glyph glyph-name="afii10074" unicode="&#x438;" horiz-adv-x="595" 
d="M185 0h-115v300q0 50 -5 91.5t-9 57.5l-5 16l12 12h155v-254l-4 -48l4 -5l196 307h115v-477h-148v264l4 39l-4 4z" />
    <glyph glyph-name="afii10075" unicode="&#x439;" horiz-adv-x="595" 
d="M185 0h-115v300q0 50 -5 91.5t-9 57.5l-5 16l12 12h155v-254l-4 -48l4 -5l196 307h115v-477h-148v264l4 39l-4 4zM301 529q-73 0 -120 26.5t-47 68.5q0 8 2 16.5t4 12.5l1 4q39 13 97 13l9 -10q-6 -14 -6 -28q0 -21 16.5 -32.5t43.5 -11.5q28 0 44.5 11.5t16.5 31.5
l-6 29l9 9q26 0 50 -3t35 -6l12 -3q7 -16 7 -34q0 -42 -47 -68t-121 -26z" />
    <glyph glyph-name="afii10076" unicode="&#x43a;" horiz-adv-x="560" 
d="M70 0v300q0 50 -5 91.5t-9 57.5l-5 16l12 12h155v-198l34 4l25 31q38 46 63 84.5t30 54.5l6 16l10 8h118l-144 -178l54 -103q31 -51 63.5 -96t50.5 -64l17 -20v-16q-41 0 -79.5 -2t-56.5 -4l-18 -3l-148 237h-25v-228h-148z" />
    <glyph glyph-name="afii10077" unicode="&#x43b;" horiz-adv-x="569" 
d="M19 114l12 12q19 -10 38 -10q76 0 76 203q0 47 -4.5 83.5t-8.5 49.5l-5 13l12 12h363v-477h-148v414h-129v-83q0 -157 -36 -249t-109 -92q-12 0 -24 3t-18 5l-7 3q-12 43 -12 113z" />
    <glyph glyph-name="afii10078" unicode="&#x43c;" horiz-adv-x="725" 
d="M543 0l-40 348l-4 4l-109 -352h-107l-21 21l-103 330l-4 -4l-33 -347h-80l-9 9q24 70 36 182l13 109q5 51 4.5 87.5t-2.5 56.5l-3 21l12 12h167l102 -340l47 163q14 47 23 88.5t11 59.5l2 17l10 12h173l57 -477h-142z" />
    <glyph glyph-name="afii10079" unicode="&#x43d;" horiz-adv-x="597" 
d="M382 0v214h-164v-214h-148v300q0 50 -5 91.5t-9 57.5l-5 16l12 12h155v-201h164v24q0 50 -2 92.5t-4 59.5l-2 17l8 8h148v-477h-148z" />
    <glyph glyph-name="afii10080" unicode="&#x43e;" horiz-adv-x="592" 
d="M36 239q0 111 72 179.5t188 68.5t187.5 -68.5t71.5 -179.5t-72 -180t-187 -69q-116 0 -188 69t-72 180zM201 239q0 -97 26 -149t69 -52t68.5 52t25.5 149q0 96 -25.5 148t-68.5 52t-69 -52t-26 -148z" />
    <glyph glyph-name="afii10081" unicode="&#x43f;" horiz-adv-x="595" 
d="M381 0v414h-163v-414h-148v300q0 50 -5 91.5t-9 57.5l-5 16l12 12h466v-477h-148z" />
    <glyph glyph-name="afii10082" unicode="&#x440;" horiz-adv-x="596" 
d="M218 -250h-148v449q0 84 -7 150.5t-13 90.5l-7 25l13 12q40 0 77.5 3t54.5 6l18 3l12 -12l-4 -41l4 -5q6 6 18 15.5t50 25t79 15.5q88 0 141.5 -64t53.5 -174q0 -121 -65.5 -190t-180.5 -69q-51 0 -96 15v-255zM395 226q0 179 -104 179q-19 0 -37.5 -6t-27.5 -12l-8 -6
v-282q1 -27 22 -43t52 -16q48 0 75.5 46.5t27.5 139.5z" />
    <glyph glyph-name="afii10083" unicode="&#x441;" horiz-adv-x="536" 
d="M482 111l22 -23q-2 -4 -7 -10.5t-22.5 -23.5t-39.5 -30t-60 -23.5t-81 -10.5q-117 0 -187.5 68.5t-70.5 181.5q0 112 71 179.5t198 67.5q90 0 143.5 -34.5t53.5 -96.5q0 -13 -3 -26t-5 -19l-3 -6q-41 -12 -117 -12l-12 12q9 23 9 56q0 78 -68 78q-49 0 -75.5 -49
t-26.5 -129q0 -102 36.5 -148t108.5 -46q38 0 72 11t49 22z" />
    <glyph glyph-name="afii10084" unicode="&#x442;" horiz-adv-x="523" 
d="M507 400l-12 -12q-43 30 -140 30h-20v-418h-148v418h-19q-43 0 -78 -7.5t-48 -14.5l-14 -8l-12 12v77h491v-77z" />
    <glyph glyph-name="afii10085" unicode="&#x443;" horiz-adv-x="539" 
d="M527 477l-235 -550q-20 -47 -37 -91t-23 -64l-7 -21l-9 -8q-32 0 -63 9.5t-46 18.5l-15 9v12q9 7 24 21t50.5 60t58.5 95l14 31l-134 301q-22 49 -45 91t-36 60l-12 18l8 8q42 0 81 2t57 4l18 2l134 -328l65 143q23 52 37 94t16 58l2 17l8 8q18 0 38 2t32 4l11 2z" />
    <glyph glyph-name="afii10086" unicode="&#x444;" horiz-adv-x="797" 
d="M324 -250v247q-9 -7 -42 -7q-102 0 -174 69.5t-72 179.5q0 109 71.5 178.5t173.5 69.5q15 0 25.5 -1.5t13.5 -3.5l4 -2v10q0 76 -7 138t-13 86l-7 24l12 12q41 0 78.5 3t54.5 6l18 3l12 -12v-270q10 7 43 7q102 0 174 -69.5t72 -178.5q0 -110 -72 -179.5t-174 -69.5
q-15 0 -25.5 2t-13.5 4l-4 1v-247h-148zM599 239q0 97 -26 148.5t-72 51.5q-8 0 -15 -1.5t-10 -3.5l-4 -1v-389q12 -6 29 -6q46 0 72 52t26 149zM198 239q0 -99 26 -150t73 -51q7 0 14 1.5t10 2.5l3 2v388q-10 7 -28 7q-46 0 -72 -51.5t-26 -148.5z" />
    <glyph glyph-name="afii10087" unicode="&#x445;" horiz-adv-x="548" 
d="M200 486l110 -168q34 46 58 84t31 52l7 15l10 8h105l-173 -217l40 -60q34 -51 69.5 -98t54.5 -68l18 -22v-12q-48 0 -92.5 -2t-65.5 -4l-20 -3l-117 177q-34 -44 -61.5 -83.5t-38.5 -57.5l-11 -18l-9 -9h-89l-9 8l179 218l-48 74q-33 50 -64.5 91t-46.5 57l-15 17v12
q48 0 92.5 2.5t65.5 4.5z" />
    <glyph glyph-name="afii10088" unicode="&#x446;" horiz-adv-x="631" 
d="M70 0v300q0 50 -5 91.5t-9 57.5l-5 16l12 12h155v-414h163v237q0 50 -2.5 92.5t-4.5 59.5l-2 17l9 8h148v-414h70l12 -13l-17 -211h-78l-12 12q0 43 -6.5 80.5t-13.5 52.5l-6 16h-408z" />
    <glyph glyph-name="afii10089" unicode="&#x447;" horiz-adv-x="573" 
d="M204 477v-175q0 -32 15.5 -45t49.5 -13q22 0 43.5 5.5t31.5 10.5l11 6v34q0 50 -4 91.5t-8 57.5l-4 16l12 12h152v-477h-148v207q-7 -5 -21 -12.5t-57.5 -20t-88.5 -12.5q-69 0 -100.5 36.5t-31.5 96.5v21q0 45 -7 82.5t-13 51.5l-7 15l12 12h163z" />
    <glyph glyph-name="afii10090" unicode="&#x448;" horiz-adv-x="859" 
d="M70 0v300q0 50 -5 91.5t-9 57.5l-5 16l12 12h155v-414h140v237q0 50 -2 92.5t-4 59.5l-3 17l9 8h147v-414h140v237q0 50 -2.5 92.5t-4.5 59.5l-2 17l9 8h148v-477h-723z" />
    <glyph glyph-name="afii10091" unicode="&#x449;" horiz-adv-x="895" 
d="M70 0v300q0 50 -5 91.5t-9 57.5l-5 16l12 12h155v-414h140v237q0 50 -2 92.5t-4 59.5l-3 17l9 8h147v-414h140v237q0 50 -2.5 92.5t-4.5 59.5l-2 17l9 8h148v-414h70l12 -13l-17 -211h-78l-12 12q0 43 -6.5 80.5t-13.5 52.5l-6 16h-672z" />
    <glyph glyph-name="afii10092" unicode="&#x44a;" horiz-adv-x="641" 
d="M173 0v418h-24q-36 0 -66.5 -8.5t-42.5 -17.5l-12 -8l-12 12v81h305v-191h86q91 0 147.5 -39.5t56.5 -103.5t-56.5 -103.5t-147.5 -39.5h-234zM379 224h-58v-161h58q37 0 59 21t22 59t-22 59.5t-59 21.5z" />
    <glyph glyph-name="afii10093" unicode="&#x44b;" horiz-adv-x="784" 
d="M70 0v300q0 50 -5 91.5t-9 57.5l-5 16l12 12h155v-191h87q91 0 147.5 -39.5t56.5 -103.5t-56.5 -103.5t-147.5 -39.5h-235zM569 0v300q0 50 -2 92.5t-4 59.5l-2 17l8 8h148v-477h-148zM276 224h-58v-161h58q37 0 59 21t22 59t-22 59.5t-59 21.5z" />
    <glyph glyph-name="afii10094" unicode="&#x44c;" horiz-adv-x="538" 
d="M70 0v300q0 50 -5 91.5t-9 57.5l-5 16l12 12h155v-191h87q91 0 147.5 -39.5t56.5 -103.5t-56.5 -103.5t-147.5 -39.5h-235zM276 224h-58v-161h58q37 0 59 21t22 59t-22 59.5t-59 21.5z" />
    <glyph glyph-name="afii10095" unicode="&#x44d;" horiz-adv-x="525" 
d="M216 49q100 0 106 167h-152l-8 8v47h160q-7 164 -104 164q-21 0 -40 -10.5t-32 -25.5t-23 -30.5t-15 -26.5l-4 -10h-12q-6 4 -16 11.5t-26 33.5t-16 55q7 6 20 15t61 24.5t104 15.5q128 0 199 -67.5t71 -180.5t-71 -181t-198 -68q-58 0 -106 15t-67 29l-19 15
q0 28 14 52.5t28 34.5l15 11h12q2 -4 5 -10.5t13.5 -23.5t23.5 -30t33.5 -23.5t43.5 -10.5z" />
    <glyph glyph-name="afii10096" unicode="&#x44e;" horiz-adv-x="802" 
d="M70 0v300q0 50 -5 91.5t-9 57.5l-5 16l12 12h155v-201h72q11 96 75.5 153.5t162.5 57.5q108 0 174 -68.5t66 -179.5t-66 -180t-174 -69q-101 0 -166 61.5t-73 162.5h-71v-214h-148zM443 239q0 -97 23 -149t62 -52t62 52t23 149q0 96 -23 148t-62 52t-62 -52t-23 -148z
" />
    <glyph glyph-name="afii10097" unicode="&#x44f;" horiz-adv-x="558" 
d="M28 0v16q61 63 131 180l5 9q-54 16 -84 50.5t-30 80.5q0 63 56 102t147 39h238v-477h-148v194h-55l-115 -203q-58 9 -145 9zM281 257h62v157h-62q-37 0 -60 -20t-23 -58t23 -58.5t60 -20.5z" />
    <glyph glyph-name="uni0450" unicode="&#x450;" horiz-adv-x="549" 
d="M482 111l23 -23q-2 -4 -7 -10.5t-22.5 -23.5t-39.5 -30t-60 -23.5t-81 -10.5q-118 0 -188.5 68.5t-70.5 181.5q0 114 72 180.5t202 66.5q197 0 197 -156q0 -19 -2.5 -37.5t-5.5 -27.5l-3 -10l-12 -12h-283q3 -93 39.5 -135t106.5 -42q38 0 71.5 11t48.5 22zM306 439
q-44 0 -71.5 -37t-32.5 -109l167 10q5 23 5 49q0 87 -68 87zM359 564l-9 -8h-44l-143 149v8q36 22 117 22z" />
    <glyph glyph-name="afii10071" unicode="&#x451;" horiz-adv-x="549" 
d="M482 111l23 -23q-2 -4 -7 -10.5t-22.5 -23.5t-39.5 -30t-60 -23.5t-81 -10.5q-118 0 -188.5 68.5t-70.5 181.5q0 114 72 180.5t202 66.5q197 0 197 -156q0 -19 -2.5 -37.5t-5.5 -27.5l-3 -10l-12 -12h-283q3 -93 39.5 -135t106.5 -42q38 0 71.5 11t48.5 22zM306 439
q-44 0 -71.5 -37t-32.5 -109l167 10q5 23 5 49q0 87 -68 87zM340 620q0 28 18 45.5t47 17.5t46 -17.5t17 -45.5q0 -29 -17.5 -47t-45.5 -18q-29 0 -47 18t-18 47zM122 620q0 28 18 45.5t47 17.5t46 -17.5t17 -45.5q0 -29 -17.5 -47t-45.5 -18q-29 0 -47 18t-18 47z" />
    <glyph glyph-name="afii10099" unicode="&#x452;" horiz-adv-x="597" 
d="M383 -26v362q0 69 -73 69q-23 0 -45.5 -6t-34.5 -11l-11 -6v-382h-148v578h-76v31l76 30v111h148v-116h158v-56h-158v-96l-5 -50l5 -4q8 7 22.5 16.5t60 26t91.5 16.5q72 0 105 -37t33 -100v-326q0 -57 -22.5 -107t-54.5 -81.5t-64 -54.5t-54 -33l-23 -10l-23 23
q4 3 10 9.5t22 28t28.5 45t22.5 59t10 71.5z" />
    <glyph glyph-name="afii10100" unicode="&#x453;" horiz-adv-x="444" 
d="M276 418h-58v-418h-148v300q0 50 -5 91.5t-9 57.5l-5 16l12 12h365v-77l-12 -12q-43 30 -140 30zM173 556l-9 8l78 171q36 0 65.5 -5.5t40.5 -11.5l11 -5v-8l-143 -149h-43z" />
    <glyph glyph-name="afii10101" unicode="&#x454;" horiz-adv-x="529" 
d="M482 111l22 -23q-2 -4 -7 -10.5t-22.5 -23.5t-39.5 -30t-60 -23.5t-81 -10.5q-117 0 -187.5 69t-70.5 182q0 112 71.5 179t202.5 67q86 0 137 -30t51 -83q0 -10 -2 -20t-4 -15l-1 -5q-39 -12 -114 -12l-13 12q8 19 8 41q0 31 -18.5 47.5t-49.5 16.5q-48 0 -74.5 -45
t-28.5 -119h191l8 -9v-47h-197q7 -79 43 -115.5t100 -36.5q38 0 72 11t49 22z" />
    <glyph glyph-name="afii10102" unicode="&#x455;" horiz-adv-x="469" 
d="M227 434q-32 0 -49.5 -13t-17.5 -34q0 -23 24 -41t84 -48l24 -12q82 -43 113 -75.5t31 -81.5q0 -68 -52 -103.5t-150 -35.5q-40 0 -76 6t-58 14t-39 16.5t-24 14.5l-7 6q0 29 15 55t30 38l15 12h12q2 -4 6 -11.5t17 -26.5t28 -33t38.5 -26t47.5 -12q32 0 52.5 14t20.5 38
q0 25 -26 42t-112 58q-67 30 -100.5 63.5t-33.5 89.5q0 66 49.5 102.5t147.5 36.5q55 0 99 -11.5t61 -22.5l17 -11q0 -29 -15 -55.5t-31 -38.5l-15 -12h-12q-1 4 -4 10.5t-13.5 23.5t-22.5 30t-32 23.5t-42 10.5z" />
    <glyph glyph-name="afii10103" unicode="&#x456;" horiz-adv-x="285" 
d="M70 0v300q0 50 -7 91.5t-13 57.5l-7 16l13 12q40 0 77.5 3t54.5 6l18 3l12 -12v-477h-148zM51 637q0 39 24 63t63 24q40 0 64 -24t24 -63q0 -40 -24 -64t-64 -24q-39 0 -63 24t-24 64z" />
    <glyph glyph-name="afii10104" unicode="&#x457;" horiz-adv-x="285" 
d="M70 0v300q0 50 -7 91.5t-13 57.5l-7 16l13 12q40 0 77.5 3t54.5 6l18 3l12 -12v-477h-148zM-16 620q0 28 18 45.5t47 17.5t46 -17.5t17 -45.5q0 -29 -17.5 -47t-45.5 -18q-29 0 -47 18t-18 47zM173 620q0 28 18 45.5t47 17.5q28 0 45.5 -17.5t17.5 -45.5q0 -29 -17.5 -47
t-45.5 -18q-29 0 -47 18t-18 47z" />
    <glyph glyph-name="afii10105" unicode="&#x458;" horiz-adv-x="285" 
d="M70 -26v326q0 50 -7 91.5t-13 57.5l-7 16l13 12q40 0 77.5 3t54.5 6l18 3l12 -12v-453q0 -57 -22.5 -107t-54.5 -81.5t-63.5 -54.5t-53.5 -33l-23 -10l-23 23q4 3 10 9.5t22 28t28 45t22 59t10 71.5zM51 637q0 39 24 63t63 24q40 0 64 -24t24 -63q0 -40 -24 -64t-64 -24
q-39 0 -63 24t-24 64z" />
    <glyph glyph-name="afii10106" unicode="&#x459;" horiz-adv-x="818" 
d="M19 111l12 12q19 -10 38 -10q79 0 79 208q0 46 -5 82t-9 49l-5 13l12 12h361v-191h83q91 0 147 -39.5t56 -103.5t-56 -103.5t-147 -39.5h-231v414h-129v-83q0 -151 -38 -246t-108 -95q-12 0 -24 3t-18 5l-6 3q-12 40 -12 110zM556 224h-54v-161h54q37 0 59 21t22 59
t-22 59.5t-59 21.5z" />
    <glyph glyph-name="afii10107" unicode="&#x45a;" horiz-adv-x="837" 
d="M374 0v219h-156v-219h-148v300q0 50 -5 91.5t-9 57.5l-5 16l12 12h155v-195h156v18q0 50 -2 92.5t-4 59.5l-3 17l9 8h147v-195h83q91 0 147.5 -38.5t56.5 -102.5t-56.5 -102.5t-147.5 -38.5h-230zM575 220h-54v-157h54q37 0 59 20t22 58t-21.5 58.5t-59.5 20.5z" />
    <glyph glyph-name="afii10108" unicode="&#x45b;" horiz-adv-x="597" 
d="M-5 578v31l76 30v111h148v-116h158v-56h-158v-96l-5 -50l5 -4q8 7 22.5 16.5t60 26t91.5 16.5q72 0 105 -37t33 -100v-350h-148v336q0 69 -73 69q-23 0 -45.5 -6t-34.5 -11l-11 -6v-382h-148v578h-76z" />
    <glyph glyph-name="afii10109" unicode="&#x45c;" horiz-adv-x="560" 
d="M70 0v300q0 50 -5 91.5t-9 57.5l-5 16l12 12h155v-198l34 4l25 31q38 46 63 84.5t30 54.5l6 16l10 8h118l-144 -178l54 -103q31 -51 63.5 -96t50.5 -64l17 -20v-16q-41 0 -79.5 -2t-56.5 -4l-18 -3l-148 237h-25v-228h-148zM231 556l-9 8l78 171q36 0 65.5 -5.5
t40.5 -11.5l11 -5v-8l-142 -149h-44z" />
    <glyph glyph-name="uni045D" unicode="&#x45d;" horiz-adv-x="595" 
d="M185 0h-115v300q0 50 -5 91.5t-9 57.5l-5 16l12 12h155v-254l-4 -48l4 -5l196 307h115v-477h-148v264l4 39l-4 4zM355 564l-8 -8h-44l-143 149v8q36 22 117 22z" />
    <glyph glyph-name="afii10110" unicode="&#x45e;" horiz-adv-x="539" 
d="M527 477l-235 -550q-20 -47 -37 -91t-23 -64l-7 -21l-9 -8q-32 0 -63 9.5t-46 18.5l-15 9v12q9 7 24 21t50.5 60t58.5 95l14 31l-133 301q-22 49 -45.5 91t-36.5 60l-12 18l8 8q42 0 81 2t57 4l18 2l134 -328l65 143q23 52 37 94t16 58l2 17l8 8q18 0 38 2t32 4l11 2z
M280 529q-74 0 -121 26.5t-47 68.5q0 8 2 16.5t4 12.5l1 4q39 13 98 13l8 -10q-6 -14 -6 -28q0 -21 16.5 -32.5t44.5 -11.5q27 0 43.5 11.5t16.5 31.5l-6 29l9 9q26 0 50 -3t35 -6l12 -3q7 -16 7 -34q0 -42 -47 -68t-120 -26z" />
    <glyph glyph-name="afii10193" unicode="&#x45f;" horiz-adv-x="625" 
d="M70 0v300q0 50 -5 91.5t-9 57.5l-5 16l12 12h155v-414h163v237q0 50 -2.5 92.5t-4.5 59.5l-2 17l9 8h148v-477h-164l-20 -161h-78l-12 12l-21 149h-164z" />
    <glyph glyph-name="afii10050" unicode="&#x490;" horiz-adv-x="544" 
d="M77 0v700h314q25 64 25 163l13 12h78l17 -226l-12 -12h-280v-637h-155z" />
    <glyph glyph-name="afii10098" unicode="&#x491;" horiz-adv-x="446" 
d="M70 0v300q0 50 -5 91.5t-9 57.5l-5 16l12 12h228q22 52 22 149l12 12h78l17 -211l-12 -13h-190v-414h-148z" />
    <glyph glyph-name="uni04D8" unicode="&#x4d8;" horiz-adv-x="750" 
d="M51 249q0 24 3 44t6 28l3 8l13 12h455q-3 279 -228 279q-60 0 -113.5 -19t-77.5 -37l-23 -19l-25 24q3 6 9 15.5t30 33.5t53.5 43t80 34t109.5 15q161 0 259.5 -100t98.5 -260q0 -161 -99 -260.5t-260 -99.5q-136 0 -215 71.5t-79 187.5zM343 42q77 0 127 64t59 180
l-325 -19q-1 -11 -1 -37q0 -93 37 -140.5t103 -47.5z" />
    <glyph glyph-name="afii10846" unicode="&#x4d9;" horiz-adv-x="540" 
d="M58 366l-23 23q2 4 7 10.5t23 23.5t40 30t60 23.5t81 10.5q117 0 187.5 -68.5t70.5 -181.5q0 -114 -72 -180.5t-202 -66.5q-197 0 -197 156q0 19 3 38t6 28l3 9l12 12h281q-3 93 -39 135t-106 42q-38 0 -71.5 -11t-48.5 -22zM234 38q44 0 71.5 37t32.5 109l-167 -10
q-5 -25 -5 -49q0 -87 68 -87z" />
    <glyph glyph-name="Wgrave" unicode="&#x1e80;" horiz-adv-x="1080" 
d="M698 21l-140 399l-138 -420h-113l-21 21l-191 502q-19 50 -38.5 91t-30.5 57l-10 16v13h174l208 -547l122 376q-17 48 -34.5 87.5t-26.5 55.5l-9 15v13h175l186 -539l178 539h76l-235 -700h-111zM633 767l-8 -8h-44l-143 149v8q36 22 117 22z" />
    <glyph glyph-name="wgrave" unicode="&#x1e81;" horiz-adv-x="814" 
d="M505 21l-85 257l-90 -278h-102l-21 21l-108 279q-20 50 -41.5 92.5t-33.5 59.5l-12 17l8 8q42 0 80 2t55 4l17 2l132 -339l77 237q-11 26 -22 47.5t-17 29.5l-5 9l8 8q42 0 78.5 2t51.5 4l15 2l113 -342l56 157q17 49 27.5 91t12.5 60l2 18l9 8q17 0 38 2t34 4l12 2l8 -8
l-172 -477h-104zM485 564l-8 -8h-44l-143 149v8q36 22 117 22z" />
    <glyph glyph-name="Wacute" unicode="&#x1e82;" horiz-adv-x="1080" 
d="M698 21l-140 399l-138 -420h-113l-21 21l-191 502q-19 50 -38.5 91t-30.5 57l-10 16v13h174l208 -547l122 376q-17 48 -34.5 87.5t-26.5 55.5l-9 15v13h175l186 -539l178 539h76l-235 -700h-111zM500 759l-9 8l78 171q36 0 65.5 -5.5t40.5 -10.5l11 -6v-8l-143 -149h-43z
" />
    <glyph glyph-name="wacute" unicode="&#x1e83;" horiz-adv-x="814" 
d="M505 21l-85 257l-90 -278h-102l-21 21l-108 279q-20 50 -41.5 92.5t-33.5 59.5l-12 17l8 8q42 0 80 2t55 4l17 2l132 -339l77 237q-11 26 -22 47.5t-17 29.5l-5 9l8 8q42 0 78.5 2t51.5 4l15 2l113 -342l56 157q17 49 27.5 91t12.5 60l2 18l9 8q17 0 38 2t34 4l12 2l8 -8
l-172 -477h-104zM379 556l-9 8l78 171q36 0 65 -5.5t41 -11.5l11 -5v-8l-143 -149h-43z" />
    <glyph glyph-name="Wdieresis" unicode="&#x1e84;" horiz-adv-x="1080" 
d="M698 21l-140 399l-138 -420h-113l-21 21l-191 502q-19 50 -38.5 91t-30.5 57l-10 16v13h174l208 -547l122 376q-17 48 -34.5 87.5t-26.5 55.5l-9 15v13h175l186 -539l178 539h76l-235 -700h-111zM386 823q0 28 18 45.5t47 17.5t46 -17t17 -46t-17.5 -47t-45.5 -18
q-29 0 -47 18t-18 47zM604 823q0 28 18 45.5t47 17.5t46 -17t17 -46t-17.5 -47t-45.5 -18q-29 0 -47 18t-18 47z" />
    <glyph glyph-name="wdieresis" unicode="&#x1e85;" horiz-adv-x="814" 
d="M505 21l-85 257l-90 -278h-102l-21 21l-108 279q-20 50 -41.5 92.5t-33.5 59.5l-12 17l8 8q42 0 80 2t55 4l17 2l132 -339l77 237q-11 26 -22 47.5t-17 29.5l-5 9l8 8q42 0 78.5 2t51.5 4l15 2l113 -342l56 157q17 49 27.5 91t12.5 60l2 18l9 8q17 0 38 2t34 4l12 2l8 -8
l-172 -477h-104zM256 620q0 28 18 45.5t47 17.5t46 -17.5t17 -45.5q0 -29 -17.5 -47t-45.5 -18q-29 0 -47 18t-18 47zM474 620q0 28 18 45.5t47 17.5t46 -17.5t17 -45.5q0 -29 -17.5 -47t-45.5 -18q-29 0 -47 18t-18 47z" />
    <glyph glyph-name="Ygrave" unicode="&#x1ef2;" horiz-adv-x="682" 
d="M665 700l-239 -377v-323h-155v313l-110 175q-35 55 -71.5 104.5t-55.5 71.5l-19 23v13h191l188 -290l186 290h85zM415 772l-9 -8h-43l-143 149v8q36 23 117 23z" />
    <glyph glyph-name="ygrave" unicode="&#x1ef3;" horiz-adv-x="539" 
d="M527 477l-235 -550q-20 -47 -37 -91t-23 -64l-7 -21l-9 -8q-32 0 -63 9.5t-46 18.5l-15 9v12q9 7 24 21t50.5 60t58.5 95l14 31l-134 301q-22 49 -45 91t-36 60l-12 18l8 8q42 0 81 2t57 4l18 2l134 -328l65 143q23 52 37 94t16 58l2 17l8 8q18 0 38 2t32 4l11 2z
M337 564l-8 -8h-44l-143 149v8q36 22 117 22z" />
    <glyph glyph-name="figuredash" unicode="&#x2012;" 
d="M55 319v62h483v-62h-483z" />
    <glyph glyph-name="endash" unicode="&#x2013;" horiz-adv-x="493" 
d="M55 244v62h383v-62h-383z" />
    <glyph glyph-name="emdash" unicode="&#x2014;" horiz-adv-x="793" 
d="M55 244v62h683v-62h-683z" />
    <glyph glyph-name="quoteleft" unicode="&#x2018;" horiz-adv-x="233" 
d="M201 757l23 -23q-6 -9 -16 -25.5t-26 -65.5t-16 -97q0 -25 4 -48t8 -33l4 -10l-8 -8q-37 0 -67.5 4.5t-42.5 9.5l-13 5q-8 18 -8 52q0 43 16.5 83.5t39.5 67.5t46 48t39 31z" />
    <glyph glyph-name="quoteright" unicode="&#x2019;" horiz-adv-x="233" 
d="M51 448l-23 23q6 9 16 25.5t26 65.5t16 97q0 25 -4 48t-8 33l-5 10l9 8q36 0 66.5 -4.5t43.5 -9.5l12 -4q8 -19 8 -53q0 -43 -16 -83.5t-39 -67.5t-46.5 -48t-39.5 -30z" />
    <glyph glyph-name="quotesinglbase" unicode="&#x201a;" horiz-adv-x="233" 
d="M41 -173l-23 23q6 9 16 25.5t26 65.5t16 97q0 25 -4 48t-8 33l-5 10l9 9q36 0 66.5 -5t43.5 -9l12 -5q8 -18 8 -52q0 -43 -16 -83.5t-39.5 -68t-46.5 -48t-39 -30.5z" />
    <glyph glyph-name="quotedblleft" unicode="&#x201c;" horiz-adv-x="407" 
d="M201 757l23 -23q-6 -9 -16 -25.5t-26 -65.5t-16 -97q0 -25 4 -48t8 -33l4 -10l-8 -8q-37 0 -67.5 4.5t-42.5 9.5l-13 5q-8 18 -8 52q0 43 16.5 83.5t39.5 67.5t46 48t39 31zM375 757l23 -23q-6 -9 -16 -25.5t-26 -65.5t-16 -97q0 -25 4 -48t8 -33l4 -10l-8 -8
q-37 0 -67.5 4.5t-42.5 9.5l-13 5q-8 18 -8 52q0 43 16.5 83.5t39.5 67.5t46 48t39 31z" />
    <glyph glyph-name="quotedblright" unicode="&#x201d;" horiz-adv-x="407" 
d="M51 448l-23 23q6 9 16 25.5t26 65.5t16 97q0 25 -4 48t-8 33l-5 10l9 8q36 0 66.5 -4.5t43.5 -9.5l12 -4q8 -19 8 -53q0 -43 -16 -83.5t-39 -67.5t-46.5 -48t-39.5 -30zM224 448l-22 23q6 9 15.5 25.5t25.5 65.5t16 97q0 25 -4 48t-8 33l-4 10l9 8q36 0 66.5 -4.5
t43.5 -9.5l12 -4q8 -19 8 -53q0 -43 -16.5 -83.5t-39.5 -67.5t-46 -48t-40 -30z" />
    <glyph glyph-name="quotedblbase" unicode="&#x201e;" horiz-adv-x="407" 
d="M41 -173l-23 23q6 9 16 25.5t26 65.5t16 97q0 25 -4 48t-8 33l-5 10l9 9q36 0 66.5 -5t43.5 -9l12 -5q8 -18 8 -52q0 -43 -16 -83.5t-39.5 -68t-46.5 -48t-39 -30.5zM214 -173l-22 23q6 9 15.5 25.5t25.5 65.5t16 97q0 25 -4 48t-8 33l-4 10l9 9q36 0 66.5 -5t43.5 -9
l12 -5q8 -18 8 -52q0 -43 -16.5 -83.5t-39.5 -68t-46 -48t-40 -30.5z" />
    <glyph glyph-name="dagger" unicode="&#x2020;" horiz-adv-x="502" 
d="M41 489v73l181 -7l-7 195h72l-7 -195l181 7v-73l-179 7v-546h-63v546z" />
    <glyph glyph-name="daggerdbl" unicode="&#x2021;" horiz-adv-x="502" 
d="M41 489v73l181 -7l-7 195h72l-7 -195l181 7v-73l-179 7v-292l179 7v-73l-181 7l7 -195h-72l7 195l-181 -7v73l178 -7v292z" />
    <glyph glyph-name="bullet" unicode="&#x2022;" horiz-adv-x="299" 
d="M41 300q0 49 29.5 79t78.5 30t79 -30t30 -79t-30 -78.5t-79 -29.5t-78.5 29.5t-29.5 78.5z" />
    <glyph glyph-name="ellipsis" unicode="&#x2026;" horiz-adv-x="714" 
d="M38 68q0 35 21.5 57t56.5 22q36 0 57.5 -22t21.5 -57t-21.5 -56.5t-57.5 -21.5q-35 0 -56.5 21.5t-21.5 56.5zM278 68q0 35 22 57t57 22t57 -22t22 -57t-22 -56.5t-57 -21.5t-57 21.5t-22 56.5zM519 68q0 35 21.5 57t56.5 22t57 -22t22 -57t-22 -56.5t-57 -21.5
t-56.5 21.5t-21.5 56.5z" />
    <glyph glyph-name="perthousand" unicode="&#x2030;" horiz-adv-x="1264" 
d="M253 0h-72l432 700h72zM29 515q0 87 50 141t131 54q80 0 130.5 -54t50.5 -141t-50.5 -141t-130.5 -54q-81 0 -131 54t-50 141zM141 514q0 -68 18.5 -105t50.5 -37t50.5 37t18.5 105q0 69 -18.5 106t-50.5 37t-50.5 -37t-18.5 -106zM476 185q0 87 50 141t131 54
q80 0 130.5 -54t50.5 -141t-50.5 -141t-130.5 -54q-81 0 -131 54t-50 141zM588 184q0 -68 18.5 -105t50.5 -37t50.5 37t18.5 105q0 69 -18.5 106t-50.5 37t-50.5 -37t-18.5 -106zM873 185q0 87 50.5 141t130.5 54q81 0 131.5 -54t50.5 -141t-50.5 -141t-131.5 -54
q-80 0 -130.5 54t-50.5 141zM986 184q0 -68 18.5 -105t49.5 -37q32 0 50.5 37t18.5 105q0 69 -18.5 106t-50.5 37q-31 0 -49.5 -37t-18.5 -106z" />
    <glyph glyph-name="guilsinglleft" unicode="&#x2039;" horiz-adv-x="300" 
d="M253 471l9 -9v-51l-114 -136l114 -136v-51l-9 -9l-218 185v22z" />
    <glyph glyph-name="guilsinglright" unicode="&#x203a;" horiz-adv-x="300" 
d="M38 462l9 9l218 -185v-22l-218 -185l-9 9v51l114 136l-114 136v51z" />
    <glyph glyph-name="fraction" unicode="&#x2044;" horiz-adv-x="528" 
d="M84 -25h-72l432 750h72z" />
    <glyph glyph-name="Euro" unicode="&#x20ac;" horiz-adv-x="754" 
d="M19 392v63h70q28 120 119.5 187.5t241.5 67.5q52 0 97 -8.5t72 -20t46.5 -23.5t27.5 -20l8 -9q0 -39 -15.5 -68.5t-30.5 -39.5l-15 -10h-17q-3 6 -7.5 16t-22 35t-37 44.5t-51.5 35.5t-66 16q-70 0 -117.5 -52t-63.5 -151h258l9 -9v-54h-274q-1 -14 -1 -43q0 -30 1 -44
h265l9 -9v-54h-267q16 -98 64.5 -149t122.5 -51q37 0 69.5 15t53 37t35.5 43.5t21 36.5l7 15h17q2 -1 6.5 -3.5t15 -13t18.5 -22.5t14.5 -33.5t6.5 -45.5q-3 -3 -8 -8.5t-26.5 -19.5t-47.5 -24.5t-72 -19.5t-99 -9q-153 0 -245.5 66.5t-120.5 185.5h-71v63h61q-2 14 -2 45
q0 28 1 42h-60z" />
    <glyph glyph-name="uni20B4" unicode="&#x20b4;" horiz-adv-x="587" 
d="M42 392v63h292q32 38 32 81q0 84 -113 84q-49 0 -92 -16t-62 -32l-19 -15l-24 24q2 5 7.5 14t26.5 31t47 39t73 31t102 14q102 0 161 -43t59 -111q0 -53 -40 -101h52v-63h-119q-19 -15 -54.5 -40t-46.5 -34h220v-63h-290q-35 -43 -35 -87q0 -41 30 -64.5t90 -23.5
q51 0 95.5 16t63.5 32l20 16l24 -24q-3 -5 -8 -14t-27 -31.5t-49 -39.5t-75.5 -31t-104.5 -14q-105 0 -165 43.5t-60 113.5q0 57 43 108h-54v63h122q15 11 50 36t52 38h-224z" />
    <glyph glyph-name="afii61352" unicode="&#x2116;" horiz-adv-x="1109" 
d="M77 0v420q0 80 -6.5 147t-13.5 94l-7 27l12 12h53l465 -457v457h77v-700h-46l-465 458v-458h-69zM718 515q0 87 50 141t131 54q80 0 130.5 -54t50.5 -141t-50.5 -141t-130.5 -54q-81 0 -131 54t-50 141zM830 514q0 -68 18.5 -105t50.5 -37t50.5 37t18.5 105
q0 69 -18.5 106t-50.5 37t-50.5 -37t-18.5 -106zM726 187v63h345v-63h-345z" />
    <glyph glyph-name="trademark" unicode="&#x2122;" horiz-adv-x="828" 
d="M708 350l-30 274l-1 2l-80 -266h-63l-12 12l-82 254l-2 -3l-23 -273h-44l24 260q2 25 1.5 43.5t-2.5 28.5l-2 11l7 7h116l72 -224l67 224h114l39 -350h-99zM230 663v-313h-96v313h-23q-25 0 -45.5 -4.5t-29.5 -8.5l-8 -5l-7 7v48h322v-48l-7 -7q-27 18 -82 18h-24z" />
    <glyph glyph-name="arrowleft" unicode="&#x2190;" horiz-adv-x="543" 
d="M269 487l9 -9v-51l-104 -121h314v-62h-314l104 -121v-51l-9 -9l-234 201v22z" />
    <glyph glyph-name="arrowup" unicode="&#x2191;" horiz-adv-x="536" 
d="M298 59h-63v312l-121 -102h-51l-8 8l200 234h23l200 -234l-8 -8h-51l-121 102v-312z" />
    <glyph glyph-name="arrowright" unicode="&#x2192;" horiz-adv-x="543" 
d="M55 244v62h313l-103 121v51l9 9l234 -201v-22l-234 -201l-9 9v51l103 121h-313z" />
    <glyph glyph-name="arrowdown" unicode="&#x2193;" horiz-adv-x="536" 
d="M55 273l8 8h51l121 -103v313h63v-312l121 102h51l8 -8l-200 -234h-23z" />
    <glyph glyph-name="uni2196" unicode="&#x2196;" horiz-adv-x="536" 
d="M135 120h-13l-23 307l16 16l307 -23v-13l-36 -36l-159 -13l221 -221l-44 -44l-222 220l-12 -157z" />
    <glyph glyph-name="uni2197" unicode="&#x2197;" horiz-adv-x="536" 
d="M142 93l-43 44l220 221l-158 13l-36 36v13l307 23l16 -16l-23 -307h-13l-35 36l-14 157z" />
    <glyph glyph-name="uni2198" unicode="&#x2198;" horiz-adv-x="536" 
d="M99 399l43 44l221 -221l14 158l35 36h13l23 -307l-16 -16l-307 23v13l36 36l158 12z" />
    <glyph glyph-name="uni2199" unicode="&#x2199;" horiz-adv-x="536" 
d="M422 129v-13l-307 -23l-16 16l23 307h13l35 -36l12 -158l222 221l44 -44l-221 -222l159 -12z" />
    <glyph glyph-name="minus" unicode="&#x2212;" 
d="M99 294v62h395v-62h-395z" />
    <glyph glyph-name="approxequal" unicode="&#x2248;" 
d="M99 361v68q47 51 98 51q34 0 99 -28.5t100 -28.5q50 0 98 52v-69q-46 -52 -97 -52q-34 0 -98.5 29t-99.5 29q-50 0 -100 -51zM397 166q-34 0 -98.5 29t-99.5 29q-50 0 -100 -51v68q47 51 98 51q34 0 99 -28.5t100 -28.5q50 0 98 52v-69q-46 -52 -97 -52z" />
    <glyph glyph-name="notequal" unicode="&#x2260;" 
d="M99 387v62h231l68 114l53 -31l-49 -83h92v-62h-129l-73 -124h202v-62h-238l-67 -114l-54 31l49 83h-85v62h121l74 124h-195z" />
    <glyph glyph-name="lessequal" unicode="&#x2264;" 
d="M504 585v-67l-325 -126l325 -126v-67l-415 160v67zM89 79v62h415v-62h-415z" />
    <glyph glyph-name="greaterequal" unicode="&#x2265;" 
d="M89 518v67l415 -159v-67l-415 -160v67l325 126zM89 79v62h415v-62h-415z" />
    <glyph glyph-name="commaaccent" unicode="&#xf6c3;" horiz-adv-x="217" 
d="M54 -252l-15 15q40 51 40 125q0 17 -2.5 31.5t-4.5 20.5l-3 7l5 5q24 0 46 -3t32 -6l11 -3q5 -10 5 -33q0 -48 -28.5 -87.5t-57.5 -55.5z" />
    <glyph glyph-name="zerooldstyle" unicode="&#xf730;" horiz-adv-x="670" 
d="M46 239q0 111 80 179.5t209 68.5t209 -68.5t80 -179.5t-80 -180t-209 -69t-209 69t-80 180zM201 239q0 -95 36.5 -146t97.5 -51t97.5 51t36.5 146q0 94 -36.5 145t-97.5 51t-97.5 -51t-36.5 -145z" />
    <glyph glyph-name="oneoldstyle" unicode="&#xf731;" horiz-adv-x="472" 
d="M216 0v357q-81 -46 -167 -46q-9 16 -9 58l9 8q58 0 120.5 25t96.5 50l34 25h64v-477h-148z" />
    <glyph glyph-name="twooldstyle" unicode="&#xf732;" horiz-adv-x="571" 
d="M528 356q0 -41 -30.5 -83.5t-71 -72t-88 -56t-74 -38t-37.5 -15.5h131q50 0 91.5 7.5t57.5 15.5l16 7l12 -12v-109h-500v61q7 3 19 9t46.5 25t66.5 38.5t70.5 48.5t66 57t46.5 61t19 63q0 32 -22 52t-62 20q-44 0 -68 -26t-24 -75q0 -19 3 -33.5t6 -19.5l3 -5l-12 -12
q-38 0 -72.5 3t-50.5 6l-15 3q-11 15 -11 51q0 73 61.5 116.5t185.5 43.5q109 0 173 -35t64 -96z" />
    <glyph glyph-name="threeoldstyle" unicode="&#xf733;" horiz-adv-x="634" 
d="M302 -208q62 0 94.5 43.5t32.5 115.5q0 71 -31.5 111t-94.5 40h-50l-8 9v61h39q64 0 92.5 33t28.5 102q0 128 -101 128q-50 0 -80 -30t-30 -88q0 -20 3 -36t6 -22l3 -6l-12 -12q-38 0 -72.5 3t-49.5 6l-16 3q-11 19 -11 55q0 81 68.5 130t195.5 49q123 0 188.5 -48
t65.5 -137q0 -125 -131 -163q77 -15 118 -66t41 -122q0 -98 -76 -154.5t-211 -56.5q-130 0 -198 50.5t-68 134.5q0 17 3 31.5t6 19.5l3 6q52 12 138 12l12 -12q-13 -21 -13 -66q0 -61 31 -92.5t84 -31.5z" />
    <glyph glyph-name="fouroldstyle" unicode="&#xf734;" horiz-adv-x="613" 
d="M24 0v31l397 446h74v-414h86v-63h-86v-250h-148v250h-323zM137 63h210v233z" />
    <glyph glyph-name="fiveoldstyle" unicode="&#xf735;" horiz-adv-x="611" 
d="M290 -208q58 0 89.5 47.5t31.5 127.5q0 92 -40 133t-124 41q-42 0 -82 -9t-59 -18l-19 -9l-13 14l44 349h213q50 0 91.5 7.5t57.5 14.5l16 8l12 -12v-137h-335l-21 -171q72 37 160 37q125 0 193 -67.5t68 -173.5q0 -109 -72.5 -171.5t-209.5 -62.5q-123 0 -189 49.5
t-66 129.5q0 17 3 31t7 20l3 5q51 12 137 12l12 -12q-12 -19 -12 -65q0 -58 28.5 -88t75.5 -30z" />
    <glyph glyph-name="sixoldstyle" unicode="&#xf736;" horiz-adv-x="659" 
d="M343 658q-69 0 -102 -72.5t-33 -226.5q52 56 159 56q108 0 177 -57t69 -150q0 -99 -77.5 -158.5t-192.5 -59.5q-144 0 -220.5 96.5t-76.5 267.5q0 162 73 259t233 97q104 0 170 -41.5t66 -112.5q0 -15 -3 -28t-5 -19l-3 -6q-52 -12 -137 -12l-12 12q12 21 12 58
q0 49 -28 73t-69 24zM328 363q-72 0 -118 -86q14 -235 128 -235q50 0 81.5 43t31.5 118q0 77 -34 118.5t-89 41.5z" />
    <glyph glyph-name="sevenoldstyle" unicode="&#xf737;" horiz-adv-x="570" 
d="M314 -250h-148q0 100 28 199.5t68 170t80.5 126.5t68.5 84l28 28h-227q-50 0 -91.5 -7.5t-57.5 -14.5l-16 -8l-12 12v137h501v-65l-1 -1q-12 -16 -28 -41t-53.5 -96.5t-65.5 -144.5t-51 -177t-23 -202z" />
    <glyph glyph-name="eightoldstyle" unicode="&#xf738;" horiz-adv-x="635" 
d="M560 537q0 -106 -121 -168q71 -39 110.5 -83t39.5 -109q0 -82 -67.5 -134.5t-204.5 -52.5q-136 0 -205.5 52.5t-69.5 132.5q0 112 136 176q-113 68 -113 173q0 85 65 135.5t186 50.5q120 0 182 -49t62 -124zM446 147q0 14 -3 26t-11 23.5t-14 20t-21 19t-23 16.5t-28 16
l-28 14t-32.5 15.5t-31.5 14.5q-71 -51 -71 -131q0 -60 38.5 -99.5t101.5 -39.5q56 0 89.5 30.5t33.5 74.5zM306 658q-46 0 -72.5 -24t-26.5 -65q0 -53 40 -88.5t118 -74.5q62 53 62 130q0 56 -34 89t-87 33z" />
    <glyph glyph-name="nineoldstyle" unicode="&#xf739;" horiz-adv-x="648" 
d="M301 -208q72 0 105.5 81t33.5 245v3q-54 -54 -154 -54q-103 0 -171.5 53.5t-68.5 149.5q0 99 75.5 158t188.5 59q143 0 217.5 -99t74.5 -271q0 -81 -17 -148t-52.5 -119t-95 -81t-139.5 -29q-104 0 -177 45t-73 123q0 15 3 27.5t5 18.5l3 5q51 12 137 12l13 -12
q-12 -19 -12 -57q0 -54 30.5 -82t73.5 -28zM327 119q62 0 111 69q-13 247 -123 247q-48 0 -77.5 -42t-29.5 -117q0 -78 32 -117.5t87 -39.5z" />
    <glyph glyph-name="A.smcp" horiz-adv-x="562" 
d="M138 121l-49 -121h-68l184 444l-23 36v10h153l207 -490h-144l-51 121h-209zM245 365l-5 10l-81 -201h166z" />
    <glyph glyph-name="Aacute.smcp" horiz-adv-x="562" 
d="M138 121l-49 -121h-68l184 444l-23 36v10h153l207 -490h-144l-51 121h-209zM214 535l-9 9l79 171q36 0 65 -5.5t41 -11.5l11 -5v-9l-143 -149h-44zM245 365l-5 10l-81 -201h166z" />
    <glyph glyph-name="Abreve.smcp" horiz-adv-x="562" 
d="M138 121l-49 -121h-68l184 444l-23 36v10h153l207 -490h-144l-51 121h-209zM118 644l23 23q6 -6 16.5 -15t45 -24.5t70.5 -15.5t69 14t48 28l15 13l23 -23q-2 -4 -5 -11.5t-16 -26t-29 -32.5t-44 -25.5t-61 -11.5t-61 11t-44.5 26.5t-28.5 31.5t-17 27zM245 365l-5 10
l-81 -201h166z" />
    <glyph glyph-name="Acircumflex.smcp" horiz-adv-x="562" 
d="M138 121l-49 -121h-68l184 444l-23 36v10h153l207 -490h-144l-51 121h-209zM434 544l-9 -9h-51l-100 85l-101 -85h-51l-8 9l141 171h37zM245 365l-5 10l-81 -201h166z" />
    <glyph glyph-name="Agrave.smcp" horiz-adv-x="562" 
d="M138 121l-49 -121h-68l184 444l-23 36v10h153l207 -490h-144l-51 121h-209zM341 544l-9 -9h-44l-143 149v9q36 22 117 22zM245 365l-5 10l-81 -201h166z" />
    <glyph glyph-name="Adieresis.smcp" horiz-adv-x="562" 
d="M138 121l-49 -121h-68l184 444l-23 36v10h153l207 -490h-144l-51 121h-209zM245 365l-5 10l-81 -201h166zM101 604q0 29 18 46.5t47 17.5q28 0 45.5 -17.5t17.5 -46.5t-17.5 -47t-45.5 -18q-29 0 -47 18t-18 47zM319 604q0 29 18 46.5t47 17.5q28 0 45.5 -17.5
t17.5 -46.5t-17.5 -47t-45.5 -18q-29 0 -47 18t-18 47z" />
    <glyph glyph-name="Amacron.smcp" horiz-adv-x="562" 
d="M138 121l-49 -121h-68l184 444l-23 36v10h153l207 -490h-144l-51 121h-209zM138 565v63h272v-63h-272zM245 365l-5 10l-81 -201h166z" />
    <glyph glyph-name="Aogonek.smcp" horiz-adv-x="562" 
d="M138 121l-49 -121h-68l184 444l-23 36v10h153l207 -490h-38q-35 -40 -35 -90q0 -46 42 -46q8 0 15.5 2t10.5 4l3 2l23 -23q-2 -4 -7 -10t-24 -16.5t-43 -10.5q-38 0 -65.5 23t-27.5 65q0 27 13 50.5t24 33.5t22 16h-57l-51 121h-209zM245 365l-5 10l-81 -201h166z" />
    <glyph glyph-name="Aring.smcp" horiz-adv-x="562" 
d="M138 121l-49 -121h-68l184 444l-23 36v10h153l207 -490h-144l-51 121h-209zM182 621q0 41 25.5 66.5t66.5 25.5t66.5 -25.5t25.5 -66.5t-25.5 -66.5t-66.5 -25.5t-66.5 25.5t-25.5 66.5zM245 365l-5 10l-81 -201h166zM238 621q0 -17 10 -27t26 -10t26 10.5t10 26.5
t-10 26.5t-26 10.5t-26 -10.5t-10 -26.5z" />
    <glyph glyph-name="Atilde.smcp" horiz-adv-x="562" 
d="M138 121l-49 -121h-68l184 444l-23 36v10h153l207 -490h-144l-51 121h-209zM229 652q26 0 55 -18t50 -18q20 0 39 10t28 20l9 9l23 -23q-1 -4 -4 -10t-13.5 -22t-23 -28t-33 -22t-42.5 -10q-26 0 -54.5 18.5t-49.5 18.5t-40 -10t-28 -20l-9 -10l-23 23q2 4 4.5 10
t13.5 22t23 28t32.5 22t42.5 10zM245 365l-5 10l-81 -201h166z" />
    <glyph glyph-name="AE.smcp" horiz-adv-x="664" 
d="M21 0l229 490h366v-70l-11 -11q-40 27 -124 27h-78v-157h158l7 -7v-47h-165v-171h86q37 0 68 7t43 13l13 7l10 -10v-71h-360v138h-111l-63 -138h-68zM176 190h87v190z" />
    <glyph glyph-name="AEacute.smcp" horiz-adv-x="664" 
d="M21 0l229 490h366v-70l-11 -11q-40 27 -124 27h-78v-157h158l7 -7v-47h-165v-171h86q37 0 68 7t43 13l13 7l10 -10v-71h-360v138h-111l-63 -138h-68zM264 535l-9 9l79 171q36 0 65 -5.5t41 -11.5l11 -5v-9l-143 -149h-44zM176 190h87v190z" />
    <glyph glyph-name="B.smcp" horiz-adv-x="531" 
d="M58 0v490h208q207 0 207 -122q0 -84 -96 -111q122 -25 122 -124q0 -133 -220 -133h-221zM352 141q0 87 -94 87h-60v-174h60q94 0 94 87zM330 359q0 77 -86 77h-46v-154h46q86 0 86 77z" />
    <glyph glyph-name="C.smcp" horiz-adv-x="559" 
d="M314 454q-55 0 -87.5 -50.5t-32.5 -143.5q0 -99 39 -143.5t118 -44.5q41 0 80 11.5t57 22.5l18 12l20 -20q-2 -4 -7 -11.5t-23 -25.5t-40.5 -32t-61.5 -25.5t-84 -11.5q-122 0 -197.5 70.5t-75.5 183.5t75.5 182.5t202.5 69.5q98 0 155.5 -40t57.5 -103q0 -15 -3 -26.5
t-6 -16.5l-3 -4q-47 -10 -126 -10l-10 10q11 17 11 57q0 44 -20.5 66.5t-56.5 22.5z" />
    <glyph glyph-name="Cacute.smcp" horiz-adv-x="559" 
d="M314 454q-55 0 -87.5 -50.5t-32.5 -143.5q0 -99 39 -143.5t118 -44.5q41 0 80 11.5t57 22.5l18 12l20 -20q-2 -4 -7 -11.5t-23 -25.5t-40.5 -32t-61.5 -25.5t-84 -11.5q-122 0 -197.5 70.5t-75.5 183.5t75.5 182.5t202.5 69.5q98 0 155.5 -40t57.5 -103q0 -15 -3 -26.5
t-6 -16.5l-3 -4q-47 -10 -126 -10l-10 10q11 17 11 57q0 44 -20.5 66.5t-56.5 22.5zM242 535l-8 9l78 171q36 0 65 -5.5t41 -11.5l11 -5v-9l-143 -149h-44z" />
    <glyph glyph-name="Ccaron.smcp" horiz-adv-x="559" 
d="M314 454q-55 0 -87.5 -50.5t-32.5 -143.5q0 -99 39 -143.5t118 -44.5q41 0 80 11.5t57 22.5l18 12l20 -20q-2 -4 -7 -11.5t-23 -25.5t-40.5 -32t-61.5 -25.5t-84 -11.5q-122 0 -197.5 70.5t-75.5 183.5t75.5 182.5t202.5 69.5q98 0 155.5 -40t57.5 -103q0 -15 -3 -26.5
t-6 -16.5l-3 -4q-47 -10 -126 -10l-10 10q11 17 11 57q0 44 -20.5 66.5t-56.5 22.5zM453 712l9 -8l-142 -172h-37l-141 172l8 8h51l101 -84l101 84h50z" />
    <glyph glyph-name="Ccedilla.smcp" horiz-adv-x="559" 
d="M272 -75l10 68q-111 8 -178 77t-67 176q0 113 75.5 182.5t202.5 69.5q98 0 155.5 -40t57.5 -103q0 -15 -3 -26.5t-6 -16.5l-3 -4q-47 -10 -126 -10l-10 10q11 17 11 57q0 44 -20.5 66.5t-56.5 22.5q-55 0 -87.5 -50.5t-32.5 -143.5q0 -99 39 -143.5t118 -44.5
q41 0 80 11.5t57 22.5l18 12l20 -20q-2 -4 -6.5 -10.5t-21 -24t-37 -31t-56 -25.5t-76.5 -14l-7 -40q31 0 53 -20t22 -52q0 -33 -24 -54t-64 -21q-27 0 -48.5 11t-29.5 21l-8 11l19 19q15 -17 43 -17q39 0 39 33t-44 33z" />
    <glyph glyph-name="Ccircumflex.smcp" horiz-adv-x="559" 
d="M314 454q-55 0 -87.5 -50.5t-32.5 -143.5q0 -99 39 -143.5t118 -44.5q41 0 80 11.5t57 22.5l18 12l20 -20q-2 -4 -7 -11.5t-23 -25.5t-40.5 -32t-61.5 -25.5t-84 -11.5q-122 0 -197.5 70.5t-75.5 183.5t75.5 182.5t202.5 69.5q98 0 155.5 -40t57.5 -103q0 -15 -3 -26.5
t-6 -16.5l-3 -4q-47 -10 -126 -10l-10 10q11 17 11 57q0 44 -20.5 66.5t-56.5 22.5zM462 544l-9 -9h-50l-101 85l-101 -85h-51l-8 9l141 171h37z" />
    <glyph glyph-name="Cdotaccent.smcp" horiz-adv-x="559" 
d="M314 454q-55 0 -87.5 -50.5t-32.5 -143.5q0 -99 39 -143.5t118 -44.5q41 0 80 11.5t57 22.5l18 12l20 -20q-2 -4 -7 -11.5t-23 -25.5t-40.5 -32t-61.5 -25.5t-84 -11.5q-122 0 -197.5 70.5t-75.5 183.5t75.5 182.5t202.5 69.5q98 0 155.5 -40t57.5 -103q0 -15 -3 -26.5
t-6 -16.5l-3 -4q-47 -10 -126 -10l-10 10q11 17 11 57q0 44 -20.5 66.5t-56.5 22.5zM231 611q0 32 19.5 52t51.5 20t51.5 -20t19.5 -52t-19.5 -51.5t-51.5 -19.5t-51.5 20t-19.5 51z" />
    <glyph glyph-name="D.smcp" horiz-adv-x="598" 
d="M58 0v490h228q123 0 198.5 -67.5t75.5 -177.5t-75.5 -177.5t-198.5 -67.5h-228zM279 436h-81v-382h81q58 0 91.5 48t33.5 143t-33.5 143t-91.5 48z" />
    <glyph glyph-name="Dcaron.smcp" horiz-adv-x="598" 
d="M58 0v490h228q123 0 198.5 -67.5t75.5 -177.5t-75.5 -177.5t-198.5 -67.5h-228zM279 436h-81v-382h81q58 0 91.5 48t33.5 143t-33.5 143t-91.5 48zM443 712l9 -8l-142 -172h-37l-141 172l8 8h51l101 -84l100 84h51z" />
    <glyph glyph-name="Dcroat.smcp" horiz-adv-x="597" 
d="M18 222v54h40v214h228q122 0 198 -68t76 -177t-76 -177t-198 -68h-228v222h-40zM279 436h-81v-160h94v-54h-94v-168h81q58 0 91 48t33 143t-33 143t-91 48z" />
    <glyph glyph-name="Eth.smcp" horiz-adv-x="597" 
d="M18 222v54h40v214h228q122 0 198 -68t76 -177t-76 -177t-198 -68h-228v222h-40zM279 436h-81v-160h94v-54h-94v-168h81q58 0 91 48t33 143t-33 143t-91 48z" />
    <glyph glyph-name="Thorn.smcp" horiz-adv-x="516" 
d="M58 0v490h140v-92h65q103 0 161.5 -38.5t58.5 -107.5t-58.5 -107.5t-161.5 -38.5h-65v-106h-140zM241 345h-43v-186h43q45 0 70.5 23.5t25.5 69.5t-25.5 69.5t-70.5 23.5z" />
    <glyph glyph-name="E.smcp" horiz-adv-x="467" 
d="M58 0v490h361v-70l-10 -11q-41 27 -124 27h-87v-157h167l7 -7v-47h-174v-171h95q37 0 67.5 7t43.5 13l12 7l11 -10v-71h-369z" />
    <glyph glyph-name="Eacute.smcp" horiz-adv-x="467" 
d="M58 0v490h361v-70l-10 -11q-41 27 -124 27h-87v-157h167l7 -7v-47h-174v-171h95q37 0 67.5 7t43.5 13l12 7l11 -10v-71h-369zM175 535l-9 9l79 171q36 0 65 -5.5t40 -11.5l12 -5v-9l-143 -149h-44z" />
    <glyph glyph-name="Ebreve.smcp" horiz-adv-x="467" 
d="M58 0v490h361v-70l-10 -11q-41 27 -124 27h-87v-157h167l7 -7v-47h-174v-171h95q37 0 67.5 7t43.5 13l12 7l11 -10v-71h-369zM87 644l23 23q6 -6 16.5 -15t45 -24.5t70.5 -15.5t69 14t48 28l15 13l23 -23q-2 -4 -5 -11.5t-16 -26t-29 -32.5t-44 -25.5t-61 -11.5t-61 11
t-44.5 26.5t-28.5 31.5t-16 27z" />
    <glyph glyph-name="Ecaron.smcp" horiz-adv-x="467" 
d="M58 0v490h361v-70l-10 -11q-41 27 -124 27h-87v-157h167l7 -7v-47h-174v-171h95q37 0 67.5 7t43.5 13l12 7l11 -10v-71h-369zM393 712l9 -8l-142 -171h-37l-141 171l8 8h51l101 -84l100 84h51z" />
    <glyph glyph-name="Ecircumflex.smcp" horiz-adv-x="467" 
d="M58 0v490h361v-70l-10 -11q-41 27 -124 27h-87v-157h167l7 -7v-47h-174v-171h95q37 0 67.5 7t43.5 13l12 7l11 -10v-71h-369zM402 544l-9 -9h-51l-100 85l-101 -85h-51l-8 9l141 171h37z" />
    <glyph glyph-name="Edieresis.smcp" horiz-adv-x="467" 
d="M58 0v490h361v-70l-10 -11q-41 27 -124 27h-87v-157h167l7 -7v-47h-174v-171h95q37 0 67.5 7t43.5 13l12 7l11 -10v-71h-369zM286 604q0 28 18 45.5t47 17.5t46 -17.5t17 -45.5q0 -29 -17.5 -47t-45.5 -18q-29 0 -47 18t-18 47zM68 604q0 28 18 45.5t47 17.5t46 -17.5
t17 -45.5q0 -29 -17.5 -47t-45.5 -18q-29 0 -47 18t-18 47z" />
    <glyph glyph-name="Edotaccent.smcp" horiz-adv-x="467" 
d="M58 0v490h361v-70l-10 -11q-41 27 -124 27h-87v-157h167l7 -7v-47h-174v-171h95q37 0 67.5 7t43.5 13l12 7l11 -10v-71h-369zM171 611q0 32 19.5 52t51.5 20t51.5 -20t19.5 -52t-19.5 -51.5t-51.5 -19.5t-51.5 19.5t-19.5 51.5z" />
    <glyph glyph-name="Egrave.smcp" horiz-adv-x="467" 
d="M58 0v490h361v-70l-10 -11q-41 27 -124 27h-87v-157h167l7 -7v-47h-174v-171h95q37 0 67.5 7t43.5 13l12 7l11 -10v-71h-369zM317 544l-9 -9h-44l-143 149v9q36 22 117 22z" />
    <glyph glyph-name="Emacron.smcp" horiz-adv-x="467" 
d="M58 0v490h361v-70l-10 -11q-41 27 -124 27h-87v-157h167l7 -7v-47h-174v-171h95q37 0 67.5 7t43.5 13l12 7l11 -10v-71h-369zM106 565v63h271v-63h-271z" />
    <glyph glyph-name="Eogonek.smcp" horiz-adv-x="467" 
d="M58 0v490h361v-70l-10 -11q-41 27 -124 27h-87v-157h167l7 -7v-47h-174v-171h95q37 0 67.5 7t43.5 13l12 7l11 -10v-71h-43q-5 -5 -12 -15.5t-15.5 -32t-8.5 -42.5q0 -46 42 -46q8 0 15.5 2t10.5 4l4 1l22 -23q-2 -4 -7 -10t-24 -16.5t-43 -10.5q-38 0 -65.5 23.5
t-27.5 65.5q0 64 60 100h-277z" />
    <glyph glyph-name="F.smcp" horiz-adv-x="448" 
d="M58 0v490h358v-70l-10 -11q-40 27 -124 27h-84v-157h167l7 -7v-47h-174v-225h-140z" />
    <glyph glyph-name="G.smcp" horiz-adv-x="561" 
d="M337 193v46h49q37 0 69.5 2.5t46.5 5.5l14 3l10 -11v-169q-2 -3 -7 -8.5t-23.5 -19t-40 -23.5t-59 -18.5t-79.5 -8.5q-129 0 -204.5 70t-75.5 184t75.5 183t206.5 69q94 0 150.5 -36t56.5 -98q0 -15 -3 -26.5t-6 -15.5l-3 -4q-47 -10 -126 -10l-10 10q11 15 11 56
q0 80 -73 80q-57 0 -89.5 -49.5t-32.5 -144.5q0 -202 149 -202q31 0 56 7v49q0 36 -8 72h-46z" />
    <glyph glyph-name="Gbreve.smcp" horiz-adv-x="561" 
d="M337 193v46h49q37 0 69.5 2.5t46.5 5.5l14 3l10 -11v-169q-2 -3 -7 -8.5t-23.5 -19t-40 -23.5t-59 -18.5t-79.5 -8.5q-129 0 -204.5 70t-75.5 184t75.5 183t206.5 69q94 0 150.5 -36t56.5 -98q0 -15 -3 -26.5t-6 -15.5l-3 -4q-47 -10 -126 -10l-10 10q11 15 11 56
q0 80 -73 80q-57 0 -89.5 -49.5t-32.5 -144.5q0 -202 149 -202q31 0 56 7v49q0 36 -8 72h-46zM147 644l23 23q6 -6 16.5 -15t45 -24.5t70.5 -15.5t69.5 14t48.5 28l15 13l22 -23q-2 -4 -5 -11.5t-16 -26t-29 -32.5t-44 -25.5t-61 -11.5t-61 11t-44.5 26.5t-28.5 31.5t-16 27
z" />
    <glyph glyph-name="Gcircumflex.smcp" horiz-adv-x="561" 
d="M337 193v46h49q37 0 69.5 2.5t46.5 5.5l14 3l10 -11v-169q-2 -3 -7 -8.5t-23.5 -19t-40 -23.5t-59 -18.5t-79.5 -8.5q-129 0 -204.5 70t-75.5 184t75.5 183t206.5 69q94 0 150.5 -36t56.5 -98q0 -15 -3 -26.5t-6 -15.5l-3 -4q-47 -10 -126 -10l-10 10q11 15 11 56
q0 80 -73 80q-57 0 -89.5 -49.5t-32.5 -144.5q0 -202 149 -202q31 0 56 7v49q0 36 -8 72h-46zM462 544l-9 -9h-50l-101 85l-101 -85h-51l-8 9l141 171h37z" />
    <glyph glyph-name="Gcommaaccent.smcp" horiz-adv-x="561" 
d="M337 193v46h49q37 0 69.5 2.5t46.5 5.5l14 3l10 -11v-169q-2 -3 -7 -8.5t-23.5 -19t-40 -23.5t-59 -18.5t-79.5 -8.5q-129 0 -204.5 70t-75.5 184t75.5 183t206.5 69q94 0 150.5 -36t56.5 -98q0 -15 -3 -26.5t-6 -15.5l-3 -4q-47 -10 -126 -10l-10 10q11 15 11 56
q0 80 -73 80q-57 0 -89.5 -49.5t-32.5 -144.5q0 -202 149 -202q31 0 56 7v49q0 36 -8 72h-46zM251 -231l-15 15q40 51 40 125q0 17 -2.5 31.5t-5.5 21.5l-2 6l5 6q24 0 46.5 -3t32.5 -6l10 -3q5 -11 5 -34q0 -30 -11.5 -57.5t-28.5 -45.5t-34 -31t-29 -19z" />
    <glyph glyph-name="Gdotaccent.smcp" horiz-adv-x="561" 
d="M337 193v46h49q37 0 69.5 2.5t46.5 5.5l14 3l10 -11v-169q-2 -3 -7 -8.5t-23.5 -19t-40 -23.5t-59 -18.5t-79.5 -8.5q-129 0 -204.5 70t-75.5 184t75.5 183t206.5 69q94 0 150.5 -36t56.5 -98q0 -15 -3 -26.5t-6 -15.5l-3 -4q-47 -10 -126 -10l-10 10q11 15 11 56
q0 80 -73 80q-57 0 -89.5 -49.5t-32.5 -144.5q0 -202 149 -202q31 0 56 7v49q0 36 -8 72h-46zM231 611q0 32 19.5 52t51.5 20t51.5 -20t19.5 -52t-19.5 -51.5t-51.5 -19.5t-51.5 20t-19.5 51z" />
    <glyph glyph-name="H.smcp" horiz-adv-x="601" 
d="M403 0v225h-205v-225h-140v490h140v-211h205v211h140v-490h-140z" />
    <glyph glyph-name="Hbar.smcp" horiz-adv-x="600" 
d="M403 0v225h-205v-225h-140v351h-40v54h40v85h140v-85h205v85h140v-85h40v-54h-40v-351h-140zM198 351v-72h205v72h-205z" />
    <glyph glyph-name="Hcircumflex.smcp" horiz-adv-x="601" 
d="M403 0v225h-205v-225h-140v490h140v-211h205v211h140v-490h-140zM461 544l-9 -9h-51l-100 85l-101 -85h-51l-8 9l141 171h37z" />
    <glyph glyph-name="I.smcp" horiz-adv-x="256" 
d="M58 0v490h140v-490h-140z" />
    <glyph glyph-name="Iacute.smcp" horiz-adv-x="256" 
d="M58 0v490h140v-490h-140zM69 535l-9 9l78 171q36 0 65.5 -5.5t40.5 -11.5l11 -5v-9l-142 -149h-44z" />
    <glyph glyph-name="Ibreve.smcp" horiz-adv-x="256" 
d="M58 0v490h140v-490h-140zM-27 644l23 23q6 -6 16.5 -15t45 -24.5t70.5 -15.5t69.5 14t48.5 28l15 13l23 -23q-2 -4 -5 -11.5t-16 -26t-29 -32.5t-44.5 -25.5t-61.5 -11.5t-61 11t-44.5 26.5t-28.5 31.5t-16 27z" />
    <glyph glyph-name="Icircumflex.smcp" horiz-adv-x="256" 
d="M58 0v490h140v-490h-140zM288 544l-8 -9h-51l-101 85l-100 -85h-51l-9 9l142 171h37z" />
    <glyph glyph-name="Idieresis.smcp" horiz-adv-x="256" 
d="M58 0v490h140v-490h-140zM-45 604q0 29 18 46.5t47 17.5q28 0 46 -18t18 -46q0 -29 -17.5 -47t-46.5 -18t-47 18t-18 47zM173 604q0 29 18 46.5t47 17.5q28 0 45.5 -17.5t17.5 -46.5t-17.5 -47t-45.5 -18q-29 0 -47 18t-18 47z" />
    <glyph glyph-name="Idotaccent.smcp" horiz-adv-x="256" 
d="M58 0v490h140v-490h-140zM45 629q0 37 23.5 60.5t60.5 23.5q38 0 61 -23t23 -61t-23 -61t-61 -23t-61 23t-23 61z" />
    <glyph glyph-name="Igrave.smcp" horiz-adv-x="256" 
d="M58 0v490h140v-490h-140zM196 544l-8 -9h-44l-143 149v9q36 22 117 22z" />
    <glyph glyph-name="Imacron.smcp" horiz-adv-x="256" 
d="M58 0v490h140v-490h-140zM-8 565v63h272v-63h-272z" />
    <glyph glyph-name="Iogonek.smcp" horiz-adv-x="256" 
d="M58 0v490h140v-490h-36q-5 -5 -12 -14.5t-16 -31.5t-9 -44q0 -46 43 -46q8 0 15.5 2t10.5 4l3 1l23 -23q-2 -4 -7 -10t-24.5 -16.5t-43.5 -10.5q-38 0 -65.5 23.5t-27.5 65.5q0 28 14 52t25.5 33.5t21.5 14.5h-55z" />
    <glyph glyph-name="Itilde.smcp" horiz-adv-x="256" 
d="M58 0v490h140v-490h-140zM85 652q26 0 54.5 -18t49.5 -18q20 0 39.5 10t28.5 20l9 9l23 -23q-2 -4 -4.5 -10t-13.5 -22t-23 -28t-32.5 -22t-42.5 -10q-26 0 -55 18.5t-50 18.5q-20 0 -39.5 -10t-28.5 -20l-9 -10l-22 23q1 4 4 10t13.5 22t23 28t33 22t42.5 10z" />
    <glyph glyph-name="IJ.smcp" horiz-adv-x="503" 
d="M58 228v262h140v-262h-140zM243 36q62 0 62 114v340h140v-335q0 -75 -54.5 -119t-153.5 -44q-84 0 -135.5 30.5t-51.5 79.5q0 12 3 23t7 17l3 5q45 11 124 11l13 -11q-12 -21 -12 -51q0 -29 15 -44.5t40 -15.5z" />
    <glyph glyph-name="J.smcp" horiz-adv-x="404" 
d="M206 148v342h140v-337q0 -161 -188 -161q-45 0 -79.5 8.5t-46.5 17.5l-13 9q0 36 14.5 69t29.5 48l15 15h10q3 -14 8 -34.5t24.5 -54.5t42.5 -34q43 0 43 112z" />
    <glyph glyph-name="Jcircumflex.smcp" horiz-adv-x="404" 
d="M206 148v342h140v-337q0 -161 -188 -161q-45 0 -79.5 8.5t-46.5 17.5l-13 9q0 36 14.5 69t29.5 48l15 15h10q3 -14 8 -34.5t24.5 -54.5t42.5 -34q43 0 43 112zM439 545l-9 -9h-50l-101 85l-101 -85h-50l-9 9l142 171h37z" />
    <glyph glyph-name="K.smcp" horiz-adv-x="545" 
d="M58 0v490h140v-204h22l178 204h82l-162 -183l103 -168q24 -36 50.5 -68t40.5 -47l15 -14v-10h-169l-149 232h-11v-232h-140z" />
    <glyph glyph-name="Kcommaaccent.smcp" horiz-adv-x="545" 
d="M58 0v490h140v-204h22l178 204h82l-162 -183l103 -168q24 -36 50.5 -68t40.5 -47l15 -14v-10h-169l-149 232h-11v-232h-140zM223 -231l-15 15q40 51 40 125q0 17 -3 31.5t-5 21.5l-3 6l6 6q24 0 46 -3t32 -6l10 -3q5 -11 5 -34q0 -30 -11.5 -57.5t-28 -45.5t-33.5 -31
t-29 -19z" />
    <glyph glyph-name="L.smcp" horiz-adv-x="433" 
d="M58 0v490h140v-436h73q37 0 68 7t43 13l13 7l10 -10v-71h-347z" />
    <glyph glyph-name="Lacute.smcp" horiz-adv-x="433" 
d="M58 0v490h140v-436h73q37 0 68 7t43 13l13 7l10 -10v-71h-347zM62 535l-8 9l78 171q36 0 65 -5.5t41 -11.5l11 -5v-9l-143 -149h-44z" />
    <glyph glyph-name="Lcaron.smcp" horiz-adv-x="433" 
d="M58 0v490h140v-436h73q37 0 68 7t43 13l13 7l10 -10v-71h-347zM276 296l-15 15q40 51 40 125q0 17 -2.5 31.5t-4.5 20.5l-3 7l5 6q24 0 46 -3t32 -6l11 -3q5 -11 5 -34q0 -48 -28.5 -87.5t-57.5 -55.5z" />
    <glyph glyph-name="Lcommaaccent.smcp" horiz-adv-x="433" 
d="M58 0v490h140v-436h73q37 0 68 7t43 13l13 7l10 -10v-71h-347zM168 -231l-15 15q40 51 40 125q0 17 -2.5 31.5t-4.5 21.5l-3 6l5 6q24 0 46 -3t32 -6l11 -3q5 -11 5 -34q0 -30 -11.5 -57.5t-28.5 -45.5t-34 -31t-28 -19z" />
    <glyph glyph-name="Ldot.smcp" horiz-adv-x="433" 
d="M58 0v490h140v-436h73q37 0 68 7t43 13l13 7l10 -10v-71h-347zM273 247q0 29 17.5 46.5t46.5 17.5t46.5 -17.5t17.5 -46.5t-17.5 -46.5t-46.5 -17.5t-46.5 17.5t-17.5 46.5z" />
    <glyph glyph-name="Lslash.smcp" horiz-adv-x="450" 
d="M34 168l-21 35l62 36v251h140v-170l50 29l20 -35l-70 -41v-219h73q37 0 67.5 7t42.5 13l13 7l11 -10v-71h-347v192z" />
    <glyph glyph-name="M.smcp" horiz-adv-x="740" 
d="M553 0l-45 379l-3 3l-121 -368h-93l-17 18l-124 350l-4 -3l-35 -379h-66l36 365q3 35 2 60.5t-3 40.5l-3 14l11 10h171l110 -313l103 313h167l58 -490h-144z" />
    <glyph glyph-name="N.smcp" horiz-adv-x="555" 
d="M119 273v-273h-61v294q0 56 -6 102.5t-12 65.5l-6 18l11 10h47l338 -273v273h67v-490h-40z" />
    <glyph glyph-name="Nacute.smcp" horiz-adv-x="555" 
d="M119 273v-273h-61v294q0 56 -6 102.5t-12 65.5l-6 18l11 10h47l338 -273v273h67v-490h-40zM218 535l-9 9l78 171q36 0 65.5 -5.5t40.5 -11.5l11 -5v-9l-142 -149h-44z" />
    <glyph glyph-name="Ncaron.smcp" horiz-adv-x="555" 
d="M119 273v-273h-61v294q0 56 -6 102.5t-12 65.5l-6 18l11 10h47l338 -273v273h67v-490h-40zM429 712l9 -8l-142 -172h-37l-142 172l9 8h51l100 -84l101 84h51z" />
    <glyph glyph-name="Ncommaaccent.smcp" horiz-adv-x="555" 
d="M119 273v-273h-61v294q0 56 -6 102.5t-12 65.5l-6 18l11 10h47l338 -273v273h67v-490h-40zM228 -231l-15 15q40 51 40 125q0 17 -2.5 31.5t-5.5 21.5l-3 6l6 6q24 0 46 -3t32 -6l10 -3q5 -11 5 -34q0 -30 -11.5 -57.5t-28.5 -45.5t-33.5 -31t-27.5 -19z" />
    <glyph glyph-name="Ntilde.smcp" horiz-adv-x="555" 
d="M119 273v-273h-61v294q0 56 -6 102.5t-12 65.5l-6 18l11 10h47l338 -273v273h67v-490h-40zM233 652q26 0 55 -18t50 -18q20 0 39 10t28 20l9 9l23 -23q-1 -4 -4 -10t-13.5 -22t-23 -28t-33 -22t-42.5 -10q-26 0 -54.5 18.5t-49.5 18.5t-40 -10t-28 -20l-9 -10l-23 23
q2 4 4.5 10t13.5 22t23 28t32.5 22t42.5 10z" />
    <glyph glyph-name="Eng.smcp" horiz-adv-x="555" 
d="M119 273v-273h-61v294q0 56 -6 102.5t-12 65.5l-6 18l11 10h47l338 -273v273h67v-512q0 -161 -161 -161q-45 0 -79.5 8.5t-46.5 17.5l-13 9q0 36 14.5 69t29.5 48l15 15h10q3 -14 8 -34.5t24.5 -54.5t42.5 -34q43 0 43 112v86z" />
    <glyph glyph-name="O.smcp" horiz-adv-x="623" 
d="M37 245q0 113 76 183t198 70q123 0 199 -70t76 -183t-76 -183t-199 -70q-122 0 -198 70t-76 183zM194 245q0 -104 31.5 -156.5t85.5 -52.5q55 0 86.5 52.5t31.5 156.5t-31.5 156.5t-86.5 52.5q-54 0 -85.5 -52.5t-31.5 -156.5z" />
    <glyph glyph-name="Oacute.smcp" horiz-adv-x="623" 
d="M37 245q0 113 76 183t198 70q123 0 199 -70t76 -183t-76 -183t-199 -70q-122 0 -198 70t-76 183zM194 245q0 -104 31.5 -156.5t85.5 -52.5q55 0 86.5 52.5t31.5 156.5t-31.5 156.5t-86.5 52.5q-54 0 -85.5 -52.5t-31.5 -156.5zM252 535l-8 9l78 171q36 0 65 -5.5
t41 -11.5l11 -5v-9l-143 -149h-44z" />
    <glyph glyph-name="Obreve.smcp" horiz-adv-x="623" 
d="M37 245q0 113 76 183t198 70q123 0 199 -70t76 -183t-76 -183t-199 -70q-122 0 -198 70t-76 183zM194 245q0 -104 31.5 -156.5t85.5 -52.5q55 0 86.5 52.5t31.5 156.5t-31.5 156.5t-86.5 52.5q-54 0 -85.5 -52.5t-31.5 -156.5zM156 644l23 23q6 -6 16.5 -15t45 -24.5
t70.5 -15.5t69.5 14t48.5 28l15 13l22 -23q-2 -4 -5 -11.5t-16 -26t-29 -32.5t-44 -25.5t-61 -11.5t-61 11t-44.5 26.5t-28.5 31.5t-17 27z" />
    <glyph glyph-name="Ocircumflex.smcp" horiz-adv-x="623" 
d="M37 245q0 113 76 183t198 70q123 0 199 -70t76 -183t-76 -183t-199 -70q-122 0 -198 70t-76 183zM194 245q0 -104 31.5 -156.5t85.5 -52.5q55 0 86.5 52.5t31.5 156.5t-31.5 156.5t-86.5 52.5q-54 0 -85.5 -52.5t-31.5 -156.5zM472 544l-9 -9h-51l-100 85l-101 -85h-51
l-8 9l141 171h37z" />
    <glyph glyph-name="Odieresis.smcp" horiz-adv-x="623" 
d="M37 245q0 113 76 183t198 70q123 0 199 -70t76 -183t-76 -183t-199 -70q-122 0 -198 70t-76 183zM194 245q0 -104 31.5 -156.5t85.5 -52.5q55 0 86.5 52.5t31.5 156.5t-31.5 156.5t-86.5 52.5q-54 0 -85.5 -52.5t-31.5 -156.5zM139 604q0 29 17.5 46.5t46.5 17.5
t46.5 -17.5t17.5 -46.5t-17.5 -47t-46.5 -18t-46.5 18t-17.5 47zM356 604q0 29 18 46.5t47 17.5q28 0 45.5 -17.5t17.5 -46.5t-17.5 -47t-45.5 -18q-29 0 -47 18t-18 47z" />
    <glyph glyph-name="Ograve.smcp" horiz-adv-x="623" 
d="M37 245q0 113 76 183t198 70q123 0 199 -70t76 -183t-76 -183t-199 -70q-122 0 -198 70t-76 183zM194 245q0 -104 31.5 -156.5t85.5 -52.5q55 0 86.5 52.5t31.5 156.5t-31.5 156.5t-86.5 52.5q-54 0 -85.5 -52.5t-31.5 -156.5zM379 544l-9 -9h-44l-142 149v9
q35 22 117 22z" />
    <glyph glyph-name="Ohungarumlaut.smcp" horiz-adv-x="623" 
d="M37 245q0 113 76 183t198 70q123 0 199 -70t76 -183t-76 -183t-199 -70q-122 0 -198 70t-76 183zM194 245q0 -104 31.5 -156.5t85.5 -52.5q55 0 86.5 52.5t31.5 156.5t-31.5 156.5t-86.5 52.5q-54 0 -85.5 -52.5t-31.5 -156.5zM161 535l-9 9l75 171q36 0 65 -5.5
t40 -11.5l12 -5v-9l-139 -149h-44zM338 535l-8 9l90 171q36 0 64 -5.5t38 -11.5l10 -5v-9l-150 -149h-44z" />
    <glyph glyph-name="Omacron.smcp" horiz-adv-x="623" 
d="M37 245q0 113 76 183t198 70q123 0 199 -70t76 -183t-76 -183t-199 -70q-122 0 -198 70t-76 183zM194 245q0 -104 31.5 -156.5t85.5 -52.5q55 0 86.5 52.5t31.5 156.5t-31.5 156.5t-86.5 52.5q-54 0 -85.5 -52.5t-31.5 -156.5zM176 565v63h271v-63h-271z" />
    <glyph glyph-name="Oslash.smcp" horiz-adv-x="623" 
d="M181 -18h-63l32 52q-54 33 -83.5 87.5t-29.5 123.5q0 113 76 183t198 70q59 0 113 -19l18 29h63l-33 -53q54 -33 84 -87.5t30 -122.5q0 -113 -76 -183t-199 -70q-59 0 -113 19zM191 245q0 -73 15 -119l181 292q-30 36 -76 36q-55 0 -87.5 -52.5t-32.5 -156.5zM431 245
q0 68 -16 118l-180 -292q29 -35 76 -35q56 0 88 52.5t32 156.5z" />
    <glyph glyph-name="Oslashacute.smcp" horiz-adv-x="623" 
d="M181 -18h-63l32 52q-54 33 -83.5 87.5t-29.5 123.5q0 113 76 183t198 70q59 0 113 -19l18 29h63l-33 -53q54 -33 84 -87.5t30 -122.5q0 -113 -76 -183t-199 -70q-59 0 -113 19zM191 245q0 -73 15 -119l181 292q-30 36 -76 36q-55 0 -87.5 -52.5t-32.5 -156.5zM431 245
q0 68 -16 118l-180 -292q29 -35 76 -35q56 0 88 52.5t32 156.5zM245 535l-9 9l79 171q36 0 65 -5.5t40 -11.5l12 -5v-9l-143 -149h-44z" />
    <glyph glyph-name="Otilde.smcp" horiz-adv-x="623" 
d="M37 245q0 113 76 183t198 70q123 0 199 -70t76 -183t-76 -183t-199 -70q-122 0 -198 70t-76 183zM194 245q0 -104 31.5 -156.5t85.5 -52.5q55 0 86.5 52.5t31.5 156.5t-31.5 156.5t-86.5 52.5q-54 0 -85.5 -52.5t-31.5 -156.5zM267 652q26 0 55 -18t50 -18q20 0 39.5 10
t28.5 20l9 9l22 -23q-1 -4 -4 -10t-13.5 -22t-23 -28t-33 -22t-42.5 -10q-26 0 -54.5 18.5t-49.5 18.5q-20 0 -39.5 -10t-28.5 -20l-9 -10l-23 23q2 4 4.5 10t13.5 22t23 28t32.5 22t42.5 10z" />
    <glyph glyph-name="OE.smcp" horiz-adv-x="797" 
d="M396 0v9q-42 -17 -94 -17q-113 0 -189 71t-76 182t75.5 182t188.5 71q51 0 95 -19v11h353v-70l-10 -11q-41 27 -124 27h-79v-157h158l8 -7v-47h-166v-171h86q37 0 68 7t44 13l12 7l10 -10v-71h-360zM311 36q55 0 85 64v289q-30 65 -85 65q-54 0 -85.5 -52.5t-31.5 -156.5
t31.5 -156.5t85.5 -52.5z" />
    <glyph glyph-name="P.smcp" horiz-adv-x="516" 
d="M58 0v490h206q102 0 160.5 -38.5t58.5 -107.5q0 -70 -58.5 -108.5t-160.5 -38.5h-66v-197h-140zM242 436h-44v-185h44q45 0 70 23.5t25 69.5q0 45 -25 68.5t-70 23.5z" />
    <glyph glyph-name="Q.smcp" horiz-adv-x="623" 
d="M37 244q0 114 76 184t198 70q123 0 199 -70t76 -184q0 -82 -41.5 -143.5t-113.5 -90.5q9 -3 28 -9t29.5 -9t27.5 -6t33 -3q18 0 31 3t17 6l4 3l6 -7q0 -32 -4 -61t-8 -41l-4 -13q-12 -7 -37 -7q-43 0 -84.5 29.5t-80 60.5t-72.5 33h-6q-122 0 -198 70.5t-76 184.5z
M194 244q0 -105 31.5 -158t85.5 -53q55 0 86.5 52.5t31.5 158.5q0 105 -31.5 157.5t-86.5 52.5q-54 0 -85.5 -52.5t-31.5 -157.5z" />
    <glyph glyph-name="R.smcp" horiz-adv-x="532" 
d="M58 0v490h201q102 0 161 -36.5t59 -102.5q0 -90 -101 -123l55 -103q19 -33 39.5 -62.5t31.5 -42.5l12 -13l-6 -7h-152l-113 211h-47v-211h-140zM237 436h-39v-171h39q45 0 70 22t25 64t-25 63.5t-70 21.5z" />
    <glyph glyph-name="Racute.smcp" horiz-adv-x="532" 
d="M58 0v490h201q102 0 161 -36.5t59 -102.5q0 -90 -101 -123l55 -103q19 -33 39.5 -62.5t31.5 -42.5l12 -13l-6 -7h-152l-113 211h-47v-211h-140zM237 436h-39v-171h39q45 0 70 22t25 64t-25 63.5t-70 21.5zM192 535l-8 9l78 171q36 0 65 -5.5t41 -11.5l11 -5v-9l-143 -149
h-44z" />
    <glyph glyph-name="Rcaron.smcp" horiz-adv-x="532" 
d="M58 0v490h201q102 0 161 -36.5t59 -102.5q0 -90 -101 -123l55 -103q19 -33 39.5 -62.5t31.5 -42.5l12 -13l-6 -7h-152l-113 211h-47v-211h-140zM411 712l8 -8l-141 -172h-37l-142 172l9 8h51l100 -84l101 84h51zM237 436h-39v-171h39q45 0 70 22t25 64t-25 63.5t-70 21.5
z" />
    <glyph glyph-name="Rcommaaccent.smcp" horiz-adv-x="532" 
d="M58 0v490h201q102 0 161 -36.5t59 -102.5q0 -90 -101 -123l55 -103q19 -33 39.5 -62.5t31.5 -42.5l12 -13l-6 -7h-152l-113 211h-47v-211h-140zM237 436h-39v-171h39q45 0 70 22t25 64t-25 63.5t-70 21.5zM219 -231l-15 15q40 51 40 125q0 17 -2.5 31.5t-5.5 21.5l-2 6
l5 6q24 0 46.5 -3t32.5 -6l10 -3q5 -11 5 -34q0 -30 -11.5 -57.5t-28.5 -45.5t-34 -31t-29 -19z" />
    <glyph glyph-name="S.smcp" horiz-adv-x="489" 
d="M224 454q-56 0 -56 -41q0 -21 21.5 -39.5t103.5 -74.5q103 -74 131 -102.5t28 -70.5q0 -134 -206 -134q-68 0 -120.5 14t-71.5 28l-18 14q0 35 15 64t31 40l15 12h14q3 -5 7.5 -13.5t20.5 -31t32.5 -39t41 -30.5t48.5 -14q30 0 47.5 13t17.5 32q0 22 -26 43t-94 62l-15 9
q-80 48 -112 81.5t-32 85.5q0 136 202 136q57 0 102.5 -11t62.5 -21l17 -11q0 -36 -15.5 -66t-31.5 -42l-15 -12h-13q-2 5 -6 13t-17.5 28.5t-27.5 36t-36.5 28.5t-44.5 13z" />
    <glyph glyph-name="Sacute.smcp" horiz-adv-x="489" 
d="M224 454q-56 0 -56 -41q0 -21 21.5 -39.5t103.5 -74.5q103 -74 131 -102.5t28 -70.5q0 -134 -206 -134q-68 0 -120.5 14t-71.5 28l-18 14q0 35 15 64t31 40l15 12h14q3 -5 7.5 -13.5t20.5 -31t32.5 -39t41 -30.5t48.5 -14q30 0 47.5 13t17.5 32q0 22 -26 43t-94 62l-15 9
q-80 48 -112 81.5t-32 85.5q0 136 202 136q57 0 102.5 -11t62.5 -21l17 -11q0 -36 -15.5 -66t-31.5 -42l-15 -12h-13q-2 5 -6 13t-17.5 28.5t-27.5 36t-36.5 28.5t-44.5 13zM177 535l-8 9l78 171q36 0 65 -5.5t40 -11.5l12 -5v-9l-143 -149h-44z" />
    <glyph glyph-name="Scaron.smcp" horiz-adv-x="489" 
d="M224 454q-56 0 -56 -41q0 -21 21.5 -39.5t103.5 -74.5q103 -74 131 -102.5t28 -70.5q0 -134 -206 -134q-68 0 -120.5 14t-71.5 28l-18 14q0 35 15 64t31 40l15 12h14q3 -5 7.5 -13.5t20.5 -31t32.5 -39t41 -30.5t48.5 -14q30 0 47.5 13t17.5 32q0 22 -26 43t-94 62l-15 9
q-80 48 -112 81.5t-32 85.5q0 136 202 136q57 0 102.5 -11t62.5 -21l17 -11q0 -36 -15.5 -66t-31.5 -42l-15 -12h-13q-2 5 -6 13t-17.5 28.5t-27.5 36t-36.5 28.5t-44.5 13zM395 712l9 -8l-142 -172h-37l-141 172l8 8h51l101 -84l100 84h51z" />
    <glyph glyph-name="Scedilla.smcp" horiz-adv-x="489" 
d="M210 -75l11 68q-60 2 -106 16t-63 27l-16 12q0 35 15 64t31 40l15 12h14q3 -5 7.5 -13.5t20.5 -31t32.5 -39t41 -30.5t48.5 -14q30 0 47.5 13t17.5 32q0 22 -26 43t-94 62l-15 9q-80 48 -112 81.5t-32 85.5q0 136 202 136q57 0 102.5 -11t62.5 -21l17 -11
q0 -36 -15.5 -66t-31.5 -42l-15 -12h-13q-2 5 -6 13t-17.5 28.5t-27.5 36t-36.5 28.5t-44.5 13q-56 0 -56 -41q0 -21 21.5 -39.5t103.5 -74.5q103 -74 131 -102.5t28 -70.5q0 -126 -185 -133l-6 -40q30 0 52 -20t22 -52q0 -33 -24 -54t-64 -21q-27 0 -48.5 11t-29.5 21
l-8 11l19 19q15 -17 43 -17q40 0 40 33t-44 33z" />
    <glyph glyph-name="Scircumflex.smcp" horiz-adv-x="489" 
d="M224 454q-56 0 -56 -41q0 -21 21.5 -39.5t103.5 -74.5q103 -74 131 -102.5t28 -70.5q0 -134 -206 -134q-68 0 -120.5 14t-71.5 28l-18 14q0 35 15 64t31 40l15 12h14q3 -5 7.5 -13.5t20.5 -31t32.5 -39t41 -30.5t48.5 -14q30 0 47.5 13t17.5 32q0 22 -26 43t-94 62l-15 9
q-80 48 -112 81.5t-32 85.5q0 136 202 136q57 0 102.5 -11t62.5 -21l17 -11q0 -36 -15.5 -66t-31.5 -42l-15 -12h-13q-2 5 -6 13t-17.5 28.5t-27.5 36t-36.5 28.5t-44.5 13zM404 558l-9 -9h-51l-100 85l-101 -85h-51l-8 9l141 171h37z" />
    <glyph glyph-name="Scommaaccent.smcp" horiz-adv-x="489" 
d="M224 454q-56 0 -56 -41q0 -21 21.5 -39.5t103.5 -74.5q103 -74 131 -102.5t28 -70.5q0 -134 -206 -134q-68 0 -120.5 14t-71.5 28l-18 14q0 35 15 64t31 40l15 12h14q3 -5 7.5 -13.5t20.5 -31t32.5 -39t41 -30.5t48.5 -14q30 0 47.5 13t17.5 32q0 22 -26 43t-94 62l-15 9
q-80 48 -112 81.5t-32 85.5q0 136 202 136q57 0 102.5 -11t62.5 -21l17 -11q0 -36 -15.5 -66t-31.5 -42l-15 -12h-13q-2 5 -6 13t-17.5 28.5t-27.5 36t-36.5 28.5t-44.5 13zM190 -231l-15 15q40 51 40 125q0 17 -2.5 31.5t-4.5 21.5l-3 6l5 6q24 0 46.5 -3t32.5 -6l10 -3
q5 -11 5 -34q0 -30 -11.5 -57.5t-28.5 -45.5t-34 -31t-28 -19z" />
    <glyph glyph-name="T.smcp" horiz-adv-x="536" 
d="M338 436v-436h-140v436h-36q-37 0 -68 -7t-44 -13l-12 -7l-11 11v70h482v-70l-10 -11q-40 27 -124 27h-37z" />
    <glyph glyph-name="Tbar.smcp" horiz-adv-x="536" 
d="M118 230v53h80v153h-36q-37 0 -68 -7t-44 -13l-12 -7l-11 11v70h482v-70l-10 -11q-40 27 -124 27h-37v-153h80v-53h-80v-230h-140v230h-80z" />
    <glyph glyph-name="Tcaron.smcp" horiz-adv-x="536" 
d="M338 436v-436h-140v436h-36q-37 0 -68 -7t-44 -13l-12 -7l-11 11v70h482v-70l-10 -11q-40 27 -124 27h-37zM420 711l8 -8l-141 -171h-37l-142 171l9 8h51l100 -84l101 84h51z" />
    <glyph glyph-name="Tcommaaccent.smcp" horiz-adv-x="536" 
d="M338 436v-436h-140v436h-36q-37 0 -68 -7t-44 -13l-12 -7l-11 11v70h482v-70l-10 -11q-40 27 -124 27h-37zM216 -231l-14 15q40 51 40 125q0 17 -3 31.5t-5 21.5l-3 6l6 6q24 0 46 -3t32 -6l10 -3q5 -11 5 -34q0 -30 -11.5 -57.5t-28.5 -45.5t-34 -31t-28 -19z" />
    <glyph glyph-name="uni021A.smcp" horiz-adv-x="536" 
d="M338 436v-436h-140v436h-36q-37 0 -68 -7t-44 -13l-12 -7l-11 11v70h482v-70l-10 -11q-40 27 -124 27h-37zM216 -231l-14 15q40 51 40 125q0 17 -3 31.5t-5 21.5l-3 6l6 6q24 0 46 -3t32 -6l10 -3q5 -11 5 -34q0 -30 -11.5 -57.5t-28.5 -45.5t-34 -31t-28 -19z" />
    <glyph glyph-name="U.smcp" horiz-adv-x="555" 
d="M437 176v314h61v-312q0 -85 -58 -135.5t-163 -50.5q-104 0 -162 50.5t-58 135.5v312h140v-334q0 -50 32 -79t84 -29q57 0 90.5 33.5t33.5 94.5z" />
    <glyph glyph-name="Uacute.smcp" horiz-adv-x="555" 
d="M437 176v314h61v-312q0 -85 -58 -135.5t-163 -50.5q-104 0 -162 50.5t-58 135.5v312h140v-334q0 -50 32 -79t84 -29q57 0 90.5 33.5t33.5 94.5zM225 535l-9 9l79 171q36 0 65 -5.5t40 -11.5l12 -5v-9l-143 -149h-44z" />
    <glyph glyph-name="Ubreve.smcp" horiz-adv-x="555" 
d="M437 176v314h61v-312q0 -85 -58 -135.5t-163 -50.5q-104 0 -162 50.5t-58 135.5v312h140v-334q0 -50 32 -79t84 -29q57 0 90.5 33.5t33.5 94.5zM130 644l23 23q6 -6 16.5 -15t45 -24.5t70.5 -15.5t69 14t48 28l15 13l23 -23q-2 -4 -5 -11.5t-16 -26t-29 -32.5t-44 -25.5
t-61 -11.5t-61 11t-44.5 26.5t-28.5 31.5t-17 27z" />
    <glyph glyph-name="Ucircumflex.smcp" horiz-adv-x="555" 
d="M437 176v314h61v-312q0 -85 -58 -135.5t-163 -50.5q-104 0 -162 50.5t-58 135.5v312h140v-334q0 -50 32 -79t84 -29q57 0 90.5 33.5t33.5 94.5zM444 544l-8 -9h-51l-101 85l-100 -85h-51l-9 9l142 171h37z" />
    <glyph glyph-name="Udieresis.smcp" horiz-adv-x="555" 
d="M437 176v314h61v-312q0 -85 -58 -135.5t-163 -50.5q-104 0 -162 50.5t-58 135.5v312h140v-334q0 -50 32 -79t84 -29q57 0 90.5 33.5t33.5 94.5zM111 604q0 29 18 46.5t47 17.5q28 0 45.5 -17.5t17.5 -46.5t-17.5 -47t-45.5 -18q-29 0 -47 18t-18 47zM329 604
q0 29 17.5 46.5t46.5 17.5t46.5 -17.5t17.5 -46.5t-17.5 -47t-46.5 -18t-46.5 18t-17.5 47z" />
    <glyph glyph-name="Ugrave.smcp" horiz-adv-x="555" 
d="M437 176v314h61v-312q0 -85 -58 -135.5t-163 -50.5q-104 0 -162 50.5t-58 135.5v312h140v-334q0 -50 32 -79t84 -29q57 0 90.5 33.5t33.5 94.5zM352 544l-9 -9h-44l-143 149v9q36 22 117 22z" />
    <glyph glyph-name="Uhungarumlaut.smcp" horiz-adv-x="555" 
d="M437 176v314h61v-312q0 -85 -58 -135.5t-163 -50.5q-104 0 -162 50.5t-58 135.5v312h140v-334q0 -50 32 -79t84 -29q57 0 90.5 33.5t33.5 94.5zM133 535l-9 9l75 171q36 0 65 -5.5t40 -11.5l12 -5v-9l-139 -149h-44zM311 535l-9 9l90 171q36 0 64 -5.5t38 -11.5l10 -5v-9
l-150 -149h-43z" />
    <glyph glyph-name="Umacron.smcp" horiz-adv-x="555" 
d="M437 176v314h61v-312q0 -85 -58 -135.5t-163 -50.5q-104 0 -162 50.5t-58 135.5v312h140v-334q0 -50 32 -79t84 -29q57 0 90.5 33.5t33.5 94.5zM148 565v63h272v-63h-272z" />
    <glyph glyph-name="Uogonek.smcp" horiz-adv-x="555" 
d="M437 176v314h61v-312q0 -69 -39 -116t-111 -63q-10 -10 -22.5 -35t-12.5 -54q0 -46 43 -46q8 0 15 2t11 4l3 1l22 -23q-2 -4 -7 -10t-24 -16.5t-43 -10.5q-38 0 -65.5 23.5t-27.5 65.5q0 56 49 92h-12q-104 0 -162 50.5t-58 135.5v312h140v-334q0 -50 32 -79t84 -29
q57 0 90.5 33.5t33.5 94.5z" />
    <glyph glyph-name="Uring.smcp" horiz-adv-x="555" 
d="M437 176v314h61v-312q0 -85 -58 -135.5t-163 -50.5q-104 0 -162 50.5t-58 135.5v312h140v-334q0 -50 32 -79t84 -29q57 0 90.5 33.5t33.5 94.5zM193 621q0 41 25.5 66.5t66.5 25.5t66.5 -25.5t25.5 -66.5t-25.5 -66.5t-66.5 -25.5t-66.5 25.5t-25.5 66.5zM249 621
q0 -17 10 -27t26 -10t26 10.5t10 26.5t-10 26.5t-26 10.5t-26 -10.5t-10 -26.5z" />
    <glyph glyph-name="Utilde.smcp" horiz-adv-x="555" 
d="M437 176v314h61v-312q0 -85 -58 -135.5t-163 -50.5q-104 0 -162 50.5t-58 135.5v312h140v-334q0 -50 32 -79t84 -29q57 0 90.5 33.5t33.5 94.5zM240 652q26 0 55 -18t50 -18q20 0 39 10t28 20l9 9l23 -23q-1 -4 -4 -10t-13.5 -22t-23 -28t-33 -22t-42.5 -10
q-26 0 -54.5 18.5t-49.5 18.5t-40 -10t-28 -20l-9 -10l-23 23q2 4 4.5 10t13.5 22t23 28t32.5 22t42.5 10z" />
    <glyph glyph-name="V.smcp" horiz-adv-x="558" 
d="M229 18l-150 347q-15 34 -30.5 63t-23.5 40l-8 12v10h160l155 -362l141 362h67l-195 -490h-98z" />
    <glyph glyph-name="W.smcp" horiz-adv-x="832" 
d="M525 18l-94 257l-93 -275h-103l-18 18l-140 347q-14 34 -29 62.5t-23 40.5l-8 11v11h157l145 -359l78 238q-12 33 -25.5 60.5t-20.5 38.5l-7 11v11h158l126 -352l120 352h67l-171 -490h-100z" />
    <glyph glyph-name="Wacute.smcp" horiz-adv-x="832" 
d="M525 18l-94 257l-93 -275h-103l-18 18l-140 347q-14 34 -29 62.5t-23 40.5l-8 11v11h157l145 -359l78 238q-12 33 -25.5 60.5t-20.5 38.5l-7 11v11h158l126 -352l120 352h67l-171 -490h-100zM365 535l-8 9l78 171q36 0 65 -5.5t40 -11.5l12 -5v-9l-143 -149h-44z" />
    </font>
</defs>
</svg>
