<?xml version="1.0" standalone="no"?>
<!DOCTYPE svg PUBLIC "-//W3C//DTD SVG 1.1//EN" "http://www.w3.org/Graphics/SVG/1.1/DTD/svg11.dtd" >
<svg xmlns="http://www.w3.org/2000/svg" xmlns:xlink="http://www.w3.org/1999/xlink" version="1.1">
<metadata>
Created by FontForge 20170731 at Sat Dec 31 14:07:05 2016
 By Aleksey,,,
Copyright (c) 2017 by Andriy Konstantynov. All rights reserved.
</metadata>
<defs>
<font id="OrchideaPro-Black" horiz-adv-x="590" >
  <font-face 
    font-family="Orchidea Pro Bk"
    font-weight="900"
    font-stretch="normal"
    units-per-em="1000"
    panose-1="2 11 0 3 6 2 0 0 0 3"
    ascent="800"
    descent="-200"
    x-height="480"
    cap-height="700"
    bbox="-81 -265 1252 984"
    underline-thickness="50"
    underline-position="-250"
    unicode-range="U+0020-FB04"
  />
<missing-glyph horiz-adv-x="220" 
 />
    <glyph glyph-name="ff" unicode="ff" horiz-adv-x="724" 
d="M274 410v-410h-198v412h-71v50l71 23v102q0 85 43 131.5t127 46.5q48 0 85.5 -15.5t50.5 -30.5l14 -15l-28 -28q-14 12 -38 12q-56 0 -56 -86v-122h121v97q0 91 44.5 139.5t131.5 48.5q50 0 88.5 -15.5t52.5 -30.5l14 -15l-28 -28q-15 12 -41 12q-64 0 -64 -96v-112h121
v-70h-121v-410h-198v410h-121z" />
    <glyph glyph-name="fi" unicode="fi" horiz-adv-x="634" 
d="M274 542v-62h96q55 0 106 4t74 8l23 3l15 -15v-480h-198v300q0 56 -14 110h-102v-410h-198v412h-71v50l71 23v28q0 113 76 181t211 68q96 0 154.5 -34.5t58.5 -96.5q0 -15 -3 -29.5t-7 -21.5l-3 -6q-60 -15 -167 -15l-15 15q11 27 11 63q0 65 -46 65q-35 0 -53.5 -44
t-18.5 -116z" />
    <glyph glyph-name="fl" unicode="fl" horiz-adv-x="639" 
d="M395 0v450q0 130 -21 229q-14 9 -36 9q-64 0 -64 -96v-112h70v-70h-70v-410h-198v412h-71v50l71 23v91q0 97 46 143t145 46q30 0 57 -3.5t39 -7.5l12 -4q55 0 106 4t74 8l23 3l15 -15v-750h-198z" />
    <glyph glyph-name="ffi" unicode="ffi" horiz-adv-x="954" 
d="M710 0v300q0 56 -14 110h-103v-410h-198v410h-121v-410h-198v412h-71v50l71 23v102q0 85 43 131.5t127 46.5q48 0 85.5 -15.5t50.5 -30.5l14 -15l-28 -28q-14 12 -38 12q-56 0 -56 -86v-122h121v33q0 112 76 180.5t212 68.5q96 0 154.5 -34.5t58.5 -96.5
q0 -15 -3.5 -29.5t-6.5 -21.5l-4 -6q-59 -15 -166 -15l-15 15q11 27 11 63q0 65 -46 65q-36 0 -54.5 -44t-18.5 -116v-62h97q55 0 106 4t74 8l23 3l15 -15v-480h-198z" />
    <glyph glyph-name="ffl" unicode="ffl" horiz-adv-x="959" 
d="M274 410v-410h-198v412h-71v50l71 23v102q0 85 43 131.5t127 46.5q48 0 85.5 -15.5t50.5 -30.5l14 -15l-28 -28q-14 12 -38 12q-56 0 -56 -86v-122h121v96q0 97 46.5 143t145.5 46q30 0 57 -3.5t39 -7.5l12 -4q55 0 106 4t74 8l23 3l15 -15v-750h-198v450q0 130 -21 229
q-14 9 -37 9q-64 0 -64 -96v-112h71v-70h-71v-410h-198v410h-121z" />
    <glyph glyph-name="f_f_j" unicode="ffj" horiz-adv-x="954" 
d="M710 -20v320q0 56 -14 110h-103v-410h-198v410h-121v-410h-198v412h-71v50l71 23v102q0 85 43 131.5t127 46.5q48 0 85.5 -15.5t50.5 -30.5l14 -15l-28 -28q-14 12 -38 12q-56 0 -56 -86v-122h121v33q0 112 76 180.5t212 68.5q96 0 154.5 -34.5t58.5 -96.5
q0 -15 -3.5 -29.5t-6.5 -21.5l-4 -6q-59 -15 -166 -15l-15 15q11 27 11 63q0 65 -46 65q-36 0 -54.5 -44t-18.5 -116v-62h97q55 0 106 4t74 8l23 3l15 -15v-431q0 -62 -26.5 -117t-64 -89.5t-75 -60t-64.5 -36.5l-26 -11l-28 28q3 4 9 11t21 29.5t26 46.5t20.5 59.5
t9.5 70.5z" />
    <glyph glyph-name="f_j" unicode="fj" horiz-adv-x="634" 
d="M390 -20v320q0 56 -14 110h-102v-410h-198v412h-71v50l71 23v28q0 113 76 181t211 68q96 0 154.5 -34.5t58.5 -96.5q0 -15 -3 -29.5t-7 -21.5l-3 -6q-60 -15 -167 -15l-15 15q11 27 11 63q0 65 -46 65q-35 0 -53.5 -44t-18.5 -116v-62h96q55 0 106 4t74 8l23 3l15 -15
v-431q0 -62 -26.5 -117t-64 -89.5t-74.5 -60t-63 -36.5l-27 -11l-28 28q3 4 9 11t20.5 29.5t26 46.5t20.5 59.5t9 70.5z" />
    <glyph glyph-name="afii10104_afii10104" unicode="&#x457;&#x457;" horiz-adv-x="589" 
d="M51 0v300q0 49 -8.5 90t-17.5 58l-9 17l15 15q55 0 106 4t74 8l23 3l15 -15v-480h-198zM-34 628q0 36 22.5 58t59.5 22t58.5 -22t21.5 -58q0 -38 -21.5 -60.5t-58.5 -22.5t-59.5 22.5t-22.5 60.5zM213 628q0 36 23 58t60 22q36 0 58 -22t22 -58q0 -37 -22 -60t-58 -23
q-38 0 -60.5 22.5t-22.5 60.5zM345 0v300q0 49 -8.5 90t-16.5 58l-9 17l15 15q55 0 105.5 4t74.5 8l23 3l15 -15v-480h-199zM461 628q0 36 22.5 58t59.5 22t59 -22t22 -58q0 -38 -22 -60.5t-59 -22.5t-59.5 23t-22.5 60z" />
    <glyph glyph-name=".notdef" horiz-adv-x="220" 
 />
    <glyph glyph-name=".null" horiz-adv-x="0" 
 />
    <glyph glyph-name="nonmarkingreturn" horiz-adv-x="333" 
 />
    <glyph glyph-name="space" unicode=" " horiz-adv-x="220" 
 />
    <glyph glyph-name="exclam" unicode="!" horiz-adv-x="268" 
d="M32 89q0 46 27.5 74t73.5 28t74 -28t28 -74q0 -45 -28 -73t-74 -28t-73.5 28t-27.5 73zM60 239l-30 461h208l-30 -461h-148z" />
    <glyph glyph-name="quotedbl" unicode="&#x22;" horiz-adv-x="340" 
d="M55 490l-19 210h119l-20 -220h-70zM205 490l-20 210h119l-20 -220h-69z" />
    <glyph glyph-name="numbersign" unicode="#" horiz-adv-x="617" 
d="M52 440v80h119l19 180h81l-19 -180h148l19 180h81l-19 -180h111v-80h-119l-19 -180h111v-80h-119l-19 -180h-81l19 180h-148l-19 -180h-81l19 180h-111v80h119l19 180h-111zM244 440l-19 -180h148l19 180h-148z" />
    <glyph glyph-name="dollar" unicode="$" horiz-adv-x="621" 
d="M273 647q-27 0 -42.5 -14.5t-15.5 -39.5q0 -28 28 -54.5t138 -109.5q136 -103 175 -146t39 -105q0 -176 -246 -189v-89h-79v89q-78 4 -139 24t-83 37l-22 18q0 36 10.5 70t25.5 57.5t30 42t26 26.5l10 9h20l5 -12.5t13 -30.5t21 -44t28.5 -46t35.5 -43.5t41.5 -31
t46.5 -12.5q31 0 50 17.5t19 42.5q0 32 -38.5 64.5t-139.5 97.5q-106 68 -149.5 118t-43.5 124q0 178 233 194v89h79v-89q67 -4 120 -19t73 -28l20 -14q0 -36 -10.5 -71t-26 -58.5t-30.5 -42t-25 -27.5l-11 -9h-18q-2 8 -7 22t-21.5 49.5t-34.5 62.5t-46.5 49t-58.5 22z" />
    <glyph glyph-name="percent" unicode="%" horiz-adv-x="868" 
d="M264 0h-92l432 700h92zM20 515q0 88 52.5 142.5t137.5 54.5t137.5 -54.5t52.5 -142.5t-52.5 -142.5t-137.5 -54.5t-137.5 54.5t-52.5 142.5zM169 514q0 -131 41 -131t41 131q0 132 -41 132t-41 -132zM468 185q0 88 52.5 142.5t137.5 54.5t137.5 -54.5t52.5 -142.5
t-52.5 -142.5t-137.5 -54.5t-137.5 54.5t-52.5 142.5zM617 184q0 -131 41 -131t41 131q0 132 -41 132t-41 -132z" />
    <glyph glyph-name="ampersand" unicode="&#x26;" horiz-adv-x="850" 
d="M550 385h184l15 -15q0 -126 -115 -238q51 -40 85 -40q15 0 38.5 8t38.5 16l16 7l28 -27q-4 -4 -10 -11.5t-26 -26t-39.5 -33t-48 -26t-53.5 -11.5q-60 0 -151 56q-109 -56 -235 -56t-191 55.5t-65 138.5q0 40 15 75t40 59.5t48.5 40.5t49.5 28q-52 87 -52 149
q0 73 71.5 125.5t202.5 52.5q118 0 179 -44t61 -117q0 -20 -4.5 -39.5t-9.5 -28.5l-4 -9q-66 -15 -185 -15l-15 15q23 35 23 90q0 40 -15.5 61.5t-40.5 21.5q-22 0 -34.5 -16.5t-12.5 -40.5q0 -57 60 -163.5t139 -199.5q13 70 13 158zM457 81q-126 93 -225 220
q-7 -26 -7 -53q0 -82 52 -131.5t120 -49.5q35 0 60 14z" />
    <glyph glyph-name="quotesingle" unicode="'" horiz-adv-x="190" 
d="M55 490l-19 210h119l-20 -220h-70z" />
    <glyph glyph-name="parenleft" unicode="(" horiz-adv-x="354" 
d="M344 -110l-50 -50q-11 5 -29 15.5t-64 50t-81.5 87.5t-64.5 130.5t-29 176.5q0 69 15 131.5t38.5 107.5t52 83.5t57 63t52 42t38.5 24.5l15 8l50 -50q-5 -5 -13 -15.5t-28.5 -47.5t-36.5 -80.5t-29 -115.5t-13 -151t12.5 -150.5t30 -116.5t35 -79t30.5 -49z" />
    <glyph glyph-name="parenright" unicode=")" horiz-adv-x="354" 
d="M60 -160l-50 50q5 5 13 15.5t29 47.5t37 80.5t29 115.5t13 151t-12.5 150.5t-30.5 116.5t-35.5 79t-30.5 49l-12 15l50 50q11 -5 29 -15t64.5 -49.5t82 -87.5t64.5 -130.5t29 -177.5q0 -68 -15 -130.5t-38.5 -107.5t-52.5 -83.5t-57.5 -63.5t-52 -42.5t-38.5 -24.5z" />
    <glyph glyph-name="asterisk" unicode="*" horiz-adv-x="412" 
d="M171 565l-20 135h110l-20 -135l122 61l34 -104l-134 -24l96 -97l-89 -64l-64 121l-64 -121l-88 64l95 97l-134 24l34 104z" />
    <glyph glyph-name="plus" unicode="+" 
d="M95 285v80h160v160h80v-160h160v-80h-160v-160h-80v160h-160z" />
    <glyph glyph-name="comma" unicode="," horiz-adv-x="254" 
d="M25 -183l-28 28q7 10 17 28t27 72.5t17 107.5q0 32 -5 61t-11 42l-5 13l10 10q48 0 88.5 -6t56.5 -12l17 -6q10 -23 10 -64q0 -51 -20 -98t-48.5 -78t-57 -54t-48.5 -33z" />
    <glyph glyph-name="hyphen" unicode="-" horiz-adv-x="320" 
d="M45 235v80h230v-80h-230z" />
    <glyph glyph-name="period" unicode="." horiz-adv-x="254" 
d="M25 89q0 46 28 74t74 28t74 -28t28 -74q0 -45 -28 -73t-74 -28t-74 28t-28 73z" />
    <glyph glyph-name="slash" unicode="/" horiz-adv-x="421" 
d="M90 -150h-85l326 900h85z" />
    <glyph glyph-name="zero" unicode="0" horiz-adv-x="670" 
d="M31 350q0 162 84 262t220 100t220 -100t84 -262t-84 -262t-220 -100t-220 100t-84 262zM249 350q0 -149 23 -223t63 -74t63 74t23 223t-23 223t-63 74t-63 -74t-23 -223z" />
    <glyph glyph-name="one" unicode="1" horiz-adv-x="489" 
d="M196 0v546q-74 -30 -155 -30q-11 20 -11 74l10 10q65 0 132.5 25t102.5 50l35 25h84v-700h-198z" />
    <glyph glyph-name="two" unicode="2" horiz-adv-x="595" 
d="M572 527q0 -44 -19 -87.5t-49.5 -79t-68 -68t-74.5 -56t-67.5 -41.5t-49.5 -27l-19 -9h167q49 0 90 9.5t58 19.5l17 10l15 -15v-183h-554v94q14 10 37 27.5t81.5 70.5t103.5 105t81.5 122.5t36.5 131.5q0 45 -18.5 70.5t-50.5 25.5q-71 0 -71 -112q0 -24 3.5 -43t6.5 -26
l4 -7l-15 -15q-52 0 -98.5 4t-66.5 8l-21 3q-13 19 -13 62q0 87 70.5 139t204.5 52q131 0 205 -47t74 -138z" />
    <glyph glyph-name="three" unicode="3" horiz-adv-x="627" 
d="M299 53q87 0 87 135q0 67 -24.5 97t-80.5 30h-39l-9 10v80h31q55 0 78 29.5t23 98.5q0 61 -16 87.5t-49 26.5q-35 0 -55 -26.5t-20 -80.5q0 -22 3.5 -40t7.5 -24l3 -7l-15 -15q-52 0 -98.5 4t-67.5 8l-20 3q-13 20 -13 59q0 83 72.5 133.5t208.5 50.5q130 0 201 -48.5
t71 -139.5q0 -122 -134 -162q160 -34 160 -173q0 -99 -79.5 -150t-219.5 -51q-145 0 -216 51.5t-71 136.5q0 19 3.5 34.5t6.5 21.5l4 6q70 15 186 15l15 -15q-15 -22 -15 -75q0 -110 81 -110z" />
    <glyph glyph-name="four" unicode="4" horiz-adv-x="610" 
d="M15 127v40l400 533h99v-493h76v-80h-76v-127h-198v127h-301zM144 207h172v228z" />
    <glyph glyph-name="five" unicode="5" horiz-adv-x="605" 
d="M287 53q40 0 61.5 37.5t21.5 107.5q0 86 -33.5 118t-107.5 32q-44 0 -83 -8.5t-56 -17.5l-17 -8l-14 14l45 360h231q49 0 90 10t58 20l17 10l15 -15v-183h-341l-15 -120q68 34 159 34q125 0 197.5 -64t72.5 -171t-75.5 -164t-219.5 -57q-138 0 -206.5 49.5t-68.5 130.5
q0 19 3.5 34t6.5 20l4 6q70 15 186 15l15 -15q-15 -20 -15 -73q0 -102 69 -102z" />
    <glyph glyph-name="six" unicode="6" horiz-adv-x="665" 
d="M340 647q-88 0 -91 -270q44 39 133 39q108 0 180 -57.5t72 -149.5q0 -100 -84 -160.5t-205 -60.5q-151 0 -232.5 97.5t-81.5 266.5q0 77 18 140.5t54 113.5t97.5 78t142.5 28q110 0 187.5 -48t77.5 -129q0 -16 -3 -30t-7 -20l-3 -6q-70 -15 -185 -15l-15 15q14 21 14 66
q0 51 -20 76.5t-49 25.5zM327 351q-45 0 -77 -56q7 -242 87 -242q34 0 56.5 39.5t22.5 109.5q0 73 -25 111t-64 38z" />
    <glyph glyph-name="seven" unicode="7" horiz-adv-x="568" 
d="M343 0h-198q0 101 28.5 193.5t68.5 153t80.5 106.5t69.5 67l28 21h-215q-49 0 -90 -9.5t-58 -19.5l-17 -10l-15 15v183h520v-84l-1 -1q-12 -17 -25 -35.5t-48.5 -83.5t-60.5 -130.5t-46 -166t-21 -199.5z" />
    <glyph glyph-name="eight" unicode="8" horiz-adv-x="634" 
d="M574 536q0 -101 -110 -160q65 -39 102 -85t37 -111q0 -85 -69 -138.5t-216 -53.5q-148 0 -220 53.5t-72 133.5q0 106 122 168q-99 69 -99 173q0 90 68 143t200 53q131 0 194 -50.5t63 -125.5zM412 137q0 21 -10 40t-21 31t-39 29t-41 24t-50 25q-37 -42 -37 -103
q0 -55 30.5 -92.5t81.5 -37.5q41 0 63.5 24.5t22.5 59.5zM303 647q-31 0 -48 -17.5t-17 -49.5q0 -46 32 -79t93 -68q32 43 32 102q0 52 -26 82t-66 30z" />
    <glyph glyph-name="nine" unicode="9" horiz-adv-x="656" 
d="M309 53q47 0 71.5 66t26.5 213q-48 -44 -135 -44q-99 0 -170 54t-71 148q0 102 82 162t203 60q149 0 229 -97t80 -264q0 -79 -18.5 -143.5t-56.5 -114.5t-100.5 -77.5t-144.5 -27.5q-113 0 -192.5 48t-79.5 129q0 16 3 30t6 20l3 6q71 14 187 14l15 -14q-14 -21 -14 -66
q0 -51 22 -76.5t54 -25.5zM331 354q43 0 75 50q-7 243 -84 243q-32 0 -52.5 -39t-20.5 -110q0 -73 22.5 -108.5t59.5 -35.5z" />
    <glyph glyph-name="colon" unicode=":" horiz-adv-x="254" 
d="M25 89q0 46 28 74t74 28t74 -28t28 -74q0 -45 -28 -73t-74 -28t-74 28t-28 73zM25 390q0 46 28 74t74 28t74 -28t28 -74t-28 -74t-74 -28t-74 28t-28 74z" />
    <glyph glyph-name="semicolon" unicode=";" horiz-adv-x="254" 
d="M25 380q0 46 28 74t74 28t74 -28t28 -74t-28 -73.5t-74 -27.5t-74 27.5t-28 73.5zM25 -183l-28 28q7 10 17 28t27 72.5t17 107.5q0 32 -5 61t-11 42l-5 13l10 10q48 0 88.5 -6t56.5 -12l17 -6q10 -23 10 -64q0 -51 -20 -98t-48.5 -78t-57 -54t-48.5 -33z" />
    <glyph glyph-name="less" unicode="&#x3c;" 
d="M495 523v-86l-304 -112l304 -112v-86l-420 155v86z" />
    <glyph glyph-name="equal" unicode="=" 
d="M95 375v80h400v-80h-400zM95 195v80h400v-80h-400z" />
    <glyph glyph-name="greater" unicode="&#x3e;" 
d="M95 437v86l420 -155v-86l-420 -155v86l304 112z" />
    <glyph glyph-name="question" unicode="?" horiz-adv-x="575" 
d="M175 89q0 46 28 74t73 28q46 0 74 -27.5t28 -74.5q0 -45 -28 -73t-74 -28q-45 0 -73 28t-28 73zM554 528q0 -34 -11 -65t-28.5 -53.5t-39 -41.5t-42.5 -31t-38.5 -21t-28.5 -12l-11 -4l-4 -61h-148l-8 141q6 1 16 2.5t35 13t44 28t35 50t16 77.5q0 46 -16 71t-44 25
q-27 0 -43.5 -25.5t-16.5 -76.5q0 -24 3.5 -41.5t7.5 -23.5l3 -6l-15 -15q-52 0 -98.5 3.5t-67.5 7.5l-21 4q-13 18 -13 58q0 82 68 131t198 49q126 0 197 -47.5t71 -136.5z" />
    <glyph glyph-name="at" unicode="@" horiz-adv-x="1122" 
d="M1088 324q0 -157 -94.5 -246.5t-253.5 -89.5q-81 0 -109 25t-17 81l1 6l-4 5q-3 -5 -8.5 -13t-24.5 -28t-39.5 -35.5t-51 -28t-61.5 -12.5q-63 0 -98.5 50t-35.5 131q0 139 102 231t271 92q61 0 106 -13t59 -25l14 -13l-46 -289q-13 -85 29 -85q46 0 74.5 74t28.5 176
q0 161 -77 238.5t-216 77.5q-104 0 -190.5 -42t-142 -112t-86 -158t-30.5 -183q0 -308 323 -308q55 0 110 9t94 22t70.5 25.5t46.5 21.5l16 9l24 -29q-5 -6 -16 -16t-48 -36t-80 -46t-113 -36t-145 -16q-204 0 -321.5 107.5t-117.5 291.5q0 115 48 220t130 183.5t198.5 125
t247.5 46.5q206 0 319.5 -108t113.5 -280zM614 235l27 174q-3 21 -24 21q-40 0 -76 -87.5t-36 -182.5q0 -59 16 -59q13 0 36 33.5t40 67.5z" />
    <glyph glyph-name="A" unicode="A" horiz-adv-x="721" 
d="M173 171l-62 -171h-101l238 628l-35 57v15h227l271 -700h-214l-66 171h-258zM299 515l-97 -266h199z" />
    <glyph glyph-name="B" unicode="B" horiz-adv-x="680" 
d="M56 0v700h283q285 0 285 -175q0 -120 -133 -158q166 -36 166 -177q0 -190 -302 -190h-299zM439 202q0 123 -115 123h-60v-246h60q115 0 115 123zM411 512q0 109 -105 109h-42v-216h42q105 0 105 107z" />
    <glyph glyph-name="C" unicode="C" horiz-adv-x="714" 
d="M402 647q-63 0 -101 -71.5t-38 -202.5q0 -142 48 -204.5t147 -62.5q54 0 104.5 16t73.5 32l24 17l30 -30q-3 -6 -9 -16.5t-30.5 -37t-54.5 -46.5t-83.5 -36.5t-115.5 -16.5q-163 0 -264.5 100.5t-101.5 262.5t102 261.5t272 99.5q131 0 209.5 -57.5t78.5 -147.5
q0 -21 -4.5 -38t-8.5 -23l-5 -7q-70 -15 -186 -15l-15 15q15 24 15 83q0 62 -23.5 93.5t-63.5 31.5z" />
    <glyph glyph-name="D" unicode="D" horiz-adv-x="767" 
d="M56 0v700h311q166 0 268 -97t102 -253t-102 -253t-268 -97h-311zM357 621h-93v-542h93q68 0 107.5 68t39.5 203t-39.5 203t-107.5 68z" />
    <glyph glyph-name="E" unicode="E" 
d="M56 0v700h489v-104l-15 -15q-6 4 -18.5 11t-55 18t-91.5 11h-101v-221h206l10 -10v-70h-216v-241h111q49 0 90 10t58 20l17 10l15 -15v-104h-499z" />
    <glyph glyph-name="F" unicode="F" horiz-adv-x="565" 
d="M56 0v700h484v-104l-15 -15q-6 4 -18.5 11t-55 18t-91.5 11h-96v-221h209l10 -10v-70h-219v-320h-208z" />
    <glyph glyph-name="G" unicode="G" horiz-adv-x="714" 
d="M426 273v70h56q55 0 103.5 3.5t68.5 7.5l21 4l15 -15v-242q-3 -5 -9.5 -12.5t-31 -27t-54 -34.5t-80.5 -27t-108 -12q-173 0 -274.5 99.5t-101.5 263.5q0 163 101.5 262t277.5 99q127 0 203.5 -52t76.5 -140q0 -21 -4 -37.5t-8 -22.5l-5 -6q-71 -15 -187 -15l-15 15
q16 22 16 81q0 112 -81 112q-66 0 -104.5 -70.5t-38.5 -203.5q0 -287 185 -287q27 0 54 6v71q0 52 -11 100h-55z" />
    <glyph glyph-name="H" unicode="H" horiz-adv-x="770" 
d="M507 0v320h-243v-320h-208v700h208v-300h243v300h208v-700h-208z" />
    <glyph glyph-name="I" unicode="I" horiz-adv-x="320" 
d="M56 0v700h208v-700h-208z" />
    <glyph glyph-name="J" unicode="J" horiz-adv-x="508" 
d="M244 212v488h209v-481q0 -231 -260 -231q-61 0 -107.5 12.5t-63.5 25.5l-16 12q0 34 9 66t22 54.5t26 40t22 25.5l9 9h13q1 -7 3.5 -19.5t11.5 -43.5t19 -54.5t26.5 -43t33.5 -19.5q22 0 32.5 34.5t10.5 124.5z" />
    <glyph glyph-name="K" unicode="K" horiz-adv-x="706" 
d="M56 0v700h208v-290h20l230 290h119l-204 -253l138 -249q28 -51 61.5 -96.5t53.5 -65.5l19 -21v-15h-250l-183 330h-4v-330h-208z" />
    <glyph glyph-name="L" unicode="L" horiz-adv-x="545" 
d="M56 0v700h208v-621h81q49 0 90 10t58 20l17 10l15 -15v-104h-469z" />
    <glyph glyph-name="M" unicode="M" horiz-adv-x="965" 
d="M711 0l-54 536l-5 5l-150 -521h-137l-26 26l-154 495l-5 -5l-41 -536h-97l46 520q3 50 1.5 86.5t-5.5 57.5l-4 21l15 15h253l131 -421l124 421h249l74 -700h-215z" />
    <glyph glyph-name="N" unicode="N" horiz-adv-x="701" 
d="M145 378v-378h-89v420q0 80 -9 146t-17 92l-9 27l15 15h69l441 -378v378h99v-700h-59z" />
    <glyph glyph-name="O" unicode="O" horiz-adv-x="800" 
d="M31 350q0 162 102 262t267 100q166 0 268 -100.5t102 -261.5t-102 -261.5t-268 -100.5q-165 0 -267 100t-102 262zM263 350q0 -148 36.5 -222.5t100.5 -74.5t100.5 74.5t36.5 222.5t-36.5 222.5t-100.5 74.5t-100.5 -74.5t-36.5 -222.5z" />
    <glyph glyph-name="P" unicode="P" horiz-adv-x="665" 
d="M56 0v700h282q141 0 221 -55t80 -155t-80 -155t-221 -55h-74v-280h-208zM305 621h-41v-261h41q56 0 86 33t30 97t-30 97.5t-86 33.5z" />
    <glyph glyph-name="Q" unicode="Q" horiz-adv-x="800" 
d="M400 -16q-166 0 -267.5 100.5t-101.5 263.5t101.5 263.5t267.5 100.5t268 -100.5t102 -263.5q0 -117 -54.5 -204t-151.5 -129q8 -3 28.5 -10t31 -10t27 -7.5t32 -6.5t32.5 -2q25 0 42.5 4t22.5 8l6 4l9 -10q0 -48 -6 -90.5t-12 -60.5l-6 -19q-15 -10 -48 -10
q-47 0 -93 28t-78 61.5t-73 61.5t-79 28zM263 348q0 -150 36.5 -224.5t100.5 -74.5t100.5 74.5t36.5 224.5t-36.5 224.5t-100.5 74.5t-100.5 -74.5t-36.5 -224.5z" />
    <glyph glyph-name="R" unicode="R" horiz-adv-x="687" 
d="M56 0v700h277q140 0 220.5 -52.5t80.5 -147.5q0 -122 -130 -173l72 -147q23 -48 50.5 -90.5t43.5 -61.5l16 -18l-9 -10h-226l-142 300h-45v-300h-208zM300 621h-36v-241h36q56 0 86 30.5t30 89.5t-30.5 90t-85.5 31z" />
    <glyph glyph-name="S" unicode="S" horiz-adv-x="621" 
d="M277 647q-26 0 -41.5 -14.5t-15.5 -39.5q0 -29 28 -57t134 -107q135 -102 174 -145.5t39 -105.5q0 -190 -281 -190q-59 0 -110 8t-82 20t-54 24t-32 20l-10 8q0 36 10.5 70t25.5 57.5t30 42t26 26.5l10 9h20l5 -12.5t13 -30.5t21 -44t28.5 -46t35.5 -43.5t41.5 -31
t46.5 -12.5q31 0 50 17.5t19 42.5q0 32 -38.5 65t-138.5 97q-104 67 -146.5 117t-42.5 125q0 94 69 144.5t207 50.5q78 0 140.5 -15.5t85.5 -30.5l23 -16q0 -36 -10.5 -71t-26 -58.5t-31 -42t-25.5 -27.5l-11 -9h-17q-2 8 -7 22t-21.5 49.5t-34.5 62.5t-47 49t-59 22z" />
    <glyph glyph-name="T" unicode="T" horiz-adv-x="690" 
d="M449 621v-621h-208v621h-41q-49 0 -90 -10t-58 -20l-17 -10l-15 15v104h650v-104l-15 -15q-6 4 -18.5 11t-55 18t-91.5 11h-41z" />
    <glyph glyph-name="U" unicode="U" horiz-adv-x="707" 
d="M562 251v449h89v-446q0 -122 -78 -194t-220 -72q-141 0 -219 72t-78 194v446h208v-480q0 -69 39.5 -109t104.5 -40q70 0 112 47t42 133z" />
    <glyph glyph-name="V" unicode="V" horiz-adv-x="717" 
d="M285 26l-196 494q-20 49 -41 90t-32 58l-11 17v15h238l194 -498l175 498h100l-255 -700h-147z" />
    <glyph glyph-name="W" unicode="W" horiz-adv-x="1085" 
d="M682 26l-117 346l-116 -372h-153l-25 26l-184 494q-18 49 -38.5 90t-32.5 58l-11 16v16h234l182 -494l95 314q-16 49 -34.5 90t-29.5 58l-10 16v16h235l157 -480l147 480h98l-222 -700h-150z" />
    <glyph glyph-name="X" unicode="X" horiz-adv-x="722" 
d="M255 700l149 -232l161 232h118l-228 -311l122 -189q32 -49 66.5 -95.5t53.5 -68.5l19 -21v-15h-249l-166 253l-182 -253h-109l239 332l-240 368h246z" />
    <glyph glyph-name="Y" unicode="Y" horiz-adv-x="697" 
d="M692 700l-227 -368v-332h-208v315l-107 173q-33 54 -69 103t-56 71l-20 22v16h257l161 -260l160 260h109z" />
    <glyph glyph-name="Z" unicode="Z" horiz-adv-x="659" 
d="M31 35l335 586h-151q-49 0 -90 -10t-58 -20l-17 -10l-14 15v104h594v-35l-335 -586h158q49 0 90 10t58 20l17 10l15 -15v-104h-602v35z" />
    <glyph glyph-name="bracketleft" unicode="[" horiz-adv-x="335" 
d="M46 -150v900h279v-79h-81v-742h81v-79h-279z" />
    <glyph glyph-name="backslash" unicode="\" horiz-adv-x="421" 
d="M416 -150h-85l-326 900h85z" />
    <glyph glyph-name="bracketright" unicode="]" horiz-adv-x="335" 
d="M289 750v-900h-279v79h81v742h-81v79h279z" />
    <glyph glyph-name="asciicircum" unicode="^" horiz-adv-x="485" 
d="M460 461l-10 -10h-95l-112 110l-113 -110h-95l-10 10l194 239h48z" />
    <glyph glyph-name="underscore" unicode="_" horiz-adv-x="500" 
d="M0 -129v79h500v-79h-500z" />
    <glyph glyph-name="grave" unicode="`" horiz-adv-x="326" 
d="M275 560l-10 -10h-55l-160 160v10q48 29 156 29z" />
    <glyph glyph-name="a" unicode="a" horiz-adv-x="567" 
d="M276 492q230 0 230 -146v-231q0 -39 30 -39q6 0 11.5 1.5t7.5 2.5l2 2l28 -27q-2 -3 -6 -7.5t-19 -16t-32 -20.5t-45 -16t-59 -7q-90 0 -111 60q-64 -60 -158 -60q-64 0 -98 33.5t-34 96.5q0 61 47 93.5t181 51.5l57 8v116q0 45 -39 45q-44 0 -44 -59q0 -16 2.5 -30.5
t5.5 -20.5l3 -7l-15 -15q-45 0 -85 4t-58 8l-18 3q-13 20 -13 52q0 60 59.5 92.5t169.5 32.5zM228 144q0 -52 44 -52q10 0 19 3t13 6l4 3v101l-34 -5q-46 -6 -46 -56z" />
    <glyph glyph-name="b" unicode="b" horiz-adv-x="580" 
d="M11 735l15 15q55 0 106 4t74 8l23 3l15 -15v-258l-5 -47l5 -5q6 6 17 14.5t46 23t72 14.5q83 0 132 -64.5t49 -179.5q0 -128 -69 -194t-220 -66q-68 0 -124 12.5t-79 25.5l-22 13v411q0 84 -9 155.5t-17 100.5zM337 223q0 163 -61 163q-8 0 -16 -2t-12 -4l-4 -3v-306
q9 -21 33 -21q60 0 60 173z" />
    <glyph glyph-name="c" unicode="c" horiz-adv-x="528" 
d="M482 124l28 -28q-2 -4 -7 -11.5t-23.5 -26t-41.5 -33t-63.5 -26t-86.5 -11.5q-120 0 -193.5 69.5t-73.5 184.5q0 113 74 181.5t206 68.5q94 0 151 -34.5t57 -96.5q0 -15 -3.5 -29.5t-7.5 -21.5l-3 -6q-56 -15 -157 -15l-15 15q11 26 11 64q0 64 -35 64q-28 0 -42 -44
t-14 -117q0 -103 28.5 -143.5t88.5 -40.5q32 0 62.5 9.5t45.5 18.5z" />
    <glyph glyph-name="d" unicode="d" horiz-adv-x="585" 
d="M302 735l15 15q55 0 106 4t74 8l23 3l15 -15v-450q0 -84 8.5 -155.5t16.5 -100.5l9 -29l-15 -15q-55 0 -105.5 -3.5t-74.5 -7.5l-23 -4l-15 15l5 32l-5 5q-6 -5 -16.5 -13.5t-46 -22t-72.5 -13.5q-84 0 -132 62t-48 172q0 128 66 199t184 71q31 0 64 -7q-2 74 -10 136.5
t-15 88.5zM243 258q0 -164 63 -164q7 0 14.5 2t11.5 4l4 1v293q-1 17 -11 26.5t-23 9.5q-59 0 -59 -172z" />
    <glyph glyph-name="e" unicode="e" horiz-adv-x="538" 
d="M482 124l28 -28q-2 -4 -7 -11.5t-23.5 -26t-41.5 -33t-63.5 -26t-86.5 -11.5q-120 0 -193.5 69.5t-73.5 185.5q0 115 74.5 182t212.5 67q204 0 204 -156q0 -20 -3 -39t-6 -29l-3 -9l-15 -15h-242q4 -87 32 -122t86 -35q32 0 62.5 9.5t44.5 18.5zM302 432q-51 0 -58 -126
l85 8q5 25 5 52q0 66 -32 66z" />
    <glyph glyph-name="f" unicode="f" horiz-adv-x="404" 
d="M5 412v50l71 23v92q0 91 44.5 139.5t131.5 48.5q49 0 87.5 -15.5t52.5 -30.5l14 -15l-28 -28q-15 12 -41 12q-63 0 -63 -96v-112h120v-70h-120v-410h-198v412h-71z" />
    <glyph glyph-name="g" unicode="g" horiz-adv-x="579" 
d="M165 -49l15 -15q-16 -26 -16 -58q0 -68 118 -68q128 0 128 73q0 23 -11 37.5t-33.5 21.5t-41.5 9t-50 3q-35 1 -52 2t-49.5 4t-49.5 8t-40.5 14.5t-35.5 22.5t-21 32.5t-9 44.5q0 76 68 136q-58 43 -58 112q0 72 65.5 117t173.5 45q89 0 149 -31q66 87 147 87
q15 -50 15 -142l-15 -15q-18 13 -51 13q-10 0 -26 -2q21 -32 21 -72q0 -72 -65.5 -117t-174.5 -45q-62 0 -110 15q-4 -8 -4 -23q0 -17 8 -27.5t29.5 -15t39.5 -6t55 -1.5q52 -1 84.5 -2.5t67.5 -6.5t54.5 -13.5t37 -23t24.5 -36t7 -51.5q0 -108 -92 -173t-248 -65
q-107 0 -168 34t-61 105q0 17 3.5 31.5t6.5 20.5l4 6q60 15 161 15zM225 330q0 -103 41 -103t41 103q0 102 -41 102t-41 -102z" />
    <glyph glyph-name="h" unicode="h" horiz-adv-x="576" 
d="M46 0v450q0 84 -9 155.5t-17 100.5l-9 29l15 15q55 0 106 4t74 8l23 3l15 -15v-263l-5 -47l5 -5q7 6 20 15.5t53.5 25.5t80.5 16q68 0 100 -39t32 -97v-356h-198v336q0 50 -50 50q-9 0 -18.5 -2t-14.5 -4l-5 -1v-379h-198z" />
    <glyph glyph-name="i" unicode="i" horiz-adv-x="295" 
d="M51 0v300q0 49 -9 90t-18 58l-9 17l15 15q55 0 106 4t74 8l24 3l15 -15v-480h-198zM28 640q0 51 31 82.5t83 31.5q51 0 82.5 -31.5t31.5 -82.5q0 -52 -31.5 -83t-82.5 -31q-52 0 -83 31t-31 83z" />
    <glyph glyph-name="j" unicode="j" horiz-adv-x="295" 
d="M51 -20v320q0 49 -8.5 90t-17.5 58l-9 17l15 15q55 0 106 4t74 8l23 3l15 -15v-431q0 -62 -26.5 -117t-64 -89.5t-75 -60t-63.5 -36.5l-27 -11l-28 28q3 4 9 11t21 29.5t26 46.5t20.5 59.5t9.5 70.5zM28 640q0 51 31 82.5t83 31.5q51 0 82.5 -31.5t31.5 -82.5
q0 -52 -31.5 -83t-82.5 -31q-52 0 -83 31t-31 83z" />
    <glyph glyph-name="k" unicode="k" horiz-adv-x="580" 
d="M46 0v450q0 84 -9 155.5t-17 100.5l-9 29l15 15q55 0 106 4t74 8l23 3l15 -15v-440l21 3l14 17q36 41 57 76t24 50l3 14l9 10h154l-127 -153l61 -127q24 -50 53 -95t45 -65l17 -20v-20q-55 0 -106.5 -2.5t-75.5 -5.5l-24 -2l-125 231v-221h-198z" />
    <glyph glyph-name="l" unicode="l" horiz-adv-x="290" 
d="M46 0v450q0 84 -9 155.5t-17 100.5l-9 29l15 15q55 0 106 4t74 8l23 3l15 -15v-750h-198z" />
    <glyph glyph-name="m" unicode="m" horiz-adv-x="850" 
d="M328 0v336q0 50 -46 50q-8 0 -16.5 -2t-12.5 -4l-4 -1v-379h-198v300q0 49 -8.5 90t-17.5 58l-9 17l15 15q55 0 106 4t74 8l23 3l15 -15l-5 -40l5 -5q6 6 17.5 15.5t49.5 25.5t78 16q82 0 115 -61q76 61 163 61q67 0 99.5 -39.5t32.5 -96.5v-356h-198v336q0 50 -45 50
q-16 0 -37 -7q2 -16 2 -23v-356h-198z" />
    <glyph glyph-name="n" unicode="n" horiz-adv-x="581" 
d="M337 0v336q0 50 -50 50q-9 0 -18.5 -2t-14.5 -4l-5 -1v-379h-198v300q0 49 -8.5 90t-17.5 58l-9 17l15 15q55 0 106 4t74 8l23 3l15 -15l-5 -40l5 -5q7 6 20 15.5t53.5 25.5t80.5 16q68 0 100 -39t32 -97v-356h-198z" />
    <glyph glyph-name="o" unicode="o" horiz-adv-x="580" 
d="M21 240q0 113 74 182.5t195 69.5t195.5 -69.5t74.5 -182.5t-74.5 -182.5t-195.5 -69.5t-195 69.5t-74 182.5zM243 240q0 -192 47 -192t47 192t-47 192t-47 -192z" />
    <glyph glyph-name="p" unicode="p" horiz-adv-x="585" 
d="M249 -250h-198v450q0 84 -8.5 150.5t-17.5 90.5l-9 24l15 15q55 0 106 4t74 8l23 3l15 -15l-5 -35l5 -5q6 6 16.5 14.5t45.5 23t72 14.5q83 0 132.5 -63.5t49.5 -173.5q0 -126 -66.5 -196.5t-184.5 -70.5q-32 0 -65 7v-245zM342 223q0 91 -15.5 127t-45.5 36q-8 0 -16 -2
t-12 -4l-4 -3v-292q1 -17 10.5 -26t23.5 -9q59 0 59 173z" />
    <glyph glyph-name="q" unicode="q" horiz-adv-x="580" 
d="M336 -250v238l5 47l-5 5q-6 -6 -17 -14.5t-46 -23t-71 -14.5q-83 0 -132 63.5t-49 178.5q0 129 69 195.5t219 66.5q68 0 124.5 -13.5t78.5 -26.5l23 -14v-688h-199zM243 255q0 -90 15.5 -125.5t46.5 -35.5q8 0 15.5 2t11.5 4l4 3v303q-8 24 -33 24q-60 0 -60 -175z" />
    <glyph glyph-name="r" unicode="r" horiz-adv-x="432" 
d="M403 492q15 -68 15 -163l-15 -15q-15 13 -52 13q-28 0 -53.5 -8.5t-37.5 -17.5l-11 -9v-292h-198v300q0 49 -8.5 90t-17.5 58l-9 17l15 15q55 0 106 4t74 8l23 3l15 -15l-5 -97l5 -5q3 5 8 12.5t21 27t33 34.5t42.5 27.5t49.5 12.5z" />
    <glyph glyph-name="s" unicode="s" horiz-adv-x="462" 
d="M221 426q-17 0 -28 -8.5t-11 -21.5q0 -6 2.5 -12t9 -12.5t13.5 -12t19.5 -13l22.5 -13.5t27.5 -16t29.5 -17q78 -46 108 -81t30 -83q0 -71 -54.5 -109.5t-162.5 -38.5q-42 0 -79 6t-60.5 14t-41 16.5t-24.5 14.5l-8 6q0 38 19.5 72.5t38.5 50.5l20 15h15q2 -5 6 -14
t17 -31t27 -39t35 -31t42 -14q20 0 32.5 10t12.5 24q0 18 -25 34t-109 59q-60 31 -91 67t-31 93q0 71 52.5 111t159.5 40q57 0 103.5 -11t64.5 -23l18 -11q0 -38 -20 -73t-40 -51l-20 -16h-14q-2 5 -5 13t-14 28.5t-22.5 36t-29 28.5t-35.5 13z" />
    <glyph glyph-name="t" unicode="t" horiz-adv-x="405" 
d="M5 410v50l90 47l40 118h139v-145h120v-70h-120v-257q0 -66 60 -66q13 0 24 3.5t16 7.5l4 3l28 -27q-2 -3 -6.5 -9t-21 -21t-35.5 -26t-51 -20.5t-67 -9.5q-74 0 -112 36.5t-38 102.5v283h-70z" />
    <glyph glyph-name="u" unicode="u" horiz-adv-x="585" 
d="M249 480v-336q0 -50 49 -50q10 0 19.5 2t14.5 4l5 3v197q0 49 -5 90t-10 58l-5 17l15 15q53 0 100 4t68 8l20 3l15 -15v-280q0 -49 8.5 -95t16.5 -68l9 -22l-14 -15q-55 0 -106 -3.5t-75 -7.5l-23 -4l-14 15l5 40l-5 5q-7 -6 -19.5 -15.5t-52 -25.5t-80.5 -16
q-70 0 -102 39t-32 97v176q0 49 -8.5 90t-17.5 58l-9 17l15 15q55 0 106 4t74 8l23 3z" />
    <glyph glyph-name="v" unicode="v" horiz-adv-x="543" 
d="M191 26l-100 274q-18 49 -40.5 91.5t-36.5 60.5l-14 18l10 10q57 0 108 2.5t74 5.5l22 2l114 -313l46 123q20 54 31.5 96.5t12.5 57.5l2 16l9 10q22 0 48 2.5t41 5.5l15 2l10 -10l-188 -480h-138z" />
    <glyph glyph-name="w" unicode="w" horiz-adv-x="823" 
d="M491 26l-64 204l-70 -230h-135l-26 26l-104 274q-19 49 -42 91.5t-36 60.5l-14 18l10 10q57 0 108 2.5t74 5.5l22 2l111 -292l54 176q-12 28 -24.5 52t-18.5 34l-7 10l10 10q57 0 105 2.5t68 5.5l20 2l89 -293l35 103q16 47 25.5 89.5t10.5 61.5l2 19l10 10q22 0 49 2.5
t43 5.5l16 2l10 -10l-168 -480h-138z" />
    <glyph glyph-name="x" unicode="x" horiz-adv-x="559" 
d="M243 490l88 -144q26 37 44 68t23 44l5 12l10 10h136l-170 -211l42 -69q30 -50 64 -96t53 -68l19 -21v-15q-64 0 -124 -2.5t-88 -5.5l-28 -2l-93 151q-27 -36 -48.5 -69t-29.5 -48l-8 -14l-10 -10h-117l-10 10l174 210l-48 80q-30 48 -61 89.5t-46 58.5l-16 17v15
q65 0 124.5 2.5t87.5 5.5z" />
    <glyph glyph-name="y" unicode="y" horiz-adv-x="539" 
d="M539 480l-228 -550q-20 -48 -36 -93t-23 -66l-6 -21l-10 -10q-42 0 -82 12.5t-59 25.5l-19 12v15q4 3 11 8t26.5 22.5t37 37t39 50.5t36.5 64l5 11l-133 302q-21 47 -45.5 89.5t-38.5 61.5l-14 19l10 10q57 0 109 2.5t76 5.5l24 2l107 -277l39 87q23 51 35.5 93.5
t13.5 59.5l2 17l9 10q22 0 48 2.5t41 5.5l15 2z" />
    <glyph glyph-name="z" unicode="z" horiz-adv-x="498" 
d="M21 35l206 370h-22q-49 0 -90 -9.5t-58 -19.5l-17 -10l-14 15v99h449v-35l-206 -371h29q49 0 90 10t58 20l17 10l15 -15v-99h-457v35z" />
    <glyph glyph-name="braceleft" unicode="{" horiz-adv-x="355" 
d="M83 15l19 155q11 90 -82 90v80q93 0 82 90l-18 155q-10 86 57 128t199 42v-79q-68 0 -61 -61l18 -155q12 -117 -92 -160q104 -44 92 -160l-18 -155q-6 -61 61 -61v-79q-132 0 -199 44t-58 126z" />
    <glyph glyph-name="bar" unicode="|" horiz-adv-x="192" 
d="M135 -150h-79v900h79v-900z" />
    <glyph glyph-name="braceright" unicode="}" horiz-adv-x="355" 
d="M258 170l19 -155q9 -82 -58 -126t-199 -44v79q67 0 61 61l-18 155q-14 116 92 160q-106 43 -92 160l18 155q7 61 -61 61v79q132 0 199 -42t57 -128l-18 -155q-11 -90 82 -90v-80q-93 0 -82 -90z" />
    <glyph glyph-name="asciitilde" unicode="~" horiz-adv-x="498" 
d="M185 380q35 0 80.5 -30.5t70.5 -30.5q24 0 50 15.5t40 31.5l14 16l43 -43q-3 -5 -8.5 -13t-24 -28t-37.5 -35.5t-46.5 -28.5t-53.5 -13q-36 0 -81.5 30.5t-66.5 30.5t-48 -15.5t-43 -31.5l-16 -16l-43 43q3 5 8.5 13t24 28t37.5 35.5t46.5 28.5t53.5 13z" />
    <glyph glyph-name="exclamdown" unicode="&#xa1;" horiz-adv-x="268" 
d="M236 391q0 -46 -28 -74.5t-73 -28.5q-46 0 -74 28t-28 75q0 45 28 73t74 28q45 0 73 -28t28 -73zM208 240l30 -460h-208l30 460h148z" />
    <glyph glyph-name="cent" unicode="&#xa2;" horiz-adv-x="528" 
d="M482 124l28 -28q-2 -4 -6 -10t-19.5 -22.5t-34.5 -29.5t-51.5 -26t-69.5 -17v-91h-80v90q-104 11 -166 79t-62 173q0 101 59.5 167.5t168.5 79.5v91h80v-89q82 -5 131 -39t49 -91q0 -15 -3.5 -29.5t-7.5 -21.5l-3 -6q-56 -15 -157 -15l-15 15q11 26 11 64q0 64 -35 64
q-28 0 -42 -44t-14 -117q0 -103 28.5 -143.5t88.5 -40.5q32 0 62.5 9.5t45.5 18.5z" />
    <glyph glyph-name="sterling" unicode="&#xa3;" horiz-adv-x="605" 
d="M43 519q0 97 70 145t194 48q134 0 201.5 -52t67.5 -139q0 -19 -3 -34.5t-7 -21.5l-3 -6q-70 -15 -185 -15l-15 15q14 20 14 78q0 110 -62 110q-58 0 -58 -112q0 -24 2 -45t7.5 -40.5t9 -31t11 -31.5t9.5 -27h109l10 -10v-70h-106q-1 -33 -14 -64t-30 -51.5t-34 -36
t-29 -22.5l-11 -7h204q49 0 90 10t58 20l17 10l14 -15v-124h-534v55q4 4 11 11.5t24.5 30.5t31 46.5t24.5 56t11 61.5q0 13 -1 19h-101v80h67q-3 4 -12.5 17.5t-13 19t-11.5 18.5t-11.5 22.5t-8 23t-6 28t-1.5 30.5z" />
    <glyph glyph-name="currency" unicode="&#xa4;" 
d="M108 300q0 53 29 100l-87 88l57 57l87 -88q46 30 101 30t101 -30l87 88l57 -57l-88 -88q30 -46 30 -100q0 -55 -30 -101l88 -87l-57 -57l-87 87q-47 -29 -101 -29t-101 29l-87 -87l-57 57l87 87q-29 47 -29 101zM188 300q0 -44 31.5 -76t75.5 -32t76 32t32 76t-32 76
t-76 32t-75.5 -32t-31.5 -76z" />
    <glyph glyph-name="yen" unicode="&#xa5;" horiz-adv-x="697" 
d="M692 700l-227 -369v-16h105v-80h-105v-60h105v-80h-105v-95h-208v95h-106v80h106v60h-106v80h106l-107 173q-33 54 -69 103t-56 71l-20 22v16h257l161 -260l160 260h109z" />
    <glyph glyph-name="brokenbar" unicode="&#xa6;" horiz-adv-x="192" 
d="M135 -150h-79v400h79v-400zM135 750v-400h-79v400h79z" />
    <glyph glyph-name="section" unicode="&#xa7;" horiz-adv-x="489" 
d="M194 613q0 -26 29 -48.5t70 -40.5t82 -38.5t70 -53.5t29 -75q0 -78 -92 -112q92 -52 92 -123q0 -61 -59.5 -97.5t-180.5 -36.5q-101 0 -160.5 28t-59.5 87q0 12 3 23t5 16l3 5q60 15 161 15l15 -15q-11 -14 -11 -43q0 -56 52 -56q27 0 41 13t14 33q0 23 -20.5 40.5
t-51.5 28.5t-67 26t-67 31.5t-51.5 47t-20.5 70.5q0 81 77 114q-74 44 -74 120q0 140 226 140q208 0 208 -114q0 -12 -2 -21.5t-4 -12.5l-3 -4q-59 -15 -160 -15l-15 15q8 9 8 37q0 55 -43 55q-21 0 -32 -11t-11 -28zM181 378q0 -26 27 -45.5t78 -42.5q21 14 21 38
q0 27 -27 44t-84 38q-15 -12 -15 -32z" />
    <glyph glyph-name="dieresis" unicode="&#xa8;" horiz-adv-x="455" 
d="M36 628q0 36 22.5 58t59.5 22t58.5 -22t21.5 -58q0 -38 -21.5 -60.5t-58.5 -22.5t-59.5 22.5t-22.5 60.5zM257 628q0 36 22.5 58t59.5 22t58.5 -22t21.5 -58q0 -38 -21.5 -60.5t-58.5 -22.5t-59.5 22.5t-22.5 60.5z" />
    <glyph glyph-name="copyright" unicode="&#xa9;" horiz-adv-x="815" 
d="M45 350q0 150 106 256t256 106t256 -106t106 -256t-106 -256t-256 -106t-256 106t-106 256zM125 350q0 -117 82.5 -200t199.5 -83q118 0 200.5 83t82.5 200t-82.5 200t-200.5 83q-117 0 -199.5 -83t-82.5 -200zM423 494q-21 0 -35 -33.5t-14 -96.5q0 -70 20 -98t64 -28
q25 0 49 7.5t35 15.5l12 8l17 -17q-1 -3 -4 -9t-15 -20.5t-27.5 -25.5t-43.5 -20t-61 -9q-83 0 -134.5 50.5t-51.5 132.5q0 81 52.5 131t138.5 50q67 0 107.5 -29.5t40.5 -74.5q0 -11 -2.5 -20t-4.5 -12l-3 -4q-43 -9 -112 -9l-9 9q9 13 9 45q0 57 -28 57z" />
    <glyph glyph-name="ordfeminine" unicode="&#xaa;" horiz-adv-x="294" 
d="M143 706q120 0 120 -74v-112q0 -19 14 -19l10 3l15 -15q-3 -4 -9.5 -10t-29 -16t-49.5 -10q-48 0 -58 30q-30 -30 -78 -30q-66 0 -66 65q0 32 24 48.5t94 25.5l23 3v60q0 19 -14 19q-17 0 -17 -27q0 -8 1.5 -15.5t2.5 -11.5l2 -3l-7 -8q-25 0 -47 2t-32 4l-10 2
q-8 10 -8 27q0 30 31 46t88 16zM125 533q0 -23 18 -23l10 2v48l-10 -2q-18 -3 -18 -25z" />
    <glyph glyph-name="guillemotleft" unicode="&#xab;" horiz-adv-x="510" 
d="M265 483l10 -10v-66l-101 -132l101 -132v-66l-10 -10l-240 194v28zM474 483l10 -10v-66l-100 -132l100 -132v-66l-10 -10l-239 194v28z" />
    <glyph glyph-name="logicalnot" unicode="&#xac;" 
d="M95 335v80h400v-200h-79v120h-321z" />
    <glyph glyph-name="uni00AD" unicode="&#xad;" horiz-adv-x="320" 
d="M45 235v80h230v-80h-230z" />
    <glyph glyph-name="registered" unicode="&#xae;" horiz-adv-x="815" 
d="M45 350q0 150 106 256t256 106t256 -106t106 -256t-106 -256t-256 -106t-256 106t-106 256zM125 350q0 -117 82.5 -200t199.5 -83q118 0 200.5 83t82.5 200t-82.5 200t-200.5 83q-117 0 -199.5 -83t-82.5 -200zM260 175v350h147q75 0 117 -26.5t42 -74.5q0 -58 -59 -84
l33 -74q10 -23 23.5 -44.5t22.5 -31.5l8 -9l-5 -6h-135l-62 148h-7v-148h-125zM389 478h-4v-109h4q46 0 46 55q0 54 -46 54z" />
    <glyph glyph-name="macron" unicode="&#xaf;" horiz-adv-x="295" 
d="M0 580v80h295v-80h-295z" />
    <glyph glyph-name="degree" unicode="&#xb0;" horiz-adv-x="321" 
d="M25 576q0 61 37.5 98.5t98.5 37.5t98.5 -37.5t37.5 -98.5t-37.5 -98t-98.5 -37t-98.5 37t-37.5 98zM111 576q0 -25 13.5 -39t36.5 -14t36.5 14t13.5 39q0 24 -13.5 38.5t-36.5 14.5t-36.5 -14.5t-13.5 -38.5z" />
    <glyph glyph-name="plusminus" unicode="&#xb1;" 
d="M95 310v80h160v160h80v-160h160v-80h-160v-160h-80v160h-160zM95 30v80h400v-80h-400z" />
    <glyph glyph-name="twosuperior" unicode="&#xb2;" horiz-adv-x="307" 
d="M297 614q0 -35 -23.5 -67.5t-58 -54.5t-54.5 -32.5t-31 -14.5h74q24 0 44.5 6t29.5 11l8 6l9 -8v-110h-288v56h1q160 128 160 223q0 40 -20 40q-22 0 -22 -50q0 -13 2 -23.5t4 -13.5l2 -4l-9 -9q-31 0 -59 2.5t-40 4.5l-13 2q-7 10 -7 32q0 44 36.5 70.5t108.5 26.5
q68 0 107 -23.5t39 -69.5z" />
    <glyph glyph-name="threesuperior" unicode="&#xb3;" horiz-adv-x="321" 
d="M152 381q28 0 28 63q0 33 -9.5 46.5t-34.5 13.5h-15l-5 5v47h12q25 0 34.5 13.5t9.5 47.5q0 52 -19 52q-24 0 -24 -49q0 -12 2 -21.5t4 -12.5l2 -4l-9 -9q-31 0 -59 2.5t-41 4.5l-12 2q-7 10 -7 31q0 42 38 68t110 26q68 0 105.5 -24.5t37.5 -70.5q0 -60 -69 -81
q81 -18 81 -86q0 -51 -42 -76.5t-115 -25.5q-76 0 -113 26.5t-37 69.5q0 10 2 18t4 11l2 3q43 9 112 9l9 -9q-9 -11 -9 -40q0 -50 27 -50z" />
    <glyph glyph-name="acute" unicode="&#xb4;" horiz-adv-x="326" 
d="M60 550l-10 10l69 189q48 0 87 -7.5t54 -14.5l15 -7v-10l-159 -160h-56z" />
    <glyph glyph-name="paragraph" unicode="&#xb6;" horiz-adv-x="681" 
d="M267 -20v300q-106 0 -169 55.5t-63 154.5t63 154.5t169 55.5h149v-651q0 -62 -21 -117t-51.5 -89.5t-61 -60t-51.5 -36.5l-21 -11l-28 28q3 4 9 11t20.5 29.5t26 46.5t20.5 59.5t9 70.5zM477 0v700h149v-700h-149z" />
    <glyph glyph-name="periodcentered" unicode="&#xb7;" horiz-adv-x="254" 
d="M25 300q0 46 28 74t74 28t74 -28t28 -74t-28 -73.5t-74 -27.5t-74 27.5t-28 73.5z" />
    <glyph glyph-name="cedilla" unicode="&#xb8;" horiz-adv-x="263" 
d="M86 -81l13 81h57l-8 -47q32 0 55.5 -21.5t23.5 -56.5q0 -36 -26 -60t-70 -24q-30 0 -54 11.5t-33 23.5l-9 12l23 23q13 -15 38 -15q38 0 38 32q0 31 -38 31z" />
    <glyph glyph-name="onesuperior" unicode="&#xb9;" horiz-adv-x="262" 
d="M94 350v260q-33 -10 -72 -10q-6 13 -6 44l6 6q35 0 70.5 12.5t53.5 25.5l18 12h49v-350h-119z" />
    <glyph glyph-name="ordmasculine" unicode="&#xba;" horiz-adv-x="298" 
d="M12 579q0 57 38 92t99 35t99 -35t38 -92q0 -56 -38 -91t-99 -35t-99 35t-38 91zM135 579q0 -94 14 -94t14 94q0 95 -14 95t-14 -95z" />
    <glyph glyph-name="guillemotright" unicode="&#xbb;" horiz-adv-x="510" 
d="M25 473l10 10l240 -194v-28l-240 -194l-10 10v66l101 132l-101 132v66zM235 473l10 10l239 -194v-28l-239 -194l-10 10v66l101 132l-101 132v66z" />
    <glyph glyph-name="onequarter" unicode="&#xbc;" horiz-adv-x="729" 
d="M209 -25h-92l432 750h92zM425 59v23l201 268h59v-244h34v-47h-34v-59h-119v59h-141zM94 350v260q-33 -10 -72 -10q-6 13 -6 44l6 6q35 0 70.5 12.5t53.5 25.5l18 12h49v-350h-119zM501 106h65v86z" />
    <glyph glyph-name="onehalf" unicode="&#xbd;" horiz-adv-x="782" 
d="M772 264q0 -35 -23.5 -67.5t-57.5 -54.5t-54 -32.5t-31 -14.5h74q24 0 44.5 5.5t29.5 11.5l8 6l8 -8v-110h-287v56h1q160 128 160 223q0 40 -20 40q-22 0 -22 -50q0 -13 2 -23.5t4 -13.5l2 -4l-9 -9q-31 0 -59 2.5t-40 4.5l-13 2q-7 10 -7 32q0 44 36.5 70.5t108.5 26.5
q68 0 106.5 -23t38.5 -70zM209 -25h-92l432 750h92zM94 350v260q-33 -10 -72 -10q-6 13 -6 44l6 6q35 0 70.5 12.5t53.5 25.5l18 12h49v-350h-119z" />
    <glyph glyph-name="threequarters" unicode="&#xbe;" horiz-adv-x="768" 
d="M152 381q28 0 28 63q0 33 -9.5 46.5t-34.5 13.5h-15l-5 5v47h12q25 0 34.5 13.5t9.5 47.5q0 52 -19 52q-24 0 -24 -49q0 -12 2 -21.5t4 -12.5l2 -4l-9 -9q-31 0 -59 2.5t-41 4.5l-12 2q-7 10 -7 31q0 42 38 68t110 26q68 0 105.5 -24.5t37.5 -70.5q0 -60 -69 -81
q81 -18 81 -86q0 -51 -42 -76.5t-115 -25.5q-76 0 -113 26.5t-37 69.5q0 10 2 18t4 11l2 3q43 9 112 9l9 -9q-9 -11 -9 -40q0 -50 27 -50zM248 -25h-92l432 750h92zM464 59v23l201 268h60v-244h33v-47h-33v-59h-119v59h-142zM540 106h66v87z" />
    <glyph glyph-name="questiondown" unicode="&#xbf;" horiz-adv-x="575" 
d="M400 391q0 -46 -28 -74.5t-73 -28.5q-46 0 -74 28t-28 75q0 45 28 73t74 28q45 0 73 -28t28 -73zM20 -48q0 34 11 65t28.5 53.5t39 41.5t42.5 31t38.5 21t28.5 12l11 4l4 60h149l8 -140q-6 -1 -16 -2.5t-35 -13t-44 -28t-35 -50t-16 -77.5q0 -46 16 -71t44 -25
q27 0 43.5 25.5t16.5 76.5q0 24 -3.5 41.5t-6.5 23.5l-4 6l15 15q52 0 98.5 -3.5t66.5 -7.5l21 -4q13 -18 13 -58q0 -82 -68 -131t-197 -49q-126 0 -197.5 47.5t-71.5 136.5z" />
    <glyph glyph-name="Agrave" unicode="&#xc0;" horiz-adv-x="721" 
d="M173 171l-62 -171h-101l238 628l-35 57v15h227l271 -700h-214l-66 171h-258zM299 515l-97 -266h199zM423 760l-10 -10h-56l-159 160v10q47 30 155 30z" />
    <glyph glyph-name="Aacute" unicode="&#xc1;" horiz-adv-x="721" 
d="M173 171l-62 -171h-101l238 628l-35 57v15h227l271 -700h-214l-66 171h-258zM299 515l-97 -266h199zM288 750l-10 10l69 190q48 0 87 -7.5t54 -14.5l15 -8v-10l-160 -160h-55z" />
    <glyph glyph-name="Acircumflex" unicode="&#xc2;" horiz-adv-x="721" 
d="M173 171l-62 -171h-101l238 628l-35 57v15h227l271 -700h-214l-66 171h-258zM528 760l-10 -10h-66l-102 76l-102 -76h-65l-10 10l153 190h48zM299 515l-97 -266h199z" />
    <glyph glyph-name="Atilde" unicode="&#xc3;" horiz-adv-x="721" 
d="M173 171l-62 -171h-101l238 628l-35 57v15h227l271 -700h-214l-66 171h-258zM307 882q26 0 56.5 -18.5t52.5 -18.5q21 0 41 10t29 20l10 10l28 -28q-2 -4 -5 -11.5t-15.5 -26.5t-26 -33.5t-36.5 -26.5t-48 -12q-26 0 -56.5 18.5t-52.5 18.5q-21 0 -41 -10t-29 -20
l-10 -10l-27 28q2 4 5 11.5t15 26.5t26 33.5t36.5 26.5t47.5 12zM299 515l-97 -266h199z" />
    <glyph glyph-name="Adieresis" unicode="&#xc4;" horiz-adv-x="721" 
d="M173 171l-62 -171h-101l238 628l-35 57v15h227l271 -700h-214l-66 171h-258zM299 515l-97 -266h199zM159 828q0 36 22.5 58t59.5 22t59 -22t22 -58q0 -38 -22 -60.5t-59 -22.5t-59.5 23t-22.5 60zM380 828q0 36 22.5 58t59.5 22t58.5 -22t21.5 -58q0 -38 -21.5 -60.5
t-58.5 -22.5t-59.5 22.5t-22.5 60.5z" />
    <glyph glyph-name="Aring" unicode="&#xc5;" horiz-adv-x="721" 
d="M173 171l-62 -171h-101l238 628l-35 57v15h227l271 -700h-214l-66 171h-258zM249 841q0 45 28 73t73 28t73 -28t28 -73t-28 -73t-73 -28t-73 28t-28 73zM299 515l-97 -266h199zM320 841q0 -31 30 -31q14 0 22 8.5t8 22.5t-8.5 22.5t-21.5 8.5q-14 0 -22 -8.5t-8 -22.5z
" />
    <glyph glyph-name="AE" unicode="&#xc6;" horiz-adv-x="853" 
d="M10 0l300 700h498v-104l-15 -15q-6 4 -18.5 11t-55 18t-91.5 11h-91v-221h196l10 -10v-70h-206v-241h101q49 0 90 10t58 20l17 10l15 -15v-104h-489v195h-137l-81 -195h-101zM224 274h105v251z" />
    <glyph glyph-name="Ccedilla" unicode="&#xc7;" horiz-adv-x="714" 
d="M352 -81l11 70q-150 11 -241 110t-91 252q0 162 102 261.5t272 99.5q131 0 209.5 -57.5t78.5 -147.5q0 -21 -4.5 -38t-8.5 -23l-5 -7q-70 -15 -186 -15l-15 15q15 24 15 83q0 62 -23.5 93.5t-63.5 31.5q-63 0 -101 -71.5t-38 -202.5q0 -142 48 -204.5t147 -62.5
q54 0 104.5 16t73.5 32l24 17l30 -30q-3 -6 -8.5 -15.5t-28 -34.5t-50.5 -45t-77.5 -37t-106.5 -20l-6 -36q32 0 56 -21.5t24 -56.5q0 -36 -26.5 -60t-70.5 -24q-19 0 -36 5t-27 11.5t-18 13.5t-11 12l-3 5l22 23q14 -15 39 -15q38 0 38 32q0 31 -39 31z" />
    <glyph glyph-name="Egrave" unicode="&#xc8;" 
d="M56 0v700h489v-104l-15 -15q-6 4 -18.5 11t-55 18t-91.5 11h-101v-221h206l10 -10v-70h-216v-241h111q49 0 90 10t58 20l17 10l15 -15v-104h-499zM388 760l-10 -10h-56l-159 160v10q47 30 155 30z" />
    <glyph glyph-name="Eacute" unicode="&#xc9;" 
d="M56 0v700h489v-104l-15 -15q-6 4 -18.5 11t-55 18t-91.5 11h-101v-221h206l10 -10v-70h-216v-241h111q49 0 90 10t58 20l17 10l15 -15v-104h-499zM233 750l-10 10l69 190q48 0 87 -7.5t54 -14.5l15 -8v-10l-160 -160h-55z" />
    <glyph glyph-name="Ecircumflex" unicode="&#xca;" 
d="M56 0v700h489v-104l-15 -15q-6 4 -18.5 11t-55 18t-91.5 11h-101v-221h206l10 -10v-70h-216v-241h111q49 0 90 10t58 20l17 10l15 -15v-104h-499zM483 760l-10 -10h-66l-102 76l-102 -76h-65l-10 10l154 190h47z" />
    <glyph glyph-name="Edieresis" unicode="&#xcb;" 
d="M56 0v700h489v-104l-15 -15q-6 4 -18.5 11t-55 18t-91.5 11h-101v-221h206l10 -10v-70h-216v-241h111q49 0 90 10t58 20l17 10l15 -15v-104h-499zM334 828q0 36 22.5 58t59.5 22t59 -22t22 -58q0 -38 -22 -60.5t-59 -22.5t-59.5 23t-22.5 60zM113 828q0 36 22.5 58
t59.5 22t59 -22t22 -58q0 -38 -22 -60.5t-59 -22.5t-59.5 23t-22.5 60z" />
    <glyph glyph-name="Igrave" unicode="&#xcc;" horiz-adv-x="320" 
d="M56 0v700h208v-700h-208zM232 760l-10 -10h-55l-160 160v10q48 30 156 30z" />
    <glyph glyph-name="Iacute" unicode="&#xcd;" horiz-adv-x="320" 
d="M56 0v700h208v-700h-208zM97 750l-10 10l70 190q48 0 87 -7.5t54 -14.5l14 -8v-10l-159 -160h-56z" />
    <glyph glyph-name="Icircumflex" unicode="&#xce;" horiz-adv-x="320" 
d="M56 0v700h208v-700h-208zM337 760l-10 -10h-65l-102 76l-102 -76h-66l-10 10l154 190h48z" />
    <glyph glyph-name="Idieresis" unicode="&#xcf;" horiz-adv-x="320" 
d="M56 0v700h208v-700h-208zM-32 828q0 36 23 58t60 22q36 0 58 -22t22 -58q0 -37 -22 -60t-58 -23q-37 0 -60 22.5t-23 60.5zM189 828q0 36 23 58t60 22q36 0 58 -22t22 -58q0 -37 -22 -60t-58 -23q-38 0 -60.5 22.5t-22.5 60.5z" />
    <glyph glyph-name="Eth" unicode="&#xd0;" horiz-adv-x="767" 
d="M5 315v80h51v305h311q166 0 268 -97t102 -253t-102 -253t-268 -97h-311v315h-51zM357 621h-93v-226h116v-80h-116v-236h93q68 0 107.5 68t39.5 203t-39.5 203t-107.5 68z" />
    <glyph glyph-name="Ntilde" unicode="&#xd1;" horiz-adv-x="701" 
d="M145 378v-378h-89v420q0 80 -9 146t-17 92l-9 27l15 15h69l441 -378v378h99v-700h-59zM308 882q26 0 56 -18.5t52 -18.5q21 0 41 10t29 20l10 10l28 -28q-2 -4 -5 -11.5t-15 -26.5t-26 -33.5t-36.5 -26.5t-47.5 -12q-26 0 -56.5 18.5t-52.5 18.5q-21 0 -41 -10t-30 -20
l-9 -10l-28 28q2 4 5 11.5t15.5 26.5t26 33.5t36.5 26.5t48 12z" />
    <glyph glyph-name="Ograve" unicode="&#xd2;" horiz-adv-x="800" 
d="M31 350q0 162 102 262t267 100q166 0 268 -100.5t102 -261.5t-102 -261.5t-268 -100.5q-165 0 -267 100t-102 262zM263 350q0 -148 36.5 -222.5t100.5 -74.5t100.5 74.5t36.5 222.5t-36.5 222.5t-100.5 74.5t-100.5 -74.5t-36.5 -222.5zM473 760l-10 -10h-56l-159 160v10
q47 30 155 30z" />
    <glyph glyph-name="Oacute" unicode="&#xd3;" horiz-adv-x="800" 
d="M31 350q0 162 102 262t267 100q166 0 268 -100.5t102 -261.5t-102 -261.5t-268 -100.5q-165 0 -267 100t-102 262zM263 350q0 -148 36.5 -222.5t100.5 -74.5t100.5 74.5t36.5 222.5t-36.5 222.5t-100.5 74.5t-100.5 -74.5t-36.5 -222.5zM338 750l-10 10l69 190
q48 0 87 -7.5t54 -14.5l15 -8v-10l-160 -160h-55z" />
    <glyph glyph-name="Ocircumflex" unicode="&#xd4;" horiz-adv-x="800" 
d="M31 350q0 162 102 262t267 100q166 0 268 -100.5t102 -261.5t-102 -261.5t-268 -100.5q-165 0 -267 100t-102 262zM263 350q0 -148 36.5 -222.5t100.5 -74.5t100.5 74.5t36.5 222.5t-36.5 222.5t-100.5 74.5t-100.5 -74.5t-36.5 -222.5zM578 760l-10 -10h-66l-102 76
l-102 -76h-65l-10 10l153 190h48z" />
    <glyph glyph-name="Otilde" unicode="&#xd5;" horiz-adv-x="800" 
d="M31 350q0 162 102 262t267 100q166 0 268 -100.5t102 -261.5t-102 -261.5t-268 -100.5q-165 0 -267 100t-102 262zM263 350q0 -148 36.5 -222.5t100.5 -74.5t100.5 74.5t36.5 222.5t-36.5 222.5t-100.5 74.5t-100.5 -74.5t-36.5 -222.5zM357 882q26 0 56.5 -18.5
t52.5 -18.5q21 0 41 10t29 20l10 10l28 -28q-2 -4 -5 -11.5t-15.5 -26.5t-26 -33.5t-36.5 -26.5t-48 -12q-26 0 -56.5 18.5t-52.5 18.5q-21 0 -41 -10t-29 -20l-10 -10l-27 28q2 4 5 11.5t15 26.5t26 33.5t36.5 26.5t47.5 12z" />
    <glyph glyph-name="Odieresis" unicode="&#xd6;" horiz-adv-x="800" 
d="M31 350q0 162 102 262t267 100q166 0 268 -100.5t102 -261.5t-102 -261.5t-268 -100.5q-165 0 -267 100t-102 262zM263 350q0 -148 36.5 -222.5t100.5 -74.5t100.5 74.5t36.5 222.5t-36.5 222.5t-100.5 74.5t-100.5 -74.5t-36.5 -222.5zM208 828q0 36 22.5 58t59.5 22
t59 -22t22 -58q0 -38 -22 -60.5t-59 -22.5t-59.5 23t-22.5 60zM429 828q0 36 22.5 58t59.5 22t59 -22t22 -58q0 -38 -22 -60.5t-59 -22.5t-59.5 23t-22.5 60z" />
    <glyph glyph-name="multiply" unicode="&#xd7;" 
d="M147 120l-57 57l148 148l-148 148l57 57l148 -148l148 148l57 -57l-148 -148l148 -148l-57 -57l-148 148z" />
    <glyph glyph-name="Oslash" unicode="&#xd8;" horiz-adv-x="800" 
d="M230 -25h-91l42 74q-71 47 -110.5 124.5t-39.5 176.5q0 162 102 262t267 100q81 0 148 -26l23 39h91l-43 -75q72 -47 111.5 -124.5t39.5 -175.5q0 -161 -102 -261.5t-268 -100.5q-79 0 -148 25zM259 350q0 -85 12 -145l222 385q-36 57 -93 57q-65 0 -103 -74.5
t-38 -222.5zM541 350q0 80 -13 143l-221 -384q35 -56 93 -56q65 0 103 74.5t38 222.5z" />
    <glyph glyph-name="Ugrave" unicode="&#xd9;" horiz-adv-x="707" 
d="M562 251v449h89v-446q0 -122 -78 -194t-220 -72q-141 0 -219 72t-78 194v446h208v-480q0 -69 39.5 -109t104.5 -40q70 0 112 47t42 133zM436 760l-10 -10h-56l-159 160v10q47 30 155 30z" />
    <glyph glyph-name="Uacute" unicode="&#xda;" horiz-adv-x="707" 
d="M562 251v449h89v-446q0 -122 -78 -194t-220 -72q-141 0 -219 72t-78 194v446h208v-480q0 -69 39.5 -109t104.5 -40q70 0 112 47t42 133zM301 750l-10 10l69 190q48 0 87 -7.5t54 -14.5l15 -8v-10l-160 -160h-55z" />
    <glyph glyph-name="Ucircumflex" unicode="&#xdb;" horiz-adv-x="707" 
d="M562 251v449h89v-446q0 -122 -78 -194t-220 -72q-141 0 -219 72t-78 194v446h208v-480q0 -69 39.5 -109t104.5 -40q70 0 112 47t42 133zM541 760l-10 -10h-66l-102 76l-102 -76h-65l-10 10l153 190h48z" />
    <glyph glyph-name="Udieresis" unicode="&#xdc;" horiz-adv-x="707" 
d="M562 251v449h89v-446q0 -122 -78 -194t-220 -72q-141 0 -219 72t-78 194v446h208v-480q0 -69 39.5 -109t104.5 -40q70 0 112 47t42 133zM171 828q0 36 22.5 58t59.5 22t59 -22t22 -58q0 -38 -22 -60.5t-59 -22.5t-59.5 23t-22.5 60zM392 828q0 36 22.5 58t59.5 22t59 -22
t22 -58q0 -38 -22 -60.5t-59 -22.5t-59.5 23t-22.5 60z" />
    <glyph glyph-name="Yacute" unicode="&#xdd;" horiz-adv-x="697" 
d="M692 700l-227 -368v-332h-208v315l-107 173q-33 54 -69 103t-56 71l-20 22v16h257l161 -260l160 260h109zM287 750l-10 10l69 190q48 0 87 -7.5t54 -14.5l15 -8v-10l-159 -160h-56z" />
    <glyph glyph-name="Thorn" unicode="&#xde;" horiz-adv-x="665" 
d="M56 0v700h208v-130h74q140 0 220.5 -55t80.5 -155t-80.5 -155t-220.5 -55h-74v-150h-208zM305 490h-41v-260h41q56 0 86 33t30 97t-30 97t-86 33z" />
    <glyph glyph-name="germandbls" unicode="&#xdf;" horiz-adv-x="668" 
d="M244 0h-198v536q0 115 64 170.5t206 55.5q122 0 181 -41t59 -126q0 -45 -15.5 -82.5t-30.5 -52.5l-16 -15q-53 0 -53 -43q0 -8 1.5 -15t6.5 -14t9 -12t14.5 -13.5t17.5 -13.5t23.5 -16.5t26.5 -19.5q64 -47 88.5 -80.5t24.5 -81.5q0 -148 -198 -148q-63 0 -108.5 15
t-59.5 29l-14 15q0 37 13.5 68.5t26.5 44.5l13 13h15l7.5 -12.5t18 -27.5t26.5 -35.5t31 -28t33 -12.5q14 0 22.5 8.5t8.5 22.5q0 17 -18.5 32.5t-89.5 60.5q-46 30 -72 66.5t-26 97.5q0 47 17 83.5t34 49.5l17 14q27 27 27 96q0 97 -67 97q-33 0 -49.5 -30t-16.5 -103v-552
z" />
    <glyph glyph-name="agrave" unicode="&#xe0;" horiz-adv-x="567" 
d="M276 492q230 0 230 -146v-231q0 -39 30 -39q6 0 11.5 1.5t7.5 2.5l2 2l28 -27q-2 -3 -6 -7.5t-19 -16t-32 -20.5t-45 -16t-59 -7q-90 0 -111 60q-64 -60 -158 -60q-64 0 -98 33.5t-34 96.5q0 61 47 93.5t181 51.5l57 8v116q0 45 -39 45q-44 0 -44 -59q0 -16 2.5 -30.5
t5.5 -20.5l3 -7l-15 -15q-45 0 -85 4t-58 8l-18 3q-13 20 -13 52q0 60 59.5 92.5t169.5 32.5zM342 560l-9 -10h-56l-159 160v10q47 29 155 29zM228 144q0 -52 44 -52q10 0 19 3t13 6l4 3v101l-34 -5q-46 -6 -46 -56z" />
    <glyph glyph-name="aacute" unicode="&#xe1;" horiz-adv-x="567" 
d="M276 492q230 0 230 -146v-231q0 -39 30 -39q6 0 11.5 1.5t7.5 2.5l2 2l28 -27q-2 -3 -6 -7.5t-19 -16t-32 -20.5t-45 -16t-59 -7q-90 0 -111 60q-64 -60 -158 -60q-64 0 -98 33.5t-34 96.5q0 61 47 93.5t181 51.5l57 8v116q0 45 -39 45q-44 0 -44 -59q0 -16 2.5 -30.5
t5.5 -20.5l3 -7l-15 -15q-45 0 -85 4t-58 8l-18 3q-13 20 -13 52q0 60 59.5 92.5t169.5 32.5zM206 550l-10 10l69 189q48 0 87 -7.5t54 -14.5l15 -7v-10l-160 -160h-55zM228 144q0 -52 44 -52q10 0 19 3t13 6l4 3v101l-34 -5q-46 -6 -46 -56z" />
    <glyph glyph-name="acircumflex" unicode="&#xe2;" horiz-adv-x="567" 
d="M276 492q230 0 230 -146v-231q0 -39 30 -39q6 0 11.5 1.5t7.5 2.5l2 2l28 -27q-2 -3 -6 -7.5t-19 -16t-32 -20.5t-45 -16t-59 -7q-90 0 -111 60q-64 -60 -158 -60q-64 0 -98 33.5t-34 96.5q0 61 47 93.5t181 51.5l57 8v116q0 45 -39 45q-44 0 -44 -59q0 -16 2.5 -30.5
t5.5 -20.5l3 -7l-15 -15q-45 0 -85 4t-58 8l-18 3q-13 20 -13 52q0 60 59.5 92.5t169.5 32.5zM459 560l-10 -10h-65l-102 76l-102 -76h-66l-9 10l153 189h48zM228 144q0 -52 44 -52q10 0 19 3t13 6l4 3v101l-34 -5q-46 -6 -46 -56z" />
    <glyph glyph-name="atilde" unicode="&#xe3;" horiz-adv-x="567" 
d="M276 492q230 0 230 -146v-231q0 -39 30 -39q6 0 11.5 1.5t7.5 2.5l2 2l28 -27q-2 -3 -6 -7.5t-19 -16t-32 -20.5t-45 -16t-59 -7q-90 0 -111 60q-64 -60 -158 -60q-64 0 -98 33.5t-34 96.5q0 61 47 93.5t181 51.5l57 8v116q0 45 -39 45q-44 0 -44 -59q0 -16 2.5 -30.5
t5.5 -20.5l3 -7l-15 -15q-45 0 -85 4t-58 8l-18 3q-13 20 -13 52q0 60 59.5 92.5t169.5 32.5zM230 682q26 0 56.5 -18.5t52.5 -18.5q21 0 41 10t30 20l9 10l28 -28q-2 -4 -5 -11.5t-15.5 -26.5t-26 -33.5t-36.5 -26.5t-48 -12q-26 0 -56.5 18.5t-52.5 18.5q-21 0 -41 -10
t-30 -20l-9 -10l-28 28q2 4 5 11.5t15.5 26.5t26 33.5t36.5 26.5t48 12zM228 144q0 -52 44 -52q10 0 19 3t13 6l4 3v101l-34 -5q-46 -6 -46 -56z" />
    <glyph glyph-name="adieresis" unicode="&#xe4;" horiz-adv-x="567" 
d="M276 492q230 0 230 -146v-231q0 -39 30 -39q6 0 11.5 1.5t7.5 2.5l2 2l28 -27q-2 -3 -6 -7.5t-19 -16t-32 -20.5t-45 -16t-59 -7q-90 0 -111 60q-64 -60 -158 -60q-64 0 -98 33.5t-34 96.5q0 61 47 93.5t181 51.5l57 8v116q0 45 -39 45q-44 0 -44 -59q0 -16 2.5 -30.5
t5.5 -20.5l3 -7l-15 -15q-45 0 -85 4t-58 8l-18 3q-13 20 -13 52q0 60 59.5 92.5t169.5 32.5zM301 628q0 36 22.5 58t59.5 22t58.5 -22t21.5 -58q0 -38 -21.5 -60.5t-58.5 -22.5t-59.5 22.5t-22.5 60.5zM80 628q0 36 22.5 58t59.5 22t58.5 -22t21.5 -58q0 -38 -21.5 -60.5
t-58.5 -22.5t-59.5 22.5t-22.5 60.5zM228 144q0 -52 44 -52q10 0 19 3t13 6l4 3v101l-34 -5q-46 -6 -46 -56z" />
    <glyph glyph-name="aring" unicode="&#xe5;" horiz-adv-x="567" 
d="M276 492q230 0 230 -146v-231q0 -39 30 -39q6 0 11.5 1.5t7.5 2.5l2 2l28 -27q-2 -3 -6 -7.5t-19 -16t-32 -20.5t-45 -16t-59 -7q-90 0 -111 60q-64 -60 -158 -60q-64 0 -98 33.5t-34 96.5q0 61 47 93.5t181 51.5l57 8v116q0 45 -39 45q-44 0 -44 -59q0 -16 2.5 -30.5
t5.5 -20.5l3 -7l-15 -15q-45 0 -85 4t-58 8l-18 3q-13 20 -13 52q0 60 59.5 92.5t169.5 32.5zM172 641q0 45 28 73t73 28t73 -28t28 -73t-28 -73t-73 -28t-73 28t-28 73zM228 144q0 -52 44 -52q10 0 19 3t13 6l4 3v101l-34 -5q-46 -6 -46 -56zM243 641q0 -31 30 -31
q14 0 22 8.5t8 22.5t-8.5 22.5t-21.5 8.5q-14 0 -22 -8.5t-8 -22.5z" />
    <glyph glyph-name="ae" unicode="&#xe6;" horiz-adv-x="826" 
d="M769 124l28 -28q-2 -4 -7 -11.5t-23.5 -26t-41.5 -33t-63 -26t-86 -11.5q-128 0 -201 75q-78 -75 -203 -75q-149 0 -149 125q0 62 48 96t180 54l57 8v116q0 45 -39 45q-44 0 -44 -59q0 -16 2.5 -30.5t5.5 -20.5l3 -7l-15 -15q-45 0 -85 4t-58 8l-18 3q-13 20 -13 52
q0 59 59.5 92t160.5 33q107 0 155 -39q70 39 173 39q204 0 204 -156q0 -20 -3 -39t-6 -29l-3 -9l-15 -15h-241q4 -87 31.5 -122t85.5 -35q32 0 62.5 9.5t44.5 18.5zM228 143q0 -51 47 -51q30 0 61 25q-20 40 -26 89l-36 -6q-46 -8 -46 -57zM590 432q-52 0 -59 -126l85 8
q6 23 6 53q0 65 -32 65z" />
    <glyph glyph-name="ccedilla" unicode="&#xe7;" horiz-adv-x="528" 
d="M247 -81l11 70q-108 8 -172.5 76.5t-64.5 176.5q0 113 74 181.5t206 68.5q94 0 151 -34.5t57 -96.5q0 -15 -3.5 -29.5t-7.5 -21.5l-3 -6q-56 -15 -157 -15l-15 15q11 26 11 64q0 64 -35 64q-28 0 -42 -44t-14 -117q0 -103 28.5 -143.5t88.5 -40.5q32 0 62.5 9.5
t45.5 18.5l14 9l28 -28q-2 -4 -6.5 -10.5t-21 -23.5t-36.5 -31t-55.5 -26.5t-75.5 -15.5l-6 -36q32 0 56 -21.5t24 -56.5q0 -36 -26.5 -60t-70.5 -24q-30 0 -54 11.5t-33 23.5l-9 12l23 23q13 -15 38 -15q17 0 28 8.5t11 23.5q0 31 -39 31z" />
    <glyph glyph-name="egrave" unicode="&#xe8;" horiz-adv-x="538" 
d="M482 124l28 -28q-2 -4 -7 -11.5t-23.5 -26t-41.5 -33t-63.5 -26t-86.5 -11.5q-120 0 -193.5 69.5t-73.5 185.5q0 115 74.5 182t212.5 67q204 0 204 -156q0 -20 -3 -39t-6 -29l-3 -9l-15 -15h-242q4 -87 32 -122t86 -35q32 0 62.5 9.5t44.5 18.5zM368 560l-10 -10h-56
l-159 160v10q47 29 155 29zM302 432q-51 0 -58 -126l85 8q5 25 5 52q0 66 -32 66z" />
    <glyph glyph-name="eacute" unicode="&#xe9;" horiz-adv-x="538" 
d="M482 124l28 -28q-2 -4 -7 -11.5t-23.5 -26t-41.5 -33t-63.5 -26t-86.5 -11.5q-120 0 -193.5 69.5t-73.5 185.5q0 115 74.5 182t212.5 67q204 0 204 -156q0 -20 -3 -39t-6 -29l-3 -9l-15 -15h-242q4 -87 32 -122t86 -35q32 0 62.5 9.5t44.5 18.5zM232 550l-10 10l69 189
q48 0 87 -7.5t54 -14.5l15 -7v-10l-160 -160h-55zM302 432q-51 0 -58 -126l85 8q5 25 5 52q0 66 -32 66z" />
    <glyph glyph-name="ecircumflex" unicode="&#xea;" horiz-adv-x="538" 
d="M482 124l28 -28q-2 -4 -7 -11.5t-23.5 -26t-41.5 -33t-63.5 -26t-86.5 -11.5q-120 0 -193.5 69.5t-73.5 185.5q0 115 74.5 182t212.5 67q204 0 204 -156q0 -20 -3 -39t-6 -29l-3 -9l-15 -15h-242q4 -87 32 -122t86 -35q32 0 62.5 9.5t44.5 18.5zM457 560l-10 -10h-66
l-102 76l-102 -76h-65l-10 10l153 189h48zM302 432q-51 0 -58 -126l85 8q5 25 5 52q0 66 -32 66z" />
    <glyph glyph-name="edieresis" unicode="&#xeb;" horiz-adv-x="538" 
d="M482 124l28 -28q-2 -4 -7 -11.5t-23.5 -26t-41.5 -33t-63.5 -26t-86.5 -11.5q-120 0 -193.5 69.5t-73.5 185.5q0 115 74.5 182t212.5 67q204 0 204 -156q0 -20 -3 -39t-6 -29l-3 -9l-15 -15h-242q4 -87 32 -122t86 -35q32 0 62.5 9.5t44.5 18.5zM104 628q0 36 22.5 58
t59.5 22t59 -22t22 -58q0 -38 -22 -60.5t-59 -22.5t-59.5 23t-22.5 60zM325 628q0 36 22.5 58t59.5 22t58.5 -22t21.5 -58q0 -38 -21.5 -60.5t-58.5 -22.5t-59.5 22.5t-22.5 60.5zM302 432q-51 0 -58 -126l85 8q5 25 5 52q0 66 -32 66z" />
    <glyph glyph-name="igrave" unicode="&#xec;" horiz-adv-x="295" 
d="M220 560l-10 -10h-55l-160 160v10q48 29 156 29zM51 0v300q0 49 -8.5 90t-17.5 58l-9 17l15 15q55 0 106 4t74 8l23 3l15 -15v-480h-198z" />
    <glyph glyph-name="iacute" unicode="&#xed;" horiz-adv-x="295" 
d="M70 550l-10 10l70 189q48 0 86.5 -7.5t53.5 -14.5l15 -7v-10l-159 -160h-56zM51 0v300q0 49 -8.5 90t-17.5 58l-9 17l15 15q55 0 106 4t74 8l23 3l15 -15v-480h-198z" />
    <glyph glyph-name="icircumflex" unicode="&#xee;" horiz-adv-x="295" 
d="M51 0v300q0 49 -8.5 90t-17.5 58l-9 17l15 15q55 0 106 4t74 8l23 3l15 -15v-480h-198zM325 560l-10 -10h-65l-102 76l-102 -76h-66l-10 10l154 189h48z" />
    <glyph glyph-name="idieresis" unicode="&#xef;" horiz-adv-x="295" 
d="M51 0v300q0 49 -8.5 90t-17.5 58l-9 17l15 15q55 0 106 4t74 8l23 3l15 -15v-480h-198zM-34 628q0 36 22.5 58t59.5 22t58.5 -22t21.5 -58q0 -38 -21.5 -60.5t-58.5 -22.5t-59.5 22.5t-22.5 60.5zM166 628q0 36 23 58t60 22q36 0 58 -22t22 -58q0 -37 -22 -60t-58 -23
q-37 0 -60 22.5t-23 60.5z" />
    <glyph glyph-name="eth" unicode="&#xf0;" horiz-adv-x="580" 
d="M229 527l-56 57l52 52q-28 27 -58 46.5t-47 25.5l-16 7l47 47q65 -13 143 -57l57 57l56 -57l-44 -44q190 -145 196 -405q1 -5 1 -16q0 -113 -74.5 -182.5t-195.5 -69.5t-195 69.5t-74 182.5t74 182.5t195 69.5q11 0 33 -2q-19 44 -46 85zM243 240q0 -192 47 -192t47 192
t-47 192t-47 -192z" />
    <glyph glyph-name="ntilde" unicode="&#xf1;" horiz-adv-x="581" 
d="M337 0v336q0 50 -50 50q-9 0 -18.5 -2t-14.5 -4l-5 -1v-379h-198v300q0 49 -8.5 90t-17.5 58l-9 17l15 15q55 0 106 4t74 8l23 3l15 -15l-5 -40l5 -5q7 6 20 15.5t53.5 25.5t80.5 16q68 0 100 -39t32 -97v-356h-198zM247 682q26 0 56.5 -18.5t52.5 -18.5q21 0 41 10
t29 20l10 10l28 -28q-2 -4 -5 -11.5t-15.5 -26.5t-26 -33.5t-36.5 -26.5t-48 -12q-26 0 -56.5 18.5t-52.5 18.5q-21 0 -40.5 -10t-29.5 -20l-9 -10l-28 28q2 4 5 11.5t15 26.5t26 33.5t36.5 26.5t47.5 12z" />
    <glyph glyph-name="ograve" unicode="&#xf2;" horiz-adv-x="580" 
d="M21 240q0 113 74 182.5t195 69.5t195.5 -69.5t74.5 -182.5t-74.5 -182.5t-195.5 -69.5t-195 69.5t-74 182.5zM243 240q0 -192 47 -192t47 192t-47 192t-47 -192zM363 560l-10 -10h-56l-159 160v10q47 29 155 29z" />
    <glyph glyph-name="oacute" unicode="&#xf3;" horiz-adv-x="580" 
d="M21 240q0 113 74 182.5t195 69.5t195.5 -69.5t74.5 -182.5t-74.5 -182.5t-195.5 -69.5t-195 69.5t-74 182.5zM243 240q0 -192 47 -192t47 192t-47 192t-47 -192zM228 550l-10 10l69 189q48 0 87 -7.5t54 -14.5l15 -7v-10l-160 -160h-55z" />
    <glyph glyph-name="ocircumflex" unicode="&#xf4;" horiz-adv-x="580" 
d="M21 240q0 113 74 182.5t195 69.5t195.5 -69.5t74.5 -182.5t-74.5 -182.5t-195.5 -69.5t-195 69.5t-74 182.5zM243 240q0 -192 47 -192t47 192t-47 192t-47 -192zM468 560l-10 -10h-66l-102 76l-102 -76h-65l-10 10l153 189h48z" />
    <glyph glyph-name="otilde" unicode="&#xf5;" horiz-adv-x="580" 
d="M21 240q0 113 74 182.5t195 69.5t195.5 -69.5t74.5 -182.5t-74.5 -182.5t-195.5 -69.5t-195 69.5t-74 182.5zM243 240q0 -192 47 -192t47 192t-47 192t-47 -192zM247 682q26 0 56.5 -18.5t52.5 -18.5q21 0 41 10t29 20l10 10l28 -28q-2 -4 -5 -11.5t-15.5 -26.5
t-26 -33.5t-36.5 -26.5t-48 -12q-26 0 -56.5 18.5t-52.5 18.5q-21 0 -41 -10t-29 -20l-10 -10l-27 28q2 4 5 11.5t15 26.5t26 33.5t36.5 26.5t47.5 12z" />
    <glyph glyph-name="odieresis" unicode="&#xf6;" horiz-adv-x="580" 
d="M21 240q0 113 74 182.5t195 69.5t195.5 -69.5t74.5 -182.5t-74.5 -182.5t-195.5 -69.5t-195 69.5t-74 182.5zM243 240q0 -192 47 -192t47 192t-47 192t-47 -192zM98 628q0 36 22.5 58t59.5 22t59 -22t22 -58q0 -38 -22 -60.5t-59 -22.5t-59.5 23t-22.5 60zM319 628
q0 36 22.5 58t59.5 22t59 -22t22 -58q0 -38 -22 -60.5t-59 -22.5t-59.5 23t-22.5 60z" />
    <glyph glyph-name="divide" unicode="&#xf7;" 
d="M75 285v80h440v-80h-440zM213 162q0 37 22 59t59 22q38 0 59.5 -21.5t21.5 -59.5q0 -37 -22 -59t-59 -22t-59 22t-22 59zM214 487q0 37 21.5 59t58.5 22t59 -22t22 -59t-22 -58.5t-59 -21.5t-58.5 21.5t-21.5 58.5z" />
    <glyph glyph-name="oslash" unicode="&#xf8;" horiz-adv-x="580" 
d="M85 -1l29 42q-93 71 -93 199q0 113 74 182.5t195 69.5q65 0 123 -24l24 34l52 -31l-23 -33q94 -70 94 -198q0 -113 -74.5 -182.5t-195.5 -69.5q-64 0 -123 23l-30 -43zM342 240v21l-96 -137q13 -76 44 -76q52 0 52 192zM239 240v-21l95 136q-13 77 -44 77q-51 0 -51 -192
z" />
    <glyph glyph-name="ugrave" unicode="&#xf9;" horiz-adv-x="585" 
d="M249 480v-336q0 -50 49 -50q10 0 19.5 2t14.5 4l5 3v197q0 49 -5 90t-10 58l-5 17l15 15q53 0 100 4t68 8l20 3l15 -15v-280q0 -49 8.5 -95t16.5 -68l9 -22l-14 -15q-55 0 -106 -3.5t-75 -7.5l-23 -4l-14 15l5 40l-5 5q-7 -6 -19.5 -15.5t-52 -25.5t-80.5 -16
q-70 0 -102 39t-32 97v176q0 49 -8.5 90t-17.5 58l-9 17l15 15q55 0 106 4t74 8l23 3zM365 560l-10 -10h-56l-159 160v10q47 29 155 29z" />
    <glyph glyph-name="uacute" unicode="&#xfa;" horiz-adv-x="585" 
d="M249 480v-336q0 -50 49 -50q10 0 19.5 2t14.5 4l5 3v197q0 49 -5 90t-10 58l-5 17l15 15q53 0 100 4t68 8l20 3l15 -15v-280q0 -49 8.5 -95t16.5 -68l9 -22l-14 -15q-55 0 -106 -3.5t-75 -7.5l-23 -4l-14 15l5 40l-5 5q-7 -6 -19.5 -15.5t-52 -25.5t-80.5 -16
q-70 0 -102 39t-32 97v176q0 49 -8.5 90t-17.5 58l-9 17l15 15q55 0 106 4t74 8l23 3zM230 550l-10 10l69 189q48 0 87 -7.5t54 -14.5l15 -7v-10l-160 -160h-55z" />
    <glyph glyph-name="ucircumflex" unicode="&#xfb;" horiz-adv-x="585" 
d="M249 480v-336q0 -50 49 -50q10 0 19.5 2t14.5 4l5 3v197q0 49 -5 90t-10 58l-5 17l15 15q53 0 100 4t68 8l20 3l15 -15v-280q0 -49 8.5 -95t16.5 -68l9 -22l-14 -15q-55 0 -106 -3.5t-75 -7.5l-23 -4l-14 15l5 40l-5 5q-7 -6 -19.5 -15.5t-52 -25.5t-80.5 -16
q-70 0 -102 39t-32 97v176q0 49 -8.5 90t-17.5 58l-9 17l15 15q55 0 106 4t74 8l23 3zM470 560l-10 -10h-66l-102 76l-102 -76h-65l-10 10l153 189h48z" />
    <glyph glyph-name="udieresis" unicode="&#xfc;" horiz-adv-x="585" 
d="M249 480v-336q0 -50 49 -50q10 0 19.5 2t14.5 4l5 3v197q0 49 -5 90t-10 58l-5 17l15 15q53 0 100 4t68 8l20 3l15 -15v-280q0 -49 8.5 -95t16.5 -68l9 -22l-14 -15q-55 0 -106 -3.5t-75 -7.5l-23 -4l-14 15l5 40l-5 5q-7 -6 -19.5 -15.5t-52 -25.5t-80.5 -16
q-70 0 -102 39t-32 97v176q0 49 -8.5 90t-17.5 58l-9 17l15 15q55 0 106 4t74 8l23 3zM322 628q0 36 22.5 58t59.5 22t59 -22t22 -58q0 -38 -22 -60.5t-59 -22.5t-59.5 23t-22.5 60zM101 628q0 36 22.5 58t59.5 22t59 -22t22 -58q0 -38 -22 -60.5t-59 -22.5t-59.5 23
t-22.5 60z" />
    <glyph glyph-name="yacute" unicode="&#xfd;" horiz-adv-x="539" 
d="M539 480l-228 -550q-20 -48 -36 -93t-23 -66l-6 -21l-10 -10q-42 0 -82 12.5t-59 25.5l-19 12v15q4 3 11 8t26.5 22.5t37 37t39 50.5t36.5 64l5 11l-133 302q-21 47 -45.5 89.5t-38.5 61.5l-14 19l10 10q57 0 109 2.5t76 5.5l24 2l107 -277l39 87q23 51 35.5 93.5
t13.5 59.5l2 17l9 10q22 0 48 2.5t41 5.5l15 2zM221 550l-10 10l70 189q48 0 86.5 -7.5t53.5 -14.5l15 -7v-10l-159 -160h-56z" />
    <glyph glyph-name="thorn" unicode="&#xfe;" horiz-adv-x="585" 
d="M249 -250h-198v700q0 84 -8.5 155.5t-17.5 100.5l-9 29l15 15q55 0 106 4t74 8l23 3l15 -15v-263q0 -15 -4 -43l4 -4q6 6 16.5 14.5t45.5 23t72 14.5q83 0 132.5 -63.5t49.5 -173.5q0 -126 -66.5 -196.5t-184.5 -70.5q-32 0 -65 7v-245zM342 223q0 91 -15.5 127t-45.5 36
q-8 0 -16 -2t-12 -4l-4 -3v-288q0 -19 9.5 -29t24.5 -10q59 0 59 173z" />
    <glyph glyph-name="ydieresis" unicode="&#xff;" horiz-adv-x="539" 
d="M539 480l-228 -550q-20 -48 -36 -93t-23 -66l-6 -21l-10 -10q-42 0 -82 12.5t-59 25.5l-19 12v15q4 3 11 8t26.5 22.5t37 37t39 50.5t36.5 64l5 11l-133 302q-21 47 -45.5 89.5t-38.5 61.5l-14 19l10 10q57 0 109 2.5t76 5.5l24 2l107 -277l39 87q23 51 35.5 93.5
t13.5 59.5l2 17l9 10q22 0 48 2.5t41 5.5l15 2zM313 628q0 36 23 58t60 22q36 0 58 -22t22 -58q0 -37 -22 -60t-58 -23q-38 0 -60.5 22.5t-22.5 60.5zM93 628q0 36 22.5 58t59.5 22t58.5 -22t21.5 -58q0 -38 -21.5 -60.5t-58.5 -22.5t-59.5 22.5t-22.5 60.5z" />
    <glyph glyph-name="Amacron" unicode="&#x100;" horiz-adv-x="721" 
d="M173 171l-62 -171h-101l238 628l-35 57v15h227l271 -700h-214l-66 171h-258zM299 515l-97 -266h199zM204 780v80h294v-80h-294z" />
    <glyph glyph-name="amacron" unicode="&#x101;" horiz-adv-x="567" 
d="M276 492q230 0 230 -146v-231q0 -39 30 -39q6 0 11.5 1.5t7.5 2.5l2 2l28 -27q-2 -3 -6 -7.5t-19 -16t-32 -20.5t-45 -16t-59 -7q-90 0 -111 60q-64 -60 -158 -60q-64 0 -98 33.5t-34 96.5q0 61 47 93.5t181 51.5l57 8v116q0 45 -39 45q-44 0 -44 -59q0 -16 2.5 -30.5
t5.5 -20.5l3 -7l-15 -15q-45 0 -85 4t-58 8l-18 3q-13 20 -13 52q0 60 59.5 92.5t169.5 32.5zM127 580v80h295v-80h-295zM228 144q0 -52 44 -52q10 0 19 3t13 6l4 3v101l-34 -5q-46 -6 -46 -56z" />
    <glyph glyph-name="Abreve" unicode="&#x102;" horiz-adv-x="721" 
d="M173 171l-62 -171h-101l238 628l-35 57v15h227l271 -700h-214l-66 171h-258zM182 868l27 28q6 -6 18 -15t49 -23.5t74 -14.5t72.5 13.5t51.5 26.5l17 13l28 -28q-2 -5 -5 -13.5t-17 -29.5t-31.5 -37t-48.5 -29.5t-67 -13.5t-67 12.5t-48.5 30.5t-30.5 36.5t-18 31.5z
M299 515l-97 -266h199z" />
    <glyph glyph-name="abreve" unicode="&#x103;" horiz-adv-x="567" 
d="M276 492q230 0 230 -146v-231q0 -39 30 -39q6 0 11.5 1.5t7.5 2.5l2 2l28 -27q-2 -3 -6 -7.5t-19 -16t-32 -20.5t-45 -16t-59 -7q-90 0 -111 60q-64 -60 -158 -60q-64 0 -98 33.5t-34 96.5q0 61 47 93.5t181 51.5l57 8v116q0 45 -39 45q-44 0 -44 -59q0 -16 2.5 -30.5
t5.5 -20.5l3 -7l-15 -15q-45 0 -85 4t-58 8l-18 3q-13 20 -13 52q0 60 59.5 92.5t169.5 32.5zM103 668l28 28q6 -6 18 -15t49 -23.5t74 -14.5t72.5 13.5t51.5 26.5l17 13l28 -28q-2 -5 -5 -13.5t-17 -29.5t-31.5 -37t-48.5 -29.5t-67 -13.5q-37 0 -67.5 12.5t-48.5 30.5
t-31 36.5t-17 31.5zM228 144q0 -52 44 -52q10 0 19 3t13 6l4 3v101l-34 -5q-46 -6 -46 -56z" />
    <glyph glyph-name="Aogonek" unicode="&#x104;" horiz-adv-x="721" 
d="M173 171l-62 -171h-101l238 628l-35 57v15h227l271 -700h-57q-38 -45 -38 -97q0 -46 42 -46l26 5l27 -28q-3 -5 -8.5 -12t-26.5 -18.5t-48 -11.5q-42 0 -74 25.5t-32 71.5q0 33 18.5 60.5t32 37t23.5 13.5h-99l-66 171h-258zM299 515l-97 -266h199z" />
    <glyph glyph-name="aogonek" unicode="&#x105;" horiz-adv-x="567" 
d="M276 492q230 0 230 -146v-231q0 -39 30 -39q6 0 11.5 1.5t7.5 2.5l2 2l28 -27q-30 -37 -88 -56q-4 -4 -12 -15.5t-16.5 -35t-8.5 -45.5q0 -46 42 -46l25 5l28 -28q-3 -5 -8.5 -12t-27 -18.5t-48.5 -11.5q-42 0 -74 25.5t-32 71.5q0 60 54 99q-85 1 -106 60
q-64 -60 -158 -60q-64 0 -98 33.5t-34 96.5q0 61 47 93.5t181 51.5l57 8v116q0 45 -39 45q-44 0 -44 -59q0 -16 2.5 -30.5t5.5 -20.5l3 -7l-15 -15q-45 0 -85 4t-58 8l-18 3q-13 20 -13 52q0 60 59.5 92.5t169.5 32.5zM228 144q0 -52 44 -52q10 0 19 3t13 6l4 3v101l-34 -5
q-46 -6 -46 -56z" />
    <glyph glyph-name="Cacute" unicode="&#x106;" horiz-adv-x="714" 
d="M402 647q-63 0 -101 -71.5t-38 -202.5q0 -142 48 -204.5t147 -62.5q54 0 104.5 16t73.5 32l24 17l30 -30q-3 -6 -9 -16.5t-30.5 -37t-54.5 -46.5t-83.5 -36.5t-115.5 -16.5q-163 0 -264.5 100.5t-101.5 262.5t102 261.5t272 99.5q131 0 209.5 -57.5t78.5 -147.5
q0 -21 -4.5 -38t-8.5 -23l-5 -7q-70 -15 -186 -15l-15 15q15 24 15 83q0 62 -23.5 93.5t-63.5 31.5zM324 750l-10 10l69 190q48 0 87 -7.5t54 -14.5l15 -8v-10l-160 -160h-55z" />
    <glyph glyph-name="cacute" unicode="&#x107;" horiz-adv-x="528" 
d="M482 124l28 -28q-2 -4 -7 -11.5t-23.5 -26t-41.5 -33t-63.5 -26t-86.5 -11.5q-120 0 -193.5 69.5t-73.5 184.5q0 113 74 181.5t206 68.5q94 0 151 -34.5t57 -96.5q0 -15 -3.5 -29.5t-7.5 -21.5l-3 -6q-56 -15 -157 -15l-15 15q11 26 11 64q0 64 -35 64q-28 0 -42 -44
t-14 -117q0 -103 28.5 -143.5t88.5 -40.5q32 0 62.5 9.5t45.5 18.5zM232 550l-10 10l69 189q48 0 87 -7.5t54 -14.5l15 -7v-10l-160 -160h-55z" />
    <glyph glyph-name="Ccircumflex" unicode="&#x108;" horiz-adv-x="714" 
d="M402 647q-63 0 -101 -71.5t-38 -202.5q0 -142 48 -204.5t147 -62.5q54 0 104.5 16t73.5 32l24 17l30 -30q-3 -6 -9 -16.5t-30.5 -37t-54.5 -46.5t-83.5 -36.5t-115.5 -16.5q-163 0 -264.5 100.5t-101.5 262.5t102 261.5t272 99.5q131 0 209.5 -57.5t78.5 -147.5
q0 -21 -4.5 -38t-8.5 -23l-5 -7q-70 -15 -186 -15l-15 15q15 24 15 83q0 62 -23.5 93.5t-63.5 31.5zM564 760l-10 -10h-66l-102 76l-102 -76h-65l-10 10l153 190h48z" />
    <glyph glyph-name="ccircumflex" unicode="&#x109;" horiz-adv-x="528" 
d="M482 124l28 -28q-2 -4 -7 -11.5t-23.5 -26t-41.5 -33t-63.5 -26t-86.5 -11.5q-120 0 -193.5 69.5t-73.5 184.5q0 113 74 181.5t206 68.5q94 0 151 -34.5t57 -96.5q0 -15 -3.5 -29.5t-7.5 -21.5l-3 -6q-56 -15 -157 -15l-15 15q11 26 11 64q0 64 -35 64q-28 0 -42 -44
t-14 -117q0 -103 28.5 -143.5t88.5 -40.5q32 0 62.5 9.5t45.5 18.5zM462 560l-10 -10h-66l-102 76l-102 -76h-65l-10 10l153 189h48z" />
    <glyph glyph-name="Cdotaccent" unicode="&#x10a;" horiz-adv-x="714" 
d="M402 647q-63 0 -101 -71.5t-38 -202.5q0 -142 48 -204.5t147 -62.5q54 0 104.5 16t73.5 32l24 17l30 -30q-3 -6 -9 -16.5t-30.5 -37t-54.5 -46.5t-83.5 -36.5t-115.5 -16.5q-163 0 -264.5 100.5t-101.5 262.5t102 261.5t272 99.5q131 0 209.5 -57.5t78.5 -147.5
q0 -21 -4.5 -38t-8.5 -23l-5 -7q-70 -15 -186 -15l-15 15q15 24 15 83q0 62 -23.5 93.5t-63.5 31.5zM295 837q0 41 25 66t66 25t66.5 -25t25.5 -66t-25.5 -66t-66.5 -25t-66 25t-25 66z" />
    <glyph glyph-name="cdotaccent" unicode="&#x10b;" horiz-adv-x="528" 
d="M482 124l28 -28q-2 -4 -7 -11.5t-23.5 -26t-41.5 -33t-63.5 -26t-86.5 -11.5q-120 0 -193.5 69.5t-73.5 184.5q0 113 74 181.5t206 68.5q94 0 151 -34.5t57 -96.5q0 -15 -3.5 -29.5t-7.5 -21.5l-3 -6q-56 -15 -157 -15l-15 15q11 26 11 64q0 64 -35 64q-28 0 -42 -44
t-14 -117q0 -103 28.5 -143.5t88.5 -40.5q32 0 62.5 9.5t45.5 18.5zM196 617q0 41 25 66t66 25t66 -25t25 -66t-25 -66t-66 -25t-66 25t-25 66z" />
    <glyph glyph-name="Ccaron" unicode="&#x10c;" horiz-adv-x="714" 
d="M402 647q-63 0 -101 -71.5t-38 -202.5q0 -142 48 -204.5t147 -62.5q54 0 104.5 16t73.5 32l24 17l30 -30q-3 -6 -9 -16.5t-30.5 -37t-54.5 -46.5t-83.5 -36.5t-115.5 -16.5q-163 0 -264.5 100.5t-101.5 262.5t102 261.5t272 99.5q131 0 209.5 -57.5t78.5 -147.5
q0 -21 -4.5 -38t-8.5 -23l-5 -7q-70 -15 -186 -15l-15 15q15 24 15 83q0 62 -23.5 93.5t-63.5 31.5zM554 945l10 -10l-154 -190h-48l-153 190l10 10h65l102 -76l102 76h66z" />
    <glyph glyph-name="ccaron" unicode="&#x10d;" horiz-adv-x="528" 
d="M482 124l28 -28q-2 -4 -7 -11.5t-23.5 -26t-41.5 -33t-63.5 -26t-86.5 -11.5q-120 0 -193.5 69.5t-73.5 184.5q0 113 74 181.5t206 68.5q94 0 151 -34.5t57 -96.5q0 -15 -3.5 -29.5t-7.5 -21.5l-3 -6q-56 -15 -157 -15l-15 15q11 26 11 64q0 64 -35 64q-28 0 -42 -44
t-14 -117q0 -103 28.5 -143.5t88.5 -40.5q32 0 62.5 9.5t45.5 18.5zM452 744l10 -9l-154 -190h-48l-153 190l10 9h65l102 -75l102 75h66z" />
    <glyph glyph-name="Dcaron" unicode="&#x10e;" horiz-adv-x="767" 
d="M56 0v700h311q166 0 268 -97t102 -253t-102 -253t-268 -97h-311zM357 621h-93v-542h93q68 0 107.5 68t39.5 203t-39.5 203t-107.5 68zM541 945l10 -10l-154 -190h-48l-153 190l10 10h65l102 -76l102 76h66z" />
    <glyph glyph-name="dcaron" unicode="&#x10f;" horiz-adv-x="714" 
d="M302 735l15 15q55 0 106 4t74 8l23 3l15 -15v-450q0 -84 8.5 -155.5t16.5 -100.5l9 -29l-15 -15q-55 0 -105.5 -3.5t-74.5 -7.5l-23 -4l-15 15l5 32l-5 5q-6 -5 -16.5 -13.5t-46 -22t-72.5 -13.5q-84 0 -132 62t-48 172q0 128 66 199t184 71q31 0 64 -7q-2 74 -10 136.5
t-15 88.5zM243 258q0 -164 63 -164q7 0 14.5 2t11.5 4l4 1v293q-1 17 -11 26.5t-23 9.5q-59 0 -59 -172zM577 539l-17 16q38 53 38 128q0 20 -3 37.5t-7 25.5l-3 8l6 6q31 0 60 -4t42 -8l13 -3q6 -12 6 -37q0 -33 -14 -62.5t-34 -48t-39.5 -32.5t-33.5 -20z" />
    <glyph glyph-name="Dcroat" unicode="&#x110;" horiz-adv-x="767" 
d="M5 315v80h51v305h311q166 0 268 -97t102 -253t-102 -253t-268 -97h-311v315h-51zM357 621h-93v-226h116v-80h-116v-236h93q68 0 107.5 68t39.5 203t-39.5 203t-107.5 68z" />
    <glyph glyph-name="dcroat" unicode="&#x111;" horiz-adv-x="585" 
d="M228 560v80h95q-4 28 -9.5 52t-8.5 34l-3 9l15 15q55 0 106 4t74 8l23 3l15 -15v-110h45v-80h-45v-260q0 -84 8.5 -155.5t16.5 -100.5l9 -29l-15 -15q-55 0 -105.5 -3.5t-74.5 -7.5l-23 -4l-15 15l5 32l-5 5q-6 -5 -16.5 -13.5t-46 -22t-72.5 -13.5q-84 0 -132 62
t-48 172q0 128 66 199t184 71q31 0 64 -7q0 41 -3 75h-104zM243 258q0 -164 63 -164q7 0 14.5 2t11.5 4l4 1v293q-1 17 -11 26.5t-23 9.5q-59 0 -59 -172z" />
    <glyph glyph-name="Emacron" unicode="&#x112;" 
d="M56 0v700h489v-104l-15 -15q-6 4 -18.5 11t-55 18t-91.5 11h-101v-221h206l10 -10v-70h-216v-241h111q49 0 90 10t58 20l17 10l15 -15v-104h-499zM158 780v80h294v-80h-294z" />
    <glyph glyph-name="emacron" unicode="&#x113;" horiz-adv-x="538" 
d="M482 124l28 -28q-2 -4 -7 -11.5t-23.5 -26t-41.5 -33t-63.5 -26t-86.5 -11.5q-120 0 -193.5 69.5t-73.5 185.5q0 115 74.5 182t212.5 67q204 0 204 -156q0 -20 -3 -39t-6 -29l-3 -9l-15 -15h-242q4 -87 32 -122t86 -35q32 0 62.5 9.5t44.5 18.5zM142 580v80h294v-80h-294
zM302 432q-51 0 -58 -126l85 8q5 25 5 52q0 66 -32 66z" />
    <glyph glyph-name="Ebreve" unicode="&#x114;" 
d="M56 0v700h489v-104l-15 -15q-6 4 -18.5 11t-55 18t-91.5 11h-101v-221h206l10 -10v-70h-216v-241h111q49 0 90 10t58 20l17 10l15 -15v-104h-499zM137 868l28 28q6 -6 18 -15t48.5 -23.5t73.5 -14.5t72.5 13.5t52.5 26.5l16 13l28 -28q-2 -5 -5 -13.5t-17 -29.5
t-31.5 -37t-48.5 -29.5t-67 -13.5t-67 12.5t-48.5 30.5t-30.5 36.5t-17 31.5z" />
    <glyph glyph-name="ebreve" unicode="&#x115;" horiz-adv-x="538" 
d="M482 124l28 -28q-2 -4 -7 -11.5t-23.5 -26t-41.5 -33t-63.5 -26t-86.5 -11.5q-120 0 -193.5 69.5t-73.5 185.5q0 115 74.5 182t212.5 67q204 0 204 -156q0 -20 -3 -39t-6 -29l-3 -9l-15 -15h-242q4 -87 32 -122t86 -35q32 0 62.5 9.5t44.5 18.5zM121 668l27 28
q6 -6 18 -15t49 -23.5t74 -14.5t72.5 13.5t52.5 26.5l16 13l28 -28q-2 -5 -5 -13.5t-17 -29.5t-31.5 -37t-48.5 -29.5t-67 -13.5t-67 12.5t-48.5 30.5t-30.5 36.5t-17 31.5zM302 432q-51 0 -58 -126l85 8q5 25 5 52q0 66 -32 66z" />
    <glyph glyph-name="Edotaccent" unicode="&#x116;" 
d="M56 0v700h489v-104l-15 -15q-6 4 -18.5 11t-55 18t-91.5 11h-101v-221h206l10 -10v-70h-216v-241h111q49 0 90 10t58 20l17 10l15 -15v-104h-499zM214 837q0 41 25 66t66 25t66.5 -25t25.5 -66t-25.5 -66t-66.5 -25t-66 25t-25 66z" />
    <glyph glyph-name="edotaccent" unicode="&#x117;" horiz-adv-x="538" 
d="M482 124l28 -28q-2 -4 -7 -11.5t-23.5 -26t-41.5 -33t-63.5 -26t-86.5 -11.5q-120 0 -193.5 69.5t-73.5 185.5q0 115 74.5 182t212.5 67q204 0 204 -156q0 -20 -3 -39t-6 -29l-3 -9l-15 -15h-242q4 -87 32 -122t86 -35q32 0 62.5 9.5t44.5 18.5zM204 617q0 41 25 66
t66 25t66 -25t25 -66t-25 -66t-66 -25t-66 25t-25 66zM302 432q-51 0 -58 -126l85 8q5 25 5 52q0 66 -32 66z" />
    <glyph glyph-name="Eogonek" unicode="&#x118;" 
d="M56 0v700h489v-104l-15 -15q-6 4 -18.5 11t-55 18t-91.5 11h-101v-221h206l10 -10v-70h-216v-241h111q49 0 90 10t58 20l17 10l15 -15v-104h-57q-38 -45 -38 -97q0 -46 42 -46l25 5l28 -28q-3 -5 -8.5 -12t-27 -18.5t-48.5 -11.5q-42 0 -73.5 25.5t-31.5 71.5
q0 26 10 47.5t25 35t23 19.5t15 9h-383z" />
    <glyph glyph-name="eogonek" unicode="&#x119;" horiz-adv-x="538" 
d="M482 124l28 -28q-4 -6 -11.5 -16.5t-35.5 -34.5t-63 -38q-36 -41 -36 -94q0 -46 42 -46l25 5l28 -28q-3 -5 -8.5 -12t-27 -18.5t-48.5 -11.5q-42 0 -73.5 25.5t-31.5 71.5q0 54 42 90q-4 0 -11.5 -0.5t-12.5 -0.5q-120 0 -193.5 69.5t-73.5 185.5q0 115 74.5 182
t212.5 67q204 0 204 -156q0 -20 -3 -39t-6 -29l-3 -9l-15 -15h-242q4 -87 32 -122t86 -35q32 0 62.5 9.5t44.5 18.5zM302 432q-51 0 -58 -126l85 8q5 25 5 52q0 66 -32 66z" />
    <glyph glyph-name="Ecaron" unicode="&#x11a;" 
d="M56 0v700h489v-104l-15 -15q-6 4 -18.5 11t-55 18t-91.5 11h-101v-221h206l10 -10v-70h-216v-241h111q49 0 90 10t58 20l17 10l15 -15v-104h-499zM473 945l10 -10l-154 -190h-47l-154 190l10 10h65l102 -76l102 76h66z" />
    <glyph glyph-name="ecaron" unicode="&#x11b;" horiz-adv-x="538" 
d="M482 124l28 -28q-2 -4 -7 -11.5t-23.5 -26t-41.5 -33t-63.5 -26t-86.5 -11.5q-120 0 -193.5 69.5t-73.5 185.5q0 115 74.5 182t212.5 67q204 0 204 -156q0 -20 -3 -39t-6 -29l-3 -9l-15 -15h-242q4 -87 32 -122t86 -35q32 0 62.5 9.5t44.5 18.5zM447 744l10 -9l-154 -190
h-48l-153 190l10 9h65l102 -75l102 75h66zM302 432q-51 0 -58 -126l85 8q5 25 5 52q0 66 -32 66z" />
    <glyph glyph-name="Gcircumflex" unicode="&#x11c;" horiz-adv-x="714" 
d="M426 273v70h56q55 0 103.5 3.5t68.5 7.5l21 4l15 -15v-242q-3 -5 -9.5 -12.5t-31 -27t-54 -34.5t-80.5 -27t-108 -12q-173 0 -274.5 99.5t-101.5 263.5q0 163 101.5 262t277.5 99q127 0 203.5 -52t76.5 -140q0 -21 -4 -37.5t-8 -22.5l-5 -6q-71 -15 -187 -15l-15 15
q16 22 16 81q0 112 -81 112q-66 0 -104.5 -70.5t-38.5 -203.5q0 -287 185 -287q27 0 54 6v71q0 52 -11 100h-55zM564 760l-10 -10h-66l-102 76l-102 -76h-65l-10 10l153 190h48z" />
    <glyph glyph-name="gcircumflex" unicode="&#x11d;" horiz-adv-x="579" 
d="M165 -49l15 -15q-16 -26 -16 -58q0 -68 118 -68q128 0 128 73q0 23 -11 37.5t-33.5 21.5t-41.5 9t-50 3q-35 1 -52 2t-49.5 4t-49.5 8t-40.5 14.5t-35.5 22.5t-21 32.5t-9 44.5q0 76 68 136q-58 43 -58 112q0 72 65.5 117t173.5 45q89 0 149 -31q66 87 147 87
q15 -50 15 -142l-15 -15q-18 13 -51 13q-10 0 -26 -2q21 -32 21 -72q0 -72 -65.5 -117t-174.5 -45q-62 0 -110 15q-4 -8 -4 -23q0 -17 8 -27.5t29.5 -15t39.5 -6t55 -1.5q52 -1 84.5 -2.5t67.5 -6.5t54.5 -13.5t37 -23t24.5 -36t7 -51.5q0 -108 -92 -173t-248 -65
q-107 0 -168 34t-61 105q0 17 3.5 31.5t6.5 20.5l4 6q60 15 161 15zM444 560l-10 -10h-66l-102 76l-102 -76h-65l-10 10l153 189h48zM225 330q0 -103 41 -103t41 103q0 102 -41 102t-41 -102z" />
    <glyph glyph-name="Gbreve" unicode="&#x11e;" horiz-adv-x="714" 
d="M426 273v70h56q55 0 103.5 3.5t68.5 7.5l21 4l15 -15v-242q-3 -5 -9.5 -12.5t-31 -27t-54 -34.5t-80.5 -27t-108 -12q-173 0 -274.5 99.5t-101.5 263.5q0 163 101.5 262t277.5 99q127 0 203.5 -52t76.5 -140q0 -21 -4 -37.5t-8 -22.5l-5 -6q-71 -15 -187 -15l-15 15
q16 22 16 81q0 112 -81 112q-66 0 -104.5 -70.5t-38.5 -203.5q0 -287 185 -287q27 0 54 6v71q0 52 -11 100h-55zM218 868l28 28q6 -6 18 -15t48.5 -23.5t73.5 -14.5t72.5 13.5t51.5 26.5l17 13l28 -28q-2 -5 -5 -13.5t-17 -29.5t-31.5 -37t-48.5 -29.5t-67 -13.5t-67 12.5
t-48.5 30.5t-30.5 36.5t-18 31.5z" />
    <glyph glyph-name="gbreve" unicode="&#x11f;" horiz-adv-x="579" 
d="M165 -49l15 -15q-16 -26 -16 -58q0 -68 118 -68q128 0 128 73q0 23 -11 37.5t-33.5 21.5t-41.5 9t-50 3q-35 1 -52 2t-49.5 4t-49.5 8t-40.5 14.5t-35.5 22.5t-21 32.5t-9 44.5q0 76 68 136q-58 43 -58 112q0 72 65.5 117t173.5 45q89 0 149 -31q66 87 147 87
q15 -50 15 -142l-15 -15q-18 13 -51 13q-10 0 -26 -2q21 -32 21 -72q0 -72 -65.5 -117t-174.5 -45q-62 0 -110 15q-4 -8 -4 -23q0 -17 8 -27.5t29.5 -15t39.5 -6t55 -1.5q52 -1 84.5 -2.5t67.5 -6.5t54.5 -13.5t37 -23t24.5 -36t7 -51.5q0 -108 -92 -173t-248 -65
q-107 0 -168 34t-61 105q0 17 3.5 31.5t6.5 20.5l4 6q60 15 161 15zM97 668l27 28q6 -6 18 -15t49 -23.5t74 -14.5t72.5 13.5t52.5 26.5l16 13l28 -28q-2 -5 -5 -13.5t-17 -29.5t-31.5 -37t-48.5 -29.5t-67 -13.5t-67 12.5t-48.5 30.5t-30.5 36.5t-17 31.5zM225 330
q0 -103 41 -103t41 103q0 102 -41 102t-41 -102z" />
    <glyph glyph-name="Gdotaccent" unicode="&#x120;" horiz-adv-x="714" 
d="M426 273v70h56q55 0 103.5 3.5t68.5 7.5l21 4l15 -15v-242q-3 -5 -9.5 -12.5t-31 -27t-54 -34.5t-80.5 -27t-108 -12q-173 0 -274.5 99.5t-101.5 263.5q0 163 101.5 262t277.5 99q127 0 203.5 -52t76.5 -140q0 -21 -4 -37.5t-8 -22.5l-5 -6q-71 -15 -187 -15l-15 15
q16 22 16 81q0 112 -81 112q-66 0 -104.5 -70.5t-38.5 -203.5q0 -287 185 -287q27 0 54 6v71q0 52 -11 100h-55zM295 837q0 41 25 66t66 25t66.5 -25t25.5 -66t-25.5 -66t-66.5 -25t-66 25t-25 66z" />
    <glyph glyph-name="gdotaccent" unicode="&#x121;" horiz-adv-x="579" 
d="M165 -49l15 -15q-16 -26 -16 -58q0 -68 118 -68q128 0 128 73q0 23 -11 37.5t-33.5 21.5t-41.5 9t-50 3q-35 1 -52 2t-49.5 4t-49.5 8t-40.5 14.5t-35.5 22.5t-21 32.5t-9 44.5q0 76 68 136q-58 43 -58 112q0 72 65.5 117t173.5 45q89 0 149 -31q66 87 147 87
q15 -50 15 -142l-15 -15q-18 13 -51 13q-10 0 -26 -2q21 -32 21 -72q0 -72 -65.5 -117t-174.5 -45q-62 0 -110 15q-4 -8 -4 -23q0 -17 8 -27.5t29.5 -15t39.5 -6t55 -1.5q52 -1 84.5 -2.5t67.5 -6.5t54.5 -13.5t37 -23t24.5 -36t7 -51.5q0 -108 -92 -173t-248 -65
q-107 0 -168 34t-61 105q0 17 3.5 31.5t6.5 20.5l4 6q60 15 161 15zM175 617q0 41 25 66t66 25t66 -25t25 -66t-25 -66t-66 -25q-40 0 -65.5 25t-25.5 66zM225 330q0 -103 41 -103t41 103q0 102 -41 102t-41 -102z" />
    <glyph glyph-name="Gcommaaccent" unicode="&#x122;" horiz-adv-x="714" 
d="M426 273v70h56q55 0 103.5 3.5t68.5 7.5l21 4l15 -15v-242q-3 -5 -9.5 -12.5t-31 -27t-54 -34.5t-80.5 -27t-108 -12q-173 0 -274.5 99.5t-101.5 263.5q0 163 101.5 262t277.5 99q127 0 203.5 -52t76.5 -140q0 -21 -4 -37.5t-8 -22.5l-5 -6q-71 -15 -187 -15l-15 15
q16 22 16 81q0 112 -81 112q-66 0 -104.5 -70.5t-38.5 -203.5q0 -287 185 -287q27 0 54 6v71q0 52 -11 100h-55zM328 -262l-17 17q38 53 38 128q0 20 -3.5 38t-6.5 25l-3 8l6 6q31 0 59.5 -3.5t41.5 -7.5l13 -4q6 -12 6 -37q0 -33 -14 -63t-33.5 -48.5t-39 -32.5t-33.5 -20z
" />
    <glyph glyph-name="gcommaaccent" unicode="&#x123;" horiz-adv-x="579" 
d="M165 -49l15 -15q-16 -26 -16 -58q0 -68 118 -68q128 0 128 73q0 23 -11 37.5t-33.5 21.5t-41.5 9t-50 3q-35 1 -52 2t-49.5 4t-49.5 8t-40.5 14.5t-35.5 22.5t-21 32.5t-9 44.5q0 76 68 136q-58 43 -58 112q0 72 65.5 117t173.5 45q89 0 149 -31q66 87 147 87
q15 -50 15 -142l-15 -15q-18 13 -51 13q-10 0 -26 -2q21 -32 21 -72q0 -72 -65.5 -117t-174.5 -45q-62 0 -110 15q-4 -8 -4 -23q0 -17 8 -27.5t29.5 -15t39.5 -6t55 -1.5q52 -1 84.5 -2.5t67.5 -6.5t54.5 -13.5t37 -23t24.5 -36t7 -51.5q0 -108 -92 -173t-248 -65
q-107 0 -168 34t-61 105q0 17 3.5 31.5t6.5 20.5l4 6q60 15 161 15zM341 761l17 -17q-38 -53 -38 -127q0 -20 3 -37.5t7 -25.5l3 -8l-6 -6q-31 0 -60 4t-42 8l-13 3q-6 12 -6 37q0 33 14 62.5t34 48t39.5 32.5t33.5 20zM225 330q0 -103 41 -103t41 103q0 102 -41 102
t-41 -102z" />
    <glyph glyph-name="Hcircumflex" unicode="&#x124;" horiz-adv-x="770" 
d="M507 0v320h-243v-320h-208v700h208v-300h243v300h208v-700h-208zM563 760l-10 -10h-66l-102 76l-102 -76h-65l-10 10l153 190h48z" />
    <glyph glyph-name="hcircumflex" unicode="&#x125;" horiz-adv-x="576" 
d="M46 0v450q0 84 -9 155.5t-17 100.5l-9 29l15 15q55 0 106 4t74 8l23 3l15 -15v-263l-5 -47l5 -5q7 6 20 15.5t53.5 25.5t80.5 16q68 0 100 -39t32 -97v-356h-198v336q0 50 -50 50q-9 0 -18.5 -2t-14.5 -4l-5 -1v-379h-198zM321 790l-10 -10h-65l-102 75l-102 -75h-66
l-10 10l154 189h48z" />
    <glyph glyph-name="Hbar" unicode="&#x126;" horiz-adv-x="770" 
d="M507 0v320h-243v-320h-208v500h-51v80h51v120h208v-120h243v120h208v-120h50v-80h-50v-500h-208zM264 500v-100h243v100h-243z" />
    <glyph glyph-name="hbar" unicode="&#x127;" horiz-adv-x="581" 
d="M-19 565v40l70 36v109h198v-115h145v-70h-145v-78l-5 -47l5 -5q7 6 20 15.5t53.5 25.5t80.5 16q68 0 100 -39t32 -97v-356h-198v336q0 50 -50 50q-9 0 -18.5 -2t-14.5 -4l-5 -1v-379h-198v565h-70z" />
    <glyph glyph-name="Itilde" unicode="&#x128;" horiz-adv-x="320" 
d="M56 0v700h208v-700h-208zM117 882q26 0 56.5 -18.5t52.5 -18.5q21 0 40.5 10t29.5 20l9 10l28 -28q-2 -4 -5 -11.5t-15 -26.5t-26 -33.5t-36.5 -26.5t-47.5 -12q-26 0 -56.5 18.5t-52.5 18.5q-21 0 -41 -10t-29 -20l-10 -10l-28 28q2 4 5 11.5t15.5 26.5t26 33.5
t36.5 26.5t48 12z" />
    <glyph glyph-name="itilde" unicode="&#x129;" horiz-adv-x="295" 
d="M105 682q26 0 56.5 -18.5t52.5 -18.5q21 0 41 10t29 20l10 10l27 -28q-2 -4 -5 -11.5t-15 -26.5t-26 -33.5t-36.5 -26.5t-47.5 -12q-26 0 -56.5 18.5t-52.5 18.5q-21 0 -41 -10t-29 -20l-10 -10l-28 28q2 4 5 11.5t15.5 26.5t26 33.5t36.5 26.5t48 12zM51 0v300
q0 49 -8.5 90t-17.5 58l-9 17l15 15q55 0 106 4t74 8l23 3l15 -15v-480h-198z" />
    <glyph glyph-name="Imacron" unicode="&#x12a;" horiz-adv-x="320" 
d="M56 0v700h208v-700h-208zM12 780v80h294v-80h-294z" />
    <glyph glyph-name="imacron" unicode="&#x12b;" horiz-adv-x="295" 
d="M0 580v80h294v-80h-294zM51 0v300q0 49 -8.5 90t-17.5 58l-9 17l15 15q55 0 106 4t74 8l23 3l15 -15v-480h-198z" />
    <glyph glyph-name="Ibreve" unicode="&#x12c;" horiz-adv-x="320" 
d="M56 0v700h208v-700h-208zM-9 868l28 28q6 -6 18 -15t49 -23.5t74 -14.5t72 13.5t52 26.5l16 13l28 -28q-2 -5 -5 -13.5t-17 -29.5t-31 -37t-48 -29.5t-67 -13.5q-37 0 -67.5 12.5t-48.5 30.5t-31 36.5t-17 31.5z" />
    <glyph glyph-name="ibreve" unicode="&#x12d;" horiz-adv-x="295" 
d="M-26 668l28 28q6 -6 18 -15t49 -23.5t74 -14.5t72.5 13.5t52.5 26.5l16 13l27 -28q-2 -5 -5 -13.5t-17 -29.5t-31 -37t-48 -29.5t-67 -13.5q-37 0 -67.5 12.5t-48.5 30.5t-31 36.5t-18 31.5zM51 0v300q0 49 -8.5 90t-17.5 58l-9 17l15 15q55 0 106 4t74 8l23 3l15 -15
v-480h-198z" />
    <glyph glyph-name="Iogonek" unicode="&#x12e;" horiz-adv-x="320" 
d="M56 0v700h208v-700h-57q-38 -45 -38 -97q0 -46 42 -46l26 5l27 -28q-3 -5 -8.5 -12t-26.5 -18.5t-48 -11.5q-42 0 -74 25.5t-32 71.5q0 33 18.5 60.5t32 37t23.5 13.5h-93z" />
    <glyph glyph-name="iogonek" unicode="&#x12f;" horiz-adv-x="295" 
d="M51 0v300q0 49 -9 90t-18 58l-9 17l15 15q55 0 106 4t74 8l24 3l15 -15v-480h-51q-38 -45 -38 -97q0 -46 42 -46l26 5l27 -28q-3 -5 -8.5 -12t-26.5 -18.5t-48 -11.5q-42 0 -74 25.5t-32 71.5q0 33 18.5 60.5t32 37t23.5 13.5h-89zM28 640q0 51 31 82.5t83 31.5
q51 0 82.5 -31.5t31.5 -82.5q0 -52 -31.5 -83t-82.5 -31q-52 0 -83 31t-31 83z" />
    <glyph glyph-name="Idotaccent" unicode="&#x130;" horiz-adv-x="320" 
d="M56 0v700h208v-700h-208zM49 855q0 49 30.5 79.5t79.5 30.5t79 -30.5t30 -79.5t-30 -79t-79 -30q-50 0 -80 30t-30 79z" />
    <glyph glyph-name="dotlessi" unicode="&#x131;" horiz-adv-x="295" 
d="M51 0v300q0 49 -8.5 90t-17.5 58l-9 17l15 15q55 0 106 4t74 8l23 3l15 -15v-480h-198z" />
    <glyph glyph-name="IJ" unicode="&#x132;" horiz-adv-x="645" 
d="M56 325v375h208v-375h-208zM312 53q69 0 69 159v488h208v-481q0 -105 -74.5 -168t-211.5 -63q-116 0 -186.5 43.5t-70.5 113.5q0 17 4.5 33.5t9.5 24.5l4 8q67 15 183 15l19 -15q-16 -30 -16 -74q0 -41 17 -62.5t45 -21.5z" />
    <glyph glyph-name="ij" unicode="&#x133;" horiz-adv-x="589" 
d="M51 0v300q0 49 -9 90t-18 58l-9 17l15 15q55 0 106 4t74 8l24 3l15 -15v-480h-198zM28 640q0 51 31 82.5t83 31.5q51 0 82.5 -31.5t31.5 -82.5q0 -52 -31.5 -83t-82.5 -31q-52 0 -83 31t-31 83zM345 -20v320q0 49 -8.5 90t-16.5 58l-9 17l15 15q55 0 105.5 4t74.5 8l23 3
l15 -15v-431q0 -62 -26.5 -117t-64 -89.5t-75 -60t-64.5 -36.5l-26 -11l-28 28q3 4 9 11t20.5 29.5t26 46.5t20.5 59.5t9 70.5zM322 640q0 51 31.5 82.5t83.5 31.5q51 0 82.5 -31.5t31.5 -82.5q0 -52 -31.5 -83t-82.5 -31q-52 0 -83.5 31t-31.5 83z" />
    <glyph glyph-name="Jcircumflex" unicode="&#x134;" horiz-adv-x="508" 
d="M244 212v488h209v-481q0 -231 -260 -231q-61 0 -107.5 12.5t-63.5 25.5l-16 12q0 34 9 66t22 54.5t26 40t22 25.5l9 9h13q1 -7 3.5 -19.5t11.5 -43.5t19 -54.5t26.5 -43t33.5 -19.5q22 0 32.5 34.5t10.5 124.5zM531 760l-10 -10h-66l-102 76l-102 -76h-65l-10 10l154 190
h47z" />
    <glyph glyph-name="jcircumflex" unicode="&#x135;" horiz-adv-x="295" 
d="M51 -20v320q0 49 -8.5 90t-17.5 58l-9 17l15 15q55 0 106 4t74 8l23 3l15 -15v-431q0 -62 -26.5 -117t-64 -89.5t-75 -60t-63.5 -36.5l-27 -11l-28 28q3 4 9 11t21 29.5t26 46.5t20.5 59.5t9.5 70.5zM325 560l-10 -10h-65l-102 76l-102 -76h-66l-10 10l154 189h48z" />
    <glyph glyph-name="Kcommaaccent" unicode="&#x136;" horiz-adv-x="706" 
d="M56 0v700h208v-290h20l230 290h119l-204 -253l138 -249q28 -51 61.5 -96.5t53.5 -65.5l19 -21v-15h-250l-183 330h-4v-330h-208zM294 -262l-17 17q38 53 38 128q0 20 -3.5 38t-6.5 25l-3 8l6 6q31 0 59.5 -3.5t41.5 -7.5l13 -4q6 -12 6 -37q0 -33 -14 -63t-33.5 -48.5
t-39 -32.5t-33.5 -20z" />
    <glyph glyph-name="kcommaaccent" unicode="&#x137;" horiz-adv-x="580" 
d="M46 0v450q0 84 -9 155.5t-17 100.5l-9 29l15 15q55 0 106 4t74 8l23 3l15 -15v-440l21 3l14 17q36 41 57 76t24 50l3 14l9 10h154l-127 -153l61 -127q24 -50 53 -95t45 -65l17 -20v-20q-55 0 -106.5 -2.5t-75.5 -5.5l-24 -2l-125 231v-221h-198zM231 -262l-17 17
q38 53 38 128q0 20 -3 38t-7 25l-3 8l6 6q31 0 59.5 -3.5t41.5 -7.5l13 -4q6 -12 6 -37q0 -33 -14 -63t-33.5 -48.5t-39 -32.5t-33.5 -20z" />
    <glyph glyph-name="Lacute" unicode="&#x139;" horiz-adv-x="545" 
d="M56 0v700h208v-621h81q49 0 90 10t58 20l17 10l15 -15v-104h-469zM88 750l-10 10l70 190q48 0 87 -7.5t53 -14.5l15 -8v-10l-159 -160h-56z" />
    <glyph glyph-name="lacute" unicode="&#x13a;" horiz-adv-x="290" 
d="M46 0v450q0 84 -9 155.5t-17 100.5l-9 29l15 15q55 0 106 4t74 8l23 3l15 -15v-750h-198zM82 780l-10 10l70 189q48 0 86.5 -7.5t53.5 -14.5l15 -7v-10l-159 -160h-56z" />
    <glyph glyph-name="Lcommaaccent" unicode="&#x13b;" horiz-adv-x="545" 
d="M56 0v700h208v-621h81q49 0 90 10t58 20l17 10l15 -15v-104h-469zM214 -262l-17 17q38 53 38 128q0 20 -3.5 38t-6.5 25l-3 8l6 6q31 0 59.5 -3.5t41.5 -7.5l13 -4q6 -12 6 -37q0 -33 -14 -63t-33.5 -48.5t-39 -32.5t-33.5 -20z" />
    <glyph glyph-name="lcommaaccent" unicode="&#x13c;" horiz-adv-x="290" 
d="M46 0v450q0 84 -9 155.5t-17 100.5l-9 29l15 15q55 0 106 4t74 8l23 3l15 -15v-750h-198zM81 -262l-17 17q38 53 38 128q0 20 -3 37.5t-7 25.5l-3 8l6 6q31 0 59.5 -3.5t41.5 -7.5l13 -4q6 -12 6 -37q0 -33 -14 -63t-33.5 -48.5t-39 -32.5t-33.5 -20z" />
    <glyph glyph-name="Lcaron" unicode="&#x13d;" horiz-adv-x="545" 
d="M56 0v700h208v-621h81q49 0 90 10t58 20l17 10l15 -15v-104h-469zM361 491l-16 16q38 53 38 128q0 20 -3.5 37.5t-6.5 25.5l-3 8l6 6q31 0 59.5 -4t41.5 -8l13 -3q6 -12 6 -37q0 -33 -14 -62.5t-33.5 -48t-39.5 -32.5t-34 -20z" />
    <glyph glyph-name="lcaron" unicode="&#x13e;" horiz-adv-x="424" 
d="M46 0v450q0 84 -9 155.5t-17 100.5l-9 29l15 15q55 0 106 4t74 8l23 3l15 -15v-750h-198zM287 529l-17 17q38 52 38 127q0 20 -3 37.5t-7 25.5l-3 8l6 6q31 0 59.5 -4t41.5 -8l13 -3q6 -12 6 -37q0 -33 -14 -62.5t-33.5 -48t-39 -32.5t-33.5 -20z" />
    <glyph glyph-name="Ldot" unicode="&#x13f;" horiz-adv-x="545" 
d="M56 0v700h208v-621h81q49 0 90 10t58 20l17 10l15 -15v-104h-469zM330 349q0 46 28 74t73 28q47 0 74.5 -27.5t27.5 -74.5q0 -46 -28 -73.5t-74 -27.5q-45 0 -73 27.5t-28 73.5z" />
    <glyph glyph-name="ldot" unicode="&#x140;" horiz-adv-x="473" 
d="M46 0v450q0 84 -9 155.5t-17 100.5l-9 29l15 15q55 0 106 4t74 8l23 3l15 -15v-750h-198zM285 324q0 46 28 74t73 28q46 0 74 -28t28 -74t-28 -73.5t-74 -27.5q-45 0 -73 27.5t-28 73.5z" />
    <glyph glyph-name="Lslash" unicode="&#x141;" horiz-adv-x="570" 
d="M30 237l-30 52l80 49v362h209v-235l60 37l30 -51l-90 -55v-317h81q49 0 90 10t58 20l17 10l15 -15v-104h-470v267z" />
    <glyph glyph-name="lslash" unicode="&#x142;" horiz-adv-x="329" 
d="M30 237l-30 52l66 38v123q0 84 -9 155.5t-17 100.5l-9 29l15 15q55 0 106 4t74 8l23 3l15 -15v-308l35 21l30 -52l-65 -38v-373h-198v258z" />
    <glyph glyph-name="Nacute" unicode="&#x143;" horiz-adv-x="701" 
d="M145 378v-378h-89v420q0 80 -9 146t-17 92l-9 27l15 15h69l441 -378v378h99v-700h-59zM288 750l-10 10l69 190q48 0 87 -7.5t54 -14.5l15 -8v-10l-159 -160h-56z" />
    <glyph glyph-name="nacute" unicode="&#x144;" horiz-adv-x="581" 
d="M337 0v336q0 50 -50 50q-9 0 -18.5 -2t-14.5 -4l-5 -1v-379h-198v300q0 49 -8.5 90t-17.5 58l-9 17l15 15q55 0 106 4t74 8l23 3l15 -15l-5 -40l5 -5q7 6 20 15.5t53.5 25.5t80.5 16q68 0 100 -39t32 -97v-356h-198zM228 550l-10 10l69 189q48 0 87 -7.5t54 -14.5l15 -7
v-10l-160 -160h-55z" />
    <glyph glyph-name="Ncommaaccent" unicode="&#x145;" horiz-adv-x="701" 
d="M145 378v-378h-89v420q0 80 -9 146t-17 92l-9 27l15 15h69l441 -378v378h99v-700h-59zM292 -262l-17 17q38 53 38 128q0 20 -3.5 38t-6.5 25l-3 8l6 6q31 0 59.5 -3.5t41.5 -7.5l13 -4q6 -12 6 -37q0 -33 -14 -63t-33.5 -48.5t-39 -32.5t-33.5 -20z" />
    <glyph glyph-name="ncommaaccent" unicode="&#x146;" horiz-adv-x="581" 
d="M337 0v336q0 50 -50 50q-9 0 -18.5 -2t-14.5 -4l-5 -1v-379h-198v300q0 49 -8.5 90t-17.5 58l-9 17l15 15q55 0 106 4t74 8l23 3l15 -15l-5 -40l5 -5q7 6 20 15.5t53.5 25.5t80.5 16q68 0 100 -39t32 -97v-356h-198zM229 -262l-17 17q38 53 38 128q0 20 -3 38t-7 25l-3 8
l6 6q31 0 59.5 -3.5t41.5 -7.5l13 -4q6 -12 6 -37q0 -33 -14 -63t-33.5 -48.5t-39 -32.5t-33.5 -20z" />
    <glyph glyph-name="Ncaron" unicode="&#x147;" horiz-adv-x="701" 
d="M145 378v-378h-89v420q0 80 -9 146t-17 92l-9 27l15 15h69l441 -378v378h99v-700h-59zM518 945l10 -10l-154 -190h-47l-154 190l10 10h66l102 -76l102 76h65z" />
    <glyph glyph-name="ncaron" unicode="&#x148;" horiz-adv-x="581" 
d="M337 0v336q0 50 -50 50q-9 0 -18.5 -2t-14.5 -4l-5 -1v-379h-198v300q0 49 -8.5 90t-17.5 58l-9 17l15 15q55 0 106 4t74 8l23 3l15 -15l-5 -40l5 -5q7 6 20 15.5t53.5 25.5t80.5 16q68 0 100 -39t32 -97v-356h-198zM458 744l10 -9l-154 -190h-48l-153 190l10 9h65
l102 -75l102 75h66z" />
    <glyph glyph-name="Eng" unicode="&#x14a;" horiz-adv-x="701" 
d="M145 378v-378h-89v420q0 80 -9 146t-17 92l-9 27l15 15h69l441 -378v378h99v-731q0 -231 -219 -231q-61 0 -108 12.5t-64 25.5l-16 12q0 34 9 66t22 54.5t26 40t22 25.5l9 9h13q1 -7 3.5 -19.5t11.5 -43.5t19 -54.5t26.5 -43t34.5 -19.5q43 0 43 159v131z" />
    <glyph glyph-name="eng" unicode="&#x14b;" horiz-adv-x="581" 
d="M337 -20v356q0 50 -50 50q-9 0 -18.5 -2t-14.5 -4l-5 -1v-379h-198v300q0 49 -8.5 90t-17.5 58l-9 17l15 15q55 0 106 4t74 8l23 3l15 -15l-5 -40l5 -5q7 6 20 15.5t53.5 25.5t80.5 16q68 0 100 -39t32 -97v-307q0 -62 -26.5 -117t-64 -89.5t-75 -60t-63.5 -36.5l-27 -11
l-28 28q3 4 9 11t21 29.5t26 46.5t20.5 59.5t9.5 70.5z" />
    <glyph glyph-name="Omacron" unicode="&#x14c;" horiz-adv-x="800" 
d="M31 350q0 162 102 262t267 100q166 0 268 -100.5t102 -261.5t-102 -261.5t-268 -100.5q-165 0 -267 100t-102 262zM263 350q0 -148 36.5 -222.5t100.5 -74.5t100.5 74.5t36.5 222.5t-36.5 222.5t-100.5 74.5t-100.5 -74.5t-36.5 -222.5zM253 780v80h294v-80h-294z" />
    <glyph glyph-name="omacron" unicode="&#x14d;" horiz-adv-x="580" 
d="M21 240q0 113 74 182.5t195 69.5t195.5 -69.5t74.5 -182.5t-74.5 -182.5t-195.5 -69.5t-195 69.5t-74 182.5zM243 240q0 -192 47 -192t47 192t-47 192t-47 -192zM143 580v80h294v-80h-294z" />
    <glyph glyph-name="Obreve" unicode="&#x14e;" horiz-adv-x="800" 
d="M31 350q0 162 102 262t267 100q166 0 268 -100.5t102 -261.5t-102 -261.5t-268 -100.5q-165 0 -267 100t-102 262zM263 350q0 -148 36.5 -222.5t100.5 -74.5t100.5 74.5t36.5 222.5t-36.5 222.5t-100.5 74.5t-100.5 -74.5t-36.5 -222.5zM232 868l27 28q6 -6 18 -15
t49 -23.5t74 -14.5t72.5 13.5t51.5 26.5l17 13l28 -28q-2 -5 -5 -13.5t-17 -29.5t-31.5 -37t-48.5 -29.5t-67 -13.5t-67 12.5t-48.5 30.5t-30.5 36.5t-18 31.5z" />
    <glyph glyph-name="obreve" unicode="&#x14f;" horiz-adv-x="580" 
d="M21 240q0 113 74 182.5t195 69.5t195.5 -69.5t74.5 -182.5t-74.5 -182.5t-195.5 -69.5t-195 69.5t-74 182.5zM243 240q0 -192 47 -192t47 192t-47 192t-47 -192zM122 668l27 28q6 -6 18 -15t49 -23.5t74 -14.5t72.5 13.5t51.5 26.5l17 13l28 -28q-2 -5 -5 -13.5
t-17 -29.5t-31.5 -37t-48.5 -29.5t-67 -13.5t-67 12.5t-48.5 30.5t-30.5 36.5t-18 31.5z" />
    <glyph glyph-name="Ohungarumlaut" unicode="&#x150;" horiz-adv-x="800" 
d="M31 350q0 162 102 262t267 100q166 0 268 -100.5t102 -261.5t-102 -261.5t-268 -100.5q-165 0 -267 100t-102 262zM263 350q0 -148 36.5 -222.5t100.5 -74.5t100.5 74.5t36.5 222.5t-36.5 222.5t-100.5 74.5t-100.5 -74.5t-36.5 -222.5zM239 750l-10 10l64 190
q48 0 87 -7.5t54 -14.5l15 -8v-10l-155 -160h-55zM428 750l-10 10l86 190q48 0 85 -7.5t49 -14.5l13 -8v-10l-168 -160h-55z" />
    <glyph glyph-name="ohungarumlaut" unicode="&#x151;" horiz-adv-x="580" 
d="M21 240q0 113 74 182.5t195 69.5t195.5 -69.5t74.5 -182.5t-74.5 -182.5t-195.5 -69.5t-195 69.5t-74 182.5zM243 240q0 -192 47 -192t47 192t-47 192t-47 -192zM129 550l-10 10l64 189q48 0 87 -7.5t54 -14.5l15 -7v-10l-155 -160h-55zM318 550l-10 10l86 189
q48 0 84.5 -7.5t49.5 -14.5l13 -7v-10l-168 -160h-55z" />
    <glyph glyph-name="OE" unicode="&#x152;" horiz-adv-x="1030" 
d="M506 0v9q-57 -21 -120 -21q-151 0 -253 101.5t-102 260.5t101.5 260.5t251.5 101.5q67 0 122 -23v11h479v-104l-15 -15q-6 4 -18.5 11t-55 18t-91.5 11h-91v-221h196l10 -10v-70h-206v-241h101q49 0 90 10t58 20l17 10l15 -15v-104h-489zM400 53q70 0 106 89v415
q-35 90 -106 90q-64 0 -100.5 -74.5t-36.5 -222.5t36.5 -222.5t100.5 -74.5z" />
    <glyph glyph-name="oe" unicode="&#x153;" horiz-adv-x="855" 
d="M798 124l28 -28q-2 -4 -7.5 -11.5t-24 -26t-41 -33t-60.5 -26t-81 -11.5q-102 0 -164 59q-61 -59 -163 -59q-113 0 -188.5 70.5t-75.5 181.5t75.5 181.5t188.5 70.5q101 0 163 -60q66 60 183 60q95 0 146 -39.5t51 -117.5q0 -19 -3 -38t-6 -29l-3 -9l-15 -15h-241
q4 -87 31.5 -122t85.5 -35q32 0 62.5 9.5t44.5 18.5zM243 240q0 -192 47 -192t47 192t-47 192t-47 -192zM618 432q-51 0 -58 -126l85 8q6 23 6 53q0 65 -33 65z" />
    <glyph glyph-name="Racute" unicode="&#x154;" horiz-adv-x="687" 
d="M56 0v700h277q140 0 220.5 -52.5t80.5 -147.5q0 -122 -130 -173l72 -147q23 -48 50.5 -90.5t43.5 -61.5l16 -18l-9 -10h-226l-142 300h-45v-300h-208zM300 621h-36v-241h36q56 0 86 30.5t30 89.5t-30.5 90t-85.5 31zM260 750l-10 10l70 190q48 0 87 -7.5t53 -14.5l15 -8
v-10l-159 -160h-56z" />
    <glyph glyph-name="racute" unicode="&#x155;" horiz-adv-x="432" 
d="M403 492q15 -68 15 -163l-15 -15q-15 13 -52 13q-28 0 -53.5 -8.5t-37.5 -17.5l-11 -9v-292h-198v300q0 49 -8.5 90t-17.5 58l-9 17l15 15q55 0 106 4t74 8l23 3l15 -15l-5 -97l5 -5q3 5 8 12.5t21 27t33 34.5t42.5 27.5t49.5 12.5zM173 550l-10 10l70 189
q48 0 86.5 -7.5t53.5 -14.5l15 -7v-10l-159 -160h-56z" />
    <glyph glyph-name="Rcommaaccent" unicode="&#x156;" horiz-adv-x="687" 
d="M56 0v700h277q140 0 220.5 -52.5t80.5 -147.5q0 -122 -130 -173l72 -147q23 -48 50.5 -90.5t43.5 -61.5l16 -18l-9 -10h-226l-142 300h-45v-300h-208zM300 621h-36v-241h36q56 0 86 30.5t30 89.5t-30.5 90t-85.5 31zM289 -262l-17 17q38 53 38 128q0 20 -3 38t-7 25l-3 8
l6 6q31 0 59.5 -3.5t41.5 -7.5l13 -4q6 -12 6 -37q0 -33 -14 -63t-33.5 -48.5t-39 -32.5t-33.5 -20z" />
    <glyph glyph-name="rcommaaccent" unicode="&#x157;" horiz-adv-x="432" 
d="M403 492q15 -68 15 -163l-15 -15q-15 13 -52 13q-28 0 -53.5 -8.5t-37.5 -17.5l-11 -9v-292h-198v300q0 49 -8.5 90t-17.5 58l-9 17l15 15q55 0 106 4t74 8l23 3l15 -15l-5 -97l5 -5q3 5 8 12.5t21 27t33 34.5t42.5 27.5t49.5 12.5zM86 -262l-17 17q38 53 38 128
q0 20 -3.5 37.5t-6.5 25.5l-3 8l6 6q31 0 59.5 -3.5t41.5 -7.5l13 -4q6 -12 6 -37q0 -33 -14 -63t-33.5 -48.5t-39 -32.5t-33.5 -20z" />
    <glyph glyph-name="Rcaron" unicode="&#x158;" horiz-adv-x="687" 
d="M56 0v700h277q140 0 220.5 -52.5t80.5 -147.5q0 -122 -130 -173l72 -147q23 -48 50.5 -90.5t43.5 -61.5l16 -18l-9 -10h-226l-142 300h-45v-300h-208zM500 945l10 -10l-153 -190h-48l-153 190l10 10h65l102 -76l102 76h65zM300 621h-36v-241h36q56 0 86 30.5t30 89.5
t-30.5 90t-85.5 31z" />
    <glyph glyph-name="rcaron" unicode="&#x159;" horiz-adv-x="432" 
d="M403 492q15 -68 15 -163l-15 -15q-15 13 -52 13q-28 0 -53.5 -8.5t-37.5 -17.5l-11 -9v-292h-198v300q0 49 -8.5 90t-17.5 58l-9 17l15 15q55 0 106 4t74 8l23 3l15 -15l-5 -97l5 -5q3 5 8 12.5t21 27t33 34.5t42.5 27.5t49.5 12.5zM403 744l10 -9l-153 -190h-48
l-153 190l10 9h65l102 -75l102 75h65z" />
    <glyph glyph-name="Sacute" unicode="&#x15a;" horiz-adv-x="621" 
d="M277 647q-26 0 -41.5 -14.5t-15.5 -39.5q0 -29 28 -57t134 -107q135 -102 174 -145.5t39 -105.5q0 -190 -281 -190q-59 0 -110 8t-82 20t-54 24t-32 20l-10 8q0 36 10.5 70t25.5 57.5t30 42t26 26.5l10 9h20l5 -12.5t13 -30.5t21 -44t28.5 -46t35.5 -43.5t41.5 -31
t46.5 -12.5q31 0 50 17.5t19 42.5q0 32 -38.5 65t-138.5 97q-104 67 -146.5 117t-42.5 125q0 94 69 144.5t207 50.5q78 0 140.5 -15.5t85.5 -30.5l23 -16q0 -36 -10.5 -71t-26 -58.5t-31 -42t-25.5 -27.5l-11 -9h-17q-2 8 -7 22t-21.5 49.5t-34.5 62.5t-47 49t-59 22z
M238 750l-10 10l69 190q48 0 87 -7.5t54 -14.5l15 -8v-10l-160 -160h-55z" />
    <glyph glyph-name="sacute" unicode="&#x15b;" horiz-adv-x="462" 
d="M221 426q-17 0 -28 -8.5t-11 -21.5q0 -6 2.5 -12t9 -12.5t13.5 -12t19.5 -13l22.5 -13.5t27.5 -16t29.5 -17q78 -46 108 -81t30 -83q0 -71 -54.5 -109.5t-162.5 -38.5q-42 0 -79 6t-60.5 14t-41 16.5t-24.5 14.5l-8 6q0 38 19.5 72.5t38.5 50.5l20 15h15q2 -5 6 -14
t17 -31t27 -39t35 -31t42 -14q20 0 32.5 10t12.5 24q0 18 -25 34t-109 59q-60 31 -91 67t-31 93q0 71 52.5 111t159.5 40q57 0 103.5 -11t64.5 -23l18 -11q0 -38 -20 -73t-40 -51l-20 -16h-14q-2 5 -5 13t-14 28.5t-22.5 36t-29 28.5t-35.5 13zM169 550l-10 10l69 189
q48 0 87 -7.5t54 -14.5l15 -7v-10l-160 -160h-55z" />
    <glyph glyph-name="Scircumflex" unicode="&#x15c;" horiz-adv-x="621" 
d="M277 647q-26 0 -41.5 -14.5t-15.5 -39.5q0 -29 28 -57t134 -107q135 -102 174 -145.5t39 -105.5q0 -190 -281 -190q-59 0 -110 8t-82 20t-54 24t-32 20l-10 8q0 36 10.5 70t25.5 57.5t30 42t26 26.5l10 9h20l5 -12.5t13 -30.5t21 -44t28.5 -46t35.5 -43.5t41.5 -31
t46.5 -12.5q31 0 50 17.5t19 42.5q0 32 -38.5 65t-138.5 97q-104 67 -146.5 117t-42.5 125q0 94 69 144.5t207 50.5q78 0 140.5 -15.5t85.5 -30.5l23 -16q0 -36 -10.5 -71t-26 -58.5t-31 -42t-25.5 -27.5l-11 -9h-17q-2 8 -7 22t-21.5 49.5t-34.5 62.5t-47 49t-59 22z
M488 780l-10 -10h-66l-102 76l-102 -76h-65l-10 10l153 190h48z" />
    <glyph glyph-name="scircumflex" unicode="&#x15d;" horiz-adv-x="462" 
d="M221 426q-17 0 -28 -8.5t-11 -21.5q0 -6 2.5 -12t9 -12.5t13.5 -12t19.5 -13l22.5 -13.5t27.5 -16t29.5 -17q78 -46 108 -81t30 -83q0 -71 -54.5 -109.5t-162.5 -38.5q-42 0 -79 6t-60.5 14t-41 16.5t-24.5 14.5l-8 6q0 38 19.5 72.5t38.5 50.5l20 15h15q2 -5 6 -14
t17 -31t27 -39t35 -31t42 -14q20 0 32.5 10t12.5 24q0 18 -25 34t-109 59q-60 31 -91 67t-31 93q0 71 52.5 111t159.5 40q57 0 103.5 -11t64.5 -23l18 -11q0 -38 -20 -73t-40 -51l-20 -16h-14q-2 5 -5 13t-14 28.5t-22.5 36t-29 28.5t-35.5 13zM408 560l-9 -10h-66l-102 76
l-102 -76h-65l-10 10l153 189h48z" />
    <glyph glyph-name="Scedilla" unicode="&#x15e;" horiz-adv-x="621" 
d="M270 -81l11 70q-52 2 -97 11t-73 20.5t-48 22t-29 17.5l-8 8q0 36 10.5 70t25.5 57.5t30 42t26 26.5l10 9h20l5 -12.5t13 -30.5t21 -44t28.5 -46t35.5 -43.5t41.5 -31t46.5 -12.5q31 0 50 17.5t19 42.5q0 32 -38.5 65t-138.5 97q-104 67 -146.5 117t-42.5 125
q0 94 69 144.5t207 50.5q78 0 140.5 -15.5t85.5 -30.5l23 -16q0 -36 -10.5 -71t-26 -58.5t-31 -42t-25.5 -27.5l-11 -9h-17q-2 8 -7 22t-21.5 49.5t-34.5 62.5t-47 49t-59 22q-26 0 -41.5 -14.5t-15.5 -39.5q0 -29 28 -57t134 -107q135 -102 174 -145.5t39 -105.5
q0 -181 -257 -189l-6 -36q32 0 56 -21.5t24 -56.5q0 -36 -26.5 -60t-70.5 -24q-30 0 -54 11.5t-33 23.5l-9 12l23 23q13 -15 38 -15q39 0 39 32q0 31 -39 31z" />
    <glyph glyph-name="scedilla" unicode="&#x15f;" horiz-adv-x="462" 
d="M186 -81l11 70q-57 3 -102.5 17t-62.5 26l-18 13q0 38 19.5 72.5t38.5 50.5l20 15h15q2 -5 6 -14t17 -31t27 -39t35 -31t42 -14q20 0 32.5 10t12.5 24q0 18 -25 34t-109 59q-60 31 -91 67t-31 93q0 71 52.5 111t159.5 40q57 0 103.5 -11t64.5 -23l18 -11q0 -38 -20 -73
t-40 -51l-20 -16h-14q-2 5 -5 13t-14 28.5t-22.5 36t-29 28.5t-35.5 13q-17 0 -28 -8.5t-11 -21.5q0 -6 2.5 -12t9 -12.5t13.5 -12t19.5 -13l22.5 -13.5t27.5 -16t29.5 -17q78 -46 108 -81t30 -83q0 -66 -48 -104t-142 -43l-6 -36q32 0 56 -21.5t24 -56.5q0 -36 -26.5 -60
t-70.5 -24q-30 0 -54 11.5t-33 23.5l-9 12l23 23q13 -15 39 -15q38 0 38 32q0 31 -39 31z" />
    <glyph glyph-name="Scaron" unicode="&#x160;" horiz-adv-x="621" 
d="M277 647q-26 0 -41.5 -14.5t-15.5 -39.5q0 -29 28 -57t134 -107q135 -102 174 -145.5t39 -105.5q0 -190 -281 -190q-59 0 -110 8t-82 20t-54 24t-32 20l-10 8q0 36 10.5 70t25.5 57.5t30 42t26 26.5l10 9h20l5 -12.5t13 -30.5t21 -44t28.5 -46t35.5 -43.5t41.5 -31
t46.5 -12.5q31 0 50 17.5t19 42.5q0 32 -38.5 65t-138.5 97q-104 67 -146.5 117t-42.5 125q0 94 69 144.5t207 50.5q78 0 140.5 -15.5t85.5 -30.5l23 -16q0 -36 -10.5 -71t-26 -58.5t-31 -42t-25.5 -27.5l-11 -9h-17q-2 8 -7 22t-21.5 49.5t-34.5 62.5t-47 49t-59 22z
M478 945l10 -10l-154 -190h-48l-153 190l10 10h65l102 -76l102 76h66z" />
    <glyph glyph-name="scaron" unicode="&#x161;" horiz-adv-x="462" 
d="M221 426q-17 0 -28 -8.5t-11 -21.5q0 -6 2.5 -12t9 -12.5t13.5 -12t19.5 -13l22.5 -13.5t27.5 -16t29.5 -17q78 -46 108 -81t30 -83q0 -71 -54.5 -109.5t-162.5 -38.5q-42 0 -79 6t-60.5 14t-41 16.5t-24.5 14.5l-8 6q0 38 19.5 72.5t38.5 50.5l20 15h15q2 -5 6 -14
t17 -31t27 -39t35 -31t42 -14q20 0 32.5 10t12.5 24q0 18 -25 34t-109 59q-60 31 -91 67t-31 93q0 71 52.5 111t159.5 40q57 0 103.5 -11t64.5 -23l18 -11q0 -38 -20 -73t-40 -51l-20 -16h-14q-2 5 -5 13t-14 28.5t-22.5 36t-29 28.5t-35.5 13zM399 744l9 -9l-153 -190h-48
l-153 190l10 9h65l102 -75l102 75h66z" />
    <glyph glyph-name="Tcommaaccent" unicode="&#x162;" horiz-adv-x="690" 
d="M449 621v-621h-208v621h-41q-49 0 -90 -10t-58 -20l-17 -10l-15 15v104h650v-104l-15 -15q-6 4 -18.5 11t-55 18t-91.5 11h-41zM286 -262l-17 17q38 53 38 128q0 20 -3.5 38t-6.5 25l-3 8l6 6q31 0 59.5 -3.5t41.5 -7.5l13 -4q6 -12 6 -37q0 -33 -14 -63t-33.5 -48.5
t-39 -32.5t-33.5 -20z" />
    <glyph glyph-name="tcommaaccent" unicode="&#x163;" horiz-adv-x="405" 
d="M5 410v50l90 47l40 118h139v-145h120v-70h-120v-257q0 -66 60 -66q13 0 24 3.5t16 7.5l4 3l28 -27q-2 -3 -6.5 -9t-21 -21t-35.5 -26t-51 -20.5t-67 -9.5q-74 0 -112 36.5t-38 102.5v283h-70zM158 -262l-17 17q38 53 38 128q0 20 -3.5 38t-6.5 25l-3 8l6 6
q31 0 59.5 -3.5t41.5 -7.5l13 -4q6 -12 6 -37q0 -33 -14 -63t-33.5 -48.5t-39 -32.5t-33.5 -20z" />
    <glyph glyph-name="Tcaron" unicode="&#x164;" horiz-adv-x="690" 
d="M449 621v-621h-208v621h-41q-49 0 -90 -10t-58 -20l-17 -10l-15 15v104h650v-104l-15 -15q-6 4 -18.5 11t-55 18t-91.5 11h-41zM512 944l10 -9l-153 -190h-48l-153 190l10 9h65l102 -75l102 75h65z" />
    <glyph glyph-name="tcaron" unicode="&#x165;" horiz-adv-x="459" 
d="M5 410v50l90 47l40 118h139v-145h120v-70h-120v-257q0 -66 60 -66q13 0 24 3.5t16 7.5l4 3l28 -27q-2 -3 -6.5 -9t-21 -21t-35.5 -26t-51 -20.5t-67 -9.5q-74 0 -112 36.5t-38 102.5v283h-70zM321 539l-17 16q38 53 38 128q0 20 -3 37.5t-7 25.5l-3 8l6 6q31 0 60 -4
t42 -8l13 -3q6 -12 6 -37q0 -33 -14 -62.5t-33.5 -48t-39.5 -32.5t-34 -20z" />
    <glyph glyph-name="Tbar" unicode="&#x166;" horiz-adv-x="690" 
d="M139 325v80h102v216h-41q-49 0 -90 -10t-58 -20l-17 -10l-15 15v104h650v-104l-15 -15q-6 4 -18.5 11t-55 18t-91.5 11h-41v-216h100v-80h-100v-325h-208v325h-102z" />
    <glyph glyph-name="tbar" unicode="&#x167;" horiz-adv-x="405" 
d="M5 255v70h70v85h-70v50l90 47l40 118h139v-145h120v-70h-120v-85h120v-70h-120v-102q0 -66 60 -66q13 0 24 3.5t16 7.5l4 3l28 -27q-2 -3 -6.5 -9t-21 -21t-35.5 -26t-51 -20.5t-67 -9.5q-74 0 -112 36.5t-38 102.5v128h-70z" />
    <glyph glyph-name="Utilde" unicode="&#x168;" horiz-adv-x="707" 
d="M562 251v449h89v-446q0 -122 -78 -194t-220 -72q-141 0 -219 72t-78 194v446h208v-480q0 -69 39.5 -109t104.5 -40q70 0 112 47t42 133zM320 882q26 0 56.5 -18.5t52.5 -18.5q21 0 41 10t30 20l9 10l28 -28q-2 -4 -5 -11.5t-15.5 -26.5t-26 -33.5t-36.5 -26.5t-48 -12
q-26 0 -56.5 18.5t-52.5 18.5q-21 0 -40.5 -10t-28.5 -20l-10 -10l-28 28q2 4 5 11.5t15 26.5t26 33.5t36.5 26.5t47.5 12z" />
    <glyph glyph-name="utilde" unicode="&#x169;" horiz-adv-x="585" 
d="M249 480v-336q0 -50 49 -50q10 0 19.5 2t14.5 4l5 3v197q0 49 -5 90t-10 58l-5 17l15 15q53 0 100 4t68 8l20 3l15 -15v-280q0 -49 8.5 -95t16.5 -68l9 -22l-14 -15q-55 0 -106 -3.5t-75 -7.5l-23 -4l-14 15l5 40l-5 5q-7 -6 -19.5 -15.5t-52 -25.5t-80.5 -16
q-70 0 -102 39t-32 97v176q0 49 -8.5 90t-17.5 58l-9 17l15 15q55 0 106 4t74 8l23 3zM249 682q26 0 56.5 -18.5t52.5 -18.5q21 0 41 10t29 20l10 10l28 -28q-2 -4 -5 -11.5t-15.5 -26.5t-26 -33.5t-36.5 -26.5t-48 -12q-26 0 -56.5 18.5t-52.5 18.5q-21 0 -40.5 -10
t-29.5 -20l-9 -10l-28 28q2 4 5 11.5t15 26.5t26 33.5t36.5 26.5t47.5 12z" />
    <glyph glyph-name="Umacron" unicode="&#x16a;" horiz-adv-x="707" 
d="M562 251v449h89v-446q0 -122 -78 -194t-220 -72q-141 0 -219 72t-78 194v446h208v-480q0 -69 39.5 -109t104.5 -40q70 0 112 47t42 133zM216 780v80h294v-80h-294z" />
    <glyph glyph-name="umacron" unicode="&#x16b;" horiz-adv-x="585" 
d="M249 480v-336q0 -50 49 -50q10 0 19.5 2t14.5 4l5 3v197q0 49 -5 90t-10 58l-5 17l15 15q53 0 100 4t68 8l20 3l15 -15v-280q0 -49 8.5 -95t16.5 -68l9 -22l-14 -15q-55 0 -106 -3.5t-75 -7.5l-23 -4l-14 15l5 40l-5 5q-7 -6 -19.5 -15.5t-52 -25.5t-80.5 -16
q-70 0 -102 39t-32 97v176q0 49 -8.5 90t-17.5 58l-9 17l15 15q55 0 106 4t74 8l23 3zM146 580v80h294v-80h-294z" />
    <glyph glyph-name="Ubreve" unicode="&#x16c;" horiz-adv-x="707" 
d="M562 251v449h89v-446q0 -122 -78 -194t-220 -72q-141 0 -219 72t-78 194v446h208v-480q0 -69 39.5 -109t104.5 -40q70 0 112 47t42 133zM195 868l28 28q6 -6 18 -15t48.5 -23.5t73.5 -14.5t72.5 13.5t52.5 26.5l16 13l28 -28q-2 -5 -5 -13.5t-17 -29.5t-31.5 -37
t-48.5 -29.5t-67 -13.5t-67 12.5t-48.5 30.5t-30.5 36.5t-17 31.5z" />
    <glyph glyph-name="ubreve" unicode="&#x16d;" horiz-adv-x="585" 
d="M249 480v-336q0 -50 49 -50q10 0 19.5 2t14.5 4l5 3v197q0 49 -5 90t-10 58l-5 17l15 15q53 0 100 4t68 8l20 3l15 -15v-280q0 -49 8.5 -95t16.5 -68l9 -22l-14 -15q-55 0 -106 -3.5t-75 -7.5l-23 -4l-14 15l5 40l-5 5q-7 -6 -19.5 -15.5t-52 -25.5t-80.5 -16
q-70 0 -102 39t-32 97v176q0 49 -8.5 90t-17.5 58l-9 17l15 15q55 0 106 4t74 8l23 3zM124 668l28 28q6 -6 18 -15t48.5 -23.5t73.5 -14.5t72.5 13.5t51.5 26.5l17 13l28 -28q-2 -5 -5 -13.5t-17 -29.5t-31.5 -37t-48.5 -29.5t-67 -13.5t-67 12.5t-48.5 30.5t-30.5 36.5
t-18 31.5z" />
    <glyph glyph-name="Uring" unicode="&#x16e;" horiz-adv-x="707" 
d="M562 251v449h89v-446q0 -122 -78 -194t-220 -72q-141 0 -219 72t-78 194v446h208v-480q0 -69 39.5 -109t104.5 -40q70 0 112 47t42 133zM263 841q0 45 27.5 73t72.5 28t73 -28t28 -73t-28 -73t-73 -28t-72.5 28t-27.5 73zM333 841q0 -31 30 -31q14 0 22 8.5t8 22.5
t-8.5 22.5t-21.5 8.5q-14 0 -22 -8.5t-8 -22.5z" />
    <glyph glyph-name="uring" unicode="&#x16f;" horiz-adv-x="585" 
d="M249 480v-336q0 -50 49 -50q10 0 19.5 2t14.5 4l5 3v197q0 49 -5 90t-10 58l-5 17l15 15q53 0 100 4t68 8l20 3l15 -15v-280q0 -49 8.5 -95t16.5 -68l9 -22l-14 -15q-55 0 -106 -3.5t-75 -7.5l-23 -4l-14 15l5 40l-5 5q-7 -6 -19.5 -15.5t-52 -25.5t-80.5 -16
q-70 0 -102 39t-32 97v176q0 49 -8.5 90t-17.5 58l-9 17l15 15q55 0 106 4t74 8l23 3zM193 641q0 45 27.5 73t72.5 28t73 -28t28 -73t-28 -73t-73 -28t-72.5 28t-27.5 73zM263 641q0 -31 30 -31q14 0 22 8.5t8 22.5t-8.5 22.5t-21.5 8.5q-14 0 -22 -8.5t-8 -22.5z" />
    <glyph glyph-name="Uhungarumlaut" unicode="&#x170;" horiz-adv-x="707" 
d="M562 251v449h89v-446q0 -122 -78 -194t-220 -72q-141 0 -219 72t-78 194v446h208v-480q0 -69 39.5 -109t104.5 -40q70 0 112 47t42 133zM202 750l-10 10l64 190q48 0 87 -7.5t54 -14.5l15 -8v-10l-154 -160h-56zM391 750l-10 10l86 190q48 0 85 -7.5t50 -14.5l12 -8v-10
l-168 -160h-55z" />
    <glyph glyph-name="uhungarumlaut" unicode="&#x171;" horiz-adv-x="585" 
d="M249 480v-336q0 -50 49 -50q10 0 19.5 2t14.5 4l5 3v197q0 49 -5 90t-10 58l-5 17l15 15q53 0 100 4t68 8l20 3l15 -15v-280q0 -49 8.5 -95t16.5 -68l9 -22l-14 -15q-55 0 -106 -3.5t-75 -7.5l-23 -4l-14 15l5 40l-5 5q-7 -6 -19.5 -15.5t-52 -25.5t-80.5 -16
q-70 0 -102 39t-32 97v176q0 49 -8.5 90t-17.5 58l-9 17l15 15q55 0 106 4t74 8l23 3zM131 550l-10 10l64 189q48 0 87 -7.5t54 -14.5l15 -7v-10l-154 -160h-56zM320 550l-10 10l86 189q48 0 84.5 -7.5t49.5 -14.5l13 -7v-10l-168 -160h-55z" />
    <glyph glyph-name="Uogonek" unicode="&#x172;" horiz-adv-x="707" 
d="M562 251v449h89v-446q0 -98 -51 -164.5t-147 -89.5l-3 -6q-4 -5 -8 -10.5t-8.5 -15t-8.5 -19t-6.5 -22t-2.5 -24.5q0 -46 42 -46l25 5l28 -28q-3 -5 -8.5 -12t-27 -18.5t-48.5 -11.5q-42 0 -73.5 25.5t-31.5 71.5q0 61 54 100q-7 -1 -23 -1q-141 0 -219 72t-78 194v446
h208v-480q0 -69 39.5 -109t104.5 -40q70 0 112 47t42 133z" />
    <glyph glyph-name="uogonek" unicode="&#x173;" horiz-adv-x="585" 
d="M249 480v-336q0 -50 49 -50q10 0 19.5 2t14.5 4l5 3v197q0 49 -5 90t-10 58l-5 17l15 15q53 0 100 4t68 8l20 3l15 -15v-280q0 -49 8.5 -95t16.5 -68l9 -22l-14 -15h-44l-3 -6q-4 -5 -8 -10.5t-8.5 -15t-8.5 -19t-6.5 -22t-2.5 -24.5q0 -46 42 -46l25 5l28 -28
q-3 -5 -8.5 -12t-27 -18.5t-48.5 -11.5q-42 0 -73.5 25.5t-31.5 71.5q0 69 67 108l-96 -12l-14 15l5 40l-5 5q-7 -6 -19.5 -15.5t-52 -25.5t-80.5 -16q-70 0 -102 39t-32 97v176q0 49 -8.5 90t-17.5 58l-9 17l15 15q55 0 106 4t74 8l23 3z" />
    <glyph glyph-name="Wcircumflex" unicode="&#x174;" horiz-adv-x="1085" 
d="M682 26l-117 346l-116 -372h-153l-25 26l-184 494q-18 49 -38.5 90t-32.5 58l-11 16v16h234l182 -494l95 314q-16 49 -34.5 90t-29.5 58l-10 16v16h235l157 -480l147 480h98l-222 -700h-150zM743 760l-10 -10h-65l-102 76l-102 -76h-66l-10 10l154 190h48z" />
    <glyph glyph-name="wcircumflex" unicode="&#x175;" horiz-adv-x="823" 
d="M491 26l-64 204l-70 -230h-135l-26 26l-104 274q-19 49 -42 91.5t-36 60.5l-14 18l10 10q57 0 108 2.5t74 5.5l22 2l111 -292l54 176q-12 28 -24.5 52t-18.5 34l-7 10l10 10q57 0 105 2.5t68 5.5l20 2l89 -293l35 103q16 47 25.5 89.5t10.5 61.5l2 19l10 10q22 0 49 2.5
t43 5.5l16 2l10 -10l-168 -480h-138zM618 560l-10 -10h-66l-101 76l-102 -76h-66l-10 10l154 189h47z" />
    <glyph glyph-name="Ycircumflex" unicode="&#x176;" horiz-adv-x="697" 
d="M692 700l-227 -368v-332h-208v315l-107 173q-33 54 -69 103t-56 71l-20 22v16h257l161 -260l160 260h109zM536 760l-10 -10h-65l-102 76l-102 -76h-66l-10 10l154 190h47z" />
    <glyph glyph-name="ycircumflex" unicode="&#x177;" horiz-adv-x="539" 
d="M539 480l-228 -550q-20 -48 -36 -93t-23 -66l-6 -21l-10 -10q-42 0 -82 12.5t-59 25.5l-19 12v15q4 3 11 8t26.5 22.5t37 37t39 50.5t36.5 64l5 11l-133 302q-21 47 -45.5 89.5t-38.5 61.5l-14 19l10 10q57 0 109 2.5t76 5.5l24 2l107 -277l39 87q23 51 35.5 93.5
t13.5 59.5l2 17l9 10q22 0 48 2.5t41 5.5l15 2zM461 560l-10 -10h-65l-102 76l-102 -76h-66l-10 10l154 189h48z" />
    <glyph glyph-name="Ydieresis" unicode="&#x178;" horiz-adv-x="697" 
d="M692 700l-227 -368v-332h-208v315l-107 173q-33 54 -69 103t-56 71l-20 22v16h257l161 -260l160 260h109zM166 828q0 36 23 58t60 22q36 0 58 -22t22 -58q0 -37 -22 -60t-58 -23q-37 0 -60 22.5t-23 60.5zM387 828q0 36 23 58t60 22q36 0 58 -22t22 -58q0 -37 -22 -60
t-58 -23q-38 0 -60.5 22.5t-22.5 60.5z" />
    <glyph glyph-name="Zacute" unicode="&#x179;" horiz-adv-x="659" 
d="M31 35l335 586h-151q-49 0 -90 -10t-58 -20l-17 -10l-14 15v104h594v-35l-335 -586h158q49 0 90 10t58 20l17 10l15 -15v-104h-602v35zM267 750l-10 10l69 190q48 0 87 -7.5t54 -14.5l15 -8v-10l-160 -160h-55z" />
    <glyph glyph-name="zacute" unicode="&#x17a;" horiz-adv-x="498" 
d="M21 35l206 370h-22q-49 0 -90 -9.5t-58 -19.5l-17 -10l-14 15v99h449v-35l-206 -371h29q49 0 90 10t58 20l17 10l15 -15v-99h-457v35zM187 550l-10 10l69 189q48 0 87 -7.5t54 -14.5l15 -7v-10l-160 -160h-55z" />
    <glyph glyph-name="Zdotaccent" unicode="&#x17b;" horiz-adv-x="659" 
d="M31 35l335 586h-151q-49 0 -90 -10t-58 -20l-17 -10l-14 15v104h594v-35l-335 -586h158q49 0 90 10t58 20l17 10l15 -15v-104h-602v35zM238 837q0 41 25 66t66 25t66.5 -25t25.5 -66t-25.5 -66t-66.5 -25t-66 25t-25 66z" />
    <glyph glyph-name="zdotaccent" unicode="&#x17c;" horiz-adv-x="498" 
d="M21 35l206 370h-22q-49 0 -90 -9.5t-58 -19.5l-17 -10l-14 15v99h449v-35l-206 -371h29q49 0 90 10t58 20l17 10l15 -15v-99h-457v35zM158 617q0 41 25 66t66 25t66 -25t25 -66t-25 -66t-66 -25t-66 25t-25 66z" />
    <glyph glyph-name="Zcaron" unicode="&#x17d;" horiz-adv-x="659" 
d="M31 35l335 586h-151q-49 0 -90 -10t-58 -20l-17 -10l-14 15v104h594v-35l-335 -586h158q49 0 90 10t58 20l17 10l15 -15v-104h-602v35zM497 945l10 -10l-154 -190h-48l-153 190l10 10h65l102 -76l102 76h66z" />
    <glyph glyph-name="zcaron" unicode="&#x17e;" horiz-adv-x="498" 
d="M21 35l206 370h-22q-49 0 -90 -9.5t-58 -19.5l-17 -10l-14 15v99h449v-35l-206 -371h29q49 0 90 10t58 20l17 10l15 -15v-99h-457v35zM417 744l10 -9l-154 -190h-48l-153 190l10 9h65l102 -75l102 75h66z" />
    <glyph glyph-name="uni018F" unicode="&#x18f;" horiz-adv-x="738" 
d="M36 256q0 23 2.5 41t5.5 25l2 7l15 15h414q-3 132 -51 191t-143 59q-34 0 -67.5 -6.5t-57 -16t-42 -19.5t-27.5 -16l-9 -7l-29 29q3 6 9 16.5t30 37t54.5 47t83.5 37t115 16.5q163 0 265 -100.5t102 -261.5t-102 -261.5t-267 -100.5q-141 0 -222 74t-81 194zM337 53
q54 0 91 56.5t45 162.5l-233 -19v-23q0 -177 97 -177z" />
    <glyph glyph-name="florin" unicode="&#x192;" horiz-adv-x="404" 
d="M42 -20l76 432h-71l9 50l75 23l16 92q16 91 69 139.5t140 48.5q49 0 85 -15.5t47 -30.5l12 -15l-33 -28q-13 12 -39 12q-63 0 -80 -96l-20 -112h120l-12 -70h-120l-64 -361q-11 -62 -47 -117t-79.5 -89.5t-85.5 -60t-70 -36.5l-28 -11l-23 28q11 10 28.5 29t51 75.5
t43.5 112.5z" />
    <glyph glyph-name="uni01DD" unicode="&#x1dd;" horiz-adv-x="528" 
d="M46 356l-27 28q2 4 7 11.5t23.5 26t41.5 33t63 26t86 11.5q121 0 194.5 -69.5t73.5 -185.5q0 -115 -75 -182t-213 -67q-203 0 -203 156q0 20 3 39t6 29l3 9l14 15h241q-4 87 -31.5 122t-84.5 35q-33 0 -63.5 -9.5t-44.5 -18.5zM226 48q51 0 58 125l-85 -7q-5 -27 -5 -52
q0 -66 32 -66z" />
    <glyph glyph-name="Aringacute" unicode="&#x1fa;" horiz-adv-x="721" 
d="M173 171l-62 -171h-101l238 628l-35 57v15h56q-10 23 -10 48q0 43 25.5 70.5t67.5 30.5l49 135q48 0 87 -7.5t54 -14.5l14 -8v-10l-123 -124q28 -26 28 -72q0 -35 -17 -60l267 -688h-214l-66 171h-258zM299 515l-97 -266h199zM330 748q0 -31 30 -31q14 0 22 8.5t8 22.5
t-8.5 22.5t-21.5 8.5q-14 0 -22 -8.5t-8 -22.5z" />
    <glyph glyph-name="aringacute" unicode="&#x1fb;" horiz-adv-x="567" 
d="M276 492q230 0 230 -146v-231q0 -39 30 -39q6 0 11.5 1.5t7.5 2.5l2 2l28 -27q-2 -3 -6 -7.5t-19 -16t-32 -20.5t-45 -16t-59 -7q-90 0 -111 60q-64 -60 -158 -60q-64 0 -98 33.5t-34 96.5q0 61 47 93.5t181 51.5l57 8v116q0 45 -39 45q-44 0 -44 -59q0 -16 2.5 -30.5
t5.5 -20.5l3 -7l-15 -15q-45 0 -85 4t-58 8l-18 3q-13 20 -13 52q0 60 59.5 92.5t169.5 32.5zM182 616q0 41 25 68.5t65 30.5l50 134q48 0 87 -7.5t53 -15.5l15 -7v-10l-121 -121q28 -30 28 -72q0 -45 -28 -73t-73 -28t-73 28t-28 73zM228 144q0 -52 44 -52q10 0 19 3t13 6
l4 3v101l-34 -5q-46 -6 -46 -56zM253 616q0 -32 30 -32q13 0 21.5 9t8.5 23t-8.5 22.5t-21.5 8.5q-14 0 -22 -8.5t-8 -22.5z" />
    <glyph glyph-name="AEacute" unicode="&#x1fc;" horiz-adv-x="853" 
d="M10 0l300 700h498v-104l-15 -15q-6 4 -18.5 11t-55 18t-91.5 11h-91v-221h196l10 -10v-70h-206v-241h101q49 0 90 10t58 20l17 10l15 -15v-104h-489v195h-137l-81 -195h-101zM354 750l-10 10l69 190q48 0 87 -7.5t54 -14.5l15 -8v-10l-160 -160h-55zM224 274h105v251z
" />
    <glyph glyph-name="aeacute" unicode="&#x1fd;" horiz-adv-x="826" 
d="M769 124l28 -28q-2 -4 -7 -11.5t-23.5 -26t-41.5 -33t-63 -26t-86 -11.5q-128 0 -201 75q-78 -75 -203 -75q-149 0 -149 125q0 62 48 96t180 54l57 8v116q0 45 -39 45q-44 0 -44 -59q0 -16 2.5 -30.5t5.5 -20.5l3 -7l-15 -15q-45 0 -85 4t-58 8l-18 3q-13 20 -13 52
q0 59 59.5 92t160.5 33q107 0 155 -39q70 39 173 39q204 0 204 -156q0 -20 -3 -39t-6 -29l-3 -9l-15 -15h-241q4 -87 31.5 -122t85.5 -35q32 0 62.5 9.5t44.5 18.5zM359 550l-10 10l69 189q48 0 87 -7.5t54 -14.5l15 -7v-10l-160 -160h-55zM228 143q0 -51 47 -51q30 0 61 25
q-20 40 -26 89l-36 -6q-46 -8 -46 -57zM590 432q-52 0 -59 -126l85 8q6 23 6 53q0 65 -32 65z" />
    <glyph glyph-name="Oslashacute" unicode="&#x1fe;" horiz-adv-x="800" 
d="M230 -25h-91l42 74q-71 47 -110.5 124.5t-39.5 176.5q0 162 102 262t267 100q81 0 148 -26l23 39h91l-43 -75q72 -47 111.5 -124.5t39.5 -175.5q0 -161 -102 -261.5t-268 -100.5q-79 0 -148 25zM259 350q0 -85 12 -145l222 385q-36 57 -93 57q-65 0 -103 -74.5
t-38 -222.5zM541 350q0 80 -13 143l-221 -384q35 -56 93 -56q65 0 103 74.5t38 222.5zM328 750l-10 10l69 190q48 0 87 -7.5t54 -14.5l15 -8v-10l-160 -160h-55z" />
    <glyph glyph-name="oslashacute" unicode="&#x1ff;" horiz-adv-x="580" 
d="M85 -1l29 42q-93 71 -93 199q0 113 74 182.5t195 69.5q65 0 123 -24l24 34l52 -31l-23 -33q94 -70 94 -198q0 -113 -74.5 -182.5t-195.5 -69.5q-64 0 -123 23l-30 -43zM228 550l-10 10l69 189q48 0 87 -7.5t54 -14.5l15 -7v-10l-160 -160h-55zM342 240v21l-96 -137
q13 -76 44 -76q52 0 52 192zM239 240v-21l95 136q-13 77 -44 77q-51 0 -51 -192z" />
    <glyph glyph-name="Scommaaccent" unicode="&#x218;" horiz-adv-x="621" 
d="M277 647q-26 0 -41.5 -14.5t-15.5 -39.5q0 -29 28 -57t134 -107q135 -102 174 -145.5t39 -105.5q0 -190 -281 -190q-59 0 -110 8t-82 20t-54 24t-32 20l-10 8q0 36 10.5 70t25.5 57.5t30 42t26 26.5l10 9h20l5 -12.5t13 -30.5t21 -44t28.5 -46t35.5 -43.5t41.5 -31
t46.5 -12.5q31 0 50 17.5t19 42.5q0 32 -38.5 65t-138.5 97q-104 67 -146.5 117t-42.5 125q0 94 69 144.5t207 50.5q78 0 140.5 -15.5t85.5 -30.5l23 -16q0 -36 -10.5 -71t-26 -58.5t-31 -42t-25.5 -27.5l-11 -9h-17q-2 8 -7 22t-21.5 49.5t-34.5 62.5t-47 49t-59 22z
M247 -262l-17 17q39 53 39 128q0 20 -3.5 38t-6.5 25l-3 8l6 6q31 0 59.5 -3.5t41.5 -7.5l13 -4q6 -12 6 -37q0 -33 -14 -63t-33.5 -48.5t-39.5 -32.5t-34 -20z" />
    <glyph glyph-name="scommaaccent" unicode="&#x219;" horiz-adv-x="462" 
d="M221 426q-17 0 -28 -8.5t-11 -21.5q0 -6 2.5 -12t9 -12.5t13.5 -12t19.5 -13l22.5 -13.5t27.5 -16t29.5 -17q78 -46 108 -81t30 -83q0 -71 -54.5 -109.5t-162.5 -38.5q-42 0 -79 6t-60.5 14t-41 16.5t-24.5 14.5l-8 6q0 38 19.5 72.5t38.5 50.5l20 15h15q2 -5 6 -14
t17 -31t27 -39t35 -31t42 -14q20 0 32.5 10t12.5 24q0 18 -25 34t-109 59q-60 31 -91 67t-31 93q0 71 52.5 111t159.5 40q57 0 103.5 -11t64.5 -23l18 -11q0 -38 -20 -73t-40 -51l-20 -16h-14q-2 5 -5 13t-14 28.5t-22.5 36t-29 28.5t-35.5 13zM166 -262l-17 17
q39 53 39 128q0 20 -3 38t-7 25l-3 8l6 6q31 0 59.5 -3.5t41.5 -7.5l13 -4q6 -12 6 -37q0 -33 -14 -63t-33.5 -48.5t-39.5 -32.5t-34 -20z" />
    <glyph glyph-name="uni021A" unicode="&#x21a;" horiz-adv-x="690" 
d="M449 621v-621h-208v621h-41q-49 0 -90 -10t-58 -20l-17 -10l-15 15v104h650v-104l-15 -15q-6 4 -18.5 11t-55 18t-91.5 11h-41zM286 -262l-17 17q38 53 38 128q0 20 -3.5 38t-6.5 25l-3 8l6 6q31 0 59.5 -3.5t41.5 -7.5l13 -4q6 -12 6 -37q0 -33 -14 -63t-33.5 -48.5
t-39 -32.5t-33.5 -20z" />
    <glyph glyph-name="uni021B" unicode="&#x21b;" horiz-adv-x="405" 
d="M5 410v50l90 47l40 118h139v-145h120v-70h-120v-257q0 -66 60 -66q13 0 24 3.5t16 7.5l4 3l28 -27q-2 -3 -6.5 -9t-21 -21t-35.5 -26t-51 -20.5t-67 -9.5q-74 0 -112 36.5t-38 102.5v283h-70zM158 -262l-17 17q38 53 38 128q0 20 -3.5 38t-6.5 25l-3 8l6 6
q31 0 59.5 -3.5t41.5 -7.5l13 -4q6 -12 6 -37q0 -33 -14 -63t-33.5 -48.5t-39 -32.5t-33.5 -20z" />
    <glyph glyph-name="dotlessj" unicode="&#x237;" horiz-adv-x="295" 
d="M51 -20v320q0 49 -8.5 90t-17.5 58l-9 17l15 15q55 0 106 4t74 8l23 3l15 -15v-431q0 -62 -26.5 -117t-64 -89.5t-75 -60t-63.5 -36.5l-27 -11l-28 28q3 4 9 11t21 29.5t26 46.5t20.5 59.5t9.5 70.5z" />
    <glyph glyph-name="circumflex" unicode="&#x2c6;" horiz-adv-x="425" 
d="M390 560l-10 -10h-66l-101 76l-102 -76h-66l-10 10l154 189h47z" />
    <glyph glyph-name="caron" unicode="&#x2c7;" horiz-adv-x="425" 
d="M380 744l10 -9l-154 -190h-47l-154 190l10 9h66l102 -75l101 75h66z" />
    <glyph glyph-name="breve" unicode="&#x2d8;" horiz-adv-x="437" 
d="M50 668l28 28q6 -6 18 -15t49 -23.5t74 -14.5t72 13.5t51 26.5l17 13l28 -28q-2 -5 -5 -13.5t-17 -29.5t-31 -37t-48 -29.5t-67 -13.5q-37 0 -67.5 12.5t-48.5 30.5t-31 36.5t-18 31.5z" />
    <glyph glyph-name="dotaccent" unicode="&#x2d9;" horiz-adv-x="268" 
d="M43 617q0 41 25 66t66 25t66 -25t25 -66t-25 -66t-66 -25t-66 25t-25 66z" />
    <glyph glyph-name="ring" unicode="&#x2da;" horiz-adv-x="251" 
d="M25 641q0 45 28 73t73 28t73 -28t28 -73t-28 -73t-73 -28t-73 28t-28 73zM96 641q0 -31 30 -31q14 0 22 8.5t8 22.5t-8.5 22.5t-21.5 8.5q-14 0 -22 -8.5t-8 -22.5z" />
    <glyph glyph-name="ogonek" unicode="&#x2db;" horiz-adv-x="254" 
d="M110 0h57q-38 -45 -38 -97q0 -46 43 -46l25 5l27 -28q-1 -2 -3 -4.5t-9 -10t-15.5 -13t-23.5 -10t-32 -4.5q-42 0 -74 25.5t-32 71.5q0 22 7.5 41.5t18.5 31.5t22.5 21t18.5 13z" />
    <glyph glyph-name="tilde" unicode="&#x2dc;" horiz-adv-x="437" 
d="M176 682q26 0 56 -18.5t52 -18.5q21 0 41 10t29 20l10 10l28 -28q-2 -4 -5 -11.5t-15 -26.5t-26 -33.5t-36.5 -26.5t-47.5 -12q-26 0 -56.5 18.5t-52.5 18.5q-21 0 -41 -10t-30 -20l-9 -10l-28 28q2 4 5 11.5t15.5 26.5t26 33.5t36.5 26.5t48 12z" />
    <glyph glyph-name="hungarumlaut" unicode="&#x2dd;" horiz-adv-x="523" 
d="M60 550l-10 10l64 189q48 0 87 -7.5t54 -14.5l15 -7v-10l-154 -160h-56zM249 550l-10 10l86 189q48 0 85 -7.5t50 -14.5l13 -7v-10l-169 -160h-55z" />
    <glyph glyph-name="uni0400" unicode="&#x400;" 
d="M56 0v700h489v-104l-15 -15q-6 4 -18.5 11t-55 18t-91.5 11h-101v-221h206l10 -10v-70h-216v-241h111q49 0 90 10t58 20l17 10l15 -15v-104h-499zM398 760l-10 -10h-56l-159 160v10q47 30 155 30z" />
    <glyph glyph-name="afii10023" unicode="&#x401;" 
d="M56 0v700h489v-104l-15 -15q-6 4 -18.5 11t-55 18t-91.5 11h-101v-221h206l10 -10v-70h-216v-241h111q49 0 90 10t58 20l17 10l15 -15v-104h-499zM330 828q0 36 22.5 58t59.5 22t59 -22t22 -58q0 -38 -22 -60.5t-59 -22.5t-59.5 23t-22.5 60zM109 828q0 36 22.5 58
t59.5 22t59 -22t22 -58q0 -38 -22 -60.5t-59 -22.5t-59.5 23t-22.5 60z" />
    <glyph glyph-name="afii10051" unicode="&#x402;" horiz-adv-x="895" 
d="M651 212v24q0 50 -29.5 75t-80.5 25q-27 0 -50 -6.5t-33 -13.5l-9 -6v-310h-208v621h-41q-49 0 -90 -10t-58 -20l-17 -10l-15 15v104h650v-104l-15 -15q-6 4 -18.5 11t-55 18t-91.5 11h-41v-224q9 6 26 14t69 22t104 14q196 0 196 -196v-32q0 -231 -218 -231
q-52 0 -89 12.5t-49 25.5l-11 12q0 44 19.5 81.5t38.5 53.5l19 16h13q0 -3 1 -8t4 -19t6 -27t8.5 -28.5t11 -27t12.5 -19t15 -7.5q9 0 14 11.5t8.5 47.5t3.5 100z" />
    <glyph glyph-name="afii10052" unicode="&#x403;" horiz-adv-x="560" 
d="M228 750l-10 10l69 190q48 0 87 -7.5t54 -14.5l15 -8v-10l-160 -160h-55zM56 0v700h484v-104l-15 -15q-6 4 -18.5 11t-55 18t-91.5 11h-96v-621h-208z" />
    <glyph glyph-name="afii10053" unicode="&#x404;" horiz-adv-x="714" 
d="M402 647q-60 0 -97.5 -65.5t-41.5 -186.5h261l10 -10v-70h-269q10 -111 57.5 -160t135.5 -49q54 0 104.5 16t73.5 32l24 17l30 -30q-3 -6 -9 -16.5t-30.5 -37t-54.5 -46.5t-83.5 -36.5t-115.5 -16.5q-163 0 -264.5 100.5t-101.5 262.5t102 261.5t272 99.5
q131 0 209.5 -53.5t78.5 -136.5q0 -20 -4.5 -35.5t-8.5 -21.5l-5 -6q-70 -15 -186 -15l-15 15q15 22 15 75q0 57 -23 85t-64 28z" />
    <glyph glyph-name="afii10054" unicode="&#x405;" horiz-adv-x="621" 
d="M277 647q-26 0 -41.5 -14.5t-15.5 -39.5q0 -29 28 -57t134 -107q135 -102 174 -145.5t39 -105.5q0 -190 -281 -190q-59 0 -110 8t-82 20t-54 24t-32 20l-10 8q0 36 10.5 70t25.5 57.5t30 42t26 26.5l10 9h20l5 -12.5t13 -30.5t21 -44t28.5 -46t35.5 -43.5t41.5 -31
t46.5 -12.5q31 0 50 17.5t19 42.5q0 32 -38.5 65t-138.5 97q-104 67 -146.5 117t-42.5 125q0 94 69 144.5t207 50.5q78 0 140.5 -15.5t85.5 -30.5l23 -16q0 -36 -10.5 -71t-26 -58.5t-31 -42t-25.5 -27.5l-11 -9h-17q-2 8 -7 22t-21.5 49.5t-34.5 62.5t-47 49t-59 22z" />
    <glyph glyph-name="afii10055" unicode="&#x406;" horiz-adv-x="320" 
d="M56 0v700h208v-700h-208z" />
    <glyph glyph-name="afii10056" unicode="&#x407;" horiz-adv-x="320" 
d="M-32 808q0 36 23 58t60 22q36 0 58 -22t22 -58q0 -37 -22 -60t-58 -23q-37 0 -60 22.5t-23 60.5zM189 808q0 36 23 58t60 22q36 0 58 -22t22 -58q0 -37 -22 -60t-58 -23q-38 0 -60.5 22.5t-22.5 60.5zM56 0v700h208v-700h-208z" />
    <glyph glyph-name="afii10057" unicode="&#x408;" horiz-adv-x="508" 
d="M244 212v488h209v-481q0 -231 -260 -231q-61 0 -107.5 12.5t-63.5 25.5l-16 12q0 34 9 66t22 54.5t26 40t22 25.5l9 9h13q1 -7 3.5 -19.5t11.5 -43.5t19 -54.5t26.5 -43t33.5 -19.5q22 0 32.5 34.5t10.5 124.5z" />
    <glyph glyph-name="afii10058" unicode="&#x409;" horiz-adv-x="1069" 
d="M15 167l15 14q25 -11 53 -11q48 0 69.5 56.5t21.5 209.5q0 80 -5.5 142.5t-10.5 84.5l-6 22l15 15h506v-290h69q140 0 220.5 -54t80.5 -151t-80.5 -151t-220.5 -54h-277v621h-182v-140q0 -186 -22.5 -297t-61.5 -153.5t-100 -42.5q-17 0 -34 3t-25 6l-9 3q-16 67 -16 167
zM825 205q0 62 -30 93.5t-86 31.5h-36v-251h36q56 0 86 32t30 94z" />
    <glyph glyph-name="afii10059" unicode="&#x40a;" horiz-adv-x="1100" 
d="M496 0v325h-232v-325h-208v700h208v-295h232v295h208v-295h70q141 0 221 -52.5t80 -149.5t-80.5 -150t-220.5 -53h-278zM857 203q0 122 -116 122h-37v-246h37q55 0 85.5 31t30.5 93z" />
    <glyph glyph-name="afii10060" unicode="&#x40b;" horiz-adv-x="895" 
d="M636 0v236q0 50 -27.5 75t-74.5 25q-24 0 -45.5 -6.5t-30.5 -13.5l-9 -6v-310h-208v621h-41q-49 0 -90 -10t-58 -20l-17 -10l-15 15v104h650v-104l-15 -15q-6 4 -18.5 11t-55 18t-91.5 11h-41v-224q9 6 26 14t69 22t104 14q196 0 196 -196v-251h-208z" />
    <glyph glyph-name="afii10061" unicode="&#x40c;" horiz-adv-x="706" 
d="M56 0v700h208v-290h20l230 290h119l-204 -253l138 -249q28 -51 61.5 -96.5t53.5 -65.5l19 -21v-15h-250l-183 330h-4v-330h-208zM280 750l-10 10l70 190q48 0 87 -7.5t53 -14.5l15 -8v-10l-159 -160h-56z" />
    <glyph glyph-name="uni040D" unicode="&#x40d;" horiz-adv-x="770" 
d="M234 0h-178v700h208v-472l272 472h179v-700h-208v471zM468 760l-10 -10h-56l-159 160v10q47 30 155 30z" />
    <glyph glyph-name="afii10062" unicode="&#x40e;" horiz-adv-x="665" 
d="M133 147l15 15q18 -11 63 -11q58 0 97 24l-218 396q-19 35 -40.5 64.5t-33.5 41.5l-11 12v11h248l175 -322l132 322h100l-204 -468q-60 -139 -108.5 -191.5t-126.5 -52.5q-20 0 -38 3t-26 6l-8 3q-16 55 -16 147zM361 740q-80 0 -132 28t-52 74q0 9 2 18t4 14l2 4
q53 15 130 15l10 -11q-7 -15 -7 -30q0 -37 43 -37t43 36q0 7 -2 14.5t-4 12.5l-1 4l10 11q35 0 67.5 -3.5t47.5 -7.5l15 -4q8 -18 8 -37q0 -46 -52 -73.5t-132 -27.5z" />
    <glyph glyph-name="afii10145" unicode="&#x40f;" horiz-adv-x="770" 
d="M264 700v-621h243v621h208v-700h-244l-26 -195h-104l-15 15l-28 180h-242v700h208z" />
    <glyph glyph-name="afii10017" unicode="&#x410;" horiz-adv-x="721" 
d="M173 171l-62 -171h-101l238 628l-35 57v15h227l271 -700h-214l-66 171h-258zM299 515l-97 -266h199z" />
    <glyph glyph-name="afii10018" unicode="&#x411;" horiz-adv-x="665" 
d="M56 0v700h509v-104l-14 -15q-6 4 -18.5 11t-55 18t-91.5 11h-122v-195h74q141 0 221 -55.5t80 -157.5t-80 -157.5t-221 -55.5h-282zM421 213q0 133 -116 133h-41v-267h41q56 0 86 34t30 100z" />
    <glyph glyph-name="afii10019" unicode="&#x412;" horiz-adv-x="680" 
d="M56 0v700h283q285 0 285 -175q0 -120 -133 -158q166 -36 166 -177q0 -190 -302 -190h-299zM439 202q0 123 -115 123h-60v-246h60q115 0 115 123zM411 512q0 109 -105 109h-42v-216h42q105 0 105 107z" />
    <glyph glyph-name="afii10020" unicode="&#x413;" horiz-adv-x="560" 
d="M56 0v700h484v-104l-15 -15q-6 4 -18.5 11t-55 18t-91.5 11h-96v-621h-208z" />
    <glyph glyph-name="afii10021" unicode="&#x414;" horiz-adv-x="818" 
d="M188 0q-5 -9 -12.5 -24.5t-20 -62.5t-12.5 -93l-15 -15h-104l-14 259l15 15h68h1q46 22 76 108q34 95 34 248q0 62 -6 124.5t-12 94.5l-5 31l15 15h516v-621h81l14 -15l-13 -259h-104l-15 15q0 46 -11.5 91t-22.5 67l-11 22h-442zM312 481q0 -303 -69 -402h261v542h-192
v-140z" />
    <glyph glyph-name="afii10022" unicode="&#x415;" 
d="M56 0v700h489v-104l-15 -15q-6 4 -18.5 11t-55 18t-91.5 11h-101v-221h206l10 -10v-70h-216v-241h111q49 0 90 10t58 20l17 10l15 -15v-104h-499z" />
    <glyph glyph-name="afii10024" unicode="&#x416;" horiz-adv-x="1033" 
d="M127 198l130 249l-199 253h118l220 -285h17v285h208v-285h16l220 285h118l-199 -253l130 -249q27 -51 57.5 -96.5t47.5 -65.5l17 -21v-15h-236l-171 335v-335h-208v335l-172 -335h-235v15q62 69 121 183z" />
    <glyph glyph-name="afii10025" unicode="&#x417;" horiz-adv-x="637" 
d="M305 53q92 0 92 135q0 69 -28 100.5t-88 31.5h-61l-10 10v70h53q59 0 83.5 31t24.5 101q0 115 -65 115q-29 0 -56.5 -19.5t-46 -47.5t-33.5 -56.5t-22 -47.5l-7 -20h-20q-4 2 -9.5 6t-20.5 19t-26.5 33.5t-21 50t-9.5 67.5q2 3 7.5 8.5t26.5 19.5t48 24.5t76 19t108 8.5
q284 0 284 -187q0 -122 -136 -163q167 -36 167 -176q0 -198 -315 -198q-63 0 -114.5 8t-80.5 20t-48.5 24t-26.5 20l-7 8q0 36 9 67t21.5 50.5t25.5 33.5t22 19l9 6h20q2 -8 6.5 -21t20.5 -45.5t34.5 -58t49 -46t64.5 -20.5z" />
    <glyph glyph-name="afii10026" unicode="&#x418;" horiz-adv-x="770" 
d="M234 0h-178v700h208v-472l272 472h179v-700h-208v471z" />
    <glyph glyph-name="afii10027" unicode="&#x419;" horiz-adv-x="770" 
d="M234 0h-178v700h208v-472l272 472h179v-700h-208v471zM385 740q-80 0 -131.5 28t-51.5 74q0 9 2 18t4 14l2 4q52 15 130 15l10 -11q-7 -15 -7 -30q0 -37 42 -37q44 0 44 36q0 7 -1.5 14.5t-3.5 12.5l-2 4l10 11q34 0 66.5 -3.5t47.5 -7.5l16 -4q8 -18 8 -37
q0 -46 -52.5 -73.5t-132.5 -27.5z" />
    <glyph glyph-name="afii10028" unicode="&#x41a;" horiz-adv-x="706" 
d="M56 0v700h208v-290h20l230 290h119l-204 -253l138 -249q28 -51 61.5 -96.5t53.5 -65.5l19 -21v-15h-250l-183 330h-4v-330h-208z" />
    <glyph glyph-name="afii10029" unicode="&#x41b;" horiz-adv-x="728" 
d="M15 167l15 14q25 -11 53 -11q48 0 69.5 56.5t21.5 209.5q0 80 -5.5 142.5t-10.5 84.5l-6 22l15 15h506v-700h-208v621h-182v-140q0 -186 -22.5 -297t-61.5 -153.5t-100 -42.5q-17 0 -34 3t-25 6l-9 3q-16 67 -16 167z" />
    <glyph glyph-name="afii10030" unicode="&#x41c;" horiz-adv-x="965" 
d="M711 0l-54 536l-5 5l-150 -521h-137l-26 26l-154 495l-5 -5l-41 -536h-97l46 520q3 50 1.5 86.5t-5.5 57.5l-4 21l15 15h253l131 -421l124 421h249l74 -700h-215z" />
    <glyph glyph-name="afii10031" unicode="&#x41d;" horiz-adv-x="770" 
d="M507 0v320h-243v-320h-208v700h208v-300h243v300h208v-700h-208z" />
    <glyph glyph-name="afii10032" unicode="&#x41e;" horiz-adv-x="800" 
d="M31 350q0 162 102 262t267 100q166 0 268 -100.5t102 -261.5t-102 -261.5t-268 -100.5q-165 0 -267 100t-102 262zM263 350q0 -148 36.5 -222.5t100.5 -74.5t100.5 74.5t36.5 222.5t-36.5 222.5t-100.5 74.5t-100.5 -74.5t-36.5 -222.5z" />
    <glyph glyph-name="afii10033" unicode="&#x41f;" horiz-adv-x="770" 
d="M507 0v621h-243v-621h-208v700h659v-700h-208z" />
    <glyph glyph-name="afii10034" unicode="&#x420;" horiz-adv-x="665" 
d="M56 0v700h282q141 0 221 -55t80 -155t-80 -155t-221 -55h-74v-280h-208zM305 621h-41v-261h41q56 0 86 33t30 97t-30 97.5t-86 33.5z" />
    <glyph glyph-name="afii10035" unicode="&#x421;" horiz-adv-x="714" 
d="M402 647q-63 0 -101 -71.5t-38 -202.5q0 -142 48 -204.5t147 -62.5q54 0 104.5 16t73.5 32l24 17l30 -30q-3 -6 -9 -16.5t-30.5 -37t-54.5 -46.5t-83.5 -36.5t-115.5 -16.5q-163 0 -264.5 100.5t-101.5 262.5t102 261.5t272 99.5q131 0 209.5 -57.5t78.5 -147.5
q0 -21 -4.5 -38t-8.5 -23l-5 -7q-70 -15 -186 -15l-15 15q15 24 15 83q0 62 -23.5 93.5t-63.5 31.5z" />
    <glyph glyph-name="afii10036" unicode="&#x422;" horiz-adv-x="690" 
d="M449 621v-621h-208v621h-41q-49 0 -90 -10t-58 -20l-17 -10l-15 15v104h650v-104l-15 -15q-6 4 -18.5 11t-55 18t-91.5 11h-41z" />
    <glyph glyph-name="afii10037" unicode="&#x423;" horiz-adv-x="665" 
d="M133 147l15 15q18 -11 63 -11q58 0 97 24l-218 396q-19 35 -40.5 64.5t-33.5 41.5l-11 12v11h248l175 -322l132 322h100l-204 -468q-60 -139 -108.5 -191.5t-126.5 -52.5q-20 0 -38 3t-26 6l-8 3q-16 55 -16 147z" />
    <glyph glyph-name="afii10038" unicode="&#x424;" horiz-adv-x="989" 
d="M598 68v-68h-208v68q-164 0 -264 79.5t-100 207.5t100 207.5t264 79.5v58h208v-58q165 0 265 -79.5t100 -207.5t-100 -207.5t-265 -79.5zM740 355q0 111 -37 166.5t-105 55.5v-444q68 0 105 55.5t37 166.5zM248 355q0 -111 37 -166.5t105 -55.5v444q-68 0 -105 -55.5
t-37 -166.5z" />
    <glyph glyph-name="afii10039" unicode="&#x425;" horiz-adv-x="722" 
d="M255 700l149 -232l161 232h118l-228 -311l122 -189q32 -49 66.5 -95.5t53.5 -68.5l19 -21v-15h-249l-166 253l-182 -253h-109l239 332l-240 368h246z" />
    <glyph glyph-name="afii10040" unicode="&#x426;" horiz-adv-x="810" 
d="M56 0v700h208v-621h233v621h208v-621h80l15 -15l-24 -259h-104l-15 15q0 46 -8.5 91t-17.5 67l-9 22h-566z" />
    <glyph glyph-name="afii10041" unicode="&#x427;" horiz-adv-x="715" 
d="M254 700v-236q0 -50 29 -75t78 -25q26 0 48.5 6.5t32.5 13.5l9 6v310h208v-700h-208v303q-9 -6 -26.5 -14t-71 -22t-107.5 -14q-200 0 -200 196v251h208z" />
    <glyph glyph-name="afii10042" unicode="&#x428;" horiz-adv-x="1090" 
d="M56 0v700h208v-621h177v621h208v-621h177v621h208v-700h-978z" />
    <glyph glyph-name="afii10043" unicode="&#x429;" horiz-adv-x="1140" 
d="M56 0v700h208v-621h177v621h208v-621h177v621h208v-621h80l15 -15l-24 -259h-104l-15 15q0 46 -8.5 91t-17.5 67l-8 22h-896z" />
    <glyph glyph-name="afii10044" unicode="&#x42a;" horiz-adv-x="829" 
d="M20 700h414v-290h69q140 0 220.5 -54t80.5 -151t-80.5 -151t-220.5 -54h-278v621h-25q-49 0 -90 -10t-58 -20l-17 -10l-15 15v104zM586 205q0 62 -30 93.5t-86 31.5h-36v-251h36q56 0 86 32t30 94z" />
    <glyph glyph-name="afii10045" unicode="&#x42b;" horiz-adv-x="964" 
d="M56 0v700h208v-290h69q140 0 220.5 -54t80.5 -151t-80.5 -151t-220.5 -54h-277zM700 0v700h208v-700h-208zM416 205q0 62 -30 93.5t-86 31.5h-36v-251h36q56 0 86 32t30 94z" />
    <glyph glyph-name="afii10046" unicode="&#x42c;" horiz-adv-x="660" 
d="M56 0v700h208v-290h69q140 0 220.5 -54t80.5 -151t-80.5 -151t-220.5 -54h-277zM416 205q0 62 -30 93.5t-86 31.5h-36v-251h36q56 0 86 32t30 94z" />
    <glyph glyph-name="afii10047" unicode="&#x42d;" horiz-adv-x="714" 
d="M294 712q193 0 291 -97.5t98 -264.5q0 -168 -98.5 -265t-296.5 -97q-57 0 -105 8t-75.5 20t-47 24t-26.5 20l-8 8q0 36 9 67t22 50.5t25.5 33.5t21.5 19l9 6h20q2 -8 6 -21t19.5 -45.5t33.5 -58t49 -46t65 -20.5q63 0 101 65.5t42 196.5h-201l-10 10v70h211
q-6 125 -43 188.5t-94 63.5q-31 0 -60.5 -19.5t-48.5 -47.5t-34 -56.5t-21 -47.5l-7 -20h-20q-4 2 -9.5 6t-20.5 19t-26.5 33.5t-21 50t-9.5 67.5q3 3 8 8.5t26.5 19.5t48.5 24.5t74.5 19t102.5 8.5z" />
    <glyph glyph-name="afii10048" unicode="&#x42e;" horiz-adv-x="1075" 
d="M56 0v700h208v-300h94q15 141 107.5 226.5t234.5 85.5q154 0 249 -100.5t95 -261.5t-95 -261.5t-249 -100.5q-147 0 -241 91t-103 241h-92v-320h-208zM588 350q0 -148 30 -222.5t82 -74.5t81.5 74t29.5 223t-29.5 223t-81.5 74t-82 -74.5t-30 -222.5z" />
    <glyph glyph-name="afii10049" unicode="&#x42f;" horiz-adv-x="670" 
d="M123 198l58 114q-145 49 -145 183q0 97 80 151t221 54h277v-700h-208v290h-48l-143 -290h-209v15q61 69 117 183zM254 495q0 -62 30 -93.5t86 -31.5h36v251h-36q-56 0 -86 -32t-30 -94z" />
    <glyph glyph-name="afii10065" unicode="&#x430;" horiz-adv-x="567" 
d="M276 492q230 0 230 -146v-231q0 -39 30 -39q6 0 11.5 1.5t7.5 2.5l2 2l28 -27q-2 -3 -6 -7.5t-19 -16t-32 -20.5t-45 -16t-59 -7q-90 0 -111 60q-64 -60 -158 -60q-64 0 -98 33.5t-34 96.5q0 61 47 93.5t181 51.5l57 8v116q0 45 -39 45q-44 0 -44 -59q0 -16 2.5 -30.5
t5.5 -20.5l3 -7l-15 -15q-45 0 -85 4t-58 8l-18 3q-13 20 -13 52q0 60 59.5 92.5t169.5 32.5zM228 144q0 -52 44 -52q10 0 19 3t13 6l4 3v101l-34 -5q-46 -6 -46 -56z" />
    <glyph glyph-name="afii10066" unicode="&#x431;" horiz-adv-x="589" 
d="M568 251q0 -263 -262 -263q-155 0 -217.5 92.5t-62.5 272.5t58 266.5t193 109.5l197 33q5 -7 12.5 -19t20.5 -52t13 -81l-10 -10l-182 -31q-99 -17 -137 -46.5t-43 -100.5l5 -5q1 3 4.5 8t17.5 18t33 23t53.5 18t76.5 8q230 0 230 -241zM295 415q-9 0 -18 -4.5t-13 -9.5
l-4 -5q-12 -33 -12 -147q0 -201 49 -201q48 0 48 194q0 173 -50 173z" />
    <glyph glyph-name="afii10067" unicode="&#x432;" horiz-adv-x="562" 
d="M51 0v300q0 49 -6.5 90t-12.5 58l-6 17l15 15h262q106 0 160 -34.5t54 -93.5q0 -77 -86 -108q115 -28 115 -117q0 -59 -55.5 -93t-168.5 -34h-271zM278 201h-29v-122h29q65 0 65 61t-65 61zM264 400h-15v-121h15q65 0 65 60q0 61 -65 61z" />
    <glyph glyph-name="afii10068" unicode="&#x433;" horiz-adv-x="445" 
d="M290 405h-41v-405h-198v300q0 49 -6.5 90t-12.5 58l-6 17l15 15h394v-99l-15 -15q-5 4 -14.5 10.5t-43 17.5t-72.5 11z" />
    <glyph glyph-name="afii10069" unicode="&#x434;" horiz-adv-x="620" 
d="M178 0q-4 -6 -11 -17.5t-18 -51.5t-11 -86l-15 -15h-104l-14 234l15 15h52q33 29 51.5 92.5t18.5 148.5q0 46 -5.5 82.5t-10.5 49.5l-6 13l14 15h398v-401h68l15 -15l-14 -234h-104l-15 15q0 46 -10 84.5t-20 54.5l-10 16h-264zM245 329q0 -148 -50 -250h139v321h-89v-71
z" />
    <glyph glyph-name="afii10070" unicode="&#x435;" horiz-adv-x="538" 
d="M482 124l28 -28q-2 -4 -7 -11.5t-23.5 -26t-41.5 -33t-63.5 -26t-86.5 -11.5q-120 0 -193.5 69.5t-73.5 185.5q0 115 74.5 182t212.5 67q204 0 204 -156q0 -20 -3 -39t-6 -29l-3 -9l-15 -15h-242q4 -87 32 -122t86 -35q32 0 62.5 9.5t44.5 18.5zM302 432q-51 0 -58 -126
l85 8q5 25 5 52q0 66 -32 66z" />
    <glyph glyph-name="afii10072" unicode="&#x436;" horiz-adv-x="828" 
d="M786 480l-116 -163l55 -117q23 -51 48.5 -96t39.5 -64l14 -20v-20q-55 0 -105.5 -2.5t-73.5 -5.5l-22 -2l-111 234h-2v-224h-198v224h-3l-100 -214l-10 -10h-201l148 315l-117 150v15q40 0 77 2.5t53 5.5l17 2q35 -79 98 -165l22 -32l16 -2v9q0 49 -5 90t-10 58l-5 17
l15 15h203v-189l13 2l26 32q29 37 49 73t25 54l6 18l9 10h145z" />
    <glyph glyph-name="afii10073" unicode="&#x437;" horiz-adv-x="511" 
d="M215 63q31 0 50 19.5t19 55.5q0 67 -65 67h-59l-10 10v68h55q70 0 70 64q0 35 -17.5 57.5t-44.5 22.5q-29 0 -54 -30t-35 -60l-11 -30h-15q-3 2 -8 5.5t-18.5 15.5t-23.5 26t-18 37t-8 47q6 6 19 15t64 24t116 15q112 0 177 -38.5t65 -100.5q0 -72 -92 -105
q58 -14 87 -46.5t29 -73.5q0 -64 -67 -102t-188 -38q-73 0 -127.5 15t-72.5 29l-17 15q0 24 7.5 45.5t18.5 36t22.5 25.5t18.5 16l8 5h15q1 -5 3.5 -12.5t11.5 -26.5t20.5 -34t31.5 -27t43 -12z" />
    <glyph glyph-name="afii10074" unicode="&#x438;" horiz-adv-x="581" 
d="M204 0h-153v300q0 49 -6.5 90t-12.5 58l-6 17l15 15h208v-216l-5 -36l5 -5l132 257h154v-480h-198v218l5 35l-5 5z" />
    <glyph glyph-name="afii10075" unicode="&#x439;" horiz-adv-x="581" 
d="M204 0h-153v300q0 49 -6.5 90t-12.5 58l-6 17l15 15h208v-216l-5 -36l5 -5l132 257h154v-480h-198v218l5 35l-5 5zM295 520q-80 0 -131.5 28t-51.5 74q0 9 2 18t4 14l2 4q52 15 130 15l10 -11q-7 -15 -7 -30q0 -37 42 -37q44 0 44 36q0 7 -1.5 14.5t-3.5 12.5l-2 4l10 11
q34 0 66.5 -3.5t47.5 -7.5l16 -4q8 -18 8 -37q0 -46 -52.5 -73.5t-132.5 -27.5z" />
    <glyph glyph-name="afii10076" unicode="&#x43a;" horiz-adv-x="584" 
d="M51 0v300q0 49 -6.5 90t-12.5 58l-6 17l15 15h208v-189l15 2l26 32q34 42 53.5 78.5t22.5 51.5l3 15l9 10h154l-124 -159l58 -121q24 -50 53.5 -95t46.5 -65l18 -20v-20q-55 0 -107 -2.5t-76 -5.5l-24 -2l-123 234h-5v-224h-198z" />
    <glyph glyph-name="afii10077" unicode="&#x43b;" horiz-adv-x="558" 
d="M10 152l15 15q20 -11 41 -11q68 0 68 160q0 49 -5.5 86.5t-10.5 49.5l-6 13l14 15h387v-480h-199v400h-76v-71q0 -149 -40 -245t-118 -96q-13 0 -27 3t-21 6l-7 3q-15 58 -15 152z" />
    <glyph glyph-name="afii10078" unicode="&#x43c;" horiz-adv-x="732" 
d="M518 0l-30 316l-5 5l-84 -321h-143l-25 26l-75 295l-5 -5l-24 -316h-104l-10 10q26 70 39 184l12 106q5 50 3 86.5t-7 57.5l-4 21l15 15h225l67 -279l24 99q11 44 17 85.5t7 60.5l1 19l13 15h231l52 -480h-190z" />
    <glyph glyph-name="afii10079" unicode="&#x43d;" horiz-adv-x="581" 
d="M337 0v205h-88v-205h-198v300q0 49 -6.5 90t-12.5 58l-6 17l15 15h208v-195h88v15q0 49 -2.5 91.5t-4.5 60.5l-3 18l10 10h198v-480h-198z" />
    <glyph glyph-name="afii10080" unicode="&#x43e;" horiz-adv-x="580" 
d="M21 240q0 113 74 182.5t195 69.5t195.5 -69.5t74.5 -182.5t-74.5 -182.5t-195.5 -69.5t-195 69.5t-74 182.5zM243 240q0 -192 47 -192t47 192t-47 192t-47 -192z" />
    <glyph glyph-name="afii10081" unicode="&#x43f;" horiz-adv-x="581" 
d="M337 0v400h-88v-400h-198v300q0 49 -6.5 90t-12.5 58l-6 17l15 15h494v-480h-198z" />
    <glyph glyph-name="afii10082" unicode="&#x440;" horiz-adv-x="585" 
d="M249 -250h-198v450q0 84 -8.5 150.5t-17.5 90.5l-9 24l15 15q55 0 106 4t74 8l23 3l15 -15l-5 -35l5 -5q6 6 16.5 14.5t45.5 23t72 14.5q83 0 132.5 -63.5t49.5 -173.5q0 -126 -66.5 -196.5t-184.5 -70.5q-32 0 -65 7v-245zM342 223q0 91 -15.5 127t-45.5 36q-8 0 -16 -2
t-12 -4l-4 -3v-292q1 -17 10.5 -26t23.5 -9q59 0 59 173z" />
    <glyph glyph-name="afii10083" unicode="&#x441;" horiz-adv-x="528" 
d="M482 124l28 -28q-2 -4 -7 -11.5t-23.5 -26t-41.5 -33t-63.5 -26t-86.5 -11.5q-120 0 -193.5 69.5t-73.5 184.5q0 113 74 181.5t206 68.5q94 0 151 -34.5t57 -96.5q0 -15 -3.5 -29.5t-7.5 -21.5l-3 -6q-56 -15 -157 -15l-15 15q11 26 11 64q0 64 -35 64q-28 0 -42 -44
t-14 -117q0 -103 28.5 -143.5t88.5 -40.5q32 0 62.5 9.5t45.5 18.5z" />
    <glyph glyph-name="afii10084" unicode="&#x442;" horiz-adv-x="539" 
d="M529 381l-15 -15q-5 4 -14.5 10.5t-43 17.5t-72.5 11h-15v-405h-198v405h-16q-39 0 -71.5 -9.5t-45.5 -19.5l-13 -10l-15 15v99h519v-99z" />
    <glyph glyph-name="afii10085" unicode="&#x443;" horiz-adv-x="539" 
d="M539 480l-228 -550q-20 -48 -36 -93t-23 -66l-6 -21l-10 -10q-42 0 -82 12.5t-59 25.5l-19 12v15q4 3 11 8t26.5 22.5t37 37t39 50.5t36.5 64l5 11l-133 302q-21 47 -45.5 89.5t-38.5 61.5l-14 19l10 10q57 0 109 2.5t76 5.5l24 2l107 -277l39 87q23 51 35.5 93.5
t13.5 59.5l2 17l9 10q22 0 48 2.5t41 5.5l15 2z" />
    <glyph glyph-name="afii10086" unicode="&#x444;" horiz-adv-x="819" 
d="M310 -250v245q-5 -7 -39 -7q-101 0 -175.5 71t-74.5 181t74 181t175 71q15 0 25 -2t13 -4l2 -1v5q0 76 -8.5 137t-17.5 85l-8 23l15 15q55 0 106 4t74 8l23 3l15 -15v-265q6 7 40 7q101 0 175.5 -71t74.5 -181t-74.5 -181t-175.5 -71q-15 0 -25 2t-12 4l-3 1v-245h-199z
M581 240q0 192 -52 192l-20 -6v-372q9 -6 20 -6q52 0 52 192zM239 240q0 -192 53 -192l18 5v372q-7 7 -19 7q-52 0 -52 -192z" />
    <glyph glyph-name="afii10087" unicode="&#x445;" horiz-adv-x="559" 
d="M243 490l88 -144q26 37 44 68t23 44l5 12l10 10h136l-170 -211l42 -69q30 -50 64 -96t53 -68l19 -21v-15q-64 0 -124 -2.5t-88 -5.5l-28 -2l-93 151q-27 -36 -48.5 -69t-29.5 -48l-8 -14l-10 -10h-117l-10 10l174 210l-48 80q-30 48 -61 89.5t-46 58.5l-16 17v15
q65 0 124.5 2.5t87.5 5.5z" />
    <glyph glyph-name="afii10088" unicode="&#x446;" horiz-adv-x="622" 
d="M51 0v300q0 49 -6.5 90t-12.5 58l-6 17l15 15h208v-401h88v221q0 49 -2.5 91.5t-4.5 60.5l-3 18l10 10h198v-401h67l15 -15l-24 -234h-104l-15 15q0 46 -9 84.5t-17 54.5l-9 16h-388z" />
    <glyph glyph-name="afii10089" unicode="&#x447;" horiz-adv-x="575" 
d="M239 480v-181q0 -23 11.5 -31.5t36.5 -8.5q10 0 19.5 2.5t14.5 4.5l5 2v32q0 49 -5 90t-10 58l-5 17l15 15h203v-480h-198v193q-7 -4 -19 -11t-52 -18t-81 -11q-69 0 -101 39t-32 97v21q0 46 -8.5 84.5t-17.5 54.5l-9 16l15 15h218z" />
    <glyph glyph-name="afii10090" unicode="&#x448;" horiz-adv-x="855" 
d="M51 0v300q0 49 -6.5 90t-12.5 58l-6 17l15 15h208v-401h82v221q0 49 -2.5 91.5t-4.5 60.5l-3 18l10 10h198v-401h82v221q0 49 -2.5 91.5t-4.5 60.5l-3 18l10 10h198v-480h-758z" />
    <glyph glyph-name="afii10091" unicode="&#x449;" horiz-adv-x="897" 
d="M51 0v300q0 49 -6.5 90t-12.5 58l-6 17l15 15h208v-401h82v221q0 49 -2.5 91.5t-4.5 60.5l-3 18l10 10h198v-401h82v221q0 49 -2.5 91.5t-4.5 60.5l-3 18l10 10h198v-401h68l14 -15l-23 -234h-104l-15 15q0 46 -8.5 84.5t-17.5 54.5l-9 16h-663z" />
    <glyph glyph-name="afii10092" unicode="&#x44a;" horiz-adv-x="659" 
d="M162 0v405h-22q-32 0 -61 -11t-41 -22l-13 -11l-15 15v104h351v-185h54q102 0 165.5 -41t63.5 -107q0 -65 -63.5 -106t-165.5 -41h-253zM375 215h-14v-136h14q30 0 48 17.5t18 50.5q0 68 -66 68z" />
    <glyph glyph-name="afii10093" unicode="&#x44b;" horiz-adv-x="807" 
d="M51 0v300q0 49 -6.5 90t-12.5 58l-6 17l15 15h208v-185h54q103 0 166 -41t63 -107q0 -65 -63.5 -106t-165.5 -41h-252zM563 0v300q0 49 -2.5 91.5t-4.5 60.5l-3 18l10 10h198v-480h-198zM263 215h-14v-136h14q66 0 66 68t-66 68z" />
    <glyph glyph-name="afii10094" unicode="&#x44c;" horiz-adv-x="548" 
d="M51 0v300q0 49 -6.5 90t-12.5 58l-6 17l15 15h208v-185h54q103 0 166 -41t63 -107q0 -65 -63.5 -106t-165.5 -41h-252zM263 215h-14v-136h14q66 0 66 68t-66 68z" />
    <glyph glyph-name="afii10095" unicode="&#x44d;" horiz-adv-x="515" 
d="M206 63q61 0 65 147h-116l-10 10v60h126q-6 147 -62 147q-26 0 -50 -30t-35 -60l-10 -30h-15q-3 2 -8.5 5.5t-18.5 15.5t-23 26t-18.5 37t-8.5 47q7 6 20 15t62 24t107 15q134 0 209 -69t75 -183t-75 -183t-207 -69q-60 0 -109.5 15t-69.5 29l-19 15q0 24 7.5 45.5
t18.5 36t22.5 25.5t18.5 16l8 5h15q1 -5 4 -12.5t12.5 -26.5t20 -34t28 -27t36.5 -12z" />
    <glyph glyph-name="afii10096" unicode="&#x44e;" horiz-adv-x="814" 
d="M51 0v300q0 49 -6.5 90t-12.5 58l-6 17l15 15h208v-195h48q14 94 80.5 150.5t165.5 56.5q112 0 181 -69.5t69 -182.5t-69 -182.5t-181 -69.5q-102 0 -169 59.5t-78 157.5h-47v-205h-198zM502 240q0 -192 41 -192q42 0 42 192t-42 192q-41 0 -41 -192z" />
    <glyph glyph-name="afii10097" unicode="&#x44f;" horiz-adv-x="561" 
d="M4 0v20q65 69 124 180l4 8q-101 38 -101 126q0 65 62.5 105.5t164.5 40.5h257v-480h-198v187h-25l-94 -197q-78 10 -194 10zM297 267h20v133h-20q-31 0 -49.5 -16.5t-18.5 -49.5q0 -34 18.5 -50.5t49.5 -16.5z" />
    <glyph glyph-name="uni0450" unicode="&#x450;" horiz-adv-x="538" 
d="M482 124l28 -28q-2 -4 -7 -11.5t-23.5 -26t-41.5 -33t-63.5 -26t-86.5 -11.5q-120 0 -193.5 69.5t-73.5 185.5q0 115 74.5 182t212.5 67q204 0 204 -156q0 -20 -3 -39t-6 -29l-3 -9l-15 -15h-242q4 -87 32 -122t86 -35q32 0 62.5 9.5t44.5 18.5zM372 560l-10 -10h-56
l-159 160v10q47 29 155 29zM302 432q-51 0 -58 -126l85 8q5 25 5 52q0 66 -32 66z" />
    <glyph glyph-name="afii10071" unicode="&#x451;" horiz-adv-x="538" 
d="M482 124l28 -28q-2 -4 -7 -11.5t-23.5 -26t-41.5 -33t-63.5 -26t-86.5 -11.5q-120 0 -193.5 69.5t-73.5 185.5q0 115 74.5 182t212.5 67q204 0 204 -156q0 -20 -3 -39t-6 -29l-3 -9l-15 -15h-242q4 -87 32 -122t86 -35q32 0 62.5 9.5t44.5 18.5zM323 628q0 36 22.5 58
t59.5 22t58.5 -22t21.5 -58q0 -38 -21.5 -60.5t-58.5 -22.5t-59.5 22.5t-22.5 60.5zM102 628q0 36 22.5 58t59.5 22t58.5 -22t21.5 -58q0 -38 -21.5 -60.5t-58.5 -22.5t-59.5 22.5t-22.5 60.5zM302 432q-51 0 -58 -126l85 8q5 25 5 52q0 66 -32 66z" />
    <glyph glyph-name="afii10099" unicode="&#x452;" horiz-adv-x="581" 
d="M337 -20v356q0 50 -50 50q-9 0 -18.5 -2t-14.5 -4l-5 -1v-379h-198v565h-70v40l70 36v109h198v-115h145v-70h-145v-78l-5 -47l5 -5q7 6 20 15.5t53.5 25.5t80.5 16q68 0 100 -39t32 -97v-307q0 -62 -26.5 -117t-64 -89.5t-75 -60t-63.5 -36.5l-27 -11l-28 28q3 4 9 11
t21 29.5t26 46.5t20.5 59.5t9.5 70.5z" />
    <glyph glyph-name="afii10100" unicode="&#x453;" horiz-adv-x="445" 
d="M290 405h-41v-405h-198v300q0 49 -6.5 90t-12.5 58l-6 17l15 15h394v-99l-15 -15q-5 4 -14.5 10.5t-43 17.5t-72.5 11zM159 550l-9 10l69 189q48 0 86.5 -7.5t53.5 -14.5l15 -7v-10l-159 -160h-56z" />
    <glyph glyph-name="afii10101" unicode="&#x454;" horiz-adv-x="518" 
d="M482 124l28 -28q-2 -4 -7 -11.5t-23.5 -26t-41.5 -33t-63.5 -26t-86.5 -11.5q-120 0 -193.5 70t-73.5 185q0 113 74.5 181t212.5 68q89 0 142.5 -28.5t53.5 -80.5q0 -10 -2 -20.5t-4 -16.5l-3 -5q-53 -15 -154 -15l-15 15q9 20 9 44q0 47 -35 47q-55 0 -57 -147h161
l10 -10v-60h-169q7 -71 35 -99.5t80 -28.5q32 0 62.5 9.5t45.5 18.5z" />
    <glyph glyph-name="afii10102" unicode="&#x455;" horiz-adv-x="462" 
d="M221 426q-17 0 -28 -8.5t-11 -21.5q0 -6 2.5 -12t9 -12.5t13.5 -12t19.5 -13l22.5 -13.5t27.5 -16t29.5 -17q78 -46 108 -81t30 -83q0 -71 -54.5 -109.5t-162.5 -38.5q-42 0 -79 6t-60.5 14t-41 16.5t-24.5 14.5l-8 6q0 38 19.5 72.5t38.5 50.5l20 15h15q2 -5 6 -14
t17 -31t27 -39t35 -31t42 -14q20 0 32.5 10t12.5 24q0 18 -25 34t-109 59q-60 31 -91 67t-31 93q0 71 52.5 111t159.5 40q57 0 103.5 -11t64.5 -23l18 -11q0 -38 -20 -73t-40 -51l-20 -16h-14q-2 5 -5 13t-14 28.5t-22.5 36t-29 28.5t-35.5 13z" />
    <glyph glyph-name="afii10103" unicode="&#x456;" horiz-adv-x="295" 
d="M51 0v300q0 49 -8.5 90t-17.5 58l-9 17l15 15q55 0 106 4t74 8l23 3l15 -15v-480h-198zM28 640q0 51 31 82.5t83 31.5q51 0 82.5 -31.5t31.5 -82.5q0 -52 -31.5 -83t-82.5 -31q-52 0 -83 31t-31 83z" />
    <glyph glyph-name="afii10104" unicode="&#x457;" horiz-adv-x="295" 
d="M51 0v300q0 49 -8.5 90t-17.5 58l-9 17l15 15q55 0 106 4t74 8l23 3l15 -15v-480h-198zM-34 628q0 36 22.5 58t59.5 22t58.5 -22t21.5 -58q0 -38 -21.5 -60.5t-58.5 -22.5t-59.5 22.5t-22.5 60.5zM166 628q0 36 23 58t60 22q36 0 58 -22t22 -58q0 -37 -22 -60t-58 -23
q-37 0 -60 22.5t-23 60.5z" />
    <glyph glyph-name="afii10105" unicode="&#x458;" horiz-adv-x="295" 
d="M51 -20v320q0 49 -8.5 90t-17.5 58l-9 17l15 15q55 0 106 4t74 8l23 3l15 -15v-431q0 -62 -26.5 -117t-64 -89.5t-75 -60t-63.5 -36.5l-27 -11l-28 28q3 4 9 11t21 29.5t26 46.5t20.5 59.5t9.5 70.5zM28 640q0 51 31 82.5t83 31.5q51 0 82.5 -31.5t31.5 -82.5
q0 -52 -31.5 -83t-82.5 -31q-52 0 -83 31t-31 83z" />
    <glyph glyph-name="afii10106" unicode="&#x459;" horiz-adv-x="811" 
d="M10 148l15 15q20 -11 41 -11q72 0 72 167q0 47 -6 83.5t-12 49.5l-6 13l14 15h385v-185h54q102 0 165.5 -41t63.5 -107q0 -65 -63.5 -106t-165.5 -41h-253v400h-76v-71q0 -141 -42.5 -241t-116.5 -100q-12 0 -25.5 3t-21.5 6l-7 3q-15 55 -15 148zM527 215h-14v-136h14
q30 0 48 17.5t18 50.5q0 68 -66 68z" />
    <glyph glyph-name="afii10107" unicode="&#x45a;" horiz-adv-x="833" 
d="M336 0v211h-87v-211h-198v300q0 49 -6.5 90t-12.5 58l-6 17l15 15h208v-189h87v9q0 49 -2.5 91.5t-5.5 60.5l-2 18l10 10h199v-189h54q102 0 165.5 -40t63.5 -106q0 -65 -63.5 -105t-165.5 -40h-253zM549 211h-14v-132h14q65 0 65 66t-65 66z" />
    <glyph glyph-name="afii10108" unicode="&#x45b;" horiz-adv-x="581" 
d="M-19 565v40l70 36v109h198v-115h145v-70h-145v-78l-5 -47l5 -5q7 6 20 15.5t53.5 25.5t80.5 16q68 0 100 -39t32 -97v-356h-198v336q0 50 -50 50q-9 0 -18.5 -2t-14.5 -4l-5 -1v-379h-198v565h-70z" />
    <glyph glyph-name="afii10109" unicode="&#x45c;" horiz-adv-x="584" 
d="M51 0v300q0 49 -6.5 90t-12.5 58l-6 17l15 15h208v-189l15 2l26 32q34 42 53.5 78.5t22.5 51.5l3 15l9 10h154l-124 -159l58 -121q24 -50 53.5 -95t46.5 -65l18 -20v-20q-55 0 -107 -2.5t-76 -5.5l-24 -2l-123 234h-5v-224h-198zM229 550l-10 10l69 189q48 0 87 -7.5
t54 -14.5l15 -7v-10l-159 -160h-56z" />
    <glyph glyph-name="uni045D" unicode="&#x45d;" horiz-adv-x="581" 
d="M204 0h-153v300q0 49 -6.5 90t-12.5 58l-6 17l15 15h208v-216l-5 -36l5 -5l132 257h154v-480h-198v218l5 35l-5 5zM363 560l-10 -10h-56l-159 160v10q47 29 155 29z" />
    <glyph glyph-name="afii10110" unicode="&#x45e;" horiz-adv-x="539" 
d="M539 480l-228 -550q-20 -48 -36 -93t-23 -66l-6 -21l-10 -10q-42 0 -82 12.5t-59 25.5l-19 12v15q4 3 11 8t26.5 22.5t37 37t39 50.5t36.5 64l5 11l-132 302q-21 48 -45.5 90.5t-39.5 61.5l-14 18l10 10q57 0 109 2.5t76 5.5l24 2l107 -277l39 87q23 51 35.5 93.5
t13.5 59.5l2 17l9 10q22 0 48 2.5t41 5.5l15 2zM283 520q-80 0 -132 28t-52 74q0 9 2 18t4 14l2 4q53 15 130 15l10 -11q-7 -15 -7 -30q0 -37 43 -37t43 36l-6 31l9 11q35 0 67.5 -3.5t47.5 -7.5l15 -4q8 -18 8 -37q0 -46 -52 -73.5t-132 -27.5z" />
    <glyph glyph-name="afii10193" unicode="&#x45f;" horiz-adv-x="622" 
d="M51 0v300q0 49 -6.5 90t-12.5 58l-6 17l15 15h208v-401h88v221q0 49 -2.5 91.5t-4.5 60.5l-3 18l10 10h198v-480h-156l-26 -170h-104l-15 15l-28 155h-155z" />
    <glyph glyph-name="afii10050" unicode="&#x490;" horiz-adv-x="535" 
d="M56 0v700h296q35 67 35 170l15 15h104l24 -250l-15 -14h-251v-621h-208z" />
    <glyph glyph-name="afii10098" unicode="&#x491;" horiz-adv-x="445" 
d="M51 0v300q0 49 -6.5 90t-12.5 58l-6 17l15 15h216q30 52 30 155l15 15h104l24 -235l-15 -15h-166v-400h-198z" />
    <glyph glyph-name="uni04D8" unicode="&#x4d8;" horiz-adv-x="738" 
d="M36 256q0 23 2.5 41t5.5 25l2 7l15 15h414q-3 132 -51 191t-143 59q-34 0 -67.5 -6.5t-57 -16t-42 -19.5t-27.5 -16l-9 -7l-29 29q3 6 9 16.5t30 37t54.5 47t83.5 37t115 16.5q163 0 265 -100.5t102 -261.5t-102 -261.5t-267 -100.5q-141 0 -222 74t-81 194zM337 53
q54 0 91 56.5t45 162.5l-233 -19v-23q0 -177 97 -177z" />
    <glyph glyph-name="afii10846" unicode="&#x4d9;" horiz-adv-x="528" 
d="M46 356l-27 28q2 4 7 11.5t23.5 26t41.5 33t63 26t86 11.5q121 0 194.5 -69.5t73.5 -185.5q0 -115 -75 -182t-213 -67q-203 0 -203 156q0 20 3 39t6 29l3 9l14 15h241q-4 87 -31.5 122t-84.5 35q-33 0 -63.5 -9.5t-44.5 -18.5zM226 48q51 0 58 125l-85 -7q-5 -27 -5 -52
q0 -66 32 -66z" />
    <glyph glyph-name="Wgrave" unicode="&#x1e80;" horiz-adv-x="1085" 
d="M682 26l-117 346l-116 -372h-153l-25 26l-184 494q-18 49 -38.5 90t-32.5 58l-11 16v16h234l182 -494l95 314q-16 49 -34.5 90t-29.5 58l-10 16v16h235l157 -480l147 480h98l-222 -700h-150zM658 760l-10 -10h-55l-160 160v10q48 30 156 30z" />
    <glyph glyph-name="wgrave" unicode="&#x1e81;" horiz-adv-x="823" 
d="M491 26l-64 204l-70 -230h-135l-26 26l-104 274q-19 49 -42 91.5t-36 60.5l-14 18l10 10q57 0 108 2.5t74 5.5l22 2l111 -292l54 176q-12 28 -24.5 52t-18.5 34l-7 10l10 10q57 0 105 2.5t68 5.5l20 2l89 -293l35 103q16 47 25.5 89.5t10.5 61.5l2 19l10 10q22 0 49 2.5
t43 5.5l16 2l10 -10l-168 -480h-138zM513 560l-10 -10h-56l-159 160v10q48 29 156 29z" />
    <glyph glyph-name="Wacute" unicode="&#x1e82;" horiz-adv-x="1085" 
d="M682 26l-117 346l-116 -372h-153l-25 26l-184 494q-18 49 -38.5 90t-32.5 58l-11 16v16h234l182 -494l95 314q-16 49 -34.5 90t-29.5 58l-10 16v16h235l157 -480l147 480h98l-222 -700h-150zM493 750l-10 10l70 190q48 0 87 -7.5t54 -14.5l14 -8v-10l-159 -160h-56z" />
    <glyph glyph-name="wacute" unicode="&#x1e83;" horiz-adv-x="823" 
d="M491 26l-64 204l-70 -230h-135l-26 26l-104 274q-19 49 -42 91.5t-36 60.5l-14 18l10 10q57 0 108 2.5t74 5.5l22 2l111 -292l54 176q-12 28 -24.5 52t-18.5 34l-7 10l10 10q57 0 105 2.5t68 5.5l20 2l89 -293l35 103q16 47 25.5 89.5t10.5 61.5l2 19l10 10q22 0 49 2.5
t43 5.5l16 2l10 -10l-168 -480h-138zM378 550l-10 10l69 189q48 0 87 -7.5t54 -14.5l15 -7v-10l-159 -160h-56z" />
    <glyph glyph-name="Wdieresis" unicode="&#x1e84;" horiz-adv-x="1085" 
d="M682 26l-117 346l-116 -372h-153l-25 26l-184 494q-18 49 -38.5 90t-32.5 58l-11 16v16h234l182 -494l95 314q-16 49 -34.5 90t-29.5 58l-10 16v16h235l157 -480l147 480h98l-222 -700h-150zM374 828q0 36 23 58t60 22q36 0 58 -22t22 -58q0 -37 -22 -60t-58 -23
q-37 0 -60 22.5t-23 60.5zM595 828q0 36 23 58t60 22q36 0 58 -22t22 -58q0 -37 -22 -60t-58 -23q-38 0 -60.5 22.5t-22.5 60.5z" />
    <glyph glyph-name="wdieresis" unicode="&#x1e85;" horiz-adv-x="823" 
d="M491 26l-64 204l-70 -230h-135l-26 26l-104 274q-19 49 -42 91.5t-36 60.5l-14 18l10 10q57 0 108 2.5t74 5.5l22 2l111 -292l54 176q-12 28 -24.5 52t-18.5 34l-7 10l10 10q57 0 105 2.5t68 5.5l20 2l89 -293l35 103q16 47 25.5 89.5t10.5 61.5l2 19l10 10q22 0 49 2.5
t43 5.5l16 2l10 -10l-168 -480h-138zM249 628q0 36 23 58t60 22q36 0 58 -22t22 -58q0 -37 -22 -60t-58 -23q-38 0 -60.5 22.5t-22.5 60.5zM470 628q0 36 23 58t60 22q36 0 58 -22t22 -58q0 -37 -22 -60t-58 -23q-37 0 -60 22.5t-23 60.5z" />
    <glyph glyph-name="Ygrave" unicode="&#x1ef2;" horiz-adv-x="697" 
d="M692 700l-227 -368v-332h-208v315l-107 173q-33 54 -69 103t-56 71l-20 22v16h257l161 -260l160 260h109zM441 760l-10 -10h-55l-160 160v10q48 30 156 30z" />
    <glyph glyph-name="ygrave" unicode="&#x1ef3;" horiz-adv-x="539" 
d="M539 480l-228 -550q-20 -48 -36 -93t-23 -66l-6 -21l-10 -10q-42 0 -82 12.5t-59 25.5l-19 12v15q4 3 11 8t26.5 22.5t37 37t39 50.5t36.5 64l5 11l-133 302q-21 47 -45.5 89.5t-38.5 61.5l-14 19l10 10q57 0 109 2.5t76 5.5l24 2l107 -277l39 87q23 51 35.5 93.5
t13.5 59.5l2 17l9 10q22 0 48 2.5t41 5.5l15 2zM356 560l-10 -10h-55l-160 160v10q48 29 156 29z" />
    <glyph glyph-name="figuredash" unicode="&#x2012;" 
d="M45 310v80h500v-80h-500z" />
    <glyph glyph-name="endash" unicode="&#x2013;" horiz-adv-x="490" 
d="M45 235v80h400v-80h-400z" />
    <glyph glyph-name="emdash" unicode="&#x2014;" horiz-adv-x="790" 
d="M45 235v80h700v-80h-700z" />
    <glyph glyph-name="quoteleft" unicode="&#x2018;" horiz-adv-x="254" 
d="M225 759l28 -28q-7 -10 -17 -28t-27 -72.5t-17 -107.5q0 -32 5 -60.5t11 -41.5l5 -13l-10 -10q-48 0 -88.5 6t-56.5 12l-17 6q-10 22 -10 63q0 51 20 98t48.5 78t57 54t48.5 33z" />
    <glyph glyph-name="quoteright" unicode="&#x2019;" horiz-adv-x="254" 
d="M45 399l-28 28q7 10 17 27.5t27 72t17 108.5q0 32 -5 60.5t-11 41.5l-5 13l10 10q48 0 88.5 -6t56.5 -12l17 -6q10 -23 10 -63q0 -51 -20 -98t-48.5 -78t-57 -54t-48.5 -33z" />
    <glyph glyph-name="quotesinglbase" unicode="&#x201a;" horiz-adv-x="254" 
d="M35 -183l-28 28q7 10 17 28t27 72.5t17 107.5q0 32 -5 61t-11 42l-5 13l10 10q48 0 88.5 -6t56.5 -12l17 -6q10 -23 10 -64q0 -51 -20 -98t-48.5 -78t-57 -54t-48.5 -33z" />
    <glyph glyph-name="quotedblleft" unicode="&#x201c;" horiz-adv-x="453" 
d="M225 759l28 -28q-7 -10 -17 -28t-27 -72.5t-17 -107.5q0 -32 5 -60.5t11 -41.5l5 -13l-10 -10q-48 0 -88.5 6t-56.5 12l-17 6q-10 22 -10 63q0 51 20 98t48.5 78t57 54t48.5 33zM424 759l28 -28q-7 -10 -17 -28t-27 -72.5t-17 -107.5q0 -32 5.5 -60.5t10.5 -41.5l5 -13
l-10 -10q-48 0 -88.5 6t-57.5 12l-16 6q-9 22 -9 63q0 51 20 98t48.5 78t56.5 54t48 33z" />
    <glyph glyph-name="quotedblright" unicode="&#x201d;" horiz-adv-x="453" 
d="M45 399l-28 28q7 10 17 27.5t27 72t17 108.5q0 32 -5 60.5t-11 41.5l-5 13l10 10q48 0 88.5 -6t56.5 -12l17 -6q10 -23 10 -63q0 -51 -20 -98t-48.5 -78t-57 -54t-48.5 -33zM244 399l-28 28q7 10 17 27.5t27 72t17 108.5q0 32 -5 60.5t-10 41.5l-5 13l9 10q49 0 89.5 -6
t56.5 -12l16 -6q10 -23 10 -63q0 -51 -20 -98t-48.5 -78t-57 -54t-48.5 -33z" />
    <glyph glyph-name="quotedblbase" unicode="&#x201e;" horiz-adv-x="453" 
d="M35 -183l-28 28q7 10 17 28t27 72.5t17 107.5q0 32 -5 61t-11 42l-5 13l10 10q48 0 88.5 -6t56.5 -12l17 -6q10 -23 10 -64q0 -51 -20 -98t-48.5 -78t-57 -54t-48.5 -33zM234 -183l-28 28q7 10 17 28t27 72.5t17 107.5q0 32 -5 61t-10 42l-5 13l9 10q49 0 89.5 -6
t56.5 -12l16 -6q10 -23 10 -64q0 -51 -20 -98t-48.5 -78t-57 -54t-48.5 -33z" />
    <glyph glyph-name="dagger" unicode="&#x2020;" horiz-adv-x="490" 
d="M26 483v93l182 -9l-9 183h93l-10 -183l183 9v-93l-180 10v-543h-80v543z" />
    <glyph glyph-name="daggerdbl" unicode="&#x2021;" horiz-adv-x="490" 
d="M26 483v93l182 -9l-9 183h93l-10 -183l183 9v-93l-180 10v-286l180 10v-93l-183 9l10 -183h-93l9 183l-182 -9v93l179 -10v286z" />
    <glyph glyph-name="bullet" unicode="&#x2022;" horiz-adv-x="314" 
d="M26 300q0 59 36 95.5t95 36.5t95.5 -36.5t36.5 -95.5t-36.5 -95t-95.5 -36t-95 36t-36 95z" />
    <glyph glyph-name="ellipsis" unicode="&#x2026;" horiz-adv-x="783" 
d="M25 89q0 46 28 74t74 28t74 -28t28 -74q0 -45 -28 -73t-74 -28t-74 28t-28 73zM290 89q0 46 27.5 74t73.5 28t74 -28t28 -74q0 -45 -28 -73t-74 -28t-73.5 28t-27.5 73zM554 89q0 46 27.5 74t73.5 28t74 -28t28 -74q0 -45 -28 -73t-74 -28t-73.5 28t-27.5 73z" />
    <glyph glyph-name="perthousand" unicode="&#x2030;" horiz-adv-x="1273" 
d="M264 0h-92l432 700h92zM20 515q0 88 52.5 142.5t137.5 54.5t137.5 -54.5t52.5 -142.5t-52.5 -142.5t-137.5 -54.5t-137.5 54.5t-52.5 142.5zM169 514q0 -131 41 -131t41 131q0 132 -41 132t-41 -132zM468 185q0 88 52.5 142.5t137.5 54.5t137.5 -54.5t52.5 -142.5
t-52.5 -142.5t-137.5 -54.5t-137.5 54.5t-52.5 142.5zM617 184q0 -131 41 -131t41 131q0 132 -41 132t-41 -132zM873 185q0 88 52.5 142.5t137.5 54.5t137 -54.5t52 -142.5t-52 -142.5t-137 -54.5t-137.5 54.5t-52.5 142.5zM1022 184q0 -131 41 -131t41 131q0 132 -41 132
t-41 -132z" />
    <glyph glyph-name="guilsinglleft" unicode="&#x2039;" horiz-adv-x="300" 
d="M265 483l10 -10v-66l-101 -132l101 -132v-66l-10 -10l-240 194v28z" />
    <glyph glyph-name="guilsinglright" unicode="&#x203a;" horiz-adv-x="300" 
d="M25 473l10 10l240 -194v-28l-240 -194l-10 10v66l101 132l-101 132v66z" />
    <glyph glyph-name="fraction" unicode="&#x2044;" horiz-adv-x="534" 
d="M97 -25h-92l432 750h92z" />
    <glyph glyph-name="Euro" unicode="&#x20ac;" horiz-adv-x="742" 
d="M14 385v80h68q30 116 124.5 181.5t249.5 65.5q54 0 100 -8t73 -20t46 -24t27 -20l7 -8q0 -32 -8.5 -60t-21 -45t-24.5 -29t-21 -17l-8 -5h-19q-2 7 -6.5 18.5t-20 41t-33 52t-46 41t-59.5 18.5q-50 0 -84.5 -45.5t-48.5 -136.5h216l10 -10v-70h-233v-70h223l10 -10v-70
h-226q13 -91 49 -136.5t90 -45.5q34 0 63.5 17.5t47.5 42.5t31.5 50.5t19.5 42.5l5 18h19q3 -2 9 -5.5t20 -16.5t25 -29.5t20 -44.5t9 -60q-2 -3 -7 -8.5t-25.5 -19.5t-47 -24.5t-73.5 -19t-102 -8.5q-159 0 -254.5 65t-125.5 182h-68v80h56q-1 11 -1 35q0 23 1 35h-56z" />
    <glyph glyph-name="uni20B4" unicode="&#x20b4;" 
d="M26 385v80h282q18 29 18 60q0 69 -89 69q-44 0 -85.5 -14t-61.5 -28l-20 -13l-29 29q3 6 8.5 15.5t28 34.5t51.5 44t79.5 34.5t110.5 15.5q107 0 168.5 -44.5t61.5 -114.5q0 -46 -29 -88h44v-80h-124q-14 -12 -41 -32t-37 -28h202v-80h-281q-20 -32 -20 -66q0 -73 97 -73
q45 0 87.5 14t62.5 28l20 13l29 -29q-3 -6 -8.5 -15.5t-29 -34.5t-52.5 -44t-81 -34.5t-113 -15.5q-110 0 -172.5 45t-62.5 117q0 50 32 95h-46v80h127q9 7 25 19t29 22t24 19h-205z" />
    <glyph glyph-name="afii61352" unicode="&#x2116;" horiz-adv-x="1091" 
d="M145 378v-378h-89v420q0 80 -9 146t-17 92l-9 27l15 15h69l441 -378v378h99v-700h-59zM691 515q0 88 52.5 142.5t137.5 54.5q84 0 136.5 -54.5t52.5 -142.5t-52.5 -142.5t-136.5 -54.5q-85 0 -137.5 54.5t-52.5 142.5zM701 180v80h359v-80h-359zM840 514q0 -131 41 -131
t41 131q0 132 -41 132t-41 -132z" />
    <glyph glyph-name="trademark" unicode="&#x2122;" horiz-adv-x="844" 
d="M697 350l-22 255l-2 3l-64 -248h-83l-15 15l-65 233l-2 -3l-16 -255h-57l20 259q2 22 0 42.5t-5 30.5l-2 9l9 9h153l49 -176l48 176h150l34 -350h-130zM245 653v-303h-125v303h-12q-24 0 -44.5 -5.5t-29.5 -11.5l-8 -5l-9 7v62h332v-62l-9 -7q-29 22 -82 22h-13z" />
    <glyph glyph-name="arrowleft" unicode="&#x2190;" horiz-adv-x="540" 
d="M275 493l10 -10v-66l-80 -102h290v-80h-290l80 -102v-66l-10 -10l-250 204v28z" />
    <glyph glyph-name="arrowup" unicode="&#x2191;" horiz-adv-x="530" 
d="M305 50h-80v289l-102 -79h-66l-10 10l204 250h28l204 -250l-10 -10h-66l-102 79v-289z" />
    <glyph glyph-name="arrowright" unicode="&#x2192;" horiz-adv-x="540" 
d="M45 235v80h289l-79 102v66l10 10l250 -204v-28l-250 -204l-10 10v66l79 102h-289z" />
    <glyph glyph-name="arrowdown" unicode="&#x2193;" horiz-adv-x="530" 
d="M47 280l10 10h66l102 -80v290h80v-290l102 80h66l10 -10l-204 -250h-28z" />
    <glyph glyph-name="uni2196" unicode="&#x2196;" horiz-adv-x="530" 
d="M136 110h-15l-32 321l20 20l321 -32v-15l-47 -46l-129 -16l205 -205l-56 -56l-205 204l-16 -128z" />
    <glyph glyph-name="uni2197" unicode="&#x2197;" horiz-adv-x="530" 
d="M145 81l-56 56l204 205l-128 16l-47 46v15l321 32l20 -20l-32 -321h-15l-46 47l-16 128z" />
    <glyph glyph-name="uni2198" unicode="&#x2198;" horiz-adv-x="530" 
d="M89 395l56 56l205 -205l16 129l46 47h15l32 -321l-20 -20l-321 32v15l47 46l128 16z" />
    <glyph glyph-name="uni2199" unicode="&#x2199;" horiz-adv-x="530" 
d="M430 128v-15l-321 -32l-20 20l32 321h15l46 -47l16 -129l205 205l56 -56l-205 -205l129 -16z" />
    <glyph glyph-name="minus" unicode="&#x2212;" 
d="M95 285v80h400v-80h-400z" />
    <glyph glyph-name="approxequal" unicode="&#x2248;" 
d="M95 349v88q46 52 100 52q34 0 99 -28t101 -28q54 0 100 53v-88q-45 -53 -99 -53q-34 0 -98.5 28t-100.5 28q-54 0 -102 -52zM396 162q-34 0 -98.5 28t-100.5 28q-54 0 -102 -52v88q46 52 100 52q34 0 99 -28.5t101 -28.5q53 0 100 53v-87q-45 -53 -99 -53z" />
    <glyph glyph-name="notequal" unicode="&#x2260;" 
d="M95 375v80h226l75 126l68 -39l-52 -87h83v-80h-130l-59 -100h189v-80h-237l-74 -126l-67 39l51 87h-73v80h120l59 100h-179z" />
    <glyph glyph-name="lessequal" unicode="&#x2264;" 
d="M505 591v-86l-304 -112l304 -113v-85l-420 155v86zM85 70v80h420v-80h-420z" />
    <glyph glyph-name="greaterequal" unicode="&#x2265;" 
d="M85 505v86l420 -155v-86l-420 -155v85l304 113zM85 70v80h420v-80h-420z" />
    <glyph glyph-name="commaaccent" unicode="&#xf6c3;" horiz-adv-x="231" 
d="M52 -262l-17 17q38 53 38 128q0 20 -3.5 37.5t-6.5 25.5l-3 8l6 6q31 0 59.5 -3.5t41.5 -7.5l13 -4q6 -12 6 -37q0 -33 -14 -63t-33.5 -48.5t-39 -32.5t-33.5 -20z" />
    <glyph glyph-name="zerooldstyle" unicode="&#xf730;" horiz-adv-x="670" 
d="M31 240q0 113 84 182.5t220 69.5t220 -69.5t84 -182.5t-84 -182.5t-220 -69.5t-220 69.5t-84 182.5zM239 240q0 -93 25.5 -140t70.5 -47t70.5 47t25.5 140t-25.5 140t-70.5 47t-70.5 -47t-25.5 -140z" />
    <glyph glyph-name="oneoldstyle" unicode="&#xf731;" horiz-adv-x="489" 
d="M196 0v326q-74 -30 -155 -30q-11 20 -11 74l10 10q65 0 132.5 25t102.5 50l35 25h84v-480h-198z" />
    <glyph glyph-name="twooldstyle" unicode="&#xf732;" horiz-adv-x="565" 
d="M539 363q0 -38 -28.5 -77t-64 -66t-81 -52t-67 -34.5t-34.5 -14.5h98q49 0 90 10t58 20l17 10l15 -15v-144h-524v79q13 6 33.5 17.5t73.5 46t93.5 68t74 79t33.5 83.5q0 24 -13 39t-36 15q-52 0 -52 -84q0 -22 3.5 -38t7.5 -21l3 -5l-15 -15q-52 0 -98.5 4t-67.5 8l-20 3
q-13 16 -13 54q0 73 64.5 116t196.5 43q116 0 184.5 -33.5t68.5 -95.5z" />
    <glyph glyph-name="threeoldstyle" unicode="&#xf733;" horiz-adv-x="627" 
d="M296 -197q45 0 67.5 40.5t22.5 108.5q0 143 -105 143h-39l-9 10v80h31q55 0 78 29.5t23 98.5q0 61 -16 87.5t-49 26.5q-35 0 -55 -26.5t-20 -80.5q0 -22 3.5 -40t7.5 -24l3 -7l-15 -15q-52 0 -98.5 4t-67.5 8l-20 3q-13 20 -13 59q0 83 72.5 133.5t208.5 50.5
q130 0 201 -48.5t71 -139.5q0 -122 -134 -162q79 -17 119.5 -67.5t40.5 -121.5q0 -101 -81.5 -158t-224.5 -57q-138 0 -209 52t-71 136q0 19 3.5 34.5t6.5 21.5l4 6q70 15 186 15l15 -15q-15 -22 -15 -75q0 -56 21 -83t57 -27z" />
    <glyph glyph-name="fouroldstyle" unicode="&#xf734;" horiz-adv-x="610" 
d="M15 0v40l400 440h99v-401h76v-79h-76v-250h-198v250h-301zM159 79h157v170z" />
    <glyph glyph-name="fiveoldstyle" unicode="&#xf735;" horiz-adv-x="605" 
d="M285 -197q41 0 63 44t22 116q0 89 -35 126.5t-111 37.5q-40 0 -77.5 -8.5t-55.5 -16.5l-18 -9l-14 15l45 360h231q49 0 90 10t58 20l17 10l15 -15v-184h-341l-15 -119q68 34 155 34q127 0 200.5 -70.5t73.5 -180.5q0 -109 -77 -172t-224 -63q-132 0 -200.5 50t-68.5 130
q0 19 3.5 34t6.5 20l4 6q70 15 186 15l15 -15q-15 -20 -15 -73q0 -52 18.5 -77t48.5 -25z" />
    <glyph glyph-name="sixoldstyle" unicode="&#xf736;" horiz-adv-x="665" 
d="M345 647q-47 0 -71 -62.5t-25 -207.5q44 39 133 39q108 0 180 -57.5t72 -149.5q0 -100 -84 -160.5t-206 -60.5q-150 0 -231.5 98t-81.5 269q0 77 17 139t54 112.5t102 78t153 27.5q111 0 181 -42.5t70 -114.5q0 -16 -3 -30t-7 -20l-3 -6q-70 -15 -185 -15l-15 15
q14 22 14 64q0 44 -18 64t-46 20zM327 351q-45 0 -77 -56q7 -242 87 -242q34 0 56.5 39.5t22.5 109.5q0 73 -25 111t-64 38z" />
    <glyph glyph-name="sevenoldstyle" unicode="&#xf737;" horiz-adv-x="568" 
d="M343 -250h-198q0 101 28.5 197t68.5 160.5t80.5 115t69.5 74.5l28 24h-215q-49 0 -90 -9.5t-58 -19.5l-17 -10l-15 15v183h520v-84l-1 -1q-11 -16 -25.5 -39t-48.5 -91.5t-59.5 -139t-46.5 -173.5t-21 -202z" />
    <glyph glyph-name="eightoldstyle" unicode="&#xf738;" horiz-adv-x="634" 
d="M574 536q0 -101 -110 -160q65 -39 102 -85t37 -111q0 -85 -69 -138.5t-216 -53.5q-148 0 -220 53.5t-72 133.5q0 106 122 168q-99 69 -99 173q0 90 68 143t200 53q131 0 194 -50.5t63 -125.5zM412 137q0 21 -10 40t-21 31t-39 29t-41 24t-50 25q-37 -42 -37 -103
q0 -55 30.5 -92.5t81.5 -37.5q41 0 63.5 24.5t22.5 59.5zM303 647q-31 0 -48 -17.5t-17 -49.5q0 -46 32 -79t93 -68q32 43 32 102q0 52 -26 82t-66 30z" />
    <glyph glyph-name="nineoldstyle" unicode="&#xf739;" horiz-adv-x="656" 
d="M307 -197q99 0 100 309q-48 -44 -135 -44q-99 0 -170 54t-71 148q0 101 82 161.5t200 60.5q151 0 231.5 -103.5t80.5 -272.5q0 -80 -18.5 -146.5t-56 -119.5t-101 -82.5t-146.5 -29.5q-112 0 -191 48t-79 129q0 16 3 30t6 20l3 6q71 14 187 14l15 -14q-14 -21 -14 -65
q0 -51 22 -77t52 -26zM331 133q42 0 75 49q-9 245 -85 245q-31 0 -51.5 -39t-20.5 -110q0 -73 22.5 -109t59.5 -36z" />
    <glyph glyph-name="A.smcp" horiz-adv-x="559" 
d="M141 107l-39 -107h-89l167 428q-8 14 -16 26.5t-12 17.5l-5 5v13h204l196 -490h-192l-43 107h-171zM224 329l-58 -154h119z" />
    <glyph glyph-name="Aacute.smcp" horiz-adv-x="559" 
d="M141 107l-39 -107h-89l167 428q-8 14 -16 26.5t-12 17.5l-5 5v13h204l196 -490h-192l-43 107h-171zM197 527l-10 10l69 190q48 0 87 -7.5t54 -15.5l15 -7v-10l-160 -160h-55zM224 329l-58 -154h119z" />
    <glyph glyph-name="Abreve.smcp" horiz-adv-x="559" 
d="M141 107l-39 -107h-89l167 428q-8 14 -16 26.5t-12 17.5l-5 5v13h204l196 -490h-192l-43 107h-171zM101 649l27 28q6 -6 18 -15t49 -23.5t74 -14.5t72.5 13t52.5 27l16 13l28 -28q-2 -5 -5 -13.5t-17 -29.5t-31.5 -37t-48.5 -29.5t-67 -13.5t-67 12.5t-48.5 31
t-30.5 36.5t-17 30zM224 329l-58 -154h119z" />
    <glyph glyph-name="Acircumflex.smcp" horiz-adv-x="559" 
d="M141 107l-39 -107h-89l167 428q-8 14 -16 26.5t-12 17.5l-5 5v13h204l196 -490h-192l-43 107h-171zM448 537l-10 -10h-66l-102 76l-102 -76h-65l-10 10l153 190h48zM224 329l-58 -154h119z" />
    <glyph glyph-name="Agrave.smcp" horiz-adv-x="559" 
d="M141 107l-39 -107h-89l167 428q-8 14 -16 26.5t-12 17.5l-5 5v13h204l196 -490h-192l-43 107h-171zM352 537l-10 -10h-56l-159 160v10q47 30 155 30zM224 329l-58 -154h119z" />
    <glyph glyph-name="Adieresis.smcp" horiz-adv-x="559" 
d="M141 107l-39 -107h-89l167 428q-8 14 -16 26.5t-12 17.5l-5 5v13h204l196 -490h-192l-43 107h-171zM79 610q0 36 22.5 58t59.5 22t59 -22t22 -58q0 -38 -22 -60.5t-59 -22.5t-59.5 23t-22.5 60zM300 610q0 36 22.5 58t59.5 22t58.5 -22t21.5 -58q0 -38 -21.5 -60.5
t-58.5 -22.5t-59.5 22.5t-22.5 60.5zM224 329l-58 -154h119z" />
    <glyph glyph-name="Amacron.smcp" horiz-adv-x="559" 
d="M141 107l-39 -107h-89l167 428q-8 14 -16 26.5t-12 17.5l-5 5v13h204l196 -490h-192l-43 107h-171zM124 557v80h294v-80h-294zM224 329l-58 -154h119z" />
    <glyph glyph-name="Aogonek.smcp" horiz-adv-x="559" 
d="M141 107l-39 -107h-89l167 428q-8 14 -16 26.5t-12 17.5l-5 5v13h204l196 -490h-52q-36 -42 -36 -95q0 -46 42 -46l25 5l28 -28q-3 -5 -8.5 -12t-26.5 -18.5t-48 -11.5q-42 0 -74 25.5t-32 71.5q0 31 16 57t29 36t25 16h-80l-43 107h-171zM224 329l-58 -154h119z" />
    <glyph glyph-name="Aring.smcp" horiz-adv-x="559" 
d="M141 107l-39 -107h-89l167 428q-8 14 -16 26.5t-12 17.5l-5 5v13h204l196 -490h-192l-43 107h-171zM169 621q0 45 28 73t73 28t73 -28t28 -73t-28 -73t-73 -28t-73 28t-28 73zM224 329l-58 -154h119zM240 621q0 -31 30 -31q14 0 22 8.5t8 22.5t-8.5 22.5t-21.5 8.5
q-14 0 -22 -8.5t-8 -22.5z" />
    <glyph glyph-name="Atilde.smcp" horiz-adv-x="559" 
d="M141 107l-39 -107h-89l167 428q-8 14 -16 26.5t-12 17.5l-5 5v13h204l196 -490h-192l-43 107h-171zM226 663q26 0 56.5 -18.5t52.5 -18.5q21 0 41 10t30 20l9 10l28 -28q-2 -4 -5 -11.5t-15.5 -26.5t-26 -33.5t-36.5 -26.5t-48 -12q-26 0 -56.5 18.5t-52.5 18.5
q-21 0 -41 -10t-30 -20l-9 -10l-27 28q2 4 5 11.5t15 26.5t26 33.5t36.5 26.5t47.5 12zM224 329l-58 -154h119z" />
    <glyph glyph-name="AE.smcp" horiz-adv-x="654" 
d="M13 0l217 490h388v-91l-13 -13q-43 35 -124 35h-48v-133h126l8 -8v-62h-134v-149h56q36 0 66.5 8.5t43.5 17.5l13 9l13 -13v-91h-379v130h-89l-55 -130h-89zM186 198h60v141z" />
    <glyph glyph-name="AEacute.smcp" horiz-adv-x="654" 
d="M13 0l217 490h388v-91l-13 -13q-43 35 -124 35h-48v-133h126l8 -8v-62h-134v-149h56q36 0 66.5 8.5t43.5 17.5l13 9l13 -13v-91h-379v130h-89l-55 -130h-89zM246 527l-10 10l69 190q48 0 87 -7.5t54 -15.5l15 -7v-10l-160 -160h-55zM186 198h60v141z" />
    <glyph glyph-name="B.smcp" horiz-adv-x="528" 
d="M40 0v490h220q116 0 171.5 -30t55.5 -93q0 -81 -96 -109q121 -27 121 -123q0 -69 -58.5 -102t-182.5 -33h-231zM315 145q0 77 -72 77h-16v-154h16q72 0 72 77zM296 356q0 66 -66 66h-3v-131h3q66 0 66 65z" />
    <glyph glyph-name="C.smcp" horiz-adv-x="545" 
d="M307 444q-32 0 -52.5 -45t-20.5 -133q0 -97 29.5 -134.5t95.5 -37.5q38 0 74 10.5t53 21.5l18 10l25 -24q-2 -5 -6.5 -13t-23 -29t-41.5 -37.5t-64.5 -29.5t-90.5 -13q-125 0 -202.5 71t-77.5 185q0 113 78 183.5t208 70.5q101 0 162 -41.5t61 -104.5q0 -16 -4 -29
t-8 -18l-3 -5q-63 -13 -169 -13l-12 13q13 19 13 66q0 76 -42 76z" />
    <glyph glyph-name="Cacute.smcp" horiz-adv-x="545" 
d="M307 444q-32 0 -52.5 -45t-20.5 -133q0 -97 29.5 -134.5t95.5 -37.5q38 0 74 10.5t53 21.5l18 10l25 -24q-2 -5 -6.5 -13t-23 -29t-41.5 -37.5t-64.5 -29.5t-90.5 -13q-125 0 -202.5 71t-77.5 185q0 113 78 183.5t208 70.5q101 0 162 -41.5t61 -104.5q0 -16 -4 -29
t-8 -18l-3 -5q-63 -13 -169 -13l-12 13q13 19 13 66q0 76 -42 76zM222 527l-10 10l69 190q48 0 87 -7.5t54 -15.5l15 -7v-10l-160 -160h-55z" />
    <glyph glyph-name="Ccaron.smcp" horiz-adv-x="545" 
d="M307 444q-32 0 -52.5 -45t-20.5 -133q0 -97 29.5 -134.5t95.5 -37.5q38 0 74 10.5t53 21.5l18 10l25 -24q-2 -5 -6.5 -13t-23 -29t-41.5 -37.5t-64.5 -29.5t-90.5 -13q-125 0 -202.5 71t-77.5 185q0 113 78 183.5t208 70.5q101 0 162 -41.5t61 -104.5q0 -16 -4 -29
t-8 -18l-3 -5q-63 -13 -169 -13l-12 13q13 19 13 66q0 76 -42 76zM463 724l10 -10l-154 -190h-48l-153 190l10 10h65l102 -76l102 76h66z" />
    <glyph glyph-name="Ccedilla.smcp" horiz-adv-x="545" 
d="M258 -78l10 70q-111 10 -178 79.5t-67 174.5q0 113 78 183.5t208 70.5q101 0 162 -41.5t61 -104.5q0 -16 -4 -29t-8 -18l-3 -5q-63 -13 -169 -13l-12 13q13 19 13 66q0 76 -42 76q-32 0 -52.5 -45t-20.5 -133q0 -97 29.5 -134.5t95.5 -37.5q38 0 74 10.5t53 21.5l18 10
l25 -24q-2 -5 -6 -12.5t-20.5 -27t-37.5 -35.5t-58.5 -29.5t-81.5 -16.5l-6 -35q32 0 56 -21.5t24 -56.5q0 -36 -26.5 -60t-70.5 -24q-30 0 -54 12t-32 24l-9 11l22 23q14 -15 39 -15q38 0 38 32q0 31 -39 31z" />
    <glyph glyph-name="Ccircumflex.smcp" horiz-adv-x="545" 
d="M307 444q-32 0 -52.5 -45t-20.5 -133q0 -97 29.5 -134.5t95.5 -37.5q38 0 74 10.5t53 21.5l18 10l25 -24q-2 -5 -6.5 -13t-23 -29t-41.5 -37.5t-64.5 -29.5t-90.5 -13q-125 0 -202.5 71t-77.5 185q0 113 78 183.5t208 70.5q101 0 162 -41.5t61 -104.5q0 -16 -4 -29
t-8 -18l-3 -5q-63 -13 -169 -13l-12 13q13 19 13 66q0 76 -42 76zM473 537l-10 -10h-66l-102 76l-102 -76h-65l-10 10l153 190h48z" />
    <glyph glyph-name="Cdotaccent.smcp" horiz-adv-x="545" 
d="M307 444q-32 0 -52.5 -45t-20.5 -133q0 -97 29.5 -134.5t95.5 -37.5q38 0 74 10.5t53 21.5l18 10l25 -24q-2 -5 -6.5 -13t-23 -29t-41.5 -37.5t-64.5 -29.5t-90.5 -13q-125 0 -202.5 71t-77.5 185q0 113 78 183.5t208 70.5q101 0 162 -41.5t61 -104.5q0 -16 -4 -29
t-8 -18l-3 -5q-63 -13 -169 -13l-12 13q13 19 13 66q0 76 -42 76zM204 612q0 41 25 66t66 25t66.5 -25t25.5 -66t-25.5 -66t-66.5 -25t-66 25t-25 66z" />
    <glyph glyph-name="D.smcp" horiz-adv-x="591" 
d="M40 0v490h244q127 0 205.5 -67.5t78.5 -177.5t-78.5 -177.5t-205.5 -67.5h-244zM275 422h-48v-354h48q83 0 83 177t-83 177z" />
    <glyph glyph-name="Dcaron.smcp" horiz-adv-x="591" 
d="M40 0v490h244q127 0 205.5 -67.5t78.5 -177.5t-78.5 -177.5t-205.5 -67.5h-244zM275 422h-48v-354h48q83 0 83 177t-83 177zM454 724l10 -10l-154 -190h-48l-153 190l10 10h65l102 -76l102 76h66z" />
    <glyph glyph-name="Dcroat.smcp" 
d="M6 213v69h34v208h244q127 0 205 -67.5t78 -177.5t-78 -177.5t-205 -67.5h-244v213h-34zM275 422h-48v-140h74v-69h-74v-145h48q82 0 82 177t-82 177z" />
    <glyph glyph-name="Eth.smcp" 
d="M6 213v69h34v208h244q127 0 205 -67.5t78 -177.5t-78 -177.5t-205 -67.5h-244v213h-34zM275 422h-48v-140h74v-69h-74v-145h48q82 0 82 177t-82 177z" />
    <glyph glyph-name="Thorn.smcp" horiz-adv-x="523" 
d="M40 0v490h187v-88h37q112 0 175 -39t63 -111t-63 -111t-175 -39h-37v-102h-187zM235 333h-8v-162h8q71 0 71 81t-71 81z" />
    <glyph glyph-name="E.smcp" horiz-adv-x="455" 
d="M40 0v490h378v-91l-13 -13q-43 35 -123 35h-55v-133h132l8 -8v-62h-140v-149h62q36 0 67 8.5t44 17.5l13 9l13 -13v-91h-386z" />
    <glyph glyph-name="Eacute.smcp" horiz-adv-x="455" 
d="M40 0v490h378v-91l-13 -13q-43 35 -123 35h-55v-133h132l8 -8v-62h-140v-149h62q36 0 67 8.5t44 17.5l13 9l13 -13v-91h-386zM153 527l-10 10l69 190q48 0 87 -7.5t54 -15.5l15 -7v-10l-160 -160h-55z" />
    <glyph glyph-name="Ebreve.smcp" horiz-adv-x="455" 
d="M40 0v490h378v-91l-13 -13q-43 35 -123 35h-55v-133h132l8 -8v-62h-140v-149h62q36 0 67 8.5t44 17.5l13 9l13 -13v-91h-386zM65 649l28 28q6 -6 18 -15t48.5 -23.5t73.5 -14.5t72.5 13t52.5 27l16 13l28 -28q-2 -5 -5 -13.5t-17 -29.5t-31.5 -37t-48.5 -29.5t-67 -13.5
t-67 12.5t-48.5 31t-30.5 36.5t-17 30z" />
    <glyph glyph-name="Ecaron.smcp" horiz-adv-x="455" 
d="M40 0v490h378v-91l-13 -13q-43 35 -123 35h-55v-133h132l8 -8v-62h-140v-149h62q36 0 67 8.5t44 17.5l13 9l13 -13v-91h-386zM401 722l10 -10l-154 -190h-48l-153 190l10 10h65l102 -76l102 76h66z" />
    <glyph glyph-name="Ecircumflex.smcp" horiz-adv-x="455" 
d="M40 0v490h378v-91l-13 -13q-43 35 -123 35h-55v-133h132l8 -8v-62h-140v-149h62q36 0 67 8.5t44 17.5l13 9l13 -13v-91h-386zM411 537l-10 -10h-66l-102 76l-102 -76h-65l-10 10l153 190h48z" />
    <glyph glyph-name="Edieresis.smcp" horiz-adv-x="455" 
d="M40 0v490h378v-91l-13 -13q-43 35 -123 35h-55v-133h132l8 -8v-62h-140v-149h62q36 0 67 8.5t44 17.5l13 9l13 -13v-91h-386zM262 612q0 36 22.5 58t59.5 22t59 -22t22 -58q0 -38 -22 -60.5t-59 -22.5t-59.5 23t-22.5 60zM41 612q0 36 22.5 58t59.5 22t59 -22t22 -58
q0 -38 -22 -60.5t-59 -22.5t-59.5 23t-22.5 60z" />
    <glyph glyph-name="Edotaccent.smcp" horiz-adv-x="455" 
d="M40 0v490h378v-91l-13 -13q-43 35 -123 35h-55v-133h132l8 -8v-62h-140v-149h62q36 0 67 8.5t44 17.5l13 9l13 -13v-91h-386zM142 612q0 41 25 66t66 25t66.5 -25t25.5 -66t-25.5 -66t-66.5 -25t-66 25t-25 66z" />
    <glyph glyph-name="Egrave.smcp" horiz-adv-x="455" 
d="M40 0v490h378v-91l-13 -13q-43 35 -123 35h-55v-133h132l8 -8v-62h-140v-149h62q36 0 67 8.5t44 17.5l13 9l13 -13v-91h-386zM323 537l-10 -10h-56l-159 160v10q47 30 155 30z" />
    <glyph glyph-name="Emacron.smcp" horiz-adv-x="455" 
d="M40 0v490h378v-91l-13 -13q-43 35 -123 35h-55v-133h132l8 -8v-62h-140v-149h62q36 0 67 8.5t44 17.5l13 9l13 -13v-91h-386zM86 557v80h294v-80h-294z" />
    <glyph glyph-name="Eogonek.smcp" horiz-adv-x="455" 
d="M40 0v490h378v-91l-13 -13q-43 35 -123 35h-55v-133h132l8 -8v-62h-140v-149h62q36 0 67 8.5t44 17.5l13 9l13 -13v-91h-43q-36 -42 -36 -95q0 -46 42 -46l25 5l28 -28q-3 -5 -8.5 -12t-27 -18.5t-48.5 -11.5q-42 0 -73.5 25.5t-31.5 71.5q0 31 15.5 57t29 36t25.5 16
h-283z" />
    <glyph glyph-name="F.smcp" horiz-adv-x="437" 
d="M40 0v490h374v-91l-13 -13q-43 35 -124 35h-50v-133h137l8 -8v-62h-145v-218h-187z" />
    <glyph glyph-name="G.smcp" horiz-adv-x="543" 
d="M312 183v61h30q50 0 93.5 3t62.5 7l18 3l13 -13v-170q-2 -3 -7 -9t-23.5 -20.5t-41 -25.5t-61.5 -20t-84 -9q-133 0 -211 70.5t-78 185.5t78 184.5t213 69.5q97 0 156 -36.5t59 -98.5q0 -16 -3.5 -29t-7.5 -18l-3 -4q-64 -12 -169 -12l-13 12q14 17 14 65q0 65 -37 65
q-76 0 -76 -178q0 -98 27.5 -144t87.5 -46h10v39q0 30 -7 60h-31z" />
    <glyph glyph-name="Gbreve.smcp" horiz-adv-x="543" 
d="M312 183v61h30q50 0 93.5 3t62.5 7l18 3l13 -13v-170q-2 -3 -7 -9t-23.5 -20.5t-41 -25.5t-61.5 -20t-84 -9q-133 0 -211 70.5t-78 185.5t78 184.5t213 69.5q97 0 156 -36.5t59 -98.5q0 -16 -3.5 -29t-7.5 -18l-3 -4q-64 -12 -169 -12l-13 12q14 17 14 65q0 65 -37 65
q-76 0 -76 -178q0 -98 27.5 -144t87.5 -46h10v39q0 30 -7 60h-31zM127 649l28 28q6 -6 18 -15t48.5 -23.5t73.5 -14.5t72.5 13t52.5 27l16 13l28 -28q-2 -5 -5 -13.5t-17 -29.5t-31.5 -37t-48.5 -29.5t-67 -13.5t-67 12.5t-48.5 31t-30.5 36.5t-17 30z" />
    <glyph glyph-name="Gcircumflex.smcp" horiz-adv-x="543" 
d="M312 183v61h30q50 0 93.5 3t62.5 7l18 3l13 -13v-170q-2 -3 -7 -9t-23.5 -20.5t-41 -25.5t-61.5 -20t-84 -9q-133 0 -211 70.5t-78 185.5t78 184.5t213 69.5q97 0 156 -36.5t59 -98.5q0 -16 -3.5 -29t-7.5 -18l-3 -4q-64 -12 -169 -12l-13 12q14 17 14 65q0 65 -37 65
q-76 0 -76 -178q0 -98 27.5 -144t87.5 -46h10v39q0 30 -7 60h-31zM473 537l-10 -10h-66l-102 76l-102 -76h-65l-10 10l153 190h48z" />
    <glyph glyph-name="Gcommaaccent.smcp" horiz-adv-x="543" 
d="M312 183v61h30q50 0 93.5 3t62.5 7l18 3l13 -13v-170q-2 -3 -7 -9t-23.5 -20.5t-41 -25.5t-61.5 -20t-84 -9q-133 0 -211 70.5t-78 185.5t78 184.5t213 69.5q97 0 156 -36.5t59 -98.5q0 -16 -3.5 -29t-7.5 -18l-3 -4q-64 -12 -169 -12l-13 12q14 17 14 65q0 65 -37 65
q-76 0 -76 -178q0 -98 27.5 -144t87.5 -46h10v39q0 30 -7 60h-31zM237 -241l-16 17q38 53 38 128q0 20 -3.5 38t-6.5 26l-3 7l6 6q31 0 59.5 -3.5t41.5 -7.5l13 -4q6 -12 6 -37q0 -33 -14 -63t-33.5 -48.5t-39.5 -32.5t-34 -20z" />
    <glyph glyph-name="Gdotaccent.smcp" horiz-adv-x="543" 
d="M312 183v61h30q50 0 93.5 3t62.5 7l18 3l13 -13v-170q-2 -3 -7 -9t-23.5 -20.5t-41 -25.5t-61.5 -20t-84 -9q-133 0 -211 70.5t-78 185.5t78 184.5t213 69.5q97 0 156 -36.5t59 -98.5q0 -16 -3.5 -29t-7.5 -18l-3 -4q-64 -12 -169 -12l-13 12q14 17 14 65q0 65 -37 65
q-76 0 -76 -178q0 -98 27.5 -144t87.5 -46h10v39q0 30 -7 60h-31zM204 612q0 41 25 66t66 25t66.5 -25t25.5 -66t-25.5 -66t-66.5 -25t-66 25t-25 66z" />
    <glyph glyph-name="H.smcp" horiz-adv-x="591" 
d="M364 0v218h-137v-218h-187v490h187v-202h137v202h188v-490h-188z" />
    <glyph glyph-name="Hbar.smcp" 
d="M364 0v218h-137v-218h-187v342h-34v70h34v78h187v-78h137v78h188v-78h32v-70h-32v-342h-188zM227 342v-54h137v54h-137z" />
    <glyph glyph-name="Hcircumflex.smcp" horiz-adv-x="591" 
d="M364 0v218h-137v-218h-187v490h187v-202h137v202h188v-490h-188zM474 537l-10 -10h-66l-102 76l-102 -76h-65l-10 10l153 190h48z" />
    <glyph glyph-name="I.smcp" horiz-adv-x="267" 
d="M40 0v490h187v-490h-187z" />
    <glyph glyph-name="Iacute.smcp" horiz-adv-x="267" 
d="M40 0v490h187v-490h-187zM60 527l-10 10l70 190q48 0 87 -7.5t53 -15.5l15 -7v-10l-159 -160h-56z" />
    <glyph glyph-name="Ibreve.smcp" horiz-adv-x="267" 
d="M40 0v490h187v-490h-187zM-35 649l28 28q6 -6 18 -15t49 -23.5t74 -14.5t72.5 13t51.5 27l17 13l27 -28q-2 -5 -5 -13.5t-17 -29.5t-31 -37t-48 -29.5t-67 -13.5q-37 0 -67.5 12.5t-48.5 31t-31 36.5t-17 30z" />
    <glyph glyph-name="Icircumflex.smcp" horiz-adv-x="267" 
d="M40 0v490h187v-490h-187zM310 537l-10 -10h-65l-102 76l-102 -76h-66l-10 10l154 190h48z" />
    <glyph glyph-name="Idieresis.smcp" horiz-adv-x="267" 
d="M40 0v490h187v-490h-187zM-59 610q0 36 23 58t60 22q36 0 58 -22t22 -58q0 -37 -22 -60t-58 -23q-38 0 -60.5 22.5t-22.5 60.5zM162 610q0 36 23 58t60 22q36 0 58 -22t22 -58q0 -37 -22 -60t-58 -23q-37 0 -60 22.5t-23 60.5z" />
    <glyph glyph-name="Idotaccent.smcp" horiz-adv-x="267" 
d="M40 0v490h187v-490h-187zM25 638q0 49 30.5 79.5t79.5 30.5t79 -30.5t30 -79.5t-30 -79t-79 -30q-50 0 -80 30t-30 79z" />
    <glyph glyph-name="Igrave.smcp" horiz-adv-x="267" 
d="M40 0v490h187v-490h-187zM216 537l-10 -10h-55l-160 160v10q48 30 156 30z" />
    <glyph glyph-name="Imacron.smcp" horiz-adv-x="267" 
d="M40 0v490h187v-490h-187zM-14 557v80h294v-80h-294z" />
    <glyph glyph-name="Iogonek.smcp" horiz-adv-x="267" 
d="M40 0v490h187v-490h-52q-36 -42 -36 -95q0 -46 43 -46l25 5l27 -28q-1 -2 -3 -4.5t-9 -10t-15.5 -13t-23.5 -10t-32 -4.5q-42 0 -74 25.5t-32 71.5q0 31 16 57t29 36t25 16h-75z" />
    <glyph glyph-name="Itilde.smcp" horiz-adv-x="267" 
d="M40 0v490h187v-490h-187zM91 663q26 0 56.5 -18.5t52.5 -18.5q21 0 41 10t29 20l10 10l27 -28q-2 -4 -5 -11.5t-15 -26.5t-26 -33.5t-36.5 -26.5t-47.5 -12q-26 0 -56.5 18.5t-52.5 18.5q-21 0 -41 -10t-29 -20l-10 -10l-28 28q2 4 5 11.5t15.5 26.5t26 33.5t36.5 26.5
t48 12z" />
    <glyph glyph-name="IJ.smcp" horiz-adv-x="504" 
d="M40 228v262h187v-262h-187zM246 46q17 0 24 22.5t7 71.5v350h187v-343q0 -70 -59 -113.5t-167 -43.5q-92 0 -149 31.5t-57 80.5q0 12 3.5 24t7.5 18l4 6q60 13 165 13l17 -13q-14 -23 -14 -56q0 -48 31 -48z" />
    <glyph glyph-name="J.smcp" horiz-adv-x="397" 
d="M170 149v341h188v-335q0 -165 -208 -165q-48 0 -84 8t-48 16l-13 8q0 30 8 59t20 49.5t24 36.5t20 23l8 8h11q0 -3 1 -8.5t4 -21.5t6.5 -30t9 -31.5t11.5 -30.5t13.5 -21.5t15.5 -8.5q13 0 13 103z" />
    <glyph glyph-name="Jcircumflex.smcp" horiz-adv-x="397" 
d="M170 149v341h188v-335q0 -165 -208 -165q-48 0 -84 8t-48 16l-13 8q0 30 8 59t20 49.5t24 36.5t20 23l8 8h11q0 -3 1 -8.5t4 -21.5t6.5 -30t9 -31.5t11.5 -30.5t13.5 -21.5t15.5 -8.5q13 0 13 103zM446 533l-10 -10h-66l-102 76l-102 -76h-65l-10 10l154 190h47z" />
    <glyph glyph-name="K.smcp" horiz-adv-x="559" 
d="M40 0v490h187v-195h8l156 195h105l-132 -160l99 -192q18 -35 40.5 -66t36.5 -45l13 -14v-13h-225l-101 205v-205h-187z" />
    <glyph glyph-name="Kcommaaccent.smcp" horiz-adv-x="559" 
d="M40 0v490h187v-195h8l156 195h105l-132 -160l99 -192q18 -35 40.5 -66t36.5 -45l13 -14v-13h-225l-101 205v-205h-187zM220 -241l-17 17q38 53 38 128q0 20 -3.5 38t-6.5 26l-3 7l6 6q31 0 59.5 -3.5t41.5 -7.5l13 -4q6 -12 6 -37q0 -33 -14 -63t-33.5 -48.5t-39 -32.5
t-33.5 -20z" />
    <glyph glyph-name="L.smcp" horiz-adv-x="421" 
d="M40 0v490h187v-421h38q36 0 67 8.5t44 17.5l13 9l12 -13v-91h-361z" />
    <glyph glyph-name="Lacute.smcp" horiz-adv-x="421" 
d="M40 0v490h187v-421h38q36 0 67 8.5t44 17.5l13 9l12 -13v-91h-361zM54 527l-10 10l70 190q48 0 87 -7.5t53 -15.5l15 -7v-10l-159 -160h-56z" />
    <glyph glyph-name="Lcaron.smcp" horiz-adv-x="421" 
d="M40 0v490h187v-421h38q36 0 67 8.5t44 17.5l13 9l12 -13v-91h-361zM263 282l-16 16q38 53 38 128q0 20 -3.5 38t-6.5 26l-3 7l6 6q31 0 59.5 -3.5t41.5 -7.5l13 -4q6 -12 6 -37q0 -33 -14 -62.5t-33.5 -48t-39.5 -32.5t-34 -20z" />
    <glyph glyph-name="Lcommaaccent.smcp" horiz-adv-x="421" 
d="M40 0v490h187v-421h38q36 0 67 8.5t44 17.5l13 9l12 -13v-91h-361zM148 -241l-17 17q38 53 38 128q0 20 -3.5 38t-6.5 26l-3 7l6 6q31 0 59.5 -3.5t41.5 -7.5l13 -4q6 -12 6 -37q0 -33 -14 -63t-33.5 -48.5t-39 -32.5t-33.5 -20z" />
    <glyph glyph-name="Ldot.smcp" horiz-adv-x="421" 
d="M40 0v490h187v-421h38q36 0 67 8.5t44 17.5l13 9l12 -13v-91h-361zM256 247q0 37 22 59t59 22t59 -22t22 -59t-22 -59t-59 -22t-59 22t-22 59z" />
    <glyph glyph-name="Lslash.smcp" horiz-adv-x="444" 
d="M31 155l-26 44l57 34v257h188v-146l37 22l25 -43l-62 -37v-217h38q36 0 66.5 8.5t43.5 17.5l13 9l13 -13v-91h-362v173z" />
    <glyph glyph-name="M.smcp" horiz-adv-x="750" 
d="M525 0l-33 348l-4 4l-97 -338h-123l-22 22l-99 317l-4 -4l-23 -349h-86l30 362q2 34 0 60t-6 40l-3 15l13 13h229l75 -244l72 244h224l50 -490h-193z" />
    <glyph glyph-name="N.smcp" horiz-adv-x="527" 
d="M120 200l-2 15v-215h-78v294q0 56 -8 102t-16 64l-7 17l13 13h61l315 -200l2 -16v216h87v-490h-52z" />
    <glyph glyph-name="Nacute.smcp" horiz-adv-x="527" 
d="M120 200l-2 15v-215h-78v294q0 56 -8 102t-16 64l-7 17l13 13h61l315 -200l2 -16v216h87v-490h-52zM190 527l-10 10l69 190q48 0 87 -7.5t54 -15.5l15 -7v-10l-159 -160h-56z" />
    <glyph glyph-name="Ncaron.smcp" horiz-adv-x="527" 
d="M120 200l-2 15v-215h-78v294q0 56 -8 102t-16 64l-7 17l13 13h61l315 -200l2 -16v216h87v-490h-52zM431 724l10 -10l-154 -190h-47l-154 190l10 10h66l101 -76l102 76h66z" />
    <glyph glyph-name="Ncommaaccent.smcp" horiz-adv-x="527" 
d="M120 200l-2 15v-215h-78v294q0 56 -8 102t-16 64l-7 17l13 13h61l315 -200l2 -16v216h87v-490h-52zM204 -241l-17 17q38 53 38 128q0 20 -3.5 38t-6.5 26l-3 7l6 6q31 0 59.5 -3.5t41.5 -7.5l13 -4q6 -12 6 -37q0 -33 -14 -63t-33.5 -48.5t-39 -32.5t-33.5 -20z" />
    <glyph glyph-name="Ntilde.smcp" horiz-adv-x="527" 
d="M120 200l-2 15v-215h-78v294q0 56 -8 102t-16 64l-7 17l13 13h61l315 -200l2 -16v216h87v-490h-52zM219 663q26 0 56.5 -18.5t52.5 -18.5q21 0 41 10t29 20l10 10l28 -28q-2 -4 -5 -11.5t-15 -26.5t-26 -33.5t-36.5 -26.5t-47.5 -12q-26 0 -56.5 18.5t-52.5 18.5
q-21 0 -41 -10t-30 -20l-9 -10l-28 28q2 4 5 11.5t15 26.5t26 33.5t36.5 26.5t47.5 12z" />
    <glyph glyph-name="Eng.smcp" horiz-adv-x="527" 
d="M120 200l-2 15v-215h-78v294q0 56 -8 102t-16 64l-7 17l13 13h61l315 -200l2 -16v216h87v-510q0 -165 -170 -165q-48 0 -84 8t-49 16l-12 8q0 48 20 92t40 64l19 20h11q0 -3 1 -8.5t4 -21.5t6.5 -30t9 -31.5t11.5 -30.5t14 -21.5t16 -8.5q13 0 13 103v88z" />
    <glyph glyph-name="O.smcp" horiz-adv-x="613" 
d="M23 245q0 113 78.5 184t204.5 71q127 0 205.5 -70.5t78.5 -184.5t-78.5 -184.5t-205.5 -70.5q-126 0 -204.5 71t-78.5 184zM234 245q0 -199 72 -199q74 0 74 199t-74 199q-72 0 -72 -199z" />
    <glyph glyph-name="Oacute.smcp" horiz-adv-x="613" 
d="M23 245q0 113 78.5 184t204.5 71q127 0 205.5 -70.5t78.5 -184.5t-78.5 -184.5t-205.5 -70.5q-126 0 -204.5 71t-78.5 184zM234 245q0 -199 72 -199q74 0 74 199t-74 199q-72 0 -72 -199zM234 527l-10 10l69 190q48 0 87 -7.5t54 -15.5l15 -7v-10l-160 -160h-55z" />
    <glyph glyph-name="Obreve.smcp" horiz-adv-x="613" 
d="M23 245q0 113 78.5 184t204.5 71q127 0 205.5 -70.5t78.5 -184.5t-78.5 -184.5t-205.5 -70.5q-126 0 -204.5 71t-78.5 184zM234 245q0 -199 72 -199q74 0 74 199t-74 199q-72 0 -72 -199zM138 649l27 28q6 -6 18 -15t49 -23.5t74 -14.5t72.5 13t51.5 27l17 13l28 -28
q-2 -5 -5 -13.5t-17 -29.5t-31.5 -37t-48.5 -29.5t-67 -13.5t-67 12.5t-48.5 31t-30.5 36.5t-18 30z" />
    <glyph glyph-name="Ocircumflex.smcp" horiz-adv-x="613" 
d="M23 245q0 113 78.5 184t204.5 71q127 0 205.5 -70.5t78.5 -184.5t-78.5 -184.5t-205.5 -70.5q-126 0 -204.5 71t-78.5 184zM234 245q0 -199 72 -199q74 0 74 199t-74 199q-72 0 -72 -199zM485 537l-10 -10h-66l-102 76l-102 -76h-65l-10 10l153 190h48z" />
    <glyph glyph-name="Odieresis.smcp" horiz-adv-x="613" 
d="M23 245q0 113 78.5 184t204.5 71q127 0 205.5 -70.5t78.5 -184.5t-78.5 -184.5t-205.5 -70.5q-126 0 -204.5 71t-78.5 184zM234 245q0 -199 72 -199q74 0 74 199t-74 199q-72 0 -72 -199zM115 610q0 36 22.5 58t59.5 22t59 -22t22 -58q0 -38 -22 -60.5t-59 -22.5
t-59.5 23t-22.5 60zM336 610q0 36 22.5 58t59.5 22t58.5 -22t21.5 -58q0 -38 -21.5 -60.5t-58.5 -22.5t-59.5 22.5t-22.5 60.5z" />
    <glyph glyph-name="Ograve.smcp" horiz-adv-x="613" 
d="M23 245q0 113 78.5 184t204.5 71q127 0 205.5 -70.5t78.5 -184.5t-78.5 -184.5t-205.5 -70.5q-126 0 -204.5 71t-78.5 184zM234 245q0 -199 72 -199q74 0 74 199t-74 199q-72 0 -72 -199zM389 537l-10 -10h-56l-159 160v10q47 30 155 30z" />
    <glyph glyph-name="Ohungarumlaut.smcp" horiz-adv-x="613" 
d="M23 245q0 113 78.5 184t204.5 71q127 0 205.5 -70.5t78.5 -184.5t-78.5 -184.5t-205.5 -70.5q-126 0 -204.5 71t-78.5 184zM234 245q0 -199 72 -199q74 0 74 199t-74 199q-72 0 -72 -199zM136 527l-10 10l64 190q48 0 87 -7.5t54 -15.5l15 -7v-10l-155 -160h-55zM324 527
l-9 10l86 190q48 0 85 -7.5t50 -15.5l12 -7v-10l-168 -160h-56z" />
    <glyph glyph-name="Omacron.smcp" horiz-adv-x="613" 
d="M23 245q0 113 78.5 184t204.5 71q127 0 205.5 -70.5t78.5 -184.5t-78.5 -184.5t-205.5 -70.5q-126 0 -204.5 71t-78.5 184zM234 245q0 -199 72 -199q74 0 74 199t-74 199q-72 0 -72 -199zM160 557v80h294v-80h-294z" />
    <glyph glyph-name="Oslash.smcp" horiz-adv-x="613" 
d="M185 -18h-81l32 52q-54 33 -83.5 88t-29.5 123q0 113 78.5 184t204.5 71q60 0 107 -16l15 24h81l-33 -53q114 -70 114 -210q0 -114 -78.5 -184.5t-205.5 -70.5q-54 0 -107 15zM230 245q0 -22 2 -56l129 210q-19 45 -55 45q-76 0 -76 -199zM383 245q0 21 -2 55l-130 -210
q18 -44 55 -44q77 0 77 199z" />
    <glyph glyph-name="Oslashacute.smcp" horiz-adv-x="613" 
d="M185 -18h-81l32 52q-54 33 -83.5 88t-29.5 123q0 113 78.5 184t204.5 71q60 0 107 -16l15 24h81l-33 -53q114 -70 114 -210q0 -114 -78.5 -184.5t-205.5 -70.5q-54 0 -107 15zM227 527l-10 10l69 190q48 0 87 -7.5t54 -15.5l15 -7v-10l-160 -160h-55zM230 245
q0 -22 2 -56l129 210q-19 45 -55 45q-76 0 -76 -199zM383 245q0 21 -2 55l-130 -210q18 -44 55 -44q77 0 77 199z" />
    <glyph glyph-name="Otilde.smcp" horiz-adv-x="613" 
d="M23 245q0 113 78.5 184t204.5 71q127 0 205.5 -70.5t78.5 -184.5t-78.5 -184.5t-205.5 -70.5q-126 0 -204.5 71t-78.5 184zM234 245q0 -199 72 -199q74 0 74 199t-74 199q-72 0 -72 -199zM263 663q26 0 56.5 -18.5t52.5 -18.5q21 0 41 10t29 20l10 10l28 -28
q-2 -4 -5 -11.5t-15.5 -26.5t-26 -33.5t-36.5 -26.5t-48 -12q-26 0 -56.5 18.5t-52.5 18.5q-21 0 -41 -10t-29 -20l-10 -10l-27 28q2 4 5 11.5t15 26.5t26 33.5t36.5 26.5t47.5 12z" />
    <glyph glyph-name="OE.smcp" horiz-adv-x="784" 
d="M375 0v2q-39 -12 -81 -12q-114 0 -192.5 71.5t-78.5 183.5q0 111 78 183t191 72q42 0 83 -13v3h373v-91l-13 -13q-43 35 -124 35h-49v-133h126l9 -8v-62h-135v-149h56q36 0 67 8.5t44 17.5l13 9l13 -13v-91h-380zM306 46q46 0 69 60v276q-22 62 -69 62q-72 0 -72 -199
t72 -199z" />
    <glyph glyph-name="P.smcp" horiz-adv-x="523" 
d="M40 0v490h224q111 0 174 -39.5t63 -110.5q0 -72 -63 -111.5t-174 -39.5h-37v-189h-187zM234 422h-7v-163h7q71 0 71 81q0 82 -71 82z" />
    <glyph glyph-name="Q.smcp" horiz-adv-x="613" 
d="M306 -12q-127 0 -205 70.5t-78 185.5t78 185.5t205 70.5t205.5 -70.5t78.5 -185.5q0 -78 -37 -137t-104 -90q54 -15 91 -15q20 0 34 3t18 6l5 3l7 -8q0 -43 -5 -81.5t-11 -54.5l-5 -17q-12 -7 -35 -7q-29 0 -57 14.5t-50 35.5t-43 42t-45 35.5t-47 14.5zM234 244
q0 -201 72 -201q74 0 74 201q0 200 -74 200q-72 0 -72 -200z" />
    <glyph glyph-name="R.smcp" horiz-adv-x="541" 
d="M40 0v490h222q111 0 174 -37t63 -105q0 -80 -88 -118l49 -102q16 -32 36 -62t32 -44l13 -14l-8 -8h-202l-94 206h-10v-206h-187zM232 422h-5v-147h5q71 0 71 73q0 74 -71 74z" />
    <glyph glyph-name="Racute.smcp" horiz-adv-x="541" 
d="M40 0v490h222q111 0 174 -37t63 -105q0 -80 -88 -118l49 -102q16 -32 36 -62t32 -44l13 -14l-8 -8h-202l-94 206h-10v-206h-187zM180 527l-10 10l70 190q48 0 87 -7.5t53 -15.5l15 -7v-10l-159 -160h-56zM232 422h-5v-147h5q71 0 71 73q0 74 -71 74z" />
    <glyph glyph-name="Rcaron.smcp" horiz-adv-x="541" 
d="M40 0v490h222q111 0 174 -37t63 -105q0 -80 -88 -118l49 -102q16 -32 36 -62t32 -44l13 -14l-8 -8h-202l-94 206h-10v-206h-187zM428 724l10 -10l-153 -190h-48l-153 190l10 10h65l102 -76l102 76h65zM232 422h-5v-147h5q71 0 71 73q0 74 -71 74z" />
    <glyph glyph-name="Rcommaaccent.smcp" horiz-adv-x="541" 
d="M40 0v490h222q111 0 174 -37t63 -105q0 -80 -88 -118l49 -102q16 -32 36 -62t32 -44l13 -14l-8 -8h-202l-94 206h-10v-206h-187zM215 -241l-17 17q38 53 38 128q0 20 -3 38t-7 26l-3 7l6 6q31 0 59.5 -3.5t41.5 -7.5l13 -4q6 -12 6 -37q0 -33 -14 -63t-33.5 -48.5
t-39 -32.5t-33.5 -20zM232 422h-5v-147h5q71 0 71 73q0 74 -71 74z" />
    <glyph glyph-name="S.smcp" horiz-adv-x="480" 
d="M212 444q-24 0 -24 -18q0 -14 19.5 -32.5t95.5 -78.5q105 -84 132.5 -115t27.5 -71q0 -139 -219 -139q-74 0 -131 14.5t-77 29.5l-20 14q0 46 20.5 84.5t41.5 53.5l20 16h17q3 -6 8 -16.5t21.5 -37.5t33.5 -47.5t40.5 -37.5t45.5 -17q16 0 23.5 7t7.5 15q0 15 -26 36
t-103 73q-76 50 -107 87t-31 90q0 146 220 146q61 0 109.5 -11t66.5 -21l19 -11q0 -30 -8.5 -57.5t-21 -45t-25 -30.5t-20.5 -19l-9 -6h-15q-2 6 -6.5 15.5t-19 34.5t-29 44.5t-36 35t-41.5 15.5z" />
    <glyph glyph-name="Sacute.smcp" horiz-adv-x="480" 
d="M212 444q-24 0 -24 -18q0 -14 19.5 -32.5t95.5 -78.5q105 -84 132.5 -115t27.5 -71q0 -139 -219 -139q-74 0 -131 14.5t-77 29.5l-20 14q0 46 20.5 84.5t41.5 53.5l20 16h17q3 -6 8 -16.5t21.5 -37.5t33.5 -47.5t40.5 -37.5t45.5 -17q16 0 23.5 7t7.5 15q0 15 -26 36
t-103 73q-76 50 -107 87t-31 90q0 146 220 146q61 0 109.5 -11t66.5 -21l19 -11q0 -30 -8.5 -57.5t-21 -45t-25 -30.5t-20.5 -19l-9 -6h-15q-2 6 -6.5 15.5t-19 34.5t-29 44.5t-36 35t-41.5 15.5zM159 527l-10 10l69 190q48 0 87 -7.5t54 -15.5l15 -7v-10l-160 -160h-55z
" />
    <glyph glyph-name="Scaron.smcp" horiz-adv-x="480" 
d="M212 444q-24 0 -24 -18q0 -14 19.5 -32.5t95.5 -78.5q105 -84 132.5 -115t27.5 -71q0 -139 -219 -139q-74 0 -131 14.5t-77 29.5l-20 14q0 46 20.5 84.5t41.5 53.5l20 16h17q3 -6 8 -16.5t21.5 -37.5t33.5 -47.5t40.5 -37.5t45.5 -17q16 0 23.5 7t7.5 15q0 15 -26 36
t-103 73q-76 50 -107 87t-31 90q0 146 220 146q61 0 109.5 -11t66.5 -21l19 -11q0 -30 -8.5 -57.5t-21 -45t-25 -30.5t-20.5 -19l-9 -6h-15q-2 6 -6.5 15.5t-19 34.5t-29 44.5t-36 35t-41.5 15.5zM407 724l10 -10l-154 -190h-48l-153 190l10 10h65l102 -76l102 76h66z" />
    <glyph glyph-name="Scedilla.smcp" horiz-adv-x="480" 
d="M199 -78l11 69q-63 3 -111.5 17.5t-65.5 27.5l-17 12q0 46 20.5 84.5t41.5 53.5l20 16h17q3 -6 8 -16.5t21.5 -37.5t33.5 -47.5t40.5 -37.5t45.5 -17q16 0 23.5 7t7.5 15q0 15 -26 36t-103 73q-76 50 -107 87t-31 90q0 146 220 146q61 0 109.5 -11t66.5 -21l19 -11
q0 -30 -8.5 -57.5t-21 -45t-25 -30.5t-20.5 -19l-9 -6h-15q-2 6 -6.5 15.5t-19 34.5t-29 44.5t-36 35t-41.5 15.5q-24 0 -24 -18q0 -14 19.5 -32.5t95.5 -78.5q105 -84 132.5 -115t27.5 -71q0 -131 -196 -138l-6 -35q32 0 56 -21.5t24 -56.5q0 -36 -26.5 -60t-70.5 -24
q-30 0 -54 12t-33 24l-9 11l23 23q13 -15 38 -15q39 0 39 32q0 31 -39 31z" />
    <glyph glyph-name="Scircumflex.smcp" horiz-adv-x="480" 
d="M212 444q-24 0 -24 -18q0 -14 19.5 -32.5t95.5 -78.5q105 -84 132.5 -115t27.5 -71q0 -139 -219 -139q-74 0 -131 14.5t-77 29.5l-20 14q0 46 20.5 84.5t41.5 53.5l20 16h17q3 -6 8 -16.5t21.5 -37.5t33.5 -47.5t40.5 -37.5t45.5 -17q16 0 23.5 7t7.5 15q0 15 -26 36
t-103 73q-76 50 -107 87t-31 90q0 146 220 146q61 0 109.5 -11t66.5 -21l19 -11q0 -30 -8.5 -57.5t-21 -45t-25 -30.5t-20.5 -19l-9 -6h-15q-2 6 -6.5 15.5t-19 34.5t-29 44.5t-36 35t-41.5 15.5zM417 551l-10 -10h-66l-102 76l-102 -76h-65l-10 10l153 190h48z" />
    <glyph glyph-name="Scommaaccent.smcp" horiz-adv-x="480" 
d="M212 444q-24 0 -24 -18q0 -14 19.5 -32.5t95.5 -78.5q105 -84 132.5 -115t27.5 -71q0 -139 -219 -139q-74 0 -131 14.5t-77 29.5l-20 14q0 46 20.5 84.5t41.5 53.5l20 16h17q3 -6 8 -16.5t21.5 -37.5t33.5 -47.5t40.5 -37.5t45.5 -17q16 0 23.5 7t7.5 15q0 15 -26 36
t-103 73q-76 50 -107 87t-31 90q0 146 220 146q61 0 109.5 -11t66.5 -21l19 -11q0 -30 -8.5 -57.5t-21 -45t-25 -30.5t-20.5 -19l-9 -6h-15q-2 6 -6.5 15.5t-19 34.5t-29 44.5t-36 35t-41.5 15.5zM178 -241l-17 17q39 53 39 128q0 20 -3 38t-7 26l-3 7l6 6q31 0 59.5 -3.5
t41.5 -7.5l13 -4q6 -12 6 -37q0 -33 -14 -63t-33.5 -48.5t-39.5 -32.5t-34 -20z" />
    <glyph glyph-name="T.smcp" horiz-adv-x="539" 
d="M363 421v-421h-187v421h-18q-36 0 -67 -8.5t-44 -17.5l-13 -9l-13 13v91h497v-91l-12 -13q-43 35 -124 35h-19z" />
    <glyph glyph-name="Tbar.smcp" horiz-adv-x="539" 
d="M108 218v69h68v134h-18q-36 0 -67 -8.5t-44 -17.5l-13 -9l-13 13v91h497v-91l-12 -13q-43 35 -124 35h-19v-134h68v-69h-68v-218h-187v218h-68z" />
    <glyph glyph-name="Tcaron.smcp" horiz-adv-x="539" 
d="M363 421v-421h-187v421h-18q-36 0 -67 -8.5t-44 -17.5l-13 -9l-13 13v91h497v-91l-12 -13q-43 35 -124 35h-19zM437 725l10 -9l-153 -190h-48l-153 190l10 9h65l102 -75l102 75h65z" />
    <glyph glyph-name="Tcommaaccent.smcp" horiz-adv-x="539" 
d="M363 421v-421h-187v421h-18q-36 0 -67 -8.5t-44 -17.5l-13 -9l-13 13v91h497v-91l-12 -13q-43 35 -124 35h-19zM213 -241l-17 17q38 53 38 128q0 20 -3 38t-7 26l-3 7l6 6q31 0 59.5 -3.5t41.5 -7.5l13 -4q6 -12 6 -37q0 -33 -14 -63t-33.5 -48.5t-39 -32.5t-33.5 -20z
" />
    <glyph glyph-name="uni021A.smcp" horiz-adv-x="539" 
d="M363 421v-421h-187v421h-18q-36 0 -67 -8.5t-44 -17.5l-13 -9l-13 13v91h497v-91l-12 -13q-43 35 -124 35h-19zM213 -241l-17 17q38 53 38 128q0 20 -3 38t-7 26l-3 7l6 6q31 0 59.5 -3.5t41.5 -7.5l13 -4q6 -12 6 -37q0 -33 -14 -63t-33.5 -48.5t-39 -32.5t-33.5 -20z
" />
    <glyph glyph-name="U.smcp" horiz-adv-x="538" 
d="M419 174v316h78v-313q0 -87 -59 -137t-169 -50t-169 50.5t-59 136.5v313h187v-344q0 -41 25 -62.5t66 -21.5q46 0 73 28t27 84z" />
    <glyph glyph-name="Uacute.smcp" horiz-adv-x="538" 
d="M419 174v316h78v-313q0 -87 -59 -137t-169 -50t-169 50.5t-59 136.5v313h187v-344q0 -41 25 -62.5t66 -21.5q46 0 73 28t27 84zM206 527l-10 10l69 190q48 0 87 -7.5t54 -15.5l15 -7v-10l-160 -160h-55z" />
    <glyph glyph-name="Ubreve.smcp" horiz-adv-x="538" 
d="M419 174v316h78v-313q0 -87 -59 -137t-169 -50t-169 50.5t-59 136.5v313h187v-344q0 -41 25 -62.5t66 -21.5q46 0 73 28t27 84zM111 649l28 28q6 -6 18 -15t48.5 -23.5t73.5 -14.5t72.5 13t52.5 27l16 13l28 -28q-2 -5 -5 -13.5t-17 -29.5t-31.5 -37t-48.5 -29.5
t-67 -13.5t-67 12.5t-48.5 31t-30.5 36.5t-17 30z" />
    <glyph glyph-name="Ucircumflex.smcp" horiz-adv-x="538" 
d="M419 174v316h78v-313q0 -87 -59 -137t-169 -50t-169 50.5t-59 136.5v313h187v-344q0 -41 25 -62.5t66 -21.5q46 0 73 28t27 84zM456 537l-10 -10h-66l-102 76l-102 -76h-65l-10 10l153 190h48z" />
    <glyph glyph-name="Udieresis.smcp" horiz-adv-x="538" 
d="M419 174v316h78v-313q0 -87 -59 -137t-169 -50t-169 50.5t-59 136.5v313h187v-344q0 -41 25 -62.5t66 -21.5q46 0 73 28t27 84zM86 610q0 36 22.5 58t59.5 22t59 -22t22 -58q0 -38 -22 -60.5t-59 -22.5t-59.5 23t-22.5 60zM307 610q0 36 22.5 58t59.5 22t59 -22t22 -58
q0 -38 -22 -60.5t-59 -22.5t-59.5 23t-22.5 60z" />
    <glyph glyph-name="Ugrave.smcp" horiz-adv-x="538" 
d="M419 174v316h78v-313q0 -87 -59 -137t-169 -50t-169 50.5t-59 136.5v313h187v-344q0 -41 25 -62.5t66 -21.5q46 0 73 28t27 84zM361 537l-10 -10h-56l-159 160v10q47 30 155 30z" />
    <glyph glyph-name="Uhungarumlaut.smcp" horiz-adv-x="538" 
d="M419 174v316h78v-313q0 -87 -59 -137t-169 -50t-169 50.5t-59 136.5v313h187v-344q0 -41 25 -62.5t66 -21.5q46 0 73 28t27 84zM107 527l-10 10l64 190q48 0 87 -7.5t54 -15.5l15 -7v-10l-154 -160h-56zM296 527l-10 10l86 190q48 0 85 -7.5t49 -15.5l13 -7v-10
l-168 -160h-55z" />
    <glyph glyph-name="Umacron.smcp" horiz-adv-x="538" 
d="M419 174v316h78v-313q0 -87 -59 -137t-169 -50t-169 50.5t-59 136.5v313h187v-344q0 -41 25 -62.5t66 -21.5q46 0 73 28t27 84zM132 557v80h294v-80h-294z" />
    <glyph glyph-name="Uogonek.smcp" horiz-adv-x="538" 
d="M419 174v316h78v-313q0 -68 -37 -114.5t-108 -63.5q-35 -45 -35 -94q0 -46 42 -46l25 5l28 -28q-3 -5 -8.5 -12t-27 -18.5t-48.5 -11.5q-42 0 -73.5 25.5t-31.5 71.5q0 60 53 99h-7q-110 0 -169 50.5t-59 136.5v313h187v-344q0 -41 25 -62.5t66 -21.5q46 0 73 28t27 84z
" />
    <glyph glyph-name="Uring.smcp" horiz-adv-x="538" 
d="M419 174v316h78v-313q0 -87 -59 -137t-169 -50t-169 50.5t-59 136.5v313h187v-344q0 -41 25 -62.5t66 -21.5q46 0 73 28t27 84zM179 621q0 45 27.5 73t72.5 28t73 -28t28 -73t-28 -73t-73 -28t-72.5 28t-27.5 73zM249 621q0 -31 30 -31q14 0 22 8.5t8 22.5t-8.5 22.5
t-21.5 8.5q-14 0 -22 -8.5t-8 -22.5z" />
    <glyph glyph-name="Utilde.smcp" horiz-adv-x="538" 
d="M419 174v316h78v-313q0 -87 -59 -137t-169 -50t-169 50.5t-59 136.5v313h187v-344q0 -41 25 -62.5t66 -21.5q46 0 73 28t27 84zM235 663q26 0 56.5 -18.5t52.5 -18.5q21 0 41 10t29 20l10 10l28 -28q-2 -4 -5 -11.5t-15.5 -26.5t-26 -33.5t-36.5 -26.5t-48 -12
q-26 0 -56.5 18.5t-52.5 18.5q-21 0 -40.5 -10t-29.5 -20l-9 -10l-28 28q2 4 5 11.5t15 26.5t26 33.5t36.5 26.5t47.5 12z" />
    <glyph glyph-name="V.smcp" horiz-adv-x="557" 
d="M214 22l-143 340q-14 33 -30 62t-25 41l-9 12v13h214l129 -314l111 314h88l-183 -490h-131z" />
    <glyph glyph-name="W.smcp" horiz-adv-x="836" 
d="M511 22l-74 211l-74 -233h-138l-22 22l-133 340q-13 33 -28.5 61.5t-25.5 40.5l-9 12v14h210l122 -312l55 181l-1 3q-12 33 -26 61.5t-23 40.5l-8 12v14h212l100 -299l93 299h87l-160 -490h-135z" />
    <glyph glyph-name="Wacute.smcp" horiz-adv-x="836" 
d="M511 22l-74 211l-74 -233h-138l-22 22l-133 340q-13 33 -28.5 61.5t-25.5 40.5l-9 12v14h210l122 -312l55 181l-1 3q-12 33 -26 61.5t-23 40.5l-8 12v14h212l100 -299l93 299h87l-160 -490h-135zM358 527l-10 10l70 190q48 0 87 -7.5t53 -15.5l15 -7v-10l-159 -160h-56z
" />
    <glyph glyph-name="Wcircumflex.smcp" horiz-adv-x="836" 
d="M511 22l-74 211l-74 -233h-138l-22 22l-133 340q-13 33 -28.5 61.5t-25.5 40.5l-9 12v14h210l122 -312l55 181l-1 3q-12 33 -26 61.5t-23 40.5l-8 12v14h212l100 -299l93 299h87l-160 -490h-135zM616 537l-10 -10h-65l-102 76l-102 -76h-66l-10 10l154 190h48z" />
    <glyph glyph-name="Wdieresis.smcp" horiz-adv-x="836" 
d="M511 22l-74 211l-74 -233h-138l-22 22l-133 340q-13 33 -28.5 61.5t-25.5 40.5l-9 12v14h210l122 -312l55 181l-1 3q-12 33 -26 61.5t-23 40.5l-8 12v14h212l100 -299l93 299h87l-160 -490h-135zM247 610q0 36 23 58t60 22q36 0 58 -22t22 -58q0 -37 -22 -60t-58 -23
q-38 0 -60.5 22.5t-22.5 60.5zM468 610q0 36 23 58t60 22q36 0 58 -22t22 -58q0 -37 -22 -60t-58 -23q-37 0 -60 22.5t-23 60.5z" />
    <glyph glyph-name="Wgrave.smcp" horiz-adv-x="836" 
d="M511 22l-74 211l-74 -233h-138l-22 22l-133 340q-13 33 -28.5 61.5t-25.5 40.5l-9 12v14h210l122 -312l55 181l-1 3q-12 33 -26 61.5t-23 40.5l-8 12v14h212l100 -299l93 299h87l-160 -490h-135zM537 537l-10 -10h-55l-160 160v10q48 30 156 30z" />
    <glyph glyph-name="X.smcp" horiz-adv-x="570" 
d="M229 490l96 -146l107 146h104l-166 -213l91 -137q22 -34 48 -65.5t41 -46.5l14 -15v-13h-224l-110 161l-123 -161h-96l174 228l-178 262h222z" />
    <glyph glyph-name="Y.smcp" horiz-adv-x="553" 
d="M545 490l-164 -260v-230h-188v220l-77 122q-23 37 -50 70.5t-42 48.5l-16 15v14h231l106 -159l104 159h96z" />
    <glyph glyph-name="Yacute.smcp" horiz-adv-x="553" 
d="M545 490l-164 -260v-230h-188v220l-77 122q-23 37 -50 70.5t-42 48.5l-16 15v14h231l106 -159l104 159h96zM206 527l-10 10l69 190q48 0 87 -7.5t54 -15.5l15 -7v-10l-159 -160h-56z" />
    </font>
</defs>
</svg>
