<?xml version="1.0" standalone="no"?>
<!DOCTYPE svg PUBLIC "-//W3C//DTD SVG 1.1//EN" "http://www.w3.org/Graphics/SVG/1.1/DTD/svg11.dtd" >
<svg xmlns="http://www.w3.org/2000/svg" xmlns:xlink="http://www.w3.org/1999/xlink" version="1.1">
<metadata>
Created by FontForge 20170731 at Sun Dec 25 14:57:52 2016
 By Aleksey,,,
Copyright (c) 2017 by Andriy Konstantynov. All rights reserved.
</metadata>
<defs>
<font id="OrchideaPro-BlackItalic" horiz-adv-x="590" >
  <font-face 
    font-family="Orchidea Pro Bk"
    font-weight="900"
    font-style="italic"
    font-stretch="normal"
    units-per-em="1000"
    panose-1="2 11 0 3 3 2 0 0 0 2"
    ascent="800"
    descent="-200"
    x-height="480"
    cap-height="700"
    bbox="-117 -265 1243 984"
    underline-thickness="50"
    underline-position="-250"
    slope="-9"
    unicode-range="U+0020-FB04"
  />
<missing-glyph horiz-adv-x="220" 
 />
    <glyph glyph-name="ff" unicode="ff" horiz-adv-x="723" 
d="M355 0l65 410h-121l-58 -361q-10 -62 -45 -117t-77.5 -89.5t-84 -60t-69.5 -36.5l-28 -11l-24 28l11 11t25 29.5t33 46.5t29.5 59.5t20.5 70.5l68 432h-70l8 50l74 23l16 102q14 85 64.5 131.5t133.5 46.5q48 0 83.5 -15.5t46.5 -30.5l11 -15l-32 -28q-12 12 -36 12
q-57 0 -70 -86l-19 -122h121l15 97q14 91 66.5 139.5t139.5 48.5q49 0 85 -15.5t47 -30.5l12 -15l-32 -28q-13 12 -39 12q-62 0 -78 -96l-18 -112h120l-11 -70h-120l-54 -341q-10 -62 -45 -117t-78 -89.5t-84.5 -60t-69.5 -36.5l-28 -11l-24 28l11 11t25 29.5t33.5 46.5
t30 59.5t20.5 70.5z" />
    <glyph glyph-name="fi" unicode="fi" horiz-adv-x="633" 
d="M349 0l48 300q7 46 14 110h-112l-58 -361q-10 -62 -45 -117t-77.5 -89.5t-84 -60t-69.5 -36.5l-28 -11l-24 28l11 11t25 29.5t33 46.5t29.5 59.5t20.5 70.5l68 432h-70l8 50l74 23l5 28q16 112 103 180.5t223 68.5q89 0 141.5 -31t52.5 -86q0 -18 -6 -36t-12 -27l-6 -8
q-62 -15 -169 -15l-12 15q22 37 22 80q0 48 -37 48q-35 0 -60.5 -44t-37.5 -116l-10 -62h305q-3 -80 -19 -180l-48 -300h-198z" />
    <glyph glyph-name="fl" unicode="fl" horiz-adv-x="638" 
d="M355 0l76 480q17 116 23 201q-19 7 -37 7q-73 0 -89 -96l-18 -112h75l-11 -70h-75l-58 -361q-7 -45 -27.5 -86.5t-47.5 -72t-58.5 -57t-61.5 -44t-54.5 -30.5t-39.5 -19l-15 -5l-24 28q11 10 28 29t49.5 76t41.5 112l68 432h-70l8 50l74 23l14 91q15 97 72.5 143
t162.5 46q31 0 59 -3.5t40 -7.5l12 -4h183q-1 -117 -25 -270l-77 -480h-198z" />
    <glyph glyph-name="ffi" unicode="ffi" horiz-adv-x="953" 
d="M355 0l65 410h-121l-58 -361q-10 -62 -45 -117t-77.5 -89.5t-84 -60t-69.5 -36.5l-28 -11l-24 28l11 11t25 29.5t33 46.5t29.5 59.5t20.5 70.5l68 432h-70l8 50l74 23l16 102q14 85 64.5 131.5t133.5 46.5q48 0 83.5 -15.5t46.5 -30.5l11 -15l-32 -28q-12 12 -36 12
q-57 0 -70 -86l-19 -122h121l5 33q18 113 104.5 181t221.5 68q89 0 141.5 -31t52.5 -86q0 -18 -6 -36t-12 -27l-6 -8q-62 -15 -169 -15l-12 15q22 37 22 80q0 48 -37 48q-35 0 -60.5 -44t-37.5 -116l-10 -62h305q-3 -80 -19 -180l-48 -300h-198l48 300q7 46 14 110h-112
l-54 -341q-10 -62 -45 -117t-78 -89.5t-84.5 -60t-69.5 -36.5l-28 -11l-24 28l11 11t25 29.5t33.5 46.5t30 59.5t20.5 70.5z" />
    <glyph glyph-name="ffl" unicode="ffl" horiz-adv-x="958" 
d="M355 0l65 410h-121l-58 -361q-7 -45 -27.5 -86.5t-47.5 -72t-58.5 -57t-61.5 -44t-54.5 -30.5t-39.5 -19l-15 -5l-24 28q11 10 28 29t49.5 76t41.5 112l68 432h-70l8 50l74 23l16 102q14 85 64.5 131.5t133.5 46.5q48 0 83.5 -15.5t46.5 -30.5l11 -15l-32 -28
q-12 12 -36 12q-57 0 -70 -86l-19 -122h121l15 96q16 98 73.5 143.5t160.5 45.5q31 0 59 -3.5t40 -7.5l12 -4h183q-1 -117 -25 -270l-77 -480h-198l76 480q17 116 23 201q-16 7 -37 7q-73 0 -89 -96l-18 -112h75l-11 -70h-75l-54 -341q-10 -62 -45 -117t-78 -89.5t-84.5 -60
t-69.5 -36.5l-28 -11l-24 28l11 11t25 29.5t33.5 46.5t30 59.5t20.5 70.5z" />
    <glyph glyph-name="f_f_j" unicode="ffj" horiz-adv-x="953" 
d="M355 0l65 410h-121l-58 -361q-10 -62 -45 -117t-77.5 -89.5t-84 -60t-69.5 -36.5l-28 -11l-24 28l11 11t25 29.5t33 46.5t29.5 59.5t20.5 70.5l68 432h-70l8 50l74 23l16 102q14 85 64.5 131.5t133.5 46.5q48 0 83.5 -15.5t46.5 -30.5l11 -15l-32 -28q-12 12 -36 12
q-57 0 -70 -86l-19 -122h121l5 33q18 113 104.5 181t221.5 68q89 0 141.5 -31t52.5 -86q0 -18 -6 -36t-12 -27l-6 -8q-62 -15 -169 -15l-12 15q22 37 22 80q0 48 -37 48q-35 0 -60.5 -44t-37.5 -116l-10 -62h305q-2 -80 -19 -180l-34 -206q-10 -62 -45.5 -117t-78 -89.5
t-84 -60t-68.5 -36.5l-28 -11l-24 28l11 11t25 29.5t33 46.5t29.5 59.5t20.5 70.5l45 275q7 46 14 110h-112l-54 -341q-10 -62 -45 -117t-78 -89.5t-84.5 -60t-69.5 -36.5l-28 -11l-24 28l11 11t25 29.5t33.5 46.5t30 59.5t20.5 70.5z" />
    <glyph glyph-name="f_j" unicode="fj" horiz-adv-x="633" 
d="M348 0l49 300q7 46 14 110h-112l-58 -361q-10 -62 -45 -117t-77.5 -89.5t-84 -60t-69.5 -36.5l-28 -11l-24 28l11 11t25 29.5t33 46.5t29.5 59.5t20.5 70.5l68 432h-70l8 50l74 23l5 28q16 112 103 180.5t223 68.5q89 0 141.5 -31t52.5 -86q0 -18 -6 -36t-12 -27l-6 -8
q-62 -15 -169 -15l-12 15q22 37 22 80q0 48 -37 48q-35 0 -60.5 -44t-37.5 -116l-10 -62h305q-3 -80 -19 -180l-38 -231q-10 -62 -45 -117t-78 -89.5t-84.5 -60t-69.5 -36.5l-28 -11l-24 28l11 11t25 29.5t33.5 46.5t30 59.5t20.5 70.5z" />
    <glyph glyph-name="afii10104_afii10104" unicode="&#x457;&#x457;" horiz-adv-x="599" 
d="M24 615q0 41 27 67t69 26q31 0 50 -18.5t19 -48.5q0 -42 -26.5 -69t-68.5 -27q-33 0 -51.5 19t-18.5 51zM276 615q0 41 27 67t69 26q32 0 51 -18.5t19 -48.5q0 -42 -27 -69t-69 -27q-32 0 -51 19t-19 51zM11 0l48 300q7 44 12 85.5t6 60.5l1 19l14 15h184
q-3 -80 -19 -180l-48 -300h-198zM528 615q0 41 27 67t69 26q32 0 51 -18.5t19 -48.5q0 -42 -27 -69t-68 -27q-33 0 -52 19t-19 51zM315 0l48 300q7 44 12 85.5t6 60.5l1 19l15 15h183q-3 -80 -19 -180l-48 -300h-198z" />
    <glyph glyph-name=".notdef" horiz-adv-x="220" 
 />
    <glyph glyph-name=".null" horiz-adv-x="0" 
 />
    <glyph glyph-name="nonmarkingreturn" horiz-adv-x="333" 
 />
    <glyph glyph-name="space" unicode=" " horiz-adv-x="220" 
 />
    <glyph glyph-name="exclam" unicode="!" horiz-adv-x="268" 
d="M5 74q0 51 33.5 84t84.5 33q41 0 64.5 -23t23.5 -63q0 -50 -34 -83.5t-84 -33.5q-42 0 -65 23t-23 63zM57 239l44 461h208l-103 -461h-149z" />
    <glyph glyph-name="quotedbl" unicode="&#x22;" horiz-adv-x="339" 
d="M93 490l13 210h120l-55 -220h-70zM243 490l13 210h119l-55 -220h-69z" />
    <glyph glyph-name="numbersign" unicode="#" horiz-adv-x="616" 
d="M82 440l13 80h118l48 180h80l-48 -180h149l48 180h80l-48 -180h112l-13 -80h-120l-47 -180h112l-13 -80h-120l-47 -180h-80l47 180h-149l-47 -180h-80l47 180h-110l13 80h118l47 180h-110zM272 440l-47 -180h149l47 180h-149z" />
    <glyph glyph-name="dollar" unicode="$" horiz-adv-x="620" 
d="M334 647q-29 0 -47.5 -17t-18.5 -44q0 -25 25.5 -52.5t114.5 -104.5q112 -96 144.5 -136.5t32.5 -95.5q0 -89 -67.5 -145.5t-211.5 -62.5l-14 -89h-79l14 90q-49 3 -91 12t-66.5 20t-41.5 22.5t-23.5 19t-6.5 9.5q8 53 41 103t63 74l29 23h20l2.5 -12.5t8 -30.5t14.5 -44
t21.5 -46t28.5 -43.5t36.5 -31t44.5 -12.5q33 0 56.5 20t23.5 47q0 30 -33 61t-120 94q-88 64 -123 108t-35 112q0 93 67 150t199 65l14 90h79l-14 -89q68 -4 118 -20t67.5 -29.5t16.5 -16.5q-5 -34 -21 -67.5t-35 -57t-37 -42t-30 -27.5l-12 -9h-18q-1 8 -3.5 22t-13 49.5
t-24.5 62.5t-39 49t-56 22z" />
    <glyph glyph-name="percent" unicode="%" horiz-adv-x="867" 
d="M223 0h-91l542 700h92zM58 485q0 96 64.5 161.5t158.5 65.5q75 0 119 -45t44 -122q0 -96 -64.5 -161.5t-157.5 -65.5q-76 0 -120 45t-44 122zM204 457q0 -74 28 -74q27 0 46.5 58.5t19.5 129.5q0 75 -28 75t-47 -59t-19 -130zM454 156q0 96 64 161t158 65q76 0 119.5 -45
t43.5 -122q0 -97 -64 -162t-158 -65q-76 0 -119.5 45t-43.5 123zM598 127q0 -74 29 -74q27 0 47 59.5t20 129.5q0 74 -29 74q-27 0 -47 -59.5t-20 -129.5z" />
    <glyph glyph-name="ampersand" unicode="&#x26;" horiz-adv-x="838" 
d="M455 285l8 50l143 54l60 22q12 -22 21 -56h145l-11 -70h-125q-1 -128 -100.5 -212.5t-248.5 -84.5q-139 0 -218.5 78.5t-79.5 213.5q0 112 52 210.5t150.5 160.5t220.5 62q82 0 123.5 -27.5t41.5 -74.5q0 -44 -35 -80.5t-89.5 -58.5t-110.5 -35t-108 -17
q-16 -64 -16 -115q0 -85 42.5 -140t115.5 -55q69 0 122 49.5t61 125.5h-164zM440 653q-33 0 -68 -49t-61 -123q61 8 107.5 45.5t46.5 90.5q0 36 -25 36z" />
    <glyph glyph-name="quotesingle" unicode="'" horiz-adv-x="190" 
d="M93 490l13 210h120l-55 -220h-70z" />
    <glyph glyph-name="parenleft" unicode="(" horiz-adv-x="354" 
d="M286 -110l-57 -50q-8 4 -22 13t-49 42t-62 74t-49 111.5t-22 151.5q0 78 19 149t50 122.5t68.5 96t74.5 73t68 49t50 29.5l19 9l42 -50q-8 -7 -21 -20.5t-47 -62t-60 -104t-47 -146t-21 -189.5q0 -91 16.5 -165.5t33.5 -103.5z" />
    <glyph glyph-name="parenright" unicode=")" horiz-adv-x="354" 
d="M-5 -160l-42 50q8 7 21 20.5t47 62t60 104t47 146t21 189.5q0 91 -16.5 165.5t-32.5 103.5l-17 29l58 50q8 -4 22 -12.5t49 -41.5t61.5 -73.5t48.5 -111t22 -151.5q0 -78 -19 -149t-50 -123t-68.5 -96.5t-74.5 -73.5t-68 -49.5t-50 -29.5z" />
    <glyph glyph-name="asterisk" unicode="*" horiz-adv-x="412" 
d="M221 565l1 135h109l-41 -135l133 61l16 -104l-138 -24l81 -97l-98 -64l-45 121l-83 -121l-79 64l111 97l-130 24l51 104z" />
    <glyph glyph-name="plus" unicode="+" 
d="M95 285v80h160v160h80v-160h160v-80h-160v-160h-80v160h-160z" />
    <glyph glyph-name="comma" unicode="," horiz-adv-x="254" 
d="M-44 -183l-24 28q4 4 10.5 12.5t24 35t30.5 54.5t23.5 69.5t10.5 82.5q0 19 -2 36.5t-4 25.5l-2 8l12 10q48 0 87.5 -6t55.5 -12l15 -6q3 -13 3 -35q0 -56 -24.5 -108t-60 -86t-71 -60t-60.5 -38z" />
    <glyph glyph-name="hyphen" unicode="-" horiz-adv-x="320" 
d="M45 235v80h230v-80h-230z" />
    <glyph glyph-name="period" unicode="." horiz-adv-x="254" 
d="M-2 74q0 51 33.5 84t84.5 33q42 0 65.5 -22.5t23.5 -63.5q0 -50 -34 -83.5t-84 -33.5q-42 0 -65.5 23t-23.5 63z" />
    <glyph glyph-name="slash" unicode="/" horiz-adv-x="420" 
d="M26 -150h-85l469 900h84z" />
    <glyph glyph-name="zero" unicode="0" horiz-adv-x="669" 
d="M39 288q0 179 106 301.5t260 122.5q120 0 188 -81t68 -219q0 -179 -106 -301.5t-259 -122.5q-120 0 -188.5 80.5t-68.5 219.5zM248 213q0 -160 58 -160q40 0 74.5 68t53 167t18.5 198q0 161 -58 161q-41 0 -75 -68t-52.5 -167t-18.5 -199z" />
    <glyph glyph-name="one" unicode="1" horiz-adv-x="489" 
d="M155 0l87 546q-78 -30 -159 -30q-8 20 1 74l11 10q65 0 136 25t110 50l39 25h85l-111 -700h-199z" />
    <glyph glyph-name="two" unicode="2" horiz-adv-x="594" 
d="M617 550q0 -46 -22.5 -92.5t-58.5 -84t-79 -72t-86.5 -60t-79.5 -44.5t-59 -29l-22 -9h166q49 0 92 9.5t62 19.5l18 10l12 -15l-29 -183h-553l14 94q17 11 45 29.5t99.5 75t126.5 111t100 128t45 134.5q0 36 -15.5 55.5t-42.5 19.5q-40 0 -65.5 -38t-25.5 -104
q0 -16 1.5 -27.5t3.5 -15.5l1 -3l-18 -15q-52 0 -97.5 4t-65.5 8l-20 3q-6 12 -6 41q0 93 80.5 152.5t228.5 59.5q119 0 184.5 -41t65.5 -121z" />
    <glyph glyph-name="three" unicode="3" horiz-adv-x="626" 
d="M268 53q54 0 82 48t28 116q0 52 -20 75t-69 23h-38l-7 10l13 80h30q126 0 126 159q0 44 -11.5 63.5t-40.5 19.5q-41 0 -67.5 -35t-26.5 -98q0 -15 1.5 -26t3.5 -15l1 -4l-18 -15q-52 0 -97.5 4t-65.5 8l-20 3q-6 13 -6 40q0 89 81.5 146t229.5 57q246 0 246 -167
q0 -67 -41.5 -114t-121.5 -69q135 -31 135 -151q0 -107 -90 -165t-241 -58q-134 0 -197.5 44.5t-63.5 121.5q0 25 6.5 46t12.5 30l6 8q74 15 190 15l12 -15q-30 -35 -30 -101q0 -84 68 -84z" />
    <glyph glyph-name="four" unicode="4" horiz-adv-x="609" 
d="M-5 127l6 40l485 533h99l-79 -493h76l-13 -80h-75l-20 -127h-198l20 127h-301zM135 207h173l36 228z" />
    <glyph glyph-name="five" unicode="5" horiz-adv-x="604" 
d="M256 53q50 0 79.5 52.5t29.5 125.5q0 67 -28.5 92t-93.5 25q-44 0 -84.5 -8.5t-58.5 -17.5l-19 -8l-11 14l103 360h230q49 0 91.5 10t61.5 20l18 10l13 -15l-30 -183h-339l-34 -120q71 34 162 34q113 0 175.5 -54.5t62.5 -152.5q0 -116 -87 -182.5t-245 -66.5
q-128 0 -189 43t-61 116q0 24 6 44.5t12 28.5l7 8q73 15 189 15l13 -15q-30 -32 -30 -98q0 -77 57 -77z" />
    <glyph glyph-name="six" unicode="6" horiz-adv-x="664" 
d="M400 647q-103 0 -141 -277q56 46 148 46q98 0 160 -50t62 -134q0 -107 -97.5 -175.5t-226.5 -68.5q-131 0 -199 77.5t-68 220.5q0 81 22 155t65.5 135.5t117.5 98.5t169 37q105 0 173.5 -42.5t68.5 -115.5q0 -21 -6 -39.5t-12 -26.5l-5 -9q-74 -15 -189 -15l-11 15
q26 31 26 89q0 79 -57 79zM342 351q-48 0 -92 -64q-3 -52 -3 -87q0 -147 61 -147q38 0 71 53.5t33 131.5q0 57 -19.5 85t-50.5 28z" />
    <glyph glyph-name="seven" unicode="7" horiz-adv-x="567" 
d="M303 0h-199q12 73 38 143t58.5 122t69.5 98.5t71 78t62 54.5t45 34l17 11h-214q-49 0 -91.5 -9.5t-61.5 -19.5l-18 -10l-12 15l28 183h519l-13 -84q-10 -10 -26.5 -29.5t-61 -82.5t-82 -130.5t-75.5 -169.5t-54 -204z" />
    <glyph glyph-name="eight" unicode="8" horiz-adv-x="633" 
d="M620 555q0 -114 -137 -179q53 -37 82 -77.5t29 -96.5q0 -90 -78 -152t-238 -62q-138 0 -202.5 46.5t-64.5 121.5q0 118 152 188q-76 60 -76 150q0 95 78 156.5t222 61.5q121 0 177 -43.5t56 -113.5zM395 149q0 23 -9.5 41.5t-36 38t-39.5 27t-55 30.5q-54 -49 -54 -123
q0 -49 24.5 -79.5t69.5 -30.5q46 0 73 29t27 67zM365 647q-35 0 -55.5 -22t-20.5 -57q0 -41 26.5 -71.5t77.5 -63.5q48 54 48 122q0 45 -20.5 68.5t-55.5 23.5z" />
    <glyph glyph-name="nine" unicode="9" horiz-adv-x="655" 
d="M278 53q33 0 59.5 25t44 68.5t28 90.5t17.5 102q-53 -51 -149 -51q-91 0 -152 46.5t-61 132.5q0 108 95.5 176.5t224.5 68.5q131 0 197 -76.5t66 -217.5q0 -66 -14 -127t-44 -116.5t-74 -96.5t-108.5 -65.5t-142.5 -24.5q-107 0 -178 42.5t-71 116.5q0 21 6 39.5t12 26.5
l6 8q73 14 189 14l12 -14q-26 -31 -26 -88q0 -80 63 -80zM346 354q46 0 88 56q4 45 4 87q0 150 -58 150q-37 0 -67.5 -54.5t-30.5 -131.5q0 -107 64 -107z" />
    <glyph glyph-name="colon" unicode=":" horiz-adv-x="254" 
d="M-2 74q0 51 33.5 84t84.5 33q42 0 65.5 -22.5t23.5 -63.5q0 -50 -34 -83.5t-84 -33.5q-42 0 -65.5 23t-23.5 63zM45 375q0 50 34 83.5t84 33.5q42 0 65.5 -23t23.5 -63q0 -51 -34 -84.5t-84 -33.5q-42 0 -65.5 23t-23.5 64z" />
    <glyph glyph-name="semicolon" unicode=";" horiz-adv-x="254" 
d="M43 365q0 50 34 83.5t85 33.5q41 0 64.5 -23t23.5 -63q0 -51 -33.5 -84t-84.5 -33q-42 0 -65.5 22.5t-23.5 63.5zM-44 -183l-24 28q4 4 10.5 12.5t24 35t30.5 54.5t23.5 69.5t10.5 82.5q0 19 -2 36.5t-4 25.5l-2 8l12 10q48 0 87.5 -6t55.5 -12l15 -6q3 -13 3 -35
q0 -56 -24.5 -108t-60 -86t-71 -60t-60.5 -38z" />
    <glyph glyph-name="less" unicode="&#x3c;" 
d="M495 523v-86l-304 -112l304 -112v-86l-420 155v86z" />
    <glyph glyph-name="equal" unicode="=" 
d="M95 375v80h400v-80h-400zM95 195v80h400v-80h-400z" />
    <glyph glyph-name="greater" unicode="&#x3e;" 
d="M95 437v86l420 -155v-86l-420 -155v86l304 112z" />
    <glyph glyph-name="question" unicode="?" horiz-adv-x="574" 
d="M146 75q0 50 34 83t84 33q42 0 66 -23t24 -64q0 -49 -34 -82.5t-84 -33.5q-42 0 -66 23t-24 64zM600 549q0 -50 -24.5 -94t-59.5 -71.5t-70 -47t-60 -28.5l-24 -8l-13 -61h-149l14 141q7 1 19 3.5t42.5 15t54 31.5t42.5 56t19 85q0 76 -48 76q-34 0 -56.5 -35t-22.5 -94
q0 -15 1.5 -26t2.5 -14l2 -4l-17 -15q-52 0 -98 3.5t-67 7.5l-20 4q-6 11 -6 38q0 88 77.5 144t219.5 56q115 0 178 -41t63 -122z" />
    <glyph glyph-name="at" unicode="@" horiz-adv-x="1122" 
d="M1088 324q0 -157 -94.5 -246.5t-253.5 -89.5q-81 0 -109 25t-17 81l1 6l-4 5q-3 -5 -8.5 -13t-24.5 -28t-39.5 -35.5t-51 -28t-61.5 -12.5q-63 0 -98.5 50t-35.5 131q0 139 102 231t271 92q61 0 106 -13t59 -25l14 -13l-46 -289q-13 -85 29 -85q46 0 74.5 74t28.5 176
q0 161 -77 238.5t-216 77.5q-104 0 -190.5 -42t-142 -112t-86 -158t-30.5 -183q0 -308 323 -308q55 0 110 9t94 22t70.5 25.5t46.5 21.5l16 9l24 -29q-5 -6 -16 -16t-48 -36t-80 -46t-113 -36t-145 -16q-204 0 -321.5 107.5t-117.5 291.5q0 115 48 220t130 183.5t198.5 125
t247.5 46.5q206 0 319.5 -108t113.5 -280zM614 235l27 174q-3 21 -24 21q-40 0 -76 -87.5t-36 -182.5q0 -59 16 -59q13 0 36 33.5t40 67.5z" />
    <glyph glyph-name="A" unicode="A" horiz-adv-x="720" 
d="M160 171l-90 -171h-100l337 628l-26 57l3 15h227l159 -700h-214l-39 171h-257zM340 514l-139 -265h199z" />
    <glyph glyph-name="B" unicode="B" horiz-adv-x="679" 
d="M16 0l111 700h283q134 0 197 -38.5t63 -118.5q0 -65 -40 -110t-120 -66q140 -34 140 -157q0 -101 -83.5 -155.5t-251.5 -54.5h-299zM434 223q0 102 -100 102h-59l-39 -246h60q66 0 102 39t36 105zM454 530q0 91 -91 91h-41l-34 -216h41q60 0 92.5 33.5t32.5 91.5z" />
    <glyph glyph-name="C" unicode="C" horiz-adv-x="713" 
d="M463 647q-78 0 -133.5 -99t-55.5 -241q0 -108 38.5 -154.5t122.5 -46.5q53 0 106 16t79 32l26 17l25 -30q-4 -6 -11.5 -16.5t-36 -37t-62 -46.5t-89 -36.5t-116.5 -16.5q-146 0 -231 84t-85 227q0 176 123 294.5t313 118.5q121 0 190 -51t69 -132q0 -27 -7.5 -49.5
t-15.5 -31.5l-8 -9q-73 -15 -189 -15l-12 15q31 40 31 113q0 95 -71 95z" />
    <glyph glyph-name="D" unicode="D" horiz-adv-x="766" 
d="M16 0l111 700h311q147 0 233 -82t86 -221q0 -170 -123 -283.5t-307 -113.5h-311zM415 621h-93l-86 -542h94q87 0 142 95t55 247q0 200 -112 200z" />
    <glyph glyph-name="E" unicode="E" 
d="M16 0l111 700h488l-17 -104l-16 -15q-6 4 -17 11t-52 18t-90 11h-101l-35 -221h206l8 -10l-10 -70h-216l-38 -241h111q48 0 90.5 10t61.5 20l18 10l13 -15l-17 -104h-498z" />
    <glyph glyph-name="F" unicode="F" horiz-adv-x="565" 
d="M16 0l111 700h483l-16 -104l-17 -15q-6 4 -17 11t-52 18t-90 11h-96l-35 -221h208l9 -10l-11 -70h-219l-50 -320h-208z" />
    <glyph glyph-name="G" unicode="G" horiz-adv-x="713" 
d="M428 273l11 70h56q55 0 104 3.5t71 7.5l21 4l12 -15l-38 -242q-4 -5 -11.5 -12.5t-35.5 -27t-59.5 -34.5t-83.5 -27t-108 -12q-155 0 -241 83t-86 228q0 177 122.5 295t318.5 118q118 0 185.5 -45t67.5 -126q0 -27 -7.5 -48.5t-14.5 -30.5l-8 -8q-73 -15 -189 -15l-13 15
q32 36 32 110q0 45 -16.5 64t-49.5 19q-84 0 -139.5 -99.5t-55.5 -246.5q0 -109 35.5 -162t112.5 -53q28 0 55 6l11 71q8 52 4 100h-54z" />
    <glyph glyph-name="H" unicode="H" horiz-adv-x="769" 
d="M466 0l50 320h-242l-50 -320h-208l111 700h208l-48 -300h242l48 300h208l-111 -700h-208z" />
    <glyph glyph-name="I" unicode="I" horiz-adv-x="319" 
d="M16 0l111 700h208l-111 -700h-208z" />
    <glyph glyph-name="J" unicode="J" horiz-adv-x="508" 
d="M238 212l77 488h208l-76 -481q-37 -231 -296 -231q-61 0 -106 12.5t-59 25.5l-15 12q5 34 19.5 66t31 54.5t32 40t26.5 25.5l10 9h13q0 -7 0.5 -19.5t5 -43.5t10.5 -54.5t19.5 -43t30.5 -19.5q22 0 38.5 35t30.5 124z" />
    <glyph glyph-name="K" unicode="K" horiz-adv-x="706" 
d="M16 0l111 700h208l-46 -290h20l276 290h119l-245 -253l99 -249q20 -51 46 -96.5t42 -65.5l16 -21l-2 -15h-250l-130 330h-4l-52 -330h-208z" />
    <glyph glyph-name="L" unicode="L" horiz-adv-x="545" 
d="M16 0l111 700h208l-98 -621h81q49 0 91.5 10t60.5 20l18 10l13 -15l-17 -104h-468z" />
    <glyph glyph-name="M" unicode="M" horiz-adv-x="963" 
d="M670 0l31 536l-4 5l-233 -521h-137l-22 26l-74 495l-6 -5l-126 -536h-97l127 520q11 44 16 85t4 61l-1 19l18 15h253l64 -422l190 422h249l-37 -700h-215z" />
    <glyph glyph-name="N" unicode="N" horiz-adv-x="700" 
d="M16 0l67 420q13 80 14.5 146t-3.5 92l-5 27l18 15h69l379 -381l61 381h99l-111 -700h-59l-380 379l-60 -379h-89z" />
    <glyph glyph-name="O" unicode="O" horiz-adv-x="799" 
d="M40 298q0 176 123.5 295t306.5 119q149 0 234.5 -83.5t85.5 -226.5q0 -176 -123.5 -295t-305.5 -119q-149 0 -235 83.5t-86 226.5zM267 259q0 -206 103 -206q83 0 138 111t55 277q0 206 -103 206q-83 0 -138 -111t-55 -277z" />
    <glyph glyph-name="P" unicode="P" horiz-adv-x="664" 
d="M16 0l111 700h282q128 0 199 -48t71 -140q0 -106 -92 -169t-245 -63h-74l-44 -280h-208zM363 621h-41l-41 -261h41q64 0 101.5 41.5t37.5 111.5q0 108 -98 108z" />
    <glyph glyph-name="Q" unicode="Q" horiz-adv-x="799" 
d="M357 -16q-149 1 -233 85t-84 227q0 178 123 297t307 119q149 0 234.5 -84t85.5 -228q0 -133 -71.5 -236.5t-190.5 -149.5q8 -3 26.5 -9.5t28 -10t25.5 -7.5t31.5 -6t32.5 -2q24 0 42 4t24 8l6 4l8 -10q-8 -48 -20.5 -90.5t-21.5 -60.5l-9 -19q-17 -10 -50 -10
q-38 0 -72 18.5t-59 44.5t-49 52.5t-53.5 45t-60.5 18.5zM267 255q0 -107 25.5 -156.5t77.5 -49.5q84 0 138.5 112t54.5 279q0 207 -103 207q-84 0 -138.5 -112t-54.5 -280z" />
    <glyph glyph-name="R" unicode="R" horiz-adv-x="686" 
d="M16 0l111 700h276q130 0 201 -46t71 -134q0 -67 -42 -117t-118 -77l48 -146q16 -48 37 -90.5t34 -61.5l13 -18l-11 -10h-226l-93 300h-46l-47 -300h-208zM358 621h-36l-38 -241h36q63 0 100 38t37 102q0 101 -99 101z" />
    <glyph glyph-name="S" unicode="S" horiz-adv-x="620" 
d="M336 647q-29 0 -47.5 -17t-18.5 -43t25.5 -54t113.5 -104q111 -95 143.5 -135.5t32.5 -96.5q0 -94 -75.5 -151.5t-236.5 -57.5q-59 0 -109 8t-79.5 20t-50.5 24t-29 20l-8 8q5 36 21 70t34.5 57.5t36.5 42t30 26.5l12 9h20l2.5 -12.5t8 -30.5t14.5 -44t21.5 -46
t28.5 -43.5t36.5 -31t44.5 -12.5q33 0 56.5 20t23.5 47q0 30 -33 61.5t-119 93.5q-88 63 -122.5 108t-34.5 111q0 101 77.5 159.5t231.5 58.5q49 0 92 -6.5t68.5 -15.5t44.5 -18t26 -16l8 -6q-6 -36 -22 -71t-35 -58.5t-37 -42t-30 -27.5l-12 -9h-18q-1 8 -3.5 22t-13 49.5
t-24.5 62.5t-39 49t-56 22z" />
    <glyph glyph-name="T" unicode="T" horiz-adv-x="689" 
d="M507 621l-98 -621h-209l99 621h-41q-49 0 -91.5 -10t-60.5 -20l-19 -10l-13 15l17 104h649l-17 -104l-17 -15q-6 4 -17 11t-52 18t-90 11h-40z" />
    <glyph glyph-name="U" unicode="U" horiz-adv-x="706" 
d="M561 251l71 449h89l-71 -446q-19 -122 -108.5 -194t-230.5 -72q-142 0 -208.5 72t-47.5 194l71 446h209l-76 -480q-11 -69 22 -109t97 -40q70 0 119.5 47t63.5 133z" />
    <glyph glyph-name="V" unicode="V" horiz-adv-x="716" 
d="M248 26l-117 494q-12 49 -26.5 90t-22.5 58l-9 17l2 15h238l115 -497l254 497h99l-364 -700h-147z" />
    <glyph glyph-name="W" unicode="W" horiz-adv-x="1083" 
d="M644 26l-60 346l-175 -372h-153l-23 26l-104 494q-10 49 -24 90t-23 58l-9 16l3 16h234l103 -494l145 315q-8 48 -20 89t-20 58l-8 16l3 16h235l79 -481l224 481h98l-333 -700h-150z" />
    <glyph glyph-name="X" unicode="X" horiz-adv-x="721" 
d="M326 700l112 -231l197 231h118l-277 -311l92 -189q24 -49 51 -95.5t43 -68.5l15 -21l-2 -15h-249l-126 253l-222 -253h-108l291 332l-182 368h247z" />
    <glyph glyph-name="Y" unicode="Y" horiz-adv-x="697" 
d="M762 700l-286 -369l-52 -331h-208l49 316l-78 172q-24 54 -52.5 103t-44.5 71l-17 22l3 16h257l119 -260l201 260h109z" />
    <glyph glyph-name="Z" unicode="Z" horiz-adv-x="658" 
d="M-4 35l427 586h-150q-49 0 -91.5 -10t-61.5 -20l-18 -10l-12 15l16 104h594l-6 -35l-426 -586h157q49 0 91.5 10t61.5 20l18 10l13 -15l-17 -104h-602z" />
    <glyph glyph-name="bracketleft" unicode="[" horiz-adv-x="335" 
d="M-18 -150l143 900h278l-13 -79h-80l-117 -742h80l-13 -79h-278z" />
    <glyph glyph-name="backslash" unicode="\" horiz-adv-x="420" 
d="M351 -150h-84l-183 900h85z" />
    <glyph glyph-name="bracketright" unicode="]" horiz-adv-x="335" 
d="M368 750l-143 -900h-279l13 79h81l117 742h-81l13 79h279z" />
    <glyph glyph-name="asciicircum" unicode="^" horiz-adv-x="485" 
d="M493 461l-12 -10h-95l-94 110l-131 -110h-95l-8 10l232 239h47z" />
    <glyph glyph-name="underscore" unicode="_" horiz-adv-x="500" 
d="M0 -129v79h500v-79h-500z" />
    <glyph glyph-name="grave" unicode="`" horiz-adv-x="326" 
d="M323 560l-11 -10h-56l-134 160l2 10q52 29 160 29z" />
    <glyph glyph-name="a" unicode="a" horiz-adv-x="585" 
d="M564 441l-42 -261q-7 -44 -7.5 -85.5t3.5 -60.5l3 -19l-15 -15h-183q-2 4 -5 11.5t-6.5 28t-0.5 37.5l4 23l-4 5q-2 -5 -6.5 -13t-20 -28t-33 -35.5t-46 -28t-59.5 -12.5q-64 0 -99.5 50t-35.5 131q0 139 102 231t272 92q61 0 106 -13t59 -25zM225 160q0 -59 16 -59
q12 0 35.5 33.5t40.5 67.5l17 33l27 174q-3 21 -24 21q-40 0 -76 -87.5t-36 -182.5z" />
    <glyph glyph-name="b" unicode="b" horiz-adv-x="580" 
d="M12 39l70 441q8 53 14.5 116.5t9.5 101.5l2 37l15 15h183q0 -114 -25 -270l-6 -39l-14 -61l4 -5q2 5 6.5 13t20 28t33 35.5t45.5 28t59 12.5q64 0 99.5 -50t35.5 -131q0 -139 -102 -231t-271 -92q-39 0 -71.5 5.5t-51.5 13t-32.5 14.5t-18.5 13zM351 320q0 59 -17 59
q-12 0 -35 -33.5t-40 -67.5l-17 -33l-27 -174q3 -21 24 -21q40 0 76 87.5t36 182.5z" />
    <glyph glyph-name="c" unicode="c" horiz-adv-x="509" 
d="M455 124l24 -28q-3 -4 -9 -11.5t-27.5 -26t-46.5 -33t-66.5 -26t-87.5 -11.5q-108 0 -168 58.5t-60 160.5q0 124 84 204.5t230 80.5q87 0 138 -30.5t51 -85.5q0 -19 -6 -37t-12 -27l-6 -8q-58 -15 -159 -15l-12 15q23 37 23 84q0 44 -28 44q-37 0 -58 -72.5t-21 -150.5
q0 -68 22 -95t69 -27q31 0 62.5 9.5t47.5 18.5z" />
    <glyph glyph-name="d" unicode="d" horiz-adv-x="585" 
d="M571 480l-49 -300q-7 -44 -7.5 -85t3.5 -61l3 -19l-15 -15h-183q-2 4 -5 11.5t-6.5 28t-0.5 37.5l4 23l-4 5q-2 -5 -6.5 -13t-20 -28t-33 -35.5t-46 -28t-58.5 -12.5q-65 0 -100.5 50t-35.5 129q0 139 102.5 232t243.5 93q12 0 18 -1q9 63 15 124t8 91l1 29l15 15h185
q-2 -110 -28 -270zM225 160q0 -59 16 -59q12 0 35.5 33.5t40.5 67.5l17 33l28 178q-6 17 -25 17q-40 0 -76 -87.5t-36 -182.5z" />
    <glyph glyph-name="e" unicode="e" horiz-adv-x="518" 
d="M456 124l24 -28q-3 -4 -9 -11.5t-27.5 -26t-46.5 -33t-66.5 -26t-87.5 -11.5q-107 0 -167.5 58.5t-60.5 158.5q0 127 92 207t235 80q87 0 131 -31t44 -80q0 -67 -76.5 -116t-201.5 -56q1 -69 21 -95.5t69 -26.5q32 0 63.5 9.5t47.5 18.5zM320 432q-26 0 -48.5 -45.5
t-29.5 -115.5q103 17 103 115q0 46 -25 46z" />
    <glyph glyph-name="f" unicode="f" horiz-adv-x="404" 
d="M32 -20l68 432h-70l8 50l74 23l14 92q14 91 66.5 139.5t139.5 48.5q50 0 86 -15.5t48 -30.5l11 -15l-32 -28q-13 12 -39 12q-62 0 -78 -96l-18 -112h120l-11 -70h-120l-58 -361q-10 -62 -45 -117t-77.5 -89.5t-84 -60t-69.5 -36.5l-28 -11l-24 28l11 11t25 29.5t33 46.5
t29.5 59.5t20.5 70.5z" />
    <glyph glyph-name="g" unicode="g" horiz-adv-x="580" 
d="M564 441l-69 -441l-4 -20q-22 -110 -106 -176t-224 -66q-91 0 -144.5 29t-53.5 83q0 17 5.5 33.5t11.5 24.5l5 8q64 15 171 15l13 -15q-22 -34 -22 -76t32 -42q36 0 66.5 49.5t47.5 132.5l4 20l12 77l6 23l-4 5q-2 -5 -6.5 -13t-20 -28t-33 -35.5t-46 -28t-59.5 -12.5
q-64 0 -99.5 50t-35.5 131q0 139 102 231t272 92q61 0 106 -13t59 -25zM361 409q-3 21 -24 21q-40 0 -76 -87.5t-36 -182.5q0 -59 16 -59q12 0 35.5 33.5t40.5 67.5l17 33z" />
    <glyph glyph-name="h" unicode="h" horiz-adv-x="575" 
d="M291 0l57 356q4 23 -11 23q-16 0 -39.5 -33.5t-39.5 -67.5l-16 -33l-38 -245h-198l76 480q11 72 17.5 135.5t7.5 91.5l1 28l15 15h183q0 -110 -25 -270l-6 -39l-14 -61l4 -5q2 5 5.5 13t18.5 28t34 35.5t52 28t71 12.5q64 0 87 -33.5t12 -102.5l-56 -356h-198z" />
    <glyph glyph-name="i" unicode="i" horiz-adv-x="294" 
d="M88 622q0 58 37.5 95t95.5 37q45 0 71.5 -26.5t26.5 -69.5q0 -58 -38 -95t-96 -37q-45 0 -71 26.5t-26 69.5zM11 0l48 300q7 44 12 85.5t6 60.5l1 19l14 15h184q-3 -80 -19 -180l-48 -300h-198z" />
    <glyph glyph-name="j" unicode="j" horiz-adv-x="294" 
d="M87 622q0 57 38 94.5t95 37.5q45 0 72 -26.5t27 -69.5q0 -58 -38 -95t-96 -37q-46 0 -72 26.5t-26 69.5zM7 -20l52 320q7 44 12 85.5t6 60.5l1 19l14 15h184q-3 -80 -19 -180l-41 -251q-10 -62 -45 -117t-78 -89.5t-84.5 -60t-69.5 -36.5l-28 -11l-24 28q11 10 28 29
t50 75.5t42 112.5z" />
    <glyph glyph-name="k" unicode="k" horiz-adv-x="575" 
d="M364 480h173q6 -7 6 -22q0 -28 -29.5 -62t-104.5 -86l39 -110q17 -50 40 -95t37 -65l14 -20l-3 -20h-213l-85 213l-34 -213h-198l76 480q11 69 17.5 133t7.5 93l1 29l15 15h183q0 -116 -25 -270l-28 -169l6 1q59 31 80.5 61t21.5 63q0 11 -1.5 19.5t-3.5 11.5l-2 3z" />
    <glyph glyph-name="l" unicode="l" horiz-adv-x="289" 
d="M6 0l76 480q11 71 17.5 135t7.5 92l1 28l15 15h183q0 -110 -25 -270l-77 -480h-198z" />
    <glyph glyph-name="m" unicode="m" horiz-adv-x="848" 
d="M288 0l57 354q4 23 -10 23q-15 0 -37 -33t-36 -66l-15 -33l-38 -245h-198l48 300q7 44 7.5 85.5t-2.5 60.5l-4 19l15 15h183q2 -4 5 -11.5t6.5 -28t0.5 -37.5l-5 -23l4 -5q2 5 5.5 13t18.5 28t33 35.5t50 28t69 12.5q112 0 99 -120q6 15 17 31.5t31.5 38.5t54.5 36t76 14
q62 0 84.5 -34t11.5 -102l-56 -356h-198l57 354q4 23 -10 23q-15 0 -37 -33t-37 -66l-14 -33l-38 -245h-198z" />
    <glyph glyph-name="n" unicode="n" horiz-adv-x="580" 
d="M296 0l57 356q4 23 -11 23q-16 0 -40 -33.5t-40 -67.5l-15 -33l-38 -245h-198l48 300q7 44 7.5 85.5t-2.5 60.5l-4 19l15 15h183q2 -4 5 -11.5t6.5 -28t0.5 -37.5l-5 -23l4 -5q2 5 6 13t19 28t33.5 35.5t52 28t71.5 12.5q64 0 87 -33.5t12 -102.5l-56 -356h-198z" />
    <glyph glyph-name="o" unicode="o" horiz-adv-x="579" 
d="M14 206q0 122 90 204t222 82q108 0 171.5 -59t63.5 -159q0 -122 -89.5 -204t-221.5 -82q-109 0 -172.5 59t-63.5 159zM229 134q0 -86 32 -86q35 0 60 105t25 193q0 86 -31 86q-35 0 -60.5 -105t-25.5 -193z" />
    <glyph glyph-name="p" unicode="p" horiz-adv-x="585" 
d="M-29 -250l88 550q7 44 7.5 85.5t-2.5 60.5l-4 19l15 15h183q2 -4 5 -11.5t6.5 -28t0.5 -37.5l-5 -23l4 -5q2 5 6.5 13t20 28t33 35.5t46 28t58.5 12.5q65 0 100.5 -50t35.5 -129q0 -139 -102.5 -232t-242.5 -93q-12 0 -18 1l-37 -239h-198zM356 320q0 59 -17 59
q-12 0 -35 -33.5t-40 -67.5l-17 -33l-28 -174h1q3 -21 24 -21q40 0 76 87.5t36 182.5z" />
    <glyph glyph-name="q" unicode="q" horiz-adv-x="580" 
d="M226 160q0 -59 16 -59q12 0 35.5 33.5t40.5 67.5l17 33l27 174l203 32l-110 -691h-199l47 302l13 48l-4 5q-2 -5 -6.5 -13t-20 -28t-33 -35.5t-46 -28t-59.5 -12.5q-64 0 -99.5 50t-35.5 131q0 139 102 231t272 92q61 0 106 -13t59 -25l14 -13l-203 -32q-3 21 -24 21
q-40 0 -76 -87.5t-36 -182.5z" />
    <glyph glyph-name="r" unicode="r" horiz-adv-x="431" 
d="M11 0l48 300q7 44 7.5 85.5t-2.5 60.5l-4 19l15 15h183q2 -4 5 -11.5t6.5 -28t0.5 -37.5l-6 -33l4 -5l4 7q5 7 13 18t19 24.5t26.5 27.5t32 25t37 18t41.5 7q4 -68 -11 -163l-17 -15q-17 13 -47 13q-33 0 -63 -23t-43 -46l-14 -23l-37 -235h-198z" />
    <glyph glyph-name="s" unicode="s" horiz-adv-x="494" 
d="M218 387q0 -22 24.5 -41t89.5 -53q69 -38 99 -68.5t30 -80.5q0 -71 -64 -113.5t-196 -42.5q-207 0 -207 102q0 16 4.5 30.5t9.5 21.5l5 7q63 15 164 15l13 -15q-20 -21 -20 -56q0 -45 45 -45q28 0 45 15.5t17 34.5q0 23 -27 41.5t-94 48.5q-29 13 -46 23.5t-36 27
t-28 39.5t-9 54q0 75 60.5 117.5t189.5 42.5q191 0 191 -101q0 -15 -4 -28t-8 -19l-4 -5q-61 -15 -163 -15l-11 15q15 16 15 50q0 43 -36 43q-23 0 -36 -13.5t-13 -31.5z" />
    <glyph glyph-name="t" unicode="t" horiz-adv-x="404" 
d="M30 410l8 50l97 47l59 118h138l-23 -145h121l-11 -70h-120l-42 -257q-11 -66 50 -66q14 0 25.5 3.5t16.5 7.5l5 3l24 -27q-3 -3 -8.5 -9t-24 -21t-39.5 -26t-54.5 -20.5t-68.5 -9.5q-74 0 -106.5 36.5t-21.5 102.5l45 283h-70z" />
    <glyph glyph-name="u" unicode="u" horiz-adv-x="585" 
d="M92 480h184q-3 -80 -19 -180l-28 -176q-4 -23 10 -23q16 0 40 33.5t40 67.5l16 33l36 230l15 15h185l-48 -300q-7 -44 -7.5 -85.5t2.5 -60.5l4 -19l-15 -15h-183q-2 4 -5 11.5t-6.5 28t-0.5 37.5l4 23l-4 5q-2 -5 -6 -13t-19.5 -28t-34 -35.5t-51.5 -28t-71 -12.5
q-63 0 -86 33.5t-12 102.5l28 176q7 44 11.5 85.5t5.5 60.5l1 19z" />
    <glyph glyph-name="v" unicode="v" horiz-adv-x="546" 
d="M397 480h133q6 -12 6 -41q0 -139 -229 -439h-139l-23 26l-52 274q-10 50 -24.5 92.5t-24.5 59.5l-10 18l10 10h207l62 -325q85 138 85 243q0 23 -3 41t-5 25l-3 6z" />
    <glyph glyph-name="w" unicode="w" horiz-adv-x="797" 
d="M435 26l-21 135q-33 -55 -104 -161h-128l-24 26l-62 274q-12 50 -28.5 92.5t-27.5 59.5l-11 18l10 10h207l71 -307q52 95 67 169q-8 38 -20 70t-20 45l-7 13l10 10h197l51 -307q71 125 68 225q0 23 -3.5 41t-6.5 25l-3 6l10 10h133q6 -12 7 -41q4 -138 -217 -439h-125z
" />
    <glyph glyph-name="x" unicode="x" horiz-adv-x="558" 
d="M151 0h-154q-4 7 -4 32q0 52 35 98.5t136 116.5l-24 53q-21 45 -45 86.5t-38 59.5l-14 19v15h233l69 -151q40 43 40 102q0 14 -1.5 23.5t-3.5 12.5l-1 3l10 10h154q4 -7 4 -30q0 -49 -33 -92t-132 -109l23 -49q23 -51 50 -97.5t42 -66.5l15 -21v-15h-233l-77 166
q-47 -51 -47 -118q0 -13 1.5 -22.5t3.5 -12.5l1 -3z" />
    <glyph glyph-name="y" unicode="y" horiz-adv-x="532" 
d="M-27 -262q-18 0 -36.5 4.5t-28.5 9.5l-9 4q0 51 13.5 94.5t26.5 61.5l13 18q32 -18 73 -18q65 0 144 63l-76 325q-12 51 -26.5 93.5t-23.5 59.5l-9 17l10 10h207l64 -336q84 139 84 260q0 21 -2.5 37.5t-5.5 22.5l-3 6l10 10h132q7 -13 7 -36q0 -60 -58.5 -178
t-141.5 -235t-185 -205t-179 -88z" />
    <glyph glyph-name="z" unicode="z" horiz-adv-x="498" 
d="M-14 35l263 370h-20q-49 0 -91.5 -9.5t-61.5 -19.5l-18 -10l-12 15l15 99h449l-6 -35l-264 -371h29q49 0 91.5 10t61.5 20l18 10l13 -15l-16 -99h-457z" />
    <glyph glyph-name="braceleft" unicode="{" horiz-adv-x="354" 
d="M45 15l43 155q24 90 -67 90l2 12l9 56l2 12q92 0 95 90l8 155q7 170 281 170l-12 -79q-67 0 -70 -61l-6 -155q-5 -117 -118 -160q98 -44 67 -160l-42 -155q-16 -61 50 -61l-13 -79q-131 0 -191 44t-38 126z" />
    <glyph glyph-name="bar" unicode="|" horiz-adv-x="192" 
d="M135 -150h-79v900h79v-900z" />
    <glyph glyph-name="braceright" unicode="}" horiz-adv-x="354" 
d="M244 170l-6 -155q-3 -81 -77.5 -125.5t-205.5 -44.5l13 79q67 0 70 61l7 155q5 117 117 160q-98 45 -66 160l42 155q16 61 -52 61l13 79q132 0 192 -42t37 -128l-42 -155q-24 -90 66 -90l-10 -68l-2 -12q-91 0 -96 -90z" />
    <glyph glyph-name="asciitilde" unicode="~" horiz-adv-x="497" 
d="M205 380q35 0 75 -30.5t65 -30.5q24 0 52.5 15.5t44.5 31.5l17 16l36 -43q-4 -5 -11 -13t-28 -28t-42 -35.5t-50.5 -28.5t-55.5 -13q-36 0 -77 30.5t-62 30.5t-50.5 -15.5t-48.5 -31.5l-18 -16l-36 43q4 5 11 13t28.5 28t42.5 35.5t51 28.5t56 13z" />
    <glyph glyph-name="exclamdown" unicode="&#xa1;" horiz-adv-x="268" 
d="M259 406q0 -51 -34 -84.5t-84 -33.5q-42 0 -65 23t-23 64q0 50 33.5 83.5t84.5 33.5q41 0 64.5 -23t23.5 -63zM206 240l-43 -460h-208l103 460h148z" />
    <glyph glyph-name="cent" unicode="&#xa2;" horiz-adv-x="511" 
d="M455 124l24 -28l-7.5 -10t-22.5 -22t-38.5 -29t-54 -26t-70.5 -18l-14 -91h-79l14 90q-92 9 -142.5 66t-50.5 151q0 113 72.5 192t199.5 91l14 90h79l-14 -89q72 -6 113 -36t41 -79q0 -19 -6 -37t-12 -27l-6 -8q-58 -15 -159 -15l-12 15q23 37 23 84q0 44 -28 44
q-38 0 -59.5 -73t-21.5 -150q0 -68 22 -95t69 -27q31 0 62.5 9.5t47.5 18.5z" />
    <glyph glyph-name="sterling" unicode="&#xa3;" horiz-adv-x="604" 
d="M82 495q0 105 80.5 161t216.5 56q121 0 181.5 -45t60.5 -122q0 -25 -6.5 -46.5t-12.5 -30.5l-6 -9q-73 -15 -188 -15l-12 15q30 35 30 109q0 79 -49 79q-38 0 -59.5 -41.5t-21.5 -116.5q0 -36 16 -129h109l8 -10l-11 -70h-104q-6 -33 -23 -63.5t-35.5 -50t-40 -36
t-32.5 -23t-16 -8.5h203q49 0 91.5 10t60.5 20l19 10l13 -15l-20 -124h-534l9 55h1l6 6q7 6 14 13t18 18.5t21.5 24t21.5 27t20.5 31t17 33.5t12 35.5t4.5 36.5h-101l13 80h66q-1 2 -9 17.5t-10 20t-8 19t-8 24t-4 24.5t-2 30z" />
    <glyph glyph-name="currency" unicode="&#xa4;" 
d="M108 300q0 53 29 100l-87 88l57 57l87 -88q46 30 101 30t101 -30l87 88l57 -57l-88 -88q30 -46 30 -100q0 -55 -30 -101l88 -87l-57 -57l-87 87q-47 -29 -101 -29t-101 29l-87 -87l-57 57l87 87q-29 47 -29 101zM188 300q0 -44 31.5 -76t75.5 -32t76 32t32 76t-32 76
t-76 32t-75.5 -32t-31.5 -76z" />
    <glyph glyph-name="yen" unicode="&#xa5;" horiz-adv-x="697" 
d="M762 700l-286 -368l-3 -17h107l-13 -80h-106l-10 -60h106l-12 -80h-106l-15 -95h-208l15 95h-105l12 80h105l10 60h-105l13 80h104v1l-78 172q-24 54 -52.5 103t-44.5 71l-17 22l3 16h257l119 -260l201 260h109z" />
    <glyph glyph-name="brokenbar" unicode="&#xa6;" horiz-adv-x="192" 
d="M135 -150h-79v400h79v-400zM135 750v-400h-79v400h79z" />
    <glyph glyph-name="section" unicode="&#xa7;" horiz-adv-x="489" 
d="M250 606q0 -23 25 -43.5t60 -37.5t70.5 -36.5t60.5 -50t25 -68.5q0 -87 -110 -125q73 -46 73 -110q0 -65 -66 -106t-195 -41q-204 0 -204 103q0 16 4.5 30t9.5 20l5 6q63 15 164 15l12 -15q-19 -20 -19 -54q0 -45 45 -45q29 0 45.5 15.5t16.5 36.5q0 24 -25 42t-60 31.5
t-70.5 30t-60.5 47t-25 72.5q0 90 97 129q-57 36 -57 104q0 73 62 114.5t188 41.5q190 0 190 -101q0 -15 -4 -28t-8 -18l-4 -5q-61 -15 -162 -15l-12 15q15 15 15 49q0 43 -36 43q-23 0 -36.5 -13.5t-13.5 -32.5zM200 372q0 -40 91 -82q27 16 27 44q0 24 -24 40t-73 36
q-21 -14 -21 -38z" />
    <glyph glyph-name="dieresis" unicode="&#xa8;" horiz-adv-x="454" 
d="M94 616q0 40 27 66t68 26q32 0 51 -18.5t19 -50.5q0 -40 -26.5 -67t-67.5 -27q-34 0 -52.5 19t-18.5 52zM314 616q0 40 27.5 66t67.5 26q33 0 52 -18.5t19 -50.5q0 -40 -27 -67t-67 -27q-34 0 -53 19t-19 52z" />
    <glyph glyph-name="copyright" unicode="&#xa9;" horiz-adv-x="815" 
d="M45 350q0 150 106 256t256 106t256 -106t106 -256t-106 -256t-256 -106t-256 106t-106 256zM125 350q0 -117 82.5 -200t199.5 -83q118 0 200.5 83t82.5 200t-82.5 200t-200.5 83q-117 0 -199.5 -83t-82.5 -200zM446 494q-31 0 -54.5 -48t-23.5 -116q0 -51 17 -71.5
t56 -20.5q26 0 52 7.5t39 15.5l13 8l15 -17l-6 -9t-19 -20.5t-32.5 -25.5t-47.5 -20t-63 -9q-75 0 -119.5 43t-44.5 115q0 88 63.5 147t161.5 59q64 0 101 -26t37 -67q0 -14 -4.5 -26t-8.5 -17l-4 -4q-44 -9 -114 -9l-7 9q17 21 17 61q0 41 -24 41z" />
    <glyph glyph-name="ordfeminine" unicode="&#xaa;" horiz-adv-x="305" 
d="M347 681l-20 -131q-4 -22 -4 -43t1 -31l2 -9l-8 -8h-101q-1 2 -2.5 5.5t-3.5 12.5t-1 16l2 7l-2 3q-3 -6 -8.5 -14t-25.5 -22t-44 -14q-33 0 -51 25.5t-18 65.5q0 70 52 116t140 46q32 0 55 -6t30 -12zM180 539q0 -24 6 -24q2 0 5.5 5t8.5 13t9 15.5t7.5 14t4.5 7.5v1
l14 92q0 10 -7 10q-16 0 -32 -44.5t-16 -89.5z" />
    <glyph glyph-name="guillemotleft" unicode="&#xab;" horiz-adv-x="509" 
d="M300 483l9 -10l-11 -66l-121 -132l79 -132l-10 -66l-12 -10l-208 194l4 28zM510 483l9 -10l-11 -66l-122 -132l80 -132l-10 -66l-12 -10l-208 194l4 28z" />
    <glyph glyph-name="logicalnot" unicode="&#xac;" 
d="M95 335v80h400v-200h-79v120h-321z" />
    <glyph glyph-name="uni00AD" unicode="&#xad;" horiz-adv-x="320" 
d="M45 235v80h230v-80h-230z" />
    <glyph glyph-name="registered" unicode="&#xae;" horiz-adv-x="815" 
d="M45 350q0 150 106 256t256 106t256 -106t106 -256t-106 -256t-256 -106t-256 106t-106 256zM125 350q0 -117 82.5 -200t199.5 -83q118 0 200.5 83t82.5 200t-82.5 200t-200.5 83q-117 0 -199.5 -83t-82.5 -200zM233 175l55 350h151q70 0 108.5 -23.5t38.5 -68.5
q0 -65 -76 -94l22 -73q8 -24 18.5 -45t17.5 -31l7 -9l-6 -6h-136l-42 148h-10l-23 -148h-125zM412 478h-6l-17 -109h5q28 0 44.5 17.5t16.5 46.5q0 45 -43 45z" />
    <glyph glyph-name="macron" unicode="&#xaf;" horiz-adv-x="295" 
d="M52 580l13 80h294l-13 -80h-294z" />
    <glyph glyph-name="degree" unicode="&#xb0;" horiz-adv-x="320" 
d="M74 556q0 67 46 111.5t113 44.5q54 0 85 -31t31 -85q0 -67 -44.5 -111t-112.5 -44q-55 0 -86.5 31t-31.5 84zM161 567q0 -44 43 -44q25 0 42 17.5t17 43.5q0 21 -11.5 33t-31.5 12q-26 0 -42.5 -17.5t-16.5 -44.5z" />
    <glyph glyph-name="plusminus" unicode="&#xb1;" 
d="M95 310v80h160v160h80v-160h160v-80h-160v-160h-80v160h-160zM95 30v80h400v-80h-400z" />
    <glyph glyph-name="twosuperior" unicode="&#xb2;" horiz-adv-x="315" 
d="M361 625q0 -37 -28.5 -72t-69 -58t-66 -35t-36.5 -15h77q25 0 47 6t32 11l10 6l7 -8l-17 -110h-294l9 56l2 1l-1 -1q202 140 202 233q0 30 -18 30q-14 0 -24 -17.5t-10 -47.5l4 -26l-11 -9q-31 0 -58.5 2.5t-39.5 4.5l-12 2q-4 6 -4 22q0 47 43 77t122 30q134 0 134 -82z
" />
    <glyph glyph-name="threesuperior" unicode="&#xb3;" horiz-adv-x="330" 
d="M176 381q22 0 32.5 23t10.5 55q0 25 -8 35t-31 10h-16l-4 5l8 47h13q57 0 57 78q0 35 -16 35q-15 0 -25.5 -16.5t-10.5 -45.5l4 -25l-11 -9q-31 0 -58.5 2.5t-39.5 4.5l-12 2q-4 7 -4 22q0 45 43.5 74t123.5 29q132 0 132 -86q0 -67 -85 -90q71 -17 71 -76
q0 -54 -47.5 -83t-128.5 -29q-72 0 -106 23t-34 62q0 13 3.5 23.5t6.5 14.5l4 5q45 9 114 9l7 -9q-17 -18 -17 -54t24 -36z" />
    <glyph glyph-name="acute" unicode="&#xb4;" horiz-adv-x="326" 
d="M107 550l-8 10l99 189q48 0 85.5 -7.5t51.5 -14.5l14 -7l-1 -10l-185 -160h-56z" />
    <glyph glyph-name="paragraph" unicode="&#xb6;" horiz-adv-x="681" 
d="M224 -20l48 300q-96 0 -149.5 46t-53.5 135q0 108 75 173.5t194 65.5h149l-103 -651q-10 -62 -40 -117t-65.5 -89.5t-70 -60t-57.5 -36.5l-23 -11l-24 28l11 11t25 29.5t33.5 46.5t30 59.5t20.5 70.5zM436 0l111 700h149l-111 -700h-149z" />
    <glyph glyph-name="periodcentered" unicode="&#xb7;" horiz-adv-x="254" 
d="M31 285q0 51 33.5 84t84.5 33q42 0 65.5 -23t23.5 -63q0 -51 -33.5 -84t-84.5 -33q-42 0 -65.5 23t-23.5 63z" />
    <glyph glyph-name="cedilla" unicode="&#xb8;" horiz-adv-x="262" 
d="M33 -81l26 81h57l-17 -47q28 0 48.5 -18.5t20.5 -49.5q0 -38 -31 -66t-79 -28q-19 0 -35 5t-25.5 11.5t-16.5 13.5t-9 12l-3 5l27 23q10 -15 35 -15q19 0 31.5 10t12.5 26q0 27 -34 27z" />
    <glyph glyph-name="onesuperior" unicode="&#xb9;" horiz-adv-x="267" 
d="M114 350l41 260q-36 -10 -76 -10q-5 13 0 44l6 6q36 0 74 12.5t59 25.5l20 12h50l-55 -350h-119z" />
    <glyph glyph-name="ordmasculine" unicode="&#xba;" horiz-adv-x="303" 
d="M65 563q0 61 46 102t114 41q56 0 89 -30t33 -80q0 -61 -46 -102t-114 -41q-56 0 -89 30t-33 80zM183 522q0 -37 10 -37q14 0 24 54t10 98q0 37 -8 37q-14 0 -25 -54.5t-11 -97.5z" />
    <glyph glyph-name="guillemotright" unicode="&#xbb;" horiz-adv-x="509" 
d="M60 473l11 10l209 -194l-5 -28l-270 -194l-8 10l10 66l122 132l-80 132zM270 473l11 10l209 -194l-5 -28l-270 -194l-8 10l10 66l121 132l-79 132z" />
    <glyph glyph-name="onequarter" unicode="&#xbc;" horiz-adv-x="809" 
d="M254 -25h-91l432 750h91zM471 59l3 23l249 268h60l-39 -244h35l-8 -47h-35l-9 -59h-119l9 59h-146zM114 350l41 260q-36 -10 -76 -10q-5 13 0 44l6 6q36 0 74 12.5t59 25.5l20 12h50l-55 -350h-119zM554 106h71l14 90z" />
    <glyph glyph-name="onehalf" unicode="&#xbd;" horiz-adv-x="821" 
d="M489 56l2 1l-1 -1q202 140 202 233q0 30 -19 30q-14 0 -23.5 -17.5t-9.5 -47.5l4 -26l-11 -9q-31 0 -58.5 2.5t-39.5 4.5l-12 2q-4 6 -4 22q0 47 42.5 77t121.5 30q135 0 135 -82q0 -37 -28.5 -72t-69 -58t-66 -35t-36.5 -15h77q25 0 47 5.5t32 11.5l10 6l7 -8l-17 -110
h-294zM254 -25h-91l432 750h91zM114 350l41 260q-36 -10 -76 -10q-5 13 0 44l6 6q36 0 74 12.5t59 25.5l20 12h50l-55 -350h-119z" />
    <glyph glyph-name="threequarters" unicode="&#xbe;" horiz-adv-x="871" 
d="M176 381q22 0 32.5 23t10.5 55q0 25 -8 35t-31 10h-16l-4 5l8 47h13q57 0 57 78q0 35 -16 35q-15 0 -25.5 -16.5t-10.5 -45.5l4 -25l-11 -9q-31 0 -58.5 2.5t-39.5 4.5l-12 2q-4 7 -4 22q0 45 43.5 74t123.5 29q132 0 132 -86q0 -67 -85 -90q71 -17 71 -76
q0 -54 -47.5 -83t-128.5 -29q-72 0 -106 23t-34 62q0 13 3.5 23.5t6.5 14.5l4 5q45 9 114 9l7 -9q-17 -18 -17 -54t24 -36zM316 -25h-91l432 750h91zM533 59l3 23l250 268h59l-39 -244h35l-8 -47h-35l-9 -59h-119l9 59h-146zM617 106h70l14 89z" />
    <glyph glyph-name="questiondown" unicode="&#xbf;" horiz-adv-x="574" 
d="M422 391q-7 -46 -40 -74.5t-78 -28.5q-41 0 -64.5 23t-23.5 64q0 50 34 83.5t85 33.5q46 0 70 -27t17 -74zM-28 -48q7 44 33 83t52 62t64.5 44t51 26t32.5 12l2 1l14 60h149l-15 -140q-4 0 -10 -1.5t-24.5 -7t-35 -13t-37 -23t-35 -34.5t-24.5 -48.5t-10 -64.5
q0 -75 47 -75q34 0 57.5 35t23.5 95q0 15 -1.5 25.5t-3.5 13.5l-1 4l16 15q52 0 98 -3.5t67 -7.5l20 -4q6 -11 6 -38q0 -88 -77 -144t-218 -56q-126 0 -190 47.5t-51 136.5z" />
    <glyph glyph-name="Agrave" unicode="&#xc0;" horiz-adv-x="720" 
d="M160 171l-90 -171h-100l337 628l-26 57l3 15h227l159 -700h-214l-39 171h-257zM340 514l-139 -265h199zM502 760l-11 -10h-55l-135 160l2 10q52 30 160 30z" />
    <glyph glyph-name="Aacute" unicode="&#xc1;" horiz-adv-x="720" 
d="M160 171l-90 -171h-100l337 628l-26 57l3 15h227l159 -700h-214l-39 171h-257zM340 514l-139 -265h199zM365 750l-8 10l99 190q48 0 86 -7.5t52 -14.5l13 -8l-1 -10l-185 -160h-56z" />
    <glyph glyph-name="Acircumflex" unicode="&#xc2;" horiz-adv-x="720" 
d="M160 171l-90 -171h-100l337 628l-26 57l3 15h227l159 -700h-214l-39 171h-257zM607 760l-12 -10h-65l-90 76l-114 -76h-66l-8 10l184 190h47zM340 514l-139 -265h199z" />
    <glyph glyph-name="Atilde" unicode="&#xc3;" horiz-adv-x="720" 
d="M160 171l-90 -171h-100l337 628l-26 57l3 15h227l159 -700h-214l-39 171h-257zM406 882q26 0 53.5 -18.5t49.5 -18.5q21 0 42.5 10t32.5 20l11 10l23 -28q-2 -4 -6.5 -11.5t-19.5 -26.5t-31 -33.5t-40.5 -26.5t-49.5 -12q-26 0 -53.5 18.5t-49.5 18.5q-21 0 -42.5 -10
t-32.5 -20l-11 -10l-24 28q2 4 6.5 11.5t19.5 26.5t31.5 33.5t41 26.5t49.5 12zM340 514l-139 -265h199z" />
    <glyph glyph-name="Adieresis" unicode="&#xc4;" horiz-adv-x="720" 
d="M160 171l-90 -171h-100l337 628l-26 57l3 15h227l159 -700h-214l-39 171h-257zM340 514l-139 -265h199zM468 816q0 40 27.5 66t67.5 26q33 0 52 -18.5t19 -50.5q0 -40 -27 -67t-67 -27q-34 0 -53 19t-19 52zM247 816q0 40 27.5 66t68.5 26q32 0 51 -18.5t19 -50.5
q0 -40 -27 -67t-67 -27q-34 0 -53 19t-19 52z" />
    <glyph glyph-name="Aring" unicode="&#xc5;" horiz-adv-x="720" 
d="M160 171l-90 -171h-100l337 628l-26 57l3 15h227l159 -700h-214l-39 171h-257zM341 826q0 49 34 82.5t84 33.5q40 0 63 -23t23 -63q0 -49 -33.5 -82.5t-83.5 -33.5q-40 0 -63.5 23t-23.5 63zM340 514l-139 -265h199zM413 836q0 -26 26 -26q15 0 25 10t10 25q0 27 -26 27
q-16 0 -25.5 -10.5t-9.5 -25.5z" />
    <glyph glyph-name="AE" unicode="&#xc6;" horiz-adv-x="852" 
d="M-30 0l410 700h498l-17 -104l-17 -15q-6 4 -17 11t-52 18t-90 11h-91l-35 -221h196l9 -10l-11 -70h-206l-38 -241h101q49 0 91.5 10t60.5 20l19 10l13 -15l-17 -104h-489l31 195h-137l-112 -195h-100zM227 274h104l40 250z" />
    <glyph glyph-name="Ccedilla" unicode="&#xc7;" horiz-adv-x="713" 
d="M298 -81l22 71q-130 10 -205 92.5t-75 216.5q0 176 123 294.5t313 118.5q121 0 190 -51t69 -132q0 -27 -7.5 -49.5t-15.5 -31.5l-8 -9q-73 -15 -189 -15l-12 15q31 40 31 113q0 95 -71 95q-78 0 -133.5 -99t-55.5 -241q0 -108 38.5 -154.5t122.5 -46.5q53 0 106 16t79 32
l26 17l25 -30q-4 -6 -11 -15.5t-33.5 -34.5t-57.5 -45t-83 -37t-109 -20l-12 -36q28 0 48 -18.5t20 -49.5q0 -38 -31 -66t-79 -28q-19 0 -35 5t-25.5 11.5t-16.5 13.5t-10 12l-2 5l27 23q10 -15 35 -15q19 0 31.5 10t12.5 26q0 27 -34 27z" />
    <glyph glyph-name="Egrave" unicode="&#xc8;" 
d="M16 0l111 700h488l-17 -104l-16 -15q-6 4 -17 11t-52 18t-90 11h-101l-35 -221h206l8 -10l-10 -70h-216l-38 -241h111q48 0 90.5 10t61.5 20l18 10l13 -15l-17 -104h-498zM467 760l-11 -10h-55l-134 160l2 10q51 30 159 30z" />
    <glyph glyph-name="Eacute" unicode="&#xc9;" 
d="M16 0l111 700h488l-17 -104l-16 -15q-6 4 -17 11t-52 18t-90 11h-101l-35 -221h206l8 -10l-10 -70h-216l-38 -241h111q48 0 90.5 10t61.5 20l18 10l13 -15l-17 -104h-498zM310 750l-7 10l99 190q48 0 85.5 -7.5t50.5 -14.5l14 -8l-1 -10l-185 -160h-56z" />
    <glyph glyph-name="Ecircumflex" unicode="&#xca;" 
d="M16 0l111 700h488l-17 -104l-16 -15q-6 4 -17 11t-52 18t-90 11h-101l-35 -221h206l8 -10l-10 -70h-216l-38 -241h111q48 0 90.5 10t61.5 20l18 10l13 -15l-17 -104h-498zM562 760l-12 -10h-65l-90 76l-114 -76h-65l-8 10l183 190h48z" />
    <glyph glyph-name="Edieresis" unicode="&#xcb;" 
d="M16 0l111 700h488l-17 -104l-16 -15q-6 4 -17 11t-52 18t-90 11h-101l-35 -221h206l8 -10l-10 -70h-216l-38 -241h111q48 0 90.5 10t61.5 20l18 10l13 -15l-17 -104h-498zM422 816q0 40 27.5 66t68.5 26q32 0 51 -18.5t19 -50.5q0 -40 -27 -67t-67 -27q-34 0 -53 19
t-19 52zM202 816q0 40 27 66t68 26q33 0 51.5 -18.5t18.5 -50.5q0 -40 -26.5 -67t-67.5 -27q-34 0 -52.5 19t-18.5 52z" />
    <glyph glyph-name="Igrave" unicode="&#xcc;" horiz-adv-x="319" 
d="M16 0l111 700h208l-111 -700h-208zM312 760l-11 -10h-55l-135 160l2 10q52 30 160 30z" />
    <glyph glyph-name="Iacute" unicode="&#xcd;" horiz-adv-x="319" 
d="M16 0l111 700h208l-111 -700h-208zM175 750l-8 10l99 190q48 0 86 -7.5t52 -14.5l13 -8l-1 -10l-185 -160h-56z" />
    <glyph glyph-name="Icircumflex" unicode="&#xce;" horiz-adv-x="319" 
d="M16 0l111 700h208l-111 -700h-208zM417 760l-12 -10h-66l-89 76l-114 -76h-66l-8 10l184 190h47z" />
    <glyph glyph-name="Idieresis" unicode="&#xcf;" horiz-adv-x="319" 
d="M16 0l111 700h208l-111 -700h-208zM58 816q0 40 27.5 66t68.5 26q32 0 51 -18.5t19 -50.5q0 -40 -27 -67t-67 -27q-34 0 -53 19t-19 52zM279 816q0 40 27.5 66t67.5 26q33 0 52 -18.5t19 -50.5q0 -40 -27 -67t-68 -27q-33 0 -52 19t-19 52z" />
    <glyph glyph-name="Eth" unicode="&#xd0;" horiz-adv-x="766" 
d="M15 315l13 80h50l49 305h311q147 0 233 -82t86 -221q0 -170 -123 -283.5t-307 -113.5h-311l50 315h-51zM415 621h-93l-36 -226h116l-13 -80h-115l-38 -236h94q87 0 142.5 95t55.5 246q0 201 -113 201z" />
    <glyph glyph-name="Ntilde" unicode="&#xd1;" horiz-adv-x="700" 
d="M16 0l67 420q13 80 14.5 146t-3.5 92l-5 27l18 15h69l379 -381l61 381h99l-111 -700h-59l-380 379l-60 -379h-89zM406 882q26 0 54 -18.5t50 -18.5q21 0 42.5 10t32.5 20l11 10l22 -28q-2 -4 -6.5 -11.5t-19.5 -26.5t-31 -33.5t-40.5 -26.5t-49.5 -12q-26 0 -53.5 18.5
t-49.5 18.5q-21 0 -42 -10t-32 -20l-11 -10l-24 28q2 4 6.5 11.5t19.5 26.5t31 33.5t40.5 26.5t49.5 12z" />
    <glyph glyph-name="Ograve" unicode="&#xd2;" horiz-adv-x="799" 
d="M40 298q0 176 123.5 295t306.5 119q149 0 234.5 -83.5t85.5 -226.5q0 -176 -123.5 -295t-305.5 -119q-149 0 -235 83.5t-86 226.5zM267 259q0 -206 103 -206q83 0 138 111t55 277q0 206 -103 206q-83 0 -138 -111t-55 -277zM552 760l-11 -10h-55l-135 160l2 10
q52 30 160 30z" />
    <glyph glyph-name="Oacute" unicode="&#xd3;" horiz-adv-x="799" 
d="M40 298q0 176 123.5 295t306.5 119q149 0 234.5 -83.5t85.5 -226.5q0 -176 -123.5 -295t-305.5 -119q-149 0 -235 83.5t-86 226.5zM267 259q0 -206 103 -206q83 0 138 111t55 277q0 206 -103 206q-83 0 -138 -111t-55 -277zM415 750l-8 10l99 190q48 0 86 -7.5t52 -14.5
l13 -8l-1 -10l-185 -160h-56z" />
    <glyph glyph-name="Ocircumflex" unicode="&#xd4;" horiz-adv-x="799" 
d="M40 298q0 176 123.5 295t306.5 119q149 0 234.5 -83.5t85.5 -226.5q0 -176 -123.5 -295t-305.5 -119q-149 0 -235 83.5t-86 226.5zM267 259q0 -206 103 -206q83 0 138 111t55 277q0 206 -103 206q-83 0 -138 -111t-55 -277zM657 760l-12 -10h-65l-90 76l-114 -76h-66
l-8 10l184 190h47z" />
    <glyph glyph-name="Otilde" unicode="&#xd5;" horiz-adv-x="799" 
d="M40 298q0 176 123.5 295t306.5 119q149 0 234.5 -83.5t85.5 -226.5q0 -176 -123.5 -295t-305.5 -119q-149 0 -235 83.5t-86 226.5zM267 259q0 -206 103 -206q83 0 138 111t55 277q0 206 -103 206q-83 0 -138 -111t-55 -277zM456 882q26 0 53.5 -18.5t49.5 -18.5
q21 0 42.5 10t32.5 20l11 10l23 -28q-2 -4 -6.5 -11.5t-19.5 -26.5t-31 -33.5t-40.5 -26.5t-49.5 -12q-26 0 -53.5 18.5t-49.5 18.5q-21 0 -42.5 -10t-32.5 -20l-11 -10l-24 28q2 4 6.5 11.5t19.5 26.5t31.5 33.5t41 26.5t49.5 12z" />
    <glyph glyph-name="Odieresis" unicode="&#xd6;" horiz-adv-x="799" 
d="M40 298q0 176 123.5 295t306.5 119q149 0 234.5 -83.5t85.5 -226.5q0 -176 -123.5 -295t-305.5 -119q-149 0 -235 83.5t-86 226.5zM267 259q0 -206 103 -206q83 0 138 111t55 277q0 206 -103 206q-83 0 -138 -111t-55 -277zM296 816q0 40 27.5 66t68.5 26q32 0 51 -18.5
t19 -50.5q0 -40 -27 -67t-67 -27q-34 0 -53 19t-19 52zM517 816q0 40 27.5 66t67.5 26q33 0 52 -18.5t19 -50.5q0 -40 -27 -67t-67 -27q-34 0 -53 19t-19 52z" />
    <glyph glyph-name="multiply" unicode="&#xd7;" 
d="M147 120l-57 57l148 148l-148 148l57 57l148 -148l148 148l57 -57l-148 -148l148 -148l-57 -57l-148 148z" />
    <glyph glyph-name="Oslash" unicode="&#xd8;" horiz-adv-x="799" 
d="M186 -25h-92l55 76q-109 83 -109 247q0 176 123.5 295t306.5 119q83 0 146 -27l29 40h91l-56 -76q110 -84 110 -247q0 -176 -123.5 -295t-305.5 -119q-81 0 -147 26zM263 261q0 -37 2 -53l279 379q-26 60 -84 60q-84 0 -140.5 -110t-56.5 -276zM566 439q0 20 -2 52
l-278 -380q26 -58 84 -58q84 0 140 110t56 276z" />
    <glyph glyph-name="Ugrave" unicode="&#xd9;" horiz-adv-x="706" 
d="M561 251l71 449h89l-71 -446q-19 -122 -108.5 -194t-230.5 -72q-142 0 -208.5 72t-47.5 194l71 446h209l-76 -480q-11 -69 22 -109t97 -40q70 0 119.5 47t63.5 133zM515 760l-11 -10h-55l-135 160l2 10q52 30 160 30z" />
    <glyph glyph-name="Uacute" unicode="&#xda;" horiz-adv-x="706" 
d="M561 251l71 449h89l-71 -446q-19 -122 -108.5 -194t-230.5 -72q-142 0 -208.5 72t-47.5 194l71 446h209l-76 -480q-11 -69 22 -109t97 -40q70 0 119.5 47t63.5 133zM378 750l-8 10l99 190q48 0 86 -7.5t51 -14.5l14 -8l-1 -10l-185 -160h-56z" />
    <glyph glyph-name="Ucircumflex" unicode="&#xdb;" horiz-adv-x="706" 
d="M561 251l71 449h89l-71 -446q-19 -122 -108.5 -194t-230.5 -72q-142 0 -208.5 72t-47.5 194l71 446h209l-76 -480q-11 -69 22 -109t97 -40q70 0 119.5 47t63.5 133zM620 760l-12 -10h-65l-90 76l-114 -76h-66l-7 10l183 190h47z" />
    <glyph glyph-name="Udieresis" unicode="&#xdc;" horiz-adv-x="706" 
d="M561 251l71 449h89l-71 -446q-19 -122 -108.5 -194t-230.5 -72q-142 0 -208.5 72t-47.5 194l71 446h209l-76 -480q-11 -69 22 -109t97 -40q70 0 119.5 47t63.5 133zM260 816q0 40 27 66t68 26q32 0 51 -18.5t19 -50.5q0 -40 -26.5 -67t-67.5 -27q-34 0 -52.5 19t-18.5 52
zM480 816q0 40 27.5 66t67.5 26q33 0 52 -18.5t19 -50.5q0 -40 -27 -67t-67 -27q-34 0 -53 19t-19 52z" />
    <glyph glyph-name="Yacute" unicode="&#xdd;" horiz-adv-x="697" 
d="M762 700l-286 -369l-52 -331h-208l49 316l-78 172q-24 54 -52.5 103t-44.5 71l-17 22l3 16h257l119 -260l201 260h109zM365 750l-8 10l99 190q48 0 86 -7.5t52 -14.5l13 -8l-1 -10l-186 -160h-55z" />
    <glyph glyph-name="Thorn" unicode="&#xde;" horiz-adv-x="664" 
d="M16 0l111 700h208l-21 -130h74q129 0 200 -48t71 -139q0 -107 -92.5 -170t-244.5 -63h-74l-24 -150h-208zM343 490h-42l-41 -260h41q64 0 102 41.5t38 111.5q0 107 -98 107z" />
    <glyph glyph-name="germandbls" unicode="&#xdf;" horiz-adv-x="667" 
d="M3 -20l88 556q18 113 89.5 171t214.5 58q112 0 164.5 -36t52.5 -111q0 -32 -9 -61.5t-22 -48.5t-26.5 -34t-22.5 -22l-9 -7q-59 0 -59 -49q0 -9 2.5 -17t6 -13.5t12 -14.5t15 -14t21.5 -18t25 -21q51 -43 70.5 -72.5t19.5 -72.5q0 -78 -57 -121.5t-166 -43.5
q-40 0 -72.5 6t-50.5 15t-30.5 17.5t-16.5 14.5l-4 6q6 37 25 68.5t34 44.5l16 13h15l5 -12.5t13 -27.5t21 -35.5t27 -28t31 -12.5t25.5 10t10.5 25q0 16 -16 30.5t-77 58.5q-35 26 -55.5 57t-20.5 82q0 33 10 63t23.5 49t27.5 33.5t24 20.5l10 6q5 4 12.5 13t20 39.5
t12.5 66.5q0 77 -55 77q-66 0 -87 -136l-79 -503q-10 -62 -45 -117t-78 -89.5t-84.5 -60t-69.5 -36.5l-28 -11l-24 28l11 11t25 29.5t33.5 46.5t30 59.5t20.5 70.5z" />
    <glyph glyph-name="agrave" unicode="&#xe0;" horiz-adv-x="585" 
d="M564 441l-42 -261q-7 -44 -7.5 -85.5t3.5 -60.5l3 -19l-15 -15h-183q-2 4 -5 11.5t-6.5 28t-0.5 37.5l4 23l-4 5q-2 -5 -6.5 -13t-20 -28t-33 -35.5t-46 -28t-59.5 -12.5q-64 0 -99.5 50t-35.5 131q0 139 102 231t272 92q61 0 106 -13t59 -25zM225 160q0 -59 16 -59
q12 0 35.5 33.5t40.5 67.5l17 33l27 174q-3 21 -24 21q-40 0 -76 -87.5t-36 -182.5zM432 560l-11 -10h-55l-135 160l2 10q52 29 160 29z" />
    <glyph glyph-name="aacute" unicode="&#xe1;" horiz-adv-x="585" 
d="M564 441l-42 -261q-7 -44 -7.5 -85.5t3.5 -60.5l3 -19l-15 -15h-183q-2 4 -5 11.5t-6.5 28t-0.5 37.5l4 23l-4 5q-2 -5 -6.5 -13t-20 -28t-33 -35.5t-46 -28t-59.5 -12.5q-64 0 -99.5 50t-35.5 131q0 139 102 231t272 92q61 0 106 -13t59 -25zM225 160q0 -59 16 -59
q12 0 35.5 33.5t40.5 67.5l17 33l27 174q-3 21 -24 21q-40 0 -76 -87.5t-36 -182.5zM275 550l-8 10l99 189q48 0 86 -7.5t52 -14.5l13 -7l-1 -10l-185 -160h-56z" />
    <glyph glyph-name="acircumflex" unicode="&#xe2;" horiz-adv-x="585" 
d="M564 441l-42 -261q-7 -44 -7.5 -85.5t3.5 -60.5l3 -19l-15 -15h-183q-2 4 -5 11.5t-6.5 28t-0.5 37.5l4 23l-4 5q-2 -5 -6.5 -13t-20 -28t-33 -35.5t-46 -28t-59.5 -12.5q-64 0 -99.5 50t-35.5 131q0 139 102 231t272 92q61 0 106 -13t59 -25zM540 560l-12 -10h-65
l-90 76l-114 -76h-66l-7 10l183 189h47zM225 160q0 -59 16 -59q12 0 35.5 33.5t40.5 67.5l17 33l27 174q-3 21 -24 21q-40 0 -76 -87.5t-36 -182.5z" />
    <glyph glyph-name="atilde" unicode="&#xe3;" horiz-adv-x="585" 
d="M564 441l-42 -261q-7 -44 -7.5 -85.5t3.5 -60.5l3 -19l-15 -15h-183q-2 4 -5 11.5t-6.5 28t-0.5 37.5l4 23l-4 5q-2 -5 -6.5 -13t-20 -28t-33 -35.5t-46 -28t-59.5 -12.5q-64 0 -99.5 50t-35.5 131q0 139 102 231t272 92q61 0 106 -13t59 -25zM330 682q26 0 54 -18.5
t49 -18.5t42.5 10t32.5 20l11 10l23 -28q-2 -4 -6.5 -11.5t-19.5 -26.5t-31 -33.5t-40.5 -26.5t-49.5 -12q-26 0 -53.5 18.5t-49.5 18.5q-21 0 -42.5 -10t-32.5 -20l-11 -10l-24 28q2 4 6.5 11.5t19.5 26.5t31.5 33.5t41 26.5t49.5 12zM225 160q0 -59 16 -59q12 0 35.5 33.5
t40.5 67.5l17 33l27 174q-3 21 -24 21q-40 0 -76 -87.5t-36 -182.5z" />
    <glyph glyph-name="adieresis" unicode="&#xe4;" horiz-adv-x="585" 
d="M564 441l-42 -261q-7 -44 -7.5 -85.5t3.5 -60.5l3 -19l-15 -15h-183q-2 4 -5 11.5t-6.5 28t-0.5 37.5l4 23l-4 5q-2 -5 -6.5 -13t-20 -28t-33 -35.5t-46 -28t-59.5 -12.5q-64 0 -99.5 50t-35.5 131q0 139 102 231t272 92q61 0 106 -13t59 -25zM225 160q0 -59 16 -59
q12 0 35.5 33.5t40.5 67.5l17 33l27 174q-3 21 -24 21q-40 0 -76 -87.5t-36 -182.5zM390 616q0 40 27.5 66t67.5 26q33 0 52 -18.5t19 -50.5q0 -40 -27 -67t-67 -27q-34 0 -53 19t-19 52zM170 616q0 40 27 66t68 26q33 0 51.5 -18.5t18.5 -50.5q0 -40 -26.5 -67t-67.5 -27
q-34 0 -52.5 19t-18.5 52z" />
    <glyph glyph-name="aring" unicode="&#xe5;" horiz-adv-x="585" 
d="M564 441l-42 -261q-7 -44 -7.5 -85.5t3.5 -60.5l3 -19l-15 -15h-183q-2 4 -5 11.5t-6.5 28t-0.5 37.5l4 23l-4 5q-2 -5 -6.5 -13t-20 -28t-33 -35.5t-46 -28t-59.5 -12.5q-64 0 -99.5 50t-35.5 131q0 139 102 231t272 92q61 0 106 -13t59 -25zM260 626q0 49 34 82.5
t84 33.5q40 0 63 -23t23 -63q0 -50 -33.5 -83t-83.5 -33q-40 0 -63.5 23t-23.5 63zM225 160q0 -59 16 -59q12 0 35.5 33.5t40.5 67.5l17 33l27 174q-3 21 -24 21q-40 0 -76 -87.5t-36 -182.5zM332 636q0 -26 26 -26q15 0 25 10t10 25q0 27 -26 27q-16 0 -25.5 -10.5
t-9.5 -25.5z" />
    <glyph glyph-name="ae" unicode="&#xe6;" horiz-adv-x="805" 
d="M748 124l24 -28q-3 -4 -9 -11.5t-27.5 -26t-46.5 -33t-66.5 -26t-87.5 -11.5q-126 0 -188 77q-92 -77 -214 -77q-134 0 -134 107q0 60 53.5 103t200.5 65l56 8l3 12l17 104q8 45 -31 45q-56 0 -56 -79l4 -38l-17 -15q-45 0 -84.5 4t-56.5 8l-18 3q-7 15 -7 38
q0 65 66.5 102t175.5 37q106 0 149 -40q75 40 175 40q87 0 131 -31t44 -80q0 -67 -76.5 -116t-201.5 -56q1 -68 23.5 -95t71.5 -27q32 0 63.5 9.5t47.5 18.5zM607 432q-27 0 -49 -46t-29 -115q103 17 103 115q0 46 -25 46zM210 135q0 -43 40 -43q33 0 66 27q-14 40 -14 87
l-37 -6q-26 -4 -40.5 -22.5t-14.5 -42.5z" />
    <glyph glyph-name="ccedilla" unicode="&#xe7;" horiz-adv-x="509" 
d="M188 -81l22 71q-94 8 -145 65t-51 152q0 124 84 204.5t230 80.5q87 0 138 -30.5t51 -85.5q0 -19 -6 -37t-12 -27l-6 -8q-58 -15 -159 -15l-12 15q23 37 23 84q0 44 -28 44q-37 0 -58 -72.5t-21 -150.5q0 -68 22 -95t69 -27q31 0 62.5 9.5t47.5 18.5l16 9l24 -28
q-3 -4 -8 -10.5t-24.5 -23.5t-42 -31t-59.5 -26.5t-78 -15.5l-12 -36q28 0 48 -18.5t20 -49.5q0 -38 -31 -66t-79 -28q-19 0 -35 5t-25.5 11.5t-16.5 13.5t-10 12l-2 5l27 23q10 -15 35 -15q19 0 31.5 10t12.5 26q0 27 -34 27z" />
    <glyph glyph-name="egrave" unicode="&#xe8;" horiz-adv-x="518" 
d="M456 124l24 -28q-3 -4 -9 -11.5t-27.5 -26t-46.5 -33t-66.5 -26t-87.5 -11.5q-107 0 -167.5 58.5t-60.5 158.5q0 127 92 207t235 80q87 0 131 -31t44 -80q0 -67 -76.5 -116t-201.5 -56q1 -69 21 -95.5t69 -26.5q32 0 63.5 9.5t47.5 18.5zM399 560l-11 -10h-55l-135 160
l2 10q52 29 160 29zM320 432q-26 0 -48.5 -45.5t-29.5 -115.5q103 17 103 115q0 46 -25 46z" />
    <glyph glyph-name="eacute" unicode="&#xe9;" horiz-adv-x="518" 
d="M456 124l24 -28q-3 -4 -9 -11.5t-27.5 -26t-46.5 -33t-66.5 -26t-87.5 -11.5q-107 0 -167.5 58.5t-60.5 158.5q0 127 92 207t235 80q87 0 131 -31t44 -80q0 -67 -76.5 -116t-201.5 -56q1 -69 21 -95.5t69 -26.5q32 0 63.5 9.5t47.5 18.5zM242 550l-8 10l99 189
q48 0 85.5 -7.5t51.5 -14.5l14 -7l-1 -10l-185 -160h-56zM320 432q-26 0 -48.5 -45.5t-29.5 -115.5q103 17 103 115q0 46 -25 46z" />
    <glyph glyph-name="ecircumflex" unicode="&#xea;" horiz-adv-x="518" 
d="M456 124l24 -28q-3 -4 -9 -11.5t-27.5 -26t-46.5 -33t-66.5 -26t-87.5 -11.5q-107 0 -167.5 58.5t-60.5 158.5q0 127 92 207t235 80q87 0 131 -31t44 -80q0 -67 -76.5 -116t-201.5 -56q1 -69 21 -95.5t69 -26.5q32 0 63.5 9.5t47.5 18.5zM506 560l-12 -10h-65l-90 76
l-114 -76h-66l-7 10l183 189h47zM320 432q-26 0 -48.5 -45.5t-29.5 -115.5q103 17 103 115q0 46 -25 46z" />
    <glyph glyph-name="edieresis" unicode="&#xeb;" horiz-adv-x="518" 
d="M456 124l24 -28q-3 -4 -9 -11.5t-27.5 -26t-46.5 -33t-66.5 -26t-87.5 -11.5q-107 0 -167.5 58.5t-60.5 158.5q0 127 92 207t235 80q87 0 131 -31t44 -80q0 -67 -76.5 -116t-201.5 -56q1 -69 21 -95.5t69 -26.5q32 0 63.5 9.5t47.5 18.5zM356 616q0 40 27.5 66t67.5 26
q33 0 52 -18.5t19 -50.5q0 -40 -27 -67t-67 -27q-34 0 -53 19t-19 52zM136 616q0 40 27 66t68 26q33 0 51.5 -18.5t18.5 -50.5q0 -40 -26.5 -67t-67.5 -27q-34 0 -52.5 19t-18.5 52zM320 432q-26 0 -48.5 -45.5t-29.5 -115.5q103 17 103 115q0 46 -25 46z" />
    <glyph glyph-name="igrave" unicode="&#xec;" horiz-adv-x="294" 
d="M268 560l-11 -10h-55l-135 160l2 10q52 29 160 29zM11 0l48 300q7 44 12 85.5t6 60.5l1 19l14 15h184q-3 -80 -19 -180l-48 -300h-198z" />
    <glyph glyph-name="iacute" unicode="&#xed;" horiz-adv-x="294" 
d="M110 550l-8 10l99 189q48 0 85.5 -7.5t51.5 -14.5l14 -7l-1 -10l-185 -160h-56zM11 0l48 300q7 44 12 85.5t6 60.5l1 19l14 15h184q-3 -80 -19 -180l-48 -300h-198z" />
    <glyph glyph-name="icircumflex" unicode="&#xee;" horiz-adv-x="294" 
d="M11 0l48 300q7 44 12 85.5t6 60.5l1 19l14 15h184q-3 -80 -19 -180l-48 -300h-198zM375 560l-12 -10h-66l-89 76l-114 -76h-66l-8 10l184 189h47z" />
    <glyph glyph-name="idieresis" unicode="&#xef;" horiz-adv-x="294" 
d="M4 616q0 40 27.5 66t68.5 26q32 0 51 -18.5t19 -50.5q0 -40 -27 -67t-67 -27q-34 0 -53 19t-19 52zM225 616q0 40 27.5 66t67.5 26q33 0 52 -18.5t19 -50.5q0 -40 -27 -67t-68 -27q-33 0 -52 19t-19 52zM11 0l48 300q7 44 12 85.5t6 60.5l1 19l14 15h184q-3 -80 -19 -180
l-48 -300h-198z" />
    <glyph glyph-name="eth" unicode="&#xf0;" horiz-adv-x="580" 
d="M272 527l-47 57l60 52q-23 27 -50 47t-43 26l-15 6l54 47q63 -13 134 -57l66 57l48 -57l-52 -45q163 -142 133 -394q-3 -119 -92 -198.5t-218 -79.5q-109 0 -172.5 59t-63.5 159q0 122 90 204t222 82q11 0 33 -2q-11 47 -32 85zM229 134q0 -86 32 -86q35 0 60 105t25 193
q0 86 -31 86q-35 0 -60.5 -105t-25.5 -193z" />
    <glyph glyph-name="ntilde" unicode="&#xf1;" horiz-adv-x="580" 
d="M296 0l57 356q4 23 -11 23q-16 0 -40 -33.5t-40 -67.5l-15 -33l-38 -245h-198l48 300q7 44 7.5 85.5t-2.5 60.5l-4 19l15 15h183q2 -4 5 -11.5t6.5 -28t0.5 -37.5l-5 -23l4 -5q2 5 6 13t19 28t33.5 35.5t52 28t71.5 12.5q64 0 87 -33.5t12 -102.5l-56 -356h-198zM308 682
q26 0 54 -18.5t50 -18.5q20 0 41.5 10t32.5 20l11 10l23 -28q-2 -4 -6.5 -11.5t-19.5 -26.5t-31 -33.5t-40.5 -26.5t-49.5 -12q-26 0 -53.5 18.5t-49.5 18.5q-21 0 -42.5 -10t-32.5 -20l-11 -10l-23 28q2 4 6.5 11.5t19.5 26.5t31 33.5t40.5 26.5t49.5 12z" />
    <glyph glyph-name="ograve" unicode="&#xf2;" horiz-adv-x="579" 
d="M14 206q0 122 90 204t222 82q108 0 171.5 -59t63.5 -159q0 -122 -89.5 -204t-221.5 -82q-109 0 -172.5 59t-63.5 159zM229 134q0 -86 32 -86q35 0 60 105t25 193q0 86 -31 86q-35 0 -60.5 -105t-25.5 -193zM410 560l-11 -10h-55l-135 160l2 10q52 29 160 29z" />
    <glyph glyph-name="oacute" unicode="&#xf3;" horiz-adv-x="579" 
d="M14 206q0 122 90 204t222 82q108 0 171.5 -59t63.5 -159q0 -122 -89.5 -204t-221.5 -82q-109 0 -172.5 59t-63.5 159zM229 134q0 -86 32 -86q35 0 60 105t25 193q0 86 -31 86q-35 0 -60.5 -105t-25.5 -193zM252 550l-8 10l99 189q48 0 85.5 -7.5t51.5 -14.5l14 -7l-1 -10
l-185 -160h-56z" />
    <glyph glyph-name="ocircumflex" unicode="&#xf4;" horiz-adv-x="579" 
d="M14 206q0 122 90 204t222 82q108 0 171.5 -59t63.5 -159q0 -122 -89.5 -204t-221.5 -82q-109 0 -172.5 59t-63.5 159zM229 134q0 -86 32 -86q35 0 60 105t25 193q0 86 -31 86q-35 0 -60.5 -105t-25.5 -193zM517 560l-12 -10h-65l-90 76l-114 -76h-66l-7 10l183 189h47z
" />
    <glyph glyph-name="otilde" unicode="&#xf5;" horiz-adv-x="579" 
d="M14 206q0 122 90 204t222 82q108 0 171.5 -59t63.5 -159q0 -122 -89.5 -204t-221.5 -82q-109 0 -172.5 59t-63.5 159zM229 134q0 -86 32 -86q35 0 60 105t25 193q0 86 -31 86q-35 0 -60.5 -105t-25.5 -193zM308 682q26 0 54 -18.5t49 -18.5t42.5 10t32.5 20l11 10l23 -28
q-2 -4 -6.5 -11.5t-19.5 -26.5t-31 -33.5t-40.5 -26.5t-49.5 -12q-26 0 -53.5 18.5t-49.5 18.5q-21 0 -42.5 -10t-32.5 -20l-11 -10l-24 28q2 4 6.5 11.5t19.5 26.5t31.5 33.5t41 26.5t49.5 12z" />
    <glyph glyph-name="odieresis" unicode="&#xf6;" horiz-adv-x="579" 
d="M14 206q0 122 90 204t222 82q108 0 171.5 -59t63.5 -159q0 -122 -89.5 -204t-221.5 -82q-109 0 -172.5 59t-63.5 159zM229 134q0 -86 32 -86q35 0 60 105t25 193q0 86 -31 86q-35 0 -60.5 -105t-25.5 -193zM147 616q0 40 27 66t68 26q32 0 51 -18.5t19 -50.5
q0 -40 -26.5 -67t-67.5 -27q-34 0 -52.5 19t-18.5 52zM367 616q0 40 27.5 66t67.5 26q33 0 52 -18.5t19 -50.5q0 -40 -27 -67t-67 -27q-34 0 -53 19t-19 52z" />
    <glyph glyph-name="divide" unicode="&#xf7;" 
d="M75 285v80h440v-80h-440zM213 162q0 37 22 59t59 22q38 0 59.5 -21.5t21.5 -59.5q0 -37 -22 -59t-59 -22t-59 22t-22 59zM214 487q0 37 21.5 59t58.5 22t59 -22t22 -59t-22 -58.5t-59 -21.5t-58.5 21.5t-21.5 58.5z" />
    <glyph glyph-name="oslash" unicode="&#xf8;" horiz-adv-x="579" 
d="M43 -1l38 44q-67 59 -67 163q0 122 90 204t222 82q70 0 119 -24l30 34l50 -31l-30 -36q66 -60 66 -161q0 -122 -89.5 -204t-221.5 -82q-68 0 -119 23l-37 -43zM315 432q-30 0 -53 -64.5t-32 -151.5l119 140q-3 76 -34 76zM260 48q30 0 53 64t32 149l-119 -139
q4 -74 34 -74z" />
    <glyph glyph-name="ugrave" unicode="&#xf9;" horiz-adv-x="585" 
d="M92 480h184q-3 -80 -19 -180l-28 -176q-4 -23 10 -23q16 0 40 33.5t40 67.5l16 33l36 230l15 15h185l-48 -300q-7 -44 -7.5 -85.5t2.5 -60.5l4 -19l-15 -15h-183q-2 4 -5 11.5t-6.5 28t-0.5 37.5l4 23l-4 5q-2 -5 -6 -13t-19.5 -28t-34 -35.5t-51.5 -28t-71 -12.5
q-63 0 -86 33.5t-12 102.5l28 176q7 44 11.5 85.5t5.5 60.5l1 19zM412 560l-11 -10h-55l-135 160l2 10q52 29 160 29z" />
    <glyph glyph-name="uacute" unicode="&#xfa;" horiz-adv-x="585" 
d="M92 480h184q-3 -80 -19 -180l-28 -176q-4 -23 10 -23q16 0 40 33.5t40 67.5l16 33l36 230l15 15h185l-48 -300q-7 -44 -7.5 -85.5t2.5 -60.5l4 -19l-15 -15h-183q-2 4 -5 11.5t-6.5 28t-0.5 37.5l4 23l-4 5q-2 -5 -6 -13t-19.5 -28t-34 -35.5t-51.5 -28t-71 -12.5
q-63 0 -86 33.5t-12 102.5l28 176q7 44 11.5 85.5t5.5 60.5l1 19zM255 550l-8 10l100 189q48 0 85.5 -7.5t51.5 -14.5l13 -7l-1 -10l-185 -160h-56z" />
    <glyph glyph-name="ucircumflex" unicode="&#xfb;" horiz-adv-x="585" 
d="M92 480h184q-3 -80 -19 -180l-28 -176q-4 -23 10 -23q16 0 40 33.5t40 67.5l16 33l36 230l15 15h185l-48 -300q-7 -44 -7.5 -85.5t2.5 -60.5l4 -19l-15 -15h-183q-2 4 -5 11.5t-6.5 28t-0.5 37.5l4 23l-4 5q-2 -5 -6 -13t-19.5 -28t-34 -35.5t-51.5 -28t-71 -12.5
q-63 0 -86 33.5t-12 102.5l28 176q7 44 11.5 85.5t5.5 60.5l1 19zM520 560l-12 -10h-65l-90 76l-114 -76h-65l-8 10l183 189h48z" />
    <glyph glyph-name="udieresis" unicode="&#xfc;" horiz-adv-x="585" 
d="M92 480h184q-3 -80 -19 -180l-28 -176q-4 -23 10 -23q16 0 40 33.5t40 67.5l16 33l36 230l15 15h185l-48 -300q-7 -44 -7.5 -85.5t2.5 -60.5l4 -19l-15 -15h-183q-2 4 -5 11.5t-6.5 28t-0.5 37.5l4 23l-4 5q-2 -5 -6 -13t-19.5 -28t-34 -35.5t-51.5 -28t-71 -12.5
q-63 0 -86 33.5t-12 102.5l28 176q7 44 11.5 85.5t5.5 60.5l1 19zM370 616q0 40 27.5 66t68.5 26q32 0 51 -18.5t19 -50.5q0 -40 -27 -67t-67 -27q-34 0 -53 19t-19 52zM150 616q0 40 27 66t68 26q33 0 51.5 -18.5t18.5 -50.5q0 -40 -26.5 -67t-67.5 -27q-34 0 -52.5 19
t-18.5 52z" />
    <glyph glyph-name="yacute" unicode="&#xfd;" horiz-adv-x="532" 
d="M-27 -262q-18 0 -36.5 4.5t-28.5 9.5l-9 4q0 51 13.5 94.5t26.5 61.5l13 18q32 -18 73 -18q65 0 144 63l-76 325q-12 51 -26.5 93.5t-23.5 59.5l-9 17l10 10h207l64 -336q84 139 84 260q0 21 -2.5 37.5t-5.5 22.5l-3 6l10 10h132q7 -13 7 -36q0 -60 -58.5 -178
t-141.5 -235t-185 -205t-179 -88zM239 550l-8 10l99 189q48 0 85.5 -7.5t51.5 -14.5l14 -7l-1 -10l-185 -160h-56z" />
    <glyph glyph-name="thorn" unicode="&#xfe;" horiz-adv-x="585" 
d="M-29 -250l116 730q11 68 17.5 132t7.5 94l1 29l14 15h184q0 -114 -25 -270l-6 -39l-15 -61l4 -5q2 5 6.5 13t20 28t33 35.5t46 28t58.5 12.5q65 0 100.5 -50t35.5 -129q0 -139 -102.5 -232t-242.5 -93q-12 0 -18 1l-37 -239h-198zM356 320q0 59 -17 59q-12 0 -35 -33.5
t-40 -67.5l-17 -33l-28 -174h1q3 -21 24 -21q40 0 76 87.5t36 182.5z" />
    <glyph glyph-name="ydieresis" unicode="&#xff;" horiz-adv-x="532" 
d="M-27 -262q-18 0 -36.5 4.5t-28.5 9.5l-9 4q0 51 13.5 94.5t26.5 61.5l13 18q32 -18 73 -18q65 0 144 63l-76 325q-12 51 -26.5 93.5t-23.5 59.5l-9 17l10 10h207l64 -336q84 139 84 260q0 21 -2.5 37.5t-5.5 22.5l-3 6l10 10h132q7 -13 7 -36q0 -60 -58.5 -178
t-141.5 -235t-185 -205t-179 -88zM133 616q0 40 27.5 66t68.5 26q32 0 51 -18.5t19 -50.5q0 -40 -27 -67t-67 -27q-34 0 -53 19t-19 52zM354 616q0 40 27.5 66t67.5 26q33 0 52 -18.5t19 -50.5q0 -40 -27 -67t-68 -27q-33 0 -52 19t-19 52z" />
    <glyph glyph-name="Amacron" unicode="&#x100;" horiz-adv-x="720" 
d="M160 171l-90 -171h-100l337 628l-26 57l3 15h227l159 -700h-214l-39 171h-257zM340 514l-139 -265h199zM287 780l13 80h294l-13 -80h-294z" />
    <glyph glyph-name="amacron" unicode="&#x101;" horiz-adv-x="585" 
d="M564 441l-42 -261q-7 -44 -7.5 -85.5t3.5 -60.5l3 -19l-15 -15h-183q-2 4 -5 11.5t-6.5 28t-0.5 37.5l4 23l-4 5q-2 -5 -6.5 -13t-20 -28t-33 -35.5t-46 -28t-59.5 -12.5q-64 0 -99.5 50t-35.5 131q0 139 102 231t272 92q61 0 106 -13t59 -25zM225 160q0 -59 16 -59
q12 0 35.5 33.5t40.5 67.5l17 33l27 174q-3 21 -24 21q-40 0 -76 -87.5t-36 -182.5zM208 580l13 80h294l-13 -80h-294z" />
    <glyph glyph-name="Abreve" unicode="&#x102;" horiz-adv-x="720" 
d="M160 171l-90 -171h-100l337 628l-26 57l3 15h227l159 -700h-214l-39 171h-257zM278 868l32 28q6 -6 16 -15t45 -23.5t72 -14.5t74 13.5t55 26.5l19 13l24 -28q-2 -5 -7 -13.5t-22 -29.5t-36.5 -37t-52.5 -29.5t-69 -13.5q-37 0 -66 12.5t-44 30.5t-25 36.5t-13 31.5z
M340 514l-139 -265h199z" />
    <glyph glyph-name="abreve" unicode="&#x103;" horiz-adv-x="585" 
d="M564 441l-42 -261q-7 -44 -7.5 -85.5t3.5 -60.5l3 -19l-15 -15h-183q-2 4 -5 11.5t-6.5 28t-0.5 37.5l4 23l-4 5q-2 -5 -6.5 -13t-20 -28t-33 -35.5t-46 -28t-59.5 -12.5q-64 0 -99.5 50t-35.5 131q0 139 102 231t272 92q61 0 106 -13t59 -25zM194 668l32 28q6 -6 16 -15
t45 -23.5t72 -14.5t74 13.5t55 26.5l19 13l24 -28q-2 -5 -7 -13.5t-22 -29.5t-36.5 -37t-52.5 -29.5t-69 -13.5q-37 0 -66 12.5t-44 30.5t-25 36.5t-13 31.5zM225 160q0 -59 16 -59q12 0 35.5 33.5t40.5 67.5l17 33l27 174q-3 21 -24 21q-40 0 -76 -87.5t-36 -182.5z" />
    <glyph glyph-name="Aogonek" unicode="&#x104;" horiz-adv-x="720" 
d="M160 171l-90 -171h-100l337 628l-26 57l3 15h227l159 -700h-57q-6 -6 -15 -16.5t-23.5 -38.5t-14.5 -52q0 -36 35 -36l26 5l23 -28q-3 -5 -9.5 -12t-29.5 -18.5t-50 -11.5q-39 0 -66 21.5t-27 63.5q0 38 23.5 68.5t46.5 42.5l24 12h-100l-39 171h-257zM340 514l-139 -265
h199z" />
    <glyph glyph-name="aogonek" unicode="&#x105;" horiz-adv-x="585" 
d="M429 0h-106q-2 4 -5 11.5t-6.5 28t-0.5 37.5l4 23l-4 5q-2 -5 -6.5 -13t-20 -28t-33 -35.5t-46 -28t-59.5 -12.5q-64 0 -99.5 50t-35.5 131q0 139 102 231t272 92q61 0 106 -13t59 -25l14 -13l-42 -261q-7 -44 -7.5 -85.5t3.5 -60.5l3 -19l-15 -15h-20q-6 -6 -15 -16.5
t-24 -38.5t-15 -52q0 -36 35 -36l26 5l24 -28q-3 -5 -10 -12t-30 -18.5t-49 -11.5q-39 0 -66 21.5t-27 63.5q0 38 23.5 68.5t47.5 42.5zM225 160q0 -59 16 -59q12 0 35.5 33.5t40.5 67.5l17 33l27 174q-3 21 -24 21q-40 0 -76 -87.5t-36 -182.5z" />
    <glyph glyph-name="Cacute" unicode="&#x106;" horiz-adv-x="713" 
d="M463 647q-78 0 -133.5 -99t-55.5 -241q0 -108 38.5 -154.5t122.5 -46.5q53 0 106 16t79 32l26 17l25 -30q-4 -6 -11.5 -16.5t-36 -37t-62 -46.5t-89 -36.5t-116.5 -16.5q-146 0 -231 84t-85 227q0 176 123 294.5t313 118.5q121 0 190 -51t69 -132q0 -27 -7.5 -49.5
t-15.5 -31.5l-8 -9q-73 -15 -189 -15l-12 15q31 40 31 113q0 95 -71 95zM401 750l-8 10l99 190q48 0 86 -7.5t52 -14.5l13 -8l-1 -10l-185 -160h-56z" />
    <glyph glyph-name="cacute" unicode="&#x107;" horiz-adv-x="509" 
d="M455 124l24 -28q-3 -4 -9 -11.5t-27.5 -26t-46.5 -33t-66.5 -26t-87.5 -11.5q-108 0 -168 58.5t-60 160.5q0 124 84 204.5t230 80.5q87 0 138 -30.5t51 -85.5q0 -19 -6 -37t-12 -27l-6 -8q-58 -15 -159 -15l-12 15q23 37 23 84q0 44 -28 44q-37 0 -58 -72.5t-21 -150.5
q0 -68 22 -95t69 -27q31 0 62.5 9.5t47.5 18.5zM247 550l-8 10l99 189q48 0 85.5 -7.5t51.5 -14.5l14 -7l-1 -10l-185 -160h-56z" />
    <glyph glyph-name="Ccircumflex" unicode="&#x108;" horiz-adv-x="713" 
d="M463 647q-78 0 -133.5 -99t-55.5 -241q0 -108 38.5 -154.5t122.5 -46.5q53 0 106 16t79 32l26 17l25 -30q-4 -6 -11.5 -16.5t-36 -37t-62 -46.5t-89 -36.5t-116.5 -16.5q-146 0 -231 84t-85 227q0 176 123 294.5t313 118.5q121 0 190 -51t69 -132q0 -27 -7.5 -49.5
t-15.5 -31.5l-8 -9q-73 -15 -189 -15l-12 15q31 40 31 113q0 95 -71 95zM643 760l-12 -10h-65l-90 76l-114 -76h-66l-7 10l183 190h47z" />
    <glyph glyph-name="ccircumflex" unicode="&#x109;" horiz-adv-x="509" 
d="M455 124l24 -28q-3 -4 -9 -11.5t-27.5 -26t-46.5 -33t-66.5 -26t-87.5 -11.5q-108 0 -168 58.5t-60 160.5q0 124 84 204.5t230 80.5q87 0 138 -30.5t51 -85.5q0 -19 -6 -37t-12 -27l-6 -8q-58 -15 -159 -15l-12 15q23 37 23 84q0 44 -28 44q-37 0 -58 -72.5t-21 -150.5
q0 -68 22 -95t69 -27q31 0 62.5 9.5t47.5 18.5zM512 560l-12 -10h-65l-90 76l-114 -76h-66l-8 10l184 189h47z" />
    <glyph glyph-name="Cdotaccent" unicode="&#x10a;" horiz-adv-x="713" 
d="M463 647q-78 0 -133.5 -99t-55.5 -241q0 -108 38.5 -154.5t122.5 -46.5q53 0 106 16t79 32l26 17l25 -30q-4 -6 -11.5 -16.5t-36 -37t-62 -46.5t-89 -36.5t-116.5 -16.5q-146 0 -231 84t-85 227q0 176 123 294.5t313 118.5q121 0 190 -51t69 -132q0 -27 -7.5 -49.5
t-15.5 -31.5l-8 -9q-73 -15 -189 -15l-12 15q31 40 31 113q0 95 -71 95zM385 824q0 45 30.5 74.5t76.5 29.5q37 0 58 -20.5t21 -57.5q0 -45 -30.5 -74.5t-75.5 -29.5q-37 0 -58.5 21t-21.5 57z" />
    <glyph glyph-name="cdotaccent" unicode="&#x10b;" horiz-adv-x="509" 
d="M455 124l24 -28q-3 -4 -9 -11.5t-27.5 -26t-46.5 -33t-66.5 -26t-87.5 -11.5q-108 0 -168 58.5t-60 160.5q0 124 84 204.5t230 80.5q87 0 138 -30.5t51 -85.5q0 -19 -6 -37t-12 -27l-6 -8q-58 -15 -159 -15l-12 15q23 37 23 84q0 44 -28 44q-37 0 -58 -72.5t-21 -150.5
q0 -68 22 -95t69 -27q31 0 62.5 9.5t47.5 18.5zM241 604q0 45 30.5 74.5t76.5 29.5q37 0 58 -20.5t21 -57.5q0 -45 -30.5 -74.5t-75.5 -29.5q-37 0 -58.5 21t-21.5 57z" />
    <glyph glyph-name="Ccaron" unicode="&#x10c;" horiz-adv-x="713" 
d="M463 647q-78 0 -133.5 -99t-55.5 -241q0 -108 38.5 -154.5t122.5 -46.5q53 0 106 16t79 32l26 17l25 -30q-4 -6 -11.5 -16.5t-36 -37t-62 -46.5t-89 -36.5t-116.5 -16.5q-146 0 -231 84t-85 227q0 176 123 294.5t313 118.5q121 0 190 -51t69 -132q0 -27 -7.5 -49.5
t-15.5 -31.5l-8 -9q-73 -15 -189 -15l-12 15q31 40 31 113q0 95 -71 95zM663 945l8 -10l-183 -190h-48l-124 190l12 10h66l90 -76l113 76h66z" />
    <glyph glyph-name="ccaron" unicode="&#x10d;" horiz-adv-x="509" 
d="M455 124l24 -28q-3 -4 -9 -11.5t-27.5 -26t-46.5 -33t-66.5 -26t-87.5 -11.5q-108 0 -168 58.5t-60 160.5q0 124 84 204.5t230 80.5q87 0 138 -30.5t51 -85.5q0 -19 -6 -37t-12 -27l-6 -8q-58 -15 -159 -15l-12 15q23 37 23 84q0 44 -28 44q-37 0 -58 -72.5t-21 -150.5
q0 -68 22 -95t69 -27q31 0 62.5 9.5t47.5 18.5zM504 744l8 -9l-183 -190h-48l-124 190l12 9h66l90 -75l114 75h65z" />
    <glyph glyph-name="Dcaron" unicode="&#x10e;" horiz-adv-x="766" 
d="M16 0l111 700h311q147 0 233 -82t86 -221q0 -170 -123 -283.5t-307 -113.5h-311zM415 621h-93l-86 -542h94q87 0 142 95t55 247q0 200 -112 200zM650 945l8 -10l-183 -190h-48l-124 190l12 10h66l90 -76l113 76h66z" />
    <glyph glyph-name="dcaron" unicode="&#x10f;" horiz-adv-x="752" 
d="M571 480l-49 -300q-7 -44 -7.5 -85t3.5 -61l3 -19l-15 -15h-183q-2 4 -5 11.5t-6.5 28t-0.5 37.5l4 23l-4 5q-2 -5 -6.5 -13t-20 -28t-33 -35.5t-46 -28t-58.5 -12.5q-65 0 -100.5 50t-35.5 129q0 139 102.5 232t243.5 93q12 0 18 -1q9 63 15 124t8 91l1 29l15 15h185
q-2 -110 -28 -270zM225 160q0 -59 16 -59q12 0 35.5 33.5t40.5 67.5l17 33l28 178q-6 17 -25 17q-40 0 -76 -87.5t-36 -182.5zM635 541l-13 16q7 7 17 20.5t27 55t17 82.5l-4 41l6 6q31 0 59 -4t40 -8l13 -3q2 -7 2 -21q0 -36 -17 -68t-41 -52.5t-48 -36t-41 -21.5z" />
    <glyph glyph-name="Dcroat" unicode="&#x110;" horiz-adv-x="766" 
d="M15 315l13 80h50l49 305h311q147 0 233 -82t86 -221q0 -170 -123 -283.5t-307 -113.5h-311l50 315h-51zM415 621h-93l-36 -226h116l-13 -80h-115l-38 -236h94q87 0 142.5 95t55.5 246q0 201 -113 201z" />
    <glyph glyph-name="dcroat" unicode="&#x111;" horiz-adv-x="585" 
d="M277 560l11 80h105l6 95l15 15h185q-1 -44 -7 -110h48l-12 -80h-45q-1 -6 -5 -34.5t-7 -45.5l-49 -300q-7 -44 -7.5 -85t3.5 -61l3 -19l-15 -15h-183q-2 4 -5 11.5t-6.5 28t-0.5 37.5l4 23l-4 5q-2 -5 -6.5 -13t-20 -28t-33 -35.5t-46 -28t-58.5 -12.5q-65 0 -100.5 50
t-35.5 129q0 139 102.5 232t243.5 93q12 0 18 -1l9 69h-107zM225 160q0 -59 16 -59q12 0 35.5 33.5t40.5 67.5l17 33l28 178q-6 17 -25 17q-40 0 -76 -87.5t-36 -182.5z" />
    <glyph glyph-name="Emacron" unicode="&#x112;" 
d="M16 0l111 700h488l-17 -104l-16 -15q-6 4 -17 11t-52 18t-90 11h-101l-35 -221h206l8 -10l-10 -70h-216l-38 -241h111q48 0 90.5 10t61.5 20l18 10l13 -15l-17 -104h-498zM241 780l13 80h294l-13 -80h-294z" />
    <glyph glyph-name="emacron" unicode="&#x113;" horiz-adv-x="518" 
d="M456 124l24 -28q-3 -4 -9 -11.5t-27.5 -26t-46.5 -33t-66.5 -26t-87.5 -11.5q-107 0 -167.5 58.5t-60.5 158.5q0 127 92 207t235 80q87 0 131 -31t44 -80q0 -67 -76.5 -116t-201.5 -56q1 -69 21 -95.5t69 -26.5q32 0 63.5 9.5t47.5 18.5zM175 580l13 80h294l-13 -80h-294
zM320 432q-26 0 -48.5 -45.5t-29.5 -115.5q103 17 103 115q0 46 -25 46z" />
    <glyph glyph-name="Ebreve" unicode="&#x114;" 
d="M16 0l111 700h488l-17 -104l-16 -15q-6 4 -17 11t-52 18t-90 11h-101l-35 -221h206l8 -10l-10 -70h-216l-38 -241h111q48 0 90.5 10t61.5 20l18 10l13 -15l-17 -104h-498zM234 868l31 28q6 -6 16 -15t45 -23.5t72 -14.5t74 13.5t56 26.5l18 13l24 -28q-2 -5 -7 -13.5
t-22 -29.5t-36.5 -37t-52.5 -29.5t-69 -13.5t-65 12.5t-44 30.5t-25 36.5t-13 31.5z" />
    <glyph glyph-name="ebreve" unicode="&#x115;" horiz-adv-x="518" 
d="M456 124l24 -28q-3 -4 -9 -11.5t-27.5 -26t-46.5 -33t-66.5 -26t-87.5 -11.5q-107 0 -167.5 58.5t-60.5 158.5q0 127 92 207t235 80q87 0 131 -31t44 -80q0 -67 -76.5 -116t-201.5 -56q1 -69 21 -95.5t69 -26.5q32 0 63.5 9.5t47.5 18.5zM160 668l32 28q6 -6 16 -15
t45 -23.5t72 -14.5t74 13.5t55 26.5l19 13l24 -28q-2 -5 -7 -13.5t-22 -29.5t-36.5 -37t-52.5 -29.5t-69 -13.5q-37 0 -66 12.5t-44 30.5t-25 36.5t-13 31.5zM320 432q-26 0 -48.5 -45.5t-29.5 -115.5q103 17 103 115q0 46 -25 46z" />
    <glyph glyph-name="Edotaccent" unicode="&#x116;" 
d="M16 0l111 700h488l-17 -104l-16 -15q-6 4 -17 11t-52 18t-90 11h-101l-35 -221h206l8 -10l-10 -70h-216l-38 -241h111q48 0 90.5 10t61.5 20l18 10l13 -15l-17 -104h-498zM305 824q0 45 30 74.5t76 29.5q37 0 58 -20.5t21 -57.5q0 -45 -30 -74.5t-76 -29.5q-37 0 -58 21
t-21 57z" />
    <glyph glyph-name="edotaccent" unicode="&#x117;" horiz-adv-x="518" 
d="M456 124l24 -28q-3 -4 -9 -11.5t-27.5 -26t-46.5 -33t-66.5 -26t-87.5 -11.5q-107 0 -167.5 58.5t-60.5 158.5q0 127 92 207t235 80q87 0 131 -31t44 -80q0 -67 -76.5 -116t-201.5 -56q1 -69 21 -95.5t69 -26.5q32 0 63.5 9.5t47.5 18.5zM236 604q0 45 30 74.5t76 29.5
q37 0 58 -20.5t21 -57.5q0 -45 -30.5 -74.5t-75.5 -29.5q-37 0 -58 21t-21 57zM320 432q-26 0 -48.5 -45.5t-29.5 -115.5q103 17 103 115q0 46 -25 46z" />
    <glyph glyph-name="Eogonek" unicode="&#x118;" 
d="M16 0l111 700h488l-17 -104l-16 -15q-6 4 -17 11t-52 18t-90 11h-101l-35 -221h206l8 -10l-10 -70h-216l-38 -241h111q48 0 90.5 10t61.5 20l18 10l13 -15l-17 -104h-57q-6 -6 -15 -16.5t-24 -38.5t-15 -52q0 -36 35 -36l27 5l23 -28q-3 -5 -9.5 -12t-29.5 -18.5
t-50 -11.5q-39 0 -66 21.5t-27 63.5q0 38 23.5 68.5t46.5 42.5l24 12h-384z" />
    <glyph glyph-name="eogonek" unicode="&#x119;" horiz-adv-x="518" 
d="M456 124l24 -28q-30 -41 -87 -72q-48 -55 -48 -101q0 -36 35 -36l26 5l24 -28q-3 -5 -10 -12t-30 -18.5t-49 -11.5q-39 0 -66 21.5t-27 63.5q0 46 36 84q-20 -3 -41 -3q-107 0 -167.5 58.5t-60.5 158.5q0 127 92 207t235 80q87 0 131 -31t44 -80q0 -67 -76.5 -116
t-201.5 -56q1 -69 21 -95.5t69 -26.5q32 0 63.5 9.5t47.5 18.5zM320 432q-26 0 -48.5 -45.5t-29.5 -115.5q103 17 103 115q0 46 -25 46z" />
    <glyph glyph-name="Ecaron" unicode="&#x11a;" 
d="M16 0l111 700h488l-17 -104l-16 -15q-6 4 -17 11t-52 18t-90 11h-101l-35 -221h206l8 -10l-10 -70h-216l-38 -241h111q48 0 90.5 10t61.5 20l18 10l13 -15l-17 -104h-498zM582 945l8 -10l-183 -190h-48l-123 190l12 10h65l90 -76l114 76h65z" />
    <glyph glyph-name="ecaron" unicode="&#x11b;" horiz-adv-x="518" 
d="M456 124l24 -28q-3 -4 -9 -11.5t-27.5 -26t-46.5 -33t-66.5 -26t-87.5 -11.5q-107 0 -167.5 58.5t-60.5 158.5q0 127 92 207t235 80q87 0 131 -31t44 -80q0 -67 -76.5 -116t-201.5 -56q1 -69 21 -95.5t69 -26.5q32 0 63.5 9.5t47.5 18.5zM498 744l8 -9l-183 -190h-48
l-123 190l11 9h66l90 -75l114 75h65zM320 432q-26 0 -48.5 -45.5t-29.5 -115.5q103 17 103 115q0 46 -25 46z" />
    <glyph glyph-name="Gcircumflex" unicode="&#x11c;" horiz-adv-x="713" 
d="M428 273l11 70h56q55 0 104 3.5t71 7.5l21 4l12 -15l-38 -242q-4 -5 -11.5 -12.5t-35.5 -27t-59.5 -34.5t-83.5 -27t-108 -12q-155 0 -241 83t-86 228q0 177 122.5 295t318.5 118q118 0 185.5 -45t67.5 -126q0 -27 -7.5 -48.5t-14.5 -30.5l-8 -8q-73 -15 -189 -15l-13 15
q32 36 32 110q0 45 -16.5 64t-49.5 19q-84 0 -139.5 -99.5t-55.5 -246.5q0 -109 35.5 -162t112.5 -53q28 0 55 6l11 71q8 52 4 100h-54zM643 760l-12 -10h-65l-90 76l-114 -76h-66l-7 10l183 190h47z" />
    <glyph glyph-name="gcircumflex" unicode="&#x11d;" horiz-adv-x="580" 
d="M293 -20l4 20l12 77l6 23l-4 5q-2 -5 -6.5 -13t-20 -28t-33 -35.5t-46 -28t-59.5 -12.5q-64 0 -99.5 50t-35.5 131q0 139 102 231t272 92q61 0 106 -13t59 -25l14 -13l-69 -441l-4 -20q-22 -110 -106 -176t-224 -66q-91 0 -144.5 29t-53.5 83q0 17 5.5 33.5t11.5 24.5
l5 8q64 15 171 15l13 -15q-22 -34 -22 -76t32 -42q36 0 66.5 49.5t47.5 132.5zM537 560l-12 -10h-65l-90 76l-114 -76h-65l-8 10l183 189h48zM225 160q0 -59 16 -59q12 0 35.5 33.5t40.5 67.5l17 33l27 174q-3 21 -24 21q-40 0 -76 -87.5t-36 -182.5z" />
    <glyph glyph-name="Gbreve" unicode="&#x11e;" horiz-adv-x="713" 
d="M428 273l11 70h56q55 0 104 3.5t71 7.5l21 4l12 -15l-38 -242q-4 -5 -11.5 -12.5t-35.5 -27t-59.5 -34.5t-83.5 -27t-108 -12q-155 0 -241 83t-86 228q0 177 122.5 295t318.5 118q118 0 185.5 -45t67.5 -126q0 -27 -7.5 -48.5t-14.5 -30.5l-8 -8q-73 -15 -189 -15l-13 15
q32 36 32 110q0 45 -16.5 64t-49.5 19q-84 0 -139.5 -99.5t-55.5 -246.5q0 -109 35.5 -162t112.5 -53q28 0 55 6l11 71q8 52 4 100h-54zM314 868l32 28q6 -6 16 -15t45 -23.5t72 -14.5t74 13.5t55 26.5l19 13l24 -28q-2 -5 -7 -13.5t-22 -29.5t-36.5 -37t-52.5 -29.5
t-69 -13.5q-37 0 -66 12.5t-44 30.5t-25 36.5t-13 31.5z" />
    <glyph glyph-name="gbreve" unicode="&#x11f;" horiz-adv-x="580" 
d="M564 441l-69 -441l-4 -20q-22 -110 -106 -176t-224 -66q-91 0 -144.5 29t-53.5 83q0 17 5.5 33.5t11.5 24.5l5 8q64 15 171 15l13 -15q-22 -34 -22 -76t32 -42q36 0 66.5 49.5t47.5 132.5l4 20l12 77l6 23l-4 5q-2 -5 -6.5 -13t-20 -28t-33 -35.5t-46 -28t-59.5 -12.5
q-64 0 -99.5 50t-35.5 131q0 139 102 231t272 92q61 0 106 -13t59 -25zM191 668l32 28q6 -6 16 -15t45 -23.5t72 -14.5t74 13.5t56 26.5l18 13l24 -28q-2 -5 -7 -13.5t-22 -29.5t-36.5 -37t-52.5 -29.5t-69 -13.5q-37 0 -66 12.5t-44 30.5t-25 36.5t-12 31.5zM361 409
q-3 21 -24 21q-40 0 -76 -87.5t-36 -182.5q0 -59 16 -59q12 0 35.5 33.5t40.5 67.5l17 33z" />
    <glyph glyph-name="Gdotaccent" unicode="&#x120;" horiz-adv-x="713" 
d="M428 273l11 70h56q55 0 104 3.5t71 7.5l21 4l12 -15l-38 -242q-4 -5 -11.5 -12.5t-35.5 -27t-59.5 -34.5t-83.5 -27t-108 -12q-155 0 -241 83t-86 228q0 177 122.5 295t318.5 118q118 0 185.5 -45t67.5 -126q0 -27 -7.5 -48.5t-14.5 -30.5l-8 -8q-73 -15 -189 -15l-13 15
q32 36 32 110q0 45 -16.5 64t-49.5 19q-84 0 -139.5 -99.5t-55.5 -246.5q0 -109 35.5 -162t112.5 -53q28 0 55 6l11 71q8 52 4 100h-54zM385 824q0 45 30.5 74.5t76.5 29.5q37 0 58 -20.5t21 -57.5q0 -45 -30.5 -74.5t-75.5 -29.5q-37 0 -58.5 21t-21.5 57z" />
    <glyph glyph-name="gdotaccent" unicode="&#x121;" horiz-adv-x="580" 
d="M564 441l-69 -441l-4 -20q-22 -110 -106 -176t-224 -66q-91 0 -144.5 29t-53.5 83q0 17 5.5 33.5t11.5 24.5l5 8q64 15 171 15l13 -15q-22 -34 -22 -76t32 -42q36 0 66.5 49.5t47.5 132.5l4 20l12 77l6 23l-4 5q-2 -5 -6.5 -13t-20 -28t-33 -35.5t-46 -28t-59.5 -12.5
q-64 0 -99.5 50t-35.5 131q0 139 102 231t272 92q61 0 106 -13t59 -25zM267 604q0 45 30 74.5t76 29.5q37 0 58 -20.5t21 -57.5q0 -45 -30.5 -74.5t-75.5 -29.5q-37 0 -58 21t-21 57zM334 235l27 174q-3 21 -24 21q-40 0 -76 -87.5t-36 -182.5q0 -59 16 -59q12 0 35.5 33.5
t40.5 67.5z" />
    <glyph glyph-name="Gcommaaccent" unicode="&#x122;" horiz-adv-x="713" 
d="M428 273l11 70h56q55 0 104 3.5t71 7.5l21 4l12 -15l-38 -242q-4 -5 -11.5 -12.5t-35.5 -27t-59.5 -34.5t-83.5 -27t-108 -12q-155 0 -241 83t-86 228q0 177 122.5 295t318.5 118q118 0 185.5 -45t67.5 -126q0 -27 -7.5 -48.5t-14.5 -30.5l-8 -8q-73 -15 -189 -15l-13 15
q32 36 32 110q0 45 -16.5 64t-49.5 19q-84 0 -139.5 -99.5t-55.5 -246.5q0 -109 35.5 -162t112.5 -53q28 0 55 6l11 71q8 52 4 100h-54zM245 -262l-14 17q7 7 17 20.5t27 55t17 82.5l-4 41l6 6q31 0 59 -3.5t41 -7.5l12 -4q2 -7 2 -21q0 -36 -17 -68.5t-41 -53t-47.5 -36
t-40.5 -22.5z" />
    <glyph glyph-name="gcommaaccent" unicode="&#x123;" horiz-adv-x="580" 
d="M564 441l-69 -441l-4 -20q-22 -110 -106 -176t-224 -66q-91 0 -144.5 29t-53.5 83q0 17 5.5 33.5t11.5 24.5l5 8q64 15 171 15l13 -15q-22 -34 -22 -76t32 -42q36 0 66.5 49.5t47.5 132.5l4 20l12 77l6 23l-4 5q-2 -5 -6.5 -13t-20 -28t-33 -35.5t-46 -28t-59.5 -12.5
q-64 0 -99.5 50t-35.5 131q0 139 102 231t272 92q61 0 106 -13t59 -25zM361 409q-3 21 -24 21q-40 0 -76 -87.5t-36 -182.5q0 -59 16 -59q12 0 35.5 33.5t40.5 67.5l17 33zM531 772l14 -17q-7 -7 -17 -20.5t-27 -55t-17 -82.5l4 -41l-6 -6q-31 0 -59 4t-41 8l-12 3
q-2 7 -2 21q0 36 17 68.5t41 53t47.5 36t40.5 22.5z" />
    <glyph glyph-name="Hcircumflex" unicode="&#x124;" horiz-adv-x="769" 
d="M466 0l50 320h-242l-50 -320h-208l111 700h208l-48 -300h242l48 300h208l-111 -700h-208zM642 760l-12 -10h-65l-90 76l-114 -76h-66l-8 10l184 190h47z" />
    <glyph glyph-name="hcircumflex" unicode="&#x125;" horiz-adv-x="575" 
d="M291 0l57 356q4 23 -11 23q-16 0 -39.5 -33.5t-39.5 -67.5l-16 -33l-38 -245h-198l76 480q11 72 17.5 135.5t7.5 91.5l1 28l15 15h183q0 -110 -25 -270l-6 -39l-14 -61l4 -5q2 5 5.5 13t18.5 28t34 35.5t52 28t71 12.5q64 0 87 -33.5t12 -102.5l-56 -356h-198zM391 780
l-12 -10h-65l-90 75l-114 -75h-66l-8 10l184 189h47z" />
    <glyph glyph-name="Hbar" unicode="&#x126;" horiz-adv-x="769" 
d="M466 0l50 320h-242l-50 -320h-208l79 500h-51l13 80h51l19 120h208l-19 -120h242l19 120h208l-19 -120h50l-13 -80h-50l-79 -500h-208zM303 500l-16 -100h242l16 100h-242z" />
    <glyph glyph-name="hbar" unicode="&#x127;" horiz-adv-x="580" 
d="M296 0l57 356q4 23 -11 23q-16 0 -40 -33.5t-40 -67.5l-15 -33l-38 -245h-198l76 480q8 48 12 85h-73l6 40l75 34l6 96l14 15h184q0 -46 -6 -115h146l-12 -70h-142q-6 -54 -11 -85l-6 -39l-15 -61l4 -5q2 5 6 13t19 28t33.5 35.5t52 28t71.5 12.5q64 0 87 -33.5
t12 -102.5l-56 -356h-198z" />
    <glyph glyph-name="Itilde" unicode="&#x128;" horiz-adv-x="319" 
d="M16 0l111 700h208l-111 -700h-208zM216 882q26 0 53.5 -18.5t49.5 -18.5q21 0 42.5 10t32.5 20l11 10l23 -28q-2 -4 -6.5 -11.5t-19.5 -26.5t-31 -33.5t-40.5 -26.5t-49.5 -12q-26 0 -53.5 18.5t-49.5 18.5q-21 0 -42.5 -10t-32.5 -20l-11 -10l-24 28q2 4 6.5 11.5
t19.5 26.5t31.5 33.5t41 26.5t49.5 12z" />
    <glyph glyph-name="itilde" unicode="&#x129;" horiz-adv-x="294" 
d="M165 682q26 0 53.5 -18.5t49.5 -18.5q21 0 42.5 10t32.5 20l11 10l23 -28q-2 -4 -6.5 -11.5t-19.5 -26.5t-31 -33.5t-40.5 -26.5t-49.5 -12q-26 0 -53.5 18.5t-49.5 18.5q-21 0 -42.5 -10t-32.5 -20l-11 -10l-24 28q2 4 6.5 11.5t19.5 26.5t31.5 33.5t41 26.5t49.5 12z
M11 0l48 300q7 44 12 85.5t6 60.5l1 19l14 15h184q-3 -80 -19 -180l-48 -300h-198z" />
    <glyph glyph-name="Imacron" unicode="&#x12a;" horiz-adv-x="319" 
d="M16 0l111 700h208l-111 -700h-208zM96 780l13 80h294l-13 -80h-294z" />
    <glyph glyph-name="imacron" unicode="&#x12b;" horiz-adv-x="294" 
d="M44 580l13 80h294l-13 -80h-294zM11 0l48 300q7 44 12 85.5t6 60.5l1 19l14 15h184q-3 -80 -19 -180l-48 -300h-198z" />
    <glyph glyph-name="Ibreve" unicode="&#x12c;" horiz-adv-x="319" 
d="M16 0l111 700h208l-111 -700h-208zM88 868l32 28q6 -6 16 -15t45 -23.5t72 -14.5t74 13.5t55 26.5l19 13l24 -28q-2 -5 -7 -13.5t-22 -29.5t-36.5 -37t-52.5 -29.5t-69 -13.5q-37 0 -66 12.5t-44 30.5t-25 36.5t-13 31.5z" />
    <glyph glyph-name="ibreve" unicode="&#x12d;" horiz-adv-x="294" 
d="M29 668l32 28q6 -6 16 -15t45 -23.5t72 -14.5t74 13.5t56 26.5l18 13l24 -28q-2 -5 -7 -13.5t-22 -29.5t-36.5 -37t-52.5 -29.5t-69 -13.5q-37 0 -66 12.5t-44 30.5t-25 36.5t-12 31.5zM11 0l48 300q7 44 12 85.5t6 60.5l1 19l14 15h184q-3 -80 -19 -180l-48 -300h-198z
" />
    <glyph glyph-name="Iogonek" unicode="&#x12e;" horiz-adv-x="319" 
d="M16 0l111 700h208l-111 -700h-57q-6 -6 -15 -16.5t-24 -38.5t-15 -52q0 -36 35 -36l26 5l24 -28q-3 -5 -10 -12t-30 -18.5t-49 -11.5q-39 0 -66 21.5t-27 63.5q0 38 23.5 68.5t46.5 42.5l24 12h-94z" />
    <glyph glyph-name="iogonek" unicode="&#x12f;" horiz-adv-x="294" 
d="M11 0l48 300q7 44 12 85.5t6 60.5l1 19l14 15h184q-3 -80 -19 -180l-48 -300h-42q-6 -6 -15 -16.5t-24 -38.5t-15 -52q0 -36 35 -36l26 5l24 -28q-3 -5 -10 -12t-30 -18.5t-49 -11.5q-39 0 -66 21.5t-27 63.5q0 38 23.5 68.5t46.5 42.5l24 12h-99zM88 622q0 58 37.5 95
t95.5 37q45 0 71.5 -26.5t26.5 -69.5q0 -58 -38 -95t-96 -37q-45 0 -71 26.5t-26 69.5z" />
    <glyph glyph-name="Idotaccent" unicode="&#x130;" horiz-adv-x="319" 
d="M16 0l111 700h208l-111 -700h-208zM135 840q0 53 36 89t91 36q44 0 69.5 -25t25.5 -69q0 -54 -36.5 -89.5t-90.5 -35.5q-45 0 -70 25t-25 69z" />
    <glyph glyph-name="dotlessi" unicode="&#x131;" horiz-adv-x="294" 
d="M11 0l48 300q7 44 12 85.5t6 60.5l1 19l14 15h184q-3 -80 -19 -180l-48 -300h-198z" />
    <glyph glyph-name="IJ" unicode="&#x132;" horiz-adv-x="644" 
d="M67 325l59 375h208l-59 -375h-208zM279 53q68 0 95 159l76 488h209l-76 -481q-17 -107 -102.5 -169t-218.5 -62q-108 0 -171.5 39t-63.5 102q0 21 7.5 41.5t14.5 30.5l7 10q70 15 186 15l17 -15q-30 -40 -30 -93q0 -32 13.5 -48.5t36.5 -16.5z" />
    <glyph glyph-name="ij" unicode="&#x133;" horiz-adv-x="589" 
d="M88 622q0 58 37.5 95t95.5 37q45 0 71.5 -26.5t26.5 -69.5q0 -58 -38 -95t-96 -37q-45 0 -71 26.5t-26 69.5zM11 0l48 300q7 44 12 85.5t6 60.5l1 19l14 15h184q-3 -80 -19 -180l-48 -300h-198zM381 622q0 58 38 95t96 37q45 0 71.5 -26.5t26.5 -69.5q0 -58 -38 -95
t-96 -37q-45 0 -71.5 26.5t-26.5 69.5zM301 -20l52 320q7 44 12 85.5t6 60.5l1 19l15 15h183q-3 -80 -19 -180l-41 -251q-10 -62 -45 -117t-78 -89.5t-84 -60t-69 -36.5l-28 -11l-24 28l11 11t25 29.5t33 46.5t29.5 59.5t20.5 70.5z" />
    <glyph glyph-name="Jcircumflex" unicode="&#x134;" horiz-adv-x="508" 
d="M238 212l77 488h208l-76 -481q-37 -231 -296 -231q-61 0 -106 12.5t-59 25.5l-15 12q5 34 19.5 66t31 54.5t32 40t26.5 25.5l10 9h13q0 -7 0.5 -19.5t5 -43.5t10.5 -54.5t19.5 -43t30.5 -19.5q22 0 38.5 35t30.5 124zM610 760l-12 -10h-65l-90 76l-114 -76h-65l-8 10
l183 190h48z" />
    <glyph glyph-name="jcircumflex" unicode="&#x135;" horiz-adv-x="294" 
d="M7 -20l52 320q7 44 12 85.5t6 60.5l1 19l14 15h184q-3 -80 -19 -180l-41 -251q-10 -62 -45 -117t-78 -89.5t-84.5 -60t-69.5 -36.5l-28 -11l-24 28q11 10 28 29t50 75.5t42 112.5zM365 560l-12 -10h-65l-90 76l-114 -76h-66l-8 10l184 189h47z" />
    <glyph glyph-name="Kcommaaccent" unicode="&#x136;" horiz-adv-x="706" 
d="M16 0l111 700h208l-46 -290h20l276 290h119l-245 -253l99 -249q20 -51 46 -96.5t42 -65.5l16 -21l-2 -15h-250l-130 330h-4l-52 -330h-208zM212 -262l-14 17q7 7 17 20.5t27 55t17 82.5l-4 41l6 6q31 0 59 -3.5t40 -7.5l13 -4q2 -7 2 -21q0 -36 -17 -68.5t-41 -53
t-47.5 -36t-40.5 -22.5z" />
    <glyph glyph-name="kcommaaccent" unicode="&#x137;" horiz-adv-x="575" 
d="M364 480h173q6 -7 6 -22q0 -28 -29.5 -62t-104.5 -86l39 -110q17 -50 40 -95t37 -65l14 -20l-3 -20h-213l-85 213l-34 -213h-198l76 480q11 69 17.5 133t7.5 93l1 29l15 15h183q0 -116 -25 -270l-28 -169l6 1q59 31 80.5 61t21.5 63q0 11 -1.5 19.5t-3.5 11.5l-2 3z
M153 -262l-14 17q7 7 17 20.5t27 55t17 82.5l-4 41l6 6q31 0 59 -3.5t41 -7.5l12 -4q2 -7 2 -21q0 -36 -17 -68.5t-41 -53t-47.5 -36t-40.5 -22.5z" />
    <glyph glyph-name="Lacute" unicode="&#x139;" horiz-adv-x="545" 
d="M16 0l111 700h208l-98 -621h81q49 0 91.5 10t60.5 20l18 10l13 -15l-17 -104h-468zM166 750l-8 10l99 190q48 0 86 -7.5t51 -14.5l14 -8l-1 -10l-185 -160h-56z" />
    <glyph glyph-name="lacute" unicode="&#x13a;" horiz-adv-x="289" 
d="M6 0l76 480q11 71 17.5 135t7.5 92l1 28l15 15h183q0 -110 -25 -270l-77 -480h-198zM143 770l-8 10l99 189q48 0 85.5 -7.5t51.5 -14.5l14 -7l-1 -10l-185 -160h-56z" />
    <glyph glyph-name="Lcommaaccent" unicode="&#x13b;" horiz-adv-x="545" 
d="M16 0l111 700h208l-98 -621h81q49 0 91.5 10t60.5 20l18 10l13 -15l-17 -104h-468zM131 -262l-14 17q7 7 17 20.5t27 55t17 82.5l-3 41l5 6q31 0 59.5 -3.5t40.5 -7.5l13 -4q2 -7 2 -21q0 -36 -17 -68.5t-41 -53t-48 -36t-41 -22.5z" />
    <glyph glyph-name="lcommaaccent" unicode="&#x13c;" horiz-adv-x="289" 
d="M6 0l76 480q11 71 17.5 135t7.5 92l1 28l15 15h183q0 -110 -25 -270l-77 -480h-198zM0 -262l-14 17q7 7 17 20.5t27 55t17 82.5l-4 41l6 6q31 0 59 -3.5t40 -7.5l13 -4q2 -7 2 -21q0 -36 -17 -68.5t-40.5 -53t-47.5 -36t-41 -22.5z" />
    <glyph glyph-name="Lcaron" unicode="&#x13d;" horiz-adv-x="545" 
d="M16 0l111 700h208l-98 -621h81q49 0 91.5 10t60.5 20l18 10l13 -15l-17 -104h-468zM398 491l-14 16q7 7 17 20.5t27 55t17 82.5l-4 41l6 6q31 0 59 -4t40 -8l13 -3q2 -7 2 -21q0 -36 -17 -68t-41 -52.5t-47.5 -36t-40.5 -21.5z" />
    <glyph glyph-name="lcaron" unicode="&#x13e;" horiz-adv-x="461" 
d="M6 0l76 480q11 71 17.5 135t7.5 92l1 28l15 15h183q0 -110 -25 -270l-77 -480h-198zM340 541l-14 16q7 7 17 20.5t27 55t17 82.5l-4 41l6 6q31 0 59 -4t40 -8l13 -3q2 -7 2 -21q0 -36 -17 -68t-41 -52.5t-47.5 -36t-40.5 -21.5z" />
    <glyph glyph-name="Ldot" unicode="&#x13f;" horiz-adv-x="545" 
d="M16 0l111 700h208l-98 -621h81q49 0 91.5 10t60.5 20l18 10l13 -15l-17 -104h-468zM343 334q0 51 33.5 84t84.5 33q42 0 65.5 -23t23.5 -63q0 -51 -33.5 -84t-84.5 -33q-42 0 -65.5 23t-23.5 63z" />
    <glyph glyph-name="ldot" unicode="&#x140;" horiz-adv-x="503" 
d="M6 0l76 480q11 71 17.5 135t7.5 92l1 28l15 15h183q0 -110 -25 -270l-77 -480h-198zM301 309q0 51 33.5 84t84.5 33q41 0 64.5 -23t23.5 -63q0 -51 -33.5 -84t-84.5 -33q-42 0 -65 23t-23 63z" />
    <glyph glyph-name="Lslash" unicode="&#x141;" horiz-adv-x="569" 
d="M18 237l-22 52l98 52l57 359h208l-38 -239l78 41l22 -51l-111 -59l-49 -313h81q49 0 91.5 10t60.5 20l19 10l13 -15l-17 -104h-469l43 271z" />
    <glyph glyph-name="lslash" unicode="&#x142;" horiz-adv-x="329" 
d="M18 237l-22 52l81 41l24 150q11 72 17.5 135.5t7.5 91.5l1 28l15 15h184q0 -110 -25 -270l-7 -42l49 25l21 -52l-81 -41l-59 -370h-199l41 261z" />
    <glyph glyph-name="Nacute" unicode="&#x143;" horiz-adv-x="700" 
d="M16 0l67 420q13 80 14.5 146t-3.5 92l-5 27l18 15h69l379 -381l61 381h99l-111 -700h-59l-380 379l-60 -379h-89zM366 750l-8 10l99 190q48 0 85.5 -7.5t51.5 -14.5l13 -8l-1 -10l-185 -160h-55z" />
    <glyph glyph-name="nacute" unicode="&#x144;" horiz-adv-x="580" 
d="M296 0l57 356q4 23 -11 23q-16 0 -40 -33.5t-40 -67.5l-15 -33l-38 -245h-198l48 300q7 44 7.5 85.5t-2.5 60.5l-4 19l15 15h183q2 -4 5 -11.5t6.5 -28t0.5 -37.5l-5 -23l4 -5q2 5 6 13t19 28t33.5 35.5t52 28t71.5 12.5q64 0 87 -33.5t12 -102.5l-56 -356h-198zM252 550
l-8 10l100 189q48 0 85.5 -7.5t50.5 -14.5l14 -7l-1 -10l-185 -160h-56z" />
    <glyph glyph-name="Ncommaaccent" unicode="&#x145;" horiz-adv-x="700" 
d="M16 0l67 420q13 80 14.5 146t-3.5 92l-5 27l18 15h69l379 -381l61 381h99l-111 -700h-59l-380 379l-60 -379h-89zM209 -262l-13 17q7 7 17 20.5t26.5 55t16.5 82.5l-3 41l6 6q31 0 59 -3.5t40 -7.5l13 -4q2 -7 2 -21q0 -36 -17 -68.5t-41 -53t-48 -36t-41 -22.5z" />
    <glyph glyph-name="ncommaaccent" unicode="&#x146;" horiz-adv-x="580" 
d="M296 0l57 356q4 23 -11 23q-16 0 -40 -33.5t-40 -67.5l-15 -33l-38 -245h-198l48 300q7 44 7.5 85.5t-2.5 60.5l-4 19l15 15h183q2 -4 5 -11.5t6.5 -28t0.5 -37.5l-5 -23l4 -5q2 5 6 13t19 28t33.5 35.5t52 28t71.5 12.5q64 0 87 -33.5t12 -102.5l-56 -356h-198z
M145 -262l-14 17q7 7 17 20.5t27 55t17 82.5l-4 41l6 6q31 0 59.5 -3.5t40.5 -7.5l13 -4q1 -7 1 -21q0 -36 -17 -68.5t-41 -53t-47.5 -36t-40.5 -22.5z" />
    <glyph glyph-name="Ncaron" unicode="&#x147;" horiz-adv-x="700" 
d="M16 0l67 420q13 80 14.5 146t-3.5 92l-5 27l18 15h69l379 -381l61 381h99l-111 -700h-59l-380 379l-60 -379h-89zM627 945l8 -10l-183 -190h-48l-123 190l12 10h65l90 -76l114 76h65z" />
    <glyph glyph-name="ncaron" unicode="&#x148;" horiz-adv-x="580" 
d="M296 0l57 356q4 23 -11 23q-16 0 -40 -33.5t-40 -67.5l-15 -33l-38 -245h-198l48 300q7 44 7.5 85.5t-2.5 60.5l-4 19l15 15h183q2 -4 5 -11.5t6.5 -28t0.5 -37.5l-5 -23l4 -5q2 5 6 13t19 28t33.5 35.5t52 28t71.5 12.5q64 0 87 -33.5t12 -102.5l-56 -356h-198zM509 744
l8 -9l-183 -190h-48l-123 190l12 9h65l90 -75l114 75h65z" />
    <glyph glyph-name="Eng" unicode="&#x14a;" horiz-adv-x="700" 
d="M16 0l67 420q13 80 14.5 146.5t-3.5 92.5l-5 26l18 15h69l379 -381l61 381h99l-116 -731q-18 -115 -80.5 -173t-180.5 -58q-56 0 -99.5 12.5t-58.5 25.5l-16 12q5 34 19.5 66t31 54.5t32.5 40t27 25.5l10 9h12q0 -7 0.5 -19.5t4.5 -43.5t10.5 -54.5t19.5 -43t30 -19.5
q22 0 38.5 34t30.5 125l20 131l-285 286l-60 -379h-89z" />
    <glyph glyph-name="eng" unicode="&#x14b;" horiz-adv-x="580" 
d="M293 -20l60 376q4 23 -11 23q-16 0 -40 -33.5t-40 -67.5l-15 -33l-38 -245h-198l48 300q7 44 7.5 85.5t-2.5 60.5l-4 19l15 15h183q2 -4 5 -11.5t6.5 -28t0.5 -37.5l-5 -23l4 -5q2 5 6 13t19 28t33.5 35.5t52 28t71.5 12.5q64 0 87 -33.5t12 -102.5l-48 -307
q-10 -62 -45 -117t-77.5 -89.5t-84 -60t-69.5 -36.5l-28 -11l-24 28l11 11t25 29.5t33 46.5t29.5 59.5t20.5 70.5z" />
    <glyph glyph-name="Omacron" unicode="&#x14c;" horiz-adv-x="799" 
d="M40 298q0 176 123.5 295t306.5 119q149 0 234.5 -83.5t85.5 -226.5q0 -176 -123.5 -295t-305.5 -119q-149 0 -235 83.5t-86 226.5zM267 259q0 -206 103 -206q83 0 138 111t55 277q0 206 -103 206q-83 0 -138 -111t-55 -277zM336 780l13 80h294l-13 -80h-294z" />
    <glyph glyph-name="omacron" unicode="&#x14d;" horiz-adv-x="579" 
d="M14 206q0 122 90 204t222 82q108 0 171.5 -59t63.5 -159q0 -122 -89.5 -204t-221.5 -82q-109 0 -172.5 59t-63.5 159zM229 134q0 -86 32 -86q35 0 60 105t25 193q0 86 -31 86q-35 0 -60.5 -105t-25.5 -193zM186 580l13 80h294l-13 -80h-294z" />
    <glyph glyph-name="Obreve" unicode="&#x14e;" horiz-adv-x="799" 
d="M40 298q0 176 123.5 295t306.5 119q149 0 234.5 -83.5t85.5 -226.5q0 -176 -123.5 -295t-305.5 -119q-149 0 -235 83.5t-86 226.5zM267 259q0 -206 103 -206q83 0 138 111t55 277q0 206 -103 206q-83 0 -138 -111t-55 -277zM328 868l32 28q6 -6 16 -15t45 -23.5t72 -14.5
t74 13.5t55 26.5l19 13l24 -28q-2 -5 -7 -13.5t-22 -29.5t-36.5 -37t-52.5 -29.5t-69 -13.5q-37 0 -66 12.5t-44 30.5t-25 36.5t-13 31.5z" />
    <glyph glyph-name="obreve" unicode="&#x14f;" horiz-adv-x="579" 
d="M14 206q0 122 90 204t222 82q108 0 171.5 -59t63.5 -159q0 -122 -89.5 -204t-221.5 -82q-109 0 -172.5 59t-63.5 159zM229 134q0 -86 32 -86q35 0 60 105t25 193q0 86 -31 86q-35 0 -60.5 -105t-25.5 -193zM171 668l32 28q6 -6 16 -15t45 -23.5t72 -14.5t74 13.5t56 26.5
l18 13l24 -28q-2 -5 -7 -13.5t-22 -29.5t-36.5 -37t-52.5 -29.5t-69 -13.5q-37 0 -66 12.5t-44 30.5t-25 36.5t-12 31.5z" />
    <glyph glyph-name="Ohungarumlaut" unicode="&#x150;" horiz-adv-x="799" 
d="M40 298q0 176 123.5 295t306.5 119q149 0 234.5 -83.5t85.5 -226.5q0 -176 -123.5 -295t-305.5 -119q-149 0 -235 83.5t-86 226.5zM267 259q0 -206 103 -206q83 0 138 111t55 277q0 206 -103 206q-83 0 -138 -111t-55 -277zM317 750l-8 10l94 190q48 0 85.5 -7.5
t51.5 -14.5l13 -8l-1 -10l-180 -160h-55zM505 750l-8 10l116 190q48 0 84 -7.5t47 -14.5l12 -8l-1 -10l-194 -160h-56z" />
    <glyph glyph-name="ohungarumlaut" unicode="&#x151;" horiz-adv-x="579" 
d="M14 206q0 122 90 204t222 82q108 0 171.5 -59t63.5 -159q0 -122 -89.5 -204t-221.5 -82q-109 0 -172.5 59t-63.5 159zM229 134q0 -86 32 -86q35 0 60 105t25 193q0 86 -31 86q-35 0 -60.5 -105t-25.5 -193zM155 550l-8 10l94 189q48 0 85.5 -7.5t51.5 -14.5l13 -7l-1 -10
l-180 -160h-55zM343 550l-8 10l116 189q48 0 83.5 -7.5t47.5 -14.5l12 -7l-1 -10l-194 -160h-56z" />
    <glyph glyph-name="OE" unicode="&#x152;" horiz-adv-x="1029" 
d="M465 0l1 9q-60 -21 -121 -21q-135 0 -220 85.5t-85 226.5q0 115 58.5 210.5t154 148.5t203.5 53q67 0 118 -23l2 11h479l-17 -104l-17 -15q-6 4 -17 11t-52 18t-90 11h-91l-35 -221h196l9 -10l-11 -70h-206l-38 -241h101q49 0 91.5 10t61.5 20l18 10l12 -15l-16 -104
h-489zM368 53q71 0 119 88l66 417q-20 89 -92 89q-84 0 -139 -111t-55 -277q0 -206 101 -206z" />
    <glyph glyph-name="oe" unicode="&#x153;" horiz-adv-x="834" 
d="M773 124l24 -28q-3 -4 -9 -11.5t-28 -26t-47 -33t-66.5 -26t-87.5 -11.5q-100 0 -146 55q-71 -55 -168 -55q-104 0 -167 60t-63 159q0 121 91 203t215 82q96 0 149 -56q72 56 187 56q89 0 133 -31t44 -81q0 -67 -76 -115.5t-202 -55.5q1 -69 21 -95.5t69 -26.5
q32 0 64 9.5t48 18.5zM229 134q0 -86 32 -86q35 0 60 105t25 193q0 86 -31 86q-35 0 -60.5 -105t-25.5 -193zM637 432q-26 0 -48.5 -45.5t-29.5 -115.5q102 17 102 115q0 46 -24 46z" />
    <glyph glyph-name="Racute" unicode="&#x154;" horiz-adv-x="686" 
d="M16 0l111 700h276q130 0 201 -46t71 -134q0 -67 -42 -117t-118 -77l48 -146q16 -48 37 -90.5t34 -61.5l13 -18l-11 -10h-226l-93 300h-46l-47 -300h-208zM358 621h-36l-38 -241h36q63 0 100 38t37 102q0 101 -99 101zM338 750l-8 10l99 190q48 0 86 -7.5t51 -14.5l14 -8
l-1 -10l-185 -160h-56z" />
    <glyph glyph-name="racute" unicode="&#x155;" horiz-adv-x="431" 
d="M11 0l48 300q7 44 7.5 85.5t-2.5 60.5l-4 19l15 15h183q2 -4 5 -11.5t6.5 -28t0.5 -37.5l-6 -33l4 -5l4 7q5 7 13 18t19 24.5t26.5 27.5t32 25t37 18t41.5 7q4 -68 -11 -163l-17 -15q-17 13 -47 13q-33 0 -63 -23t-43 -46l-14 -23l-37 -235h-198zM199 550l-8 10l99 189
q48 0 85.5 -7.5t51.5 -14.5l14 -7l-1 -10l-185 -160h-56z" />
    <glyph glyph-name="Rcommaaccent" unicode="&#x156;" horiz-adv-x="686" 
d="M16 0l111 700h276q130 0 201 -46t71 -134q0 -67 -42 -117t-118 -77l48 -146q16 -48 37 -90.5t34 -61.5l13 -18l-11 -10h-226l-93 300h-46l-47 -300h-208zM358 621h-36l-38 -241h36q63 0 100 38t37 102q0 101 -99 101zM207 -262l-14 17q7 7 17 20.5t27 55t17 82.5l-4 41
l6 6q31 0 59 -3.5t41 -7.5l12 -4q2 -7 2 -21q0 -36 -17 -68.5t-41 -53t-47.5 -36t-40.5 -22.5z" />
    <glyph glyph-name="rcommaaccent" unicode="&#x157;" horiz-adv-x="431" 
d="M11 0l48 300q7 44 7.5 85.5t-2.5 60.5l-4 19l15 15h183q2 -4 5 -11.5t6.5 -28t0.5 -37.5l-6 -33l4 -5l4 7q5 7 13 18t19 24.5t26.5 27.5t32 25t37 18t41.5 7q4 -68 -11 -163l-17 -15q-17 13 -47 13q-33 0 -63 -23t-43 -46l-14 -23l-37 -235h-198zM6 -262l-14 17
q7 7 17 20.5t27 55t17 82.5l-4 41l6 6q31 0 59 -3.5t40 -7.5l13 -4q2 -7 2 -21q0 -36 -17 -68.5t-40.5 -53t-47.5 -36t-41 -22.5z" />
    <glyph glyph-name="Rcaron" unicode="&#x158;" horiz-adv-x="686" 
d="M16 0l111 700h276q130 0 201 -46t71 -134q0 -67 -42 -117t-118 -77l48 -146q16 -48 37 -90.5t34 -61.5l13 -18l-11 -10h-226l-93 300h-46l-47 -300h-208zM610 945l8 -10l-184 -190h-47l-124 190l12 10h66l89 -76l114 76h66zM358 621h-36l-38 -241h36q63 0 100 38t37 102
q0 101 -99 101z" />
    <glyph glyph-name="rcaron" unicode="&#x159;" horiz-adv-x="431" 
d="M11 0l48 300q7 44 7.5 85.5t-2.5 60.5l-4 19l15 15h183q2 -4 5 -11.5t6.5 -28t0.5 -37.5l-6 -33l4 -5l4 7q5 7 13 18t19 24.5t26.5 27.5t32 25t37 18t41.5 7q4 -68 -11 -163l-17 -15q-17 13 -47 13q-33 0 -63 -23t-43 -46l-14 -23l-37 -235h-198zM455 744l8 -9l-183 -190
h-48l-124 190l12 9h66l90 -75l113 75h66z" />
    <glyph glyph-name="Sacute" unicode="&#x15a;" horiz-adv-x="620" 
d="M336 647q-29 0 -47.5 -17t-18.5 -43t25.5 -54t113.5 -104q111 -95 143.5 -135.5t32.5 -96.5q0 -94 -75.5 -151.5t-236.5 -57.5q-59 0 -109 8t-79.5 20t-50.5 24t-29 20l-8 8q5 36 21 70t34.5 57.5t36.5 42t30 26.5l12 9h20l2.5 -12.5t8 -30.5t14.5 -44t21.5 -46
t28.5 -43.5t36.5 -31t44.5 -12.5q33 0 56.5 20t23.5 47q0 30 -33 61.5t-119 93.5q-88 63 -122.5 108t-34.5 111q0 101 77.5 159.5t231.5 58.5q49 0 92 -6.5t68.5 -15.5t44.5 -18t26 -16l8 -6q-6 -36 -22 -71t-35 -58.5t-37 -42t-30 -27.5l-12 -9h-18q-1 8 -3.5 22t-13 49.5
t-24.5 62.5t-39 49t-56 22zM315 750l-8 10l99 190q48 0 86 -7.5t52 -14.5l13 -8l-1 -10l-185 -160h-56z" />
    <glyph glyph-name="sacute" unicode="&#x15b;" horiz-adv-x="494" 
d="M218 387q0 -22 24.5 -41t89.5 -53q69 -38 99 -68.5t30 -80.5q0 -71 -64 -113.5t-196 -42.5q-207 0 -207 102q0 16 4.5 30.5t9.5 21.5l5 7q63 15 164 15l13 -15q-20 -21 -20 -56q0 -45 45 -45q28 0 45 15.5t17 34.5q0 23 -27 41.5t-94 48.5q-29 13 -46 23.5t-36 27
t-28 39.5t-9 54q0 75 60.5 117.5t189.5 42.5q191 0 191 -101q0 -15 -4 -28t-8 -19l-4 -5q-61 -15 -163 -15l-11 15q15 16 15 50q0 43 -36 43q-23 0 -36 -13.5t-13 -31.5zM212 550l-8 10l99 189q48 0 85.5 -7.5t51.5 -14.5l14 -7l-1 -10l-185 -160h-56z" />
    <glyph glyph-name="Scircumflex" unicode="&#x15c;" horiz-adv-x="620" 
d="M336 647q-29 0 -47.5 -17t-18.5 -43t25.5 -54t113.5 -104q111 -95 143.5 -135.5t32.5 -96.5q0 -94 -75.5 -151.5t-236.5 -57.5q-59 0 -109 8t-79.5 20t-50.5 24t-29 20l-8 8q5 36 21 70t34.5 57.5t36.5 42t30 26.5l12 9h20l2.5 -12.5t8 -30.5t14.5 -44t21.5 -46
t28.5 -43.5t36.5 -31t44.5 -12.5q33 0 56.5 20t23.5 47q0 30 -33 61.5t-119 93.5q-88 63 -122.5 108t-34.5 111q0 101 77.5 159.5t231.5 58.5q49 0 92 -6.5t68.5 -15.5t44.5 -18t26 -16l8 -6q-6 -36 -22 -71t-35 -58.5t-37 -42t-30 -27.5l-12 -9h-18q-1 8 -3.5 22t-13 49.5
t-24.5 62.5t-39 49t-56 22zM571 780l-12 -10h-65l-90 76l-114 -76h-66l-7 10l183 190h47z" />
    <glyph glyph-name="scircumflex" unicode="&#x15d;" horiz-adv-x="494" 
d="M218 387q0 -22 24.5 -41t89.5 -53q69 -38 99 -68.5t30 -80.5q0 -71 -64 -113.5t-196 -42.5q-207 0 -207 102q0 16 4.5 30.5t9.5 21.5l5 7q63 15 164 15l13 -15q-20 -21 -20 -56q0 -45 45 -45q28 0 45 15.5t17 34.5q0 23 -27 41.5t-94 48.5q-29 13 -46 23.5t-36 27
t-28 39.5t-9 54q0 75 60.5 117.5t189.5 42.5q191 0 191 -101q0 -15 -4 -28t-8 -19l-4 -5q-61 -15 -163 -15l-11 15q15 16 15 50q0 43 -36 43q-23 0 -36 -13.5t-13 -31.5zM457 560l-12 -10h-65l-90 76l-114 -76h-65l-8 10l183 189h48z" />
    <glyph glyph-name="Scedilla" unicode="&#x15e;" horiz-adv-x="620" 
d="M217 -81l22 70q-52 2 -95.5 11t-69.5 20.5t-44.5 22t-25.5 17.5l-7 8q5 36 21 70t34.5 57.5t36.5 42t30 26.5l12 9h20l2.5 -12.5t8 -30.5t14.5 -44t21.5 -46t28.5 -43.5t36.5 -31t44.5 -12.5q33 0 56.5 20t23.5 47q0 30 -33 61.5t-119 93.5q-88 63 -122.5 108t-34.5 111
q0 101 77.5 159.5t231.5 58.5q49 0 92 -6.5t68.5 -15.5t44.5 -18t26 -16l8 -6q-6 -36 -22 -71t-35 -58.5t-37 -42t-30 -27.5l-12 -9h-18q-1 8 -3.5 22t-13 49.5t-24.5 62.5t-39 49t-56 22q-29 0 -47.5 -17t-18.5 -43t25.5 -54t113.5 -104q111 -95 143.5 -135.5t32.5 -96.5
q0 -90 -70 -147.5t-219 -61.5l-12 -35q28 0 48 -18.5t20 -49.5q0 -38 -31 -66t-79 -28q-19 0 -35 5t-25.5 11.5t-16.5 13.5t-9 12l-3 5l27 23q10 -15 35 -15q19 0 31.5 10t12.5 26q0 27 -34 27z" />
    <glyph glyph-name="scedilla" unicode="&#x15f;" horiz-adv-x="494" 
d="M158 -81l22 69q-186 5 -186 102q0 16 4.5 30.5t9.5 21.5l5 7q63 15 164 15l13 -15q-20 -21 -20 -56q0 -45 45 -45q28 0 45 15.5t17 34.5q0 23 -27 41.5t-94 48.5q-29 13 -46 23.5t-36 27t-28 39.5t-9 54q0 75 60.5 117.5t189.5 42.5q191 0 191 -101q0 -15 -4 -28t-8 -19
l-4 -5q-61 -15 -163 -15l-11 15q15 16 15 50q0 43 -36 43q-23 0 -36 -13.5t-13 -31.5q0 -22 24.5 -41t89.5 -53q69 -38 99 -68.5t30 -80.5q0 -66 -55 -107.5t-169 -47.5l-12 -36q28 0 48 -18.5t20 -49.5q0 -38 -31 -66t-79 -28q-19 0 -35 5t-25.5 11.5t-16.5 13.5t-10 12
l-2 5l27 23q10 -15 35 -15q19 0 31.5 10t12.5 26q0 27 -34 27z" />
    <glyph glyph-name="Scaron" unicode="&#x160;" horiz-adv-x="620" 
d="M336 647q-29 0 -47.5 -17t-18.5 -43t25.5 -54t113.5 -104q111 -95 143.5 -135.5t32.5 -96.5q0 -94 -75.5 -151.5t-236.5 -57.5q-59 0 -109 8t-79.5 20t-50.5 24t-29 20l-8 8q5 36 21 70t34.5 57.5t36.5 42t30 26.5l12 9h20l2.5 -12.5t8 -30.5t14.5 -44t21.5 -46
t28.5 -43.5t36.5 -31t44.5 -12.5q33 0 56.5 20t23.5 47q0 30 -33 61.5t-119 93.5q-88 63 -122.5 108t-34.5 111q0 101 77.5 159.5t231.5 58.5q49 0 92 -6.5t68.5 -15.5t44.5 -18t26 -16l8 -6q-6 -36 -22 -71t-35 -58.5t-37 -42t-30 -27.5l-12 -9h-18q-1 8 -3.5 22t-13 49.5
t-24.5 62.5t-39 49t-56 22zM587 945l8 -10l-183 -190h-48l-124 190l12 10h66l90 -76l113 76h66z" />
    <glyph glyph-name="scaron" unicode="&#x161;" horiz-adv-x="494" 
d="M218 387q0 -22 24.5 -41t89.5 -53q69 -38 99 -68.5t30 -80.5q0 -71 -64 -113.5t-196 -42.5q-207 0 -207 102q0 16 4.5 30.5t9.5 21.5l5 7q63 15 164 15l13 -15q-20 -21 -20 -56q0 -45 45 -45q28 0 45 15.5t17 34.5q0 23 -27 41.5t-94 48.5q-29 13 -46 23.5t-36 27
t-28 39.5t-9 54q0 75 60.5 117.5t189.5 42.5q191 0 191 -101q0 -15 -4 -28t-8 -19l-4 -5q-61 -15 -163 -15l-11 15q15 16 15 50q0 43 -36 43q-23 0 -36 -13.5t-13 -31.5zM469 744l8 -9l-183 -190h-48l-124 190l12 9h66l90 -75l114 75h65z" />
    <glyph glyph-name="Tcommaaccent" unicode="&#x162;" horiz-adv-x="689" 
d="M507 621l-98 -621h-209l99 621h-41q-49 0 -91.5 -10t-60.5 -20l-19 -10l-13 15l17 104h649l-17 -104l-17 -15q-6 4 -17 11t-52 18t-90 11h-40zM204 -262l-14 17q7 7 17 20.5t27 55t17 82.5l-4 41l6 6q31 0 59 -3.5t40 -7.5l13 -4q2 -7 2 -21q0 -36 -17 -68.5t-41 -53
t-47.5 -36t-40.5 -22.5z" />
    <glyph glyph-name="tcommaaccent" unicode="&#x163;" horiz-adv-x="404" 
d="M30 410l8 50l97 47l59 118h138l-23 -145h121l-11 -70h-120l-42 -257q-11 -66 50 -66q14 0 25.5 3.5t16.5 7.5l5 3l24 -27q-3 -3 -8.5 -9t-24 -21t-39.5 -26t-54.5 -20.5t-68.5 -9.5q-74 0 -106.5 36.5t-21.5 102.5l45 283h-70zM87 -262l-14 17q7 7 17 20.5t27 55t17 82.5
l-4 41l6 6q31 0 59 -3.5t41 -7.5l12 -4q2 -7 2 -21q0 -36 -17 -68.5t-41 -53t-47.5 -36t-40.5 -22.5z" />
    <glyph glyph-name="Tcaron" unicode="&#x164;" horiz-adv-x="689" 
d="M507 621l-98 -621h-209l99 621h-41q-49 0 -91.5 -10t-60.5 -20l-19 -10l-13 15l17 104h649l-17 -104l-17 -15q-6 4 -17 11t-52 18t-90 11h-40zM622 944l8 -9l-184 -190h-47l-124 190l12 9h66l89 -75l114 75h66z" />
    <glyph glyph-name="tcaron" unicode="&#x165;" horiz-adv-x="490" 
d="M30 410l8 50l97 47l59 118h138l-23 -145h121l-11 -70h-120l-42 -257q-11 -66 50 -66q14 0 25.5 3.5t16.5 7.5l5 3l24 -27q-3 -3 -8.5 -9t-24 -21t-39.5 -26t-54.5 -20.5t-68.5 -9.5q-74 0 -106.5 36.5t-21.5 102.5l45 283h-70zM384 541l-14 16q7 7 17 20.5t27 55t17 82.5
l-4 41l6 6q31 0 59 -4t40 -8l13 -3q2 -7 2 -21q0 -36 -17 -68t-41 -52.5t-47.5 -36t-40.5 -21.5z" />
    <glyph glyph-name="Tbar" unicode="&#x166;" horiz-adv-x="689" 
d="M150 325l13 80h101l35 216h-41q-49 0 -91.5 -10t-60.5 -20l-19 -10l-13 15l17 104h649l-17 -104l-17 -15q-6 4 -17 11t-52 18t-90 11h-40l-34 -216h100l-13 -80h-100l-51 -325h-209l52 325h-102z" />
    <glyph glyph-name="tbar" unicode="&#x167;" horiz-adv-x="404" 
d="M5 255l11 70h70l14 85h-70l7 50l98 47l59 118h138l-23 -145h121l-11 -70h-120l-14 -85h120l-11 -70h-121l-16 -102q-11 -66 50 -66q14 0 25.5 3.5t16.5 7.5l5 3l23 -27q-3 -3 -8 -9t-24 -21t-39.5 -26t-54 -20.5t-68.5 -9.5q-74 0 -106.5 36.5t-21.5 102.5l20 128h-70z
" />
    <glyph glyph-name="Utilde" unicode="&#x168;" horiz-adv-x="706" 
d="M561 251l71 449h89l-71 -446q-19 -122 -108.5 -194t-230.5 -72q-142 0 -208.5 72t-47.5 194l71 446h209l-76 -480q-11 -69 22 -109t97 -40q70 0 119.5 47t63.5 133zM419 882q26 0 54 -18.5t49 -18.5t42.5 10t32.5 20l11 10l23 -28q-2 -4 -6.5 -11.5t-19.5 -26.5
t-31 -33.5t-40.5 -26.5t-49.5 -12q-26 0 -53.5 18.5t-49.5 18.5q-21 0 -42.5 -10t-32.5 -20l-11 -10l-24 28q2 4 6.5 11.5t19.5 26.5t31.5 33.5t41 26.5t49.5 12z" />
    <glyph glyph-name="utilde" unicode="&#x169;" horiz-adv-x="585" 
d="M92 480h184q-3 -80 -19 -180l-28 -176q-4 -23 10 -23q16 0 40 33.5t40 67.5l16 33l36 230l15 15h185l-48 -300q-7 -44 -7.5 -85.5t2.5 -60.5l4 -19l-15 -15h-183q-2 4 -5 11.5t-6.5 28t-0.5 37.5l4 23l-4 5q-2 -5 -6 -13t-19.5 -28t-34 -35.5t-51.5 -28t-71 -12.5
q-63 0 -86 33.5t-12 102.5l28 176q7 44 11.5 85.5t5.5 60.5l1 19zM310 682q26 0 54 -18.5t50 -18.5q20 0 41.5 10t32.5 20l11 10l23 -28q-2 -4 -6.5 -11.5t-19.5 -26.5t-31 -33.5t-40.5 -26.5t-49.5 -12q-26 0 -53.5 18.5t-49.5 18.5q-21 0 -42.5 -10t-32.5 -20l-11 -10
l-24 28q2 4 6.5 11.5t19.5 26.5t31.5 33.5t41 26.5t49.5 12z" />
    <glyph glyph-name="Umacron" unicode="&#x16a;" horiz-adv-x="706" 
d="M561 251l71 449h89l-71 -446q-19 -122 -108.5 -194t-230.5 -72q-142 0 -208.5 72t-47.5 194l71 446h209l-76 -480q-11 -69 22 -109t97 -40q70 0 119.5 47t63.5 133zM299 780l13 80h294l-13 -80h-294z" />
    <glyph glyph-name="umacron" unicode="&#x16b;" horiz-adv-x="585" 
d="M92 480h184q-3 -80 -19 -180l-28 -176q-4 -23 10 -23q16 0 40 33.5t40 67.5l16 33l36 230l15 15h185l-48 -300q-7 -44 -7.5 -85.5t2.5 -60.5l4 -19l-15 -15h-183q-2 4 -5 11.5t-6.5 28t-0.5 37.5l4 23l-4 5q-2 -5 -6 -13t-19.5 -28t-34 -35.5t-51.5 -28t-71 -12.5
q-63 0 -86 33.5t-12 102.5l28 176q7 44 11.5 85.5t5.5 60.5l1 19zM188 580l13 80h294l-13 -80h-294z" />
    <glyph glyph-name="Ubreve" unicode="&#x16c;" horiz-adv-x="706" 
d="M561 251l71 449h89l-71 -446q-19 -122 -108.5 -194t-230.5 -72q-142 0 -208.5 72t-47.5 194l71 446h209l-76 -480q-11 -69 22 -109t97 -40q70 0 119.5 47t63.5 133zM291 868l32 28q6 -6 16 -15t45 -23.5t72 -14.5t74 13.5t56 26.5l18 13l24 -28q-2 -5 -7 -13.5t-22 -29.5
t-36.5 -37t-52.5 -29.5t-69 -13.5q-37 0 -66 12.5t-44 30.5t-25 36.5t-12 31.5z" />
    <glyph glyph-name="ubreve" unicode="&#x16d;" horiz-adv-x="585" 
d="M92 480h184q-3 -80 -19 -180l-28 -176q-4 -23 10 -23q16 0 40 33.5t40 67.5l16 33l36 230l15 15h185l-48 -300q-7 -44 -7.5 -85.5t2.5 -60.5l4 -19l-15 -15h-183q-2 4 -5 11.5t-6.5 28t-0.5 37.5l4 23l-4 5q-2 -5 -6 -13t-19.5 -28t-34 -35.5t-51.5 -28t-71 -12.5
q-63 0 -86 33.5t-12 102.5l28 176q7 44 11.5 85.5t5.5 60.5l1 19zM174 668l32 28q6 -6 16 -15t45 -23.5t72 -14.5t74 13.5t55 26.5l19 13l24 -28q-2 -5 -7 -13.5t-22 -29.5t-36.5 -37t-52.5 -29.5t-69 -13.5q-37 0 -66 12.5t-44 30.5t-25 36.5t-13 31.5z" />
    <glyph glyph-name="Uring" unicode="&#x16e;" horiz-adv-x="706" 
d="M561 251l71 449h89l-71 -446q-19 -122 -108.5 -194t-230.5 -72q-142 0 -208.5 72t-47.5 194l71 446h209l-76 -480q-11 -69 22 -109t97 -40q70 0 119.5 47t63.5 133zM354 826q0 49 34 82.5t84 33.5q40 0 63 -23t23 -63q0 -50 -33.5 -83t-83.5 -33q-40 0 -63.5 23t-23.5 63
zM426 836q0 -26 26 -26q15 0 25 10t10 25q0 27 -26 27q-16 0 -25.5 -10.5t-9.5 -25.5z" />
    <glyph glyph-name="uring" unicode="&#x16f;" horiz-adv-x="585" 
d="M92 480h184q-3 -80 -19 -180l-28 -176q-4 -23 10 -23q16 0 40 33.5t40 67.5l16 33l36 230l15 15h185l-48 -300q-7 -44 -7.5 -85.5t2.5 -60.5l4 -19l-15 -15h-183q-2 4 -5 11.5t-6.5 28t-0.5 37.5l4 23l-4 5q-2 -5 -6 -13t-19.5 -28t-34 -35.5t-51.5 -28t-71 -12.5
q-63 0 -86 33.5t-12 102.5l28 176q7 44 11.5 85.5t5.5 60.5l1 19zM240 626q0 49 34 82.5t84 33.5q40 0 63 -23t23 -63q0 -50 -33.5 -83t-83.5 -33q-40 0 -63.5 23t-23.5 63zM312 636q0 -26 26 -26q15 0 25 10t10 25q0 27 -26 27q-16 0 -25.5 -10.5t-9.5 -25.5z" />
    <glyph glyph-name="Uhungarumlaut" unicode="&#x170;" horiz-adv-x="706" 
d="M561 251l71 449h89l-71 -446q-19 -122 -108.5 -194t-230.5 -72q-142 0 -208.5 72t-47.5 194l71 446h209l-76 -480q-11 -69 22 -109t97 -40q70 0 119.5 47t63.5 133zM280 750l-8 10l94 190q48 0 85.5 -7.5t50.5 -14.5l14 -8l-1 -10l-180 -160h-55zM468 750l-8 10l116 190
q48 0 84 -7.5t48 -14.5l11 -8l-1 -10l-194 -160h-56z" />
    <glyph glyph-name="uhungarumlaut" unicode="&#x171;" horiz-adv-x="585" 
d="M92 480h184q-3 -80 -19 -180l-28 -176q-4 -23 10 -23q16 0 40 33.5t40 67.5l16 33l36 230l15 15h185l-48 -300q-7 -44 -7.5 -85.5t2.5 -60.5l4 -19l-15 -15h-183q-2 4 -5 11.5t-6.5 28t-0.5 37.5l4 23l-4 5q-2 -5 -6 -13t-19.5 -28t-34 -35.5t-51.5 -28t-71 -12.5
q-63 0 -86 33.5t-12 102.5l28 176q7 44 11.5 85.5t5.5 60.5l1 19zM157 550l-8 10l94 189q48 0 85.5 -7.5t51.5 -14.5l14 -7l-1 -10l-181 -160h-55zM345 550l-8 10l116 189q48 0 83.5 -7.5t47.5 -14.5l12 -7l-1 -10l-194 -160h-56z" />
    <glyph glyph-name="Uogonek" unicode="&#x172;" horiz-adv-x="706" 
d="M561 251l71 449h89l-71 -446q-16 -98 -77.5 -165t-160.5 -90q-5 -3 -16 -16.5t-24 -40t-13 -49.5q0 -36 35 -36l26 5l24 -28q-3 -5 -10 -12t-30 -18.5t-49 -11.5q-39 0 -66 21.5t-27 63.5q0 68 72 112q-8 -1 -23 -1q-142 0 -208.5 72t-47.5 194l71 446h209l-76 -480
q-11 -69 22 -109t97 -40q70 0 119.5 47t63.5 133z" />
    <glyph glyph-name="uogonek" unicode="&#x173;" horiz-adv-x="585" 
d="M92 480h184q-3 -80 -19 -180l-28 -176q-4 -23 10 -23q16 0 40 33.5t40 67.5l16 33l36 230l15 15h185l-48 -300q-7 -44 -7.5 -85.5t2.5 -60.5l4 -19l-15 -15h-19q-6 -6 -15 -16.5t-24 -38.5t-15 -52q0 -36 35 -36l26 5l24 -28q-3 -5 -10 -12t-30 -18.5t-49 -11.5
q-39 0 -66 21.5t-27 63.5q0 38 23.5 68.5t47.5 42.5l23 12h-107q-2 4 -5 11.5t-6.5 28t-0.5 37.5l4 23l-4 5q-2 -5 -6 -13t-19.5 -28t-34 -35.5t-51.5 -28t-71 -12.5q-63 0 -86 33.5t-12 102.5l28 176q7 44 11.5 85.5t5.5 60.5l1 19z" />
    <glyph glyph-name="Wcircumflex" unicode="&#x174;" horiz-adv-x="1083" 
d="M644 26l-60 346l-175 -372h-153l-23 26l-104 494q-10 49 -24 90t-23 58l-9 16l3 16h234l103 -494l145 315q-8 48 -20 89t-20 58l-8 16l3 16h235l79 -481l224 481h98l-333 -700h-150zM822 760l-12 -10h-65l-90 76l-114 -76h-65l-8 10l183 190h48z" />
    <glyph glyph-name="wcircumflex" unicode="&#x175;" horiz-adv-x="797" 
d="M435 26l-21 135q-33 -55 -104 -161h-128l-24 26l-62 274q-12 50 -28.5 92.5t-27.5 59.5l-11 18l10 10h207l71 -307q52 95 67 169q-8 38 -20 70t-20 45l-7 13l10 10h197l51 -307q71 125 68 225q0 23 -3.5 41t-6.5 25l-3 6l10 10h133q6 -12 7 -41q4 -138 -217 -439h-125z
M636 560l-12 -10h-66l-90 76l-113 -76h-66l-8 10l183 189h48z" />
    <glyph glyph-name="Ycircumflex" unicode="&#x176;" horiz-adv-x="697" 
d="M762 700l-286 -369l-52 -331h-208l49 316l-78 172q-24 54 -52.5 103t-44.5 71l-17 22l3 16h257l119 -260l201 260h109zM615 760l-11 -10h-66l-90 76l-114 -76h-65l-8 10l183 190h48z" />
    <glyph glyph-name="ycircumflex" unicode="&#x177;" horiz-adv-x="532" 
d="M-27 -262q-18 0 -36.5 4.5t-28.5 9.5l-9 4q0 51 13.5 94.5t26.5 61.5l13 18q32 -18 73 -18q65 0 144 63l-76 325q-12 51 -26.5 93.5t-23.5 59.5l-9 17l10 10h207l64 -336q84 139 84 260q0 21 -2.5 37.5t-5.5 22.5l-3 6l10 10h132q7 -13 7 -36q0 -60 -58.5 -178
t-141.5 -235t-185 -205t-179 -88zM504 560l-12 -10h-66l-89 76l-114 -76h-66l-8 10l184 189h47z" />
    <glyph glyph-name="Ydieresis" unicode="&#x178;" horiz-adv-x="697" 
d="M762 700l-286 -369l-52 -331h-208l49 316l-78 172q-24 54 -52.5 103t-44.5 71l-17 22l3 16h257l119 -260l201 260h109zM255 816q0 40 27.5 66t67.5 26q33 0 52 -18.5t19 -50.5q0 -40 -27 -67t-68 -27q-33 0 -52 19t-19 52zM476 816q0 40 27 66t68 26q33 0 51.5 -18.5
t18.5 -50.5q0 -40 -26.5 -67t-67.5 -27q-34 0 -52.5 19t-18.5 52z" />
    <glyph glyph-name="Zacute" unicode="&#x179;" horiz-adv-x="658" 
d="M-4 35l427 586h-150q-49 0 -91.5 -10t-61.5 -20l-18 -10l-12 15l16 104h594l-6 -35l-426 -586h157q49 0 91.5 10t61.5 20l18 10l13 -15l-17 -104h-602zM344 750l-8 10l99 190q48 0 86 -7.5t51 -14.5l14 -8l-1 -10l-185 -160h-56z" />
    <glyph glyph-name="zacute" unicode="&#x17a;" horiz-adv-x="498" 
d="M-14 35l263 370h-20q-49 0 -91.5 -9.5t-61.5 -19.5l-18 -10l-12 15l15 99h449l-6 -35l-264 -371h29q49 0 91.5 10t61.5 20l18 10l13 -15l-16 -99h-457zM213 550l-8 10l99 189q48 0 85.5 -7.5t50.5 -14.5l14 -7l-1 -10l-185 -160h-55z" />
    <glyph glyph-name="Zdotaccent" unicode="&#x17b;" horiz-adv-x="658" 
d="M-4 35l427 586h-150q-49 0 -91.5 -10t-61.5 -20l-18 -10l-12 15l16 104h594l-6 -35l-426 -586h157q49 0 91.5 10t61.5 20l18 10l13 -15l-17 -104h-602zM329 824q0 45 30 74.5t76 29.5q37 0 58 -20.5t21 -57.5q0 -45 -30.5 -74.5t-75.5 -29.5q-37 0 -58 21t-21 57z" />
    <glyph glyph-name="zdotaccent" unicode="&#x17c;" horiz-adv-x="498" 
d="M-14 35l263 370h-20q-49 0 -91.5 -9.5t-61.5 -19.5l-18 -10l-12 15l15 99h449l-6 -35l-264 -371h29q49 0 91.5 10t61.5 20l18 10l13 -15l-16 -99h-457zM206 604q0 45 30 74.5t76 29.5q37 0 58 -20.5t21 -57.5q0 -45 -30 -74.5t-76 -29.5q-37 0 -58 21t-21 57z" />
    <glyph glyph-name="Zcaron" unicode="&#x17d;" horiz-adv-x="658" 
d="M-4 35l427 586h-150q-49 0 -91.5 -10t-61.5 -20l-18 -10l-12 15l16 104h594l-6 -35l-426 -586h157q49 0 91.5 10t61.5 20l18 10l13 -15l-17 -104h-602zM606 945l8 -10l-183 -190h-48l-123 190l11 10h66l90 -76l114 76h65z" />
    <glyph glyph-name="zcaron" unicode="&#x17e;" horiz-adv-x="498" 
d="M-14 35l263 370h-20q-49 0 -91.5 -9.5t-61.5 -19.5l-18 -10l-12 15l15 99h449l-6 -35l-264 -371h29q49 0 91.5 10t61.5 20l18 10l13 -15l-16 -99h-457zM468 744l8 -9l-183 -190h-48l-123 190l12 9h65l90 -75l114 75h65z" />
    <glyph glyph-name="uni018F" unicode="&#x18f;" horiz-adv-x="737" 
d="M32 218q0 32 6 59.5t12 39.5l7 12l17 15h418q2 32 2 49q0 108 -38.5 154.5t-122.5 46.5q-53 0 -106 -16t-79 -32l-26 -17l-26 29q4 6 12 16.5t36.5 37t62 47t89 37t117.5 16.5q145 0 230 -84.5t85 -226.5q0 -175 -123 -294t-305 -119q-129 0 -198.5 63t-69.5 167zM307 53
q58 0 106.5 61t68.5 159l-245 -20q-7 -40 -7 -77q0 -123 77 -123z" />
    <glyph glyph-name="florin" unicode="&#x192;" horiz-adv-x="404" 
d="M42 -20l76 432h-71l9 50l75 23l16 92q16 91 69 139.5t140 48.5q49 0 85 -15.5t47 -30.5l12 -15l-33 -28q-13 12 -39 12q-63 0 -80 -96l-20 -112h120l-12 -70h-120l-64 -361q-11 -62 -47 -117t-79.5 -89.5t-85.5 -60t-70 -36.5l-28 -11l-23 28q11 10 28.5 29t51 75.5
t43.5 112.5z" />
    <glyph glyph-name="uni01DD" unicode="&#x1dd;" horiz-adv-x="518" 
d="M57 356l-23 28q3 4 9 11.5t27.5 26t46.5 33t66.5 26t87.5 11.5q107 0 167 -58.5t60 -158.5q0 -127 -92 -207t-234 -80q-88 0 -132 31t-44 80q0 67 76 115.5t202 55.5q-1 69 -21 96t-68 27q-32 0 -64 -9.5t-48 -18.5zM194 48q26 0 47.5 45t29.5 115q-102 -16 -102 -114
q0 -46 25 -46z" />
    <glyph glyph-name="Aringacute" unicode="&#x1fa;" horiz-adv-x="720" 
d="M160 171l-90 -171h-100l337 628l-26 57l3 15h57q-5 12 -5 33q0 47 31 79.5t78 35.5l71 136q48 0 86 -7.5t52 -14.5l13 -8l-1 -10l-144 -125q18 -23 18 -56q0 -43 -27 -75l157 -688h-214l-39 171h-257zM340 514l-139 -265h199zM407 743q0 -26 27 -26q15 0 25 10t10 25
q0 27 -26 27q-16 0 -26 -10.5t-10 -25.5z" />
    <glyph glyph-name="aringacute" unicode="&#x1fb;" horiz-adv-x="585" 
d="M564 441l-42 -261q-7 -44 -7.5 -85.5t3.5 -60.5l3 -19l-15 -15h-183q-2 4 -5 11.5t-6.5 28t-0.5 37.5l4 23l-4 5q-2 -5 -6.5 -13t-20 -28t-33 -35.5t-46 -28t-59.5 -12.5q-64 0 -99.5 50t-35.5 131q0 139 102 231t272 92q61 0 106 -13t59 -25zM260 596q0 50 33.5 83
t83.5 33l70 133q48 0 86 -7.5t51 -15.5l14 -7l-1 -10l-147 -127q14 -22 14 -52q0 -50 -33.5 -83t-83.5 -33q-40 0 -63.5 23t-23.5 63zM225 160q0 -59 16 -59q12 0 35.5 33.5t40.5 67.5l17 33l27 174q-3 21 -24 21q-40 0 -76 -87.5t-36 -182.5zM332 606q0 -26 26 -26
q15 0 25 10t10 25q0 27 -26 27q-16 0 -25.5 -10.5t-9.5 -25.5z" />
    <glyph glyph-name="AEacute" unicode="&#x1fc;" horiz-adv-x="852" 
d="M-30 0l410 700h498l-17 -104l-17 -15q-6 4 -17 11t-52 18t-90 11h-91l-35 -221h196l9 -10l-11 -70h-206l-38 -241h101q49 0 91.5 10t60.5 20l19 10l13 -15l-17 -104h-489l31 195h-137l-112 -195h-100zM431 750l-8 10l99 190q48 0 86 -7.5t52 -14.5l13 -8l-1 -10
l-185 -160h-56zM227 274h104l40 250z" />
    <glyph glyph-name="aeacute" unicode="&#x1fd;" horiz-adv-x="805" 
d="M748 124l24 -28q-3 -4 -9 -11.5t-27.5 -26t-46.5 -33t-66.5 -26t-87.5 -11.5q-126 0 -188 77q-92 -77 -214 -77q-134 0 -134 107q0 60 53.5 103t200.5 65l56 8l3 12l17 104q8 45 -31 45q-56 0 -56 -79l4 -38l-17 -15q-45 0 -84.5 4t-56.5 8l-18 3q-7 15 -7 38
q0 65 66.5 102t175.5 37q106 0 149 -40q75 40 175 40q87 0 131 -31t44 -80q0 -67 -76.5 -116t-201.5 -56q1 -68 23.5 -95t71.5 -27q32 0 63.5 9.5t47.5 18.5zM385 550l-8 10l99 189q48 0 86 -7.5t52 -14.5l13 -7l-1 -10l-185 -160h-56zM607 432q-27 0 -49 -46t-29 -115
q103 17 103 115q0 46 -25 46zM210 135q0 -43 40 -43q33 0 66 27q-14 40 -14 87l-37 -6q-26 -4 -40.5 -22.5t-14.5 -42.5z" />
    <glyph glyph-name="Oslashacute" unicode="&#x1fe;" horiz-adv-x="799" 
d="M186 -25h-92l55 76q-109 83 -109 247q0 176 123.5 295t306.5 119q83 0 146 -27l29 40h91l-56 -76q110 -84 110 -247q0 -176 -123.5 -295t-305.5 -119q-81 0 -147 26zM263 261q0 -37 2 -53l279 379q-26 60 -84 60q-84 0 -140.5 -110t-56.5 -276zM566 439q0 20 -2 52
l-278 -380q26 -58 84 -58q84 0 140 110t56 276zM405 750l-8 10l99 190q48 0 86 -7.5t52 -14.5l13 -8l-1 -10l-185 -160h-56z" />
    <glyph glyph-name="oslashacute" unicode="&#x1ff;" horiz-adv-x="579" 
d="M43 -1l38 44q-67 59 -67 163q0 122 90 204t222 82q70 0 119 -24l30 34l50 -31l-30 -36q66 -60 66 -161q0 -122 -89.5 -204t-221.5 -82q-68 0 -119 23l-37 -43zM252 550l-8 10l99 189q48 0 85.5 -7.5t51.5 -14.5l14 -7l-1 -10l-185 -160h-56zM315 432q-30 0 -53 -64.5
t-32 -151.5l119 140q-3 76 -34 76zM260 48q30 0 53 64t32 149l-119 -139q4 -74 34 -74z" />
    <glyph glyph-name="Scommaaccent" unicode="&#x218;" horiz-adv-x="620" 
d="M336 647q-29 0 -47.5 -17t-18.5 -43t25.5 -54t113.5 -104q111 -95 143.5 -135.5t32.5 -96.5q0 -94 -75.5 -151.5t-236.5 -57.5q-59 0 -109 8t-79.5 20t-50.5 24t-29 20l-8 8q5 36 21 70t34.5 57.5t36.5 42t30 26.5l12 9h20l2.5 -12.5t8 -30.5t14.5 -44t21.5 -46
t28.5 -43.5t36.5 -31t44.5 -12.5q33 0 56.5 20t23.5 47q0 30 -33 61.5t-119 93.5q-88 63 -122.5 108t-34.5 111q0 101 77.5 159.5t231.5 58.5q49 0 92 -6.5t68.5 -15.5t44.5 -18t26 -16l8 -6q-6 -36 -22 -71t-35 -58.5t-37 -42t-30 -27.5l-12 -9h-18q-1 8 -3.5 22t-13 49.5
t-24.5 62.5t-39 49t-56 22zM165 -262l-14 17q7 7 17 20.5t27 55t17 82.5l-4 41l6 6q31 0 59 -3.5t41 -7.5l12 -4q2 -7 2 -21q0 -36 -17 -68.5t-41 -53t-47.5 -36t-40.5 -22.5z" />
    <glyph glyph-name="scommaaccent" unicode="&#x219;" horiz-adv-x="494" 
d="M218 387q0 -22 24.5 -41t89.5 -53q69 -38 99 -68.5t30 -80.5q0 -71 -64 -113.5t-196 -42.5q-207 0 -207 102q0 16 4.5 30.5t9.5 21.5l5 7q63 15 164 15l13 -15q-20 -21 -20 -56q0 -45 45 -45q28 0 45 15.5t17 34.5q0 23 -27 41.5t-94 48.5q-29 13 -46 23.5t-36 27
t-28 39.5t-9 54q0 75 60.5 117.5t189.5 42.5q191 0 191 -101q0 -15 -4 -28t-8 -19l-4 -5q-61 -15 -163 -15l-11 15q15 16 15 50q0 43 -36 43q-23 0 -36 -13.5t-13 -31.5zM114 -262l-14 17q7 7 17 20.5t27 55t17 82.5l-4 41l6 6q31 0 59 -3.5t40 -7.5l13 -4q2 -7 2 -21
q0 -36 -17 -68.5t-40.5 -53t-47.5 -36t-41 -22.5z" />
    <glyph glyph-name="uni021A" unicode="&#x21a;" horiz-adv-x="689" 
d="M507 621l-98 -621h-209l99 621h-41q-49 0 -91.5 -10t-60.5 -20l-19 -10l-13 15l17 104h649l-17 -104l-17 -15q-6 4 -17 11t-52 18t-90 11h-40zM204 -262l-14 17q7 7 17 20.5t27 55t17 82.5l-4 41l6 6q31 0 59 -3.5t40 -7.5l13 -4q2 -7 2 -21q0 -36 -17 -68.5t-41 -53
t-47.5 -36t-40.5 -22.5z" />
    <glyph glyph-name="uni021B" unicode="&#x21b;" horiz-adv-x="404" 
d="M30 410l8 50l97 47l59 118h138l-23 -145h121l-11 -70h-120l-42 -257q-11 -66 50 -66q14 0 25.5 3.5t16.5 7.5l5 3l24 -27q-3 -3 -8.5 -9t-24 -21t-39.5 -26t-54.5 -20.5t-68.5 -9.5q-74 0 -106.5 36.5t-21.5 102.5l45 283h-70zM87 -262l-14 17q7 7 17 20.5t27 55t17 82.5
l-4 41l6 6q31 0 59 -3.5t41 -7.5l12 -4q2 -7 2 -21q0 -36 -17 -68.5t-41 -53t-47.5 -36t-40.5 -22.5z" />
    <glyph glyph-name="dotlessj" unicode="&#x237;" horiz-adv-x="294" 
d="M7 -20l52 320q7 44 12 85.5t6 60.5l1 19l14 15h184q-3 -80 -19 -180l-41 -251q-10 -62 -45 -117t-78 -89.5t-84.5 -60t-69.5 -36.5l-28 -11l-24 28q11 10 28 29t50 75.5t42 112.5z" />
    <glyph glyph-name="circumflex" unicode="&#x2c6;" horiz-adv-x="425" 
d="M439 560l-12 -10h-66l-90 76l-113 -76h-66l-8 10l183 189h48z" />
    <glyph glyph-name="caron" unicode="&#x2c7;" horiz-adv-x="425" 
d="M458 744l7 -9l-183 -190h-47l-124 190l12 9h65l90 -75l114 75h66z" />
    <glyph glyph-name="breve" unicode="&#x2d8;" horiz-adv-x="437" 
d="M116 668l32 28q5 -6 15.5 -15t45 -23.5t71.5 -14.5t74.5 13.5t55.5 26.5l19 13l24 -28q-2 -5 -7 -13.5t-22 -29.5t-37 -37t-53 -29.5t-69 -13.5t-65 12.5t-44 30.5t-25 36.5t-13 31.5z" />
    <glyph glyph-name="dotaccent" unicode="&#x2d9;" horiz-adv-x="268" 
d="M99 604q0 45 30 74.5t76 29.5q37 0 58 -20.5t21 -57.5q0 -45 -30.5 -74.5t-75.5 -29.5q-37 0 -58 21t-21 57z" />
    <glyph glyph-name="ring" unicode="&#x2da;" horiz-adv-x="251" 
d="M85 626q0 49 34 82.5t84 33.5q40 0 63 -23t23 -63q0 -50 -33.5 -83t-83.5 -33q-40 0 -63.5 23t-23.5 63zM157 636q0 -26 26 -26q15 0 25 10t10 25q0 27 -26 27q-16 0 -25.5 -10.5t-9.5 -25.5z" />
    <glyph glyph-name="ogonek" unicode="&#x2db;" horiz-adv-x="253" 
d="M70 0h57q-6 -6 -15 -16.5t-24 -38.5t-15 -52q0 -36 35 -36l26 5l24 -28q-3 -5 -10 -12t-30 -18.5t-49 -11.5q-39 0 -66 21.5t-27 63.5q0 38 23.5 68.5t46.5 42.5z" />
    <glyph glyph-name="tilde" unicode="&#x2dc;" horiz-adv-x="437" 
d="M243 682q26 0 54 -18.5t50 -18.5q21 0 42.5 10t32.5 20l11 10l23 -28q-2 -4 -6.5 -11.5t-19.5 -26.5t-31.5 -33.5t-41 -26.5t-49.5 -12q-26 0 -53 18.5t-49 18.5q-21 0 -42.5 -10t-32.5 -20l-11 -10l-24 28q2 4 6.5 11.5t19.5 26.5t31 33.5t40.5 26.5t49.5 12z" />
    <glyph glyph-name="hungarumlaut" unicode="&#x2dd;" horiz-adv-x="522" 
d="M107 550l-8 10l94 189q48 0 85.5 -7.5t51.5 -14.5l14 -7l-1 -10l-180 -160h-56zM295 550l-8 10l116 189q48 0 83.5 -7.5t47.5 -14.5l12 -7l-1 -10l-194 -160h-56z" />
    <glyph glyph-name="uni0400" unicode="&#x400;" 
d="M16 0l111 700h488l-17 -104l-16 -15q-6 4 -17 11t-52 18t-90 11h-101l-35 -221h206l8 -10l-10 -70h-216l-38 -241h111q48 0 90.5 10t61.5 20l18 10l13 -15l-17 -104h-498zM477 760l-11 -10h-55l-134 160l2 10q51 30 159 30z" />
    <glyph glyph-name="afii10023" unicode="&#x401;" 
d="M16 0l111 700h488l-17 -104l-16 -15q-6 4 -17 11t-52 18t-90 11h-101l-35 -221h206l8 -10l-10 -70h-216l-38 -241h111q48 0 90.5 10t61.5 20l18 10l13 -15l-17 -104h-498zM418 816q0 40 27.5 66t68.5 26q32 0 51 -18.5t19 -50.5q0 -40 -27 -67t-67 -27q-34 0 -53 19
t-19 52zM198 816q0 40 27 66t68 26q33 0 51.5 -18.5t18.5 -50.5q0 -40 -26.5 -67t-67.5 -27q-33 0 -52 19t-19 52z" />
    <glyph glyph-name="afii10051" unicode="&#x402;" horiz-adv-x="894" 
d="M643 212l4 24q8 50 -17.5 75t-76.5 25q-55 0 -95 -24l-49 -312h-209l99 621h-41q-49 0 -91.5 -10t-60.5 -20l-19 -10l-13 15l17 104h649l-17 -104l-17 -15q-6 4 -17 11t-52 18t-90 11h-40l-35 -222q96 48 207 48q194 0 163 -196l-5 -32q-36 -231 -254 -231
q-52 0 -87 12.5t-44 25.5l-10 12q4 28 16.5 53.5t26.5 42.5t27 30t22 19l9 6h13v-5t0.5 -12l1 -18t1.5 -21.5t3 -23t4.5 -21t6 -18t8.5 -12.5t11 -5q9 0 16 12t15.5 47.5t19.5 99.5z" />
    <glyph glyph-name="afii10052" unicode="&#x403;" horiz-adv-x="559" 
d="M306 750l-8 10l99 190q48 0 85.5 -7.5t51.5 -14.5l13 -8l-1 -10l-185 -160h-55zM16 0l111 700h483l-17 -104l-16 -15q-6 4 -17 11t-52 18t-90 11h-96l-98 -621h-208z" />
    <glyph glyph-name="afii10053" unicode="&#x404;" horiz-adv-x="713" 
d="M464 647q-66 0 -117 -70.5t-67 -181.5h266l8 -10l-11 -70h-269v-7q0 -108 38.5 -155t121.5 -47q54 0 107 16t79 32l26 17l25 -30q-4 -6 -11.5 -16.5t-36 -37t-62 -46.5t-89 -36.5t-116.5 -16.5q-146 0 -231 84t-85 228q0 177 123.5 294.5t314.5 117.5q119 0 189 -47.5
t70 -123.5q0 -25 -7.5 -45.5t-15.5 -28.5l-7 -8q-73 -15 -189 -15l-12 15q29 35 29 100q0 88 -71 88z" />
    <glyph glyph-name="afii10054" unicode="&#x405;" horiz-adv-x="620" 
d="M336 647q-29 0 -47.5 -17t-18.5 -43t25.5 -54t113.5 -104q111 -95 143.5 -135.5t32.5 -96.5q0 -94 -75.5 -151.5t-236.5 -57.5q-59 0 -109 8t-79.5 20t-50.5 24t-29 20l-8 8q5 36 21 70t34.5 57.5t36.5 42t30 26.5l12 9h20l2.5 -12.5t8 -30.5t14.5 -44t21.5 -46
t28.5 -43.5t36.5 -31t44.5 -12.5q33 0 56.5 20t23.5 47q0 30 -33 61.5t-119 93.5q-88 63 -122.5 108t-34.5 111q0 101 77.5 159.5t231.5 58.5q49 0 92 -6.5t68.5 -15.5t44.5 -18t26 -16l8 -6q-6 -36 -22 -71t-35 -58.5t-37 -42t-30 -27.5l-12 -9h-18q-1 8 -3.5 22t-13 49.5
t-24.5 62.5t-39 49t-56 22z" />
    <glyph glyph-name="afii10055" unicode="&#x406;" horiz-adv-x="319" 
d="M16 0l111 700h208l-111 -700h-208z" />
    <glyph glyph-name="afii10056" unicode="&#x407;" horiz-adv-x="319" 
d="M55 796q0 40 27.5 66t68.5 26q32 0 51 -18.5t19 -50.5q0 -40 -27 -67t-67 -27q-34 0 -53 19t-19 52zM276 796q0 40 27.5 66t67.5 26q33 0 52 -18.5t19 -50.5q0 -40 -27 -67t-68 -27q-33 0 -52 19t-19 52zM16 0l111 700h208l-111 -700h-208z" />
    <glyph glyph-name="afii10057" unicode="&#x408;" horiz-adv-x="508" 
d="M238 212l77 488h208l-76 -481q-37 -231 -296 -231q-61 0 -106 12.5t-59 25.5l-15 12q5 34 19.5 66t31 54.5t32 40t26.5 25.5l10 9h13q0 -7 0.5 -19.5t5 -43.5t10.5 -54.5t19.5 -43t30.5 -19.5q22 0 38.5 35t30.5 124z" />
    <glyph glyph-name="afii10058" unicode="&#x409;" horiz-adv-x="1067" 
d="M2 167l17 14q23 -11 51 -11q152 0 152 431l-2 84l17 15h506l-46 -290h69q130 0 200.5 -47t70.5 -137q0 -104 -92 -165t-244 -61h-277l98 621h-182l-22 -140q-30 -186 -69.5 -296.5t-85 -153.5t-106.5 -43q-17 0 -33.5 3t-24.5 6l-8 3q-5 67 11 167zM819 226
q0 104 -99 104h-36l-40 -251h37q64 0 101 39.5t37 107.5z" />
    <glyph glyph-name="afii10059" unicode="&#x40a;" horiz-adv-x="1099" 
d="M456 0l51 325h-232l-51 -325h-208l111 700h208l-47 -295h232l47 295h208l-47 -295h68q130 0 201 -45.5t71 -135.5q0 -103 -91 -163.5t-245 -60.5h-276zM850 223q0 102 -99 102h-36l-39 -246h37q64 0 100.5 38.5t36.5 105.5z" />
    <glyph glyph-name="afii10060" unicode="&#x40b;" horiz-adv-x="894" 
d="M595 0l37 236q8 50 -15.5 75t-70.5 25q-44 0 -88 -24l-49 -312h-209l99 621h-41q-49 0 -91.5 -10t-60.5 -20l-19 -10l-13 15l17 104h649l-17 -104l-17 -15q-6 4 -17 11t-52 18t-90 11h-40l-35 -222q96 48 207 48q195 0 164 -196l-40 -251h-208z" />
    <glyph glyph-name="afii10061" unicode="&#x40c;" horiz-adv-x="706" 
d="M16 0l111 700h208l-46 -290h20l276 290h119l-245 -253l99 -249q20 -51 46 -96.5t42 -65.5l16 -21l-2 -15h-250l-130 330h-4l-52 -330h-208zM358 750l-8 10l99 190q48 0 86 -7.5t51 -14.5l14 -8l-1 -10l-186 -160h-55z" />
    <glyph glyph-name="uni040D" unicode="&#x40d;" horiz-adv-x="769" 
d="M194 0h-178l111 700h208l-74 -470l345 470h179l-111 -700h-208l74 471zM547 760l-11 -10h-55l-135 160l2 10q52 30 160 30z" />
    <glyph glyph-name="afii10062" unicode="&#x40e;" horiz-adv-x="664" 
d="M116 147l18 15q15 -11 60 -11q58 0 102 24l-156 396q-13 34 -29.5 63.5t-26.5 41.5l-10 13l2 11h248l123 -322l184 322h99l-277 -468q-82 -139 -139 -191.5t-136 -52.5q-20 0 -37 3t-25 6l-7 3q-7 55 7 147zM439 740q-75 0 -122.5 25t-47.5 67q0 12 3.5 23.5t7.5 16.5
l4 6q55 15 132 15l9 -11q-13 -18 -13 -37q0 -30 38 -30q49 0 49 45l-2 22l11 11q34 0 66 -3.5t47 -7.5l15 -4q3 -14 3 -27q0 -50 -57.5 -80.5t-142.5 -30.5z" />
    <glyph glyph-name="afii10145" unicode="&#x40f;" horiz-adv-x="769" 
d="M335 700l-99 -621h242l99 621h208l-111 -700h-243l-58 -195h-104l-13 15l1 180h-241l111 700h208z" />
    <glyph glyph-name="afii10017" unicode="&#x410;" horiz-adv-x="720" 
d="M160 171l-90 -171h-100l337 628l-26 57l3 15h227l159 -700h-214l-39 171h-257zM340 514l-139 -265h199z" />
    <glyph glyph-name="afii10018" unicode="&#x411;" horiz-adv-x="664" 
d="M16 0l111 700h509l-17 -104l-17 -15q-6 4 -17 11t-52 18t-90 11h-121l-31 -195h74q128 0 199.5 -48t71.5 -142q0 -108 -92 -172t-246 -64h-282zM418 236q0 110 -98 110h-41l-43 -267h42q64 0 102 42.5t38 114.5z" />
    <glyph glyph-name="afii10019" unicode="&#x412;" horiz-adv-x="679" 
d="M16 0l111 700h283q134 0 197 -38.5t63 -118.5q0 -65 -40 -110t-120 -66q140 -34 140 -157q0 -101 -83.5 -155.5t-251.5 -54.5h-299zM434 223q0 102 -100 102h-59l-39 -246h60q66 0 102 39t36 105zM454 530q0 91 -91 91h-41l-34 -216h41q60 0 92.5 33.5t32.5 91.5z" />
    <glyph glyph-name="afii10020" unicode="&#x413;" horiz-adv-x="559" 
d="M16 0l111 700h483l-17 -104l-16 -15q-6 4 -17 11t-52 18t-90 11h-96l-98 -621h-208z" />
    <glyph glyph-name="afii10021" unicode="&#x414;" horiz-adv-x="817" 
d="M148 0q-6 -9 -16 -24.5t-30 -62.5t-28 -93l-17 -15h-104l27 259l18 15h68h1q52 21 97 97q85 148 86 436l-1 73l18 15h516l-99 -621h81l11 -15l-54 -259h-104l-13 15q7 52 3.5 92t-11.5 64l-8 24h-441zM348 481q-48 -303 -133 -402h261l86 542h-192z" />
    <glyph glyph-name="afii10022" unicode="&#x415;" 
d="M16 0l111 700h488l-17 -104l-16 -15q-6 4 -17 11t-52 18t-90 11h-101l-35 -221h206l8 -10l-10 -70h-216l-38 -241h111q48 0 90.5 10t61.5 20l18 10l13 -15l-17 -104h-498z" />
    <glyph glyph-name="afii10024" unicode="&#x416;" horiz-adv-x="1032" 
d="M118 198l169 250l-158 252h118l174 -285h17l45 285h208l-46 -285h17l265 285h118l-239 -253l90 -249q18 -51 41 -96.5t37 -65.5l14 -21l-2 -15h-235l-118 335l-53 -335h-208l53 334l-224 -334h-236l2 15q73 69 151 183z" />
    <glyph glyph-name="afii10025" unicode="&#x417;" horiz-adv-x="636" 
d="M275 53q54 0 84.5 47t30.5 116q0 55 -23 79.5t-76 24.5h-60l-9 10l12 70h52q46 0 75 14t41 42.5t15 52t3 62.5q0 76 -53 76q-28 0 -58 -19.5t-53.5 -47.5t-42.5 -56.5t-29 -47.5l-11 -20h-20q-3 2 -8 6t-18.5 19t-20.5 33.5t-13.5 50t1.5 67.5q3 3 9 8.5t29 19.5t52 24.5
t79.5 19t108.5 8.5q258 0 258 -166q0 -138 -165 -184q72 -17 106.5 -53.5t34.5 -100.5q0 -105 -89.5 -162.5t-257.5 -57.5q-63 0 -113.5 8t-77.5 20t-45 24t-23 20l-6 8q5 36 19 67t30 50.5t31 33.5t25 19l10 6h19q1 -8 3.5 -21t13.5 -45.5t26 -58t42.5 -46t61.5 -20.5z" />
    <glyph glyph-name="afii10026" unicode="&#x418;" horiz-adv-x="769" 
d="M194 0h-178l111 700h208l-74 -470l345 470h179l-111 -700h-208l74 471z" />
    <glyph glyph-name="afii10027" unicode="&#x419;" horiz-adv-x="769" 
d="M194 0h-178l111 700h208l-74 -470l345 470h179l-111 -700h-208l74 471zM462 740q-75 0 -122 25t-47 68q0 11 3.5 22t7.5 17l4 6q55 15 132 15l9 -11q-13 -19 -13 -36q0 -31 38 -31q49 0 49 44l-2 23l11 11q34 0 66 -3.5t47 -7.5l15 -4q3 -13 3 -27q0 -50 -58 -80.5
t-143 -30.5z" />
    <glyph glyph-name="afii10028" unicode="&#x41a;" horiz-adv-x="706" 
d="M16 0l111 700h208l-46 -290h20l276 290h119l-245 -253l99 -249q20 -51 46 -96.5t42 -65.5l16 -21l-2 -15h-250l-130 330h-4l-52 -330h-208z" />
    <glyph glyph-name="afii10029" unicode="&#x41b;" horiz-adv-x="727" 
d="M2 167l17 14q23 -11 51 -11q152 0 152 431l-2 84l17 15h506l-111 -700h-208l98 621h-182l-22 -140q-30 -186 -69.5 -296.5t-85 -153.5t-106.5 -43q-17 0 -33.5 3t-24.5 6l-8 3q-5 67 11 167z" />
    <glyph glyph-name="afii10030" unicode="&#x41c;" horiz-adv-x="963" 
d="M670 0l31 536l-4 5l-233 -521h-137l-22 26l-74 495l-6 -5l-126 -536h-97l127 520q11 44 16 85t4 61l-1 19l18 15h253l64 -422l190 422h249l-37 -700h-215z" />
    <glyph glyph-name="afii10031" unicode="&#x41d;" horiz-adv-x="769" 
d="M466 0l50 320h-242l-50 -320h-208l111 700h208l-48 -300h242l48 300h208l-111 -700h-208z" />
    <glyph glyph-name="afii10032" unicode="&#x41e;" horiz-adv-x="799" 
d="M40 298q0 176 123.5 295t306.5 119q149 0 234.5 -83.5t85.5 -226.5q0 -176 -123.5 -295t-305.5 -119q-149 0 -235 83.5t-86 226.5zM267 259q0 -206 103 -206q83 0 138 111t55 277q0 206 -103 206q-83 0 -138 -111t-55 -277z" />
    <glyph glyph-name="afii10033" unicode="&#x41f;" horiz-adv-x="769" 
d="M466 0l98 621h-242l-98 -621h-208l111 700h658l-111 -700h-208z" />
    <glyph glyph-name="afii10034" unicode="&#x420;" horiz-adv-x="664" 
d="M16 0l111 700h282q128 0 199 -48t71 -140q0 -106 -92 -169t-245 -63h-74l-44 -280h-208zM363 621h-41l-41 -261h41q64 0 101.5 41.5t37.5 111.5q0 108 -98 108z" />
    <glyph glyph-name="afii10035" unicode="&#x421;" horiz-adv-x="713" 
d="M463 647q-78 0 -133.5 -99t-55.5 -241q0 -108 38.5 -154.5t122.5 -46.5q53 0 106 16t79 32l26 17l25 -30q-4 -6 -11.5 -16.5t-36 -37t-62 -46.5t-89 -36.5t-116.5 -16.5q-146 0 -231 84t-85 227q0 176 123 294.5t313 118.5q121 0 190 -51t69 -132q0 -27 -7.5 -49.5
t-15.5 -31.5l-8 -9q-73 -15 -189 -15l-12 15q31 40 31 113q0 95 -71 95z" />
    <glyph glyph-name="afii10036" unicode="&#x422;" horiz-adv-x="689" 
d="M507 621l-98 -621h-209l99 621h-41q-49 0 -91.5 -10t-60.5 -20l-19 -10l-13 15l17 104h649l-17 -104l-17 -15q-6 4 -17 11t-52 18t-90 11h-40z" />
    <glyph glyph-name="afii10037" unicode="&#x423;" horiz-adv-x="664" 
d="M116 147l18 15q15 -11 60 -11q58 0 102 24l-156 396q-13 34 -29.5 63.5t-26.5 41.5l-10 13l2 11h248l123 -322l184 322h99l-277 -468q-82 -139 -139 -191.5t-136 -52.5q-20 0 -37 3t-25 6l-7 3q-7 55 7 147z" />
    <glyph glyph-name="afii10038" unicode="&#x424;" horiz-adv-x="988" 
d="M350 0l11 68q-149 1 -236 70t-87 184q0 137 117 228t297 92l9 58h208l-9 -58q148 -1 235 -70t87 -185q0 -136 -117 -227t-296 -92l-11 -68h-208zM258 304q0 -169 113 -171l70 444q-82 -2 -132.5 -77.5t-50.5 -195.5zM762 406q0 168 -113 171l-70 -444q83 2 133 77.5
t50 195.5z" />
    <glyph glyph-name="afii10039" unicode="&#x425;" horiz-adv-x="721" 
d="M326 700l112 -231l197 231h118l-277 -311l92 -189q24 -49 51 -95.5t43 -68.5l15 -21l-2 -15h-249l-126 253l-222 -253h-108l291 332l-182 368h247z" />
    <glyph glyph-name="afii10040" unicode="&#x426;" horiz-adv-x="809" 
d="M16 0l111 700h208l-99 -621h232l99 621h208l-99 -621h81l12 -15l-65 -259h-104l-13 15q7 52 6 92t-7 64l-5 24h-565z" />
    <glyph glyph-name="afii10041" unicode="&#x427;" horiz-adv-x="714" 
d="M324 700l-37 -236q-9 -50 16.5 -75t75.5 -25q25 0 48.5 6.5t34.5 13.5l10 6l49 310h208l-111 -700h-208l48 303q-10 -6 -29 -14t-74.5 -22t-108.5 -14q-201 0 -170 196l40 251h208z" />
    <glyph glyph-name="afii10042" unicode="&#x428;" horiz-adv-x="1089" 
d="M16 0l111 700h208l-99 -621h176l99 621h208l-99 -621h177l99 621h208l-111 -700h-977z" />
    <glyph glyph-name="afii10043" unicode="&#x429;" horiz-adv-x="1138" 
d="M16 0l111 700h208l-99 -621h176l99 621h208l-99 -621h177l99 621h208l-99 -621h81l12 -15l-65 -259h-104l-13 15q7 52 6 92t-6 64l-6 24h-894z" />
    <glyph glyph-name="afii10044" unicode="&#x42a;" horiz-adv-x="828" 
d="M91 700h413l-46 -290h69q129 0 200 -47t71 -137q0 -104 -92 -165t-244 -61h-277l98 621h-25q-49 0 -91.5 -10t-60.5 -20l-19 -10l-13 15zM580 226q0 104 -99 104h-36l-40 -251h36q64 0 101.5 39.5t37.5 107.5z" />
    <glyph glyph-name="afii10045" unicode="&#x42b;" horiz-adv-x="963" 
d="M16 0l111 700h208l-46 -290h68q129 0 200.5 -47t71.5 -137q0 -103 -91.5 -164.5t-244.5 -61.5h-277zM659 0l111 700h208l-111 -700h-208zM410 226q0 104 -98 104h-36l-40 -251h37q63 0 100 39.5t37 107.5z" />
    <glyph glyph-name="afii10046" unicode="&#x42c;" horiz-adv-x="659" 
d="M16 0l111 700h208l-46 -290h68q129 0 200.5 -47t71.5 -137q0 -103 -91.5 -164.5t-244.5 -61.5h-277zM410 226q0 104 -98 104h-36l-40 -251h37q63 0 100 39.5t37 107.5z" />
    <glyph glyph-name="afii10047" unicode="&#x42d;" horiz-adv-x="713" 
d="M365 712q172 0 255.5 -80t83.5 -228q0 -87 -28 -161t-82.5 -131.5t-143.5 -90.5t-204 -33q-57 0 -103.5 8t-72.5 20t-43.5 24t-23.5 20l-6 8q5 36 19 67t30 50.5t31 33.5t25 19l10 6h19q1 -8 3 -21t12 -45.5t24.5 -58t42.5 -46t63 -20.5q69 0 120 71.5t70 190.5h-209
l-8 10l11 70h214q0 7 0.5 21t0.5 22q0 209 -101 209q-31 0 -63 -19.5t-56 -47.5t-43 -56.5t-29 -47.5l-10 -20h-20q-3 2 -8 6t-18.5 19t-20.5 33.5t-13.5 50t1.5 67.5q3 3 9.5 8.5t30 19.5t52 24.5t76.5 19t103 8.5z" />
    <glyph glyph-name="afii10048" unicode="&#x42e;" horiz-adv-x="1073" 
d="M365 295q0 16 1 25h-92l-50 -320h-208l111 700h208l-48 -300h90q33 138 140.5 225t251.5 87q137 0 216 -82.5t79 -224.5q0 -177 -116.5 -297t-287.5 -120q-138 0 -216.5 82.5t-78.5 224.5zM590 240q0 -187 80 -187q71 0 120 121t49 286q0 187 -80 187q-48 0 -87 -57
t-60.5 -150t-21.5 -200z" />
    <glyph glyph-name="afii10049" unicode="&#x42f;" horiz-adv-x="669" 
d="M114 198l76 114q-119 44 -119 162q0 103 91.5 164.5t244.5 61.5h277l-111 -700h-208l46 290h-48l-188 -290h-209l2 15q72 69 146 183zM289 474q0 -104 99 -104h35l40 251h-36q-64 0 -101 -39.5t-37 -107.5z" />
    <glyph glyph-name="afii10065" unicode="&#x430;" horiz-adv-x="585" 
d="M564 441l-42 -261q-7 -44 -7.5 -85.5t3.5 -60.5l3 -19l-15 -15h-183q-2 4 -5 11.5t-6.5 28t-0.5 37.5l4 23l-4 5q-2 -5 -6.5 -13t-20 -28t-33 -35.5t-46 -28t-59.5 -12.5q-64 0 -99.5 50t-35.5 131q0 139 102 231t272 92q61 0 106 -13t59 -25zM225 160q0 -59 16 -59
q12 0 35.5 33.5t40.5 67.5l17 33l27 174q-3 21 -24 21q-40 0 -76 -87.5t-36 -182.5z" />
    <glyph glyph-name="afii10066" unicode="&#x431;" horiz-adv-x="588" 
d="M572 308q0 -142 -81.5 -231t-223.5 -89q-129 0 -181.5 74.5t-52.5 212.5q0 182 80 304.5t239 149.5l197 33q4 -6 9 -17t13.5 -49t-0.5 -79l-12 -12l-182 -31q-92 -16 -133.5 -66t-64.5 -141l5 -5q0 2 6 14t22.5 32t39.5 38.5t63.5 32t88.5 13.5q85 0 126.5 -43.5
t41.5 -140.5zM345 405q-23 0 -58.5 -42t-48.5 -104q-15 -211 33 -211q33 0 62 103t29 202q0 52 -17 52z" />
    <glyph glyph-name="afii10067" unicode="&#x432;" horiz-adv-x="560" 
d="M25 149l31 187q11 71 86 113.5t194 42.5q103 0 148.5 -32t45.5 -84q0 -69 -72 -113q64 -33 64 -98q0 -73 -78 -125t-203 -52q-118 0 -172.5 47t-43.5 114zM265 210q-12 0 -34 -4l-11 -76q-6 -36 -0.5 -49.5t22.5 -13.5q29 0 53.5 26.5t24.5 63.5q0 53 -55 53zM243 282
q20 5 46 6q48 28 48 89q0 35 -23 35q-21 0 -38.5 -20t-22.5 -47z" />
    <glyph glyph-name="afii10068" unicode="&#x433;" horiz-adv-x="425" 
d="M62 358l13 78q9 6 25.5 15.5t70 25t108.5 15.5q139 0 139 -91q0 -35 -21.5 -66.5t-52.5 -55.5t-62.5 -46t-53 -47.5t-21.5 -51.5q0 -17 11 -25.5t40 -8.5q26 0 56 7t47 14l17 7l-12 -77q-8 -7 -24 -17.5t-69.5 -28t-112.5 -17.5q-82 0 -118 29t-36 73q0 35 22 66.5t53 55
t62 45t53 45.5t22 47q0 31 -44 31q-22 0 -50 -5.5t-45 -10.5z" />
    <glyph glyph-name="afii10069" unicode="&#x434;" horiz-adv-x="580" 
d="M14 206q0 119 84 202.5t199 83.5q29 0 49 -6t25.5 -11t5.5 -7h4q0 208 -152 208q-20 0 -40.5 -3.5t-31.5 -7.5t-11 -5l13 78q42 24 126 24q283 0 283 -355q0 -187 -79.5 -303t-235.5 -116q-111 0 -175 58.5t-64 159.5zM229 134q0 -86 32 -86q35 0 60 105t25 193
q0 86 -31 86q-35 0 -60.5 -105t-25.5 -193z" />
    <glyph glyph-name="afii10070" unicode="&#x435;" horiz-adv-x="518" 
d="M456 124l24 -28q-3 -4 -9 -11.5t-27.5 -26t-46.5 -33t-66.5 -26t-87.5 -11.5q-107 0 -167.5 58.5t-60.5 158.5q0 127 92 207t235 80q87 0 131 -31t44 -80q0 -67 -76.5 -116t-201.5 -56q1 -69 21 -95.5t69 -26.5q32 0 63.5 9.5t47.5 18.5zM320 432q-26 0 -48.5 -45.5
t-29.5 -115.5q103 17 103 115q0 46 -25 46z" />
    <glyph glyph-name="afii10072" unicode="&#x436;" horiz-adv-x="817" 
d="M812 480l-142 -163l36 -117q16 -51 34.5 -96t29.5 -64l10 -20l-3 -20h-203l-70 224h-6l-35 -224h-188l35 224h-7l-129 -214l-12 -10h-199l197 314l-94 151l2 15h143q23 -69 73 -155l18 -31l22 -3q7 48 11.5 91.5t5.5 63.5l1 19l15 15h173q-3 -80 -21 -189l11 1l31 33
q35 37 61 73t34 54l9 18l11 10h146z" />
    <glyph glyph-name="afii10073" unicode="&#x437;" horiz-adv-x="505" 
d="M180 53q40 0 61 24t21 66q0 68 -57 68h-51l-8 10l10 68h47q83 0 83 70q0 32 -14 50t-37 18q-29 0 -57 -30.5t-41 -61.5l-13 -31h-15q-3 2 -7.5 5.5t-16 16t-19.5 26.5t-12.5 37.5t-0.5 48.5q6 6 18.5 15t64.5 24t118 15q103 0 162 -31.5t59 -88.5q0 -38 -27.5 -69.5
t-77.5 -48.5q45 -11 69 -41.5t24 -68.5q0 -68 -77 -112t-212 -44q-187 0 -187 95q0 14 3.5 28t7.5 21l4 7q51 15 136 15l10 -15q-16 -20 -16 -47q0 -39 48 -39z" />
    <glyph glyph-name="afii10074" unicode="&#x438;" horiz-adv-x="585" 
d="M92 480h186q-3 -70 -21 -180l-28 -176q-4 -23 10 -23q16 0 40 33.5t40 67.5l16 33l36 230l15 15h185l-48 -300q-7 -44 -7.5 -85.5t2.5 -60.5l4 -19l-15 -15h-183q-2 4 -5 11.5t-6.5 28t-0.5 37.5l4 23l-4 5q-2 -5 -6 -13t-19.5 -28t-34 -35.5t-51.5 -28t-71 -12.5
q-63 0 -86 33.5t-12 102.5l28 176q7 44 11.5 85.5t5.5 60.5l1 19z" />
    <glyph glyph-name="afii10075" unicode="&#x439;" horiz-adv-x="580" 
d="M92 480h186q-2 -61 -21 -180l-28 -176q-4 -23 10 -23q16 0 40 33.5t40 67.5l16 33l36 230l15 15h185l-48 -300q-7 -44 -7.5 -85.5t2.5 -60.5l4 -19l-15 -15h-183q-2 4 -5 11.5t-6.5 28t-0.5 37.5l4 23l-4 5q-2 -5 -6 -13t-19.5 -28t-34 -35.5t-51.5 -28t-71 -12.5
q-63 0 -86 33.5t-12 102.5l28 176q7 45 11.5 86t5.5 60l1 19zM339 520q-76 0 -122.5 25t-46.5 67q0 12 3 23.5t7 16.5l3 6q56 15 133 15l8 -11q-13 -18 -13 -37q0 -30 39 -30q21 0 35 11t14 33l-3 23l12 11q35 0 66.5 -3.5t45.5 -7.5l15 -4q3 -14 3 -27q0 -50 -57.5 -80.5
t-141.5 -30.5z" />
    <glyph glyph-name="afii10076" unicode="&#x43a;" horiz-adv-x="584" 
d="M11 0l48 300q7 44 12 85.5t6 60.5l1 19l14 15h184q-3 -80 -19 -180l-2 -9l15 2l30 32q41 42 66.5 78.5t31.5 51.5l5 15l11 10h156l-150 -160l38 -120q16 -50 37 -95t35 -65l13 -20l-3 -20h-203l-86 224h-6l-36 -224h-198z" />
    <glyph glyph-name="afii10077" unicode="&#x43b;" horiz-adv-x="558" 
d="M4 152l17 15q10 -11 31 -11q81 0 108 232q4 34 15.5 57t20.5 29l10 6h342l-76 -480h-198l63 400h-77l-11 -71q-24 -148 -78 -244.5t-133 -96.5q-13 0 -26.5 3t-19.5 6l-7 3q0 42 4.5 80t9.5 55z" />
    <glyph glyph-name="afii10078" unicode="&#x43c;" horiz-adv-x="793" 
d="M537 0v316l-5 5l-110 -321h-138l-20 20l-24 301l-6 -6l-3 -13q-26 -153 -71 -233.5t-120 -80.5q-15 0 -28.5 3t-19.5 6l-7 3q0 42 4.5 80t9.5 55l5 17l17 15q11 -11 29 -11q71 0 100 232q4 35 15.5 58t20.5 28l10 6h208l17 -239l76 224l15 15h218v-480h-193z" />
    <glyph glyph-name="afii10079" unicode="&#x43d;" horiz-adv-x="580" 
d="M296 0l33 205h-87l-33 -205h-198l48 300q7 44 12 85.5t6 60.5l1 19l14 15h184q-3 -80 -19 -180l-3 -15h87l3 15l22 165l15 15h183q-6 -80 -22 -180l-48 -300h-198z" />
    <glyph glyph-name="afii10080" unicode="&#x43e;" horiz-adv-x="579" 
d="M14 206q0 122 90 204t222 82q108 0 171.5 -59t63.5 -159q0 -122 -89.5 -204t-221.5 -82q-109 0 -172.5 59t-63.5 159zM229 134q0 -86 32 -86q35 0 60 105t25 193q0 86 -31 86q-35 0 -60.5 -105t-25.5 -193z" />
    <glyph glyph-name="afii10081" unicode="&#x43f;" horiz-adv-x="580" 
d="M296 0l57 356q4 23 -11 23q-16 0 -40 -33.5t-40 -67.5l-15 -33l-38 -245h-198l48 300q7 44 7.5 85.5t-2.5 60.5l-4 19l15 15h183q2 -4 5 -11.5t6.5 -28t0.5 -37.5l-5 -23l4 -5q2 5 6 13t19 28t33.5 35.5t52 28t71.5 12.5q64 0 87 -33.5t12 -102.5l-56 -356h-198z" />
    <glyph glyph-name="afii10082" unicode="&#x440;" horiz-adv-x="585" 
d="M-29 -250l88 550q7 44 7.5 85.5t-2.5 60.5l-4 19l15 15h183q2 -4 5 -11.5t6.5 -28t0.5 -37.5l-5 -23l4 -5q2 5 6.5 13t20 28t33 35.5t46 28t58.5 12.5q65 0 100.5 -50t35.5 -129q0 -139 -102.5 -232t-242.5 -93q-12 0 -18 1l-37 -239h-198zM356 320q0 59 -17 59
q-12 0 -35 -33.5t-40 -67.5l-17 -33l-28 -174h1q3 -21 24 -21q40 0 76 87.5t36 182.5z" />
    <glyph glyph-name="afii10083" unicode="&#x441;" horiz-adv-x="509" 
d="M455 124l24 -28q-3 -4 -9 -11.5t-27.5 -26t-46.5 -33t-66.5 -26t-87.5 -11.5q-108 0 -168 58.5t-60 160.5q0 124 84 204.5t230 80.5q87 0 138 -30.5t51 -85.5q0 -19 -6 -37t-12 -27l-6 -8q-58 -15 -159 -15l-12 15q23 37 23 84q0 44 -28 44q-37 0 -58 -72.5t-21 -150.5
q0 -68 22 -95t69 -27q31 0 62.5 9.5t47.5 18.5z" />
    <glyph glyph-name="afii10084" unicode="&#x442;" horiz-adv-x="848" 
d="M288 0l57 354q4 23 -10 23q-15 0 -37 -33t-36 -66l-15 -33l-38 -245h-198l48 300q7 44 7.5 85.5t-2.5 60.5l-4 19l15 15h183q2 -4 5 -11.5t6.5 -28t0.5 -37.5l-5 -23l4 -5q2 5 5.5 13t18.5 28t33 35.5t50 28t69 12.5q112 0 99 -120q6 15 17 31.5t31.5 38.5t54.5 36t76 14
q62 0 84.5 -34t11.5 -102l-56 -356h-198l57 354q4 23 -10 23q-15 0 -37 -33t-37 -66l-14 -33l-38 -245h-198z" />
    <glyph glyph-name="afii10085" unicode="&#x443;" horiz-adv-x="532" 
d="M-27 -262q-18 0 -36.5 4.5t-28.5 9.5l-9 4q0 51 13.5 94.5t26.5 61.5l13 18q32 -18 73 -18q65 0 144 63l-76 325q-12 51 -26.5 93.5t-23.5 59.5l-9 17l10 10h207l64 -336q84 139 84 260q0 21 -2.5 37.5t-5.5 22.5l-3 6l10 10h132q7 -13 7 -36q0 -60 -58.5 -178
t-141.5 -235t-185 -205t-179 -88z" />
    <glyph glyph-name="afii10086" unicode="&#x444;" horiz-adv-x="818" 
d="M231 -250l41 259q-36 -19 -79 -19q-70 0 -124 58.5t-54 157.5q0 125 86.5 205.5t203.5 80.5q27 0 43 -4q10 63 16 124.5t8 91.5l1 31l15 15h183q-1 -120 -25 -270l-2 -9q43 19 79 19q70 0 123.5 -58.5t53.5 -157.5q0 -125 -86.5 -205.5t-203.5 -80.5q-26 0 -42 4
l-39 -242h-198zM226 144q0 -51 3.5 -73.5t17.5 -22.5q16 0 35 23l57 357q-12 4 -20 4q-29 0 -49.5 -42.5t-29 -101.5t-11.5 -95.5t-3 -48.5zM590 335q0 97 -20 97q-14 0 -36 -24l-57 -357q9 -3 19 -3q32 0 55.5 65.5t31 126.5t7.5 95z" />
    <glyph glyph-name="afii10087" unicode="&#x445;" horiz-adv-x="558" 
d="M151 0h-154q-4 7 -4 32q0 52 35 98.5t136 116.5l-24 53q-21 45 -45 86.5t-38 59.5l-14 19v15h233l69 -151q40 43 40 102q0 14 -1.5 23.5t-3.5 12.5l-1 3l10 10h154q4 -7 4 -30q0 -49 -33 -92t-132 -109l23 -49q23 -51 50 -97.5t42 -66.5l15 -21v-15h-233l-77 166
q-47 -51 -47 -118q0 -13 1.5 -22.5t3.5 -12.5l1 -3z" />
    <glyph glyph-name="afii10088" unicode="&#x446;" horiz-adv-x="622" 
d="M92 480h186q-3 -70 -21 -180l-28 -176q-4 -23 10 -23q16 0 40 33.5t40 67.5l16 33l36 230l15 15h185l-48 -300q-8 -46 -8 -101h60l12 -15q9 -84 -36 -234h-94l-13 15q7 52 5 86t-9 51l-6 18h-110q-2 4 -5 11.5t-6.5 28t-0.5 37.5l4 23l-4 5q-2 -5 -6 -13t-19.5 -28
t-34 -35.5t-51.5 -28t-71 -12.5q-63 0 -86 33.5t-12 102.5l28 176q7 44 11.5 85.5t5.5 60.5l1 19z" />
    <glyph glyph-name="afii10089" unicode="&#x447;" horiz-adv-x="574" 
d="M82 480h186q-9 -120 -21 -181q-7 -40 37 -40q22 0 43 7l32 199l15 15h186l-76 -480h-199l30 190q-69 -37 -152 -37q-141 0 -115 147q8 44 12.5 85.5t5.5 60.5l1 19z" />
    <glyph glyph-name="afii10090" unicode="&#x448;" horiz-adv-x="848" 
d="M562 480l-57 -354q-4 -23 9 -23q15 0 37.5 33t36.5 66l15 33l36 230l15 15h185l-48 -300q-7 -44 -7.5 -85.5t2.5 -60.5l4 -19l-15 -15h-183q-2 4 -5 11.5t-6.5 28t-0.5 37.5l4 23l-4 5q-2 -5 -5.5 -13t-18.5 -28t-33 -35.5t-50 -28t-69 -12.5q-111 0 -98 120
q-7 -16 -17.5 -32t-31.5 -38t-55.5 -36t-75.5 -14q-61 0 -83.5 34t-11.5 102l28 176q7 44 11.5 85.5t5.5 60.5l1 19l14 15h186q-5 -80 -21 -180l-28 -174q-4 -23 9 -23q15 0 37.5 33t37.5 66l14 33l36 230l15 15h185z" />
    <glyph glyph-name="afii10091" unicode="&#x449;" horiz-adv-x="890" 
d="M562 480l-57 -354q-4 -23 9 -23q15 0 37.5 33t36.5 66l15 33l36 230l15 15h185l-48 -300q-8 -46 -8 -101h60l12 -15q9 -84 -36 -234h-94l-13 15q7 52 5 86t-9 51l-6 18h-110q-2 4 -5 11.5t-6.5 28t-0.5 37.5l4 23l-4 5q-2 -5 -5.5 -13t-18.5 -28t-33 -35.5t-50 -28
t-69 -12.5q-111 0 -98 120q-7 -16 -17.5 -32t-31.5 -38t-55.5 -36t-75.5 -14q-61 0 -83.5 34t-11.5 102l28 176q7 44 11.5 85.5t5.5 60.5l1 19l14 15h186q-5 -80 -21 -180l-28 -174q-4 -23 9 -23q15 0 37.5 33t37.5 66l14 33l36 230l15 15h185z" />
    <glyph glyph-name="afii10092" unicode="&#x44a;" horiz-adv-x="659" 
d="M144 130l26 170q8 54 13 105h-19q-32 0 -62.5 -11t-45.5 -22l-14 -11l-13 15l17 104h341q-3 -77 -18 -174q28 5 64 5q97 0 145.5 -37.5t48.5 -99.5q0 -78 -74 -132t-212 -54q-104 0 -156 34.5t-41 107.5zM371 231q-3 0 -7.5 -0.5t-6.5 -0.5l-19 -121q-6 -42 20 -42
q24 0 45 32t21 73q0 59 -53 59z" />
    <glyph glyph-name="afii10093" unicode="&#x44b;" horiz-adv-x="806" 
d="M32 124l27 176l19 165l14 15h184q-4 -78 -18 -174q28 5 63 5q97 0 146 -37.5t49 -99.5q0 -78 -74 -132t-211 -54q-104 0 -156.5 34t-42.5 102zM523 0l48 300q7 44 12 85.5t6 60.5l1 19l14 15h184q-3 -80 -19 -180l-48 -300h-198zM260 231q-3 0 -7.5 -0.5t-6.5 -0.5
l-19 -121q-6 -42 20 -42q23 0 44.5 32t21.5 73q0 59 -53 59z" />
    <glyph glyph-name="afii10094" unicode="&#x44c;" horiz-adv-x="547" 
d="M31 118l28 182q6 40 11 81t6 63l2 21l14 15h184q-6 -91 -18 -174q28 5 63 5q97 0 146 -37t49 -99q0 -79 -74 -133t-209 -54q-105 0 -158.5 34t-43.5 96zM260 231q-3 0 -7.5 -0.5t-6.5 -0.5l-19 -121q-6 -42 20 -42q23 0 44.5 32t21.5 73q0 59 -53 59z" />
    <glyph glyph-name="afii10095" unicode="&#x44d;" horiz-adv-x="505" 
d="M170 58q31 0 58 38t37 117h-113l-9 10l10 60h117v18q0 70 -11 98t-34 28q-25 0 -51 -30t-39 -60l-13 -30h-15q-3 2 -7.5 5.5t-16 15.5t-19.5 26t-12.5 37t-0.5 47q6 6 19 15t61.5 24t106.5 15q121 0 184 -58t63 -161q0 -124 -87.5 -204.5t-240.5 -80.5q-165 0 -165 95
q0 14 3.5 28t6.5 21l4 7q51 15 136 15l10 -15q-16 -17 -16 -43q0 -16 8.5 -27t25.5 -11z" />
    <glyph glyph-name="afii10096" unicode="&#x44e;" horiz-adv-x="813" 
d="M11 0l48 300q7 44 12 85.5t6 60.5l1 19l14 15h184q-3 -80 -19 -180l-3 -15h44q26 93 103 150t180 57q98 0 155.5 -58t57.5 -154q0 -127 -83.5 -209.5t-209.5 -82.5q-98 0 -156 58.5t-58 153.5v5h-45l-33 -205h-198zM487 137q0 -89 24 -89q35 0 59.5 115t24.5 180
q0 89 -24 89q-25 0 -45.5 -64.5t-29.5 -130.5t-9 -100z" />
    <glyph glyph-name="afii10097" unicode="&#x44f;" horiz-adv-x="555" 
d="M10 142l17 15q14 -11 37 -11q16 0 25 6.5t22.5 26t25.5 31.5q-48 15 -73.5 45t-25.5 71q0 69 69.5 111.5t180.5 42.5h258l-76 -480h-199l31 195h-28q-21 -25 -46.5 -68.5t-42 -70t-51 -47.5t-82.5 -21q-20 0 -35 3t-21 6l-5 3q0 42 4.5 77.5t9.5 50.5zM297 275h17l20 125
h-19q-35 0 -56.5 -18t-21.5 -53q0 -54 60 -54z" />
    <glyph glyph-name="uni0450" unicode="&#x450;" horiz-adv-x="518" 
d="M456 124l24 -28q-3 -4 -9 -11.5t-27.5 -26t-46.5 -33t-66.5 -26t-87.5 -11.5q-107 0 -167.5 58.5t-60.5 158.5q0 127 92 207t235 80q87 0 131 -31t44 -80q0 -67 -76.5 -116t-201.5 -56q1 -69 21 -95.5t69 -26.5q32 0 63.5 9.5t47.5 18.5zM389 560l-11 -10h-55l-135 160
l2 10q52 29 160 29zM320 432q-26 0 -48.5 -45.5t-29.5 -115.5q103 17 103 115q0 46 -25 46z" />
    <glyph glyph-name="afii10071" unicode="&#x451;" horiz-adv-x="518" 
d="M456 124l24 -28q-3 -4 -9 -11.5t-27.5 -26t-46.5 -33t-66.5 -26t-87.5 -11.5q-107 0 -167.5 58.5t-60.5 158.5q0 127 92 207t235 80q87 0 131 -31t44 -80q0 -67 -76.5 -116t-201.5 -56q1 -69 21 -95.5t69 -26.5q32 0 63.5 9.5t47.5 18.5zM356 616q0 40 27.5 66t67.5 26
q33 0 52 -18.5t19 -50.5q0 -40 -27 -67t-67 -27q-34 0 -53 19t-19 52zM136 616q0 40 27 66t68 26q33 0 51.5 -18.5t18.5 -50.5q0 -40 -26.5 -67t-67.5 -27q-34 0 -52.5 19t-18.5 52zM320 432q-26 0 -48.5 -45.5t-29.5 -115.5q103 17 103 115q0 46 -25 46z" />
    <glyph glyph-name="afii10099" unicode="&#x452;" horiz-adv-x="580" 
d="M293 -20l60 376q4 23 -11 23q-16 0 -40 -33.5t-40 -67.5l-15 -33l-38 -245h-198l76 480q8 48 12 85h-73l6 40l75 34l6 96l14 15h184q0 -46 -6 -115h146l-12 -70h-142q-6 -54 -11 -85l-6 -39l-15 -61l4 -5q2 5 6 13t19 28t33.5 35.5t52 28t71.5 12.5q64 0 87 -33.5
t12 -102.5l-48 -307q-10 -62 -45 -117t-77.5 -89.5t-84 -60t-69.5 -36.5l-28 -11l-24 28l11 11t25 29.5t33 46.5t29.5 59.5t20.5 70.5z" />
    <glyph glyph-name="afii10100" unicode="&#x453;" horiz-adv-x="425" 
d="M196 550l-8 10l99 189q48 0 85.5 -7.5t51.5 -14.5l13 -7l-1 -10l-185 -160h-55zM62 358l13 78q9 6 25.5 15.5t70 25t108.5 15.5q139 0 139 -91q0 -35 -21.5 -66.5t-52.5 -55.5t-62.5 -46t-53 -47.5t-21.5 -51.5q0 -17 11 -25.5t40 -8.5q26 0 56 7t47 14l17 7l-12 -77
q-8 -7 -24 -17.5t-69.5 -28t-112.5 -17.5q-82 0 -118 29t-36 73q0 35 22 66.5t53 55t62 45t53 45.5t22 47q0 31 -44 31q-22 0 -50 -5.5t-45 -10.5z" />
    <glyph glyph-name="afii10101" unicode="&#x454;" horiz-adv-x="518" 
d="M461 124l24 -28q-3 -4 -9 -11.5t-27.5 -26t-46.5 -33t-66.5 -26t-87.5 -11.5q-108 0 -170.5 59t-62.5 162q0 123 86 203t238 80q84 0 132.5 -25.5t48.5 -71.5q0 -13 -4 -26.5t-8 -20.5l-5 -7q-54 -15 -155 -15l-13 15q17 26 17 55q0 36 -30 36q-56 0 -77 -147h149l8 -10
l-10 -60h-153v-7q0 -66 23 -93.5t73 -27.5q31 0 62.5 9.5t47.5 18.5z" />
    <glyph glyph-name="afii10102" unicode="&#x455;" horiz-adv-x="494" 
d="M218 387q0 -22 24.5 -41t89.5 -53q69 -38 99 -68.5t30 -80.5q0 -71 -64 -113.5t-196 -42.5q-207 0 -207 102q0 16 4.5 30.5t9.5 21.5l5 7q63 15 164 15l13 -15q-20 -21 -20 -56q0 -45 45 -45q28 0 45 15.5t17 34.5q0 23 -27 41.5t-94 48.5q-29 13 -46 23.5t-36 27
t-28 39.5t-9 54q0 75 60.5 117.5t189.5 42.5q191 0 191 -101q0 -15 -4 -28t-8 -19l-4 -5q-61 -15 -163 -15l-11 15q15 16 15 50q0 43 -36 43q-23 0 -36 -13.5t-13 -31.5z" />
    <glyph glyph-name="afii10103" unicode="&#x456;" horiz-adv-x="294" 
d="M88 622q0 58 37.5 95t95.5 37q45 0 71.5 -26.5t26.5 -69.5q0 -58 -38 -95t-96 -37q-45 0 -71 26.5t-26 69.5zM11 0l48 300q7 44 12 85.5t6 60.5l1 19l14 15h184q-3 -80 -19 -180l-48 -300h-198z" />
    <glyph glyph-name="afii10104" unicode="&#x457;" horiz-adv-x="294" 
d="M24 615q0 41 27 67t69 26q31 0 50 -18.5t19 -48.5q0 -42 -26.5 -69t-68.5 -27q-33 0 -51.5 19t-18.5 51zM224 615q0 41 27 67t69 26q32 0 51 -18.5t19 -48.5q0 -42 -27 -69t-69 -27q-32 0 -51 19t-19 51zM11 0l48 300q7 44 12 85.5t6 60.5l1 19l14 15h184
q-3 -80 -19 -180l-48 -300h-198z" />
    <glyph glyph-name="afii10105" unicode="&#x458;" horiz-adv-x="294" 
d="M87 622q0 57 38 94.5t95 37.5q45 0 72 -26.5t27 -69.5q0 -58 -38 -95t-96 -37q-46 0 -72 26.5t-26 69.5zM7 -20l52 320q7 44 12 85.5t6 60.5l1 19l14 15h184q-3 -80 -19 -180l-41 -251q-10 -62 -45 -117t-78 -89.5t-84.5 -60t-69.5 -36.5l-28 -11l-24 28q11 10 28 29
t50 75.5t42 112.5z" />
    <glyph glyph-name="afii10106" unicode="&#x459;" horiz-adv-x="810" 
d="M4 152l17 15q10 -11 31 -11q81 0 108 232q4 35 15.5 58t20.5 28l10 6h342l-28 -174q28 5 64 5q97 0 145.5 -37t48.5 -99q0 -79 -74 -133t-209 -54q-104 0 -158 34t-44 96l44 282h-77l-11 -71q-54 -341 -226 -341q-25 0 -31.5 6.5t-6.5 21.5q0 30 4.5 64t9.5 53zM522 231
q-2 0 -7 -0.5t-7 -0.5l-19 -121q-6 -42 20 -42q24 0 45 32t21 73q0 59 -53 59z" />
    <glyph glyph-name="afii10107" unicode="&#x45a;" horiz-adv-x="832" 
d="M316 118l13 87h-87l-33 -205h-198l48 300q7 44 12 85.5t6 60.5l1 19l14 15h184q-3 -80 -19 -180l-3 -15h87l3 15l21 165l15 15h183q-6 -84 -20 -174q28 5 64 5q97 0 145.5 -37t48.5 -99q0 -79 -74 -133t-209 -54q-104 0 -158 34t-44 96zM545 231q-3 0 -7.5 -0.5
t-6.5 -0.5l-19 -121q-6 -42 20 -42q24 0 45 32t21 73q0 59 -53 59z" />
    <glyph glyph-name="afii10108" unicode="&#x45b;" horiz-adv-x="580" 
d="M296 0l57 356q4 23 -11 23q-16 0 -40 -33.5t-40 -67.5l-15 -33l-38 -245h-198l76 480q8 48 12 85h-73l6 40l75 34l6 96l14 15h184q0 -46 -6 -115h146l-12 -70h-142q-6 -54 -11 -85l-6 -39l-15 -61l4 -5q2 5 6 13t19 28t33.5 35.5t52 28t71.5 12.5q64 0 87 -33.5
t12 -102.5l-56 -356h-198z" />
    <glyph glyph-name="afii10109" unicode="&#x45c;" horiz-adv-x="584" 
d="M11 0l48 300q7 44 12 85.5t6 60.5l1 19l14 15h184q-3 -80 -19 -180l-2 -9l15 2l30 32q41 42 66.5 78.5t31.5 51.5l5 15l11 10h156l-150 -160l38 -120q16 -50 37 -95t35 -65l13 -20l-3 -20h-203l-86 224h-6l-36 -224h-198zM255 550l-8 10l99 189q48 0 85.5 -7.5
t51.5 -14.5l14 -7l-1 -10l-185 -160h-56z" />
    <glyph glyph-name="uni045D" unicode="&#x45d;" horiz-adv-x="585" 
d="M92 480h186q-3 -70 -21 -180l-28 -176q-4 -23 10 -23q16 0 40 33.5t40 67.5l16 33l36 230l15 15h185l-48 -300q-7 -44 -7.5 -85.5t2.5 -60.5l4 -19l-15 -15h-183q-2 4 -5 11.5t-6.5 28t-0.5 37.5l4 23l-4 5q-2 -5 -6 -13t-19.5 -28t-34 -35.5t-51.5 -28t-71 -12.5
q-63 0 -86 33.5t-12 102.5l28 176q7 44 11.5 85.5t5.5 60.5l1 19zM412 560l-11 -10h-55l-135 160l2 10q52 29 160 29z" />
    <glyph glyph-name="afii10110" unicode="&#x45e;" horiz-adv-x="532" 
d="M-27 -262q-18 0 -36.5 4.5t-28.5 9.5l-9 4q0 51 13.5 94.5t26.5 61.5l13 18q32 -18 73 -18q65 0 144 63l-76 325q-12 51 -26.5 93.5t-23.5 59.5l-9 17l10 10h207l64 -336q84 139 84 260q0 21 -2.5 37.5t-5.5 22.5l-3 6l10 10h132q7 -13 7 -36q0 -60 -58.5 -178
t-141.5 -235t-185 -205t-179 -88zM310 520q-76 0 -123 25t-47 67q0 12 3.5 23.5t6.5 16.5l4 6q56 15 133 15l8 -11q-13 -18 -13 -37q0 -30 38 -30q22 0 36 11t14 33l-3 23l12 11q34 0 66 -3.5t47 -7.5l14 -4q3 -14 3 -27q0 -50 -57.5 -80.5t-141.5 -30.5z" />
    <glyph glyph-name="afii10193" unicode="&#x45f;" horiz-adv-x="585" 
d="M92 480h186q-3 -70 -21 -180l-28 -176q-4 -23 10 -23q16 0 40 33.5t40 67.5l16 33l36 230l15 15h185l-48 -300q-7 -44 -7.5 -85.5t2.5 -60.5l4 -19l-15 -15h-183q-2 4 -5 11.5t-6.5 28t-0.5 37.5l4 23l-4 5q-9 -21 -26 -43q-3 -105 -41 -232h-94l-13 15q12 76 1 143h-9
q-63 0 -86 33.5t-12 102.5l28 176q7 44 11.5 85.5t5.5 60.5l1 19z" />
    <glyph glyph-name="afii10050" unicode="&#x490;" horiz-adv-x="535" 
d="M16 0l111 700h296q44 67 61 170l17 15h104l-15 -250l-18 -14h-250l-98 -621h-208z" />
    <glyph glyph-name="afii10098" unicode="&#x491;" horiz-adv-x="444" 
d="M11 0l61 389q5 32 16 55t19 30l8 6h192q7 6 17 17t26.5 51t16.5 87l13 15h94q0 -67 -7 -125.5t-15 -84.5l-7 -25l-12 -15h-161l-63 -400h-198z" />
    <glyph glyph-name="uni04D8" unicode="&#x4d8;" horiz-adv-x="737" 
d="M32 218q0 32 6 59.5t12 39.5l7 12l17 15h418q2 32 2 49q0 108 -38.5 154.5t-122.5 46.5q-53 0 -106 -16t-79 -32l-26 -17l-26 29q4 6 12 16.5t36.5 37t62 47t89 37t117.5 16.5q145 0 230 -84.5t85 -226.5q0 -175 -123 -294t-305 -119q-129 0 -198.5 63t-69.5 167zM307 53
q58 0 106.5 61t68.5 159l-245 -20q-7 -40 -7 -77q0 -123 77 -123z" />
    <glyph glyph-name="afii10846" unicode="&#x4d9;" horiz-adv-x="518" 
d="M57 356l-23 28q3 4 9 11.5t27.5 26t46.5 33t66.5 26t87.5 11.5q107 0 167 -58.5t60 -158.5q0 -127 -92 -207t-234 -80q-88 0 -132 31t-44 80q0 67 76 115.5t202 55.5q-1 69 -21 96t-68 27q-32 0 -64 -9.5t-48 -18.5zM194 48q26 0 47.5 45t29.5 115q-102 -16 -102 -114
q0 -46 25 -46z" />
    <glyph glyph-name="Wgrave" unicode="&#x1e80;" horiz-adv-x="1083" 
d="M644 26l-60 346l-175 -372h-153l-23 26l-104 494q-10 49 -24 90t-23 58l-9 16l3 16h234l103 -494l145 315q-8 48 -20 89t-20 58l-8 16l3 16h235l79 -481l224 481h98l-333 -700h-150zM737 760l-11 -10h-55l-134 160l2 10q51 30 159 30z" />
    <glyph glyph-name="wgrave" unicode="&#x1e81;" horiz-adv-x="797" 
d="M435 26l-21 135q-33 -55 -104 -161h-128l-24 26l-62 274q-12 50 -28.5 92.5t-27.5 59.5l-11 18l10 10h207l71 -307q52 95 67 169q-8 38 -20 70t-20 45l-7 13l10 10h197l51 -307q71 125 68 225q0 23 -3.5 41t-6.5 25l-3 6l10 10h133q6 -12 7 -41q4 -138 -217 -439h-125z
M539 560l-11 -10h-56l-134 160l2 10q51 29 159 29z" />
    <glyph glyph-name="Wacute" unicode="&#x1e82;" horiz-adv-x="1083" 
d="M644 26l-60 346l-175 -372h-153l-23 26l-104 494q-10 49 -24 90t-23 58l-9 16l3 16h234l103 -494l145 315q-8 48 -20 89t-20 58l-8 16l3 16h235l79 -481l224 481h98l-333 -700h-150zM571 750l-8 10l99 190q48 0 85.5 -7.5t50.5 -14.5l14 -8l-1 -10l-185 -160h-55z" />
    <glyph glyph-name="wacute" unicode="&#x1e83;" horiz-adv-x="797" 
d="M435 26l-21 135q-33 -55 -104 -161h-128l-24 26l-62 274q-12 50 -28.5 92.5t-27.5 59.5l-11 18l10 10h207l71 -307q52 95 67 169q-8 38 -20 70t-20 45l-7 13l10 10h197l51 -307q71 125 68 225q0 23 -3.5 41t-6.5 25l-3 6l10 10h133q6 -12 7 -41q4 -138 -217 -439h-125z
M371 550l-8 10l99 189q48 0 85.5 -7.5t51.5 -14.5l14 -7l-1 -10l-185 -160h-56z" />
    <glyph glyph-name="Wdieresis" unicode="&#x1e84;" horiz-adv-x="1083" 
d="M644 26l-60 346l-175 -372h-153l-23 26l-104 494q-10 49 -24 90t-23 58l-9 16l3 16h234l103 -494l145 315q-8 48 -20 89t-20 58l-8 16l3 16h235l79 -481l224 481h98l-333 -700h-150zM683 816q0 40 27.5 66t68.5 26q32 0 51 -18.5t19 -50.5q0 -40 -27 -67t-67 -27
q-34 0 -53 19t-19 52zM463 816q0 40 27.5 66t67.5 26q33 0 52 -18.5t19 -50.5q0 -40 -27 -67t-68 -27q-33 0 -52 19t-19 52z" />
    <glyph glyph-name="wdieresis" unicode="&#x1e85;" horiz-adv-x="797" 
d="M435 26l-21 135q-33 -55 -104 -161h-128l-24 26l-62 274q-12 50 -28.5 92.5t-27.5 59.5l-11 18l10 10h207l71 -307q52 95 67 169q-8 38 -20 70t-20 45l-7 13l10 10h197l51 -307q71 125 68 225q0 23 -3.5 41t-6.5 25l-3 6l10 10h133q6 -12 7 -41q4 -138 -217 -439h-125z
M486 616q0 40 27 66t68 26q33 0 52 -18.5t19 -50.5q0 -40 -27 -67t-68 -27q-33 0 -52 19t-19 52zM265 616q0 40 27.5 66t67.5 26q33 0 52 -18.5t19 -50.5q0 -40 -27 -67t-67 -27q-34 0 -53 19t-19 52z" />
    <glyph glyph-name="Ygrave" unicode="&#x1ef2;" horiz-adv-x="697" 
d="M762 700l-286 -369l-52 -331h-208l49 316l-78 172q-24 54 -52.5 103t-44.5 71l-17 22l3 16h257l119 -260l201 260h109zM521 760l-11 -10h-56l-134 160l2 10q51 30 159 30z" />
    <glyph glyph-name="ygrave" unicode="&#x1ef3;" horiz-adv-x="532" 
d="M-27 -262q-18 0 -36.5 4.5t-28.5 9.5l-9 4q0 51 13.5 94.5t26.5 61.5l13 18q32 -18 73 -18q65 0 144 63l-76 325q-12 51 -26.5 93.5t-23.5 59.5l-9 17l10 10h207l64 -336q84 139 84 260q0 21 -2.5 37.5t-5.5 22.5l-3 6l10 10h132q7 -13 7 -36q0 -60 -58.5 -178
t-141.5 -235t-185 -205t-179 -88zM396 560l-11 -10h-56l-134 160l2 10q52 29 160 29z" />
    <glyph glyph-name="figuredash" unicode="&#x2012;" 
d="M45 310v80h500v-80h-500z" />
    <glyph glyph-name="endash" unicode="&#x2013;" horiz-adv-x="490" 
d="M45 235v80h400v-80h-400z" />
    <glyph glyph-name="emdash" unicode="&#x2014;" horiz-adv-x="790" 
d="M45 235v80h700v-80h-700z" />
    <glyph glyph-name="quoteleft" unicode="&#x2018;" horiz-adv-x="254" 
d="M305 759l24 -28q-4 -4 -10.5 -12.5t-24 -35t-30.5 -54.5t-23.5 -69.5t-10.5 -82.5q0 -19 2 -36t4 -25l2 -8l-12 -10q-48 0 -87.5 6t-54.5 12l-16 6q-2 12 -2 34q0 56 24.5 108t59.5 86t70.5 60t59.5 38z" />
    <glyph glyph-name="quoteright" unicode="&#x2019;" horiz-adv-x="254" 
d="M68 399l-23 28q4 4 10.5 12.5t23.5 34.5t30 54t23.5 70t10.5 83q0 18 -2 35.5t-4 25.5l-2 8l12 10q48 0 87.5 -6t55.5 -12l15 -6q3 -13 3 -35q0 -56 -24.5 -107.5t-60 -85.5t-71 -60t-60.5 -38z" />
    <glyph glyph-name="quotesinglbase" unicode="&#x201a;" horiz-adv-x="254" 
d="M-34 -183l-24 28q4 4 10.5 12.5t24 35t30.5 54.5t23.5 69.5t10.5 82.5q0 19 -2 36.5t-4 25.5l-2 8l12 10q48 0 87.5 -6t55.5 -12l15 -6q3 -13 3 -35q0 -56 -24.5 -108t-60 -86t-71 -60t-60.5 -38z" />
    <glyph glyph-name="quotedblleft" unicode="&#x201c;" horiz-adv-x="453" 
d="M305 759l24 -28q-4 -4 -10.5 -12.5t-24 -35t-30.5 -54.5t-23.5 -69.5t-10.5 -82.5q0 -19 2 -36t4 -25l2 -8l-12 -10q-48 0 -87.5 6t-54.5 12l-16 6q-2 12 -2 34q0 56 24.5 108t59.5 86t70.5 60t59.5 38zM504 759l24 -28q-4 -4 -10.5 -12.5t-24 -35t-30.5 -54.5
t-23.5 -69.5t-10.5 -82.5q0 -19 2 -36t4 -25l2 -8l-12 -10q-48 0 -87.5 6t-55.5 12l-15 6q-3 12 -3 34q0 56 24.5 108t60 86t71 60t60.5 38z" />
    <glyph glyph-name="quotedblright" unicode="&#x201d;" horiz-adv-x="453" 
d="M68 399l-23 28q4 4 10.5 12.5t23.5 34.5t30 54t23.5 70t10.5 83q0 18 -2 35.5t-4 25.5l-2 8l12 10q48 0 87.5 -6t55.5 -12l15 -6q3 -13 3 -35q0 -56 -24.5 -107.5t-60 -85.5t-71 -60t-60.5 -38zM267 399l-23 28q4 4 10.5 12.5t23.5 34.5t30 54t23.5 70t10.5 83
q0 18 -2 35.5t-4 25.5l-2 8l12 10q48 0 87.5 -6t54.5 -12l16 -6q3 -13 3 -35q0 -56 -24.5 -107.5t-60 -85.5t-71 -60t-59.5 -38z" />
    <glyph glyph-name="quotedblbase" unicode="&#x201e;" horiz-adv-x="453" 
d="M-34 -183l-24 28q4 4 10.5 12.5t24 35t30.5 54.5t23.5 69.5t10.5 82.5q0 19 -2 36.5t-4 25.5l-2 8l12 10q48 0 87.5 -6t55.5 -12l15 -6q3 -13 3 -35q0 -56 -24.5 -108t-60 -86t-71 -60t-60.5 -38zM165 -183l-24 28q4 4 10.5 12.5t24 35t30.5 54.5t23.5 69.5t10.5 82.5
q0 19 -2 36.5t-4 25.5l-2 8l12 10q48 0 87.5 -6t54.5 -12l16 -6q3 -13 3 -35q0 -56 -24.5 -108t-60 -86t-71 -60t-59.5 -38z" />
    <glyph glyph-name="dagger" unicode="&#x2020;" horiz-adv-x="490" 
d="M61 483l15 93l181 -9l19 183h93l-38 -183l184 9l-15 -93l-177 10l-86 -543h-80l86 543z" />
    <glyph glyph-name="daggerdbl" unicode="&#x2021;" horiz-adv-x="490" 
d="M61 483l15 93l181 -9l19 183h93l-38 -183l184 9l-15 -93l-177 10l-46 -286l181 10l-15 -93l-180 9l-20 -183h-93l39 183l-184 -9l14 93l178 -10l46 286z" />
    <glyph glyph-name="bullet" unicode="&#x2022;" horiz-adv-x="314" 
d="M30 281q0 65 44 108t110 43q54 0 84.5 -30t30.5 -82q0 -66 -44 -108.5t-110 -42.5q-53 0 -84 30t-31 82z" />
    <glyph glyph-name="ellipsis" unicode="&#x2026;" horiz-adv-x="782" 
d="M-2 74q0 51 33.5 84t84.5 33q42 0 65.5 -22.5t23.5 -63.5q0 -50 -34 -83.5t-84 -33.5q-42 0 -65.5 23t-23.5 63zM262 74q0 51 33.5 84t84.5 33q42 0 65 -22.5t23 -63.5q0 -50 -33.5 -83.5t-84.5 -33.5q-41 0 -64.5 23t-23.5 63zM526 74q0 51 33.5 84t84.5 33
q42 0 65 -22.5t23 -63.5q0 -50 -33.5 -83.5t-84.5 -33.5q-41 0 -64.5 23t-23.5 63z" />
    <glyph glyph-name="perthousand" unicode="&#x2030;" horiz-adv-x="1271" 
d="M223 0h-91l542 700h92zM58 485q0 96 64.5 161.5t158.5 65.5q75 0 119 -45t44 -122q0 -96 -64.5 -161.5t-157.5 -65.5q-76 0 -120 45t-44 122zM204 457q0 -74 28 -74q27 0 46.5 58.5t19.5 129.5q0 75 -28 75t-47 -59t-19 -130zM454 156q0 96 64 161t158 65q76 0 119.5 -45
t43.5 -122q0 -97 -64 -162t-158 -65q-76 0 -119.5 45t-43.5 123zM598 127q0 -74 29 -74q27 0 47 59.5t20 129.5q0 74 -29 74q-27 0 -47 -59.5t-20 -129.5zM858 156q0 96 64 161t158 65q76 0 119.5 -45t43.5 -122q0 -97 -64 -162t-158 -65q-76 0 -119.5 45.5t-43.5 122.5z
M1003 127q0 -74 27 -74q28 0 48 59t20 130q0 74 -29 74q-27 0 -46.5 -59.5t-19.5 -129.5z" />
    <glyph glyph-name="guilsinglleft" unicode="&#x2039;" horiz-adv-x="300" 
d="M300 483l9 -10l-11 -66l-121 -132l79 -132l-10 -66l-12 -10l-208 194l4 28z" />
    <glyph glyph-name="guilsinglright" unicode="&#x203a;" horiz-adv-x="300" 
d="M60 473l11 10l209 -194l-5 -28l-270 -194l-8 10l10 66l122 132l-80 132z" />
    <glyph glyph-name="fraction" unicode="&#x2044;" horiz-adv-x="534" 
d="M97 -25h-92l432 750h92z" />
    <glyph glyph-name="Euro" unicode="&#x20ac;" horiz-adv-x="741" 
d="M35 385l12 80h62q45 114 151.5 180.5t266.5 66.5q55 0 99.5 -8t70 -20t42.5 -24t23 -20l6 -8q-8 -51 -35 -90t-49 -52l-23 -14h-20q-1 7 -3.5 18.5t-13.5 41t-25 52t-40 41t-58 18.5q-53 0 -97.5 -49t-70.5 -133h224l9 -10l-11 -70h-240q-6 -46 -8 -70h227l8 -10l-11 -70
h-225q7 -182 110 -182q33 0 65.5 17.5t54.5 42.5t39 50.5t25 42.5l9 18h19q2 -1 4.5 -2.5t10.5 -8t14 -14.5t14.5 -21.5t12 -28.5t6 -36t-2.5 -45q-3 -3 -9 -8.5t-28.5 -19.5t-50.5 -24.5t-76 -19t-103 -8.5q-305 0 -338 247h-71l13 80h54q1 32 8 70h-51z" />
    <glyph glyph-name="uni20B4" unicode="&#x20b4;" horiz-adv-x="589" 
d="M47 385l12 80h287q25 35 25 69q0 30 -18.5 45t-62.5 15q-43 0 -87 -14t-66 -28l-22 -13l-25 29q4 6 11 15.5t34 34.5t58.5 44t84.5 34.5t112 15.5q99 0 153.5 -39.5t54.5 -103.5q0 -54 -42 -104h42l-13 -80h-123q-16 -12 -47 -32t-43 -28h204l-13 -80h-284
q-29 -37 -29 -76q0 -31 20 -47t67 -16q44 0 88.5 14t66.5 28l23 13l25 -29q-4 -6 -11.5 -15.5t-34.5 -34.5t-59.5 -44t-86.5 -34.5t-114 -15.5q-102 0 -157 39.5t-55 105.5q0 59 47 112h-44l12 80h127q10 7 28.5 19t33.5 22t28 19h-207z" />
    <glyph glyph-name="afii61352" unicode="&#x2116;" horiz-adv-x="1089" 
d="M16 0l67 420q13 80 14.5 146.5t-3.5 92.5l-5 26l18 15h69l379 -381l61 381h99l-111 -700h-59l-380 380l-60 -380h-89zM728 485q0 96 64.5 161.5t157.5 65.5q76 0 120 -45t44 -122q0 -96 -64.5 -161.5t-158.5 -65.5q-75 0 -119 45t-44 122zM689 180l12 80h359l-12 -80
h-359zM874 457q0 -74 27 -74q28 0 47.5 58.5t19.5 130.5q0 74 -28 74q-27 0 -46.5 -59t-19.5 -130z" />
    <glyph glyph-name="trademark" unicode="&#x2122;" horiz-adv-x="839" 
d="M705 350l16 255l-2 3l-107 -248h-82l-12 15l-32 233l-4 -3l-58 -255h-56l61 259q5 22 7 42.5t1 30.5l-1 9l11 9h153l24 -182l81 182h149l-20 -350h-129zM298 653l-48 -303h-125l47 303h-13q-25 0 -47 -5.5t-32 -11.5l-10 -5l-7 7l10 62h339l-10 -62l-9 -7q-25 22 -81 22
h-14z" />
    <glyph glyph-name="arrowleft" unicode="&#x2190;" horiz-adv-x="540" 
d="M275 493l10 -10v-66l-80 -102h290v-80h-290l80 -102v-66l-10 -10l-250 204v28z" />
    <glyph glyph-name="arrowup" unicode="&#x2191;" horiz-adv-x="530" 
d="M305 50h-80v289l-102 -79h-66l-10 10l204 250h28l204 -250l-10 -10h-66l-102 79v-289z" />
    <glyph glyph-name="arrowright" unicode="&#x2192;" horiz-adv-x="540" 
d="M45 235v80h289l-79 102v66l10 10l250 -204v-28l-250 -204l-10 10v66l79 102h-289z" />
    <glyph glyph-name="arrowdown" unicode="&#x2193;" horiz-adv-x="530" 
d="M47 280l10 10h66l102 -80v290h80v-290l102 80h66l10 -10l-204 -250h-28z" />
    <glyph glyph-name="uni2196" unicode="&#x2196;" horiz-adv-x="530" 
d="M136 110h-15l-32 321l20 20l321 -32v-15l-47 -46l-129 -16l205 -205l-56 -56l-205 204l-16 -128z" />
    <glyph glyph-name="uni2197" unicode="&#x2197;" horiz-adv-x="530" 
d="M145 81l-56 56l204 205l-128 16l-47 46v15l321 32l20 -20l-32 -321h-15l-46 47l-16 128z" />
    <glyph glyph-name="uni2198" unicode="&#x2198;" horiz-adv-x="530" 
d="M89 395l56 56l205 -205l16 129l46 47h15l32 -321l-20 -20l-321 32v15l47 46l128 16z" />
    <glyph glyph-name="uni2199" unicode="&#x2199;" horiz-adv-x="530" 
d="M430 128v-15l-321 -32l-20 20l32 321h15l46 -47l16 -129l205 205l56 -56l-205 -205l129 -16z" />
    <glyph glyph-name="minus" unicode="&#x2212;" 
d="M95 285v80h400v-80h-400z" />
    <glyph glyph-name="approxequal" unicode="&#x2248;" 
d="M95 349v88q46 52 100 52q34 0 99 -28t101 -28q54 0 100 53v-88q-45 -53 -99 -53q-34 0 -98.5 28t-100.5 28q-54 0 -102 -52zM396 162q-34 0 -98.5 28t-100.5 28q-54 0 -102 -52v88q46 52 100 52q34 0 99 -28.5t101 -28.5q53 0 100 53v-87q-45 -53 -99 -53z" />
    <glyph glyph-name="notequal" unicode="&#x2260;" 
d="M95 375v80h226l75 126l68 -39l-52 -87h83v-80h-130l-59 -100h189v-80h-237l-74 -126l-67 39l51 87h-73v80h120l59 100h-179z" />
    <glyph glyph-name="lessequal" unicode="&#x2264;" 
d="M505 591v-86l-304 -112l304 -113v-85l-420 155v86zM85 70v80h420v-80h-420z" />
    <glyph glyph-name="greaterequal" unicode="&#x2265;" 
d="M85 505v86l420 -155v-86l-420 -155v85l304 113zM85 70v80h420v-80h-420z" />
    <glyph glyph-name="commaaccent" unicode="&#xf6c3;" horiz-adv-x="231" 
d="M-30 -262l-14 17q7 7 17 20.5t27 55t17 82.5l-4 41l6 6q31 0 59 -3.5t40 -7.5l13 -4q2 -7 2 -21q0 -36 -17 -68.5t-40.5 -53t-47.5 -36t-41 -22.5z" />
    <glyph glyph-name="zerooldstyle" unicode="&#xf730;" horiz-adv-x="669" 
d="M25 210q0 121 98.5 201.5t247.5 80.5q124 0 196.5 -60t72.5 -162q0 -121 -98.5 -201.5t-246.5 -80.5q-125 0 -197.5 60t-72.5 162zM231 188q0 -135 73 -135q57 0 94.5 67.5t37.5 172.5q0 134 -74 134q-57 0 -94 -67t-37 -172z" />
    <glyph glyph-name="oneoldstyle" unicode="&#xf731;" horiz-adv-x="489" 
d="M155 0l52 326q-78 -30 -159 -30q-8 20 1 74l11 10q65 0 136 25t110 50l39 25h85l-76 -480h-199z" />
    <glyph glyph-name="twooldstyle" unicode="&#xf732;" horiz-adv-x="564" 
d="M557 375q0 -39 -32 -79.5t-74 -69.5t-92.5 -55t-77.5 -37t-39 -15h98q49 0 91.5 10t60.5 20l19 10l13 -15l-23 -144h-523l12 79l38 19t85.5 48t108 70.5t85 81t38.5 85.5q0 44 -41 44q-32 0 -49.5 -29.5t-17.5 -77.5q0 -14 1.5 -24.5t3.5 -13.5l1 -3l-17 -15q-52 0 -98 4
t-66 8l-21 3q-5 11 -5 37q0 78 71 127t215 49q109 0 172 -30t63 -87z" />
    <glyph glyph-name="threeoldstyle" unicode="&#xf733;" horiz-adv-x="626" 
d="M226 -197q38 0 65 29.5t39 70t12 84.5q0 108 -87 108h-38l-7 10l12 80h30q127 0 127 159q0 44 -11.5 63.5t-40.5 19.5q-41 0 -67.5 -35t-26.5 -99q0 -14 1.5 -25t2.5 -15l1 -4l-17 -15q-52 0 -98 4t-66 8l-20 3q-5 14 -5 39q0 90 81.5 147t228.5 57q247 0 247 -167
q0 -67 -41.5 -114t-121.5 -69q65 -15 98.5 -57t33.5 -106q0 -110 -92.5 -175.5t-246.5 -65.5q-128 0 -191.5 45t-63.5 121q0 25 6 46t12 30l7 8q73 15 189 15l13 -15q-30 -35 -30 -101q0 -84 65 -84z" />
    <glyph glyph-name="fouroldstyle" unicode="&#xf734;" horiz-adv-x="609" 
d="M-25 0l6 40l470 440h99l-64 -401h76l-13 -79h-76l-39 -250h-198l40 250h-301zM131 79h157l27 170z" />
    <glyph glyph-name="fiveoldstyle" unicode="&#xf735;" horiz-adv-x="604" 
d="M215 -197q51 0 82.5 61.5t31.5 137.5q0 68 -30 96.5t-97 28.5q-39 0 -77.5 -8.5t-58.5 -16.5l-19 -9l-12 15l103 360h230q49 0 92 10t62 20l18 10l12 -15l-29 -184h-340l-34 -119q73 34 160 34q114 0 176.5 -59t62.5 -159q0 -119 -89 -193.5t-251 -74.5q-123 0 -184 43.5
t-61 115.5q0 24 6.5 44.5t12.5 28.5l6 8q73 15 189 15l13 -15q-30 -32 -30 -98q0 -77 55 -77z" />
    <glyph glyph-name="sixoldstyle" unicode="&#xf736;" horiz-adv-x="664" 
d="M408 647q-50 0 -95 -67.5t-60 -215.5q54 52 155 52q98 0 160 -50t62 -134q0 -107 -97.5 -175.5t-226.5 -68.5q-132 0 -199.5 77.5t-67.5 222.5q0 63 12 121t41 114t72 97.5t110.5 66.5t151.5 25q107 0 169.5 -37.5t62.5 -102.5q0 -20 -6 -38t-12 -26l-5 -9
q-74 -15 -189 -15l-12 15q26 32 26 82q0 66 -52 66zM343 351q-52 0 -96 -70v-48q0 -98 14 -139t46 -41q41 0 73.5 53.5t32.5 131.5q0 57 -19.5 85t-50.5 28z" />
    <glyph glyph-name="sevenoldstyle" unicode="&#xf737;" horiz-adv-x="567" 
d="M264 -250h-199q16 101 59.5 197t94 160.5t99 115t80.5 74.5l32 24h-214q-49 0 -91.5 -9.5t-60.5 -19.5l-19 -10l-12 15l28 183h519l-13 -84q-10 -12 -27 -33t-62.5 -89.5t-83 -140t-76 -176.5t-54.5 -207z" />
    <glyph glyph-name="eightoldstyle" unicode="&#xf738;" horiz-adv-x="633" 
d="M620 555q0 -114 -137 -179q53 -37 82 -77.5t29 -96.5q0 -90 -78 -152t-238 -62q-138 0 -202.5 46.5t-64.5 121.5q0 118 152 188q-76 60 -76 150q0 95 78 156.5t222 61.5q121 0 177 -43.5t56 -113.5zM395 149q0 23 -9.5 41.5t-36 38t-39.5 27t-55 30.5q-54 -49 -54 -123
q0 -49 24.5 -79.5t69.5 -30.5q46 0 73 29t27 67zM365 647q-35 0 -55.5 -22t-20.5 -57q0 -41 26.5 -71.5t77.5 -63.5q48 54 48 122q0 45 -20.5 68.5t-55.5 23.5z" />
    <glyph glyph-name="nineoldstyle" unicode="&#xf739;" horiz-adv-x="655" 
d="M238 -197q33 0 60 28t45 75.5t29.5 99t18.5 111.5q-55 -49 -147 -49q-91 0 -152.5 46.5t-61.5 131.5q0 73 46.5 130t118.5 86.5t153 29.5q131 0 197 -81t66 -224q0 -66 -14 -129.5t-44.5 -122t-75 -102t-109.5 -69.5t-144 -26q-105 0 -176 43t-71 116q0 21 6 39.5
t12 26.5l6 8q73 14 189 14l12 -14q-26 -31 -26 -88q0 -40 17 -60t45 -20zM311 133q45 0 87 55q4 43 4 84q0 155 -57 155q-35 0 -66 -54t-31 -133q0 -107 63 -107z" />
    <glyph glyph-name="A.smcp" horiz-adv-x="575" 
d="M130 107l-58 -107h-88l241 430l-25 47l3 13h204l124 -490h-192l-27 107h-182zM255 334l-88 -159h128z" />
    <glyph glyph-name="Aacute.smcp" horiz-adv-x="574" 
d="M129 107l-58 -107h-88l241 430l-25 47l3 13h204l124 -490h-192l-27 107h-182zM253 527l-8 10l99 190q48 0 86 -7.5t52 -15.5l13 -7l-1 -10l-185 -160h-56zM254 334l-88 -159h128z" />
    <glyph glyph-name="Abreve.smcp" horiz-adv-x="574" 
d="M129 107l-58 -107h-88l241 430l-25 47l3 13h204l124 -490h-192l-27 107h-182zM175 649l32 28q6 -6 16 -15t45 -23.5t72 -14.5t74 13t56 27l18 13l24 -28q-2 -5 -7 -13.5t-22 -29.5t-36.5 -37t-52.5 -29.5t-69 -13.5q-37 0 -66 12.5t-44 31t-25 36.5t-12 30zM254 334
l-88 -159h128z" />
    <glyph glyph-name="Acircumflex.smcp" horiz-adv-x="574" 
d="M129 107l-58 -107h-88l241 430l-25 47l3 13h204l124 -490h-192l-27 107h-182zM508 537l-12 -10h-65l-90 76l-114 -76h-66l-8 10l184 190h47zM254 334l-88 -159h128z" />
    <glyph glyph-name="Agrave.smcp" horiz-adv-x="574" 
d="M129 107l-58 -107h-88l241 430l-25 47l3 13h204l124 -490h-192l-27 107h-182zM409 537l-11 -10h-55l-135 160l2 10q52 30 160 30zM254 334l-88 -159h128z" />
    <glyph glyph-name="Adieresis.smcp" horiz-adv-x="574" 
d="M129 107l-58 -107h-88l241 430l-25 47l3 13h204l124 -490h-192l-27 107h-182zM367 598q0 40 27.5 66t67.5 26q33 0 52 -18.5t19 -50.5q0 -40 -27 -67t-67 -27q-34 0 -53 19t-19 52zM147 598q0 40 27 66t68 26q32 0 51 -18.5t19 -50.5q0 -40 -26.5 -67t-67.5 -27
q-34 0 -52.5 19t-18.5 52zM254 334l-88 -159h128z" />
    <glyph glyph-name="Amacron.smcp" horiz-adv-x="574" 
d="M129 107l-58 -107h-88l241 430l-25 47l3 13h204l124 -490h-192l-27 107h-182zM186 557l13 80h294l-13 -80h-294zM254 334l-88 -159h128z" />
    <glyph glyph-name="Aogonek.smcp" horiz-adv-x="574" 
d="M129 107l-58 -107h-88l241 430l-25 47l3 13h204l124 -490h-43q-6 -6 -15 -16.5t-23.5 -38.5t-14.5 -52q0 -36 35 -36l26 5l23 -28q-3 -5 -9.5 -12t-29.5 -18.5t-50 -11.5q-39 0 -66 21.5t-27 63.5q0 38 23.5 68.5t46.5 42.5l24 12h-92l-27 107h-182zM254 334l-88 -159
h128z" />
    <glyph glyph-name="Aring.smcp" horiz-adv-x="574" 
d="M129 107l-58 -107h-88l241 430l-25 47l3 13h204l124 -490h-192l-27 107h-182zM239 606q0 49 34 82.5t84 33.5q40 0 63 -23t23 -63q0 -49 -33.5 -82.5t-83.5 -33.5q-40 0 -63.5 23t-23.5 63zM254 334l-88 -159h128zM311 616q0 -26 26 -26q15 0 25 10t10 25q0 27 -26 27
q-16 0 -25.5 -10.5t-9.5 -25.5z" />
    <glyph glyph-name="Atilde.smcp" horiz-adv-x="574" 
d="M129 107l-58 -107h-88l241 430l-25 47l3 13h204l124 -490h-192l-27 107h-182zM304 663q26 0 53.5 -18.5t49.5 -18.5q21 0 42.5 10t32.5 20l11 10l23 -28q-2 -4 -6.5 -11.5t-19.5 -26.5t-31 -33.5t-40.5 -26.5t-49.5 -12q-26 0 -53.5 18.5t-49.5 18.5q-21 0 -42.5 -10
t-32.5 -20l-11 -10l-24 28q2 4 6.5 11.5t19.5 26.5t31.5 33.5t41 26.5t49.5 12zM254 334l-88 -159h128z" />
    <glyph glyph-name="AE.smcp" horiz-adv-x="673" 
d="M-16 0l301 490h397l-14 -91l-14 -13q-4 4 -13 10t-41 15.5t-69 9.5h-52l-22 -133h132l7 -8l-9 -62h-142l-24 -149h61q37 0 70 8.5t48 17.5l14 9l12 -13l-14 -91h-389l20 130h-93l-78 -130h-88zM191 198h63l23 142z" />
    <glyph glyph-name="AEacute.smcp" horiz-adv-x="672" 
d="M-17 0l301 490h397l-14 -91l-14 -13q-4 4 -13 10t-41 15.5t-69 9.5h-52l-22 -133h132l7 -8l-9 -62h-142l-24 -149h61q37 0 70 8.5t47 17.5l15 9l12 -13l-14 -91h-389l20 130h-93l-78 -130h-88zM304 527l-8 10l99 190q48 0 86 -7.5t51 -15.5l14 -7l-1 -10l-185 -160h-56z
M190 198h63l23 142z" />
    <glyph glyph-name="B.smcp" horiz-adv-x="542" 
d="M12 0l78 490h226q112 0 163 -27.5t51 -85.5q0 -89 -118 -119q105 -24 105 -112q0 -146 -268 -146h-237zM323 158q0 64 -67 64h-21l-24 -154h20q44 0 68 24.5t24 65.5zM336 366q0 56 -61 56h-8l-21 -131h7q40 0 61.5 20t21.5 55z" />
    <glyph glyph-name="C.smcp" horiz-adv-x="562" 
d="M357 444q-46 0 -80.5 -64.5t-34.5 -156.5q0 -74 25 -101.5t85 -27.5q39 0 78 10.5t58 21.5l20 10l22 -24q-3 -5 -9 -13t-27.5 -29t-47.5 -37.5t-70 -29.5t-94 -13q-115 0 -183 61t-68 163q0 123 94.5 204.5t241.5 81.5q96 0 151.5 -37.5t55.5 -95.5q0 -20 -6 -36t-12 -23
l-6 -6q-66 -13 -171 -13l-10 13q24 30 24 86t-36 56z" />
    <glyph glyph-name="Cacute.smcp" horiz-adv-x="562" 
d="M357 444q-46 0 -80.5 -64.5t-34.5 -156.5q0 -74 25 -101.5t85 -27.5q39 0 78 10.5t58 21.5l20 10l22 -24q-3 -5 -9 -13t-27.5 -29t-47.5 -37.5t-70 -29.5t-94 -13q-115 0 -183 61t-68 163q0 123 94.5 204.5t241.5 81.5q96 0 151.5 -37.5t55.5 -95.5q0 -20 -6 -36t-12 -23
l-6 -6q-66 -13 -171 -13l-10 13q24 30 24 86t-36 56zM279 527l-8 10l99 190q48 0 86 -7.5t52 -15.5l13 -7l-1 -10l-185 -160h-56z" />
    <glyph glyph-name="Ccaron.smcp" horiz-adv-x="562" 
d="M357 444q-46 0 -80.5 -64.5t-34.5 -156.5q0 -74 25 -101.5t85 -27.5q39 0 78 10.5t58 21.5l20 10l22 -24q-3 -5 -9 -13t-27.5 -29t-47.5 -37.5t-70 -29.5t-94 -13q-115 0 -183 61t-68 163q0 123 94.5 204.5t241.5 81.5q96 0 151.5 -37.5t55.5 -95.5q0 -20 -6 -36t-12 -23
l-6 -6q-66 -13 -171 -13l-10 13q24 30 24 86t-36 56zM547 724l8 -10l-183 -190h-48l-124 190l12 10h66l90 -76l114 76h65z" />
    <glyph glyph-name="Ccedilla.smcp" horiz-adv-x="562" 
d="M229 -78l22 70q-102 7 -161 67t-59 155q0 123 94.5 204.5t241.5 81.5q96 0 151.5 -37.5t55.5 -95.5q0 -20 -6 -36t-12 -23l-6 -6q-66 -13 -171 -13l-10 13q24 30 24 86t-36 56q-46 0 -80.5 -64.5t-34.5 -156.5q0 -74 25 -101.5t85 -27.5q39 0 78 10.5t58 21.5l20 10
l22 -24q-3 -4 -8 -11.5t-25 -27.5t-43 -35.5t-62.5 -29.5t-83.5 -17l-12 -35q28 0 48 -18.5t20 -49.5q0 -39 -31 -66.5t-79 -27.5q-30 0 -52.5 12t-29.5 24l-7 11l27 23q10 -15 35 -15q19 0 31.5 10t12.5 26q0 27 -34 27z" />
    <glyph glyph-name="Ccircumflex.smcp" horiz-adv-x="562" 
d="M357 444q-46 0 -80.5 -64.5t-34.5 -156.5q0 -74 25 -101.5t85 -27.5q39 0 78 10.5t58 21.5l20 10l22 -24q-3 -5 -9 -13t-27.5 -29t-47.5 -37.5t-70 -29.5t-94 -13q-115 0 -183 61t-68 163q0 123 94.5 204.5t241.5 81.5q96 0 151.5 -37.5t55.5 -95.5q0 -20 -6 -36t-12 -23
l-6 -6q-66 -13 -171 -13l-10 13q24 30 24 86t-36 56zM534 537l-12 -10h-65l-90 76l-114 -76h-65l-8 10l183 190h47z" />
    <glyph glyph-name="Cdotaccent.smcp" horiz-adv-x="562" 
d="M357 444q-46 0 -80.5 -64.5t-34.5 -156.5q0 -74 25 -101.5t85 -27.5q39 0 78 10.5t58 21.5l20 10l22 -24q-3 -5 -9 -13t-27.5 -29t-47.5 -37.5t-70 -29.5t-94 -13q-115 0 -183 61t-68 163q0 123 94.5 204.5t241.5 81.5q96 0 151.5 -37.5t55.5 -95.5q0 -20 -6 -36t-12 -23
l-6 -6q-66 -13 -171 -13l-10 13q24 30 24 86t-36 56zM274 599q0 45 30 74.5t76 29.5q37 0 58 -21t21 -57q0 -45 -30.5 -74.5t-75.5 -29.5q-37 0 -58 20.5t-21 57.5z" />
    <glyph glyph-name="D.smcp" horiz-adv-x="608" 
d="M12 0l78 490h250q117 0 186 -59t69 -158q0 -118 -94.5 -195.5t-237.5 -77.5h-251zM320 422h-53l-56 -354h53q55 0 89 61.5t34 162.5q0 70 -16 100t-51 30z" />
    <glyph glyph-name="Dcaron.smcp" horiz-adv-x="607" 
d="M12 0l78 490h250q117 0 186 -59t69 -158q0 -118 -94.5 -195.5t-237.5 -77.5h-251zM320 422h-53l-56 -354h53q55 0 89 61.5t34 162.5q0 70 -16 100t-51 30zM538 724l8 -10l-183 -190h-48l-124 190l12 10h66l90 -76l114 76h65z" />
    <glyph glyph-name="Dcroat.smcp" horiz-adv-x="608" 
d="M12 213l11 69h35l33 208h249q117 0 186 -59t69 -158q0 -118 -94.5 -195.5t-237.5 -77.5h-250l34 213h-35zM321 422h-54l-22 -140h77l-10 -69h-78l-23 -145h53q55 0 89.5 61.5t34.5 161.5q0 71 -16.5 101t-50.5 30z" />
    <glyph glyph-name="Eth.smcp" horiz-adv-x="608" 
d="M12 213l11 69h35l33 208h249q117 0 186 -59t69 -158q0 -118 -94.5 -195.5t-237.5 -77.5h-250l34 213h-35zM321 422h-54l-22 -140h77l-10 -69h-78l-23 -145h53q55 0 89.5 61.5t34.5 161.5q0 71 -16.5 101t-50.5 30z" />
    <glyph glyph-name="Thorn.smcp" horiz-adv-x="536" 
d="M12 0l78 490h188l-14 -88h41q106 0 163.5 -34.5t57.5 -101.5q0 -76 -73 -120t-195 -44h-42l-16 -102h-188zM266 333h-13l-26 -162h11q42 0 66.5 25.5t24.5 69.5q0 67 -63 67z" />
    <glyph glyph-name="E.smcp" horiz-adv-x="469" 
d="M12 0l78 490h387l-13 -91l-15 -13q-4 4 -13 10t-40.5 15.5t-68.5 9.5h-60l-22 -133h140l7 -8l-9 -62h-149l-23 -149h67q37 0 70 8.5t47 17.5l14 9l12 -13l-14 -91h-395z" />
    <glyph glyph-name="Eacute.smcp" horiz-adv-x="468" 
d="M12 0l78 490h387l-13 -91l-15 -13q-4 4 -13 10t-40.5 15.5t-68.5 9.5h-60l-22 -133h140l7 -8l-9 -62h-149l-23 -149h67q37 0 70 8.5t47 17.5l14 9l12 -13l-14 -91h-395zM208 527l-7 10l99 190q48 0 85.5 -7.5t50.5 -15.5l14 -7l-1 -10l-185 -160h-56z" />
    <glyph glyph-name="Ebreve.smcp" horiz-adv-x="468" 
d="M12 0l78 490h387l-13 -91l-15 -13q-4 4 -13 10t-40.5 15.5t-68.5 9.5h-60l-22 -133h140l7 -8l-9 -62h-149l-23 -149h67q37 0 70 8.5t47 17.5l14 9l12 -13l-14 -91h-395zM139 649l31 28q6 -6 16 -15t45 -23.5t72 -14.5t74 13t55 27l19 13l24 -28q-2 -5 -7 -13.5t-22 -29.5
t-36.5 -37t-52.5 -29.5t-69 -13.5t-65 12.5t-44 31t-25 36.5t-12 30z" />
    <glyph glyph-name="Ecaron.smcp" horiz-adv-x="468" 
d="M12 0l78 490h387l-13 -91l-15 -13q-4 4 -13 10t-40.5 15.5t-68.5 9.5h-60l-22 -133h140l7 -8l-9 -62h-149l-23 -149h67q37 0 70 8.5t47 17.5l14 9l12 -13l-14 -91h-395zM483 722l8 -10l-183 -190h-48l-123 190l12 10h65l90 -76l114 76h65z" />
    <glyph glyph-name="Ecircumflex.smcp" horiz-adv-x="467" 
d="M12 0l78 490h387l-13 -91l-15 -13q-4 4 -13 10t-40.5 15.5t-68.5 9.5h-60l-22 -133h140l7 -8l-9 -62h-149l-23 -149h67q37 0 70 8.5t47 17.5l14 9l12 -13l-14 -91h-395zM469 537l-12 -10h-65l-90 76l-114 -76h-65l-8 10l183 190h48z" />
    <glyph glyph-name="Edieresis.smcp" horiz-adv-x="468" 
d="M12 0l78 490h387l-13 -91l-15 -13q-4 4 -13 10t-40.5 15.5t-68.5 9.5h-60l-22 -133h140l7 -8l-9 -62h-149l-23 -149h67q37 0 70 8.5t47 17.5l14 9l12 -13l-14 -91h-395zM329 600q0 40 27.5 66t68.5 26q32 0 51 -18.5t19 -50.5q0 -40 -27 -67t-67 -27q-34 0 -53 19t-19 52
zM109 600q0 40 27 66t68 26q33 0 51.5 -18.5t18.5 -50.5q0 -40 -26.5 -67t-67.5 -27q-33 0 -52 19t-19 52z" />
    <glyph glyph-name="Edotaccent.smcp" horiz-adv-x="468" 
d="M12 0l78 490h387l-13 -91l-15 -13q-4 4 -13 10t-40.5 15.5t-68.5 9.5h-60l-22 -133h140l7 -8l-9 -62h-149l-23 -149h67q37 0 70 8.5t47 17.5l14 9l12 -13l-14 -91h-395zM211 599q0 45 30 74.5t76 29.5q37 0 58 -21t21 -57q0 -45 -30 -74.5t-76 -29.5q-37 0 -58 20.5
t-21 57.5z" />
    <glyph glyph-name="Egrave.smcp" horiz-adv-x="468" 
d="M12 0l78 490h387l-13 -91l-15 -13q-4 4 -13 10t-40.5 15.5t-68.5 9.5h-60l-22 -133h140l7 -8l-9 -62h-149l-23 -149h67q37 0 70 8.5t47 17.5l14 9l12 -13l-14 -91h-395zM379 537l-11 -10h-55l-134 160l2 10q51 30 159 30z" />
    <glyph glyph-name="Emacron.smcp" horiz-adv-x="468" 
d="M12 0l78 490h387l-13 -91l-15 -13q-4 4 -13 10t-40.5 15.5t-68.5 9.5h-60l-22 -133h140l7 -8l-9 -62h-149l-23 -149h67q37 0 70 8.5t47 17.5l14 9l12 -13l-14 -91h-395zM148 557l13 80h294l-13 -80h-294z" />
    <glyph glyph-name="Eogonek.smcp" horiz-adv-x="468" 
d="M12 0l78 490h387l-13 -91l-15 -13q-4 4 -13 10t-40.5 15.5t-68.5 9.5h-60l-22 -133h140l7 -8l-9 -62h-149l-23 -149h67q37 0 70 8.5t47 17.5l14 9l12 -13l-14 -91h-38q-13 -11 -32.5 -41.5t-19.5 -63.5q0 -36 35 -36l27 5l23 -28q-3 -5 -9.5 -12t-29.5 -18.5t-50 -11.5
q-39 0 -66 21.5t-27 63.5q0 33 20 62t37 40.5t32 18.5h-297z" />
    <glyph glyph-name="F.smcp" horiz-adv-x="450" 
d="M12 0l78 490h382l-13 -91l-14 -13q-4 4 -13 10t-41 15.5t-69 9.5h-55l-22 -133h143l8 -8l-9 -62h-153l-34 -218h-188z" />
    <glyph glyph-name="G.smcp" horiz-adv-x="560" 
d="M323 183l9 61h33q50 0 94 3t63 7l19 3l11 -13l-27 -170l-9 -9t-27 -20.5t-45.5 -25.5t-65.5 -20t-86 -9q-124 0 -192.5 60t-68.5 164q0 123 94.5 204.5t246.5 81.5q93 0 147 -32.5t54 -90.5q0 -19 -6 -35t-12 -22l-6 -6q-65 -12 -170 -12l-11 12q25 27 25 84
q0 28 -7.5 37t-24.5 9q-51 0 -85.5 -64.5t-34.5 -161.5q0 -75 23 -108.5t76 -33.5q11 0 17 1l6 38q4 32 1 60h-33z" />
    <glyph glyph-name="Gbreve.smcp" horiz-adv-x="559" 
d="M323 183l9 61h33q50 0 94 3t63 7l19 3l11 -13l-27 -170l-9 -9t-27 -20.5t-45.5 -25.5t-65.5 -20t-86 -9q-124 0 -192.5 60t-68.5 164q0 123 94.5 204.5t246.5 81.5q93 0 147 -32.5t54 -90.5q0 -19 -6 -35t-12 -22l-6 -6q-65 -12 -170 -12l-11 12q25 27 25 84
q0 28 -7.5 37t-24.5 9q-51 0 -85.5 -64.5t-34.5 -161.5q0 -75 23 -108.5t76 -33.5q11 0 17 1l6 38q4 32 1 60h-33zM201 649l32 28q6 -6 16 -15t45 -23.5t72 -14.5t74 13t56 27l18 13l24 -28q-2 -5 -7 -13.5t-22 -29.5t-36.5 -37t-52.5 -29.5t-69 -13.5q-37 0 -66 12.5
t-44 31t-25 36.5t-12 30z" />
    <glyph glyph-name="Gcircumflex.smcp" horiz-adv-x="559" 
d="M323 183l9 61h33q50 0 94 3t63 7l19 3l11 -13l-27 -170l-9 -9t-27 -20.5t-45.5 -25.5t-65.5 -20t-86 -9q-124 0 -192.5 60t-68.5 164q0 123 94.5 204.5t246.5 81.5q93 0 147 -32.5t54 -90.5q0 -19 -6 -35t-12 -22l-6 -6q-65 -12 -170 -12l-11 12q25 27 25 84
q0 28 -7.5 37t-24.5 9q-51 0 -85.5 -64.5t-34.5 -161.5q0 -75 23 -108.5t76 -33.5q11 0 17 1l6 38q4 32 1 60h-33zM534 537l-12 -10h-65l-90 76l-114 -76h-65l-8 10l183 190h47z" />
    <glyph glyph-name="Gcommaaccent.smcp" horiz-adv-x="559" 
d="M323 183l9 61h33q50 0 94 3t63 7l19 3l11 -13l-27 -170l-9 -9t-27 -20.5t-45.5 -25.5t-65.5 -20t-86 -9q-124 0 -192.5 60t-68.5 164q0 123 94.5 204.5t246.5 81.5q93 0 147 -32.5t54 -90.5q0 -19 -6 -35t-12 -22l-6 -6q-65 -12 -170 -12l-11 12q25 27 25 84
q0 28 -7.5 37t-24.5 9q-51 0 -85.5 -64.5t-34.5 -161.5q0 -75 23 -108.5t76 -33.5q11 0 17 1l6 38q4 32 1 60h-33zM182 -241l-14 17q7 7 17 20.5t27 55t17 82.5l-4 41l6 6q31 0 59 -3.5t40 -7.5l13 -4q2 -7 2 -21q0 -36 -17 -68.5t-40.5 -53t-47.5 -36t-41 -21.5z" />
    <glyph glyph-name="Gdotaccent.smcp" horiz-adv-x="559" 
d="M323 183l9 61h33q50 0 94 3t63 7l19 3l11 -13l-27 -170l-9 -9t-27 -20.5t-45.5 -25.5t-65.5 -20t-86 -9q-124 0 -192.5 60t-68.5 164q0 123 94.5 204.5t246.5 81.5q93 0 147 -32.5t54 -90.5q0 -19 -6 -35t-12 -22l-6 -6q-65 -12 -170 -12l-11 12q25 27 25 84
q0 28 -7.5 37t-24.5 9q-51 0 -85.5 -64.5t-34.5 -161.5q0 -75 23 -108.5t76 -33.5q11 0 17 1l6 38q4 32 1 60h-33zM274 599q0 45 30 74.5t76 29.5q37 0 58 -21t21 -57q0 -45 -30.5 -74.5t-75.5 -29.5q-37 0 -58 20.5t-21 57.5z" />
    <glyph glyph-name="H.smcp" horiz-adv-x="608" 
d="M349 0l34 218h-149l-34 -218h-188l78 490h188l-33 -202h149l33 202h187l-78 -490h-187z" />
    <glyph glyph-name="Hbar.smcp" horiz-adv-x="607" 
d="M349 0l34 218h-149l-34 -218h-188l54 342h-34l11 70h34l13 78h188l-13 -78h149l13 78h187l-13 -78h34l-10 -70h-35l-54 -342h-187zM254 342l-9 -54h149l9 54h-149z" />
    <glyph glyph-name="Hcircumflex.smcp" horiz-adv-x="607" 
d="M349 0l34 218h-149l-34 -218h-188l78 490h188l-33 -202h149l33 202h187l-78 -490h-187zM534 537l-12 -10h-65l-90 76l-114 -76h-66l-7 10l183 190h47z" />
    <glyph glyph-name="I.smcp" horiz-adv-x="272" 
d="M12 0l78 490h188l-78 -490h-188z" />
    <glyph glyph-name="Iacute.smcp" horiz-adv-x="272" 
d="M12 0l78 490h188l-78 -490h-188zM113 527l-8 10l99 190q48 0 86 -7.5t52 -15.5l13 -7l-1 -10l-185 -160h-56z" />
    <glyph glyph-name="Ibreve.smcp" horiz-adv-x="272" 
d="M12 0l78 490h188l-78 -490h-188zM34 649l32 28q6 -6 16 -15t45 -23.5t72 -14.5t74 13t55 27l19 13l24 -28q-2 -5 -7 -13.5t-22 -29.5t-36.5 -37t-52.5 -29.5t-69 -13.5q-37 0 -66 12.5t-44 31t-25 36.5t-13 30z" />
    <glyph glyph-name="Icircumflex.smcp" horiz-adv-x="272" 
d="M12 0l78 490h188l-78 -490h-188zM366 537l-12 -10h-65l-90 76l-114 -76h-66l-8 10l184 190h47z" />
    <glyph glyph-name="Idieresis.smcp" horiz-adv-x="272" 
d="M12 0l78 490h188l-78 -490h-188zM6 598q0 40 27.5 66t68.5 26q32 0 51 -18.5t19 -50.5q0 -40 -27 -67t-67 -27q-34 0 -53 19t-19 52zM227 598q0 40 27.5 66t67.5 26q33 0 52 -18.5t19 -50.5q0 -40 -27 -67t-67 -27q-34 0 -53 19t-19 52z" />
    <glyph glyph-name="Idotaccent.smcp" horiz-adv-x="272" 
d="M12 0l78 490h188l-78 -490h-188zM87 623q0 53 36 89t91 36q44 0 69.5 -25t25.5 -69q0 -54 -36.5 -89.5t-90.5 -35.5q-45 0 -70 25t-25 69z" />
    <glyph glyph-name="Igrave.smcp" horiz-adv-x="272" 
d="M12 0l78 490h188l-78 -490h-188zM268 537l-11 -10h-55l-135 160l2 10q52 30 160 30z" />
    <glyph glyph-name="Imacron.smcp" horiz-adv-x="272" 
d="M12 0l78 490h188l-78 -490h-188zM43 557l13 80h294l-13 -80h-294z" />
    <glyph glyph-name="Iogonek.smcp" horiz-adv-x="271" 
d="M12 0l78 490h188l-78 -490h-45q-13 -11 -32.5 -41.5t-19.5 -63.5q0 -36 35 -36l26 5l24 -28q-3 -5 -10 -12t-30 -18.5t-49 -11.5q-39 0 -66 21.5t-27 63.5q0 33 20 62t37 40.5t32 18.5h-83z" />
    <glyph glyph-name="Itilde.smcp" horiz-adv-x="272" 
d="M12 0l78 490h188l-78 -490h-188zM164 663q26 0 53.5 -18.5t49.5 -18.5q21 0 42.5 10t32.5 20l11 10l23 -28q-2 -4 -6.5 -11.5t-19.5 -26.5t-31 -33.5t-40.5 -26.5t-49.5 -12q-26 0 -53.5 18.5t-49.5 18.5q-21 0 -42.5 -10t-32.5 -20l-11 -10l-24 28q2 4 6.5 11.5
t19.5 26.5t31.5 33.5t41 26.5t49.5 12z" />
    <glyph glyph-name="IJ.smcp" horiz-adv-x="518" 
d="M48 228l42 262h187l-41 -262h-188zM228 46q36 0 51 94l56 350h188l-55 -343q-11 -72 -79 -114.5t-175 -42.5q-89 0 -141.5 28.5t-52.5 74.5q0 15 5.5 29t10.5 21l6 7q64 13 168 13l15 -13q-23 -29 -23 -68q0 -36 26 -36z" />
    <glyph glyph-name="J.smcp" horiz-adv-x="408" 
d="M172 149l54 341h187l-53 -335q-26 -165 -237 -165q-49 0 -84.5 8t-46.5 16l-12 8q7 48 33.5 92t48.5 64l23 20h11v-5.5t0.5 -13.5t1 -20.5t2.5 -24t4 -25t5 -23.5t7 -20.5t9.5 -14t12.5 -5.5q17 0 34 103z" />
    <glyph glyph-name="Jcircumflex.smcp" horiz-adv-x="408" 
d="M172 149l54 341h187l-53 -335q-26 -165 -237 -165q-49 0 -84.5 8t-46.5 16l-12 8q7 48 33.5 92t48.5 64l23 20h11v-5.5t0.5 -13.5t1 -20.5t2.5 -24t4 -25t5 -23.5t7 -20.5t9.5 -14t12.5 -5.5q17 0 34 103zM506 533l-12 -10h-65l-90 76l-114 -76h-65l-8 10l183 190h48z
" />
    <glyph glyph-name="K.smcp" horiz-adv-x="573" 
d="M12 0l78 490h188l-31 -195h10l194 195h105l-166 -164l72 -188q13 -35 31.5 -66t30.5 -45l12 -14l-1 -13h-225l-77 209l-33 -209h-188z" />
    <glyph glyph-name="Kcommaaccent.smcp" horiz-adv-x="572" 
d="M12 0l78 490h188l-31 -195h10l194 195h105l-166 -164l72 -188q13 -35 31.5 -66t30.5 -45l12 -14l-1 -13h-225l-77 209l-33 -209h-188zM163 -241l-14 17q7 7 17 20.5t27 55t17 82.5l-4 41l6 6q31 0 59 -3.5t41 -7.5l12 -4q2 -7 2 -21q0 -36 -17 -68.5t-41 -53t-47.5 -36
t-40.5 -21.5z" />
    <glyph glyph-name="L.smcp" horiz-adv-x="434" 
d="M12 0l78 490h188l-67 -421h42q37 0 70 8.5t47 17.5l15 9l11 -13l-13 -91h-371z" />
    <glyph glyph-name="Lacute.smcp" horiz-adv-x="434" 
d="M12 0l78 490h188l-67 -421h42q37 0 70 8.5t47 17.5l15 9l11 -13l-13 -91h-371zM106 527l-8 10l99 190q48 0 86 -7.5t51 -15.5l14 -7l-1 -10l-185 -160h-56z" />
    <glyph glyph-name="Lcaron.smcp" horiz-adv-x="434" 
d="M12 0l78 490h188l-67 -421h42q37 0 70 8.5t47 17.5l15 9l11 -13l-13 -91h-371zM292 282l-14 16q7 7 17 20.5t27 55t17 82.5l-4 41l6 6q31 0 59 -3.5t40 -7.5l13 -4q2 -7 2 -21q0 -36 -17 -68t-41 -52.5t-47.5 -36t-40.5 -22.5z" />
    <glyph glyph-name="Lcommaaccent.smcp" horiz-adv-x="434" 
d="M12 0l78 490h188l-67 -421h42q37 0 70 8.5t47 17.5l15 9l11 -13l-13 -91h-371zM90 -241l-14 17q7 7 17 20.5t27 55t17 82.5l-3 41l5 6q31 0 59.5 -3.5t41.5 -7.5l12 -4q2 -7 2 -21q0 -36 -17 -68.5t-41 -53t-48 -36t-41 -21.5z" />
    <glyph glyph-name="Ldot.smcp" horiz-adv-x="434" 
d="M12 0l78 490h188l-67 -421h42q37 0 70 8.5t47 17.5l15 9l11 -13l-13 -91h-371zM273 238q0 40 27 66.5t67 26.5q34 0 52.5 -18t18.5 -50q0 -41 -27 -67.5t-67 -26.5q-34 0 -52.5 18.5t-18.5 50.5z" />
    <glyph glyph-name="Lslash.smcp" horiz-adv-x="456" 
d="M20 155l-20 44l71 36l41 255h188l-24 -150l51 26l20 -43l-80 -41l-34 -213h42q37 0 70 8.5t47 17.5l15 9l12 -13l-14 -91h-371l28 176z" />
    <glyph glyph-name="M.smcp" horiz-adv-x="769" 
d="M512 0l21 348l-3 4l-158 -338h-123l-19 22l-51 317l-5 -4l-82 -349h-86l88 362q8 30 10.5 59t1.5 43l-2 13l15 13h228l41 -254l118 254h224l-25 -490h-193z" />
    <glyph glyph-name="N.smcp" horiz-adv-x="544" 
d="M12 0l47 294q9 63 8.5 103.5t-5.5 60.5l-5 19l16 13h61l293 -211l34 211h89l-78 -490h-53l-294 209l-33 -209h-80z" />
    <glyph glyph-name="Nacute.smcp" horiz-adv-x="544" 
d="M12 0l47 294q9 63 8.5 103.5t-5.5 60.5l-5 19l16 13h61l293 -211l34 211h89l-78 -490h-53l-294 209l-33 -209h-80zM248 527l-8 10l99 190q48 0 85.5 -7.5t51.5 -15.5l13 -7l-1 -10l-185 -160h-55z" />
    <glyph glyph-name="Ncaron.smcp" horiz-adv-x="544" 
d="M12 0l47 294q9 63 8.5 103.5t-5.5 60.5l-5 19l16 13h61l293 -211l34 211h89l-78 -490h-53l-294 209l-33 -209h-80zM515 724l8 -10l-183 -190h-48l-123 190l12 10h65l90 -76l114 76h65z" />
    <glyph glyph-name="Ncommaaccent.smcp" horiz-adv-x="544" 
d="M12 0l47 294q9 63 8.5 103.5t-5.5 60.5l-5 19l16 13h61l293 -211l34 211h89l-78 -490h-53l-294 209l-33 -209h-80zM149 -241l-13 17q7 7 17 20.5t26.5 55t16.5 82.5l-3 41l6 6q31 0 59 -3.5t40 -7.5l13 -4q2 -7 2 -21q0 -36 -17 -68.5t-41 -53t-48 -36t-41 -21.5z" />
    <glyph glyph-name="Ntilde.smcp" horiz-adv-x="544" 
d="M12 0l47 294q9 63 8.5 103.5t-5.5 60.5l-5 19l16 13h61l293 -211l34 211h89l-78 -490h-53l-294 209l-33 -209h-80zM298 663q26 0 54 -18.5t50 -18.5q21 0 42.5 10t32.5 20l11 10l22 -28q-2 -4 -6.5 -11.5t-19.5 -26.5t-31 -33.5t-40.5 -26.5t-49.5 -12q-26 0 -53.5 18.5
t-49.5 18.5q-21 0 -42 -10t-32 -20l-11 -10l-24 28q2 4 6.5 11.5t19.5 26.5t31 33.5t40.5 26.5t49.5 12z" />
    <glyph glyph-name="Eng.smcp" horiz-adv-x="544" 
d="M12 0l47 294q9 62 8.5 103t-5.5 61l-5 19l16 13h61l291 -205l36 205h89l-81 -510q-13 -83 -62 -124t-144 -41q-44 0 -78.5 8t-46.5 16l-13 8q4 30 17 59t27.5 49.5t28.5 36.5t24 24l9 7h11v-5.5t0.5 -13.5t1 -20.5t2 -24t3.5 -25t5 -23.5t7 -20.5t9.5 -14t12.5 -5.5
q18 0 33 103l16 109l-206 128l-34 -211h-80z" />
    <glyph glyph-name="O.smcp" horiz-adv-x="631" 
d="M31 214q0 122 95 204t237 82q119 0 187 -60t68 -163q0 -123 -94.5 -205t-236.5 -82q-119 0 -187.5 60t-68.5 164zM237 182q0 -75 13.5 -105.5t43.5 -30.5q52 0 86 75t34 187q0 74 -14 105t-45 31q-52 0 -85 -74.5t-33 -187.5z" />
    <glyph glyph-name="Oacute.smcp" horiz-adv-x="631" 
d="M31 214q0 122 95 204t237 82q119 0 187 -60t68 -163q0 -123 -94.5 -205t-236.5 -82q-119 0 -187.5 60t-68.5 164zM237 182q0 -75 13.5 -105.5t43.5 -30.5q52 0 86 75t34 187q0 74 -14 105t-45 31q-52 0 -85 -74.5t-33 -187.5zM291 527l-8 10l99 189q48 0 85.5 -7
t51.5 -15l14 -7l-1 -10l-185 -160h-56z" />
    <glyph glyph-name="Obreve.smcp" horiz-adv-x="631" 
d="M31 214q0 122 95 204t237 82q119 0 187 -60t68 -163q0 -123 -94.5 -205t-236.5 -82q-119 0 -187.5 60t-68.5 164zM237 182q0 -75 13.5 -105.5t43.5 -30.5q52 0 86 75t34 187q0 74 -14 105t-45 31q-52 0 -85 -74.5t-33 -187.5zM213 649l32 28q6 -6 16 -15t45 -23.5
t72 -14.5t74 13t56 27l18 13l24 -28q-2 -5 -7 -13.5t-22 -29.5t-36.5 -37t-52.5 -29.5t-69 -13.5q-37 0 -66 12.5t-44 31t-25 36.5t-12 30z" />
    <glyph glyph-name="Ocircumflex.smcp" horiz-adv-x="631" 
d="M31 214q0 122 95 204t237 82q119 0 187 -60t68 -163q0 -123 -94.5 -205t-236.5 -82q-119 0 -187.5 60t-68.5 164zM237 182q0 -75 13.5 -105.5t43.5 -30.5q52 0 86 75t34 187q0 74 -14 105t-45 31q-52 0 -85 -74.5t-33 -187.5zM546 537l-12 -10h-65l-90 76l-114 -76h-66
l-8 10l184 190h47z" />
    <glyph glyph-name="Odieresis.smcp" horiz-adv-x="631" 
d="M31 214q0 122 95 204t237 82q119 0 187 -60t68 -163q0 -123 -94.5 -205t-236.5 -82q-119 0 -187.5 60t-68.5 164zM237 182q0 -75 13.5 -105.5t43.5 -30.5q52 0 86 75t34 187q0 74 -14 105t-45 31q-52 0 -85 -74.5t-33 -187.5zM184 598q0 40 27 66t68 26q32 0 51 -18.5
t19 -50.5q0 -40 -26.5 -67t-67.5 -27q-34 0 -52.5 19t-18.5 52zM404 598q0 40 27.5 66t67.5 26q33 0 52 -18.5t19 -50.5q0 -40 -27 -67t-67 -27q-34 0 -53 19t-19 52z" />
    <glyph glyph-name="Ograve.smcp" horiz-adv-x="631" 
d="M31 214q0 122 95 204t237 82q119 0 187 -60t68 -163q0 -123 -94.5 -205t-236.5 -82q-119 0 -187.5 60t-68.5 164zM237 182q0 -75 13.5 -105.5t43.5 -30.5q52 0 86 75t34 187q0 74 -14 105t-45 31q-52 0 -85 -74.5t-33 -187.5zM447 537l-11 -10h-55l-135 160l2 10
q52 30 160 30z" />
    <glyph glyph-name="Ohungarumlaut.smcp" horiz-adv-x="631" 
d="M31 214q0 122 95 204t237 82q119 0 187 -60t68 -163q0 -123 -94.5 -205t-236.5 -82q-119 0 -187.5 60t-68.5 164zM237 182q0 -75 13.5 -105.5t43.5 -30.5q52 0 86 75t34 187q0 74 -14 105t-45 31q-52 0 -85 -74.5t-33 -187.5zM193 527l-8 10l94 190q48 0 85.5 -7.5
t51.5 -15.5l13 -7l-1 -10l-180 -160h-55zM381 527l-8 10l116 190q48 0 83.5 -7.5t47.5 -15.5l12 -7l-1 -10l-194 -160h-56z" />
    <glyph glyph-name="Omacron.smcp" horiz-adv-x="631" 
d="M31 214q0 122 95 204t237 82q119 0 187 -60t68 -163q0 -123 -94.5 -205t-236.5 -82q-119 0 -187.5 60t-68.5 164zM237 182q0 -75 13.5 -105.5t43.5 -30.5q52 0 86 75t34 187q0 74 -14 105t-45 31q-52 0 -85 -74.5t-33 -187.5zM223 557l13 80h294l-13 -80h-294z" />
    <glyph glyph-name="Oslash.smcp" horiz-adv-x="631" 
d="M157 -18h-81l42 53q-87 61 -87 179q0 122 95 204t237 82q61 0 110 -17l20 25h80l-42 -54q87 -59 87 -177q0 -123 -94.5 -205t-236.5 -82q-60 0 -111 17zM233 183v-3l173 219q-13 45 -51 45q-53 0 -87.5 -73.5t-34.5 -187.5zM294 46q53 0 87.5 74t34.5 187v2l-174 -219
q14 -44 52 -44z" />
    <glyph glyph-name="Oslashacute.smcp" horiz-adv-x="631" 
d="M157 -18h-81l42 53q-87 61 -87 179q0 122 95 204t237 82q61 0 110 -17l20 25h80l-42 -54q87 -59 87 -177q0 -123 -94.5 -205t-236.5 -82q-60 0 -111 17zM284 527l-8 10l99 190q48 0 86 -7.5t51 -15.5l14 -7l-1 -10l-185 -160h-56zM233 183v-3l173 219q-13 45 -51 45
q-53 0 -87.5 -73.5t-34.5 -187.5zM294 46q53 0 87.5 74t34.5 187v2l-174 -219q14 -44 52 -44z" />
    <glyph glyph-name="Otilde.smcp" horiz-adv-x="631" 
d="M31 214q0 122 95 204t237 82q119 0 187 -60t68 -163q0 -123 -94.5 -205t-236.5 -82q-119 0 -187.5 60t-68.5 164zM237 182q0 -75 13.5 -105.5t43.5 -30.5q52 0 86 75t34 187q0 74 -14 105t-45 31q-52 0 -85 -74.5t-33 -187.5zM342 663q26 0 53.5 -18.5t49.5 -18.5
q21 0 42.5 10t32.5 20l11 10l23 -28q-2 -4 -6.5 -11.5t-19.5 -26.5t-31 -33.5t-40.5 -26.5t-49.5 -12q-26 0 -53.5 18.5t-49.5 18.5q-21 0 -42.5 -10t-32.5 -20l-11 -10l-24 28q2 4 6.5 11.5t19.5 26.5t31.5 33.5t41 26.5t49.5 12z" />
    <glyph glyph-name="OE.smcp" horiz-adv-x="808" 
d="M358 0v3q-40 -13 -85 -13q-106 0 -174 62t-68 163q0 120 95.5 202.5t223.5 82.5q48 0 85 -14l1 4h381l-14 -91l-15 -13q-4 4 -13 10t-40.5 15.5t-68.5 9.5h-54l-22 -133h133l8 -8l-9 -62h-143l-23 -149h61q37 0 70 8.5t47 17.5l15 9l11 -13l-13 -91h-389zM293 46
q49 0 82 64l44 274q-14 60 -63 60q-53 0 -86 -74t-33 -188q0 -75 13 -105.5t43 -30.5z" />
    <glyph glyph-name="P.smcp" horiz-adv-x="536" 
d="M12 0l78 490h229q105 0 162.5 -35t57.5 -103q0 -75 -73 -119t-195 -44h-41l-30 -189h-188zM278 422h-11l-26 -163h11q42 0 66 25.5t24 69.5q0 68 -64 68z" />
    <glyph glyph-name="Q.smcp" horiz-adv-x="631" 
d="M284 -12q-118 1 -185.5 61t-67.5 163q0 124 94.5 206t237.5 82q118 0 186.5 -60.5t68.5 -164.5q0 -87 -49 -155.5t-132 -102.5q51 -15 90 -15q20 0 34.5 3t18.5 6l5 3l6 -8q-6 -43 -17 -81.5t-18 -54.5l-8 -17q-13 -7 -38 -7q-36 0 -68 22t-52.5 49t-48.5 49t-57 22z
M237 180q0 -75 13 -106t44 -31q53 0 86 75t33 189q0 74 -13.5 105.5t-44.5 31.5q-53 0 -85.5 -74.5t-32.5 -189.5z" />
    <glyph glyph-name="R.smcp" horiz-adv-x="554" 
d="M12 0l78 490h226q106 0 164 -33.5t58 -97.5q0 -91 -114 -131l35 -100q12 -33 28.5 -63t26.5 -43l10 -14l-9 -8h-203l-65 206h-14l-33 -206h-188zM276 422h-9l-23 -147h8q42 0 65.5 22.5t23.5 62.5q0 62 -65 62z" />
    <glyph glyph-name="Racute.smcp" horiz-adv-x="554" 
d="M12 0l78 490h226q106 0 164 -33.5t58 -97.5q0 -91 -114 -131l35 -100q12 -33 28.5 -63t26.5 -43l10 -14l-9 -8h-203l-65 206h-14l-33 -206h-188zM236 527l-8 10l99 190q48 0 86 -7.5t51 -15.5l14 -7l-1 -10l-185 -160h-56zM276 422h-9l-23 -147h8q42 0 65.5 22.5
t23.5 62.5q0 62 -65 62z" />
    <glyph glyph-name="Rcaron.smcp" horiz-adv-x="554" 
d="M12 0l78 490h226q106 0 164 -33.5t58 -97.5q0 -91 -114 -131l35 -100q12 -33 28.5 -63t26.5 -43l10 -14l-9 -8h-203l-65 206h-14l-33 -206h-188zM511 724l8 -10l-184 -190h-47l-124 190l12 10h66l89 -76l114 76h66zM276 422h-9l-23 -147h8q42 0 65.5 22.5t23.5 62.5
q0 62 -65 62z" />
    <glyph glyph-name="Rcommaaccent.smcp" horiz-adv-x="554" 
d="M12 0l78 490h226q106 0 164 -33.5t58 -97.5q0 -91 -114 -131l35 -100q12 -33 28.5 -63t26.5 -43l10 -14l-9 -8h-203l-65 206h-14l-33 -206h-188zM158 -241l-14 17q7 7 17 20.5t27 55t17 82.5l-4 41l6 6q31 0 59 -3.5t40 -7.5l13 -4q2 -7 2 -21q0 -36 -17 -68.5t-41 -53
t-47.5 -36t-40.5 -21.5zM276 422h-9l-23 -147h8q42 0 65.5 22.5t23.5 62.5q0 62 -65 62z" />
    <glyph glyph-name="S.smcp" horiz-adv-x="494" 
d="M256 444q-31 0 -31 -21q0 -12 18 -30.5t86 -77.5q89 -77 113.5 -107t24.5 -68q0 -68 -58.5 -109t-187.5 -41q-76 0 -132 14.5t-74 29.5l-18 14q4 28 16.5 54.5t28 43.5t30 30.5t24.5 19.5l10 6h17l5.5 -16.5t15 -37.5t25 -47.5t34.5 -37.5t44 -17q18 0 30 8t12 19
q0 7 -6 15.5t-23.5 23.5t-33 26.5t-52.5 38.5q-66 47 -93 80.5t-27 82.5q0 75 61.5 117.5t185.5 42.5q62 0 110 -11t65 -21l17 -11q-7 -46 -34.5 -85.5t-51.5 -55.5l-24 -17h-15q-1 6 -4 15.5t-13 34.5t-22 44.5t-31.5 35t-41.5 15.5z" />
    <glyph glyph-name="Sacute.smcp" horiz-adv-x="494" 
d="M256 444q-31 0 -31 -21q0 -12 18 -30.5t86 -77.5q89 -77 113.5 -107t24.5 -68q0 -68 -58.5 -109t-187.5 -41q-76 0 -132 14.5t-74 29.5l-18 14q4 28 16.5 54.5t28 43.5t30 30.5t24.5 19.5l10 6h17l5.5 -16.5t15 -37.5t25 -47.5t34.5 -37.5t44 -17q18 0 30 8t12 19
q0 7 -6 15.5t-23.5 23.5t-33 26.5t-52.5 38.5q-66 47 -93 80.5t-27 82.5q0 75 61.5 117.5t185.5 42.5q62 0 110 -11t65 -21l17 -11q-7 -46 -34.5 -85.5t-51.5 -55.5l-24 -17h-15q-1 6 -4 15.5t-13 34.5t-22 44.5t-31.5 35t-41.5 15.5zM215 527l-8 10l99 190q48 0 86 -7.5
t52 -15.5l13 -7l-1 -10l-185 -160h-56z" />
    </font>
</defs>
</svg>
