<?xml version="1.0" standalone="no"?>
<!DOCTYPE svg PUBLIC "-//W3C//DTD SVG 1.1//EN" "http://www.w3.org/Graphics/SVG/1.1/DTD/svg11.dtd" >
<svg xmlns="http://www.w3.org/2000/svg" xmlns:xlink="http://www.w3.org/1999/xlink" version="1.1">
<metadata>
Created by FontForge 20170731 at Sat Dec 31 14:07:08 2016
 By Aleksey,,,
Copyright (c) 2017 by Andriy Konstantynov. All rights reserved.
</metadata>
<defs>
<font id="OrchideaPro-Light" horiz-adv-x="597" >
  <font-face 
    font-family="Orchidea Pro Lt"
    font-weight="300"
    font-stretch="normal"
    units-per-em="1000"
    panose-1="2 11 0 3 6 2 0 0 0 3"
    ascent="800"
    descent="-200"
    x-height="473"
    cap-height="700"
    bbox="-61 -258 1209 948"
    underline-thickness="50"
    underline-position="-250"
    unicode-range="U+0020-FB04"
  />
<missing-glyph horiz-adv-x="242" 
 />
    <glyph glyph-name="ff" unicode="ff" horiz-adv-x="641" 
d="M184 439v-439h-69v440h-92v21l92 13v151q0 66 30.5 99.5t86.5 33.5q33 0 60.5 -11.5t38.5 -22.5l11 -12l-15 -15q-26 25 -70 25q-73 0 -73 -92v-157h222v150q0 67 31 101t88 34q33 0 61 -11.5t39 -22.5l11 -12l-15 -15q-27 25 -72 25q-74 0 -74 -95v-154h153v-34h-153
v-439h-69v439h-222z" />
    <glyph glyph-name="fi" unicode="fi" horiz-adv-x="566" 
d="M184 588v-115h206q18 0 35 1.5t25 3.5l8 2l8 -7v-473h-69v300q0 81 -9 139h-204v-439h-69v440h-92v21l92 13v107q0 80 50.5 128t140.5 48q74 0 116.5 -35t42.5 -95q0 -12 -2 -22.5t-4 -15.5l-2 -5q-19 -7 -55 -7l-8 7q6 18 6 44q0 47 -26.5 72.5t-73.5 25.5
q-56 0 -86 -37.5t-30 -100.5z" />
    <glyph glyph-name="fl" unicode="fl" horiz-adv-x="574" 
d="M406 0v450q0 161 -12 250q-31 22 -92 22q-58 0 -88 -29.5t-30 -94.5v-125h121v-34h-121v-439h-69v440h-92v21l92 13v120q0 164 168 164q34 0 63 -6.5t41 -13.5l12 -6q18 0 35 2t25 4l8 2l8 -8v-732h-69z" />
    <glyph glyph-name="ffi" unicode="ffi" horiz-adv-x="856" 
d="M688 0v300q0 81 -9 139h-204v-439h-69v439h-222v-439h-69v440h-92v21l92 13v151q0 66 30.5 99.5t86.5 33.5q33 0 60.5 -11.5t38.5 -22.5l11 -12l-15 -15q-26 25 -70 25q-73 0 -73 -92v-157h222v108q0 80 50.5 128t139.5 48q75 0 117.5 -35t42.5 -95q0 -12 -2 -22.5
t-4 -15.5l-2 -5q-19 -7 -55 -7l-8 7q6 18 6 44q0 47 -26.5 72.5t-73.5 25.5q-56 0 -86 -37.5t-30 -100.5v-115h206q18 0 35 1.5t25 3.5l8 2l8 -7v-473h-69z" />
    <glyph glyph-name="ffl" unicode="ffl" horiz-adv-x="865" 
d="M697 0v450q0 161 -12 250q-31 22 -92 22q-58 0 -88 -29.5t-30 -94.5v-125h121v-34h-121v-439h-69v439h-222v-439h-69v440h-92v21l92 13v151q0 66 30.5 99.5t86.5 33.5q33 0 60.5 -11.5t38.5 -22.5l11 -12l-15 -15q-26 25 -70 25q-73 0 -73 -92v-157h222v121
q0 164 168 164q34 0 63 -6.5t41 -13.5l12 -6q18 0 35 2t25 4l8 2l7 -8v-732h-68z" />
    <glyph glyph-name="f_f_j" unicode="ffj" horiz-adv-x="856" 
d="M688 -35v335q0 81 -9 139h-204v-439h-69v439h-222v-439h-69v440h-92v21l92 13v151q0 66 30.5 99.5t86.5 33.5q33 0 60.5 -11.5t38.5 -22.5l11 -12l-15 -15q-26 25 -70 25q-73 0 -73 -92v-157h222v108q0 80 50.5 128t139.5 48q75 0 117.5 -35t42.5 -95q0 -12 -2 -22.5
t-4 -15.5l-2 -5q-19 -7 -55 -7l-8 7q6 18 6 44q0 47 -26.5 72.5t-73.5 25.5q-56 0 -86 -37.5t-30 -100.5v-115h206q18 0 35 1.5t25 3.5l8 2l8 -7v-489q0 -48 -16.5 -90.5t-39.5 -69t-46 -46t-39 -28.5l-17 -8l-15 15q4 3 11 8.5t25 25.5t32 42t25 58t11 74z" />
    <glyph glyph-name="f_j" unicode="fj" horiz-adv-x="566" 
d="M397 -35v335q0 81 -9 139h-204v-439h-69v440h-92v21l92 13v107q0 80 50.5 128t140.5 48q74 0 116.5 -35t42.5 -95q0 -12 -2 -22.5t-4 -15.5l-2 -5q-19 -7 -55 -7l-8 7q6 18 6 44q0 47 -26.5 72.5t-73.5 25.5q-56 0 -86 -37.5t-30 -100.5v-115h206q18 0 35 1.5t25 3.5l8 2
l8 -7v-489q0 -48 -16.5 -90.5t-39.5 -69t-46 -46t-40 -28.5l-16 -8l-15 15q4 3 11 8.5t25 25.5t32 42t25 58t11 74z" />
    <glyph glyph-name="afii10104_afii10104" unicode="&#x457;&#x457;" horiz-adv-x="539" 
d="M101 0v300q0 52 -3.5 93t-7.5 57l-3 15l7 8q18 0 35 1.5t25 3.5l8 2l8 -7v-473h-69zM12 608q0 16 10 26t27 10t27 -10t10 -26q0 -17 -10 -27t-27 -10t-27 10t-10 27zM233 608q0 17 10 26.5t27 9.5q16 0 26 -10t10 -26q0 -17 -9.5 -27t-26.5 -10q-37 0 -37 37zM371 0v300
q0 52 -3.5 93.5t-7.5 56.5l-4 15l8 8q18 0 35 1.5t25 3.5l7 2l8 -7v-473h-68zM453 608q0 16 10 26t27 10q16 0 26 -10t10 -26q0 -17 -9.5 -27t-26.5 -10t-27 10t-10 27z" />
    <glyph glyph-name=".notdef" horiz-adv-x="242" 
 />
    <glyph glyph-name=".null" horiz-adv-x="0" 
 />
    <glyph glyph-name="nonmarkingreturn" horiz-adv-x="333" 
 />
    <glyph glyph-name="space" unicode=" " horiz-adv-x="242" 
 />
    <glyph glyph-name="exclam" unicode="!" horiz-adv-x="262" 
d="M89 35q0 19 11.5 30.5t30.5 11.5t30.5 -11.5t11.5 -30.5t-11.5 -31t-30.5 -12t-30.5 12t-11.5 31zM104 196l-9 504h72l-9 -504h-54z" />
    <glyph glyph-name="quotedbl" unicode="&#x22;" horiz-adv-x="333" 
d="M89 519l-8 181h50l-8 -187h-28zM209 519l-7 181h50l-8 -187h-28z" />
    <glyph glyph-name="numbersign" unicode="#" horiz-adv-x="619" 
d="M64 469v36h120l21 195h37l-21 -195h208l21 195h36l-21 -195h118v-36h-121l-25 -238h117v-36h-121l-20 -195h-36l20 195h-208l-20 -195h-37l20 195h-116v36h120l25 238h-117zM218 469l-25 -238h208l25 238h-208z" />
    <glyph glyph-name="dollar" unicode="$" horiz-adv-x="646" 
d="M310 675q-76 0 -113.5 -31.5t-37.5 -86.5q0 -50 36 -79.5t158 -95.5q44 -24 59.5 -33t46 -27.5t40.5 -28t27 -25.5t22 -29t10 -30.5t5 -37.5q0 -80 -56 -126.5t-165 -50.5v-94h-36v93q-45 1 -84.5 9t-64 19t-42 21.5t-25.5 17.5l-7 8q0 20 8.5 38.5t17.5 26.5l9 8h10
q3 -5 8 -12.5t24 -27.5t40.5 -35.5t56 -28t72.5 -12.5q75 0 122 34t47 91q0 53 -42 87t-134 81q-4 2 -6.5 3t-6 3t-6.5 3q-118 58 -162.5 99t-44.5 111q0 80 53.5 123.5t156.5 46.5v93h36v-94q59 -2 106 -17.5t64 -29.5l18 -14q0 -20 -8.5 -38.5t-17.5 -26.5l-8 -9h-10
q-2 4 -6 11t-19 25t-33 32t-50 25t-68 11z" />
    <glyph glyph-name="percent" unicode="%" horiz-adv-x="864" 
d="M237 0h-42l432 700h42zM42 515q0 85 46.5 138.5t120.5 53.5q75 0 121.5 -53t46.5 -139t-46.5 -139t-121.5 -53q-74 0 -120.5 53.5t-46.5 138.5zM97 515q0 -73 31 -116.5t81 -43.5q51 0 82 43.5t31 116.5t-31 116t-82 43q-50 0 -81 -43t-31 -116zM487 185q0 85 46.5 138.5
t120.5 53.5q75 0 121.5 -53t46.5 -139t-46.5 -139t-121.5 -53q-74 0 -120.5 53.5t-46.5 138.5zM542 185q0 -73 31 -116.5t81 -43.5q51 0 82 43.5t31 116.5t-31 116t-82 43q-50 0 -81 -43t-31 -116z" />
    <glyph glyph-name="ampersand" unicode="&#x26;" horiz-adv-x="836" 
d="M593 389h61l8 -7q0 -170 -111 -283q81 -63 129 -63q21 0 48.5 12.5t43.5 25.5l17 13l15 -15q-8 -9 -21.5 -22t-50 -35t-66.5 -22q-59 0 -155 70q-94 -70 -218 -70q-110 0 -171.5 53.5t-61.5 137.5q0 43 16 80t41.5 63t46.5 41t43 26q-54 93 -54 153q0 63 53.5 111.5
t143.5 48.5q79 0 127.5 -38.5t48.5 -100.5q0 -13 -2 -25t-4 -17l-2 -6q-21 -7 -61 -7l-8 7q10 22 10 50q0 48 -33 76.5t-80 28.5q-53 0 -86 -35.5t-33 -78.5q0 -74 92.5 -208.5t201.5 -229.5q72 97 72 266zM484 83q-71 56 -141 132t-119 152q-94 -63 -94 -165q0 -79 54 -126
t143 -47q92 0 157 54z" />
    <glyph glyph-name="quotesingle" unicode="'" horiz-adv-x="212" 
d="M89 519l-8 181h50l-8 -187h-28z" />
    <glyph glyph-name="parenleft" unicode="(" horiz-adv-x="314" 
d="M275 -135l-22 -21q-7 5 -19.5 16t-44.5 50.5t-56 87.5t-44 129t-20 173q0 67 10 128.5t26.5 106t36 82.5t39 63t36 42.5t26.5 25.5l10 8l22 -21q-6 -6 -15 -16.5t-33 -50t-42 -85.5t-33 -122.5t-15 -160.5t14 -159.5t34.5 -123.5t41 -84.5t34.5 -52.5z" />
    <glyph glyph-name="parenright" unicode=")" horiz-adv-x="314" 
d="M61 -156l-22 21q6 6 15 16.5t33 50t42 85.5t33 122.5t15 160.5t-14 159.5t-34.5 123.5t-41 84.5t-34.5 52.5l-14 15l22 21q7 -5 19.5 -15.5t44.5 -50.5t56 -87.5t44 -129t20 -173.5q0 -67 -10 -128t-26.5 -105.5t-36 -83t-39 -63.5t-36 -42.5t-26.5 -25.5z" />
    <glyph glyph-name="asterisk" unicode="*" horiz-adv-x="422" 
d="M195 550l-8 150h48l-8 -150l140 54l15 -45l-145 -39l94 -117l-38 -28l-82 126l-82 -126l-38 28l94 117l-144 39l14 45z" />
    <glyph glyph-name="plus" unicode="+" 
d="M106 307v36h175v175h36v-175h174v-36h-174v-175h-36v175h-175z" />
    <glyph glyph-name="comma" unicode="," horiz-adv-x="200" 
d="M39 -157l-15 15q6 8 15 22t23.5 55.5t14.5 79.5q0 15 -2.5 28.5t-4.5 18.5l-2 6l6 5q18 0 33.5 -2.5t22.5 -4.5l6 -3q4 -12 4 -35q0 -30 -10.5 -60.5t-25 -52t-29.5 -38.5t-25 -25z" />
    <glyph glyph-name="hyphen" unicode="-" horiz-adv-x="356" 
d="M71 258v36h215v-36h-215z" />
    <glyph glyph-name="period" unicode="." horiz-adv-x="200" 
d="M58 35q0 19 11.5 30.5t30.5 11.5t30.5 -11.5t11.5 -30.5t-11.5 -31t-30.5 -12t-30.5 12t-11.5 31z" />
    <glyph glyph-name="slash" unicode="/" horiz-adv-x="411" 
d="M62 -150h-39l326 900h39z" />
    <glyph glyph-name="zero" unicode="0" horiz-adv-x="670" 
d="M70 350q0 159 73.5 258t190.5 99q118 0 191.5 -99t73.5 -258t-73.5 -258t-191.5 -99q-117 0 -190.5 99t-73.5 258zM144 350q0 -149 52.5 -237t137.5 -88q86 0 138.5 88t52.5 237t-52.5 237t-138.5 88q-85 0 -137.5 -88t-52.5 -237z" />
    <glyph glyph-name="one" unicode="1" horiz-adv-x="444" 
d="M248 0v633q-11 -8 -29 -20t-67.5 -31.5t-90.5 -19.5q-5 10 -5 32l6 6q47 0 103 25t89 50l32 25h30v-700h-68z" />
    <glyph glyph-name="two" unicode="2" horiz-adv-x="602" 
d="M538 522q0 -66 -40.5 -138.5t-98 -128.5t-115 -102t-98.5 -71l-40 -25h229q52 0 93.5 4t56.5 8l15 4l8 -8v-65h-485v37q16 11 43.5 29.5t97 76t122.5 113.5t96.5 131.5t43.5 140.5q0 66 -43 106.5t-122 40.5q-75 0 -119 -38.5t-44 -110.5q0 -16 2 -30t4 -20l3 -6l-8 -8
q-17 0 -32.5 2t-22.5 4l-6 2q-9 16 -9 53q0 84 61 134t172 50q113 0 174.5 -50.5t61.5 -134.5z" />
    <glyph glyph-name="three" unicode="3" horiz-adv-x="644" 
d="M314 25q87 0 134.5 42.5t47.5 119.5q0 73 -40.5 113.5t-117.5 40.5h-68l-6 6v32h52q75 0 112.5 38.5t37.5 109.5q0 72 -39 110t-117 38q-74 0 -119 -35t-45 -101q0 -15 2 -28t4 -19l3 -5l-8 -7q-17 0 -32.5 2t-22.5 4l-6 1q-9 16 -9 49q0 78 61.5 124.5t174.5 46.5
q111 0 168.5 -47.5t57.5 -133.5q0 -130 -125 -164q76 -12 116 -58.5t40 -116.5q0 -93 -66.5 -143.5t-186.5 -50.5t-183.5 48.5t-63.5 130.5q0 16 2 28.5t4 17.5l3 4q22 8 61 8l8 -8q-9 -18 -9 -52q0 -69 46 -107t129 -38z" />
    <glyph glyph-name="four" unicode="4" horiz-adv-x="617" 
d="M37 156v18l393 526h34v-508h104v-36h-104v-156h-69v156h-358zM95 192h300v399z" />
    <glyph glyph-name="five" unicode="5" horiz-adv-x="620" 
d="M299 25q85 0 131 48t46 140t-47.5 134t-142.5 42q-47 0 -91 -9.5t-65 -18.5l-20 -9l-11 11l40 332h187q52 0 93 4t57 8l15 4l7 -7v-66h-326l-29 -247q74 38 168 38q120 0 179.5 -58t59.5 -158q0 -106 -64.5 -163t-183.5 -57q-113 0 -174.5 48t-61.5 128q0 16 2.5 28.5
t5.5 16.5l2 5q22 8 61 8l7 -8q-9 -17 -9 -52q0 -67 44 -104.5t120 -37.5z" />
    <glyph glyph-name="six" unicode="6" horiz-adv-x="650" 
d="M144 352v-22q64 85 199 85q107 0 172 -57t65 -153q0 -97 -66.5 -154.5t-172.5 -57.5q-133 0 -202 94t-69 265q0 164 65.5 259.5t204.5 95.5q92 0 154.5 -41.5t62.5 -114.5q0 -13 -2.5 -24.5t-4.5 -16.5l-2 -5q-22 -8 -61 -8l-8 8q9 18 9 48q0 59 -43.5 90.5t-105.5 31.5
q-195 0 -195 -323zM329 382q-114 0 -182 -106q21 -251 191 -251q76 0 122 47.5t46 130.5q0 84 -48 131.5t-129 47.5z" />
    <glyph glyph-name="seven" unicode="7" horiz-adv-x="572" 
d="M268 0h-69q0 99 28 201.5t67.5 178t79 137.5t67.5 94l28 32h-246q-52 0 -93.5 -4t-56.5 -8l-15 -4l-7 8v65h471v-34q-10 -13 -27.5 -36t-61 -96.5t-77 -148t-61 -181t-27.5 -204.5z" />
    <glyph glyph-name="eight" unicode="8" horiz-adv-x="635" 
d="M540 539q0 -47 -26 -87t-54 -60.5t-61 -36.5q80 -36 123 -76.5t43 -105.5q0 -78 -64.5 -129t-183.5 -51t-183.5 51t-64.5 131q0 126 159 188q-65 32 -101 71.5t-36 100.5q0 77 60 124.5t163 47.5q104 0 165 -46.5t61 -121.5zM499 162q0 21 -6 38.5t-21 33t-27.5 26
t-39 24t-41 20t-47.5 20t-46 19.5q-136 -56 -136 -165q0 -67 50 -110t133 -43q81 0 131 39.5t50 97.5zM311 675q-70 0 -112 -34t-42 -89q0 -23 7 -43t24 -37.5t31 -29t44 -26.5t45 -22t51 -22q43 24 80 66.5t37 99.5q0 61 -46 99t-119 38z" />
    <glyph glyph-name="nine" unicode="9" horiz-adv-x="637" 
d="M294 25q106 0 152 83t46 247v3q-66 -66 -186 -66q-106 0 -170.5 53.5t-64.5 151.5q0 97 64.5 153.5t171.5 56.5q259 0 259 -351q0 -363 -273 -363q-95 0 -158.5 41t-63.5 113q0 12 2.5 23.5t4.5 16.5l2 5q22 7 61 7l8 -7q-8 -18 -8 -46q0 -58 43.5 -89.5t109.5 -31.5z
M321 325q100 0 170 78q-7 139 -52 205.5t-132 66.5q-75 0 -119 -46.5t-44 -128.5q0 -85 48 -130t129 -45z" />
    <glyph glyph-name="colon" unicode=":" horiz-adv-x="200" 
d="M58 35q0 19 11.5 30.5t30.5 11.5t30.5 -11.5t11.5 -30.5t-11.5 -31t-30.5 -12t-30.5 12t-11.5 31zM58 437q0 19 11.5 31t30.5 12t30.5 -12t11.5 -31t-11.5 -30.5t-30.5 -11.5t-30.5 11.5t-11.5 30.5z" />
    <glyph glyph-name="semicolon" unicode=";" horiz-adv-x="200" 
d="M58 434q0 19 11.5 31t30.5 12t30.5 -12t11.5 -31t-11.5 -30.5t-30.5 -11.5t-30.5 11.5t-11.5 30.5zM39 -157l-15 15q6 8 15 22t23.5 55.5t14.5 79.5q0 15 -2.5 28.5t-4.5 18.5l-2 6l6 5q18 0 33.5 -2.5t22.5 -4.5l6 -3q4 -12 4 -35q0 -30 -10.5 -60.5t-25 -52
t-29.5 -38.5t-25 -25z" />
    <glyph glyph-name="less" unicode="&#x3c;" 
d="M491 511v-40l-354 -146l354 -146v-40l-405 166v40z" />
    <glyph glyph-name="equal" unicode="=" 
d="M106 404v36h385v-36h-385zM106 210v36h385v-36h-385z" />
    <glyph glyph-name="greater" unicode="&#x3e;" 
d="M106 471v40l405 -166v-40l-405 -166v40l355 146z" />
    <glyph glyph-name="question" unicode="?" horiz-adv-x="563" 
d="M236 35q0 19 11.5 30.5t30.5 11.5t31 -11.5t12 -30.5t-11.5 -31t-31.5 -12q-19 0 -30.5 12t-11.5 31zM506 526q0 -46 -20.5 -86t-50 -64.5t-58.5 -42.5t-49 -25l-21 -8l-2 -104h-53l-3 138q7 2 19.5 5.5t44.5 19.5t56 36t44 56.5t20 79.5q0 64 -40.5 104t-115.5 40
q-68 0 -109.5 -36.5t-41.5 -102.5q0 -16 2 -30t4 -20l3 -5l-8 -7q-17 0 -32.5 2t-22.5 4l-6 1q-10 15 -10 51q0 80 58.5 127.5t164.5 47.5q108 0 167.5 -50.5t59.5 -130.5z" />
    <glyph glyph-name="at" unicode="@" horiz-adv-x="1133" 
d="M1062 326q0 -139 -71 -236t-195 -97q-70 0 -98 37t-14 119l10 64l-2 4q-4 -9 -12 -24t-34 -54t-52.5 -68.5t-65.5 -53.5t-76 -24q-54 0 -82 44.5t-28 119.5q0 140 87.5 231.5t222.5 91.5q50 0 84 -13.5t44 -26.5l9 -14l-42 -261q-12 -72 7 -104t66 -32q62 0 105 47
t61 111.5t18 136.5q0 162 -96 254.5t-260 92.5q-148 0 -268.5 -75t-186 -197.5t-65.5 -264.5q0 -169 97 -260t274 -91q60 0 119 10.5t100 26t74 31t49 25.5l16 11l14 -17q-6 -5 -17 -13.5t-49 -30.5t-80 -39t-107 -30.5t-132 -13.5q-195 0 -305.5 105.5t-110.5 285.5
q0 112 44 216.5t120 183t186 126t234 47.5q190 0 299 -105t109 -276zM415 156q0 -118 66 -118q34 0 71 32t70 85t47.5 79.5t28.5 57.5q2 3 2 4l-8 -79l8 78v2l18 114q-2 4 -6.5 10t-25.5 16.5t-50 10.5q-89 0 -155 -85.5t-66 -206.5z" />
    <glyph glyph-name="A" unicode="A" horiz-adv-x="728" 
d="M165 210l-90 -210h-43l291 676l-9 16v8h79l303 -700h-74l-91 210h-366zM395 527q-32 72 -49 106l-166 -387h336z" />
    <glyph glyph-name="B" unicode="B" horiz-adv-x="690" 
d="M110 0v700h247q111 0 169 -46t58 -128q0 -127 -131 -162q81 -14 124.5 -60t43.5 -119q0 -89 -63 -137t-178 -48h-270zM547 190q0 73 -47 113t-131 40h-188v-307h188q84 0 131 40.5t47 113.5zM511 521q0 68 -42.5 105.5t-122.5 37.5h-165v-285h165q80 0 122.5 38t42.5 104
z" />
    <glyph glyph-name="C" unicode="C" horiz-adv-x="753" 
d="M422 675q-126 0 -200 -86.5t-74 -232.5q0 -148 76.5 -232t210.5 -84q64 0 121.5 19.5t83.5 38.5l25 20l16 -16q-3 -4 -10 -11.5t-30.5 -26.5t-51.5 -33t-74 -26t-97 -12q-158 0 -253 99t-95 259t95.5 258t257.5 98q120 0 189 -54.5t69 -143.5q0 -16 -2.5 -29t-4.5 -18
l-3 -5q-22 -7 -61 -7l-8 7q9 18 9 56q0 76 -50.5 119t-138.5 43z" />
    <glyph glyph-name="D" unicode="D" horiz-adv-x="787" 
d="M110 0v700h262q154 0 249.5 -97t95.5 -253t-95.5 -253t-249.5 -97h-262zM369 664h-188v-628h188q121 0 195.5 85t74.5 229t-74.5 229t-195.5 85z" />
    <glyph glyph-name="E" unicode="E" horiz-adv-x="626" 
d="M110 0v700h439v-44l-8 -7q-48 16 -165 16h-195v-291h306l6 -6v-30h-312v-303h205q52 0 93 4t57 8l15 4l8 -7v-44h-449z" />
    <glyph glyph-name="F" unicode="F" horiz-adv-x="598" 
d="M110 0v700h437v-44l-7 -7q-48 16 -165 16h-194v-291h297l6 -6v-30h-303v-338h-71z" />
    <glyph glyph-name="G" unicode="G" horiz-adv-x="768" 
d="M499 300v30h109q19 0 35.5 2t23.5 4l7 2l7 -8v-239q-3 -4 -10 -10.5t-31 -23.5t-51.5 -30t-73 -23.5t-94.5 -10.5q-160 0 -255.5 98.5t-95.5 259.5q0 160 95.5 258t259.5 98q119 0 187.5 -51.5t68.5 -139.5q0 -16 -2.5 -29t-5.5 -17l-3 -5q-22 -8 -61 -8l-8 8
q10 17 10 55q0 75 -50 115t-137 40q-128 0 -202 -86t-74 -232q0 -149 76 -236t208 -87q96 0 183 49v78q0 83 -8 133h-101z" />
    <glyph glyph-name="H" unicode="H" horiz-adv-x="799" 
d="M618 0v338h-437v-338h-71v700h71v-326h437v326h71v-700h-71z" />
    <glyph glyph-name="I" unicode="I" horiz-adv-x="291" 
d="M110 0v700h71v-700h-71z" />
    <glyph glyph-name="J" unicode="J" horiz-adv-x="529" 
d="M348 211v489h71v-488q0 -219 -203 -219q-54 0 -96.5 15t-58.5 30l-16 15q0 19 7.5 36.5t15.5 25.5l8 8h8q2 -4 5 -10.5t15 -23.5t26 -30t37.5 -23.5t50.5 -10.5q130 0 130 186z" />
    <glyph glyph-name="K" unicode="K" horiz-adv-x="668" 
d="M110 0v700h71v-316h59l293 316h52l-290 -313l154 -188q45 -53 89 -100.5t66 -68.5l22 -22v-8h-87l-300 348h-58v-348h-71z" />
    <glyph glyph-name="L" unicode="L" horiz-adv-x="578" 
d="M110 0v700h71v-665h182q52 0 93.5 4t56.5 8l15 4l8 -7v-44h-426z" />
    <glyph glyph-name="M" unicode="M" horiz-adv-x="937" 
d="M791 0l-87 625l-3 3l-219 -608h-49l-13 14l-228 591l-4 -3l-74 -622h-41l64 527q5 46 7 87t2 60l-1 18l8 8h85l231 -594l215 594h84l96 -700h-73z" />
    <glyph glyph-name="N" unicode="N" horiz-adv-x="784" 
d="M110 0v420q0 80 -4 148t-8 96l-3 28l8 8h28l502 -581v581h41v-700h-23l-502 580v-580h-39z" />
    <glyph glyph-name="O" unicode="O" horiz-adv-x="828" 
d="M70 350q0 159 95.5 258t248.5 99q154 0 249 -99t95 -258t-95 -258t-249 -99q-153 0 -248.5 99t-95.5 258zM148 350q0 -149 73 -237t193 -88t193 88t73 237t-73 237t-193 88t-193 -88t-73 -237z" />
    <glyph glyph-name="P" unicode="P" horiz-adv-x="646" 
d="M110 0v700h229q114 0 181.5 -53t67.5 -146t-67.5 -146t-181.5 -53h-158v-302h-71zM328 664h-147v-326h147q86 0 136 43t50 120t-50 120t-136 43z" />
    <glyph glyph-name="Q" unicode="Q" horiz-adv-x="828" 
d="M414 -12q-153 0 -248.5 99.5t-95.5 259.5t95.5 260t248.5 100q154 0 249 -99.5t95 -260.5q0 -132 -67 -224.5t-180 -122.5q19 -6 99 -40.5t129 -34.5q20 0 34.5 3.5t19.5 6.5l5 3l6 -6q0 -16 -2.5 -31t-5.5 -22l-2 -7q-15 -10 -53 -10q-44 0 -89.5 19.5t-78.5 43.5
t-76 43.5t-83 19.5zM148 347q0 -150 73 -238.5t193 -88.5t193 88.5t73 238.5q0 151 -73 239.5t-193 88.5t-193 -88.5t-73 -239.5z" />
    <glyph glyph-name="R" unicode="R" horiz-adv-x="663" 
d="M110 0v700h216q115 0 182.5 -51t67.5 -142q0 -73 -45.5 -121t-126.5 -64l93 -149q33 -52 62 -94t42 -57l13 -16l-5 -6h-79l-198 315h-151v-315h-71zM315 664h-134v-313h134q86 0 136.5 41t50.5 115t-50.5 115.5t-136.5 41.5z" />
    <glyph glyph-name="S" unicode="S" horiz-adv-x="646" 
d="M311 675q-76 0 -113.5 -31.5t-37.5 -86.5q0 -50 35.5 -79.5t157.5 -95.5q44 -24 59.5 -33t46 -27.5t40.5 -28t27 -25.5t22 -29t10 -30.5t5 -37.5q0 -84 -61 -131t-181 -47q-48 0 -90.5 7.5t-68 18.5t-44.5 22.5t-27 18.5l-8 8q0 20 8.5 38.5t17.5 26.5l9 8h10
q3 -5 8 -12.5t24 -27.5t40.5 -35.5t56 -28t72.5 -12.5q75 0 122 34t47 91q0 53 -42 87t-134 81q-4 2 -6.5 3t-6 3t-6.5 3q-117 58 -161.5 99t-44.5 111q0 83 57.5 126.5t167.5 43.5q66 0 118 -15.5t72 -31.5l19 -15q0 -20 -8.5 -38.5t-16.5 -26.5l-9 -9h-10l-5.5 11
t-18.5 25t-33.5 32t-50 25t-68.5 11z" />
    <glyph glyph-name="T" unicode="T" horiz-adv-x="683" 
d="M377 665v-665h-71v665h-95q-52 0 -93.5 -4t-56.5 -8l-15 -4l-8 7v44h606v-44l-7 -7q-48 16 -165 16h-95z" />
    <glyph glyph-name="U" unicode="U" horiz-adv-x="756" 
d="M614 256v444h39v-443q0 -116 -76 -190t-201 -74q-124 0 -199 74t-75 190v443h72v-452q0 -96 60 -157t157 -61q99 0 161 63t62 163z" />
    <glyph glyph-name="V" unicode="V" horiz-adv-x="718" 
d="M329 14l-218 513q-22 52 -41.5 93.5t-27.5 56.5l-9 15v8h81l269 -630l261 630h42l-291 -700h-52z" />
    <glyph glyph-name="W" unicode="W" horiz-adv-x="1073" 
d="M723 14l-176 472l-172 -486h-52l-14 14l-202 513q-20 52 -38.5 93.5t-26.5 56.5l-9 15v8h80l248 -624l165 466q-17 48 -33 85.5t-23 50.5l-8 14v8h81l231 -621l226 621h43l-255 -700h-51z" />
    <glyph glyph-name="X" unicode="X" horiz-adv-x="686" 
d="M135 700l217 -300l222 300h51l-250 -333l122 -167q38 -52 75 -100t55 -70l18 -22v-8h-86l-234 321l-239 -321h-47l263 353l-252 347h85z" />
    <glyph glyph-name="Y" unicode="Y" horiz-adv-x="658" 
d="M624 700l-258 -384v-316h-71v312l-117 175q-38 56 -74.5 107.5t-54.5 74.5l-18 23v8h87l229 -337l229 337h48z" />
    <glyph glyph-name="Z" unicode="Z" horiz-adv-x="697" 
d="M70 20l469 645h-290q-52 0 -93.5 -4t-56.5 -8l-15 -4l-8 7v44h558v-20l-469 -645h298q52 0 93.5 4t56.5 8l15 4l8 -7v-44h-566v20z" />
    <glyph glyph-name="bracketleft" unicode="[" horiz-adv-x="339" 
d="M107 -150v900h192v-36h-123v-828h123v-36h-192z" />
    <glyph glyph-name="backslash" unicode="\" horiz-adv-x="411" 
d="M388 -150h-39l-326 900h39z" />
    <glyph glyph-name="bracketright" unicode="]" horiz-adv-x="339" 
d="M232 750v-900h-193v36h124v828h-124v36h193z" />
    <glyph glyph-name="asciicircum" unicode="^" horiz-adv-x="447" 
d="M403 518l-6 -7h-39l-135 134l-134 -134h-39l-7 7l170 182h20z" />
    <glyph glyph-name="underscore" unicode="_" horiz-adv-x="500" 
d="M0 -86v36h500v-36h-500z" />
    <glyph glyph-name="grave" unicode="`" horiz-adv-x="263" 
d="M206 571l-6 -6h-26l-117 132v6q18 10 57 10z" />
    <glyph glyph-name="a" unicode="a" horiz-adv-x="560" 
d="M276 480q171 0 171 -138v-265q0 -45 40 -45q8 0 15.5 2t10.5 4l3 2l15 -15q-24 -32 -78 -32q-66 0 -73 61q-78 -61 -176 -61q-67 0 -101 32.5t-34 90.5q0 54 38.5 84t138.5 43l133 16v94q0 96 -105 96q-56 0 -89 -27.5t-33 -74.5l5 -40l-7 -8q-16 0 -29.5 2t-18.5 4l-6 2
q-8 16 -8 40q0 60 49 96.5t139 36.5zM140 123q0 -87 97 -87q36 0 71.5 12.5t53.5 25.5l17 12v141l-125 -15q-63 -8 -88.5 -29t-25.5 -60z" />
    <glyph glyph-name="b" unicode="b" horiz-adv-x="611" 
d="M85 742l8 8q18 0 35 2t25 4l8 2l7 -8v-274l-3 -54l3 -4q7 7 20 17.5t56 27.5t90 17q96 0 156.5 -65t60.5 -178q0 -114 -65.5 -179t-191.5 -65q-57 0 -105.5 13.5t-68.5 26.5l-20 13v404q0 84 -4 157t-8 104zM476 230q0 98 -47.5 152t-123.5 54q-36 0 -70.5 -12.5
t-50.5 -25.5l-16 -12v-324q51 -38 130 -38q83 0 130.5 54.5t47.5 151.5z" />
    <glyph glyph-name="c" unicode="c" horiz-adv-x="549" 
d="M481 90l15 -14q-2 -3 -6.5 -9t-21.5 -20t-37 -25t-54 -20t-73 -9q-112 0 -178 67t-66 177t66.5 176.5t183.5 66.5q85 0 133 -35t48 -96q0 -12 -1.5 -22.5t-3.5 -14.5l-2 -5q-18 -8 -53 -8l-8 8q6 19 6 43q0 48 -31.5 73.5t-88.5 25.5q-83 0 -128.5 -56t-45.5 -148
q0 -100 49.5 -155t139.5 -55q29 0 56 5.5t44.5 13.5t31 16.5t19.5 13.5z" />
    <glyph glyph-name="d" unicode="d" horiz-adv-x="613" 
d="M428 742l8 8q18 0 35 2t25 4l8 2l8 -8v-447q0 -84 3.5 -158t6.5 -105l4 -32l-8 -8q-18 0 -35 -2t-25 -4l-7 -2l-8 8l4 50l-4 4q-7 -7 -19.5 -17t-55 -27t-89.5 -17q-97 0 -158 64t-61 174q0 114 64.5 181.5t174.5 67.5q91 0 144 -44v14q0 84 -3.5 157t-7.5 104zM135 241
q0 -97 48 -150.5t124 -53.5q37 0 71 12t50 25l15 12v265q0 42 -39.5 69.5t-97.5 27.5q-78 0 -124.5 -55.5t-46.5 -151.5z" />
    <glyph glyph-name="e" unicode="e" horiz-adv-x="565" 
d="M483 90l15 -14q-2 -3 -6.5 -9t-21.5 -20t-37.5 -25t-54.5 -20t-73 -9q-112 0 -178.5 66.5t-66.5 176.5q0 111 67.5 177.5t185.5 66.5q90 0 138.5 -40.5t48.5 -115.5q0 -18 -3 -36t-5 -27l-3 -9l-8 -7h-346q0 -100 49.5 -155t140.5 -55q46 0 85.5 13.5t55.5 27.5zM311 449
q-77 0 -122.5 -47t-52.5 -129l295 8q6 28 6 50q0 57 -32 87.5t-94 30.5z" />
    <glyph glyph-name="f" unicode="f" horiz-adv-x="350" 
d="M23 440v21l92 13v149q0 67 31 101t88 34q33 0 61 -11.5t39 -22.5l11 -12l-15 -15q-27 25 -72 25q-74 0 -74 -95v-154h153v-34h-153v-439h-69v440h-92z" />
    <glyph glyph-name="g" unicode="g" horiz-adv-x="567" 
d="M113 -24l7 -8q-19 -30 -19 -74q0 -58 44.5 -87.5t124.5 -29.5q88 0 143 34t55 88q0 27 -13.5 45t-42 26.5t-53 12t-65.5 5.5q-42 2 -63 3.5t-51.5 6t-45 10.5t-30 17t-21.5 27t-6 38q0 69 55 113q-56 44 -56 116q0 71 55.5 116t145.5 45q64 0 116 -26q64 58 144 58
q8 -23 8 -62l-8 -8q-13 9 -41 9q-36 0 -72 -18q54 -46 54 -114q0 -71 -55.5 -115.5t-145.5 -44.5q-67 0 -117 25q-32 -29 -32 -70q0 -22 10 -35.5t36.5 -20.5t50.5 -9t73 -4q46 -2 73.5 -4.5t60 -10t50 -20t29.5 -34t12 -51.5q0 -82 -74 -132t-195 -50q-101 0 -158 38
t-57 112q0 22 4.5 40.5t9.5 26.5l5 8q20 8 55 8zM145 319q0 -59 36.5 -94.5t95.5 -35.5q60 0 96.5 35.5t36.5 94.5q0 60 -36.5 95t-96.5 35q-59 0 -95.5 -35.5t-36.5 -94.5z" />
    <glyph glyph-name="h" unicode="h" horiz-adv-x="621" 
d="M100 0v428q0 84 -4 162.5t-8 115.5l-3 36l8 8q18 0 35 2t25 4l8 2l7 -8v-275l-3 -55l3 -3q9 7 26.5 17.5t72 28t109.5 17.5q78 0 111.5 -34.5t33.5 -104.5v-341h-68v335q0 53 -25.5 77t-83.5 24q-44 0 -88 -12t-66 -24l-22 -13v-387h-68z" />
    <glyph glyph-name="i" unicode="i" horiz-adv-x="269" 
d="M101 0v300q0 52 -3.5 93t-7.5 57l-4 15l8 8q18 0 35 1.5t25 3.5l8 2l8 -7v-473h-69zM87 632q0 20 12.5 33t33.5 13q20 0 32.5 -13t12.5 -33t-12.5 -33t-32.5 -13q-21 0 -33.5 13t-12.5 33z" />
    <glyph glyph-name="j" unicode="j" horiz-adv-x="269" 
d="M101 -35v335q0 52 -3.5 93t-7.5 57l-3 15l7 8q18 0 35 1.5t25 3.5l8 2l8 -7v-489q0 -48 -16.5 -90.5t-39.5 -69t-46 -46t-40 -28.5l-16 -8l-15 15q4 3 11 8.5t25 25.5t32 42t25 58t11 74zM87 632q0 20 12.5 33t33.5 13q20 0 32.5 -13t12.5 -33t-12.5 -33t-32.5 -13
q-21 0 -33.5 13t-12.5 33z" />
    <glyph glyph-name="k" unicode="k" horiz-adv-x="517" 
d="M100 0v450q0 84 -4 157t-8 104l-3 31l8 8q18 0 35 2t25 4l8 2l7 -8v-478l53 5l22 24q48 50 82.5 91.5t45.5 57.5l11 16l10 7h62l-186 -202l55 -78q42 -52 80.5 -98t56.5 -66l18 -20v-9q-20 0 -37.5 -1.5t-25.5 -2.5l-8 -2l-199 249h-40v-243h-68z" />
    <glyph glyph-name="l" unicode="l" horiz-adv-x="268" 
d="M100 0v450q0 84 -4 157t-8 104l-3 31l8 8q18 0 35 2t25 4l8 2l7 -8v-750h-68z" />
    <glyph glyph-name="m" unicode="m" horiz-adv-x="901" 
d="M417 0v335q0 53 -23.5 77t-75.5 24q-38 0 -75 -12t-55 -24l-18 -13v-387h-69v300q0 52 -3.5 93t-7.5 57l-3 15l7 8q18 0 35 1.5t25 3.5l8 2l8 -7l-4 -53l4 -3q8 7 22.5 17.5t61.5 28t97 17.5q94 0 121 -64q13 10 34 22.5t67 27t92 14.5q72 0 104 -35t32 -104v-341h-69
v335q0 53 -23 77t-75 24q-79 0 -154 -46q5 -25 5 -49v-341h-68z" />
    <glyph glyph-name="n" unicode="n" horiz-adv-x="622" 
d="M454 0v335q0 53 -25 77t-84 24q-44 0 -87.5 -12t-65.5 -24l-22 -13v-387h-69v300q0 52 -3.5 93t-7.5 57l-3 15l7 8q18 0 35 1.5t25 3.5l8 2l8 -7l-4 -53l4 -3q9 7 26.5 17.5t71.5 28t109 17.5q78 0 112 -34.5t34 -104.5v-341h-69z" />
    <glyph glyph-name="o" unicode="o" horiz-adv-x="609" 
d="M60 236q0 109 67.5 176.5t176.5 67.5t176.5 -67.5t67.5 -176.5t-67.5 -176t-176.5 -67t-176.5 67t-67.5 176zM135 236q0 -97 46.5 -154.5t122.5 -57.5t122.5 57.5t46.5 154.5q0 98 -46.5 155.5t-122.5 57.5t-122.5 -57.5t-46.5 -155.5z" />
    <glyph glyph-name="p" unicode="p" horiz-adv-x="613" 
d="M170 -250h-69v447q0 84 -3.5 151t-7.5 92l-3 25l7 8q18 0 35 1.5t25 3.5l8 2l8 -7l-4 -51l4 -4q7 7 20 17.5t56 27.5t90 17q96 0 156.5 -65t60.5 -175q0 -113 -64.5 -180t-174.5 -67q-91 0 -144 43v-286zM477 231q0 98 -47 151.5t-123 53.5q-37 0 -71 -12.5t-50 -25.5
l-16 -12v-264q0 -44 39.5 -71t96.5 -27q78 0 124.5 55t46.5 152z" />
    <glyph glyph-name="q" unicode="q" horiz-adv-x="611" 
d="M443 -250v247l4 54l-4 4q-7 -7 -20 -17.5t-56 -27.5t-89 -17q-98 0 -158 64.5t-60 177.5q0 115 65.5 180t192.5 65q56 0 104.5 -13.5t69.5 -26.5l20 -14v-676h-69zM135 242q0 -98 47.5 -151.5t124.5 -53.5q36 0 70 12t50 25l16 12v324q-51 38 -129 38q-84 0 -131.5 -54
t-47.5 -152z" />
    <glyph glyph-name="r" unicode="r" horiz-adv-x="412" 
d="M367 480q8 -29 8 -70l-8 -7q-12 9 -42 9q-25 0 -50 -9t-43 -22t-32.5 -26.5t-21.5 -22.5l-8 -9v-323h-69v300q0 52 -3.5 93t-7.5 57l-3 15l7 8q18 0 35 1.5t25 3.5l8 2l8 -7l-4 -105l4 -3q3 5 8.5 12.5t24.5 27.5t40.5 35t55 27.5t68.5 12.5z" />
    <glyph glyph-name="s" unicode="s" horiz-adv-x="480" 
d="M236 447q-110 0 -110 -74q0 -39 48 -67q22 -12 95 -43q88 -38 121.5 -66t33.5 -79q0 -64 -48 -94.5t-132 -30.5q-38 0 -71 6t-53 14.5t-35 16.5t-21 14l-7 6q0 14 7.5 27.5t15.5 20.5l7 6h8q2 -3 5.5 -8.5t17 -19t29 -23.5t42.5 -18.5t57 -8.5q53 0 85.5 20t32.5 59
q0 37 -30.5 57.5t-113.5 53.5q-80 31 -116 60t-36 83q0 58 44.5 89.5t128.5 31.5q50 0 90.5 -11t56.5 -23l15 -11q0 -14 -7.5 -27.5t-15.5 -19.5l-8 -7h-7q-1 3 -3.5 7.5t-13 15.5t-24 20t-37 16t-51.5 7z" />
    <glyph glyph-name="t" unicode="t" horiz-adv-x="372" 
d="M22 439v21l86 24l22 115h45v-126h146v-34h-146v-328q0 -76 72 -76q21 0 39.5 6.5t25.5 12.5l8 6l15 -14q-2 -2 -5 -5.5t-13.5 -13t-23.5 -16.5t-33.5 -12.5t-43.5 -5.5q-52 0 -81 28t-29 83v335h-84z" />
    <glyph glyph-name="u" unicode="u" horiz-adv-x="620" 
d="M170 473v-325q0 -59 26.5 -85t86.5 -26q44 0 85.5 12t61.5 25l20 12v214q0 52 -2 93t-4 57l-3 15l8 8q18 0 33.5 1.5t21.5 3.5l7 2l8 -7v-273q0 -52 3.5 -100t7.5 -70l3 -22l-7 -8q-18 0 -35 -2t-25 -4l-8 -2l-8 8l4 52l-4 4q-9 -7 -25 -17.5t-67.5 -28t-104.5 -17.5
q-80 0 -116 37.5t-36 111.5v158q0 52 -3.5 93t-7.5 57l-3 15l7 8q18 0 35 1.5t25 3.5l8 2z" />
    <glyph glyph-name="v" unicode="v" horiz-adv-x="544" 
d="M241 14l-125 286q-23 52 -44.5 94t-31.5 58l-11 15l6 6l71 5l184 -417l106 239q24 53 39.5 95t18.5 57l4 15l5 6l46 5l6 -5l-210 -473h-50z" />
    <glyph glyph-name="w" unicode="w" horiz-adv-x="800" 
d="M528 14l-105 286l-16 41l-120 -341h-49l-14 14l-114 286q-21 53 -41.5 94.5t-30.5 57.5l-9 15l6 6l71 5l165 -408l114 323l-36 74l6 6l68 5l152 -409l88 231q20 52 32 94t15 58l2 15l6 6l47 5l5 -5l-179 -473h-49z" />
    <glyph glyph-name="x" unicode="x" horiz-adv-x="531" 
d="M132 479l146 -199l15 20q41 53 70.5 94.5t38.5 56.5l10 15l9 7h55l-176 -223l37 -50q39 -52 76.5 -100t55.5 -70l18 -22v-8q-22 0 -42 -1.5t-29 -2.5l-9 -2l-157 212l-4 -6q-41 -53 -76.5 -101.5t-50.5 -70.5l-15 -22l-10 -6h-45l-5 6l183 231l-46 63q-38 52 -70.5 93.5
t-46.5 56.5l-13 15v8q22 0 42.5 1.5t29.5 3.5z" />
    <glyph glyph-name="y" unicode="y" horiz-adv-x="539" 
d="M510 473l-249 -550q-21 -46 -38.5 -88.5t-24.5 -62.5l-7 -19l-6 -6q-17 0 -33.5 4.5t-24.5 8.5l-8 5v8q58 64 104 165l28 62l-135 300q-23 51 -45 93t-32 58l-10 16l6 6l73 5l178 -404l104 226q24 52 40 94t20 58l3 15l6 6l45 5z" />
    <glyph glyph-name="z" unicode="z" horiz-adv-x="523" 
d="M60 20l314 419h-135q-52 0 -93.5 -4t-56.5 -8l-15 -4l-8 7v43h398v-21l-313 -418h143q52 0 93 4t57 8l15 4l7 -8v-42h-406v20z" />
    <glyph glyph-name="braceleft" unicode="{" horiz-adv-x="348" 
d="M135 8l16 162q5 55 -24 83.5t-85 28.5v36q56 0 85 28.5t24 83.5l-15 162q-8 80 36 121.5t135 41.5v-36q-115 0 -104 -119l16 -162q10 -106 -83 -138q94 -32 83 -138l-16 -162q-11 -119 104 -119v-36q-91 0 -135.5 42t-36.5 121z" />
    <glyph glyph-name="bar" unicode="|" horiz-adv-x="256" 
d="M146 -150h-36v900h36v-900z" />
    <glyph glyph-name="braceright" unicode="}" horiz-adv-x="348" 
d="M198 170l16 -162q8 -79 -36.5 -121t-135.5 -42v36q115 0 104 119l-16 162q-11 106 83 138q-93 32 -83 138l16 162q11 119 -104 119v36q91 0 135 -41.5t36 -121.5l-15 -162q-5 -55 24 -83.5t85 -28.5v-36q-56 0 -85 -28.5t-24 -83.5z" />
    <glyph glyph-name="asciitilde" unicode="~" horiz-adv-x="503" 
d="M181 352q36 0 77 -31t71 -31q28 0 54.5 16t38.5 32l13 16l20 -20l-6 -9t-17.5 -20.5t-28 -26t-36.5 -20.5t-45 -9q-36 0 -77 30.5t-71 30.5q-27 0 -53.5 -16t-39.5 -32l-13 -16l-20 20l6 9t17.5 21t28 26t36.5 20.5t45 9.5z" />
    <glyph glyph-name="exclamdown" unicode="&#xa1;" horiz-adv-x="262" 
d="M173 437q0 -19 -11.5 -30.5t-30.5 -11.5t-30.5 11.5t-11.5 30.5t11.5 31t30.5 12t30.5 -11.5t11.5 -31.5zM158 276l9 -504h-72l9 504h54z" />
    <glyph glyph-name="cent" unicode="&#xa2;" horiz-adv-x="549" 
d="M481 90l15 -14q-2 -3 -6 -8t-19.5 -18.5t-34 -24t-49.5 -20t-66 -11.5v-94h-36v94q-104 5 -164.5 71t-60.5 172q0 104 59.5 169.5t165.5 72.5v94h36v-93q80 -2 125 -37.5t45 -93.5q0 -12 -1.5 -22.5t-3.5 -14.5l-2 -5q-18 -8 -53 -8l-8 8q6 19 6 43q0 48 -31.5 73.5
t-88.5 25.5q-83 0 -128.5 -56t-45.5 -148q0 -100 49.5 -155t139.5 -55q29 0 56 5.5t44.5 13.5t31 16.5t19.5 13.5z" />
    <glyph glyph-name="sterling" unicode="&#xa3;" horiz-adv-x="604" 
d="M77 517q0 93 58 141.5t167 48.5q113 0 172.5 -49.5t59.5 -134.5q0 -16 -2 -29.5t-4 -18.5l-3 -5q-23 -8 -61 -8l-8 8q9 18 9 58q0 71 -43 109t-118 38q-154 0 -154 -155q0 -23 3 -43.5t10 -40.5t11.5 -31t15.5 -32.5t14 -27.5h186l7 -6v-30h-178q10 -32 10 -63
q0 -50 -23 -101t-46 -77l-23 -27h224q52 0 93.5 4t56.5 8l15 4l8 -8v-49h-458v25q4 4 10 12t22 32t28.5 48.5t22.5 58t10 64.5q0 34 -15 69h-78v36h60q-2 3 -13 22t-14.5 25.5t-11.5 24.5t-11 30.5t-6 31t-3 38.5z" />
    <glyph glyph-name="currency" unicode="&#xa4;" horiz-adv-x="613" 
d="M125 300q0 65 41 115l-94 94l26 26l94 -94q51 41 115 41q63 0 115 -41l94 94l25 -26l-93 -94q41 -52 41 -115q0 -64 -41 -115l93 -94l-25 -26l-94 94q-50 -41 -115 -41q-66 0 -116 41l-93 -94l-26 26l94 94q-41 49 -41 115zM161 300q0 -60 43 -103t103 -43t102.5 43
t42.5 103t-42.5 103t-102.5 43t-103 -43t-43 -103z" />
    <glyph glyph-name="yen" unicode="&#xa5;" horiz-adv-x="658" 
d="M624 700l-258 -384v-16h145v-36h-145v-100h145v-36h-145v-128h-71v128h-145v36h145v100h-145v36h145v12l-117 175q-38 56 -74.5 107.5t-54.5 74.5l-18 23v8h87l229 -337l229 337h48z" />
    <glyph glyph-name="brokenbar" unicode="&#xa6;" horiz-adv-x="256" 
d="M146 -150h-36v400h36v-400zM146 750v-400h-36v400h36z" />
    <glyph glyph-name="section" unicode="&#xa7;" horiz-adv-x="503" 
d="M135 602q0 -32 31.5 -56t76.5 -41.5t89.5 -36.5t76 -51t31.5 -75t-29.5 -74.5t-84.5 -42.5q55 -24 84.5 -50.5t29.5 -67.5q0 -51 -48 -82.5t-139 -31.5q-88 0 -138.5 32.5t-50.5 92.5q0 11 2 20.5t4 13.5l1 5q19 8 54 8l8 -8q-6 -16 -6 -37q0 -46 33.5 -71t93.5 -25
q59 0 91 22t32 55q0 31 -31.5 54t-76 39t-89 34t-76 50.5t-31.5 77.5q0 42 27 74.5t79 44.5q-50 22 -77.5 49t-27.5 66q0 52 45 84.5t132 32.5q82 0 126.5 -32t44.5 -91q0 -11 -1.5 -21t-2.5 -14l-2 -4q-18 -9 -53 -9l-8 9q5 15 5 37q0 94 -114 94q-53 0 -82 -21t-29 -53z
M132 368q0 -30 22 -53.5t46.5 -35.5t70.5 -30q51 3 80 28t29 59q0 18 -9.5 34t-20 25.5t-36.5 22.5t-38.5 18t-45.5 18q-46 -4 -72 -28t-26 -58z" />
    <glyph glyph-name="dieresis" unicode="&#xa8;" horiz-adv-x="459" 
d="M86 608q0 16 10 26t27 10t27 -10t10 -26q0 -17 -10 -27t-27 -10t-27 10t-10 27zM299 608q0 16 10 26t27 10t27 -10t10 -26q0 -17 -10 -27t-27 -10t-27 10t-10 27z" />
    <glyph glyph-name="copyright" unicode="&#xa9;" horiz-adv-x="862" 
d="M74 350q0 148 104.5 252.5t252.5 104.5t252.5 -104.5t104.5 -252.5t-104.5 -252.5t-252.5 -104.5t-252.5 104.5t-104.5 252.5zM110 350q0 -133 94 -227t227 -94t227 94t94 227t-94 227t-227 94t-227 -94t-94 -227zM445 509q-57 0 -90.5 -41t-33.5 -113q0 -74 35.5 -113.5
t98.5 -39.5q32 0 60 9t41 19l12 9l9 -9q-5 -7 -14 -16.5t-43.5 -26t-76.5 -16.5q-80 0 -128 49.5t-48 130.5q0 80 48 129t130 49q61 0 96.5 -27.5t35.5 -72.5q0 -8 -1.5 -15t-3.5 -10l-1 -2q-15 -4 -42 -4l-5 4q6 10 6 31q0 36 -22.5 56t-62.5 20z" />
    <glyph glyph-name="ordfeminine" unicode="&#xaa;" horiz-adv-x="291" 
d="M143 703q90 0 90 -69v-130q0 -22 19 -22l15 4l8 -9q-14 -18 -46 -18q-35 0 -40 30q-40 -30 -85 -30q-68 0 -68 62q0 28 20 43t73 21l60 8v49q0 44 -47 44q-25 0 -40.5 -13t-15.5 -35l4 -21l-5 -4l-35 4q-4 8 -4 21q0 30 25.5 47.5t71.5 17.5zM81 526q0 -41 45 -41
q16 0 31.5 5.5t23.5 11.5l8 5v68l-55 -8q-53 -5 -53 -41z" />
    <glyph glyph-name="guillemotleft" unicode="&#xab;" horiz-adv-x="484" 
d="M236 452l6 -6v-28l-134 -143l134 -143v-28l-6 -6l-185 170v14zM420 452l7 -6v-28l-135 -143l135 -143v-28l-7 -6l-185 170v14z" />
    <glyph glyph-name="logicalnot" unicode="&#xac;" 
d="M106 357v36h385v-185h-36v149h-349z" />
    <glyph glyph-name="uni00AD" unicode="&#xad;" horiz-adv-x="356" 
d="M71 258v36h215v-36h-215z" />
    <glyph glyph-name="registered" unicode="&#xae;" horiz-adv-x="862" 
d="M74 350q0 148 104.5 252.5t252.5 104.5t252.5 -104.5t104.5 -252.5t-104.5 -252.5t-252.5 -104.5t-252.5 104.5t-104.5 252.5zM110 350q0 -133 94 -227t227 -94t227 94t94 227t-94 227t-227 94t-227 -94t-94 -227zM319 175v350h114q60 0 95 -25.5t35 -71.5q0 -73 -81 -92
l43 -74q16 -25 30.5 -46t20.5 -30l7 -8l-3 -3h-53l-93 156h-66v-156h-49zM426 503h-58v-150h58q40 0 63 19.5t23 55.5t-23 55.5t-63 19.5z" />
    <glyph glyph-name="macron" unicode="&#xaf;" horiz-adv-x="302" 
d="M33 595v36h236v-36h-236z" />
    <glyph glyph-name="degree" unicode="&#xb0;" horiz-adv-x="314" 
d="M51 600q0 48 29.5 77t77.5 29t77 -29t29 -77t-29 -77.5t-77 -29.5t-77.5 29.5t-29.5 77.5zM88 600q0 -30 20 -50t49 -20q30 0 49.5 20t19.5 50q0 31 -19 50t-50 19q-30 0 -49.5 -19.5t-19.5 -49.5z" />
    <glyph glyph-name="plusminus" unicode="&#xb1;" 
d="M106 332v36h175v175h36v-175h174v-36h-174v-175h-36v175h-175zM106 52v36h385v-36h-385z" />
    <glyph glyph-name="twosuperior" unicode="&#xb2;" horiz-adv-x="311" 
d="M278 611q0 -39 -27 -80t-67 -73t-62.5 -47.5t-35.5 -22.5h109q26 0 46.5 3t28.5 5l7 3l5 -4v-45h-249v24h2q193 142 193 242q0 31 -19 49.5t-54 18.5q-34 0 -53.5 -17.5t-19.5 -52.5q0 -9 1.5 -16.5t2.5 -10.5l2 -3l-5 -5l-43 5q-5 8 -5 27q0 42 31.5 67.5t88.5 25.5
q58 0 90.5 -25t32.5 -68z" />
    <glyph glyph-name="threesuperior" unicode="&#xb3;" horiz-adv-x="330" 
d="M160 366q39 0 60.5 20.5t21.5 57.5q0 74 -74 74h-31l-3 3v21h23q71 0 71 72q0 70 -69 70q-34 0 -54 -16.5t-20 -48.5q0 -8 1.5 -14.5t3.5 -9.5l1 -3l-6 -4l-42 4q-5 8 -5 25q0 39 32 63t91 24q57 0 87 -24t30 -67q0 -65 -64 -82q39 -7 59 -29.5t20 -57.5
q0 -47 -34.5 -72.5t-96.5 -25.5t-95 25t-33 66q0 8 1 14t3 9l1 2q16 5 43 5l5 -5q-6 -9 -6 -27q0 -33 21 -51t58 -18z" />
    <glyph glyph-name="acute" unicode="&#xb4;" horiz-adv-x="263" 
d="M64 565l-7 6l93 142q17 0 31 -2.5t19 -4.5l6 -3v-6l-117 -132h-25z" />
    <glyph glyph-name="paragraph" unicode="&#xb6;" horiz-adv-x="637" 
d="M298 -35v337q-105 0 -167.5 53t-62.5 146t62.5 146t167.5 53h55v-716q0 -48 -15 -90.5t-36 -69t-42 -46t-36 -28.5l-15 -8l-15 15q4 3 11 8.5t25 25.5t32 42t25 58t11 74zM472 0v700h55v-700h-55z" />
    <glyph glyph-name="periodcentered" unicode="&#xb7;" horiz-adv-x="200" 
d="M58 300q0 19 11.5 30.5t30.5 11.5t30.5 -11.5t11.5 -30.5t-11.5 -30.5t-30.5 -11.5t-30.5 11.5t-11.5 30.5z" />
    <glyph glyph-name="cedilla" unicode="&#xb8;" horiz-adv-x="235" 
d="M89 -72l12 72h30l-9 -54q29 0 48 -17t19 -45t-20.5 -45t-53.5 -17q-23 0 -41.5 9t-25.5 18l-6 9l14 13q18 -19 50 -19q43 0 43 34q0 36 -54 36z" />
    <glyph glyph-name="onesuperior" unicode="&#xb9;" horiz-adv-x="237" 
d="M124 350v308q-45 -32 -90 -32q-3 7 -3 20l3 4q26 0 55 12.5t45 25.5l17 12h20v-350h-47z" />
    <glyph glyph-name="ordmasculine" unicode="&#xba;" horiz-adv-x="312" 
d="M32 581q0 55 34 88.5t90 33.5q55 0 89 -33.5t34 -88.5t-34 -88.5t-89 -33.5q-56 0 -90 33.5t-34 88.5zM81 581q0 -49 20.5 -77t54.5 -28t54.5 28t20.5 77q0 48 -21 76.5t-54 28.5q-34 0 -54.5 -28.5t-20.5 -76.5z" />
    <glyph glyph-name="guillemotright" unicode="&#xbb;" horiz-adv-x="484" 
d="M58 446l6 6l185 -170v-14l-185 -170l-6 6v28l134 143l-134 143v28zM242 446l7 6l185 -170v-14l-185 -170l-7 6v28l135 143l-135 143v28z" />
    <glyph glyph-name="onequarter" unicode="&#xbc;" horiz-adv-x="725" 
d="M429 75v11l197 264h23v-252h50v-23h-50v-75h-47v75h-173zM174 -25h-42l432 750h42zM124 350v308q-45 -32 -90 -32q-3 7 -3 20l3 4q26 0 55 12.5t45 25.5l17 12h20v-350h-47zM466 98h136v182z" />
    <glyph glyph-name="onehalf" unicode="&#xbd;" horiz-adv-x="763" 
d="M731 261q0 -39 -27 -80t-67 -73t-62.5 -47.5t-35.5 -22.5h108q26 0 47 3t28 5l8 3l4 -4v-45h-249v24h2q193 142 193 242q0 31 -19 49.5t-53 18.5t-53.5 -17.5t-19.5 -52.5q0 -9 1.5 -16.5t2.5 -10.5l1 -3l-4 -5l-43 5q-5 8 -5 27q0 42 31 67.5t89 25.5t90.5 -25t32.5 -68
zM174 -25h-42l432 750h42zM124 350v308q-45 -32 -90 -32q-3 7 -3 20l3 4q26 0 55 12.5t45 25.5l17 12h20v-350h-47z" />
    <glyph glyph-name="threequarters" unicode="&#xbe;" horiz-adv-x="783" 
d="M487 75v11l197 264h23v-252h50v-23h-50v-75h-47v75h-173zM160 366q39 0 60.5 20.5t21.5 57.5q0 74 -74 74h-31l-3 3v21h23q71 0 71 72q0 70 -69 70q-34 0 -54 -16.5t-20 -48.5q0 -8 1.5 -14.5t3.5 -9.5l1 -3l-6 -4l-42 4q-5 8 -5 25q0 39 32 63t91 24q57 0 87 -24t30 -67
q0 -65 -64 -82q39 -7 59 -29.5t20 -57.5q0 -47 -34.5 -72.5t-96.5 -25.5t-95 25t-33 66q0 8 1 14t3 9l1 2q16 5 43 5l5 -5q-6 -9 -6 -27q0 -33 21 -51t58 -18zM232 -25h-42l432 750h42zM524 98h136v182z" />
    <glyph glyph-name="questiondown" unicode="&#xbf;" horiz-adv-x="563" 
d="M327 437q0 -19 -12 -30.5t-31 -11.5t-30.5 11.5t-11.5 30.5t11.5 31t30.5 12q20 0 31.5 -12t11.5 -31zM56 -54q0 46 20.5 86t50 64.5t58.5 42.5t49 25l21 8l2 104h54l3 -138q-8 -2 -20 -6t-44 -19.5t-56.5 -36t-44.5 -56.5t-20 -79q0 -63 40.5 -103.5t115.5 -40.5
q69 0 110.5 36t41.5 103q0 16 -2.5 30t-4.5 20l-2 5l8 7q17 0 32.5 -2t21.5 -4l7 -1q9 -15 9 -51q0 -80 -58.5 -127.5t-163.5 -47.5q-109 0 -168.5 50.5t-59.5 130.5z" />
    <glyph glyph-name="Agrave" unicode="&#xc0;" horiz-adv-x="728" 
d="M165 210l-90 -210h-43l291 676l-9 16v8h79l303 -700h-74l-91 210h-366zM395 527q-32 72 -49 106l-166 -387h336zM395 778l-6 -6h-25l-117 132v7q17 10 56 10z" />
    <glyph glyph-name="Aacute" unicode="&#xc1;" horiz-adv-x="728" 
d="M165 210l-90 -210h-43l291 676l-9 16v8h79l303 -700h-74l-91 210h-366zM395 527q-32 72 -49 106l-166 -387h336zM333 772l-6 6l92 143q17 0 31 -2.5t20 -4.5l5 -3v-7l-117 -132h-25z" />
    <glyph glyph-name="Acircumflex" unicode="&#xc2;" horiz-adv-x="728" 
d="M165 210l-90 -210h-43l291 676l-9 16v8h79l303 -700h-74l-91 210h-366zM395 527q-32 72 -49 106l-166 -387h336zM494 778l-7 -6h-28l-98 98l-98 -98h-28l-7 6l123 143h20z" />
    <glyph glyph-name="Atilde" unicode="&#xc3;" horiz-adv-x="728" 
d="M165 210l-90 -210h-43l291 676l-9 16v8h79l303 -700h-74l-91 210h-366zM395 527q-32 72 -49 106l-166 -387h336zM316 857q25 0 51 -18t47 -18q20 0 38 9.5t26 19.5l7 10l15 -15q-1 -3 -3.5 -7t-10.5 -15.5t-18 -20t-26.5 -15.5t-34.5 -7q-25 0 -51 18t-47 18
q-20 0 -37.5 -10t-25.5 -20l-8 -9l-15 15q1 3 3.5 7t10.5 15.5t18 20t26.5 15.5t34.5 7z" />
    <glyph glyph-name="Adieresis" unicode="&#xc4;" horiz-adv-x="728" 
d="M165 210l-90 -210h-43l291 676l-9 16v8h79l303 -700h-74l-91 210h-366zM395 527q-32 72 -49 106l-166 -387h336zM218 815q0 16 10 26t27 10t26.5 -9.5t9.5 -26.5t-10 -27t-26 -10q-17 0 -27 10t-10 27zM431 815q0 16 10 26t27 10q16 0 26 -9.5t10 -26.5t-10 -27t-26 -10
t-26.5 10t-10.5 27z" />
    <glyph glyph-name="Aring" unicode="&#xc5;" horiz-adv-x="728" 
d="M165 210l-90 -210h-43l291 676l-9 16v8h79l303 -700h-74l-91 210h-366zM395 527q-32 72 -49 106l-166 -387h336zM283 843q0 35 22 57t57 22t56.5 -22t21.5 -57t-21.5 -57t-56.5 -22t-57 22t-22 57zM316 843q0 -20 13 -32.5t33 -12.5q19 0 31.5 12.5t12.5 32.5t-12.5 32.5
t-31.5 12.5q-20 0 -33 -12.5t-13 -32.5z" />
    <glyph glyph-name="AE" unicode="&#xc6;" horiz-adv-x="880" 
d="M32 0l336 700h434v-44l-8 -7q-47 16 -165 16h-177v-291h288l7 -6v-30h-295v-303h187q52 0 93.5 4t56.5 8l15 4l8 -7v-44h-431v217h-203l-103 -217h-43zM195 253h186v387z" />
    <glyph glyph-name="Ccedilla" unicode="&#xc7;" horiz-adv-x="753" 
d="M390 -72l11 66q-150 5 -240.5 103t-90.5 254q0 160 95.5 258t257.5 98q120 0 189 -54.5t69 -143.5q0 -16 -2.5 -29t-4.5 -18l-3 -5q-22 -7 -61 -7l-8 7q9 18 9 56q0 76 -50.5 119t-138.5 43q-126 0 -200 -86.5t-74 -232.5q0 -148 76.5 -232t210.5 -84q64 0 121.5 19.5
t83.5 38.5l25 20l16 -16q-3 -4 -9.5 -11t-29 -25.5t-49 -32.5t-70.5 -26.5t-92 -13.5l-8 -47q29 0 47.5 -17t18.5 -45t-20 -45t-53 -17q-23 0 -41.5 9t-24.5 18l-7 9l14 13q18 -19 50 -19q42 0 42 34q0 36 -53 36z" />
    <glyph glyph-name="Egrave" unicode="&#xc8;" horiz-adv-x="626" 
d="M110 0v700h439v-44l-8 -7q-48 16 -165 16h-195v-291h306l6 -6v-30h-312v-303h205q52 0 93 4t57 8l15 4l8 -7v-44h-449zM375 778l-6 -6h-26l-117 132v7q18 10 56 10z" />
    <glyph glyph-name="Eacute" unicode="&#xc9;" horiz-adv-x="626" 
d="M110 0v700h439v-44l-8 -7q-48 16 -165 16h-195v-291h306l6 -6v-30h-312v-303h205q52 0 93 4t57 8l15 4l8 -7v-44h-449zM293 772l-7 6l93 143q17 0 31 -2.5t20 -4.5l5 -3v-7l-117 -132h-25z" />
    <glyph glyph-name="Ecircumflex" unicode="&#xca;" horiz-adv-x="626" 
d="M110 0v700h439v-44l-8 -7q-48 16 -165 16h-195v-291h306l6 -6v-30h-312v-303h205q52 0 93 4t57 8l15 4l8 -7v-44h-449zM463 778l-6 -6h-28l-98 98l-99 -98h-28l-6 6l122 143h21z" />
    <glyph glyph-name="Edieresis" unicode="&#xcb;" horiz-adv-x="626" 
d="M110 0v700h439v-44l-8 -7q-48 16 -165 16h-195v-291h306l6 -6v-30h-312v-303h205q52 0 93 4t57 8l15 4l8 -7v-44h-449zM400 808q0 16 10 26t27 10t27 -10t10 -26q0 -17 -10 -27t-27 -10t-27 10t-10 27zM187 808q0 16 10 26t27 10t27 -10t10 -26q0 -17 -10 -27t-27 -10
t-27 10t-10 27z" />
    <glyph glyph-name="Igrave" unicode="&#xcc;" horiz-adv-x="291" 
d="M110 0v700h71v-700h-71zM180 778l-7 -6h-25l-117 132v7q17 10 56 10z" />
    <glyph glyph-name="Iacute" unicode="&#xcd;" horiz-adv-x="291" 
d="M110 0v700h71v-700h-71zM117 772l-6 6l92 143q17 0 31.5 -2.5t19.5 -4.5l6 -3v-7l-117 -132h-26z" />
    <glyph glyph-name="Icircumflex" unicode="&#xce;" horiz-adv-x="291" 
d="M110 0v700h71v-700h-71zM278 778l-6 -6h-28l-99 98l-98 -98h-28l-6 6l122 143h21z" />
    <glyph glyph-name="Idieresis" unicode="&#xcf;" horiz-adv-x="291" 
d="M110 0v700h71v-700h-71zM2 815q0 16 10 26t27 10t27 -10t10 -26q0 -17 -10 -27t-27 -10t-27 10t-10 27zM215 815q0 16 10 26t27 10t27 -10t10 -26q0 -17 -10.5 -27t-26.5 -10t-26.5 10t-10.5 27z" />
    <glyph glyph-name="Eth" unicode="&#xd0;" horiz-adv-x="787" 
d="M38 341v36h72v323h262q154 0 249.5 -97t95.5 -253t-95.5 -253t-249.5 -97h-262v341h-72zM369 664h-188v-287h173v-36h-173v-305h188q121 0 195.5 85t74.5 229t-74.5 229t-195.5 85z" />
    <glyph glyph-name="Ntilde" unicode="&#xd1;" horiz-adv-x="784" 
d="M110 0v420q0 80 -4 148t-8 96l-3 28l8 8h28l502 -581v581h41v-700h-23l-502 580v-580h-39zM346 857q25 0 51.5 -18t46.5 -18t38 9.5t26 19.5l8 10l15 -15q-1 -3 -3.5 -7t-11 -15.5t-18 -20t-26 -15.5t-34.5 -7q-25 0 -51.5 18t-47.5 18q-20 0 -37.5 -10t-25.5 -20l-8 -9
l-15 15q1 3 3.5 7t11 15.5t18 20t26 15.5t34.5 7z" />
    <glyph glyph-name="Ograve" unicode="&#xd2;" horiz-adv-x="829" 
d="M70 350q0 159 95.5 258t248.5 99q154 0 249 -99t95 -258t-95 -258t-249 -99q-153 0 -248.5 99t-95.5 258zM148 350q0 -149 73 -237t193 -88t193 88t73 237t-73 237t-193 88t-193 -88t-73 -237zM449 778l-6 -6h-26l-117 132v7q18 10 57 10z" />
    <glyph glyph-name="Oacute" unicode="&#xd3;" horiz-adv-x="829" 
d="M70 350q0 159 95.5 258t248.5 99q154 0 249 -99t95 -258t-95 -258t-249 -99q-153 0 -248.5 99t-95.5 258zM148 350q0 -149 73 -237t193 -88t193 88t73 237t-73 237t-193 88t-193 -88t-73 -237zM387 772l-7 6l93 143q17 0 31 -2.5t20 -4.5l5 -3v-7l-117 -132h-25z" />
    <glyph glyph-name="Ocircumflex" unicode="&#xd4;" horiz-adv-x="829" 
d="M70 350q0 159 95.5 258t248.5 99q154 0 249 -99t95 -258t-95 -258t-249 -99q-153 0 -248.5 99t-95.5 258zM148 350q0 -149 73 -237t193 -88t193 88t73 237t-73 237t-193 88t-193 -88t-73 -237zM547 778l-6 -6h-28l-98 98l-99 -98h-28l-6 6l122 143h21z" />
    <glyph glyph-name="Otilde" unicode="&#xd5;" horiz-adv-x="829" 
d="M70 350q0 159 95.5 258t248.5 99q154 0 249 -99t95 -258t-95 -258t-249 -99q-153 0 -248.5 99t-95.5 258zM148 350q0 -149 73 -237t193 -88t193 88t73 237t-73 237t-193 88t-193 -88t-73 -237zM369 857q25 0 51 -18t47 -18q20 0 37.5 9.5t25.5 19.5l8 10l15 -15
q-1 -3 -3.5 -7t-10.5 -15.5t-18 -20t-26.5 -15.5t-34.5 -7q-25 0 -51 18t-47 18q-20 0 -38 -10t-26 -20l-8 -9l-14 15q1 3 3.5 7t10.5 15.5t18 20t26.5 15.5t34.5 7z" />
    <glyph glyph-name="Odieresis" unicode="&#xd6;" horiz-adv-x="829" 
d="M70 350q0 159 95.5 258t248.5 99q154 0 249 -99t95 -258t-95 -258t-249 -99q-153 0 -248.5 99t-95.5 258zM148 350q0 -149 73 -237t193 -88t193 88t73 237t-73 237t-193 88t-193 -88t-73 -237zM271 815q0 16 10 26t27 10t27 -10t10 -26q0 -17 -10.5 -27t-26.5 -10
t-26.5 10t-10.5 27zM484 815q0 16 10 26t27 10t27 -10t10 -26q0 -17 -10 -27t-27 -10t-27 10t-10 27z" />
    <glyph glyph-name="multiply" unicode="&#xd7;" 
d="M129 130l-25 26l169 169l-169 169l25 26l169 -170l170 170l25 -26l-169 -169l169 -169l-25 -26l-170 169z" />
    <glyph glyph-name="Oslash" unicode="&#xd8;" horiz-adv-x="828" 
d="M219 -25h-42l42 73q-70 45 -109.5 123.5t-39.5 178.5q0 159 95.5 258t248.5 99q91 0 163 -37l32 55h42l-42 -73q70 -45 109.5 -123.5t39.5 -178.5q0 -159 -95 -258t-249 -99q-89 0 -164 36zM147 350q0 -173 96 -261l313 544q-62 42 -142 42q-120 0 -193.5 -88t-73.5 -237
zM681 350q0 170 -96 260l-313 -544q61 -41 142 -41q120 0 193.5 88t73.5 237z" />
    <glyph glyph-name="Ugrave" unicode="&#xd9;" horiz-adv-x="756" 
d="M614 256v444h39v-443q0 -116 -76 -190t-201 -74q-124 0 -199 74t-75 190v443h72v-452q0 -96 60 -157t157 -61q99 0 161 63t62 163zM415 778l-7 -6h-25l-117 132v7q18 10 56 10z" />
    <glyph glyph-name="Uacute" unicode="&#xda;" horiz-adv-x="756" 
d="M614 256v444h39v-443q0 -116 -76 -190t-201 -74q-124 0 -199 74t-75 190v443h72v-452q0 -96 60 -157t157 -61q99 0 161 63t62 163zM353 772l-7 6l93 143q17 0 31 -2.5t20 -4.5l5 -3v-7l-117 -132h-25z" />
    <glyph glyph-name="Ucircumflex" unicode="&#xdb;" horiz-adv-x="756" 
d="M614 256v444h39v-443q0 -116 -76 -190t-201 -74q-124 0 -199 74t-75 190v443h72v-452q0 -96 60 -157t157 -61q99 0 161 63t62 163zM513 778l-6 -6h-28l-98 98l-99 -98h-28l-6 6l122 143h21z" />
    <glyph glyph-name="Udieresis" unicode="&#xdc;" horiz-adv-x="756" 
d="M614 256v444h39v-443q0 -116 -76 -190t-201 -74q-124 0 -199 74t-75 190v443h72v-452q0 -96 60 -157t157 -61q99 0 161 63t62 163zM237 815q0 16 10 26t27 10t27 -10t10 -26q0 -17 -10.5 -27t-26.5 -10t-26.5 10t-10.5 27zM450 815q0 16 10 26t27 10t27 -10t10 -26
q0 -17 -10 -27t-27 -10t-27 10t-10 27z" />
    <glyph glyph-name="Yacute" unicode="&#xdd;" horiz-adv-x="658" 
d="M624 700l-258 -384v-316h-71v312l-117 175q-38 56 -74.5 107.5t-54.5 74.5l-18 23v8h87l229 -337l229 337h48zM292 772l-6 6l92 143q17 0 31 -2.5t19 -4.5l6 -3v-7l-117 -132h-25z" />
    <glyph glyph-name="Thorn" unicode="&#xde;" horiz-adv-x="646" 
d="M110 0v700h71v-141h154q115 0 182.5 -53t67.5 -146t-67.5 -146t-182.5 -53h-154v-161h-71zM324 523h-143v-326h143q86 0 136.5 43t50.5 120t-50.5 120t-136.5 43z" />
    <glyph glyph-name="germandbls" unicode="&#xdf;" horiz-adv-x="616" 
d="M168 0h-68v564q0 193 192 193q87 0 132 -40t45 -116q0 -31 -7 -57.5t-17.5 -42.5t-21 -27.5t-17.5 -16.5l-7 -5q-35 0 -58.5 -22.5t-23.5 -57.5q0 -19 6 -32.5t25 -27.5t33.5 -22.5t53.5 -28.5q75 -39 102 -65.5t27 -77.5q0 -125 -160 -125q-55 0 -94 15.5t-51 28.5
t-12 18q0 12 6 23.5t12 17.5l6 5h7q2 -3 5 -8t15 -18t26 -23t36.5 -18t47.5 -8q47 0 72 21t25 58q0 19 -6 33t-26 28.5t-34.5 22.5t-53.5 27q-33 15 -51.5 26t-38 27.5t-28 38t-8.5 49.5q0 29 10 52t23.5 35.5t27.5 21t24 11.5l10 3q3 0 14.5 10t24.5 39.5t13 69.5
q0 60 -30 91t-86 31q-122 0 -122 -152v-569z" />
    <glyph glyph-name="agrave" unicode="&#xe0;" horiz-adv-x="560" 
d="M276 480q171 0 171 -138v-265q0 -45 40 -45q8 0 15.5 2t10.5 4l3 2l15 -15q-24 -32 -78 -32q-66 0 -73 61q-78 -61 -176 -61q-67 0 -101 32.5t-34 90.5q0 54 38.5 84t138.5 43l133 16v94q0 96 -105 96q-56 0 -89 -27.5t-33 -74.5l5 -40l-7 -8q-16 0 -29.5 2t-18.5 4l-6 2
q-8 16 -8 40q0 60 49 96.5t139 36.5zM140 123q0 -87 97 -87q36 0 71.5 12.5t53.5 25.5l17 12v141l-125 -15q-63 -8 -88.5 -29t-25.5 -60zM306 571l-7 -6h-25l-117 132v6q17 10 56 10z" />
    <glyph glyph-name="aacute" unicode="&#xe1;" horiz-adv-x="560" 
d="M276 480q171 0 171 -138v-265q0 -45 40 -45q8 0 15.5 2t10.5 4l3 2l15 -15q-24 -32 -78 -32q-66 0 -73 61q-78 -61 -176 -61q-67 0 -101 32.5t-34 90.5q0 54 38.5 84t138.5 43l133 16v94q0 96 -105 96q-56 0 -89 -27.5t-33 -74.5l5 -40l-7 -8q-16 0 -29.5 2t-18.5 4l-6 2
q-8 16 -8 40q0 60 49 96.5t139 36.5zM140 123q0 -87 97 -87q36 0 71.5 12.5t53.5 25.5l17 12v141l-125 -15q-63 -8 -88.5 -29t-25.5 -60zM243 565l-6 6l92 142q17 0 31 -2.5t20 -4.5l5 -3v-6l-117 -132h-25z" />
    <glyph glyph-name="acircumflex" unicode="&#xe2;" horiz-adv-x="560" 
d="M276 480q171 0 171 -138v-265q0 -45 40 -45q8 0 15.5 2t10.5 4l3 2l15 -15q-24 -32 -78 -32q-66 0 -73 61q-78 -61 -176 -61q-67 0 -101 32.5t-34 90.5q0 54 38.5 84t138.5 43l133 16v94q0 96 -105 96q-56 0 -89 -27.5t-33 -74.5l5 -40l-7 -8q-16 0 -29.5 2t-18.5 4l-6 2
q-8 16 -8 40q0 60 49 96.5t139 36.5zM140 123q0 -87 97 -87q36 0 71.5 12.5t53.5 25.5l17 12v141l-125 -15q-63 -8 -88.5 -29t-25.5 -60zM408 571l-6 -6h-28l-99 98l-98 -98h-28l-6 6l122 142h21z" />
    <glyph glyph-name="atilde" unicode="&#xe3;" horiz-adv-x="560" 
d="M276 480q171 0 171 -138v-265q0 -45 40 -45q8 0 15.5 2t10.5 4l3 2l15 -15q-24 -32 -78 -32q-66 0 -73 61q-78 -61 -176 -61q-67 0 -101 32.5t-34 90.5q0 54 38.5 84t138.5 43l133 16v94q0 96 -105 96q-56 0 -89 -27.5t-33 -74.5l5 -40l-7 -8q-16 0 -29.5 2t-18.5 4l-6 2
q-8 16 -8 40q0 60 49 96.5t139 36.5zM140 123q0 -87 97 -87q36 0 71.5 12.5t53.5 25.5l17 12v141l-125 -15q-63 -8 -88.5 -29t-25.5 -60zM228 650q25 0 51 -18t47 -18q20 0 38 10t26 20l7 9l15 -15q-1 -3 -3.5 -7t-10.5 -15.5t-18 -20t-26.5 -15.5t-34.5 -7q-25 0 -51 18
t-47 18q-20 0 -37.5 -9.5t-25.5 -19.5l-8 -10l-15 14q1 3 3.5 7.5t10.5 15.5t18 20t26.5 16t34.5 7z" />
    <glyph glyph-name="adieresis" unicode="&#xe4;" horiz-adv-x="560" 
d="M276 480q171 0 171 -138v-265q0 -45 40 -45q8 0 15.5 2t10.5 4l3 2l15 -15q-24 -32 -78 -32q-66 0 -73 61q-78 -61 -176 -61q-67 0 -101 32.5t-34 90.5q0 54 38.5 84t138.5 43l133 16v94q0 96 -105 96q-56 0 -89 -27.5t-33 -74.5l5 -40l-7 -8q-16 0 -29.5 2t-18.5 4l-6 2
q-8 16 -8 40q0 60 49 96.5t139 36.5zM140 123q0 -87 97 -87q36 0 71.5 12.5t53.5 25.5l17 12v141l-125 -15q-63 -8 -88.5 -29t-25.5 -60zM127 608q0 16 10 26t27 10t27 -10t10 -26q0 -17 -10 -27t-27 -10t-27 10t-10 27zM340 608q0 16 10 26t27 10t27 -10t10 -26
q0 -17 -10 -27t-27 -10t-27 10t-10 27z" />
    <glyph glyph-name="aring" unicode="&#xe5;" horiz-adv-x="560" 
d="M276 480q171 0 171 -138v-265q0 -45 40 -45q8 0 15.5 2t10.5 4l3 2l15 -15q-24 -32 -78 -32q-66 0 -73 61q-78 -61 -176 -61q-67 0 -101 32.5t-34 90.5q0 54 38.5 84t138.5 43l133 16v94q0 96 -105 96q-56 0 -89 -27.5t-33 -74.5l5 -40l-7 -8q-16 0 -29.5 2t-18.5 4l-6 2
q-8 16 -8 40q0 60 49 96.5t139 36.5zM140 123q0 -87 97 -87q36 0 71.5 12.5t53.5 25.5l17 12v141l-125 -15q-63 -8 -88.5 -29t-25.5 -60zM194 636q0 35 22 56.5t57 21.5t56.5 -21.5t21.5 -56.5t-21.5 -57t-56.5 -22t-57 22t-22 57zM228 636q0 -20 13 -33t32 -13t32 13t13 33
t-13 32.5t-32 12.5t-32 -12.5t-13 -32.5z" />
    <glyph glyph-name="ae" unicode="&#xe6;" horiz-adv-x="886" 
d="M801 90l15 -14q-2 -3 -6.5 -9t-21.5 -20t-37.5 -25t-54.5 -20t-73 -9q-139 0 -204 98q-13 -17 -33.5 -35.5t-71 -40.5t-106.5 -22q-70 0 -104.5 32t-34.5 89q0 55 38.5 85.5t138.5 43.5l133 16v94q0 96 -105 96q-56 0 -89 -27.5t-33 -74.5l5 -40l-7 -8q-16 0 -29.5 2
t-18.5 4l-6 2q-8 16 -8 40q0 59 49 96t137 37q128 0 155 -86q68 86 202 86q90 0 139 -40.5t49 -115.5q0 -18 -3 -36t-6 -27l-3 -9l-7 -7h-346q0 -100 49.5 -155t140.5 -55q46 0 85 13.5t55 27.5zM630 449q-77 0 -122.5 -46.5t-52.5 -129.5l295 8q6 21 6 50q0 57 -32.5 87.5
t-93.5 30.5zM140 123q0 -41 25 -64t73 -23q95 0 166 81q-24 50 -25 110l-125 -15q-63 -8 -88.5 -29.5t-25.5 -59.5z" />
    <glyph glyph-name="ccedilla" unicode="&#xe7;" horiz-adv-x="549" 
d="M273 -72l12 66q-104 5 -164.5 71t-60.5 172q0 110 66.5 176.5t183.5 66.5q85 0 133 -35t48 -96q0 -12 -1.5 -22.5t-3.5 -14.5l-2 -5q-18 -8 -53 -8l-8 8q6 19 6 43q0 48 -31.5 73.5t-88.5 25.5q-83 0 -128.5 -56t-45.5 -148q0 -100 49.5 -155t139.5 -55q29 0 56 5.5
t44.5 13.5t31 16.5t19.5 13.5l6 6l15 -14q-2 -3 -6.5 -8.5t-20.5 -19t-34.5 -24.5t-51 -20.5t-68.5 -10.5l-8 -47q28 0 47 -17t19 -45t-20.5 -45t-53.5 -17q-23 0 -41 9t-24 18l-7 9l13 13q18 -19 51 -19q42 0 42 34q0 36 -53 36z" />
    <glyph glyph-name="egrave" unicode="&#xe8;" horiz-adv-x="565" 
d="M483 90l15 -14q-2 -3 -6.5 -9t-21.5 -20t-37.5 -25t-54.5 -20t-73 -9q-112 0 -178.5 66.5t-66.5 176.5q0 111 67.5 177.5t185.5 66.5q90 0 138.5 -40.5t48.5 -115.5q0 -18 -3 -36t-5 -27l-3 -9l-8 -7h-346q0 -100 49.5 -155t140.5 -55q46 0 85.5 13.5t55.5 27.5zM311 449
q-77 0 -122.5 -47t-52.5 -129l295 8q6 28 6 50q0 57 -32 87.5t-94 30.5zM333 571l-6 -6h-26l-117 132v6q18 10 57 10z" />
    <glyph glyph-name="eacute" unicode="&#xe9;" horiz-adv-x="565" 
d="M483 90l15 -14q-2 -3 -6.5 -9t-21.5 -20t-37.5 -25t-54.5 -20t-73 -9q-112 0 -178.5 66.5t-66.5 176.5q0 111 67.5 177.5t185.5 66.5q90 0 138.5 -40.5t48.5 -115.5q0 -18 -3 -36t-5 -27l-3 -9l-8 -7h-346q0 -100 49.5 -155t140.5 -55q46 0 85.5 13.5t55.5 27.5zM311 449
q-77 0 -122.5 -47t-52.5 -129l295 8q6 28 6 50q0 57 -32 87.5t-94 30.5zM270 565l-6 6l92 142q17 0 31.5 -2.5t20.5 -4.5l5 -3v-6l-117 -132h-26z" />
    <glyph glyph-name="ecircumflex" unicode="&#xea;" horiz-adv-x="565" 
d="M483 90l15 -14q-2 -3 -6.5 -9t-21.5 -20t-37.5 -25t-54.5 -20t-73 -9q-112 0 -178.5 66.5t-66.5 176.5q0 111 67.5 177.5t185.5 66.5q90 0 138.5 -40.5t48.5 -115.5q0 -18 -3 -36t-5 -27l-3 -9l-8 -7h-346q0 -100 49.5 -155t140.5 -55q46 0 85.5 13.5t55.5 27.5zM311 449
q-77 0 -122.5 -47t-52.5 -129l295 8q6 28 6 50q0 57 -32 87.5t-94 30.5zM427 571l-6 -6h-28l-99 98l-98 -98h-28l-6 6l122 142h20z" />
    <glyph glyph-name="edieresis" unicode="&#xeb;" horiz-adv-x="565" 
d="M483 90l15 -14q-2 -3 -6.5 -9t-21.5 -20t-37.5 -25t-54.5 -20t-73 -9q-112 0 -178.5 66.5t-66.5 176.5q0 111 67.5 177.5t185.5 66.5q90 0 138.5 -40.5t48.5 -115.5q0 -18 -3 -36t-5 -27l-3 -9l-8 -7h-346q0 -100 49.5 -155t140.5 -55q46 0 85.5 13.5t55.5 27.5zM311 449
q-77 0 -122.5 -47t-52.5 -129l295 8q6 28 6 50q0 57 -32 87.5t-94 30.5zM159 608q0 16 10 26t27 10t27 -10t10 -26q0 -17 -10 -27t-27 -10t-27 10t-10 27zM372 608q0 16 10 26t27 10t27 -10t10 -26q0 -17 -10 -27t-27 -10t-27 10t-10 27z" />
    <glyph glyph-name="igrave" unicode="&#xec;" horiz-adv-x="269" 
d="M169 571l-6 -6h-26l-116 132v6q17 10 56 10zM101 0v300q0 52 -3.5 93t-7.5 57l-3 15l7 8q18 0 35 1.5t25 3.5l8 2l8 -7v-473h-69z" />
    <glyph glyph-name="iacute" unicode="&#xed;" horiz-adv-x="269" 
d="M103 565l-7 6l93 142q17 0 31 -2.5t20 -4.5l5 -3v-6l-117 -132h-25zM101 0v300q0 52 -3.5 93t-7.5 57l-3 15l7 8q18 0 35 1.5t25 3.5l8 2l8 -7v-473h-69z" />
    <glyph glyph-name="icircumflex" unicode="&#xee;" horiz-adv-x="269" 
d="M101 0v300q0 52 -3.5 93t-7.5 57l-3 15l7 8q18 0 35 1.5t25 3.5l8 2l8 -7v-473h-69zM268 571l-7 -6h-28l-98 98l-98 -98h-29l-6 6l123 142h20z" />
    <glyph glyph-name="idieresis" unicode="&#xef;" horiz-adv-x="269" 
d="M101 0v300q0 52 -3.5 93t-7.5 57l-3 15l7 8q18 0 35 1.5t25 3.5l8 2l8 -7v-473h-69zM12 608q0 16 10 26t27 10t27 -10t10 -26q0 -17 -10 -27t-27 -10t-27 10t-10 27zM184 608q0 17 10 26.5t27 9.5t26.5 -10t9.5 -26q0 -17 -9.5 -27t-26.5 -10q-37 0 -37 37z" />
    <glyph glyph-name="eth" unicode="&#xf0;" horiz-adv-x="609" 
d="M260 553l-25 26l75 75q-33 28 -68.5 48t-55.5 26l-19 6l23 23q70 -17 149 -74l74 74l25 -26l-71 -71q175 -147 180 -408q1 -5 1 -16q0 -109 -67.5 -176t-176.5 -67t-176.5 67t-67.5 176t67.5 176.5t176.5 67.5q88 0 150 -45q-37 115 -118 194zM135 236q0 -97 46.5 -154.5
t122.5 -57.5t122.5 57.5t46.5 154.5q0 98 -46.5 155.5t-122.5 57.5t-122.5 -57.5t-46.5 -155.5z" />
    <glyph glyph-name="ntilde" unicode="&#xf1;" horiz-adv-x="622" 
d="M454 0v335q0 53 -25 77t-84 24q-44 0 -87.5 -12t-65.5 -24l-22 -13v-387h-69v300q0 52 -3.5 93t-7.5 57l-3 15l7 8q18 0 35 1.5t25 3.5l8 2l8 -7l-4 -53l4 -3q9 7 26.5 17.5t71.5 28t109 17.5q78 0 112 -34.5t34 -104.5v-341h-69zM265 650q25 0 51 -18t47 -18q20 0 38 10
t26 20l8 9l14 -15q-1 -3 -3.5 -7t-10.5 -15.5t-18 -20t-26.5 -15.5t-34.5 -7q-25 0 -51 18t-47 18q-20 0 -37.5 -9.5t-25.5 -19.5l-8 -10l-15 14q1 3 3.5 7.5t10.5 15.5t18 20t26.5 16t34.5 7z" />
    <glyph glyph-name="ograve" unicode="&#xf2;" horiz-adv-x="609" 
d="M60 236q0 109 67.5 176.5t176.5 67.5t176.5 -67.5t67.5 -176.5t-67.5 -176t-176.5 -67t-176.5 67t-67.5 176zM135 236q0 -97 46.5 -154.5t122.5 -57.5t122.5 57.5t46.5 154.5q0 98 -46.5 155.5t-122.5 57.5t-122.5 -57.5t-46.5 -155.5zM339 571l-6 -6h-26l-117 132v6
q18 10 57 10z" />
    <glyph glyph-name="oacute" unicode="&#xf3;" horiz-adv-x="609" 
d="M60 236q0 109 67.5 176.5t176.5 67.5t176.5 -67.5t67.5 -176.5t-67.5 -176t-176.5 -67t-176.5 67t-67.5 176zM135 236q0 -97 46.5 -154.5t122.5 -57.5t122.5 57.5t46.5 154.5q0 98 -46.5 155.5t-122.5 57.5t-122.5 -57.5t-46.5 -155.5zM277 565l-7 6l93 142q17 0 31 -2.5
t20 -4.5l5 -3v-6l-117 -132h-25z" />
    <glyph glyph-name="ocircumflex" unicode="&#xf4;" horiz-adv-x="609" 
d="M60 236q0 109 67.5 176.5t176.5 67.5t176.5 -67.5t67.5 -176.5t-67.5 -176t-176.5 -67t-176.5 67t-67.5 176zM135 236q0 -97 46.5 -154.5t122.5 -57.5t122.5 57.5t46.5 154.5q0 98 -46.5 155.5t-122.5 57.5t-122.5 -57.5t-46.5 -155.5zM437 571l-6 -6h-28l-98 98l-99 -98
h-28l-6 6l122 142h21z" />
    <glyph glyph-name="otilde" unicode="&#xf5;" horiz-adv-x="609" 
d="M60 236q0 109 67.5 176.5t176.5 67.5t176.5 -67.5t67.5 -176.5t-67.5 -176t-176.5 -67t-176.5 67t-67.5 176zM135 236q0 -97 46.5 -154.5t122.5 -57.5t122.5 57.5t46.5 154.5q0 98 -46.5 155.5t-122.5 57.5t-122.5 -57.5t-46.5 -155.5zM259 650q25 0 51 -18t47 -18
q20 0 37.5 10t25.5 20l8 9l15 -15q-1 -3 -3.5 -7t-10.5 -15.5t-18 -20t-26.5 -15.5t-34.5 -7q-25 0 -51 18t-47 18q-20 0 -38 -9.5t-26 -19.5l-8 -10l-14 14q1 3 3.5 7.5t10.5 15.5t18 20t26.5 16t34.5 7z" />
    <glyph glyph-name="odieresis" unicode="&#xf6;" horiz-adv-x="609" 
d="M60 236q0 109 67.5 176.5t176.5 67.5t176.5 -67.5t67.5 -176.5t-67.5 -176t-176.5 -67t-176.5 67t-67.5 176zM135 236q0 -97 46.5 -154.5t122.5 -57.5t122.5 57.5t46.5 154.5q0 98 -46.5 155.5t-122.5 57.5t-122.5 -57.5t-46.5 -155.5zM161 608q0 16 10 26t27 10t27 -10
t10 -26q0 -17 -10 -27t-27 -10t-27 10t-10 27zM374 608q0 16 10 26t27 10t27 -10t10 -26q0 -17 -10 -27t-27 -10t-27 10t-10 27z" />
    <glyph glyph-name="divide" unicode="&#xf7;" 
d="M101 307v36h396v-36h-396zM262 161q0 17 10 26.5t26 9.5q17 0 27 -9.5t10 -26.5t-10 -27t-27 -10q-16 0 -26 10t-10 27zM262 489q0 17 10 27t26 10t26.5 -10t10.5 -27q0 -16 -10 -26t-27 -10q-16 0 -26 9.5t-10 26.5z" />
    <glyph glyph-name="oslash" unicode="&#xf8;" horiz-adv-x="609" 
d="M119 -1l30 42q-89 68 -89 195q0 109 67.5 176.5t176.5 67.5q71 0 129 -32l28 39l26 -16l-28 -40q89 -68 89 -195q0 -109 -67.5 -176t-176.5 -67q-74 0 -130 32l-29 -42zM474 236q0 96 -45 153l-229 -328q43 -37 104 -37q76 0 123 57.5t47 154.5zM134 236q0 -95 44 -152
l230 327q-43 38 -104 38q-77 0 -123.5 -57.5t-46.5 -155.5z" />
    <glyph glyph-name="ugrave" unicode="&#xf9;" horiz-adv-x="620" 
d="M170 473v-325q0 -59 26.5 -85t86.5 -26q44 0 85.5 12t61.5 25l20 12v214q0 52 -2 93t-4 57l-3 15l8 8q18 0 33.5 1.5t21.5 3.5l7 2l8 -7v-273q0 -52 3.5 -100t7.5 -70l3 -22l-7 -8q-18 0 -35 -2t-25 -4l-8 -2l-8 8l4 52l-4 4q-9 -7 -25 -17.5t-67.5 -28t-104.5 -17.5
q-80 0 -116 37.5t-36 111.5v158q0 52 -3.5 93t-7.5 57l-3 15l7 8q18 0 35 1.5t25 3.5l8 2zM344 571l-7 -6h-25l-117 132v6q18 10 56 10z" />
    <glyph glyph-name="uacute" unicode="&#xfa;" horiz-adv-x="620" 
d="M170 473v-325q0 -59 26.5 -85t86.5 -26q44 0 85.5 12t61.5 25l20 12v214q0 52 -2 93t-4 57l-3 15l8 8q18 0 33.5 1.5t21.5 3.5l7 2l8 -7v-273q0 -52 3.5 -100t7.5 -70l3 -22l-7 -8q-18 0 -35 -2t-25 -4l-8 -2l-8 8l4 52l-4 4q-9 -7 -25 -17.5t-67.5 -28t-104.5 -17.5
q-80 0 -116 37.5t-36 111.5v158q0 52 -3.5 93t-7.5 57l-3 15l7 8q18 0 35 1.5t25 3.5l8 2zM282 565l-7 6l93 142q17 0 31 -2.5t19 -4.5l6 -3v-6l-117 -132h-25z" />
    <glyph glyph-name="ucircumflex" unicode="&#xfb;" horiz-adv-x="620" 
d="M170 473v-325q0 -59 26.5 -85t86.5 -26q44 0 85.5 12t61.5 25l20 12v214q0 52 -2 93t-4 57l-3 15l8 8q18 0 33.5 1.5t21.5 3.5l7 2l8 -7v-273q0 -52 3.5 -100t7.5 -70l3 -22l-7 -8q-18 0 -35 -2t-25 -4l-8 -2l-8 8l4 52l-4 4q-9 -7 -25 -17.5t-67.5 -28t-104.5 -17.5
q-80 0 -116 37.5t-36 111.5v158q0 52 -3.5 93t-7.5 57l-3 15l7 8q18 0 35 1.5t25 3.5l8 2zM442 571l-6 -6h-28l-98 98l-99 -98h-28l-6 6l122 142h21z" />
    <glyph glyph-name="udieresis" unicode="&#xfc;" horiz-adv-x="620" 
d="M170 473v-325q0 -59 26.5 -85t86.5 -26q44 0 85.5 12t61.5 25l20 12v214q0 52 -2 93t-4 57l-3 15l8 8q18 0 33.5 1.5t21.5 3.5l7 2l8 -7v-273q0 -52 3.5 -100t7.5 -70l3 -22l-7 -8q-18 0 -35 -2t-25 -4l-8 -2l-8 8l4 52l-4 4q-9 -7 -25 -17.5t-67.5 -28t-104.5 -17.5
q-80 0 -116 37.5t-36 111.5v158q0 52 -3.5 93t-7.5 57l-3 15l7 8q18 0 35 1.5t25 3.5l8 2zM379 608q0 16 10 26t27 10t27 -10t10 -26q0 -17 -10 -27t-27 -10t-27 10t-10 27zM166 608q0 16 10 26t27 10t27 -10t10 -26q0 -17 -10 -27t-27 -10t-27 10t-10 27z" />
    <glyph glyph-name="yacute" unicode="&#xfd;" horiz-adv-x="539" 
d="M510 473l-249 -550q-21 -46 -38.5 -88.5t-24.5 -62.5l-7 -19l-6 -6q-17 0 -33.5 4.5t-24.5 8.5l-8 5v8q58 64 104 165l28 62l-135 300q-23 51 -45 93t-32 58l-10 16l6 6l73 5l178 -404l104 226q24 52 40 94t20 58l3 15l6 6l45 5zM245 565l-6 6l92 142q17 0 31 -2.5
t20 -4.5l5 -3v-6l-117 -132h-25z" />
    <glyph glyph-name="thorn" unicode="&#xfe;" horiz-adv-x="613" 
d="M170 -250h-69v678q0 84 -3.5 162.5t-7.5 115.5l-3 36l7 8q18 0 35 2t25 4l8 2l8 -8v-275q0 -46 -4 -54l4 -3q7 7 20 17.5t56 27.5t90 17q96 0 156.5 -65t60.5 -175q0 -113 -64.5 -180t-174.5 -67q-91 0 -144 43v-286zM477 231q0 98 -47 151.5t-123 53.5q-37 0 -71 -12.5
t-50 -25.5l-16 -12v-264q0 -44 39.5 -71t96.5 -27q78 0 124.5 55t46.5 152z" />
    <glyph glyph-name="ydieresis" unicode="&#xff;" horiz-adv-x="539" 
d="M510 473l-249 -550q-21 -46 -38.5 -88.5t-24.5 -62.5l-7 -19l-6 -6q-17 0 -33.5 4.5t-24.5 8.5l-8 5v8q58 64 104 165l28 62l-135 300q-23 51 -45 93t-32 58l-10 16l6 6l73 5l178 -404l104 226q24 52 40 94t20 58l3 15l6 6l45 5zM344 608q0 16 10 26t27 10t27 -10t10 -26
q0 -17 -10 -27t-27 -10t-27 10t-10 27zM131 608q0 16 10 26t27 10t27 -10t10 -26q0 -17 -10 -27t-27 -10t-27 10t-10 27z" />
    <glyph glyph-name="Amacron" unicode="&#x100;" horiz-adv-x="728" 
d="M165 210l-90 -210h-43l291 676l-9 16v8h79l303 -700h-74l-91 210h-366zM395 527q-32 72 -49 106l-166 -387h336zM243 802v36h237v-36h-237z" />
    <glyph glyph-name="amacron" unicode="&#x101;" horiz-adv-x="560" 
d="M276 480q171 0 171 -138v-265q0 -45 40 -45q8 0 15.5 2t10.5 4l3 2l15 -15q-24 -32 -78 -32q-66 0 -73 61q-78 -61 -176 -61q-67 0 -101 32.5t-34 90.5q0 54 38.5 84t138.5 43l133 16v94q0 96 -105 96q-56 0 -89 -27.5t-33 -74.5l5 -40l-7 -8q-16 0 -29.5 2t-18.5 4l-6 2
q-8 16 -8 40q0 60 49 96.5t139 36.5zM140 123q0 -87 97 -87q36 0 71.5 12.5t53.5 25.5l17 12v141l-125 -15q-63 -8 -88.5 -29t-25.5 -60zM155 595v36h236v-36h-236z" />
    <glyph glyph-name="Abreve" unicode="&#x102;" horiz-adv-x="728" 
d="M165 210l-90 -210h-43l291 676l-9 16v8h79l303 -700h-74l-91 210h-366zM395 527q-32 72 -49 106l-166 -387h336zM227 859l15 14q5 -6 14 -16t40 -26t65 -16t64 14.5t43 28.5l12 15l15 -14q-1 -3 -4 -9t-14.5 -20.5t-25.5 -26t-38.5 -20.5t-51.5 -9t-51 9t-38.5 21
t-25 24.5t-14.5 21.5z" />
    <glyph glyph-name="abreve" unicode="&#x103;" horiz-adv-x="560" 
d="M276 480q171 0 171 -138v-265q0 -45 40 -45q8 0 15.5 2t10.5 4l3 2l15 -15q-24 -32 -78 -32q-66 0 -73 61q-78 -61 -176 -61q-67 0 -101 32.5t-34 90.5q0 54 38.5 84t138.5 43l133 16v94q0 96 -105 96q-56 0 -89 -27.5t-33 -74.5l5 -40l-7 -8q-16 0 -29.5 2t-18.5 4l-6 2
q-8 16 -8 40q0 60 49 96.5t139 36.5zM140 123q0 -87 97 -87q36 0 71.5 12.5t53.5 25.5l17 12v141l-125 -15q-63 -8 -88.5 -29t-25.5 -60zM139 651l15 15q5 -6 14 -16t40 -26t65 -16q35 0 65 14.5t42 29.5l13 14l14 -15q-1 -3 -4 -9t-14.5 -20.5t-25.5 -25.5t-38.5 -20
t-51.5 -9t-51 8.5t-38.5 21t-25 25t-14.5 20.5z" />
    <glyph glyph-name="Aogonek" unicode="&#x104;" horiz-adv-x="728" 
d="M165 210l-90 -210h-43l291 676l-9 16v8h79l303 -700h-16q-36 -36 -36 -84q0 -45 43 -45q10 0 19 2.5t12 5.5l4 3l15 -15q-18 -29 -60 -29q-31 0 -52.5 19.5t-21.5 54.5q0 54 45 88h-26l-91 210h-366zM395 527q-32 72 -49 106l-166 -387h336z" />
    <glyph glyph-name="aogonek" unicode="&#x105;" horiz-adv-x="560" 
d="M276 480q171 0 171 -138v-265q0 -45 40 -45q8 0 15.5 2t10.5 4l3 2l15 -15q-21 -27 -67 -31q-30 -36 -30 -78q0 -45 44 -45q10 0 19 2.5t13 5.5l3 3l15 -15q-18 -29 -60 -29q-31 0 -52.5 19.5t-21.5 54.5q0 50 39 83q-47 9 -53 59q-78 -61 -176 -61q-67 0 -101 32.5
t-34 90.5q0 54 38.5 84t138.5 43l133 16v94q0 96 -105 96q-56 0 -89 -27.5t-33 -74.5l5 -40l-7 -8q-16 0 -29.5 2t-18.5 4l-6 2q-8 16 -8 40q0 60 49 96.5t139 36.5zM140 123q0 -87 97 -87q36 0 71.5 12.5t53.5 25.5l17 12v141l-125 -15q-63 -8 -88.5 -29t-25.5 -60z" />
    <glyph glyph-name="Cacute" unicode="&#x106;" horiz-adv-x="753" 
d="M422 675q-126 0 -200 -86.5t-74 -232.5q0 -148 76.5 -232t210.5 -84q64 0 121.5 19.5t83.5 38.5l25 20l16 -16q-3 -4 -10 -11.5t-30.5 -26.5t-51.5 -33t-74 -26t-97 -12q-158 0 -253 99t-95 259t95.5 258t257.5 98q120 0 189 -54.5t69 -143.5q0 -16 -2.5 -29t-4.5 -18
l-3 -5q-22 -7 -61 -7l-8 7q9 18 9 56q0 76 -50.5 119t-138.5 43zM378 772l-6 6l92 143q17 0 31.5 -2.5t20.5 -4.5l5 -3v-7l-117 -132h-26z" />
    <glyph glyph-name="cacute" unicode="&#x107;" horiz-adv-x="549" 
d="M481 90l15 -14q-2 -3 -6.5 -9t-21.5 -20t-37 -25t-54 -20t-73 -9q-112 0 -178 67t-66 177t66.5 176.5t183.5 66.5q85 0 133 -35t48 -96q0 -12 -1.5 -22.5t-3.5 -14.5l-2 -5q-18 -8 -53 -8l-8 8q6 19 6 43q0 48 -31.5 73.5t-88.5 25.5q-83 0 -128.5 -56t-45.5 -148
q0 -100 49.5 -155t139.5 -55q29 0 56 5.5t44.5 13.5t31 16.5t19.5 13.5zM269 565l-6 6l92 142q17 0 31 -2.5t20 -4.5l5 -3v-6l-117 -132h-25z" />
    <glyph glyph-name="Ccircumflex" unicode="&#x108;" horiz-adv-x="753" 
d="M422 675q-126 0 -200 -86.5t-74 -232.5q0 -148 76.5 -232t210.5 -84q64 0 121.5 19.5t83.5 38.5l25 20l16 -16q-3 -4 -10 -11.5t-30.5 -26.5t-51.5 -33t-74 -26t-97 -12q-158 0 -253 99t-95 259t95.5 258t257.5 98q120 0 189 -54.5t69 -143.5q0 -16 -2.5 -29t-4.5 -18
l-3 -5q-22 -7 -61 -7l-8 7q9 18 9 56q0 76 -50.5 119t-138.5 43zM539 778l-6 -6h-28l-99 98l-98 -98h-28l-6 6l122 143h21z" />
    <glyph glyph-name="ccircumflex" unicode="&#x109;" horiz-adv-x="549" 
d="M481 90l15 -14q-2 -3 -6.5 -9t-21.5 -20t-37 -25t-54 -20t-73 -9q-112 0 -178 67t-66 177t66.5 176.5t183.5 66.5q85 0 133 -35t48 -96q0 -12 -1.5 -22.5t-3.5 -14.5l-2 -5q-18 -8 -53 -8l-8 8q6 19 6 43q0 48 -31.5 73.5t-88.5 25.5q-83 0 -128.5 -56t-45.5 -148
q0 -100 49.5 -155t139.5 -55q29 0 56 5.5t44.5 13.5t31 16.5t19.5 13.5zM427 571l-6 -6h-28l-99 98l-98 -98h-28l-7 6l123 142h20z" />
    <glyph glyph-name="Cdotaccent" unicode="&#x10a;" horiz-adv-x="753" 
d="M422 675q-126 0 -200 -86.5t-74 -232.5q0 -148 76.5 -232t210.5 -84q64 0 121.5 19.5t83.5 38.5l25 20l16 -16q-3 -4 -10 -11.5t-30.5 -26.5t-51.5 -33t-74 -26t-97 -12q-158 0 -253 99t-95 259t95.5 258t257.5 98q120 0 189 -54.5t69 -143.5q0 -16 -2.5 -29t-4.5 -18
l-3 -5q-22 -7 -61 -7l-8 7q9 18 9 56q0 76 -50.5 119t-138.5 43zM367 838q0 18 11 29t28 11q18 0 29 -11t11 -29q0 -17 -11 -28t-29 -11q-17 0 -28 11t-11 28z" />
    <glyph glyph-name="cdotaccent" unicode="&#x10b;" horiz-adv-x="549" 
d="M481 90l15 -14q-2 -3 -6.5 -9t-21.5 -20t-37 -25t-54 -20t-73 -9q-112 0 -178 67t-66 177t66.5 176.5t183.5 66.5q85 0 133 -35t48 -96q0 -12 -1.5 -22.5t-3.5 -14.5l-2 -5q-18 -8 -53 -8l-8 8q6 19 6 43q0 48 -31.5 73.5t-88.5 25.5q-83 0 -128.5 -56t-45.5 -148
q0 -100 49.5 -155t139.5 -55q29 0 56 5.5t44.5 13.5t31 16.5t19.5 13.5zM259 626q0 17 11 28t29 11q17 0 28 -11t11 -28q0 -18 -11 -29t-28 -11q-18 0 -29 11t-11 29z" />
    <glyph glyph-name="Ccaron" unicode="&#x10c;" horiz-adv-x="753" 
d="M422 675q-126 0 -200 -86.5t-74 -232.5q0 -148 76.5 -232t210.5 -84q64 0 121.5 19.5t83.5 38.5l25 20l16 -16q-3 -4 -10 -11.5t-30.5 -26.5t-51.5 -33t-74 -26t-97 -12q-158 0 -253 99t-95 259t95.5 258t257.5 98q120 0 189 -54.5t69 -143.5q0 -16 -2.5 -29t-4.5 -18
l-3 -5q-22 -7 -61 -7l-8 7q9 18 9 56q0 76 -50.5 119t-138.5 43zM533 916l6 -7l-122 -142h-21l-122 142l6 7h28l98 -99l99 99h28z" />
    <glyph glyph-name="ccaron" unicode="&#x10d;" horiz-adv-x="549" 
d="M481 90l15 -14q-2 -3 -6.5 -9t-21.5 -20t-37 -25t-54 -20t-73 -9q-112 0 -178 67t-66 177t66.5 176.5t183.5 66.5q85 0 133 -35t48 -96q0 -12 -1.5 -22.5t-3.5 -14.5l-2 -5q-18 -8 -53 -8l-8 8q6 19 6 43q0 48 -31.5 73.5t-88.5 25.5q-83 0 -128.5 -56t-45.5 -148
q0 -100 49.5 -155t139.5 -55q29 0 56 5.5t44.5 13.5t31 16.5t19.5 13.5zM421 708l6 -6l-123 -142h-20l-123 142l7 6h28l98 -98l99 98h28z" />
    <glyph glyph-name="Dcaron" unicode="&#x10e;" horiz-adv-x="787" 
d="M110 0v700h262q154 0 249.5 -97t95.5 -253t-95.5 -253t-249.5 -97h-262zM369 664h-188v-628h188q121 0 195.5 85t74.5 229t-74.5 229t-195.5 85zM517 916l6 -7l-122 -142h-21l-122 142l6 7h28l99 -99l98 99h28z" />
    <glyph glyph-name="dcaron" unicode="&#x10f;" horiz-adv-x="666" 
d="M428 742l8 8q18 0 35 2t25 4l8 2l8 -8v-447q0 -84 3.5 -158t6.5 -105l4 -32l-8 -8q-18 0 -35 -2t-25 -4l-7 -2l-8 8l4 50l-4 4q-7 -7 -19.5 -17t-55 -27t-89.5 -17q-97 0 -158 64t-61 174q0 114 64.5 181.5t174.5 67.5q91 0 144 -44v14q0 84 -3.5 157t-7.5 104zM135 241
q0 -97 48 -150.5t124 -53.5q37 0 71 12t50 25l15 12v265q0 42 -39.5 69.5t-97.5 27.5q-78 0 -124.5 -55.5t-46.5 -151.5zM596 578l-12 12q5 5 12 15t19 41t12 64q0 12 -1.5 22t-3.5 14l-1 5l4 5q14 0 26 -2t17 -4l6 -2q4 -9 4 -28q0 -40 -20.5 -75.5t-41.5 -50.5z" />
    <glyph glyph-name="Dcroat" unicode="&#x110;" horiz-adv-x="787" 
d="M38 341v36h72v323h262q154 0 249.5 -97t95.5 -253t-95.5 -253t-249.5 -97h-262v341h-72zM369 664h-188v-287h173v-36h-173v-305h188q121 0 195.5 85t74.5 229t-74.5 229t-195.5 85z" />
    <glyph glyph-name="dcroat" unicode="&#x111;" horiz-adv-x="613" 
d="M293 586v36h145l-10 120l8 8q18 0 35 2t25 4l8 2l8 -8v-128h70v-36h-70v-283q0 -84 3.5 -158t6.5 -105l4 -32l-8 -8q-18 0 -35 -2t-25 -4l-7 -2l-8 8l4 50l-4 4q-7 -7 -19.5 -17t-55 -27t-89.5 -17q-97 0 -158 64t-61 174q0 114 64.5 181.5t174.5 67.5q91 0 144 -44v14
q0 78 -3 136h-147zM135 241q0 -97 48 -150.5t124 -53.5q37 0 71 12t50 25l15 12v269q-2 40 -41.5 66.5t-95.5 26.5q-78 0 -124.5 -55.5t-46.5 -151.5z" />
    <glyph glyph-name="Emacron" unicode="&#x112;" horiz-adv-x="626" 
d="M110 0v700h439v-44l-8 -7q-48 16 -165 16h-195v-291h306l6 -6v-30h-312v-303h205q52 0 93 4t57 8l15 4l8 -7v-44h-449zM212 802v36h236v-36h-236z" />
    <glyph glyph-name="emacron" unicode="&#x113;" horiz-adv-x="565" 
d="M483 90l15 -14q-2 -3 -6.5 -9t-21.5 -20t-37.5 -25t-54.5 -20t-73 -9q-112 0 -178.5 66.5t-66.5 176.5q0 111 67.5 177.5t185.5 66.5q90 0 138.5 -40.5t48.5 -115.5q0 -18 -3 -36t-5 -27l-3 -9l-8 -7h-346q0 -100 49.5 -155t140.5 -55q46 0 85.5 13.5t55.5 27.5zM311 449
q-77 0 -122.5 -47t-52.5 -129l295 8q6 28 6 50q0 57 -32 87.5t-94 30.5zM178 595v36h237v-36h-237z" />
    <glyph glyph-name="Ebreve" unicode="&#x114;" horiz-adv-x="626" 
d="M110 0v700h439v-44l-8 -7q-48 16 -165 16h-195v-291h306l6 -6v-30h-312v-303h205q52 0 93 4t57 8l15 4l8 -7v-44h-449zM197 859l14 14q5 -6 14 -16t40 -26t66 -16q34 0 64 14.5t43 28.5l12 15l15 -14q-2 -3 -5 -9t-14.5 -20.5t-25.5 -26t-38 -20.5t-51 -9q-28 0 -52 9
t-38.5 21t-25 24.5t-14.5 21.5z" />
    <glyph glyph-name="ebreve" unicode="&#x115;" horiz-adv-x="565" 
d="M483 90l15 -14q-2 -3 -6.5 -9t-21.5 -20t-37.5 -25t-54.5 -20t-73 -9q-112 0 -178.5 66.5t-66.5 176.5q0 111 67.5 177.5t185.5 66.5q90 0 138.5 -40.5t48.5 -115.5q0 -18 -3 -36t-5 -27l-3 -9l-8 -7h-346q0 -100 49.5 -155t140.5 -55q46 0 85.5 13.5t55.5 27.5zM311 449
q-77 0 -122.5 -47t-52.5 -129l295 8q6 28 6 50q0 57 -32 87.5t-94 30.5zM163 651l15 15q5 -6 14 -16t40 -26t65 -16t64 14.5t43 29.5l12 14l15 -15q-1 -3 -4 -9t-14.5 -20.5t-25.5 -25.5t-38.5 -20t-51.5 -9t-51 8.5t-38.5 21t-25 25t-14.5 20.5z" />
    <glyph glyph-name="Edotaccent" unicode="&#x116;" horiz-adv-x="626" 
d="M110 0v700h439v-44l-8 -7q-48 16 -165 16h-195v-291h306l6 -6v-30h-312v-303h205q52 0 93 4t57 8l15 4l8 -7v-44h-449zM291 838q0 18 11 29t29 11q17 0 28 -11t11 -29q0 -17 -11 -28t-28 -11q-18 0 -29 11t-11 28z" />
    <glyph glyph-name="edotaccent" unicode="&#x117;" horiz-adv-x="565" 
d="M483 90l15 -14q-2 -3 -6.5 -9t-21.5 -20t-37.5 -25t-54.5 -20t-73 -9q-112 0 -178.5 66.5t-66.5 176.5q0 111 67.5 177.5t185.5 66.5q90 0 138.5 -40.5t48.5 -115.5q0 -18 -3 -36t-5 -27l-3 -9l-8 -7h-346q0 -100 49.5 -155t140.5 -55q46 0 85.5 13.5t55.5 27.5zM311 449
q-77 0 -122.5 -47t-52.5 -129l295 8q6 28 6 50q0 57 -32 87.5t-94 30.5zM259 626q0 17 11 28t29 11q17 0 28 -11t11 -28q0 -18 -11 -29t-28 -11q-18 0 -29 11t-11 29z" />
    <glyph glyph-name="Eogonek" unicode="&#x118;" horiz-adv-x="626" 
d="M110 0v700h439v-44l-8 -7q-48 16 -165 16h-195v-291h306l6 -6v-30h-312v-303h205q52 0 93 4t57 8l15 4l8 -7v-44h-58q-36 -36 -36 -84q0 -45 44 -45q10 0 19 2.5t12 5.5l4 3l15 -15q-18 -29 -60 -29q-31 0 -52.5 19.5t-21.5 54.5q0 54 45 88h-360z" />
    <glyph glyph-name="eogonek" unicode="&#x119;" horiz-adv-x="565" 
d="M483 90l15 -14q-30 -43 -96 -67q-35 -35 -35 -83q0 -45 43 -45q11 0 20 2.5t12 5.5l4 3l14 -15q-17 -29 -59 -29q-31 0 -52.5 19.5t-21.5 54.5q0 43 31 76q-28 -5 -53 -5q-112 0 -178.5 66.5t-66.5 176.5q0 111 67.5 177.5t185.5 66.5q90 0 138.5 -40.5t48.5 -115.5
q0 -18 -3 -36t-5 -27l-3 -9l-8 -7h-346q0 -100 49.5 -155t140.5 -55q46 0 85.5 13.5t55.5 27.5zM311 449q-77 0 -122.5 -47t-52.5 -129l295 8q6 28 6 50q0 57 -32 87.5t-94 30.5z" />
    <glyph glyph-name="Ecaron" unicode="&#x11a;" horiz-adv-x="626" 
d="M110 0v700h439v-44l-8 -7q-48 16 -165 16h-195v-291h306l6 -6v-30h-312v-303h205q52 0 93 4t57 8l15 4l8 -7v-44h-449zM457 923l6 -6l-122 -143h-21l-122 143l6 6h28l99 -98l98 98h28z" />
    <glyph glyph-name="ecaron" unicode="&#x11b;" horiz-adv-x="565" 
d="M483 90l15 -14q-2 -3 -6.5 -9t-21.5 -20t-37.5 -25t-54.5 -20t-73 -9q-112 0 -178.5 66.5t-66.5 176.5q0 111 67.5 177.5t185.5 66.5q90 0 138.5 -40.5t48.5 -115.5q0 -18 -3 -36t-5 -27l-3 -9l-8 -7h-346q0 -100 49.5 -155t140.5 -55q46 0 85.5 13.5t55.5 27.5zM311 449
q-77 0 -122.5 -47t-52.5 -129l295 8q6 28 6 50q0 57 -32 87.5t-94 30.5zM421 708l6 -6l-123 -142h-20l-122 142l6 6h28l98 -98l99 98h28z" />
    <glyph glyph-name="Gcircumflex" unicode="&#x11c;" horiz-adv-x="768" 
d="M499 300v30h109q19 0 35.5 2t23.5 4l7 2l7 -8v-239q-3 -4 -10 -10.5t-31 -23.5t-51.5 -30t-73 -23.5t-94.5 -10.5q-160 0 -255.5 98.5t-95.5 259.5q0 160 95.5 258t259.5 98q119 0 187.5 -51.5t68.5 -139.5q0 -16 -2.5 -29t-5.5 -17l-3 -5q-22 -8 -61 -8l-8 8
q10 17 10 55q0 75 -50 115t-137 40q-128 0 -202 -86t-74 -232q0 -149 76 -236t208 -87q96 0 183 49v78q0 83 -8 133h-101zM539 778l-6 -6h-28l-99 98l-98 -98h-28l-6 6l122 143h21z" />
    <glyph glyph-name="gcircumflex" unicode="&#x11d;" horiz-adv-x="567" 
d="M113 -24l7 -8q-19 -30 -19 -74q0 -58 44.5 -87.5t124.5 -29.5q88 0 143 34t55 88q0 27 -13.5 45t-42 26.5t-53 12t-65.5 5.5q-42 2 -63 3.5t-51.5 6t-45 10.5t-30 17t-21.5 27t-6 38q0 69 55 113q-56 44 -56 116q0 71 55.5 116t145.5 45q64 0 116 -26q64 58 144 58
q8 -23 8 -62l-8 -8q-13 9 -41 9q-36 0 -72 -18q54 -46 54 -114q0 -71 -55.5 -115.5t-145.5 -44.5q-67 0 -117 25q-32 -29 -32 -70q0 -22 10 -35.5t36.5 -20.5t50.5 -9t73 -4q46 -2 73.5 -4.5t60 -10t50 -20t29.5 -34t12 -51.5q0 -82 -74 -132t-195 -50q-101 0 -158 38
t-57 112q0 22 4.5 40.5t9.5 26.5l5 8q20 8 55 8zM145 319q0 -59 36.5 -94.5t95.5 -35.5q60 0 96.5 35.5t36.5 94.5q0 60 -36.5 95t-96.5 35q-59 0 -95.5 -35.5t-36.5 -94.5zM410 571l-7 -6h-28l-98 98l-98 -98h-28l-7 6l123 142h20z" />
    <glyph glyph-name="Gbreve" unicode="&#x11e;" horiz-adv-x="768" 
d="M499 300v30h109q19 0 35.5 2t23.5 4l7 2l7 -8v-239q-3 -4 -10 -10.5t-31 -23.5t-51.5 -30t-73 -23.5t-94.5 -10.5q-160 0 -255.5 98.5t-95.5 259.5q0 160 95.5 258t259.5 98q119 0 187.5 -51.5t68.5 -139.5q0 -16 -2.5 -29t-5.5 -17l-3 -5q-22 -8 -61 -8l-8 8
q10 17 10 55q0 75 -50 115t-137 40q-128 0 -202 -86t-74 -232q0 -149 76 -236t208 -87q96 0 183 49v78q0 83 -8 133h-101zM272 859l15 14q5 -6 14 -16t40 -26t65 -16q35 0 65 14.5t43 28.5l12 15l14 -14q-1 -3 -4 -9t-14.5 -20.5t-25.5 -26t-38.5 -20.5t-51.5 -9t-51 9
t-38.5 21t-25 24.5t-15.5 21.5z" />
    <glyph glyph-name="gbreve" unicode="&#x11f;" horiz-adv-x="567" 
d="M113 -24l7 -8q-19 -30 -19 -74q0 -58 44.5 -87.5t124.5 -29.5q88 0 143 34t55 88q0 27 -13.5 45t-42 26.5t-53 12t-65.5 5.5q-42 2 -63 3.5t-51.5 6t-45 10.5t-30 17t-21.5 27t-6 38q0 69 55 113q-56 44 -56 116q0 71 55.5 116t145.5 45q64 0 116 -26q64 58 144 58
q8 -23 8 -62l-8 -8q-13 9 -41 9q-36 0 -72 -18q54 -46 54 -114q0 -71 -55.5 -115.5t-145.5 -44.5q-67 0 -117 25q-32 -29 -32 -70q0 -22 10 -35.5t36.5 -20.5t50.5 -9t73 -4q46 -2 73.5 -4.5t60 -10t50 -20t29.5 -34t12 -51.5q0 -82 -74 -132t-195 -50q-101 0 -158 38
t-57 112q0 22 4.5 40.5t9.5 26.5l5 8q20 8 55 8zM145 319q0 -59 36.5 -94.5t95.5 -35.5q60 0 96.5 35.5t36.5 94.5q0 60 -36.5 95t-96.5 35q-59 0 -95.5 -35.5t-36.5 -94.5zM142 651l15 15q5 -6 14 -16t40 -26t65 -16t64 14.5t42 29.5l13 14l15 -15q-1 -3 -4 -9t-14.5 -20.5
t-25.5 -25.5t-38.5 -20t-51.5 -9t-51 8.5t-38.5 21t-25 25t-15.5 20.5z" />
    <glyph glyph-name="Gdotaccent" unicode="&#x120;" horiz-adv-x="768" 
d="M499 300v30h109q19 0 35.5 2t23.5 4l7 2l7 -8v-239q-3 -4 -10 -10.5t-31 -23.5t-51.5 -30t-73 -23.5t-94.5 -10.5q-160 0 -255.5 98.5t-95.5 259.5q0 160 95.5 258t259.5 98q119 0 187.5 -51.5t68.5 -139.5q0 -16 -2.5 -29t-5.5 -17l-3 -5q-22 -8 -61 -8l-8 8
q10 17 10 55q0 75 -50 115t-137 40q-128 0 -202 -86t-74 -232q0 -149 76 -236t208 -87q96 0 183 49v78q0 83 -8 133h-101zM367 838q0 18 11 29t28 11q18 0 29 -11t11 -29q0 -17 -11 -28t-29 -11q-17 0 -28 11t-11 28z" />
    <glyph glyph-name="gdotaccent" unicode="&#x121;" horiz-adv-x="567" 
d="M113 -24l7 -8q-19 -30 -19 -74q0 -58 44.5 -87.5t124.5 -29.5q88 0 143 34t55 88q0 27 -13.5 45t-42 26.5t-53 12t-65.5 5.5q-42 2 -63 3.5t-51.5 6t-45 10.5t-30 17t-21.5 27t-6 38q0 69 55 113q-56 44 -56 116q0 71 55.5 116t145.5 45q64 0 116 -26q64 58 144 58
q8 -23 8 -62l-8 -8q-13 9 -41 9q-36 0 -72 -18q54 -46 54 -114q0 -71 -55.5 -115.5t-145.5 -44.5q-67 0 -117 25q-32 -29 -32 -70q0 -22 10 -35.5t36.5 -20.5t50.5 -9t73 -4q46 -2 73.5 -4.5t60 -10t50 -20t29.5 -34t12 -51.5q0 -82 -74 -132t-195 -50q-101 0 -158 38
t-57 112q0 22 4.5 40.5t9.5 26.5l5 8q20 8 55 8zM145 319q0 -59 36.5 -94.5t95.5 -35.5q60 0 96.5 35.5t36.5 94.5q0 60 -36.5 95t-96.5 35q-59 0 -95.5 -35.5t-36.5 -94.5zM238 626q0 17 10.5 28t28.5 11t28.5 -11t10.5 -28q0 -18 -10.5 -29t-28.5 -11t-28.5 11t-10.5 29z
" />
    <glyph glyph-name="Gcommaaccent" unicode="&#x122;" horiz-adv-x="768" 
d="M499 300v30h109q19 0 35.5 2t23.5 4l7 2l7 -8v-239q-3 -4 -10 -10.5t-31 -23.5t-51.5 -30t-73 -23.5t-94.5 -10.5q-160 0 -255.5 98.5t-95.5 259.5q0 160 95.5 258t259.5 98q119 0 187.5 -51.5t68.5 -139.5q0 -16 -2.5 -29t-5.5 -17l-3 -5q-22 -8 -61 -8l-8 8
q10 17 10 55q0 75 -50 115t-137 40q-128 0 -202 -86t-74 -232q0 -149 76 -236t208 -87q96 0 183 49v78q0 83 -8 133h-101zM364 -236l-12 11q5 5 12 15t19 41.5t12 63.5q0 12 -1.5 22t-3.5 15l-1 4l5 5q13 0 25 -2t17 -4l6 -2q4 -9 4 -27q0 -40 -20.5 -75.5t-41.5 -50.5z" />
    <glyph glyph-name="gcommaaccent" unicode="&#x123;" horiz-adv-x="567" 
d="M113 -24l7 -8q-19 -30 -19 -74q0 -58 44.5 -87.5t124.5 -29.5q88 0 143 34t55 88q0 27 -13.5 45t-42 26.5t-53 12t-65.5 5.5q-42 2 -63 3.5t-51.5 6t-45 10.5t-30 17t-21.5 27t-6 38q0 69 55 113q-56 44 -56 116q0 71 55.5 116t145.5 45q64 0 116 -26q64 58 144 58
q8 -23 8 -62l-8 -8q-13 9 -41 9q-36 0 -72 -18q54 -46 54 -114q0 -71 -55.5 -115.5t-145.5 -44.5q-67 0 -117 25q-32 -29 -32 -70q0 -22 10 -35.5t36.5 -20.5t50.5 -9t73 -4q46 -2 73.5 -4.5t60 -10t50 -20t29.5 -34t12 -51.5q0 -82 -74 -132t-195 -50q-101 0 -158 38
t-57 112q0 22 4.5 40.5t9.5 26.5l5 8q20 8 55 8zM145 319q0 -59 36.5 -94.5t95.5 -35.5q60 0 96.5 35.5t36.5 94.5q0 60 -36.5 95t-96.5 35q-59 0 -95.5 -35.5t-36.5 -94.5zM322 714l12 -12q-5 -5 -12 -15t-19 -41.5t-12 -63.5q0 -12 1.5 -22t3.5 -14l1 -5l-4 -5
q-14 0 -26 2t-17 4l-6 2q-4 9 -4 28q0 40 20.5 75.5t41.5 50.5z" />
    <glyph glyph-name="Hcircumflex" unicode="&#x124;" horiz-adv-x="799" 
d="M618 0v338h-437v-338h-71v700h71v-326h437v326h71v-700h-71zM532 778l-6 -6h-28l-98 98l-99 -98h-28l-6 6l122 143h21z" />
    <glyph glyph-name="hcircumflex" unicode="&#x125;" horiz-adv-x="621" 
d="M100 0v428q0 84 -4 162.5t-8 115.5l-3 36l8 8q18 0 35 2t25 4l8 2l7 -8v-275l-3 -55l3 -3q9 7 26.5 17.5t72 28t109.5 17.5q78 0 111.5 -34.5t33.5 -104.5v-341h-68v335q0 53 -25.5 77t-83.5 24q-44 0 -88 -12t-66 -24l-22 -13v-387h-68zM266 779l-7 -6h-28l-98 98
l-98 -98h-28l-7 6l123 143h20z" />
    <glyph glyph-name="Hbar" unicode="&#x126;" horiz-adv-x="799" 
d="M618 0v338h-437v-338h-71v526h-72v36h72v138h71v-138h437v138h71v-138h72v-36h-72v-526h-71zM181 526v-152h437v152h-437z" />
    <glyph glyph-name="hbar" unicode="&#x127;" horiz-adv-x="624" 
d="M18 598v18l85 21v113h68v-119h179v-33h-179v-123l-3 -55l3 -3q9 7 26.5 17.5t72 28t109.5 17.5q78 0 111.5 -34.5t33.5 -104.5v-341h-69v335q0 53 -25 77t-83 24q-44 0 -88 -12t-66 -24l-22 -13v-387h-68v598h-85z" />
    <glyph glyph-name="Itilde" unicode="&#x128;" horiz-adv-x="291" 
d="M110 0v700h71v-700h-71zM100 857q25 0 51 -18t47 -18q20 0 38 9.5t26 19.5l7 10l15 -15q-1 -3 -3.5 -7t-10.5 -15.5t-18 -20t-26.5 -15.5t-34.5 -7q-25 0 -51 18t-47 18q-20 0 -37.5 -10t-25.5 -20l-8 -9l-15 15q1 3 3.5 7t10.5 15.5t18 20t26.5 15.5t34.5 7z" />
    <glyph glyph-name="itilde" unicode="&#x129;" horiz-adv-x="269" 
d="M90 650q25 0 51 -18t47 -18q20 0 37.5 10t25.5 20l8 9l15 -15q-1 -3 -3.5 -7t-10.5 -15.5t-18 -20t-26.5 -15.5t-34.5 -7q-25 0 -51 18t-47 18q-20 0 -38 -9.5t-26 -19.5l-8 -10l-14 14q1 3 3.5 7.5t10.5 15.5t18 20t26.5 16t34.5 7zM101 0v300q0 52 -3.5 93t-7.5 57
l-3 15l7 8q18 0 35 1.5t25 3.5l8 2l8 -7v-473h-69z" />
    <glyph glyph-name="Imacron" unicode="&#x12a;" horiz-adv-x="291" 
d="M110 0v700h71v-700h-71zM27 802v36h237v-36h-237z" />
    <glyph glyph-name="imacron" unicode="&#x12b;" horiz-adv-x="269" 
d="M17 595v36h236v-36h-236zM101 0v300q0 52 -3.5 93t-7.5 57l-3 15l7 8q18 0 35 1.5t25 3.5l8 2l8 -7v-473h-69z" />
    <glyph glyph-name="Ibreve" unicode="&#x12c;" horiz-adv-x="291" 
d="M110 0v700h71v-700h-71zM11 859l15 14q5 -6 14 -16t40 -26t65 -16q35 0 64.5 14.5t42.5 28.5l12 15l15 -14q-1 -3 -4 -9t-14.5 -20.5t-25.5 -26t-38.5 -20.5t-51.5 -9t-51 9t-38.5 21t-25 24.5t-14.5 21.5z" />
    <glyph glyph-name="ibreve" unicode="&#x12d;" horiz-adv-x="269" 
d="M0 651l14 15q5 -6 14 -16t40 -26t66 -16q34 0 64 14.5t42 29.5l13 14l14 -15q-1 -3 -4 -9t-14.5 -20.5t-25.5 -25.5t-38 -20t-51 -9q-28 0 -52 8.5t-38.5 21t-25 25t-14.5 20.5zM101 0v300q0 52 -3.5 93t-7.5 57l-3 15l7 8q18 0 35 1.5t25 3.5l8 2l8 -7v-473h-69z" />
    <glyph glyph-name="Iogonek" unicode="&#x12e;" horiz-adv-x="291" 
d="M110 0v700h71v-700h-15q-36 -36 -36 -84q0 -45 43 -45q11 0 20 2.5t13 5.5l3 3l14 -15q-18 -29 -60 -29q-30 0 -51.5 19.5t-21.5 54.5q0 55 44 88h-24z" />
    <glyph glyph-name="iogonek" unicode="&#x12f;" horiz-adv-x="269" 
d="M101 0v300q0 52 -3.5 93t-7.5 57l-4 15l8 8q18 0 35 1.5t25 3.5l8 2l8 -7v-473h-14q-36 -36 -36 -84q0 -45 44 -45q10 0 19 2.5t13 5.5l3 3l15 -15q-18 -29 -60 -29q-31 0 -52.5 19.5t-21.5 54.5q0 54 45 88h-24zM87 632q0 20 12.5 33t33.5 13q20 0 32.5 -13t12.5 -33
t-12.5 -33t-32.5 -13q-21 0 -33.5 13t-12.5 33z" />
    <glyph glyph-name="Idotaccent" unicode="&#x130;" horiz-adv-x="291" 
d="M110 0v700h71v-700h-71zM101 843q0 20 12 32.5t32 12.5t32 -12.5t12 -32.5t-12 -32t-32 -12q-19 0 -31.5 12.5t-12.5 31.5z" />
    <glyph glyph-name="dotlessi" unicode="&#x131;" horiz-adv-x="269" 
d="M101 0v300q0 52 -3.5 93t-7.5 57l-3 15l7 8q18 0 35 1.5t25 3.5l8 2l8 -7v-473h-69z" />
    <glyph glyph-name="IJ" unicode="&#x132;" horiz-adv-x="643" 
d="M110 325v375h71v-375h-71zM302 25q77 0 118.5 54.5t41.5 160.5v460h71v-459q0 -119 -61 -183.5t-173 -64.5q-92 0 -145.5 41.5t-53.5 109.5q0 16 3 31t7 22l3 7q21 7 60 7l9 -7q-12 -25 -12 -61q0 -55 35.5 -86.5t96.5 -31.5z" />
    <glyph glyph-name="ij" unicode="&#x133;" horiz-adv-x="539" 
d="M101 0v300q0 52 -3.5 93t-7.5 57l-4 15l8 8q18 0 35 1.5t25 3.5l8 2l8 -7v-473h-69zM87 632q0 20 12.5 33t33.5 13q20 0 32.5 -13t12.5 -33t-12.5 -33t-32.5 -13q-21 0 -33.5 13t-12.5 33zM371 -35v335q0 52 -3.5 93.5t-7.5 56.5l-4 15l8 8q18 0 35 1.5t25 3.5l7 2l8 -7
v-489q0 -48 -16.5 -90.5t-39.5 -69t-46 -46t-39 -28.5l-17 -8l-14 15q4 3 11 8.5t25 25.5t32 42t25 58t11 74zM356 632q0 20 13 33t33 13t33 -13t13 -33t-13 -33t-33 -13t-33 13t-13 33z" />
    <glyph glyph-name="Jcircumflex" unicode="&#x134;" horiz-adv-x="529" 
d="M348 211v489h71v-488q0 -219 -203 -219q-54 0 -96.5 15t-58.5 30l-16 15q0 19 7.5 36.5t15.5 25.5l8 8h8q2 -4 5 -10.5t15 -23.5t26 -30t37.5 -23.5t50.5 -10.5q130 0 130 186zM518 793l-6 -7h-29l-98 99l-98 -99h-28l-7 7l123 142h20z" />
    <glyph glyph-name="jcircumflex" unicode="&#x135;" horiz-adv-x="269" 
d="M101 -35v335q0 52 -3.5 93t-7.5 57l-3 15l7 8q18 0 35 1.5t25 3.5l8 2l8 -7v-489q0 -48 -16.5 -90.5t-39.5 -69t-46 -46t-40 -28.5l-16 -8l-15 15q4 3 11 8.5t25 25.5t32 42t25 58t11 74zM268 571l-7 -6h-28l-98 98l-98 -98h-29l-6 6l123 142h20z" />
    <glyph glyph-name="Kcommaaccent" unicode="&#x136;" horiz-adv-x="668" 
d="M110 0v700h71v-316h59l293 316h52l-290 -313l154 -188q45 -53 89 -100.5t66 -68.5l22 -22v-8h-87l-300 348h-58v-348h-71zM298 -236l-12 11q5 5 12.5 15t19.5 41.5t12 63.5q0 12 -2 22.5t-4 14.5l-1 4l5 5q13 0 25 -2t17 -4l6 -2q4 -9 4 -27q0 -40 -20.5 -75.5
t-41.5 -50.5z" />
    <glyph glyph-name="kcommaaccent" unicode="&#x137;" horiz-adv-x="517" 
d="M100 0v450q0 84 -4 157t-8 104l-3 31l8 8q18 0 35 2t25 4l8 2l7 -8v-478l53 5l22 24q48 50 82.5 91.5t45.5 57.5l11 16l10 7h62l-186 -202l55 -78q42 -52 80.5 -98t56.5 -66l18 -20v-9q-20 0 -37.5 -1.5t-25.5 -2.5l-8 -2l-199 249h-40v-243h-68zM227 -236l-12 11
q5 5 12.5 15t19.5 41.5t12 63.5q0 12 -2 22.5t-3 14.5l-2 4l5 5q13 0 25 -2t18 -4l5 -2q4 -9 4 -27q0 -40 -20.5 -75.5t-40.5 -50.5z" />
    <glyph glyph-name="Lacute" unicode="&#x139;" horiz-adv-x="578" 
d="M110 0v700h71v-665h182q52 0 93.5 4t56.5 8l15 4l8 -7v-44h-426zM108 772l-7 6l93 143q17 0 31 -2.5t19 -4.5l6 -3v-7l-117 -132h-25z" />
    <glyph glyph-name="lacute" unicode="&#x13a;" horiz-adv-x="268" 
d="M100 0v450q0 84 -4 157t-8 104l-3 31l8 8q18 0 35 2t25 4l8 2l7 -8v-750h-68zM106 787l-6 7l92 142q17 0 31 -2.5t19 -5.5l6 -2v-6l-117 -133h-25z" />
    <glyph glyph-name="Lcommaaccent" unicode="&#x13b;" horiz-adv-x="578" 
d="M110 0v700h71v-665h182q52 0 93.5 4t56.5 8l15 4l8 -7v-44h-426zM268 -236l-11 11q5 5 12 15t19 41.5t12 63.5q0 12 -2 22.5t-4 14.5l-1 4l5 5q13 0 25 -2t17 -4l6 -2q4 -9 4 -27q0 -40 -20.5 -75.5t-41.5 -50.5z" />
    <glyph glyph-name="lcommaaccent" unicode="&#x13c;" horiz-adv-x="268" 
d="M100 0v450q0 84 -4 157t-8 104l-3 31l8 8q18 0 35 2t25 4l8 2l7 -8v-750h-68zM90 -236l-11 11q5 5 12 15t19 41.5t12 63.5q0 12 -2 22t-4 15l-1 4l5 5q13 0 25 -2t17 -4l6 -2q4 -9 4 -27q0 -40 -20.5 -75.5t-41.5 -50.5z" />
    <glyph glyph-name="Lcaron" unicode="&#x13d;" horiz-adv-x="578" 
d="M110 0v700h71v-665h182q52 0 93.5 4t56.5 8l15 4l8 -7v-44h-426zM395 529l-12 12q5 5 12 15t19 41.5t12 63.5q0 12 -2 22.5t-4 14.5l-1 4l5 5q13 0 25 -2t17 -4l6 -2q4 -9 4 -27q0 -26 -8.5 -50t-20 -40t-23.5 -28.5t-20 -18.5z" />
    <glyph glyph-name="lcaron" unicode="&#x13e;" horiz-adv-x="323" 
d="M100 0v450q0 84 -4 157t-8 104l-3 31l8 8q18 0 35 2t25 4l8 2l7 -8v-750h-68zM253 575l-12 12q5 5 12 15t19 41.5t12 63.5q0 12 -2 22.5t-4 14.5l-1 4l5 5q14 0 26 -2t18 -4l5 -2q3 -9 3 -27q0 -26 -8.5 -50t-20 -40t-23.5 -28.5t-20 -18.5z" />
    <glyph glyph-name="Ldot" unicode="&#x13f;" horiz-adv-x="578" 
d="M110 0v700h71v-665h182q52 0 93.5 4t56.5 8l15 4l8 -7v-44h-426zM392 350q0 19 11.5 30.5t30.5 11.5t30.5 -11.5t11.5 -30.5t-11.5 -30.5t-30.5 -11.5t-30.5 11.5t-11.5 30.5z" />
    <glyph glyph-name="ldot" unicode="&#x140;" horiz-adv-x="362" 
d="M100 0v450q0 84 -4 157t-8 104l-3 31l8 8q18 0 35 2t25 4l8 2l7 -8v-750h-68zM274 325q0 19 11.5 30.5t30.5 11.5t31 -11.5t12 -30.5t-11.5 -30.5t-31.5 -11.5q-19 0 -30.5 11.5t-11.5 30.5z" />
    <glyph glyph-name="Lslash" unicode="&#x141;" horiz-adv-x="585" 
d="M37 273l-15 27l94 55v345h72v-303l96 56l16 -28l-112 -65v-325h182q52 0 93 4t57 8l15 4l8 -7v-44h-427v318z" />
    <glyph glyph-name="lslash" unicode="&#x142;" horiz-adv-x="279" 
d="M37 273l-15 27l83 48v102q0 84 -3.5 157t-7.5 104l-3 31l7 8q18 0 35 2t25 4l8 2l8 -8v-362l68 39l15 -27l-83 -48v-352h-69v312z" />
    <glyph glyph-name="Nacute" unicode="&#x143;" horiz-adv-x="784" 
d="M110 0v420q0 80 -4 148t-8 96l-3 28l8 8h28l502 -581v581h41v-700h-23l-502 580v-580h-39zM364 772l-7 6l93 143q17 0 31 -2.5t19 -4.5l6 -3v-7l-117 -132h-25z" />
    <glyph glyph-name="nacute" unicode="&#x144;" horiz-adv-x="622" 
d="M454 0v335q0 53 -25 77t-84 24q-44 0 -87.5 -12t-65.5 -24l-22 -13v-387h-69v300q0 52 -3.5 93t-7.5 57l-3 15l7 8q18 0 35 1.5t25 3.5l8 2l8 -7l-4 -53l4 -3q9 7 26.5 17.5t71.5 28t109 17.5q78 0 112 -34.5t34 -104.5v-341h-69zM283 565l-6 6l92 142q17 0 31 -2.5
t20 -4.5l5 -3v-6l-116 -132h-26z" />
    <glyph glyph-name="Ncommaaccent" unicode="&#x145;" horiz-adv-x="784" 
d="M110 0v420q0 80 -4 148t-8 96l-3 28l8 8h28l502 -581v581h41v-700h-23l-502 580v-580h-39zM357 -236l-12 11q5 5 12 15t19 41.5t12 63.5q0 12 -2 22.5t-4 14.5l-1 4l5 5q14 0 26 -2t18 -4l5 -2q3 -9 3 -27q0 -40 -20 -75.5t-40 -50.5z" />
    <glyph glyph-name="ncommaaccent" unicode="&#x146;" horiz-adv-x="622" 
d="M454 0v335q0 53 -25 77t-84 24q-44 0 -87.5 -12t-65.5 -24l-22 -13v-387h-69v300q0 52 -3.5 93t-7.5 57l-3 15l7 8q18 0 35 1.5t25 3.5l8 2l8 -7l-4 -53l4 -3q9 7 26.5 17.5t71.5 28t109 17.5q78 0 112 -34.5t34 -104.5v-341h-69zM268 -236l-12 11q5 5 12 15t19 41.5
t12 63.5q0 12 -1.5 22t-3.5 15l-1 4l4 5q14 0 26 -2t17 -4l6 -2q4 -9 4 -27q0 -40 -20.5 -75.5t-41.5 -50.5z" />
    <glyph glyph-name="Ncaron" unicode="&#x147;" horiz-adv-x="784" 
d="M110 0v420q0 80 -4 148t-8 96l-3 28l8 8h28l502 -581v581h41v-700h-23l-502 580v-580h-39zM518 916l6 -7l-122 -142h-21l-122 142l6 7h28l99 -99l98 99h28z" />
    <glyph glyph-name="ncaron" unicode="&#x148;" horiz-adv-x="622" 
d="M454 0v335q0 53 -25 77t-84 24q-44 0 -87.5 -12t-65.5 -24l-22 -13v-387h-69v300q0 52 -3.5 93t-7.5 57l-3 15l7 8q18 0 35 1.5t25 3.5l8 2l8 -7l-4 -53l4 -3q9 7 26.5 17.5t71.5 28t109 17.5q78 0 112 -34.5t34 -104.5v-341h-69zM438 708l6 -6l-123 -142h-20l-123 142
l7 6h28l98 -98l99 98h28z" />
    <glyph glyph-name="Eng" unicode="&#x14a;" horiz-adv-x="784" 
d="M614 -39v81l-465 538v-580h-39v420q0 80 -4 148t-8 96l-3 28l8 8h28l502 -581v581h41v-738q0 -219 -193 -219q-53 0 -95.5 15t-58.5 30l-16 15q0 19 7.5 36.5t15.5 25.5l7 8h9q2 -4 5 -10.5t15 -23.5t26 -30t37.5 -23.5t49.5 -10.5q131 0 131 186z" />
    <glyph glyph-name="eng" unicode="&#x14b;" horiz-adv-x="622" 
d="M454 -35v370q0 53 -25 77t-84 24q-44 0 -87.5 -12t-65.5 -24l-22 -13v-387h-69v300q0 52 -3.5 93t-7.5 57l-3 15l7 8q18 0 35 1.5t25 3.5l8 2l8 -7l-4 -53l4 -3q9 7 26.5 17.5t71.5 28t109 17.5q78 0 112 -34.5t34 -104.5v-357q0 -48 -16.5 -90.5t-39.5 -69t-46 -46
t-39 -28.5l-17 -8l-15 15q4 3 11 8.5t25 25.5t32 42t25 58t11 74z" />
    <glyph glyph-name="Omacron" unicode="&#x14c;" horiz-adv-x="829" 
d="M70 350q0 159 95.5 258t248.5 99q154 0 249 -99t95 -258t-95 -258t-249 -99q-153 0 -248.5 99t-95.5 258zM148 350q0 -149 73 -237t193 -88t193 88t73 237t-73 237t-193 88t-193 -88t-73 -237zM296 802v36h236v-36h-236z" />
    <glyph glyph-name="omacron" unicode="&#x14d;" horiz-adv-x="609" 
d="M60 236q0 109 67.5 176.5t176.5 67.5t176.5 -67.5t67.5 -176.5t-67.5 -176t-176.5 -67t-176.5 67t-67.5 176zM135 236q0 -97 46.5 -154.5t122.5 -57.5t122.5 57.5t46.5 154.5q0 98 -46.5 155.5t-122.5 57.5t-122.5 -57.5t-46.5 -155.5zM186 595v36h236v-36h-236z" />
    <glyph glyph-name="Obreve" unicode="&#x14e;" horiz-adv-x="829" 
d="M70 350q0 159 95.5 258t248.5 99q154 0 249 -99t95 -258t-95 -258t-249 -99q-153 0 -248.5 99t-95.5 258zM148 350q0 -149 73 -237t193 -88t193 88t73 237t-73 237t-193 88t-193 -88t-73 -237zM281 859l14 14q5 -6 14 -16t40 -26t66 -16q34 0 64 14.5t43 28.5l12 15
l15 -14q-2 -3 -5 -9t-14.5 -20.5t-25.5 -26t-38 -20.5t-51 -9q-28 0 -52 9t-38.5 21t-25 24.5t-14.5 21.5z" />
    <glyph glyph-name="obreve" unicode="&#x14f;" horiz-adv-x="609" 
d="M60 236q0 109 67.5 176.5t176.5 67.5t176.5 -67.5t67.5 -176.5t-67.5 -176t-176.5 -67t-176.5 67t-67.5 176zM135 236q0 -97 46.5 -154.5t122.5 -57.5t122.5 57.5t46.5 154.5q0 98 -46.5 155.5t-122.5 57.5t-122.5 -57.5t-46.5 -155.5zM171 651l14 15q5 -6 14 -16t40 -26
t66 -16q34 0 64 14.5t43 29.5l12 14l15 -15q-2 -3 -5 -9t-14.5 -20.5t-25.5 -25.5t-38 -20t-51 -9q-28 0 -52 8.5t-38.5 21t-25 25t-14.5 20.5z" />
    <glyph glyph-name="Ohungarumlaut" unicode="&#x150;" horiz-adv-x="829" 
d="M70 350q0 159 95.5 258t248.5 99q154 0 249 -99t95 -258t-95 -258t-249 -99q-153 0 -248.5 99t-95.5 258zM148 350q0 -149 73 -237t193 -88t193 88t73 237t-73 237t-193 88t-193 -88t-73 -237zM305 772l-6 6l91 143q17 0 31 -2.5t19 -4.5l6 -3v-7l-116 -132h-25zM466 772
l-7 6l97 143q17 0 30.5 -2.5t18.5 -4.5l5 -3v-7l-119 -132h-25z" />
    <glyph glyph-name="ohungarumlaut" unicode="&#x151;" horiz-adv-x="609" 
d="M60 236q0 109 67.5 176.5t176.5 67.5t176.5 -67.5t67.5 -176.5t-67.5 -176t-176.5 -67t-176.5 67t-67.5 176zM135 236q0 -97 46.5 -154.5t122.5 -57.5t122.5 57.5t46.5 154.5q0 98 -46.5 155.5t-122.5 57.5t-122.5 -57.5t-46.5 -155.5zM195 565l-6 6l91 142q17 0 31 -2.5
t19 -4.5l6 -3v-6l-116 -132h-25zM356 565l-7 6l97 142q17 0 30.5 -2.5t18.5 -4.5l5 -3v-6l-119 -132h-25z" />
    <glyph glyph-name="OE" unicode="&#x152;" horiz-adv-x="1066" 
d="M567 0v32q-68 -39 -157 -39q-149 0 -244.5 99.5t-95.5 257.5t95.5 257.5t244.5 99.5q86 0 157 -41v34h422v-44l-8 -7q-48 16 -165 16h-178v-291h289l6 -6v-30h-295v-303h188q52 0 93 4t57 8l15 4l8 -7v-44h-432zM414 25q93 0 153 68v517q-62 65 -153 65q-120 0 -193 -88
t-73 -237t73 -237t193 -88z" />
    <glyph glyph-name="oe" unicode="&#x153;" horiz-adv-x="979" 
d="M896 90l15 -14q-2 -3 -6.5 -9t-21.5 -20t-37 -25t-54 -20t-72 -9q-152 0 -210 120q-28 -57 -82 -88.5t-125 -31.5q-107 0 -175 67.5t-68 175.5t68 176t175 68q71 0 125 -32t82 -89q60 121 219 121q88 0 136.5 -41t48.5 -115q0 -18 -3 -36t-5 -27l-3 -9l-8 -7h-346
q0 -100 49.5 -155t140.5 -55q46 0 85 13.5t56 27.5zM135 236q0 -97 46.5 -154.5t122.5 -57.5t122.5 57.5t46.5 154.5q0 98 -46.5 155.5t-122.5 57.5t-122.5 -57.5t-46.5 -155.5zM725 449q-77 0 -122.5 -46.5t-52.5 -129.5l295 8q6 21 6 50q0 57 -32 87.5t-94 30.5z" />
    <glyph glyph-name="Racute" unicode="&#x154;" horiz-adv-x="663" 
d="M110 0v700h216q115 0 182.5 -51t67.5 -142q0 -73 -45.5 -121t-126.5 -64l93 -149q33 -52 62 -94t42 -57l13 -16l-5 -6h-79l-198 315h-151v-315h-71zM315 664h-134v-313h134q86 0 136.5 41t50.5 115t-50.5 115.5t-136.5 41.5zM291 772l-7 6l93 143q17 0 31 -2.5t20 -4.5
l5 -3v-7l-117 -132h-25z" />
    <glyph glyph-name="racute" unicode="&#x155;" horiz-adv-x="412" 
d="M367 480q8 -29 8 -70l-8 -7q-12 9 -42 9q-25 0 -50 -9t-43 -22t-32.5 -26.5t-21.5 -22.5l-8 -9v-323h-69v300q0 52 -3.5 93t-7.5 57l-3 15l7 8q18 0 35 1.5t25 3.5l8 2l8 -7l-4 -105l4 -3q3 5 8.5 12.5t24.5 27.5t40.5 35t55 27.5t68.5 12.5zM205 565l-6 6l92 142
q17 0 31 -2.5t20 -4.5l5 -3v-6l-117 -132h-25z" />
    <glyph glyph-name="Rcommaaccent" unicode="&#x156;" horiz-adv-x="663" 
d="M110 0v700h216q115 0 182.5 -51t67.5 -142q0 -73 -45.5 -121t-126.5 -64l93 -149q33 -52 62 -94t42 -57l13 -16l-5 -6h-79l-198 315h-151v-315h-71zM315 664h-134v-313h134q86 0 136.5 41t50.5 115t-50.5 115.5t-136.5 41.5zM298 -236l-12 11q5 5 12 15t19 41.5t12 63.5
q0 12 -1.5 22t-3.5 15l-1 4l4 5q14 0 26 -2t17 -4l6 -2q3 -9 3 -27q0 -40 -20.5 -75.5t-40.5 -50.5z" />
    <glyph glyph-name="rcommaaccent" unicode="&#x157;" horiz-adv-x="412" 
d="M367 480q8 -29 8 -70l-8 -7q-12 9 -42 9q-25 0 -50 -9t-43 -22t-32.5 -26.5t-21.5 -22.5l-8 -9v-323h-69v300q0 52 -3.5 93t-7.5 57l-3 15l7 8q18 0 35 1.5t25 3.5l8 2l8 -7l-4 -105l4 -3q3 5 8.5 12.5t24.5 27.5t40.5 35t55 27.5t68.5 12.5zM92 -236l-12 11q5 5 12 15
t19 41.5t12 63.5q0 12 -1.5 22.5t-3.5 14.5l-1 4l4 5q14 0 26 -2t17 -4l6 -2q4 -9 4 -27q0 -40 -20.5 -75.5t-41.5 -50.5z" />
    <glyph glyph-name="Rcaron" unicode="&#x158;" horiz-adv-x="663" 
d="M110 0v700h216q115 0 182.5 -51t67.5 -142q0 -73 -45.5 -121t-126.5 -64l93 -149q33 -52 62 -94t42 -57l13 -16l-5 -6h-79l-198 315h-151v-315h-71zM315 664h-134v-313h134q86 0 136.5 41t50.5 115t-50.5 115.5t-136.5 41.5zM455 916l6 -7l-122 -142h-21l-122 142l6 7h28
l99 -99l98 99h28z" />
    <glyph glyph-name="rcaron" unicode="&#x159;" horiz-adv-x="412" 
d="M367 480q8 -29 8 -70l-8 -7q-12 9 -42 9q-25 0 -50 -9t-43 -22t-32.5 -26.5t-21.5 -22.5l-8 -9v-323h-69v300q0 52 -3.5 93t-7.5 57l-3 15l7 8q18 0 35 1.5t25 3.5l8 2l8 -7l-4 -105l4 -3q3 5 8.5 12.5t24.5 27.5t40.5 35t55 27.5t68.5 12.5zM359 708l7 -6l-123 -142h-20
l-123 142l7 6h28l98 -98l98 98h28z" />
    <glyph glyph-name="Sacute" unicode="&#x15a;" horiz-adv-x="646" 
d="M311 675q-76 0 -113.5 -31.5t-37.5 -86.5q0 -50 35.5 -79.5t157.5 -95.5q44 -24 59.5 -33t46 -27.5t40.5 -28t27 -25.5t22 -29t10 -30.5t5 -37.5q0 -84 -61 -131t-181 -47q-48 0 -90.5 7.5t-68 18.5t-44.5 22.5t-27 18.5l-8 8q0 20 8.5 38.5t17.5 26.5l9 8h10
q3 -5 8 -12.5t24 -27.5t40.5 -35.5t56 -28t72.5 -12.5q75 0 122 34t47 91q0 53 -42 87t-134 81q-4 2 -6.5 3t-6 3t-6.5 3q-117 58 -161.5 99t-44.5 111q0 83 57.5 126.5t167.5 43.5q66 0 118 -15.5t72 -31.5l19 -15q0 -20 -8.5 -38.5t-16.5 -26.5l-9 -9h-10l-5.5 11
t-18.5 25t-33.5 32t-50 25t-68.5 11zM287 772l-7 6l93 143q17 0 31 -2.5t20 -4.5l5 -3v-7l-117 -132h-25z" />
    <glyph glyph-name="sacute" unicode="&#x15b;" horiz-adv-x="480" 
d="M236 447q-110 0 -110 -74q0 -39 48 -67q22 -12 95 -43q88 -38 121.5 -66t33.5 -79q0 -64 -48 -94.5t-132 -30.5q-38 0 -71 6t-53 14.5t-35 16.5t-21 14l-7 6q0 14 7.5 27.5t15.5 20.5l7 6h8q2 -3 5.5 -8.5t17 -19t29 -23.5t42.5 -18.5t57 -8.5q53 0 85.5 20t32.5 59
q0 37 -30.5 57.5t-113.5 53.5q-80 31 -116 60t-36 83q0 58 44.5 89.5t128.5 31.5q50 0 90.5 -11t56.5 -23l15 -11q0 -14 -7.5 -27.5t-15.5 -19.5l-8 -7h-7q-1 3 -3.5 7.5t-13 15.5t-24 20t-37 16t-51.5 7zM214 565l-6 6l92 142q17 0 31 -2.5t19 -4.5l6 -3v-6l-117 -132h-25z
" />
    <glyph glyph-name="Scircumflex" unicode="&#x15c;" horiz-adv-x="646" 
d="M311 675q-76 0 -113.5 -31.5t-37.5 -86.5q0 -50 35.5 -79.5t157.5 -95.5q44 -24 59.5 -33t46 -27.5t40.5 -28t27 -25.5t22 -29t10 -30.5t5 -37.5q0 -84 -61 -131t-181 -47q-48 0 -90.5 7.5t-68 18.5t-44.5 22.5t-27 18.5l-8 8q0 20 8.5 38.5t17.5 26.5l9 8h10
q3 -5 8 -12.5t24 -27.5t40.5 -35.5t56 -28t72.5 -12.5q75 0 122 34t47 91q0 53 -42 87t-134 81q-4 2 -6.5 3t-6 3t-6.5 3q-117 58 -161.5 99t-44.5 111q0 83 57.5 126.5t167.5 43.5q66 0 118 -15.5t72 -31.5l19 -15q0 -20 -8.5 -38.5t-16.5 -26.5l-9 -9h-10l-5.5 11
t-18.5 25t-33.5 32t-50 25t-68.5 11zM457 798l-6 -6h-28l-98 98l-99 -98h-28l-6 6l122 143h21z" />
    <glyph glyph-name="scircumflex" unicode="&#x15d;" horiz-adv-x="480" 
d="M236 447q-110 0 -110 -74q0 -39 48 -67q22 -12 95 -43q88 -38 121.5 -66t33.5 -79q0 -64 -48 -94.5t-132 -30.5q-38 0 -71 6t-53 14.5t-35 16.5t-21 14l-7 6q0 14 7.5 27.5t15.5 20.5l7 6h8q2 -3 5.5 -8.5t17 -19t29 -23.5t42.5 -18.5t57 -8.5q53 0 85.5 20t32.5 59
q0 37 -30.5 57.5t-113.5 53.5q-80 31 -116 60t-36 83q0 58 44.5 89.5t128.5 31.5q50 0 90.5 -11t56.5 -23l15 -11q0 -14 -7.5 -27.5t-15.5 -19.5l-8 -7h-7q-1 3 -3.5 7.5t-13 15.5t-24 20t-37 16t-51.5 7zM372 571l-6 -6h-28l-98 98l-99 -98h-28l-6 6l123 142h20z" />
    <glyph glyph-name="Scedilla" unicode="&#x15e;" horiz-adv-x="646" 
d="M299 -72l11 65q-73 1 -129.5 20t-76.5 37l-21 18q0 20 8.5 38.5t17.5 26.5l9 8h10q3 -5 8 -12.5t24 -27.5t40.5 -35.5t56 -28t72.5 -12.5q75 0 122 34t47 91q0 53 -42 87t-134 81q-4 2 -6.5 3t-6 3t-6.5 3q-117 58 -161.5 99t-44.5 111q0 83 57.5 126.5t167.5 43.5
q66 0 118 -15.5t72 -31.5l19 -15q0 -20 -8.5 -38.5t-16.5 -26.5l-9 -9h-10l-5.5 11t-18.5 25t-33.5 32t-50 25t-68.5 11q-76 0 -113.5 -31.5t-37.5 -86.5q0 -50 35.5 -79.5t157.5 -95.5q44 -24 59.5 -33t46 -27.5t40.5 -28t27 -25.5t22 -29t10 -30.5t5 -37.5
q0 -80 -56.5 -126.5t-166.5 -50.5l-7 -48q28 0 47 -17t19 -45t-20.5 -45t-53.5 -17q-23 0 -41 9t-24 18l-7 9l13 13q18 -19 50 -19q43 0 43 34q0 36 -53 36z" />
    <glyph glyph-name="scedilla" unicode="&#x15f;" horiz-adv-x="480" 
d="M217 -72l12 66q-55 2 -98 16t-59 27l-15 13q0 14 7.5 27.5t15.5 20.5l7 6h8q2 -3 5.5 -8.5t17 -19t29 -23.5t42.5 -18.5t57 -8.5q53 0 85.5 20t32.5 59q0 37 -30.5 57.5t-113.5 53.5q-80 31 -116 60t-36 83q0 58 44.5 89.5t128.5 31.5q50 0 90.5 -11t56.5 -23l15 -11
q0 -14 -7.5 -27.5t-15.5 -19.5l-8 -7h-7q-1 3 -3.5 7.5t-13 15.5t-24 20t-37 16t-51.5 7q-110 0 -110 -74q0 -39 48 -67q22 -12 95 -43q88 -38 121.5 -66t33.5 -79q0 -118 -165 -125l-8 -47q28 0 47 -17t19 -45t-20.5 -45t-53.5 -17q-23 0 -41 9t-24 18l-7 9l13 13
q18 -19 51 -19q42 0 42 34q0 36 -53 36z" />
    <glyph glyph-name="Scaron" unicode="&#x160;" horiz-adv-x="646" 
d="M311 675q-76 0 -113.5 -31.5t-37.5 -86.5q0 -50 35.5 -79.5t157.5 -95.5q44 -24 59.5 -33t46 -27.5t40.5 -28t27 -25.5t22 -29t10 -30.5t5 -37.5q0 -84 -61 -131t-181 -47q-48 0 -90.5 7.5t-68 18.5t-44.5 22.5t-27 18.5l-8 8q0 20 8.5 38.5t17.5 26.5l9 8h10
q3 -5 8 -12.5t24 -27.5t40.5 -35.5t56 -28t72.5 -12.5q75 0 122 34t47 91q0 53 -42 87t-134 81q-4 2 -6.5 3t-6 3t-6.5 3q-117 58 -161.5 99t-44.5 111q0 83 57.5 126.5t167.5 43.5q66 0 118 -15.5t72 -31.5l19 -15q0 -20 -8.5 -38.5t-16.5 -26.5l-9 -9h-10l-5.5 11
t-18.5 25t-33.5 32t-50 25t-68.5 11zM451 916l6 -7l-122 -142h-21l-122 142l6 7h28l99 -99l98 99h28z" />
    <glyph glyph-name="scaron" unicode="&#x161;" horiz-adv-x="480" 
d="M236 447q-110 0 -110 -74q0 -39 48 -67q22 -12 95 -43q88 -38 121.5 -66t33.5 -79q0 -64 -48 -94.5t-132 -30.5q-38 0 -71 6t-53 14.5t-35 16.5t-21 14l-7 6q0 14 7.5 27.5t15.5 20.5l7 6h8q2 -3 5.5 -8.5t17 -19t29 -23.5t42.5 -18.5t57 -8.5q53 0 85.5 20t32.5 59
q0 37 -30.5 57.5t-113.5 53.5q-80 31 -116 60t-36 83q0 58 44.5 89.5t128.5 31.5q50 0 90.5 -11t56.5 -23l15 -11q0 -14 -7.5 -27.5t-15.5 -19.5l-8 -7h-7q-1 3 -3.5 7.5t-13 15.5t-24 20t-37 16t-51.5 7zM366 708l6 -6l-122 -142h-20l-123 142l6 6h28l99 -98l98 98h28z" />
    <glyph glyph-name="Tcommaaccent" unicode="&#x162;" horiz-adv-x="683" 
d="M377 665v-665h-71v665h-95q-52 0 -93.5 -4t-56.5 -8l-15 -4l-8 7v44h606v-44l-7 -7q-48 16 -165 16h-95zM292 -236l-12 11q5 5 12 15t19 41.5t12 63.5q0 12 -1.5 22t-3.5 15l-1 4l4 5q14 0 26 -2t17 -4l6 -2q4 -9 4 -27q0 -40 -20.5 -75.5t-41.5 -50.5z" />
    <glyph glyph-name="tcommaaccent" unicode="&#x163;" horiz-adv-x="372" 
d="M22 439v21l86 24l22 115h45v-126h146v-34h-146v-328q0 -76 72 -76q21 0 39.5 6.5t25.5 12.5l8 6l15 -14q-2 -2 -5 -5.5t-13.5 -13t-23.5 -16.5t-33.5 -12.5t-43.5 -5.5q-52 0 -81 28t-29 83v335h-84zM165 -236l-12 11q5 5 12.5 15t19.5 41.5t12 63.5q0 12 -1.5 22
t-3.5 15l-2 4l5 5q13 0 25 -2t18 -4l5 -2q4 -9 4 -27q0 -40 -20.5 -75.5t-40.5 -50.5z" />
    <glyph glyph-name="Tcaron" unicode="&#x164;" horiz-adv-x="683" 
d="M377 665v-665h-71v665h-95q-52 0 -93.5 -4t-56.5 -8l-15 -4l-8 7v44h606v-44l-7 -7q-48 16 -165 16h-95zM468 908l6 -6l-123 -142h-20l-122 142l6 6h28l98 -98l99 98h28z" />
    <glyph glyph-name="tcaron" unicode="&#x165;" horiz-adv-x="387" 
d="M22 439v21l86 24l22 115h45v-126h146v-34h-146v-328q0 -76 72 -76q21 0 39.5 6.5t25.5 12.5l8 6l15 -14q-2 -2 -5 -5.5t-13.5 -13t-23.5 -16.5t-33.5 -12.5t-43.5 -5.5q-52 0 -81 28t-29 83v335h-84zM267 578l-12 12q5 5 12 15t19 41t12 64q0 12 -2 22t-4 14l-1 5l5 5
q13 0 25 -2t17 -4l6 -2q4 -9 4 -28q0 -40 -20 -75.5t-40 -50.5z" />
    <glyph glyph-name="Tbar" unicode="&#x166;" horiz-adv-x="683" 
d="M168 358v36h138v271h-95q-52 0 -93.5 -4t-56.5 -8l-15 -4l-8 7v44h606v-44l-7 -7q-48 16 -165 16h-95v-271h136v-36h-136v-358h-71v358h-138z" />
    <glyph glyph-name="tbar" unicode="&#x167;" horiz-adv-x="372" 
d="M22 273v34h84v132h-84v21l86 24l22 115h45v-126h146v-34h-146v-132h146v-34h-146v-162q0 -76 72 -76q21 0 39.5 6.5t25.5 12.5l8 6l15 -14q-2 -2 -5 -5.5t-13.5 -13t-23.5 -16.5t-33.5 -12.5t-43.5 -5.5q-52 0 -81 28t-29 83v169h-84z" />
    <glyph glyph-name="Utilde" unicode="&#x168;" horiz-adv-x="756" 
d="M614 256v444h39v-443q0 -116 -76 -190t-201 -74q-124 0 -199 74t-75 190v443h72v-452q0 -96 60 -157t157 -61q99 0 161 63t62 163zM335 857q25 0 51 -18t47 -18q20 0 37.5 9.5t25.5 19.5l8 10l15 -15q-1 -3 -3.5 -7t-10.5 -15.5t-18 -20t-26.5 -15.5t-34.5 -7
q-25 0 -51.5 18t-46.5 18t-38 -10t-26 -20l-8 -9l-14 15q1 3 3.5 7t10.5 15.5t18 20t26.5 15.5t34.5 7z" />
    <glyph glyph-name="utilde" unicode="&#x169;" horiz-adv-x="620" 
d="M170 473v-325q0 -59 26.5 -85t86.5 -26q44 0 85.5 12t61.5 25l20 12v214q0 52 -2 93t-4 57l-3 15l8 8q18 0 33.5 1.5t21.5 3.5l7 2l8 -7v-273q0 -52 3.5 -100t7.5 -70l3 -22l-7 -8q-18 0 -35 -2t-25 -4l-8 -2l-8 8l4 52l-4 4q-9 -7 -25 -17.5t-67.5 -28t-104.5 -17.5
q-80 0 -116 37.5t-36 111.5v158q0 52 -3.5 93t-7.5 57l-3 15l7 8q18 0 35 1.5t25 3.5l8 2zM264 650q25 0 51.5 -18t46.5 -18t38 10t26 20l8 9l14 -15q-1 -3 -3.5 -7t-10.5 -15.5t-18 -20t-26.5 -15.5t-34.5 -7q-25 0 -51 18t-47 18q-20 0 -37.5 -9.5t-25.5 -19.5l-8 -10
l-15 14q1 3 3.5 7.5t10.5 15.5t18 20t26.5 16t34.5 7z" />
    <glyph glyph-name="Umacron" unicode="&#x16a;" horiz-adv-x="756" 
d="M614 256v444h39v-443q0 -116 -76 -190t-201 -74q-124 0 -199 74t-75 190v443h72v-452q0 -96 60 -157t157 -61q99 0 161 63t62 163zM262 802v36h236v-36h-236z" />
    <glyph glyph-name="umacron" unicode="&#x16b;" horiz-adv-x="620" 
d="M170 473v-325q0 -59 26.5 -85t86.5 -26q44 0 85.5 12t61.5 25l20 12v214q0 52 -2 93t-4 57l-3 15l8 8q18 0 33.5 1.5t21.5 3.5l7 2l8 -7v-273q0 -52 3.5 -100t7.5 -70l3 -22l-7 -8q-18 0 -35 -2t-25 -4l-8 -2l-8 8l4 52l-4 4q-9 -7 -25 -17.5t-67.5 -28t-104.5 -17.5
q-80 0 -116 37.5t-36 111.5v158q0 52 -3.5 93t-7.5 57l-3 15l7 8q18 0 35 1.5t25 3.5l8 2zM192 595v36h236v-36h-236z" />
    <glyph glyph-name="Ubreve" unicode="&#x16c;" horiz-adv-x="756" 
d="M614 256v444h39v-443q0 -116 -76 -190t-201 -74q-124 0 -199 74t-75 190v443h72v-452q0 -96 60 -157t157 -61q99 0 161 63t62 163zM247 859l14 14q5 -6 14 -16t40 -26t66 -16q34 0 64 14.5t43 28.5l12 15l14 -14q-1 -3 -4 -9t-14.5 -20.5t-25.5 -26t-38 -20.5t-51 -9
q-28 0 -52 9t-38.5 21t-25 24.5t-14.5 21.5z" />
    <glyph glyph-name="ubreve" unicode="&#x16d;" horiz-adv-x="620" 
d="M170 473v-325q0 -59 26.5 -85t86.5 -26q44 0 85.5 12t61.5 25l20 12v214q0 52 -2 93t-4 57l-3 15l8 8q18 0 33.5 1.5t21.5 3.5l7 2l8 -7v-273q0 -52 3.5 -100t7.5 -70l3 -22l-7 -8q-18 0 -35 -2t-25 -4l-8 -2l-8 8l4 52l-4 4q-9 -7 -25 -17.5t-67.5 -28t-104.5 -17.5
q-80 0 -116 37.5t-36 111.5v158q0 52 -3.5 93t-7.5 57l-3 15l7 8q18 0 35 1.5t25 3.5l8 2zM176 651l14 15q5 -6 14 -16t40 -26t66 -16q34 0 64 14.5t42 29.5l13 14l14 -15q-1 -3 -4 -9t-14.5 -20.5t-25.5 -25.5t-38 -20t-51 -9q-28 0 -52 8.5t-38.5 21t-25 25t-14.5 20.5z
" />
    <glyph glyph-name="Uring" unicode="&#x16e;" horiz-adv-x="756" 
d="M614 256v444h39v-443q0 -116 -76 -190t-201 -74q-124 0 -199 74t-75 190v443h72v-452q0 -96 60 -157t157 -61q99 0 161 63t62 163zM301 843q0 35 22.5 57t57.5 22t56.5 -22t21.5 -57t-21.5 -57t-56.5 -22t-57.5 22t-22.5 57zM335 843q0 -20 13 -32.5t33 -12.5
q19 0 31.5 12.5t12.5 32.5t-12.5 32.5t-31.5 12.5q-20 0 -33 -12.5t-13 -32.5z" />
    <glyph glyph-name="uring" unicode="&#x16f;" horiz-adv-x="620" 
d="M170 473v-325q0 -59 26.5 -85t86.5 -26q44 0 85.5 12t61.5 25l20 12v214q0 52 -2 93t-4 57l-3 15l8 8q18 0 33.5 1.5t21.5 3.5l7 2l8 -7v-273q0 -52 3.5 -100t7.5 -70l3 -22l-7 -8q-18 0 -35 -2t-25 -4l-8 -2l-8 8l4 52l-4 4q-9 -7 -25 -17.5t-67.5 -28t-104.5 -17.5
q-80 0 -116 37.5t-36 111.5v158q0 52 -3.5 93t-7.5 57l-3 15l7 8q18 0 35 1.5t25 3.5l8 2zM231 636q0 35 22.5 56.5t57.5 21.5t56.5 -21.5t21.5 -56.5t-21.5 -57t-56.5 -22t-57.5 22t-22.5 57zM265 636q0 -20 13 -33t33 -13q19 0 31.5 13t12.5 33t-12.5 32.5t-31.5 12.5
q-20 0 -33 -12.5t-13 -32.5z" />
    <glyph glyph-name="Uhungarumlaut" unicode="&#x170;" horiz-adv-x="756" 
d="M614 256v444h39v-443q0 -116 -76 -190t-201 -74q-124 0 -199 74t-75 190v443h72v-452q0 -96 60 -157t157 -61q99 0 161 63t62 163zM271 772l-6 6l91 143q17 0 31 -2.5t19 -4.5l6 -3v-7l-116 -132h-25zM432 772l-7 6l97 143q17 0 30.5 -2.5t18.5 -4.5l5 -3v-7l-119 -132
h-25z" />
    <glyph glyph-name="uhungarumlaut" unicode="&#x171;" horiz-adv-x="620" 
d="M170 473v-325q0 -59 26.5 -85t86.5 -26q44 0 85.5 12t61.5 25l20 12v214q0 52 -2 93t-4 57l-3 15l8 8q18 0 33.5 1.5t21.5 3.5l7 2l8 -7v-273q0 -52 3.5 -100t7.5 -70l3 -22l-7 -8q-18 0 -35 -2t-25 -4l-8 -2l-8 8l4 52l-4 4q-9 -7 -25 -17.5t-67.5 -28t-104.5 -17.5
q-80 0 -116 37.5t-36 111.5v158q0 52 -3.5 93t-7.5 57l-3 15l7 8q18 0 35 1.5t25 3.5l8 2zM200 565l-6 6l91 142q17 0 31 -2.5t20 -4.5l5 -3v-6l-116 -132h-25zM361 565l-7 6l97 142q17 0 30.5 -2.5t18.5 -4.5l5 -3v-6l-119 -132h-25z" />
    <glyph glyph-name="Uogonek" unicode="&#x172;" horiz-adv-x="756" 
d="M614 256v444h39v-443q0 -99 -57 -169t-154 -89q-4 -3 -11 -12.5t-15.5 -29.5t-8.5 -41q0 -45 44 -45q10 0 19 2.5t12 5.5l4 3l15 -15q-18 -29 -60 -29q-31 0 -52.5 19.5t-21.5 54.5q0 48 38 83q-18 -2 -29 -2q-124 0 -199 74t-75 190v443h72v-452q0 -96 60 -157t157 -61
q99 0 161 63t62 163z" />
    <glyph glyph-name="uogonek" unicode="&#x173;" horiz-adv-x="620" 
d="M170 473v-325q0 -59 26.5 -85t86.5 -26q44 0 85.5 12t61.5 25l20 12v214q0 52 -2 93t-4 57l-3 15l8 8q18 0 33.5 1.5t21.5 3.5l7 2l8 -7v-273q0 -52 3.5 -100t7.5 -70l3 -22l-7 -8h-13q-36 -36 -36 -84q0 -45 43 -45q11 0 20 2.5t12 5.5l4 3l14 -15q-17 -29 -59 -29
q-31 0 -52.5 19.5t-21.5 54.5q0 54 40 84l-19 -4l-8 8l4 52l-4 4q-9 -7 -25 -17.5t-67.5 -28t-104.5 -17.5q-80 0 -116 37.5t-36 111.5v158q0 52 -3.5 93t-7.5 57l-3 15l7 8q18 0 35 1.5t25 3.5l8 2z" />
    <glyph glyph-name="Wcircumflex" unicode="&#x174;" horiz-adv-x="1073" 
d="M723 14l-176 472l-172 -486h-52l-14 14l-202 513q-20 52 -38.5 93.5t-26.5 56.5l-9 15v8h80l248 -624l165 466q-17 48 -33 85.5t-23 50.5l-8 14v8h81l231 -621l226 621h43l-255 -700h-51zM681 778l-6 -6h-28l-99 98l-98 -98h-28l-6 6l122 143h21z" />
    <glyph glyph-name="wcircumflex" unicode="&#x175;" horiz-adv-x="800" 
d="M528 14l-105 286l-16 41l-120 -341h-49l-14 14l-114 286q-21 53 -41.5 94.5t-30.5 57.5l-9 15l6 6l71 5l165 -408l114 323l-36 74l6 6l68 5l152 -409l88 231q20 52 32 94t15 58l2 15l6 6l47 5l5 -5l-179 -473h-49zM540 571l-6 -6h-28l-99 98l-98 -98h-28l-6 6l122 142h21
z" />
    <glyph glyph-name="Ycircumflex" unicode="&#x176;" horiz-adv-x="658" 
d="M624 700l-258 -384v-316h-71v312l-117 175q-38 56 -74.5 107.5t-54.5 74.5l-18 23v8h87l229 -337l229 337h48zM463 778l-7 -6h-28l-98 98l-99 -98h-28l-6 6l123 143h20z" />
    <glyph glyph-name="ycircumflex" unicode="&#x177;" horiz-adv-x="539" 
d="M510 473l-249 -550q-21 -46 -38.5 -88.5t-24.5 -62.5l-7 -19l-6 -6q-17 0 -33.5 4.5t-24.5 8.5l-8 5v8q58 64 104 165l28 62l-135 300q-23 51 -45 93t-32 58l-10 16l6 6l73 5l178 -404l104 226q24 52 40 94t20 58l3 15l6 6l45 5zM406 571l-7 -6h-28l-98 98l-98 -98h-28
l-7 6l123 142h20z" />
    <glyph glyph-name="Ydieresis" unicode="&#x178;" horiz-adv-x="658" 
d="M624 700l-258 -384v-316h-71v312l-117 175q-38 56 -74.5 107.5t-54.5 74.5l-18 23v8h87l229 -337l229 337h48zM399 815q0 16 10 26t27 10t27 -10t10 -26q0 -17 -10.5 -27t-26.5 -10t-26.5 10t-10.5 27zM186 815q0 16 10 26t27 10t27 -10t10 -26q0 -17 -10 -27t-27 -10
t-27 10t-10 27z" />
    <glyph glyph-name="Zacute" unicode="&#x179;" horiz-adv-x="697" 
d="M70 20l469 645h-290q-52 0 -93.5 -4t-56.5 -8l-15 -4l-8 7v44h558v-20l-469 -645h298q52 0 93.5 4t56.5 8l15 4l8 -7v-44h-566v20zM321 772l-7 6l93 143q17 0 31 -2.5t20 -4.5l5 -3v-7l-117 -132h-25z" />
    <glyph glyph-name="zacute" unicode="&#x17a;" horiz-adv-x="523" 
d="M60 20l314 419h-135q-52 0 -93.5 -4t-56.5 -8l-15 -4l-8 7v43h398v-21l-313 -418h143q52 0 93 4t57 8l15 4l7 -8v-42h-406v20zM233 565l-6 6l92 142q17 0 31.5 -2.5t19.5 -4.5l6 -3v-6l-117 -132h-26z" />
    <glyph glyph-name="Zdotaccent" unicode="&#x17b;" horiz-adv-x="697" 
d="M70 20l469 645h-290q-52 0 -93.5 -4t-56.5 -8l-15 -4l-8 7v44h558v-20l-469 -645h298q52 0 93.5 4t56.5 8l15 4l8 -7v-44h-566v20zM309 838q0 18 11 29t29 11q17 0 28 -11t11 -29q0 -17 -11 -28t-28 -11q-18 0 -29 11t-11 28z" />
    <glyph glyph-name="zdotaccent" unicode="&#x17c;" horiz-adv-x="523" 
d="M60 20l314 419h-135q-52 0 -93.5 -4t-56.5 -8l-15 -4l-8 7v43h398v-21l-313 -418h143q52 0 93 4t57 8l15 4l7 -8v-42h-406v20zM222 626q0 17 11 28t28 11q18 0 29 -11t11 -28q0 -18 -11 -29t-29 -11q-17 0 -28 11t-11 29z" />
    <glyph glyph-name="Zcaron" unicode="&#x17d;" horiz-adv-x="697" 
d="M70 20l469 645h-290q-52 0 -93.5 -4t-56.5 -8l-15 -4l-8 7v44h558v-20l-469 -645h298q52 0 93.5 4t56.5 8l15 4l8 -7v-44h-566v20zM475 916l6 -7l-122 -142h-20l-123 142l6 7h28l99 -99l98 99h28z" />
    <glyph glyph-name="zcaron" unicode="&#x17e;" horiz-adv-x="523" 
d="M60 20l314 419h-135q-52 0 -93.5 -4t-56.5 -8l-15 -4l-8 7v43h398v-21l-313 -418h143q52 0 93 4t57 8l15 4l7 -8v-42h-406v20zM388 708l6 -6l-122 -142h-21l-122 142l6 6h28l98 -98l99 98h28z" />
    <glyph glyph-name="uni018F" unicode="&#x18f;" horiz-adv-x="767" 
d="M75 237q0 26 4 49t8 32l4 10l10 9h518v7q0 147 -75 231.5t-206 84.5q-43 0 -82.5 -9.5t-66 -22.5t-46.5 -26t-29 -22l-9 -10l-16 16q3 5 9.5 13t29.5 29t51 37t75 29t100 13q155 0 249 -99t94 -257q0 -160 -94.5 -259t-249.5 -99q-128 0 -203 67t-75 177zM352 25
q112 0 183.5 75.5t81.5 205.5l-466 -12q-6 -26 -6 -64q0 -96 56 -150.5t151 -54.5z" />
    <glyph glyph-name="florin" unicode="&#x192;" horiz-adv-x="350" 
d="M78 -35l84 475h-92l4 21l94 13l26 149q12 67 49 101t94 34q34 0 59.5 -11.5t34.5 -22.5l9 -12l-17 -15q-23 25 -68 25q-75 0 -91 -95l-28 -154h154l-6 -34h-153l-81 -455q-8 -48 -32 -90.5t-51.5 -69t-54 -46t-44.5 -28.5l-17 -8l-12 15q5 3 13 8.5t29 25.5t38.5 42
t35 58t23.5 74z" />
    <glyph glyph-name="uni01DD" unicode="&#x1dd;" horiz-adv-x="559" 
d="M76 382l-15 15q2 3 6.5 9t21.5 20t37.5 25t54.5 20t73 9q112 0 178.5 -67t66.5 -177q0 -111 -67.5 -177t-185.5 -66q-91 0 -139.5 40.5t-48.5 114.5q0 18 3 36t6 27l3 9l7 8h346q0 100 -49.5 155t-140.5 55q-46 0 -85 -14t-56 -28zM247 24q77 0 122.5 46t52.5 129
l-296 -8q-5 -23 -5 -49q0 -57 32.5 -87.5t93.5 -30.5z" />
    <glyph glyph-name="Aringacute" unicode="&#x1fa;" horiz-adv-x="728" 
d="M165 210l-90 -210h-43l291 676q-5 9 -6 11q-32 22 -32 65q0 35 22 57t57 22q12 0 22 -3l78 120q17 0 31 -2.5t19 -5.5l6 -2v-6l-104 -119q27 -22 27 -61q0 -52 -42 -71l295 -681h-74l-91 210h-366zM395 527q-32 72 -49 106l-166 -387h336zM319 752q0 -20 12.5 -32.5
t32.5 -12.5t32.5 12.5t12.5 32.5t-12.5 32.5t-32.5 12.5t-32.5 -12.5t-12.5 -32.5z" />
    <glyph glyph-name="aringacute" unicode="&#x1fb;" horiz-adv-x="560" 
d="M276 480q171 0 171 -138v-265q0 -45 40 -45q8 0 15.5 2t10.5 4l3 2l15 -15q-24 -32 -78 -32q-66 0 -73 61q-78 -61 -176 -61q-67 0 -101 32.5t-34 90.5q0 54 38.5 84t138.5 43l133 16v94q0 96 -105 96q-56 0 -89 -27.5t-33 -74.5l5 -40l-7 -8q-16 0 -29.5 2t-18.5 4l-6 2
q-8 16 -8 40q0 60 49 96.5t139 36.5zM140 123q0 -87 97 -87q36 0 71.5 12.5t53.5 25.5l17 12v141l-125 -15q-63 -8 -88.5 -29t-25.5 -60zM199 593q0 35 22 56.5t57 21.5q12 0 23 -3l78 120q17 0 31 -2.5t20 -5.5l5 -2v-7l-105 -118q26 -23 26 -60q0 -35 -21.5 -57t-56.5 -22
t-57 22t-22 57zM233 593q0 -20 12.5 -33t32.5 -13q19 0 31.5 13t12.5 33t-12.5 32.5t-31.5 12.5q-20 0 -32.5 -13t-12.5 -32z" />
    <glyph glyph-name="AEacute" unicode="&#x1fc;" horiz-adv-x="880" 
d="M32 0l336 700h434v-44l-8 -7q-47 16 -165 16h-177v-291h288l7 -6v-30h-295v-303h187q52 0 93.5 4t56.5 8l15 4l8 -7v-44h-431v217h-203l-103 -217h-43zM195 253h186v387zM402 772l-6 6l92 143q17 0 31 -2.5t19 -4.5l6 -3v-7l-117 -132h-25z" />
    <glyph glyph-name="aeacute" unicode="&#x1fd;" horiz-adv-x="886" 
d="M801 90l15 -14q-2 -3 -6.5 -9t-21.5 -20t-37.5 -25t-54.5 -20t-73 -9q-139 0 -204 98q-13 -17 -33.5 -35.5t-71 -40.5t-106.5 -22q-70 0 -104.5 32t-34.5 89q0 55 38.5 85.5t138.5 43.5l133 16v94q0 96 -105 96q-56 0 -89 -27.5t-33 -74.5l5 -40l-7 -8q-16 0 -29.5 2
t-18.5 4l-6 2q-8 16 -8 40q0 59 49 96t137 37q128 0 155 -86q68 86 202 86q90 0 139 -40.5t49 -115.5q0 -18 -3 -36t-6 -27l-3 -9l-7 -7h-346q0 -100 49.5 -155t140.5 -55q46 0 85 13.5t55 27.5zM630 449q-77 0 -122.5 -46.5t-52.5 -129.5l295 8q6 21 6 50q0 57 -32.5 87.5
t-93.5 30.5zM140 123q0 -41 25 -64t73 -23q95 0 166 81q-24 50 -25 110l-125 -15q-63 -8 -88.5 -29.5t-25.5 -59.5zM396 565l-6 6l92 142q17 0 31 -2.5t19 -4.5l6 -3v-6l-117 -132h-25z" />
    <glyph glyph-name="Oslashacute" unicode="&#x1fe;" horiz-adv-x="828" 
d="M219 -25h-42l42 73q-70 45 -109.5 123.5t-39.5 178.5q0 159 95.5 258t248.5 99q91 0 163 -37l32 55h42l-42 -73q70 -45 109.5 -123.5t39.5 -178.5q0 -159 -95 -258t-249 -99q-89 0 -164 36zM147 350q0 -173 96 -261l313 544q-62 42 -142 42q-120 0 -193.5 -88t-73.5 -237
zM681 350q0 170 -96 260l-313 -544q61 -41 142 -41q120 0 193.5 88t73.5 237zM376 772l-6 6l92 143q17 0 31 -2.5t19 -4.5l6 -3v-7l-117 -132h-25z" />
    <glyph glyph-name="oslashacute" unicode="&#x1ff;" horiz-adv-x="609" 
d="M119 -1l30 42q-89 68 -89 195q0 109 67.5 176.5t176.5 67.5q71 0 129 -32l28 39l26 -16l-28 -40q89 -68 89 -195q0 -109 -67.5 -176t-176.5 -67q-74 0 -130 32l-29 -42zM474 236q0 96 -45 153l-229 -328q43 -37 104 -37q76 0 123 57.5t47 154.5zM134 236q0 -95 44 -152
l230 327q-43 38 -104 38q-77 0 -123.5 -57.5t-46.5 -155.5zM277 565l-7 6l93 142q17 0 31 -2.5t20 -4.5l5 -3v-6l-117 -132h-25z" />
    <glyph glyph-name="Scommaaccent" unicode="&#x218;" horiz-adv-x="646" 
d="M311 675q-76 0 -113.5 -31.5t-37.5 -86.5q0 -50 35.5 -79.5t157.5 -95.5q44 -24 59.5 -33t46 -27.5t40.5 -28t27 -25.5t22 -29t10 -30.5t5 -37.5q0 -84 -61 -131t-181 -47q-48 0 -90.5 7.5t-68 18.5t-44.5 22.5t-27 18.5l-8 8q0 20 8.5 38.5t17.5 26.5l9 8h10
q3 -5 8 -12.5t24 -27.5t40.5 -35.5t56 -28t72.5 -12.5q75 0 122 34t47 91q0 53 -42 87t-134 81q-4 2 -6.5 3t-6 3t-6.5 3q-117 58 -161.5 99t-44.5 111q0 83 57.5 126.5t167.5 43.5q66 0 118 -15.5t72 -31.5l19 -15q0 -20 -8.5 -38.5t-16.5 -26.5l-9 -9h-10l-5.5 11
t-18.5 25t-33.5 32t-50 25t-68.5 11zM278 -236l-12 11q5 5 12 15t19 41.5t12 63.5q0 12 -1.5 22.5t-3.5 14.5l-2 4l5 5q14 0 26 -2t17 -4l6 -2q3 -9 3 -27q0 -40 -20.5 -75.5t-40.5 -50.5z" />
    <glyph glyph-name="scommaaccent" unicode="&#x219;" horiz-adv-x="480" 
d="M236 447q-110 0 -110 -74q0 -39 48 -67q22 -12 95 -43q88 -38 121.5 -66t33.5 -79q0 -64 -48 -94.5t-132 -30.5q-38 0 -71 6t-53 14.5t-35 16.5t-21 14l-7 6q0 14 7.5 27.5t15.5 20.5l7 6h8q2 -3 5.5 -8.5t17 -19t29 -23.5t42.5 -18.5t57 -8.5q53 0 85.5 20t32.5 59
q0 37 -30.5 57.5t-113.5 53.5q-80 31 -116 60t-36 83q0 58 44.5 89.5t128.5 31.5q50 0 90.5 -11t56.5 -23l15 -11q0 -14 -7.5 -27.5t-15.5 -19.5l-8 -7h-7q-1 3 -3.5 7.5t-13 15.5t-24 20t-37 16t-51.5 7zM196 -236l-12 11q5 5 12 15t19 41.5t12 63.5q0 12 -1.5 22t-3.5 15
l-1 4l4 5q14 0 26 -2t17 -4l6 -2q4 -9 4 -27q0 -40 -20.5 -75.5t-41.5 -50.5z" />
    <glyph glyph-name="uni021A" unicode="&#x21a;" horiz-adv-x="683" 
d="M377 665v-665h-71v665h-95q-52 0 -93.5 -4t-56.5 -8l-15 -4l-8 7v44h606v-44l-7 -7q-48 16 -165 16h-95zM292 -236l-12 11q5 5 12 15t19 41.5t12 63.5q0 12 -1.5 22t-3.5 15l-1 4l4 5q14 0 26 -2t17 -4l6 -2q4 -9 4 -27q0 -40 -20.5 -75.5t-41.5 -50.5z" />
    <glyph glyph-name="uni021B" unicode="&#x21b;" horiz-adv-x="372" 
d="M22 439v21l86 24l22 115h45v-126h146v-34h-146v-328q0 -76 72 -76q21 0 39.5 6.5t25.5 12.5l8 6l15 -14q-2 -2 -5 -5.5t-13.5 -13t-23.5 -16.5t-33.5 -12.5t-43.5 -5.5q-52 0 -81 28t-29 83v335h-84zM165 -236l-12 11q5 5 12.5 15t19.5 41.5t12 63.5q0 12 -1.5 22
t-3.5 15l-2 4l5 5q13 0 25 -2t18 -4l5 -2q4 -9 4 -27q0 -40 -20.5 -75.5t-40.5 -50.5z" />
    <glyph glyph-name="dotlessj" unicode="&#x237;" horiz-adv-x="269" 
d="M101 -35v335q0 52 -3.5 93t-7.5 57l-3 15l7 8q18 0 35 1.5t25 3.5l8 2l8 -7v-489q0 -48 -16.5 -90.5t-39.5 -69t-46 -46t-40 -28.5l-16 -8l-15 15q4 3 11 8.5t25 25.5t32 42t25 58t11 74z" />
    <glyph glyph-name="circumflex" unicode="&#x2c6;" horiz-adv-x="357" 
d="M311 571l-6 -6h-28l-98 98l-99 -98h-28l-6 6l123 142h20z" />
    <glyph glyph-name="caron" unicode="&#x2c7;" horiz-adv-x="357" 
d="M305 708l6 -6l-122 -142h-20l-123 142l6 6h28l99 -98l98 98h28z" />
    <glyph glyph-name="breve" unicode="&#x2d8;" horiz-adv-x="383" 
d="M57 651l15 15q5 -6 14 -16t40 -26t65 -16q35 0 64.5 14.5t42.5 29.5l12 14l15 -15q-1 -3 -4 -9t-14.5 -20.5t-25.5 -25.5t-38.5 -20t-51.5 -9t-51 8.5t-38.5 21t-25 25t-14.5 20.5z" />
    <glyph glyph-name="dotaccent" unicode="&#x2d9;" horiz-adv-x="262" 
d="M92 626q0 17 10.5 28t28.5 11t29 -11t11 -28q0 -18 -11 -29t-29 -11t-28.5 11t-10.5 29z" />
    <glyph glyph-name="ring" unicode="&#x2da;" horiz-adv-x="258" 
d="M51 636q0 35 22 56.5t57 21.5t56.5 -21.5t21.5 -56.5t-21.5 -57t-56.5 -22t-57 22t-22 57zM84 636q0 -20 13 -33t33 -13q19 0 31.5 13t12.5 33t-12.5 32.5t-31.5 12.5q-20 0 -33 -12.5t-13 -32.5z" />
    <glyph glyph-name="ogonek" unicode="&#x2db;" horiz-adv-x="239" 
d="M99 0h30q-36 -36 -36 -84q0 -45 44 -45q10 0 19 2.5t12 5.5l4 3l15 -15q-18 -29 -60 -29q-31 0 -52.5 19.5t-21.5 54.5q0 25 11.5 47t23.5 31z" />
    <glyph glyph-name="tilde" unicode="&#x2dc;" horiz-adv-x="383" 
d="M146 650q25 0 51 -18t47 -18q20 0 38 10t26 20l7 9l15 -15q-1 -3 -3.5 -7t-10.5 -15.5t-18 -20t-26.5 -15.5t-34.5 -7q-25 0 -51 18t-47 18q-20 0 -37.5 -9.5t-25.5 -19.5l-8 -10l-15 14q1 3 3.5 7.5t10.5 15.5t18 20t26.5 16t34.5 7z" />
    <glyph glyph-name="hungarumlaut" unicode="&#x2dd;" horiz-adv-x="426" 
d="M64 565l-7 6l91 142q17 0 31.5 -2.5t20.5 -4.5l5 -3v-6l-116 -132h-25zM224 565l-6 6l97 142q17 0 30.5 -2.5t18.5 -4.5l5 -3v-6l-119 -132h-26z" />
    <glyph glyph-name="uni0400" unicode="&#x400;" horiz-adv-x="626" 
d="M110 0v700h439v-44l-8 -7q-48 16 -165 16h-195v-291h306l6 -6v-30h-312v-303h205q52 0 93 4t57 8l15 4l8 -7v-44h-449zM385 778l-6 -6h-26l-117 132v7q18 10 56 10z" />
    <glyph glyph-name="afii10023" unicode="&#x401;" horiz-adv-x="626" 
d="M110 0v700h439v-44l-8 -7q-48 16 -165 16h-195v-291h306l6 -6v-30h-312v-303h205q52 0 93 4t57 8l15 4l8 -7v-44h-449zM399 815q0 16 10 26t27 10t27 -10t10 -26q0 -17 -10.5 -27t-26.5 -10t-26.5 10t-10.5 27zM186 815q0 16 10 26t27 10t27 -10t10 -26q0 -17 -10 -27
t-27 -10t-27 10t-10 27z" />
    <glyph glyph-name="afii10051" unicode="&#x402;" horiz-adv-x="901" 
d="M732 211v29q0 139 -153 139q-49 0 -99.5 -13.5t-76.5 -27.5l-26 -14v-324h-71v665h-95q-52 0 -93.5 -4t-56.5 -8l-15 -4l-8 7v44h606v-44l-7 -7q-48 16 -165 16h-95v-302q11 7 31.5 17t80.5 27t118 17q193 0 193 -180v-32q0 -219 -181 -219q-48 0 -85.5 15t-51.5 30
l-13 15q0 17 7 31t14 20l7 6h8q1 -3 4 -9t13 -20.5t22 -26t32 -20.5t42 -9q114 0 114 186z" />
    <glyph glyph-name="afii10052" unicode="&#x403;" horiz-adv-x="575" 
d="M291 772l-6 6l92 143q17 0 31.5 -2.5t19.5 -4.5l6 -3v-7l-117 -132h-26zM110 0v700h426v-44l-7 -7q-48 16 -165 16h-183v-665h-71z" />
    <glyph glyph-name="afii10053" unicode="&#x404;" horiz-adv-x="753" 
d="M423 675q-124 0 -197.5 -81.5t-77.5 -220.5h392l6 -6v-30h-398q5 -139 81.5 -218t205.5 -79q64 0 121.5 19.5t83.5 38.5l25 20l16 -16q-3 -4 -10 -11.5t-30.5 -26.5t-51.5 -33t-74 -26t-97 -12q-158 0 -253 99t-95 259t95.5 258t258.5 98q119 0 188 -51t69 -134
q0 -16 -2.5 -28t-4.5 -16l-3 -4q-22 -8 -61 -8l-8 8q9 16 9 51q0 70 -50.5 110t-137.5 40z" />
    <glyph glyph-name="afii10054" unicode="&#x405;" horiz-adv-x="646" 
d="M311 675q-76 0 -113.5 -31.5t-37.5 -86.5q0 -50 35.5 -79.5t157.5 -95.5q44 -24 59.5 -33t46 -27.5t40.5 -28t27 -25.5t22 -29t10 -30.5t5 -37.5q0 -84 -61 -131t-181 -47q-48 0 -90.5 7.5t-68 18.5t-44.5 22.5t-27 18.5l-8 8q0 20 8.5 38.5t17.5 26.5l9 8h10
q3 -5 8 -12.5t24 -27.5t40.5 -35.5t56 -28t72.5 -12.5q75 0 122 34t47 91q0 53 -42 87t-134 81q-4 2 -6.5 3t-6 3t-6.5 3q-117 58 -161.5 99t-44.5 111q0 83 57.5 126.5t167.5 43.5q66 0 118 -15.5t72 -31.5l19 -15q0 -20 -8.5 -38.5t-16.5 -26.5l-9 -9h-10l-5.5 11
t-18.5 25t-33.5 32t-50 25t-68.5 11z" />
    <glyph glyph-name="afii10055" unicode="&#x406;" horiz-adv-x="291" 
d="M110 0v700h71v-700h-71z" />
    <glyph glyph-name="afii10056" unicode="&#x407;" horiz-adv-x="291" 
d="M2 795q0 16 10 26t27 10t27 -10t10 -26q0 -17 -10 -27t-27 -10t-27 10t-10 27zM215 795q0 16 10 26t27 10t27 -10t10 -26q0 -17 -10.5 -27t-26.5 -10t-26.5 10t-10.5 27zM110 0v700h71v-700h-71z" />
    <glyph glyph-name="afii10057" unicode="&#x408;" horiz-adv-x="529" 
d="M348 211v489h71v-488q0 -219 -203 -219q-54 0 -96.5 15t-58.5 30l-16 15q0 19 7.5 36.5t15.5 25.5l8 8h8q2 -4 5 -10.5t15 -23.5t26 -30t37.5 -23.5t50.5 -10.5q130 0 130 186z" />
    <glyph glyph-name="afii10058" unicode="&#x409;" horiz-adv-x="1106" 
d="M37 59l8 8q19 -10 43 -10q63 0 90.5 102.5t27.5 317.5q0 64 -2.5 118t-5.5 75l-2 22l7 8h443v-312h149q115 0 182 -51.5t67 -142.5t-67 -142.5t-182 -51.5h-220v664h-325v-174q0 -264 -37 -380.5t-120 -116.5q-13 0 -25 2.5t-18 4.5l-5 3q-8 22 -8 56zM970 194
q0 75 -50 116.5t-136 41.5h-138v-316h138q86 0 136 41.5t50 116.5z" />
    <glyph glyph-name="afii10059" unicode="&#x40a;" horiz-adv-x="1125" 
d="M594 0v347h-413v-347h-71v700h71v-317h413v317h71v-317h149q115 0 182 -50t67 -141t-67 -141.5t-182 -50.5h-220zM989 192q0 75 -50 115t-136 40h-138v-311h138q86 0 136 40.5t50 115.5z" />
    <glyph glyph-name="afii10060" unicode="&#x40b;" horiz-adv-x="901" 
d="M728 0v240q0 139 -150 139q-48 0 -98.5 -13.5t-76.5 -27.5l-26 -14v-324h-71v665h-95q-52 0 -93.5 -4t-56.5 -8l-15 -4l-8 7v44h606v-44l-7 -7q-48 16 -165 16h-95v-302q11 7 31.5 17t80.5 27t118 17q193 0 193 -180v-244h-72z" />
    <glyph glyph-name="afii10061" unicode="&#x40c;" horiz-adv-x="668" 
d="M110 0v700h71v-316h59l293 316h52l-290 -313l154 -188q45 -53 89 -100.5t66 -68.5l22 -22v-8h-87l-300 348h-58v-348h-71zM295 772l-6 6l92 143q17 0 31.5 -2.5t19.5 -4.5l6 -3v-7l-117 -132h-26z" />
    <glyph glyph-name="uni040D" unicode="&#x40d;" horiz-adv-x="799" 
d="M169 0h-59v700h71v-609l449 609h59v-700h-71v609zM444 778l-6 -6h-26l-117 132v7q18 10 57 10z" />
    <glyph glyph-name="afii10062" unicode="&#x40e;" horiz-adv-x="658" 
d="M134 57l7 7q18 -12 56 -12q39 0 68 24t68 95l-220 396q-24 43 -44 75t-28 42l-8 10v6h85l252 -454l213 454h43l-227 -480q-65 -137 -103.5 -182t-95.5 -45q-17 0 -31.5 3.5t-20.5 6.5l-6 3q-8 18 -8 51zM349 751q-64 0 -102.5 24.5t-38.5 61.5l5 29q18 7 46 7l6 -6
q-4 -14 -4 -26q0 -24 24.5 -39.5t63.5 -15.5q40 0 64.5 15.5t24.5 39.5l-5 25l6 7q13 0 24.5 -2t16.5 -4l5 -2q6 -13 6 -29q0 -37 -39 -61t-103 -24z" />
    <glyph glyph-name="afii10145" unicode="&#x40f;" horiz-adv-x="799" 
d="M181 700v-664h437v664h71v-700h-259l-8 -177h-37l-8 8l-9 169h-258v700h71z" />
    <glyph glyph-name="afii10017" unicode="&#x410;" horiz-adv-x="728" 
d="M165 210l-90 -210h-43l291 676l-9 16v8h79l303 -700h-74l-91 210h-366zM395 527q-32 72 -49 106l-166 -387h336z" />
    <glyph glyph-name="afii10018" unicode="&#x411;" horiz-adv-x="653" 
d="M110 0v700h419v-44l-7 -7q-48 16 -165 16h-176v-268h158q114 0 181.5 -52.5t67.5 -146.5q0 -93 -67 -145.5t-182 -52.5h-229zM514 198q0 78 -50 120.5t-136 42.5h-147v-325h147q86 0 136 42.5t50 119.5z" />
    <glyph glyph-name="afii10019" unicode="&#x412;" horiz-adv-x="690" 
d="M110 0v700h247q111 0 169 -46t58 -128q0 -127 -131 -162q81 -14 124.5 -60t43.5 -119q0 -89 -63 -137t-178 -48h-270zM547 190q0 73 -47 113t-131 40h-188v-307h188q84 0 131 40.5t47 113.5zM511 521q0 68 -42.5 105.5t-122.5 37.5h-165v-285h165q80 0 122.5 38t42.5 104
z" />
    <glyph glyph-name="afii10020" unicode="&#x413;" horiz-adv-x="575" 
d="M110 0v700h426v-44l-7 -7q-48 16 -165 16h-183v-665h-71z" />
    <glyph glyph-name="afii10021" unicode="&#x414;" horiz-adv-x="818" 
d="M764 36l7 -8l-5 -205h-37l-8 8q0 44 -3.5 86t-6.5 63l-3 20h-598q-13 -70 -13 -169l-8 -8h-37l-6 205l8 8h56q53 11 85 117.5t32 322.5q0 60 -2.5 114t-5.5 78l-3 24l8 8h452v-664h88zM271 490q0 -370 -87 -454h421v628h-334v-174z" />
    <glyph glyph-name="afii10022" unicode="&#x415;" horiz-adv-x="626" 
d="M110 0v700h439v-44l-8 -7q-48 16 -165 16h-195v-291h306l6 -6v-30h-312v-303h205q52 0 93 4t57 8l15 4l8 -7v-44h-449z" />
    <glyph glyph-name="afii10024" unicode="&#x416;" horiz-adv-x="970" 
d="M197 199l136 189l-257 312h49l260 -314h64v314h72v-314h63l261 314h49l-258 -312l136 -189q40 -53 79 -100.5t58 -68.5l19 -22v-8h-81l-265 350h-61v-350h-72v350h-63l-263 -350h-82v8q67 72 156 191z" />
    <glyph glyph-name="afii10025" unicode="&#x417;" horiz-adv-x="653" 
d="M320 25q88 0 139 42.5t51 119.5q0 74 -46.5 114.5t-131.5 40.5h-100l-7 6v30h84q82 0 124 39t42 111q0 70 -40 108.5t-115 38.5q-37 0 -71 -12t-55.5 -28.5t-38 -33.5t-23.5 -29l-7 -12h-11q-30 19 -30 65q2 3 7.5 8.5t25 20t43.5 25t65.5 19.5t89.5 9q114 0 173.5 -47.5
t59.5 -132.5q0 -129 -132 -165q80 -13 124 -59t44 -118q0 -91 -71.5 -141.5t-198.5 -50.5q-52 0 -95.5 8.5t-68.5 20.5t-43 24t-25 20l-7 9q0 20 7.5 36.5t15.5 22.5l8 6h10q2 -5 7 -12.5t22.5 -27.5t38.5 -35t58 -27.5t78 -12.5z" />
    <glyph glyph-name="afii10026" unicode="&#x418;" horiz-adv-x="799" 
d="M169 0h-59v700h71v-609l449 609h59v-700h-71v609z" />
    <glyph glyph-name="afii10027" unicode="&#x419;" horiz-adv-x="799" 
d="M169 0h-59v700h71v-609l449 609h59v-700h-71v609zM400 751q-64 0 -103 24.5t-39 61.5l6 29q17 7 45 7l7 -6q-5 -14 -5 -26q0 -24 24.5 -39.5t64.5 -15.5q39 0 63.5 15.5t24.5 39.5l-5 25l6 7q13 0 24.5 -2t16.5 -4l6 -2q6 -13 6 -29q0 -37 -39.5 -61t-102.5 -24z" />
    <glyph glyph-name="afii10028" unicode="&#x41a;" horiz-adv-x="668" 
d="M110 0v700h71v-316h59l293 316h52l-290 -313l154 -188q45 -53 89 -100.5t66 -68.5l22 -22v-8h-87l-300 348h-58v-348h-71z" />
    <glyph glyph-name="afii10029" unicode="&#x41b;" horiz-adv-x="756" 
d="M37 59l8 8q19 -10 43 -10q63 0 90.5 102.5t27.5 317.5q0 64 -2.5 118t-5.5 75l-2 22l7 8h443v-700h-71v664h-325v-174q0 -264 -37 -380.5t-120 -116.5q-13 0 -25 2.5t-18 4.5l-5 3q-8 22 -8 56z" />
    <glyph glyph-name="afii10030" unicode="&#x41c;" horiz-adv-x="937" 
d="M791 0l-87 625l-3 3l-219 -608h-49l-13 14l-228 591l-4 -3l-74 -622h-41l64 527q5 46 7 87t2 60l-1 18l8 8h85l231 -594l215 594h84l96 -700h-73z" />
    <glyph glyph-name="afii10031" unicode="&#x41d;" horiz-adv-x="799" 
d="M618 0v338h-437v-338h-71v700h71v-326h437v326h71v-700h-71z" />
    <glyph glyph-name="afii10032" unicode="&#x41e;" horiz-adv-x="828" 
d="M70 350q0 159 95.5 258t248.5 99q154 0 249 -99t95 -258t-95 -258t-249 -99q-153 0 -248.5 99t-95.5 258zM148 350q0 -149 73 -237t193 -88t193 88t73 237t-73 237t-193 88t-193 -88t-73 -237z" />
    <glyph glyph-name="afii10033" unicode="&#x41f;" horiz-adv-x="799" 
d="M618 0v664h-437v-664h-71v700h579v-700h-71z" />
    <glyph glyph-name="afii10034" unicode="&#x420;" horiz-adv-x="646" 
d="M110 0v700h229q114 0 181.5 -53t67.5 -146t-67.5 -146t-181.5 -53h-158v-302h-71zM328 664h-147v-326h147q86 0 136 43t50 120t-50 120t-136 43z" />
    <glyph glyph-name="afii10035" unicode="&#x421;" horiz-adv-x="753" 
d="M422 675q-126 0 -200 -86.5t-74 -232.5q0 -148 76.5 -232t210.5 -84q64 0 121.5 19.5t83.5 38.5l25 20l16 -16q-3 -4 -10 -11.5t-30.5 -26.5t-51.5 -33t-74 -26t-97 -12q-158 0 -253 99t-95 259t95.5 258t257.5 98q120 0 189 -54.5t69 -143.5q0 -16 -2.5 -29t-4.5 -18
l-3 -5q-22 -7 -61 -7l-8 7q9 18 9 56q0 76 -50.5 119t-138.5 43z" />
    <glyph glyph-name="afii10036" unicode="&#x422;" horiz-adv-x="683" 
d="M377 665v-665h-71v665h-95q-52 0 -93.5 -4t-56.5 -8l-15 -4l-8 7v44h606v-44l-7 -7q-48 16 -165 16h-95z" />
    <glyph glyph-name="afii10037" unicode="&#x423;" horiz-adv-x="658" 
d="M134 57l7 7q18 -12 56 -12q39 0 68 24t68 95l-220 396q-24 43 -44 75t-28 42l-8 10v6h85l252 -454l213 454h43l-227 -480q-65 -137 -103.5 -182t-95.5 -45q-17 0 -31.5 3.5t-20.5 6.5l-6 3q-8 18 -8 51z" />
    <glyph glyph-name="afii10038" unicode="&#x424;" horiz-adv-x="902" 
d="M486 66v-66h-71v66q-156 0 -253 79t-97 206q0 128 96.5 207t253.5 79v63h71v-63q157 0 254 -79t97 -207q0 -127 -97 -206t-254 -79zM761 351q0 116 -75.5 185t-199.5 69v-507q124 0 199.5 68.5t75.5 184.5zM415 98v507q-124 0 -199.5 -69t-75.5 -185t75.5 -184.5
t199.5 -68.5z" />
    <glyph glyph-name="afii10039" unicode="&#x425;" horiz-adv-x="686" 
d="M135 700l217 -300l222 300h51l-250 -333l122 -167q38 -52 75 -100t55 -70l18 -22v-8h-86l-234 321l-239 -321h-47l263 353l-252 347h85z" />
    <glyph glyph-name="afii10040" unicode="&#x426;" horiz-adv-x="821" 
d="M110 0v700h71v-664h427v664h71v-664h88l7 -8l-7 -205h-38l-7 8q0 44 -3 86t-5 63l-3 20h-601z" />
    <glyph glyph-name="afii10041" unicode="&#x427;" horiz-adv-x="699" 
d="M156 700v-240q0 -139 156 -139q49 0 100.5 13.5t78.5 27.5l27 14v324h71v-700h-71v337q-11 -7 -32 -17t-82.5 -27t-121.5 -17q-197 0 -197 180v244h71z" />
    <glyph glyph-name="afii10042" unicode="&#x428;" horiz-adv-x="1090" 
d="M110 0v700h71v-664h328v664h72v-664h328v664h71v-700h-870z" />
    <glyph glyph-name="afii10043" unicode="&#x429;" horiz-adv-x="1123" 
d="M110 0v700h71v-664h328v664h72v-664h328v664h71v-664h88l7 -8l-8 -205h-37l-8 8q0 44 -2.5 86.5t-5.5 62.5l-2 20h-902z" />
    <glyph glyph-name="afii10044" unicode="&#x42a;" horiz-adv-x="791" 
d="M38 700h293v-312h149q114 0 181.5 -51.5t67.5 -142.5t-67.5 -142.5t-181.5 -51.5h-221v665h-48q-52 0 -93.5 -4t-56.5 -8l-15 -4l-8 7v44zM655 194q0 75 -50 116.5t-136 41.5h-138v-316h138q86 0 136 41.5t50 116.5z" />
    <glyph glyph-name="afii10045" unicode="&#x42b;" horiz-adv-x="896" 
d="M110 0v700h71v-312h149q115 0 182.5 -51.5t67.5 -142.5t-67.5 -142.5t-182.5 -51.5h-220zM506 194q0 75 -50 116.5t-137 41.5h-138v-316h138q87 0 137 41.5t50 116.5zM715 0v700h71v-700h-71z" />
    <glyph glyph-name="afii10046" unicode="&#x42c;" horiz-adv-x="641" 
d="M110 0v700h71v-312h149q115 0 182.5 -51.5t67.5 -142.5t-67.5 -142.5t-182.5 -51.5h-220zM506 194q0 75 -50 116.5t-137 41.5h-138v-316h138q87 0 137 41.5t50 116.5z" />
    <glyph glyph-name="afii10047" unicode="&#x42d;" horiz-adv-x="755" 
d="M334 707q169 0 260 -97t91 -261q0 -163 -91.5 -259.5t-265.5 -96.5q-50 0 -94.5 8.5t-72 20.5t-48 24t-29.5 20l-8 9q0 20 7.5 36.5t14.5 22.5l8 6h11q3 -5 8.5 -12.5t26 -27.5t44 -35t61.5 -27.5t80 -12.5q124 0 195.5 83.5t74.5 228.5h-321l-7 6v30h327
q-6 140 -76.5 221t-186.5 81q-40 0 -77 -12t-61.5 -28.5t-43.5 -33.5t-27 -29l-9 -12h-11q-30 19 -30 65q3 3 9.5 8.5t29 20t49 25t70.5 19.5t92 9z" />
    <glyph glyph-name="afii10048" unicode="&#x42e;" horiz-adv-x="1056" 
d="M110 0v700h71v-326h181q7 149 93 241t219 92q139 0 225.5 -99t86.5 -258t-86.5 -258t-225.5 -99q-137 0 -223 95.5t-89 249.5h-181v-338h-71zM440 350q0 -149 64.5 -237t169.5 -88t169.5 88t64.5 237t-64.5 237t-169.5 88t-169.5 -88t-64.5 -237z" />
    <glyph glyph-name="afii10049" unicode="&#x42f;" horiz-adv-x="655" 
d="M198 199l74 117q-90 12 -141.5 61.5t-51.5 128.5q0 91 67.5 142.5t181.5 51.5h224v-700h-71v312h-140l-207 -312h-74v8q59 72 138 191zM153 506q0 -64 37.5 -104.5t103.5 -50.5l1 1l2 -2q13 -2 42 -2h142v316h-142q-86 0 -136 -41.5t-50 -116.5z" />
    <glyph glyph-name="afii10065" unicode="&#x430;" horiz-adv-x="560" 
d="M276 480q171 0 171 -138v-265q0 -45 40 -45q8 0 15.5 2t10.5 4l3 2l15 -15q-24 -32 -78 -32q-66 0 -73 61q-78 -61 -176 -61q-67 0 -101 32.5t-34 90.5q0 54 38.5 84t138.5 43l133 16v94q0 96 -105 96q-56 0 -89 -27.5t-33 -74.5l5 -40l-7 -8q-16 0 -29.5 2t-18.5 4l-6 2
q-8 16 -8 40q0 60 49 96.5t139 36.5zM140 123q0 -87 97 -87q36 0 71.5 12.5t53.5 25.5l17 12v141l-125 -15q-63 -8 -88.5 -29t-25.5 -60z" />
    <glyph glyph-name="afii10066" unicode="&#x431;" horiz-adv-x="625" 
d="M565 240q0 -116 -64.5 -181.5t-183.5 -65.5q-130 0 -189 85.5t-59 270.5q0 187 58.5 272t181.5 105l190 31q15 -20 15 -53l-6 -6l-182 -30q-113 -19 -160 -88t-49 -190l4 -4q2 4 6.5 10t22.5 22.5t39.5 29t59 22.5t80.5 10q112 0 174 -63.5t62 -176.5zM316 444
q-32 0 -60.5 -8.5t-47 -20.5t-32.5 -24t-20 -21l-6 -8q-5 -14 -5 -72q0 -266 172 -266q80 0 126.5 56.5t46.5 156.5q0 99 -47 153t-127 54z" />
    <glyph glyph-name="afii10067" unicode="&#x432;" horiz-adv-x="558" 
d="M101 0v300q0 52 -3 93t-6 57l-3 15l8 8h218q74 0 115 -33t41 -88q0 -81 -82 -109q53 -11 82 -43t29 -77q0 -55 -43.5 -89t-119.5 -34h-236zM324 222h-154v-186h154q48 0 77 25.5t29 67.5t-29 67.5t-77 25.5zM304 436h-134v-178h134q47 0 74 24t27 65t-27 65t-74 24z" />
    <glyph glyph-name="afii10068" unicode="&#x433;" horiz-adv-x="443" 
d="M255 439h-85v-439h-69v300q0 52 -3 93t-6 57l-3 15l8 8h321v-43l-7 -7q-45 16 -156 16z" />
    <glyph glyph-name="afii10069" unicode="&#x434;" horiz-adv-x="622" 
d="M573 36l8 -8l-6 -176h-37l-7 8q0 39 -3.5 74t-6.5 50l-3 16h-421q-13 -53 -13 -140l-7 -8h-38l-5 176l8 8h51q74 39 74 288q0 44 -2.5 79t-5.5 49l-3 13l8 8h332v-437h77zM209 334q0 -223 -56 -298h275v400h-219v-102z" />
    <glyph glyph-name="afii10070" unicode="&#x435;" horiz-adv-x="565" 
d="M483 90l15 -14q-2 -3 -6.5 -9t-21.5 -20t-37.5 -25t-54.5 -20t-73 -9q-112 0 -178.5 66.5t-66.5 176.5q0 111 67.5 177.5t185.5 66.5q90 0 138.5 -40.5t48.5 -115.5q0 -18 -3 -36t-5 -27l-3 -9l-8 -7h-346q0 -100 49.5 -155t140.5 -55q46 0 85.5 13.5t55.5 27.5zM311 449
q-77 0 -122.5 -47t-52.5 -129l295 8q6 28 6 50q0 57 -32 87.5t-94 30.5z" />
    <glyph glyph-name="afii10072" unicode="&#x436;" horiz-adv-x="739" 
d="M677 473l-162 -208l47 -74q39 -56 73 -101.5t49 -63.5l15 -17v-9q-20 0 -37 -1.5t-24 -2.5l-8 -2l-171 239h-54v-233h-69v233h-56l-162 -227l-9 -6h-70l183 265l-155 200v8q16 0 30 1.5t20 3.5l6 1q37 -65 129 -182l22 -29l62 -5v37q0 52 -2 93t-4 57l-3 15l8 8h70v-210
l59 5l23 29q42 52 72 94t39 59l9 16l10 7h60z" />
    <glyph glyph-name="afii10073" unicode="&#x437;" horiz-adv-x="493" 
d="M236 28q60 0 96.5 27.5t36.5 73.5q0 42 -29 68t-76 26h-101l-6 7v29h86q49 0 77 24.5t28 65.5q0 44 -30.5 71t-84.5 27q-41 0 -75 -19.5t-48 -38.5l-14 -19h-7q-30 19 -30 51q6 7 18.5 16.5t57.5 26t98 16.5q84 0 132.5 -35t48.5 -93q0 -38 -22 -66t-63 -42
q52 -10 81 -42.5t29 -76.5q0 -60 -54 -96t-146 -36q-59 0 -106 15.5t-65 31.5l-17 15q0 14 7.5 27t15.5 18l7 6h7q2 -3 5.5 -8.5t16.5 -19t28.5 -23.5t42 -18.5t55.5 -8.5z" />
    <glyph glyph-name="afii10074" unicode="&#x438;" horiz-adv-x="619" 
d="M154 0h-53v300q0 52 -3 93t-6 57l-3 15l8 8h73v-314l-4 -68l4 -3l296 385h53v-473h-69v336l3 46l-3 3z" />
    <glyph glyph-name="afii10075" unicode="&#x439;" horiz-adv-x="619" 
d="M154 0h-53v300q0 52 -3 93t-6 57l-3 15l8 8h73v-314l-4 -68l4 -3l296 385h53v-473h-69v336l3 46l-3 3zM311 542q-64 0 -103 24.5t-39 61.5l6 29q17 7 46 7l6 -6q-5 -14 -5 -26q0 -24 24.5 -39.5t64.5 -15.5t64 15.5t24 39.5l-4 25l6 7q13 0 24.5 -2t16.5 -4l5 -2
q6 -13 6 -29q0 -37 -39 -61t-103 -24z" />
    <glyph glyph-name="afii10076" unicode="&#x43a;" horiz-adv-x="523" 
d="M101 0v300q0 52 -3 93t-6 57l-3 15l8 8h73v-211l61 6l25 29q46 51 78.5 93t42.5 59l10 17l10 7h62l-177 -207l51 -75q41 -54 78.5 -99.5t54.5 -63.5l18 -19v-9q-20 0 -37.5 -1.5t-25.5 -2.5l-8 -2l-188 239h-55v-233h-69z" />
    <glyph glyph-name="afii10077" unicode="&#x43b;" horiz-adv-x="586" 
d="M32 54l8 7q17 -8 35 -8q87 0 87 270q0 44 -2.5 79.5t-5.5 49.5l-2 13l8 8h326v-473h-69v436h-212v-103q0 -340 -125 -340q-10 0 -20 2t-15 4l-5 2q-8 20 -8 53z" />
    <glyph glyph-name="afii10078" unicode="&#x43c;" horiz-adv-x="715" 
d="M581 0l-53 397l-4 4l-148 -401h-52l-12 14l-147 384l-4 -3l-47 -395h-42l-6 6q19 72 31 181l13 113q5 46 7.5 87t2.5 59v19l8 8h77l154 -409l86 236q19 51 31.5 92.5t15.5 57.5l4 16l6 7h83l63 -473h-67z" />
    <glyph glyph-name="afii10079" unicode="&#x43d;" horiz-adv-x="622" 
d="M454 0v227h-284v-227h-69v300q0 52 -3 93t-6 57l-3 15l8 8h73v-210h284v37q0 52 -1.5 93.5t-2.5 56.5l-2 16l6 7h69v-473h-69z" />
    <glyph glyph-name="afii10080" unicode="&#x43e;" horiz-adv-x="609" 
d="M60 236q0 109 67.5 176.5t176.5 67.5t176.5 -67.5t67.5 -176.5t-67.5 -176t-176.5 -67t-176.5 67t-67.5 176zM135 236q0 -97 46.5 -154.5t122.5 -57.5t122.5 57.5t46.5 154.5q0 98 -46.5 155.5t-122.5 57.5t-122.5 -57.5t-46.5 -155.5z" />
    <glyph glyph-name="afii10081" unicode="&#x43f;" horiz-adv-x="619" 
d="M450 0v436h-280v-436h-69v300q0 52 -3 93t-6 57l-3 15l8 8h422v-473h-69z" />
    <glyph glyph-name="afii10082" unicode="&#x440;" horiz-adv-x="613" 
d="M170 -250h-69v447q0 84 -3.5 151t-7.5 92l-3 25l7 8q18 0 35 1.5t25 3.5l8 2l8 -7l-4 -51l4 -4q7 7 20 17.5t56 27.5t90 17q96 0 156.5 -65t60.5 -175q0 -113 -64.5 -180t-174.5 -67q-91 0 -144 43v-286zM477 231q0 98 -47 151.5t-123 53.5q-37 0 -71 -12.5t-50 -25.5
l-16 -12v-264q0 -44 39.5 -71t96.5 -27q78 0 124.5 55t46.5 152z" />
    <glyph glyph-name="afii10083" unicode="&#x441;" horiz-adv-x="549" 
d="M481 90l15 -14q-2 -3 -6.5 -9t-21.5 -20t-37 -25t-54 -20t-73 -9q-112 0 -178 67t-66 177t66.5 176.5t183.5 66.5q85 0 133 -35t48 -96q0 -12 -1.5 -22.5t-3.5 -14.5l-2 -5q-18 -8 -53 -8l-8 8q6 19 6 43q0 48 -31.5 73.5t-88.5 25.5q-83 0 -128.5 -56t-45.5 -148
q0 -100 49.5 -155t139.5 -55q29 0 56 5.5t44.5 13.5t31 16.5t19.5 13.5z" />
    <glyph glyph-name="afii10084" unicode="&#x442;" horiz-adv-x="498" 
d="M473 430l-8 -7q-44 16 -155 16h-28v-439h-68v439h-26q-50 0 -89 -4t-53 -8l-14 -4l-7 7v43h448v-43z" />
    <glyph glyph-name="afii10085" unicode="&#x443;" horiz-adv-x="539" 
d="M510 473l-249 -550q-21 -46 -38.5 -88.5t-24.5 -62.5l-7 -19l-6 -6q-17 0 -33.5 4.5t-24.5 8.5l-8 5v8q58 64 104 165l28 62l-135 300q-23 51 -45 93t-32 58l-10 16l6 6l73 5l178 -404l104 226q24 52 40 94t20 58l3 15l6 6l45 5z" />
    <glyph glyph-name="afii10086" unicode="&#x444;" horiz-adv-x="761" 
d="M346 -250v249q-15 -6 -47 -6q-104 0 -171.5 67.5t-67.5 175.5t67.5 176t170.5 68q14 0 26 -2t17 -4l5 -1v17q0 76 -4 139t-8 88l-3 25l8 8q18 0 35 2t25 4l8 2l7 -8v-277q17 7 48 7q104 0 171.5 -68t67.5 -176t-67.5 -175.5t-171.5 -67.5q-14 0 -26 1.5t-17 3.5l-5 1
v-249h-68zM627 236q0 98 -47 155.5t-124 57.5q-11 0 -21.5 -1.5t-15.5 -3.5l-5 -1v-413q18 -6 42 -6q77 0 124 57.5t47 154.5zM134 236q0 -97 47 -154.5t123 -57.5q12 0 22.5 1.5t15.5 2.5l4 2v413q-16 6 -42 6q-77 0 -123.5 -57.5t-46.5 -155.5z" />
    <glyph glyph-name="afii10087" unicode="&#x445;" horiz-adv-x="531" 
d="M132 479l146 -199l15 20q41 53 70.5 94.5t38.5 56.5l10 15l9 7h55l-176 -223l37 -50q39 -52 76.5 -100t55.5 -70l18 -22v-8q-22 0 -42 -1.5t-29 -2.5l-9 -2l-157 212l-4 -6q-41 -53 -76.5 -101.5t-50.5 -70.5l-15 -22l-10 -6h-45l-5 6l183 231l-46 63q-38 52 -70.5 93.5
t-46.5 56.5l-13 15v8q22 0 42.5 1.5t29.5 3.5z" />
    <glyph glyph-name="afii10088" unicode="&#x446;" horiz-adv-x="645" 
d="M101 0v300q0 52 -3 93t-6 57l-3 15l8 8h73v-437h280v264q0 52 -1.5 93.5t-2.5 56.5l-2 16l6 7h69v-437h76l8 -8l-8 -176h-37l-8 8q0 39 -3 74t-5 50l-3 16h-438z" />
    <glyph glyph-name="afii10089" unicode="&#x447;" horiz-adv-x="570" 
d="M149 473v-167q0 -46 21.5 -66t70.5 -20q42 0 81.5 10.5t58.5 21.5l19 10v38q0 52 -2 93t-4 57l-3 15l8 8h70v-473h-69v227q-8 -6 -23.5 -14.5t-65 -22.5t-101.5 -14q-130 0 -130 128v20q0 45 -3.5 80t-6.5 48l-4 13l7 8h76z" />
    <glyph glyph-name="afii10090" unicode="&#x448;" horiz-adv-x="866" 
d="M101 0v300q0 52 -3 93t-6 57l-3 15l8 8h73v-437h229v264q0 52 -1.5 93.5t-3.5 56.5l-1 16l6 7h69v-437h230v264q0 52 -2 93.5t-4 56.5l-1 16l7 7h68v-473h-665z" />
    <glyph glyph-name="afii10091" unicode="&#x449;" horiz-adv-x="892" 
d="M101 0v300q0 52 -3 93t-6 57l-3 15l8 8h73v-437h229v264q0 52 -1.5 93.5t-3.5 56.5l-1 16l6 7h69v-437h230v264q0 52 -2 93.5t-4 56.5l-1 16l7 7h68v-437h77l7 -8l-8 -176h-37l-7 8q0 39 -3 74t-5 50l-3 16h-686z" />
    <glyph glyph-name="afii10092" unicode="&#x44a;" horiz-adv-x="612" 
d="M190 0v439h-28q-41 0 -73.5 -4.5t-44.5 -8.5l-12 -5l-7 8v44h233v-200h138q73 0 118.5 -38t45.5 -99q0 -60 -45.5 -98t-118.5 -38h-206zM385 237h-127v-201h127q47 0 76 27t29 73t-28.5 73.5t-76.5 27.5z" />
    <glyph glyph-name="afii10093" unicode="&#x44b;" horiz-adv-x="747" 
d="M101 0v300q0 52 -3 93t-6 57l-3 15l8 8h73v-200h137q73 0 119 -38t46 -99q0 -60 -46 -98t-119 -38h-206zM297 237h-127v-201h127q47 0 76 27.5t29 72.5q0 46 -29 73.5t-76 27.5zM578 0v300q0 52 -1.5 93.5t-2.5 56.5l-2 16l6 7h69v-473h-69z" />
    <glyph glyph-name="afii10094" unicode="&#x44c;" horiz-adv-x="523" 
d="M101 0v300q0 52 -3 93t-6 57l-3 15l8 8h73v-200h137q73 0 119 -38t46 -99q0 -60 -46 -98t-119 -38h-206zM297 237h-127v-201h127q47 0 76 27.5t29 72.5q0 46 -29 73.5t-76 27.5z" />
    <glyph glyph-name="afii10095" unicode="&#x44d;" horiz-adv-x="539" 
d="M231 28q80 0 125 51.5t48 145.5h-209l-6 6v27h214q-5 90 -49 139.5t-122 49.5q-27 0 -51.5 -7.5t-40.5 -18.5t-28 -22.5t-17 -18.5l-5 -8h-8q-29 19 -29 51q6 6 19 15.5t59 25.5t100 16q118 0 183 -66.5t65 -177.5q0 -110 -65 -176.5t-183 -66.5q-56 0 -101.5 15
t-63.5 30l-18 15q0 14 7 27t15 18l7 6h8q2 -3 5.5 -8t17 -18.5t28.5 -23.5t41 -18t54 -8z" />
    <glyph glyph-name="afii10096" unicode="&#x44e;" horiz-adv-x="785" 
d="M101 0v300q0 52 -3 93t-6 57l-3 15l8 8h73v-210h111q8 98 69 157.5t154 59.5q100 0 162 -67.5t62 -176.5t-62 -176t-162 -67q-98 0 -160 64.5t-64 169.5h-110v-227h-69zM351 236q0 -97 42 -154.5t111 -57.5t111 57.5t42 154.5q0 98 -42 155.5t-111 57.5t-111 -57.5
t-42 -155.5z" />
    <glyph glyph-name="afii10097" unicode="&#x44f;" horiz-adv-x="552" 
d="M66 0v9q56 56 143 182l10 15q-63 7 -100.5 42.5t-37.5 90.5q0 61 45 97.5t119 36.5h207v-473h-68v205h-98l-151 -211q-27 6 -69 6zM256 241h128v195h-128q-48 0 -77 -26t-29 -71t29 -71.5t77 -26.5z" />
    <glyph glyph-name="uni0450" unicode="&#x450;" horiz-adv-x="565" 
d="M483 90l15 -14q-2 -3 -6.5 -9t-21.5 -20t-37.5 -25t-54.5 -20t-73 -9q-112 0 -178.5 66.5t-66.5 176.5q0 111 67.5 177.5t185.5 66.5q90 0 138.5 -40.5t48.5 -115.5q0 -18 -3 -36t-5 -27l-3 -9l-8 -7h-346q0 -100 49.5 -155t140.5 -55q46 0 85.5 13.5t55.5 27.5zM311 449
q-77 0 -122.5 -47t-52.5 -129l295 8q6 28 6 50q0 57 -32 87.5t-94 30.5zM338 571l-6 -6h-25l-117 132v6q17 10 56 10z" />
    <glyph glyph-name="afii10071" unicode="&#x451;" horiz-adv-x="565" 
d="M483 90l15 -14q-2 -3 -6.5 -9t-21.5 -20t-37.5 -25t-54.5 -20t-73 -9q-112 0 -178.5 66.5t-66.5 176.5q0 111 67.5 177.5t185.5 66.5q90 0 138.5 -40.5t48.5 -115.5q0 -18 -3 -36t-5 -27l-3 -9l-8 -7h-346q0 -100 49.5 -155t140.5 -55q46 0 85.5 13.5t55.5 27.5zM311 449
q-77 0 -122.5 -47t-52.5 -129l295 8q6 28 6 50q0 57 -32 87.5t-94 30.5zM367 608q0 16 10 26t27 10t27 -10t10 -26q0 -17 -10 -27t-27 -10t-27 10t-10 27zM154 608q0 16 10 26t27 10t27 -10t10 -26q0 -17 -10 -27t-27 -10t-27 10t-10 27z" />
    <glyph glyph-name="afii10099" unicode="&#x452;" horiz-adv-x="624" 
d="M455 -35v370q0 53 -25 77t-83 24q-44 0 -88 -12t-66 -24l-22 -13v-387h-68v598h-85v18l85 21v113h68v-119h179v-33h-179v-123l-3 -55l3 -3q9 7 26.5 17.5t72 28t109.5 17.5q78 0 111.5 -34.5t33.5 -104.5v-357q0 -48 -16.5 -90.5t-39.5 -69t-46 -46t-40 -28.5l-16 -8
l-15 15q4 3 11 8.5t25 25.5t32 42t25 58t11 74z" />
    <glyph glyph-name="afii10100" unicode="&#x453;" horiz-adv-x="443" 
d="M255 439h-85v-439h-69v300q0 52 -3 93t-6 57l-3 15l8 8h321v-43l-7 -7q-45 16 -156 16zM193 565l-6 6l92 142q17 0 31.5 -2.5t19.5 -4.5l6 -3v-6l-117 -132h-26z" />
    <glyph glyph-name="afii10101" unicode="&#x454;" horiz-adv-x="546" 
d="M481 90l15 -14q-2 -3 -6.5 -9t-21.5 -20t-37 -25t-54 -20t-73 -9q-112 0 -178 67t-66 177t66.5 176.5t185.5 66.5q83 0 130.5 -32.5t47.5 -87.5q0 -9 -1.5 -18t-2.5 -14l-2 -4q-17 -7 -52 -7l-8 7q6 17 6 35q0 42 -32.5 66t-88.5 24q-80 0 -125 -52t-49 -138h238l6 -6
v-27h-244q5 -92 54.5 -141.5t134.5 -49.5q29 0 56 5.5t44.5 13.5t31 16.5t19.5 13.5z" />
    <glyph glyph-name="afii10102" unicode="&#x455;" horiz-adv-x="480" 
d="M236 447q-110 0 -110 -74q0 -39 48 -67q22 -12 95 -43q88 -38 121.5 -66t33.5 -79q0 -64 -48 -94.5t-132 -30.5q-38 0 -71 6t-53 14.5t-35 16.5t-21 14l-7 6q0 14 7.5 27.5t15.5 20.5l7 6h8q2 -3 5.5 -8.5t17 -19t29 -23.5t42.5 -18.5t57 -8.5q53 0 85.5 20t32.5 59
q0 37 -30.5 57.5t-113.5 53.5q-80 31 -116 60t-36 83q0 58 44.5 89.5t128.5 31.5q50 0 90.5 -11t56.5 -23l15 -11q0 -14 -7.5 -27.5t-15.5 -19.5l-8 -7h-7q-1 3 -3.5 7.5t-13 15.5t-24 20t-37 16t-51.5 7z" />
    <glyph glyph-name="afii10103" unicode="&#x456;" horiz-adv-x="269" 
d="M101 0v300q0 52 -3.5 93t-7.5 57l-3 15l7 8q18 0 35 1.5t25 3.5l8 2l8 -7v-473h-69zM87 632q0 20 12.5 33t33.5 13q20 0 32.5 -13t12.5 -33t-12.5 -33t-32.5 -13q-21 0 -33.5 13t-12.5 33z" />
    <glyph glyph-name="afii10104" unicode="&#x457;" horiz-adv-x="269" 
d="M101 0v300q0 52 -3.5 93t-7.5 57l-3 15l7 8q18 0 35 1.5t25 3.5l8 2l8 -7v-473h-69zM12 608q0 16 10 26t27 10t27 -10t10 -26q0 -17 -10 -27t-27 -10t-27 10t-10 27zM184 608q0 17 10 26.5t27 9.5t26.5 -10t9.5 -26q0 -17 -9.5 -27t-26.5 -10q-37 0 -37 37z" />
    <glyph glyph-name="afii10105" unicode="&#x458;" horiz-adv-x="269" 
d="M101 -35v335q0 52 -3.5 93t-7.5 57l-3 15l7 8q18 0 35 1.5t25 3.5l8 2l8 -7v-489q0 -48 -16.5 -90.5t-39.5 -69t-46 -46t-40 -28.5l-16 -8l-15 15q4 3 11 8.5t25 25.5t32 42t25 58t11 74zM87 632q0 20 12.5 33t33.5 13q20 0 32.5 -13t12.5 -33t-12.5 -33t-32.5 -13
q-21 0 -33.5 13t-12.5 33z" />
    <glyph glyph-name="afii10106" unicode="&#x459;" horiz-adv-x="829" 
d="M32 53l8 7q17 -8 35 -8q89 0 89 272q0 44 -3 79t-6 49l-3 13l8 8h326v-200h127q73 0 118.5 -38t45.5 -99q0 -60 -45.5 -98t-118.5 -38h-196v436h-212v-103q0 -340 -125 -340q-10 0 -20 2t-15 4l-5 2q-8 19 -8 52zM602 237h-116v-201h116q47 0 76 27.5t29 72.5
q0 46 -29 73.5t-76 27.5z" />
    <glyph glyph-name="afii10107" unicode="&#x45a;" horiz-adv-x="843" 
d="M432 0v232h-262v-232h-69v300q0 52 -3 93t-6 57l-3 15l8 8h73v-205h262v32q0 52 -1.5 93.5t-2.5 56.5l-2 16l6 7h69v-204h126q74 0 119.5 -37t45.5 -98q0 -60 -45.5 -97t-119.5 -37h-195zM617 233h-116v-197h116q47 0 76 26.5t29 71.5t-29 72t-76 27z" />
    <glyph glyph-name="afii10108" unicode="&#x45b;" horiz-adv-x="624" 
d="M18 598v18l85 21v113h68v-119h179v-33h-179v-123l-3 -55l3 -3q9 7 26.5 17.5t72 28t109.5 17.5q78 0 111.5 -34.5t33.5 -104.5v-341h-69v335q0 53 -25 77t-83 24q-44 0 -88 -12t-66 -24l-22 -13v-387h-68v598h-85z" />
    <glyph glyph-name="afii10109" unicode="&#x45c;" horiz-adv-x="523" 
d="M101 0v300q0 52 -3 93t-6 57l-3 15l8 8h73v-211l61 6l25 29q46 51 78.5 93t42.5 59l10 17l10 7h62l-177 -207l51 -75q41 -54 78.5 -99.5t54.5 -63.5l18 -19v-9q-20 0 -37.5 -1.5t-25.5 -2.5l-8 -2l-188 239h-55v-233h-69zM233 565l-6 6l92 142q17 0 31.5 -2.5t19.5 -4.5
l6 -3v-6l-117 -132h-26z" />
    <glyph glyph-name="uni045D" unicode="&#x45d;" horiz-adv-x="619" 
d="M154 0h-53v300q0 52 -3 93t-6 57l-3 15l8 8h73v-314l-4 -68l4 -3l296 385h53v-473h-69v336l3 46l-3 3zM343 571l-6 -6h-25l-117 132v6q17 10 56 10z" />
    <glyph glyph-name="afii10110" unicode="&#x45e;" horiz-adv-x="539" 
d="M510 473l-249 -550q-21 -46 -38.5 -88.5t-24.5 -62.5l-7 -19l-6 -6q-17 0 -33.5 4.5t-24.5 8.5l-8 5v8q58 64 104 165l28 62l-134 300q-24 52 -46 93.5t-32 57.5l-10 16l6 6l73 5l178 -404l104 226q24 52 40 94t20 58l3 15l6 6l45 5zM274 542q-64 0 -102.5 24.5
t-38.5 61.5l5 29q18 7 46 7l6 -6q-4 -14 -4 -26q0 -24 24.5 -39.5t63.5 -15.5q40 0 64 15.5t24 39.5l-4 25l6 7q13 0 24.5 -2t16.5 -4l5 -2q6 -13 6 -29q0 -37 -39 -61t-103 -24z" />
    <glyph glyph-name="afii10193" unicode="&#x45f;" horiz-adv-x="630" 
d="M101 0v300q0 52 -3 93t-6 57l-3 15l8 8h73v-437h280v264q0 52 -1.5 93.5t-2.5 56.5l-2 16l6 7h69v-473h-178l-8 -148h-38l-7 8l-9 140h-178z" />
    <glyph glyph-name="afii10050" unicode="&#x490;" horiz-adv-x="557" 
d="M110 0v700h342q11 60 11 152l7 7h37l8 -188l-7 -7h-327v-664h-71z" />
    <glyph glyph-name="afii10098" unicode="&#x491;" horiz-adv-x="446" 
d="M101 0v300q0 52 -3 93t-6 57l-3 15l8 8h247q9 52 9 140l8 8h37l8 -177l-8 -8h-228v-436h-69z" />
    <glyph glyph-name="uni04D8" unicode="&#x4d8;" horiz-adv-x="767" 
d="M75 238q0 25 4 47.5t8 32.5l4 10l10 9h518v7q0 147 -75 231.5t-206 84.5q-43 0 -82.5 -9.5t-66 -22.5t-46.5 -26t-29 -22l-9 -10l-16 16q3 5 9.5 13t29.5 29t51 37t75 29t100 13q155 0 249 -99t94 -257q0 -160 -94.5 -259t-249.5 -99q-128 0 -203 67t-75 178zM352 25
q112 0 183.5 75.5t81.5 205.5l-466 -12q-6 -26 -6 -63q0 -97 55.5 -151.5t151.5 -54.5z" />
    <glyph glyph-name="afii10846" unicode="&#x4d9;" horiz-adv-x="559" 
d="M76 382l-15 15q2 3 6.5 9t21.5 20t37.5 25t54.5 20t73 9q112 0 178.5 -67t66.5 -177q0 -111 -67.5 -177t-185.5 -66q-91 0 -139.5 40.5t-48.5 114.5q0 18 3 36t6 27l3 9l7 8h346q0 100 -49.5 155t-140.5 55q-46 0 -85 -14t-56 -28zM247 24q77 0 122.5 46t52.5 129
l-296 -8q-5 -23 -5 -49q0 -57 32.5 -87.5t93.5 -30.5z" />
    <glyph glyph-name="Wgrave" unicode="&#x1e80;" horiz-adv-x="1073" 
d="M723 14l-176 472l-172 -486h-52l-14 14l-202 513q-20 52 -38.5 93.5t-26.5 56.5l-9 15v8h80l248 -624l165 466q-17 48 -33 85.5t-23 50.5l-8 14v8h81l231 -621l226 621h43l-255 -700h-51zM595 778l-7 -6h-25l-117 132v7q17 10 56 10z" />
    <glyph glyph-name="wgrave" unicode="&#x1e81;" horiz-adv-x="800" 
d="M528 14l-105 286l-16 41l-120 -341h-49l-14 14l-114 286q-21 53 -41.5 94.5t-30.5 57.5l-9 15l6 6l71 5l165 -408l114 323l-36 74l6 6l68 5l152 -409l88 231q20 52 32 94t15 58l2 15l6 6l47 5l5 -5l-179 -473h-49zM442 571l-7 -6h-25l-117 132v6q17 10 56 10z" />
    <glyph glyph-name="Wacute" unicode="&#x1e82;" horiz-adv-x="1073" 
d="M723 14l-176 472l-172 -486h-52l-14 14l-202 513q-20 52 -38.5 93.5t-26.5 56.5l-9 15v8h80l248 -624l165 466q-17 48 -33 85.5t-23 50.5l-8 14v8h81l231 -621l226 621h43l-255 -700h-51zM510 772l-7 6l93 143q17 0 31 -2.5t19 -4.5l6 -3v-7l-117 -132h-25z" />
    <glyph glyph-name="wacute" unicode="&#x1e83;" horiz-adv-x="800" 
d="M528 14l-105 286l-16 41l-120 -341h-49l-14 14l-114 286q-21 53 -41.5 94.5t-30.5 57.5l-9 15l6 6l71 5l165 -408l114 323l-36 74l6 6l68 5l152 -409l88 231q20 52 32 94t15 58l2 15l6 6l47 5l5 -5l-179 -473h-49zM379 565l-6 6l92 142q17 0 31.5 -2.5t19.5 -4.5l6 -3v-6
l-117 -132h-26z" />
    <glyph glyph-name="Wdieresis" unicode="&#x1e84;" horiz-adv-x="1073" 
d="M723 14l-176 472l-172 -486h-52l-14 14l-202 513q-20 52 -38.5 93.5t-26.5 56.5l-9 15v8h80l248 -624l165 466q-17 48 -33 85.5t-23 50.5l-8 14v8h81l231 -621l226 621h43l-255 -700h-51zM405 815q0 17 10 26.5t27 9.5q16 0 26 -9.5t10 -26.5t-10 -27t-26 -10
q-17 0 -27 10t-10 27zM618 815q0 17 10 26.5t27 9.5t26.5 -9.5t9.5 -26.5t-10 -27t-26 -10q-17 0 -27 10t-10 27z" />
    <glyph glyph-name="wdieresis" unicode="&#x1e85;" horiz-adv-x="800" 
d="M528 14l-105 286l-16 41l-120 -341h-49l-14 14l-114 286q-21 53 -41.5 94.5t-30.5 57.5l-9 15l6 6l71 5l165 -408l114 323l-36 74l6 6l68 5l152 -409l88 231q20 52 32 94t15 58l2 15l6 6l47 5l5 -5l-179 -473h-49zM267 608q0 16 10 26t27 10t27 -10t10 -26q0 -17 -10 -27
t-27 -10t-27 10t-10 27zM480 608q0 16 10 26t27 10t27 -10t10 -26q0 -17 -10 -27t-27 -10t-27 10t-10 27z" />
    <glyph glyph-name="Ygrave" unicode="&#x1ef2;" horiz-adv-x="658" 
d="M624 700l-258 -384v-316h-71v312l-117 175q-38 56 -74.5 107.5t-54.5 74.5l-18 23v8h87l229 -337l229 337h48zM374 791l-6 -6h-26l-117 132v7q18 10 57 10z" />
    <glyph glyph-name="ygrave" unicode="&#x1ef3;" horiz-adv-x="539" 
d="M510 473l-249 -550q-21 -46 -38.5 -88.5t-24.5 -62.5l-7 -19l-6 -6q-17 0 -33.5 4.5t-24.5 8.5l-8 5v8q58 64 104 165l28 62l-135 300q-23 51 -45 93t-32 58l-10 16l6 6l73 5l178 -404l104 226q24 52 40 94t20 58l3 15l6 6l45 5zM307 571l-6 -6h-25l-117 132v6
q17 10 56 10z" />
    <glyph glyph-name="figuredash" unicode="&#x2012;" 
d="M71 332v36h456v-36h-456z" />
    <glyph glyph-name="endash" unicode="&#x2013;" horiz-adv-x="497" 
d="M71 257v36h356v-36h-356z" />
    <glyph glyph-name="emdash" unicode="&#x2014;" horiz-adv-x="797" 
d="M71 257v36h656v-36h-656z" />
    <glyph glyph-name="quoteleft" unicode="&#x2018;" horiz-adv-x="200" 
d="M163 755l15 -15q-6 -8 -15 -22t-23.5 -55.5t-14.5 -79.5q0 -15 2.5 -28.5t4.5 -18.5l2 -6l-6 -6q-18 0 -33.5 3t-21.5 5l-6 3q-5 12 -5 34q0 31 10.5 61t25 51.5t29.5 39t25 25.5z" />
    <glyph glyph-name="quoteright" unicode="&#x2019;" horiz-adv-x="200" 
d="M59 525l-15 15q6 8 15 22t23.5 55.5t14.5 79.5q0 15 -2.5 28.5t-4.5 18.5l-2 6l6 6q18 0 33.5 -3t22.5 -5l6 -3q4 -12 4 -34q0 -31 -10.5 -61t-25 -51.5t-29.5 -39t-25 -25.5z" />
    <glyph glyph-name="quotesinglbase" unicode="&#x201a;" horiz-adv-x="200" 
d="M49 -157l-15 15q6 8 15 22t23.5 55.5t14.5 79.5q0 15 -2.5 28.5t-4.5 18.5l-2 6l6 5q18 0 33.5 -2.5t22.5 -4.5l6 -3q4 -12 4 -35q0 -30 -10.5 -60.5t-25 -52t-29.5 -38.5t-25 -25z" />
    <glyph glyph-name="quotedblleft" unicode="&#x201c;" horiz-adv-x="335" 
d="M163 755l15 -15q-6 -8 -15 -22t-23.5 -55.5t-14.5 -79.5q0 -15 2.5 -28.5t4.5 -18.5l2 -6l-6 -6q-18 0 -33.5 3t-21.5 5l-6 3q-5 12 -5 34q0 31 10.5 61t25 51.5t29.5 39t25 25.5zM298 755l14 -15q-6 -8 -15 -22t-23.5 -55.5t-14.5 -79.5q0 -15 2.5 -28.5t4.5 -18.5l2 -6
l-6 -6q-18 0 -33.5 3t-21.5 5l-6 3q-5 12 -5 34q0 48 25.5 94.5t50.5 68.5z" />
    <glyph glyph-name="quotedblright" unicode="&#x201d;" horiz-adv-x="335" 
d="M59 525l-15 15q6 8 15 22t23.5 55.5t14.5 79.5q0 15 -2.5 28.5t-4.5 18.5l-2 6l6 6q18 0 33.5 -3t22.5 -5l6 -3q4 -12 4 -34q0 -31 -10.5 -61t-25 -51.5t-29.5 -39t-25 -25.5zM193 525l-15 15q6 8 15 22t23.5 55.5t14.5 79.5q0 15 -2 28.5t-4 18.5l-2 6l5 6q19 0 34.5 -3
t21.5 -5l6 -3q5 -12 5 -34q0 -48 -25.5 -94.5t-51.5 -68.5z" />
    <glyph glyph-name="quotedblbase" unicode="&#x201e;" horiz-adv-x="335" 
d="M49 -157l-15 15q6 8 15 22t23.5 55.5t14.5 79.5q0 15 -2.5 28.5t-4.5 18.5l-2 6l6 5q18 0 33.5 -2.5t22.5 -4.5l6 -3q4 -12 4 -35q0 -30 -10.5 -60.5t-25 -52t-29.5 -38.5t-25 -25zM183 -157l-15 15q6 8 15 22t23.5 55.5t14.5 79.5q0 15 -2 28.5t-4 18.5l-2 6l5 5
q19 0 34.5 -2.5t21.5 -4.5l6 -3q5 -12 5 -35q0 -30 -10.5 -60.5t-25.5 -52t-30 -38.5t-25 -25z" />
    <glyph glyph-name="dagger" unicode="&#x2020;" horiz-adv-x="519" 
d="M65 499v40l177 -3l-2 214h40l-3 -214l177 3v-40l-176 3v-552h-37v552z" />
    <glyph glyph-name="daggerdbl" unicode="&#x2021;" horiz-adv-x="519" 
d="M65 499v40l177 -3l-2 214h40l-3 -214l177 3v-40l-176 3v-304l176 3v-40l-177 3l3 -214h-40l2 214l-177 -3v40l176 -3v304z" />
    <glyph glyph-name="bullet" unicode="&#x2022;" horiz-adv-x="275" 
d="M65 300q0 32 20 52t52 20q33 0 53 -20t20 -52t-20 -52t-53 -20q-32 0 -52 20t-20 52z" />
    <glyph glyph-name="ellipsis" unicode="&#x2026;" horiz-adv-x="606" 
d="M58 35q0 19 11.5 30.5t30.5 11.5t30.5 -11.5t11.5 -30.5t-11.5 -31t-30.5 -12t-30.5 12t-11.5 31zM261 35q0 19 11.5 30.5t30.5 11.5t30.5 -11.5t11.5 -30.5t-11.5 -31t-30.5 -12t-30.5 12t-11.5 31zM464 35q0 19 11.5 30.5t30.5 11.5t30.5 -11.5t11.5 -30.5t-11.5 -31
t-30.5 -12t-30.5 12t-11.5 31z" />
    <glyph glyph-name="perthousand" unicode="&#x2030;" horiz-adv-x="1251" 
d="M237 0h-42l432 700h42zM42 515q0 85 46.5 138.5t120.5 53.5q75 0 121.5 -53t46.5 -139t-46.5 -139t-121.5 -53q-74 0 -120.5 53.5t-46.5 138.5zM97 515q0 -73 31 -116.5t81 -43.5q51 0 82 43.5t31 116.5t-31 116t-82 43q-50 0 -81 -43t-31 -116zM487 185q0 85 46.5 138.5
t120.5 53.5q75 0 121.5 -53t46.5 -139t-46.5 -139t-121.5 -53q-74 0 -120.5 53.5t-46.5 138.5zM542 185q0 -73 31 -116.5t81 -43.5q51 0 82 43.5t31 116.5t-31 116t-82 43q-50 0 -81 -43t-31 -116zM874 185q0 85 46.5 138.5t120.5 53.5q75 0 121.5 -53t46.5 -139t-46.5 -139
t-121.5 -53q-74 0 -120.5 53.5t-46.5 138.5zM929 185q0 -73 31 -116.5t81 -43.5q51 0 82 43.5t31 116.5t-31 116t-82 43q-50 0 -81 -43t-31 -116z" />
    <glyph glyph-name="guilsinglleft" unicode="&#x2039;" horiz-adv-x="300" 
d="M236 452l6 -6v-28l-134 -143l134 -143v-28l-6 -6l-185 170v14z" />
    <glyph glyph-name="guilsinglright" unicode="&#x203a;" horiz-adv-x="300" 
d="M58 446l6 6l185 -170v-14l-185 -170l-6 6v28l134 143l-134 143v28z" />
    <glyph glyph-name="fraction" unicode="&#x2044;" horiz-adv-x="520" 
d="M65 -25h-42l432 750h42z" />
    <glyph glyph-name="Euro" unicode="&#x20ac;" horiz-adv-x="773" 
d="M26 403v36h73q23 125 111 196.5t231 71.5q48 0 91.5 -8.5t70.5 -20.5t47.5 -24t29.5 -20l9 -9q0 -19 -7.5 -34t-14.5 -20l-7 -5h-10q-3 4 -9 11.5t-26.5 26.5t-43.5 33t-60 26t-77 12q-102 0 -170 -62.5t-88 -173.5h327l6 -6v-30h-338q-2 -36 -2 -54q0 -31 3 -60h331
l6 -6v-30h-332q21 -108 89 -168t173 -60q42 0 80 11t62 27.5t42.5 32.5t26.5 27l8 11h10q29 -16 29 -59q-3 -3 -9 -8.5t-28 -20t-48 -25t-70.5 -19.5t-94.5 -9q-145 0 -233.5 69t-113.5 191h-74v36h68q-3 29 -3 60q0 36 2 54h-67z" />
    <glyph glyph-name="uni20B4" unicode="&#x20b4;" horiz-adv-x="581" 
d="M69 403v36h298q62 55 62 114q0 48 -38 77.5t-111 29.5q-58 0 -104 -19t-63 -37l-17 -19l-16 16q2 4 6.5 11.5t22.5 25.5t41 32t63.5 25.5t87.5 11.5q95 0 149.5 -40.5t54.5 -105.5q0 -63 -61 -122h68v-36h-110q-25 -20 -76.5 -53t-65.5 -43h252v-36h-298
q-66 -59 -66 -120q0 -51 41.5 -81t116.5 -30q38 0 72 8t55 19t37 22.5t22 19.5l7 8l16 -16q-2 -4 -7 -11.5t-24 -26t-43 -33t-66.5 -26t-91.5 -11.5q-97 0 -153.5 40.5t-56.5 108.5q0 67 64 129h-68v36h111q24 18 73 50t69 46h-253z" />
    <glyph glyph-name="afii61352" unicode="&#x2116;" horiz-adv-x="1137" 
d="M110 0v420q0 80 -4 148t-8 96l-3 28l8 8h28l502 -581v581h41v-700h-23l-502 580v-580h-39zM759 515q0 85 47 138.5t121 53.5q75 0 121.5 -53t46.5 -139t-46.5 -139t-121.5 -53q-74 0 -121 53.5t-47 138.5zM814 515q0 -73 31 -116.5t82 -43.5t82 43.5t31 116.5t-31 116
t-82 43t-82 -43t-31 -116zM766 198v36h322v-36h-322z" />
    <glyph glyph-name="trademark" unicode="&#x2122;" horiz-adv-x="802" 
d="M724 350l-40 304l-2 2l-102 -296h-34l-7 8l-108 286l-1 -2l-34 -302h-26l30 263q3 23 4 43.5t0 29.5l-1 9l5 5h59l105 -283l99 283h58l46 -350h-51zM205 678v-328h-49v328h-41q-26 0 -47 -2.5t-28 -5.5l-8 -2l-5 4v28h307v-28l-4 -4q-25 10 -82 10h-43z" />
    <glyph glyph-name="arrowleft" unicode="&#x2190;" horiz-adv-x="547" 
d="M260 477l7 -6v-28l-142 -150h352v-36h-352l142 -150v-28l-7 -6l-209 195v14z" />
    <glyph glyph-name="arrowup" unicode="&#x2191;" horiz-adv-x="545" 
d="M287 72h-36v352l-150 -142h-28l-6 6l194 210h15l195 -210l-7 -6h-28l-149 142v-352z" />
    <glyph glyph-name="arrowright" unicode="&#x2192;" horiz-adv-x="547" 
d="M71 257v36h351l-141 150v28l6 6l210 -195v-14l-210 -195l-6 6v28l141 150h-351z" />
    <glyph glyph-name="arrowdown" unicode="&#x2193;" horiz-adv-x="545" 
d="M67 262l6 6h28l150 -142v352h36v-352l149 142h28l7 -6l-195 -210h-15z" />
    <glyph glyph-name="uni2196" unicode="&#x2196;" horiz-adv-x="545" 
d="M132 134h-9l-10 286l11 11l286 -11v-9l-20 -19l-207 -6l249 -249l-25 -25l-250 248l-5 -206z" />
    <glyph glyph-name="uni2197" unicode="&#x2197;" horiz-adv-x="545" 
d="M138 112l-25 25l249 249l-206 6l-20 19v9l285 11l11 -11l-10 -286h-9l-20 20l-6 206z" />
    <glyph glyph-name="uni2198" unicode="&#x2198;" horiz-adv-x="545" 
d="M113 405l25 26l249 -250l6 207l20 20h9l10 -286l-11 -10l-285 10v9l20 20l205 5z" />
    <glyph glyph-name="uni2199" unicode="&#x2199;" horiz-adv-x="545" 
d="M410 131v-9l-286 -10l-11 10l10 286h9l20 -20l5 -207l250 250l25 -26l-249 -249l207 -5z" />
    <glyph glyph-name="minus" unicode="&#x2212;" 
d="M106 307v36h385v-36h-385z" />
    <glyph glyph-name="approxequal" unicode="&#x2248;" 
d="M106 378v39q47 50 95 50q33 0 98 -30t98 -30q46 0 94 51v-40q-45 -50 -93 -50q-33 0 -98.5 30.5t-97.5 30.5q-43 0 -96 -51zM398 173q-33 0 -98.5 30.5t-97.5 30.5q-42 0 -96 -51v39q47 50 95 50q33 0 98 -30.5t97 -30.5q47 0 95 51v-39q-44 -50 -93 -50z" />
    <glyph glyph-name="notequal" unicode="&#x2260;" 
d="M106 404v36h238l56 95l32 -18l-45 -77h104v-36h-125l-93 -158h218v-36h-239l-56 -95l-32 18l45 77h-103v36h124l93 158h-217z" />
    <glyph glyph-name="lessequal" unicode="&#x2264;" 
d="M501 576v-39l-357 -146l357 -147v-38l-405 166v38zM96 92v36h405v-36h-405z" />
    <glyph glyph-name="greaterequal" unicode="&#x2265;" 
d="M96 537v39l405 -166v-38l-405 -166v38l357 147zM96 92v36h405v-36h-405z" />
    <glyph glyph-name="commaaccent" unicode="&#xf6c3;" horiz-adv-x="194" 
d="M57 -236l-12 11q5 5 12 15t19 41.5t12 63.5q0 12 -1.5 22.5t-2.5 14.5l-2 4l4 5q14 0 26 -2t18 -4l5 -2q4 -9 4 -27q0 -40 -20.5 -75.5t-40.5 -50.5z" />
    <glyph glyph-name="zerooldstyle" unicode="&#xf730;" horiz-adv-x="670" 
d="M70 236q0 109 73.5 176.5t190.5 67.5q118 0 191.5 -67.5t73.5 -176.5t-73.5 -176t-191.5 -67q-117 0 -190.5 67t-73.5 176zM141 236q0 -97 53.5 -154t139.5 -57q87 0 140.5 57t53.5 154t-53.5 154t-140.5 57t-140 -57t-53 -154z" />
    <glyph glyph-name="oneoldstyle" unicode="&#xf731;" horiz-adv-x="444" 
d="M248 0v405q-11 -8 -29 -19.5t-67.5 -31t-90.5 -19.5q-5 9 -5 31l6 7q47 0 103 25t89 50l32 25h30v-473h-68z" />
    <glyph glyph-name="twooldstyle" unicode="&#xf732;" horiz-adv-x="579" 
d="M511 345q0 -46 -34.5 -93.5t-80 -81t-100.5 -64t-84.5 -43t-42.5 -17.5h184q52 0 93.5 4t56.5 8l15 4l7 -8v-54h-462v33q8 3 21.5 9t52.5 24.5t74.5 38.5t78.5 49.5t74 58.5t52.5 65t21.5 69q0 45 -37 72.5t-105 27.5q-73 0 -113 -33t-40 -93q0 -15 2.5 -27.5t4.5 -17.5
l2 -4l-8 -8q-17 0 -32.5 2t-21.5 4l-7 2q-9 14 -9 46q0 74 57 118t167 44q101 0 157 -37t56 -98z" />
    <glyph glyph-name="threeoldstyle" unicode="&#xf733;" horiz-adv-x="644" 
d="M311 -225q89 0 137 47t48 126q0 74 -41 119.5t-117 45.5h-68l-6 7v32h52q150 0 150 147q0 148 -156 148q-74 0 -119 -35t-45 -101q0 -15 2 -28t4 -18l3 -5l-8 -8q-17 0 -32.5 2t-22.5 4l-6 2q-9 16 -9 49q0 78 61.5 124.5t174.5 46.5q111 0 168.5 -47.5t57.5 -133.5
q0 -130 -125 -164q75 -12 115.5 -63.5t40.5 -124.5q0 -94 -68 -149t-189 -55q-116 0 -179.5 49t-63.5 130q0 16 2 28.5t4 17.5l3 4q22 8 61 8l8 -8q-9 -18 -9 -52q0 -69 46 -107t126 -38z" />
    <glyph glyph-name="fouroldstyle" unicode="&#xf734;" horiz-adv-x="617" 
d="M37 0v18l393 455h34v-437h104v-36h-104v-250h-69v250h-358zM100 36h295v339z" />
    <glyph glyph-name="fiveoldstyle" unicode="&#xf735;" horiz-adv-x="620" 
d="M297 -225q86 0 132.5 53t46.5 146q0 187 -193 187q-45 0 -88 -9.5t-64 -18.5l-21 -9l-11 12l40 332h187q52 0 93 4t57 8l15 4l7 -8v-65h-326l-29 -247q74 38 165 38q122 0 182 -63t60 -165q0 -108 -65 -169.5t-187 -61.5q-109 0 -170.5 48t-61.5 128q0 16 2.5 28.5
t5.5 16.5l2 5q22 8 61 8l7 -8q-9 -17 -9 -52q0 -67 44 -104.5t118 -37.5z" />
    <glyph glyph-name="sixoldstyle" unicode="&#xf736;" horiz-adv-x="650" 
d="M144 353v-23q64 85 199 85q107 0 172 -57t65 -153q0 -97 -66.5 -154.5t-172.5 -57.5q-133 0 -202 94t-69 266q0 164 66 259t208 95q93 0 153 -40t60 -111q0 -13 -2.5 -24.5t-4.5 -16.5l-2 -5q-22 -8 -61 -8l-8 8q9 18 9 48q0 58 -43 87.5t-105 29.5q-196 0 -196 -322z
M329 382q-115 0 -182 -106q21 -251 191 -251q76 0 122 47.5t46 130.5q0 84 -48 131.5t-129 47.5z" />
    <glyph glyph-name="sevenoldstyle" unicode="&#xf737;" horiz-adv-x="572" 
d="M268 -250h-69q0 99 28 203.5t67.5 184t79 144.5t67.5 100l28 34h-246q-52 0 -93.5 -4t-56.5 -8l-15 -4l-7 7v66h471v-34q-10 -14 -27.5 -39t-61 -102t-77 -154.5t-61 -186.5t-27.5 -207z" />
    <glyph glyph-name="eightoldstyle" unicode="&#xf738;" horiz-adv-x="635" 
d="M540 539q0 -47 -26 -87t-54 -60.5t-61 -36.5q80 -36 123 -76.5t43 -105.5q0 -78 -64.5 -129t-183.5 -51t-183.5 51t-64.5 131q0 126 159 188q-65 32 -101 71.5t-36 100.5q0 77 60 124.5t163 47.5q104 0 165 -46.5t61 -121.5zM499 162q0 21 -6 38.5t-21 33t-27.5 26
t-39 24t-41 20t-47.5 20t-46 19.5q-136 -56 -136 -165q0 -67 50 -110t133 -43q81 0 131 39.5t50 97.5zM311 675q-70 0 -112 -34t-42 -89q0 -23 7 -43t24 -37.5t31 -29t44 -26.5t45 -22t51 -22q43 24 80 66.5t37 99.5q0 61 -46 99t-119 38z" />
    <glyph glyph-name="nineoldstyle" unicode="&#xf739;" horiz-adv-x="637" 
d="M293 -225q106 0 152.5 87.5t46.5 253.5v15q-66 -66 -186 -66q-106 0 -170.5 53.5t-64.5 150.5t64.5 154t168.5 57q131 0 196.5 -93t65.5 -270q0 -83 -15 -149t-46.5 -117.5t-85.5 -79.5t-128 -28q-93 0 -156.5 41.5t-63.5 112.5q0 12 2.5 23.5t4.5 16.5l2 5q22 7 61 7
l8 -7q-8 -18 -8 -46q0 -57 43.5 -89t108.5 -32zM321 97q99 0 169 78q-15 272 -184 272q-74 0 -118 -46t-44 -128q0 -85 48 -130.5t129 -45.5z" />
    <glyph glyph-name="A.smcp" horiz-adv-x="566" 
d="M134 143l-64 -143h-38l214 470l-9 14v6h72l225 -490h-69l-66 143h-265zM297 369q-20 42 -31 64l-118 -260h238z" />
    <glyph glyph-name="Aacute.smcp" horiz-adv-x="566" 
d="M134 143l-64 -143h-38l214 470l-9 14v6h72l225 -490h-69l-66 143h-265zM297 369q-20 42 -31 64l-118 -260h238zM241 548l-6 7l92 142q17 0 31.5 -2.5t19.5 -4.5l6 -3v-7l-117 -132h-26z" />
    <glyph glyph-name="Abreve.smcp" horiz-adv-x="566" 
d="M134 143l-64 -143h-38l214 470l-9 14v6h72l225 -490h-69l-66 143h-265zM297 369q-20 42 -31 64l-118 -260h238zM145 637l15 15q5 -6 14 -16t40 -26t65 -16q35 0 64.5 14.5t42.5 29.5l12 14l15 -15q-1 -3 -4 -9t-14.5 -20.5t-25.5 -25.5t-38.5 -20t-51.5 -9t-51 8.5
t-38.5 21t-25 25t-14.5 20.5z" />
    <glyph glyph-name="Acircumflex.smcp" horiz-adv-x="566" 
d="M134 143l-64 -143h-38l214 470l-9 14v6h72l225 -490h-69l-66 143h-265zM297 369q-20 42 -31 64l-118 -260h238zM412 555l-6 -7h-28l-99 99l-98 -99h-28l-6 7l122 142h21z" />
    <glyph glyph-name="Agrave.smcp" horiz-adv-x="566" 
d="M134 143l-64 -143h-38l214 470l-9 14v6h72l225 -490h-69l-66 143h-265zM297 369q-20 42 -31 64l-118 -260h238zM324 555l-7 -7h-25l-117 132v7q17 10 56 10z" />
    <glyph glyph-name="Adieresis.smcp" horiz-adv-x="566" 
d="M134 143l-64 -143h-38l214 470l-9 14v6h72l225 -490h-69l-66 143h-265zM297 369q-20 42 -31 64l-118 -260h238zM136 595q0 17 10 27t27 10t27 -10t10 -27t-10 -27t-27 -10t-27 10t-10 27zM349 595q0 17 10.5 27t26.5 10t26.5 -10t10.5 -27t-10.5 -27t-26.5 -10t-26.5 10
t-10.5 27z" />
    <glyph glyph-name="Amacron.smcp" horiz-adv-x="566" 
d="M134 143l-64 -143h-38l214 470l-9 14v6h72l225 -490h-69l-66 143h-265zM297 369q-20 42 -31 64l-118 -260h238zM162 577v37h236v-37h-236z" />
    <glyph glyph-name="Aogonek.smcp" horiz-adv-x="566" 
d="M134 143l-64 -143h-38l214 470l-9 14v6h72l225 -490h-15q-4 -3 -11 -12.5t-15.5 -29.5t-8.5 -41q0 -45 43 -45q11 0 19.5 3t11.5 5l4 3l15 -15q-18 -28 -60 -28q-31 0 -52 19t-21 55q0 50 43 86h-22l-66 143h-265zM297 369q-20 42 -31 64l-118 -260h238z" />
    <glyph glyph-name="Aring.smcp" horiz-adv-x="566" 
d="M134 143l-64 -143h-38l214 470l-9 14v6h72l225 -490h-69l-66 143h-265zM297 369q-20 42 -31 64l-118 -260h238zM201 621q0 35 22 56.5t57 21.5t57 -21.5t22 -56.5t-22 -57t-57 -22t-57 22t-22 57zM235 621q0 -20 13 -33t32 -13t32 13t13 33q0 19 -12.5 32t-32.5 13
t-32.5 -13t-12.5 -32z" />
    <glyph glyph-name="Atilde.smcp" horiz-adv-x="566" 
d="M134 143l-64 -143h-38l214 470l-9 14v6h72l225 -490h-69l-66 143h-265zM297 369q-20 42 -31 64l-118 -260h238zM234 636q25 0 51 -18t47 -18q20 0 38 10t26 20l7 9l15 -15q-1 -3 -3.5 -7t-10.5 -15.5t-18 -20t-26.5 -15.5t-34.5 -7q-25 0 -51 18t-47 18q-20 0 -37.5 -9.5
t-25.5 -19.5l-8 -10l-15 15q1 3 3.5 7t10.5 15.5t18 20t26.5 15.5t34.5 7z" />
    <glyph glyph-name="AE.smcp" horiz-adv-x="678" 
d="M32 0l249 490h331v-37l-6 -7q-37 14 -124 14h-125v-195h208l5 -5v-25h-213v-205h133q39 0 69.5 3.5t42.5 6.5l11 4l7 -6v-38h-329v150h-146l-75 -150h-38zM160 179h131v259z" />
    <glyph glyph-name="AEacute.smcp" horiz-adv-x="678" 
d="M32 0l249 490h331v-37l-6 -7q-37 14 -124 14h-125v-195h208l5 -5v-25h-213v-205h133q39 0 69.5 3.5t42.5 6.5l11 4l7 -6v-38h-329v150h-146l-75 -150h-38zM160 179h131v259zM292 548l-6 7l92 142q17 0 31.5 -2.5t20.5 -4.5l5 -3v-7l-117 -132h-26z" />
    <glyph glyph-name="B.smcp" horiz-adv-x="537" 
d="M87 0v490h189q86 0 130.5 -32t44.5 -90q0 -87 -98 -113q61 -10 93.5 -42t32.5 -83q0 -62 -48.5 -96t-138.5 -34h-205zM410 134q0 50 -33.5 77t-94.5 27h-129v-208h129q61 0 94.5 27.5t33.5 76.5zM384 364q0 46 -30 71t-88 25h-113v-192h113q58 0 88 25t30 71z" />
    <glyph glyph-name="C.smcp" horiz-adv-x="581" 
d="M325 469q-89 0 -141.5 -59t-52.5 -159q0 -102 55 -158.5t152 -56.5q48 0 90.5 13.5t61.5 26.5l18 13l14 -13q-2 -3 -7 -8.5t-23.5 -20t-39.5 -25t-56.5 -19.5t-74.5 -9q-118 0 -190 69.5t-72 182.5q0 112 72 181t194 69q91 0 144 -39t53 -101q0 -12 -2 -21.5t-4 -12.5
l-3 -4q-21 -6 -57 -6l-7 6q8 13 8 42q0 52 -35 80.5t-97 28.5z" />
    <glyph glyph-name="Cacute.smcp" horiz-adv-x="581" 
d="M325 469q-89 0 -141.5 -59t-52.5 -159q0 -102 55 -158.5t152 -56.5q48 0 90.5 13.5t61.5 26.5l18 13l14 -13q-2 -3 -7 -8.5t-23.5 -20t-39.5 -25t-56.5 -19.5t-74.5 -9q-118 0 -190 69.5t-72 182.5q0 112 72 181t194 69q91 0 144 -39t53 -101q0 -12 -2 -21.5t-4 -12.5
l-3 -4q-21 -6 -57 -6l-7 6q8 13 8 42q0 52 -35 80.5t-97 28.5zM274 548l-6 7l92 142q17 0 31.5 -2.5t20.5 -4.5l5 -3v-7l-117 -132h-26z" />
    <glyph glyph-name="Ccaron.smcp" horiz-adv-x="581" 
d="M325 469q-89 0 -141.5 -59t-52.5 -159q0 -102 55 -158.5t152 -56.5q48 0 90.5 13.5t61.5 26.5l18 13l14 -13q-2 -3 -7 -8.5t-23.5 -20t-39.5 -25t-56.5 -19.5t-74.5 -9q-118 0 -190 69.5t-72 182.5q0 112 72 181t194 69q91 0 144 -39t53 -101q0 -12 -2 -21.5t-4 -12.5
l-3 -4q-21 -6 -57 -6l-7 6q8 13 8 42q0 52 -35 80.5t-97 28.5zM439 694l6 -6l-122 -143h-21l-122 143l6 6h28l99 -98l98 98h28z" />
    <glyph glyph-name="Ccedilla.smcp" horiz-adv-x="581" 
d="M294 -69l10 64q-111 4 -178 73t-67 178q0 112 72 181t194 69q91 0 144 -39t53 -101q0 -12 -2 -21.5t-4 -12.5l-3 -4q-21 -6 -57 -6l-7 6q8 13 8 42q0 52 -35 80.5t-97 28.5q-89 0 -141.5 -59t-52.5 -159q0 -102 55 -158.5t152 -56.5q48 0 90.5 13.5t61.5 26.5l18 13
l14 -13q-2 -3 -7 -8t-21.5 -18.5t-36.5 -24t-53 -20t-69 -11.5l-7 -45q28 0 47 -17t19 -45t-20.5 -45t-53.5 -17q-23 0 -41 8.5t-25 17.5l-6 9l13 13q18 -19 51 -19q42 0 42 34q0 36 -53 36z" />
    <glyph glyph-name="Ccircumflex.smcp" horiz-adv-x="581" 
d="M325 469q-89 0 -141.5 -59t-52.5 -159q0 -102 55 -158.5t152 -56.5q48 0 90.5 13.5t61.5 26.5l18 13l14 -13q-2 -3 -7 -8.5t-23.5 -20t-39.5 -25t-56.5 -19.5t-74.5 -9q-118 0 -190 69.5t-72 182.5q0 112 72 181t194 69q91 0 144 -39t53 -101q0 -12 -2 -21.5t-4 -12.5
l-3 -4q-21 -6 -57 -6l-7 6q8 13 8 42q0 52 -35 80.5t-97 28.5zM445 555l-6 -7h-28l-98 99l-99 -99h-28l-6 7l122 142h21z" />
    <glyph glyph-name="Cdotaccent.smcp" horiz-adv-x="581" 
d="M325 469q-89 0 -141.5 -59t-52.5 -159q0 -102 55 -158.5t152 -56.5q48 0 90.5 13.5t61.5 26.5l18 13l14 -13q-2 -3 -7 -8.5t-23.5 -20t-39.5 -25t-56.5 -19.5t-74.5 -9q-118 0 -190 69.5t-72 182.5q0 112 72 181t194 69q91 0 144 -39t53 -101q0 -12 -2 -21.5t-4 -12.5
l-3 -4q-21 -6 -57 -6l-7 6q8 13 8 42q0 52 -35 80.5t-97 28.5zM274 611q0 17 11 28t28 11q18 0 29 -11t11 -28q0 -18 -11 -29t-29 -11q-17 0 -28 11t-11 29z" />
    <glyph glyph-name="D.smcp" horiz-adv-x="608" 
d="M87 0v490h201q117 0 189 -67.5t72 -177.5t-72 -177.5t-189 -67.5h-201zM286 460h-133v-430h133q86 0 138 57.5t52 157.5t-52 157.5t-138 57.5z" />
    <glyph glyph-name="Dcaron.smcp" horiz-adv-x="608" 
d="M87 0v490h201q117 0 189 -67.5t72 -177.5t-72 -177.5t-189 -67.5h-201zM286 460h-133v-430h133q86 0 138 57.5t52 157.5t-52 157.5t-138 57.5zM427 694l6 -6l-122 -143h-21l-122 143l6 6h28l99 -98l98 98h28z" />
    <glyph glyph-name="Dcroat.smcp" horiz-adv-x="608" 
d="M35 236v30h52v224h201q117 0 189 -67.5t72 -177.5t-72 -177.5t-189 -67.5h-201v236h-52zM286 460h-133v-194h125v-30h-125v-206h133q86 0 138 57.5t52 157.5t-52 157.5t-138 57.5z" />
    <glyph glyph-name="Eth.smcp" horiz-adv-x="608" 
d="M35 236v30h52v224h201q117 0 189 -67.5t72 -177.5t-72 -177.5t-189 -67.5h-201v236h-52zM286 460h-133v-194h125v-30h-125v-206h133q86 0 138 57.5t52 157.5t-52 157.5t-138 57.5z" />
    <glyph glyph-name="Thorn.smcp" horiz-adv-x="506" 
d="M87 0v490h66v-97h108q89 0 140.5 -37.5t51.5 -103.5t-51.5 -103.5t-140.5 -37.5h-108v-111h-66zM251 362h-98v-220h98q62 0 98 29t36 81t-36 81t-98 29z" />
    <glyph glyph-name="E.smcp" horiz-adv-x="486" 
d="M87 0v490h334v-37l-7 -7q-36 14 -123 14h-138v-195h221l5 -5v-25h-226v-205h145q39 0 70 3.5t42 6.5l12 4l6 -6v-38h-341z" />
    <glyph glyph-name="Eacute.smcp" horiz-adv-x="486" 
d="M87 0v490h334v-37l-7 -7q-36 14 -123 14h-138v-195h221l5 -5v-25h-226v-205h145q39 0 70 3.5t42 6.5l12 4l6 -6v-38h-341zM210 548l-7 7l93 142q17 0 31 -2.5t19 -4.5l6 -3v-7l-117 -132h-25z" />
    <glyph glyph-name="Ebreve.smcp" horiz-adv-x="486" 
d="M87 0v490h334v-37l-7 -7q-36 14 -123 14h-138v-195h221l5 -5v-25h-226v-205h145q39 0 70 3.5t42 6.5l12 4l6 -6v-38h-341zM122 637l15 15q5 -6 14 -16t39.5 -26t65.5 -16q34 0 64 14.5t42 29.5l13 14l15 -15q-1 -3 -4 -9t-14.5 -20.5t-25.5 -25.5t-38.5 -20t-51.5 -9
q-28 0 -52 8.5t-38.5 21t-25 25t-14.5 20.5z" />
    <glyph glyph-name="Ecaron.smcp" horiz-adv-x="486" 
d="M87 0v490h334v-37l-7 -7q-36 14 -123 14h-138v-195h221l5 -5v-25h-226v-205h145q39 0 70 3.5t42 6.5l12 4l6 -6v-38h-341zM381 698l7 -6l-123 -143h-20l-123 143l7 6h28l98 -98l98 98h28z" />
    <glyph glyph-name="Ecircumflex.smcp" horiz-adv-x="486" 
d="M87 0v490h334v-37l-7 -7q-36 14 -123 14h-138v-195h221l5 -5v-25h-226v-205h145q39 0 70 3.5t42 6.5l12 4l6 -6v-38h-341zM388 555l-7 -7h-28l-98 99l-98 -99h-28l-7 7l123 142h20z" />
    <glyph glyph-name="Edieresis.smcp" horiz-adv-x="486" 
d="M87 0v490h334v-37l-7 -7q-36 14 -123 14h-138v-195h221l5 -5v-25h-226v-205h145q39 0 70 3.5t42 6.5l12 4l6 -6v-38h-341zM325 591q0 17 10 26.5t27 9.5q16 0 26 -9.5t10 -26.5t-10 -27t-26 -10q-17 0 -27 10t-10 27zM112 591q0 17 10 26.5t27 9.5t26.5 -9.5t9.5 -26.5
t-10 -27t-26 -10q-17 0 -27 10t-10 27z" />
    <glyph glyph-name="Edotaccent.smcp" horiz-adv-x="486" 
d="M87 0v490h334v-37l-7 -7q-36 14 -123 14h-138v-195h221l5 -5v-25h-226v-205h145q39 0 70 3.5t42 6.5l12 4l6 -6v-38h-341zM216 611q0 17 11 28t29 11q17 0 28 -11t11 -28q0 -18 -11 -29t-28 -11q-18 0 -29 11t-11 29z" />
    <glyph glyph-name="Egrave.smcp" horiz-adv-x="486" 
d="M87 0v490h334v-37l-7 -7q-36 14 -123 14h-138v-195h221l5 -5v-25h-226v-205h145q39 0 70 3.5t42 6.5l12 4l6 -6v-38h-341zM307 555l-6 -7h-26l-117 132v7q18 10 57 10z" />
    <glyph glyph-name="Emacron.smcp" horiz-adv-x="486" 
d="M87 0v490h334v-37l-7 -7q-36 14 -123 14h-138v-195h221l5 -5v-25h-226v-205h145q39 0 70 3.5t42 6.5l12 4l6 -6v-38h-341zM137 577v37h236v-37h-236z" />
    <glyph glyph-name="Eogonek.smcp" horiz-adv-x="486" 
d="M87 0v490h334v-37l-7 -7q-36 14 -123 14h-138v-195h221l5 -5v-25h-226v-205h145q39 0 70 3.5t42 6.5l12 4l6 -6v-38h-44q-4 -3 -11.5 -13t-15.5 -30t-8 -40q0 -46 44 -46q10 0 19 2.5t12 5.5l4 3l15 -15q-18 -28 -60 -28q-31 0 -52.5 19t-21.5 55q0 54 44 87h-266z" />
    <glyph glyph-name="F.smcp" horiz-adv-x="465" 
d="M87 0v490h333v-37l-7 -7q-36 14 -124 14h-136v-195h215l5 -5v-25h-220v-235h-66z" />
    <glyph glyph-name="G.smcp" horiz-adv-x="591" 
d="M377 207v25h78q17 0 32 2t21 4l7 1l7 -7v-167q-3 -3 -8 -7.5t-23 -17t-39 -22t-55.5 -17t-72.5 -7.5q-121 0 -193 69.5t-72 182.5q0 112 72 181t196 69q90 0 142 -36t52 -98q0 -12 -2 -21.5t-4 -12.5l-2 -4q-21 -6 -58 -6l-6 6q8 13 8 42q0 50 -35 76.5t-96 26.5
q-91 0 -143 -58.5t-52 -159.5q0 -102 54 -161.5t150 -59.5q68 0 126 29v54q0 47 -7 89h-71z" />
    <glyph glyph-name="Gbreve.smcp" horiz-adv-x="591" 
d="M377 207v25h78q17 0 32 2t21 4l7 1l7 -7v-167q-3 -3 -8 -7.5t-23 -17t-39 -22t-55.5 -17t-72.5 -7.5q-121 0 -193 69.5t-72 182.5q0 112 72 181t196 69q90 0 142 -36t52 -98q0 -12 -2 -21.5t-4 -12.5l-2 -4q-21 -6 -58 -6l-6 6q8 13 8 42q0 50 -35 76.5t-96 26.5
q-91 0 -143 -58.5t-52 -159.5q0 -102 54 -161.5t150 -59.5q68 0 126 29v54q0 47 -7 89h-71zM179 637l15 15q5 -6 14 -16t40 -26t65 -16q35 0 64.5 14.5t42.5 29.5l12 14l15 -15q-1 -3 -4 -9t-14.5 -20.5t-25.5 -25.5t-38.5 -20t-51.5 -9t-51 8.5t-38.5 21t-25 25t-14.5 20.5
z" />
    <glyph glyph-name="Gcircumflex.smcp" horiz-adv-x="591" 
d="M377 207v25h78q17 0 32 2t21 4l7 1l7 -7v-167q-3 -3 -8 -7.5t-23 -17t-39 -22t-55.5 -17t-72.5 -7.5q-121 0 -193 69.5t-72 182.5q0 112 72 181t196 69q90 0 142 -36t52 -98q0 -12 -2 -21.5t-4 -12.5l-2 -4q-21 -6 -58 -6l-6 6q8 13 8 42q0 50 -35 76.5t-96 26.5
q-91 0 -143 -58.5t-52 -159.5q0 -102 54 -161.5t150 -59.5q68 0 126 29v54q0 47 -7 89h-71zM445 555l-6 -7h-28l-98 99l-99 -99h-28l-6 7l122 142h21z" />
    <glyph glyph-name="Gcommaaccent.smcp" horiz-adv-x="591" 
d="M377 207v25h78q17 0 32 2t21 4l7 1l7 -7v-167q-3 -3 -8 -7.5t-23 -17t-39 -22t-55.5 -17t-72.5 -7.5q-121 0 -193 69.5t-72 182.5q0 112 72 181t196 69q90 0 142 -36t52 -98q0 -12 -2 -21.5t-4 -12.5l-2 -4q-21 -6 -58 -6l-6 6q8 13 8 42q0 50 -35 76.5t-96 26.5
q-91 0 -143 -58.5t-52 -159.5q0 -102 54 -161.5t150 -59.5q68 0 126 29v54q0 47 -7 89h-71zM273 -215l-12 12q5 5 12 15t19 41.5t12 63.5q0 12 -1.5 22t-2.5 15l-2 4l4 5q14 0 26 -2t18 -4l5 -2q3 -9 3 -27q0 -26 -8.5 -50t-20 -40t-23.5 -28.5t-20 -18.5z" />
    <glyph glyph-name="Gdotaccent.smcp" horiz-adv-x="591" 
d="M377 207v25h78q17 0 32 2t21 4l7 1l7 -7v-167q-3 -3 -8 -7.5t-23 -17t-39 -22t-55.5 -17t-72.5 -7.5q-121 0 -193 69.5t-72 182.5q0 112 72 181t196 69q90 0 142 -36t52 -98q0 -12 -2 -21.5t-4 -12.5l-2 -4q-21 -6 -58 -6l-6 6q8 13 8 42q0 50 -35 76.5t-96 26.5
q-91 0 -143 -58.5t-52 -159.5q0 -102 54 -161.5t150 -59.5q68 0 126 29v54q0 47 -7 89h-71zM274 611q0 17 11 28t28 11q18 0 29 -11t11 -28q0 -18 -11 -29t-29 -11q-17 0 -28 11t-11 29z" />
    <glyph glyph-name="H.smcp" horiz-adv-x="617" 
d="M463 0v235h-310v-235h-66v490h66v-225h310v225h66v-490h-66z" />
    <glyph glyph-name="Hbar.smcp" horiz-adv-x="616" 
d="M463 0v235h-310v-235h-66v365h-52v30h52v95h66v-95h310v95h66v-95h52v-30h-52v-365h-66zM153 365v-100h310v100h-310z" />
    <glyph glyph-name="Hcircumflex.smcp" horiz-adv-x="617" 
d="M463 0v235h-310v-235h-66v490h66v-225h310v225h66v-490h-66zM440 555l-6 -7h-28l-98 99l-99 -99h-28l-6 7l123 142h20z" />
    <glyph glyph-name="I.smcp" horiz-adv-x="240" 
d="M87 0v490h66v-490h-66z" />
    <glyph glyph-name="Iacute.smcp" horiz-adv-x="240" 
d="M87 0v490h66v-490h-66zM82 548l-6 7l92 142q17 0 31 -2.5t19 -4.5l6 -3v-7l-117 -132h-25z" />
    <glyph glyph-name="Ibreve.smcp" horiz-adv-x="240" 
d="M87 0v490h66v-490h-66zM-14 637l15 15q5 -6 14 -16t40 -26t65 -16q35 0 64.5 14.5t41.5 29.5l13 14l15 -15q-1 -3 -4 -9t-14.5 -20.5t-25.5 -25.5t-38.5 -20t-51.5 -9t-51 8.5t-38.5 21t-25 25t-15.5 20.5z" />
    <glyph glyph-name="Icircumflex.smcp" horiz-adv-x="240" 
d="M87 0v490h66v-490h-66zM253 555l-6 -7h-28l-98 99l-99 -99h-28l-6 7l122 142h21z" />
    <glyph glyph-name="Idieresis.smcp" horiz-adv-x="240" 
d="M87 0v490h66v-490h-66zM-23 595q0 17 10.5 27t27.5 10q16 0 26 -10.5t10 -26.5t-10 -26.5t-26 -10.5q-17 0 -27.5 10t-10.5 27zM190 595q0 17 10 27t27 10t27 -10t10 -27t-10 -27t-27 -10t-27 10t-10 27z" />
    <glyph glyph-name="Idotaccent.smcp" horiz-adv-x="240" 
d="M87 0v490h66v-490h-66zM76 615q0 19 12 31.5t32 12.5t32.5 -12t12.5 -32t-12.5 -32.5t-32.5 -12.5t-32 12.5t-12 32.5z" />
    <glyph glyph-name="Igrave.smcp" horiz-adv-x="240" 
d="M87 0v490h66v-490h-66zM165 555l-6 -7h-26l-116 132v7q17 10 56 10z" />
    <glyph glyph-name="Imacron.smcp" horiz-adv-x="240" 
d="M87 0v490h66v-490h-66zM2 577v37h237v-37h-237z" />
    <glyph glyph-name="Iogonek.smcp" horiz-adv-x="240" 
d="M87 0v490h66v-490h-15q-4 -3 -11.5 -13t-15.5 -30t-8 -40q0 -46 44 -46q10 0 19 2.5t12 5.5l4 3l15 -15q-18 -28 -60 -28q-31 0 -52.5 19.5t-21.5 54.5q0 54 44 87h-20z" />
    <glyph glyph-name="Itilde.smcp" horiz-adv-x="240" 
d="M87 0v490h66v-490h-66zM75 636q25 0 51 -18t47 -18q20 0 37.5 10t25.5 20l8 9l15 -15q-1 -3 -3.5 -7t-10.5 -15.5t-18 -20t-26.5 -15.5t-34.5 -7q-25 0 -51 18t-47 18q-20 0 -37.5 -9.5t-25.5 -19.5l-8 -10l-15 15q1 3 3.5 7t10.5 15.5t18 20t26.5 15.5t34.5 7z" />
    <glyph glyph-name="IJ.smcp" horiz-adv-x="502" 
d="M88 228v262h66v-262h-66zM237 21q112 0 112 144v325h66v-324q0 -82 -47 -127t-133 -45q-71 0 -113 29.5t-42 77.5q0 12 2.5 22.5t5.5 14.5l2 5q20 7 57 7l7 -7q-10 -17 -10 -44q0 -37 25 -57.5t68 -20.5z" />
    <glyph glyph-name="J.smcp" horiz-adv-x="415" 
d="M262 148v342h65v-341q0 -155 -157 -155q-41 0 -73.5 10t-44.5 20l-12 11q0 18 7 34t14 23l7 7h7q1 -3 3.5 -8.5t11 -19t18.5 -23.5t27.5 -18.5t36.5 -8.5q90 0 90 127z" />
    <glyph glyph-name="Jcircumflex.smcp" horiz-adv-x="415" 
d="M262 148v342h65v-341q0 -155 -157 -155q-41 0 -73.5 10t-44.5 20l-12 11q0 18 7 34t14 23l7 7h7q1 -3 3.5 -8.5t11 -19t18.5 -23.5t27.5 -18.5t36.5 -8.5q90 0 90 127zM428 563l-6 -6h-28l-98 98l-99 -98h-28l-6 6l123 142h20z" />
    <glyph glyph-name="K.smcp" horiz-adv-x="524" 
d="M87 0v490h66v-218h42l213 218h45l-208 -214l112 -137q32 -37 64.5 -70t48.5 -48l16 -15v-6h-80l-214 242h-39v-242h-66z" />
    <glyph glyph-name="Kcommaaccent.smcp" horiz-adv-x="524" 
d="M87 0v490h66v-218h42l213 218h45l-208 -214l112 -137q32 -37 64.5 -70t48.5 -48l16 -15v-6h-80l-214 242h-39v-242h-66zM227 -215l-12 12q5 5 12 15t19 41.5t12 63.5q0 12 -2 22.5t-4 14.5l-1 4l5 5q13 0 25 -2t17 -4l6 -2q4 -9 4 -27q0 -26 -8.5 -50t-20 -40
t-23.5 -28.5t-20 -18.5z" />
    <glyph glyph-name="L.smcp" horiz-adv-x="450" 
d="M87 0v490h66v-460h127q39 0 70 3.5t42 6.5l12 4l6 -6v-38h-323z" />
    <glyph glyph-name="Lacute.smcp" horiz-adv-x="450" 
d="M87 0v490h66v-460h127q39 0 70 3.5t42 6.5l12 4l6 -6v-38h-323zM75 548l-6 7l92 142q17 0 31 -2.5t20 -4.5l5 -3v-7l-116 -132h-26z" />
    <glyph glyph-name="Lcaron.smcp" horiz-adv-x="450" 
d="M87 0v490h66v-460h127q39 0 70 3.5t42 6.5l12 4l6 -6v-38h-323zM296 320l-12 12q5 5 12 15t19 41t12 64q0 12 -1.5 22t-3.5 14l-1 5l4 4q14 0 26 -2t17 -4l6 -2q4 -9 4 -27q0 -40 -20.5 -75.5t-41.5 -50.5z" />
    <glyph glyph-name="Lcommaaccent.smcp" horiz-adv-x="450" 
d="M87 0v490h66v-460h127q39 0 70 3.5t42 6.5l12 4l6 -6v-38h-323zM200 -215l-12 12q5 5 12 15t19 41.5t12 63.5q0 12 -1.5 22t-3.5 15l-2 4l5 5q13 0 25 -2t18 -4l5 -2q4 -9 4 -27q0 -41 -20.5 -76.5t-40.5 -51.5z" />
    <glyph glyph-name="Ldot.smcp" horiz-adv-x="450" 
d="M87 0v490h66v-460h127q39 0 70 3.5t42 6.5l12 4l6 -6v-38h-323zM300 247q0 17 10 27t26 10t26.5 -10t10.5 -27t-10.5 -27t-26.5 -10t-26 10t-10 27z" />
    <glyph glyph-name="Lslash.smcp" horiz-adv-x="458" 
d="M38 187l-13 21l69 38v244h66v-207l70 39l12 -22l-82 -46v-224h128q39 0 70 3.5t42 6.5l12 4l6 -6v-38h-324v218z" />
    <glyph glyph-name="M.smcp" horiz-adv-x="725" 
d="M596 0l-62 427l-2 3l-159 -416h-45l-10 11l-164 403l-4 -3l-52 -425h-36l46 369q4 32 5 60.5t1 41.5l-1 13l7 6h79l164 -402l153 402h78l70 -490h-68z" />
    <glyph glyph-name="N.smcp" horiz-adv-x="600" 
d="M87 0v294q0 56 -3.5 103.5t-6.5 66.5l-3 20l7 6h25l370 -383v383h37v-490h-21l-371 383v-383h-34z" />
    <glyph glyph-name="Nacute.smcp" horiz-adv-x="600" 
d="M87 0v294q0 56 -3.5 103.5t-6.5 66.5l-3 20l7 6h25l370 -383v383h37v-490h-21l-371 383v-383h-34zM261 548l-6 7l92 142q17 0 31.5 -2.5t19.5 -4.5l6 -3v-7l-117 -132h-26z" />
    <glyph glyph-name="Ncaron.smcp" horiz-adv-x="600" 
d="M87 0v294q0 56 -3.5 103.5t-6.5 66.5l-3 20l7 6h25l370 -383v383h37v-490h-21l-371 383v-383h-34zM426 694l6 -6l-122 -143h-21l-122 143l6 6h28l98 -98l99 98h28z" />
    <glyph glyph-name="Ncommaaccent.smcp" horiz-adv-x="600" 
d="M87 0v294q0 56 -3.5 103.5t-6.5 66.5l-3 20l7 6h25l370 -383v383h37v-490h-21l-371 383v-383h-34zM265 -215l-12 12q5 5 12 15t19 41.5t12 63.5q0 12 -1.5 22t-2.5 15l-2 4l4 5q14 0 26 -2t18 -4l5 -2q4 -9 4 -27q0 -41 -20.5 -76.5t-40.5 -51.5z" />
    <glyph glyph-name="Ntilde.smcp" horiz-adv-x="600" 
d="M87 0v294q0 56 -3.5 103.5t-6.5 66.5l-3 20l7 6h25l370 -383v383h37v-490h-21l-371 383v-383h-34zM255 636q25 0 51 -18t47 -18q20 0 37.5 10t25.5 20l8 9l15 -15q-1 -3 -3.5 -7t-10.5 -15.5t-18 -20t-26.5 -15.5t-34.5 -7q-25 0 -51 18t-47 18q-20 0 -37.5 -9.5
t-25.5 -19.5l-8 -10l-15 15q1 3 3.5 7t10.5 15.5t18 20t26.5 15.5t34.5 7z" />
    <glyph glyph-name="Eng.smcp" horiz-adv-x="600" 
d="M458 -27v62l-337 348v-383h-34v294q0 56 -3.5 103.5t-6.5 66.5l-3 20l7 6h25l370 -383v383h37v-516q0 -155 -147 -155q-41 0 -73.5 10.5t-44.5 20.5l-12 10q0 18 7 34t14 23l7 7h7q1 -3 3.5 -8.5t11 -19t18.5 -23.5t27.5 -18.5t36.5 -8.5q90 0 90 127z" />
    <glyph glyph-name="O.smcp" horiz-adv-x="639" 
d="M59 245q0 112 72 181.5t188 69.5t188.5 -69.5t72.5 -181.5t-72.5 -181.5t-188.5 -69.5t-188 69.5t-72 181.5zM131 245q0 -104 52 -164t136 -60q85 0 136.5 60t51.5 164t-51.5 164t-136.5 60q-84 0 -136 -60t-52 -164z" />
    <glyph glyph-name="Oacute.smcp" horiz-adv-x="639" 
d="M59 245q0 112 72 181.5t188 69.5t188.5 -69.5t72.5 -181.5t-72.5 -181.5t-188.5 -69.5t-188 69.5t-72 181.5zM131 245q0 -104 52 -164t136 -60q85 0 136.5 60t51.5 164t-51.5 164t-136.5 60q-84 0 -136 -60t-52 -164zM281 548l-6 7l92 142q17 0 31 -2.5t20 -4.5l5 -3v-7
l-116 -132h-26z" />
    <glyph glyph-name="Obreve.smcp" horiz-adv-x="639" 
d="M59 245q0 112 72 181.5t188 69.5t188.5 -69.5t72.5 -181.5t-72.5 -181.5t-188.5 -69.5t-188 69.5t-72 181.5zM131 245q0 -104 52 -164t136 -60q85 0 136.5 60t51.5 164t-51.5 164t-136.5 60q-84 0 -136 -60t-52 -164zM185 637l15 15q5 -6 14 -16t40 -26t65 -16
q35 0 64.5 14.5t42.5 29.5l12 14l15 -15q-1 -3 -4 -9t-14.5 -20.5t-25.5 -25.5t-38.5 -20t-51.5 -9t-51 8.5t-38.5 21t-25 25t-14.5 20.5z" />
    <glyph glyph-name="Ocircumflex.smcp" horiz-adv-x="639" 
d="M59 245q0 112 72 181.5t188 69.5t188.5 -69.5t72.5 -181.5t-72.5 -181.5t-188.5 -69.5t-188 69.5t-72 181.5zM131 245q0 -104 52 -164t136 -60q85 0 136.5 60t51.5 164t-51.5 164t-136.5 60q-84 0 -136 -60t-52 -164zM452 555l-6 -7h-28l-99 99l-98 -99h-28l-6 7l122 142
h21z" />
    <glyph glyph-name="Odieresis.smcp" horiz-adv-x="639" 
d="M59 245q0 112 72 181.5t188 69.5t188.5 -69.5t72.5 -181.5t-72.5 -181.5t-188.5 -69.5t-188 69.5t-72 181.5zM131 245q0 -104 52 -164t136 -60q85 0 136.5 60t51.5 164t-51.5 164t-136.5 60q-84 0 -136 -60t-52 -164zM176 595q0 17 10 27t27 10t27 -10t10 -27t-10 -27
t-27 -10t-27 10t-10 27zM389 595q0 17 10.5 27t26.5 10t26 -10t10 -27t-10 -27t-26 -10t-26.5 10t-10.5 27z" />
    <glyph glyph-name="Ograve.smcp" horiz-adv-x="639" 
d="M59 245q0 112 72 181.5t188 69.5t188.5 -69.5t72.5 -181.5t-72.5 -181.5t-188.5 -69.5t-188 69.5t-72 181.5zM131 245q0 -104 52 -164t136 -60q85 0 136.5 60t51.5 164t-51.5 164t-136.5 60q-84 0 -136 -60t-52 -164zM363 555l-6 -7h-25l-117 132v7q17 10 56 10z" />
    <glyph glyph-name="Ohungarumlaut.smcp" horiz-adv-x="639" 
d="M59 245q0 112 72 181.5t188 69.5t188.5 -69.5t72.5 -181.5t-72.5 -181.5t-188.5 -69.5t-188 69.5t-72 181.5zM131 245q0 -104 52 -164t136 -60q85 0 136.5 60t51.5 164t-51.5 164t-136.5 60q-84 0 -136 -60t-52 -164zM200 548l-6 7l91 142q17 0 31 -2.5t20 -4.5l5 -3v-7
l-116 -132h-25zM360 548l-6 7l97 142q17 0 30.5 -2.5t18.5 -4.5l5 -3v-7l-119 -132h-26z" />
    <glyph glyph-name="Omacron.smcp" horiz-adv-x="639" 
d="M59 245q0 112 72 181.5t188 69.5t188.5 -69.5t72.5 -181.5t-72.5 -181.5t-188.5 -69.5t-188 69.5t-72 181.5zM131 245q0 -104 52 -164t136 -60q85 0 136.5 60t51.5 164t-51.5 164t-136.5 60q-84 0 -136 -60t-52 -164zM201 577v37h236v-37h-236z" />
    <glyph glyph-name="Oslash.smcp" horiz-adv-x="639" 
d="M175 -18h-36l31 51q-53 33 -82 87.5t-29 124.5q0 112 72 181.5t188 69.5q66 0 121 -25l23 37h36l-32 -51q53 -33 83 -88t30 -124q0 -112 -72.5 -181.5t-188.5 -69.5q-68 0 -122 24zM508 245q0 114 -63 175l-228 -370q43 -29 102 -29q85 0 137 60t52 164zM130 245
q0 -115 63 -176l228 371q-44 29 -102 29q-85 0 -137 -60t-52 -164z" />
    <glyph glyph-name="Oslashacute.smcp" horiz-adv-x="639" 
d="M175 -18h-36l31 51q-53 33 -82 87.5t-29 124.5q0 112 72 181.5t188 69.5q66 0 121 -25l23 37h36l-32 -51q53 -33 83 -88t30 -124q0 -112 -72.5 -181.5t-188.5 -69.5q-68 0 -122 24zM130 245q0 -115 63 -176l228 371q-44 29 -102 29q-85 0 -137 -60t-52 -164zM508 245
q0 114 -63 175l-228 -370q43 -29 102 -29q85 0 137 60t52 164zM273 548l-6 7l92 142q17 0 31.5 -2.5t19.5 -4.5l6 -3v-7l-117 -132h-26z" />
    <glyph glyph-name="Otilde.smcp" horiz-adv-x="639" 
d="M59 245q0 112 72 181.5t188 69.5t188.5 -69.5t72.5 -181.5t-72.5 -181.5t-188.5 -69.5t-188 69.5t-72 181.5zM131 245q0 -104 52 -164t136 -60q85 0 136.5 60t51.5 164t-51.5 164t-136.5 60q-84 0 -136 -60t-52 -164zM274 636q25 0 51 -18t47 -18q20 0 38 10t26 20l7 9
l15 -15q-1 -3 -3.5 -7t-10.5 -15.5t-18 -20t-26.5 -15.5t-34.5 -7q-25 0 -51 18t-47 18q-20 0 -37.5 -9.5t-25.5 -19.5l-8 -10l-15 15q1 3 3.5 7t10.5 15.5t18 20t26.5 15.5t34.5 7z" />
    <glyph glyph-name="OE.smcp" horiz-adv-x="817" 
d="M429 0v21q-50 -27 -114 -27q-112 0 -184 70t-72 181t72 181t184 70q63 0 114 -28v22h322v-37l-7 -7q-36 14 -124 14h-125v-195h208l6 -5v-25h-214v-205h133q39 0 70 3.5t42 6.5l12 4l7 -6v-38h-330zM319 21q67 0 110 52v345q-43 51 -110 51q-84 0 -136 -60t-52 -164
t52 -164t136 -60z" />
    <glyph glyph-name="P.smcp" horiz-adv-x="505" 
d="M87 0v490h177q88 0 139.5 -37.5t51.5 -103.5q0 -65 -51.5 -102.5t-139.5 -37.5h-111v-209h-66zM254 460h-101v-221h101q61 0 97 29t36 81q0 53 -36 82t-97 29z" />
    <glyph glyph-name="Q.smcp" horiz-adv-x="639" 
d="M319 -9q-116 0 -188 69.5t-72 182.5t72 183t188 70t188.5 -70t72.5 -183q0 -91 -48 -155t-131 -87q20 -6 51 -19t57 -21t53 -8q16 0 27 3t15 6l3 2l5 -5q0 -15 -2 -29t-4 -20l-3 -6q-11 -7 -39 -7q-42 0 -84.5 23.5t-83 47t-77.5 23.5zM131 243q0 -105 51.5 -165.5
t136.5 -60.5t136.5 60.5t51.5 165.5q0 106 -51.5 166t-136.5 60t-136.5 -60t-51.5 -166z" />
    <glyph glyph-name="R.smcp" horiz-adv-x="519" 
d="M87 0v490h168q88 0 140 -36t52 -99q0 -51 -32.5 -85t-91.5 -46l66 -103q24 -36 46 -65t32 -40l10 -12l-4 -4h-73l-144 218h-103v-218h-66zM245 460h-92v-211h92q62 0 98 28t36 78t-36 77.5t-98 27.5z" />
    <glyph glyph-name="Racute.smcp" horiz-adv-x="519" 
d="M87 0v490h168q88 0 140 -36t52 -99q0 -51 -32.5 -85t-91.5 -46l66 -103q24 -36 46 -65t32 -40l10 -12l-4 -4h-73l-144 218h-103v-218h-66zM245 460h-92v-211h92q62 0 98 28t36 78t-36 77.5t-98 27.5zM211 548l-7 7l93 142q17 0 31 -2.5t20 -4.5l5 -3v-7l-117 -132h-25z
" />
    <glyph glyph-name="Rcaron.smcp" horiz-adv-x="519" 
d="M87 0v490h168q88 0 140 -36t52 -99q0 -51 -32.5 -85t-91.5 -46l66 -103q24 -36 46 -65t32 -40l10 -12l-4 -4h-73l-144 218h-103v-218h-66zM245 460h-92v-211h92q62 0 98 28t36 78t-36 77.5t-98 27.5zM383 694l6 -6l-122 -143h-21l-122 143l6 6h28l99 -98l98 98h28z" />
    <glyph glyph-name="Rcommaaccent.smcp" horiz-adv-x="519" 
d="M87 0v490h168q88 0 140 -36t52 -99q0 -51 -32.5 -85t-91.5 -46l66 -103q24 -36 46 -65t32 -40l10 -12l-4 -4h-73l-144 218h-103v-218h-66zM245 460h-92v-211h92q62 0 98 28t36 78t-36 77.5t-98 27.5zM226 -215l-12 12q5 5 12 15t19 41.5t12 63.5q0 12 -1.5 22t-3.5 15
l-1 4l4 5q14 0 26 -2t17 -4l6 -2q4 -9 4 -27q0 -41 -20.5 -76.5t-41.5 -51.5z" />
    <glyph glyph-name="S.smcp" horiz-adv-x="503" 
d="M241 469q-52 0 -78.5 -20t-26.5 -55q0 -33 25.5 -53t115.5 -68q98 -54 128 -80.5t30 -71.5q0 -60 -46 -93.5t-139 -33.5q-59 0 -104.5 13.5t-61.5 26.5l-16 14q0 17 7 31.5t15 20.5l7 6h9q2 -3 6.5 -9t19 -20.5t30.5 -26t42 -20.5t53 -9q53 0 85.5 22t32.5 58
q0 24 -19.5 45t-37 31t-68.5 36q-13 7 -19 10q-87 42 -120 71t-33 80q0 59 44.5 90.5t129.5 31.5q50 0 90 -11t55 -22l15 -11q0 -17 -7 -32t-15 -22l-7 -6h-8q-2 3 -5 8.5t-15 18.5t-26 23t-37.5 18.5t-50.5 8.5z" />
    <glyph glyph-name="Sacute.smcp" horiz-adv-x="503" 
d="M241 469q-52 0 -78.5 -20t-26.5 -55q0 -33 25.5 -53t115.5 -68q98 -54 128 -80.5t30 -71.5q0 -60 -46 -93.5t-139 -33.5q-59 0 -104.5 13.5t-61.5 26.5l-16 14q0 17 7 31.5t15 20.5l7 6h9q2 -3 6.5 -9t19 -20.5t30.5 -26t42 -20.5t53 -9q53 0 85.5 22t32.5 58
q0 24 -19.5 45t-37 31t-68.5 36q-13 7 -19 10q-87 42 -120 71t-33 80q0 59 44.5 90.5t129.5 31.5q50 0 90 -11t55 -22l15 -11q0 -17 -7 -32t-15 -22l-7 -6h-8q-2 3 -5 8.5t-15 18.5t-26 23t-37.5 18.5t-50.5 8.5zM206 548l-6 7l92 142q17 0 31 -2.5t19 -4.5l6 -3v-7
l-116 -132h-26z" />
    <glyph glyph-name="Scaron.smcp" horiz-adv-x="503" 
d="M241 469q-52 0 -78.5 -20t-26.5 -55q0 -33 25.5 -53t115.5 -68q98 -54 128 -80.5t30 -71.5q0 -60 -46 -93.5t-139 -33.5q-59 0 -104.5 13.5t-61.5 26.5l-16 14q0 17 7 31.5t15 20.5l7 6h9q2 -3 6.5 -9t19 -20.5t30.5 -26t42 -20.5t53 -9q53 0 85.5 22t32.5 58
q0 24 -19.5 45t-37 31t-68.5 36q-13 7 -19 10q-87 42 -120 71t-33 80q0 59 44.5 90.5t129.5 31.5q50 0 90 -11t55 -22l15 -11q0 -17 -7 -32t-15 -22l-7 -6h-8q-2 3 -5 8.5t-15 18.5t-26 23t-37.5 18.5t-50.5 8.5zM378 694l6 -6l-122 -143h-21l-122 143l6 6h28l98 -98l99 98
h28z" />
    <glyph glyph-name="Scedilla.smcp" horiz-adv-x="503" 
d="M227 -69l10 63q-54 2 -96.5 15.5t-57.5 26.5l-15 12q0 17 7 31.5t15 20.5l7 6h9q2 -3 6.5 -9t19 -20.5t30.5 -26t42 -20.5t53 -9q53 0 85.5 22t32.5 58q0 24 -19.5 45t-37 31t-68.5 36q-13 7 -19 10q-87 42 -120 71t-33 80q0 59 44.5 90.5t129.5 31.5q50 0 90 -11t55 -22
l15 -11q0 -17 -7 -32t-15 -22l-7 -6h-8q-2 3 -5 8.5t-15 18.5t-26 23t-37.5 18.5t-50.5 8.5q-52 0 -78.5 -20t-26.5 -55q0 -33 25.5 -53t115.5 -68q98 -54 128 -80.5t30 -71.5q0 -57 -42 -90t-126 -36l-7 -46q29 0 47.5 -17t18.5 -45t-20 -45t-53 -17q-23 0 -41.5 8.5
t-25.5 17.5l-6 9l14 13q18 -19 50 -19q42 0 42 34q0 36 -53 36z" />
    <glyph glyph-name="Scircumflex.smcp" horiz-adv-x="503" 
d="M241 469q-52 0 -78.5 -20t-26.5 -55q0 -33 25.5 -53t115.5 -68q98 -54 128 -80.5t30 -71.5q0 -60 -46 -93.5t-139 -33.5q-59 0 -104.5 13.5t-61.5 26.5l-16 14q0 17 7 31.5t15 20.5l7 6h9q2 -3 6.5 -9t19 -20.5t30.5 -26t42 -20.5t53 -9q53 0 85.5 22t32.5 58
q0 24 -19.5 45t-37 31t-68.5 36q-13 7 -19 10q-87 42 -120 71t-33 80q0 59 44.5 90.5t129.5 31.5q50 0 90 -11t55 -22l15 -11q0 -17 -7 -32t-15 -22l-7 -6h-8q-2 3 -5 8.5t-15 18.5t-26 23t-37.5 18.5t-50.5 8.5zM384 569l-6 -7h-28l-99 99l-98 -99h-28l-6 7l122 142h21z
" />
    <glyph glyph-name="Scommaaccent.smcp" horiz-adv-x="503" 
d="M241 469q-52 0 -78.5 -20t-26.5 -55q0 -33 25.5 -53t115.5 -68q98 -54 128 -80.5t30 -71.5q0 -60 -46 -93.5t-139 -33.5q-59 0 -104.5 13.5t-61.5 26.5l-16 14q0 17 7 31.5t15 20.5l7 6h9q2 -3 6.5 -9t19 -20.5t30.5 -26t42 -20.5t53 -9q53 0 85.5 22t32.5 58
q0 24 -19.5 45t-37 31t-68.5 36q-13 7 -19 10q-87 42 -120 71t-33 80q0 59 44.5 90.5t129.5 31.5q50 0 90 -11t55 -22l15 -11q0 -17 -7 -32t-15 -22l-7 -6h-8q-2 3 -5 8.5t-15 18.5t-26 23t-37.5 18.5t-50.5 8.5zM209 -215l-12 12q5 5 12 15t19 41.5t12 63.5q0 12 -2 22
t-4 15l-1 4l5 5q14 0 26 -2t18 -4l5 -2q3 -9 3 -27q0 -26 -8.5 -50t-20 -40t-23.5 -28.5t-20 -18.5z" />
    <glyph glyph-name="T.smcp" horiz-adv-x="532" 
d="M299 460v-460h-66v460h-66q-39 0 -70 -3.5t-43 -6.5l-11 -4l-6 7v37h458v-37l-6 -7q-36 14 -124 14h-66z" />
    <glyph glyph-name="Tbar.smcp" horiz-adv-x="532" 
d="M134 247v31h99v182h-66q-39 0 -70 -3.5t-43 -6.5l-11 -4l-6 7v37h458v-37l-6 -7q-36 14 -124 14h-66v-182h99v-31h-99v-247h-66v247h-99z" />
    <glyph glyph-name="Tcaron.smcp" horiz-adv-x="532" 
d="M299 460v-460h-66v460h-66q-39 0 -70 -3.5t-43 -6.5l-11 -4l-6 7v37h458v-37l-6 -7q-36 14 -124 14h-66zM392 689l6 -6l-122 -142h-21l-122 142l6 6h28l99 -98l98 98h28z" />
    <glyph glyph-name="Tcommaaccent.smcp" horiz-adv-x="532" 
d="M299 460v-460h-66v460h-66q-39 0 -70 -3.5t-43 -6.5l-11 -4l-6 7v37h458v-37l-6 -7q-36 14 -124 14h-66zM222 -215l-12 12q5 5 12 15t19 41.5t12 63.5q0 12 -1.5 22t-3.5 15l-1 4l4 5q14 0 26 -2t17 -4l6 -2q3 -9 3 -27q0 -41 -20.5 -76.5t-40.5 -51.5z" />
    <glyph glyph-name="uni021A.smcp" horiz-adv-x="532" 
d="M299 460v-460h-66v460h-66q-39 0 -70 -3.5t-43 -6.5l-11 -4l-6 7v37h458v-37l-6 -7q-36 14 -124 14h-66zM222 -215l-12 12q5 5 12 15t19 41.5t12 63.5q0 12 -1.5 22t-3.5 15l-1 4l4 5q14 0 26 -2t17 -4l6 -2q3 -9 3 -27q0 -41 -20.5 -76.5t-40.5 -51.5z" />
    <glyph glyph-name="U.smcp" horiz-adv-x="582" 
d="M465 178v312h34v-311q0 -82 -57 -133.5t-152 -51.5t-151.5 51.5t-56.5 133.5v311h66v-320q0 -63 43.5 -103.5t112.5 -40.5q72 0 116.5 42t44.5 110z" />
    <glyph glyph-name="Uacute.smcp" horiz-adv-x="582" 
d="M465 178v312h34v-311q0 -82 -57 -133.5t-152 -51.5t-151.5 51.5t-56.5 133.5v311h66v-320q0 -63 43.5 -103.5t112.5 -40.5q72 0 116.5 42t44.5 110zM255 548l-6 7l92 142q17 0 31.5 -2.5t19.5 -4.5l6 -3v-7l-117 -132h-26z" />
    <glyph glyph-name="Ubreve.smcp" horiz-adv-x="582" 
d="M465 178v312h34v-311q0 -82 -57 -133.5t-152 -51.5t-151.5 51.5t-56.5 133.5v311h66v-320q0 -63 43.5 -103.5t112.5 -40.5q72 0 116.5 42t44.5 110zM160 637l15 15q5 -6 14 -16t40 -26t65 -16q35 0 64.5 14.5t41.5 29.5l13 14l15 -15q-1 -3 -4 -9t-14.5 -20.5
t-25.5 -25.5t-38.5 -20t-51.5 -9t-51 8.5t-38.5 21t-25 25t-15.5 20.5z" />
    <glyph glyph-name="Ucircumflex.smcp" horiz-adv-x="582" 
d="M465 178v312h34v-311q0 -82 -57 -133.5t-152 -51.5t-151.5 51.5t-56.5 133.5v311h66v-320q0 -63 43.5 -103.5t112.5 -40.5q72 0 116.5 42t44.5 110zM426 555l-6 -7h-28l-99 99l-98 -99h-28l-6 7l122 142h20z" />
    <glyph glyph-name="Udieresis.smcp" horiz-adv-x="582" 
d="M465 178v312h34v-311q0 -82 -57 -133.5t-152 -51.5t-151.5 51.5t-56.5 133.5v311h66v-320q0 -63 43.5 -103.5t112.5 -40.5q72 0 116.5 42t44.5 110zM150 595q0 17 10 27t27 10q16 0 26 -10t10 -27t-10 -27t-26 -10q-17 0 -27 10t-10 27zM363 595q0 17 10.5 27t26.5 10
t26 -10t10 -27t-10 -27t-26 -10t-26.5 10t-10.5 27z" />
    <glyph glyph-name="Ugrave.smcp" horiz-adv-x="582" 
d="M465 178v312h34v-311q0 -82 -57 -133.5t-152 -51.5t-151.5 51.5t-56.5 133.5v311h66v-320q0 -63 43.5 -103.5t112.5 -40.5q72 0 116.5 42t44.5 110zM338 555l-7 -7h-25l-117 132v7q17 10 56 10z" />
    <glyph glyph-name="Uhungarumlaut.smcp" horiz-adv-x="582" 
d="M465 178v312h34v-311q0 -82 -57 -133.5t-152 -51.5t-151.5 51.5t-56.5 133.5v311h66v-320q0 -63 43.5 -103.5t112.5 -40.5q72 0 116.5 42t44.5 110zM174 548l-6 7l91 142q17 0 31 -2.5t20 -4.5l5 -3v-7l-116 -132h-25zM334 548l-6 7l97 142q17 0 30.5 -2.5t18.5 -4.5
l5 -3v-7l-119 -132h-26z" />
    <glyph glyph-name="Umacron.smcp" horiz-adv-x="582" 
d="M465 178v312h34v-311q0 -82 -57 -133.5t-152 -51.5t-151.5 51.5t-56.5 133.5v311h66v-320q0 -63 43.5 -103.5t112.5 -40.5q72 0 116.5 42t44.5 110zM175 577v37h236v-37h-236z" />
    <glyph glyph-name="Uogonek.smcp" horiz-adv-x="582" 
d="M465 178v312h34v-311q0 -70 -42.5 -118.5t-116.5 -61.5q-33 -42 -33 -82q0 -46 43 -46q11 0 19.5 2.5t12.5 5.5l3 3l15 -15q-18 -28 -60 -28q-31 0 -52 19t-21 55q0 48 36 81h-13q-95 0 -151.5 51.5t-56.5 133.5v311h66v-320q0 -63 43.5 -103.5t112.5 -40.5
q72 0 116.5 42t44.5 110z" />
    <glyph glyph-name="Uring.smcp" horiz-adv-x="582" 
d="M465 178v312h34v-311q0 -82 -57 -133.5t-152 -51.5t-151.5 51.5t-56.5 133.5v311h66v-320q0 -63 43.5 -103.5t112.5 -40.5q72 0 116.5 42t44.5 110zM215 621q0 35 22 56.5t57 21.5t57 -21.5t22 -56.5t-22 -57t-57 -22t-57 22t-22 57zM249 621q0 -20 13 -33t32 -13t32 13
t13 33q0 19 -12.5 32t-32.5 13t-32.5 -13t-12.5 -32z" />
    <glyph glyph-name="Utilde.smcp" horiz-adv-x="582" 
d="M465 178v312h34v-311q0 -82 -57 -133.5t-152 -51.5t-151.5 51.5t-56.5 133.5v311h66v-320q0 -63 43.5 -103.5t112.5 -40.5q72 0 116.5 42t44.5 110zM248 636q25 0 51 -18t47 -18q20 0 38 10t26 20l7 9l15 -15q-1 -3 -3.5 -7t-10.5 -15.5t-18 -20t-26.5 -15.5t-34.5 -7
q-25 0 -51 18t-47 18q-20 0 -37.5 -9.5t-25.5 -19.5l-8 -10l-15 15q1 3 3.5 7t10.5 15.5t18 20t26.5 15.5t34.5 7z" />
    <glyph glyph-name="V.smcp" horiz-adv-x="558" 
d="M252 11l-161 358q-16 36 -31 65t-22 40l-6 10v6h75l195 -430l188 430h37l-215 -490h-48z" />
    <glyph glyph-name="W.smcp" horiz-adv-x="825" 
d="M549 11l-127 322l-124 -333h-48l-11 11l-151 358q-15 36 -29 64.5t-21 38.5l-6 11v7h74l180 -425l118 314q-13 33 -25.5 59t-18.5 36l-5 9v7h75l166 -423l162 423h37l-188 -490h-47z" />
    <glyph glyph-name="Wacute.smcp" horiz-adv-x="825" 
d="M549 11l-127 322l-124 -333h-48l-11 11l-151 358q-15 36 -29 64.5t-21 38.5l-6 11v7h74l180 -425l118 314q-13 33 -25.5 59t-18.5 36l-5 9v7h75l166 -423l162 423h37l-188 -490h-47zM376 548l-6 7l92 142q17 0 31.5 -2.5t20.5 -4.5l5 -3v-7l-117 -132h-26z" />
    <glyph glyph-name="Wcircumflex.smcp" horiz-adv-x="825" 
d="M549 11l-127 322l-124 -333h-48l-11 11l-151 358q-15 36 -29 64.5t-21 38.5l-6 11v7h74l180 -425l118 314q-13 33 -25.5 59t-18.5 36l-5 9v7h75l166 -423l162 423h37l-188 -490h-47zM555 555l-6 -7h-28l-99 99l-98 -99h-28l-7 7l123 142h20z" />
    <glyph glyph-name="Wdieresis.smcp" horiz-adv-x="825" 
d="M549 11l-127 322l-124 -333h-48l-11 11l-151 358q-15 36 -29 64.5t-21 38.5l-6 11v7h74l180 -425l118 314q-13 33 -25.5 59t-18.5 36l-5 9v7h75l166 -423l162 423h37l-188 -490h-47zM279 595q0 17 10.5 27t26.5 10t26.5 -10t10.5 -27t-10.5 -27t-26.5 -10t-26.5 10
t-10.5 27zM492 595q0 17 10 27t27 10t27 -10t10 -27t-10 -27t-27 -10t-27 10t-10 27z" />
    <glyph glyph-name="Wgrave.smcp" horiz-adv-x="825" 
d="M549 11l-127 322l-124 -333h-48l-11 11l-151 358q-15 36 -29 64.5t-21 38.5l-6 11v7h74l180 -425l118 314q-13 33 -25.5 59t-18.5 36l-5 9v7h75l166 -423l162 423h37l-188 -490h-47zM477 555l-7 -7h-25l-117 132v7q17 10 56 10z" />
    <glyph glyph-name="X.smcp" horiz-adv-x="538" 
d="M121 490l157 -205l162 205h44l-186 -231l92 -119q28 -36 55.5 -69.5t40.5 -48.5l14 -16v-6h-79l-170 219l-174 -219h-40l194 245l-188 245h78z" />
    <glyph glyph-name="Y.smcp" horiz-adv-x="517" 
d="M484 490l-190 -270v-220h-67v216l-86 125q-28 39 -55.5 74.5t-41.5 51.5l-13 16v7h81l165 -227l166 227h41z" />
    <glyph glyph-name="Yacute.smcp" horiz-adv-x="517" 
d="M484 490l-190 -270v-220h-67v216l-86 125q-28 39 -55.5 74.5t-41.5 51.5l-13 16v7h81l165 -227l166 227h41zM214 548l-6 7l92 142q17 0 31 -2.5t19 -4.5l6 -3v-7l-117 -132h-25z" />
    <glyph glyph-name="Ycircumflex.smcp" horiz-adv-x="517" 
d="M484 490l-190 -270v-220h-67v216l-86 125q-28 39 -55.5 74.5t-41.5 51.5l-13 16v7h81l165 -227l166 227h41zM392 555l-6 -7h-28l-98 99l-99 -99h-28l-6 7l123 142h20z" />
    <glyph glyph-name="Ydieresis.smcp" horiz-adv-x="517" 
d="M484 490l-190 -270v-220h-67v216l-86 125q-28 39 -55.5 74.5t-41.5 51.5l-13 16v7h81l165 -227l166 227h41zM329 595q0 17 10.5 27t26.5 10t26.5 -10t10.5 -27t-10.5 -27t-26.5 -10t-26.5 10t-10.5 27zM116 595q0 17 10 27t27 10t27 -10t10 -27t-10 -27t-27 -10t-27 10
t-10 27z" />
    <glyph glyph-name="Ygrave.smcp" horiz-adv-x="517" 
d="M484 490l-190 -270v-220h-67v216l-86 125q-28 39 -55.5 74.5t-41.5 51.5l-13 16v7h81l165 -227l166 227h41zM311 562l-6 -6h-26l-117 132v6q18 11 57 11z" />
    </font>
</defs>
</svg>
