<?xml version="1.0" standalone="no"?>
<!DOCTYPE svg PUBLIC "-//W3C//DTD SVG 1.1//EN" "http://www.w3.org/Graphics/SVG/1.1/DTD/svg11.dtd" >
<svg xmlns="http://www.w3.org/2000/svg" xmlns:xlink="http://www.w3.org/1999/xlink" version="1.1">
<metadata>
Created by FontForge 20170731 at Sat Dec 31 14:07:06 2016
 By Aleksey,,,
Copyright (c) 2017 by Andriy Konstantynov. All rights reserved.
</metadata>
<defs>
<font id="OrchideaPro-ExtraBold" horiz-adv-x="592" >
  <font-face 
    font-family="Orchidea Pro ExBd"
    font-weight="800"
    font-stretch="normal"
    units-per-em="1000"
    panose-1="2 11 0 3 6 2 0 0 0 3"
    ascent="800"
    descent="-200"
    x-height="478"
    cap-height="700"
    bbox="-77 -263 1244 976"
    underline-thickness="50"
    underline-position="-250"
    unicode-range="U+0020-FB04"
  />
<missing-glyph horiz-adv-x="225" 
 />
    <glyph glyph-name="ff" unicode="ff" horiz-adv-x="707" 
d="M256 416v-416h-172v418h-75v44l75 21v111q0 81 40.5 125t118.5 44q45 0 80.5 -14.5t48.5 -28.5l13 -14l-25 -26q-16 15 -45 15q-59 0 -59 -87v-130h141v108q0 87 42 132t123 45q46 0 82.5 -14.5t49.5 -28.5l14 -14l-26 -26q-17 15 -47 15q-66 0 -66 -96v-121h128v-62
h-128v-416h-172v416h-141z" />
    <glyph glyph-name="fi" unicode="fi" horiz-adv-x="620" 
d="M256 551v-73h118q48 0 92 3.5t64 6.5l20 4l14 -14v-478h-172v300q0 66 -13 116h-123v-416h-172v418h-75v44l75 21v44q0 106 70.5 170t197.5 64q91 0 146.5 -35t55.5 -96q0 -14 -3 -27.5t-7 -20.5l-3 -6q-51 -13 -144 -13l-13 13q10 25 10 59q0 72 -57 72
q-40 0 -60.5 -42.5t-20.5 -113.5z" />
    <glyph glyph-name="fl" unicode="fl" horiz-adv-x="626" 
d="M397 0v450q0 137 -19 234q-19 11 -48 11q-74 0 -74 -102v-115h80v-62h-80v-416h-172v418h-75v44l75 21v97q0 94 45 138.5t141 44.5q31 0 58.5 -4.5t39.5 -8.5l12 -4q48 0 92 3.5t64 6.5l20 4l13 -14v-746h-172z" />
    <glyph glyph-name="ffi" unicode="ffi" horiz-adv-x="934" 
d="M705 0v300q0 58 -13 116h-123v-416h-172v416h-141v-416h-172v418h-75v44l75 21v111q0 81 40.5 125t118.5 44q45 0 80.5 -14.5t48.5 -28.5l13 -14l-25 -26q-16 15 -45 15q-59 0 -59 -87v-130h141v49q0 106 71 170t197 64q92 0 147.5 -35t55.5 -96q0 -14 -3 -27.5t-7 -20.5
l-3 -6q-51 -13 -144 -13l-13 13q10 25 10 59q0 72 -57 72q-40 0 -61 -42.5t-21 -113.5v-73h119q48 0 92 3.5t64 6.5l20 4l13 -14v-478h-172z" />
    <glyph glyph-name="ffl" unicode="ffl" horiz-adv-x="940" 
d="M711 0v450q0 132 -20 234q-22 11 -47 11q-75 0 -75 -102v-115h81v-62h-81v-416h-172v416h-141v-416h-172v418h-75v44l75 21v111q0 81 40.5 125t118.5 44q45 0 80.5 -14.5t48.5 -28.5l13 -14l-25 -26q-16 15 -45 15q-59 0 -59 -87v-130h141v102q0 94 45 138.5t142 44.5
q31 0 58.5 -4.5t39.5 -8.5l12 -4q48 0 92 3.5t64 6.5l20 4l13 -14v-746h-172z" />
    <glyph glyph-name="f_f_j" unicode="ffj" horiz-adv-x="934" 
d="M705 -23v323q0 58 -13 116h-123v-416h-172v416h-141v-416h-172v418h-75v44l75 21v111q0 81 40.5 125t118.5 44q45 0 80.5 -14.5t48.5 -28.5l13 -14l-25 -26q-16 15 -45 15q-59 0 -59 -87v-130h141v49q0 106 71 170t197 64q92 0 147.5 -35t55.5 -96q0 -14 -3 -27.5
t-7 -20.5l-3 -6q-51 -13 -144 -13l-13 13q10 25 10 59q0 72 -57 72q-40 0 -61 -42.5t-21 -113.5v-73h119q48 0 92 3.5t64 6.5l20 4l13 -14v-442q0 -43 -13 -83t-33.5 -69t-45.5 -54t-50.5 -42t-46 -28.5t-33.5 -17.5l-13 -5l-26 25q4 4 10 10.5t21 28.5t27 45.5t21.5 59
t9.5 71.5z" />
    <glyph glyph-name="f_j" unicode="fj" horiz-adv-x="620" 
d="M392 -23v323q0 66 -13 116h-123v-416h-172v418h-75v44l75 21v44q0 106 70.5 170t197.5 64q91 0 146.5 -35t55.5 -96q0 -14 -3 -27.5t-7 -20.5l-3 -6q-51 -13 -144 -13l-13 13q10 25 10 59q0 72 -57 72q-40 0 -60.5 -42.5t-20.5 -113.5v-73h118q48 0 92 3.5t64 6.5l20 4
l14 -14v-442q0 -59 -24.5 -111.5t-59 -85.5t-69 -57t-59.5 -34l-24 -11l-25 25q4 4 10 10.5t21 28.5t27 45.5t21.5 59t9.5 71.5z" />
    <glyph glyph-name="afii10104_afii10104" unicode="&#x457;&#x457;" horiz-adv-x="579" 
d="M61 0v300q0 50 -7.5 91t-15.5 57l-8 17l14 13q48 0 91.5 3.5t63.5 6.5l20 4l14 -14v-478h-172zM-25 624q0 32 20 51.5t53 19.5t52.5 -19.5t19.5 -51.5q0 -33 -19.5 -53.5t-52.5 -20.5t-53 20.5t-20 53.5zM217 624q0 32 20 51.5t53 19.5t52.5 -19.5t19.5 -51.5
q0 -33 -19.5 -53.5t-52.5 -20.5t-53 20.5t-20 53.5zM350 0v300q0 50 -7.5 91t-14.5 57l-8 17l13 13q48 0 92 3.5t64 6.5l20 4l14 -14v-478h-173zM459 624q0 32 20 51.5t54 19.5q32 0 51.5 -19.5t19.5 -51.5q0 -33 -19.5 -53.5t-51.5 -20.5q-34 0 -54 20.5t-20 53.5z" />
    <glyph glyph-name=".notdef" horiz-adv-x="225" 
 />
    <glyph glyph-name=".null" horiz-adv-x="0" 
 />
    <glyph glyph-name="nonmarkingreturn" horiz-adv-x="333" 
 />
    <glyph glyph-name="space" unicode=" " horiz-adv-x="225" 
 />
    <glyph glyph-name="exclam" unicode="!" horiz-adv-x="267" 
d="M43 78q0 40 24.5 65t65.5 25t65.5 -25t24.5 -65t-25 -64.5t-65 -24.5t-65 24.5t-25 64.5zM69 231l-26 469h181l-26 -469h-129z" />
    <glyph glyph-name="quotedbl" unicode="&#x22;" horiz-adv-x="338" 
d="M62 496l-17 204h105l-17 -213h-62zM206 496l-17 204h105l-18 -213h-61z" />
    <glyph glyph-name="numbersign" unicode="#" horiz-adv-x="617" 
d="M55 446v71h119l19 183h72l-19 -183h161l19 183h71l-19 -183h112v-71h-120l-20 -192h113v-71h-120l-19 -183h-71l19 183h-161l-19 -183h-72l19 183h-112v71h119l20 192h-111zM238 446l-20 -192h161l20 192h-161z" />
    <glyph glyph-name="dollar" unicode="$" horiz-adv-x="626" 
d="M280 653q-36 0 -56 -18t-20 -49q0 -32 29 -58.5t142 -107.5q135 -97 174 -139t39 -105q0 -175 -240 -186v-90h-71v90q-48 3 -91 11.5t-69 19.5t-45 22t-27 18l-8 7q0 49 22.5 93.5t44.5 64.5l22 20h18q3 -8 8.5 -21.5t25 -48t40.5 -60.5t53.5 -47.5t65.5 -21.5
q39 0 64 21t25 52q0 13 -4.5 25.5t-18 26.5t-24 23.5t-37.5 27.5t-42.5 28t-54.5 34q-109 67 -152.5 115t-43.5 121q0 85 57 133.5t171 55.5v90h71v-90q65 -4 116.5 -19t71.5 -29l19 -13q0 -50 -22.5 -95.5t-44.5 -65.5l-22 -20h-16q-2 8 -7 20t-21 44t-34 56.5t-47.5 44.5
t-60.5 20z" />
    <glyph glyph-name="percent" unicode="%" horiz-adv-x="867" 
d="M258 0h-81l432 700h81zM25 515q0 87 51.5 141.5t133.5 54.5t133.5 -54.5t51.5 -141.5t-51.5 -141.5t-133.5 -54.5t-133.5 54.5t-51.5 141.5zM154 514q0 -67 15 -102t41 -35q25 0 40 35t15 102q0 138 -55 138q-26 0 -41 -35t-15 -103zM472 185q0 87 51.5 141.5t133.5 54.5
q83 0 134.5 -54.5t51.5 -141.5t-51.5 -141.5t-134.5 -54.5q-82 0 -133.5 54.5t-51.5 141.5zM602 184q0 -67 15 -102t40 -35q26 0 41 35t15 102q0 68 -15 103t-41 35q-55 0 -55 -138z" />
    <glyph glyph-name="ampersand" unicode="&#x26;" horiz-adv-x="847" 
d="M558 386h160l13 -14q0 -64 -30 -128.5t-84 -117.5q58 -45 94 -45q16 0 40 8.5t40 17.5l16 9l25 -25q-3 -4 -9 -11t-25 -24.5t-38 -31t-45.5 -24.5t-50.5 -11q-60 0 -152 59q-105 -59 -232 -59q-123 0 -187 55t-64 138q0 130 152 205q-52 89 -52 150q0 70 67.5 122
t190.5 52q109 0 168 -42.5t59 -113.5q0 -19 -4 -37t-8 -26l-5 -9q-56 -13 -159 -13l-13 13q20 33 20 82q0 42 -19 65t-49 23q-28 0 -44.5 -20.5t-16.5 -48.5q0 -61 67.5 -175.5t154.5 -208.5q20 74 20 186zM463 82q-139 105 -238 239q-19 -36 -19 -82q0 -81 52.5 -130
t124.5 -49q46 0 80 22z" />
    <glyph glyph-name="quotesingle" unicode="'" horiz-adv-x="195" 
d="M62 496l-17 204h105l-17 -213h-62z" />
    <glyph glyph-name="parenleft" unicode="(" horiz-adv-x="346" 
d="M330 -115l-44 -44q-5 3 -14 8t-35.5 24.5t-50 43t-53 63t-50 84t-35 106.5t-14.5 130q0 69 14 131t36 107t49 83.5t54 63t49 42t36 25.5l14 7l44 -44q-5 -5 -13.5 -15.5t-30 -48t-37.5 -81.5t-29.5 -117t-13.5 -153t13 -152t31 -118t36 -80.5t31 -49.5z" />
    <glyph glyph-name="parenright" unicode=")" horiz-adv-x="346" 
d="M60 -159l-44 44q5 5 13.5 15.5t30 48t37.5 81.5t29.5 117t13.5 153t-13 152t-31 118t-36 80.5t-31 49.5l-13 15l44 44q5 -3 14 -8t35.5 -24.5t50 -42.5t53 -62.5t50 -83.5t35 -106.5t14.5 -131.5q0 -68 -14 -130t-36 -107t-49 -83.5t-54 -63t-49 -42.5t-36 -26z" />
    <glyph glyph-name="asterisk" unicode="*" horiz-adv-x="414" 
d="M176 562l-17 138h96l-17 -138l126 59l30 -92l-136 -26l95 -102l-78 -57l-68 122l-68 -122l-78 57l96 102l-137 26l30 92z" />
    <glyph glyph-name="plus" unicode="+" 
d="M97 290v70h163v163h71v-163h163v-70h-163v-163h-71v163h-163z" />
    <glyph glyph-name="comma" unicode="," horiz-adv-x="243" 
d="M28 -177l-25 25q7 9 16.5 26.5t26 69t16.5 102.5q0 28 -4.5 53.5t-9.5 36.5l-4 12l9 9q42 0 77.5 -5.5t49.5 -10.5l14 -5q9 -20 9 -57q0 -47 -18 -91t-43.5 -72.5t-51.5 -50.5t-44 -32z" />
    <glyph glyph-name="hyphen" unicode="-" horiz-adv-x="328" 
d="M50 240v71h227v-71h-227z" />
    <glyph glyph-name="period" unicode="." horiz-adv-x="243" 
d="M32 78q0 40 24.5 65t64.5 25q41 0 65.5 -24.5t24.5 -65.5q0 -40 -24.5 -64.5t-65.5 -24.5q-40 0 -64.5 24.5t-24.5 64.5z" />
    <glyph glyph-name="slash" unicode="/" horiz-adv-x="419" 
d="M84 -150h-75l326 900h75z" />
    <glyph glyph-name="zero" unicode="0" horiz-adv-x="670" 
d="M39 350q0 161 82 261t214 100t214 -100t82 -261t-82 -261t-214 -100t-214 100t-82 261zM228 350q0 -148 29 -225.5t78 -77.5t78 77.5t29 225.5t-29 225.5t-78 77.5t-78 -77.5t-29 -225.5z" />
    <glyph glyph-name="one" unicode="1" horiz-adv-x="480" 
d="M206 0v564q-77 -39 -161 -39q-10 19 -10 66l10 9q61 0 126 25t99 50l35 25h73v-700h-172z" />
    <glyph glyph-name="two" unicode="2" horiz-adv-x="596" 
d="M565 526q0 -61 -36.5 -123.5t-89 -108t-105 -82.5t-88.5 -56l-37 -18h179q50 0 91 9t57 17l17 9l14 -13v-160h-540v83q14 10 38 27.5t85 71.5t107.5 107t84.5 124.5t38 132.5q0 50 -23.5 78.5t-64.5 28.5t-65.5 -30.5t-24.5 -89.5q0 -23 3 -41t7 -24l3 -7l-14 -13
q-44 0 -84.5 3t-58.5 7l-18 3q-12 19 -12 60q0 86 68.5 138t198.5 52q127 0 198.5 -48t71.5 -137z" />
    <glyph glyph-name="three" unicode="3" horiz-adv-x="631" 
d="M302 47q52 0 79 36.5t27 104.5t-28 100t-88 32h-44l-8 10v70h34q60 0 86 31.5t26 100.5q0 121 -84 121q-42 0 -67.5 -28.5t-25.5 -84.5q0 -21 3.5 -37.5t6.5 -22.5l3 -7l-14 -14q-44 0 -84.5 3.5t-58.5 7.5l-18 3q-12 19 -12 57q0 82 70.5 131.5t201.5 49.5
q127 0 195 -48.5t68 -138.5q0 -123 -132 -162q159 -33 159 -173q0 -98 -77 -149t-213 -51q-140 0 -209.5 50.5t-69.5 135.5q0 19 3 34t7 21l3 5q61 13 161 13l14 -13q-14 -21 -14 -71q0 -117 100 -117z" />
    <glyph glyph-name="four" unicode="4" horiz-adv-x="612" 
d="M20 133v36l398 531h86v-496h81v-71h-81v-133h-172v133h-312zM133 204h199v262z" />
    <glyph glyph-name="five" unicode="5" horiz-adv-x="608" 
d="M290 47q49 0 75.5 40t26.5 114q0 87 -36.5 121t-115.5 34q-44 0 -84 -9t-58 -17l-18 -9l-13 14l44 355h222q50 0 91 8.5t58 17.5l16 8l13 -13v-160h-338l-18 -146q72 36 161 36q124 0 194.5 -63t70.5 -168q0 -107 -73.5 -164t-212.5 -57q-133 0 -200.5 49t-67.5 130
q0 18 3.5 32.5t6.5 19.5l3 6q61 14 161 14l14 -14q-14 -19 -14 -69q0 -55 24 -82.5t65 -27.5z" />
    <glyph glyph-name="six" unicode="6" horiz-adv-x="662" 
d="M340 653q-55 0 -83 -68.5t-29 -216.5q50 48 146 48q108 0 178.5 -57.5t70.5 -150.5q0 -99 -80.5 -159t-198.5 -60q-147 0 -226 97t-79 266q0 77 17.5 141t53 113.5t94.5 77t138 27.5q107 0 181.5 -46.5t74.5 -126.5q0 -15 -3 -28.5t-6 -19.5l-3 -6q-61 -13 -160 -13
l-14 13q13 21 13 63q0 52 -25 79t-60 27zM327 358q-59 0 -98 -73q11 -238 108 -238q43 0 70 41.5t27 113.5q0 76 -30 116t-77 40z" />
    <glyph glyph-name="seven" unicode="7" horiz-adv-x="569" 
d="M328 0h-172q0 73 15 143.5t39.5 125t53.5 103t58 82.5t53.5 59t39.5 37l15 12h-221q-50 0 -91 -8.5t-58 -17.5l-16 -9l-14 13v160h510v-74l-1 -1q-12 -15 -27 -36.5t-51 -87.5t-62.5 -133.5t-48.5 -168.5t-22 -199z" />
    <glyph glyph-name="eight" unicode="8" horiz-adv-x="634" 
d="M567 537q0 -104 -116 -165q68 -39 106.5 -84t38.5 -110q0 -83 -68.5 -136t-209.5 -53q-143 0 -213.5 53t-70.5 133q0 108 130 172q-107 68 -107 173q0 87 66.5 139t192.5 52q125 0 188 -49.5t63 -124.5zM430 142q0 26 -12 48t-38.5 40.5t-49.5 31t-63 31.5q-10 5 -15 7
q-54 -47 -54 -118q0 -58 34.5 -96.5t91.5 -38.5q50 0 78 27.5t28 67.5zM305 653q-39 0 -61 -21.5t-22 -57.5q0 -50 36.5 -84.5t106.5 -71.5q47 51 47 118q0 54 -30 85.5t-77 31.5z" />
    <glyph glyph-name="nine" unicode="9" horiz-adv-x="652" 
d="M306 47q59 0 88 69.5t30 221.5q-49 -49 -145 -49q-101 0 -170.5 53.5t-69.5 148.5q0 101 78.5 160.5t196.5 59.5q145 0 222 -95t77 -264q0 -165 -76.5 -264t-234.5 -99q-109 0 -185.5 46.5t-76.5 125.5q0 16 3 29.5t6 19.5l3 5q61 13 161 13l14 -13q-13 -21 -13 -62
q0 -52 26.5 -79t65.5 -27zM329 348q54 0 94 61q-10 244 -104 244q-40 0 -65.5 -40.5t-25.5 -114.5q0 -75 27.5 -112.5t73.5 -37.5z" />
    <glyph glyph-name="colon" unicode=":" horiz-adv-x="243" 
d="M32 78q0 40 24.5 65t64.5 25q41 0 65.5 -24.5t24.5 -65.5q0 -40 -24.5 -64.5t-65.5 -24.5q-40 0 -64.5 24.5t-24.5 64.5zM32 399q0 40 24.5 65t64.5 25q41 0 65.5 -24.5t24.5 -65.5q0 -40 -24.5 -64.5t-65.5 -24.5q-40 0 -64.5 24.5t-24.5 64.5z" />
    <glyph glyph-name="semicolon" unicode=";" horiz-adv-x="243" 
d="M32 391q0 40 24.5 65t64.5 25q41 0 65.5 -24.5t24.5 -65.5t-24.5 -65.5t-65.5 -24.5q-40 0 -64.5 25t-24.5 65zM28 -177l-25 25q7 9 16.5 26.5t26 69t16.5 102.5q0 28 -4.5 53.5t-9.5 36.5l-4 12l9 9q42 0 77.5 -5.5t49.5 -10.5l14 -5q9 -20 9 -57q0 -47 -18 -91
t-43.5 -72.5t-51.5 -50.5t-44 -32z" />
    <glyph glyph-name="less" unicode="&#x3c;" 
d="M494 520v-76l-314 -119l314 -119v-76l-417 157v76z" />
    <glyph glyph-name="equal" unicode="=" 
d="M97 381v71h397v-71h-397zM97 198v71h397v-71h-397z" />
    <glyph glyph-name="greater" unicode="&#x3e;" 
d="M97 444v76l417 -157v-76l-417 -157v76l314 119z" />
    <glyph glyph-name="question" unicode="?" horiz-adv-x="572" 
d="M187 78q0 40 24.5 65t64.5 25q41 0 66 -24.5t25 -65.5q0 -40 -25 -64.5t-66 -24.5q-40 0 -64.5 24.5t-24.5 64.5zM545 528q0 -47 -20.5 -87.5t-49.5 -65t-58.5 -42.5t-50.5 -25l-20 -8l-4 -69h-129l-7 140q6 1 16.5 3t37 14t47 29.5t37 51.5t16.5 78q0 50 -21.5 78
t-58.5 28q-35 0 -56.5 -28t-21.5 -82q0 -22 3 -39t6 -22l3 -6l-13 -14q-44 0 -84.5 3.5t-58.5 6.5l-18 4q-12 17 -12 56q0 81 65.5 130t190.5 49q122 0 191.5 -48t69.5 -135z" />
    <glyph glyph-name="at" unicode="@" horiz-adv-x="1124" 
d="M1082 324q0 -154 -89.5 -244.5t-241.5 -90.5q-79 0 -106.5 27.5t-16.5 88.5l3 17l-4 5q-3 -6 -9.5 -15t-26.5 -33t-41.5 -42t-53.5 -33t-64 -15q-62 0 -96 49t-34 129q0 139 98.5 230.5t261.5 91.5q37 0 68.5 -5.5t49.5 -12.5t31 -14.5t17 -12.5l5 -6l-45 -283
q-15 -95 38 -95q55 0 87 77t32 182q0 161 -81 241t-225 80q-85 0 -159.5 -27.5t-129 -75.5t-94.5 -111.5t-60 -137t-20 -151.5q0 -160 85.5 -238t246.5 -78q89 0 174.5 22.5t126.5 44.5l41 23l22 -27q-6 -6 -16.5 -15.5t-48 -34.5t-80.5 -44.5t-111.5 -35t-142.5 -15.5
q-202 0 -318 107.5t-116 289.5q0 153 79.5 284.5t222 211t314.5 79.5q202 0 314.5 -107.5t112.5 -279.5zM487 159q0 -70 26 -70q9 0 20 8t21.5 22t21.5 29.5t20.5 33t16.5 30.5t13 24l5 10v1l26 162q-6 25 -36 25q-49 0 -91.5 -87.5t-42.5 -187.5z" />
    <glyph glyph-name="A" unicode="A" horiz-adv-x="723" 
d="M171 179l-68 -179h-88l248 639l-29 48v13h197l277 -700h-186l-71 179h-280zM317 522l-9 20l-111 -294h227z" />
    <glyph glyph-name="B" unicode="B" horiz-adv-x="682" 
d="M67 0v700h276q273 0 273 -175q0 -121 -133 -158q167 -34 167 -178q0 -189 -290 -189h-293zM461 199q0 130 -128 130h-86v-258h86q62 0 95 32.5t33 95.5zM432 514q0 115 -118 115h-67v-229h67q118 0 118 114z" />
    <glyph glyph-name="C" unicode="C" horiz-adv-x="722" 
d="M406 653q-76 0 -121 -74.5t-45 -209.5q0 -143 53.5 -209.5t159.5 -66.5q56 0 108 17t76 34l24 17l27 -28q-3 -6 -9 -15.5t-30.5 -34.5t-54 -44t-81.5 -34.5t-112 -15.5q-162 0 -262 100.5t-100 261.5t100.5 260.5t269.5 99.5q129 0 205.5 -57t76.5 -147q0 -20 -4.5 -36
t-8.5 -22l-4 -6q-61 -14 -161 -14l-13 14q13 22 13 77q0 65 -28.5 99t-78.5 34z" />
    <glyph glyph-name="D" unicode="D" horiz-adv-x="771" 
d="M67 0v700h301q163 0 264 -97t101 -253t-101 -253t-264 -97h-301zM360 629h-113v-558h113q79 0 125 71t46 208t-46 208t-125 71z" />
    <glyph glyph-name="E" unicode="E" horiz-adv-x="598" 
d="M67 0v700h479v-92l-14 -13q-53 34 -165 34h-120v-234h227l9 -10v-61h-236v-253h130q50 0 91 8.5t58 16.5l16 9l14 -13v-92h-489z" />
    <glyph glyph-name="F" unicode="F" horiz-adv-x="572" 
d="M67 0v700h475v-92l-14 -13q-53 34 -165 34h-116v-234h227l9 -10v-61h-236v-324h-180z" />
    <glyph glyph-name="G" unicode="G" horiz-adv-x="725" 
d="M441 279v61h66q48 0 90 3.5t60 6.5l18 4l13 -14v-241q-3 -4 -9.5 -11.5t-31 -26.5t-53.5 -33.5t-78.5 -26.5t-105.5 -12q-170 0 -270.5 99.5t-100.5 262.5q0 162 100.5 261t273.5 99q126 0 200.5 -52t74.5 -140q0 -20 -4 -35.5t-8 -21.5l-4 -6q-61 -13 -161 -13l-14 13
q15 21 15 76q0 121 -102 121q-79 0 -124.5 -73.5t-45.5 -209.5q0 -144 52 -219t153 -75q40 0 79 11v76q0 57 -11 107h-63z" />
    <glyph glyph-name="H" unicode="H" horiz-adv-x="776" 
d="M529 0v324h-282v-324h-180v700h180v-305h282v305h181v-700h-181z" />
    <glyph glyph-name="I" unicode="I" horiz-adv-x="314" 
d="M67 0v700h180v-700h-180z" />
    <glyph glyph-name="J" unicode="J" horiz-adv-x="512" 
d="M265 212v488h181v-482q0 -229 -248 -229q-60 0 -106 13t-62 26l-16 13q0 47 19 89.5t38 61.5l19 19h12q1 -7 4 -18t12.5 -39t20.5 -50t29 -39.5t37 -17.5q30 0 45 37t15 128z" />
    <glyph glyph-name="K" unicode="K" horiz-adv-x="699" 
d="M67 0v700h180v-295h29l242 295h106l-222 -266l141 -236q32 -51 67.5 -97.5t55.5 -66.5l20 -21v-13h-217l-206 334h-16v-334h-180z" />
    <glyph glyph-name="L" unicode="L" horiz-adv-x="552" 
d="M67 0v700h180v-629h102q49 0 90.5 8.5t58.5 16.5l16 9l13 -13v-92h-460z" />
    <glyph glyph-name="M" unicode="M" horiz-adv-x="959" 
d="M727 0l-61 554l-4 5l-164 -539h-119l-24 23l-169 515l-4 -5l-48 -553h-85l49 522q3 50 2 86.5t-4 57.5l-3 21l14 13h219l151 -462l142 462h216l79 -700h-187z" />
    <glyph glyph-name="N" unicode="N" horiz-adv-x="718" 
d="M67 0v420q0 80 -7.5 147t-15.5 93l-8 27l13 13h61l454 -419v419h87v-700h-52l-453 418v-418h-79z" />
    <glyph glyph-name="O" unicode="O" horiz-adv-x="806" 
d="M39 350q0 161 100.5 261t263.5 100t264 -100t101 -261t-101 -261t-264 -100t-263.5 100t-100.5 261zM240 350q0 -148 44 -225.5t119 -77.5t119 77.5t44 225.5t-44 225.5t-119 77.5t-119 -77.5t-44 -225.5z" />
    <glyph glyph-name="P" unicode="P" horiz-adv-x="661" 
d="M67 0v700h271q135 0 213 -55t78 -153t-78 -152.5t-213 -54.5h-91v-285h-180zM310 629h-63v-274h63q62 0 96 35t34 102t-34 102t-96 35z" />
    <glyph glyph-name="Q" unicode="Q" horiz-adv-x="806" 
d="M403 -15q-163 0 -263.5 100t-100.5 263q0 162 100.5 262.5t263.5 100.5t264 -100.5t101 -262.5q0 -120 -57 -208.5t-157 -127.5q12 -4 40 -14.5t42 -15.5t37.5 -9.5t46.5 -4.5q24 0 41 4t22 8l5 4l9 -9q0 -41 -5.5 -78.5t-10.5 -54.5l-5 -16q-15 -10 -49 -10
q-38 0 -75 17.5t-66.5 42.5t-58 49.5t-60.5 42t-64 17.5zM240 348q0 -150 44 -227.5t119 -77.5t119 77.5t44 227.5t-44 227.5t-119 77.5t-119 -77.5t-44 -227.5z" />
    <glyph glyph-name="R" unicode="R" horiz-adv-x="682" 
d="M67 0v700h265q135 0 212.5 -52t77.5 -146q0 -63 -36 -108t-102 -69l76 -147q25 -49 53 -91t43 -60l15 -18l-8 -9h-196l-153 303h-67v-303h-180zM303 629h-56v-255h56q62 0 96 32.5t34 95.5q0 62 -34 94.5t-96 32.5z" />
    <glyph glyph-name="S" unicode="S" horiz-adv-x="626" 
d="M284 653q-36 0 -56 -18t-20 -49q0 -33 29 -60.5t139 -105.5q134 -97 173 -139t39 -105q0 -187 -273 -187q-56 0 -105.5 8t-79.5 19.5t-52.5 23.5t-31.5 20l-9 8q0 49 22.5 93.5t44.5 64.5l22 20h18q3 -8 8.5 -21.5t25 -48t40.5 -60.5t53.5 -47.5t65.5 -21.5q39 0 64 21
t25 52q0 20 -10 37.5t-38.5 40t-53.5 38.5t-79 49q-107 66 -149.5 114t-42.5 122q0 92 66.5 141t199.5 49q76 0 136 -15.5t82 -31.5l22 -15q0 -50 -22.5 -95.5t-44.5 -65.5l-22 -20h-16q-2 8 -7 20t-21 44t-34 56.5t-47.5 44.5t-60.5 20z" />
    <glyph glyph-name="T" unicode="T" horiz-adv-x="688" 
d="M434 629v-629h-180v629h-52q-49 0 -90.5 -8.5t-57.5 -16.5l-17 -9l-13 13v92h641v-92l-14 -13q-53 34 -165 34h-52z" />
    <glyph glyph-name="U" unicode="U" horiz-adv-x="717" 
d="M572 252v448h79v-445q0 -121 -77 -193.5t-216 -72.5t-216 72.5t-77 193.5v445h181v-474q0 -75 43.5 -119t114.5 -44q76 0 122 50t46 139z" />
    <glyph glyph-name="V" unicode="V" horiz-adv-x="717" 
d="M294 23l-200 499q-20 49 -41 90.5t-31 57.5l-11 17v13h206l209 -527l193 527h88l-262 -700h-128z" />
    <glyph glyph-name="W" unicode="W" horiz-adv-x="1082" 
d="M690 23l-129 374l-127 -397h-132l-24 23l-187 499q-18 49 -38 90t-31 58l-11 16v14h203l195 -521l108 347q-16 48 -33.5 88t-27.5 56l-10 16v14h204l172 -512l163 512h87l-229 -700h-130z" />
    <glyph glyph-name="X" unicode="X" horiz-adv-x="714" 
d="M231 700l162 -247l174 247h104l-232 -316l122 -184q33 -50 68 -96.5t54 -68.5l19 -22v-13h-216l-180 268l-194 -268h-96l244 337l-243 363h214z" />
    <glyph glyph-name="Y" unicode="Y" horiz-adv-x="689" 
d="M678 700l-233 -372v-328h-181v315l-108 173q-34 54 -70.5 103.5t-55.5 72.5l-20 22v14h223l175 -276l174 276h96z" />
    <glyph glyph-name="Z" unicode="Z" horiz-adv-x="666" 
d="M39 32l360 597h-177q-49 0 -90.5 -8.5t-57.5 -16.5l-17 -9l-13 13v92h587v-32l-361 -597h185q50 0 91 8.5t58 16.5l16 9l14 -13v-92h-595v32z" />
    <glyph glyph-name="bracketleft" unicode="[" horiz-adv-x="336" 
d="M58 -150v900h262v-71h-90v-758h90v-71h-262z" />
    <glyph glyph-name="backslash" unicode="\" horiz-adv-x="419" 
d="M410 -150h-75l-326 900h75z" />
    <glyph glyph-name="bracketright" unicode="]" horiz-adv-x="336" 
d="M278 750v-900h-262v71h89v758h-89v71h262z" />
    <glyph glyph-name="asciicircum" unicode="^" horiz-adv-x="478" 
d="M449 472l-9 -9h-84l-117 115l-117 -115h-84l-9 9l189 228h42z" />
    <glyph glyph-name="underscore" unicode="_" horiz-adv-x="500" 
d="M0 -121v71h500v-71h-500z" />
    <glyph glyph-name="grave" unicode="`" horiz-adv-x="314" 
d="M261 562l-9 -9h-50l-150 154v9q41 26 135 26z" />
    <glyph glyph-name="a" unicode="a" horiz-adv-x="566" 
d="M276 489q218 0 218 -144v-237q0 -41 32 -41q7 0 12.5 1.5t7.5 3.5l3 2l25 -25q-2 -2 -5.5 -6.5t-17 -14.5t-28.5 -18t-40.5 -14.5t-52.5 -6.5q-87 0 -104 60q-68 -60 -161 -60q-65 0 -99 33t-34 96q0 60 45 91.5t173 49.5l72 9v112q0 56 -52 56q-60 0 -60 -68
q0 -15 2.5 -28.5t5.5 -19.5l2 -7l-13 -13q-39 0 -74 3t-50 7l-15 3q-13 19 -13 50q0 60 58 93t163 33zM210 140q0 -59 55 -59q16 0 30 4.5t21 9.5l6 5v110l-52 -8q-60 -7 -60 -62z" />
    <glyph glyph-name="b" unicode="b" horiz-adv-x="587" 
d="M26 737l13 13q48 0 92 3t64 7l20 3l14 -13v-261l-5 -49l5 -5q6 6 17.5 15t48 24t75.5 15q85 0 136.5 -64.5t51.5 -178.5q0 -257 -282 -257q-66 0 -120.5 13t-76.5 26l-22 13v409q0 84 -7.5 156t-15.5 102zM365 225q0 171 -83 171q-14 0 -27 -4t-19 -8l-7 -5v-310
q17 -24 52 -24q84 0 84 180z" />
    <glyph glyph-name="c" unicode="c" horiz-adv-x="532" 
d="M482 117l25 -25q-2 -4 -7 -11t-23 -25t-40.5 -31.5t-61.5 -24.5t-84 -11q-119 0 -190.5 69t-71.5 183q0 113 72 180.5t202 67.5q92 0 147 -34.5t55 -96.5q0 -14 -3 -27.5t-6 -19.5l-3 -6q-48 -14 -136 -14l-13 14q9 24 9 59q0 72 -52 72q-38 0 -58.5 -46.5t-20.5 -123.5
q0 -103 32 -146t99 -43q35 0 67.5 10t47.5 20z" />
    <glyph glyph-name="d" unicode="d" horiz-adv-x="591" 
d="M327 737l14 13q48 0 92 3t64 7l20 3l13 -13v-449q0 -84 8 -156t16 -102l7 -30l-14 -13q-48 0 -92 -3t-64 -7l-20 -3l-13 13l5 36l-5 5q-6 -6 -17 -14.5t-48 -23t-76 -14.5q-87 0 -137.5 62.5t-50.5 172.5q0 125 65.5 195t182.5 70q43 0 81 -11q-1 76 -9 141t-15 91z
M222 254q0 -171 84 -171q13 0 26 3.5t20 7.5l6 4v284q0 24 -16 38t-39 14q-38 0 -59.5 -45t-21.5 -135z" />
    <glyph glyph-name="e" unicode="e" horiz-adv-x="544" 
d="M482 117l25 -25q-2 -4 -7 -11t-23 -25t-40 -31.5t-61 -24.5t-84 -11q-119 0 -191 69t-72 184q0 114 73 180.5t207 66.5q201 0 201 -155q0 -20 -3 -39t-6 -28l-3 -9l-14 -14h-262q4 -90 35.5 -128.5t95.5 -38.5q36 0 68 10t47 20zM304 436q-72 0 -81 -137l127 9q5 25 5 51
q0 77 -51 77z" />
    <glyph glyph-name="f" unicode="f" horiz-adv-x="393" 
d="M9 418v44l75 21v103q0 177 164 177q46 0 82.5 -14.5t49.5 -28.5l14 -14l-25 -26q-18 15 -48 15q-65 0 -65 -96v-121h127v-62h-127v-416h-172v418h-75z" />
    <glyph glyph-name="g" unicode="g" horiz-adv-x="577" 
d="M155 -44l13 -13q-16 -27 -16 -62q0 -78 128 -78q70 0 106 21.5t36 61.5q0 24 -11.5 39.5t-35 22.5t-44.5 9.5t-53 3.5q-35 1 -52.5 2t-48.5 4t-48 8t-39 14t-33.5 21t-19.5 31t-8 43q0 74 65 131q-57 43 -57 113q0 72 63 116.5t168 44.5q83 0 143 -30q63 82 146 82
q13 -45 13 -127l-13 -13q-17 12 -49 12q-20 0 -35 -4q27 -35 27 -81q0 -72 -63.5 -117t-168.5 -45q-64 0 -113 17q-8 -13 -8 -32q0 -13 4 -22t14.5 -14.5t19 -9t29 -5t33 -2t40.5 -1.5q59 -1 94 -3.5t72 -10.5t55.5 -21.5t30.5 -37t12 -57.5q0 -103 -88 -165t-237 -62
q-105 0 -165.5 35t-60.5 106q0 18 3.5 33.5t7.5 21.5l4 7q52 13 140 13zM209 328q0 -53 16 -80.5t43 -27.5q28 0 44 27.5t16 80.5t-16 80.5t-44 27.5q-27 0 -43 -27.5t-16 -80.5z" />
    <glyph glyph-name="h" unicode="h" horiz-adv-x="585" 
d="M57 0v445q0 84 -7.5 157t-15.5 104l-8 31l13 13q48 0 92 3t64 7l20 3l14 -13v-266l-5 -48l5 -5q8 6 21.5 16t56.5 26t86 16q70 0 102.5 -38t32.5 -98v-353h-172v336q0 60 -62 60q-16 0 -32.5 -4t-24.5 -8l-8 -3v-381h-172z" />
    <glyph glyph-name="i" unicode="i" horiz-adv-x="290" 
d="M61 0v300q0 50 -8 91t-16 57l-8 17l14 13q48 0 92 3.5t64 6.5l20 4l14 -14v-478h-172zM40 638q0 45 27.5 73t72.5 28t72.5 -28t27.5 -73t-27.5 -72.5t-72.5 -27.5t-72.5 27.5t-27.5 72.5z" />
    <glyph glyph-name="j" unicode="j" horiz-adv-x="290" 
d="M61 -23v323q0 50 -7.5 91t-15.5 57l-8 17l14 13q48 0 91.5 3.5t63.5 6.5l20 4l14 -14v-442q0 -59 -24.5 -111.5t-59 -85.5t-69 -57t-58.5 -34l-25 -11l-25 25q4 4 10 10.5t21 28.5t27 45.5t21.5 59t9.5 71.5zM40 638q0 45 27.5 73t72.5 28t72.5 -28t27.5 -73t-27.5 -72.5
t-72.5 -27.5t-72.5 27.5t-27.5 72.5z" />
    <glyph glyph-name="k" unicode="k" horiz-adv-x="568" 
d="M57 0v450q0 84 -7.5 156t-15.5 102l-8 29l13 13q48 0 92 3t64 7l20 3l14 -13v-447l28 3l15 18q38 43 61.5 79.5t28.5 50.5l5 15l9 9h135l-138 -162l59 -118q28 -50 58.5 -95t47.5 -65l17 -20v-18q-48 0 -92.5 -2t-65.5 -4l-21 -3l-147 248v-239h-172z" />
    <glyph glyph-name="l" unicode="l" horiz-adv-x="285" 
d="M57 0v450q0 84 -7.5 156t-15.5 102l-8 29l13 13q48 0 92 3t64 7l20 3l14 -13v-750h-172z" />
    <glyph glyph-name="m" unicode="m" horiz-adv-x="860" 
d="M346 0v336q0 31 -13 45.5t-43 14.5q-15 0 -29.5 -4t-20.5 -8l-7 -3v-381h-172v300q0 50 -7.5 91t-15.5 57l-8 17l14 13q48 0 91.5 3.5t63.5 6.5l20 4l14 -14l-5 -42l5 -5q7 6 19 16t52 26t82 16q84 0 116 -62q12 10 30.5 22t58.5 26t80 14q67 0 99.5 -38t32.5 -98v-353
h-172v336q0 60 -55 60q-32 0 -60 -15q2 -18 2 -28v-353h-172z" />
    <glyph glyph-name="n" unicode="n" horiz-adv-x="589" 
d="M360 0v336q0 60 -61 60q-16 0 -32.5 -4t-24.5 -8l-9 -3v-381h-172v300q0 50 -7.5 91t-15.5 57l-8 17l14 13q48 0 91.5 3.5t63.5 6.5l20 4l14 -14l-5 -42l5 -5q8 6 21.5 16t56.5 26t87 16q70 0 102 -38t32 -98v-353h-172z" />
    <glyph glyph-name="o" unicode="o" horiz-adv-x="586" 
d="M29 239q0 112 73 181t191 69t191.5 -69t73.5 -181t-73.5 -181t-191.5 -69t-191 69t-73 181zM222 239q0 -97 19 -146.5t52 -49.5t52 49.5t19 146.5t-19 147t-52 50t-52 -50t-19 -147z" />
    <glyph glyph-name="p" unicode="p" horiz-adv-x="591" 
d="M233 -250h-172v449q0 84 -7.5 150.5t-15.5 90.5l-8 25l14 13q48 0 91.5 3.5t63.5 6.5l20 4l14 -14l-5 -38l5 -5q6 6 17 15t48 24t76 15q85 0 136.5 -63.5t51.5 -173.5q0 -124 -65.5 -193.5t-182.5 -69.5q-43 0 -81 11v-250zM369 225q0 171 -83 171q-14 0 -27 -4t-19 -8
l-7 -5v-283q0 -24 15.5 -37.5t39.5 -13.5q81 0 81 180z" />
    <glyph glyph-name="q" unicode="q" horiz-adv-x="587" 
d="M358 -250v240l5 48l-5 5q-6 -6 -17.5 -15t-48 -24t-75.5 -15q-86 0 -137 63.5t-51 178.5q0 258 282 258q65 0 120 -13.5t77 -27.5l22 -13v-685h-172zM222 252q0 -169 83 -169q13 0 26.5 4t20.5 8l6 4v308q-17 27 -53 27q-83 0 -83 -182z" />
    <glyph glyph-name="r" unicode="r" horiz-adv-x="428" 
d="M396 489q14 -59 14 -143l-14 -14q-15 12 -50 12q-30 0 -58 -11t-42 -23l-13 -11v-299h-172v300q0 50 -7.5 91t-15.5 57l-8 17l14 13q48 0 91.5 3.5t63.5 6.5l20 4l14 -14l-5 -98l5 -5q3 5 8 12.5t22 27t35 34.5t44.5 27.5t53.5 12.5z" />
    <glyph glyph-name="s" unicode="s" horiz-adv-x="466" 
d="M224 430q-24 0 -38.5 -11t-14.5 -28q0 -6 1.5 -11t5.5 -10t8.5 -9.5t12.5 -10t14 -10t18 -11t20 -11t23 -12.5t25 -13q80 -45 110.5 -79t30.5 -82q0 -69 -53 -106t-156 -37q-65 0 -117 14t-72 29l-20 14q0 21 7 41t17 34t20.5 25t17.5 16l7 5h13q2 -5 6 -13t17.5 -28.5
t27.5 -36t36.5 -28.5t44.5 -13q26 0 43 12.5t17 31.5q0 21 -26 38t-110 58q-64 31 -96 65.5t-32 91.5q0 69 51 106.5t153 37.5q56 0 101 -11t63 -22l17 -11q0 -34 -17.5 -64.5t-34.5 -44.5l-17 -14h-14q-2 4 -5 11.5t-13.5 26t-22 33t-30.5 26t-39 11.5z" />
    <glyph glyph-name="t" unicode="t" horiz-adv-x="398" 
d="M9 416v44l89 42l36 118h120v-142h125v-62h-125v-271q0 -68 62 -68q15 0 27.5 4t17.5 8l5 4l26 -25q-2 -3 -6.5 -8.5t-19.5 -19t-33 -24t-47.5 -19t-62.5 -8.5q-69 0 -105 34.5t-36 98.5v294h-73z" />
    <glyph glyph-name="u" unicode="u" 
d="M233 478v-333q0 -62 62 -62q16 0 32 4t24 8l8 4v201q0 50 -4.5 91t-8.5 57l-4 17l13 13q46 0 86.5 3.5t58.5 6.5l18 4l14 -14v-278q0 -50 7.5 -96.5t14.5 -68.5l8 -22l-13 -13q-48 0 -92 -3t-64 -7l-20 -3l-14 13l5 43l-5 4q-7 -6 -20 -16t-54.5 -26t-85.5 -16
q-72 0 -105 38.5t-33 100.5v172q0 50 -7.5 91t-15.5 57l-8 17l14 13q48 0 91.5 3.5t63.5 6.5l20 4z" />
    <glyph glyph-name="v" unicode="v" horiz-adv-x="543" 
d="M201 23l-105 277q-19 50 -41.5 92t-35.5 60l-13 17l9 9q49 0 93.5 2t64.5 4l20 3l128 -335l58 148q20 54 32 96t14 58l2 15l9 9q20 0 43 2.5t36 5.5l13 2l9 -10l-192 -478h-121z" />
    <glyph glyph-name="w" unicode="w" horiz-adv-x="818" 
d="M498 23l-74 233l-81 -256h-118l-23 23l-106 277q-20 50 -42.5 92t-35.5 60l-12 17l9 9q49 0 93.5 2t64.5 4l20 3l121 -316l66 209q-12 27 -23.5 49t-17.5 31l-6 9l9 9q49 0 91 2t59 4l18 3l102 -318l45 131q16 48 26.5 90t12.5 60l2 19l9 9q20 0 44 2.5t38 5.5l14 2
l9 -10l-170 -478h-121z" />
    <glyph glyph-name="x" unicode="x" horiz-adv-x="553" 
d="M221 488l99 -156q30 42 51.5 76t27.5 48l6 13l10 9h119l-171 -214l41 -64q32 -50 67 -97t53 -69l19 -21v-13q-56 0 -108 -2t-76 -4l-24 -3l-106 165q-30 -40 -54.5 -77t-34.5 -53l-9 -17l-10 -9h-103l-9 9l177 214l-48 77q-32 49 -63 90.5t-47 57.5l-15 17v13
q56 0 108 2.5t76 5.5z" />
    <glyph glyph-name="y" unicode="y" horiz-adv-x="539" 
d="M533 478l-232 -550q-20 -47 -36.5 -91.5t-22.5 -64.5l-7 -21l-9 -9q-37 0 -72.5 11t-52.5 21l-17 11v13q10 7 26.5 21t54 60.5t60.5 97.5l10 23l-133 300q-21 48 -45 90t-37 60l-14 19l9 9q49 0 94.5 2t66.5 4l21 3l121 -303l52 116q23 52 36.5 94t15.5 58l1 17l9 9
q20 0 43 2.5t36 5.5l13 2z" />
    <glyph glyph-name="z" unicode="z" horiz-adv-x="503" 
d="M29 32l226 380h-43q-49 0 -90.5 -9t-57.5 -17l-17 -9l-13 14v87h439v-31l-227 -381h51q50 0 91 9t58 17l16 9l14 -13v-88h-447v32z" />
    <glyph glyph-name="braceleft" unicode="{" horiz-adv-x="353" 
d="M93 13l19 157q5 46 -17.5 70.5t-69.5 24.5v70q47 0 69.5 24.5t17.5 70.5l-18 157q-9 84 53.5 126t185.5 42v-71q-78 0 -69 -72l17 -157q12 -113 -90 -155q102 -42 90 -155l-17 -157q-8 -72 69 -72v-71q-123 0 -185.5 43.5t-54.5 124.5z" />
    <glyph glyph-name="bar" unicode="|" horiz-adv-x="205" 
d="M137 -150h-70v900h70v-900z" />
    <glyph glyph-name="braceright" unicode="}" horiz-adv-x="353" 
d="M246 170l18 -157q9 -81 -53.5 -124.5t-185.5 -43.5v71q77 0 69 72l-18 157q-14 113 90 155q-104 42 -90 155l18 157q7 72 -69 72v71q123 0 185.5 -42t53.5 -126l-18 -157q-5 -46 17.5 -70.5t69.5 -24.5v-70q-47 0 -69.5 -24.5t-17.5 -70.5z" />
    <glyph glyph-name="asciitilde" unicode="~" horiz-adv-x="499" 
d="M184 374q36 0 80.5 -30.5t70.5 -30.5q25 0 51 15.5t40 31.5l13 16l38 -38q-3 -5 -8.5 -12t-22.5 -26.5t-35 -34t-44.5 -26.5t-51.5 -12q-36 0 -80.5 30.5t-67.5 30.5t-49.5 -16t-41.5 -32l-16 -15l-38 38q3 5 8.5 12t22.5 26.5t35 34t44.5 26.5t51.5 12z" />
    <glyph glyph-name="exclamdown" unicode="&#xa1;" horiz-adv-x="267" 
d="M224 400q0 -40 -25 -65t-65 -25t-65 25t-25 65t25 64.5t65 24.5t65 -24.5t25 -64.5zM198 248l26 -470h-181l26 470h129z" />
    <glyph glyph-name="cent" unicode="&#xa2;" horiz-adv-x="532" 
d="M482 117l25 -25q-2 -4 -6 -10t-19.5 -21.5t-34 -28.5t-51 -25t-69.5 -16v-91h-70v91q-105 10 -166.5 77.5t-61.5 172.5q0 101 59.5 167t168.5 78v92h70v-90q82 -5 130 -39t48 -91q0 -14 -3 -27.5t-6 -19.5l-3 -6q-48 -14 -136 -14l-13 14q9 24 9 59q0 72 -52 72
q-38 0 -58.5 -46.5t-20.5 -123.5q0 -103 32 -146t99 -43q35 0 67.5 10t47.5 20z" />
    <glyph glyph-name="sterling" unicode="&#xa3;" horiz-adv-x="605" 
d="M50 519q0 96 67.5 144t188.5 48q130 0 196 -51.5t66 -138.5q0 -18 -3 -33t-6 -21l-3 -6q-61 -13 -161 -13l-13 13q13 20 13 74q0 59 -21.5 88.5t-60.5 29.5q-78 0 -78 -121q0 -30 5 -59t8.5 -41t15.5 -42.5t13 -32.5h125l9 -9v-62h-118v-7q0 -34 -11.5 -66t-28.5 -54
t-33.5 -39t-27.5 -25l-12 -8h208q49 0 90.5 8.5t57.5 17.5l17 9l13 -13v-109h-518v49q4 4 11 11.5t24 31t30 47t24 56t11 62.5q0 15 -3 29h-97v71h65q-2 4 -12 17.5t-13.5 19.5t-11 19t-11 22.5t-8 23.5t-6 29t-1.5 31z" />
    <glyph glyph-name="currency" unicode="&#xa4;" horiz-adv-x="595" 
d="M112 300q0 58 31 103l-88 89l50 51l89 -89q46 32 103 32q56 0 104 -32l89 89l50 -51l-89 -89q32 -46 32 -103q0 -56 -32 -104l89 -88l-50 -51l-89 89q-48 -32 -104 -32t-104 32l-88 -89l-50 51l88 88q-31 46 -31 104zM182 300q0 -47 34 -81t81 -34q48 0 82 34t34 81
t-34 81t-82 34q-47 0 -81 -34t-34 -81z" />
    <glyph glyph-name="yen" unicode="&#xa5;" horiz-adv-x="689" 
d="M678 700l-233 -372v-16h113v-71h-113v-68h113v-71h-113v-102h-181v102h-113v71h113v68h-113v71h113v3l-108 173q-34 54 -70.5 103.5t-55.5 72.5l-20 22v14h223l175 -276l174 276h96z" />
    <glyph glyph-name="brokenbar" unicode="&#xa6;" horiz-adv-x="205" 
d="M137 -150h-70v400h70v-400zM137 750v-400h-70v400h70z" />
    <glyph glyph-name="section" unicode="&#xa7;" horiz-adv-x="492" 
d="M182 611q0 -28 29.5 -50.5t71 -40.5t83.5 -38.5t71.5 -53t29.5 -74.5q0 -82 -96 -113q96 -53 96 -122q0 -59 -57 -94.5t-172 -35.5q-98 0 -156 29t-58 88q0 12 2.5 23t5.5 15l2 5q52 14 140 14l13 -14q-10 -14 -10 -42q0 -64 68 -64q32 0 50 15t18 38q0 27 -29 47
t-70.5 35t-83.5 33t-71 51t-29 80q0 83 83 115q-81 45 -81 119q0 64 53.5 99.5t163.5 35.5q200 0 200 -116q0 -12 -2.5 -21.5t-4.5 -13.5l-2 -3q-50 -14 -138 -14l-13 14q7 10 7 37q0 63 -57 63q-27 0 -42 -13t-15 -33zM171 376q0 -29 28 -49.5t84 -44.5q39 12 39 48
q0 21 -19 38t-39 26t-61 24q-32 -10 -32 -42z" />
    <glyph glyph-name="dieresis" unicode="&#xa8;" horiz-adv-x="456" 
d="M46 624q0 32 20 51.5t53 19.5q32 0 52 -19.5t20 -51.5q0 -33 -20 -53.5t-52 -20.5q-33 0 -53 20.5t-20 53.5zM265 624q0 32 20 51.5t53 19.5t52.5 -19.5t19.5 -51.5q0 -33 -19.5 -53.5t-52.5 -20.5t-53 20.5t-20 53.5z" />
    <glyph glyph-name="copyright" unicode="&#xa9;" horiz-adv-x="824" 
d="M51 350q0 149 106 255t255 106t255 -106t106 -255t-106 -255t-255 -106t-255 106t-106 255zM122 350q0 -120 85 -205t205 -85q121 0 205.5 85t84.5 205t-84.5 205t-205.5 85q-120 0 -205 -85t-85 -205zM428 497q-29 0 -46.5 -35t-17.5 -100q0 -70 22.5 -100.5t70.5 -30.5
q26 0 51 8t37 16l12 8l15 -16q-1 -3 -4 -8.5t-15 -19t-27 -23.5t-42 -18.5t-59 -8.5q-82 0 -133 50t-51 132q0 81 51.5 130.5t136.5 49.5q66 0 105.5 -29t39.5 -74q0 -11 -2 -19.5t-4 -11.5l-3 -3q-37 -8 -98 -8l-8 8q8 12 8 42q0 61 -39 61z" />
    <glyph glyph-name="ordfeminine" unicode="&#xaa;" horiz-adv-x="293" 
d="M143 705q114 0 114 -73v-115q0 -20 15 -20l11 3l13 -13q-25 -33 -79 -33q-45 0 -54 30q-30 -30 -80 -30q-66 0 -66 65q0 31 23.5 47t89.5 25l31 4v57q0 24 -21 24q-25 0 -25 -31q0 -8 1.5 -15t3.5 -10l1 -3l-8 -7q-21 0 -40.5 2t-28.5 4l-8 1q-7 10 -7 26q0 29 29.5 45.5
t84.5 16.5zM117 531q0 -26 22 -26q6 0 11.5 1.5t7.5 3.5l3 1v52l-20 -3q-24 -4 -24 -29z" />
    <glyph glyph-name="guillemotleft" unicode="&#xab;" horiz-adv-x="505" 
d="M259 476l9 -9v-58l-107 -134l107 -134v-58l-9 -9l-229 188v26zM463 476l10 -9v-58l-108 -134l108 -134v-58l-10 -9l-228 188v26z" />
    <glyph glyph-name="logicalnot" unicode="&#xac;" 
d="M97 340v70h397v-197h-70v127h-327z" />
    <glyph glyph-name="uni00AD" unicode="&#xad;" horiz-adv-x="328" 
d="M50 240v71h227v-71h-227z" />
    <glyph glyph-name="registered" unicode="&#xae;" horiz-adv-x="824" 
d="M51 350q0 149 106 255t255 106t255 -106t106 -255t-106 -255t-255 -106t-255 106t-106 255zM122 350q0 -120 85 -205t205 -85q121 0 205.5 85t84.5 205t-84.5 205t-205.5 85q-120 0 -205 -85t-85 -205zM272 175v350h141q71 0 111.5 -26t40.5 -74q0 -60 -63 -85l35 -75
q11 -24 25 -45t22 -30l8 -10l-5 -5h-118l-69 150h-19v-150h-109zM396 483h-15v-117h15q55 0 55 59q0 58 -55 58z" />
    <glyph glyph-name="macron" unicode="&#xaf;" horiz-adv-x="297" 
d="M7 583v71h283v-71h-283z" />
    <glyph glyph-name="degree" unicode="&#xb0;" horiz-adv-x="319" 
d="M30 581q0 58 36 94t94 36t94 -35.5t36 -94.5t-36 -94.5t-94 -35.5t-94 36t-36 94zM106 581q0 -26 14.5 -41t39.5 -15q24 0 39 15.5t15 40.5t-15 40.5t-39 15.5q-25 0 -39.5 -15t-14.5 -41z" />
    <glyph glyph-name="plusminus" unicode="&#xb1;" 
d="M97 315v70h163v163h71v-163h163v-70h-163v-163h-71v163h-163zM97 35v70h397v-70h-397z" />
    <glyph glyph-name="twosuperior" unicode="&#xb2;" horiz-adv-x="308" 
d="M293 613q0 -35 -24.5 -70t-59 -58t-56.5 -35.5t-31 -15.5h80q24 0 44.5 5t29.5 10l8 5l8 -7v-97h-280v49h1q66 54 97 88q69 79 70 139q0 22 -8.5 34t-21.5 12q-32 0 -32 -54q0 -12 2 -22t4 -14l1 -3l-8 -8q-27 0 -51.5 2t-35.5 4l-11 2q-7 10 -7 31q0 44 35.5 70
t104.5 26q66 0 103.5 -23.5t37.5 -69.5z" />
    <glyph glyph-name="threesuperior" unicode="&#xb3;" horiz-adv-x="323" 
d="M154 378q38 0 38 66q0 34 -11 48.5t-38 14.5h-19l-4 5v41h14q27 0 38 15t11 48q0 56 -29 56q-33 0 -33 -52q0 -11 1.5 -20t3.5 -12l2 -4l-8 -8q-27 0 -51.5 2t-35.5 4l-11 2q-7 10 -7 30q0 41 36.5 66.5t106.5 25.5q65 0 101 -24.5t36 -69.5q0 -62 -68 -81q81 -16 81 -86
q0 -50 -40.5 -75.5t-111.5 -25.5q-73 0 -109 26t-36 69q0 9 2 16.5t4 10.5l2 3q37 8 98 8l8 -8q-8 -10 -8 -37q0 -54 37 -54z" />
    <glyph glyph-name="acute" unicode="&#xb4;" horiz-adv-x="314" 
d="M61 553l-9 9l74 180q42 0 75.5 -6.5t46.5 -13.5l13 -6v-9l-151 -154h-49z" />
    <glyph glyph-name="paragraph" unicode="&#xb6;" horiz-adv-x="672" 
d="M274 -23v308q-106 0 -169 54.5t-63 152.5t63 153t169 55h130v-664q0 -59 -20 -111.5t-48.5 -85.5t-57 -57t-48.5 -34l-20 -11l-25 25q4 4 10 10.5t21 28.5t27 45.5t21.5 59t9.5 71.5zM476 0v700h130v-700h-130z" />
    <glyph glyph-name="periodcentered" unicode="&#xb7;" horiz-adv-x="243" 
d="M32 300q0 40 24.5 65t64.5 25q41 0 65.5 -24.5t24.5 -65.5q0 -40 -24.5 -64.5t-65.5 -24.5q-40 0 -64.5 24.5t-24.5 64.5z" />
    <glyph glyph-name="cedilla" unicode="&#xb8;" horiz-adv-x="257" 
d="M87 -79l12 79h52l-8 -48q31 0 54 -21t23 -54q0 -34 -25.5 -56.5t-66.5 -22.5q-29 0 -51.5 11t-30.5 22l-9 11l21 21q14 -16 40 -16q39 0 39 33q0 32 -41 32z" />
    <glyph glyph-name="onesuperior" unicode="&#xb9;" horiz-adv-x="257" 
d="M100 350v269q-35 -13 -76 -13q-5 11 -5 38l6 6q33 0 67 12.5t52 25.5l17 12h44v-350h-105z" />
    <glyph glyph-name="ordmasculine" unicode="&#xba;" horiz-adv-x="301" 
d="M16 579q0 57 37 91.5t97 34.5q61 0 98 -34.5t37 -91.5q0 -56 -37 -90.5t-98 -34.5q-60 0 -97 34.5t-37 90.5zM124 579q0 -96 26 -96q27 0 27 96q0 97 -27 97q-26 0 -26 -97z" />
    <glyph glyph-name="guillemotright" unicode="&#xbb;" horiz-adv-x="505" 
d="M32 467l9 9l229 -188v-26l-229 -188l-9 9v58l107 134l-107 134v58zM237 467l9 9l228 -188v-26l-228 -188l-9 9v58l107 134l-107 134v58z" />
    <glyph glyph-name="onequarter" unicode="&#xbc;" horiz-adv-x="728" 
d="M202 -25h-82l432 750h82zM426 62v21l200 267h52v-246h37v-42h-37v-62h-104v62h-148zM100 350v269q-35 -13 -76 -13q-5 11 -5 38l6 6q33 0 67 12.5t52 25.5l17 12h44v-350h-105zM493 104h81v107z" />
    <glyph glyph-name="onehalf" unicode="&#xbd;" horiz-adv-x="778" 
d="M764 263q0 -35 -24.5 -70t-59 -58t-56.5 -35.5t-31 -15.5h80q24 0 44.5 5t28.5 10l9 5l8 -7v-97h-280v49h1q66 54 97 88q70 78 70 139q0 22 -8.5 34t-21.5 12q-32 0 -32 -54q0 -12 1.5 -22t3.5 -14l2 -3l-8 -8q-27 0 -51.5 2t-35.5 4l-11 2q-7 10 -7 31q0 44 35.5 70
t104.5 26q66 0 103.5 -23.5t37.5 -69.5zM202 -25h-82l432 750h82zM100 350v269q-35 -13 -76 -13q-5 11 -5 38l6 6q33 0 67 12.5t52 25.5l17 12h44v-350h-105z" />
    <glyph glyph-name="threequarters" unicode="&#xbe;" horiz-adv-x="771" 
d="M154 378q38 0 38 66q0 34 -11 48.5t-38 14.5h-19l-4 5v41h14q27 0 38 15t11 48q0 56 -29 56q-33 0 -33 -52q0 -11 1.5 -20t3.5 -12l2 -4l-8 -8q-27 0 -51.5 2t-35.5 4l-11 2q-7 10 -7 30q0 41 36.5 66.5t106.5 25.5q65 0 101 -24.5t36 -69.5q0 -62 -68 -81q81 -16 81 -86
q0 -50 -40.5 -75.5t-111.5 -25.5q-73 0 -109 26t-36 69q0 9 2 16.5t4 10.5l2 3q37 8 98 8l8 -8q-8 -10 -8 -37q0 -54 37 -54zM245 -25h-82l432 750h82zM469 62v21l200 267h52v-246h37v-42h-37v-62h-104v62h-148zM536 104h81v107z" />
    <glyph glyph-name="questiondown" unicode="&#xbf;" horiz-adv-x="572" 
d="M385 400q0 -40 -24.5 -65t-64.5 -25t-65 25t-25 65t25 64.5t65 24.5t64.5 -24.5t24.5 -64.5zM28 -49q0 46 20.5 86.5t50 65.5t58.5 42.5t49 24.5l21 8l3 70h130l7 -141q-6 -1 -16.5 -3t-37 -14t-47 -29.5t-37 -51.5t-16.5 -78q0 -49 21 -77.5t58 -28.5q36 0 57.5 28
t21.5 82q0 22 -3.5 39t-6.5 23l-3 6l13 13q45 0 85 -3t58 -7l18 -3q13 -18 13 -57q0 -81 -66 -130t-191 -49q-122 0 -191 48.5t-69 135.5z" />
    <glyph glyph-name="Agrave" unicode="&#xc0;" horiz-adv-x="723" 
d="M171 179l-68 -179h-88l248 639l-29 48v13h197l277 -700h-186l-71 179h-280zM317 522l-9 20l-111 -294h227zM417 764l-9 -9h-50l-150 154v9q41 26 135 26z" />
    <glyph glyph-name="Aacute" unicode="&#xc1;" horiz-adv-x="723" 
d="M171 179l-68 -179h-88l248 639l-29 48v13h197l277 -700h-186l-71 179h-280zM317 522l-9 20l-111 -294h227zM297 755l-9 9l73 180q42 0 76 -6.5t47 -13.5l13 -6v-9l-151 -154h-49z" />
    <glyph glyph-name="Acircumflex" unicode="&#xc2;" horiz-adv-x="723" 
d="M171 179l-68 -179h-88l248 639l-29 48v13h197l277 -700h-186l-71 179h-280zM317 522l-9 20l-111 -294h227zM521 764l-10 -9h-57l-102 80l-101 -80h-58l-9 9l147 180h42z" />
    <glyph glyph-name="Atilde" unicode="&#xc3;" horiz-adv-x="723" 
d="M171 179l-68 -179h-88l248 639l-29 48v13h197l277 -700h-186l-71 179h-280zM317 522l-9 20l-111 -294h227zM309 877q26 0 55.5 -18.5t51.5 -18.5q20 0 39.5 10t28.5 20l10 10l25 -25q-2 -4 -5 -11t-14 -24.5t-24 -30.5t-34.5 -24t-45.5 -11q-26 0 -55.5 18.5t-51.5 18.5
q-20 0 -39.5 -10t-29.5 -20l-9 -10l-25 25q2 4 5 11t14 24.5t24 30.5t34.5 24t45.5 11z" />
    <glyph glyph-name="Adieresis" unicode="&#xc4;" horiz-adv-x="723" 
d="M171 179l-68 -179h-88l248 639l-29 48v13h197l277 -700h-186l-71 179h-280zM317 522l-9 20l-111 -294h227zM390 825q0 32 20 52t53 20t52.5 -20t19.5 -52q0 -33 -19.5 -53t-52.5 -20t-53 20t-20 53zM171 825q0 32 20 52t53 20q32 0 51.5 -20t19.5 -52q0 -33 -19.5 -53
t-51.5 -20q-33 0 -53 20t-20 53z" />
    <glyph glyph-name="Aring" unicode="&#xc5;" horiz-adv-x="723" 
d="M171 179l-68 -179h-88l248 639l-29 48v13h197l277 -700h-186l-71 179h-280zM317 522l-9 20l-111 -294h227zM256 841q0 43 26.5 70t69.5 27q44 0 70.5 -27t26.5 -70t-27 -69.5t-70 -26.5t-69.5 26.5t-26.5 69.5zM319 841q0 -15 9 -24.5t24 -9.5t24.5 9.5t9.5 24.5
t-9.5 24.5t-24.5 9.5t-24 -9.5t-9 -24.5z" />
    <glyph glyph-name="AE" unicode="&#xc6;" horiz-adv-x="859" 
d="M15 0l307 700h485v-92l-14 -13q-53 34 -165 34h-108v-234h215l9 -10v-61h-224v-253h118q50 0 91 8.5t57 16.5l17 9l14 -13v-92h-478v200h-150l-86 -200h-88zM219 270h120v280z" />
    <glyph glyph-name="Ccedilla" unicode="&#xc7;" horiz-adv-x="722" 
d="M359 -79l11 69q-149 10 -240 108.5t-91 252.5q0 161 100.5 260.5t269.5 99.5q129 0 205.5 -57t76.5 -147q0 -20 -4.5 -36t-8.5 -22l-4 -6q-61 -14 -161 -14l-13 14q13 22 13 77q0 65 -28.5 99t-78.5 34q-76 0 -121 -74.5t-45 -209.5q0 -143 53.5 -209.5t159.5 -66.5
q56 0 108 17t76 34l24 17l27 -28q-3 -5 -8.5 -14.5t-28 -33t-50.5 -42t-76 -34.5t-104 -19l-6 -38q31 0 54 -21t23 -54q0 -34 -25 -56.5t-67 -22.5q-28 0 -51 11t-31 22l-9 11l21 21q14 -16 41 -16q18 0 28.5 9t10.5 24q0 32 -42 32z" />
    <glyph glyph-name="Egrave" unicode="&#xc8;" horiz-adv-x="598" 
d="M67 0v700h479v-92l-14 -13q-53 34 -165 34h-120v-234h227l9 -10v-61h-236v-253h130q50 0 91 8.5t58 16.5l16 9l14 -13v-92h-489zM385 764l-9 -9h-50l-150 154v9q41 26 135 26z" />
    <glyph glyph-name="Eacute" unicode="&#xc9;" horiz-adv-x="598" 
d="M67 0v700h479v-92l-14 -13q-53 34 -165 34h-120v-234h227l9 -10v-61h-236v-253h130q50 0 91 8.5t58 16.5l16 9l14 -13v-92h-489zM245 755l-9 9l74 180q42 0 75.5 -6.5t46.5 -13.5l13 -6v-9l-151 -154h-49z" />
    <glyph glyph-name="Ecircumflex" unicode="&#xca;" horiz-adv-x="598" 
d="M67 0v700h479v-92l-14 -13q-53 34 -165 34h-120v-234h227l9 -10v-61h-236v-253h130q50 0 91 8.5t58 16.5l16 9l14 -13v-92h-489zM479 764l-9 -9h-58l-102 80l-101 -80h-58l-9 9l147 180h42z" />
    <glyph glyph-name="Edieresis" unicode="&#xcb;" horiz-adv-x="598" 
d="M67 0v700h479v-92l-14 -13q-53 34 -165 34h-120v-234h227l9 -10v-61h-236v-253h130q50 0 91 8.5t58 16.5l16 9l14 -13v-92h-489zM347 824q0 32 20 51.5t53 19.5t52.5 -19.5t19.5 -51.5q0 -33 -19.5 -53.5t-52.5 -20.5t-53 20.5t-20 53.5zM128 824q0 32 20 51.5t53 19.5
q32 0 52 -19.5t20 -51.5q0 -33 -20 -53.5t-52 -20.5q-33 0 -53 20.5t-20 53.5z" />
    <glyph glyph-name="Igrave" unicode="&#xcc;" horiz-adv-x="314" 
d="M67 0v700h180v-700h-180zM222 764l-10 -9h-49l-151 154v9q42 26 136 26z" />
    <glyph glyph-name="Iacute" unicode="&#xcd;" horiz-adv-x="314" 
d="M67 0v700h180v-700h-180zM101 755l-9 9l74 180q42 0 76 -6.5t47 -13.5l13 -6v-9l-151 -154h-50z" />
    <glyph glyph-name="Icircumflex" unicode="&#xce;" horiz-adv-x="314" 
d="M67 0v700h180v-700h-180zM325 764l-9 -9h-58l-101 80l-101 -80h-58l-9 9l147 180h42z" />
    <glyph glyph-name="Idieresis" unicode="&#xcf;" horiz-adv-x="314" 
d="M67 0v700h180v-700h-180zM-25 825q0 32 20 52t54 20q32 0 51.5 -20t19.5 -52q0 -33 -19.5 -53t-51.5 -20q-34 0 -54 20t-20 53zM195 825q0 32 20 52t53 20q32 0 51.5 -20t19.5 -52q0 -33 -19.5 -53t-51.5 -20q-33 0 -53 20t-20 53z" />
    <glyph glyph-name="Eth" unicode="&#xd0;" horiz-adv-x="771" 
d="M12 320v71h55v309h301q163 0 264 -97t101 -253t-101 -253t-264 -97h-301v320h-55zM360 629h-113v-238h128v-71h-128v-249h113q79 0 125 71t46 208t-46 208t-125 71z" />
    <glyph glyph-name="Ntilde" unicode="&#xd1;" horiz-adv-x="718" 
d="M67 0v420q0 80 -7.5 147t-15.5 93l-8 27l13 13h61l454 -419v419h87v-700h-52l-453 418v-418h-79zM315 877q26 0 56 -18.5t51 -18.5t40.5 10t28.5 20l9 10l25 -25q-2 -4 -5 -11t-14 -24.5t-24 -30.5t-34.5 -24t-45.5 -11q-26 0 -55.5 18.5t-50.5 18.5t-40.5 -10t-28.5 -20
l-9 -10l-26 25q2 4 5 11t14 24.5t24 30.5t34.5 24t45.5 11z" />
    <glyph glyph-name="Ograve" unicode="&#xd2;" horiz-adv-x="806" 
d="M39 350q0 161 100.5 261t263.5 100t264 -100t101 -261t-101 -261t-264 -100t-263.5 100t-100.5 261zM240 350q0 -148 44 -225.5t119 -77.5t119 77.5t44 225.5t-44 225.5t-119 77.5t-119 -77.5t-44 -225.5zM468 764l-9 -9h-50l-151 154v9q42 26 136 26z" />
    <glyph glyph-name="Oacute" unicode="&#xd3;" horiz-adv-x="806" 
d="M39 350q0 161 100.5 261t263.5 100t264 -100t101 -261t-101 -261t-264 -100t-263.5 100t-100.5 261zM240 350q0 -148 44 -225.5t119 -77.5t119 77.5t44 225.5t-44 225.5t-119 77.5t-119 -77.5t-44 -225.5zM348 755l-10 9l74 180q42 0 76 -6.5t47 -13.5l13 -6v-9
l-151 -154h-49z" />
    <glyph glyph-name="Ocircumflex" unicode="&#xd4;" horiz-adv-x="806" 
d="M39 350q0 161 100.5 261t263.5 100t264 -100t101 -261t-101 -261t-264 -100t-263.5 100t-100.5 261zM240 350q0 -148 44 -225.5t119 -77.5t119 77.5t44 225.5t-44 225.5t-119 77.5t-119 -77.5t-44 -225.5zM571 764l-9 -9h-58l-101 80l-101 -80h-58l-9 9l147 180h42z" />
    <glyph glyph-name="Otilde" unicode="&#xd5;" horiz-adv-x="806" 
d="M39 350q0 161 100.5 261t263.5 100t264 -100t101 -261t-101 -261t-264 -100t-263.5 100t-100.5 261zM240 350q0 -148 44 -225.5t119 -77.5t119 77.5t44 225.5t-44 225.5t-119 77.5t-119 -77.5t-44 -225.5zM359 877q26 0 56 -18.5t51 -18.5t40.5 10t28.5 20l9 10l26 -25
q-2 -4 -5 -11t-14.5 -24.5t-24.5 -30.5t-34.5 -24t-44.5 -11q-26 0 -56 18.5t-51 18.5t-40.5 -10t-28.5 -20l-9 -10l-25 25q2 4 5 11t14 24.5t24 30.5t34.5 24t44.5 11z" />
    <glyph glyph-name="Odieresis" unicode="&#xd6;" horiz-adv-x="806" 
d="M39 350q0 161 100.5 261t263.5 100t264 -100t101 -261t-101 -261t-264 -100t-263.5 100t-100.5 261zM240 350q0 -148 44 -225.5t119 -77.5t119 77.5t44 225.5t-44 225.5t-119 77.5t-119 -77.5t-44 -225.5zM221 825q0 32 20 52t53 20q32 0 51.5 -20t19.5 -52
q0 -33 -19.5 -53t-51.5 -20q-33 0 -53 20t-20 53zM440 825q0 32 20 52t53 20q32 0 52 -20t20 -52q0 -33 -20 -53t-52 -20q-33 0 -53 20t-20 53z" />
    <glyph glyph-name="multiply" unicode="&#xd7;" 
d="M143 122l-50 51l152 152l-152 152l50 51l152 -153l153 153l51 -51l-153 -152l153 -152l-51 -51l-153 152z" />
    <glyph glyph-name="Oslash" unicode="&#xd8;" horiz-adv-x="806" 
d="M228 -25h-82l43 74q-71 47 -110.5 125t-39.5 176q0 161 100.5 261t263.5 100q81 0 151 -28l24 42h82l-43 -74q72 -47 111.5 -125t39.5 -176q0 -161 -101 -261t-264 -100q-80 0 -151 27zM237 350q0 -106 23 -177l247 428q-42 52 -104 52q-77 0 -121.5 -77.5t-44.5 -225.5z
M569 350q0 102 -24 176l-246 -428q42 -51 104 -51q77 0 121.5 77.5t44.5 225.5z" />
    <glyph glyph-name="Ugrave" unicode="&#xd9;" horiz-adv-x="717" 
d="M572 252v448h79v-445q0 -121 -77 -193.5t-216 -72.5t-216 72.5t-77 193.5v445h181v-474q0 -75 43.5 -119t114.5 -44q76 0 122 50t46 139zM432 764l-10 -9h-49l-151 154v9q41 26 136 26z" />
    <glyph glyph-name="Uacute" unicode="&#xda;" horiz-adv-x="717" 
d="M572 252v448h79v-445q0 -121 -77 -193.5t-216 -72.5t-216 72.5t-77 193.5v445h181v-474q0 -75 43.5 -119t114.5 -44q76 0 122 50t46 139zM311 755l-9 9l74 180q42 0 76 -6.5t47 -13.5l13 -6v-9l-151 -154h-50z" />
    <glyph glyph-name="Ucircumflex" unicode="&#xdb;" horiz-adv-x="717" 
d="M572 252v448h79v-445q0 -121 -77 -193.5t-216 -72.5t-216 72.5t-77 193.5v445h181v-474q0 -75 43.5 -119t114.5 -44q76 0 122 50t46 139zM535 764l-9 -9h-58l-101 80l-102 -80h-57l-10 9l148 180h42z" />
    <glyph glyph-name="Udieresis" unicode="&#xdc;" horiz-adv-x="717" 
d="M572 252v448h79v-445q0 -121 -77 -193.5t-216 -72.5t-216 72.5t-77 193.5v445h181v-474q0 -75 43.5 -119t114.5 -44q76 0 122 50t46 139zM184 825q0 32 20 52t53 20t52.5 -20t19.5 -52q0 -33 -19.5 -53t-52.5 -20t-53 20t-20 53zM404 825q0 32 20 52t53 20q32 0 51.5 -20
t19.5 -52q0 -33 -19.5 -53t-51.5 -20q-33 0 -53 20t-20 53z" />
    <glyph glyph-name="Yacute" unicode="&#xdd;" horiz-adv-x="689" 
d="M678 700l-233 -372v-328h-181v315l-108 173q-34 54 -70.5 103.5t-55.5 72.5l-20 22v14h223l175 -276l174 276h96zM288 755l-9 9l74 180q42 0 75.5 -6.5t46.5 -13.5l13 -6v-9l-150 -154h-50z" />
    <glyph glyph-name="Thorn" unicode="&#xde;" horiz-adv-x="661" 
d="M67 0v700h180v-132h90q135 0 213 -55t78 -153t-78 -153t-213 -55h-90v-152h-180zM309 497h-62v-274h62q62 0 96 35t34 102t-34 102t-96 35z" />
    <glyph glyph-name="germandbls" unicode="&#xdf;" horiz-adv-x="658" 
d="M229 0h-172v542q0 111 60.5 165t193.5 54q227 0 227 -165q0 -46 -16 -83t-32 -51l-15 -15q-29 0 -44 -14t-15 -37q0 -8 2 -14.5t4 -12t8.5 -12t10.5 -11t15 -12t17.5 -12t21.5 -15t24 -16.5q66 -47 91 -79t25 -80q0 -143 -190 -143q-39 0 -71.5 6t-51 14.5t-31.5 18
t-18 15t-5 6.5q0 32 12 59t24 38l11 12h14q2 -4 6.5 -11.5t17.5 -26t26 -33t32 -26t36 -11.5q20 0 32.5 11.5t12.5 30.5q0 20 -19 35.5t-92 60.5q-49 30 -76.5 65t-27.5 94q0 29 7.5 54.5t18.5 41t22 26.5t19 15l7 5l2 2q2 2 4.5 6t6 9.5t7 13.5t6 18t4.5 23.5t2 28.5
q0 103 -77 103q-39 0 -58 -31.5t-19 -105.5v-556z" />
    <glyph glyph-name="agrave" unicode="&#xe0;" horiz-adv-x="566" 
d="M276 489q218 0 218 -144v-237q0 -41 32 -41q7 0 12.5 1.5t7.5 3.5l3 2l25 -25q-2 -2 -5.5 -6.5t-17 -14.5t-28.5 -18t-40.5 -14.5t-52.5 -6.5q-87 0 -104 60q-68 -60 -161 -60q-65 0 -99 33t-34 96q0 60 45 91.5t173 49.5l72 9v112q0 56 -52 56q-60 0 -60 -68
q0 -15 2.5 -28.5t5.5 -19.5l2 -7l-13 -13q-39 0 -74 3t-50 7l-15 3q-13 19 -13 50q0 60 58 93t163 33zM335 562l-9 -9h-50l-150 154v9q41 26 135 26zM210 140q0 -59 55 -59q16 0 30 4.5t21 9.5l6 5v110l-52 -8q-60 -7 -60 -62z" />
    <glyph glyph-name="aacute" unicode="&#xe1;" horiz-adv-x="566" 
d="M276 489q218 0 218 -144v-237q0 -41 32 -41q7 0 12.5 1.5t7.5 3.5l3 2l25 -25q-2 -2 -5.5 -6.5t-17 -14.5t-28.5 -18t-40.5 -14.5t-52.5 -6.5q-87 0 -104 60q-68 -60 -161 -60q-65 0 -99 33t-34 96q0 60 45 91.5t173 49.5l72 9v112q0 56 -52 56q-60 0 -60 -68
q0 -15 2.5 -28.5t5.5 -19.5l2 -7l-13 -13q-39 0 -74 3t-50 7l-15 3q-13 19 -13 50q0 60 58 93t163 33zM213 553l-9 9l74 180q42 0 75.5 -6.5t46.5 -13.5l13 -6v-9l-150 -154h-50zM210 140q0 -59 55 -59q16 0 30 4.5t21 9.5l6 5v110l-52 -8q-60 -7 -60 -62z" />
    <glyph glyph-name="acircumflex" unicode="&#xe2;" horiz-adv-x="566" 
d="M276 489q218 0 218 -144v-237q0 -41 32 -41q7 0 12.5 1.5t7.5 3.5l3 2l25 -25q-2 -2 -5.5 -6.5t-17 -14.5t-28.5 -18t-40.5 -14.5t-52.5 -6.5q-87 0 -104 60q-68 -60 -161 -60q-65 0 -99 33t-34 96q0 60 45 91.5t173 49.5l72 9v112q0 56 -52 56q-60 0 -60 -68
q0 -15 2.5 -28.5t5.5 -19.5l2 -7l-13 -13q-39 0 -74 3t-50 7l-15 3q-13 19 -13 50q0 60 58 93t163 33zM449 562l-9 -9h-58l-101 80l-102 -80h-58l-9 9l148 180h42zM210 140q0 -59 55 -59q16 0 30 4.5t21 9.5l6 5v110l-52 -8q-60 -7 -60 -62z" />
    <glyph glyph-name="atilde" unicode="&#xe3;" horiz-adv-x="566" 
d="M276 489q218 0 218 -144v-237q0 -41 32 -41q7 0 12.5 1.5t7.5 3.5l3 2l25 -25q-2 -2 -5.5 -6.5t-17 -14.5t-28.5 -18t-40.5 -14.5t-52.5 -6.5q-87 0 -104 60q-68 -60 -161 -60q-65 0 -99 33t-34 96q0 60 45 91.5t173 49.5l72 9v112q0 56 -52 56q-60 0 -60 -68
q0 -15 2.5 -28.5t5.5 -19.5l2 -7l-13 -13q-39 0 -74 3t-50 7l-15 3q-13 19 -13 50q0 60 58 93t163 33zM230 675q26 0 55.5 -18.5t50.5 -18.5t40.5 10t28.5 20l9 10l26 -25q-2 -4 -5 -11t-14 -24.5t-24 -30.5t-34.5 -24t-45.5 -11q-26 0 -56 18.5t-51 18.5t-40.5 -10
t-28.5 -20l-9 -10l-25 26q2 4 5 11t14 24t24 30t34.5 24t45.5 11zM210 140q0 -59 55 -59q16 0 30 4.5t21 9.5l6 5v110l-52 -8q-60 -7 -60 -62z" />
    <glyph glyph-name="adieresis" unicode="&#xe4;" horiz-adv-x="566" 
d="M276 489q218 0 218 -144v-237q0 -41 32 -41q7 0 12.5 1.5t7.5 3.5l3 2l25 -25q-2 -2 -5.5 -6.5t-17 -14.5t-28.5 -18t-40.5 -14.5t-52.5 -6.5q-87 0 -104 60q-68 -60 -161 -60q-65 0 -99 33t-34 96q0 60 45 91.5t173 49.5l72 9v112q0 56 -52 56q-60 0 -60 -68
q0 -15 2.5 -28.5t5.5 -19.5l2 -7l-13 -13q-39 0 -74 3t-50 7l-15 3q-13 19 -13 50q0 60 58 93t163 33zM89 624q0 32 20 51.5t53 19.5t52.5 -19.5t19.5 -51.5q0 -33 -19.5 -53.5t-52.5 -20.5t-53 20.5t-20 53.5zM309 624q0 32 20 51.5t53 19.5q32 0 51.5 -19.5t19.5 -51.5
q0 -33 -19.5 -53.5t-51.5 -20.5q-33 0 -53 20.5t-20 53.5zM210 140q0 -59 55 -59q16 0 30 4.5t21 9.5l6 5v110l-52 -8q-60 -7 -60 -62z" />
    <glyph glyph-name="aring" unicode="&#xe5;" horiz-adv-x="566" 
d="M276 489q218 0 218 -144v-237q0 -41 32 -41q7 0 12.5 1.5t7.5 3.5l3 2l25 -25q-2 -2 -5.5 -6.5t-17 -14.5t-28.5 -18t-40.5 -14.5t-52.5 -6.5q-87 0 -104 60q-68 -60 -161 -60q-65 0 -99 33t-34 96q0 60 45 91.5t173 49.5l72 9v112q0 56 -52 56q-60 0 -60 -68
q0 -15 2.5 -28.5t5.5 -19.5l2 -7l-13 -13q-39 0 -74 3t-50 7l-15 3q-13 19 -13 50q0 60 58 93t163 33zM177 640q0 43 26.5 69.5t69.5 26.5t69.5 -26.5t26.5 -69.5t-26.5 -69.5t-69.5 -26.5t-69.5 26.5t-26.5 69.5zM210 140q0 -59 55 -59q16 0 30 4.5t21 9.5l6 5v110l-52 -8
q-60 -7 -60 -62zM240 640q0 -34 33 -34q15 0 24 9t9 25q0 15 -9 24.5t-24 9.5t-24 -9.5t-9 -24.5z" />
    <glyph glyph-name="ae" unicode="&#xe6;" horiz-adv-x="838" 
d="M776 117l25 -25q-2 -4 -7 -11t-23 -25t-40.5 -31.5t-61.5 -24.5t-84 -11q-129 0 -201 80q-80 -80 -205 -80q-147 0 -147 124q0 61 46 94t172 52l72 10v111q0 56 -52 56q-60 0 -60 -68q0 -15 2.5 -28.5t5.5 -19.5l2 -7l-13 -13q-39 0 -74 3t-50 7l-15 3q-13 19 -13 50
q0 59 57.5 92.5t155.5 33.5q111 0 156 -45q71 45 179 45q200 0 200 -155q0 -20 -3 -39t-6 -28l-3 -9l-13 -14h-263q4 -90 36 -128.5t96 -38.5q36 0 68 10t47 20zM598 436q-73 0 -82 -138l128 10q5 25 5 51q0 77 -51 77zM210 139q0 -58 58 -58q42 0 82 36q-21 42 -27 93
l-53 -8q-60 -9 -60 -63z" />
    <glyph glyph-name="ccedilla" unicode="&#xe7;" horiz-adv-x="532" 
d="M253 -79l10 69q-107 8 -170.5 76t-63.5 175q0 113 72 180.5t202 67.5q92 0 147 -34.5t55 -96.5q0 -14 -3 -27.5t-6 -19.5l-3 -6q-48 -14 -136 -14l-13 14q9 24 9 59q0 72 -52 72q-38 0 -58.5 -46.5t-20.5 -123.5q0 -103 32 -146t99 -43q35 0 67.5 10t47.5 20l14 10
l25 -25q-2 -4 -6 -10t-20.5 -22.5t-36.5 -29.5t-54.5 -25t-74.5 -15l-6 -38q31 0 54 -21t23 -54q0 -34 -25.5 -56.5t-66.5 -22.5q-29 0 -51.5 11t-30.5 22l-9 11l20 21q15 -16 41 -16q39 0 39 33q0 32 -41 32z" />
    <glyph glyph-name="egrave" unicode="&#xe8;" horiz-adv-x="544" 
d="M482 117l25 -25q-2 -4 -7 -11t-23 -25t-40 -31.5t-61 -24.5t-84 -11q-119 0 -191 69t-72 184q0 114 73 180.5t207 66.5q201 0 201 -155q0 -20 -3 -39t-6 -28l-3 -9l-14 -14h-262q4 -90 35.5 -128.5t95.5 -38.5q36 0 68 10t47 20zM361 562l-10 -9h-49l-151 154v9
q41 26 136 26zM304 436q-72 0 -81 -137l127 9q5 25 5 51q0 77 -51 77z" />
    <glyph glyph-name="eacute" unicode="&#xe9;" horiz-adv-x="544" 
d="M482 117l25 -25q-2 -4 -7 -11t-23 -25t-40 -31.5t-61 -24.5t-84 -11q-119 0 -191 69t-72 184q0 114 73 180.5t207 66.5q201 0 201 -155q0 -20 -3 -39t-6 -28l-3 -9l-14 -14h-262q4 -90 35.5 -128.5t95.5 -38.5q36 0 68 10t47 20zM239 553l-9 9l74 180q42 0 76 -6.5
t47 -13.5l13 -6v-9l-151 -154h-50zM304 436q-72 0 -81 -137l127 9q5 25 5 51q0 77 -51 77z" />
    <glyph glyph-name="ecircumflex" unicode="&#xea;" horiz-adv-x="544" 
d="M482 117l25 -25q-2 -4 -7 -11t-23 -25t-40 -31.5t-61 -24.5t-84 -11q-119 0 -191 69t-72 184q0 114 73 180.5t207 66.5q201 0 201 -155q0 -20 -3 -39t-6 -28l-3 -9l-14 -14h-262q4 -90 35.5 -128.5t95.5 -38.5q36 0 68 10t47 20zM451 562l-10 -9h-58l-101 80l-101 -80
h-58l-9 9l147 180h42zM304 436q-72 0 -81 -137l127 9q5 25 5 51q0 77 -51 77z" />
    <glyph glyph-name="edieresis" unicode="&#xeb;" horiz-adv-x="544" 
d="M482 117l25 -25q-2 -4 -7 -11t-23 -25t-40 -31.5t-61 -24.5t-84 -11q-119 0 -191 69t-72 184q0 114 73 180.5t207 66.5q201 0 201 -155q0 -20 -3 -39t-6 -28l-3 -9l-14 -14h-262q4 -90 35.5 -128.5t95.5 -38.5q36 0 68 10t47 20zM334 624q0 32 20 51.5t53 19.5
t52.5 -19.5t19.5 -51.5q0 -33 -19.5 -53.5t-52.5 -20.5t-53 20.5t-20 53.5zM115 624q0 32 20 51.5t53 19.5q32 0 52 -19.5t20 -51.5q0 -33 -20 -53.5t-52 -20.5q-33 0 -53 20.5t-20 53.5zM304 436q-72 0 -81 -137l127 9q5 25 5 51q0 77 -51 77z" />
    <glyph glyph-name="igrave" unicode="&#xec;" horiz-adv-x="290" 
d="M210 562l-9 -9h-50l-151 154v9q42 26 136 26zM61 0v300q0 50 -7.5 91t-15.5 57l-8 17l14 13q48 0 91.5 3.5t63.5 6.5l20 4l14 -14v-478h-172z" />
    <glyph glyph-name="iacute" unicode="&#xed;" horiz-adv-x="290" 
d="M77 553l-9 9l74 180q42 0 75.5 -6.5t46.5 -13.5l13 -6v-9l-151 -154h-49zM61 0v300q0 50 -7.5 91t-15.5 57l-8 17l14 13q48 0 91.5 3.5t63.5 6.5l20 4l14 -14v-478h-172z" />
    <glyph glyph-name="icircumflex" unicode="&#xee;" horiz-adv-x="290" 
d="M61 0v300q0 50 -7.5 91t-15.5 57l-8 17l14 13q48 0 91.5 3.5t63.5 6.5l20 4l14 -14v-478h-172zM314 562l-10 -9h-58l-101 80l-101 -80h-58l-9 9l147 180h42z" />
    <glyph glyph-name="idieresis" unicode="&#xef;" horiz-adv-x="290" 
d="M61 0v300q0 50 -7.5 91t-15.5 57l-8 17l14 13q48 0 91.5 3.5t63.5 6.5l20 4l14 -14v-478h-172zM-25 624q0 32 20 51.5t53 19.5t52.5 -19.5t19.5 -51.5q0 -33 -19.5 -53.5t-52.5 -20.5t-53 20.5t-20 53.5zM170 624q0 32 20 51.5t53 19.5q32 0 51.5 -19.5t19.5 -51.5
q0 -33 -19.5 -53.5t-51.5 -20.5q-33 0 -53 20.5t-20 53.5z" />
    <glyph glyph-name="eth" unicode="&#xf0;" horiz-adv-x="586" 
d="M558 239q0 -112 -73.5 -181t-191.5 -69t-191 69t-73 181t73 181t191 69q20 0 54 -4q-25 60 -57 102l-54 -54l-51 50l57 57q-29 27 -60 47t-48 26l-17 6l42 42q66 -13 145 -59l59 59l51 -50l-50 -50q194 -150 194 -422zM222 239q0 -97 19 -146.5t52 -49.5t52 49.5
t19 146.5t-19 147t-52 50t-52 -50t-19 -147z" />
    <glyph glyph-name="ntilde" unicode="&#xf1;" horiz-adv-x="589" 
d="M360 0v336q0 60 -61 60q-16 0 -32.5 -4t-24.5 -8l-9 -3v-381h-172v300q0 50 -7.5 91t-15.5 57l-8 17l14 13q48 0 91.5 3.5t63.5 6.5l20 4l14 -14l-5 -42l5 -5q8 6 21.5 16t56.5 26t87 16q70 0 102 -38t32 -98v-353h-172zM251 675q26 0 55.5 -18.5t51.5 -18.5
q20 0 39.5 10t28.5 20l10 10l25 -25q-2 -4 -5 -11t-14 -24.5t-24 -30.5t-34.5 -24t-45.5 -11q-26 0 -55.5 18.5t-51.5 18.5q-20 0 -39.5 -10t-29.5 -20l-9 -10l-25 26q2 4 5 11t14 24t24 30t34.5 24t45.5 11z" />
    <glyph glyph-name="ograve" unicode="&#xf2;" horiz-adv-x="586" 
d="M29 239q0 112 73 181t191 69t191.5 -69t73.5 -181t-73.5 -181t-191.5 -69t-191 69t-73 181zM222 239q0 -97 19 -146.5t52 -49.5t52 49.5t19 146.5t-19 147t-52 50t-52 -50t-19 -147zM358 562l-9 -9h-50l-151 154v9q42 26 136 26z" />
    <glyph glyph-name="oacute" unicode="&#xf3;" horiz-adv-x="586" 
d="M29 239q0 112 73 181t191 69t191.5 -69t73.5 -181t-73.5 -181t-191.5 -69t-191 69t-73 181zM222 239q0 -97 19 -146.5t52 -49.5t52 49.5t19 146.5t-19 147t-52 50t-52 -50t-19 -147zM238 553l-10 9l74 180q42 0 76 -6.5t47 -13.5l13 -6v-9l-151 -154h-49z" />
    <glyph glyph-name="ocircumflex" unicode="&#xf4;" horiz-adv-x="586" 
d="M29 239q0 112 73 181t191 69t191.5 -69t73.5 -181t-73.5 -181t-191.5 -69t-191 69t-73 181zM222 239q0 -97 19 -146.5t52 -49.5t52 49.5t19 146.5t-19 147t-52 50t-52 -50t-19 -147zM461 562l-9 -9h-58l-101 80l-101 -80h-58l-9 9l147 180h42z" />
    <glyph glyph-name="otilde" unicode="&#xf5;" horiz-adv-x="586" 
d="M29 239q0 112 73 181t191 69t191.5 -69t73.5 -181t-73.5 -181t-191.5 -69t-191 69t-73 181zM222 239q0 -97 19 -146.5t52 -49.5t52 49.5t19 146.5t-19 147t-52 50t-52 -50t-19 -147zM249 675q26 0 56 -18.5t51 -18.5t40.5 10t28.5 20l9 10l26 -25q-2 -4 -5 -11
t-14.5 -24.5t-24.5 -30.5t-34.5 -24t-44.5 -11q-26 0 -56 18.5t-51 18.5t-40.5 -10t-28.5 -20l-9 -10l-25 26q2 4 5 11t14 24t24 30t34.5 24t44.5 11z" />
    <glyph glyph-name="odieresis" unicode="&#xf6;" horiz-adv-x="586" 
d="M29 239q0 112 73 181t191 69t191.5 -69t73.5 -181t-73.5 -181t-191.5 -69t-191 69t-73 181zM222 239q0 -97 19 -146.5t52 -49.5t52 49.5t19 146.5t-19 147t-52 50t-52 -50t-19 -147zM111 624q0 32 20 51.5t53 19.5q32 0 51.5 -19.5t19.5 -51.5q0 -33 -19.5 -53.5
t-51.5 -20.5q-33 0 -53 20.5t-20 53.5zM330 624q0 32 20 51.5t53 19.5q32 0 52 -19.5t20 -51.5q0 -33 -20 -53.5t-52 -20.5q-33 0 -53 20.5t-20 53.5z" />
    <glyph glyph-name="divide" unicode="&#xf7;" 
d="M80 290v70h431v-70h-431zM223 162q0 33 20 52.5t52 19.5q33 0 52.5 -19.5t19.5 -52.5t-19.5 -53t-52.5 -20q-32 0 -52 20t-20 53zM223 487q0 33 20 53t52 20t52 -20t20 -53q0 -32 -20 -51.5t-52 -19.5t-52 19.5t-20 51.5z" />
    <glyph glyph-name="oslash" unicode="&#xf8;" horiz-adv-x="586" 
d="M92 -1l29 42q-92 70 -92 198q0 112 73 181t191 69q68 0 124 -25l25 35l47 -28l-24 -35q93 -71 93 -197q0 -112 -73.5 -181t-191.5 -69q-68 0 -124 25l-30 -43zM369 239q0 23 -2 57l-134 -190q19 -63 60 -63q35 0 55.5 50t20.5 146zM218 239q0 -40 2 -57l133 190
q-21 64 -60 64q-35 0 -55 -50t-20 -147z" />
    <glyph glyph-name="ugrave" unicode="&#xf9;" 
d="M233 478v-333q0 -62 62 -62q16 0 32 4t24 8l8 4v201q0 50 -4.5 91t-8.5 57l-4 17l13 13q46 0 86.5 3.5t58.5 6.5l18 4l14 -14v-278q0 -50 7.5 -96.5t14.5 -68.5l8 -22l-13 -13q-48 0 -92 -3t-64 -7l-20 -3l-14 13l5 43l-5 4q-7 -6 -20 -16t-54.5 -26t-85.5 -16
q-72 0 -105 38.5t-33 100.5v172q0 50 -7.5 91t-15.5 57l-8 17l14 13q48 0 91.5 3.5t63.5 6.5l20 4zM361 562l-10 -9h-49l-151 154v9q41 26 136 26z" />
    <glyph glyph-name="uacute" unicode="&#xfa;" 
d="M233 478v-333q0 -62 62 -62q16 0 32 4t24 8l8 4v201q0 50 -4.5 91t-8.5 57l-4 17l13 13q46 0 86.5 3.5t58.5 6.5l18 4l14 -14v-278q0 -50 7.5 -96.5t14.5 -68.5l8 -22l-13 -13q-48 0 -92 -3t-64 -7l-20 -3l-14 13l5 43l-5 4q-7 -6 -20 -16t-54.5 -26t-85.5 -16
q-72 0 -105 38.5t-33 100.5v172q0 50 -7.5 91t-15.5 57l-8 17l14 13q48 0 91.5 3.5t63.5 6.5l20 4zM240 553l-9 9l74 180q42 0 76 -6.5t47 -13.5l13 -6v-9l-151 -154h-50z" />
    <glyph glyph-name="ucircumflex" unicode="&#xfb;" 
d="M233 478v-333q0 -62 62 -62q16 0 32 4t24 8l8 4v201q0 50 -4.5 91t-8.5 57l-4 17l13 13q46 0 86.5 3.5t58.5 6.5l18 4l14 -14v-278q0 -50 7.5 -96.5t14.5 -68.5l8 -22l-13 -13q-48 0 -92 -3t-64 -7l-20 -3l-14 13l5 43l-5 4q-7 -6 -20 -16t-54.5 -26t-85.5 -16
q-72 0 -105 38.5t-33 100.5v172q0 50 -7.5 91t-15.5 57l-8 17l14 13q48 0 91.5 3.5t63.5 6.5l20 4zM464 562l-9 -9h-58l-101 80l-102 -80h-57l-10 9l148 180h42z" />
    <glyph glyph-name="udieresis" unicode="&#xfc;" 
d="M233 478v-333q0 -62 62 -62q16 0 32 4t24 8l8 4v201q0 50 -4.5 91t-8.5 57l-4 17l13 13q46 0 86.5 3.5t58.5 6.5l18 4l14 -14v-278q0 -50 7.5 -96.5t14.5 -68.5l8 -22l-13 -13q-48 0 -92 -3t-64 -7l-20 -3l-14 13l5 43l-5 4q-7 -6 -20 -16t-54.5 -26t-85.5 -16
q-72 0 -105 38.5t-33 100.5v172q0 50 -7.5 91t-15.5 57l-8 17l14 13q48 0 91.5 3.5t63.5 6.5l20 4zM114 624q0 32 20 51.5t53 19.5t52.5 -19.5t19.5 -51.5q0 -33 -19.5 -53.5t-52.5 -20.5t-53 20.5t-20 53.5zM333 624q0 32 20.5 51.5t53.5 19.5q32 0 51.5 -19.5t19.5 -51.5
q0 -33 -19.5 -53.5t-51.5 -20.5q-33 0 -53.5 20.5t-20.5 53.5z" />
    <glyph glyph-name="yacute" unicode="&#xfd;" horiz-adv-x="539" 
d="M533 478l-232 -550q-20 -47 -36.5 -91.5t-22.5 -64.5l-7 -21l-9 -9q-37 0 -72.5 11t-52.5 21l-17 11v13q10 7 26.5 21t54 60.5t60.5 97.5l10 23l-133 300q-21 48 -45 90t-37 60l-14 19l9 9q49 0 94.5 2t66.5 4l21 3l121 -303l52 116q23 52 36.5 94t15.5 58l1 17l9 9
q20 0 43 2.5t36 5.5l13 2zM226 553l-9 9l74 180q42 0 75.5 -6.5t46.5 -13.5l13 -6v-9l-150 -154h-50z" />
    <glyph glyph-name="thorn" unicode="&#xfe;" horiz-adv-x="591" 
d="M233 -250h-172v695q0 84 -7.5 157t-15.5 104l-8 31l14 13q48 0 91.5 3t63.5 7l20 3l14 -13v-266q0 -21 -4 -45l4 -4q6 6 17 15t48 24t76 15q85 0 136.5 -63.5t51.5 -173.5q0 -124 -65.5 -193.5t-182.5 -69.5q-43 0 -81 11v-250zM369 225q0 171 -83 171q-14 0 -27 -4
t-19 -8l-7 -5v-283q0 -24 15.5 -37.5t39.5 -13.5q81 0 81 180z" />
    <glyph glyph-name="ydieresis" unicode="&#xff;" horiz-adv-x="539" 
d="M533 478l-232 -550q-20 -47 -36.5 -91.5t-22.5 -64.5l-7 -21l-9 -9q-37 0 -72.5 11t-52.5 21l-17 11v13q10 7 26.5 21t54 60.5t60.5 97.5l10 23l-133 300q-21 48 -45 90t-37 60l-14 19l9 9q49 0 94.5 2t66.5 4l21 3l121 -303l52 116q23 52 36.5 94t15.5 58l1 17l9 9
q20 0 43 2.5t36 5.5l13 2zM100 624q0 32 20 51.5t54 19.5q32 0 51.5 -19.5t19.5 -51.5q0 -33 -19.5 -53.5t-51.5 -20.5q-34 0 -54 20.5t-20 53.5zM320 624q0 32 20 51.5t53 19.5q32 0 51.5 -19.5t19.5 -51.5q0 -33 -19.5 -53.5t-51.5 -20.5q-33 0 -53 20.5t-20 53.5z" />
    <glyph glyph-name="Amacron" unicode="&#x100;" horiz-adv-x="723" 
d="M171 179l-68 -179h-88l248 639l-29 48v13h197l277 -700h-186l-71 179h-280zM317 522l-9 20l-111 -294h227zM212 785v70h282v-70h-282z" />
    <glyph glyph-name="amacron" unicode="&#x101;" horiz-adv-x="566" 
d="M276 489q218 0 218 -144v-237q0 -41 32 -41q7 0 12.5 1.5t7.5 3.5l3 2l25 -25q-2 -2 -5.5 -6.5t-17 -14.5t-28.5 -18t-40.5 -14.5t-52.5 -6.5q-87 0 -104 60q-68 -60 -161 -60q-65 0 -99 33t-34 96q0 60 45 91.5t173 49.5l72 9v112q0 56 -52 56q-60 0 -60 -68
q0 -15 2.5 -28.5t5.5 -19.5l2 -7l-13 -13q-39 0 -74 3t-50 7l-15 3q-13 19 -13 50q0 60 58 93t163 33zM133 583v71h282v-71h-282zM210 140q0 -59 55 -59q16 0 30 4.5t21 9.5l6 5v110l-52 -8q-60 -7 -60 -62z" />
    <glyph glyph-name="Abreve" unicode="&#x102;" horiz-adv-x="723" 
d="M171 179l-68 -179h-88l248 639l-29 48v13h197l277 -700h-186l-71 179h-280zM317 522l-9 20l-111 -294h227zM191 866l25 25q6 -6 17.5 -15t47 -24t71.5 -15q37 0 71 13.5t50 27.5l16 13l25 -25l-5 -12.5t-16.5 -27.5t-30 -35t-46 -27.5t-64.5 -12.5t-64 12t-46.5 28.5
t-29.5 33.5t-16 29z" />
    <glyph glyph-name="abreve" unicode="&#x103;" horiz-adv-x="566" 
d="M276 489q218 0 218 -144v-237q0 -41 32 -41q7 0 12.5 1.5t7.5 3.5l3 2l25 -25q-2 -2 -5.5 -6.5t-17 -14.5t-28.5 -18t-40.5 -14.5t-52.5 -6.5q-87 0 -104 60q-68 -60 -161 -60q-65 0 -99 33t-34 96q0 60 45 91.5t173 49.5l72 9v112q0 56 -52 56q-60 0 -60 -68
q0 -15 2.5 -28.5t5.5 -19.5l2 -7l-13 -13q-39 0 -74 3t-50 7l-15 3q-13 19 -13 50q0 60 58 93t163 33zM111 664l25 26q6 -6 17.5 -15t47 -24t71.5 -15q37 0 71 13.5t50 26.5l16 14l25 -26l-5 -12.5t-16.5 -27t-30 -34.5t-46.5 -27.5t-64 -12.5q-35 0 -64 11.5t-46.5 28.5
t-29.5 34t-16 28zM210 140q0 -59 55 -59q16 0 30 4.5t21 9.5l6 5v110l-52 -8q-60 -7 -60 -62z" />
    <glyph glyph-name="Aogonek" unicode="&#x104;" horiz-adv-x="723" 
d="M171 179l-68 -179h-88l248 639l-29 48v13h197l277 -700h-49q-37 -43 -37 -94q0 -46 42 -46q8 0 15 1.5t9 2.5l3 2l26 -25q-2 -4 -7.5 -11t-26 -18t-45.5 -11q-40 0 -69.5 24.5t-29.5 68.5q0 31 17 57.5t29 35t21 13.5h-84l-71 179h-280zM317 522l-9 20l-111 -294h227z
" />
    <glyph glyph-name="aogonek" unicode="&#x105;" horiz-adv-x="566" 
d="M276 489q218 0 218 -144v-237q0 -41 32 -41q7 0 12.5 1.5t7.5 3.5l3 2l25 -25q-28 -36 -85 -52q-34 -44 -34 -91q0 -46 42 -46q8 0 14.5 1.5t9.5 2.5l3 2l25 -25q-2 -4 -7.5 -11t-26 -18t-45.5 -11q-40 0 -69.5 24.5t-29.5 68.5q0 57 51 95q-80 3 -96 60
q-68 -60 -161 -60q-65 0 -99 33t-34 96q0 60 45 91.5t173 49.5l72 9v112q0 56 -52 56q-60 0 -60 -68q0 -15 2.5 -28.5t5.5 -19.5l2 -7l-13 -13q-39 0 -74 3t-50 7l-15 3q-13 19 -13 50q0 60 58 93t163 33zM210 140q0 -59 55 -59q16 0 30 4.5t21 9.5l6 5v110l-52 -8
q-60 -7 -60 -62z" />
    <glyph glyph-name="Cacute" unicode="&#x106;" horiz-adv-x="722" 
d="M406 653q-76 0 -121 -74.5t-45 -209.5q0 -143 53.5 -209.5t159.5 -66.5q56 0 108 17t76 34l24 17l27 -28q-3 -6 -9 -15.5t-30.5 -34.5t-54 -44t-81.5 -34.5t-112 -15.5q-162 0 -262 100.5t-100 261.5t100.5 260.5t269.5 99.5q129 0 205.5 -57t76.5 -147q0 -20 -4.5 -36
t-8.5 -22l-4 -6q-61 -14 -161 -14l-13 14q13 22 13 77q0 65 -28.5 99t-78.5 34zM335 755l-9 9l74 180q42 0 75.5 -6.5t46.5 -13.5l13 -6v-9l-151 -154h-49z" />
    <glyph glyph-name="cacute" unicode="&#x107;" horiz-adv-x="532" 
d="M482 117l25 -25q-2 -4 -7 -11t-23 -25t-40.5 -31.5t-61.5 -24.5t-84 -11q-119 0 -190.5 69t-71.5 183q0 113 72 180.5t202 67.5q92 0 147 -34.5t55 -96.5q0 -14 -3 -27.5t-6 -19.5l-3 -6q-48 -14 -136 -14l-13 14q9 24 9 59q0 72 -52 72q-38 0 -58.5 -46.5t-20.5 -123.5
q0 -103 32 -146t99 -43q35 0 67.5 10t47.5 20zM239 553l-9 9l74 180q42 0 75.5 -6.5t46.5 -13.5l13 -6v-9l-150 -154h-50z" />
    <glyph glyph-name="Ccircumflex" unicode="&#x108;" horiz-adv-x="722" 
d="M406 653q-76 0 -121 -74.5t-45 -209.5q0 -143 53.5 -209.5t159.5 -66.5q56 0 108 17t76 34l24 17l27 -28q-3 -6 -9 -15.5t-30.5 -34.5t-54 -44t-81.5 -34.5t-112 -15.5q-162 0 -262 100.5t-100 261.5t100.5 260.5t269.5 99.5q129 0 205.5 -57t76.5 -147q0 -20 -4.5 -36
t-8.5 -22l-4 -6q-61 -14 -161 -14l-13 14q13 22 13 77q0 65 -28.5 99t-78.5 34zM559 764l-9 -9h-58l-102 80l-101 -80h-58l-9 9l147 180h42z" />
    <glyph glyph-name="ccircumflex" unicode="&#x109;" horiz-adv-x="532" 
d="M482 117l25 -25q-2 -4 -7 -11t-23 -25t-40.5 -31.5t-61.5 -24.5t-84 -11q-119 0 -190.5 69t-71.5 183q0 113 72 180.5t202 67.5q92 0 147 -34.5t55 -96.5q0 -14 -3 -27.5t-6 -19.5l-3 -6q-48 -14 -136 -14l-13 14q9 24 9 59q0 72 -52 72q-38 0 -58.5 -46.5t-20.5 -123.5
q0 -103 32 -146t99 -43q35 0 67.5 10t47.5 20zM455 562l-10 -9h-58l-101 80l-101 -80h-58l-9 9l147 180h42z" />
    <glyph glyph-name="Cdotaccent" unicode="&#x10a;" horiz-adv-x="722" 
d="M406 653q-76 0 -121 -74.5t-45 -209.5q0 -143 53.5 -209.5t159.5 -66.5q56 0 108 17t76 34l24 17l27 -28q-3 -6 -9 -15.5t-30.5 -34.5t-54 -44t-81.5 -34.5t-112 -15.5q-162 0 -262 100.5t-100 261.5t100.5 260.5t269.5 99.5q129 0 205.5 -57t76.5 -147q0 -20 -4.5 -36
t-8.5 -22l-4 -6q-61 -14 -161 -14l-13 14q13 22 13 77q0 65 -28.5 99t-78.5 34zM309 837q0 37 22.5 59t58.5 22q37 0 59 -22t22 -59q0 -36 -22 -58.5t-59 -22.5q-36 0 -58.5 22.5t-22.5 58.5z" />
    <glyph glyph-name="cdotaccent" unicode="&#x10b;" horiz-adv-x="532" 
d="M482 117l25 -25q-2 -4 -7 -11t-23 -25t-40.5 -31.5t-61.5 -24.5t-84 -11q-119 0 -190.5 69t-71.5 183q0 113 72 180.5t202 67.5q92 0 147 -34.5t55 -96.5q0 -14 -3 -27.5t-6 -19.5l-3 -6q-48 -14 -136 -14l-13 14q9 24 9 59q0 72 -52 72q-38 0 -58.5 -46.5t-20.5 -123.5
q0 -103 32 -146t99 -43q35 0 67.5 10t47.5 20zM209 619q0 36 22 58.5t58 22.5q37 0 59 -22.5t22 -58.5t-22 -58.5t-59 -22.5q-36 0 -58 22.5t-22 58.5z" />
    <glyph glyph-name="Ccaron" unicode="&#x10c;" horiz-adv-x="722" 
d="M406 653q-76 0 -121 -74.5t-45 -209.5q0 -143 53.5 -209.5t159.5 -66.5q56 0 108 17t76 34l24 17l27 -28q-3 -6 -9 -15.5t-30.5 -34.5t-54 -44t-81.5 -34.5t-112 -15.5q-162 0 -262 100.5t-100 261.5t100.5 260.5t269.5 99.5q129 0 205.5 -57t76.5 -147q0 -20 -4.5 -36
t-8.5 -22l-4 -6q-61 -14 -161 -14l-13 14q13 22 13 77q0 65 -28.5 99t-78.5 34zM550 939l9 -9l-148 -180h-42l-147 180l9 9h58l101 -80l102 80h58z" />
    <glyph glyph-name="ccaron" unicode="&#x10d;" horiz-adv-x="532" 
d="M482 117l25 -25q-2 -4 -7 -11t-23 -25t-40.5 -31.5t-61.5 -24.5t-84 -11q-119 0 -190.5 69t-71.5 183q0 113 72 180.5t202 67.5q92 0 147 -34.5t55 -96.5q0 -14 -3 -27.5t-6 -19.5l-3 -6q-48 -14 -136 -14l-13 14q9 24 9 59q0 72 -52 72q-38 0 -58.5 -46.5t-20.5 -123.5
q0 -103 32 -146t99 -43q35 0 67.5 10t47.5 20zM445 737l10 -9l-148 -180h-42l-147 180l9 9h58l101 -80l101 80h58z" />
    <glyph glyph-name="Dcaron" unicode="&#x10e;" horiz-adv-x="771" 
d="M67 0v700h301q163 0 264 -97t101 -253t-101 -253t-264 -97h-301zM360 629h-113v-558h113q79 0 125 71t46 208t-46 208t-125 71zM536 939l9 -9l-147 -180h-42l-148 180l10 9h57l102 -80l101 80h58z" />
    <glyph glyph-name="dcaron" unicode="&#x10f;" horiz-adv-x="705" 
d="M327 737l14 13q48 0 92 3t64 7l20 3l13 -13v-449q0 -84 8 -156t16 -102l7 -30l-14 -13q-48 0 -92 -3t-64 -7l-20 -3l-13 13l5 36l-5 5q-6 -6 -17 -14.5t-48 -23t-76 -14.5q-87 0 -137.5 62.5t-50.5 172.5q0 125 65.5 195t182.5 70q43 0 81 -11q-1 76 -9 141t-15 91z
M222 254q0 -171 84 -171q13 0 26 3.5t20 7.5l6 4v284q0 24 -16 38t-39 14q-38 0 -59.5 -45t-21.5 -135zM581 547l-16 15q39 52 39 127q0 18 -3 34t-5 23l-3 7l5 6q28 0 53 -3.5t37 -6.5l11 -3q6 -12 6 -35q0 -32 -13 -60.5t-31 -46.5t-36 -31.5t-31 -19.5z" />
    <glyph glyph-name="Dcroat" unicode="&#x110;" horiz-adv-x="771" 
d="M12 320v71h55v309h301q163 0 264 -97t101 -253t-101 -253t-264 -97h-301v320h-55zM360 629h-113v-238h128v-71h-128v-249h113q79 0 125 71t46 208t-46 208t-125 71z" />
    <glyph glyph-name="dcroat" unicode="&#x111;" horiz-adv-x="591" 
d="M241 566v70h105q-4 30 -8.5 55t-7.5 35l-3 11l14 13q48 0 92 3t64 7l20 3l13 -13v-114h50v-70h-50v-265q0 -84 8 -156t16 -102l7 -30l-14 -13q-48 0 -92 -3t-64 -7l-20 -3l-13 13l5 36l-5 5q-6 -6 -17 -14.5t-48 -23t-76 -14.5q-87 0 -137.5 62.5t-50.5 172.5
q0 125 65.5 195t182.5 70q43 0 81 -11q-2 58 -4 88h-113zM222 254q0 -171 84 -171q13 0 26 3.5t20 7.5l6 4v284q0 24 -16 38t-39 14q-38 0 -59.5 -45t-21.5 -135z" />
    <glyph glyph-name="Emacron" unicode="&#x112;" horiz-adv-x="598" 
d="M67 0v700h479v-92l-14 -13q-53 34 -165 34h-120v-234h227l9 -10v-61h-236v-253h130q50 0 91 8.5t58 16.5l16 9l14 -13v-92h-489zM169 785v70h282v-70h-282z" />
    <glyph glyph-name="emacron" unicode="&#x113;" horiz-adv-x="544" 
d="M482 117l25 -25q-2 -4 -7 -11t-23 -25t-40 -31.5t-61 -24.5t-84 -11q-119 0 -191 69t-72 184q0 114 73 180.5t207 66.5q201 0 201 -155q0 -20 -3 -39t-6 -28l-3 -9l-14 -14h-262q4 -90 35.5 -128.5t95.5 -38.5q36 0 68 10t47 20zM149 583v71h283v-71h-283zM304 436
q-72 0 -81 -137l127 9q5 25 5 51q0 77 -51 77z" />
    <glyph glyph-name="Ebreve" unicode="&#x114;" horiz-adv-x="598" 
d="M67 0v700h479v-92l-14 -13q-53 34 -165 34h-120v-234h227l9 -10v-61h-236v-253h130q50 0 91 8.5t58 16.5l16 9l14 -13v-92h-489zM149 866l25 25q6 -6 17.5 -15t47 -24t71.5 -15q37 0 71 13.5t50 27.5l16 13l25 -25l-5 -12.5t-16.5 -27.5t-30 -35t-46 -27.5t-64.5 -12.5
t-64 12t-46.5 28.5t-29.5 33.5t-16 29z" />
    <glyph glyph-name="ebreve" unicode="&#x115;" horiz-adv-x="544" 
d="M482 117l25 -25q-2 -4 -7 -11t-23 -25t-40 -31.5t-61 -24.5t-84 -11q-119 0 -191 69t-72 184q0 114 73 180.5t207 66.5q201 0 201 -155q0 -20 -3 -39t-6 -28l-3 -9l-14 -14h-262q4 -90 35.5 -128.5t95.5 -38.5q36 0 68 10t47 20zM129 664l25 26q6 -6 17.5 -15t47 -24
t72.5 -15q36 0 70 13.5t50 26.5l16 14l25 -26l-5 -12.5t-16.5 -27t-30 -34.5t-46 -27.5t-63.5 -12.5q-35 0 -64.5 11.5t-46.5 28.5t-29.5 34t-16.5 28zM304 436q-72 0 -81 -137l127 9q5 25 5 51q0 77 -51 77z" />
    <glyph glyph-name="Edotaccent" unicode="&#x116;" horiz-adv-x="598" 
d="M67 0v700h479v-92l-14 -13q-53 34 -165 34h-120v-234h227l9 -10v-61h-236v-253h130q50 0 91 8.5t58 16.5l16 9l14 -13v-92h-489zM230 837q0 37 22 59t58 22q37 0 59 -22t22 -59q0 -36 -22 -58.5t-59 -22.5q-36 0 -58 22.5t-22 58.5z" />
    <glyph glyph-name="edotaccent" unicode="&#x117;" horiz-adv-x="544" 
d="M482 117l25 -25q-2 -4 -7 -11t-23 -25t-40 -31.5t-61 -24.5t-84 -11q-119 0 -191 69t-72 184q0 114 73 180.5t207 66.5q201 0 201 -155q0 -20 -3 -39t-6 -28l-3 -9l-14 -14h-262q4 -90 35.5 -128.5t95.5 -38.5q36 0 68 10t47 20zM215 619q0 36 22 58.5t59 22.5
q36 0 58.5 -22.5t22.5 -58.5t-22.5 -58.5t-58.5 -22.5q-37 0 -59 22.5t-22 58.5zM304 436q-72 0 -81 -137l127 9q5 25 5 51q0 77 -51 77z" />
    <glyph glyph-name="Eogonek" unicode="&#x118;" horiz-adv-x="598" 
d="M67 0v700h479v-92l-14 -13q-53 34 -165 34h-120v-234h227l9 -10v-61h-236v-253h130q50 0 91 8.5t58 16.5l16 9l14 -13v-92h-57q-38 -43 -38 -94q0 -46 42 -46q8 0 15 1.5t10 2.5l3 2l25 -25q-2 -4 -7.5 -11t-26 -18t-45.5 -11q-40 0 -69.5 24.5t-29.5 68.5q0 24 9 45
t23 34t22 18.5t14 8.5h-379z" />
    <glyph glyph-name="eogonek" unicode="&#x119;" horiz-adv-x="544" 
d="M482 117l25 -25q-3 -6 -10.5 -16t-35 -33t-61.5 -36q-35 -41 -35 -91q0 -46 42 -46q8 0 14.5 1.5t9.5 2.5l3 2l25 -25q-2 -4 -7.5 -11t-26 -18t-45.5 -11q-40 0 -69.5 24.5t-29.5 68.5q0 50 40 86q-10 -1 -29 -1q-119 0 -191 69t-72 184q0 114 73 180.5t207 66.5
q201 0 201 -155q0 -20 -3 -39t-6 -28l-3 -9l-14 -14h-262q4 -90 35.5 -128.5t95.5 -38.5q36 0 68 10t47 20zM304 436q-72 0 -81 -137l127 9q5 25 5 51q0 77 -51 77z" />
    <glyph glyph-name="Ecaron" unicode="&#x11a;" horiz-adv-x="598" 
d="M67 0v700h479v-92l-14 -13q-53 34 -165 34h-120v-234h227l9 -10v-61h-236v-253h130q50 0 91 8.5t58 16.5l16 9l14 -13v-92h-489zM470 940l9 -9l-148 -180h-42l-147 180l9 9h58l101 -80l102 80h58z" />
    <glyph glyph-name="ecaron" unicode="&#x11b;" horiz-adv-x="544" 
d="M482 117l25 -25q-2 -4 -7 -11t-23 -25t-40 -31.5t-61 -24.5t-84 -11q-119 0 -191 69t-72 184q0 114 73 180.5t207 66.5q201 0 201 -155q0 -20 -3 -39t-6 -28l-3 -9l-14 -14h-262q4 -90 35.5 -128.5t95.5 -38.5q36 0 68 10t47 20zM441 737l10 -9l-148 -180h-42l-147 180
l9 9h58l101 -80l101 80h58zM304 436q-72 0 -81 -137l127 9q5 25 5 51q0 77 -51 77z" />
    <glyph glyph-name="Gcircumflex" unicode="&#x11c;" horiz-adv-x="725" 
d="M441 279v61h66q48 0 90 3.5t60 6.5l18 4l13 -14v-241q-3 -4 -9.5 -11.5t-31 -26.5t-53.5 -33.5t-78.5 -26.5t-105.5 -12q-170 0 -270.5 99.5t-100.5 262.5q0 162 100.5 261t273.5 99q126 0 200.5 -52t74.5 -140q0 -20 -4 -35.5t-8 -21.5l-4 -6q-61 -13 -161 -13l-14 13
q15 21 15 76q0 121 -102 121q-79 0 -124.5 -73.5t-45.5 -209.5q0 -144 52 -219t153 -75q40 0 79 11v76q0 57 -11 107h-63zM559 764l-9 -9h-58l-102 80l-101 -80h-58l-9 9l147 180h42z" />
    <glyph glyph-name="gcircumflex" unicode="&#x11d;" horiz-adv-x="577" 
d="M155 -44l13 -13q-16 -27 -16 -62q0 -78 128 -78q70 0 106 21.5t36 61.5q0 24 -11.5 39.5t-35 22.5t-44.5 9.5t-53 3.5q-35 1 -52.5 2t-48.5 4t-48 8t-39 14t-33.5 21t-19.5 31t-8 43q0 74 65 131q-57 43 -57 113q0 72 63 116.5t168 44.5q83 0 143 -30q63 82 146 82
q13 -45 13 -127l-13 -13q-17 12 -49 12q-20 0 -35 -4q27 -35 27 -81q0 -72 -63.5 -117t-168.5 -45q-64 0 -113 17q-8 -13 -8 -32q0 -13 4 -22t14.5 -14.5t19 -9t29 -5t33 -2t40.5 -1.5q59 -1 94 -3.5t72 -10.5t55.5 -21.5t30.5 -37t12 -57.5q0 -103 -88 -165t-237 -62
q-105 0 -165.5 35t-60.5 106q0 18 3.5 33.5t7.5 21.5l4 7q52 13 140 13zM437 562l-10 -9h-57l-102 80l-101 -80h-58l-9 9l147 180h42zM209 328q0 -53 16 -80.5t43 -27.5q28 0 44 27.5t16 80.5t-16 80.5t-44 27.5q-27 0 -43 -27.5t-16 -80.5z" />
    <glyph glyph-name="Gbreve" unicode="&#x11e;" horiz-adv-x="725" 
d="M441 279v61h66q48 0 90 3.5t60 6.5l18 4l13 -14v-241q-3 -4 -9.5 -11.5t-31 -26.5t-53.5 -33.5t-78.5 -26.5t-105.5 -12q-170 0 -270.5 99.5t-100.5 262.5q0 162 100.5 261t273.5 99q126 0 200.5 -52t74.5 -140q0 -20 -4 -35.5t-8 -21.5l-4 -6q-61 -13 -161 -13l-14 13
q15 21 15 76q0 121 -102 121q-79 0 -124.5 -73.5t-45.5 -209.5q0 -144 52 -219t153 -75q40 0 79 11v76q0 57 -11 107h-63zM229 866l25 25q6 -6 17.5 -15t47 -24t71.5 -15q37 0 71 13.5t50 27.5l16 13l25 -25l-5 -12.5t-16.5 -27.5t-30 -35t-46 -27.5t-64.5 -12.5t-64 12
t-46.5 28.5t-29.5 33.5t-16 29z" />
    <glyph glyph-name="gbreve" unicode="&#x11f;" horiz-adv-x="577" 
d="M155 -44l13 -13q-16 -27 -16 -62q0 -78 128 -78q70 0 106 21.5t36 61.5q0 24 -11.5 39.5t-35 22.5t-44.5 9.5t-53 3.5q-35 1 -52.5 2t-48.5 4t-48 8t-39 14t-33.5 21t-19.5 31t-8 43q0 74 65 131q-57 43 -57 113q0 72 63 116.5t168 44.5q83 0 143 -30q63 82 146 82
q13 -45 13 -127l-13 -13q-17 12 -49 12q-20 0 -35 -4q27 -35 27 -81q0 -72 -63.5 -117t-168.5 -45q-64 0 -113 17q-8 -13 -8 -32q0 -13 4 -22t14.5 -14.5t19 -9t29 -5t33 -2t40.5 -1.5q59 -1 94 -3.5t72 -10.5t55.5 -21.5t30.5 -37t12 -57.5q0 -103 -88 -165t-237 -62
q-105 0 -165.5 35t-60.5 106q0 18 3.5 33.5t7.5 21.5l4 7q52 13 140 13zM106 664l25 26q6 -6 17.5 -15t47 -24t71.5 -15q37 0 71 13.5t50 26.5l16 14l25 -26l-5 -12.5t-16.5 -27t-30 -34.5t-46 -27.5t-64.5 -12.5t-64 11.5t-46.5 28.5t-29.5 34t-17 28zM209 328
q0 -53 16 -80.5t43 -27.5q28 0 44 27.5t16 80.5t-16 80.5t-44 27.5q-27 0 -43 -27.5t-16 -80.5z" />
    <glyph glyph-name="Gdotaccent" unicode="&#x120;" horiz-adv-x="725" 
d="M441 279v61h66q48 0 90 3.5t60 6.5l18 4l13 -14v-241q-3 -4 -9.5 -11.5t-31 -26.5t-53.5 -33.5t-78.5 -26.5t-105.5 -12q-170 0 -270.5 99.5t-100.5 262.5q0 162 100.5 261t273.5 99q126 0 200.5 -52t74.5 -140q0 -20 -4 -35.5t-8 -21.5l-4 -6q-61 -13 -161 -13l-14 13
q15 21 15 76q0 121 -102 121q-79 0 -124.5 -73.5t-45.5 -209.5q0 -144 52 -219t153 -75q40 0 79 11v76q0 57 -11 107h-63zM309 837q0 37 22.5 59t58.5 22q37 0 59 -22t22 -59q0 -36 -22 -58.5t-59 -22.5q-36 0 -58.5 22.5t-22.5 58.5z" />
    <glyph glyph-name="gdotaccent" unicode="&#x121;" horiz-adv-x="577" 
d="M155 -44l13 -13q-16 -27 -16 -62q0 -78 128 -78q70 0 106 21.5t36 61.5q0 24 -11.5 39.5t-35 22.5t-44.5 9.5t-53 3.5q-35 1 -52.5 2t-48.5 4t-48 8t-39 14t-33.5 21t-19.5 31t-8 43q0 74 65 131q-57 43 -57 113q0 72 63 116.5t168 44.5q83 0 143 -30q63 82 146 82
q13 -45 13 -127l-13 -13q-17 12 -49 12q-20 0 -35 -4q27 -35 27 -81q0 -72 -63.5 -117t-168.5 -45q-64 0 -113 17q-8 -13 -8 -32q0 -13 4 -22t14.5 -14.5t19 -9t29 -5t33 -2t40.5 -1.5q59 -1 94 -3.5t72 -10.5t55.5 -21.5t30.5 -37t12 -57.5q0 -103 -88 -165t-237 -62
q-105 0 -165.5 35t-60.5 106q0 18 3.5 33.5t7.5 21.5l4 7q52 13 140 13zM187 619q0 36 22.5 58.5t58.5 22.5q37 0 59 -22.5t22 -58.5t-22 -58.5t-59 -22.5q-36 0 -58.5 22.5t-22.5 58.5zM209 328q0 -53 16 -80.5t43 -27.5q28 0 44 27.5t16 80.5t-16 80.5t-44 27.5
q-27 0 -43 -27.5t-16 -80.5z" />
    <glyph glyph-name="Gcommaaccent" unicode="&#x122;" horiz-adv-x="725" 
d="M441 279v61h66q48 0 90 3.5t60 6.5l18 4l13 -14v-241q-3 -4 -9.5 -11.5t-31 -26.5t-53.5 -33.5t-78.5 -26.5t-105.5 -12q-170 0 -270.5 99.5t-100.5 262.5q0 162 100.5 261t273.5 99q126 0 200.5 -52t74.5 -140q0 -20 -4 -35.5t-8 -21.5l-4 -6q-61 -13 -161 -13l-14 13
q15 21 15 76q0 121 -102 121q-79 0 -124.5 -73.5t-45.5 -209.5q0 -144 52 -219t153 -75q40 0 79 11v76q0 57 -11 107h-63zM335 -257l-16 16q39 52 39 127q0 18 -3 34t-6 23l-3 7l6 6q28 0 53 -3t37 -7l11 -3q6 -12 6 -35q0 -32 -13 -60.5t-31 -47t-36 -32t-31 -19.5z" />
    <glyph glyph-name="gcommaaccent" unicode="&#x123;" horiz-adv-x="577" 
d="M155 -44l13 -13q-16 -27 -16 -62q0 -78 128 -78q70 0 106 21.5t36 61.5q0 24 -11.5 39.5t-35 22.5t-44.5 9.5t-53 3.5q-35 1 -52.5 2t-48.5 4t-48 8t-39 14t-33.5 21t-19.5 31t-8 43q0 74 65 131q-57 43 -57 113q0 72 63 116.5t168 44.5q83 0 143 -30q63 82 146 82
q13 -45 13 -127l-13 -13q-17 12 -49 12q-20 0 -35 -4q27 -35 27 -81q0 -72 -63.5 -117t-168.5 -45q-64 0 -113 17q-8 -13 -8 -32q0 -13 4 -22t14.5 -14.5t19 -9t29 -5t33 -2t40.5 -1.5q59 -1 94 -3.5t72 -10.5t55.5 -21.5t30.5 -37t12 -57.5q0 -103 -88 -165t-237 -62
q-105 0 -165.5 35t-60.5 106q0 18 3.5 33.5t7.5 21.5l4 7q52 13 140 13zM209 328q0 -53 16 -80.5t43 -27.5q28 0 44 27.5t16 80.5t-16 80.5t-44 27.5q-27 0 -43 -27.5t-16 -80.5zM337 752l16 -16q-39 -52 -39 -126q0 -19 3 -35t5 -23l3 -7l-5 -6q-28 0 -53 3.5t-37 7.5
l-11 3q-6 11 -6 35q0 32 13 60.5t31 46.5t36 31.5t31 19.5z" />
    <glyph glyph-name="Hcircumflex" unicode="&#x124;" horiz-adv-x="776" 
d="M529 0v324h-282v-324h-180v700h180v-305h282v305h181v-700h-181zM556 764l-9 -9h-58l-101 80l-101 -80h-58l-9 9l147 180h42z" />
    <glyph glyph-name="hcircumflex" unicode="&#x125;" horiz-adv-x="585" 
d="M57 0v445q0 84 -7.5 157t-15.5 104l-8 31l13 13q48 0 92 3t64 7l20 3l14 -13v-266l-5 -48l5 -5q8 6 21.5 16t56.5 26t86 16q70 0 102.5 -38t32.5 -98v-353h-172v336q0 60 -62 60q-16 0 -32.5 -4t-24.5 -8l-8 -3v-381h-172zM310 788l-9 -10h-58l-101 80l-102 -80h-57
l-10 10l148 180h42z" />
    <glyph glyph-name="Hbar" unicode="&#x126;" horiz-adv-x="776" 
d="M529 0v324h-282v-324h-180v505h-55v71h55v124h180v-124h282v124h181v-124h54v-71h-54v-505h-181zM247 505v-110h282v110h-282z" />
    <glyph glyph-name="hbar" unicode="&#x127;" horiz-adv-x="589" 
d="M-12 572v35l73 33v110h172v-116h152v-62h-152v-88l-4 -48l4 -5q8 6 22 16t57 26t86 16q70 0 102.5 -38t32.5 -98v-353h-172v336q0 60 -62 60q-16 0 -32.5 -4t-24.5 -8l-9 -3v-381h-172v572h-73z" />
    <glyph glyph-name="Itilde" unicode="&#x128;" horiz-adv-x="314" 
d="M67 0v700h180v-700h-180zM113 877q26 0 56 -18.5t51 -18.5t40.5 10t28.5 20l9 10l25 -25q-2 -4 -5 -11t-14 -24.5t-24 -30.5t-34.5 -24t-44.5 -11q-26 0 -56 18.5t-51 18.5t-40.5 -10t-28.5 -20l-9 -10l-26 25q2 4 5 11t14.5 24.5t24.5 30.5t34.5 24t44.5 11z" />
    <glyph glyph-name="itilde" unicode="&#x129;" horiz-adv-x="290" 
d="M102 675q26 0 55.5 -18.5t50.5 -18.5t40.5 10t29.5 20l9 10l25 -25q-2 -4 -5 -11t-14 -24.5t-24 -30.5t-34.5 -24t-45.5 -11q-26 0 -55.5 18.5t-51.5 18.5q-20 0 -39.5 -10t-28.5 -20l-10 -10l-25 26q2 4 5 11t14 24t24 30t34.5 24t45.5 11zM61 0v300q0 50 -7.5 91
t-15.5 57l-8 17l14 13q48 0 91.5 3.5t63.5 6.5l20 4l14 -14v-478h-172z" />
    <glyph glyph-name="Imacron" unicode="&#x12a;" horiz-adv-x="314" 
d="M67 0v700h180v-700h-180zM15 785v70h283v-70h-283z" />
    <glyph glyph-name="imacron" unicode="&#x12b;" horiz-adv-x="290" 
d="M4 583v71h282v-71h-282zM61 0v300q0 50 -7.5 91t-15.5 57l-8 17l14 13q48 0 91.5 3.5t63.5 6.5l20 4l14 -14v-478h-172z" />
    <glyph glyph-name="Ibreve" unicode="&#x12c;" horiz-adv-x="314" 
d="M67 0v700h180v-700h-180zM-5 866l26 25q6 -6 17 -15t46.5 -24t72.5 -15t71 13.5t50 27.5l15 13l25 -25l-5 -12.5t-16.5 -27.5t-30 -35t-46 -27.5t-63.5 -12.5q-35 0 -64.5 12t-46.5 28.5t-29.5 33.5t-16.5 29z" />
    <glyph glyph-name="ibreve" unicode="&#x12d;" horiz-adv-x="290" 
d="M-21 664l26 26q6 -6 17 -15t46.5 -24t72.5 -15t71 13.5t50 26.5l15 14l26 -26l-5 -12.5t-16.5 -27t-30 -34.5t-46.5 -27.5t-64 -12.5q-35 0 -64.5 11.5t-46.5 28.5t-29.5 34t-16.5 28zM61 0v300q0 50 -7.5 91t-15.5 57l-8 17l14 13q48 0 91.5 3.5t63.5 6.5l20 4l14 -14
v-478h-172z" />
    <glyph glyph-name="Iogonek" unicode="&#x12e;" horiz-adv-x="314" 
d="M67 0v700h180v-700h-48q-38 -43 -38 -94q0 -46 43 -46q8 0 14.5 1.5t9.5 2.5l3 2l25 -25q-2 -4 -7.5 -11t-26 -18t-45.5 -11q-40 0 -69.5 24.5t-29.5 68.5q0 24 9 45t23 34t22 18.5t14 8.5h-79z" />
    <glyph glyph-name="iogonek" unicode="&#x12f;" horiz-adv-x="290" 
d="M61 0v300q0 50 -8 91t-16 57l-8 17l14 13q48 0 92 3.5t64 6.5l20 4l14 -14v-478h-43q-38 -43 -38 -94q0 -46 43 -46q8 0 14.5 1.5t9.5 2.5l3 2l25 -25q-2 -4 -7.5 -11t-26 -18t-45.5 -11q-40 0 -69.5 24.5t-29.5 68.5q0 24 9 45t23 34t22 18.5t14 8.5h-76zM40 638
q0 45 27.5 73t72.5 28t72.5 -28t27.5 -73t-27.5 -72.5t-72.5 -27.5t-72.5 27.5t-27.5 72.5z" />
    <glyph glyph-name="Idotaccent" unicode="&#x130;" horiz-adv-x="314" 
d="M67 0v700h180v-700h-180zM59 853q0 43 27 69.5t70 26.5t69.5 -26.5t26.5 -69.5q0 -44 -26.5 -70.5t-69.5 -26.5q-44 0 -70.5 27t-26.5 70z" />
    <glyph glyph-name="dotlessi" unicode="&#x131;" horiz-adv-x="290" 
d="M61 0v300q0 50 -7.5 91t-15.5 57l-8 17l14 13q48 0 91.5 3.5t63.5 6.5l20 4l14 -14v-478h-172z" />
    <glyph glyph-name="IJ" unicode="&#x132;" horiz-adv-x="645" 
d="M67 325v375h180v-375h-180zM310 47q87 0 87 171v482h181v-476q0 -108 -72 -171.5t-204 -63.5q-111 0 -178 43t-67 113q0 17 4.5 33t8.5 24l4 7q58 14 158 14l17 -14q-15 -28 -15 -71q0 -44 20.5 -67.5t55.5 -23.5z" />
    <glyph glyph-name="ij" unicode="&#x133;" horiz-adv-x="579" 
d="M61 0v300q0 50 -8 91t-16 57l-8 17l14 13q48 0 92 3.5t64 6.5l20 4l14 -14v-478h-172zM40 638q0 45 27.5 73t72.5 28t72.5 -28t27.5 -73t-27.5 -72.5t-72.5 -27.5t-72.5 27.5t-27.5 72.5zM350 -23v323q0 50 -7.5 91t-14.5 57l-8 17l13 13q48 0 92 3.5t64 6.5l20 4l14 -14
v-442q0 -59 -24.5 -111.5t-59 -85.5t-69 -57t-58.5 -34l-25 -11l-26 25q4 4 10 10.5t21 28.5t27 45.5t21.5 59t9.5 71.5zM329 638q0 45 27.5 73t73.5 28q45 0 72.5 -28t27.5 -73t-27.5 -72.5t-72.5 -27.5q-46 0 -73.5 27.5t-27.5 72.5z" />
    <glyph glyph-name="Jcircumflex" unicode="&#x134;" horiz-adv-x="512" 
d="M265 212v488h181v-482q0 -229 -248 -229q-60 0 -106 13t-62 26l-16 13q0 47 19 89.5t38 61.5l19 19h12q1 -7 4 -18t12.5 -39t20.5 -50t29 -39.5t37 -17.5q30 0 45 37t15 128zM528 767l-9 -9h-58l-101 80l-101 -80h-58l-10 9l148 180h42z" />
    <glyph glyph-name="jcircumflex" unicode="&#x135;" horiz-adv-x="290" 
d="M61 -23v323q0 50 -7.5 91t-15.5 57l-8 17l14 13q48 0 91.5 3.5t63.5 6.5l20 4l14 -14v-442q0 -59 -24.5 -111.5t-59 -85.5t-69 -57t-58.5 -34l-25 -11l-25 25q4 4 10 10.5t21 28.5t27 45.5t21.5 59t9.5 71.5zM314 562l-10 -9h-58l-101 80l-101 -80h-58l-9 9l147 180h42z
" />
    <glyph glyph-name="Kcommaaccent" unicode="&#x136;" horiz-adv-x="699" 
d="M67 0v700h180v-295h29l242 295h106l-222 -266l141 -236q32 -51 67.5 -97.5t55.5 -66.5l20 -21v-13h-217l-206 334h-16v-334h-180zM295 -257l-16 16q39 52 39 127q0 18 -3 34t-6 23l-3 7l6 6q28 0 53 -3t37 -7l11 -3q6 -12 6 -35q0 -32 -13 -60.5t-31 -47t-36 -32
t-31 -19.5z" />
    <glyph glyph-name="kcommaaccent" unicode="&#x137;" horiz-adv-x="568" 
d="M57 0v450q0 84 -7.5 156t-15.5 102l-8 29l13 13q48 0 92 3t64 7l20 3l14 -13v-447l28 3l15 18q38 43 61.5 79.5t28.5 50.5l5 15l9 9h135l-138 -162l59 -118q28 -50 58.5 -95t47.5 -65l17 -20v-18q-48 0 -92.5 -2t-65.5 -4l-21 -3l-147 248v-239h-172zM230 -257l-16 16
q39 52 39 127q0 18 -2.5 34t-5.5 23l-3 7l5 6q28 0 53 -3t36 -7l12 -3q6 -12 6 -35q0 -32 -13 -60.5t-31 -47t-36 -32t-31 -19.5z" />
    <glyph glyph-name="Lacute" unicode="&#x139;" horiz-adv-x="552" 
d="M67 0v700h180v-629h102q49 0 90.5 8.5t58.5 16.5l16 9l13 -13v-92h-460zM92 755l-9 9l74 180q42 0 76 -6.5t47 -13.5l13 -6v-9l-151 -154h-50z" />
    <glyph glyph-name="lacute" unicode="&#x13a;" horiz-adv-x="285" 
d="M57 0v450q0 84 -7.5 156t-15.5 102l-8 29l13 13q48 0 92 3t64 7l20 3l14 -13v-750h-172zM87 782l-9 9l74 180q42 0 75.5 -6.5t46.5 -12.5l13 -7v-9l-150 -154h-50z" />
    <glyph glyph-name="Lcommaaccent" unicode="&#x13b;" horiz-adv-x="552" 
d="M67 0v700h180v-629h102q49 0 90.5 8.5t58.5 16.5l16 9l13 -13v-92h-460zM225 -257l-16 16q39 52 39 127q0 18 -3 34t-6 23l-3 7l6 6q28 0 53 -3t37 -7l11 -3q5 -12 5 -35q0 -32 -12.5 -60.5t-31 -47t-36.5 -32t-30 -19.5z" />
    <glyph glyph-name="lcommaaccent" unicode="&#x13c;" horiz-adv-x="285" 
d="M57 0v450q0 84 -7.5 156t-15.5 102l-8 29l13 13q48 0 92 3t64 7l20 3l14 -13v-750h-172zM83 -257l-16 16q39 52 39 127q0 18 -3 34t-5 23l-3 7l5 6q28 0 53 -3t37 -7l11 -3q6 -12 6 -35q0 -32 -13 -60.5t-31 -47t-36 -32t-31 -19.5z" />
    <glyph glyph-name="Lcaron" unicode="&#x13d;" horiz-adv-x="552" 
d="M67 0v700h180v-629h102q49 0 90.5 8.5t58.5 16.5l16 9l13 -13v-92h-460zM368 498l-16 16q39 52 39 127q0 18 -2.5 34t-5.5 23l-3 7l5 6q28 0 53 -3.5t36 -7.5l12 -3q6 -11 6 -35q0 -32 -13 -60.5t-31 -46.5t-36 -31.5t-31 -19.5z" />
    <glyph glyph-name="lcaron" unicode="&#x13e;" horiz-adv-x="403" 
d="M57 0v450q0 84 -7.5 156t-15.5 102l-8 29l13 13q48 0 92 3t64 7l20 3l14 -13v-750h-172zM280 538l-16 16q39 52 39 126q0 18 -3 34.5t-6 23.5l-3 7l6 6q28 0 53 -3.5t36 -7.5l12 -3q5 -11 5 -35q0 -32 -12.5 -60.5t-30.5 -46.5t-36.5 -31.5t-31.5 -19.5z" />
    <glyph glyph-name="Ldot" unicode="&#x13f;" horiz-adv-x="552" 
d="M67 0v700h180v-629h102q49 0 90.5 8.5t58.5 16.5l16 9l13 -13v-92h-460zM342 349q0 41 25 65.5t65 24.5t65 -24.5t25 -65.5q0 -40 -25 -64.5t-65 -24.5t-65 24.5t-25 64.5z" />
    <glyph glyph-name="ldot" unicode="&#x140;" horiz-adv-x="451" 
d="M57 0v450q0 84 -7.5 156t-15.5 102l-8 29l13 13q48 0 92 3t64 7l20 3l14 -13v-750h-172zM283 324q0 40 24.5 65t64.5 25t65 -25t25 -65t-25 -64.5t-65 -24.5t-64.5 24.5t-24.5 64.5z" />
    <glyph glyph-name="Lslash" unicode="&#x141;" horiz-adv-x="573" 
d="M32 245l-27 46l83 50v359h180v-250l68 42l27 -46l-95 -58v-317h102q50 0 91 8.5t57 16.5l17 9l13 -13v-92h-460v279z" />
    <glyph glyph-name="lslash" unicode="&#x142;" horiz-adv-x="319" 
d="M32 245l-27 46l69 40v119q0 84 -8 156t-16 102l-7 29l13 13q48 0 92 3t64 7l20 3l14 -13v-320l42 25l26 -46l-68 -40v-369h-172v269z" />
    <glyph glyph-name="Nacute" unicode="&#x143;" horiz-adv-x="718" 
d="M67 0v420q0 80 -7.5 147t-15.5 93l-8 27l13 13h61l454 -419v419h87v-700h-52l-453 418v-418h-79zM303 755l-9 9l74 180q42 0 76 -6.5t47 -13.5l13 -6v-9l-151 -154h-50z" />
    <glyph glyph-name="nacute" unicode="&#x144;" horiz-adv-x="589" 
d="M360 0v336q0 60 -61 60q-16 0 -32.5 -4t-24.5 -8l-9 -3v-381h-172v300q0 50 -7.5 91t-15.5 57l-8 17l14 13q48 0 91.5 3.5t63.5 6.5l20 4l14 -14l-5 -42l5 -5q8 6 21.5 16t56.5 26t87 16q70 0 102 -38t32 -98v-353h-172zM239 553l-9 9l74 180q42 0 75.5 -6.5t46.5 -13.5
l13 -6v-9l-151 -154h-49z" />
    <glyph glyph-name="Ncommaaccent" unicode="&#x145;" horiz-adv-x="718" 
d="M67 0v420q0 80 -7.5 147t-15.5 93l-8 27l13 13h61l454 -419v419h87v-700h-52l-453 418v-418h-79zM305 -257l-16 16q39 52 39 127q0 18 -3 34t-5 23l-3 7l5 6q28 0 53 -3t37 -7l11 -3q6 -12 6 -35q0 -32 -13 -60.5t-31 -47t-36 -32t-31 -19.5z" />
    <glyph glyph-name="ncommaaccent" unicode="&#x146;" horiz-adv-x="589" 
d="M360 0v336q0 60 -61 60q-16 0 -32.5 -4t-24.5 -8l-9 -3v-381h-172v300q0 50 -7.5 91t-15.5 57l-8 17l14 13q48 0 91.5 3.5t63.5 6.5l20 4l14 -14l-5 -42l5 -5q8 6 21.5 16t56.5 26t87 16q70 0 102 -38t32 -98v-353h-172zM237 -257l-16 16q39 52 39 127q0 18 -3 34t-6 23
l-3 7l6 6q27 0 52.5 -3t37.5 -7l11 -3q5 -12 5 -35q0 -32 -12.5 -60.5t-31 -47t-36.5 -32t-30 -19.5z" />
    <glyph glyph-name="Ncaron" unicode="&#x147;" horiz-adv-x="718" 
d="M67 0v420q0 80 -7.5 147t-15.5 93l-8 27l13 13h61l454 -419v419h87v-700h-52l-453 418v-418h-79zM518 939l9 -9l-147 -180h-42l-148 180l10 9h58l101 -80l101 80h58z" />
    <glyph glyph-name="ncaron" unicode="&#x148;" horiz-adv-x="589" 
d="M360 0v336q0 60 -61 60q-16 0 -32.5 -4t-24.5 -8l-9 -3v-381h-172v300q0 50 -7.5 91t-15.5 57l-8 17l14 13q48 0 91.5 3.5t63.5 6.5l20 4l14 -14l-5 -42l5 -5q8 6 21.5 16t56.5 26t87 16q70 0 102 -38t32 -98v-353h-172zM454 737l9 -9l-147 -180h-43l-147 180l9 9h58
l101 -80l102 80h58z" />
    <glyph glyph-name="Eng" unicode="&#x14a;" horiz-adv-x="718" 
d="M504 -38v125l-358 331v-418h-79v420q0 80 -7.5 147t-15.5 93l-8 27l13 13h61l454 -419v419h87v-732q0 -229 -214 -229q-60 0 -106 13t-62 26l-16 13q0 47 19 89.5t38 61.5l19 19h12q1 -7 4 -18t12.5 -39t20.5 -50t29 -39.5t37 -17.5q30 0 45 37t15 128z" />
    <glyph glyph-name="eng" unicode="&#x14b;" horiz-adv-x="589" 
d="M360 -23v359q0 60 -61 60q-16 0 -32.5 -4t-24.5 -8l-9 -3v-381h-172v300q0 50 -7.5 91t-15.5 57l-8 17l14 13q48 0 91.5 3.5t63.5 6.5l20 4l14 -14l-5 -42l5 -5q8 6 21.5 16t56.5 26t87 16q70 0 102 -38t32 -98v-317q0 -59 -24.5 -111.5t-59 -85.5t-69 -57t-59.5 -34
l-24 -11l-25 25q4 4 10 10.5t21 28.5t27 45.5t21.5 59t9.5 71.5z" />
    <glyph glyph-name="Omacron" unicode="&#x14c;" horiz-adv-x="806" 
d="M39 350q0 161 100.5 261t263.5 100t264 -100t101 -261t-101 -261t-264 -100t-263.5 100t-100.5 261zM240 350q0 -148 44 -225.5t119 -77.5t119 77.5t44 225.5t-44 225.5t-119 77.5t-119 -77.5t-44 -225.5zM261 785v70h283v-70h-283z" />
    <glyph glyph-name="omacron" unicode="&#x14d;" horiz-adv-x="586" 
d="M29 239q0 112 73 181t191 69t191.5 -69t73.5 -181t-73.5 -181t-191.5 -69t-191 69t-73 181zM222 239q0 -97 19 -146.5t52 -49.5t52 49.5t19 146.5t-19 147t-52 50t-52 -50t-19 -147zM151 583v71h283v-71h-283z" />
    <glyph glyph-name="Obreve" unicode="&#x14e;" horiz-adv-x="806" 
d="M39 350q0 161 100.5 261t263.5 100t264 -100t101 -261t-101 -261t-264 -100t-263.5 100t-100.5 261zM240 350q0 -148 44 -225.5t119 -77.5t119 77.5t44 225.5t-44 225.5t-119 77.5t-119 -77.5t-44 -225.5zM242 866l25 25q6 -6 17 -15t46.5 -24t72.5 -15t71 13.5t50 27.5
l15 13l26 -25l-5 -12.5t-16.5 -27.5t-30 -35t-46.5 -27.5t-64 -12.5q-35 0 -64 12t-46.5 28.5t-29.5 33.5t-17 29z" />
    <glyph glyph-name="obreve" unicode="&#x14f;" horiz-adv-x="586" 
d="M29 239q0 112 73 181t191 69t191.5 -69t73.5 -181t-73.5 -181t-191.5 -69t-191 69t-73 181zM222 239q0 -97 19 -146.5t52 -49.5t52 49.5t19 146.5t-19 147t-52 50t-52 -50t-19 -147zM132 664l25 26q6 -6 17 -15t46.5 -24t72.5 -15t71 13.5t50 26.5l15 14l26 -26l-5 -12.5
t-16.5 -27t-30 -34.5t-46.5 -27.5t-64 -12.5q-35 0 -64 11.5t-46.5 28.5t-29.5 34t-17 28z" />
    <glyph glyph-name="Ohungarumlaut" unicode="&#x150;" horiz-adv-x="806" 
d="M39 350q0 161 100.5 261t263.5 100t264 -100t101 -261t-101 -261t-264 -100t-263.5 100t-100.5 261zM240 350q0 -148 44 -225.5t119 -77.5t119 77.5t44 225.5t-44 225.5t-119 77.5t-119 -77.5t-44 -225.5zM252 755l-9 9l70 180q42 0 75.5 -6.5t46.5 -13.5l13 -6v-9
l-146 -154h-50zM435 755l-9 9l88 180q42 0 74 -6.5t44 -13.5l11 -6v-9l-158 -154h-50z" />
    <glyph glyph-name="ohungarumlaut" unicode="&#x151;" horiz-adv-x="586" 
d="M29 239q0 112 73 181t191 69t191.5 -69t73.5 -181t-73.5 -181t-191.5 -69t-191 69t-73 181zM222 239q0 -97 19 -146.5t52 -49.5t52 49.5t19 146.5t-19 147t-52 50t-52 -50t-19 -147zM142 553l-9 9l70 180q42 0 75.5 -6.5t46.5 -13.5l13 -6v-9l-146 -154h-50zM325 553
l-9 9l88 180q42 0 74 -6.5t44 -13.5l11 -6v-9l-158 -154h-50z" />
    <glyph glyph-name="OE" unicode="&#x152;" horiz-adv-x="1038" 
d="M518 0v14q-59 -25 -127 -25q-151 0 -251.5 101t-100.5 260t100 260t250 101q71 0 129 -26v15h468v-92l-14 -13q-53 34 -165 34h-108v-234h215l9 -10v-61h-224v-253h118q50 0 91 8.5t58 16.5l16 9l14 -13v-92h-478zM403 47q75 0 115 89v428q-41 89 -115 89
q-75 0 -119 -77.5t-44 -225.5t44 -225.5t119 -77.5z" />
    <glyph glyph-name="oe" unicode="&#x153;" horiz-adv-x="880" 
d="M818 117l25 -25q-2 -4 -7 -11t-23.5 -25t-40.5 -31.5t-59 -24.5t-79 -11q-111 0 -173 68q-65 -68 -172 -68q-112 0 -186 69.5t-74 180.5t74 180.5t186 69.5q108 0 171 -68q66 68 191 68q93 0 143.5 -39.5t50.5 -116.5q0 -19 -2.5 -38t-5.5 -28l-3 -9l-14 -14h-262
q4 -90 35.5 -128.5t95.5 -38.5q36 0 68 10t47 20zM222 239q0 -97 19 -146.5t52 -49.5t52 49.5t19 146.5t-19 147t-52 50t-52 -50t-19 -147zM640 436q-72 0 -81 -137l127 9q5 25 5 51q0 77 -51 77z" />
    <glyph glyph-name="Racute" unicode="&#x154;" horiz-adv-x="682" 
d="M67 0v700h265q135 0 212.5 -52t77.5 -146q0 -63 -36 -108t-102 -69l76 -147q25 -49 53 -91t43 -60l15 -18l-8 -9h-196l-153 303h-67v-303h-180zM303 629h-56v-255h56q62 0 96 32.5t34 95.5q0 62 -34 94.5t-96 32.5zM267 755l-10 9l74 180q42 0 76 -6.5t47 -13.5l13 -6v-9
l-151 -154h-49z" />
    <glyph glyph-name="racute" unicode="&#x155;" horiz-adv-x="428" 
d="M396 489q14 -59 14 -143l-14 -14q-15 12 -50 12q-30 0 -58 -11t-42 -23l-13 -11v-299h-172v300q0 50 -7.5 91t-15.5 57l-8 17l14 13q48 0 91.5 3.5t63.5 6.5l20 4l14 -14l-5 -98l5 -5q3 5 8 12.5t22 27t35 34.5t44.5 27.5t53.5 12.5zM180 553l-9 9l74 180q42 0 75.5 -6.5
t46.5 -13.5l13 -6v-9l-151 -154h-49z" />
    <glyph glyph-name="Rcommaaccent" unicode="&#x156;" horiz-adv-x="682" 
d="M67 0v700h265q135 0 212.5 -52t77.5 -146q0 -63 -36 -108t-102 -69l76 -147q25 -49 53 -91t43 -60l15 -18l-8 -9h-196l-153 303h-67v-303h-180zM303 629h-56v-255h56q62 0 96 32.5t34 95.5q0 62 -34 94.5t-96 32.5zM291 -257l-16 16q39 52 39 127q0 18 -3 34t-6 23l-3 7
l6 6q28 0 53 -3t37 -7l11 -3q6 -12 6 -35q0 -32 -13 -60.5t-31 -47t-36 -32t-31 -19.5z" />
    <glyph glyph-name="rcommaaccent" unicode="&#x157;" horiz-adv-x="428" 
d="M396 489q14 -59 14 -143l-14 -14q-15 12 -50 12q-30 0 -58 -11t-42 -23l-13 -11v-299h-172v300q0 50 -7.5 91t-15.5 57l-8 17l14 13q48 0 91.5 3.5t63.5 6.5l20 4l14 -14l-5 -98l5 -5q3 5 8 12.5t22 27t35 34.5t44.5 27.5t53.5 12.5zM87 -257l-16 16q39 52 39 127
q0 18 -3 34t-5 23l-3 7l5 6q28 0 53 -3t37 -7l11 -3q6 -12 6 -35q0 -32 -13 -60.5t-31 -47t-36 -32t-31 -19.5z" />
    <glyph glyph-name="Rcaron" unicode="&#x158;" horiz-adv-x="682" 
d="M67 0v700h265q135 0 212.5 -52t77.5 -146q0 -63 -36 -108t-102 -69l76 -147q25 -49 53 -91t43 -60l15 -18l-8 -9h-196l-153 303h-67v-303h-180zM303 629h-56v-255h56q62 0 96 32.5t34 95.5q0 62 -34 94.5t-96 32.5zM491 939l9 -9l-147 -180h-42l-147 180l9 9h58l101 -80
l101 80h58z" />
    <glyph glyph-name="rcaron" unicode="&#x159;" horiz-adv-x="428" 
d="M396 489q14 -59 14 -143l-14 -14q-15 12 -50 12q-30 0 -58 -11t-42 -23l-13 -11v-299h-172v300q0 50 -7.5 91t-15.5 57l-8 17l14 13q48 0 91.5 3.5t63.5 6.5l20 4l14 -14l-5 -98l5 -5q3 5 8 12.5t22 27t35 34.5t44.5 27.5t53.5 12.5zM395 737l9 -9l-148 -180h-42
l-147 180l9 9h58l101 -80l102 80h58z" />
    <glyph glyph-name="Sacute" unicode="&#x15a;" horiz-adv-x="626" 
d="M284 653q-36 0 -56 -18t-20 -49q0 -33 29 -60.5t139 -105.5q134 -97 173 -139t39 -105q0 -187 -273 -187q-56 0 -105.5 8t-79.5 19.5t-52.5 23.5t-31.5 20l-9 8q0 49 22.5 93.5t44.5 64.5l22 20h18q3 -8 8.5 -21.5t25 -48t40.5 -60.5t53.5 -47.5t65.5 -21.5q39 0 64 21
t25 52q0 20 -10 37.5t-38.5 40t-53.5 38.5t-79 49q-107 66 -149.5 114t-42.5 122q0 92 66.5 141t199.5 49q76 0 136 -15.5t82 -31.5l22 -15q0 -50 -22.5 -95.5t-44.5 -65.5l-22 -20h-16q-2 8 -7 20t-21 44t-34 56.5t-47.5 44.5t-60.5 20zM248 755l-10 9l74 180q42 0 76 -6.5
t47 -13.5l13 -6v-9l-151 -154h-49z" />
    <glyph glyph-name="sacute" unicode="&#x15b;" horiz-adv-x="466" 
d="M224 430q-24 0 -38.5 -11t-14.5 -28q0 -6 1.5 -11t5.5 -10t8.5 -9.5t12.5 -10t14 -10t18 -11t20 -11t23 -12.5t25 -13q80 -45 110.5 -79t30.5 -82q0 -69 -53 -106t-156 -37q-65 0 -117 14t-72 29l-20 14q0 21 7 41t17 34t20.5 25t17.5 16l7 5h13q2 -5 6 -13t17.5 -28.5
t27.5 -36t36.5 -28.5t44.5 -13q26 0 43 12.5t17 31.5q0 21 -26 38t-110 58q-64 31 -96 65.5t-32 91.5q0 69 51 106.5t153 37.5q56 0 101 -11t63 -22l17 -11q0 -34 -17.5 -64.5t-34.5 -44.5l-17 -14h-14q-2 4 -5 11.5t-13.5 26t-22 33t-30.5 26t-39 11.5zM178 553l-9 9
l73 180q42 0 76 -6.5t47 -13.5l13 -6v-9l-151 -154h-49z" />
    <glyph glyph-name="Scircumflex" unicode="&#x15c;" horiz-adv-x="626" 
d="M284 653q-36 0 -56 -18t-20 -49q0 -33 29 -60.5t139 -105.5q134 -97 173 -139t39 -105q0 -187 -273 -187q-56 0 -105.5 8t-79.5 19.5t-52.5 23.5t-31.5 20l-9 8q0 49 22.5 93.5t44.5 64.5l22 20h18q3 -8 8.5 -21.5t25 -48t40.5 -60.5t53.5 -47.5t65.5 -21.5q39 0 64 21
t25 52q0 20 -10 37.5t-38.5 40t-53.5 38.5t-79 49q-107 66 -149.5 114t-42.5 122q0 92 66.5 141t199.5 49q76 0 136 -15.5t82 -31.5l22 -15q0 -50 -22.5 -95.5t-44.5 -65.5l-22 -20h-16q-2 8 -7 20t-21 44t-34 56.5t-47.5 44.5t-60.5 20zM481 784l-9 -9h-58l-101 80
l-101 -80h-58l-9 9l147 180h42z" />
    <glyph glyph-name="scircumflex" unicode="&#x15d;" horiz-adv-x="466" 
d="M224 430q-24 0 -38.5 -11t-14.5 -28q0 -6 1.5 -11t5.5 -10t8.5 -9.5t12.5 -10t14 -10t18 -11t20 -11t23 -12.5t25 -13q80 -45 110.5 -79t30.5 -82q0 -69 -53 -106t-156 -37q-65 0 -117 14t-72 29l-20 14q0 21 7 41t17 34t20.5 25t17.5 16l7 5h13q2 -5 6 -13t17.5 -28.5
t27.5 -36t36.5 -28.5t44.5 -13q26 0 43 12.5t17 31.5q0 21 -26 38t-110 58q-64 31 -96 65.5t-32 91.5q0 69 51 106.5t153 37.5q56 0 101 -11t63 -22l17 -11q0 -34 -17.5 -64.5t-34.5 -44.5l-17 -14h-14q-2 4 -5 11.5t-13.5 26t-22 33t-30.5 26t-39 11.5zM401 562l-9 -9h-58
l-101 80l-101 -80h-58l-10 9l148 180h42z" />
    <glyph glyph-name="Scedilla" unicode="&#x15e;" horiz-adv-x="626" 
d="M276 -79l11 69q-50 2 -94.5 10.5t-71.5 20t-47 22t-28 17.5l-9 8q0 49 22.5 93.5t44.5 64.5l22 20h18q3 -8 8.5 -21.5t25 -48t40.5 -60.5t53.5 -47.5t65.5 -21.5q39 0 64 21t25 52q0 20 -10 37.5t-38.5 40t-53.5 38.5t-79 49q-107 66 -149.5 114t-42.5 122q0 92 66.5 141
t199.5 49q76 0 136 -15.5t82 -31.5l22 -15q0 -50 -22.5 -95.5t-44.5 -65.5l-22 -20h-16q-2 8 -7 20t-21 44t-34 56.5t-47.5 44.5t-60.5 20q-36 0 -56 -18t-20 -49q0 -33 29 -60.5t139 -105.5q134 -97 173 -139t39 -105q0 -179 -250 -186l-6 -38q31 0 54 -21t23 -54
q0 -34 -25 -56.5t-67 -22.5q-28 0 -51 11t-32 22l-8 11l21 21q14 -16 41 -16q18 0 28.5 9t10.5 24q0 32 -42 32z" />
    <glyph glyph-name="scedilla" unicode="&#x15f;" horiz-adv-x="466" 
d="M193 -79l11 69q-56 3 -101.5 17t-62.5 27l-18 12q0 21 7 41t17 34t20.5 25t17.5 16l7 5h13q2 -5 6 -13t17.5 -28.5t27.5 -36t36.5 -28.5t44.5 -13q26 0 43 12.5t17 31.5q0 21 -26 38t-110 58q-64 31 -96 65.5t-32 91.5q0 69 51 106.5t153 37.5q56 0 101 -11t63 -22
l17 -11q0 -34 -17.5 -64.5t-34.5 -44.5l-17 -14h-14q-2 4 -5 11.5t-13.5 26t-22 33t-30.5 26t-39 11.5q-24 0 -38.5 -11t-14.5 -28q0 -6 1.5 -11t5.5 -10t8.5 -9.5t12.5 -10t14 -10t18 -11t20 -11t23 -12.5t25 -13q80 -45 110.5 -79t30.5 -82q0 -65 -47 -101.5t-138 -40.5
l-6 -38q31 0 54 -21t23 -54q0 -34 -25.5 -56.5t-66.5 -22.5q-29 0 -51.5 11t-30.5 22l-9 11l21 21q14 -16 40 -16q39 0 39 33q0 32 -41 32z" />
    <glyph glyph-name="Scaron" unicode="&#x160;" horiz-adv-x="626" 
d="M284 653q-36 0 -56 -18t-20 -49q0 -33 29 -60.5t139 -105.5q134 -97 173 -139t39 -105q0 -187 -273 -187q-56 0 -105.5 8t-79.5 19.5t-52.5 23.5t-31.5 20l-9 8q0 49 22.5 93.5t44.5 64.5l22 20h18q3 -8 8.5 -21.5t25 -48t40.5 -60.5t53.5 -47.5t65.5 -21.5q39 0 64 21
t25 52q0 20 -10 37.5t-38.5 40t-53.5 38.5t-79 49q-107 66 -149.5 114t-42.5 122q0 92 66.5 141t199.5 49q76 0 136 -15.5t82 -31.5l22 -15q0 -50 -22.5 -95.5t-44.5 -65.5l-22 -20h-16q-2 8 -7 20t-21 44t-34 56.5t-47.5 44.5t-60.5 20zM472 939l9 -9l-147 -180h-42
l-147 180l9 9h58l101 -80l101 80h58z" />
    <glyph glyph-name="scaron" unicode="&#x161;" horiz-adv-x="466" 
d="M224 430q-24 0 -38.5 -11t-14.5 -28q0 -6 1.5 -11t5.5 -10t8.5 -9.5t12.5 -10t14 -10t18 -11t20 -11t23 -12.5t25 -13q80 -45 110.5 -79t30.5 -82q0 -69 -53 -106t-156 -37q-65 0 -117 14t-72 29l-20 14q0 21 7 41t17 34t20.5 25t17.5 16l7 5h13q2 -5 6 -13t17.5 -28.5
t27.5 -36t36.5 -28.5t44.5 -13q26 0 43 12.5t17 31.5q0 21 -26 38t-110 58q-64 31 -96 65.5t-32 91.5q0 69 51 106.5t153 37.5q56 0 101 -11t63 -22l17 -11q0 -34 -17.5 -64.5t-34.5 -44.5l-17 -14h-14q-2 4 -5 11.5t-13.5 26t-22 33t-30.5 26t-39 11.5zM392 737l9 -9
l-147 -180h-42l-148 180l10 9h58l101 -80l101 80h58z" />
    <glyph glyph-name="Tcommaaccent" unicode="&#x162;" horiz-adv-x="688" 
d="M434 629v-629h-180v629h-52q-49 0 -90.5 -8.5t-57.5 -16.5l-17 -9l-13 13v92h641v-92l-14 -13q-53 34 -165 34h-52zM287 -257l-16 16q39 52 39 127q0 18 -3 34t-5 23l-3 7l5 6q28 0 53 -3t37 -7l11 -3q6 -12 6 -35q0 -32 -13 -60.5t-31 -47t-36 -32t-31 -19.5z" />
    <glyph glyph-name="tcommaaccent" unicode="&#x163;" horiz-adv-x="398" 
d="M9 416v44l89 42l36 118h120v-142h125v-62h-125v-271q0 -68 62 -68q15 0 27.5 4t17.5 8l5 4l26 -25q-2 -3 -6.5 -8.5t-19.5 -19t-33 -24t-47.5 -19t-62.5 -8.5q-69 0 -105 34.5t-36 98.5v294h-73zM160 -257l-16 16q39 52 39 127q0 18 -3 34t-6 23l-3 7l6 6q27 0 52.5 -3
t36.5 -7l12 -3q5 -12 5 -35q0 -32 -12.5 -60.5t-30.5 -47t-36.5 -32t-31.5 -19.5z" />
    <glyph glyph-name="Tcaron" unicode="&#x164;" horiz-adv-x="688" 
d="M434 629v-629h-180v629h-52q-49 0 -90.5 -8.5t-57.5 -16.5l-17 -9l-13 13v92h641v-92l-14 -13q-53 34 -165 34h-52zM503 937l10 -9l-148 -180h-42l-147 180l9 9h58l101 -80l101 80h58z" />
    <glyph glyph-name="tcaron" unicode="&#x165;" horiz-adv-x="444" 
d="M9 416v44l89 42l36 118h120v-142h125v-62h-125v-271q0 -68 62 -68q15 0 27.5 4t17.5 8l5 4l26 -25q-2 -3 -6.5 -8.5t-19.5 -19t-33 -24t-47.5 -19t-62.5 -8.5q-69 0 -105 34.5t-36 98.5v294h-73zM310 547l-16 15q39 52 39 127q0 18 -2.5 34t-5.5 23l-3 7l5 6
q28 0 53 -3.5t36 -6.5l12 -3q6 -12 6 -35q0 -32 -13 -60.5t-31 -46.5t-36 -31.5t-31 -19.5z" />
    <glyph glyph-name="Tbar" unicode="&#x166;" horiz-adv-x="688" 
d="M145 332v71h109v226h-52q-49 0 -90.5 -8.5t-57.5 -16.5l-17 -9l-13 13v92h641v-92l-14 -13q-53 34 -165 34h-52v-226h108v-71h-108v-332h-180v332h-109z" />
    <glyph glyph-name="tbar" unicode="&#x167;" horiz-adv-x="398" 
d="M9 259v62h73v95h-73v44l89 42l36 118h120v-142h125v-62h-125v-95h125v-62h-125v-114q0 -68 62 -68q15 0 27.5 4t17.5 8l5 4l26 -25q-2 -3 -6.5 -8.5t-19.5 -19t-33 -24t-47.5 -19t-62.5 -8.5q-69 0 -105 34.5t-36 98.5v137h-73z" />
    <glyph glyph-name="Utilde" unicode="&#x168;" horiz-adv-x="717" 
d="M572 252v448h79v-445q0 -121 -77 -193.5t-216 -72.5t-216 72.5t-77 193.5v445h181v-474q0 -75 43.5 -119t114.5 -44q76 0 122 50t46 139zM323 877q26 0 55.5 -18.5t51.5 -18.5q20 0 39.5 10t28.5 20l10 10l25 -25q-2 -4 -5 -11t-14 -24.5t-24 -30.5t-34.5 -24t-45.5 -11
q-26 0 -55.5 18.5t-50.5 18.5t-40.5 -10t-29.5 -20l-9 -10l-25 25q2 4 5 11t14 24.5t24 30.5t34.5 24t45.5 11z" />
    <glyph glyph-name="utilde" unicode="&#x169;" 
d="M233 478v-333q0 -62 62 -62q16 0 32 4t24 8l8 4v201q0 50 -4.5 91t-8.5 57l-4 17l13 13q46 0 86.5 3.5t58.5 6.5l18 4l14 -14v-278q0 -50 7.5 -96.5t14.5 -68.5l8 -22l-13 -13q-48 0 -92 -3t-64 -7l-20 -3l-14 13l5 43l-5 4q-7 -6 -20 -16t-54.5 -26t-85.5 -16
q-72 0 -105 38.5t-33 100.5v172q0 50 -7.5 91t-15.5 57l-8 17l14 13q48 0 91.5 3.5t63.5 6.5l20 4zM252 675q26 0 55.5 -18.5t51.5 -18.5q20 0 39.5 10t29.5 20l9 10l25 -25q-2 -4 -5 -11t-14 -24.5t-24 -30.5t-34.5 -24t-45.5 -11q-26 0 -55.5 18.5t-50.5 18.5t-40.5 -10
t-28.5 -20l-9 -10l-26 26q2 4 5 11t14 24t24 30t34.5 24t45.5 11z" />
    <glyph glyph-name="Umacron" unicode="&#x16a;" horiz-adv-x="717" 
d="M572 252v448h79v-445q0 -121 -77 -193.5t-216 -72.5t-216 72.5t-77 193.5v445h181v-474q0 -75 43.5 -119t114.5 -44q76 0 122 50t46 139zM225 785v70h283v-70h-283z" />
    <glyph glyph-name="umacron" unicode="&#x16b;" 
d="M233 478v-333q0 -62 62 -62q16 0 32 4t24 8l8 4v201q0 50 -4.5 91t-8.5 57l-4 17l13 13q46 0 86.5 3.5t58.5 6.5l18 4l14 -14v-278q0 -50 7.5 -96.5t14.5 -68.5l8 -22l-13 -13q-48 0 -92 -3t-64 -7l-20 -3l-14 13l5 43l-5 4q-7 -6 -20 -16t-54.5 -26t-85.5 -16
q-72 0 -105 38.5t-33 100.5v172q0 50 -7.5 91t-15.5 57l-8 17l14 13q48 0 91.5 3.5t63.5 6.5l20 4zM155 583v71h283v-71h-283z" />
    <glyph glyph-name="Ubreve" unicode="&#x16c;" horiz-adv-x="717" 
d="M572 252v448h79v-445q0 -121 -77 -193.5t-216 -72.5t-216 72.5t-77 193.5v445h181v-474q0 -75 43.5 -119t114.5 -44q76 0 122 50t46 139zM205 866l25 25q6 -6 17.5 -15t47 -24t72.5 -15q36 0 70 13.5t50 27.5l16 13l25 -25l-5 -12.5t-16.5 -27.5t-30 -35t-46 -27.5
t-63.5 -12.5q-35 0 -64.5 12t-46.5 28.5t-29.5 33.5t-16.5 29z" />
    <glyph glyph-name="ubreve" unicode="&#x16d;" 
d="M233 478v-333q0 -62 62 -62q16 0 32 4t24 8l8 4v201q0 50 -4.5 91t-8.5 57l-4 17l13 13q46 0 86.5 3.5t58.5 6.5l18 4l14 -14v-278q0 -50 7.5 -96.5t14.5 -68.5l8 -22l-13 -13q-48 0 -92 -3t-64 -7l-20 -3l-14 13l5 43l-5 4q-7 -6 -20 -16t-54.5 -26t-85.5 -16
q-72 0 -105 38.5t-33 100.5v172q0 50 -7.5 91t-15.5 57l-8 17l14 13q48 0 91.5 3.5t63.5 6.5l20 4zM134 664l25 26q6 -6 17.5 -15t47 -24t72.5 -15q36 0 70 13.5t50 26.5l16 14l25 -26l-5 -12.5t-16.5 -27t-30 -34.5t-46 -27.5t-63.5 -12.5q-35 0 -64.5 11.5t-46.5 28.5
t-29.5 34t-17.5 28z" />
    <glyph glyph-name="Uring" unicode="&#x16e;" horiz-adv-x="717" 
d="M572 252v448h79v-445q0 -121 -77 -193.5t-216 -72.5t-216 72.5t-77 193.5v445h181v-474q0 -75 43.5 -119t114.5 -44q76 0 122 50t46 139zM270 841q0 43 27 70t70 27t69.5 -27t26.5 -70t-26.5 -69.5t-69.5 -26.5t-70 26.5t-27 69.5zM333 841q0 -15 9 -24.5t25 -9.5
q14 0 23.5 9.5t9.5 24.5t-9.5 24.5t-23.5 9.5q-16 0 -25 -9.5t-9 -24.5z" />
    <glyph glyph-name="uring" unicode="&#x16f;" 
d="M233 478v-333q0 -62 62 -62q16 0 32 4t24 8l8 4v201q0 50 -4.5 91t-8.5 57l-4 17l13 13q46 0 86.5 3.5t58.5 6.5l18 4l14 -14v-278q0 -50 7.5 -96.5t14.5 -68.5l8 -22l-13 -13q-48 0 -92 -3t-64 -7l-20 -3l-14 13l5 43l-5 4q-7 -6 -20 -16t-54.5 -26t-85.5 -16
q-72 0 -105 38.5t-33 100.5v172q0 50 -7.5 91t-15.5 57l-8 17l14 13q48 0 91.5 3.5t63.5 6.5l20 4zM200 640q0 43 27 69.5t70 26.5t69.5 -26.5t26.5 -69.5t-26.5 -69.5t-69.5 -26.5t-70 26.5t-27 69.5zM263 640q0 -34 34 -34q15 0 24 9t9 25q0 15 -9.5 24.5t-23.5 9.5
q-16 0 -25 -9.5t-9 -24.5z" />
    <glyph glyph-name="Uhungarumlaut" unicode="&#x170;" horiz-adv-x="717" 
d="M572 252v448h79v-445q0 -121 -77 -193.5t-216 -72.5t-216 72.5t-77 193.5v445h181v-474q0 -75 43.5 -119t114.5 -44q76 0 122 50t46 139zM216 755l-9 9l69 180q42 0 76 -6.5t47 -13.5l13 -6v-9l-147 -154h-49zM399 755l-9 9l88 180q42 0 74 -6.5t44 -13.5l11 -6v-9
l-159 -154h-49z" />
    <glyph glyph-name="uhungarumlaut" unicode="&#x171;" 
d="M233 478v-333q0 -62 62 -62q16 0 32 4t24 8l8 4v201q0 50 -4.5 91t-8.5 57l-4 17l13 13q46 0 86.5 3.5t58.5 6.5l18 4l14 -14v-278q0 -50 7.5 -96.5t14.5 -68.5l8 -22l-13 -13q-48 0 -92 -3t-64 -7l-20 -3l-14 13l5 43l-5 4q-7 -6 -20 -16t-54.5 -26t-85.5 -16
q-72 0 -105 38.5t-33 100.5v172q0 50 -7.5 91t-15.5 57l-8 17l14 13q48 0 91.5 3.5t63.5 6.5l20 4zM145 553l-9 9l69 180q42 0 76 -6.5t47 -13.5l13 -6v-9l-147 -154h-49zM328 553l-9 9l88 180q42 0 74 -6.5t43 -13.5l12 -6v-9l-159 -154h-49z" />
    <glyph glyph-name="Uogonek" unicode="&#x172;" horiz-adv-x="717" 
d="M572 252v448h79v-445q0 -98 -52 -166t-148 -90q-5 -5 -12 -15.5t-16 -33t-9 -44.5q0 -46 42 -46q8 0 15 1.5t10 2.5l3 2l25 -25q-2 -4 -7.5 -11t-26 -18t-45.5 -11q-40 0 -69.5 24.5t-29.5 68.5q0 57 52 96q-4 0 -12.5 -0.5t-12.5 -0.5q-139 0 -216 72.5t-77 193.5v445
h181v-474q0 -75 43.5 -119t114.5 -44q76 0 122 50t46 139z" />
    <glyph glyph-name="uogonek" unicode="&#x173;" 
d="M233 478v-333q0 -62 62 -62q16 0 32 4t24 8l8 4v201q0 50 -4.5 91t-8.5 57l-4 17l13 13q46 0 86.5 3.5t58.5 6.5l18 4l14 -14v-278q0 -50 7.5 -96.5t14.5 -68.5l8 -22l-13 -13h-38q-36 -48 -36 -94t42 -46q8 0 14.5 1.5t9.5 2.5l3 2l25 -25q-2 -4 -7.5 -11t-26 -18
t-45.5 -11q-40 0 -69.5 24.5t-29.5 68.5q0 66 63 103l-81 -10l-14 13l5 43l-5 4q-7 -6 -20 -16t-54.5 -26t-85.5 -16q-72 0 -105 38.5t-33 100.5v172q0 50 -7.5 91t-15.5 57l-8 17l14 13q48 0 91.5 3.5t63.5 6.5l20 4z" />
    <glyph glyph-name="Wcircumflex" unicode="&#x174;" horiz-adv-x="1082" 
d="M690 23l-129 374l-127 -397h-132l-24 23l-187 499q-18 49 -38 90t-31 58l-11 16v14h203l195 -521l108 347q-16 48 -33.5 88t-27.5 56l-10 16v14h204l172 -512l163 512h87l-229 -700h-130zM731 764l-10 -9h-57l-102 80l-101 -80h-58l-9 9l147 180h42z" />
    <glyph glyph-name="wcircumflex" unicode="&#x175;" horiz-adv-x="818" 
d="M498 23l-74 233l-81 -256h-118l-23 23l-106 277q-20 50 -42.5 92t-35.5 60l-12 17l9 9q49 0 93.5 2t64.5 4l20 3l121 -316l66 209q-12 27 -23.5 49t-17.5 31l-6 9l9 9q49 0 91 2t59 4l18 3l102 -318l45 131q16 48 26.5 90t12.5 60l2 19l9 9q20 0 44 2.5t38 5.5l14 2
l9 -10l-170 -478h-121zM602 562l-9 -9h-58l-101 80l-101 -80h-58l-10 9l148 180h42z" />
    <glyph glyph-name="Ycircumflex" unicode="&#x176;" horiz-adv-x="689" 
d="M678 700l-233 -372v-328h-181v315l-108 173q-34 54 -70.5 103.5t-55.5 72.5l-20 22v14h223l175 -276l174 276h96zM521 764l-9 -9h-58l-101 80l-101 -80h-58l-10 9l148 180h42z" />
    <glyph glyph-name="ycircumflex" unicode="&#x177;" horiz-adv-x="539" 
d="M533 478l-232 -550q-20 -47 -36.5 -91.5t-22.5 -64.5l-7 -21l-9 -9q-37 0 -72.5 11t-52.5 21l-17 11v13q10 7 26.5 21t54 60.5t60.5 97.5l10 23l-133 300q-21 48 -45 90t-37 60l-14 19l9 9q49 0 94.5 2t66.5 4l21 3l121 -303l52 116q23 52 36.5 94t15.5 58l1 17l9 9
q20 0 43 2.5t36 5.5l13 2zM450 562l-9 -9h-58l-101 80l-102 -80h-57l-10 9l148 180h42z" />
    <glyph glyph-name="Ydieresis" unicode="&#x178;" horiz-adv-x="689" 
d="M678 700l-233 -372v-328h-181v315l-108 173q-34 54 -70.5 103.5t-55.5 72.5l-20 22v14h223l175 -276l174 276h96zM170 825q0 32 20 52t54 20q32 0 51.5 -20t19.5 -52q0 -33 -19.5 -53t-51.5 -20q-34 0 -54 20t-20 53zM390 825q0 32 20 52t53 20q32 0 51.5 -20t19.5 -52
q0 -33 -19.5 -53t-51.5 -20q-33 0 -53 20t-20 53z" />
    <glyph glyph-name="Zacute" unicode="&#x179;" horiz-adv-x="666" 
d="M39 32l360 597h-177q-49 0 -90.5 -8.5t-57.5 -16.5l-17 -9l-13 13v92h587v-32l-361 -597h185q50 0 91 8.5t58 16.5l16 9l14 -13v-92h-595v32zM278 755l-10 9l74 180q42 0 76 -6.5t47 -13.5l13 -6v-9l-151 -154h-49z" />
    <glyph glyph-name="zacute" unicode="&#x17a;" horiz-adv-x="503" 
d="M29 32l226 380h-43q-49 0 -90.5 -9t-57.5 -17l-17 -9l-13 14v87h439v-31l-227 -381h51q50 0 91 9t58 17l16 9l14 -13v-88h-447v32zM196 553l-9 9l74 180q42 0 75.5 -6.5t46.5 -13.5l13 -6v-9l-150 -154h-50z" />
    <glyph glyph-name="Zdotaccent" unicode="&#x17b;" horiz-adv-x="666" 
d="M39 32l360 597h-177q-49 0 -90.5 -8.5t-57.5 -16.5l-17 -9l-13 13v92h587v-32l-361 -597h185q50 0 91 8.5t58 16.5l16 9l14 -13v-92h-595v32zM252 837q0 37 22.5 59t58.5 22q37 0 59 -22t22 -59q0 -36 -22 -58.5t-59 -22.5q-36 0 -58.5 22.5t-22.5 58.5z" />
    <glyph glyph-name="zdotaccent" unicode="&#x17c;" horiz-adv-x="503" 
d="M29 32l226 380h-43q-49 0 -90.5 -9t-57.5 -17l-17 -9l-13 14v87h439v-31l-227 -381h51q50 0 91 9t58 17l16 9l14 -13v-88h-447v32zM171 619q0 36 22 58.5t59 22.5q36 0 58 -22.5t22 -58.5t-22 -58.5t-58 -22.5q-37 0 -59 22.5t-22 58.5z" />
    <glyph glyph-name="Zcaron" unicode="&#x17d;" horiz-adv-x="666" 
d="M39 32l360 597h-177q-49 0 -90.5 -8.5t-57.5 -16.5l-17 -9l-13 13v92h587v-32l-361 -597h185q50 0 91 8.5t58 16.5l16 9l14 -13v-92h-595v32zM492 939l10 -9l-148 -180h-42l-147 180l9 9h58l101 -80l101 80h58z" />
    <glyph glyph-name="zcaron" unicode="&#x17e;" horiz-adv-x="503" 
d="M29 32l226 380h-43q-49 0 -90.5 -9t-57.5 -17l-17 -9l-13 14v87h439v-31l-227 -381h51q50 0 91 9t58 17l16 9l14 -13v-88h-447v32zM411 737l9 -9l-147 -180h-42l-148 180l9 9h58l102 -80l101 80h58z" />
    <glyph glyph-name="uni018F" unicode="&#x18f;" horiz-adv-x="744" 
d="M44 252q0 24 3 43t5 27l3 7l14 14h435q-4 264 -212 264q-56 0 -108 -17.5t-76 -35.5l-24 -17l-27 27q3 6 9 16t30 35t54 44.5t82 35.5t112 16q162 0 262 -100.5t100 -260.5q0 -161 -100.5 -261t-263.5 -100q-139 0 -218.5 72.5t-79.5 190.5zM340 47q66 0 109.5 60.5
t52.5 172.5l-281 -20v-30q0 -91 31.5 -137t87.5 -46z" />
    <glyph glyph-name="florin" unicode="&#x192;" horiz-adv-x="393" 
d="M49 -23l78 441h-75l8 44l78 21l18 103q31 177 196 177q46 0 80 -14.5t45 -28.5l11 -14l-30 -26q-15 15 -45 15q-65 0 -82 -96l-22 -121h127l-10 -62h-127l-68 -380q-10 -59 -43.5 -111.5t-74 -85.5t-79 -57t-64.5 -34l-26 -11l-21 25q4 4 11.5 10.5t26.5 28.5t34.5 45.5
t31.5 59t22 71.5z" />
    <glyph glyph-name="uni01DD" unicode="&#x1dd;" horiz-adv-x="535" 
d="M52 362l-25 25q2 4 7 11t23 24.5t40.5 31t61.5 24.5t84 11q119 0 191 -69t72 -183t-73.5 -181t-207.5 -67q-200 0 -200 156q0 19 3 38t6 29l3 9l13 13h262q-3 90 -35.5 129t-95.5 39q-35 0 -67.5 -10t-47.5 -20zM230 43q73 0 82 136l-128 -10q-5 -23 -5 -49q0 -77 51 -77
z" />
    <glyph glyph-name="Aringacute" unicode="&#x1fa;" horiz-adv-x="723" 
d="M171 179l-68 -179h-88l248 639l-29 48v13h42q-11 22 -11 49q0 42 26 68.5t69 27.5l54 131q42 0 75.5 -6t46.5 -12l13 -7v-10l-120 -122q28 -26 28 -70q0 -37 -21 -63l272 -686h-186l-71 179h-280zM317 522l-9 20l-111 -294h227zM328 749q0 -34 33 -34q15 0 24 9t9 25
q0 15 -9 24.5t-24 9.5t-24 -9.5t-9 -24.5z" />
    <glyph glyph-name="aringacute" unicode="&#x1fb;" horiz-adv-x="566" 
d="M276 489q218 0 218 -144v-237q0 -41 32 -41q7 0 12.5 1.5t7.5 3.5l3 2l25 -25q-2 -2 -5.5 -6.5t-17 -14.5t-28.5 -18t-40.5 -14.5t-52.5 -6.5q-87 0 -104 60q-68 -60 -161 -60q-65 0 -99 33t-34 96q0 60 45 91.5t173 49.5l72 9v112q0 56 -52 56q-60 0 -60 -68
q0 -15 2.5 -28.5t5.5 -19.5l2 -7l-13 -13q-39 0 -74 3t-50 7l-15 3q-13 19 -13 50q0 60 58 93t163 33zM186 611q0 42 26 68.5t67 27.5l54 130q42 0 76 -6.5t47 -12.5l13 -7v-9l-119 -121q28 -26 28 -70q0 -43 -26.5 -69.5t-69.5 -26.5t-69.5 26.5t-26.5 69.5zM210 140
q0 -59 55 -59q16 0 30 4.5t21 9.5l6 5v110l-52 -8q-60 -7 -60 -62zM249 611q0 -34 33 -34q15 0 24 9t9 25q0 15 -9 24.5t-24 9.5t-24 -9.5t-9 -24.5z" />
    <glyph glyph-name="AEacute" unicode="&#x1fc;" horiz-adv-x="859" 
d="M15 0l307 700h485v-92l-14 -13q-53 34 -165 34h-108v-234h215l9 -10v-61h-224v-253h118q50 0 91 8.5t57 16.5l17 9l14 -13v-92h-478v200h-150l-86 -200h-88zM363 755l-9 9l74 180q42 0 76 -6.5t47 -13.5l13 -6v-9l-151 -154h-50zM219 270h120v280z" />
    <glyph glyph-name="aeacute" unicode="&#x1fd;" horiz-adv-x="838" 
d="M776 117l25 -25q-2 -4 -7 -11t-23 -25t-40.5 -31.5t-61.5 -24.5t-84 -11q-129 0 -201 80q-80 -80 -205 -80q-147 0 -147 124q0 61 46 94t172 52l72 10v111q0 56 -52 56q-60 0 -60 -68q0 -15 2.5 -28.5t5.5 -19.5l2 -7l-13 -13q-39 0 -74 3t-50 7l-15 3q-13 19 -13 50
q0 59 57.5 92.5t155.5 33.5q111 0 156 -45q71 45 179 45q200 0 200 -155q0 -20 -3 -39t-6 -28l-3 -9l-13 -14h-263q4 -90 36 -128.5t96 -38.5q36 0 68 10t47 20zM366 553l-9 9l74 180q42 0 75.5 -6.5t46.5 -13.5l13 -6v-9l-150 -154h-50zM598 436q-73 0 -82 -138l128 10
q5 25 5 51q0 77 -51 77zM210 139q0 -58 58 -58q42 0 82 36q-21 42 -27 93l-53 -8q-60 -9 -60 -63z" />
    <glyph glyph-name="Oslashacute" unicode="&#x1fe;" horiz-adv-x="806" 
d="M228 -25h-82l43 74q-71 47 -110.5 125t-39.5 176q0 161 100.5 261t263.5 100q81 0 151 -28l24 42h82l-43 -74q72 -47 111.5 -125t39.5 -176q0 -161 -101 -261t-264 -100q-80 0 -151 27zM237 350q0 -106 23 -177l247 428q-42 52 -104 52q-77 0 -121.5 -77.5t-44.5 -225.5z
M569 350q0 102 -24 176l-246 -428q42 -51 104 -51q77 0 121.5 77.5t44.5 225.5zM337 755l-9 9l74 180q42 0 76 -6.5t47 -13.5l13 -6v-9l-151 -154h-50z" />
    <glyph glyph-name="oslashacute" unicode="&#x1ff;" horiz-adv-x="586" 
d="M92 -1l29 42q-92 70 -92 198q0 112 73 181t191 69q68 0 124 -25l25 35l47 -28l-24 -35q93 -71 93 -197q0 -112 -73.5 -181t-191.5 -69q-68 0 -124 25l-30 -43zM238 553l-10 9l74 180q42 0 76 -6.5t47 -13.5l13 -6v-9l-151 -154h-49zM369 239q0 23 -2 57l-134 -190
q19 -63 60 -63q35 0 55.5 50t20.5 146zM218 239q0 -40 2 -57l133 190q-21 64 -60 64q-35 0 -55 -50t-20 -147z" />
    <glyph glyph-name="Scommaaccent" unicode="&#x218;" horiz-adv-x="626" 
d="M284 653q-36 0 -56 -18t-20 -49q0 -33 29 -60.5t139 -105.5q134 -97 173 -139t39 -105q0 -187 -273 -187q-56 0 -105.5 8t-79.5 19.5t-52.5 23.5t-31.5 20l-9 8q0 49 22.5 93.5t44.5 64.5l22 20h18q3 -8 8.5 -21.5t25 -48t40.5 -60.5t53.5 -47.5t65.5 -21.5q39 0 64 21
t25 52q0 20 -10 37.5t-38.5 40t-53.5 38.5t-79 49q-107 66 -149.5 114t-42.5 122q0 92 66.5 141t199.5 49q76 0 136 -15.5t82 -31.5l22 -15q0 -50 -22.5 -95.5t-44.5 -65.5l-22 -20h-16q-2 8 -7 20t-21 44t-34 56.5t-47.5 44.5t-60.5 20zM254 -257l-16 16q39 52 39 127
q0 18 -3 34t-6 23l-3 7l6 6q27 0 52.5 -3t36.5 -7l12 -3q5 -12 5 -35q0 -32 -12.5 -60.5t-30.5 -47t-36.5 -32t-31.5 -19.5z" />
    <glyph glyph-name="scommaaccent" unicode="&#x219;" horiz-adv-x="466" 
d="M224 430q-24 0 -38.5 -11t-14.5 -28q0 -6 1.5 -11t5.5 -10t8.5 -9.5t12.5 -10t14 -10t18 -11t20 -11t23 -12.5t25 -13q80 -45 110.5 -79t30.5 -82q0 -69 -53 -106t-156 -37q-65 0 -117 14t-72 29l-20 14q0 21 7 41t17 34t20.5 25t17.5 16l7 5h13q2 -5 6 -13t17.5 -28.5
t27.5 -36t36.5 -28.5t44.5 -13q26 0 43 12.5t17 31.5q0 21 -26 38t-110 58q-64 31 -96 65.5t-32 91.5q0 69 51 106.5t153 37.5q56 0 101 -11t63 -22l17 -11q0 -34 -17.5 -64.5t-34.5 -44.5l-17 -14h-14q-2 4 -5 11.5t-13.5 26t-22 33t-30.5 26t-39 11.5zM172 -257l-16 16
q40 52 40 127q0 18 -3 34t-6 23l-3 7l6 6q27 0 52.5 -3t37.5 -7l11 -3q5 -12 5 -35q0 -32 -13 -60.5t-31 -47t-36 -32t-31 -19.5z" />
    <glyph glyph-name="uni021A" unicode="&#x21a;" horiz-adv-x="688" 
d="M434 629v-629h-180v629h-52q-49 0 -90.5 -8.5t-57.5 -16.5l-17 -9l-13 13v92h641v-92l-14 -13q-53 34 -165 34h-52zM287 -257l-16 16q39 52 39 127q0 18 -3 34t-5 23l-3 7l5 6q28 0 53 -3t37 -7l11 -3q6 -12 6 -35q0 -32 -13 -60.5t-31 -47t-36 -32t-31 -19.5z" />
    <glyph glyph-name="uni021B" unicode="&#x21b;" horiz-adv-x="398" 
d="M9 416v44l89 42l36 118h120v-142h125v-62h-125v-271q0 -68 62 -68q15 0 27.5 4t17.5 8l5 4l26 -25q-2 -3 -6.5 -8.5t-19.5 -19t-33 -24t-47.5 -19t-62.5 -8.5q-69 0 -105 34.5t-36 98.5v294h-73zM160 -257l-16 16q39 52 39 127q0 18 -3 34t-6 23l-3 7l6 6q27 0 52.5 -3
t36.5 -7l12 -3q5 -12 5 -35q0 -32 -12.5 -60.5t-30.5 -47t-36.5 -32t-31.5 -19.5z" />
    <glyph glyph-name="dotlessj" unicode="&#x237;" horiz-adv-x="290" 
d="M61 -23v323q0 50 -7.5 91t-15.5 57l-8 17l14 13q48 0 91.5 3.5t63.5 6.5l20 4l14 -14v-442q0 -59 -24.5 -111.5t-59 -85.5t-69 -57t-58.5 -34l-25 -11l-25 25q4 4 10 10.5t21 28.5t27 45.5t21.5 59t9.5 71.5z" />
    <glyph glyph-name="circumflex" unicode="&#x2c6;" horiz-adv-x="411" 
d="M374 562l-9 -9h-58l-101 80l-102 -80h-57l-10 9l148 180h42z" />
    <glyph glyph-name="caron" unicode="&#x2c7;" horiz-adv-x="411" 
d="M365 737l9 -9l-147 -180h-42l-148 180l10 9h57l102 -80l101 80h58z" />
    <glyph glyph-name="breve" unicode="&#x2d8;" horiz-adv-x="426" 
d="M52 664l25 26q6 -6 17.5 -15t47 -24t71.5 -15q37 0 71 13.5t50 26.5l15 14l26 -26l-5 -12.5t-16.5 -27t-30 -34.5t-46.5 -27.5t-64 -12.5q-35 0 -64 11.5t-46.5 28.5t-29.5 34t-17 28z" />
    <glyph glyph-name="dotaccent" unicode="&#x2d9;" horiz-adv-x="267" 
d="M53 619q0 36 22 58.5t58 22.5q37 0 59 -22.5t22 -58.5t-22 -58.5t-59 -22.5q-36 0 -58 22.5t-22 58.5z" />
    <glyph glyph-name="ring" unicode="&#x2da;" horiz-adv-x="253" 
d="M30 640q0 43 27 69.5t70 26.5t69.5 -26.5t26.5 -69.5t-26.5 -69.5t-69.5 -26.5t-70 26.5t-27 69.5zM94 640q0 -34 33 -34q15 0 24 9t9 25q0 15 -9.5 24.5t-23.5 9.5q-15 0 -24 -9.5t-9 -24.5z" />
    <glyph glyph-name="ogonek" unicode="&#x2db;" horiz-adv-x="251" 
d="M108 0h52q-38 -43 -38 -94q0 -46 43 -46q8 0 14.5 1.5t9.5 2.5l3 2l25 -25q-2 -4 -7.5 -11t-26 -18t-45.5 -11q-40 0 -69.5 24.5t-29.5 68.5q0 32 17 58.5t34 37.5z" />
    <glyph glyph-name="tilde" unicode="&#x2dc;" horiz-adv-x="426" 
d="M170 675q26 0 55.5 -18.5t50.5 -18.5t40.5 10t28.5 20l9 10l26 -25q-2 -4 -5 -11t-14 -24.5t-24 -30.5t-34.5 -24t-45.5 -11q-26 0 -55.5 18.5t-51.5 18.5q-20 0 -39.5 -10t-28.5 -20l-10 -10l-25 26q2 4 5 11t14 24t24 30t34.5 24t45.5 11z" />
    <glyph glyph-name="hungarumlaut" unicode="&#x2dd;" horiz-adv-x="503" 
d="M61 553l-9 9l69 180q42 0 76 -6.5t47 -13.5l13 -6v-9l-147 -154h-49zM244 553l-9 9l88 180q42 0 74 -6.5t43 -13.5l12 -6v-9l-159 -154h-49z" />
    <glyph glyph-name="uni0400" unicode="&#x400;" horiz-adv-x="598" 
d="M67 0v700h479v-92l-14 -13q-53 34 -165 34h-120v-234h227l9 -10v-61h-236v-253h130q50 0 91 8.5t58 16.5l16 9l14 -13v-92h-489zM395 764l-9 -9h-50l-150 154v9q41 26 135 26z" />
    <glyph glyph-name="afii10023" unicode="&#x401;" horiz-adv-x="598" 
d="M67 0v700h479v-92l-14 -13q-53 34 -165 34h-120v-234h227l9 -10v-61h-236v-253h130q50 0 91 8.5t58 16.5l16 9l14 -13v-92h-489zM344 825q0 32 20 52t53 20q32 0 52 -20t20 -52q0 -33 -20 -53t-52 -20q-33 0 -53 20t-20 53zM125 825q0 32 20 52t53 20q32 0 51.5 -20
t19.5 -52q0 -33 -19.5 -53t-51.5 -20q-33 0 -53 20t-20 53z" />
    <glyph glyph-name="afii10051" unicode="&#x402;" horiz-adv-x="896" 
d="M668 212v25q0 53 -32 80t-88 27q-31 0 -59.5 -8t-41.5 -16l-13 -7v-313h-180v629h-52q-49 0 -90.5 -8.5t-57.5 -16.5l-17 -9l-13 13v92h641v-92l-14 -13q-53 34 -165 34h-52v-239q10 6 27.5 14.5t71.5 23t107 14.5q195 0 195 -193v-31q0 -229 -211 -229q-51 0 -88 13
t-49 26l-12 13q0 24 7 46.5t17 37.5t20 26.5t17 16.5l7 5h12q1 -5 3 -13.5t8 -30.5t13.5 -38.5t19.5 -30t25 -13.5q14 0 23 13t15 50.5t6 101.5z" />
    <glyph glyph-name="afii10052" unicode="&#x403;" horiz-adv-x="563" 
d="M241 755l-10 9l74 180q42 0 76 -6.5t47 -13.5l13 -6v-9l-151 -154h-49zM67 0v700h472v-92l-13 -13q-54 34 -165 34h-114v-629h-180z" />
    <glyph glyph-name="afii10053" unicode="&#x404;" horiz-adv-x="722" 
d="M406 653q-73 0 -117.5 -69t-48.5 -194h287l10 -9v-61h-296q10 -117 63 -172t149 -55q56 0 108 17t76 34l24 17l27 -28q-3 -6 -9 -15.5t-30.5 -34.5t-54 -44t-81.5 -34.5t-112 -15.5q-162 0 -262 100.5t-100 261.5t100.5 260.5t269.5 99.5q128 0 205 -53t77 -136
q0 -19 -4.5 -34t-8.5 -20l-4 -6q-61 -13 -161 -13l-13 13q13 21 13 70q0 60 -28.5 90.5t-78.5 30.5z" />
    <glyph glyph-name="afii10054" unicode="&#x405;" horiz-adv-x="626" 
d="M284 653q-36 0 -56 -18t-20 -49q0 -33 29 -60.5t139 -105.5q134 -97 173 -139t39 -105q0 -187 -273 -187q-56 0 -105.5 8t-79.5 19.5t-52.5 23.5t-31.5 20l-9 8q0 49 22.5 93.5t44.5 64.5l22 20h18q3 -8 8.5 -21.5t25 -48t40.5 -60.5t53.5 -47.5t65.5 -21.5q39 0 64 21
t25 52q0 20 -10 37.5t-38.5 40t-53.5 38.5t-79 49q-107 66 -149.5 114t-42.5 122q0 92 66.5 141t199.5 49q76 0 136 -15.5t82 -31.5l22 -15q0 -50 -22.5 -95.5t-44.5 -65.5l-22 -20h-16q-2 8 -7 20t-21 44t-34 56.5t-47.5 44.5t-60.5 20z" />
    <glyph glyph-name="afii10055" unicode="&#x406;" horiz-adv-x="314" 
d="M67 0v700h180v-700h-180z" />
    <glyph glyph-name="afii10056" unicode="&#x407;" horiz-adv-x="314" 
d="M-25 805q0 32 20 52t54 20q32 0 51.5 -20t19.5 -52q0 -33 -19.5 -53t-51.5 -20q-34 0 -54 20t-20 53zM195 805q0 32 20 52t53 20q32 0 51.5 -20t19.5 -52q0 -33 -19.5 -53t-51.5 -20q-33 0 -53 20t-20 53zM67 0v700h180v-700h-180z" />
    <glyph glyph-name="afii10057" unicode="&#x408;" horiz-adv-x="512" 
d="M265 212v488h181v-482q0 -229 -248 -229q-60 0 -106 13t-62 26l-16 13q0 47 19 89.5t38 61.5l19 19h12q1 -7 4 -18t12.5 -39t20.5 -50t29 -39.5t37 -17.5q30 0 45 37t15 128z" />
    <glyph glyph-name="afii10058" unicode="&#x409;" horiz-adv-x="1076" 
d="M20 145l13 13q24 -10 51 -10q51 0 74 65.5t23 230.5q0 77 -5.5 138t-10.5 83l-5 22l14 13h493v-295h85q136 0 213.5 -53t77.5 -149t-78 -149.5t-213 -53.5h-265v629h-211v-146q0 -184 -21 -295t-59 -155t-98 -44q-16 0 -32 3t-24 6l-8 3q-14 58 -14 144zM854 203
q0 64 -34 98t-96 34h-57v-264h57q62 0 96 33.5t34 98.5z" />
    <glyph glyph-name="afii10059" unicode="&#x40a;" horiz-adv-x="1105" 
d="M516 0v330h-269v-330h-180v700h180v-300h269v300h180v-300h86q135 0 213 -52t78 -147q0 -96 -78 -148.5t-213 -52.5h-266zM884 201q0 64 -34.5 96.5t-96.5 32.5h-57v-259h57q62 0 96.5 32.5t34.5 97.5z" />
    <glyph glyph-name="afii10060" unicode="&#x40b;" horiz-adv-x="896" 
d="M655 0v237q0 53 -30 80t-83 27q-29 0 -56 -8t-40 -16l-12 -7v-313h-180v629h-52q-49 0 -90.5 -8.5t-57.5 -16.5l-17 -9l-13 13v92h641v-92l-14 -13q-53 34 -165 34h-52v-239q10 6 27.5 14.5t71.5 23t107 14.5q195 0 195 -193v-249h-180z" />
    <glyph glyph-name="afii10061" unicode="&#x40c;" horiz-adv-x="699" 
d="M67 0v700h180v-295h29l242 295h106l-222 -266l141 -236q32 -51 67.5 -97.5t55.5 -66.5l20 -21v-13h-217l-206 334h-16v-334h-180zM283 755l-9 9l74 180q42 0 76 -6.5t47 -13.5l13 -6v-9l-151 -154h-50z" />
    <glyph glyph-name="uni040D" unicode="&#x40d;" horiz-adv-x="776" 
d="M221 0h-154v700h180v-500l308 500h155v-700h-181v499zM463 764l-9 -9h-50l-151 154v9q42 26 136 26z" />
    <glyph glyph-name="afii10062" unicode="&#x40e;" horiz-adv-x="663" 
d="M133 129l14 13q18 -11 61 -11q67 0 108 37l-221 402q-20 36 -41 66t-32 42l-11 12v10h215l191 -350l148 350h88l-208 -471q-62 -138 -108 -189t-120 -51q-20 0 -37.5 3t-25.5 6l-7 3q-14 47 -14 128zM359 742q-77 0 -126 27.5t-49 71.5q0 8 2 16.5t4 12.5l1 5
q45 14 113 14l9 -10q-6 -15 -6 -29q0 -41 52 -41t52 40l-6 30l9 10q30 0 58 -3.5t42 -7.5l13 -3q7 -17 7 -35q0 -44 -49 -71t-126 -27z" />
    <glyph glyph-name="afii10145" unicode="&#x40f;" horiz-adv-x="776" 
d="M247 700v-629h282v629h181v-700h-247l-23 -191h-91l-13 13l-24 178h-245v700h180z" />
    <glyph glyph-name="afii10017" unicode="&#x410;" horiz-adv-x="723" 
d="M171 179l-68 -179h-88l248 639l-29 48v13h197l277 -700h-186l-71 179h-280zM317 522l-9 20l-111 -294h227z" />
    <glyph glyph-name="afii10018" unicode="&#x411;" horiz-adv-x="663" 
d="M67 0v700h491v-92l-13 -13q-54 34 -165 34h-133v-209h91q136 0 213.5 -55t77.5 -155t-77.5 -155t-213.5 -55h-271zM440 210q0 69 -34 104t-96 35h-63v-278h63q62 0 96 35t34 104z" />
    <glyph glyph-name="afii10019" unicode="&#x412;" horiz-adv-x="682" 
d="M67 0v700h276q273 0 273 -175q0 -121 -133 -158q167 -34 167 -178q0 -189 -290 -189h-293zM461 199q0 130 -128 130h-86v-258h86q62 0 95 32.5t33 95.5zM432 514q0 115 -118 115h-67v-229h67q118 0 118 114z" />
    <glyph glyph-name="afii10020" unicode="&#x413;" horiz-adv-x="563" 
d="M67 0v700h472v-92l-13 -13q-54 34 -165 34h-114v-629h-180z" />
    <glyph glyph-name="afii10021" unicode="&#x414;" horiz-adv-x="818" 
d="M172 0q-38 -76 -38 -178l-14 -13h-90l-12 248l13 14h66q6 1 16.5 9t28 33.5t32 63t25 107.5t10.5 159q0 62 -5.5 123t-10.5 91l-5 30l14 13h503v-629h82l13 -14l-12 -248h-90l-14 13q0 45 -9.5 89.5t-18.5 66.5l-10 22h-474zM304 483q0 -314 -73 -412h294v558h-221v-146z
" />
    <glyph glyph-name="afii10022" unicode="&#x415;" horiz-adv-x="598" 
d="M67 0v700h479v-92l-14 -13q-53 34 -165 34h-120v-234h227l9 -10v-61h-236v-253h130q50 0 91 8.5t58 16.5l16 9l14 -13v-92h-489z" />
    <glyph glyph-name="afii10024" unicode="&#x416;" horiz-adv-x="1020" 
d="M141 198l131 237l-210 265h104l227 -291h27v291h180v-291h26l228 291h105l-211 -265l131 -237q29 -51 61.5 -97.5t49.5 -66.5l18 -21v-13h-205l-189 338h-14v-338h-180v338h-14l-189 -338h-204v13q63 70 128 185z" />
    <glyph glyph-name="afii10025" unicode="&#x417;" horiz-adv-x="640" 
d="M308 47q54 0 82.5 36.5t28.5 104.5q0 137 -128 137h-69l-9 9v61h59q64 0 92 32.5t28 103.5q0 122 -83 122q-31 0 -59.5 -18t-48 -44t-34.5 -52t-22 -44l-7 -18h-18q-3 2 -8 5.5t-18.5 16.5t-23.5 29t-18 43.5t-8 58.5q2 3 7.5 8.5t26 19.5t47 24.5t74.5 19.5t104 9
q136 0 205 -48t69 -138q0 -124 -136 -163q167 -35 167 -176q0 -97 -78 -147t-227 -50q-60 0 -110.5 8.5t-78.5 20t-47.5 23.5t-26.5 21l-7 8q0 31 8 58t19 44t22 29t19 17l8 5h18q2 -7 6.5 -19t21 -42.5t35.5 -53.5t51 -42t67 -19z" />
    <glyph glyph-name="afii10026" unicode="&#x418;" horiz-adv-x="776" 
d="M221 0h-154v700h180v-500l308 500h155v-700h-181v499z" />
    <glyph glyph-name="afii10027" unicode="&#x419;" horiz-adv-x="776" 
d="M221 0h-154v700h180v-500l308 500h155v-700h-181v499zM388 742q-77 0 -126 27.5t-49 71.5q0 8 2 16.5t4 12.5l2 5q45 14 112 14l10 -10q-7 -15 -7 -29q0 -20 14.5 -30.5t37.5 -10.5q24 0 38.5 10.5t14.5 29.5l-7 30l9 10q30 0 58.5 -3.5t41.5 -7.5l13 -3q8 -17 8 -35
q0 -44 -49.5 -71t-126.5 -27z" />
    <glyph glyph-name="afii10028" unicode="&#x41a;" horiz-adv-x="699" 
d="M67 0v700h180v-295h29l242 295h106l-222 -266l141 -236q32 -51 67.5 -97.5t55.5 -66.5l20 -21v-13h-217l-206 334h-16v-334h-180z" />
    <glyph glyph-name="afii10029" unicode="&#x41b;" horiz-adv-x="734" 
d="M20 145l13 13q24 -10 51 -10q51 0 74 65.5t23 230.5q0 77 -5.5 138t-10.5 83l-5 22l14 13h493v-700h-180v629h-211v-146q0 -184 -21 -295t-59 -155t-98 -44q-16 0 -32 3t-24 6l-8 3q-14 58 -14 144z" />
    <glyph glyph-name="afii10030" unicode="&#x41c;" horiz-adv-x="959" 
d="M727 0l-61 554l-4 5l-164 -539h-119l-24 23l-169 515l-4 -5l-48 -553h-85l49 522q3 50 2 86.5t-4 57.5l-3 21l14 13h219l151 -462l142 462h216l79 -700h-187z" />
    <glyph glyph-name="afii10031" unicode="&#x41d;" horiz-adv-x="776" 
d="M529 0v324h-282v-324h-180v700h180v-305h282v305h181v-700h-181z" />
    <glyph glyph-name="afii10032" unicode="&#x41e;" horiz-adv-x="806" 
d="M39 350q0 161 100.5 261t263.5 100t264 -100t101 -261t-101 -261t-264 -100t-263.5 100t-100.5 261zM240 350q0 -148 44 -225.5t119 -77.5t119 77.5t44 225.5t-44 225.5t-119 77.5t-119 -77.5t-44 -225.5z" />
    <glyph glyph-name="afii10033" unicode="&#x41f;" horiz-adv-x="776" 
d="M529 0v629h-282v-629h-180v700h643v-700h-181z" />
    <glyph glyph-name="afii10034" unicode="&#x420;" horiz-adv-x="661" 
d="M67 0v700h271q135 0 213 -55t78 -153t-78 -152.5t-213 -54.5h-91v-285h-180zM310 629h-63v-274h63q62 0 96 35t34 102t-34 102t-96 35z" />
    <glyph glyph-name="afii10035" unicode="&#x421;" horiz-adv-x="722" 
d="M406 653q-76 0 -121 -74.5t-45 -209.5q0 -143 53.5 -209.5t159.5 -66.5q56 0 108 17t76 34l24 17l27 -28q-3 -6 -9 -15.5t-30.5 -34.5t-54 -44t-81.5 -34.5t-112 -15.5q-162 0 -262 100.5t-100 261.5t100.5 260.5t269.5 99.5q129 0 205.5 -57t76.5 -147q0 -20 -4.5 -36
t-8.5 -22l-4 -6q-61 -14 -161 -14l-13 14q13 22 13 77q0 65 -28.5 99t-78.5 34z" />
    <glyph glyph-name="afii10036" unicode="&#x422;" horiz-adv-x="688" 
d="M434 629v-629h-180v629h-52q-49 0 -90.5 -8.5t-57.5 -16.5l-17 -9l-13 13v92h641v-92l-14 -13q-53 34 -165 34h-52z" />
    <glyph glyph-name="afii10037" unicode="&#x423;" horiz-adv-x="663" 
d="M133 129l14 13q18 -11 61 -11q67 0 108 37l-221 402q-20 36 -41 66t-32 42l-11 12v10h215l191 -350l148 350h88l-208 -471q-62 -138 -108 -189t-120 -51q-20 0 -37.5 3t-25.5 6l-7 3q-14 47 -14 128z" />
    <glyph glyph-name="afii10038" unicode="&#x424;" horiz-adv-x="971" 
d="M576 68v-68h-181v68q-163 0 -262 79t-99 207t99 207.5t262 79.5v59h181v-59q163 0 262.5 -79.5t99.5 -207.5t-99.5 -207t-262.5 -79zM744 354q0 112 -44.5 170.5t-123.5 58.5v-457q79 0 123.5 58t44.5 170zM395 126v457q-79 0 -123.5 -58.5t-44.5 -170.5t44.5 -170
t123.5 -58z" />
    <glyph glyph-name="afii10039" unicode="&#x425;" horiz-adv-x="714" 
d="M231 700l162 -247l174 247h104l-232 -316l122 -184q33 -50 68 -96.5t54 -68.5l19 -22v-13h-216l-180 268l-194 -268h-96l244 337l-243 363h214z" />
    <glyph glyph-name="afii10040" unicode="&#x426;" horiz-adv-x="812" 
d="M67 0v700h180v-629h272v629h181v-629h81l14 -14l-21 -248h-91l-13 13q0 45 -7.5 89.5t-14.5 66.5l-8 22h-573z" />
    <glyph glyph-name="afii10041" unicode="&#x427;" horiz-adv-x="712" 
d="M234 700v-237q0 -53 31 -80t86 -27q31 0 59 8t41 16l13 7v313h181v-700h-181v310q-10 -6 -27.5 -14.5t-72.5 -23t-110 -14.5q-200 0 -200 193v249h180z" />
    <glyph glyph-name="afii10042" unicode="&#x428;" horiz-adv-x="1090" 
d="M67 0v700h180v-629h208v629h180v-629h208v629h180v-700h-956z" />
    <glyph glyph-name="afii10043" unicode="&#x429;" horiz-adv-x="1136" 
d="M67 0v700h180v-629h208v629h180v-629h208v629h180v-629h82l13 -14l-20 -248h-91l-13 13q0 45 -7.5 89.5t-14.5 66.5l-8 22h-897z" />
    <glyph glyph-name="afii10044" unicode="&#x42a;" horiz-adv-x="822" 
d="M24 700h389v-295h85q136 0 213.5 -53t77.5 -149t-78 -149.5t-213 -53.5h-266v630h-30q-49 0 -90.5 -8.5t-57.5 -17.5l-17 -9l-13 13v92zM600 203q0 64 -34 98t-96 34h-57v-264h57q62 0 96 33.5t34 98.5z" />
    <glyph glyph-name="afii10045" unicode="&#x42b;" horiz-adv-x="950" 
d="M67 0v700h180v-295h85q136 0 213.5 -53t77.5 -149t-78 -149.5t-213 -53.5h-265zM703 0v700h181v-700h-181zM434 203q0 64 -34 98t-96 34h-57v-264h57q62 0 96 33.5t34 98.5z" />
    <glyph glyph-name="afii10046" unicode="&#x42c;" horiz-adv-x="656" 
d="M67 0v700h180v-295h85q136 0 213.5 -53t77.5 -149t-78 -149.5t-213 -53.5h-265zM434 203q0 64 -34 98t-96 34h-57v-264h57q62 0 96 33.5t34 98.5z" />
    <glyph glyph-name="afii10047" unicode="&#x42d;" horiz-adv-x="722" 
d="M302 711q188 0 284.5 -97.5t96.5 -263.5q0 -167 -97 -264t-290 -97q-55 0 -102.5 8.5t-75 20t-47.5 23.5t-27 21l-8 8q0 31 8 58t19 44t22 29t19 17l8 5h18q2 -7 6.5 -19t21 -42.5t35.5 -53.5t51.5 -42t68.5 -19q75 0 119.5 69t48.5 204h-226l-9 9v61h235
q-7 128 -50.5 195.5t-111.5 67.5q-33 0 -64 -18t-51.5 -44t-36 -52t-22.5 -44l-7 -18h-18q-3 2 -8 5.5t-18.5 16.5t-23.5 29t-18 43.5t-8 58.5l8.5 8.5t27 19.5t48 24.5t73.5 19.5t101 9z" />
    <glyph glyph-name="afii10048" unicode="&#x42e;" horiz-adv-x="1071" 
d="M67 0v700h180v-305h112q14 143 105 229.5t230 86.5q151 0 244.5 -100t93.5 -261t-93.5 -261t-244.5 -100q-144 0 -236 92.5t-100 242.5h-111v-324h-180zM558 350q0 -148 36.5 -225.5t99.5 -77.5t100 77.5t37 225.5t-37 225.5t-100 77.5t-99.5 -77.5t-36.5 -225.5z" />
    <glyph glyph-name="afii10049" unicode="&#x42f;" horiz-adv-x="667" 
d="M138 198l61 114q-74 22 -114.5 69.5t-40.5 115.5q0 96 78 149.5t213 53.5h267v-700h-181v295h-66l-156 -295h-182v13q60 70 121 185zM233 497q0 -64 34.5 -98t95.5 -34h58v264h-58q-61 0 -95.5 -33.5t-34.5 -98.5z" />
    <glyph glyph-name="afii10065" unicode="&#x430;" horiz-adv-x="566" 
d="M276 489q218 0 218 -144v-237q0 -41 32 -41q7 0 12.5 1.5t7.5 3.5l3 2l25 -25q-2 -2 -5.5 -6.5t-17 -14.5t-28.5 -18t-40.5 -14.5t-52.5 -6.5q-87 0 -104 60q-68 -60 -161 -60q-65 0 -99 33t-34 96q0 60 45 91.5t173 49.5l72 9v112q0 56 -52 56q-60 0 -60 -68
q0 -15 2.5 -28.5t5.5 -19.5l2 -7l-13 -13q-39 0 -74 3t-50 7l-15 3q-13 19 -13 50q0 60 58 93t163 33zM210 140q0 -59 55 -59q16 0 30 4.5t21 9.5l6 5v110l-52 -8q-60 -7 -60 -62z" />
    <glyph glyph-name="afii10066" unicode="&#x431;" horiz-adv-x="596" 
d="M567 249q0 -126 -64.5 -193t-194.5 -67q-150 0 -212 91t-62 272q0 182 58.5 268t191.5 108l195 33l11 -16.5t18 -45t11 -70.5l-9 -9l-182 -31q-102 -17 -142 -54.5t-45 -119.5l5 -5q2 3 5.5 8.5t18 19t34 24t55 19t77.5 8.5q231 0 231 -240zM299 421q-17 0 -32.5 -8
t-22.5 -16l-6 -8q-11 -29 -11 -132q0 -214 74 -214q73 0 73 198q0 180 -75 180z" />
    <glyph glyph-name="afii10067" unicode="&#x432;" horiz-adv-x="561" 
d="M61 0v300q0 50 -5.5 91t-11.5 57l-5 17l13 13h253q100 0 151.5 -34t51.5 -92q0 -78 -88 -109q117 -26 117 -117q0 -58 -53 -92t-159 -34h-264zM287 205h-54v-134h54q74 0 74 67t-74 67zM272 408h-39v-133h39q72 0 72 66q0 32 -18.5 49.5t-53.5 17.5z" />
    <glyph glyph-name="afii10068" unicode="&#x433;" horiz-adv-x="445" 
d="M283 412h-50v-412h-172v300q0 50 -5.5 91t-11.5 57l-5 17l13 13h379v-87l-13 -14q-5 4 -14.5 10t-44.5 15.5t-76 9.5z" />
    <glyph glyph-name="afii10069" unicode="&#x434;" horiz-adv-x="620" 
d="M161 0q-34 -52 -34 -152l-13 -13h-91l-12 222l14 14h51q71 55 71 250q0 46 -5 82t-10 49l-5 13l13 13h385v-407h69l14 -14l-12 -222h-91l-13 13q0 44 -9 82t-17 54l-9 16h-296zM238 330q0 -163 -51 -259h166v337h-115v-78z" />
    <glyph glyph-name="afii10070" unicode="&#x435;" horiz-adv-x="544" 
d="M482 117l25 -25q-2 -4 -7 -11t-23 -25t-40 -31.5t-61 -24.5t-84 -11q-119 0 -191 69t-72 184q0 114 73 180.5t207 66.5q201 0 201 -155q0 -20 -3 -39t-6 -28l-3 -9l-14 -14h-262q4 -90 35.5 -128.5t95.5 -38.5q36 0 68 10t47 20zM304 436q-72 0 -81 -137l127 9q5 25 5 51
q0 77 -51 77z" />
    <glyph glyph-name="afii10072" unicode="&#x436;" horiz-adv-x="810" 
d="M764 478l-125 -172l53 -108q26 -52 53.5 -97t41.5 -64l14 -19v-18q-48 0 -91.5 -2t-63.5 -4l-19 -3l-123 235h-12v-226h-173v226h-13l-113 -217l-10 -9h-175l156 305l-125 160v13q36 0 68 2.5t47 5.5l14 2q35 -76 104 -169l22 -31l25 -3v15q0 50 -4.5 91t-8.5 57l-4 17
l13 13h177v-193l22 3l25 31q32 40 54 77.5t28 55.5l6 17l9 9h128z" />
    <glyph glyph-name="afii10073" unicode="&#x437;" horiz-adv-x="507" 
d="M219 56q37 0 59.5 21t22.5 59q0 35 -19 54t-54 19h-67l-10 9v60h61q78 0 78 69q0 37 -20.5 60.5t-52.5 23.5q-20 0 -38.5 -11.5t-30.5 -28t-21.5 -33t-13.5 -28.5l-4 -11h-13l-7.5 5t-16 13.5t-20.5 23t-16 32.5t-7 41q6 6 19 15t63 24.5t113 15.5q106 0 167.5 -37.5
t61.5 -98.5q0 -75 -90 -106q57 -13 86 -45.5t29 -74.5q0 -63 -65 -100.5t-180 -37.5q-70 0 -122.5 15t-70.5 30l-17 15q0 32 16.5 60t32.5 40l16 12h13q1 -4 4 -11t13 -25.5t22.5 -32t33.5 -25t45 -11.5z" />
    <glyph glyph-name="afii10074" unicode="&#x438;" horiz-adv-x="588" 
d="M194 0h-133v300q0 50 -5.5 91t-11.5 57l-5 17l13 13h181v-235l-5 -42l5 -5l165 282h134v-478h-173v241l5 38l-5 4z" />
    <glyph glyph-name="afii10075" unicode="&#x439;" horiz-adv-x="588" 
d="M194 0h-133v300q0 50 -5.5 91t-11.5 57l-5 17l13 13h181v-235l-5 -42l5 -5l165 282h134v-478h-173v241l5 38l-5 4zM298 525q-77 0 -126 27t-49 71q0 8 2 17t4 14l2 4q45 13 113 13l9 -10q-7 -15 -7 -29q0 -20 14.5 -30.5t37.5 -10.5q24 0 38.5 10.5t14.5 29.5
q0 7 -1.5 14.5t-3.5 11.5l-2 4l10 10q30 0 58 -3.5t42 -6.5l13 -3q7 -17 7 -36q0 -44 -49.5 -70.5t-126.5 -26.5z" />
    <glyph glyph-name="afii10076" unicode="&#x43a;" horiz-adv-x="572" 
d="M61 0v300q0 50 -5.5 91t-11.5 57l-5 17l13 13h181v-193l25 3l25 31q36 44 58.5 81.5t26.5 53.5l5 15l9 9h135l-134 -168l56 -112q28 -51 59 -96t48 -64l18 -20v-18q-48 0 -93 -2t-65 -4l-21 -3l-138 235h-14v-226h-172z" />
    <glyph glyph-name="afii10077" unicode="&#x43b;" horiz-adv-x="564" 
d="M15 132l13 13q19 -10 40 -10q72 0 72 183q0 48 -5 85t-10 49l-5 13l13 13h374v-478h-172v408h-104v-78q0 -153 -37.5 -247t-113.5 -94q-13 0 -26 2.5t-20 5.5l-6 3q-13 51 -13 132z" />
    <glyph glyph-name="afii10078" unicode="&#x43c;" horiz-adv-x="728" 
d="M531 0l-35 333l-5 4l-97 -337h-124l-23 23l-89 314l-5 -5l-29 -332h-91l-10 9q25 71 38 183l12 108q5 51 4 87.5t-5 56.5l-3 21l13 13h195l85 -314l37 136q12 46 19.5 87t9.5 59l1 19l12 13h201l54 -478h-165z" />
    <glyph glyph-name="afii10079" unicode="&#x43d;" horiz-adv-x="589" 
d="M360 0v210h-127v-210h-172v300q0 50 -5.5 91t-11.5 57l-5 17l13 13h181v-198h127v20q0 50 -2 92t-4 60l-3 17l9 9h172v-478h-172z" />
    <glyph glyph-name="afii10080" unicode="&#x43e;" horiz-adv-x="586" 
d="M29 239q0 112 73 181t191 69t191.5 -69t73.5 -181t-73.5 -181t-191.5 -69t-191 69t-73 181zM222 239q0 -97 19 -146.5t52 -49.5t52 49.5t19 146.5t-19 147t-52 50t-52 -50t-19 -147z" />
    <glyph glyph-name="afii10081" unicode="&#x43f;" horiz-adv-x="588" 
d="M359 0v408h-126v-408h-172v300q0 50 -5.5 91t-11.5 57l-5 17l13 13h480v-478h-173z" />
    <glyph glyph-name="afii10082" unicode="&#x440;" horiz-adv-x="591" 
d="M233 -250h-172v449q0 84 -7.5 150.5t-15.5 90.5l-8 25l14 13q48 0 91.5 3.5t63.5 6.5l20 4l14 -14l-5 -38l5 -5q6 6 17 15t48 24t76 15q85 0 136.5 -63.5t51.5 -173.5q0 -124 -65.5 -193.5t-182.5 -69.5q-43 0 -81 11v-250zM369 225q0 171 -83 171q-14 0 -27 -4t-19 -8
l-7 -5v-283q0 -24 15.5 -37.5t39.5 -13.5q81 0 81 180z" />
    <glyph glyph-name="afii10083" unicode="&#x441;" horiz-adv-x="532" 
d="M482 117l25 -25q-2 -4 -7 -11t-23 -25t-40.5 -31.5t-61.5 -24.5t-84 -11q-119 0 -190.5 69t-71.5 183q0 113 72 180.5t202 67.5q92 0 147 -34.5t55 -96.5q0 -14 -3 -27.5t-6 -19.5l-3 -6q-48 -14 -136 -14l-13 14q9 24 9 59q0 72 -52 72q-38 0 -58.5 -46.5t-20.5 -123.5
q0 -103 32 -146t99 -43q35 0 67.5 10t47.5 20z" />
    <glyph glyph-name="afii10084" unicode="&#x442;" horiz-adv-x="531" 
d="M518 391l-14 -14q-5 4 -14.5 10t-44.5 15.5t-76 9.5h-18v-412h-172v412h-17q-41 0 -75 -9t-47 -17l-13 -9l-14 14v87h505v-87z" />
    <glyph glyph-name="afii10085" unicode="&#x443;" horiz-adv-x="539" 
d="M533 478l-232 -550q-20 -47 -36.5 -91.5t-22.5 -64.5l-7 -21l-9 -9q-37 0 -72.5 11t-52.5 21l-17 11v13q10 7 26.5 21t54 60.5t60.5 97.5l10 23l-133 300q-21 48 -45 90t-37 60l-14 19l9 9q49 0 94.5 2t66.5 4l21 3l121 -303l52 116q23 52 36.5 94t15.5 58l1 17l9 9
q20 0 43 2.5t36 5.5l13 2z" />
    <glyph glyph-name="afii10086" unicode="&#x444;" horiz-adv-x="807" 
d="M318 -250v246q-8 -7 -41 -7q-102 0 -175 70t-73 180t72.5 180t174.5 70q15 0 25.5 -1.5t13.5 -3.5l3 -1v7q0 76 -8 137.5t-16 85.5l-7 24l13 13q48 0 92 3t64 7l20 3l14 -13v-267q8 6 41 6q102 0 175 -70t73 -180q0 -109 -73.5 -179.5t-174.5 -70.5q-15 0 -25 1.5
t-13 3.5l-3 2v-246h-172zM218 239q0 -196 77 -196l23 5v381q-9 7 -24 7q-76 0 -76 -197zM590 239q0 97 -20 147t-56 50l-24 -6v-381q11 -6 24 -6q36 0 56 50t20 146z" />
    <glyph glyph-name="afii10087" unicode="&#x445;" horiz-adv-x="553" 
d="M221 488l99 -156q30 42 51.5 76t27.5 48l6 13l10 9h119l-171 -214l41 -64q32 -50 67 -97t53 -69l19 -21v-13q-56 0 -108 -2t-76 -4l-24 -3l-106 165q-30 -40 -54.5 -77t-34.5 -53l-9 -17l-10 -9h-103l-9 9l177 214l-48 77q-32 49 -63 90.5t-47 57.5l-15 17v13
q56 0 108 2.5t76 5.5z" />
    <glyph glyph-name="afii10088" unicode="&#x446;" horiz-adv-x="627" 
d="M61 0v300q0 50 -5.5 91t-11.5 57l-5 17l13 13h181v-407h126v229q0 50 -2.5 92t-4.5 60l-2 17l9 9h173v-407h69l13 -14l-21 -222h-90l-14 13q0 44 -7.5 82t-14.5 54l-7 16h-399z" />
    <glyph glyph-name="afii10089" unicode="&#x447;" horiz-adv-x="574" 
d="M221 478v-177q0 -28 13.5 -39t43.5 -11q16 0 32 4t24 8l7 4v33q0 50 -4.5 91t-8.5 57l-5 17l14 13h176v-478h-172v200q-7 -5 -20 -12t-54.5 -18.5t-84.5 -11.5q-69 0 -101 37.5t-32 96.5v21q0 45 -7.5 83t-15.5 54l-8 15l13 13h190z" />
    <glyph glyph-name="afii10090" unicode="&#x448;" horiz-adv-x="857" 
d="M61 0v300q0 50 -5.5 91t-11.5 57l-5 17l13 13h181v-407h112v229q0 50 -2.5 92t-4.5 60l-3 17l10 9h172v-407h112v229q0 50 -2.5 92t-4.5 60l-3 17l10 9h172v-478h-740z" />
    <glyph glyph-name="afii10091" unicode="&#x449;" horiz-adv-x="896" 
d="M61 0v300q0 50 -5.5 91t-11.5 57l-5 17l13 13h181v-407h112v229q0 50 -2.5 92t-4.5 60l-3 17l10 9h172v-407h112v229q0 50 -2.5 92t-4.5 60l-3 17l10 9h172v-407h69l13 -14l-20 -222h-91l-13 13q0 44 -7.5 82t-15.5 54l-7 16h-668z" />
    <glyph glyph-name="afii10092" unicode="&#x44a;" horiz-adv-x="650" 
d="M168 0v412h-23q-35 0 -64.5 -10t-41.5 -20l-12 -9l-14 13v92h327v-188h71q97 0 156.5 -40t59.5 -105t-59.5 -105t-156.5 -40h-243zM377 220h-37v-149h37q34 0 54 19t20 55q0 37 -20 56t-54 19z" />
    <glyph glyph-name="afii10093" unicode="&#x44b;" horiz-adv-x="795" 
d="M61 0v300q0 50 -5.5 91t-11.5 57l-5 17l13 13h181v-188h71q97 0 156.5 -40t59.5 -105t-59.5 -105t-156.5 -40h-243zM566 0v300q0 50 -2 92t-4 60l-3 17l9 9h172v-478h-172zM270 220h-37v-149h37q34 0 54 19t20 55q0 37 -20 56t-54 19z" />
    <glyph glyph-name="afii10094" unicode="&#x44c;" horiz-adv-x="543" 
d="M61 0v300q0 50 -5.5 91t-11.5 57l-5 17l13 13h181v-188h71q97 0 156.5 -40t59.5 -105t-59.5 -105t-156.5 -40h-243zM270 220h-37v-149h37q34 0 54 19t20 55q0 37 -20 56t-54 19z" />
    <glyph glyph-name="afii10095" unicode="&#x44d;" horiz-adv-x="520" 
d="M211 56q41 0 62 37t24 120h-134l-10 9v53h144q-7 156 -83 156q-30 0 -56 -27.5t-38 -55.5l-11 -28h-14l-7.5 5t-15.5 13.5t-20 23t-16 32.5t-7 41q6 6 19 15t61.5 24t105.5 15q131 0 204 -68.5t73 -181.5t-73 -181.5t-202 -68.5q-37 0 -71 6t-55.5 14.5t-38 17.5
t-23.5 15l-7 6q0 33 16 61t32 40l17 12h14q1 -4 4 -11t13.5 -25.5t22 -32t30.5 -25t40 -11.5z" />
    <glyph glyph-name="afii10096" unicode="&#x44e;" horiz-adv-x="808" 
d="M61 0v300q0 50 -5.5 91t-11.5 57l-5 17l13 13h181v-198h60q13 95 78.5 152t163.5 57q110 0 177.5 -69t67.5 -181t-67.5 -181t-177.5 -69q-102 0 -168 60.5t-75 160.5h-59v-210h-172zM472 239q0 -97 17 -146.5t46 -49.5q64 0 64 196q0 97 -17 147t-47 50q-29 0 -46 -50
t-17 -147z" />
    <glyph glyph-name="afii10097" unicode="&#x44f;" horiz-adv-x="559" 
d="M16 0v18q63 66 128 180l5 8q-51 17 -79.5 51t-28.5 78q0 64 59 103.5t155 39.5h248v-478h-173v191h-40l-105 -200q-68 9 -169 9zM289 261h41v147h-41q-34 0 -55 -18.5t-21 -54.5t21 -55t55 -19z" />
    <glyph glyph-name="uni0450" unicode="&#x450;" horiz-adv-x="544" 
d="M482 117l25 -25q-2 -4 -7 -11t-23 -25t-40 -31.5t-61 -24.5t-84 -11q-119 0 -191 69t-72 184q0 114 73 180.5t207 66.5q201 0 201 -155q0 -20 -3 -39t-6 -28l-3 -9l-14 -14h-262q4 -90 35.5 -128.5t95.5 -38.5q36 0 68 10t47 20zM365 562l-9 -9h-50l-151 154v9
q42 26 136 26zM304 436q-72 0 -81 -137l127 9q5 25 5 51q0 77 -51 77z" />
    <glyph glyph-name="afii10071" unicode="&#x451;" horiz-adv-x="544" 
d="M482 117l25 -25q-2 -4 -7 -11t-23 -25t-40 -31.5t-61 -24.5t-84 -11q-119 0 -191 69t-72 184q0 114 73 180.5t207 66.5q201 0 201 -155q0 -20 -3 -39t-6 -28l-3 -9l-14 -14h-262q4 -90 35.5 -128.5t95.5 -38.5q36 0 68 10t47 20zM112 624q0 32 20 51.5t54 19.5
q32 0 51.5 -19.5t19.5 -51.5q0 -33 -19.5 -53.5t-51.5 -20.5q-34 0 -54 20.5t-20 53.5zM332 624q0 32 20 51.5t53 19.5q32 0 51.5 -19.5t19.5 -51.5q0 -33 -19.5 -53.5t-51.5 -20.5q-33 0 -53 20.5t-20 53.5zM304 436q-72 0 -81 -137l127 9q5 25 5 51q0 77 -51 77z" />
    <glyph glyph-name="afii10099" unicode="&#x452;" horiz-adv-x="589" 
d="M361 -23v359q0 60 -62 60q-16 0 -32.5 -4t-24.5 -8l-9 -3v-381h-172v572h-73v35l73 33v110h172v-116h152v-62h-152v-88l-4 -48l4 -5q8 6 22 16t57 26t86 16q70 0 102.5 -38t32.5 -98v-317q0 -59 -24.5 -111.5t-59 -85.5t-69 -57t-58.5 -34l-25 -11l-25 25q4 4 10 10.5
t21 28.5t27 45.5t21.5 59t9.5 71.5z" />
    <glyph glyph-name="afii10100" unicode="&#x453;" horiz-adv-x="445" 
d="M283 412h-50v-412h-172v300q0 50 -5.5 91t-11.5 57l-5 17l13 13h379v-87l-13 -14q-5 4 -14.5 10t-44.5 15.5t-76 9.5zM166 553l-9 9l74 180q42 0 76 -6.5t47 -13.5l13 -6v-9l-151 -154h-50z" />
    <glyph glyph-name="afii10101" unicode="&#x454;" horiz-adv-x="524" 
d="M482 117l25 -25q-2 -4 -7 -11t-23 -25t-40.5 -31.5t-61.5 -24.5t-84 -11q-119 0 -190.5 69t-71.5 184q0 112 73 179.5t207 67.5q88 0 140 -29.5t52 -81.5q0 -10 -2 -20t-4 -16l-2 -5q-46 -13 -133 -13l-14 13q8 20 8 43q0 27 -14.5 41.5t-37.5 14.5q-38 0 -58 -42.5
t-22 -113.5h175l10 -10v-53h-183q7 -76 39 -108t90 -32q35 0 67.5 10t47.5 20z" />
    <glyph glyph-name="afii10102" unicode="&#x455;" horiz-adv-x="466" 
d="M224 430q-24 0 -38.5 -11t-14.5 -28q0 -6 1.5 -11t5.5 -10t8.5 -9.5t12.5 -10t14 -10t18 -11t20 -11t23 -12.5t25 -13q80 -45 110.5 -79t30.5 -82q0 -69 -53 -106t-156 -37q-65 0 -117 14t-72 29l-20 14q0 21 7 41t17 34t20.5 25t17.5 16l7 5h13q2 -5 6 -13t17.5 -28.5
t27.5 -36t36.5 -28.5t44.5 -13q26 0 43 12.5t17 31.5q0 21 -26 38t-110 58q-64 31 -96 65.5t-32 91.5q0 69 51 106.5t153 37.5q56 0 101 -11t63 -22l17 -11q0 -34 -17.5 -64.5t-34.5 -44.5l-17 -14h-14q-2 4 -5 11.5t-13.5 26t-22 33t-30.5 26t-39 11.5z" />
    <glyph glyph-name="afii10103" unicode="&#x456;" horiz-adv-x="290" 
d="M61 0v300q0 50 -7.5 91t-15.5 57l-8 17l14 13q48 0 91.5 3.5t63.5 6.5l20 4l14 -14v-478h-172zM40 638q0 45 27.5 73t72.5 28t72.5 -28t27.5 -73t-27.5 -72.5t-72.5 -27.5t-72.5 27.5t-27.5 72.5z" />
    <glyph glyph-name="afii10104" unicode="&#x457;" horiz-adv-x="290" 
d="M61 0v300q0 50 -7.5 91t-15.5 57l-8 17l14 13q48 0 91.5 3.5t63.5 6.5l20 4l14 -14v-478h-172zM-25 624q0 32 20 51.5t53 19.5t52.5 -19.5t19.5 -51.5q0 -33 -19.5 -53.5t-52.5 -20.5t-53 20.5t-20 53.5zM170 624q0 32 20 51.5t53 19.5q32 0 51.5 -19.5t19.5 -51.5
q0 -33 -19.5 -53.5t-51.5 -20.5q-33 0 -53 20.5t-20 53.5z" />
    <glyph glyph-name="afii10105" unicode="&#x458;" horiz-adv-x="290" 
d="M61 -23v323q0 50 -7.5 91t-15.5 57l-8 17l14 13q48 0 91.5 3.5t63.5 6.5l20 4l14 -14v-442q0 -59 -24.5 -111.5t-59 -85.5t-69 -57t-58.5 -34l-25 -11l-25 25q4 4 10 10.5t21 28.5t27 45.5t21.5 59t9.5 71.5zM40 638q0 45 27.5 73t72.5 28t72.5 -28t27.5 -73t-27.5 -72.5
t-72.5 -27.5t-72.5 27.5t-27.5 72.5z" />
    <glyph glyph-name="afii10106" unicode="&#x459;" horiz-adv-x="815" 
d="M15 129l13 13q19 -10 40 -10q75 0 75 188q0 46 -5.5 82.5t-11.5 49.5l-5 13l14 13h372v-188h69q97 0 156.5 -40t59.5 -105t-59.5 -105t-156.5 -40h-241v408h-104v-78q0 -147 -40 -244t-112 -97q-12 0 -24.5 2.5t-19.5 5.5l-7 3q-13 48 -13 129zM542 220h-35v-149h35
q34 0 54 19t20 55q0 37 -20 56t-54 19z" />
    <glyph glyph-name="afii10107" unicode="&#x45a;" horiz-adv-x="835" 
d="M356 0v215h-123v-215h-172v300q0 50 -5.5 91t-11.5 57l-5 17l13 13h181v-192h123v14q0 50 -2.5 92t-5.5 60l-2 17l10 9h172v-192h68q97 0 156.5 -39.5t59.5 -103.5t-59.5 -103.5t-156.5 -39.5h-240zM563 216h-35v-145h35q34 0 53.5 18t19.5 54t-19.5 54.5t-53.5 18.5z
" />
    <glyph glyph-name="afii10108" unicode="&#x45b;" horiz-adv-x="589" 
d="M-12 572v35l73 33v110h172v-116h152v-62h-152v-88l-4 -48l4 -5q8 6 22 16t57 26t86 16q70 0 102.5 -38t32.5 -98v-353h-172v336q0 60 -62 60q-16 0 -32.5 -4t-24.5 -8l-9 -3v-381h-172v572h-73z" />
    <glyph glyph-name="afii10109" unicode="&#x45c;" horiz-adv-x="572" 
d="M61 0v300q0 50 -5.5 91t-11.5 57l-5 17l13 13h181v-193l25 3l25 31q36 44 58.5 81.5t26.5 53.5l5 15l9 9h135l-134 -168l56 -112q28 -51 59 -96t48 -64l18 -20v-18q-48 0 -93 -2t-65 -4l-21 -3l-138 235h-14v-226h-172zM230 553l-9 9l74 180q42 0 75.5 -6.5t46.5 -13.5
l13 -6v-9l-151 -154h-49z" />
    <glyph glyph-name="uni045D" unicode="&#x45d;" horiz-adv-x="588" 
d="M194 0h-133v300q0 50 -5.5 91t-11.5 57l-5 17l13 13h181v-235l-5 -42l5 -5l165 282h134v-478h-173v241l5 38l-5 4zM359 562l-9 -9h-50l-151 154v9q42 26 136 26z" />
    <glyph glyph-name="afii10110" unicode="&#x45e;" horiz-adv-x="539" 
d="M533 478l-232 -550q-20 -47 -36.5 -91.5t-22.5 -64.5l-7 -21l-9 -9q-37 0 -72.5 11t-52.5 21l-17 11v13q10 7 26.5 21t54 60.5t60.5 97.5l10 23l-132 300q-21 48 -45.5 90.5t-37.5 60.5l-14 18l9 9q49 0 94.5 2t66.5 4l21 3l121 -303l52 116q23 52 36.5 94t15.5 58l1 17
l9 9q20 0 43 2.5t36 5.5l13 2zM281 525q-77 0 -126 27t-49 71q0 8 2 17t4 14l2 4q45 13 113 13l9 -10q-7 -15 -7 -29q0 -20 14.5 -30.5t37.5 -10.5q24 0 38.5 10.5t14.5 29.5q0 7 -2 14.5t-4 11.5l-1 4l9 10q30 0 58.5 -3.5t41.5 -6.5l13 -3q8 -17 8 -36q0 -44 -49.5 -70.5
t-126.5 -26.5z" />
    <glyph glyph-name="afii10193" unicode="&#x45f;" horiz-adv-x="624" 
d="M61 0v300q0 50 -5.5 91t-11.5 57l-5 17l13 13h181v-407h126v229q0 50 -2.5 92t-4.5 60l-2 17l9 9h173v-478h-160l-23 -165h-91l-13 13l-24 152h-160z" />
    <glyph glyph-name="afii10050" unicode="&#x490;" horiz-adv-x="540" 
d="M67 0v700h305q30 66 30 166l14 14h90l21 -237l-14 -14h-266v-629h-180z" />
    <glyph glyph-name="afii10098" unicode="&#x491;" horiz-adv-x="445" 
d="M61 0v300q0 50 -5.5 91t-11.5 57l-5 17l13 13h223q25 53 25 152l14 14h90l21 -223l-14 -13h-178v-408h-172z" />
    <glyph glyph-name="uni04D8" unicode="&#x4d8;" horiz-adv-x="744" 
d="M44 252q0 24 3 43t5 27l3 7l14 14h435q-4 264 -212 264q-56 0 -108 -17.5t-76 -35.5l-24 -17l-27 27q3 6 9 16t30 35t54 44.5t82 35.5t112 16q162 0 262 -100.5t100 -260.5q0 -161 -100.5 -261t-263.5 -100q-139 0 -218.5 72.5t-79.5 190.5zM340 47q66 0 109.5 60.5
t52.5 172.5l-281 -20v-30q0 -91 31.5 -137t87.5 -46z" />
    <glyph glyph-name="afii10846" unicode="&#x4d9;" horiz-adv-x="535" 
d="M52 362l-25 25q2 4 7 11t23 24.5t40.5 31t61.5 24.5t84 11q119 0 191 -69t72 -183t-73.5 -181t-207.5 -67q-200 0 -200 156q0 19 3 38t6 29l3 9l13 13h262q-3 90 -35.5 129t-95.5 39q-35 0 -67.5 -10t-47.5 -20zM230 43q73 0 82 136l-128 -10q-5 -23 -5 -49q0 -77 51 -77
z" />
    <glyph glyph-name="Wgrave" unicode="&#x1e80;" horiz-adv-x="1082" 
d="M690 23l-129 374l-127 -397h-132l-24 23l-187 499q-18 49 -38 90t-31 58l-11 16v14h203l195 -521l108 347q-16 48 -33.5 88t-27.5 56l-10 16v14h204l172 -512l163 512h87l-229 -700h-130zM645 764l-9 -9h-49l-151 154v9q41 26 135 26z" />
    <glyph glyph-name="wgrave" unicode="&#x1e81;" horiz-adv-x="818" 
d="M498 23l-74 233l-81 -256h-118l-23 23l-106 277q-20 50 -42.5 92t-35.5 60l-12 17l9 9q49 0 93.5 2t64.5 4l20 3l121 -316l66 209q-12 27 -23.5 49t-17.5 31l-6 9l9 9q49 0 91 2t59 4l18 3l102 -318l45 131q16 48 26.5 90t12.5 60l2 19l9 9q20 0 44 2.5t38 5.5l14 2
l9 -10l-170 -478h-121zM499 562l-10 -9h-49l-151 154v9q42 26 136 26z" />
    <glyph glyph-name="Wacute" unicode="&#x1e82;" horiz-adv-x="1082" 
d="M690 23l-129 374l-127 -397h-132l-24 23l-187 499q-18 49 -38 90t-31 58l-11 16v14h203l195 -521l108 347q-16 48 -33.5 88t-27.5 56l-10 16v14h204l172 -512l163 512h87l-229 -700h-130zM497 755l-10 9l74 180q42 0 76 -6.5t47 -13.5l13 -6v-9l-151 -154h-49z" />
    <glyph glyph-name="wacute" unicode="&#x1e83;" horiz-adv-x="818" 
d="M498 23l-74 233l-81 -256h-118l-23 23l-106 277q-20 50 -42.5 92t-35.5 60l-12 17l9 9q49 0 93.5 2t64.5 4l20 3l121 -316l66 209q-12 27 -23.5 49t-17.5 31l-6 9l9 9q49 0 91 2t59 4l18 3l102 -318l45 131q16 48 26.5 90t12.5 60l2 19l9 9q20 0 44 2.5t38 5.5l14 2
l9 -10l-170 -478h-121zM378 553l-9 9l74 180q42 0 76 -6.5t47 -13.5l13 -6v-9l-151 -154h-50z" />
    <glyph glyph-name="Wdieresis" unicode="&#x1e84;" horiz-adv-x="1082" 
d="M690 23l-129 374l-127 -397h-132l-24 23l-187 499q-18 49 -38 90t-31 58l-11 16v14h203l195 -521l108 347q-16 48 -33.5 88t-27.5 56l-10 16v14h204l172 -512l163 512h87l-229 -700h-130zM600 825q0 32 20 52t53 20q32 0 52 -20t20 -52q0 -33 -20 -53t-52 -20
q-33 0 -53 20t-20 53zM381 825q0 32 20 52t53 20q32 0 51.5 -20t19.5 -52q0 -33 -19.5 -53t-51.5 -20q-33 0 -53 20t-20 53z" />
    <glyph glyph-name="wdieresis" unicode="&#x1e85;" horiz-adv-x="818" 
d="M498 23l-74 233l-81 -256h-118l-23 23l-106 277q-20 50 -42.5 92t-35.5 60l-12 17l9 9q49 0 93.5 2t64.5 4l20 3l121 -316l66 209q-12 27 -23.5 49t-17.5 31l-6 9l9 9q49 0 91 2t59 4l18 3l102 -318l45 131q16 48 26.5 90t12.5 60l2 19l9 9q20 0 44 2.5t38 5.5l14 2
l9 -10l-170 -478h-121zM472 624q0 32 20 51.5t53 19.5t52.5 -19.5t19.5 -51.5q0 -33 -19.5 -53.5t-52.5 -20.5t-53 20.5t-20 53.5zM253 624q0 32 20 51.5t53 19.5q32 0 52 -19.5t20 -51.5q0 -33 -20 -53.5t-52 -20.5q-33 0 -53 20.5t-20 53.5z" />
    <glyph glyph-name="Ygrave" unicode="&#x1ef2;" horiz-adv-x="689" 
d="M678 700l-233 -372v-328h-181v315l-108 173q-34 54 -70.5 103.5t-55.5 72.5l-20 22v14h223l175 -276l174 276h96zM428 767l-10 -10h-49l-151 155v9q42 26 136 26z" />
    <glyph glyph-name="ygrave" unicode="&#x1ef3;" horiz-adv-x="539" 
d="M533 478l-232 -550q-20 -47 -36.5 -91.5t-22.5 -64.5l-7 -21l-9 -9q-37 0 -72.5 11t-52.5 21l-17 11v13q10 7 26.5 21t54 60.5t60.5 97.5l10 23l-133 300q-21 48 -45 90t-37 60l-14 19l9 9q49 0 94.5 2t66.5 4l21 3l121 -303l52 116q23 52 36.5 94t15.5 58l1 17l9 9
q20 0 43 2.5t36 5.5l13 2zM346 562l-9 -9h-49l-151 154v9q41 26 135 26z" />
    <glyph glyph-name="figuredash" unicode="&#x2012;" 
d="M50 315v70h491v-70h-491z" />
    <glyph glyph-name="endash" unicode="&#x2013;" horiz-adv-x="492" 
d="M50 240v70h391v-70h-391z" />
    <glyph glyph-name="emdash" unicode="&#x2014;" horiz-adv-x="792" 
d="M50 240v70h691v-70h-691z" />
    <glyph glyph-name="quoteleft" unicode="&#x2018;" horiz-adv-x="243" 
d="M213 758l25 -25q-7 -9 -16.5 -26.5t-26 -69t-16.5 -102.5q0 -28 4.5 -54t8.5 -37l5 -12l-9 -9q-43 0 -78.5 5.5t-49.5 10.5l-14 5q-8 21 -8 58q0 47 18 90.5t43.5 72.5t51.5 51t44 32z" />
    <glyph glyph-name="quoteright" unicode="&#x2019;" horiz-adv-x="243" 
d="M48 424l-25 25q7 10 16.5 27t26 69t16.5 102q0 28 -4.5 54t-9.5 37l-4 12l9 9q42 0 77.5 -5.5t49.5 -10.5l14 -5q9 -21 9 -58q0 -47 -18 -90.5t-43.5 -72.5t-51.5 -51t-44 -32z" />
    <glyph glyph-name="quotesinglbase" unicode="&#x201a;" horiz-adv-x="243" 
d="M38 -177l-25 25q7 9 16.5 26.5t26 69t16.5 102.5q0 28 -4.5 53.5t-9.5 36.5l-4 12l9 9q42 0 77.5 -5.5t49.5 -10.5l14 -5q9 -20 9 -57q0 -47 -18 -91t-43.5 -72.5t-51.5 -50.5t-44 -32z" />
    <glyph glyph-name="quotedblleft" unicode="&#x201c;" horiz-adv-x="429" 
d="M213 758l25 -25q-7 -9 -16.5 -26.5t-26 -69t-16.5 -102.5q0 -28 4.5 -54t8.5 -37l5 -12l-9 -9q-43 0 -78.5 5.5t-49.5 10.5l-14 5q-8 21 -8 58q0 47 18 90.5t43.5 72.5t51.5 51t44 32zM399 758l25 -25q-7 -9 -16.5 -26.5t-26 -69t-16.5 -102.5q0 -28 4.5 -54t8.5 -37
l5 -12l-9 -9q-43 0 -78.5 5.5t-49.5 10.5l-14 5q-8 21 -8 58q0 47 18 90.5t44 72.5t51.5 51t43.5 32z" />
    <glyph glyph-name="quotedblright" unicode="&#x201d;" horiz-adv-x="429" 
d="M48 424l-25 25q7 10 16.5 27t26 69t16.5 102q0 28 -4.5 54t-9.5 37l-4 12l9 9q42 0 77.5 -5.5t49.5 -10.5l14 -5q9 -21 9 -58q0 -47 -18 -90.5t-43.5 -72.5t-51.5 -51t-44 -32zM234 424l-25 25q7 10 16.5 27t26 69t16.5 102q0 28 -4.5 54t-9.5 37l-4 12l9 9
q42 0 77.5 -5.5t49.5 -10.5l14 -5q9 -21 9 -58q0 -47 -18 -90.5t-43.5 -72.5t-51.5 -51t-44 -32z" />
    <glyph glyph-name="quotedblbase" unicode="&#x201e;" horiz-adv-x="429" 
d="M38 -177l-25 25q7 9 16.5 26.5t26 69t16.5 102.5q0 28 -4.5 53.5t-9.5 36.5l-4 12l9 9q42 0 77.5 -5.5t49.5 -10.5l14 -5q9 -20 9 -57q0 -47 -18 -91t-43.5 -72.5t-51.5 -50.5t-44 -32zM224 -177l-25 25q7 9 16.5 26.5t26 69t16.5 102.5q0 28 -4.5 53.5t-9.5 36.5l-4 12
l9 9q42 0 77.5 -5.5t49.5 -10.5l14 -5q9 -20 9 -57q0 -47 -18 -91t-43.5 -72.5t-51.5 -50.5t-44 -32z" />
    <glyph glyph-name="dagger" unicode="&#x2020;" horiz-adv-x="496" 
d="M34 486v83l181 -9l-8 190h82l-8 -190l182 9v-83l-180 9v-545h-70v545z" />
    <glyph glyph-name="daggerdbl" unicode="&#x2021;" horiz-adv-x="496" 
d="M34 486v83l181 -9l-8 190h82l-8 -190l182 9v-83l-180 9v-290l180 9v-83l-182 9l8 -190h-82l8 190l-181 -9v83l179 -9v290z" />
    <glyph glyph-name="bullet" unicode="&#x2022;" horiz-adv-x="306" 
d="M34 300q0 54 32.5 87t86.5 33t87 -33t33 -87q0 -53 -33 -86t-87 -33t-86.5 33t-32.5 86z" />
    <glyph glyph-name="ellipsis" unicode="&#x2026;" horiz-adv-x="747" 
d="M32 78q0 40 24.5 65t64.5 25q41 0 65.5 -24.5t24.5 -65.5q0 -40 -24.5 -64.5t-65.5 -24.5q-40 0 -64.5 24.5t-24.5 64.5zM284 78q0 40 24.5 65t64.5 25q41 0 65.5 -25t24.5 -65t-25 -64.5t-65 -24.5t-64.5 24.5t-24.5 64.5zM536 78q0 40 24.5 65t64.5 25q41 0 65.5 -25
t24.5 -65t-25 -64.5t-65 -24.5t-64.5 24.5t-24.5 64.5z" />
    <glyph glyph-name="perthousand" unicode="&#x2030;" horiz-adv-x="1268" 
d="M258 0h-81l432 700h81zM25 515q0 87 51.5 141.5t133.5 54.5t133.5 -54.5t51.5 -141.5t-51.5 -141.5t-133.5 -54.5t-133.5 54.5t-51.5 141.5zM154 514q0 -67 15 -102t41 -35q25 0 40 35t15 102q0 138 -55 138q-26 0 -41 -35t-15 -103zM472 185q0 87 51.5 141.5t133.5 54.5
q83 0 134.5 -54.5t51.5 -141.5t-51.5 -141.5t-134.5 -54.5q-82 0 -133.5 54.5t-51.5 141.5zM602 184q0 -67 15 -102t40 -35q26 0 41 35t15 102q0 68 -15 103t-41 35q-55 0 -55 -138zM873 185q0 87 51.5 141.5t133.5 54.5q83 0 134.5 -54.5t51.5 -141.5t-51.5 -141.5
t-134.5 -54.5q-82 0 -133.5 54.5t-51.5 141.5zM1003 184q0 -67 15 -102t40 -35q26 0 41 35t15 102q0 68 -15 103t-41 35q-55 0 -55 -138z" />
    <glyph glyph-name="guilsinglleft" unicode="&#x2039;" horiz-adv-x="300" 
d="M259 476l9 -9v-58l-107 -134l107 -134v-58l-9 -9l-229 188v26z" />
    <glyph glyph-name="guilsinglright" unicode="&#x203a;" horiz-adv-x="300" 
d="M32 467l9 9l229 -188v-26l-229 -188l-9 9v58l107 134l-107 134v58z" />
    <glyph glyph-name="fraction" unicode="&#x2044;" horiz-adv-x="531" 
d="M90 -25h-81l432 750h81z" />
    <glyph glyph-name="Euro" unicode="&#x20ac;" horiz-adv-x="749" 
d="M16 389v71h70q29 118 121.5 184.5t245.5 66.5q53 0 98 -8.5t72 -20.5t47 -23.5t28 -20.5l7 -8q0 -44 -18 -78t-36 -46l-18 -12h-18q-2 6 -7 17t-21.5 38.5t-35 48.5t-49 38t-62.5 17q-60 0 -101 -49t-56 -144h237l10 -10v-61h-254q-1 -13 -1 -40t1 -39h244l10 -10v-61
h-248q15 -95 57 -143.5t107 -48.5q35 0 66.5 16.5t50.5 39.5t33.5 46.5t20.5 40.5l6 16h18q3 -1 8 -4.5t17 -15t21.5 -25.5t17.5 -38.5t8 -52.5q-2 -3 -7.5 -8.5t-26.5 -19.5t-47 -24.5t-72.5 -19.5t-100.5 -9q-156 0 -249.5 66t-122.5 184h-71v71h59q-1 13 -1 40q0 26 1 39
h-59z" />
    <glyph glyph-name="uni20B4" unicode="&#x20b4;" horiz-adv-x="588" 
d="M34 389v71h289q24 34 24 71q0 76 -102 76q-46 0 -88.5 -14.5t-61.5 -29.5l-19 -15l-27 27q3 6 8 15t27 32.5t49.5 41.5t76 32.5t105.5 14.5q105 0 165 -44t60 -112q0 -50 -34 -95h48v-71h-122q-17 -14 -52 -40t-38 -28h212v-71h-287q-27 -38 -27 -77q0 -80 109 -80
q48 0 91.5 15t63.5 30l19 15l27 -28q-3 -6 -8.5 -15t-27.5 -32.5t-50.5 -41.5t-78 -32.5t-108.5 -14.5q-107 0 -168.5 44t-61.5 115q0 54 37 102h-50v71h125q12 9 43.5 32t47.5 36h-216z" />
    <glyph glyph-name="afii61352" unicode="&#x2116;" horiz-adv-x="1100" 
d="M67 0v420q0 80 -7.5 147t-15.5 93l-8 27l13 13h61l454 -419v419h87v-700h-52l-453 418v-418h-79zM705 515q0 87 51.5 141.5t133.5 54.5t133.5 -54.5t51.5 -141.5t-51.5 -141.5t-133.5 -54.5t-133.5 54.5t-51.5 141.5zM714 184v71h352v-71h-352zM835 514q0 -67 15 -102
t40 -35t40 35t15 102q0 138 -55 138t-55 -138z" />
    <glyph glyph-name="trademark" unicode="&#x2122;" horiz-adv-x="836" 
d="M703 350l-26 265l-2 2l-72 -257h-73l-13 13l-74 244l-2 -3l-20 -264h-50l22 260q2 25 0.5 43t-3.5 29l-2 10l8 8h134l61 -203l58 203h131l37 -350h-114zM237 658v-308h-109v308h-19q-24 0 -44.5 -5t-28.5 -10l-9 -5l-8 7v55h327v-55l-8 -7q-28 20 -82 20h-19z" />
    <glyph glyph-name="arrowleft" unicode="&#x2190;" horiz-adv-x="542" 
d="M272 490l9 -10v-58l-92 -112h302v-70h-302l92 -112v-58l-9 -10l-242 202v26z" />
    <glyph glyph-name="arrowup" unicode="&#x2191;" horiz-adv-x="533" 
d="M301 55h-71v301l-112 -91h-58l-9 9l202 241h25l202 -241l-9 -9h-58l-112 91v-301z" />
    <glyph glyph-name="arrowright" unicode="&#x2192;" horiz-adv-x="542" 
d="M50 240v70h302l-92 112v58l10 10l241 -202v-26l-241 -202l-10 10v58l92 112h-302z" />
    <glyph glyph-name="arrowdown" unicode="&#x2193;" horiz-adv-x="533" 
d="M51 276l9 9h58l112 -91v301h71v-302l112 92h58l9 -9l-202 -241h-25z" />
    <glyph glyph-name="uni2196" unicode="&#x2196;" horiz-adv-x="533" 
d="M135 115h-14l-27 314l18 18l314 -28v-13l-42 -41l-144 -15l213 -213l-49 -49l-214 213l-14 -145z" />
    <glyph glyph-name="uni2197" unicode="&#x2197;" horiz-adv-x="533" 
d="M144 88l-50 49l213 213l-144 15l-41 41v13l313 28l18 -18l-27 -314h-14l-40 41l-15 144z" />
    <glyph glyph-name="uni2198" unicode="&#x2198;" horiz-adv-x="533" 
d="M94 397l50 50l213 -212l15 143l40 41h14l27 -314l-18 -17l-313 27v14l41 40l144 14z" />
    <glyph glyph-name="uni2199" unicode="&#x2199;" horiz-adv-x="533" 
d="M426 129v-14l-314 -27l-18 17l27 314h14l41 -41l14 -144l214 213l49 -50l-213 -214l144 -14z" />
    <glyph glyph-name="minus" unicode="&#x2212;" 
d="M97 290v70h397v-70h-397z" />
    <glyph glyph-name="approxequal" unicode="&#x2248;" 
d="M97 355v78q47 51 99 51q34 0 99 -28.5t100 -28.5q53 0 99 53v-78q-44 -52 -98 -52q-34 0 -98.5 28.5t-99.5 28.5q-52 0 -101 -52zM396 164q-34 0 -98.5 28.5t-99.5 28.5q-53 0 -101 -51v77q46 52 99 52q34 0 99 -28.5t100 -28.5q54 0 99 52v-77q-44 -53 -98 -53z" />
    <glyph glyph-name="notequal" unicode="&#x2260;" 
d="M97 381v71h229l71 120l60 -35l-50 -85h87v-71h-129l-66 -112h195v-71h-237l-71 -120l-60 35l50 85h-79v71h121l66 112h-187z" />
    <glyph glyph-name="lessequal" unicode="&#x2264;" 
d="M504 588v-76l-314 -119l314 -120v-76l-417 158v75zM87 75v70h417v-70h-417z" />
    <glyph glyph-name="greaterequal" unicode="&#x2265;" 
d="M87 512v76l417 -158v-75l-417 -158v76l315 120zM87 75v70h417v-70h-417z" />
    <glyph glyph-name="commaaccent" unicode="&#xf6c3;" horiz-adv-x="224" 
d="M53 -257l-16 16q39 52 39 127q0 18 -3 34t-5 23l-3 7l5 6q28 0 53 -3t37 -7l11 -3q6 -12 6 -35q0 -32 -13 -60.5t-31 -47t-36 -32t-31 -19.5z" />
    <glyph glyph-name="zerooldstyle" unicode="&#xf730;" horiz-adv-x="670" 
d="M39 239q0 112 81.5 181t214.5 69t214.5 -69t81.5 -181t-81.5 -181t-214.5 -69t-214.5 69t-81.5 181zM219 239q0 -94 31.5 -143t84.5 -49t84.5 49t31.5 143t-31.5 143t-84.5 49t-84.5 -49t-31.5 -143z" />
    <glyph glyph-name="oneoldstyle" unicode="&#xf731;" horiz-adv-x="480" 
d="M206 0v342q-77 -38 -161 -38q-10 18 -10 65l10 9q61 0 126 25t99 50l35 25h73v-478h-172z" />
    <glyph glyph-name="twooldstyle" unicode="&#xf732;" horiz-adv-x="568" 
d="M533 359q0 -40 -29 -80.5t-67.5 -69t-84.5 -54t-71 -36.5t-36 -15h115q50 0 91 9t57 17l17 9l13 -13v-126h-511v70q13 6 34.5 17.5t77 46t98 68.5t77 80t34.5 86q0 28 -17.5 45.5t-49.5 17.5q-35 0 -54 -24t-19 -69q0 -20 3 -35t7 -21l3 -5l-13 -13q-45 0 -85 3t-58 7
l-18 3q-12 16 -12 53q0 73 62.5 116t191.5 43q112 0 178 -34t66 -96z" />
    <glyph glyph-name="threeoldstyle" unicode="&#xf733;" horiz-adv-x="631" 
d="M299 -203q54 0 81.5 42t27.5 112q0 148 -116 148h-44l-8 9v70h34q60 0 86 31.5t26 100.5q0 121 -84 121q-42 0 -67.5 -28.5t-25.5 -84.5q0 -20 3.5 -37t6.5 -23l3 -7l-14 -13q-44 0 -84.5 3t-58.5 7l-18 3q-12 19 -12 57q0 82 70.5 131.5t201.5 49.5q127 0 195 -48
t68 -138q0 -124 -132 -163q78 -15 118.5 -66t40.5 -122q0 -100 -78.5 -156.5t-217.5 -56.5q-134 0 -203.5 51t-69.5 135q0 19 3 34t7 21l3 5q61 13 161 13l14 -13q-14 -21 -14 -71q0 -59 26 -88t71 -29z" />
    <glyph glyph-name="fouroldstyle" unicode="&#xf734;" horiz-adv-x="612" 
d="M20 0v35l398 443h86v-407h81v-71h-81v-250h-172v250h-312zM148 71h184v202z" />
    <glyph glyph-name="fiveoldstyle" unicode="&#xf735;" horiz-adv-x="608" 
d="M287 -203q50 0 77.5 46t27.5 122q0 90 -38 129.5t-118 39.5q-41 0 -80 -8.5t-58 -17.5l-18 -8l-13 14l44 354h222q50 0 91 9t58 17l16 9l13 -14v-159h-338l-18 -147q70 36 158 36q126 0 197 -69t71 -177q0 -109 -75 -171.5t-217 -62.5q-127 0 -194.5 49.5t-67.5 129.5
q0 18 3.5 32.5t6.5 19.5l3 6q61 14 161 14l14 -14q-14 -19 -14 -69q0 -54 23.5 -82t62.5 -28z" />
    <glyph glyph-name="sixoldstyle" unicode="&#xf736;" horiz-adv-x="662" 
d="M344 653q-59 0 -87 -67.5t-29 -217.5q50 48 146 48q108 0 178.5 -57.5t70.5 -150.5q0 -99 -80.5 -159t-199.5 -60q-147 0 -225.5 97t-78.5 269q0 77 17 139.5t53 112t98 77t147 27.5q108 0 176 -42t68 -114q0 -15 -3 -28.5t-6 -19.5l-3 -6q-61 -13 -160 -13l-14 13
q13 22 13 61q0 46 -23 68.5t-58 22.5zM327 358q-59 0 -98 -73q11 -238 108 -238q43 0 70 41.5t27 113.5q0 76 -30 116t-77 40z" />
    <glyph glyph-name="sevenoldstyle" unicode="&#xf737;" horiz-adv-x="569" 
d="M328 -250h-172q0 73 15 145t39.5 129t53.5 108.5t58 88.5t53.5 64.5t39.5 40.5l15 14h-221q-50 0 -91 -9t-58 -17l-16 -9l-14 14v159h510v-74l-1 -1q-10 -15 -26.5 -40t-51.5 -94.5t-62.5 -141.5t-49 -175.5t-21.5 -201.5z" />
    <glyph glyph-name="eightoldstyle" unicode="&#xf738;" horiz-adv-x="634" 
d="M567 537q0 -104 -116 -165q68 -39 106.5 -84t38.5 -110q0 -83 -68.5 -136t-209.5 -53q-143 0 -213.5 53t-70.5 133q0 108 130 172q-107 68 -107 173q0 87 66.5 139t192.5 52q125 0 188 -49.5t63 -124.5zM430 142q0 26 -12 48t-38.5 40.5t-49.5 31t-63 31.5q-10 5 -15 7
q-54 -47 -54 -118q0 -58 34.5 -96.5t91.5 -38.5q50 0 78 27.5t28 67.5zM305 653q-39 0 -61 -21.5t-22 -57.5q0 -50 36.5 -84.5t106.5 -71.5q47 51 47 118q0 54 -30 85.5t-77 31.5z" />
    <glyph glyph-name="nineoldstyle" unicode="&#xf739;" horiz-adv-x="652" 
d="M304 -203q120 0 120 319q-49 -49 -145 -49q-101 0 -170.5 54t-69.5 149q0 100 78.5 159.5t193.5 59.5q147 0 224.5 -101t77.5 -272q0 -168 -77 -272.5t-235 -104.5q-108 0 -184.5 46.5t-76.5 125.5q0 16 3 29.5t6 19.5l3 5q61 13 161 13l14 -13q-13 -21 -13 -61
q0 -53 26.5 -80t63.5 -27zM329 126q55 0 93 60q-10 245 -104 245q-40 0 -65 -40.5t-25 -113.5q0 -75 27.5 -113t73.5 -38z" />
    <glyph glyph-name="A.smcp" horiz-adv-x="560" 
d="M139 115l-44 -115h-78l175 437l-27 41v12h178l201 -490h-167l-48 115h-190zM232 353l-69 -178h142z" />
    <glyph glyph-name="Aacute.smcp" horiz-adv-x="560" 
d="M139 115l-44 -115h-78l175 437l-27 41v12h178l201 -490h-167l-48 115h-190zM206 531l-10 10l74 180q42 0 76 -6.5t47 -12.5l13 -7v-9l-151 -155h-49zM232 353l-69 -178h142z" />
    <glyph glyph-name="Abreve.smcp" horiz-adv-x="560" 
d="M139 115l-44 -115h-78l175 437l-27 41v12h178l201 -490h-167l-48 115h-190zM110 647l25 25q6 -6 17.5 -15t47 -24t71.5 -15q37 0 71 13.5t50 26.5l16 14l25 -25l-5 -12.5t-16.5 -27.5t-30 -35t-46.5 -27.5t-64 -12.5q-35 0 -64 12t-46.5 29t-29.5 33.5t-17 28.5zM232 353
l-69 -178h142z" />
    <glyph glyph-name="Acircumflex.smcp" horiz-adv-x="560" 
d="M139 115l-44 -115h-78l175 437l-27 41v12h178l201 -490h-167l-48 115h-190zM440 541l-9 -10h-58l-101 80l-101 -80h-58l-9 10l147 180h42zM232 353l-69 -178h142z" />
    <glyph glyph-name="Agrave.smcp" horiz-adv-x="560" 
d="M139 115l-44 -115h-78l175 437l-27 41v12h178l201 -490h-167l-48 115h-190zM346 541l-9 -10h-50l-151 155v9q42 26 136 26zM232 353l-69 -178h142z" />
    <glyph glyph-name="Adieresis.smcp" horiz-adv-x="560" 
d="M139 115l-44 -115h-78l175 437l-27 41v12h178l201 -490h-167l-48 115h-190zM90 607q0 32 20.5 51.5t53.5 19.5q32 0 51.5 -19.5t19.5 -51.5q0 -33 -19.5 -53t-51.5 -20q-33 0 -53.5 20t-20.5 53zM310 607q0 32 20 51.5t53 19.5q32 0 51.5 -19.5t19.5 -51.5
q0 -33 -19.5 -53t-51.5 -20q-33 0 -53 20t-20 53zM232 353l-69 -178h142z" />
    <glyph glyph-name="Amacron.smcp" horiz-adv-x="560" 
d="M139 115l-44 -115h-78l175 437l-27 41v12h178l201 -490h-167l-48 115h-190zM131 561v71h283v-71h-283zM232 353l-69 -178h142z" />
    <glyph glyph-name="Aogonek.smcp" horiz-adv-x="560" 
d="M139 115l-44 -115h-78l175 437l-27 41v12h178l201 -490h-44q-36 -42 -36 -92q0 -46 43 -46q8 0 14.5 1.5t9.5 2.5l3 2l25 -25q-2 -4 -7.5 -11t-26 -18t-45.5 -11q-40 0 -69.5 24.5t-29.5 68.5q0 22 7.5 41t19.5 32t21 20t17 11h-69l-48 115h-190zM232 353l-69 -178h142z
" />
    <glyph glyph-name="Aring.smcp" horiz-adv-x="560" 
d="M139 115l-44 -115h-78l175 437l-27 41v12h178l201 -490h-167l-48 115h-190zM176 621q0 43 26.5 69.5t69.5 26.5t69.5 -26.5t26.5 -69.5t-26.5 -69.5t-69.5 -26.5t-69.5 26.5t-26.5 69.5zM232 353l-69 -178h142zM239 621q0 -16 9 -25t24 -9t24 9t9 25q0 15 -9 24.5
t-24 9.5t-24 -9.5t-9 -24.5z" />
    <glyph glyph-name="Atilde.smcp" horiz-adv-x="560" 
d="M139 115l-44 -115h-78l175 437l-27 41v12h178l201 -490h-167l-48 115h-190zM228 657q26 0 55.5 -18.5t50.5 -18.5t40.5 10t29.5 20l9 10l25 -25q-2 -4 -5 -11t-14 -24t-24 -30t-34.5 -24t-45.5 -11q-26 0 -55.5 18t-51.5 18q-20 0 -39.5 -9.5t-28.5 -19.5l-10 -10l-25 25
q2 4 5 11t14 24t24 30t34.5 24t45.5 11zM232 353l-69 -178h142z" />
    <glyph glyph-name="AE.smcp" horiz-adv-x="659" 
d="M17 0l223 490h377v-80l-12 -12q-41 31 -124 31h-63v-146h142l8 -7v-54h-150v-161h71q37 0 67.5 7.5t43.5 15.5l12 8l12 -11v-81h-369v134h-101l-59 -134h-78zM180 194h75v168z" />
    <glyph glyph-name="AEacute.smcp" horiz-adv-x="659" 
d="M17 0l223 490h377v-80l-12 -12q-41 31 -124 31h-63v-146h142l8 -7v-54h-150v-161h71q37 0 67.5 7.5t43.5 15.5l12 8l12 -11v-81h-369v134h-101l-59 -134h-78zM255 531l-9 10l74 180q42 0 75.5 -6.5t46.5 -12.5l13 -7v-9l-150 -155h-50zM180 194h75v168z" />
    <glyph glyph-name="B.smcp" horiz-adv-x="530" 
d="M49 0v490h214q217 0 217 -123q0 -82 -99 -109q124 -25 124 -124q0 -134 -230 -134h-226zM334 143q0 82 -83 82h-39v-164h39q83 0 83 82zM314 358q0 71 -76 71h-26v-143h26q76 0 76 72z" />
    <glyph glyph-name="C.smcp" horiz-adv-x="553" 
d="M311 449q-44 0 -71 -48t-27 -138q0 -98 34.5 -139.5t107.5 -41.5q40 0 77.5 11t55.5 23l17 11l22 -23q-2 -5 -6.5 -12.5t-23 -27t-41 -34.5t-62.5 -27t-87 -12q-124 0 -200 70.5t-76 184.5q0 113 77 183t204 70q99 0 158.5 -41t59.5 -104q0 -15 -3.5 -27.5t-6.5 -16.5
l-4 -5q-55 -11 -146 -11l-12 11q12 18 12 61q0 83 -59 83z" />
    <glyph glyph-name="Cacute.smcp" horiz-adv-x="553" 
d="M311 449q-44 0 -71 -48t-27 -138q0 -98 34.5 -139.5t107.5 -41.5q40 0 77.5 11t55.5 23l17 11l22 -23q-2 -5 -6.5 -12.5t-23 -27t-41 -34.5t-62.5 -27t-87 -12q-124 0 -200 70.5t-76 184.5q0 113 77 183t204 70q99 0 158.5 -41t59.5 -104q0 -15 -3.5 -27.5t-6.5 -16.5
l-4 -5q-55 -11 -146 -11l-12 11q12 18 12 61q0 83 -59 83zM232 531l-9 10l74 180q42 0 76 -6.5t47 -12.5l13 -7v-9l-151 -155h-50z" />
    <glyph glyph-name="Ccaron.smcp" horiz-adv-x="553" 
d="M311 449q-44 0 -71 -48t-27 -138q0 -98 34.5 -139.5t107.5 -41.5q40 0 77.5 11t55.5 23l17 11l22 -23q-2 -5 -6.5 -12.5t-23 -27t-41 -34.5t-62.5 -27t-87 -12q-124 0 -200 70.5t-76 184.5q0 113 77 183t204 70q99 0 158.5 -41t59.5 -104q0 -15 -3.5 -27.5t-6.5 -16.5
l-4 -5q-55 -11 -146 -11l-12 11q12 18 12 61q0 83 -59 83zM458 718l9 -10l-147 -180h-42l-148 180l10 10h57l102 -80l101 80h58z" />
    <glyph glyph-name="Ccedilla.smcp" horiz-adv-x="553" 
d="M265 -76l11 68q-111 9 -178 78.5t-67 175.5q0 113 77 183t204 70q99 0 158.5 -41t59.5 -104q0 -15 -3.5 -27.5t-6.5 -16.5l-4 -5q-55 -11 -146 -11l-12 11q12 18 12 61q0 83 -59 83q-44 0 -71 -48t-27 -138q0 -98 34.5 -139.5t107.5 -41.5q40 0 77.5 11t55.5 23l17 11
l22 -23q-2 -4 -6 -11t-21 -25.5t-37.5 -33t-57 -27.5t-78.5 -15l-6 -38q31 0 54 -20.5t23 -53.5q0 -34 -25.5 -56.5t-66.5 -22.5q-29 0 -51.5 11t-30.5 22l-9 11l21 21q14 -16 40 -16q39 0 39 33q0 32 -41 32z" />
    <glyph glyph-name="Ccircumflex.smcp" horiz-adv-x="553" 
d="M311 449q-44 0 -71 -48t-27 -138q0 -98 34.5 -139.5t107.5 -41.5q40 0 77.5 11t55.5 23l17 11l22 -23q-2 -5 -6.5 -12.5t-23 -27t-41 -34.5t-62.5 -27t-87 -12q-124 0 -200 70.5t-76 184.5q0 113 77 183t204 70q99 0 158.5 -41t59.5 -104q0 -15 -3.5 -27.5t-6.5 -16.5
l-4 -5q-55 -11 -146 -11l-12 11q12 18 12 61q0 83 -59 83zM467 541l-9 -10h-58l-101 80l-102 -80h-57l-10 10l148 180h42z" />
    <glyph glyph-name="Cdotaccent.smcp" horiz-adv-x="553" 
d="M311 449q-44 0 -71 -48t-27 -138q0 -98 34.5 -139.5t107.5 -41.5q40 0 77.5 11t55.5 23l17 11l22 -23q-2 -5 -6.5 -12.5t-23 -27t-41 -34.5t-62.5 -27t-87 -12q-124 0 -200 70.5t-76 184.5q0 113 77 183t204 70q99 0 158.5 -41t59.5 -104q0 -15 -3.5 -27.5t-6.5 -16.5
l-4 -5q-55 -11 -146 -11l-12 11q12 18 12 61q0 83 -59 83zM218 612q0 36 22.5 58.5t58.5 22.5t58.5 -22.5t22.5 -58.5q0 -37 -22.5 -59t-58.5 -22t-58.5 22t-22.5 59z" />
    <glyph glyph-name="D.smcp" horiz-adv-x="595" 
d="M49 0v490h236q125 0 202 -67.5t77 -177.5t-77 -177.5t-202 -67.5h-236zM277 429h-65v-368h65q105 0 105 184t-105 184z" />
    <glyph glyph-name="Dcaron.smcp" horiz-adv-x="595" 
d="M49 0v490h236q125 0 202 -67.5t77 -177.5t-77 -177.5t-202 -67.5h-236zM277 429h-65v-368h65q105 0 105 184t-105 184zM448 718l9 -10l-147 -180h-42l-147 180l9 10h58l101 -80l101 80h58z" />
    <glyph glyph-name="Dcroat.smcp" horiz-adv-x="594" 
d="M12 218v61h37v211h236q124 0 201 -67.5t77 -177.5t-77 -177.5t-201 -67.5h-236v218h-37zM277 429h-65v-150h84v-61h-84v-157h65q49 0 76.5 45.5t27.5 138.5t-27.5 138.5t-76.5 45.5z" />
    <glyph glyph-name="Eth.smcp" horiz-adv-x="594" 
d="M12 218v61h37v211h236q124 0 201 -67.5t77 -177.5t-77 -177.5t-201 -67.5h-236v218h-37zM277 429h-65v-150h84v-61h-84v-157h65q49 0 76.5 45.5t27.5 138.5t-27.5 138.5t-76.5 45.5z" />
    <glyph glyph-name="Thorn.smcp" horiz-adv-x="519" 
d="M49 0v490h163v-90h51q107 0 168 -39t61 -109t-61 -109t-168 -39h-51v-104h-163zM238 339h-26v-174h26q84 0 84 87t-84 87z" />
    <glyph glyph-name="E.smcp" horiz-adv-x="462" 
d="M49 0v490h370v-80l-12 -12q-42 31 -123 31h-72v-146h150l7 -7v-54h-157v-161h79q36 0 67 7.5t44 15.5l13 8l11 -11v-81h-377z" />
    <glyph glyph-name="Eacute.smcp" horiz-adv-x="462" 
d="M49 0v490h370v-80l-12 -12q-42 31 -123 31h-72v-146h150l7 -7v-54h-157v-161h79q36 0 67 7.5t44 15.5l13 8l11 -11v-81h-377zM164 531l-9 10l74 180q42 0 76 -6.5t47 -12.5l13 -7v-9l-151 -155h-50z" />
    <glyph glyph-name="Ebreve.smcp" horiz-adv-x="462" 
d="M49 0v490h370v-80l-12 -12q-42 31 -123 31h-72v-146h150l7 -7v-54h-157v-161h79q36 0 67 7.5t44 15.5l13 8l11 -11v-81h-377zM76 647l25 25q6 -6 17.5 -15t47 -24t72.5 -15q36 0 70 13.5t50 26.5l16 14l25 -25l-5 -12.5t-16.5 -27.5t-30 -35t-46 -27.5t-63.5 -12.5
q-35 0 -64.5 12t-46.5 29t-29.5 33.5t-17.5 28.5z" />
    <glyph glyph-name="Ecaron.smcp" horiz-adv-x="462" 
d="M49 0v490h370v-80l-12 -12q-42 31 -123 31h-72v-146h150l7 -7v-54h-157v-161h79q36 0 67 7.5t44 15.5l13 8l11 -11v-81h-377zM397 717l9 -9l-147 -180h-42l-148 180l9 9h58l102 -80l101 80h58z" />
    <glyph glyph-name="Ecircumflex.smcp" horiz-adv-x="462" 
d="M49 0v490h370v-80l-12 -12q-42 31 -123 31h-72v-146h150l7 -7v-54h-157v-161h79q36 0 67 7.5t44 15.5l13 8l11 -11v-81h-377zM406 541l-9 -10h-58l-101 80l-102 -80h-58l-9 10l148 180h42z" />
    <glyph glyph-name="Edieresis.smcp" horiz-adv-x="462" 
d="M49 0v490h370v-80l-12 -12q-42 31 -123 31h-72v-146h150l7 -7v-54h-157v-161h79q36 0 67 7.5t44 15.5l13 8l11 -11v-81h-377zM55 608q0 32 20 51.5t53 19.5t52.5 -19.5t19.5 -51.5q0 -34 -19.5 -54t-52.5 -20t-53 20t-20 54zM274 608q0 32 20.5 51.5t53.5 19.5
q32 0 51.5 -19.5t19.5 -51.5q0 -34 -19.5 -54t-51.5 -20q-33 0 -53.5 20t-20.5 54z" />
    <glyph glyph-name="Edotaccent.smcp" horiz-adv-x="462" 
d="M49 0v490h370v-80l-12 -12q-42 31 -123 31h-72v-146h150l7 -7v-54h-157v-161h79q36 0 67 7.5t44 15.5l13 8l11 -11v-81h-377zM157 612q0 36 22 58.5t59 22.5q36 0 58.5 -22.5t22.5 -58.5q0 -37 -22.5 -59t-58.5 -22q-37 0 -59 22t-22 59z" />
    <glyph glyph-name="Egrave.smcp" horiz-adv-x="462" 
d="M49 0v490h370v-80l-12 -12q-42 31 -123 31h-72v-146h150l7 -7v-54h-157v-161h79q36 0 67 7.5t44 15.5l13 8l11 -11v-81h-377zM320 541l-10 -10h-49l-151 155v9q42 26 136 26z" />
    <glyph glyph-name="Emacron.smcp" horiz-adv-x="462" 
d="M49 0v490h370v-80l-12 -12q-42 31 -123 31h-72v-146h150l7 -7v-54h-157v-161h79q36 0 67 7.5t44 15.5l13 8l11 -11v-81h-377zM96 561v71h283v-71h-283z" />
    <glyph glyph-name="Eogonek.smcp" horiz-adv-x="462" 
d="M49 0v490h370v-80l-12 -12q-42 31 -123 31h-72v-146h150l7 -7v-54h-157v-161h79q36 0 67 7.5t44 15.5l13 8l11 -11v-81h-43q-36 -42 -36 -93q0 -45 43 -45q8 0 14.5 1.5t9.5 2.5l3 2l25 -25q-2 -4 -7.5 -11t-26 -18t-45.5 -11q-40 0 -69.5 24t-29.5 69q0 22 7.5 41
t19.5 32t21 20t17 11h-280z" />
    <glyph glyph-name="F.smcp" horiz-adv-x="443" 
d="M49 0v490h366v-80l-11 -12q-42 31 -124 31h-68v-146h153l7 -7v-54h-160v-222h-163z" />
    <glyph glyph-name="G.smcp" horiz-adv-x="552" 
d="M325 188v54h39q44 0 82 3t54 5l16 3l11 -11v-170q-2 -3 -7 -8.5t-23.5 -19.5t-40.5 -24.5t-60 -19.5t-81 -9q-131 0 -207.5 70t-76.5 185q0 114 76.5 183.5t209.5 69.5q96 0 153 -36.5t57 -98.5q0 -15 -3 -27t-6 -17l-3 -4q-56 -11 -147 -11l-12 11q13 16 13 60
q0 73 -56 73q-46 0 -73 -47t-27 -139q0 -196 133 -196q18 0 34 3v45q0 37 -8 66h-39z" />
    <glyph glyph-name="Gbreve.smcp" horiz-adv-x="552" 
d="M325 188v54h39q44 0 82 3t54 5l16 3l11 -11v-170q-2 -3 -7 -8.5t-23.5 -19.5t-40.5 -24.5t-60 -19.5t-81 -9q-131 0 -207.5 70t-76.5 185q0 114 76.5 183.5t209.5 69.5q96 0 153 -36.5t57 -98.5q0 -15 -3 -27t-6 -17l-3 -4q-56 -11 -147 -11l-12 11q13 16 13 60
q0 73 -56 73q-46 0 -73 -47t-27 -139q0 -196 133 -196q18 0 34 3v45q0 37 -8 66h-39zM137 647l26 25q6 -6 17 -15t46.5 -24t72.5 -15q36 0 70 13.5t50 26.5l16 14l25 -25l-5 -12.5t-16.5 -27.5t-30 -35t-46 -27.5t-63.5 -12.5q-35 0 -64.5 12t-46.5 29t-29.5 33.5
t-16.5 28.5z" />
    <glyph glyph-name="Gcircumflex.smcp" horiz-adv-x="552" 
d="M325 188v54h39q44 0 82 3t54 5l16 3l11 -11v-170q-2 -3 -7 -8.5t-23.5 -19.5t-40.5 -24.5t-60 -19.5t-81 -9q-131 0 -207.5 70t-76.5 185q0 114 76.5 183.5t209.5 69.5q96 0 153 -36.5t57 -98.5q0 -15 -3 -27t-6 -17l-3 -4q-56 -11 -147 -11l-12 11q13 16 13 60
q0 73 -56 73q-46 0 -73 -47t-27 -139q0 -196 133 -196q18 0 34 3v45q0 37 -8 66h-39zM467 541l-9 -10h-58l-101 80l-102 -80h-57l-10 10l148 180h42z" />
    <glyph glyph-name="Gcommaaccent.smcp" horiz-adv-x="552" 
d="M325 188v54h39q44 0 82 3t54 5l16 3l11 -11v-170q-2 -3 -7 -8.5t-23.5 -19.5t-40.5 -24.5t-60 -19.5t-81 -9q-131 0 -207.5 70t-76.5 185q0 114 76.5 183.5t209.5 69.5q96 0 153 -36.5t57 -98.5q0 -15 -3 -27t-6 -17l-3 -4q-56 -11 -147 -11l-12 11q13 16 13 60
q0 73 -56 73q-46 0 -73 -47t-27 -139q0 -196 133 -196q18 0 34 3v45q0 37 -8 66h-39zM245 -235l-16 15q39 52 39 127q0 18 -3 34t-6 23l-3 7l6 6q27 0 52.5 -3.5t37.5 -6.5l11 -3q5 -12 5 -35q0 -50 -31 -91t-61 -57z" />
    <glyph glyph-name="Gdotaccent.smcp" horiz-adv-x="552" 
d="M325 188v54h39q44 0 82 3t54 5l16 3l11 -11v-170q-2 -3 -7 -8.5t-23.5 -19.5t-40.5 -24.5t-60 -19.5t-81 -9q-131 0 -207.5 70t-76.5 185q0 114 76.5 183.5t209.5 69.5q96 0 153 -36.5t57 -98.5q0 -15 -3 -27t-6 -17l-3 -4q-56 -11 -147 -11l-12 11q13 16 13 60
q0 73 -56 73q-46 0 -73 -47t-27 -139q0 -196 133 -196q18 0 34 3v45q0 37 -8 66h-39zM218 612q0 36 22.5 58.5t58.5 22.5t58.5 -22.5t22.5 -58.5q0 -37 -22.5 -59t-58.5 -22t-58.5 22t-22.5 59z" />
    <glyph glyph-name="H.smcp" horiz-adv-x="596" 
d="M384 0v222h-172v-222h-163v490h163v-207h172v207h163v-490h-163z" />
    <glyph glyph-name="Hbar.smcp" horiz-adv-x="596" 
d="M384 0v222h-172v-222h-163v347h-37v61h37v82h163v-82h172v82h163v-82h36v-61h-36v-347h-163zM212 347v-64h172v64h-172z" />
    <glyph glyph-name="Hcircumflex.smcp" horiz-adv-x="596" 
d="M384 0v222h-172v-222h-163v490h163v-207h172v207h163v-490h-163zM467 541l-9 -10h-58l-102 80l-101 -80h-58l-9 10l147 180h43z" />
    <glyph glyph-name="I.smcp" horiz-adv-x="261" 
d="M49 0v490h163v-490h-163z" />
    <glyph glyph-name="Iacute.smcp" horiz-adv-x="261" 
d="M49 0v490h163v-490h-163zM65 531l-10 10l74 180q42 0 76 -6.5t47 -12.5l13 -7v-9l-151 -155h-49z" />
    <glyph glyph-name="Ibreve.smcp" horiz-adv-x="261" 
d="M49 0v490h163v-490h-163zM-31 647l26 25q6 -6 17 -15t46.5 -24t72.5 -15t71 13.5t50 26.5l15 14l26 -25l-5 -12.5t-16.5 -27.5t-30 -35t-46.5 -27.5t-64 -12.5q-35 0 -64.5 12t-46.5 29t-29.5 33.5t-16.5 28.5z" />
    <glyph glyph-name="Icircumflex.smcp" horiz-adv-x="261" 
d="M49 0v490h163v-490h-163zM299 541l-9 -10h-58l-102 80l-101 -80h-58l-9 10l147 180h42z" />
    <glyph glyph-name="Idieresis.smcp" horiz-adv-x="261" 
d="M49 0v490h163v-490h-163zM-51 607q0 32 20 51.5t53 19.5q32 0 52 -19.5t20 -51.5q0 -33 -20 -53t-52 -20q-33 0 -53 20t-20 53zM168 607q0 32 20 51.5t53 19.5t52.5 -19.5t19.5 -51.5q0 -33 -19.5 -53t-52.5 -20t-53 20t-20 53z" />
    <glyph glyph-name="Idotaccent.smcp" horiz-adv-x="261" 
d="M49 0v490h163v-490h-163zM35 633q0 43 26.5 70t70.5 27q43 0 69.5 -26.5t26.5 -70.5q0 -43 -26 -69.5t-70 -26.5t-70.5 26.5t-26.5 69.5z" />
    <glyph glyph-name="Igrave.smcp" horiz-adv-x="261" 
d="M49 0v490h163v-490h-163zM206 541l-9 -10h-50l-151 155v9q42 26 136 26z" />
    <glyph glyph-name="Imacron.smcp" horiz-adv-x="261" 
d="M49 0v490h163v-490h-163zM-11 561v71h283v-71h-283z" />
    <glyph glyph-name="Iogonek.smcp" horiz-adv-x="261" 
d="M49 0v490h163v-490h-44q-36 -42 -36 -93q0 -45 43 -45q8 0 14.5 1.5t9.5 2.5l3 2l25 -25q-2 -4 -7.5 -11t-26 -18t-45.5 -11q-40 0 -69.5 24t-29.5 69q0 22 7.5 41t19.5 32t21 20t17 11h-65z" />
    <glyph glyph-name="Itilde.smcp" horiz-adv-x="261" 
d="M49 0v490h163v-490h-163zM88 657q26 0 55.5 -18.5t50.5 -18.5t40.5 10t28.5 20l9 10l26 -25q-2 -4 -5 -11t-14 -24t-24 -30t-34.5 -24t-45.5 -11q-26 0 -55.5 18t-51.5 18q-21 0 -40.5 -9.5t-28.5 -19.5l-9 -10l-25 25q2 4 5 11t14 24t24 30t34.5 24t45.5 11z" />
    <glyph glyph-name="IJ.smcp" horiz-adv-x="504" 
d="M49 228v262h163v-262h-163zM244 41q47 0 47 104v345h163v-339q0 -72 -56.5 -116t-160.5 -44q-88 0 -142 31t-54 80q0 12 3.5 24t7.5 18l3 5q53 11 144 11l15 -11q-13 -22 -13 -54q0 -27 12 -40.5t31 -13.5z" />
    <glyph glyph-name="J.smcp" horiz-adv-x="401" 
d="M189 149v341h162v-336q0 -163 -197 -163q-46 0 -81.5 8.5t-48.5 16.5l-12 9q0 26 7 51.5t17 43t20.5 31.5t17.5 21l7 6h11q1 -6 3 -15t8 -32.5t13.5 -41.5t19 -33t24.5 -15q29 0 29 108z" />
    <glyph glyph-name="Jcircumflex.smcp" horiz-adv-x="401" 
d="M189 149v341h162v-336q0 -163 -197 -163q-46 0 -81.5 8.5t-48.5 16.5l-12 9q0 26 7 51.5t17 43t20.5 31.5t17.5 21l7 6h11q1 -6 3 -15t8 -32.5t13.5 -41.5t19 -33t24.5 -15q29 0 29 108zM442 539l-9 -9h-58l-101 80l-101 -80h-58l-10 9l148 180h42z" />
    <glyph glyph-name="K.smcp" horiz-adv-x="552" 
d="M49 0v490h163v-200h15l168 200h93l-147 -172l100 -180q21 -35 45.5 -66.5t39.5 -45.5l14 -14v-12h-196l-131 229h-1v-229h-163z" />
    <glyph glyph-name="Kcommaaccent.smcp" horiz-adv-x="552" 
d="M49 0v490h163v-200h15l168 200h93l-147 -172l100 -180q21 -35 45.5 -66.5t39.5 -45.5l14 -14v-12h-196l-131 229h-1v-229h-163zM221 -235l-16 15q40 52 40 127q0 18 -3 34t-6 23l-3 7l6 6q27 0 52.5 -3.5t36.5 -6.5l12 -3q5 -12 5 -35q0 -32 -13 -60.5t-31 -46.5
t-36 -31.5t-31 -19.5z" />
    <glyph glyph-name="L.smcp" horiz-adv-x="427" 
d="M49 0v490h163v-429h56q37 0 68 7.5t44 15.5l12 8l11 -11v-81h-354z" />
    <glyph glyph-name="Lacute.smcp" horiz-adv-x="427" 
d="M49 0v490h163v-429h56q37 0 68 7.5t44 15.5l12 8l11 -11v-81h-354zM58 531l-9 10l74 180q42 0 76 -6.5t47 -12.5l13 -7v-9l-151 -155h-50z" />
    <glyph glyph-name="Lcaron.smcp" horiz-adv-x="427" 
d="M49 0v490h163v-429h56q37 0 68 7.5t44 15.5l12 8l11 -11v-81h-354zM270 289l-16 16q39 52 39 126q0 19 -2.5 35t-5.5 23l-3 7l5 6q28 0 53 -3.5t36 -6.5l12 -4q6 -11 6 -35q0 -32 -13 -60.5t-31 -46.5t-36 -31.5t-31 -19.5z" />
    <glyph glyph-name="Lcommaaccent.smcp" horiz-adv-x="427" 
d="M49 0v490h163v-429h56q37 0 68 7.5t44 15.5l12 8l11 -11v-81h-354zM158 -235l-16 15q39 52 39 127q0 18 -2.5 34t-5.5 23l-3 7l5 6q28 0 53 -3.5t36 -6.5l12 -3q6 -12 6 -35q0 -32 -13 -60.5t-31 -46.5t-36 -31.5t-31 -19.5z" />
    <glyph glyph-name="Ldot.smcp" horiz-adv-x="427" 
d="M49 0v490h163v-429h56q37 0 68 7.5t44 15.5l12 8l11 -11v-81h-354zM264 247q0 33 20 52.5t53 19.5q32 0 52 -19.5t20 -52.5q0 -32 -20 -52t-52 -20t-52.5 20t-20.5 52z" />
    <glyph glyph-name="Lslash.smcp" horiz-adv-x="447" 
d="M32 162l-23 39l60 35v254h163v-158l44 26l22 -40l-66 -39v-218h56q36 0 67 7.5t43 15.5l13 8l12 -11v-81h-354v183z" />
    <glyph glyph-name="M.smcp" horiz-adv-x="745" 
d="M539 0l-39 364l-4 4l-109 -354h-107l-20 20l-112 334l-3 -4l-30 -364h-75l33 363q2 35 1 60.5t-4 40.5l-3 14l11 12h199l93 -281l88 281h195l54 -490h-168z" />
    <glyph glyph-name="N.smcp" horiz-adv-x="542" 
d="M119 237v-237h-70v294q0 56 -6.5 102t-13.5 64l-7 18l12 12h54l327 -237v237h77v-490h-46z" />
    <glyph glyph-name="Nacute.smcp" horiz-adv-x="542" 
d="M119 237v-237h-70v294q0 56 -6.5 102t-13.5 64l-7 18l12 12h54l327 -237v237h77v-490h-46zM204 531l-9 10l74 180q42 0 76 -6.5t47 -12.5l13 -7v-9l-151 -155h-50z" />
    <glyph glyph-name="Ncaron.smcp" horiz-adv-x="542" 
d="M119 237v-237h-70v294q0 56 -6.5 102t-13.5 64l-7 18l12 12h54l327 -237v237h77v-490h-46zM430 718l9 -10l-147 -180h-42l-148 180l10 10h58l101 -80l101 80h58z" />
    <glyph glyph-name="Ncommaaccent.smcp" horiz-adv-x="542" 
d="M119 237v-237h-70v294q0 56 -6.5 102t-13.5 64l-7 18l12 12h54l327 -237v237h77v-490h-46zM216 -235l-16 15q39 52 39 127q0 18 -2.5 34t-5.5 23l-3 7l5 6q28 0 53 -3.5t36 -6.5l12 -3q6 -12 6 -35q0 -32 -13 -60.5t-31 -46.5t-36 -31.5t-31 -19.5z" />
    <glyph glyph-name="Ntilde.smcp" horiz-adv-x="542" 
d="M119 237v-237h-70v294q0 56 -6.5 102t-13.5 64l-7 18l12 12h54l327 -237v237h77v-490h-46zM227 657q26 0 55.5 -18.5t50.5 -18.5t40.5 10t28.5 20l9 10l26 -25q-2 -4 -5 -11t-14 -24t-24 -30t-34.5 -24t-45.5 -11q-26 0 -55.5 18t-51.5 18q-21 0 -40.5 -9.5t-28.5 -19.5
l-9 -10l-25 25q2 4 5 11t14 24t24 30t34.5 24t45.5 11z" />
    <glyph glyph-name="Eng.smcp" horiz-adv-x="542" 
d="M119 237v-237h-70v294q0 56 -6.5 102t-13.5 64l-7 18l12 12h54l327 -237v237h77v-511q0 -163 -165 -163q-46 0 -81.5 8.5t-47.5 17.5l-13 8q0 26 7 51.5t17.5 43t20.5 31.5t17 20l7 7h10q1 -6 3 -15t8 -32.5t13.5 -41.5t19 -33t24.5 -15q10 0 16 8.5t9.5 32.5t3.5 67v87z
" />
    <glyph glyph-name="O.smcp" horiz-adv-x="618" 
d="M31 245q0 113 77 183.5t201 70.5q125 0 202 -70.5t77 -183.5t-77 -183.5t-202 -70.5q-124 0 -201 70.5t-77 183.5zM213 245q0 -204 96 -204t96 204t-96 204t-96 -204z" />
    <glyph glyph-name="Oacute.smcp" horiz-adv-x="619" 
d="M31 245q0 113 77 183.5t201 70.5q125 0 202 -70.5t77 -183.5t-77 -183.5t-202 -70.5q-124 0 -201 70.5t-77 183.5zM213 245q0 -204 96 -204t96 204t-96 204t-96 -204zM243 531l-9 10l74 180q42 0 76 -6.5t47 -12.5l13 -7v-9l-151 -155h-50z" />
    <glyph glyph-name="Obreve.smcp" horiz-adv-x="619" 
d="M31 245q0 113 77 183.5t201 70.5q125 0 202 -70.5t77 -183.5t-77 -183.5t-202 -70.5q-124 0 -201 70.5t-77 183.5zM213 245q0 -204 96 -204t96 204t-96 204t-96 -204zM147 647l25 25q6 -6 17.5 -15t47 -24t72.5 -15q36 0 70 13.5t50 26.5l16 14l25 -25l-5 -12.5
t-16.5 -27.5t-30 -35t-46 -27.5t-63.5 -12.5q-35 0 -64.5 12t-46.5 29t-29.5 33.5t-16.5 28.5z" />
    <glyph glyph-name="Ocircumflex.smcp" horiz-adv-x="619" 
d="M31 245q0 113 77 183.5t201 70.5q125 0 202 -70.5t77 -183.5t-77 -183.5t-202 -70.5q-124 0 -201 70.5t-77 183.5zM213 245q0 -204 96 -204t96 204t-96 204t-96 -204zM478 541l-9 -10h-58l-101 80l-102 -80h-58l-9 10l148 180h42z" />
    <glyph glyph-name="Odieresis.smcp" horiz-adv-x="619" 
d="M31 245q0 113 77 183.5t201 70.5q125 0 202 -70.5t77 -183.5t-77 -183.5t-202 -70.5q-124 0 -201 70.5t-77 183.5zM213 245q0 -204 96 -204t96 204t-96 204t-96 -204zM127 607q0 32 20 51.5t53 19.5t52.5 -19.5t19.5 -51.5q0 -33 -19.5 -53t-52.5 -20t-53 20t-20 53z
M346 607q0 32 20.5 51.5t53.5 19.5q32 0 51.5 -19.5t19.5 -51.5q0 -33 -19.5 -53t-51.5 -20q-33 0 -53.5 20t-20.5 53z" />
    <glyph glyph-name="Ograve.smcp" horiz-adv-x="619" 
d="M31 245q0 113 77 183.5t201 70.5q125 0 202 -70.5t77 -183.5t-77 -183.5t-202 -70.5q-124 0 -201 70.5t-77 183.5zM213 245q0 -204 96 -204t96 204t-96 204t-96 -204zM384 541l-10 -10h-49l-151 155v9q41 26 136 26z" />
    <glyph glyph-name="Ohungarumlaut.smcp" horiz-adv-x="619" 
d="M31 245q0 113 77 183.5t201 70.5q125 0 202 -70.5t77 -183.5t-77 -183.5t-202 -70.5q-124 0 -201 70.5t-77 183.5zM213 245q0 -204 96 -204t96 204t-96 204t-96 -204zM149 531l-9 10l69 180q42 0 76 -6.5t47 -12.5l13 -7v-9l-147 -155h-49zM332 531l-9 10l88 180
q42 0 74 -6.5t43 -12.5l12 -7v-9l-159 -155h-49z" />
    <glyph glyph-name="Omacron.smcp" horiz-adv-x="619" 
d="M31 245q0 113 77 183.5t201 70.5q125 0 202 -70.5t77 -183.5t-77 -183.5t-202 -70.5q-124 0 -201 70.5t-77 183.5zM213 245q0 -204 96 -204t96 204t-96 204t-96 -204zM168 561v71h282v-71h-282z" />
    <glyph glyph-name="Oslash.smcp" horiz-adv-x="618" 
d="M183 -18h-72l32 52q-112 70 -112 211q0 113 77 183.5t201 70.5q59 0 110 -17l16 26h72l-32 -52q54 -33 83.5 -88t29.5 -123q0 -113 -77 -183.5t-202 -70.5q-59 0 -110 17zM210 245q0 -56 7 -92l158 257q-25 39 -66 39q-46 0 -72.5 -50.5t-26.5 -153.5zM408 245
q0 45 -7 91l-158 -257q25 -38 66 -38q46 0 72.5 50.5t26.5 153.5z" />
    <glyph glyph-name="Oslashacute.smcp" horiz-adv-x="618" 
d="M183 -18h-72l32 52q-112 70 -112 211q0 113 77 183.5t201 70.5q59 0 110 -17l16 26h72l-32 -52q54 -33 83.5 -88t29.5 -123q0 -113 -77 -183.5t-202 -70.5q-59 0 -110 17zM210 245q0 -56 7 -92l158 257q-25 39 -66 39q-46 0 -72.5 -50.5t-26.5 -153.5zM408 245
q0 45 -7 91l-158 -257q25 -38 66 -38q46 0 72.5 50.5t26.5 153.5zM236 531l-9 10l74 180q42 0 75.5 -6.5t46.5 -12.5l13 -7v-9l-150 -155h-50z" />
    <glyph glyph-name="Otilde.smcp" horiz-adv-x="619" 
d="M31 245q0 113 77 183.5t201 70.5q125 0 202 -70.5t77 -183.5t-77 -183.5t-202 -70.5q-124 0 -201 70.5t-77 183.5zM213 245q0 -204 96 -204t96 204t-96 204t-96 -204zM265 657q26 0 55.5 -18.5t51.5 -18.5q21 0 40.5 10t28.5 20l9 10l25 -25q-2 -4 -5 -11t-14 -24
t-24 -30t-34.5 -24t-45.5 -11q-26 0 -55.5 18t-50.5 18t-40.5 -9.5t-28.5 -19.5l-9 -10l-26 25q2 4 5 11t14 24t24 30t34.5 24t45.5 11z" />
    <glyph glyph-name="OE.smcp" horiz-adv-x="791" 
d="M386 0v6q-42 -15 -88 -15q-113 0 -190 71t-77 183t76.5 183t189.5 71q50 0 89 -16v7h363v-80l-12 -12q-42 31 -124 31h-64v-146h142l8 -7v-54h-150v-161h71q37 0 68 7.5t44 15.5l12 8l12 -11v-81h-370zM309 41q51 0 77 64v280q-25 64 -77 64q-96 0 -96 -204t96 -204z" />
    <glyph glyph-name="P.smcp" horiz-adv-x="519" 
d="M49 0v490h215q106 0 167 -39t61 -109q0 -71 -61 -110t-167 -39h-52v-193h-163zM238 429h-26v-174h26q84 0 84 87q0 43 -22 65t-62 22z" />
    <glyph glyph-name="Q.smcp" horiz-adv-x="618" 
d="M309 -11q-125 0 -201.5 70t-76.5 185q0 114 77 184.5t201 70.5q125 0 202 -70.5t77 -184.5q0 -81 -39.5 -141t-109.5 -90q73 -21 106 -21q19 0 32.5 3t17.5 6l4 3l7 -7q0 -38 -5 -71.5t-9 -47.5l-5 -15q-12 -7 -36 -7q-35 0 -69.5 21t-58 45.5t-55 45.5t-59.5 21z
M213 244q0 -206 96 -206t96 206q0 205 -96 205t-96 -205z" />
    <glyph glyph-name="R.smcp" horiz-adv-x="536" 
d="M49 0v490h212q106 0 167 -37t61 -104q0 -84 -95 -120l52 -102q17 -33 37.5 -63t32.5 -44l12 -13l-7 -7h-176l-104 209h-29v-209h-163zM235 429h-23v-160h23q40 0 61.5 20.5t21.5 59.5q0 80 -83 80z" />
    <glyph glyph-name="Racute.smcp" horiz-adv-x="536" 
d="M49 0v490h212q106 0 167 -37t61 -104q0 -84 -95 -120l52 -102q17 -33 37.5 -63t32.5 -44l12 -13l-7 -7h-176l-104 209h-29v-209h-163zM187 531l-10 10l74 180q42 0 76 -6.5t47 -12.5l13 -7v-9l-151 -155h-49zM235 429h-23v-160h23q40 0 61.5 20.5t21.5 59.5q0 80 -83 80z
" />
    <glyph glyph-name="Rcaron.smcp" horiz-adv-x="536" 
d="M49 0v490h212q106 0 167 -37t61 -104q0 -84 -95 -120l52 -102q17 -33 37.5 -63t32.5 -44l12 -13l-7 -7h-176l-104 209h-29v-209h-163zM419 718l9 -10l-147 -180h-42l-147 180l9 10h58l101 -80l101 80h58zM235 429h-23v-160h23q40 0 61.5 20.5t21.5 59.5q0 80 -83 80z" />
    <glyph glyph-name="Rcommaaccent.smcp" horiz-adv-x="536" 
d="M49 0v490h212q106 0 167 -37t61 -104q0 -84 -95 -120l52 -102q17 -33 37.5 -63t32.5 -44l12 -13l-7 -7h-176l-104 209h-29v-209h-163zM217 -235l-16 15q39 52 39 127q0 18 -3 34t-5 23l-3 7l6 6q27 0 52 -3.5t37 -6.5l11 -3q6 -12 6 -35q0 -32 -13 -60.5t-31 -46.5
t-36 -31.5t-31 -19.5zM235 429h-23v-160h23q40 0 61.5 20.5t21.5 59.5q0 80 -83 80z" />
    <glyph glyph-name="S.smcp" horiz-adv-x="485" 
d="M218 449q-40 0 -40 -30q0 -17 20 -35t100 -77q104 -79 131.5 -109t27.5 -71q0 -136 -212 -136q-45 0 -83.5 6t-62.5 14.5t-41.5 16.5t-24.5 14l-7 6q0 40 18 73.5t36 46.5l18 14h15q3 -6 8 -15.5t21 -33.5t32.5 -43t41 -34t47.5 -15t35.5 10t12.5 24q0 19 -26.5 40
t-105.5 71q-78 49 -109.5 84t-31.5 88q0 141 211 141q59 0 105.5 -10.5t63.5 -21.5l18 -11q0 -26 -7.5 -50t-18 -39.5t-21 -27t-17.5 -16.5l-8 -5h-13q-2 5 -6.5 14t-18.5 31.5t-28.5 40t-36.5 31.5t-43 14z" />
    <glyph glyph-name="Sacute.smcp" horiz-adv-x="485" 
d="M218 449q-40 0 -40 -30q0 -17 20 -35t100 -77q104 -79 131.5 -109t27.5 -71q0 -136 -212 -136q-45 0 -83.5 6t-62.5 14.5t-41.5 16.5t-24.5 14l-7 6q0 40 18 73.5t36 46.5l18 14h15q3 -6 8 -15.5t21 -33.5t32.5 -43t41 -34t47.5 -15t35.5 10t12.5 24q0 19 -26.5 40
t-105.5 71q-78 49 -109.5 84t-31.5 88q0 141 211 141q59 0 105.5 -10.5t63.5 -21.5l18 -11q0 -26 -7.5 -50t-18 -39.5t-21 -27t-17.5 -16.5l-8 -5h-13q-2 5 -6.5 14t-18.5 31.5t-28.5 40t-36.5 31.5t-43 14zM168 531l-9 10l74 180q42 0 76 -6.5t47 -12.5l13 -7v-9l-151 -155
h-50z" />
    <glyph glyph-name="Scaron.smcp" horiz-adv-x="485" 
d="M218 449q-40 0 -40 -30q0 -17 20 -35t100 -77q104 -79 131.5 -109t27.5 -71q0 -136 -212 -136q-45 0 -83.5 6t-62.5 14.5t-41.5 16.5t-24.5 14l-7 6q0 40 18 73.5t36 46.5l18 14h15q3 -6 8 -15.5t21 -33.5t32.5 -43t41 -34t47.5 -15t35.5 10t12.5 24q0 19 -26.5 40
t-105.5 71q-78 49 -109.5 84t-31.5 88q0 141 211 141q59 0 105.5 -10.5t63.5 -21.5l18 -11q0 -26 -7.5 -50t-18 -39.5t-21 -27t-17.5 -16.5l-8 -5h-13q-2 5 -6.5 14t-18.5 31.5t-28.5 40t-36.5 31.5t-43 14zM401 718l9 -10l-147 -180h-42l-148 180l9 10h58l102 -80l101 80
h58z" />
    <glyph glyph-name="Scedilla.smcp" horiz-adv-x="485" 
d="M205 -76l11 68q-61 3 -108.5 17t-64.5 27l-17 12q0 40 18 73.5t36 46.5l18 14h15q3 -6 8 -15.5t21 -33.5t32.5 -43t41 -34t47.5 -15t35.5 10t12.5 24q0 19 -26.5 40t-105.5 71q-78 49 -109.5 84t-31.5 88q0 141 211 141q59 0 105.5 -10.5t63.5 -21.5l18 -11
q0 -26 -7.5 -50t-18 -39.5t-21 -27t-17.5 -16.5l-8 -5h-13q-2 5 -6.5 14t-18.5 31.5t-28.5 40t-36.5 31.5t-43 14q-40 0 -40 -30q0 -17 20 -35t100 -77q104 -79 131.5 -109t27.5 -71q0 -128 -190 -135l-6 -38q31 0 54 -20.5t23 -53.5q0 -34 -25.5 -56.5t-66.5 -22.5
q-29 0 -51.5 11t-30.5 22l-9 11l21 21q14 -16 40 -16q39 0 39 33q0 32 -41 32z" />
    <glyph glyph-name="Scircumflex.smcp" horiz-adv-x="485" 
d="M218 449q-40 0 -40 -30q0 -17 20 -35t100 -77q104 -79 131.5 -109t27.5 -71q0 -136 -212 -136q-45 0 -83.5 6t-62.5 14.5t-41.5 16.5t-24.5 14l-7 6q0 40 18 73.5t36 46.5l18 14h15q3 -6 8 -15.5t21 -33.5t32.5 -43t41 -34t47.5 -15t35.5 10t12.5 24q0 19 -26.5 40
t-105.5 71q-78 49 -109.5 84t-31.5 88q0 141 211 141q59 0 105.5 -10.5t63.5 -21.5l18 -11q0 -26 -7.5 -50t-18 -39.5t-21 -27t-17.5 -16.5l-8 -5h-13q-2 5 -6.5 14t-18.5 31.5t-28.5 40t-36.5 31.5t-43 14zM410 555l-9 -10h-58l-101 80l-102 -80h-58l-9 10l148 180h42z" />
    <glyph glyph-name="Scommaaccent.smcp" horiz-adv-x="485" 
d="M218 449q-40 0 -40 -30q0 -17 20 -35t100 -77q104 -79 131.5 -109t27.5 -71q0 -136 -212 -136q-45 0 -83.5 6t-62.5 14.5t-41.5 16.5t-24.5 14l-7 6q0 40 18 73.5t36 46.5l18 14h15q3 -6 8 -15.5t21 -33.5t32.5 -43t41 -34t47.5 -15t35.5 10t12.5 24q0 19 -26.5 40
t-105.5 71q-78 49 -109.5 84t-31.5 88q0 141 211 141q59 0 105.5 -10.5t63.5 -21.5l18 -11q0 -26 -7.5 -50t-18 -39.5t-21 -27t-17.5 -16.5l-8 -5h-13q-2 5 -6.5 14t-18.5 31.5t-28.5 40t-36.5 31.5t-43 14zM185 -235l-16 15q39 52 39 127q0 18 -3 34t-6 23l-3 7l6 6
q27 0 52.5 -3.5t37.5 -6.5l11 -3q5 -12 5 -35q0 -50 -31 -91t-61 -57z" />
    <glyph glyph-name="T.smcp" horiz-adv-x="538" 
d="M350 429v-429h-163v429h-27q-36 0 -67 -7.5t-44 -15.5l-13 -8l-12 12v80h489v-80l-11 -12q-41 31 -124 31h-28z" />
    <glyph glyph-name="Tbar.smcp" horiz-adv-x="538" 
d="M113 224v61h74v144h-27q-36 0 -67 -7.5t-44 -15.5l-13 -8l-12 12v80h489v-80l-11 -12q-41 31 -124 31h-28v-144h74v-61h-74v-224h-163v224h-74z" />
    <glyph glyph-name="Tcaron.smcp" horiz-adv-x="538" 
d="M350 429v-429h-163v429h-27q-36 0 -67 -7.5t-44 -15.5l-13 -8l-12 12v80h489v-80l-11 -12q-41 31 -124 31h-28zM428 718l9 -9l-147 -180h-42l-147 180l9 9h58l101 -80l101 80h58z" />
    <glyph glyph-name="Tcommaaccent.smcp" horiz-adv-x="538" 
d="M350 429v-429h-163v429h-27q-36 0 -67 -7.5t-44 -15.5l-13 -8l-12 12v80h489v-80l-11 -12q-41 31 -124 31h-28zM215 -235l-16 15q39 52 39 127q0 18 -3 34t-6 23l-3 7l6 6q28 0 53 -3.5t37 -6.5l11 -3q6 -12 6 -35q0 -32 -13 -60.5t-31 -46.5t-36 -31.5t-31 -19.5z" />
    <glyph glyph-name="uni021A.smcp" horiz-adv-x="538" 
d="M350 429v-429h-163v429h-27q-36 0 -67 -7.5t-44 -15.5l-13 -8l-12 12v80h489v-80l-11 -12q-41 31 -124 31h-28zM215 -235l-16 15q39 52 39 127q0 18 -3 34t-6 23l-3 7l6 6q28 0 53 -3.5t37 -6.5l11 -3q6 -12 6 -35q0 -32 -13 -60.5t-31 -46.5t-36 -31.5t-31 -19.5z" />
    <glyph glyph-name="U.smcp" horiz-adv-x="546" 
d="M428 175v315h69v-313q0 -85 -58.5 -135.5t-165.5 -50.5t-165.5 50.5t-58.5 135.5v313h163v-339q0 -45 28.5 -70.5t75.5 -25.5q52 0 82 30.5t30 89.5z" />
    <glyph glyph-name="Uacute.smcp" horiz-adv-x="546" 
d="M428 175v315h69v-313q0 -85 -58.5 -135.5t-165.5 -50.5t-165.5 50.5t-58.5 135.5v313h163v-339q0 -45 28.5 -70.5t75.5 -25.5q52 0 82 30.5t30 89.5zM216 531l-10 10l74 180q42 0 76 -6.5t47 -12.5l13 -7v-9l-151 -155h-49z" />
    <glyph glyph-name="Ubreve.smcp" horiz-adv-x="546" 
d="M428 175v315h69v-313q0 -85 -58.5 -135.5t-165.5 -50.5t-165.5 50.5t-58.5 135.5v313h163v-339q0 -45 28.5 -70.5t75.5 -25.5q52 0 82 30.5t30 89.5zM121 647l25 25q6 -6 17.5 -15t47 -24t71.5 -15q37 0 71 13.5t50 26.5l16 14l25 -25l-5 -12.5t-16.5 -27.5t-30 -35
t-46.5 -27.5t-64 -12.5q-35 0 -64 12t-46.5 29t-29.5 33.5t-16 28.5z" />
    <glyph glyph-name="Ucircumflex.smcp" horiz-adv-x="546" 
d="M428 175v315h69v-313q0 -85 -58.5 -135.5t-165.5 -50.5t-165.5 50.5t-58.5 135.5v313h163v-339q0 -45 28.5 -70.5t75.5 -25.5q52 0 82 30.5t30 89.5zM450 541l-10 -10h-58l-101 80l-101 -80h-58l-9 10l147 180h42z" />
    <glyph glyph-name="Udieresis.smcp" horiz-adv-x="546" 
d="M428 175v315h69v-313q0 -85 -58.5 -135.5t-165.5 -50.5t-165.5 50.5t-58.5 135.5v313h163v-339q0 -45 28.5 -70.5t75.5 -25.5q52 0 82 30.5t30 89.5zM99 607q0 32 20 51.5t53 19.5q32 0 52 -19.5t20 -51.5q0 -33 -20 -53t-52 -20q-33 0 -53 20t-20 53zM318 607
q0 32 20 51.5t53 19.5t52.5 -19.5t19.5 -51.5q0 -33 -19.5 -53t-52.5 -20t-53 20t-20 53z" />
    <glyph glyph-name="Ugrave.smcp" horiz-adv-x="546" 
d="M428 175v315h69v-313q0 -85 -58.5 -135.5t-165.5 -50.5t-165.5 50.5t-58.5 135.5v313h163v-339q0 -45 28.5 -70.5t75.5 -25.5q52 0 82 30.5t30 89.5zM356 541l-9 -10h-50l-151 155v9q42 26 136 26z" />
    <glyph glyph-name="Uhungarumlaut.smcp" horiz-adv-x="546" 
d="M428 175v315h69v-313q0 -85 -58.5 -135.5t-165.5 -50.5t-165.5 50.5t-58.5 135.5v313h163v-339q0 -45 28.5 -70.5t75.5 -25.5q52 0 82 30.5t30 89.5zM120 531l-9 10l70 180q42 0 76 -6.5t47 -12.5l13 -7v-9l-147 -155h-50zM303 531l-9 10l88 180q42 0 74.5 -6.5
t43.5 -12.5l11 -7v-9l-158 -155h-50z" />
    <glyph glyph-name="Umacron.smcp" horiz-adv-x="546" 
d="M428 175v315h69v-313q0 -85 -58.5 -135.5t-165.5 -50.5t-165.5 50.5t-58.5 135.5v313h163v-339q0 -45 28.5 -70.5t75.5 -25.5q52 0 82 30.5t30 89.5zM140 561v71h283v-71h-283z" />
    <glyph glyph-name="Uogonek.smcp" horiz-adv-x="546" 
d="M428 175v315h69v-313q0 -68 -38 -115t-110 -63q-34 -44 -34 -92q0 -45 42 -45q8 0 14.5 1.5t9.5 2.5l3 2l26 -25q-2 -4 -7.5 -11t-26 -18t-45.5 -11q-41 0 -70.5 24t-29.5 69q0 57 51 95h-9q-107 0 -165.5 50.5t-58.5 135.5v313h163v-339q0 -45 28.5 -70.5t75.5 -25.5
q52 0 82 30.5t30 89.5z" />
    <glyph glyph-name="Uring.smcp" horiz-adv-x="546" 
d="M428 175v315h69v-313q0 -85 -58.5 -135.5t-165.5 -50.5t-165.5 50.5t-58.5 135.5v313h163v-339q0 -45 28.5 -70.5t75.5 -25.5q52 0 82 30.5t30 89.5zM186 621q0 43 26.5 69.5t69.5 26.5t69.5 -26.5t26.5 -69.5t-26.5 -69.5t-69.5 -26.5t-69.5 26.5t-26.5 69.5zM249 621
q0 -16 9 -25t24 -9t24 9t9 25q0 15 -9 24.5t-24 9.5t-24 -9.5t-9 -24.5z" />
    <glyph glyph-name="Utilde.smcp" horiz-adv-x="546" 
d="M428 175v315h69v-313q0 -85 -58.5 -135.5t-165.5 -50.5t-165.5 50.5t-58.5 135.5v313h163v-339q0 -45 28.5 -70.5t75.5 -25.5q52 0 82 30.5t30 89.5zM238 657q26 0 55.5 -18.5t50.5 -18.5t40.5 10t29.5 20l9 10l25 -25q-2 -4 -5 -11t-14 -24t-24 -30t-34.5 -24t-45.5 -11
q-26 0 -55.5 18t-51.5 18q-20 0 -39.5 -9.5t-28.5 -19.5l-10 -10l-25 25q2 4 5 11t14 24t24 30t34.5 24t45.5 11z" />
    <glyph glyph-name="V.smcp" horiz-adv-x="557" 
d="M221 20l-146 343q-14 34 -30 63t-25 40l-8 12v12h186l142 -339l127 339h77l-189 -490h-114z" />
    <glyph glyph-name="W.smcp" horiz-adv-x="834" 
d="M518 20l-84 235l-84 -255h-120l-19 20l-137 343q-13 34 -28.5 63t-24.5 40l-9 12v12h183l133 -335l67 210q-12 33 -26 61.5t-21 39.5l-8 12v12h184l114 -327l107 327h76l-165 -490h-117z" />
    <glyph glyph-name="Wacute.smcp" horiz-adv-x="834" 
d="M518 20l-84 235l-84 -255h-120l-19 20l-137 343q-13 34 -28.5 63t-24.5 40l-9 12v12h183l133 -335l67 210q-12 33 -26 61.5t-21 39.5l-8 12v12h184l114 -327l107 327h76l-165 -490h-117zM362 531l-9 10l74 180q42 0 75.5 -6.5t46.5 -12.5l13 -7v-9l-151 -155h-49z" />
    <glyph glyph-name="Wcircumflex.smcp" horiz-adv-x="834" 
d="M518 20l-84 235l-84 -255h-120l-19 20l-137 343q-13 34 -28.5 63t-24.5 40l-9 12v12h183l133 -335l67 210q-12 33 -26 61.5t-21 39.5l-8 12v12h184l114 -327l107 327h76l-165 -490h-117zM604 541l-9 -10h-58l-102 80l-101 -80h-58l-9 10l147 180h42z" />
    <glyph glyph-name="Wdieresis.smcp" horiz-adv-x="834" 
d="M518 20l-84 235l-84 -255h-120l-19 20l-137 343q-13 34 -28.5 63t-24.5 40l-9 12v12h183l133 -335l67 210q-12 33 -26 61.5t-21 39.5l-8 12v12h184l114 -327l107 327h76l-165 -490h-117zM473 607q0 32 20 51.5t53 19.5t52.5 -19.5t19.5 -51.5q0 -33 -19.5 -53t-52.5 -20
t-53 20t-20 53zM254 607q0 32 20 51.5t53 19.5q32 0 52 -19.5t20 -51.5q0 -33 -20 -53t-52 -20q-33 0 -53 20t-20 53z" />
    <glyph glyph-name="Wgrave.smcp" horiz-adv-x="834" 
d="M518 20l-84 235l-84 -255h-120l-19 20l-137 343q-13 34 -28.5 63t-24.5 40l-9 12v12h183l133 -335l67 210q-12 33 -26 61.5t-21 39.5l-8 12v12h184l114 -327l107 327h76l-165 -490h-117zM525 541l-9 -10h-50l-151 155v9q42 26 136 26z" />
    </font>
</defs>
</svg>
