<?xml version="1.0" standalone="no"?>
<!DOCTYPE svg PUBLIC "-//W3C//DTD SVG 1.1//EN" "http://www.w3.org/Graphics/SVG/1.1/DTD/svg11.dtd" >
<svg xmlns="http://www.w3.org/2000/svg" xmlns:xlink="http://www.w3.org/1999/xlink" version="1.1">
<metadata>
Created by FontForge 20170731 at Sun Dec 25 14:57:51 2016
 By Aleksey,,,
Copyright (c) 2017 by Andriy Konstantynov. All rights reserved.
</metadata>
<defs>
<font id="OrchideaPro-ExtraLightItalic" horiz-adv-x="598" >
  <font-face 
    font-family="Orchidea Pro ExLt"
    font-weight="250"
    font-style="italic"
    font-stretch="normal"
    units-per-em="1000"
    panose-1="2 11 0 3 3 2 0 0 0 2"
    ascent="800"
    descent="-200"
    x-height="472"
    cap-height="700"
    bbox="-94 -257 1071 944"
    underline-thickness="50"
    underline-position="-250"
    slope="-9"
    unicode-range="U+0020-FB04"
  />
<missing-glyph horiz-adv-x="218" 
 />
    <glyph glyph-name="ff" unicode="ff" horiz-adv-x="569" 
d="M322 -16l72 459h-205l-73 -466q-7 -46 -27.5 -87t-44.5 -67t-47 -45t-38 -27l-15 -8l-11 13q4 3 11.5 8.5t27 25t35.5 41.5t32 58t22 75l75 479h-84l3 17l86 13l24 157q10 63 41.5 95t79.5 32q29 0 51 -11t30 -22l8 -11l-14 -13q-20 26 -61 26q-66 0 -81 -93l-25 -161
h204l25 156q21 129 123 129q29 0 51.5 -11t30.5 -22l8 -11l-15 -13q-20 26 -62 26q-67 0 -82 -95l-25 -159h139l-4 -29h-140l-70 -446q-7 -46 -27.5 -87t-44.5 -67t-47 -45t-38 -27l-15 -8l-11 13q4 3 11.5 8.5t27 25t35.5 41.5t32 58t22 75z" />
    <glyph glyph-name="fi" unicode="fi" horiz-adv-x="501" 
d="M315 0l48 300q15 96 20 143h-194l-73 -466q-7 -46 -27.5 -87t-44.5 -67t-47 -45t-38 -27l-15 -8l-11 13q4 3 11.5 8.5t27 25t35.5 41.5t32 58t22 75l75 479h-84l3 17l85 13l18 116q12 76 62.5 121.5t128.5 45.5q58 0 89.5 -29t31.5 -79q0 -17 -4 -32.5t-8 -23.5l-3 -7
q-15 -6 -44 -6l-5 6q13 28 13 62q0 39 -20 60.5t-58 21.5q-51 0 -85 -36.5t-44 -98.5l-19 -122h245q-6 -72 -22 -172l-48 -300h-53z" />
    <glyph glyph-name="fl" unicode="fl" horiz-adv-x="509" 
d="M323 0l75 472q25 155 29 231q-26 23 -82 23q-111 0 -132 -127l-20 -127h113l-5 -29h-112l-73 -466q-7 -46 -27.5 -87t-44.5 -67t-47 -45t-38 -27l-15 -8l-11 13q4 3 11.5 8.5t27 25t35.5 42t32 58.5t22 74l75 479h-84l3 17l85 13l19 123q26 161 178 161q31 0 55.5 -6.5
t33.5 -13.5l10 -7h47q-5 -91 -31 -258l-75 -472h-54z" />
    <glyph glyph-name="ffi" unicode="ffi" horiz-adv-x="759" 
d="M322 -16l72 459h-205l-73 -466q-7 -46 -27.5 -87t-44.5 -67t-47 -45t-38 -27l-15 -8l-11 13q4 3 11.5 8.5t27 25t35.5 41.5t32 58t22 75l75 479h-84l3 17l86 13l24 157q10 63 41.5 95t79.5 32q29 0 51 -11t30 -22l8 -11l-14 -13q-20 26 -61 26q-66 0 -81 -93l-25 -161
h204l18 117q12 76 63 121.5t129 45.5q57 0 88.5 -29t31.5 -79q0 -17 -4 -32.5t-8 -23.5l-3 -7q-15 -6 -44 -6l-5 6q14 28 14 62q0 39 -20.5 60.5t-58.5 21.5q-51 0 -85 -36.5t-44 -98.5l-19 -122h246q-6 -72 -22 -172l-48 -300h-53l48 300q15 96 20 143h-195l-70 -446
q-7 -46 -27.5 -87t-44.5 -67t-47 -45t-38 -27l-15 -8l-11 13q4 3 11.5 8.5t27 25t35.5 41.5t32 58t22 75z" />
    <glyph glyph-name="ffl" unicode="ffl" horiz-adv-x="768" 
d="M322 -16l72 459h-205l-73 -466q-7 -46 -27.5 -87t-44.5 -67t-47 -45t-38 -27l-15 -8l-11 13q4 3 11.5 8.5t27 25t35.5 42t32 58.5t22 74l75 479h-84l3 17l86 13l24 157q10 63 41.5 95t79.5 32q29 0 51 -11t30 -22l8 -11l-14 -13q-20 26 -61 26q-66 0 -81 -93l-25 -161
h204l20 124q26 161 177 161q31 0 56 -6.5t35 -13.5l9 -7h46q-4 -91 -30 -258l-76 -472h-53l75 472q25 154 29 231q-27 23 -82 23q-111 0 -132 -127l-20 -127h112l-4 -29h-113l-70 -446q-7 -46 -27.5 -87t-44.5 -67t-47 -45t-38 -27l-15 -8l-11 13q4 3 11.5 8.5t27 25
t35.5 41.5t32 58t22 75z" />
    <glyph glyph-name="f_f_j" unicode="ffj" horiz-adv-x="759" 
d="M322 -16l72 459h-205l-73 -466q-7 -46 -27.5 -87t-44.5 -67t-47 -45t-38 -27l-15 -8l-11 13q4 3 11.5 8.5t27 25t35.5 41.5t32 58t22 75l75 479h-84l3 17l86 13l24 157q10 63 41.5 95t79.5 32q29 0 51 -11t30 -22l8 -11l-14 -13q-20 26 -61 26q-66 0 -81 -93l-25 -161
h204l18 117q12 76 63 121.5t129 45.5q57 0 88.5 -29t31.5 -79q0 -17 -4 -32.5t-8 -23.5l-3 -7q-15 -6 -44 -6l-5 6q14 28 14 62q0 39 -20.5 60.5t-58.5 21.5q-51 0 -85 -36.5t-44 -98.5l-19 -122h246q-6 -72 -22 -172l-45 -278q-7 -46 -27.5 -87t-44.5 -67t-47 -45t-38 -27
l-15 -8l-10 13q4 3 11.5 8.5t26.5 25t35 41.5t32 58t22 75l47 291q15 96 20 143h-195l-70 -446q-7 -46 -27.5 -87t-44.5 -67t-47 -45t-38 -27l-15 -8l-11 13q4 3 11.5 8.5t27 25t35.5 41.5t32 58t22 75z" />
    <glyph glyph-name="f_j" unicode="fj" horiz-adv-x="501" 
d="M313 -16l51 316q15 96 20 143h-195l-73 -466q-7 -46 -27.5 -87t-44.5 -67t-47 -45t-38 -27l-15 -8l-11 13q4 3 11.5 8.5t27 25t35.5 41.5t32 58t22 75l75 479h-84l3 17l85 13l18 116q12 76 62.5 121.5t128.5 45.5q58 0 89.5 -29t31.5 -79q0 -17 -4 -32.5t-8 -23.5l-3 -7
q-15 -6 -44 -6l-5 6q13 28 13 62q0 39 -20 60.5t-58 21.5q-51 0 -85 -36.5t-44 -98.5l-19 -122h246q-6 -72 -22 -172l-49 -303q-7 -46 -27.5 -87t-44.5 -67t-47 -45t-38 -27l-15 -8l-10 13q4 3 11.5 8.5t26.5 25t35 41.5t32 58t22 75z" />
    <glyph glyph-name="afii10104_afii10104" unicode="&#x457;&#x457;" horiz-adv-x="481" 
d="M69 600q0 16 10.5 26t25.5 10q26 0 26 -26q0 -16 -10.5 -26t-25.5 -10q-26 0 -26 26zM265 600q0 16 10.5 26t25.5 10q26 0 26 -26q0 -16 -10 -26t-25 -10q-27 0 -27 26zM53 0l48 300l22 165l7 7h47q-7 -72 -23 -172l-48 -300h-53zM461 600q0 16 10.5 26t25.5 10
q26 0 26 -26q0 -16 -10 -26t-25 -10q-27 0 -27 26zM295 0l48 300l22 165l7 7h46q-6 -72 -22 -172l-48 -300h-53z" />
    <glyph glyph-name=".notdef" horiz-adv-x="218" 
 />
    <glyph glyph-name=".null" horiz-adv-x="0" 
 />
    <glyph glyph-name="nonmarkingreturn" horiz-adv-x="333" 
 />
    <glyph glyph-name="space" unicode=" " horiz-adv-x="218" 
 />
    <glyph glyph-name="exclam" unicode="!" horiz-adv-x="234" 
d="M47 23q0 17 11.5 28.5t28.5 11.5q30 0 30 -30q0 -17 -11.5 -28.5t-28.5 -11.5q-30 0 -30 30zM86 191l74 509h56l-87 -509h-43z" />
    <glyph glyph-name="quotedbl" unicode="&#x22;" horiz-adv-x="297" 
d="M124 523l22 177h40l-35 -183h-22zM230 523l22 177h41l-36 -183h-22z" />
    <glyph glyph-name="numbersign" unicode="#" horiz-adv-x="553" 
d="M93 473l5 31h108l49 196h30l-50 -196h191l49 196h29l-50 -196h106l-5 -31h-109l-61 -246h105l-4 -31h-109l-49 -196h-29l49 196h-190l-49 -196h-30l49 196h-104l5 31h107l62 246h-105zM227 473l-61 -246h190l62 246h-191z" />
    <glyph glyph-name="dollar" unicode="$" horiz-adv-x="574" 
d="M342 678q-80 0 -121 -40.5t-41 -101.5q0 -43 28.5 -72t120.5 -89q68 -44 95 -65t45 -50.5t18 -69.5q0 -84 -58.5 -138t-168.5 -58l-14 -94h-30l14 94q-40 1 -73.5 9t-53.5 18.5t-33.5 22t-19 18.5t-5.5 9q2 14 11 27.5t17 19.5l8 7h8l5.5 -11t17.5 -25t31 -31.5
t46.5 -24.5t63.5 -11q77 0 128 41.5t51 106.5q0 50 -33 82.5t-115 80.5q-47 29 -70 44.5t-46.5 38t-31.5 46.5t-8 57q0 85 56.5 135t159.5 52l14 94h31l-16 -95q52 -2 91 -17.5t52.5 -29t12.5 -16.5q-2 -15 -10.5 -29t-16.5 -21l-7 -6h-9q-1 4 -3.5 10t-13 22t-25 28t-42 22
t-60.5 10z" />
    <glyph glyph-name="percent" unicode="%" horiz-adv-x="773" 
d="M170 0h-34l497 700h35zM77 479q0 95 52.5 161t127.5 66q58 0 91 -42t33 -114q0 -95 -53 -160.5t-128 -65.5q-58 0 -90.5 41.5t-32.5 113.5zM119 477q0 -58 22.5 -91.5t62.5 -33.5q55 0 94.5 59t39.5 142q0 59 -22.5 92t-62.5 33q-55 0 -94.5 -59.5t-39.5 -141.5zM422 149
q0 95 53 161t128 66q58 0 91 -42t33 -114q0 -95 -53.5 -160.5t-128.5 -65.5q-58 0 -90.5 41.5t-32.5 113.5zM465 147q0 -58 22 -91.5t63 -33.5q54 0 93.5 59t39.5 142q0 59 -22.5 92t-62.5 33q-55 0 -94 -59.5t-39 -141.5z" />
    <glyph glyph-name="ampersand" unicode="&#x26;" horiz-adv-x="751" 
d="M430 297l3 18l133 22l25 6q3 -7 6 -17h139l-4 -29h-128q4 -28 4 -47q0 -107 -72 -181.5t-194 -74.5q-125 0 -193.5 82.5t-68.5 223.5q0 95 32 174.5t83 128.5t112 76t122 27q58 0 88 -23.5t30 -65.5q0 -48 -37 -86.5t-96 -61.5t-126.5 -36t-134.5 -14q-13 -51 -13 -114
q0 -130 60 -201t160 -71q98 0 158.5 62.5t60.5 157.5q0 18 -4 44h-145zM420 679q-75 0 -150 -63t-109 -170q135 2 236 50.5t101 120.5q0 62 -78 62z" />
    <glyph glyph-name="quotesingle" unicode="'" horiz-adv-x="190" 
d="M124 523l22 177h40l-35 -183h-22z" />
    <glyph glyph-name="parenleft" unicode="(" horiz-adv-x="278" 
d="M179 -138l-20 -18q-4 4 -11 12t-24 37.5t-30 65.5t-24 97t-11 130q0 81 13.5 156.5t35 131t47.5 103.5t52 80t47.5 55t35.5 34l13 10l15 -18q-8 -7 -22 -22t-49.5 -67t-62.5 -111.5t-49.5 -157t-22.5 -203.5q0 -96 17 -174.5t33 -109.5z" />
    <glyph glyph-name="parenright" unicode=")" horiz-adv-x="278" 
d="M-11 -156l-14 18q8 7 22 22t49.5 67t62.5 111.5t49.5 157t22.5 203.5q0 60 -7 115t-16.5 90t-19.5 61t-17 37l-7 12l20 18q4 -4 11 -12t24 -37.5t30 -65t24 -96.5t11 -130q0 -81 -13.5 -156.5t-35 -131t-47.5 -104t-52.5 -80.5t-48 -55t-35.5 -34z" />
    <glyph glyph-name="asterisk" unicode="*" horiz-adv-x="378" 
d="M223 549l18 151h38l-30 -151l136 53l4 -39l-135 -41l65 -119l-35 -23l-55 126l-94 -126l-27 23l102 119l-123 41l18 39z" />
    <glyph glyph-name="plus" unicode="+" 
d="M107 309v32h177v176h31v-176h176v-32h-176v-176h-31v176h-177z" />
    <glyph glyph-name="comma" unicode="," horiz-adv-x="175" 
d="M-29 -154l-10 14q8 9 20 25t32 61.5t20 85.5l-2 24l6 5q15 0 27 -2.5t16 -4.5l5 -2v-14q0 -30 -11.5 -60.5t-28.5 -53t-34 -41t-29 -27.5z" />
    <glyph glyph-name="hyphen" unicode="-" horiz-adv-x="361" 
d="M74 260v31h213v-31h-213z" />
    <glyph glyph-name="period" unicode="." horiz-adv-x="176" 
d="M18 23q0 17 11 28.5t29 11.5q29 0 29 -30q0 -17 -11.5 -28.5t-28.5 -11.5q-29 0 -29 30z" />
    <glyph glyph-name="slash" unicode="/" horiz-adv-x="366" 
d="M-11 -150h-31l434 900h31z" />
    <glyph glyph-name="zero" unicode="0" horiz-adv-x="599" 
d="M72 273q0 179 87.5 306t208.5 127q89 0 139 -75t50 -204q0 -180 -87.5 -306.5t-208.5 -126.5q-90 0 -139.5 75t-49.5 204zM128 260q0 -112 35.5 -175t101.5 -63q95 0 165.5 125t70.5 293q0 111 -36 174.5t-101 63.5q-95 0 -165.5 -125t-70.5 -293z" />
    <glyph glyph-name="one" unicode="1" horiz-adv-x="394" 
d="M185 0l102 643q-11 -8 -29.5 -20.5t-66.5 -33.5t-85 -21q-3 8 0 26l6 6q41 0 94.5 25t86.5 50l33 25h23l-111 -700h-53z" />
    <glyph glyph-name="two" unicode="2" horiz-adv-x="539" 
d="M525 549q0 -51 -24 -106t-62 -102.5t-84 -93.5t-92 -82t-84 -63.5t-62 -41.5l-24 -15h209q47 0 84 3.5t51 6.5l14 3l6 -7l-8 -51h-430l5 30q9 6 25 16.5t62.5 44.5t88.5 69t93.5 85.5t88 98t62 103t25.5 104.5q0 57 -34 92t-100 35q-77 0 -126.5 -48t-49.5 -132l2 -27
l-8 -7q-13 0 -24 2t-16 4l-5 1q-3 9 -3 29q0 90 64.5 148t171.5 58q90 0 137 -43t47 -114z" />
    <glyph glyph-name="three" unicode="3" horiz-adv-x="577" 
d="M248 22q90 0 143 53.5t53 138.5q0 62 -31 96t-92 34h-63l-4 5l4 27h48q78 0 121 48.5t43 128.5q0 125 -126 125q-77 0 -126 -43t-49 -120l1 -26l-7 -6q-13 0 -24.5 1.5t-16.5 3.5l-5 1q-2 9 -2 27q0 83 63.5 136.5t171.5 53.5q176 0 176 -151q0 -71 -37 -122.5
t-103 -70.5q115 -22 115 -149q0 -99 -69.5 -159t-187.5 -60q-96 0 -145 41t-49 112q0 22 5 40t9 25l5 8q18 7 47 7l6 -7q-19 -28 -19 -75q0 -58 37.5 -90.5t107.5 -32.5z" />
    <glyph glyph-name="four" unicode="4" horiz-adv-x="552" 
d="M19 160l3 15l434 525h26l-81 -509h96l-5 -31h-96l-25 -160h-53l25 160h-324zM71 191h277l66 415z" />
    <glyph glyph-name="five" unicode="5" horiz-adv-x="554" 
d="M233 22q91 0 143.5 62.5t52.5 161.5q0 78 -35.5 112.5t-112.5 34.5q-42 0 -83 -9.5t-61 -18.5l-20 -9l-8 11l88 329h164q47 0 84 3t51 7l14 3l5 -7l-8 -51h-290l-69 -260q70 37 156 37q183 0 183 -180q0 -114 -68.5 -184t-187.5 -70q-91 0 -138 40.5t-47 110.5
q0 22 4.5 40t9.5 25l4 8q18 7 49 7l5 -7q-19 -27 -19 -75q0 -57 35 -89t99 -32z" />
    <glyph glyph-name="six" unicode="6" horiz-adv-x="580" 
d="M367 678q-59 0 -104.5 -32.5t-72.5 -87t-42 -114t-20 -125.5q74 95 202 95q85 0 132.5 -46.5t47.5 -130.5q0 -106 -70 -174.5t-174 -68.5q-195 0 -195 272q0 80 16.5 155t50.5 140.5t94.5 105t140.5 39.5q76 0 123.5 -35t47.5 -97q0 -19 -4 -35.5t-8 -23.5l-5 -7
q-18 -7 -48 -7l-5 7q17 25 17 66q0 51 -35 77.5t-89 26.5zM314 386q-111 0 -188 -109v-27q0 -228 142 -228q78 0 131.5 60t53.5 153q0 73 -36.5 112t-102.5 39z" />
    <glyph glyph-name="seven" unicode="7" horiz-adv-x="512" 
d="M195 0h-54q16 98 57 202t89 181.5t93.5 141t75.5 97.5l30 33h-222q-47 0 -84 -3.5t-51 -6.5l-14 -3l-6 7l8 51h419l-4 -28q-11 -13 -30.5 -37t-71 -98.5t-94 -150t-84.5 -182t-57 -204.5z" />
    <glyph glyph-name="eight" unicode="8" horiz-adv-x="568" 
d="M528 560q0 -40 -17 -76t-44 -62t-50.5 -42t-48.5 -28q59 -32 91.5 -68t32.5 -92q0 -81 -67 -139.5t-181 -58.5q-96 0 -145.5 42.5t-49.5 116.5q0 45 18.5 83t48.5 63t57 40.5t56 25.5q-102 59 -102 152q0 80 62.5 134.5t161.5 54.5q83 0 130 -39.5t47 -106.5zM439 180
q0 22 -8.5 41.5t-17.5 32t-33 28.5t-34.5 22.5t-44 23t-41.5 20.5q-25 -10 -47.5 -23.5t-50.5 -36.5t-44.5 -57t-16.5 -74q0 -61 39 -98t109 -37q80 0 135 47t55 111zM345 678q-72 0 -118 -42t-46 -103q0 -25 10 -47.5t21.5 -37t38 -32t40.5 -25t48 -24.5q20 11 40 26
t44.5 39t39.5 57t15 69q0 55 -35.5 87.5t-97.5 32.5z" />
    <glyph glyph-name="nine" unicode="9" horiz-adv-x="569" 
d="M229 22q50 0 90.5 22t65.5 56.5t43.5 82t27.5 91.5t13 92q-69 -73 -187 -73q-85 0 -133 43.5t-48 129.5q0 104 68.5 172t174.5 68q96 0 141 -64t45 -196q0 -61 -8.5 -119.5t-30.5 -120t-55.5 -107.5t-88 -75.5t-123.5 -29.5q-79 0 -128 34.5t-49 96.5q0 18 4.5 33.5
t8.5 22.5l4 7q17 7 47 7l6 -7q-16 -25 -16 -62q0 -50 35 -77t93 -27zM297 321q98 0 175 80q2 42 2 56q0 114 -32 167.5t-103 53.5q-80 0 -130.5 -59t-50.5 -150q0 -74 36.5 -111t102.5 -37z" />
    <glyph glyph-name="colon" unicode=":" horiz-adv-x="176" 
d="M18 23q0 17 11 28.5t29 11.5q29 0 29 -30q0 -17 -11.5 -28.5t-28.5 -11.5q-29 0 -29 30zM83 438q0 17 11.5 28.5t28.5 11.5q30 0 30 -30q0 -17 -12 -28.5t-29 -11.5q-29 0 -29 30z" />
    <glyph glyph-name="semicolon" unicode=";" horiz-adv-x="175" 
d="M-29 -154l-10 14q8 9 20 25t32 61.5t20 85.5l-2 24l6 5q15 0 27 -2.5t16 -4.5l5 -2v-14q0 -30 -11.5 -60.5t-28.5 -53t-34 -41t-29 -27.5zM83 436q0 17 11.5 28.5t28.5 11.5q29 0 29 -30q0 -17 -11.5 -28.5t-28.5 -11.5q-29 0 -29 30z" />
    <glyph glyph-name="less" unicode="&#x3c;" 
d="M491 509v-34l-361 -150l361 -150v-34l-404 167v34z" />
    <glyph glyph-name="equal" unicode="=" 
d="M107 408v31h384v-31h-384zM107 211v31h384v-31h-384z" />
    <glyph glyph-name="greater" unicode="&#x3e;" 
d="M107 475v34l404 -167v-34l-404 -167v34l361 150z" />
    <glyph glyph-name="question" unicode="?" horiz-adv-x="502" 
d="M179 23q0 17 11.5 28.5t28.5 11.5q29 0 29 -30q0 -17 -11.5 -28.5t-28.5 -11.5q-29 0 -29 30zM496 550q0 -50 -22.5 -94t-54 -71.5t-63.5 -47.5t-54 -29l-23 -8l-19 -109h-41l19 137q8 2 21.5 6.5t48.5 23t61.5 41.5t48.5 64t22 88q0 58 -31.5 92.5t-94.5 34.5
q-72 0 -119 -45t-47 -124l2 -27l-7 -7q-13 0 -24.5 1.5t-16.5 3.5l-5 2q-2 8 -2 27q0 86 61 141.5t163 55.5q86 0 131.5 -42.5t45.5 -113.5z" />
    <glyph glyph-name="at" unicode="@" horiz-adv-x="1134" 
d="M1059 326q0 -137 -68.5 -234.5t-187.5 -97.5q-69 0 -97.5 38t-13.5 124l12 71l-3 3q-5 -10 -13 -25.5t-34.5 -56.5t-54 -72t-67 -56.5t-77.5 -25.5q-52 0 -79.5 44t-27.5 118q0 139 85.5 230.5t216.5 91.5q31 0 55.5 -5.5t38 -13t23 -15.5t12.5 -14l3 -5l-41 -258
q-12 -76 8 -109t71 -33q65 0 110.5 48t64 113.5t18.5 138.5q0 162 -98 256t-266 94q-149 0 -271 -75t-189.5 -198.5t-67.5 -267.5q0 -171 98.5 -264t277.5 -93q61 0 120.5 11t101 26.5t75 31.5t49.5 27l16 11l11 -16q-6 -5 -17 -13.5t-49 -30t-79.5 -37.5t-106 -29.5
t-130.5 -13.5q-194 0 -303.5 105t-109.5 285q0 150 73.5 280.5t207.5 211t298 80.5q188 0 296.5 -104t108.5 -276zM404 156q0 -125 72 -125q27 0 55.5 18t55 51t46 60.5t40 67.5t25 49t12.5 26v1l17 107q-2 4 -7 10.5t-27.5 17.5t-54.5 11q-95 0 -164.5 -85.5t-69.5 -208.5z
" />
    <glyph glyph-name="A" unicode="A" horiz-adv-x="651" 
d="M142 215l-117 -215h-35l371 680l-4 13l1 7h61l162 -700h-57l-50 215h-332zM402 528q-19 80 -29 113l-214 -395h308z" />
    <glyph glyph-name="B" unicode="B" horiz-adv-x="617" 
d="M61 0l111 700h219q175 0 175 -149q0 -69 -38 -119t-108 -69q126 -24 126 -154q0 -94 -66 -151.5t-179 -57.5h-240zM489 211q0 66 -36.5 100t-105.5 34h-175l-50 -314h176q87 0 139 49.5t52 130.5zM508 545q0 124 -130 124h-155l-46 -293h154q84 0 130.5 47t46.5 122z" />
    <glyph glyph-name="C" unicode="C" horiz-adv-x="676" 
d="M443 678q-134 0 -221 -111t-87 -273q0 -125 56.5 -193.5t162.5 -68.5q57 0 112 20t81 40l26 20l11 -15l-11 -11t-31 -25t-51 -31.5t-69 -24.5t-86 -11q-123 0 -192.5 79t-69.5 218q0 176 105.5 295.5t268.5 119.5q99 0 151.5 -46t52.5 -124q0 -24 -5 -43t-10 -27l-5 -7
q-18 -6 -48 -6l-5 6q19 29 19 81q0 65 -40.5 101.5t-114.5 36.5z" />
    <glyph glyph-name="D" unicode="D" horiz-adv-x="704" 
d="M61 0l111 700h232q119 0 188 -79t69 -214q0 -172 -106.5 -289.5t-261.5 -117.5h-232zM397 669h-174l-101 -638h174q129 0 217 108.5t88 269.5q0 122 -54 191t-150 69z" />
    <glyph glyph-name="E" unicode="E" horiz-adv-x="562" 
d="M61 0l111 700h389l-5 -37l-7 -6q-41 13 -146 13h-180l-48 -299h280l5 -5l-4 -26h-286l-49 -310h190q47 0 84 3t51 7l14 3l5 -6l-5 -37h-399z" />
    <glyph glyph-name="F" unicode="F" horiz-adv-x="536" 
d="M61 0l111 700h388l-5 -37l-7 -6q-41 13 -146 13h-179l-47 -299h270l5 -5l-3 -26h-277l-54 -340h-56z" />
    <glyph glyph-name="G" unicode="G" horiz-adv-x="690" 
d="M459 303l4 25h101q14 0 26.5 2t18.5 4l6 1l6 -7l-38 -238q-4 -4 -11 -10.5t-31 -23t-50.5 -29t-68 -23t-84.5 -10.5q-125 0 -194.5 79.5t-69.5 217.5q0 176 105.5 295.5t271.5 119.5q97 0 149.5 -43.5t52.5 -119.5q0 -24 -5.5 -43.5t-10.5 -26.5l-5 -7q-17 -7 -47 -7
l-6 7q19 28 19 79q0 64 -39.5 98.5t-112.5 34.5q-136 0 -223.5 -110.5t-87.5 -274.5q0 -125 56 -195t159 -70q92 0 180 53l13 80q14 85 14 136h-93z" />
    <glyph glyph-name="H" unicode="H" horiz-adv-x="716" 
d="M520 0l54 340h-403l-54 -340h-56l111 700h56l-52 -329h403l52 329h55l-111 -700h-55z" />
    <glyph glyph-name="I" unicode="I" horiz-adv-x="258" 
d="M61 0l111 700h56l-111 -700h-56z" />
    <glyph glyph-name="J" unicode="J" horiz-adv-x="475" 
d="M311 210l78 490h55l-78 -488q-35 -218 -213 -218q-30 0 -55.5 6t-40.5 15t-26 18t-15 15l-4 6q2 16 10.5 29.5t15.5 19.5l7 6h7q1 -4 3 -9.5t10 -20.5t19 -26.5t31 -21t44 -9.5q122 0 152 188z" />
    <glyph glyph-name="K" unicode="K" horiz-adv-x="595" 
d="M61 0l111 700h56l-51 -319h54l317 319h43l-316 -318l110 -182q33 -53 65.5 -101.5t49.5 -70.5l16 -21l-1 -7h-68l-220 350h-55l-55 -350h-56z" />
    <glyph glyph-name="L" unicode="L" horiz-adv-x="519" 
d="M61 0l111 700h56l-107 -670h170q47 0 84 3t51 7l14 3l6 -6l-6 -37h-379z" />
    <glyph glyph-name="M" unicode="M" horiz-adv-x="835" 
d="M672 0l21 635l-3 4l-298 -619h-38l-9 12l-113 603l-4 -3l-167 -632h-34l142 528q12 46 20.5 87t10.5 59l3 19l8 7h66l115 -608l295 608h65l-23 -700h-57z" />
    <glyph glyph-name="N" unicode="N" horiz-adv-x="706" 
d="M61 0l67 420q13 80 21 148t9 96l2 29l7 7h22l357 -603l96 603h33l-111 -700h-18l-357 602l-96 -602h-32z" />
    <glyph glyph-name="O" unicode="O" horiz-adv-x="742" 
d="M74 289q0 176 106.5 296.5t259.5 120.5q121 0 190 -79.5t69 -216.5q0 -176 -106.5 -296t-260.5 -120q-121 0 -189.5 79.5t-68.5 215.5zM134 285q0 -123 53 -193t150 -70q127 0 214.5 113.5t87.5 280.5q0 123 -53.5 192.5t-149.5 69.5q-126 0 -214 -113.5t-88 -279.5z" />
    <glyph glyph-name="P" unicode="P" horiz-adv-x="576" 
d="M61 0l111 700h202q90 0 140.5 -44.5t50.5 -126.5q0 -101 -71 -163t-183 -62h-146l-48 -304h-56zM361 669h-138l-53 -333h137q90 0 145.5 52.5t55.5 138.5q0 68 -38.5 105t-108.5 37z" />
    <glyph glyph-name="Q" unicode="Q" horiz-adv-x="742" 
d="M328 -12q-120 1 -187.5 81t-67.5 217q0 177 106.5 298.5t260.5 121.5q121 0 190 -80t69 -218q0 -153 -81.5 -266.5t-206.5 -143.5q27 -10 63.5 -31.5t68.5 -35t66 -13.5q18 0 31.5 3.5t17.5 6.5l5 4l4 -6q-2 -12 -6 -24t-7 -18l-3 -5q-13 -10 -48 -10q-39 0 -77.5 18.5
t-64 41t-61.5 41t-72 18.5zM133 281q0 -124 53.5 -194.5t150.5 -70.5q126 0 214 115t88 282q0 124 -53.5 194.5t-149.5 70.5q-127 0 -215 -114.5t-88 -282.5z" />
    <glyph glyph-name="R" unicode="R" horiz-adv-x="591" 
d="M61 0l111 700h190q91 0 142 -43.5t51 -123.5q0 -82 -51.5 -138.5t-138.5 -72.5l61 -150q21 -50 41 -92t29 -58l10 -17l-6 -5h-61l-131 316h-141l-50 -316h-56zM349 669h-126l-51 -322h126q88 0 143.5 51t55.5 133q0 67 -39 102.5t-109 35.5z" />
    <glyph glyph-name="S" unicode="S" horiz-adv-x="574" 
d="M343 678q-80 0 -121 -40.5t-41 -100.5q0 -45 28 -74t120 -88q95 -62 126.5 -96t31.5 -88q0 -88 -63.5 -142.5t-181.5 -54.5q-42 0 -78 7.5t-57 18.5t-36 22t-21 18l-5 8q2 16 11 30t17 20l8 7h8l5.5 -11t17.5 -25t31 -31.5t46.5 -24.5t63.5 -11q77 0 128 41.5t51 106.5
q0 51 -33.5 83t-114.5 80q-92 55 -124 90.5t-32 94.5q0 86 59 137t167 51q59 0 103 -15.5t59 -30.5l14 -16q-3 -16 -11.5 -30.5t-16.5 -21.5l-7 -6h-8q-1 4 -3.5 10t-13.5 22t-25.5 28t-41.5 22t-60 10z" />
    <glyph glyph-name="T" unicode="T" horiz-adv-x="609" 
d="M398 670l-105 -670h-56l106 670h-88q-47 0 -84 -3t-51 -7l-14 -3l-6 6l6 37h539l-6 -37l-7 -6q-40 13 -146 13h-88z" />
    <glyph glyph-name="U" unicode="U" horiz-adv-x="678" 
d="M553 257l70 443h31l-70 -443q-18 -115 -97.5 -189t-190.5 -74q-110 0 -164.5 73.5t-36.5 189.5l70 443h55l-71 -449q-16 -99 29 -162t134 -63q90 0 157 64.5t84 166.5z" />
    <glyph glyph-name="V" unicode="V" horiz-adv-x="641" 
d="M259 12l-115 516q-12 52 -22.5 93.5t-15.5 56.5l-5 15l1 7h62l143 -641l342 641h34l-373 -700h-42z" />
    <glyph glyph-name="W" unicode="W" horiz-adv-x="959" 
d="M611 12l-84 481l-237 -493h-40l-10 12l-100 516q-10 52 -20 93.5t-14 56.5l-5 15l1 7h62l124 -636l230 479q-8 48 -16.5 85.5t-12.5 51.5l-4 13v7h64l110 -631l307 631h35l-341 -700h-39z" />
    <glyph glyph-name="X" unicode="X" horiz-adv-x="612" 
d="M185 700l150 -305l250 305h41l-277 -334l82 -166l102 -193l-1 -7h-66l-162 325l-269 -325h-38l292 354l-171 346h67z" />
    <glyph glyph-name="Y" unicode="Y" horiz-adv-x="586" 
d="M624 700l-293 -380l-50 -320h-55l49 316l-77 171q-26 56 -51 107.5t-37 75.5l-12 23l2 7h67l155 -346l264 346h38z" />
    <glyph glyph-name="Z" unicode="Z" horiz-adv-x="625" 
d="M28 19l532 651h-270q-47 0 -84.5 -3t-51.5 -7l-14 -3l-5 6l6 37h496l-2 -19l-532 -651h277q47 0 84 3t51 7l14 3l5 -6l-5 -37h-504z" />
    <glyph glyph-name="bracketleft" unicode="[" horiz-adv-x="302" 
d="M36 -150l143 900h166l-5 -31h-114l-132 -838h113l-5 -31h-166z" />
    <glyph glyph-name="backslash" unicode="\" horiz-adv-x="366" 
d="M281 -150h-31l-149 900h31z" />
    <glyph glyph-name="bracketright" unicode="]" horiz-adv-x="302" 
d="M282 750l-142 -900h-167l5 31h113l133 838h-114l6 31h166z" />
    <glyph glyph-name="asciicircum" unicode="^" horiz-adv-x="397" 
d="M400 524l-6 -6h-32l-99 137l-144 -137h-31l-5 6l178 176h17z" />
    <glyph glyph-name="underscore" unicode="_" horiz-adv-x="500" 
d="M0 -81v31h500v-31h-500z" />
    <glyph glyph-name="grave" unicode="`" horiz-adv-x="232" 
d="M230 572l-6 -6h-21l-81 129l1 6q15 8 45 8z" />
    <glyph glyph-name="a" unicode="a" horiz-adv-x="550" 
d="M483 425l-40 -253q-7 -44 -10.5 -85.5t-2.5 -60.5v-19l-7 -7h-46q-4 56 12 153l12 74l-2 3q-4 -10 -12 -25.5t-34 -56.5t-52.5 -72t-66 -56.5t-77.5 -25.5q-53 0 -80.5 43.5t-27.5 118.5q0 139 86 230.5t217 91.5q30 0 54.5 -5.5t38.5 -13t23 -15.5t12 -14zM105 156
q0 -125 73 -125q22 0 47.5 15t45 34.5t43 52.5t36 53.5t30.5 55t20 38.5t10 21l1 2v1l17 107q-2 4 -7 10.5t-27.5 17.5t-54.5 11q-94 0 -164 -85.5t-70 -208.5z" />
    <glyph glyph-name="b" unicode="b" horiz-adv-x="548" 
d="M60 47l67 425q12 76 20 144t9 98l2 29l7 7h47q-3 -103 -31 -278l-14 -89l-25 -138l3 -3q4 10 12 25.5t34 56.5t52.5 72t66 56.5t77.5 25.5q52 0 79.5 -44t27.5 -118q0 -139 -85.5 -230.5t-216.5 -91.5q-31 0 -55.5 5.5t-38 13.5t-23 15.5t-12.5 13.5zM438 316
q0 125 -72 125q-32 0 -67.5 -27.5t-61.5 -62.5t-52.5 -80.5t-36.5 -66t-16 -35.5v-1l-17 -108q2 -4 7 -10.5t27.5 -17.5t54.5 -11q94 0 164 86t70 209z" />
    <glyph glyph-name="c" unicode="c" horiz-adv-x="479" 
d="M395 87l10 -14q-3 -3 -7.5 -8.5t-21.5 -19t-36.5 -24t-50.5 -19t-64 -8.5q-86 0 -131 53.5t-45 147.5q0 122 70 202.5t187 80.5q69 0 103.5 -29t34.5 -81q0 -16 -3.5 -31.5t-6.5 -22.5l-4 -7q-15 -7 -43 -7l-5 7q13 26 13 61q0 83 -93 83q-88 0 -141 -75t-53 -181
q0 -166 136 -166q41 0 78.5 14.5t55.5 28.5z" />
    <glyph glyph-name="d" unicode="d" horiz-adv-x="550" 
d="M491 472l-48 -300q-7 -44 -10.5 -85.5t-2.5 -60.5v-19l-7 -7h-46q-4 56 12 153l12 74l-2 3q-4 -10 -12 -25.5t-34 -56.5t-52.5 -72t-66 -56.5t-77.5 -25.5q-53 0 -80.5 43.5t-27.5 118.5q0 139 86 230.5t211 91.5q56 0 89 -20l3 14q12 76 19.5 143.5t9.5 97.5l2 30l7 7
h47q-4 -106 -32 -278zM105 156q0 -125 73 -125q22 0 47.5 15t45 34.5t43 52.5t36 53.5t30.5 55t20 38.5t10 21l1 2v1l17 109q-23 37 -89 37q-94 0 -164 -85.5t-70 -208.5z" />
    <glyph glyph-name="e" unicode="e" horiz-adv-x="479" 
d="M389 87l10 -14q-3 -3 -8 -8.5t-22.5 -19t-36.5 -24t-50 -19t-63 -8.5q-85 0 -127.5 53t-42.5 141q0 128 77.5 209t188.5 81q69 0 96 -29.5t27 -66.5q0 -55 -52 -95t-124.5 -58t-153.5 -19v-20q0 -161 130 -161q41 0 78.5 14.5t55.5 28.5zM311 451q-77 0 -132.5 -59.5
t-67.5 -154.5q46 1 91 9t89 24t71.5 46t27.5 70q0 65 -79 65z" />
    <glyph glyph-name="f" unicode="f" horiz-adv-x="310" 
d="M61 -36l75 479h-84l3 17l86 13l24 155q21 129 122 129q29 0 52 -11t31 -22l8 -11l-15 -13q-20 26 -62 26q-67 0 -82 -95l-25 -159h138l-4 -29h-139l-73 -466q-7 -46 -27.5 -87t-44.5 -67t-47 -45t-38 -27l-15 -8l-11 13q4 3 11.5 8.5t27 25t35.5 41.5t32 58t22 75z" />
    <glyph glyph-name="g" unicode="g" horiz-adv-x="549" 
d="M359 -24l4 24l24 153l14 74l-2 3q-4 -10 -12 -25.5t-34 -56.5t-52.5 -72t-66 -56.5t-77.5 -25.5q-53 0 -80.5 43.5t-27.5 118.5q0 139 86 230.5t217 91.5q30 0 54.5 -5.5t38.5 -13t23 -15.5t12 -14l3 -5l-67 -425l-4 -24q-18 -107 -86 -169.5t-168 -62.5q-69 0 -113.5 30
t-44.5 80q0 13 3.5 26.5t6.5 20.5l4 7q15 7 44 7l5 -7q-13 -25 -13 -53q0 -39 31.5 -61.5t80.5 -22.5q76 0 128.5 56t68.5 149zM105 156q0 -125 73 -125q22 0 47.5 15t45 34.5t43 52.5t36 53.5t30.5 55t20 38.5t10 21l1 2v1l17 107q-2 4 -7 10.5t-27.5 17.5t-54.5 11
q-94 0 -164 -85.5t-70 -208.5z" />
    <glyph glyph-name="h" unicode="h" horiz-adv-x="558" 
d="M372 0l54 339q16 102 -54 102q-33 0 -69.5 -27.5t-63.5 -62.5t-53.5 -80t-37 -66.5t-16.5 -35.5v-1l-26 -168h-54l75 472q12 75 19.5 142.5t9.5 97.5l2 31l7 7h47q-4 -110 -31 -278l-14 -89l-25 -138l3 -3q4 10 12 25.5t34 56.5t53.5 72t68 56.5t80.5 25.5q50 0 73.5 -35
t12.5 -104l-53 -339h-54z" />
    <glyph glyph-name="i" unicode="i" horiz-adv-x="240" 
d="M138 625q0 19 12 31.5t31 12.5q14 0 22.5 -9t8.5 -23q0 -19 -12 -31.5t-31 -12.5q-31 0 -31 32zM53 0l48 300l22 165l7 7h47q-7 -72 -23 -172l-48 -300h-53z" />
    <glyph glyph-name="j" unicode="j" horiz-adv-x="240" 
d="M137 625q0 19 12 31.5t31 12.5q15 0 23.5 -9t8.5 -23q0 -19 -12.5 -31.5t-31.5 -12.5q-14 0 -22.5 9t-8.5 23zM48 -36l53 336l22 165l7 7h47q-7 -72 -23 -172l-51 -323q-7 -46 -27.5 -87t-44.5 -67t-47 -45t-38 -27l-15 -8l-11 13q4 3 11.5 8.5t27 25t35.5 41.5t32 58
t22 75z" />
    <glyph glyph-name="k" unicode="k" horiz-adv-x="458" 
d="M362 472h46q4 -6 4 -20q0 -30 -38 -70t-144 -116l39 -74q13 -25 43.5 -71t54.5 -79l24 -34l-1 -8h-57l-152 242h-37l-38 -242h-54l75 472q12 73 19.5 140.5t9.5 99.5l2 31l7 7h47q-5 -114 -31 -278l-33 -204l32 2q105 68 143 108.5t38 68.5q0 6 -1.5 11t-2.5 6l-1 2z" />
    <glyph glyph-name="l" unicode="l" horiz-adv-x="239" 
d="M52 0l75 472q12 75 19.5 142.5t9.5 97.5l2 31l7 7h47q-4 -110 -31 -278l-75 -472h-54z" />
    <glyph glyph-name="m" unicode="m" horiz-adv-x="808" 
d="M53 0l48 300q7 44 10.5 85.5t2.5 60.5v19l7 7h47q3 -55 -13 -153l-12 -74l2 -3q4 10 11 25.5t30.5 56.5t48 72t60.5 56.5t72 25.5q44 0 66 -35.5t11 -103.5l-14 -87q7 16 16.5 35.5t32.5 56t46.5 64t57.5 49t68 21.5q45 0 67 -35.5t11 -103.5l-54 -339h-53l54 339
q8 52 -6 76.5t-41 24.5q-28 0 -60 -27t-55 -59.5t-47.5 -78t-32.5 -62.5t-15 -34v-1l-28 -178h-53l53 339q8 52 -5.5 76.5t-40.5 24.5q-34 0 -73 -38t-69.5 -93t-46.5 -88t-23 -52v-1l-27 -168h-53z" />
    <glyph glyph-name="n" unicode="n" horiz-adv-x="559" 
d="M53 0l48 300q7 44 10.5 85.5t2.5 60.5v19l7 7h47q3 -55 -13 -153l-12 -74l2 -3q4 10 12 25.5t34.5 56.5t54 72t68 56.5t80.5 25.5q49 0 73 -35t13 -104l-53 -339h-54l54 339q16 102 -54 102q-33 0 -69.5 -27.5t-63.5 -61.5t-53.5 -79.5t-36.5 -66.5t-17 -36v-2l-27 -168
h-53z" />
    <glyph glyph-name="o" unicode="o" horiz-adv-x="539" 
d="M50 196q0 120 73 201t179 81q85 0 133.5 -54.5t48.5 -147.5q0 -120 -73.5 -201t-180.5 -81q-85 0 -132.5 54.5t-47.5 147.5zM107 185q0 -75 33.5 -119.5t94.5 -44.5q79 0 135 80.5t56 185.5q0 76 -34 120t-95 44q-79 0 -134.5 -80.5t-55.5 -185.5z" />
    <glyph glyph-name="p" unicode="p" horiz-adv-x="550" 
d="M14 -250l87 550q7 45 10.5 86t2.5 60v19l7 7h47q3 -55 -13 -153l-12 -74l2 -3q4 10 12.5 25.5t34 56.5t52.5 72t66.5 56.5t77.5 25.5q52 0 79.5 -44t27.5 -118q0 -138 -86 -230t-209 -92q-59 0 -91 21l-42 -265h-53zM439 316q0 125 -72 125q-31 0 -66.5 -27.5
t-61.5 -61.5t-52.5 -79.5t-36.5 -66.5t-17 -36v-2l-17 -108q2 -4 7 -10.5t27.5 -17.5t54.5 -11q94 0 164 86t70 209z" />
    <glyph glyph-name="q" unicode="q" horiz-adv-x="549" 
d="M323 -250l66 422l12 55l-2 3q-4 -10 -12 -25.5t-34 -56.5t-52.5 -72t-66 -56.5t-77.5 -25.5q-53 0 -80.5 43.5t-27.5 118.5q0 139 86 230.5t217 91.5q31 0 55.5 -5.5t38 -13t23 -15.5t12.5 -14l3 -5l-107 -675h-54zM106 156q0 -125 72 -125q39 0 81.5 38t76.5 95t50.5 88
t24.5 51l-12 -73l12 72v2l18 107q-2 4 -7 10.5t-28 17.5t-54 11q-95 0 -164.5 -85.5t-69.5 -208.5z" />
    <glyph glyph-name="r" unicode="r" horiz-adv-x="368" 
d="M53 0l48 300q7 44 10.5 85.5t2.5 60.5v19l7 7h47q3 -55 -13 -153l-12 -76l2 -3q1 0 11.5 24t30 59t44.5 70t60 60t71 25q2 -24 -3 -58l-8 -7q-11 9 -28 9q-19 0 -41 -16.5t-44 -49t-37.5 -56.5t-34.5 -64.5t-22 -46.5t-12 -26v-1l-26 -162h-53z" />
    <glyph glyph-name="s" unicode="s" horiz-adv-x="454" 
d="M133 363q0 -29 22.5 -48t92.5 -59q71 -39 97.5 -65t26.5 -67q0 -57 -47.5 -93.5t-134.5 -36.5q-74 0 -113 28t-39 79q0 15 3 29.5t7 21.5l3 7q16 7 43 7l6 -7q-13 -24 -13 -55q0 -39 27.5 -61t80.5 -22q59 0 92.5 26t33.5 66q0 33 -24.5 54t-90.5 55q-36 19 -53 29
t-36 26t-26.5 33.5t-7.5 40.5q0 55 44.5 91t127.5 36q69 0 103.5 -27t34.5 -75q0 -16 -3.5 -31.5t-6.5 -22.5l-3 -7q-15 -8 -42 -8l-6 8q12 25 12 57q0 79 -96 79q-55 0 -85 -25t-30 -63z" />
    <glyph glyph-name="t" unicode="t" horiz-adv-x="330" 
d="M50 443l3 17l80 21l37 115h34l-19 -124h132l-5 -29h-132l-53 -337q-12 -77 53 -77q19 0 37 6.5t26 13.5l8 7l11 -14q-5 -5 -13.5 -13t-37 -21.5t-58.5 -13.5q-45 0 -67 27.5t-13 79.5l54 342h-77z" />
    <glyph glyph-name="u" unicode="u" horiz-adv-x="556" 
d="M129 472h48q-6 -72 -22 -172l-26 -167q-16 -102 53 -102q39 0 81 35.5t77 92.5t50 85t28 57l1 2v1l25 161l7 7h48l-48 -300q-7 -44 -10.5 -85.5t-3.5 -60.5v-19l-6 -7h-47q-3 56 13 153l12 74l-3 3q-4 -10 -12 -25.5t-33.5 -56.5t-52.5 -72t-67.5 -56.5t-79.5 -25.5
q-49 0 -72.5 35t-12.5 104l26 167l21 165z" />
    <glyph glyph-name="v" unicode="v" horiz-adv-x="487" 
d="M408 472h38q5 -8 5 -33q0 -58 -48.5 -155.5t-178.5 -283.5h-40l-9 12l-65 288q-12 53 -24 94.5t-18 57.5l-6 15l5 5h56l96 -424q108 156 149 240.5t41 139.5q0 13 -1.5 22.5t-3.5 12.5l-2 3z" />
    <glyph glyph-name="w" unicode="w" horiz-adv-x="709" 
d="M433 12l-49 281q-49 -102 -175 -293h-37l-8 12l-58 288q-11 53 -22.5 94.5t-17.5 57.5l-5 15l5 5h56l85 -417q128 195 165 302q-7 34 -14.5 61.5t-11.5 37.5l-3 11l5 5h55l73 -417q104 152 143.5 235.5t39.5 137.5q0 13 -1.5 22.5t-3.5 12.5l-2 3l6 6h38q5 -8 6 -33
q0 -58 -48 -155t-178 -284h-35z" />
    <glyph glyph-name="x" unicode="x" horiz-adv-x="473" 
d="M67 0h-41q-4 8 -4 24q0 35 36.5 81.5t144.5 139.5l-27 55q-24 48 -47 89.5t-33 58.5l-11 17v7h62l104 -205q80 71 107 109t27 69l-4 21l6 6h41q4 -8 4 -24q0 -34 -32.5 -75t-135.5 -133l21 -40q33 -64 59 -112.5t36 -64.5l10 -16v-7h-63l-110 218q-86 -74 -116.5 -116
t-30.5 -75l3 -21z" />
    <glyph glyph-name="y" unicode="y" horiz-adv-x="484" 
d="M-58 -256q-8 0 -17 2t-14 4l-5 2q0 14 3.5 26.5t6.5 17.5l4 5q15 -9 33 -9q38 0 100 55.5t130 145.5l-73 307q-13 53 -25 95t-17 57l-6 15l5 5h56l97 -429q80 112 134.5 220.5t54.5 164.5l-6 38l6 6h37q6 -15 6 -34q0 -55 -59.5 -172t-140 -232t-169.5 -202.5t-141 -87.5
z" />
    <glyph glyph-name="z" unicode="z" horiz-adv-x="469" 
d="M19 19l355 423h-128q-47 0 -84.5 -3t-51.5 -7l-14 -3l-5 7l6 36h352l-3 -19l-355 -424h137q47 0 84 3.5t51 6.5l14 3l5 -6l-5 -36h-360z" />
    <glyph glyph-name="braceleft" unicode="{" horiz-adv-x="310" 
d="M86 7l39 163q14 56 -8 85t-73 29v4l3 16l1 8l1 4q51 0 82 29t35 85l12 163q6 80 50.5 121t123.5 41l-4 -31q-107 0 -116 -125l-12 -163q-7 -106 -97 -136q80 -31 54 -136l-39 -163q-30 -125 75 -125l-5 -31q-79 0 -110 41.5t-12 120.5z" />
    <glyph glyph-name="bar" unicode="|" horiz-adv-x="264" 
d="M147 -150h-31v900h31v-900z" />
    <glyph glyph-name="braceright" unicode="}" horiz-adv-x="311" 
d="M160 170l-11 -163q-6 -78 -50.5 -120t-123.5 -42l4 31q107 0 116 125l12 163q6 106 96 136q-78 30 -53 136l39 163q30 125 -75 125l5 31q79 0 110 -41t12 -121l-40 -163q-13 -56 9 -85t73 -29l-1 -4h1l-3 -13l-1 -11h-1v-4q-51 0 -82.5 -29t-35.5 -85z" />
    <glyph glyph-name="asciitilde" unicode="~" horiz-adv-x="450" 
d="M176 348q32 0 64 -31t60 -31q25 0 51 16t39 32l14 17l14 -18q-7 -9 -18.5 -22.5t-45.5 -36t-66 -22.5t-63 31t-58 31q-25 0 -51.5 -16t-40.5 -32l-14 -17l-14 18q2 3 6.5 8.5t18 19.5t28 24.5t35.5 19.5t41 9z" />
    <glyph glyph-name="exclamdown" unicode="&#xa1;" horiz-adv-x="235" 
d="M183 448q0 -17 -11.5 -28.5t-28.5 -11.5q-30 0 -30 30q0 17 11.5 28.5t28.5 11.5q30 0 30 -30zM143 280l-74 -509h-56l88 509h42z" />
    <glyph glyph-name="cent" unicode="&#xa2;" horiz-adv-x="482" 
d="M395 87l10 -14q-6 -8 -18.5 -20t-54 -33.5t-88.5 -24.5l-15 -95h-29l14 94q-80 4 -122.5 57.5t-42.5 143.5q0 116 65 196t175 86l16 95h29l-15 -94q62 -3 95 -32.5t33 -77.5q0 -16 -3.5 -31.5t-7.5 -22.5l-4 -7q-15 -7 -42 -7l-5 7q13 27 13 61q0 39 -24 61t-72 22
q-88 0 -141 -75t-53 -181q0 -166 136 -166q41 0 78.5 14.5t55.5 28.5z" />
    <glyph glyph-name="sterling" unicode="&#xa3;" horiz-adv-x="541" 
d="M110 482q0 104 60 164t170 60q90 0 135.5 -40.5t45.5 -112.5q0 -24 -5 -44.5t-10 -28.5l-4 -9q-18 -7 -48 -7l-5 7q19 32 19 85q0 59 -34 90.5t-97 31.5q-81 0 -126 -51.5t-45 -144.5q0 -47 24 -138h173l4 -6l-3 -25h-167q4 -17 4 -40q0 -57 -29 -116.5t-58 -90.5
l-29 -32h202q47 0 84 3t51 7l14 3l6 -7l-6 -40h-405l3 22q5 5 13 14t28.5 36.5t36 55t28.5 66t13 72.5q0 17 -6 47h-66l5 31h52q0 1 -7 21.5t-8.5 27t-5.5 24t-5.5 33t-1.5 32.5z" />
    <glyph glyph-name="currency" unicode="&#xa4;" horiz-adv-x="616" 
d="M127 300q0 66 42 116l-95 96l22 22l95 -96q51 43 117 43q67 0 116 -43l96 96l22 -22l-96 -96q43 -49 43 -116q0 -66 -43 -117l96 -95l-22 -22l-96 95q-50 -42 -116 -42q-65 0 -117 42l-95 -95l-22 22l95 95q-42 52 -42 117zM158 300q0 -62 44 -106t106 -44t106 44t44 106
t-44 106t-106 44t-106 -44t-44 -106z" />
    <glyph glyph-name="yen" unicode="&#xa5;" horiz-adv-x="586" 
d="M624 700l-293 -380l-3 -21h132l-4 -31h-133l-17 -105h133l-5 -31h-133l-20 -132h-55l20 132h-132l5 31h132l17 105h-132l5 31h132l2 16l-77 172q-26 56 -51 107.5t-37 75.5l-12 23l2 7h67l155 -346l264 346h38z" />
    <glyph glyph-name="brokenbar" unicode="&#xa6;" horiz-adv-x="264" 
d="M147 -150h-31v400h31v-400zM147 750v-400h-31v400h31z" />
    <glyph glyph-name="section" unicode="&#xa7;" horiz-adv-x="450" 
d="M171 592q0 -29 24 -51.5t58.5 -38.5t69.5 -33.5t59 -46t24 -67.5q0 -46 -32.5 -83t-90.5 -49q41 -21 63.5 -45t22.5 -60q0 -53 -48 -88.5t-134 -35.5q-72 0 -110.5 28t-38.5 79q0 15 3 29.5t7 21.5l3 6q16 7 43 7l5 -7q-12 -24 -12 -54q0 -39 27.5 -61t78.5 -22
q58 0 92 26t34 63q0 28 -24 49.5t-58.5 36.5t-69.5 32t-59 46t-24 69q0 46 30.5 83.5t86.5 50.5q-39 22 -59.5 45.5t-20.5 57.5q0 53 46 89.5t128 36.5q66 0 100.5 -27t34.5 -76q0 -16 -3 -30.5t-7 -21.5l-3 -7q-16 -9 -43 -9l-5 9q12 24 12 55q0 80 -94 80
q-53 0 -84.5 -25.5t-31.5 -61.5zM132 355q0 -38 27 -62t81 -49q54 2 86.5 32.5t32.5 70.5q0 20 -8.5 36.5t-29 30.5t-35.5 22.5t-45 22.5q-49 -3 -79 -33t-30 -71z" />
    <glyph glyph-name="dieresis" unicode="&#xa8;" horiz-adv-x="410" 
d="M135 601q0 15 10 25t25 10q26 0 26 -26q0 -16 -9.5 -26t-24.5 -10q-27 0 -27 27zM325 601q0 15 10.5 25t24.5 10q26 0 26 -26q0 -16 -9.5 -26t-25.5 -10q-26 0 -26 27z" />
    <glyph glyph-name="copyright" unicode="&#xa9;" horiz-adv-x="868" 
d="M78 350q0 148 104 252t252 104t252 -104t104 -252t-104 -252t-252 -104t-252 104t-104 252zM109 350q0 -135 95 -230t230 -95t230 95t95 230t-95 230t-230 95t-230 -95t-95 -230zM472 511q-62 0 -103.5 -54.5t-41.5 -133.5q0 -61 27 -93.5t78 -32.5q28 0 55.5 9.5
t40.5 19.5l13 10l7 -8q-5 -6 -15 -15.5t-44 -25.5t-71 -16q-63 0 -99 40.5t-36 109.5q0 88 54.5 148t137.5 60q51 0 79 -23.5t28 -62.5q0 -12 -3 -22t-5 -14l-3 -4q-14 -4 -35 -4l-4 4q10 15 10 43q0 31 -18 48t-52 17z" />
    <glyph glyph-name="ordfeminine" unicode="&#xaa;" horiz-adv-x="287" 
d="M307 677l-20 -127q-2 -14 -3.5 -27.5t-2 -23.5t-0.5 -17.5v-11.5v-3l-4 -4h-33q-2 27 5 71l5 33l-1 3q-2 -4 -6 -11.5t-16 -26.5t-25 -33.5t-32 -26.5t-37 -12q-27 0 -41 22.5t-14 59.5q0 70 43.5 115.5t112.5 45.5q25 0 42 -6.5t22 -12.5zM121 541q0 -58 32 -58
q23 0 49.5 31.5t41.5 63.5l16 32l9 59q-8 18 -40 18q-43 0 -75.5 -43t-32.5 -103z" />
    <glyph glyph-name="guillemotleft" unicode="&#xab;" horiz-adv-x="431" 
d="M240 449l4 -6l-4 -24l-144 -144l99 -144l-4 -24l-7 -6l-135 167l2 14zM403 449l5 -6l-4 -24l-146 -144l100 -144l-4 -24l-6 -6l-136 167l2 14z" />
    <glyph glyph-name="logicalnot" unicode="&#xac;" 
d="M107 359v32h384v-184h-31v152h-353z" />
    <glyph glyph-name="uni00AD" unicode="&#xad;" horiz-adv-x="361" 
d="M74 260v31h213v-31h-213z" />
    <glyph glyph-name="registered" unicode="&#xae;" horiz-adv-x="868" 
d="M78 350q0 148 104 252t252 104t252 -104t104 -252t-104 -252t-252 -104t-252 104t-104 252zM109 350q0 -135 95 -230t230 -95t230 95t95 230t-95 230t-230 95t-230 -95t-95 -230zM305 175l56 350h102q49 0 76 -22t27 -63q0 -39 -25 -66.5t-68 -37.5l30 -74
q10 -25 19.5 -46t14.5 -30l5 -8l-2 -3h-44l-63 157h-63l-24 -157h-41zM453 506h-55l-25 -155h56q42 0 68 24.5t26 64.5q0 66 -70 66z" />
    <glyph glyph-name="macron" unicode="&#xaf;" horiz-adv-x="271" 
d="M86 596l5 31h208l-5 -31h-208z" />
    <glyph glyph-name="degree" unicode="&#xb0;" horiz-adv-x="280" 
d="M101 586q0 51 32 85t79 34q37 0 58 -22.5t21 -62.5q0 -51 -31.5 -86t-78.5 -35q-37 0 -58.5 23.5t-21.5 63.5zM132 592q0 -27 14.5 -44t39.5 -17q30 0 52 24.5t22 58.5q0 27 -14.5 43.5t-38.5 16.5q-31 0 -53 -23.5t-22 -58.5z" />
    <glyph glyph-name="plusminus" unicode="&#xb1;" 
d="M107 334v32h177v176h31v-176h176v-32h-176v-176h-31v176h-177zM107 54v32h384v-32h-384z" />
    <glyph glyph-name="twosuperior" unicode="&#xb2;" horiz-adv-x="285" 
d="M311 625q0 -33 -23 -71t-48.5 -63.5t-65 -55t-51 -36.5t-27.5 -17h101q24 0 43 2t26 4l8 3l3 -4l-5 -37h-225l3 20l24 16t52.5 40t66.5 59.5t53 69t24 72.5q0 59 -61 59q-36 0 -58.5 -23t-22.5 -63l1 -15l-4 -5l-35 5q-1 4 -1 15q0 45 33.5 74.5t90.5 29.5
q47 0 72.5 -21.5t25.5 -57.5z" />
    <glyph glyph-name="threesuperior" unicode="&#xb3;" horiz-adv-x="302" 
d="M165 364q42 0 66.5 26t24.5 67q0 62 -58 62h-30l-2 4l3 18h23q37 0 57.5 23t20.5 63q0 59 -57 59q-36 0 -58.5 -21t-22.5 -58l1 -14l-4 -4l-34 4q-2 5 -2 15q0 42 33.5 69t90.5 27q93 0 93 -77q0 -76 -72 -96q60 -11 60 -74q0 -51 -36.5 -81t-98.5 -30q-50 0 -76 21
t-26 57q0 11 2.5 20.5t4.5 13.5l3 3q13 4 35 4l4 -4q-11 -14 -11 -39q0 -58 66 -58z" />
    <glyph glyph-name="acute" unicode="&#xb4;" horiz-adv-x="232" 
d="M107 566l-5 6l106 137q14 0 24.5 -2t14.5 -4l4 -2l-1 -6l-123 -129h-20z" />
    <glyph glyph-name="paragraph" unicode="&#xb6;" horiz-adv-x="566" 
d="M223 -36l54 340q-84 0 -131 43.5t-47 125.5q0 101 67.5 164t173.5 63h43l-115 -723q-7 -46 -26.5 -87t-42 -67t-44 -45t-35.5 -27l-14 -8l-10 13q4 3 11.5 8.5t27 25t35.5 41.5t31.5 58t21.5 75zM382 0l111 700h43l-111 -700h-43z" />
    <glyph glyph-name="periodcentered" unicode="&#xb7;" horiz-adv-x="175" 
d="M60 295q0 17 11.5 28.5t28.5 11.5q30 0 30 -30q0 -17 -11.5 -28.5t-28.5 -11.5q-30 0 -30 30z" />
    <glyph glyph-name="cedilla" unicode="&#xb8;" horiz-adv-x="208" 
d="M29 -70l22 70h25l-17 -54q23 0 37 -14t14 -38q0 -30 -22 -49t-54 -19q-20 0 -34.5 8.5t-19.5 17.5l-4 8l13 12q14 -19 44 -19q20 0 32 10.5t12 28.5q0 32 -44 32z" />
    <glyph glyph-name="onesuperior" unicode="&#xb9;" horiz-adv-x="215" 
d="M130 350l50 314q-46 -35 -89 -35q-2 6 0 17l4 4q23 0 51 12.5t45 25.5l17 12h16l-55 -350h-39z" />
    <glyph glyph-name="ordmasculine" unicode="&#xba;" horiz-adv-x="283" 
d="M83 562q0 60 37.5 100.5t92.5 40.5q44 0 69.5 -27.5t25.5 -74.5q0 -60 -38 -100.5t-93 -40.5q-44 0 -69 27.5t-25 74.5zM122 552q0 -36 15.5 -56.5t42.5 -20.5q36 0 62 42t26 94q0 36 -15 56t-43 20q-36 0 -62 -42t-26 -93z" />
    <glyph glyph-name="guillemotright" unicode="&#xbb;" horiz-adv-x="431" 
d="M84 443l6 6l136 -167l-2 -14l-189 -167l-5 6l4 24l145 144l-99 144zM247 443l6 6l136 -167l-2 -14l-189 -167l-4 6l3 24l145 144l-98 144z" />
    <glyph glyph-name="onequarter" unicode="&#xbc;" horiz-adv-x="738" 
d="M445 77l1 10l222 263h19l-41 -253h47l-3 -20h-47l-12 -77h-38l12 77h-160zM187 -25h-36l432 750h36zM130 350l50 314q-46 -35 -89 -35q-2 6 0 17l4 4q23 0 51 12.5t45 25.5l17 12h16l-55 -350h-39zM478 97h130l30 191z" />
    <glyph glyph-name="onehalf" unicode="&#xbd;" horiz-adv-x="752" 
d="M187 -25h-36l432 750h36zM728 275q0 -33 -23 -71t-48.5 -63.5t-65 -55t-51 -36.5t-27.5 -17h101q24 0 43 2t27 4l7 3l3 -4l-5 -37h-225l3 20l24 16t52.5 40t66.5 59.5t53 69t24 72.5q0 59 -61 59q-36 0 -58.5 -23t-22.5 -63l1 -15l-4 -5l-34 5q-2 4 -2 15q0 45 33.5 74.5
t90.5 29.5q47 0 72.5 -21.5t25.5 -57.5zM130 350l50 314q-46 -35 -89 -35q-2 6 0 17l4 4q23 0 51 12.5t45 25.5l17 12h16l-55 -350h-39z" />
    <glyph glyph-name="threequarters" unicode="&#xbe;" horiz-adv-x="826" 
d="M532 77l2 10l221 263h19l-41 -253h47l-3 -20h-47l-12 -77h-38l12 77h-160zM274 -25h-36l432 750h36zM165 364q42 0 66.5 26t24.5 67q0 62 -58 62h-30l-2 4l3 18h23q37 0 57.5 23t20.5 63q0 59 -57 59q-36 0 -58.5 -21t-22.5 -58l1 -14l-4 -4l-34 4q-2 5 -2 15
q0 42 33.5 69t90.5 27q93 0 93 -77q0 -76 -72 -96q60 -11 60 -74q0 -51 -36.5 -81t-98.5 -30q-50 0 -76 21t-26 57q0 11 2.5 20.5t4.5 13.5l3 3q13 4 35 4l4 -4q-11 -14 -11 -39q0 -58 66 -58zM566 97h129l30 191z" />
    <glyph glyph-name="questiondown" unicode="&#xbf;" horiz-adv-x="502" 
d="M317 445q-4 -37 -39 -37q-29 0 -29 30q0 17 11 28.5t29 11.5q31 0 28 -33zM1 -75q2 45 22.5 86.5t53.5 71.5t68 52t73 36l18 109h42l-19 -137q-8 -2 -21.5 -7t-48.5 -23.5t-61.5 -41.5t-48.5 -63.5t-22 -88.5q0 -57 31.5 -91.5t94.5 -34.5q71 0 118 45t47 124l-2 27l8 7
q13 0 24 -2t16 -4l5 -1q3 -8 3 -27q0 -86 -61 -141.5t-162 -55.5q-90 0 -135 45t-43 115z" />
    <glyph glyph-name="Agrave" unicode="&#xc0;" horiz-adv-x="651" 
d="M142 215l-117 -215h-35l371 680l-4 13l1 7h61l162 -700h-57l-50 215h-332zM402 528q-19 80 -29 113l-214 -395h308zM435 780l-7 -6h-21l-81 129l1 6q15 8 46 8z" />
    <glyph glyph-name="Aacute" unicode="&#xc1;" horiz-adv-x="651" 
d="M142 215l-117 -215h-35l371 680l-4 13l1 7h61l162 -700h-57l-50 215h-332zM402 528q-19 80 -29 113l-214 -395h308zM383 774l-5 6l106 137q13 0 23.5 -2t14.5 -4l4 -2l-1 -6l-122 -129h-20z" />
    <glyph glyph-name="Acircumflex" unicode="&#xc2;" horiz-adv-x="651" 
d="M142 215l-117 -215h-35l371 680l-4 13l1 7h61l162 -700h-57l-50 215h-332zM402 528q-19 80 -29 113l-214 -395h308zM523 780l-7 -6h-23l-71 102l-103 -102h-23l-5 6l130 137h16z" />
    <glyph glyph-name="Atilde" unicode="&#xc3;" horiz-adv-x="651" 
d="M142 215l-117 -215h-35l371 680l-4 13l1 7h61l162 -700h-57l-50 215h-332zM402 528q-19 80 -29 113l-214 -395h308zM377 854q23 0 43.5 -18t38.5 -18t35 10t26 20l8 9l10 -13q-4 -7 -11 -17t-30.5 -26.5t-48.5 -16.5q-22 0 -42.5 18t-38.5 18t-35.5 -10t-25.5 -20l-9 -9
l-10 13q4 7 11 17t30.5 26.5t48.5 16.5z" />
    <glyph glyph-name="Adieresis" unicode="&#xc4;" horiz-adv-x="651" 
d="M142 215l-117 -215h-35l371 680l-4 13l1 7h61l162 -700h-57l-50 215h-332zM402 528q-19 80 -29 113l-214 -395h308zM477 809q0 15 10 25.5t25 10.5q26 0 26 -27q0 -16 -10 -26t-25 -10q-26 0 -26 27zM287 809q0 15 10 25.5t25 10.5q26 0 26 -27q0 -16 -10 -26t-25 -10
q-26 0 -26 27z" />
    <glyph glyph-name="Aring" unicode="&#xc5;" horiz-adv-x="651" 
d="M142 215l-117 -215h-35l371 680l-4 13l1 7h61l162 -700h-57l-50 215h-332zM402 528q-19 80 -29 113l-214 -395h308zM347 832q0 37 24 62t58 25q28 0 43 -17t15 -46q0 -38 -23.5 -63.5t-58.5 -25.5q-27 0 -42.5 17.5t-15.5 47.5zM376 836q0 -18 9.5 -29t24.5 -11
q20 0 34.5 16t14.5 39q0 18 -9.5 28.5t-25.5 10.5q-20 0 -34 -15.5t-14 -38.5z" />
    <glyph glyph-name="AE" unicode="&#xc6;" horiz-adv-x="789" 
d="M-10 0l414 700h384l-7 -37l-7 -6q-40 13 -145 13h-164l-48 -299h264l4 -5l-4 -26h-269l-49 -310h173q47 0 84.5 3t51.5 7l14 3l5 -6l-6 -37h-382l34 219h-183l-129 -219h-35zM172 250h170l63 397z" />
    <glyph glyph-name="Ccedilla" unicode="&#xc7;" horiz-adv-x="676" 
d="M300 -70l20 65q-116 4 -181 83t-65 213q0 176 105.5 295.5t268.5 119.5q99 0 151.5 -46t52.5 -124q0 -24 -5 -43t-10 -27l-5 -7q-18 -6 -48 -6l-5 6q19 29 19 81q0 65 -40.5 101.5t-114.5 36.5q-134 0 -221 -111t-87 -273q0 -125 56.5 -193.5t162.5 -68.5q57 0 112 20
t81 40l26 20l11 -15l-10.5 -10.5t-30 -24t-49 -31t-66.5 -25t-83 -12.5l-15 -48q22 0 36 -14t14 -38q0 -30 -21.5 -49t-53.5 -19q-20 0 -34.5 8.5t-18.5 17.5l-5 8l13 12q13 -19 43 -19q20 0 32 10.5t12 28.5q0 32 -43 32z" />
    <glyph glyph-name="Egrave" unicode="&#xc8;" horiz-adv-x="562" 
d="M61 0l111 700h389l-5 -37l-7 -6q-41 13 -146 13h-180l-48 -299h280l5 -5l-4 -26h-286l-49 -310h190q47 0 84 3t51 7l14 3l5 -6l-5 -37h-399zM417 780l-6 -6h-21l-81 129l1 6q15 8 46 8z" />
    <glyph glyph-name="Eacute" unicode="&#xc9;" horiz-adv-x="562" 
d="M61 0l111 700h389l-5 -37l-7 -6q-41 13 -146 13h-180l-48 -299h280l5 -5l-4 -26h-286l-49 -310h190q47 0 84 3t51 7l14 3l5 -6l-5 -37h-399zM348 774l-4 6l105 137q14 0 24.5 -2t14.5 -4l4 -2l-1 -6l-123 -129h-20z" />
    <glyph glyph-name="Ecircumflex" unicode="&#xca;" horiz-adv-x="562" 
d="M61 0l111 700h389l-5 -37l-7 -6q-41 13 -146 13h-180l-48 -299h280l5 -5l-4 -26h-286l-49 -310h190q47 0 84 3t51 7l14 3l5 -6l-5 -37h-399zM497 780l-7 -6h-23l-71 102l-104 -102h-22l-5 6l129 137h16z" />
    <glyph glyph-name="Edieresis" unicode="&#xcb;" horiz-adv-x="562" 
d="M61 0l111 700h389l-5 -37l-7 -6q-41 13 -146 13h-180l-48 -299h280l5 -5l-4 -26h-286l-49 -310h190q47 0 84 3t51 7l14 3l5 -6l-5 -37h-399zM449 801q0 15 10 25t25 10q26 0 26 -26q0 -16 -10 -26t-26 -10q-25 0 -25 27zM259 801q0 15 10 25t25 10q26 0 26 -26
q0 -16 -10 -26t-25 -10q-26 0 -26 27z" />
    <glyph glyph-name="Igrave" unicode="&#xcc;" horiz-adv-x="258" 
d="M61 0l111 700h56l-111 -700h-56zM240 780l-6 -6h-21l-81 129l1 6q15 8 46 8z" />
    <glyph glyph-name="Iacute" unicode="&#xcd;" horiz-adv-x="258" 
d="M61 0l111 700h56l-111 -700h-56zM189 774l-5 6l106 137q13 0 23.5 -2t14.5 -4l4 -2l-1 -6l-122 -129h-20z" />
    <glyph glyph-name="Icircumflex" unicode="&#xce;" horiz-adv-x="258" 
d="M61 0l111 700h56l-111 -700h-56zM329 780l-7 -6h-23l-71 102l-103 -102h-23l-5 6l129 137h17z" />
    <glyph glyph-name="Idieresis" unicode="&#xcf;" horiz-adv-x="258" 
d="M61 0l111 700h56l-111 -700h-56zM92 809q0 15 10 25.5t25 10.5q26 0 26 -27q0 -16 -9.5 -26t-24.5 -10q-27 0 -27 27zM282 809q0 15 10 25.5t25 10.5q26 0 26 -27q0 -16 -9.5 -26t-25.5 -10q-26 0 -26 27z" />
    <glyph glyph-name="Eth" unicode="&#xd0;" horiz-adv-x="704" 
d="M50 344l5 31h65l52 325h232q119 0 188 -79t69 -214q0 -172 -106.5 -289.5t-261.5 -117.5h-232l54 344h-65zM397 669h-174l-47 -294h159l-5 -31h-159l-49 -313h174q129 0 217 108.5t88 269.5q0 121 -54.5 190.5t-149.5 69.5z" />
    <glyph glyph-name="Ntilde" unicode="&#xd1;" horiz-adv-x="706" 
d="M61 0l67 420q13 80 21 148t9 96l2 29l7 7h22l357 -603l96 603h33l-111 -700h-18l-357 602l-96 -602h-32zM407 854q22 0 42.5 -18t38.5 -18t35.5 10t26.5 20l8 9l10 -13q-4 -7 -11 -17t-30.5 -26.5t-48.5 -16.5q-23 0 -43 18t-38 18t-35.5 -10t-25.5 -20l-9 -9l-10 13
q4 7 11 17t30.5 26.5t48.5 16.5z" />
    <glyph glyph-name="Ograve" unicode="&#xd2;" horiz-adv-x="743" 
d="M74 289q0 176 106.5 296.5t259.5 120.5q121 0 190 -79.5t69 -216.5q0 -176 -106.5 -296t-260.5 -120q-121 0 -189.5 79.5t-68.5 215.5zM134 285q0 -123 53 -193t150 -70q127 0 214.5 113.5t87.5 280.5q0 123 -53.5 192.5t-149.5 69.5q-126 0 -214 -113.5t-88 -279.5z
M483 780l-6 -6h-21l-81 129l1 6q14 8 45 8z" />
    <glyph glyph-name="Oacute" unicode="&#xd3;" horiz-adv-x="743" 
d="M74 289q0 176 106.5 296.5t259.5 120.5q121 0 190 -79.5t69 -216.5q0 -176 -106.5 -296t-260.5 -120q-121 0 -189.5 79.5t-68.5 215.5zM134 285q0 -123 53 -193t150 -70q127 0 214.5 113.5t87.5 280.5q0 123 -53.5 192.5t-149.5 69.5q-126 0 -214 -113.5t-88 -279.5z
M431 774l-4 6l105 137q14 0 24.5 -2t14.5 -4l4 -2l-1 -6l-123 -129h-20z" />
    <glyph glyph-name="Ocircumflex" unicode="&#xd4;" horiz-adv-x="743" 
d="M74 289q0 176 106.5 296.5t259.5 120.5q121 0 190 -79.5t69 -216.5q0 -176 -106.5 -296t-260.5 -120q-121 0 -189.5 79.5t-68.5 215.5zM134 285q0 -123 53 -193t150 -70q127 0 214.5 113.5t87.5 280.5q0 123 -53.5 192.5t-149.5 69.5q-126 0 -214 -113.5t-88 -279.5z
M572 780l-8 -6h-22l-72 102l-103 -102h-23l-5 6l130 137h16z" />
    <glyph glyph-name="Otilde" unicode="&#xd5;" horiz-adv-x="743" 
d="M74 289q0 176 106.5 296.5t259.5 120.5q121 0 190 -79.5t69 -216.5q0 -176 -106.5 -296t-260.5 -120q-121 0 -189.5 79.5t-68.5 215.5zM134 285q0 -123 53 -193t150 -70q127 0 214.5 113.5t87.5 280.5q0 123 -53.5 192.5t-149.5 69.5q-126 0 -214 -113.5t-88 -279.5z
M425 854q23 0 43 -18t38 -18t35.5 10t26.5 20l8 9l10 -13q-4 -7 -11 -17t-30.5 -26.5t-48.5 -16.5q-23 0 -43 18t-38 18t-35.5 -10t-25.5 -20l-9 -9l-10 13q4 7 11 17t30.5 26.5t48.5 16.5z" />
    <glyph glyph-name="Odieresis" unicode="&#xd6;" horiz-adv-x="743" 
d="M74 289q0 176 106.5 296.5t259.5 120.5q121 0 190 -79.5t69 -216.5q0 -176 -106.5 -296t-260.5 -120q-121 0 -189.5 79.5t-68.5 215.5zM134 285q0 -123 53 -193t150 -70q127 0 214.5 113.5t87.5 280.5q0 123 -53.5 192.5t-149.5 69.5q-126 0 -214 -113.5t-88 -279.5z
M334 809q0 15 10 25.5t25 10.5q26 0 26 -27q0 -16 -9.5 -26t-24.5 -10q-27 0 -27 27zM524 809q0 15 10 25.5t25 10.5q26 0 26 -27q0 -16 -9.5 -26t-25.5 -10q-26 0 -26 27z" />
    <glyph glyph-name="multiply" unicode="&#xd7;" 
d="M127 131l-22 22l172 172l-172 172l22 22l172 -172l172 172l22 -22l-172 -172l172 -172l-22 -22l-172 172z" />
    <glyph glyph-name="Oslash" unicode="&#xd8;" horiz-adv-x="742" 
d="M151 -25h-34l50 74q-93 79 -93 240q0 176 106.5 296.5t259.5 120.5q82 0 143 -39l39 58h34l-50 -75q93 -78 93 -240q0 -176 -106.5 -296t-260.5 -120q-84 0 -142 38zM133 285q0 -130 58 -200l370 549q-52 44 -125 44q-127 0 -215 -113.5t-88 -279.5zM640 415
q0 128 -59 199l-369 -549q49 -43 125 -43q127 0 215 113.5t88 279.5z" />
    <glyph glyph-name="Ugrave" unicode="&#xd9;" horiz-adv-x="678" 
d="M553 257l70 443h31l-70 -443q-18 -115 -97.5 -189t-190.5 -74q-110 0 -164.5 73.5t-36.5 189.5l70 443h55l-71 -449q-16 -99 29 -162t134 -63q90 0 157 64.5t84 166.5zM452 780l-6 -6h-21l-81 129l1 6q15 8 46 8z" />
    <glyph glyph-name="Uacute" unicode="&#xda;" horiz-adv-x="678" 
d="M553 257l70 443h31l-70 -443q-18 -115 -97.5 -189t-190.5 -74q-110 0 -164.5 73.5t-36.5 189.5l70 443h55l-71 -449q-16 -99 29 -162t134 -63q90 0 157 64.5t84 166.5zM402 774l-5 6l105 137q14 0 24.5 -2t14.5 -4l4 -2l-1 -6l-122 -129h-20z" />
    <glyph glyph-name="Ucircumflex" unicode="&#xdb;" horiz-adv-x="678" 
d="M553 257l70 443h31l-70 -443q-18 -115 -97.5 -189t-190.5 -74q-110 0 -164.5 73.5t-36.5 189.5l70 443h55l-71 -449q-16 -99 29 -162t134 -63q90 0 157 64.5t84 166.5zM541 780l-7 -6h-23l-71 102l-103 -102h-23l-5 6l129 137h17z" />
    <glyph glyph-name="Udieresis" unicode="&#xdc;" horiz-adv-x="678" 
d="M553 257l70 443h31l-70 -443q-18 -115 -97.5 -189t-190.5 -74q-110 0 -164.5 73.5t-36.5 189.5l70 443h55l-71 -449q-16 -99 29 -162t134 -63q90 0 157 64.5t84 166.5zM305 809q0 15 10 25.5t25 10.5q26 0 26 -27q0 -16 -10 -26t-25 -10q-26 0 -26 27zM495 809
q0 15 10 25.5t25 10.5q26 0 26 -27q0 -16 -10 -26t-26 -10q-25 0 -25 27z" />
    <glyph glyph-name="Yacute" unicode="&#xdd;" horiz-adv-x="586" 
d="M624 700l-293 -380l-50 -320h-55l49 316l-77 171q-26 56 -51 107.5t-37 75.5l-12 23l2 7h67l155 -346l264 346h38zM345 774l-5 6l105 137q14 0 24.5 -2t14.5 -4l4 -2l-1 -6l-122 -129h-20z" />
    <glyph glyph-name="Thorn" unicode="&#xde;" horiz-adv-x="576" 
d="M61 0l111 700h56l-23 -142h143q90 0 140.5 -44.5t50.5 -127.5q0 -100 -70.5 -162t-183.5 -62h-143l-25 -162h-56zM334 527h-134l-53 -334h134q89 0 145 53t56 138q0 70 -39 106.5t-109 36.5z" />
    <glyph glyph-name="germandbls" unicode="&#xdf;" horiz-adv-x="547" 
d="M47 -36l95 604q30 189 197 189q133 0 133 -125q0 -37 -9.5 -69t-22.5 -51t-26 -33.5t-22 -20.5l-10 -5q-37 0 -63.5 -28t-26.5 -69q0 -30 20 -49.5t71 -49.5q54 -33 75 -56t21 -64q0 -68 -40.5 -105.5t-118.5 -37.5q-27 0 -50 6t-36.5 15t-23.5 18t-14 15l-4 6
q1 11 7 20.5t11 13.5l5 4h7q1 -3 3 -7.5t10.5 -16.5t19 -21t29 -16.5t40.5 -7.5q49 0 77.5 27t28.5 71q0 17 -5 29.5t-19.5 25.5t-26 20t-39.5 24q-49 27 -72.5 52t-23.5 67q0 33 11 59t27 40.5t32 24t27 12.5l11 3q2 1 8.5 5.5t17.5 16.5t20.5 27.5t16.5 42t7 57.5
q0 99 -89 99q-112 0 -137 -155l-94 -594q-7 -46 -27.5 -87t-44.5 -67t-47 -45t-38 -27l-15 -8l-10 13q4 3 11.5 8.5t26.5 25t35 41.5t32 58t22 75z" />
    <glyph glyph-name="agrave" unicode="&#xe0;" horiz-adv-x="550" 
d="M483 425l-40 -253q-7 -44 -10.5 -85.5t-2.5 -60.5v-19l-7 -7h-46q-4 56 12 153l12 74l-2 3q-4 -10 -12 -25.5t-34 -56.5t-52.5 -72t-66 -56.5t-77.5 -25.5q-53 0 -80.5 43.5t-27.5 118.5q0 139 86 230.5t217 91.5q30 0 54.5 -5.5t38.5 -13t23 -15.5t12 -14zM105 156
q0 -125 73 -125q39 0 81.5 38.5t76.5 95t50.5 88t24.5 50.5l-12 -73l12 72v2l17 107q-2 4 -7 10.5t-27.5 17.5t-54.5 11q-94 0 -164 -85.5t-70 -208.5zM369 572l-6 -6h-21l-82 129l2 6q14 8 45 8z" />
    <glyph glyph-name="aacute" unicode="&#xe1;" horiz-adv-x="550" 
d="M483 425l-40 -253q-7 -44 -10.5 -85.5t-2.5 -60.5v-19l-7 -7h-46q-4 56 12 153l12 74l-2 3q-4 -10 -12 -25.5t-34 -56.5t-52.5 -72t-66 -56.5t-77.5 -25.5q-53 0 -80.5 43.5t-27.5 118.5q0 139 86 230.5t217 91.5q30 0 54.5 -5.5t38.5 -13t23 -15.5t12 -14zM411 304
l17 107q-2 4 -7 10.5t-27.5 17.5t-54.5 11q-94 0 -164 -85.5t-70 -208.5q0 -125 73 -125q22 0 47.5 15t45 34.5t43 52.5t36 53.5t30.5 55t20 38.5t10 21l-11 -71l12 72v2zM305 566l-5 6l106 137q14 0 24.5 -2t14.5 -4l4 -2l-1 -6l-123 -129h-20zM411 303l-1 -2l1 1v1z" />
    <glyph glyph-name="acircumflex" unicode="&#xe2;" horiz-adv-x="550" 
d="M483 425l-40 -253q-7 -44 -10.5 -85.5t-2.5 -60.5v-19l-7 -7h-46q-4 56 12 153l12 74l-2 3q-4 -10 -12 -25.5t-34 -56.5t-52.5 -72t-66 -56.5t-77.5 -25.5q-53 0 -80.5 43.5t-27.5 118.5q0 139 86 230.5t217 91.5q30 0 54.5 -5.5t38.5 -13t23 -15.5t12 -14zM105 156
q0 -125 73 -125q39 0 81.5 38.5t76.5 95t50.5 88t24.5 50.5l-12 -73l12 72v2l17 107q-2 4 -7 10.5t-27.5 17.5t-54.5 11q-94 0 -164 -85.5t-70 -208.5zM461 572l-7 -6h-23l-71 101l-103 -101h-23l-5 6l129 137h17z" />
    <glyph glyph-name="atilde" unicode="&#xe3;" horiz-adv-x="550" 
d="M483 425l-40 -253q-7 -44 -10.5 -85.5t-2.5 -60.5v-19l-7 -7h-46q-4 56 12 153l12 74l-2 3q-4 -10 -12 -25.5t-34 -56.5t-52.5 -72t-66 -56.5t-77.5 -25.5q-53 0 -80.5 43.5t-27.5 118.5q0 139 86 230.5t217 91.5q30 0 54.5 -5.5t38.5 -13t23 -15.5t12 -14zM105 156
q0 -125 73 -125q22 0 47.5 15t45 34.5t43 52.5t36 53.5t30.5 55t20 38.5t10 21l1 2v1l17 107q-2 4 -7 10.5t-27.5 17.5t-54.5 11q-94 0 -164 -85.5t-70 -208.5zM310 646q22 0 42.5 -18t38.5 -18t35.5 10t25.5 20l9 9l9 -13q-4 -7 -11 -17t-30.5 -26.5t-48.5 -16.5
q-22 0 -42.5 18t-38.5 18t-35 -10t-26 -20l-8 -9l-11 13q1 2 4 6.5t12 14.5t18.5 18t25 14.5t31.5 6.5z" />
    <glyph glyph-name="adieresis" unicode="&#xe4;" horiz-adv-x="550" 
d="M483 425l-40 -253q-7 -44 -10.5 -85.5t-2.5 -60.5v-19l-7 -7h-46q-4 56 12 153l12 74l-2 3q-4 -10 -12 -25.5t-34 -56.5t-52.5 -72t-66 -56.5t-77.5 -25.5q-53 0 -80.5 43.5t-27.5 118.5q0 139 86 230.5t217 91.5q30 0 54.5 -5.5t38.5 -13t23 -15.5t12 -14zM105 156
q0 -125 73 -125q22 0 47.5 15t45 34.5t43 52.5t36 53.5t30.5 55t20 38.5t10 21l1 2v1l17 107q-2 4 -7 10.5t-27.5 17.5t-54.5 11q-94 0 -164 -85.5t-70 -208.5zM410 601q0 15 10 25t24 10q27 0 27 -26q0 -16 -10 -26t-26 -10q-25 0 -25 27zM220 601q0 15 10 25t24 10
q27 0 27 -26q0 -16 -10 -26t-25 -10q-26 0 -26 27z" />
    <glyph glyph-name="aring" unicode="&#xe5;" horiz-adv-x="550" 
d="M483 425l-40 -253q-7 -44 -10.5 -85.5t-2.5 -60.5v-19l-7 -7h-46q-4 56 12 153l12 74l-2 3q-4 -10 -12 -25.5t-34 -56.5t-52.5 -72t-66 -56.5t-77.5 -25.5q-53 0 -80.5 43.5t-27.5 118.5q0 139 86 230.5t217 91.5q30 0 54.5 -5.5t38.5 -13t23 -15.5t12 -14zM105 156
q0 -125 73 -125q39 0 81.5 38.5t76.5 95t50.5 88t24.5 50.5l-12 -73l12 72v2l17 107q-2 4 -7 10.5t-27.5 17.5t-54.5 11q-94 0 -164 -85.5t-70 -208.5zM275 624q0 37 24 62t58 25q28 0 43 -17t15 -46q0 -38 -23.5 -63.5t-58.5 -25.5q-28 0 -43 17.5t-15 47.5zM303 628
q0 -17 9.5 -28.5t25.5 -11.5q20 0 34.5 16t14.5 39q0 18 -9.5 28.5t-25.5 10.5q-20 0 -34.5 -16t-14.5 -38z" />
    <glyph glyph-name="ae" unicode="&#xe6;" horiz-adv-x="768" 
d="M693 87l10 -14q-3 -3 -7.5 -8.5t-22 -19t-37 -24t-50.5 -19t-64 -8.5q-120 0 -166 98q-15 -17 -37.5 -35.5t-72 -40.5t-98.5 -22q-107 0 -107 100q0 57 40 95t137 51l124 17l4 19l12 73q17 102 -81 102q-59 0 -96 -35.5t-37 -91.5l1 -18l-8 -7q-12 0 -22 1.5t-14 3.5
l-4 2q-2 9 -2 21q0 65 50.5 108t135.5 43q118 0 124 -91q80 91 199 91q67 0 94 -29.5t27 -66.5q0 -55 -52 -95t-125 -58t-153 -19v-12q0 -81 37.5 -125t108.5 -44q42 0 80 14.5t55 28.5zM598 451q-78 0 -134 -60.5t-67 -153.5q46 1 91 8.5t89.5 24t72 46.5t27.5 70
q0 65 -79 65zM98 105q0 -76 78 -76q89 0 171 85q-11 33 -11 81q0 12 2 34l-118 -16q-122 -16 -122 -108z" />
    <glyph glyph-name="ccedilla" unicode="&#xe7;" horiz-adv-x="479" 
d="M187 -70l20 65q-77 5 -117.5 58t-40.5 142q0 122 70 202.5t187 80.5q69 0 103.5 -29t34.5 -81q0 -16 -3.5 -31.5t-6.5 -22.5l-4 -7q-15 -7 -43 -7l-5 7q13 26 13 61q0 83 -93 83q-88 0 -141 -75t-53 -181q0 -166 136 -166q41 0 78.5 14.5t55.5 28.5l17 15l10 -14
q-2 -3 -7 -8t-21.5 -18.5t-35 -23.5t-48 -19t-61.5 -10l-14 -48q22 0 36 -14t14 -38q0 -30 -21.5 -49t-53.5 -19q-20 0 -34.5 8.5t-18.5 17.5l-5 8l13 12q13 -19 43 -19q20 0 32 10.5t12 28.5q0 32 -44 32z" />
    <glyph glyph-name="egrave" unicode="&#xe8;" horiz-adv-x="479" 
d="M389 87l10 -14q-3 -3 -8 -8.5t-22.5 -19t-36.5 -24t-50 -19t-63 -8.5q-85 0 -127.5 53t-42.5 141q0 128 77.5 209t188.5 81q69 0 96 -29.5t27 -66.5q0 -55 -52 -95t-124.5 -58t-153.5 -19v-20q0 -161 130 -161q41 0 78.5 14.5t55.5 28.5zM311 451q-77 0 -132.5 -59.5
t-67.5 -154.5q46 1 91 9t89 24t71.5 46t27.5 70q0 65 -79 65zM333 572l-6 -6h-21l-81 129l1 6q15 8 45 8z" />
    <glyph glyph-name="eacute" unicode="&#xe9;" horiz-adv-x="479" 
d="M389 87l10 -14q-3 -3 -8 -8.5t-22.5 -19t-36.5 -24t-50 -19t-63 -8.5q-85 0 -127.5 53t-42.5 141q0 128 77.5 209t188.5 81q69 0 96 -29.5t27 -66.5q0 -55 -52 -95t-124.5 -58t-153.5 -19v-20q0 -161 130 -161q41 0 78.5 14.5t55.5 28.5zM311 451q-77 0 -132.5 -59.5
t-67.5 -154.5q46 1 91 9t89 24t71.5 46t27.5 70q0 65 -79 65zM270 566l-5 6l105 137q14 0 24.5 -2t14.5 -4l4 -2l-1 -6l-122 -129h-20z" />
    <glyph glyph-name="ecircumflex" unicode="&#xea;" horiz-adv-x="479" 
d="M389 87l10 -14q-3 -3 -8 -8.5t-22.5 -19t-36.5 -24t-50 -19t-63 -8.5q-85 0 -127.5 53t-42.5 141q0 128 77.5 209t188.5 81q69 0 96 -29.5t27 -66.5q0 -55 -52 -95t-124.5 -58t-153.5 -19v-20q0 -161 130 -161q41 0 78.5 14.5t55.5 28.5zM311 451q-77 0 -132.5 -59.5
t-67.5 -154.5q46 1 91 9t89 24t71.5 46t27.5 70q0 65 -79 65zM425 572l-7 -6h-22l-72 101l-103 -101h-23l-5 6l130 137h16z" />
    <glyph glyph-name="edieresis" unicode="&#xeb;" horiz-adv-x="479" 
d="M389 87l10 -14q-3 -3 -8 -8.5t-22.5 -19t-36.5 -24t-50 -19t-63 -8.5q-85 0 -127.5 53t-42.5 141q0 128 77.5 209t188.5 81q69 0 96 -29.5t27 -66.5q0 -55 -52 -95t-124.5 -58t-153.5 -19v-20q0 -161 130 -161q41 0 78.5 14.5t55.5 28.5zM311 451q-77 0 -132.5 -59.5
t-67.5 -154.5q46 1 91 9t89 24t71.5 46t27.5 70q0 65 -79 65zM374 601q0 15 10 25t25 10q26 0 26 -26q0 -16 -10 -26t-26 -10q-25 0 -25 27zM184 601q0 15 10 25t25 10q26 0 26 -26q0 -16 -10 -26t-25 -10q-26 0 -26 27z" />
    <glyph glyph-name="igrave" unicode="&#xec;" horiz-adv-x="240" 
d="M199 572l-6 -6h-21l-81 129l1 6q14 8 45 8zM53 0l48 300l22 165l7 7h47q-7 -72 -23 -172l-48 -300h-53z" />
    <glyph glyph-name="iacute" unicode="&#xed;" horiz-adv-x="240" 
d="M127 566l-5 6l106 137q14 0 24.5 -2t14.5 -4l4 -2l-1 -6l-123 -129h-20zM53 0l48 300l22 165l7 7h47q-7 -72 -23 -172l-48 -300h-53z" />
    <glyph glyph-name="icircumflex" unicode="&#xee;" horiz-adv-x="240" 
d="M53 0l48 300l22 165l7 7h47q-7 -72 -23 -172l-48 -300h-53zM282 572l-7 -6h-23l-71 101l-103 -101h-23l-5 6l130 137h16z" />
    <glyph glyph-name="idieresis" unicode="&#xef;" horiz-adv-x="240" 
d="M41 601q0 15 10 25t25 10q26 0 26 -26q0 -16 -10 -26t-25 -10q-26 0 -26 27zM231 601q0 15 10 25t25 10q26 0 26 -26q0 -16 -10 -26t-26 -10q-25 0 -25 27zM53 0l48 300l22 165l7 7h47q-7 -72 -23 -172l-48 -300h-53z" />
    <glyph glyph-name="eth" unicode="&#xf0;" horiz-adv-x="547" 
d="M283 556l-17 22l81 77q-25 28 -54 48.5t-45 26.5l-17 6l22 20q60 -17 121 -75l79 75l18 -22l-77 -73q127 -141 98 -388q-1 -119 -75.5 -199t-182.5 -80q-86 0 -135 54.5t-49 147.5q0 120 74 201t182 81q87 0 138 -57q-12 126 -79 213zM107 185q0 -75 34.5 -119.5
t96.5 -44.5q81 0 139 80.5t58 185.5q0 76 -35 120t-98 44q-81 0 -138 -80.5t-57 -185.5z" />
    <glyph glyph-name="ntilde" unicode="&#xf1;" horiz-adv-x="559" 
d="M53 0l48 300q7 44 10.5 85.5t2.5 60.5v19l7 7h47q3 -55 -13 -153l-12 -74l2 -3q4 10 12 25.5t34.5 56.5t54 72t68 56.5t80.5 25.5q49 0 73 -35t13 -104l-53 -339h-54l54 339q16 102 -54 102q-33 0 -69.5 -27.5t-63.5 -61.5t-53.5 -79.5t-36.5 -66.5t-17 -36v-2l-27 -168
h-53zM294 646q23 0 43 -18t38 -18t35.5 10t25.5 20l9 9l10 -13q-4 -7 -11 -17t-30.5 -26.5t-48.5 -16.5q-23 0 -43 18t-38 18t-35.5 -10t-26.5 -20l-8 -9l-10 13q4 7 11 17t30.5 26.5t48.5 16.5z" />
    <glyph glyph-name="ograve" unicode="&#xf2;" horiz-adv-x="539" 
d="M50 196q0 120 73 201t179 81q85 0 133.5 -54.5t48.5 -147.5q0 -120 -73.5 -201t-180.5 -81q-85 0 -132.5 54.5t-47.5 147.5zM107 185q0 -75 33.5 -119.5t94.5 -44.5q79 0 135 80.5t56 185.5q0 76 -34 120t-95 44q-79 0 -134.5 -80.5t-55.5 -185.5zM343 572l-6 -6h-21
l-81 129l1 6q15 8 46 8z" />
    <glyph glyph-name="oacute" unicode="&#xf3;" horiz-adv-x="539" 
d="M50 196q0 120 73 201t179 81q85 0 133.5 -54.5t48.5 -147.5q0 -120 -73.5 -201t-180.5 -81q-85 0 -132.5 54.5t-47.5 147.5zM107 185q0 -75 33.5 -119.5t94.5 -44.5q79 0 135 80.5t56 185.5q0 76 -34 120t-95 44q-79 0 -134.5 -80.5t-55.5 -185.5zM280 566l-5 6l105 137
q14 0 24.5 -2t14.5 -4l4 -2l-1 -6l-122 -129h-20z" />
    <glyph glyph-name="ocircumflex" unicode="&#xf4;" horiz-adv-x="539" 
d="M50 196q0 120 73 201t179 81q85 0 133.5 -54.5t48.5 -147.5q0 -120 -73.5 -201t-180.5 -81q-85 0 -132.5 54.5t-47.5 147.5zM107 185q0 -75 33.5 -119.5t94.5 -44.5q79 0 135 80.5t56 185.5q0 76 -34 120t-95 44q-79 0 -134.5 -80.5t-55.5 -185.5zM436 572l-7 -6h-23
l-71 101l-104 -101h-23l-4 6l129 137h16z" />
    <glyph glyph-name="otilde" unicode="&#xf5;" horiz-adv-x="539" 
d="M50 196q0 120 73 201t179 81q85 0 133.5 -54.5t48.5 -147.5q0 -120 -73.5 -201t-180.5 -81q-85 0 -132.5 54.5t-47.5 147.5zM107 185q0 -75 33.5 -119.5t94.5 -44.5q79 0 135 80.5t56 185.5q0 76 -34 120t-95 44q-79 0 -134.5 -80.5t-55.5 -185.5zM284 646q23 0 43.5 -18
t38.5 -18t35 10t25 20l9 9l10 -13q-4 -7 -11 -17t-30.5 -26.5t-48.5 -16.5q-23 0 -43 18t-38 18t-35.5 -10t-26.5 -20l-8 -9l-10 13q4 7 11 17t30.5 26.5t48.5 16.5z" />
    <glyph glyph-name="odieresis" unicode="&#xf6;" horiz-adv-x="539" 
d="M50 196q0 120 73 201t179 81q85 0 133.5 -54.5t48.5 -147.5q0 -120 -73.5 -201t-180.5 -81q-85 0 -132.5 54.5t-47.5 147.5zM107 185q0 -75 33.5 -119.5t94.5 -44.5q79 0 135 80.5t56 185.5q0 76 -34 120t-95 44q-79 0 -134.5 -80.5t-55.5 -185.5zM194 601q0 15 10 25
t25 10q26 0 26 -26q0 -16 -10 -26t-25 -10q-26 0 -26 27zM384 601q0 15 10 25t25 10q26 0 26 -26q0 -16 -10 -26t-25 -10q-26 0 -26 27z" />
    <glyph glyph-name="divide" unicode="&#xf7;" 
d="M104 309v32h391v-32h-391zM267 160q0 14 9 23t23 9t22.5 -9t8.5 -23t-8.5 -22.5t-22.5 -8.5t-23 8.5t-9 22.5zM268 489q0 14 8.5 23t22.5 9t22.5 -9t8.5 -23t-8.5 -22.5t-22.5 -8.5t-22.5 8.5t-8.5 22.5z" />
    <glyph glyph-name="oslash" unicode="&#xf8;" horiz-adv-x="539" 
d="M63 -1l37 47q-50 53 -50 150q0 120 73 201t179 81q65 0 110 -34l33 42l22 -16l-35 -44q52 -55 52 -150q0 -120 -73.5 -201t-180.5 -81q-68 0 -110 33l-35 -44zM427 285q0 64 -23 105l-259 -331q33 -38 90 -38q80 0 136 78.5t56 185.5zM106 188q0 -65 22 -106l259 331
q-35 38 -90 38q-79 0 -135 -78.5t-56 -184.5z" />
    <glyph glyph-name="ugrave" unicode="&#xf9;" horiz-adv-x="556" 
d="M129 472h48q-6 -72 -22 -172l-26 -167q-16 -102 53 -102q108 0 236 271l1 2l25 161l7 7h48l-48 -300q-7 -44 -10.5 -85.5t-3.5 -60.5v-19l-6 -7h-47q-3 56 13 153l12 74l-3 3q-4 -10 -12 -25.5t-33.5 -56.5t-52.5 -72t-67.5 -56.5t-79.5 -25.5q-49 0 -72.5 35t-12.5 104
l26 167l21 165zM352 572l-6 -6h-21l-81 129l1 6q14 8 45 8z" />
    <glyph glyph-name="uacute" unicode="&#xfa;" horiz-adv-x="556" 
d="M129 472h48q-6 -72 -22 -172l-26 -167q-16 -102 53 -102q90 0 196 190q18 33 41 82v1l25 161l7 7h48l-48 -300q-7 -44 -10.5 -85.5t-3.5 -60.5v-19l-6 -7h-47q-3 56 13 153l12 74l-3 3q-4 -10 -12 -25.5t-33.5 -56.5t-52.5 -72t-67.5 -56.5t-79.5 -25.5q-49 0 -72.5 35
t-12.5 104l26 167l21 165zM288 566l-4 6l105 137q14 0 24.5 -2t14.5 -4l4 -2l-1 -6l-122 -129h-21z" />
    <glyph glyph-name="ucircumflex" unicode="&#xfb;" horiz-adv-x="556" 
d="M129 472h48q-6 -72 -22 -172l-26 -167q-16 -102 53 -102q108 0 236 271l1 2l25 161l7 7h48l-48 -300q-7 -44 -10.5 -85.5t-3.5 -60.5v-19l-6 -7h-47q-3 56 13 153l12 74l-3 3q-4 -10 -12 -25.5t-33.5 -56.5t-52.5 -72t-67.5 -56.5t-79.5 -25.5q-49 0 -72.5 35t-12.5 104
l26 167l21 165zM444 572l-7 -6h-23l-71 101l-103 -101h-23l-5 6l130 137h16z" />
    <glyph glyph-name="udieresis" unicode="&#xfc;" horiz-adv-x="556" 
d="M129 472h48q-6 -72 -22 -172l-26 -167q-16 -102 53 -102q90 0 196 190q18 33 41 82v1l25 161l7 7h48l-48 -300q-7 -44 -10.5 -85.5t-3.5 -60.5v-19l-6 -7h-47q-3 56 13 153l12 74l-3 3q-4 -10 -12 -25.5t-33.5 -56.5t-52.5 -72t-67.5 -56.5t-79.5 -25.5q-49 0 -72.5 35
t-12.5 104l26 167l21 165zM393 601q0 15 10 25t25 10q26 0 26 -26q0 -16 -10 -26t-26 -10q-25 0 -25 27zM203 601q0 15 10 25t25 10q26 0 26 -26q0 -16 -10 -26t-25 -10q-26 0 -26 27z" />
    <glyph glyph-name="yacute" unicode="&#xfd;" horiz-adv-x="484" 
d="M-58 -256q-8 0 -17 2t-14 4l-5 2q0 14 3.5 26.5t6.5 17.5l4 5q15 -9 33 -9q38 0 100 55.5t130 145.5l-73 307q-13 53 -25 95t-17 57l-6 15l5 5h56l97 -429q80 112 134.5 220.5t54.5 164.5l-6 38l6 6h37q6 -15 6 -34q0 -55 -59.5 -172t-140 -232t-169.5 -202.5t-141 -87.5
zM246 566l-4 6l105 137q14 0 24.5 -2t14.5 -4l4 -2l-1 -6l-123 -129h-20z" />
    <glyph glyph-name="thorn" unicode="&#xfe;" horiz-adv-x="550" 
d="M14 -250l114 722q12 75 20 142.5t10 97.5l1 31l7 7h47q-5 -110 -31 -278l-14 -89l-25 -138l2 -3q4 10 12.5 25.5t34 56.5t52.5 72t66.5 56.5t77.5 25.5q52 0 79.5 -44t27.5 -118q0 -138 -86 -230t-209 -92q-59 0 -91 21l-42 -265h-53zM367 441q-31 0 -66.5 -27.5
t-61.5 -61.5t-52.5 -79.5t-36.5 -66.5t-17 -36v-2l-17 -108q2 -4 7 -10.5t27.5 -17.5t54.5 -11q94 0 164 86t70 209q0 125 -72 125z" />
    <glyph glyph-name="ydieresis" unicode="&#xff;" horiz-adv-x="484" 
d="M-58 -256q-8 0 -17 2t-14 4l-5 2q0 14 3.5 26.5t6.5 17.5l4 5q15 -9 33 -9q38 0 100 55.5t130 145.5l-73 307q-13 53 -25 95t-17 57l-6 15l5 5h56l97 -429q80 112 134.5 220.5t54.5 164.5l-6 38l6 6h37q6 -15 6 -34q0 -55 -59.5 -172t-140 -232t-169.5 -202.5t-141 -87.5
zM351 601q0 15 10 25t25 10q26 0 26 -26q0 -16 -10 -26t-26 -10q-25 0 -25 27zM161 601q0 15 10 25t25 10q26 0 26 -26q0 -16 -10 -26t-25 -10q-26 0 -26 27z" />
    <glyph glyph-name="Amacron" unicode="&#x100;" horiz-adv-x="651" 
d="M142 215l-117 -215h-35l371 680l-4 13l1 7h61l162 -700h-57l-50 215h-332zM402 528q-19 80 -29 113l-214 -395h308zM307 804l5 32h208l-5 -32h-208z" />
    <glyph glyph-name="amacron" unicode="&#x101;" horiz-adv-x="550" 
d="M483 425l-40 -253q-7 -44 -10.5 -85.5t-2.5 -60.5v-19l-7 -7h-46q-4 56 12 153l12 74l-2 3q-4 -10 -12 -25.5t-34 -56.5t-52.5 -72t-66 -56.5t-77.5 -25.5q-53 0 -80.5 43.5t-27.5 118.5q0 139 86 230.5t217 91.5q30 0 54.5 -5.5t38.5 -13t23 -15.5t12 -14zM105 156
q0 -125 73 -125q22 0 47.5 15t45 34.5t43 52.5t36 53.5t30.5 55t20 38.5t10 21l1 2v1l17 107q-2 4 -7 10.5t-27.5 17.5t-54.5 11q-94 0 -164 -85.5t-70 -208.5zM238 596l5 31h208l-5 -31h-208z" />
    <glyph glyph-name="Abreve" unicode="&#x102;" horiz-adv-x="651" 
d="M142 215l-117 -215h-35l371 680l-4 13l1 7h61l162 -700h-57l-50 215h-332zM402 528q-19 80 -29 113l-214 -395h308zM302 857l15 14q1 -2 3.5 -6t10.5 -14.5t18 -18t27 -14t36 -6.5q31 0 59.5 15t42.5 29l13 15l10 -14q-2 -3 -5.5 -8.5t-16 -19t-26 -24t-36 -19
t-46.5 -8.5q-38 0 -64.5 20t-33.5 40z" />
    <glyph glyph-name="abreve" unicode="&#x103;" horiz-adv-x="550" 
d="M483 425l-40 -253q-7 -44 -10.5 -85.5t-2.5 -60.5v-19l-7 -7h-46q-4 56 12 153l12 74l-2 3q-4 -10 -12 -25.5t-34 -56.5t-52.5 -72t-66 -56.5t-77.5 -25.5q-53 0 -80.5 43.5t-27.5 118.5q0 139 86 230.5t217 91.5q30 0 54.5 -5.5t38.5 -13t23 -15.5t12 -14zM105 156
q0 -125 73 -125q22 0 47.5 15t45 34.5t43 52.5t36 53.5t30.5 55t20 38.5t10 21l-11 -71l12 72v2l17 107q-2 4 -7 10.5t-27.5 17.5t-54.5 11q-94 0 -164 -85.5t-70 -208.5zM227 649l15 14q3 -7 9.5 -16.5t31 -26t55.5 -16.5q30 0 59 15t43 29l13 15l10 -14q-2 -3 -5.5 -8.5
t-16 -19.5t-26 -24.5t-36 -19t-46.5 -8.5t-44 8t-31 20t-18.5 24t-9.5 20zM411 303l-1 -2l1 1v1z" />
    <glyph glyph-name="Aogonek" unicode="&#x104;" horiz-adv-x="651" 
d="M142 215l-117 -215h-35l371 680l-4 13l1 7h61l162 -700h-12q-46 -42 -46 -92q0 -36 33 -36q9 0 17.5 3t12.5 6l4 3l10 -13q-20 -27 -56 -27q-23 0 -38.5 15t-15.5 44q0 27 13.5 51t26.5 35l14 11h-20l-50 215h-332zM402 528q-19 80 -29 113l-214 -395h308z" />
    <glyph glyph-name="aogonek" unicode="&#x105;" horiz-adv-x="550" 
d="M483 425l-40 -253q-7 -44 -10.5 -85.5t-2.5 -60.5v-19l-7 -7h-5q-41 -41 -41 -87q0 -36 32 -36q9 0 17.5 2.5t12.5 5.5l4 3l11 -13q-21 -27 -56 -27q-24 0 -39.5 15t-15.5 44q0 52 48 93h-14q-4 56 12 153l12 74l-2 3q-4 -10 -12 -25.5t-34 -56.5t-52.5 -72t-66 -56.5
t-77.5 -25.5q-53 0 -80.5 43.5t-27.5 118.5q0 139 86 230.5t217 91.5q30 0 54.5 -5.5t38.5 -13t23 -15.5t12 -14zM105 156q0 -125 73 -125q22 0 47.5 15t45 34.5t43 52.5t36 53.5t30.5 55t20 38.5t10 21l1 2v1l17 107q-2 4 -7 10.5t-27.5 17.5t-54.5 11q-94 0 -164 -85.5
t-70 -208.5z" />
    <glyph glyph-name="Cacute" unicode="&#x106;" horiz-adv-x="676" 
d="M443 678q-134 0 -221 -111t-87 -273q0 -125 56.5 -193.5t162.5 -68.5q57 0 112 20t81 40l26 20l11 -15l-11 -11t-31 -25t-51 -31.5t-69 -24.5t-86 -11q-123 0 -192.5 79t-69.5 218q0 176 105.5 295.5t268.5 119.5q99 0 151.5 -46t52.5 -124q0 -24 -5 -43t-10 -27l-5 -7
q-18 -6 -48 -6l-5 6q19 29 19 81q0 65 -40.5 101.5t-114.5 36.5zM425 774l-5 6l105 137q14 0 24.5 -2t14.5 -4l4 -2l-1 -6l-122 -129h-20z" />
    <glyph glyph-name="cacute" unicode="&#x107;" horiz-adv-x="479" 
d="M395 87l10 -14q-3 -3 -7.5 -8.5t-21.5 -19t-36.5 -24t-50.5 -19t-64 -8.5q-86 0 -131 53.5t-45 147.5q0 122 70 202.5t187 80.5q69 0 103.5 -29t34.5 -81q0 -16 -3.5 -31.5t-6.5 -22.5l-4 -7q-15 -7 -43 -7l-5 7q13 26 13 61q0 83 -93 83q-88 0 -141 -75t-53 -181
q0 -166 136 -166q41 0 78.5 14.5t55.5 28.5zM271 566l-4 6l105 137q14 0 24.5 -2t14.5 -4l4 -2l-1 -6l-122 -129h-21z" />
    <glyph glyph-name="Ccircumflex" unicode="&#x108;" horiz-adv-x="676" 
d="M443 678q-134 0 -221 -111t-87 -273q0 -125 56.5 -193.5t162.5 -68.5q57 0 112 20t81 40l26 20l11 -15l-11 -11t-31 -25t-51 -31.5t-69 -24.5t-86 -11q-123 0 -192.5 79t-69.5 218q0 176 105.5 295.5t268.5 119.5q99 0 151.5 -46t52.5 -124q0 -24 -5 -43t-10 -27l-5 -7
q-18 -6 -48 -6l-5 6q19 29 19 81q0 65 -40.5 101.5t-114.5 36.5zM564 780l-7 -6h-23l-71 102l-103 -102h-23l-5 6l129 137h17z" />
    <glyph glyph-name="ccircumflex" unicode="&#x109;" horiz-adv-x="479" 
d="M395 87l10 -14q-3 -3 -7.5 -8.5t-21.5 -19t-36.5 -24t-50.5 -19t-64 -8.5q-86 0 -131 53.5t-45 147.5q0 122 70 202.5t187 80.5q69 0 103.5 -29t34.5 -81q0 -16 -3.5 -31.5t-6.5 -22.5l-4 -7q-15 -7 -43 -7l-5 7q13 26 13 61q0 83 -93 83q-88 0 -141 -75t-53 -181
q0 -166 136 -166q41 0 78.5 14.5t55.5 28.5zM427 572l-7 -6h-22l-72 101l-103 -101h-23l-5 6l130 137h16z" />
    <glyph glyph-name="Cdotaccent" unicode="&#x10a;" horiz-adv-x="676" 
d="M443 678q-134 0 -221 -111t-87 -273q0 -125 56.5 -193.5t162.5 -68.5q57 0 112 20t81 40l26 20l11 -15l-11 -11t-31 -25t-51 -31.5t-69 -24.5t-86 -11q-123 0 -192.5 79t-69.5 218q0 176 105.5 295.5t268.5 119.5q99 0 151.5 -46t52.5 -124q0 -24 -5 -43t-10 -27l-5 -7
q-18 -6 -48 -6l-5 6q19 29 19 81q0 65 -40.5 101.5t-114.5 36.5zM424 834q0 16 11 27t27 11q28 0 28 -29q0 -16 -11 -27t-27 -11q-13 0 -20.5 8t-7.5 21z" />
    <glyph glyph-name="cdotaccent" unicode="&#x10b;" horiz-adv-x="479" 
d="M395 87l10 -14q-3 -3 -7.5 -8.5t-21.5 -19t-36.5 -24t-50.5 -19t-64 -8.5q-86 0 -131 53.5t-45 147.5q0 122 70 202.5t187 80.5q69 0 103.5 -29t34.5 -81q0 -16 -3.5 -31.5t-6.5 -22.5l-4 -7q-15 -7 -43 -7l-5 7q13 26 13 61q0 83 -93 83q-88 0 -141 -75t-53 -181
q0 -166 136 -166q41 0 78.5 14.5t55.5 28.5zM278 622q0 16 11 27t27 11q28 0 28 -28q0 -17 -11 -28t-27 -11q-13 0 -20.5 8t-7.5 21z" />
    <glyph glyph-name="Ccaron" unicode="&#x10c;" horiz-adv-x="676" 
d="M443 678q-134 0 -221 -111t-87 -273q0 -125 56.5 -193.5t162.5 -68.5q57 0 112 20t81 40l26 20l11 -15l-11 -11t-31 -25t-51 -31.5t-69 -24.5t-86 -11q-123 0 -192.5 79t-69.5 218q0 176 105.5 295.5t268.5 119.5q99 0 151.5 -46t52.5 -124q0 -24 -5 -43t-10 -27l-5 -7
q-18 -6 -48 -6l-5 6q19 29 19 81q0 65 -40.5 101.5t-114.5 36.5zM580 912l5 -6l-130 -137h-17l-85 137l6 6h23l72 -101l103 101h23z" />
    <glyph glyph-name="ccaron" unicode="&#x10d;" horiz-adv-x="479" 
d="M395 87l10 -14q-3 -3 -7.5 -8.5t-21.5 -19t-36.5 -24t-50.5 -19t-64 -8.5q-86 0 -131 53.5t-45 147.5q0 122 70 202.5t187 80.5q69 0 103.5 -29t34.5 -81q0 -16 -3.5 -31.5t-6.5 -22.5l-4 -7q-15 -7 -43 -7l-5 7q13 26 13 61q0 83 -93 83q-88 0 -141 -75t-53 -181
q0 -166 136 -166q41 0 78.5 14.5t55.5 28.5zM423 704l4 -6l-129 -137h-17l-86 137l7 6h22l72 -101l104 101h23z" />
    <glyph glyph-name="Dcaron" unicode="&#x10e;" horiz-adv-x="704" 
d="M61 0l111 700h232q119 0 188 -79t69 -214q0 -172 -106.5 -289.5t-261.5 -117.5h-232zM397 669h-174l-101 -638h174q129 0 217 108.5t88 269.5q0 122 -54 191t-150 69zM565 912l5 -6l-129 -137h-17l-86 137l6 6h23l72 -101l104 101h22z" />
    <glyph glyph-name="dcaron" unicode="&#x10f;" horiz-adv-x="633" 
d="M491 472l-48 -300q-7 -44 -10.5 -85.5t-2.5 -60.5v-19l-7 -7h-46q-4 56 12 153l12 74l-2 3q-4 -10 -12 -25.5t-34 -56.5t-52.5 -72t-66 -56.5t-77.5 -25.5q-53 0 -80.5 43.5t-27.5 118.5q0 139 86 230.5t211 91.5q56 0 89 -20l3 14q12 76 19.5 143.5t9.5 97.5l2 30l7 7
h47q-4 -106 -32 -278zM105 156q0 -125 73 -125q39 0 81.5 38.5t76.5 95t50.5 88t24.5 50.5l-12 -73l12 72v2l17 109q-23 37 -89 37q-94 0 -164 -85.5t-70 -208.5zM592 584l-8 11q7 6 16.5 17.5t26 48t16.5 73.5l-1 18l5 4q11 0 20.5 -2t13.5 -4l4 -1q1 -3 1 -13
q0 -26 -9.5 -51t-23.5 -42.5t-28 -31.5t-23 -21z" />
    <glyph glyph-name="Dcroat" unicode="&#x110;" horiz-adv-x="704" 
d="M50 344l5 31h65l52 325h232q119 0 188 -79t69 -214q0 -172 -106.5 -289.5t-261.5 -117.5h-232l54 344h-65zM397 669h-174l-47 -294h159l-5 -31h-159l-49 -313h174q129 0 217 108.5t88 269.5q0 121 -54.5 190.5t-149.5 69.5z" />
    <glyph glyph-name="dcroat" unicode="&#x111;" horiz-adv-x="550" 
d="M320 589l5 31h133l11 123l7 7h47q-2 -50 -11 -130h67l-5 -31h-66q-14 -99 -17 -117l-48 -300q-7 -44 -10.5 -85.5t-2.5 -60.5v-19l-7 -7h-46q-4 56 12 153l12 74l-2 3q-4 -10 -12 -25.5t-34 -56.5t-52.5 -72t-66 -56.5t-77.5 -25.5q-53 0 -80.5 43.5t-27.5 118.5
q0 139 86 230.5t211 91.5q56 0 89 -20l3 14q9 54 16 117h-134zM105 156q0 -125 73 -125q22 0 47.5 15t45 34.5t43 52.5t36 53.5t30.5 55t20 38.5t10 21l1 2v1l17 109q-23 37 -89 37q-94 0 -164 -85.5t-70 -208.5z" />
    <glyph glyph-name="Emacron" unicode="&#x112;" horiz-adv-x="562" 
d="M61 0l111 700h389l-5 -37l-7 -6q-41 13 -146 13h-180l-48 -299h280l5 -5l-4 -26h-286l-49 -310h190q47 0 84 3t51 7l14 3l5 -6l-5 -37h-399zM280 804l5 32h208l-5 -32h-208z" />
    <glyph glyph-name="emacron" unicode="&#x113;" horiz-adv-x="479" 
d="M389 87l10 -14q-3 -3 -8 -8.5t-22.5 -19t-36.5 -24t-50 -19t-63 -8.5q-85 0 -127.5 53t-42.5 141q0 128 77.5 209t188.5 81q69 0 96 -29.5t27 -66.5q0 -55 -52 -95t-124.5 -58t-153.5 -19v-20q0 -161 130 -161q41 0 78.5 14.5t55.5 28.5zM311 451q-77 0 -132.5 -59.5
t-67.5 -154.5q46 1 91 9t89 24t71.5 46t27.5 70q0 65 -79 65zM203 596l5 31h207l-4 -31h-208z" />
    <glyph glyph-name="Ebreve" unicode="&#x114;" horiz-adv-x="562" 
d="M61 0l111 700h389l-5 -37l-7 -6q-41 13 -146 13h-180l-48 -299h280l5 -5l-4 -26h-286l-49 -310h190q47 0 84 3t51 7l14 3l5 -6l-5 -37h-399zM275 857l15 14q3 -7 9.5 -16.5t31 -26t55.5 -16.5q30 0 59 15t43 29l13 15l10 -14q-2 -3 -5.5 -8.5t-16 -19t-26 -24t-36 -19
t-46.5 -8.5q-39 0 -65.5 20t-33.5 40z" />
    <glyph glyph-name="ebreve" unicode="&#x115;" horiz-adv-x="479" 
d="M389 87l10 -14q-3 -3 -8 -8.5t-22.5 -19t-36.5 -24t-50 -19t-63 -8.5q-85 0 -127.5 53t-42.5 141q0 128 77.5 209t188.5 81q69 0 96 -29.5t27 -66.5q0 -55 -52 -95t-124.5 -58t-153.5 -19v-20q0 -161 130 -161q41 0 78.5 14.5t55.5 28.5zM311 451q-77 0 -132.5 -59.5
t-67.5 -154.5q46 1 91 9t89 24t71.5 46t27.5 70q0 65 -79 65zM192 649l15 14q1 -2 3.5 -6t10.5 -14.5t18 -18t27 -14t36 -6.5q31 0 59.5 15t42.5 29l13 15l10 -14q-2 -3 -5.5 -8.5t-16 -19.5t-26 -24.5t-36 -19t-46.5 -8.5t-43.5 8t-30.5 20t-18.5 24t-10.5 20z" />
    <glyph glyph-name="Edotaccent" unicode="&#x116;" horiz-adv-x="562" 
d="M61 0l111 700h389l-5 -37l-7 -6q-41 13 -146 13h-180l-48 -299h280l5 -5l-4 -26h-286l-49 -310h190q47 0 84 3t51 7l14 3l5 -6l-5 -37h-399zM357 834q0 16 11 27t27 11q28 0 28 -29q0 -16 -11 -27t-27 -11q-28 0 -28 29z" />
    <glyph glyph-name="edotaccent" unicode="&#x117;" horiz-adv-x="479" 
d="M389 87l10 -14q-3 -3 -8 -8.5t-22.5 -19t-36.5 -24t-50 -19t-63 -8.5q-85 0 -127.5 53t-42.5 141q0 128 77.5 209t188.5 81q69 0 96 -29.5t27 -66.5q0 -55 -52 -95t-124.5 -58t-153.5 -19v-20q0 -161 130 -161q41 0 78.5 14.5t55.5 28.5zM311 451q-77 0 -132.5 -59.5
t-67.5 -154.5q46 1 91 9t89 24t71.5 46t27.5 70q0 65 -79 65zM277 622q0 17 10.5 27.5t26.5 10.5q28 0 28 -28q0 -17 -11 -28t-27 -11q-27 0 -27 29z" />
    <glyph glyph-name="Eogonek" unicode="&#x118;" horiz-adv-x="562" 
d="M61 0l111 700h389l-5 -37l-7 -6q-41 13 -146 13h-180l-48 -299h280l5 -5l-4 -26h-286l-49 -310h190q47 0 84 3t51 7l14 3l5 -6l-5 -37h-52q-46 -42 -46 -92q0 -36 33 -36q9 0 17.5 3t12.5 6l4 3l10 -13q-20 -27 -55 -27q-24 0 -39.5 15t-15.5 44q0 27 13.5 51t27.5 35
l13 11h-322z" />
    <glyph glyph-name="eogonek" unicode="&#x119;" horiz-adv-x="479" 
d="M389 87l10 -14q-22 -25 -58 -46q-42 -47 -42 -89q0 -36 32 -36q9 0 17.5 3t12.5 6l4 3l11 -13q-21 -27 -56 -27q-24 0 -39.5 15t-15.5 44q0 40 28 72q-40 -11 -74 -11q-85 0 -127.5 53t-42.5 141q0 128 77.5 209t188.5 81q69 0 96 -29.5t27 -66.5q0 -55 -52 -95
t-124.5 -58t-153.5 -19v-20q0 -161 130 -161q41 0 78.5 14.5t55.5 28.5zM311 451q-77 0 -132.5 -59.5t-67.5 -154.5q46 1 91 9t89 24t71.5 46t27.5 70q0 65 -79 65z" />
    <glyph glyph-name="Ecaron" unicode="&#x11a;" horiz-adv-x="562" 
d="M61 0l111 700h389l-5 -37l-7 -6q-41 13 -146 13h-180l-48 -299h280l5 -5l-4 -26h-286l-49 -310h190q47 0 84 3t51 7l14 3l5 -6l-5 -37h-399zM514 921l4 -6l-129 -137h-17l-86 137l7 6h22l73 -102l103 102h23z" />
    <glyph glyph-name="ecaron" unicode="&#x11b;" horiz-adv-x="479" 
d="M389 87l10 -14q-3 -3 -8 -8.5t-22.5 -19t-36.5 -24t-50 -19t-63 -8.5q-85 0 -127.5 53t-42.5 141q0 128 77.5 209t188.5 81q69 0 96 -29.5t27 -66.5q0 -55 -52 -95t-124.5 -58t-153.5 -19v-20q0 -161 130 -161q41 0 78.5 14.5t55.5 28.5zM311 451q-77 0 -132.5 -59.5
t-67.5 -154.5q46 1 91 9t89 24t71.5 46t27.5 70q0 65 -79 65zM421 704l4 -6l-129 -137h-17l-86 137l7 6h22l73 -101l103 101h23z" />
    <glyph glyph-name="Gcircumflex" unicode="&#x11c;" horiz-adv-x="690" 
d="M459 303l4 25h101q14 0 26.5 2t18.5 4l6 1l6 -7l-38 -238q-4 -4 -11 -10.5t-31 -23t-50.5 -29t-68 -23t-84.5 -10.5q-125 0 -194.5 79.5t-69.5 217.5q0 176 105.5 295.5t271.5 119.5q97 0 149.5 -43.5t52.5 -119.5q0 -24 -5.5 -43.5t-10.5 -26.5l-5 -7q-17 -7 -47 -7
l-6 7q19 28 19 79q0 64 -39.5 98.5t-112.5 34.5q-136 0 -223.5 -110.5t-87.5 -274.5q0 -125 56 -195t159 -70q92 0 180 53l13 80q14 85 14 136h-93zM564 780l-7 -6h-23l-71 102l-103 -102h-23l-5 6l129 137h17z" />
    <glyph glyph-name="gcircumflex" unicode="&#x11d;" horiz-adv-x="549" 
d="M359 -24l4 24l24 153l14 74l-2 3q-4 -10 -12 -25.5t-34 -56.5t-52.5 -72t-66 -56.5t-77.5 -25.5q-53 0 -80.5 43.5t-27.5 118.5q0 139 86 230.5t217 91.5q30 0 54.5 -5.5t38.5 -13t23 -15.5t12 -14l3 -5l-67 -425l-4 -24q-18 -107 -86 -169.5t-168 -62.5q-69 0 -113.5 30
t-44.5 80q0 13 3.5 26.5t6.5 20.5l4 7q15 7 44 7l5 -7q-13 -25 -13 -53q0 -39 31.5 -61.5t80.5 -22.5q76 0 128.5 56t68.5 149zM105 156q0 -125 73 -125q22 0 47.5 15t45 34.5t43 52.5t36 53.5t30.5 55t20 38.5t10 21l1 2v1l17 107q-2 4 -7 10.5t-27.5 17.5t-54.5 11
q-94 0 -164 -85.5t-70 -208.5zM461 572l-8 -6h-22l-72 101l-103 -101h-23l-5 6l130 137h16z" />
    <glyph glyph-name="Gbreve" unicode="&#x11e;" horiz-adv-x="690" 
d="M459 303l4 25h101q14 0 26.5 2t18.5 4l6 1l6 -7l-38 -238q-4 -4 -11 -10.5t-31 -23t-50.5 -29t-68 -23t-84.5 -10.5q-125 0 -194.5 79.5t-69.5 217.5q0 176 105.5 295.5t271.5 119.5q97 0 149.5 -43.5t52.5 -119.5q0 -24 -5.5 -43.5t-10.5 -26.5l-5 -7q-17 -7 -47 -7
l-6 7q19 28 19 79q0 64 -39.5 98.5t-112.5 34.5q-136 0 -223.5 -110.5t-87.5 -274.5q0 -125 56 -195t159 -70q92 0 180 53l13 80q14 85 14 136h-93zM343 857l14 14q3 -7 9.5 -16.5t31 -26t55.5 -16.5q30 0 59 15t42 29l14 15l10 -14q-2 -3 -5.5 -8.5t-16 -19t-26 -24
t-36 -19t-46.5 -8.5q-38 0 -64.5 20t-33.5 40z" />
    <glyph glyph-name="gbreve" unicode="&#x11f;" horiz-adv-x="549" 
d="M359 -24l4 24l24 153l14 74l-2 3q-4 -10 -12 -25.5t-34 -56.5t-52.5 -72t-66 -56.5t-77.5 -25.5q-53 0 -80.5 43.5t-27.5 118.5q0 139 86 230.5t217 91.5q30 0 54.5 -5.5t38.5 -13t23 -15.5t12 -14l3 -5l-67 -425l-4 -24q-18 -107 -86 -169.5t-168 -62.5q-69 0 -113.5 30
t-44.5 80q0 13 3.5 26.5t6.5 20.5l4 7q15 7 44 7l5 -7q-13 -25 -13 -53q0 -39 31.5 -61.5t80.5 -22.5q76 0 128.5 56t68.5 149zM105 156q0 -125 73 -125q22 0 47.5 15t45 34.5t43 52.5t36 53.5t30.5 55t20 38.5t10 21l1 2v1l17 107q-2 4 -7 10.5t-27.5 17.5t-54.5 11
q-94 0 -164 -85.5t-70 -208.5zM227 649l15 14q1 -2 3.5 -6t10.5 -14.5t18 -18t27 -14t36 -6.5q31 0 59.5 15t41.5 29l14 15l10 -14q-2 -3 -5.5 -8.5t-16 -19.5t-26 -24.5t-36 -19t-46.5 -8.5t-43.5 8t-30.5 20t-18.5 24t-9.5 20z" />
    <glyph glyph-name="Gdotaccent" unicode="&#x120;" horiz-adv-x="690" 
d="M459 303l4 25h101q14 0 26.5 2t18.5 4l6 1l6 -7l-38 -238q-4 -4 -11 -10.5t-31 -23t-50.5 -29t-68 -23t-84.5 -10.5q-125 0 -194.5 79.5t-69.5 217.5q0 176 105.5 295.5t271.5 119.5q97 0 149.5 -43.5t52.5 -119.5q0 -24 -5.5 -43.5t-10.5 -26.5l-5 -7q-17 -7 -47 -7
l-6 7q19 28 19 79q0 64 -39.5 98.5t-112.5 34.5q-136 0 -223.5 -110.5t-87.5 -274.5q0 -125 56 -195t159 -70q92 0 180 53l13 80q14 85 14 136h-93zM424 834q0 16 11 27t27 11q28 0 28 -29q0 -16 -11 -27t-27 -11q-13 0 -20.5 8t-7.5 21z" />
    <glyph glyph-name="gdotaccent" unicode="&#x121;" horiz-adv-x="549" 
d="M359 -24l4 24l24 153l14 74l-2 3q-4 -10 -12 -25.5t-34 -56.5t-52.5 -72t-66 -56.5t-77.5 -25.5q-53 0 -80.5 43.5t-27.5 118.5q0 139 86 230.5t217 91.5q30 0 54.5 -5.5t38.5 -13t23 -15.5t12 -14l3 -5l-67 -425l-4 -24q-18 -107 -86 -169.5t-168 -62.5q-69 0 -113.5 30
t-44.5 80q0 13 3.5 26.5t6.5 20.5l4 7q15 7 44 7l5 -7q-13 -25 -13 -53q0 -39 31.5 -61.5t80.5 -22.5q76 0 128.5 56t68.5 149zM411 304l17 107q-2 4 -7 10.5t-27.5 17.5t-54.5 11q-94 0 -164 -85.5t-70 -208.5q0 -125 73 -125q22 0 47.5 15t45 34.5t43 52.5t36 53.5
t30.5 55t20 38.5t10 21l-11 -71l12 72v2zM312 622q0 17 10.5 27.5t26.5 10.5q28 0 28 -28q0 -17 -11 -28t-27 -11q-27 0 -27 29zM411 303l-1 -2l1 1v1z" />
    <glyph glyph-name="Gcommaaccent" unicode="&#x122;" horiz-adv-x="690" 
d="M459 303l4 25h101q14 0 26.5 2t18.5 4l6 1l6 -7l-38 -238q-4 -4 -11 -10.5t-31 -23t-50.5 -29t-68 -23t-84.5 -10.5q-125 0 -194.5 79.5t-69.5 217.5q0 176 105.5 295.5t271.5 119.5q97 0 149.5 -43.5t52.5 -119.5q0 -24 -5.5 -43.5t-10.5 -26.5l-5 -7q-17 -7 -47 -7
l-6 7q19 28 19 79q0 64 -39.5 98.5t-112.5 34.5q-136 0 -223.5 -110.5t-87.5 -274.5q0 -125 56 -195t159 -70q92 0 180 53l13 80q14 85 14 136h-93zM251 -233l-9 11l6.5 6.5t14.5 18.5t18 29t14.5 38t6.5 46l-1 18l4 5q12 0 21.5 -1.5t13.5 -3.5l3 -2q2 -4 2 -14
q0 -25 -9.5 -50t-23.5 -42.5t-28 -31.5t-24 -20z" />
    <glyph glyph-name="gcommaaccent" unicode="&#x123;" horiz-adv-x="549" 
d="M359 -24l4 24l24 153l14 74l-2 3q-4 -10 -12 -25.5t-34 -56.5t-52.5 -72t-66 -56.5t-77.5 -25.5q-53 0 -80.5 43.5t-27.5 118.5q0 139 86 230.5t217 91.5q30 0 54.5 -5.5t38.5 -13t23 -15.5t12 -14l3 -5l-67 -425l-4 -24q-18 -107 -86 -169.5t-168 -62.5q-69 0 -113.5 30
t-44.5 80q0 13 3.5 26.5t6.5 20.5l4 7q15 7 44 7l5 -7q-13 -25 -13 -53q0 -39 31.5 -61.5t80.5 -22.5q76 0 128.5 56t68.5 149zM105 156q0 -125 73 -125q39 0 81.5 38.5t76.5 95t50.5 88t24.5 50.5l-12 -73l12 72v2l17 107q-2 4 -7 10.5t-27.5 17.5t-54.5 11
q-94 0 -164 -85.5t-70 -208.5zM484 735l8 -11q-7 -6 -16.5 -17.5t-26 -48t-16.5 -72.5l1 -19l-5 -4q-11 0 -20.5 1.5t-13.5 3.5l-4 2q-1 4 -1 14q0 25 9.5 50t23.5 42.5t28 31.5t23 20z" />
    <glyph glyph-name="Hcircumflex" unicode="&#x124;" horiz-adv-x="716" 
d="M520 0l54 340h-403l-54 -340h-56l111 700h56l-52 -329h403l52 329h55l-111 -700h-55zM558 780l-7 -6h-23l-71 102l-103 -102h-23l-5 6l130 137h16z" />
    <glyph glyph-name="hcircumflex" unicode="&#x125;" horiz-adv-x="558" 
d="M372 0l54 339q16 102 -54 102q-33 0 -69.5 -27.5t-63.5 -62.5t-53.5 -80t-37 -66.5t-16.5 -35.5v-1l-26 -168h-54l75 472q12 75 19.5 142.5t9.5 97.5l2 31l7 7h47q-4 -110 -31 -278l-14 -89l-25 -138l3 -3q4 10 12 25.5t34 56.5t53.5 72t68 56.5t80.5 25.5q50 0 73.5 -35
t12.5 -104l-53 -339h-54zM304 776l-7 -6h-23l-71 101l-104 -101h-22l-5 6l129 137h16z" />
    <glyph glyph-name="Hbar" unicode="&#x126;" horiz-adv-x="716" 
d="M520 0l54 340h-403l-54 -340h-56l84 529h-65l5 31h65l22 140h56l-22 -140h403l22 140h55l-22 -140h65l-5 -31h-65l-84 -529h-55zM201 529l-25 -158h403l25 158h-403z" />
    <glyph glyph-name="hbar" unicode="&#x127;" horiz-adv-x="560" 
d="M375 0l54 339q16 102 -54 102q-41 0 -84.5 -37t-78.5 -94.5t-51 -87t-26 -52.5v-2l-27 -168h-53l75 472q12 74 18 130h-77l2 15l79 18l9 108l7 7h46q-2 -47 -10 -119h162l-4 -29h-161q-11 -88 -18 -130l-14 -89l-24 -138l2 -3q4 10 12 25.5t34.5 56.5t54 72t68 56.5
t80.5 25.5q49 0 73 -35t13 -104l-54 -339h-53z" />
    <glyph glyph-name="Itilde" unicode="&#x128;" horiz-adv-x="258" 
d="M61 0l111 700h56l-111 -700h-56zM183 854q23 0 43.5 -18t38.5 -18t35 10t26 20l8 9l10 -13q-4 -7 -11 -17t-30.5 -26.5t-48.5 -16.5q-23 0 -43 18t-38 18t-35.5 -10t-25.5 -20l-9 -9l-10 13q4 7 11 17t30.5 26.5t48.5 16.5z" />
    <glyph glyph-name="itilde" unicode="&#x129;" horiz-adv-x="240" 
d="M131 646q22 0 42.5 -18t38.5 -18t35.5 10t26.5 20l8 9l10 -13q-1 -2 -4 -6.5t-12 -14.5t-18.5 -18t-25 -14.5t-31.5 -6.5q-22 0 -42.5 18t-38.5 18t-35 -10t-25 -20l-9 -9l-10 13q4 7 11 17t30.5 26.5t48.5 16.5zM53 0l48 300l22 165l7 7h47q-7 -72 -23 -172l-48 -300
h-53z" />
    <glyph glyph-name="Imacron" unicode="&#x12a;" horiz-adv-x="258" 
d="M61 0l111 700h56l-111 -700h-56zM113 804l5 32h208l-5 -32h-208z" />
    <glyph glyph-name="imacron" unicode="&#x12b;" horiz-adv-x="240" 
d="M60 596l5 31h208l-5 -31h-208zM53 0l48 300l22 165l7 7h47q-7 -72 -23 -172l-48 -300h-53z" />
    <glyph glyph-name="Ibreve" unicode="&#x12c;" horiz-adv-x="259" 
d="M61 0l111 700h56l-111 -700h-56zM109 857l15 14q3 -7 9.5 -16.5t31 -26t55.5 -16.5q30 0 58.5 15t41.5 29l14 15l10 -14q-2 -3 -5.5 -8.5t-15.5 -19t-26 -24t-36.5 -19t-46.5 -8.5q-38 0 -64.5 20t-33.5 40z" />
    <glyph glyph-name="ibreve" unicode="&#x12d;" horiz-adv-x="240" 
d="M48 649l15 14q1 -2 3.5 -6t10.5 -14.5t18 -18t27 -14t36 -6.5q31 0 59.5 15t42.5 29l13 15l10 -14q-2 -3 -5.5 -8.5t-16 -19.5t-26 -24.5t-36 -19t-46.5 -8.5t-43.5 8t-30.5 20t-18.5 24t-10.5 20zM53 0l48 300l22 165l7 7h47q-7 -72 -23 -172l-48 -300h-53z" />
    <glyph glyph-name="Iogonek" unicode="&#x12e;" horiz-adv-x="258" 
d="M61 0l111 700h56l-111 -700h-11q-46 -42 -46 -92q0 -36 33 -36q9 0 17.5 3t12.5 6l4 3l10 -13q-20 -27 -56 -27q-24 0 -39 15t-15 44q0 27 13.5 51t27.5 35l13 11h-20z" />
    <glyph glyph-name="iogonek" unicode="&#x12f;" horiz-adv-x="240" 
d="M53 0l48 300l22 165l7 7h47q-7 -72 -23 -172l-48 -300h-8q-46 -42 -46 -92q0 -36 33 -36q9 0 17.5 3t12.5 6l4 3l10 -13q-20 -27 -56 -27q-24 0 -39.5 15t-15.5 44q0 27 14 51t28 35l13 11h-20zM138 625q0 19 12 31.5t31 12.5q14 0 22.5 -9t8.5 -23q0 -19 -12 -31.5
t-31 -12.5q-31 0 -31 32z" />
    <glyph glyph-name="Idotaccent" unicode="&#x130;" horiz-adv-x="258" 
d="M61 0l111 700h56l-111 -700h-56zM184 837q0 18 11.5 30t29.5 12q31 0 31 -32q0 -18 -11.5 -30t-29.5 -12q-31 0 -31 32z" />
    <glyph glyph-name="dotlessi" unicode="&#x131;" horiz-adv-x="240" 
d="M53 0l48 300l22 165l7 7h47q-7 -72 -23 -172l-48 -300h-53z" />
    <glyph glyph-name="IJ" unicode="&#x132;" horiz-adv-x="575" 
d="M113 325l59 375h55l-59 -375h-55zM234 22q71 0 118 56.5t64 164.5l72 457h55l-71 -457q-19 -118 -82.5 -183.5t-161.5 -65.5q-74 0 -114.5 34.5t-40.5 93.5q0 22 5.5 42t11.5 30l6 9q17 7 48 7l5 -7q-21 -35 -21 -81q0 -47 28 -73.5t78 -26.5z" />
    <glyph glyph-name="ij" unicode="&#x133;" horiz-adv-x="480" 
d="M138 625q0 19 12 31.5t31 12.5q14 0 22.5 -9t8.5 -23q0 -19 -12 -31.5t-31 -12.5q-31 0 -31 32zM53 0l48 300l22 165l7 7h47q-7 -72 -23 -172l-48 -300h-53zM378 625q0 19 12 31.5t31 12.5q14 0 22.5 -9t8.5 -23q0 -19 -12.5 -31.5t-31.5 -12.5q-30 0 -30 32zM288 -36
l54 336l22 165l7 7h46q-6 -72 -22 -172l-52 -323q-7 -46 -27.5 -87t-44.5 -67t-47 -45t-38 -27l-15 -8l-10 13q4 3 11.5 8.5t26.5 25t35 41.5t32 58t22 75z" />
    <glyph glyph-name="Jcircumflex" unicode="&#x134;" horiz-adv-x="475" 
d="M311 210l78 490h55l-78 -488q-35 -218 -213 -218q-30 0 -55.5 6t-40.5 15t-26 18t-15 15l-4 6q2 16 10.5 29.5t15.5 19.5l7 6h7q1 -4 3 -9.5t10 -20.5t19 -26.5t31 -21t44 -9.5q122 0 152 188zM548 797l-7 -6h-23l-71 101l-103 -101h-23l-5 6l130 137h16z" />
    <glyph glyph-name="jcircumflex" unicode="&#x135;" horiz-adv-x="239" 
d="M48 -36l53 336l22 165l7 7h47q-7 -72 -23 -172l-51 -323q-7 -46 -27.5 -87t-44.5 -67t-47 -45t-38 -27l-15 -8l-11 13q4 3 11.5 8.5t27 25t35.5 41.5t32 58t22 75zM280 572l-8 -6h-22l-72 101l-103 -101h-23l-5 6l130 137h16z" />
    <glyph glyph-name="Kcommaaccent" unicode="&#x136;" horiz-adv-x="595" 
d="M61 0l111 700h56l-51 -319h54l317 319h43l-316 -318l110 -182q33 -53 65.5 -101.5t49.5 -70.5l16 -21l-1 -7h-68l-220 350h-55l-55 -350h-56zM190 -233l-8 11q7 6 16.5 17.5t26 48t16.5 72.5l-1 18l5 5q11 0 20.5 -1.5t13.5 -3.5l4 -2q1 -4 1 -14q0 -25 -9.5 -50
t-23.5 -42.5t-28 -31.5t-23 -20z" />
    <glyph glyph-name="kcommaaccent" unicode="&#x137;" horiz-adv-x="458" 
d="M362 472h46q4 -6 4 -20q0 -30 -38 -70t-144 -116l39 -74q13 -25 43.5 -71t54.5 -79l24 -34l-1 -8h-57l-152 242h-37l-38 -242h-54l75 472q12 73 19.5 140.5t9.5 99.5l2 31l7 7h47q-5 -114 -31 -278l-33 -204l32 2q105 68 143 108.5t38 68.5q0 6 -1.5 11t-2.5 6l-1 2z
M138 -233l-8 11q7 6 16.5 17.5t26 48t16.5 72.5v18l4 5q11 0 20.5 -1.5t13.5 -3.5l4 -2q1 -4 1 -14q0 -25 -9.5 -50t-23.5 -42.5t-28 -31.5t-23 -20z" />
    <glyph glyph-name="Lacute" unicode="&#x139;" horiz-adv-x="519" 
d="M61 0l111 700h56l-107 -670h170q47 0 84 3t51 7l14 3l6 -6l-6 -37h-379zM181 774l-5 6l105 137q14 0 24.5 -2t14.5 -4l4 -2l-1 -6l-122 -129h-20z" />
    <glyph glyph-name="lacute" unicode="&#x13a;" horiz-adv-x="239" 
d="M52 0l75 472q12 75 19.5 142.5t9.5 97.5l2 31l7 7h47q-4 -110 -31 -278l-75 -472h-54zM149 770l-5 6l105 137q14 0 24.5 -2t14.5 -4l4 -2l-1 -6l-122 -129h-20z" />
    <glyph glyph-name="Lcommaaccent" unicode="&#x13b;" horiz-adv-x="519" 
d="M61 0l111 700h56l-107 -670h170q47 0 84 3t51 7l14 3l6 -6l-6 -37h-379zM166 -233l-8 11q7 6 16.5 17.5t26 48t16.5 72.5l-1 18l5 5q11 0 20.5 -1.5t13.5 -3.5l4 -2q1 -4 1 -14q0 -25 -9.5 -50t-23.5 -42.5t-28 -31.5t-23 -20z" />
    <glyph glyph-name="lcommaaccent" unicode="&#x13c;" horiz-adv-x="239" 
d="M52 0l75 472q12 75 19.5 142.5t9.5 97.5l2 31l7 7h47q-4 -110 -31 -278l-75 -472h-54zM7 -233l-9 11l6.5 6.5t14.5 18.5t18 29t14.5 38t6.5 46l-1 18l4 5q11 0 20.5 -1.5t13.5 -3.5l4 -2q1 -4 1 -14q0 -25 -9.5 -50t-23 -42.5t-27.5 -31.5t-24 -20z" />
    <glyph glyph-name="Lcaron" unicode="&#x13d;" horiz-adv-x="519" 
d="M61 0l111 700h56l-107 -670h170q47 0 84 3t51 7l14 3l6 -6l-6 -37h-379zM399 534l-8 11q7 6 16.5 17.5t26 48t16.5 73.5l-1 18l5 4q11 0 20.5 -2t13.5 -4l4 -1q1 -3 1 -13q0 -26 -9.5 -51t-23.5 -42.5t-28 -31.5t-24 -21z" />
    <glyph glyph-name="lcaron" unicode="&#x13e;" horiz-adv-x="323" 
d="M52 0l75 472q12 75 19.5 142.5t9.5 97.5l2 31l7 7h47q-4 -110 -31 -278l-75 -472h-54zM281 584l-9 11l6.5 6.5t14.5 18.5t18 29t14.5 38.5t6.5 46.5l-1 18l4 4q12 0 21.5 -2t13.5 -4l3 -1q2 -3 2 -13q0 -26 -9.5 -51t-23.5 -42.5t-28 -31.5t-24 -21z" />
    <glyph glyph-name="Ldot" unicode="&#x13f;" horiz-adv-x="519" 
d="M61 0l111 700h56l-107 -670h170q47 0 84 3t51 7l14 3l6 -6l-6 -37h-379zM369 345q0 17 11.5 28.5t28.5 11.5q30 0 30 -30q0 -17 -11.5 -28.5t-28.5 -11.5q-30 0 -30 30z" />
    <glyph glyph-name="ldot" unicode="&#x140;" horiz-adv-x="341" 
d="M52 0l75 472q12 75 19.5 142.5t9.5 97.5l2 31l7 7h47q-4 -110 -31 -278l-75 -472h-54zM263 320q0 17 11.5 28.5t28.5 11.5q29 0 29 -30q0 -17 -11.5 -28.5t-28.5 -11.5q-29 0 -29 30z" />
    <glyph glyph-name="Lslash" unicode="&#x141;" horiz-adv-x="524" 
d="M28 277l-9 24l104 56l54 343h56l-49 -310l107 57l10 -25l-122 -65l-52 -327h169q47 0 84.5 3t51.5 7l14 3l4 -6l-5 -37h-378l51 325z" />
    <glyph glyph-name="lslash" unicode="&#x142;" horiz-adv-x="246" 
d="M28 277l-9 24l93 49l20 122q12 75 20 142.5t10 97.5l1 31l7 7h46q-4 -110 -31 -278l-15 -91l79 42l9 -24l-93 -49l-55 -350h-53l50 319z" />
    <glyph glyph-name="Nacute" unicode="&#x143;" horiz-adv-x="706" 
d="M61 0l67 420q13 80 21 148t9 96l2 29l7 7h22l357 -603l96 603h33l-111 -700h-18l-357 602l-96 -602h-32zM412 774l-4 6l105 137q14 0 24.5 -2t14.5 -4l4 -2l-1 -6l-123 -129h-20z" />
    <glyph glyph-name="nacute" unicode="&#x144;" horiz-adv-x="559" 
d="M53 0l48 300q7 44 10.5 85.5t2.5 60.5v19l7 7h47q3 -55 -13 -153l-12 -74l2 -3q4 10 12 25.5t34.5 56.5t54 72t68 56.5t80.5 25.5q49 0 73 -35t13 -104l-53 -339h-54l54 339q16 102 -54 102q-33 0 -69.5 -27.5t-63.5 -61.5t-53.5 -79.5t-36.5 -66.5t-17 -36v-2l-27 -168
h-53zM289 566l-4 6l105 137q14 0 24.5 -2t14.5 -4l4 -2l-1 -6l-122 -129h-21z" />
    <glyph glyph-name="Ncommaaccent" unicode="&#x145;" horiz-adv-x="706" 
d="M61 0l67 420q13 80 21 148t9 96l2 29l7 7h22l357 -603l96 603h33l-111 -700h-18l-357 602l-96 -602h-32zM246 -233l-9 11l6.5 6.5t14.5 18.5t18 29t14.5 38t6.5 46l-1 18l4 5q12 0 21.5 -1.5t12.5 -3.5l4 -2q2 -4 2 -14q0 -25 -9.5 -50t-23.5 -42.5t-28 -31.5t-23 -20z
" />
    <glyph glyph-name="ncommaaccent" unicode="&#x146;" horiz-adv-x="559" 
d="M53 0l48 300q7 44 10.5 85.5t2.5 60.5v19l7 7h47q3 -55 -13 -153l-12 -74l2 -3q4 10 12 25.5t34.5 56.5t54 72t68 56.5t80.5 25.5q49 0 73 -35t13 -104l-53 -339h-54l54 339q16 102 -54 102q-33 0 -69.5 -27.5t-63.5 -61.5t-53.5 -79.5t-36.5 -66.5t-17 -36v-2l-27 -168
h-53zM174 -233l-8 11q7 6 16.5 17.5t26 48t16.5 72.5v18l4 5q11 0 20.5 -1.5t13.5 -3.5l4 -2q1 -4 1 -14q0 -25 -9.5 -50t-23.5 -42.5t-28 -31.5t-23 -20z" />
    <glyph glyph-name="Ncaron" unicode="&#x147;" horiz-adv-x="706" 
d="M61 0l67 420q13 80 21 148t9 96l2 29l7 7h22l357 -603l96 603h33l-111 -700h-18l-357 602l-96 -602h-32zM568 912l4 -6l-129 -137h-17l-86 137l7 6h22l72 -101l104 101h23z" />
    <glyph glyph-name="ncaron" unicode="&#x148;" horiz-adv-x="559" 
d="M373 0l54 339q16 102 -54 102q-33 0 -69.5 -27.5t-63.5 -62.5t-53.5 -79.5t-37 -66t-16.5 -35.5v-2l-27 -168h-53l48 300q7 44 10.5 85.5t2.5 60.5v19l7 7h47q3 -55 -13 -153l-12 -74l2 -3q4 10 12 25.5t34.5 56.5t54 72t68 56.5t80.5 25.5q49 0 73 -35t13 -104l-53 -339
h-54zM441 704l4 -6l-129 -137h-17l-86 137l7 6h22l73 -101l103 101h23z" />
    <glyph glyph-name="Eng" unicode="&#x14a;" horiz-adv-x="706" 
d="M61 0l67 420q13 83 21 151.5t9 94.5l2 27l7 7h22l356 -605l97 605h33l-117 -738q-34 -218 -206 -218q-29 0 -54.5 6t-40.5 15t-26 18t-15 15l-5 6q3 16 11 29.5t15 19.5l7 6h7q1 -4 3 -9.5t10 -20.5t19 -26.5t31.5 -21t44.5 -9.5q121 0 151 188l12 69l-333 573l-96 -602
h-32z" />
    <glyph glyph-name="eng" unicode="&#x14b;" horiz-adv-x="559" 
d="M368 -36l59 375q16 102 -54 102q-41 0 -85 -38.5t-78.5 -95t-51.5 -88.5t-25 -51l-27 -168h-53l48 300q7 44 10.5 85.5t2.5 60.5v19l7 7h47q3 -55 -13 -153l-12 -74l2 -3q4 10 12 25.5t34.5 56.5t54 72t68 56.5t80.5 25.5q49 0 73 -35t13 -104l-57 -362q-7 -46 -27.5 -87
t-44.5 -67t-47 -45t-38 -27l-15 -8l-10 13q4 3 11.5 8.5t26.5 25t35 41.5t32 58t22 75z" />
    <glyph glyph-name="Omacron" unicode="&#x14c;" horiz-adv-x="743" 
d="M74 289q0 176 106.5 296.5t259.5 120.5q121 0 190 -79.5t69 -216.5q0 -176 -106.5 -296t-260.5 -120q-121 0 -189.5 79.5t-68.5 215.5zM134 285q0 -123 53 -193t150 -70q127 0 214.5 113.5t87.5 280.5q0 123 -53.5 192.5t-149.5 69.5q-126 0 -214 -113.5t-88 -279.5z
M355 804l5 32h207l-4 -32h-208z" />
    <glyph glyph-name="omacron" unicode="&#x14d;" horiz-adv-x="539" 
d="M50 196q0 120 73 201t179 81q85 0 133.5 -54.5t48.5 -147.5q0 -120 -73.5 -201t-180.5 -81q-85 0 -132.5 54.5t-47.5 147.5zM107 185q0 -75 33.5 -119.5t94.5 -44.5q79 0 135 80.5t56 185.5q0 76 -34 120t-95 44q-79 0 -134.5 -80.5t-55.5 -185.5zM213 596l5 31h208
l-5 -31h-208z" />
    <glyph glyph-name="Obreve" unicode="&#x14e;" horiz-adv-x="743" 
d="M74 289q0 176 106.5 296.5t259.5 120.5q121 0 190 -79.5t69 -216.5q0 -176 -106.5 -296t-260.5 -120q-121 0 -189.5 79.5t-68.5 215.5zM134 285q0 -123 53 -193t150 -70q127 0 214.5 113.5t87.5 280.5q0 123 -53.5 192.5t-149.5 69.5q-126 0 -214 -113.5t-88 -279.5z
M350 857l15 14q1 -2 3.5 -6t10.5 -14.5t18 -18t27 -14t36 -6.5q31 0 59.5 15t42.5 29l13 15l10 -14q-2 -3 -5.5 -8.5t-16 -19t-26 -24t-36 -19t-46.5 -8.5q-38 0 -64.5 20t-33.5 40z" />
    <glyph glyph-name="obreve" unicode="&#x14f;" horiz-adv-x="539" 
d="M50 196q0 120 73 201t179 81q85 0 133.5 -54.5t48.5 -147.5q0 -120 -73.5 -201t-180.5 -81q-85 0 -132.5 54.5t-47.5 147.5zM107 185q0 -75 33.5 -119.5t94.5 -44.5q79 0 135 80.5t56 185.5q0 76 -34 120t-95 44q-79 0 -134.5 -80.5t-55.5 -185.5zM201 649l15 14
q3 -7 9.5 -16.5t31 -26t55.5 -16.5q30 0 58.5 15t41.5 29l14 15l10 -14q-2 -3 -5.5 -8.5t-15.5 -19.5t-26 -24.5t-36.5 -19t-46.5 -8.5t-43.5 8t-30.5 20t-18.5 24t-9.5 20z" />
    <glyph glyph-name="Ohungarumlaut" unicode="&#x150;" horiz-adv-x="743" 
d="M74 289q0 176 106.5 296.5t259.5 120.5q121 0 190 -79.5t69 -216.5q0 -176 -106.5 -296t-260.5 -120q-121 0 -189.5 79.5t-68.5 215.5zM134 285q0 -123 53 -193t150 -70q127 0 214.5 113.5t87.5 280.5q0 123 -53.5 192.5t-149.5 69.5q-126 0 -214 -113.5t-88 -279.5z
M360 774l-5 6l105 137q14 0 24.5 -2t14.5 -4l4 -2l-1 -6l-122 -129h-20zM502 774l-5 6l109 137q13 0 23.5 -2t14.5 -4l3 -2v-6l-125 -129h-20z" />
    <glyph glyph-name="ohungarumlaut" unicode="&#x151;" horiz-adv-x="539" 
d="M50 196q0 120 73 201t179 81q85 0 133.5 -54.5t48.5 -147.5q0 -120 -73.5 -201t-180.5 -81q-85 0 -132.5 54.5t-47.5 147.5zM107 185q0 -75 33.5 -119.5t94.5 -44.5q79 0 135 80.5t56 185.5q0 76 -34 120t-95 44q-79 0 -134.5 -80.5t-55.5 -185.5zM209 566l-5 6l104 137
q14 0 24.5 -2t14.5 -4l4 -2l-1 -6l-121 -129h-20zM350 566l-4 6l109 137q13 0 23.5 -2t13.5 -4l4 -2l-1 -6l-125 -129h-20z" />
    <glyph glyph-name="OE" unicode="&#x152;" horiz-adv-x="956" 
d="M471 0l5 32q-69 -38 -147 -38q-117 0 -186 80t-69 216q0 175 107 295.5t259 120.5q78 0 136 -40l6 34h373l-6 -37l-8 -6q-40 13 -145 13h-164l-47 -299h263l5 -5l-4 -26h-269l-49 -310h173q47 0 84.5 3t51.5 7l14 3l5 -6l-6 -37h-382zM335 22q82 0 149 61l85 535
q-48 60 -132 60q-127 0 -215 -113.5t-88 -279.5q0 -123 53.5 -193t147.5 -70z" />
    <glyph glyph-name="oe" unicode="&#x153;" horiz-adv-x="849" 
d="M765 87l10 -14q-3 -3 -8 -8.5t-22 -19t-36.5 -24t-50.5 -19t-64 -8.5q-130 0 -161 121q-33 -56 -86 -88.5t-117 -32.5q-84 0 -132 55t-48 148q0 119 73 200t178 81q63 0 105.5 -33t58.5 -93q35 59 92.5 92.5t126.5 33.5q68 0 95 -29.5t27 -66.5q0 -55 -52.5 -95.5
t-124.5 -58t-153 -18.5v-16q0 -165 138 -165q41 0 79 14.5t55 28.5zM107 185q0 -75 33.5 -119.5t94.5 -44.5q79 0 135 80.5t56 185.5q0 76 -34 120t-95 44q-79 0 -134.5 -80.5t-55.5 -185.5zM679 451q-76 0 -132.5 -60t-68.5 -154q45 1 90.5 8.5t90 24t72 46.5t27.5 70
q0 65 -79 65z" />
    <glyph glyph-name="Racute" unicode="&#x154;" horiz-adv-x="591" 
d="M61 0l111 700h190q91 0 142 -43.5t51 -123.5q0 -82 -51.5 -138.5t-138.5 -72.5l61 -150q21 -50 41 -92t29 -58l10 -17l-6 -5h-61l-131 316h-141l-50 -316h-56zM349 669h-126l-51 -322h126q88 0 143.5 51t55.5 133q0 67 -39 102.5t-109 35.5zM345 774l-5 6l105 137
q14 0 24.5 -2t14.5 -4l4 -2l-1 -6l-122 -129h-20z" />
    <glyph glyph-name="racute" unicode="&#x155;" horiz-adv-x="368" 
d="M53 0l48 300q7 44 10.5 85.5t2.5 60.5v19l7 7h47q3 -55 -13 -153l-12 -76l2 -3q1 0 11.5 24t30 59t44.5 70t60 60t71 25q2 -24 -3 -58l-8 -7q-11 9 -28 9q-19 0 -41 -16.5t-44 -49t-37.5 -56.5t-34.5 -64.5t-22 -46.5t-12 -26v-1l-26 -162h-53zM214 566l-4 6l105 137
q14 0 24.5 -2t14.5 -4l4 -2l-1 -6l-122 -129h-21z" />
    <glyph glyph-name="Rcommaaccent" unicode="&#x156;" horiz-adv-x="591" 
d="M61 0l111 700h190q91 0 142 -43.5t51 -123.5q0 -82 -51.5 -138.5t-138.5 -72.5l61 -150q21 -50 41 -92t29 -58l10 -17l-6 -5h-61l-131 316h-141l-50 -316h-56zM349 669h-126l-51 -322h126q88 0 143.5 51t55.5 133q0 67 -39 102.5t-109 35.5zM190 -233l-8 11
q7 6 16.5 17.5t26 48t16.5 72.5l-1 18l5 5q11 0 20.5 -1.5t13.5 -3.5l4 -2q1 -4 1 -14q0 -25 -9.5 -50t-23.5 -42.5t-28 -31.5t-23 -20z" />
    <glyph glyph-name="rcommaaccent" unicode="&#x157;" horiz-adv-x="368" 
d="M53 0l48 300q7 44 10.5 85.5t2.5 60.5v19l7 7h47q3 -55 -13 -153l-12 -76l2 -3q1 0 11.5 24t30 59t44.5 70t60 60t71 25q2 -24 -3 -58l-8 -7q-11 9 -28 9q-19 0 -41 -16.5t-44 -49t-37.5 -56.5t-34.5 -64.5t-22 -46.5t-12 -26v-1l-26 -162h-53zM6 -233l-8 11
q7 6 16.5 17.5t26 48t16.5 72.5l-1 18l5 5q11 0 20.5 -1.5t13.5 -3.5l4 -2q1 -4 1 -14q0 -25 -9.5 -50t-23.5 -42.5t-28 -31.5t-23 -20z" />
    <glyph glyph-name="Rcaron" unicode="&#x158;" horiz-adv-x="591" 
d="M61 0l111 700h190q91 0 142 -43.5t51 -123.5q0 -82 -51.5 -138.5t-138.5 -72.5l61 -150q21 -50 41 -92t29 -58l10 -17l-6 -5h-61l-131 316h-141l-50 -316h-56zM349 669h-126l-51 -322h126q88 0 143.5 51t55.5 133q0 67 -39 102.5t-109 35.5zM508 912l5 -6l-129 -137h-17
l-86 137l6 6h23l72 -101l104 101h22z" />
    <glyph glyph-name="rcaron" unicode="&#x159;" horiz-adv-x="368" 
d="M53 0l48 300q7 44 10.5 85.5t2.5 60.5v19l7 7h47q3 -55 -13 -153l-12 -76l2 -3q1 0 11.5 24t30 59t44.5 70t60 60t71 25q2 -24 -3 -58l-8 -7q-11 9 -28 9q-19 0 -41 -16.5t-44 -49t-37.5 -56.5t-34.5 -64.5t-22 -46.5t-12 -26v-1l-26 -162h-53zM366 704l4 -6l-129 -137
h-17l-86 137l6 6h23l72 -101l104 101h23z" />
    <glyph glyph-name="Sacute" unicode="&#x15a;" horiz-adv-x="574" 
d="M343 678q-80 0 -121 -40.5t-41 -100.5q0 -45 28 -74t120 -88q95 -62 126.5 -96t31.5 -88q0 -88 -63.5 -142.5t-181.5 -54.5q-42 0 -78 7.5t-57 18.5t-36 22t-21 18l-5 8q2 16 11 30t17 20l8 7h8l5.5 -11t17.5 -25t31 -31.5t46.5 -24.5t63.5 -11q77 0 128 41.5t51 106.5
q0 51 -33.5 83t-114.5 80q-92 55 -124 90.5t-32 94.5q0 86 59 137t167 51q59 0 103 -15.5t59 -30.5l14 -16q-3 -16 -11.5 -30.5t-16.5 -21.5l-7 -6h-8q-1 4 -3.5 10t-13.5 22t-25.5 28t-41.5 22t-60 10zM338 774l-5 6l106 137q13 0 23.5 -2t14.5 -4l4 -2l-1 -6l-122 -129
h-20z" />
    <glyph glyph-name="sacute" unicode="&#x15b;" horiz-adv-x="454" 
d="M133 363q0 -29 22.5 -48t92.5 -59q71 -39 97.5 -65t26.5 -67q0 -57 -47.5 -93.5t-134.5 -36.5q-74 0 -113 28t-39 79q0 15 3 29.5t7 21.5l3 7q16 7 43 7l6 -7q-13 -24 -13 -55q0 -39 27.5 -61t80.5 -22q59 0 92.5 26t33.5 66q0 33 -24.5 54t-90.5 55q-36 19 -53 29
t-36 26t-26.5 33.5t-7.5 40.5q0 55 44.5 91t127.5 36q69 0 103.5 -27t34.5 -75q0 -16 -3.5 -31.5t-6.5 -22.5l-3 -7q-15 -8 -42 -8l-6 8q12 25 12 57q0 79 -96 79q-55 0 -85 -25t-30 -63zM236 566l-5 6l105 137q14 0 24.5 -2t14.5 -4l4 -2l-1 -6l-122 -129h-20z" />
    <glyph glyph-name="Scircumflex" unicode="&#x15c;" horiz-adv-x="574" 
d="M343 678q-80 0 -121 -40.5t-41 -100.5q0 -45 28 -74t120 -88q95 -62 126.5 -96t31.5 -88q0 -88 -63.5 -142.5t-181.5 -54.5q-42 0 -78 7.5t-57 18.5t-36 22t-21 18l-5 8q2 16 11 30t17 20l8 7h8l5.5 -11t17.5 -25t31 -31.5t46.5 -24.5t63.5 -11q77 0 128 41.5t51 106.5
q0 51 -33.5 83t-114.5 80q-92 55 -124 90.5t-32 94.5q0 86 59 137t167 51q59 0 103 -15.5t59 -30.5l14 -16q-3 -16 -11.5 -30.5t-16.5 -21.5l-7 -6h-8q-1 4 -3.5 10t-13.5 22t-25.5 28t-41.5 22t-60 10zM490 800l-7 -6h-23l-71 102l-104 -102h-23l-4 6l129 137h16z" />
    <glyph glyph-name="scircumflex" unicode="&#x15d;" horiz-adv-x="454" 
d="M133 363q0 -29 22.5 -48t92.5 -59q71 -39 97.5 -65t26.5 -67q0 -57 -47.5 -93.5t-134.5 -36.5q-74 0 -113 28t-39 79q0 15 3 29.5t7 21.5l3 7q16 7 43 7l6 -7q-13 -24 -13 -55q0 -39 27.5 -61t80.5 -22q59 0 92.5 26t33.5 66q0 33 -24.5 54t-90.5 55q-36 19 -53 29
t-36 26t-26.5 33.5t-7.5 40.5q0 55 44.5 91t127.5 36q69 0 103.5 -27t34.5 -75q0 -16 -3.5 -31.5t-6.5 -22.5l-3 -7q-15 -8 -42 -8l-6 8q12 25 12 57q0 79 -96 79q-55 0 -85 -25t-30 -63zM388 572l-7 -6h-23l-71 101l-104 -101h-22l-5 6l129 137h16z" />
    <glyph glyph-name="Scedilla" unicode="&#x15e;" horiz-adv-x="574" 
d="M215 -70l19 64q-41 1 -75 9t-54.5 18.5t-34.5 21t-20 17.5l-5 8q2 16 11 30t17 20l8 7h8l5.5 -11t17.5 -25t31 -31.5t46.5 -24.5t63.5 -11q77 0 128 41.5t51 106.5q0 51 -33.5 83t-114.5 80q-92 55 -124 90.5t-32 94.5q0 86 59 137t167 51q59 0 103 -15.5t59 -30.5
l14 -16q-3 -16 -11.5 -30.5t-16.5 -21.5l-7 -6h-8q-1 4 -3.5 10t-13.5 22t-25.5 28t-41.5 22t-60 10q-80 0 -121 -40.5t-41 -100.5q0 -45 28 -74t120 -88q95 -62 126.5 -96t31.5 -88q0 -84 -58.5 -138t-168.5 -58l-15 -49q22 0 36 -14t14 -38q0 -30 -21.5 -49t-53.5 -19
q-20 0 -34.5 8.5t-19.5 17.5l-4 8l13 12q13 -19 43 -19q20 0 32 10.5t12 28.5q0 32 -44 32z" />
    <glyph glyph-name="scedilla" unicode="&#x15f;" horiz-adv-x="454" 
d="M160 -70l20 64q-142 5 -142 107q0 15 3 29.5t7 21.5l3 7q16 7 43 7l6 -7q-13 -24 -13 -55q0 -39 27.5 -61t80.5 -22q59 0 92.5 26t33.5 66q0 33 -24.5 54t-90.5 55q-36 19 -53 29t-36 26t-26.5 33.5t-7.5 40.5q0 55 44.5 91t127.5 36q69 0 103.5 -27t34.5 -75
q0 -16 -3.5 -31.5t-6.5 -22.5l-3 -7q-15 -8 -42 -8l-6 8q12 25 12 57q0 79 -96 79q-55 0 -85 -25t-30 -63q0 -29 22.5 -48t92.5 -59q71 -39 97.5 -65t26.5 -67q0 -54 -43.5 -89.5t-122.5 -39.5l-15 -49q22 0 36 -14t14 -38q0 -30 -21.5 -49t-53.5 -19q-20 0 -34.5 8.5
t-19.5 17.5l-4 8l13 12q13 -19 43 -19q20 0 32 10.5t12 28.5q0 32 -44 32z" />
    <glyph glyph-name="Scaron" unicode="&#x160;" horiz-adv-x="574" 
d="M343 678q-80 0 -121 -40.5t-41 -100.5q0 -45 28 -74t120 -88q95 -62 126.5 -96t31.5 -88q0 -88 -63.5 -142.5t-181.5 -54.5q-42 0 -78 7.5t-57 18.5t-36 22t-21 18l-5 8q2 16 11 30t17 20l8 7h8l5.5 -11t17.5 -25t31 -31.5t46.5 -24.5t63.5 -11q77 0 128 41.5t51 106.5
q0 51 -33.5 83t-114.5 80q-92 55 -124 90.5t-32 94.5q0 86 59 137t167 51q59 0 103 -15.5t59 -30.5l14 -16q-3 -16 -11.5 -30.5t-16.5 -21.5l-7 -6h-8q-1 4 -3.5 10t-13.5 22t-25.5 28t-41.5 22t-60 10zM502 912l5 -6l-129 -137h-17l-86 137l6 6h23l72 -101l104 101h22z" />
    <glyph glyph-name="scaron" unicode="&#x161;" horiz-adv-x="454" 
d="M133 363q0 -29 22.5 -48t92.5 -59q71 -39 97.5 -65t26.5 -67q0 -57 -47.5 -93.5t-134.5 -36.5q-74 0 -113 28t-39 79q0 15 3 29.5t7 21.5l3 7q16 7 43 7l6 -7q-13 -24 -13 -55q0 -39 27.5 -61t80.5 -22q59 0 92.5 26t33.5 66q0 33 -24.5 54t-90.5 55q-36 19 -53 29
t-36 26t-26.5 33.5t-7.5 40.5q0 55 44.5 91t127.5 36q69 0 103.5 -27t34.5 -75q0 -16 -3.5 -31.5t-6.5 -22.5l-3 -7q-15 -8 -42 -8l-6 8q12 25 12 57q0 79 -96 79q-55 0 -85 -25t-30 -63zM387 704l5 -6l-130 -137h-17l-86 137l7 6h23l72 -101l103 101h23z" />
    <glyph glyph-name="Tcommaaccent" unicode="&#x162;" horiz-adv-x="609" 
d="M398 670l-105 -670h-56l106 670h-88q-47 0 -84 -3t-51 -7l-14 -3l-6 6l6 37h539l-6 -37l-7 -6q-40 13 -146 13h-88zM184 -233l-9 11l6.5 6.5t14.5 18.5t18 29t14.5 38t6.5 46l-1 18l4 5q12 0 21.5 -1.5t12.5 -3.5l4 -2q2 -4 2 -14q0 -25 -9.5 -50t-23.5 -42.5t-28 -31.5
t-23 -20z" />
    <glyph glyph-name="tcommaaccent" unicode="&#x163;" horiz-adv-x="330" 
d="M50 443l3 17l80 21l37 115h34l-19 -124h132l-5 -29h-132l-53 -337q-12 -77 53 -77q19 0 37 6.5t26 13.5l8 7l11 -14q-5 -5 -13.5 -13t-37 -21.5t-58.5 -13.5q-45 0 -67 27.5t-13 79.5l54 342h-77zM74 -233l-8 11q7 6 16.5 17.5t26 48t16.5 72.5l-1 18l5 5q11 0 20.5 -1.5
t13.5 -3.5l4 -2q1 -4 1 -14q0 -25 -9.5 -50t-23.5 -42.5t-28 -31.5t-23 -20z" />
    <glyph glyph-name="Tcaron" unicode="&#x164;" horiz-adv-x="609" 
d="M398 670l-105 -670h-56l106 670h-88q-47 0 -84 -3t-51 -7l-14 -3l-6 6l6 37h539l-6 -37l-7 -6q-40 13 -146 13h-88zM519 904l4 -6l-129 -137h-17l-86 137l7 6h22l72 -101l104 101h23z" />
    <glyph glyph-name="tcaron" unicode="&#x165;" horiz-adv-x="346" 
d="M50 443l3 17l80 21l37 115h34l-19 -124h132l-5 -29h-132l-53 -337q-12 -77 53 -77q19 0 37 6.5t26 13.5l8 7l11 -14q-5 -5 -13.5 -13t-37 -21.5t-58.5 -13.5q-45 0 -67 27.5t-13 79.5l54 342h-77zM303 584l-9 11l6.5 6.5t14.5 18.5t18 29t14.5 38.5t6.5 46.5l-1 18l4 4
q12 0 21.5 -2t13.5 -4l3 -1q2 -3 2 -13q0 -26 -9.5 -51t-23.5 -42.5t-28 -31.5t-24 -21z" />
    <glyph glyph-name="Tbar" unicode="&#x166;" horiz-adv-x="609" 
d="M169 362l5 31h125l44 277h-88q-47 0 -84 -3t-51 -7l-14 -3l-6 6l6 37h539l-6 -37l-7 -6q-40 13 -146 13h-88l-44 -277h125l-5 -31h-125l-56 -362h-56l57 362h-125z" />
    <glyph glyph-name="tbar" unicode="&#x167;" horiz-adv-x="330" 
d="M24 275l4 30h77l22 138h-77l3 17l80 21l37 115h34l-19 -124h132l-5 -29h-132l-22 -138h132l-4 -30h-133l-26 -169q-12 -77 53 -77q19 0 37 6.5t26 13.5l8 7l10 -14q-5 -5 -13.5 -13t-36.5 -21.5t-58 -13.5q-45 0 -67 27.5t-13 79.5l27 174h-76z" />
    <glyph glyph-name="Utilde" unicode="&#x168;" horiz-adv-x="678" 
d="M553 257l70 443h31l-70 -443q-18 -115 -97.5 -189t-190.5 -74q-110 0 -164.5 73.5t-36.5 189.5l70 443h55l-71 -449q-16 -99 29 -162t134 -63q90 0 157 64.5t84 166.5zM395 854q23 0 43.5 -18t38.5 -18t35 10t26 20l8 9l10 -13q-4 -7 -11 -17t-30.5 -26.5t-48.5 -16.5
q-23 0 -43 18t-38 18t-35.5 -10t-25.5 -20l-9 -9l-10 13q4 7 11 17t30.5 26.5t48.5 16.5z" />
    <glyph glyph-name="utilde" unicode="&#x169;" horiz-adv-x="556" 
d="M129 472h48q-6 -72 -22 -172l-26 -167q-16 -102 53 -102q28 0 57.5 18t55 49.5t46.5 61.5t39.5 65.5t25.5 50t12 26.5l-12 -72l13 73v1l25 161l7 7h48l-48 -300q-7 -44 -10.5 -85.5t-3.5 -60.5v-19l-6 -7h-47q-3 56 13 153l12 74l-3 3q-4 -10 -12 -25.5t-33.5 -56.5
t-52.5 -72t-67.5 -56.5t-79.5 -25.5q-49 0 -72.5 35t-12.5 104l26 167l21 165zM293 646q23 0 43 -18t38 -18t35.5 10t26.5 20l8 9l10 -13q-4 -7 -11 -17t-30.5 -26.5t-48.5 -16.5q-23 0 -43 18t-38 18t-35.5 -10t-25.5 -20l-9 -9l-10 13q4 7 11 17t30.5 26.5t48.5 16.5z
M419 303v1l-1 -2z" />
    <glyph glyph-name="Umacron" unicode="&#x16a;" horiz-adv-x="678" 
d="M553 257l70 443h31l-70 -443q-18 -115 -97.5 -189t-190.5 -74q-110 0 -164.5 73.5t-36.5 189.5l70 443h55l-71 -449q-16 -99 29 -162t134 -63q90 0 157 64.5t84 166.5zM324 804l5 32h208l-5 -32h-208z" />
    <glyph glyph-name="umacron" unicode="&#x16b;" horiz-adv-x="556" 
d="M129 472h48q-6 -72 -22 -172l-26 -167q-16 -102 53 -102q28 0 57.5 18t55 49.5t46.5 61.5t39.5 65.5t25.5 50t12 26.5l-12 -72l13 73v1l25 161l7 7h48l-48 -300q-7 -44 -10.5 -85.5t-3.5 -60.5v-19l-6 -7h-47q-3 56 13 153l12 74l-3 3q-4 -10 -12 -25.5t-33.5 -56.5
t-52.5 -72t-67.5 -56.5t-79.5 -25.5q-49 0 -72.5 35t-12.5 104l26 167l21 165zM221 596l5 31h208l-5 -31h-208zM419 304l-1 -2l1 1v1z" />
    <glyph glyph-name="Ubreve" unicode="&#x16c;" horiz-adv-x="678" 
d="M553 257l70 443h31l-70 -443q-18 -115 -97.5 -189t-190.5 -74q-110 0 -164.5 73.5t-36.5 189.5l70 443h55l-71 -449q-16 -99 29 -162t134 -63q90 0 157 64.5t84 166.5zM320 857l14 14q3 -7 9.5 -16.5t31 -26t55.5 -16.5q30 0 59 15t43 29l13 15l10 -14q-2 -3 -5.5 -8.5
t-16 -19t-26 -24t-36 -19t-46.5 -8.5q-38 0 -64.5 20t-33.5 40z" />
    <glyph glyph-name="ubreve" unicode="&#x16d;" horiz-adv-x="556" 
d="M129 472h48q-6 -72 -22 -172l-26 -167q-16 -102 53 -102q108 0 236 271l1 2l25 161l7 7h48l-48 -300q-7 -44 -10.5 -85.5t-3.5 -60.5v-19l-6 -7h-47q-3 56 13 153l12 74l-3 3q-4 -10 -12 -25.5t-33.5 -56.5t-52.5 -72t-67.5 -56.5t-79.5 -25.5q-49 0 -72.5 35t-12.5 104
l26 167l21 165zM211 649l15 14q1 -2 3.5 -6t10.5 -14.5t18 -18t27 -14t36 -6.5q31 0 59.5 15t41.5 29l14 15l10 -14q-2 -3 -5.5 -8.5t-16 -19.5t-26 -24.5t-36 -19t-46.5 -8.5t-43.5 8t-30.5 20t-18.5 24t-9.5 20z" />
    <glyph glyph-name="Uring" unicode="&#x16e;" horiz-adv-x="678" 
d="M553 257l70 443h31l-70 -443q-18 -115 -97.5 -189t-190.5 -74q-110 0 -164.5 73.5t-36.5 189.5l70 443h55l-71 -449q-16 -99 29 -162t134 -63q90 0 157 64.5t84 166.5zM364 832q0 37 24 62t58 25q28 0 43 -17t15 -46q0 -38 -23.5 -63.5t-58.5 -25.5q-27 0 -42.5 17.5
t-15.5 47.5zM393 836q0 -18 9.5 -29t25.5 -11q20 0 34 16.5t14 38.5q0 18 -9.5 28.5t-25.5 10.5q-20 0 -34 -16t-14 -38z" />
    <glyph glyph-name="uring" unicode="&#x16f;" horiz-adv-x="556" 
d="M129 472h48q-6 -72 -22 -172l-26 -167q-16 -102 53 -102q90 0 196 190q18 33 41 82v1l25 161l7 7h48l-48 -300q-7 -44 -10.5 -85.5t-3.5 -60.5v-19l-6 -7h-47q-3 56 13 153l12 74l-3 3q-4 -10 -12 -25.5t-33.5 -56.5t-52.5 -72t-67.5 -56.5t-79.5 -25.5q-49 0 -72.5 35
t-12.5 104l26 167l21 165zM258 624q0 37 24 62t58 25q28 0 43.5 -17t15.5 -46q0 -38 -24 -63.5t-59 -25.5q-27 0 -42.5 17.5t-15.5 47.5zM287 628q0 -18 9.5 -29t25.5 -11q20 0 34.5 16.5t14.5 38.5q0 17 -9.5 28t-25.5 11q-20 0 -34.5 -16t-14.5 -38z" />
    <glyph glyph-name="Uhungarumlaut" unicode="&#x170;" horiz-adv-x="678" 
d="M553 257l70 443h31l-70 -443q-18 -115 -97.5 -189t-190.5 -74q-110 0 -164.5 73.5t-36.5 189.5l70 443h55l-71 -449q-16 -99 29 -162t134 -63q90 0 157 64.5t84 166.5zM330 774l-5 6l104 137q14 0 24.5 -2t14.5 -4l4 -2l-1 -6l-121 -129h-20zM471 774l-4 6l109 137
q13 0 23 -2t13 -4l4 -2v-6l-125 -129h-20z" />
    <glyph glyph-name="uhungarumlaut" unicode="&#x171;" horiz-adv-x="556" 
d="M129 472h48q-6 -72 -22 -172l-26 -167q-16 -102 53 -102q108 0 236 271l-12 -72l13 73v1l25 161l7 7h48l-48 -300q-7 -44 -10.5 -85.5t-3.5 -60.5v-19l-6 -7h-47q-3 56 13 153l12 74l-3 3q-4 -10 -12 -25.5t-33.5 -56.5t-52.5 -72t-67.5 -56.5t-79.5 -25.5
q-49 0 -72.5 35t-12.5 104l26 167l21 165zM217 566l-5 6l105 137q14 0 24.5 -2t14.5 -4l4 -2l-1 -6l-122 -129h-20zM359 566l-5 6l110 137q13 0 23 -2t13 -4l4 -2v-6l-125 -129h-20zM419 303v1l-1 -2z" />
    <glyph glyph-name="Uogonek" unicode="&#x172;" horiz-adv-x="678" 
d="M553 257l70 443h31l-70 -443q-16 -99 -78.5 -169t-152.5 -88l-4 -4q-4 -5 -8.5 -10.5t-10.5 -14.5t-11 -18t-8 -21t-3 -24q0 -36 32 -36q9 0 18 3t13 6l4 3l10 -13q-21 -27 -56 -27q-24 0 -39.5 15t-15.5 44q0 53 47 93q-16 -2 -25 -2q-110 0 -164.5 73.5t-36.5 189.5
l70 443h55l-71 -449q-16 -99 29 -162t134 -63q90 0 157 64.5t84 166.5z" />
    <glyph glyph-name="uogonek" unicode="&#x173;" horiz-adv-x="556" 
d="M129 472h48q-6 -72 -22 -172l-26 -167q-16 -102 53 -102q90 0 196 190q18 33 41 82v1l25 161l7 7h48l-48 -300q-7 -44 -10.5 -85.5t-3.5 -60.5v-19l-6 -7h-6q-41 -41 -41 -87q0 -36 33 -36q9 0 17.5 2.5t12.5 5.5l4 3l10 -13q-20 -27 -55 -27q-24 0 -39.5 15t-15.5 44
q0 52 48 93h-15q-3 56 13 153l12 74l-3 3q-4 -10 -12 -25.5t-33.5 -56.5t-52.5 -72t-67.5 -56.5t-79.5 -25.5q-49 0 -72.5 35t-12.5 104l26 167l21 165z" />
    <glyph glyph-name="Wcircumflex" unicode="&#x174;" horiz-adv-x="959" 
d="M611 12l-84 481l-237 -493h-40l-10 12l-100 516q-10 52 -20 93.5t-14 56.5l-5 15l1 7h62l124 -636l230 479q-8 48 -16.5 85.5t-12.5 51.5l-4 13v7h64l110 -631l307 631h35l-341 -700h-39zM689 780l-7 -6h-23l-71 102l-104 -102h-23l-4 6l129 137h16z" />
    <glyph glyph-name="wcircumflex" unicode="&#x175;" horiz-adv-x="709" 
d="M433 12l-49 281q-49 -102 -175 -293h-37l-8 12l-58 288q-11 53 -22.5 94.5t-17.5 57.5l-5 15l5 5h56l85 -417q128 195 165 302q-7 34 -14.5 61.5t-11.5 37.5l-3 11l5 5h55l73 -417q104 152 143.5 235.5t39.5 137.5q0 13 -1.5 22.5t-3.5 12.5l-2 3l6 6h38q5 -8 6 -33
q0 -58 -48 -155t-178 -284h-35zM522 572l-7 -6h-23l-71 101l-103 -101h-23l-5 6l129 137h17z" />
    <glyph glyph-name="Ycircumflex" unicode="&#x176;" horiz-adv-x="586" 
d="M624 700l-293 -380l-50 -320h-55l49 316l-77 171q-26 56 -51 107.5t-37 75.5l-12 23l2 7h67l155 -346l264 346h38zM493 780l-7 -6h-23l-71 102l-103 -102h-23l-5 6l129 137h17z" />
    <glyph glyph-name="ycircumflex" unicode="&#x177;" horiz-adv-x="484" 
d="M-58 -256q-8 0 -17 2t-14 4l-5 2q0 14 3.5 26.5t6.5 17.5l4 5q15 -9 33 -9q38 0 100 55.5t130 145.5l-73 307q-13 53 -25 95t-17 57l-6 15l5 5h56l97 -429q80 112 134.5 220.5t54.5 164.5l-6 38l6 6h37q6 -15 6 -34q0 -55 -59.5 -172t-140 -232t-169.5 -202.5t-141 -87.5
zM401 572l-7 -6h-22l-72 101l-103 -101h-23l-5 6l130 137h16z" />
    <glyph glyph-name="Ydieresis" unicode="&#x178;" horiz-adv-x="586" 
d="M624 700l-293 -380l-50 -320h-55l49 316l-77 171q-26 56 -51 107.5t-37 75.5l-12 23l2 7h67l155 -346l264 346h38zM446 809q0 15 10 25.5t25 10.5q26 0 26 -27q0 -16 -10 -26t-26 -10q-25 0 -25 27zM256 809q0 15 10 25.5t25 10.5q26 0 26 -27q0 -16 -10 -26t-25 -10
q-26 0 -26 27z" />
    <glyph glyph-name="Zacute" unicode="&#x179;" horiz-adv-x="625" 
d="M28 19l532 651h-270q-47 0 -84.5 -3t-51.5 -7l-14 -3l-5 6l6 37h496l-2 -19l-532 -651h277q47 0 84 3t51 7l14 3l5 -6l-5 -37h-504zM373 774l-5 6l105 137q14 0 24.5 -2t14.5 -4l4 -2l-1 -6l-122 -129h-20z" />
    <glyph glyph-name="zacute" unicode="&#x17a;" horiz-adv-x="469" 
d="M19 19l355 423h-128q-47 0 -84.5 -3t-51.5 -7l-14 -3l-5 7l6 36h352l-3 -19l-355 -424h137q47 0 84 3.5t51 6.5l14 3l5 -6l-5 -36h-360zM254 566l-5 6l105 137q14 0 24.5 -2t14.5 -4l4 -2l-1 -6l-122 -129h-20z" />
    <glyph glyph-name="Zdotaccent" unicode="&#x17b;" horiz-adv-x="625" 
d="M28 19l532 651h-270q-47 0 -84.5 -3t-51.5 -7l-14 -3l-5 6l6 37h496l-2 -19l-532 -651h277q47 0 84 3t51 7l14 3l5 -6l-5 -37h-504zM373 834q0 16 11 27t27 11q27 0 27 -29q0 -16 -10.5 -27t-26.5 -11q-28 0 -28 29z" />
    <glyph glyph-name="zdotaccent" unicode="&#x17c;" horiz-adv-x="469" 
d="M19 19l355 423h-128q-47 0 -84.5 -3t-51.5 -7l-14 -3l-5 7l6 36h352l-3 -19l-355 -424h137q47 0 84 3.5t51 6.5l14 3l5 -6l-5 -36h-360zM260 622q0 17 10.5 27.5t26.5 10.5q28 0 28 -28q0 -17 -11 -28t-27 -11q-27 0 -27 29z" />
    <glyph glyph-name="Zcaron" unicode="&#x17d;" horiz-adv-x="625" 
d="M28 19l532 651h-270q-47 0 -84.5 -3t-51.5 -7l-14 -3l-5 6l6 37h496l-2 -19l-532 -651h277q47 0 84 3t51 7l14 3l5 -6l-5 -37h-504zM528 912l5 -6l-130 -137h-17l-85 137l6 6h23l72 -101l103 101h23z" />
    <glyph glyph-name="zcaron" unicode="&#x17e;" horiz-adv-x="469" 
d="M19 19l355 423h-128q-47 0 -84.5 -3t-51.5 -7l-14 -3l-5 7l6 36h352l-3 -19l-355 -424h137q47 0 84 3.5t51 6.5l14 3l5 -6l-5 -36h-360zM405 704l4 -6l-129 -137h-17l-86 137l7 6h22l72 -101l104 101h23z" />
    <glyph glyph-name="uni018F" unicode="&#x18f;" horiz-adv-x="688" 
d="M64 196q0 36 8 69t16 48l8 15l11 9h472q5 37 5 70q0 124 -55.5 192.5t-158.5 68.5q-38 0 -75 -9.5t-62.5 -23t-45.5 -27.5t-30 -24l-10 -9l-11 15q4 5 10.5 12.5t31 27.5t51.5 35.5t70.5 28t89.5 12.5q121 0 188.5 -79t67.5 -215q0 -176 -105 -297t-261 -121
q-103 0 -159 54.5t-56 147.5zM282 22q107 0 187.5 80.5t105.5 208.5l-438 -10q-20 -54 -20 -112q0 -78 43.5 -122.5t121.5 -44.5z" />
    <glyph glyph-name="florin" unicode="&#x192;" horiz-adv-x="344" 
d="M83 -36l85 479h-95l3 17l96 13l28 155q11 64 46.5 96.5t88.5 32.5q32 0 56.5 -11t32.5 -22l9 -11l-16 -13q-23 26 -70 26q-76 0 -93 -95l-29 -159h158l-5 -29h-157l-83 -466q-8 -46 -30 -87t-48 -67t-50.5 -45t-40.5 -27l-16 -8l-12 13q5 3 13 8.5t29.5 25t39.5 41.5
t35.5 58t24.5 75z" />
    <glyph glyph-name="uni01DD" unicode="&#x1dd;" horiz-adv-x="480" 
d="M86 385l-11 14q3 3 8 8.5t22.5 19t37 24t50.5 19t63 8.5q84 0 126.5 -53t42.5 -141q0 -128 -77.5 -209t-188.5 -81q-69 0 -96 29.5t-27 66.5q0 55 52 95t124 57.5t153 19.5q1 6 1 20q0 161 -130 161q-41 0 -78.5 -14.5t-54.5 -28.5zM163 21q77 0 132.5 59t67.5 155
q-46 -1 -91 -9t-89 -24t-71.5 -46t-27.5 -70q0 -65 79 -65z" />
    <glyph glyph-name="Aringacute" unicode="&#x1fa;" horiz-adv-x="651" 
d="M142 215l-117 -215h-35l371 680q0 1 -0.5 2.5t-0.5 2.5q-26 17 -26 56q0 38 24.5 63t58.5 25q11 0 20 -3l91 118q14 0 24.5 -2t14.5 -4l4 -2l-1 -6l-111 -118q16 -18 16 -47q0 -28 -14.5 -50.5t-37.5 -32.5l158 -682h-57l-50 215h-332zM402 528q-19 80 -29 113l-214 -395
h308zM363 745q0 -18 9.5 -28.5t25.5 -10.5q20 0 34.5 16t14.5 38q0 39 -35 39q-20 0 -34.5 -15.5t-14.5 -38.5z" />
    <glyph glyph-name="aringacute" unicode="&#x1fb;" horiz-adv-x="550" 
d="M483 425l-40 -253q-7 -44 -10.5 -85.5t-2.5 -60.5v-19l-7 -7h-46q-4 56 12 153l12 74l-2 3q-4 -10 -12 -25.5t-34 -56.5t-52.5 -72t-66 -56.5t-77.5 -25.5q-53 0 -80.5 43.5t-27.5 118.5q0 139 86 230.5t217 91.5q30 0 54.5 -5.5t38.5 -13t23 -15.5t12 -14zM105 156
q0 -125 73 -125q22 0 47.5 15t45 34.5t43 52.5t36 53.5t30.5 55t20 38.5t10 21l1 2v1l17 107q-2 4 -7 10.5t-27.5 17.5t-54.5 11q-94 0 -164 -85.5t-70 -208.5zM275 602q0 37 24 62t58 25h7l91 118q14 0 24.5 -2t14.5 -4l4 -2l-1 -6l-107 -113q25 -16 25 -54t-23.5 -63.5
t-58.5 -25.5q-27 0 -42.5 17.5t-15.5 47.5zM303 606q0 -17 9.5 -28.5t25.5 -11.5q20 0 34.5 16t14.5 39q0 18 -9.5 28.5t-25.5 10.5q-20 0 -34.5 -16t-14.5 -38z" />
    <glyph glyph-name="AEacute" unicode="&#x1fc;" horiz-adv-x="789" 
d="M-10 0l414 700h384l-7 -37l-7 -6q-40 13 -145 13h-164l-48 -299h264l4 -5l-4 -26h-269l-49 -310h173q47 0 84.5 3t51.5 7l14 3l5 -6l-6 -37h-382l34 219h-183l-129 -219h-35zM172 250h170l63 397zM445 774l-5 6l106 137q13 0 23.5 -2t14.5 -4l4 -2l-1 -6l-122 -129h-20z
" />
    <glyph glyph-name="aeacute" unicode="&#x1fd;" horiz-adv-x="768" 
d="M693 87l10 -14q-3 -3 -7.5 -8.5t-22 -19t-37 -24t-50.5 -19t-64 -8.5q-120 0 -166 98q-15 -17 -37.5 -35.5t-72 -40.5t-98.5 -22q-107 0 -107 100q0 57 40 95t137 51l124 17l4 19l12 73q17 102 -81 102q-59 0 -96 -35.5t-37 -91.5l1 -18l-8 -7q-12 0 -22 1.5t-14 3.5
l-4 2q-2 9 -2 21q0 65 50.5 108t135.5 43q118 0 124 -91q80 91 199 91q67 0 94 -29.5t27 -66.5q0 -55 -52 -95t-125 -58t-153 -19v-12q0 -81 37.5 -125t108.5 -44q42 0 80 14.5t55 28.5zM598 451q-78 0 -134 -60.5t-67 -153.5q46 1 91 8.5t89.5 24t72 46.5t27.5 70
q0 65 -79 65zM98 105q0 -76 78 -76q89 0 171 85q-11 33 -11 81q0 12 2 34l-118 -16q-122 -16 -122 -108zM414 566l-4 6l105 137q14 0 24.5 -2t14.5 -4l4 -2l-1 -6l-123 -129h-20z" />
    <glyph glyph-name="Oslashacute" unicode="&#x1fe;" horiz-adv-x="742" 
d="M151 -25h-34l50 74q-93 79 -93 240q0 176 106.5 296.5t259.5 120.5q82 0 143 -39l39 58h34l-50 -75q93 -78 93 -240q0 -176 -106.5 -296t-260.5 -120q-84 0 -142 38zM133 285q0 -130 58 -200l370 549q-52 44 -125 44q-127 0 -215 -113.5t-88 -279.5zM640 415
q0 128 -59 199l-369 -549q49 -43 125 -43q127 0 215 113.5t88 279.5zM422 774l-5 6l106 137q14 0 24.5 -2t14.5 -4l4 -2l-1 -6l-123 -129h-20z" />
    <glyph glyph-name="oslashacute" unicode="&#x1ff;" horiz-adv-x="539" 
d="M63 -1l37 47q-50 53 -50 150q0 120 73 201t179 81q65 0 110 -34l33 42l22 -16l-35 -44q52 -55 52 -150q0 -120 -73.5 -201t-180.5 -81q-68 0 -110 33l-35 -44zM427 285q0 64 -23 105l-259 -331q33 -38 90 -38q80 0 136 78.5t56 185.5zM106 188q0 -65 22 -106l259 331
q-35 38 -90 38q-79 0 -135 -78.5t-56 -184.5zM280 566l-5 6l105 137q14 0 24.5 -2t14.5 -4l4 -2l-1 -6l-122 -129h-20z" />
    <glyph glyph-name="Scommaaccent" unicode="&#x218;" horiz-adv-x="574" 
d="M343 678q-80 0 -121 -40.5t-41 -100.5q0 -45 28 -74t120 -88q95 -62 126.5 -96t31.5 -88q0 -88 -63.5 -142.5t-181.5 -54.5q-42 0 -78 7.5t-57 18.5t-36 22t-21 18l-5 8q2 16 11 30t17 20l8 7h8l5.5 -11t17.5 -25t31 -31.5t46.5 -24.5t63.5 -11q77 0 128 41.5t51 106.5
q0 51 -33.5 83t-114.5 80q-92 55 -124 90.5t-32 94.5q0 86 59 137t167 51q59 0 103 -15.5t59 -30.5l14 -16q-3 -16 -11.5 -30.5t-16.5 -21.5l-7 -6h-8q-1 4 -3.5 10t-13.5 22t-25.5 28t-41.5 22t-60 10zM169 -233l-8 11q7 6 16.5 17.5t26 48t16.5 72.5l-1 18l5 5
q11 0 20.5 -1.5t13.5 -3.5l4 -2q1 -4 1 -14q0 -25 -9.5 -50t-23.5 -42.5t-28 -31.5t-24 -20z" />
    <glyph glyph-name="scommaaccent" unicode="&#x219;" horiz-adv-x="454" 
d="M133 363q0 -29 22.5 -48t92.5 -59q71 -39 97.5 -65t26.5 -67q0 -57 -47.5 -93.5t-134.5 -36.5q-74 0 -113 28t-39 79q0 15 3 29.5t7 21.5l3 7q16 7 43 7l6 -7q-13 -24 -13 -55q0 -39 27.5 -61t80.5 -22q59 0 92.5 26t33.5 66q0 33 -24.5 54t-90.5 55q-36 19 -53 29
t-36 26t-26.5 33.5t-7.5 40.5q0 55 44.5 91t127.5 36q69 0 103.5 -27t34.5 -75q0 -16 -3.5 -31.5t-6.5 -22.5l-3 -7q-15 -8 -42 -8l-6 8q12 25 12 57q0 79 -96 79q-55 0 -85 -25t-30 -63zM122 -233l-8 11q7 6 16.5 17.5t26 48t16.5 72.5l-1 18l5 5q11 0 20.5 -1.5t13.5 -3.5
l4 -2q1 -4 1 -14q0 -25 -9.5 -50t-23.5 -42.5t-28 -31.5t-23 -20z" />
    <glyph glyph-name="uni021A" unicode="&#x21a;" horiz-adv-x="609" 
d="M398 670l-105 -670h-56l106 670h-88q-47 0 -84 -3t-51 -7l-14 -3l-6 6l6 37h539l-6 -37l-7 -6q-40 13 -146 13h-88zM184 -233l-9 11l6.5 6.5t14.5 18.5t18 29t14.5 38t6.5 46l-1 18l4 5q12 0 21.5 -1.5t12.5 -3.5l4 -2q2 -4 2 -14q0 -25 -9.5 -50t-23.5 -42.5t-28 -31.5
t-23 -20z" />
    <glyph glyph-name="uni021B" unicode="&#x21b;" horiz-adv-x="330" 
d="M50 443l3 17l80 21l37 115h34l-19 -124h132l-5 -29h-132l-53 -337q-12 -77 53 -77q19 0 37 6.5t26 13.5l8 7l11 -14q-5 -5 -13.5 -13t-37 -21.5t-58.5 -13.5q-45 0 -67 27.5t-13 79.5l54 342h-77zM74 -233l-8 11q7 6 16.5 17.5t26 48t16.5 72.5l-1 18l5 5q11 0 20.5 -1.5
t13.5 -3.5l4 -2q1 -4 1 -14q0 -25 -9.5 -50t-23.5 -42.5t-28 -31.5t-23 -20z" />
    <glyph glyph-name="dotlessj" unicode="&#x237;" horiz-adv-x="239" 
d="M48 -36l53 336l22 165l7 7h47q-7 -72 -23 -172l-51 -323q-7 -46 -27.5 -87t-44.5 -67t-47 -45t-38 -27l-15 -8l-11 13q4 3 11.5 8.5t27 25t35.5 41.5t32 58t22 75z" />
    <glyph glyph-name="circumflex" unicode="&#x2c6;" horiz-adv-x="315" 
d="M324 572l-7 -6h-23l-71 101l-103 -101h-23l-5 6l130 137h16z" />
    <glyph glyph-name="caron" unicode="&#x2c7;" horiz-adv-x="316" 
d="M340 704l5 -6l-130 -137h-17l-85 137l6 6h23l72 -101l103 101h23z" />
    <glyph glyph-name="breve" unicode="&#x2d8;" horiz-adv-x="339" 
d="M114 649l15 14q3 -7 9.5 -16.5t31 -26t55.5 -16.5q30 0 59 15t42 29l14 15l10 -14q-2 -3 -5.5 -8.5t-16 -19.5t-26 -24.5t-36 -19t-46.5 -8.5t-44 8t-31 20t-18.5 24t-10.5 20z" />
    <glyph glyph-name="dotaccent" unicode="&#x2d9;" horiz-adv-x="235" 
d="M144 622q0 17 10.5 27.5t26.5 10.5q28 0 28 -28q0 -17 -11 -28t-27 -11q-27 0 -27 29z" />
    <glyph glyph-name="ring" unicode="&#x2da;" horiz-adv-x="231" 
d="M106 624q0 37 24 62t58 25q28 0 43.5 -17t15.5 -46q0 -37 -23.5 -63t-58.5 -26q-28 0 -43.5 17.5t-15.5 47.5zM135 628q0 -18 9.5 -29t25.5 -11q20 0 34.5 16.5t14.5 38.5q0 18 -9.5 28.5t-25.5 10.5q-20 0 -34.5 -16t-14.5 -38z" />
    <glyph glyph-name="ogonek" unicode="&#x2db;" horiz-adv-x="212" 
d="M48 0h25q-45 -42 -45 -92q0 -36 32 -36q9 0 17.5 3t12.5 6l4 3l10 -13q-20 -27 -55 -27q-24 0 -39.5 15t-15.5 44q0 27 13.5 51t26.5 35z" />
    <glyph glyph-name="tilde" unicode="&#x2dc;" horiz-adv-x="339" 
d="M191 646q23 0 43 -18t38 -18t35.5 10t26.5 20l8 9l10 -13q-4 -7 -11 -17t-30.5 -26.5t-48.5 -16.5q-23 0 -43 18t-38 18t-35.5 -10t-25.5 -20l-9 -9l-10 13q4 7 11 17t30.5 26.5t48.5 16.5z" />
    <glyph glyph-name="hungarumlaut" unicode="&#x2dd;" horiz-adv-x="375" 
d="M107 566l-5 6l105 137q14 0 24.5 -2t14.5 -4l4 -2l-1 -6l-122 -129h-20zM249 566l-5 6l109 137q13 0 23.5 -2t13.5 -4l4 -2v-6l-125 -129h-20z" />
    <glyph glyph-name="uni0400" unicode="&#x400;" horiz-adv-x="562" 
d="M61 0l111 700h389l-5 -37l-7 -6q-41 13 -146 13h-180l-48 -299h280l5 -5l-4 -26h-286l-49 -310h190q47 0 84 3t51 7l14 3l5 -6l-5 -37h-399zM427 780l-6 -6h-21l-82 129l2 6q14 8 45 8z" />
    <glyph glyph-name="afii10023" unicode="&#x401;" horiz-adv-x="562" 
d="M61 0l111 700h389l-5 -37l-7 -6q-41 13 -146 13h-180l-48 -299h280l5 -5l-4 -26h-286l-49 -310h190q47 0 84 3t51 7l14 3l5 -6l-5 -37h-399zM450 809q0 15 10 25.5t25 10.5q26 0 26 -27q0 -16 -10 -26t-26 -10q-25 0 -25 27zM260 809q0 15 10 25.5t25 10.5q26 0 26 -27
q0 -16 -10 -26t-25 -10q-26 0 -26 27z" />
    <glyph glyph-name="afii10051" unicode="&#x402;" horiz-adv-x="805" 
d="M653 210l5 30q23 144 -117 144q-96 0 -197 -57l-51 -327h-56l106 670h-88q-47 0 -84 -3t-51 -7l-14 -3l-6 6l6 37h539l-6 -37l-7 -6q-40 13 -146 13h-88l-49 -309q113 60 218 60q172 0 143 -178l-5 -31q-35 -218 -194 -218q-42 0 -73 15t-41 30l-10 15q2 14 9.5 25.5
t13.5 16.5l6 5h8q1 -3 2.5 -8.5t8.5 -19t16 -24t26.5 -19t38.5 -8.5q106 0 137 188z" />
    <glyph glyph-name="afii10052" unicode="&#x403;" horiz-adv-x="514" 
d="M347 774l-4 6l105 137q14 0 24.5 -2t14.5 -4l4 -2l-1 -6l-122 -129h-21zM61 0l111 700h378l-6 -37l-7 -6q-40 13 -146 13h-168l-106 -670h-56z" />
    <glyph glyph-name="afii10053" unicode="&#x404;" horiz-adv-x="676" 
d="M445 678q-119 0 -201.5 -86t-102.5 -221h362l4 -6l-4 -26h-366q-2 -15 -2 -45q0 -125 56.5 -193.5t161.5 -68.5q58 0 113 20t81 40l26 20l11 -15l-11 -11t-31 -25t-51 -31.5t-69 -24.5t-86 -11q-123 0 -192.5 79t-69.5 218q0 176 106 295.5t270 119.5q97 0 150.5 -43
t53.5 -116q0 -23 -5 -41t-9 -24l-5 -7q-18 -7 -48 -7l-5 7q17 26 17 73q0 61 -40 95.5t-114 34.5z" />
    <glyph glyph-name="afii10054" unicode="&#x405;" horiz-adv-x="574" 
d="M343 678q-80 0 -121 -40t-41 -101q0 -44 28.5 -73.5t119.5 -88.5q68 -44 95 -65t45 -50.5t18 -69.5q0 -87 -63.5 -141.5t-181.5 -54.5q-42 0 -78 7.5t-57 18.5t-36 22t-21 18l-5 8q2 16 11 30t17 20l8 7h8l5.5 -11t17.5 -25t31 -31.5t46.5 -24.5t63.5 -11q77 0 128 41.5
t51 106.5q0 50 -33 82.5t-115 80.5q-91 55 -123.5 89.5t-32.5 95.5q0 86 59 137t167 51q59 0 103 -15.5t59 -30.5l14 -16q-3 -16 -11.5 -30.5t-16.5 -21.5l-7 -6h-8q-1 4 -3.5 10t-13.5 22t-25.5 28t-41.5 22t-60 10z" />
    <glyph glyph-name="afii10055" unicode="&#x406;" horiz-adv-x="258" 
d="M61 0l111 700h56l-111 -700h-56z" />
    <glyph glyph-name="afii10056" unicode="&#x407;" horiz-adv-x="258" 
d="M89 789q0 15 10 25.5t25 10.5q26 0 26 -27q0 -16 -9.5 -26t-24.5 -10q-27 0 -27 27zM279 789q0 15 10 25.5t25 10.5q26 0 26 -27q0 -16 -9.5 -26t-25.5 -10q-26 0 -26 27zM61 0l111 700h56l-111 -700h-56z" />
    <glyph glyph-name="afii10057" unicode="&#x408;" horiz-adv-x="475" 
d="M311 210l78 490h55l-78 -488q-35 -218 -213 -218q-30 0 -55.5 6t-40.5 15t-26 18t-15 15l-4 6q2 16 10.5 29.5t15.5 19.5l7 6h7q1 -4 3 -9.5t10 -20.5t19 -26.5t31 -21t44 -9.5q122 0 152 188z" />
    <glyph glyph-name="afii10058" unicode="&#x409;" horiz-adv-x="991" 
d="M2 47l7 6q16 -9 37 -9q123 0 180 468q8 55 13 100.5t7 63.5l1 17l8 7h392l-50 -314h138q91 0 141.5 -43.5t50.5 -124.5q0 -97 -70.5 -157.5t-182.5 -60.5h-193l105 669h-298l-28 -177q-43 -264 -94 -381t-124 -117q-11 0 -21 2t-15 4l-4 3q-5 17 0 44zM870 215
q0 68 -38.5 103.5t-109.5 35.5h-130l-51 -323h129q89 0 144.5 51t55.5 133z" />
    <glyph glyph-name="afii10059" unicode="&#x40a;" horiz-adv-x="1007" 
d="M497 0l55 349h-380l-55 -349h-56l111 700h56l-51 -319h380l51 319h55l-51 -319h139q91 0 141.5 -42t50.5 -123q0 -97 -70 -156.5t-183 -59.5h-193zM886 212q0 68 -39 102.5t-110 34.5h-130l-50 -318h130q89 0 144 49.5t55 131.5z" />
    <glyph glyph-name="afii10060" unicode="&#x40b;" horiz-adv-x="805" 
d="M617 0l38 240q23 144 -116 144q-94 0 -195 -57l-51 -327h-56l106 670h-88q-47 0 -84 -3t-51 -7l-14 -3l-6 6l6 37h539l-6 -37l-7 -6q-40 13 -146 13h-88l-49 -309q113 60 218 60q171 0 144 -178l-39 -243h-55z" />
    <glyph glyph-name="afii10061" unicode="&#x40c;" horiz-adv-x="595" 
d="M61 0l111 700h56l-51 -319h54l317 319h43l-316 -318l110 -182q33 -53 65.5 -101.5t49.5 -70.5l16 -21l-1 -7h-68l-220 350h-55l-55 -350h-56zM347 774l-4 6l105 137q14 0 24.5 -2t14.5 -4l4 -2l-1 -6l-122 -129h-21z" />
    <glyph glyph-name="uni040D" unicode="&#x40d;" horiz-adv-x="716" 
d="M107 0h-46l111 700h56l-99 -623l511 623h46l-111 -700h-55l99 622zM479 780l-6 -6h-21l-82 129l2 6q14 8 45 8z" />
    <glyph glyph-name="afii10062" unicode="&#x40e;" horiz-adv-x="588" 
d="M87 46l8 7q13 -13 47 -13t64.5 25.5t79.5 103.5l-133 398q-15 45 -28 77t-19 42l-5 9l1 5h67l155 -466q1 0 1 1l269 465h35l-281 -482q-79 -136 -120 -180t-91 -44q-15 0 -27.5 3t-17.5 7l-4 3q-1 2 -1.5 5t-1 13t1.5 21zM393 752q-53 0 -83 21t-30 54q0 9 2.5 18.5
t5.5 14.5l2 4q14 7 37 7l4 -6q-9 -16 -9 -32q0 -22 20.5 -36.5t54.5 -14.5q39 0 65 18.5t26 48.5l-2 15l7 6q10 0 19 -2t12 -4l4 -1q1 -9 1 -17q0 -40 -38.5 -67t-97.5 -27z" />
    <glyph glyph-name="afii10145" unicode="&#x40f;" horiz-adv-x="716" 
d="M228 700l-106 -669h403l106 669h55l-111 -700h-233l-34 -175h-29l-6 7l20 168h-232l111 700h56z" />
    <glyph glyph-name="afii10017" unicode="&#x410;" horiz-adv-x="651" 
d="M142 215l-117 -215h-35l371 680l-4 13l1 7h61l162 -700h-57l-50 215h-332zM402 528q-19 80 -29 113l-214 -395h308z" />
    <glyph glyph-name="afii10018" unicode="&#x411;" horiz-adv-x="583" 
d="M61 0l111 700h370l-6 -37l-7 -6q-40 13 -146 13h-160l-44 -277h146q90 0 141 -44t51 -126q0 -100 -71 -161.5t-183 -61.5h-202zM459 221q0 69 -38.5 105t-108.5 36h-138l-52 -331h137q89 0 144.5 52t55.5 138z" />
    <glyph glyph-name="afii10019" unicode="&#x412;" horiz-adv-x="617" 
d="M61 0l111 700h219q175 0 175 -149q0 -69 -38 -119t-108 -69q126 -24 126 -154q0 -94 -66 -151.5t-179 -57.5h-240zM489 211q0 66 -36.5 100t-105.5 34h-175l-50 -314h176q87 0 139 49.5t52 130.5zM508 545q0 124 -130 124h-155l-46 -293h154q84 0 130.5 47t46.5 122z" />
    <glyph glyph-name="afii10020" unicode="&#x413;" horiz-adv-x="514" 
d="M61 0l111 700h378l-6 -37l-7 -6q-40 13 -146 13h-168l-106 -670h-56z" />
    <glyph glyph-name="afii10021" unicode="&#x414;" horiz-adv-x="731" 
d="M645 31l6 -7l-36 -199h-29l-5 7q7 44 11 86t4 62l1 20h-543q-22 -70 -38 -168l-7 -7h-29l27 199l8 7h49q54 14 103 131.5t76 351.5q8 51 13 95.5t6 64.5l2 19l8 7h401l-106 -669h78zM276 492q-61 -381 -152 -461h388l101 638h-308z" />
    <glyph glyph-name="afii10022" unicode="&#x415;" horiz-adv-x="562" 
d="M61 0l111 700h389l-5 -37l-7 -6q-41 13 -146 13h-180l-48 -299h280l5 -5l-4 -26h-286l-49 -310h190q47 0 84 3t51 7l14 3l5 -6l-5 -37h-399z" />
    <glyph glyph-name="afii10024" unicode="&#x416;" horiz-adv-x="863" 
d="M172 200l152 183l-184 317h40l185 -318h59l51 318h55l-51 -318h58l288 318h40l-286 -316l94 -184q28 -53 56 -101.5t42 -70.5l14 -21l-1 -7h-63l-187 351h-60l-55 -351h-55l55 351h-61l-296 -351h-63l1 7q71 74 172 193z" />
    <glyph glyph-name="afii10025" unicode="&#x417;" horiz-adv-x="585" 
d="M251 22q91 0 148 52.5t57 136.5q0 65 -36.5 99t-104.5 34h-92l-5 6l4 26h76q88 0 134 49.5t46 128.5q0 60 -31.5 92t-93.5 32q-33 0 -65 -11t-53.5 -26.5t-39 -31t-25.5 -26.5l-8 -11h-10l-5.5 5.5t-7.5 17t-2 29.5l8.5 8.5t25 20t42.5 25t61 19.5t79 9q181 0 181 -152
q0 -69 -38 -120.5t-108 -71.5q61 -11 92.5 -50.5t31.5 -101.5q0 -98 -73 -157t-197 -59q-46 0 -83 8.5t-57.5 20.5t-35 24t-18.5 21l-5 8q2 16 10 29t15 18l7 5h8q1 -4 4.5 -11.5t16.5 -25.5t30 -32t48 -25.5t69 -11.5z" />
    <glyph glyph-name="afii10026" unicode="&#x418;" horiz-adv-x="716" 
d="M107 0h-46l111 700h56l-99 -623l511 623h46l-111 -700h-55l99 622z" />
    <glyph glyph-name="afii10027" unicode="&#x419;" horiz-adv-x="716" 
d="M107 0h-46l111 700h56l-99 -623l511 623h46l-111 -700h-55l99 622zM438 752q-52 0 -82 21t-30 54q0 9 2.5 18.5t5.5 14.5l2 4q14 7 37 7l4 -6q-8 -17 -8 -32q0 -22 20 -36.5t54 -14.5q39 0 65 18.5t26 47.5l-2 16l7 6q10 0 19 -2t12 -4l4 -1q2 -8 2 -18q0 -39 -39 -66
t-99 -27z" />
    <glyph glyph-name="afii10028" unicode="&#x41a;" horiz-adv-x="595" 
d="M61 0l111 700h56l-51 -319h54l317 319h43l-316 -318l110 -182q33 -53 65.5 -101.5t49.5 -70.5l16 -21l-1 -7h-68l-220 350h-55l-55 -350h-56z" />
    <glyph glyph-name="afii10029" unicode="&#x41b;" horiz-adv-x="677" 
d="M2 47l7 6q16 -9 37 -9q123 0 180 468q8 55 13 100.5t7 63.5l1 17l8 7h392l-111 -700h-55l105 669h-298l-28 -177q-43 -264 -94 -381t-124 -117q-11 0 -21 2t-15 4l-4 3q-5 17 0 44z" />
    <glyph glyph-name="afii10030" unicode="&#x41c;" horiz-adv-x="835" 
d="M672 0l21 635l-3 4l-298 -619h-38l-9 12l-113 603l-4 -3l-167 -632h-34l142 528q12 46 20.5 87t10.5 59l3 19l8 7h66l115 -608l295 608h65l-23 -700h-57z" />
    <glyph glyph-name="afii10031" unicode="&#x41d;" horiz-adv-x="716" 
d="M520 0l54 340h-403l-54 -340h-56l111 700h56l-52 -329h403l52 329h55l-111 -700h-55z" />
    <glyph glyph-name="afii10032" unicode="&#x41e;" horiz-adv-x="742" 
d="M74 289q0 176 106.5 296.5t259.5 120.5q121 0 190 -79.5t69 -216.5q0 -176 -106.5 -296t-260.5 -120q-121 0 -189.5 79.5t-68.5 215.5zM134 285q0 -123 53 -193t150 -70q127 0 214.5 113.5t87.5 280.5q0 123 -53.5 192.5t-149.5 69.5q-126 0 -214 -113.5t-88 -279.5z" />
    <glyph glyph-name="afii10033" unicode="&#x41f;" horiz-adv-x="716" 
d="M520 0l106 669h-403l-106 -669h-56l111 700h514l-111 -700h-55z" />
    <glyph glyph-name="afii10034" unicode="&#x420;" horiz-adv-x="576" 
d="M61 0l111 700h202q90 0 140.5 -44.5t50.5 -126.5q0 -101 -71 -163t-183 -62h-146l-48 -304h-56zM361 669h-138l-53 -333h137q90 0 145.5 52.5t55.5 138.5q0 68 -38.5 105t-108.5 37z" />
    <glyph glyph-name="afii10035" unicode="&#x421;" horiz-adv-x="676" 
d="M443 678q-134 0 -221 -111t-87 -273q0 -125 56.5 -193.5t162.5 -68.5q57 0 112 20t81 40l26 20l11 -15l-11 -11t-31 -25t-51 -31.5t-69 -24.5t-86 -11q-123 0 -192.5 79t-69.5 218q0 176 105.5 295.5t268.5 119.5q99 0 151.5 -46t52.5 -124q0 -24 -5 -43t-10 -27l-5 -7
q-18 -6 -48 -6l-5 6q19 29 19 81q0 65 -40.5 101.5t-114.5 36.5z" />
    <glyph glyph-name="afii10036" unicode="&#x422;" horiz-adv-x="609" 
d="M398 670l-105 -670h-56l106 670h-88q-47 0 -84 -3t-51 -7l-14 -3l-6 6l6 37h539l-6 -37l-7 -6q-40 13 -146 13h-88z" />
    <glyph glyph-name="afii10037" unicode="&#x423;" horiz-adv-x="588" 
d="M87 46l8 7q13 -13 47 -13t64.5 25.5t79.5 103.5l-133 398q-15 45 -28 77t-19 42l-5 9l1 5h67l155 -466q1 0 1 1l269 465h35l-281 -482q-79 -136 -120 -180t-91 -44q-15 0 -27.5 3t-17.5 7l-4 3q-1 2 -1.5 5t-1 13t1.5 21z" />
    <glyph glyph-name="afii10038" unicode="&#x424;" horiz-adv-x="800" 
d="M332 0l10 66q-124 1 -197 68t-73 179q0 138 103 229.5t258 93.5l10 64h55l-10 -64q125 -1 198 -67.5t73 -179.5q0 -139 -103.5 -231t-258.5 -92l-10 -66h-55zM702 390q0 100 -59 158.5t-160 59.5l-81 -514q129 1 214.5 85t85.5 211zM130 312q0 -100 58 -158.5t159 -59.5
l81 514q-127 -2 -212.5 -86t-85.5 -210z" />
    <glyph glyph-name="afii10039" unicode="&#x425;" horiz-adv-x="612" 
d="M185 700l150 -305l250 305h41l-277 -334l82 -166l102 -193l-1 -7h-66l-162 325l-269 -325h-38l292 354l-171 346h67z" />
    <glyph glyph-name="afii10040" unicode="&#x426;" horiz-adv-x="734" 
d="M61 0l111 700h56l-106 -669h393l106 669h56l-106 -669h79l4 -7l-37 -199h-29l-5 7q7 44 11.5 86t5.5 62l1 20h-540z" />
    <glyph glyph-name="afii10041" unicode="&#x427;" horiz-adv-x="624" 
d="M204 700l-37 -240q-25 -144 118 -144q97 0 201 58l52 326h55l-111 -700h-55l54 341q-11 -7 -31.5 -17.5t-79 -27.5t-111.5 -17q-177 0 -148 178l38 243h55z" />
    <glyph glyph-name="afii10042" unicode="&#x428;" horiz-adv-x="974" 
d="M61 0l111 700h56l-106 -669h303l106 669h55l-106 -669h303l106 669h55l-111 -700h-772z" />
    <glyph glyph-name="afii10043" unicode="&#x429;" horiz-adv-x="1003" 
d="M61 0l111 700h56l-106 -669h303l106 669h55l-106 -669h303l106 669h55l-106 -669h79l5 -7l-38 -199h-29l-6 7q8 44 12.5 86t5.5 62l1 20h-807z" />
    <glyph glyph-name="afii10044" unicode="&#x42a;" horiz-adv-x="704" 
d="M106 700h254l-50 -314h138q91 0 141.5 -43.5t50.5 -124.5q0 -97 -70.5 -157.5t-182.5 -60.5h-193l105 671h-43q-47 0 -84.5 -3.5t-51.5 -7.5l-14 -3l-6 6zM583 215q0 68 -39 103.5t-109 35.5h-130l-51 -323h129q89 0 144.5 51t55.5 133z" />
    <glyph glyph-name="afii10045" unicode="&#x42b;" horiz-adv-x="796" 
d="M61 0l111 700h56l-50 -314h138q91 0 142 -43.5t51 -123.5q0 -98 -71 -158.5t-183 -60.5h-194zM451 216q0 68 -39 103t-110 35h-129l-51 -323h129q88 0 144 51t56 134zM600 0l111 700h55l-111 -700h-55z" />
    <glyph glyph-name="afii10046" unicode="&#x42c;" horiz-adv-x="572" 
d="M61 0l111 700h56l-50 -314h138q91 0 142 -43.5t51 -123.5q0 -98 -71 -158.5t-183 -60.5h-194zM451 216q0 68 -39 103t-110 35h-129l-51 -323h129q88 0 144 51t56 134z" />
    <glyph glyph-name="afii10047" unicode="&#x42d;" horiz-adv-x="678" 
d="M372 706q130 0 196.5 -77t66.5 -217q0 -116 -42.5 -209.5t-130 -151t-206.5 -57.5q-45 0 -83.5 8.5t-61.5 20.5t-39 24t-22 21l-7 8q3 16 11 29t14 18l7 5h9q2 -4 6 -11.5t19.5 -25.5t34.5 -32t52.5 -25.5t72.5 -11.5q119 0 200.5 89t100.5 228h-298l-5 6l4 26h302
q2 28 2 44q0 126 -52.5 194.5t-148.5 68.5q-35 0 -70 -11t-59.5 -26.5t-44 -31t-28.5 -26.5l-10 -11h-10l-5.5 5.5t-7.5 17t-2 29.5q3 3 9.5 8.5t29 20t48 25t65.5 19.5t83 9z" />
    <glyph glyph-name="afii10048" unicode="&#x42e;" horiz-adv-x="943" 
d="M333 284q0 28 3 56h-165l-54 -340h-56l111 700h56l-52 -329h164q23 146 115.5 240.5t214.5 94.5q108 0 169.5 -77.5t61.5 -212.5q0 -177 -99.5 -299.5t-239.5 -122.5q-108 0 -168.5 78.5t-60.5 211.5zM392 276q0 -119 46 -186.5t129 -67.5q113 0 193.5 118t80.5 284
q0 119 -46 186.5t-130 67.5q-113 0 -193 -118t-80 -284z" />
    <glyph glyph-name="afii10049" unicode="&#x42f;" horiz-adv-x="584" 
d="M172 200l87 116q-71 10 -110 52.5t-39 113.5q0 97 70.5 157.5t182.5 60.5h197l-111 -700h-55l50 314h-130l-239 -314h-58l1 7q64 73 154 193zM168 484q0 -67 38.5 -102.5t109.5 -35.5h133l51 323h-133q-89 0 -144 -51t-55 -134z" />
    <glyph glyph-name="afii10065" unicode="&#x430;" horiz-adv-x="550" 
d="M483 425l-40 -253q-7 -44 -10.5 -85.5t-2.5 -60.5v-19l-7 -7h-46q-4 56 12 153l12 74l-2 3q-4 -10 -12 -25.5t-34 -56.5t-52.5 -72t-66 -56.5t-77.5 -25.5q-53 0 -80.5 43.5t-27.5 118.5q0 139 86 230.5t217 91.5q30 0 54.5 -5.5t38.5 -13t23 -15.5t12 -14zM105 156
q0 -125 73 -125q22 0 47.5 15t45 34.5t43 52.5t36 53.5t30.5 55t20 38.5t10 21l1 2v1l17 107q-2 4 -7 10.5t-27.5 17.5t-54.5 11q-94 0 -164 -85.5t-70 -208.5z" />
    <glyph glyph-name="afii10066" unicode="&#x431;" horiz-adv-x="561" 
d="M508 284q0 -124 -71.5 -207t-187.5 -83q-96 0 -139.5 64.5t-43.5 196.5q0 186 76.5 316.5t214.5 155.5l169 29l2.5 -5t3 -13t0.5 -22l-6 -6l-164 -29q-121 -23 -186 -140t-67 -301l3 -3q9 29 28 65t49.5 78t75.5 70t94 28q67 0 108 -50.5t41 -143.5zM347 446
q-48 0 -98 -48.5t-82 -110t-40 -110.5v-8.5t2.5 -22t6.5 -31t13.5 -32.5t22.5 -31t34 -22t47 -9q84 0 141 80.5t57 189.5q0 74 -29.5 114.5t-74.5 40.5z" />
    <glyph glyph-name="afii10067" unicode="&#x432;" horiz-adv-x="502" 
d="M68 137l34 206q10 63 70 99t140 36q128 0 128 -95q0 -41 -24.5 -74t-64.5 -52q84 -23 84 -99q0 -69 -61.5 -116.5t-156.5 -47.5q-81 0 -120.5 37.5t-28.5 105.5zM264 234q-59 0 -129 -13l-14 -87q-18 -109 95 -109q71 0 117.5 37t46.5 94q0 43 -29.5 60.5t-86.5 17.5z
M140 253q70 13 134 13h3q43 5 76.5 37t33.5 81q0 32 -18.5 47.5t-60.5 15.5q-59 0 -102.5 -29t-50.5 -74z" />
    <glyph glyph-name="afii10068" unicode="&#x433;" horiz-adv-x="413" 
d="M102 399l6 32q6 5 18 13t50 21t79 13q117 0 117 -92q0 -42 -29 -74.5t-70 -53t-82 -40t-70 -48t-29 -65.5q0 -74 104 -74q38 0 73 9.5t51 19.5l16 10l-6 -30q-6 -5 -17 -12.5t-50.5 -20.5t-85.5 -13q-75 0 -106.5 29t-31.5 73q0 36 20.5 65t51.5 46.5t67.5 36t67.5 34.5
t51.5 41t20.5 55q0 67 -83 67q-32 0 -65.5 -10.5t-50.5 -20.5z" />
    <glyph glyph-name="afii10069" unicode="&#x434;" horiz-adv-x="551" 
d="M50 196q0 117 73 199.5t176 82.5q54 0 92.5 -26t53.5 -70h4q0 188 -47.5 265t-148.5 77q-23 0 -42.5 -3.5t-27.5 -6.5l-8 -4l4 30q24 16 85 16q119 0 177.5 -85t58.5 -266q0 -98 -17 -173.5t-43.5 -119t-62.5 -71.5t-69.5 -37.5t-69.5 -9.5q-89 0 -138.5 54.5
t-49.5 147.5zM107 184q0 -74 35 -118.5t96 -44.5q81 0 137 81t56 186q0 76 -33.5 119.5t-94.5 43.5q-80 0 -138 -81.5t-58 -185.5z" />
    <glyph glyph-name="afii10070" unicode="&#x435;" horiz-adv-x="479" 
d="M389 87l10 -14q-3 -3 -8 -8.5t-22.5 -19t-36.5 -24t-50 -19t-63 -8.5q-85 0 -127.5 53t-42.5 141q0 128 77.5 209t188.5 81q69 0 96 -29.5t27 -66.5q0 -55 -52 -95t-124.5 -58t-153.5 -19v-20q0 -161 130 -161q41 0 78.5 14.5t55.5 28.5zM311 451q-77 0 -132.5 -59.5
t-67.5 -154.5q46 1 91 9t89 24t71.5 46t27.5 70q0 65 -79 65z" />
    <glyph glyph-name="afii10072" unicode="&#x436;" horiz-adv-x="654" 
d="M635 472l-184 -213l31 -70q27 -56 51.5 -101t34.5 -62l11 -18l-1 -8h-57l-116 235h-55l-37 -235h-51l37 235h-54l-185 -229l-9 -6h-55l207 259l-110 206l1 7h45q22 -58 87 -179l16 -28l62 -5q10 62 16.5 113.5t8.5 71.5l2 20l6 7h45q-5 -72 -27 -212l57 4l26 29
q47 54 81 97.5t45 59.5l11 16l10 6h50z" />
    <glyph glyph-name="afii10073" unicode="&#x437;" horiz-adv-x="438" 
d="M174 22q62 0 102 33.5t40 87.5q0 39 -22 63.5t-60 24.5h-75l-5 5l4 25h62q47 0 79 29t32 75q0 38 -24 61.5t-68 23.5q-37 0 -70.5 -18.5t-48.5 -37.5l-15 -18h-7l-5.5 5.5t-8 14.5t-2.5 23q6 7 18.5 16.5t54.5 26t89 16.5q66 0 102.5 -28.5t36.5 -79.5q0 -43 -25 -75
t-68 -47q37 -7 58.5 -36.5t21.5 -69.5q0 -65 -55.5 -106.5t-143.5 -41.5q-67 0 -105.5 24.5t-38.5 65.5q0 11 2.5 22t5.5 16l3 6q13 7 37 7l6 -7q-11 -19 -11 -39q0 -30 29 -48.5t75 -18.5z" />
    <glyph glyph-name="afii10074" unicode="&#x438;" horiz-adv-x="556" 
d="M129 472h48q-5 -70 -22 -172l-26 -167q-16 -102 53 -102q108 0 236 271l-12 -72l13 73v1l25 161l7 7h48l-48 -300q-7 -44 -10.5 -85.5t-3.5 -60.5v-19l-6 -7h-47q-3 56 13 153l12 74l-3 3q-4 -10 -12 -25.5t-33.5 -56.5t-52.5 -72t-67.5 -56.5t-79.5 -25.5
q-49 0 -72.5 35t-12.5 104l26 167l21 165zM419 304l-1 -2l1 1v1z" />
    <glyph glyph-name="afii10075" unicode="&#x439;" horiz-adv-x="556" 
d="M129 472h48q-4 -64 -22 -172l-26 -167q-16 -102 53 -102q108 0 236 271l1 2l25 161l7 7h48l-48 -300q-7 -44 -10.5 -85.5t-3.5 -60.5v-19l-6 -7h-47q-3 55 13 153l12 74l-3 3q-4 -10 -12 -25.5t-33.5 -56.5t-52.5 -72t-67.5 -56.5t-79.5 -25.5q-49 0 -72.5 35t-12.5 104
l26 167q8 47 13 88t7 59l1 18zM327 544q-53 0 -83 21t-30 54q0 9 2.5 18.5t5.5 14.5l2 4q14 7 37 7l4 -6q-9 -16 -9 -32q0 -22 20 -36t54 -14q40 0 65.5 18.5t25.5 47.5l-1 15l7 6q10 0 19 -1.5t12 -2.5l4 -2q1 -10 1 -18q0 -40 -38.5 -67t-97.5 -27z" />
    <glyph glyph-name="afii10076" unicode="&#x43a;" horiz-adv-x="464" 
d="M53 0l48 300l22 165l7 7h47q-7 -72 -23 -172l-7 -40l67 4l28 29q50 52 87 95t49 60l11 18l10 6h51l-197 -214l34 -69q30 -54 57 -99t39 -64l12 -18l-1 -8h-55l-134 235h-62l-37 -235h-53z" />
    <glyph glyph-name="afii10077" unicode="&#x43b;" horiz-adv-x="526" 
d="M-1 42l7 7q13 -8 29 -8q45 0 73 75t54 222q18 107 33 134h273l-75 -472h-53l70 441h-198l-17 -107q-28 -172 -67.5 -256t-97.5 -84q-10 0 -19 2t-13 4l-5 2q0 12 1.5 22t3.5 14z" />
    <glyph glyph-name="afii10078" unicode="&#x43c;" horiz-adv-x="668" 
d="M535 0v407l-3 3l-191 -410h-39l-8 8l-93 399l-4 -3l-12 -75q-29 -177 -63.5 -256t-91.5 -79q-10 0 -19 2t-13 4l-5 2q0 12 1.5 22t3.5 14l1 4l7 7q13 -8 29 -8q43 0 67.5 72t50.5 225q19 109 33 134h53l95 -417l187 411l6 6h60v-472h-52z" />
    <glyph glyph-name="afii10079" unicode="&#x43d;" horiz-adv-x="559" 
d="M372 0l36 229h-266l-36 -229h-53l48 300l22 165l7 7h47q-7 -72 -23 -172l-7 -39h266l7 39l26 165l7 7h46q-9 -72 -25 -172l-48 -300h-54z" />
    <glyph glyph-name="afii10080" unicode="&#x43e;" horiz-adv-x="539" 
d="M50 196q0 120 73 201t179 81q85 0 133.5 -54.5t48.5 -147.5q0 -120 -73.5 -201t-180.5 -81q-85 0 -132.5 54.5t-47.5 147.5zM107 185q0 -75 33.5 -119.5t94.5 -44.5q79 0 135 80.5t56 185.5q0 76 -34 120t-95 44q-79 0 -134.5 -80.5t-55.5 -185.5z" />
    <glyph glyph-name="afii10081" unicode="&#x43f;" horiz-adv-x="559" 
d="M53 0l48 300q7 44 10.5 85.5t2.5 60.5v19l7 7h47q3 -55 -13 -153l-12 -74l2 -3q4 10 12 25.5t34.5 56.5t54 72t68 56.5t80.5 25.5q49 0 73 -35t13 -104l-53 -339h-54l54 339q16 102 -54 102q-33 0 -69.5 -27.5t-63.5 -61.5t-53.5 -79.5t-36.5 -66.5t-17 -36v-2l-27 -168
h-53z" />
    <glyph glyph-name="afii10082" unicode="&#x440;" horiz-adv-x="550" 
d="M14 -250l87 550q7 45 10.5 86t2.5 60v19l7 7h47q3 -55 -13 -153l-12 -74l2 -3q4 10 12.5 25.5t34 56.5t52.5 72t66.5 56.5t77.5 25.5q52 0 79.5 -44t27.5 -118q0 -138 -86 -230t-209 -92q-59 0 -91 21l-42 -265h-53zM439 316q0 125 -72 125q-31 0 -66.5 -27.5
t-61.5 -61.5t-52.5 -79.5t-36.5 -66.5t-17 -36v-2l-17 -108q2 -4 7 -10.5t27.5 -17.5t54.5 -11q94 0 164 86t70 209z" />
    <glyph glyph-name="afii10083" unicode="&#x441;" horiz-adv-x="479" 
d="M395 87l10 -14q-3 -3 -7.5 -8.5t-21.5 -19t-36.5 -24t-50.5 -19t-64 -8.5q-86 0 -131 53.5t-45 147.5q0 122 70 202.5t187 80.5q69 0 103.5 -29t34.5 -81q0 -16 -3.5 -31.5t-6.5 -22.5l-4 -7q-15 -7 -43 -7l-5 7q13 26 13 61q0 83 -93 83q-88 0 -141 -75t-53 -181
q0 -166 136 -166q41 0 78.5 14.5t55.5 28.5z" />
    <glyph glyph-name="afii10084" unicode="&#x442;" horiz-adv-x="808" 
d="M53 0l48 300q7 44 10.5 85.5t2.5 60.5v19l7 7h47q3 -55 -13 -153l-12 -74l2 -3q4 10 11 25.5t30.5 56.5t48 72t60.5 56.5t72 25.5q44 0 66 -35.5t11 -103.5l-14 -87q7 16 16.5 35.5t32.5 56t46.5 64t57.5 49t68 21.5q45 0 67 -35.5t11 -103.5l-54 -339h-53l54 339
q8 52 -6 76.5t-41 24.5q-28 0 -60 -27t-55 -59.5t-47.5 -78t-32.5 -62.5t-15 -34v-1l-28 -178h-53l53 339q8 52 -5.5 76.5t-40.5 24.5q-34 0 -73 -38t-69.5 -93t-46.5 -88t-23 -52v-1l-27 -168h-53z" />
    <glyph glyph-name="afii10085" unicode="&#x443;" horiz-adv-x="484" 
d="M-58 -256q-8 0 -17 2t-14 4l-5 2q0 14 3.5 26.5t6.5 17.5l4 5q15 -9 33 -9q38 0 100 55.5t130 145.5l-73 307q-13 53 -25 95t-17 57l-6 15l5 5h56l97 -429q80 112 134.5 220.5t54.5 164.5l-6 38l6 6h37q6 -15 6 -34q0 -55 -59.5 -172t-140 -232t-169.5 -202.5t-141 -87.5
z" />
    <glyph glyph-name="afii10086" unicode="&#x444;" horiz-adv-x="685" 
d="M236 -250l43 273q-39 -28 -86 -28q-58 0 -100.5 50t-42.5 142q0 124 75.5 207.5t181.5 83.5q25 0 43 -5q12 73 19.5 140.5t9.5 98.5l2 31l7 7h46q-4 -111 -30 -278l-4 -24q42 29 88 29q60 0 101 -52t41 -142q0 -124 -75.5 -206.5t-181.5 -82.5q-27 0 -45 5l-39 -249h-53z
M575 293q0 73 -28 115t-72 42q-40 0 -80 -34l-62 -391q24 -4 40 -4q83 0 142.5 84t59.5 188zM106 178q0 -74 27.5 -115t71.5 -41q38 0 79 32l62 392q-15 5 -38 5q-84 0 -143 -86t-59 -187z" />
    <glyph glyph-name="afii10087" unicode="&#x445;" horiz-adv-x="473" 
d="M67 0h-41q-4 8 -4 24q0 35 36.5 81.5t144.5 139.5l-27 55q-24 48 -47 89.5t-33 58.5l-11 17v7h62l104 -205q80 71 107 109t27 69l-4 21l6 6h41q4 -8 4 -24q0 -34 -32.5 -75t-135.5 -133l21 -40q33 -64 59 -112.5t36 -64.5l10 -16v-7h-63l-110 218q-86 -74 -116.5 -116
t-30.5 -75l3 -21z" />
    <glyph glyph-name="afii10088" unicode="&#x446;" horiz-adv-x="579" 
d="M129 472h48q-5 -70 -22 -172l-26 -167q-16 -102 53 -102q108 0 236 271l-12 -72l13 73v1l25 161l7 7h48l-48 -300q-14 -84 -14 -141h70l6 -7q3 -67 -21 -170h-28l-6 7q8 38 10.5 73t1.5 50l-2 16h-84q-3 56 13 153l12 74l-3 3q-4 -10 -12 -25.5t-33.5 -56.5t-52.5 -72
t-67.5 -56.5t-79.5 -25.5q-49 0 -72.5 35t-12.5 104l26 167l21 165zM419 304l-1 -2l1 1v1z" />
    <glyph glyph-name="afii10089" unicode="&#x447;" horiz-adv-x="509" 
d="M109 472h47q-5 -71 -20 -165q-8 -49 8.5 -70.5t64.5 -21.5q81 0 154 44l33 206l7 7h47l-74 -472h-54l36 229q-90 -50 -176 -50q-65 0 -87.5 31.5t-11.5 96.5q8 45 12.5 84.5t5.5 56.5l1 17z" />
    <glyph glyph-name="afii10090" unicode="&#x448;" horiz-adv-x="807" 
d="M465 472l-54 -339q-8 -53 6 -77.5t41 -24.5q28 0 59 26.5t55 61.5t47 78.5t34 67t16 37.5l-12 -72l13 73v1l25 161l7 7h48l-48 -300q-7 -44 -10.5 -85.5t-3.5 -60.5v-19l-7 -7h-46q-4 55 12 153l13 74l-3 3q-4 -10 -11 -25.5t-30 -56.5t-47.5 -72t-60.5 -56.5t-72 -25.5
q-45 0 -67 35.5t-11 103.5l14 85q-11 -25 -26 -52t-45 -71.5t-69.5 -72.5t-79.5 -28q-46 0 -67.5 35.5t-10.5 103.5l26 167l21 165l7 7h47q-6 -72 -22 -172l-26 -167q-8 -53 6 -77.5t41 -24.5q34 0 72.5 37t69 90.5t46 85t22.5 49.5v1l27 171l7 7h47zM670 303v1l-1 -2
q1 0 1 1z" />
    <glyph glyph-name="afii10091" unicode="&#x449;" horiz-adv-x="830" 
d="M384 294l27 171l7 7h47l-54 -339q-8 -53 6 -77.5t41 -24.5q33 0 70.5 36t69 92.5t46.5 87t25 54.5l-12 -71l13 72v2l25 161l7 7h48l-48 -300q-14 -84 -14 -141h70l6 -7q3 -67 -21 -170h-29l-5 7q8 38 10.5 73t0.5 50l-1 16h-84q-4 55 12 153l13 74l-3 3q-4 -10 -11 -25.5
t-30 -56.5t-47.5 -72t-60.5 -56.5t-72 -25.5q-45 0 -67 35.5t-11 103.5l14 85q-11 -25 -26 -52t-45 -71.5t-69.5 -72.5t-79.5 -28q-46 0 -67.5 35.5t-10.5 103.5l26 167l21 165l7 7h47q-6 -72 -22 -172l-26 -167q-8 -53 6 -77.5t41 -24.5q34 0 71.5 36t67.5 88t46.5 85
t23.5 52v-4l1 5v1zM670 303v1l-1 -3q1 1 1 2zM384 294l-1 -2q1 0 1 1v1z" />
    <glyph glyph-name="afii10092" unicode="&#x44a;" horiz-adv-x="552" 
d="M151 119l28 181q13 88 19 142h-22q-37 0 -67 -3.5t-41 -6.5l-11 -4l-5 7l5 37h198q-13 -111 -23 -172l-6 -38q51 21 115 21q146 0 146 -122q0 -71 -49.5 -119t-140.5 -48q-72 0 -113.5 32.5t-32.5 92.5zM330 252q-58 0 -109 -21l-18 -115q-6 -41 19 -66t78 -25
q63 0 97.5 38.5t34.5 97.5q0 47 -24 69t-78 22z" />
    <glyph glyph-name="afii10093" unicode="&#x44b;" horiz-adv-x="672" 
d="M73 117l28 183l22 165l7 7h47q-6 -66 -23 -172l-6 -38q58 21 116 21q145 0 145 -121q0 -72 -49.5 -120t-140.5 -48q-74 0 -114.5 33t-31.5 90zM253 252q-59 0 -110 -21l-18 -116q-7 -42 20.5 -66t77.5 -24q63 0 97 38.5t34 97.5q0 47 -23.5 69t-77.5 22zM486 0l48 300
l22 165l7 7h46q-6 -72 -22 -172l-48 -300h-53z" />
    <glyph glyph-name="afii10094" unicode="&#x44c;" horiz-adv-x="475" 
d="M72 116l29 184l22 165l7 7h47q-4 -56 -23 -172l-6 -38q58 21 116 21q145 0 145 -121q0 -72 -49.5 -120t-140.5 -48q-74 0 -114.5 33t-32.5 89zM253 252q-59 0 -110 -21l-18 -116q-6 -40 18.5 -65t77.5 -25q64 0 98.5 38.5t34.5 97.5q0 47 -23.5 69t-77.5 22z" />
    <glyph glyph-name="afii10095" unicode="&#x44d;" horiz-adv-x="473" 
d="M171 23q74 0 124.5 55.5t62.5 148.5h-181l-5 6l5 23h184q0 4 0.5 13t0.5 14q0 167 -125 167q-39 0 -73.5 -18t-49.5 -36l-16 -17h-6q-2 2 -5 5.5t-8 14.5t-4 23q7 6 19.5 15.5t55.5 25t90 15.5q90 0 134.5 -53t44.5 -147q0 -122 -67.5 -203t-183.5 -81q-63 0 -99 24.5
t-36 65.5q0 11 2.5 22t4.5 16l3 6q14 7 38 7l5 -7q-10 -18 -10 -39q0 -29 26 -47.5t69 -18.5z" />
    <glyph glyph-name="afii10096" unicode="&#x44e;" horiz-adv-x="699" 
d="M53 0l48 300l22 165l7 7h47q-7 -72 -23 -172l-7 -39h102q19 96 83.5 156.5t150.5 60.5q76 0 120.5 -53.5t44.5 -142.5q0 -124 -69 -206t-172 -82q-76 0 -120.5 53.5t-44.5 142.5q0 26 2 39h-102l-36 -229h-53zM296 181q0 -73 31 -116.5t84 -43.5q76 0 130 83.5t54 186.5
q0 73 -31 116.5t-85 43.5q-76 0 -129.5 -83.5t-53.5 -186.5z" />
    <glyph glyph-name="afii10097" unicode="&#x44f;" horiz-adv-x="488" 
d="M13 40l7 7q14 -8 29 -8q21 0 40 24.5t46 70t54 74.5q-50 5 -78 35t-28 79q0 65 46.5 107.5t117.5 42.5h183l-75 -472h-53l33 208h-101q-32 -36 -66 -95.5t-60 -89t-63 -29.5q-11 0 -20.5 2t-13.5 4l-4 2q0 12 1.5 21.5t3.5 12.5zM219 239h121l32 202h-121
q-49 0 -82 -32.5t-33 -83.5q0 -41 22 -63.5t61 -22.5z" />
    <glyph glyph-name="uni0450" unicode="&#x450;" horiz-adv-x="479" 
d="M389 87l10 -14q-3 -3 -8 -8.5t-22.5 -19t-36.5 -24t-50 -19t-63 -8.5q-85 0 -127.5 53t-42.5 141q0 128 77.5 209t188.5 81q69 0 96 -29.5t27 -66.5q0 -55 -52 -95t-124.5 -58t-153.5 -19v-20q0 -161 130 -161q41 0 78.5 14.5t55.5 28.5zM311 451q-77 0 -132.5 -59.5
t-67.5 -154.5q46 1 91 9t89 24t71.5 46t27.5 70q0 65 -79 65zM331 572l-6 -6h-21l-81 129l1 6q15 8 45 8z" />
    <glyph glyph-name="afii10071" unicode="&#x451;" horiz-adv-x="479" 
d="M389 87l10 -14q-3 -3 -8 -8.5t-22.5 -19t-36.5 -24t-50 -19t-63 -8.5q-85 0 -127.5 53t-42.5 141q0 128 77.5 209t188.5 81q69 0 96 -29.5t27 -66.5q0 -55 -52 -95t-124.5 -58t-153.5 -19v-20q0 -161 130 -161q41 0 78.5 14.5t55.5 28.5zM311 451q-77 0 -132.5 -59.5
t-67.5 -154.5q46 1 91 9t89 24t71.5 46t27.5 70q0 65 -79 65zM374 601q0 15 10 25t25 10q26 0 26 -26q0 -16 -10 -26t-26 -10q-25 0 -25 27zM184 601q0 15 10 25t25 10q26 0 26 -26q0 -16 -10 -26t-25 -10q-26 0 -26 27z" />
    <glyph glyph-name="afii10099" unicode="&#x452;" horiz-adv-x="560" 
d="M369 -36l60 375q16 102 -54 102q-33 0 -68.5 -26t-62.5 -61t-53 -77.5t-38 -67t-18 -38.5v-3l-27 -168h-53l75 472q12 74 18 130h-77l2 15l79 18l9 108l7 7h46q-2 -47 -10 -119h162l-4 -29h-161q-11 -88 -18 -130l-14 -89l-24 -138l2 -3q4 10 12 25.5t34.5 56.5t54 72
t68 56.5t80.5 25.5q49 0 73 -35t13 -104l-57 -362q-7 -46 -27.5 -87t-44.5 -67t-47 -45t-38 -27l-16 -8l-10 13q4 3 11.5 8.5t27 25t35.5 41.5t31.5 58t21.5 75z" />
    <glyph glyph-name="afii10100" unicode="&#x453;" horiz-adv-x="413" 
d="M237 566l-4 6l105 137q14 0 24.5 -2t14.5 -4l4 -2l-1 -6l-122 -129h-21zM102 399l6 32q6 5 18 13t50 21t79 13q117 0 117 -92q0 -42 -29 -74.5t-70 -53t-82 -40t-70 -48t-29 -65.5q0 -74 104 -74q38 0 73 9.5t51 19.5l16 10l-6 -30q-6 -5 -17 -12.5t-50.5 -20.5
t-85.5 -13q-75 0 -106.5 29t-31.5 73q0 36 20.5 65t51.5 46.5t67.5 36t67.5 34.5t51.5 41t20.5 55q0 67 -83 67q-32 0 -65.5 -10.5t-50.5 -20.5z" />
    <glyph glyph-name="afii10101" unicode="&#x454;" horiz-adv-x="482" 
d="M396 87l10 -14q-3 -3 -7.5 -8.5t-21.5 -19t-36.5 -24t-50 -19t-63.5 -8.5q-86 0 -132 54t-46 147q0 122 71 202.5t190 80.5q67 0 102 -27.5t35 -75.5q0 -14 -3.5 -27.5t-6.5 -19.5l-3 -6q-14 -7 -41 -7l-6 7q12 22 12 51q0 37 -24.5 57.5t-71.5 20.5q-75 0 -125 -55.5
t-65 -139.5h224l5 -5l-4 -24h-229q-1 -11 -1 -32q0 -166 138 -166q40 0 77.5 14.5t54.5 28.5z" />
    <glyph glyph-name="afii10102" unicode="&#x455;" horiz-adv-x="454" 
d="M133 363q0 -29 22.5 -48t92.5 -59q71 -39 97.5 -65t26.5 -67q0 -57 -47.5 -93.5t-134.5 -36.5q-74 0 -113 28t-39 79q0 15 3 29.5t7 21.5l3 7q16 7 43 7l6 -7q-13 -24 -13 -55q0 -39 27.5 -61t80.5 -22q59 0 92.5 26t33.5 66q0 33 -24.5 54t-90.5 55q-36 19 -53 29
t-36 26t-26.5 33.5t-7.5 40.5q0 55 44.5 91t127.5 36q69 0 103.5 -27t34.5 -75q0 -16 -3.5 -31.5t-6.5 -22.5l-3 -7q-15 -8 -42 -8l-6 8q12 25 12 57q0 79 -96 79q-55 0 -85 -25t-30 -63z" />
    <glyph glyph-name="afii10103" unicode="&#x456;" horiz-adv-x="240" 
d="M138 625q0 19 12 31.5t31 12.5q14 0 22.5 -9t8.5 -23q0 -19 -12 -31.5t-31 -12.5q-31 0 -31 32zM53 0l48 300l22 165l7 7h47q-7 -72 -23 -172l-48 -300h-53z" />
    <glyph glyph-name="afii10104" unicode="&#x457;" horiz-adv-x="240" 
d="M69 600q0 16 10.5 26t25.5 10q26 0 26 -26q0 -16 -10.5 -26t-25.5 -10q-26 0 -26 26zM220 600q0 16 10.5 26t25.5 10q26 0 26 -26q0 -16 -10.5 -26t-25.5 -10q-26 0 -26 26zM53 0l48 300l22 165l7 7h47q-7 -72 -23 -172l-48 -300h-53z" />
    <glyph glyph-name="afii10105" unicode="&#x458;" horiz-adv-x="240" 
d="M137 625q0 19 12 31.5t31 12.5q15 0 23.5 -9t8.5 -23q0 -19 -12.5 -31.5t-31.5 -12.5q-14 0 -22.5 9t-8.5 23zM48 -36l53 336l22 165l7 7h47q-7 -72 -23 -172l-51 -323q-7 -46 -27.5 -87t-44.5 -67t-47 -45t-38 -27l-15 -8l-11 13q4 3 11.5 8.5t27 25t35.5 41.5t32 58
t22 75z" />
    <glyph glyph-name="afii10106" unicode="&#x459;" horiz-adv-x="760" 
d="M-1 42l7 7q13 -8 29 -8q45 0 73 75t54 222q18 107 33 134h273l-34 -210q60 21 116 21q145 0 145 -121q0 -72 -49.5 -120t-141.5 -48q-73 0 -113.5 33t-32.5 89l52 325h-198l-17 -107q-29 -174 -68 -257t-100 -83q-11 0 -19 2t-11.5 4.5t-3.5 4.5q0 9 1.5 18.5t3.5 14.5z
M538 252q-55 0 -109 -21l-18 -116q-6 -40 18.5 -65t77.5 -25q64 0 98.5 38.5t34.5 97.5q0 47 -24 69t-78 22z" />
    <glyph glyph-name="afii10107" unicode="&#x45a;" horiz-adv-x="778" 
d="M375 116l18 113h-251l-36 -229h-53l48 300l22 165l7 7h47q-7 -72 -23 -172l-7 -39h251l6 39l24 165l7 7h47q-7 -64 -25 -172l-6 -38q58 21 116 21q145 0 145 -121q0 -72 -49.5 -120t-141.5 -48q-73 0 -113.5 33t-32.5 89zM556 252q-59 0 -110 -21l-18 -116
q-6 -40 18.5 -65t77.5 -25q64 0 98.5 38.5t34.5 97.5q0 47 -24 69t-77 22z" />
    <glyph glyph-name="afii10108" unicode="&#x45b;" horiz-adv-x="560" 
d="M375 0l54 339q16 102 -54 102q-41 0 -84.5 -37t-78.5 -94.5t-51 -87t-26 -52.5v-2l-27 -168h-53l75 472q12 74 18 130h-77l2 15l79 18l9 108l7 7h46q-2 -47 -10 -119h162l-4 -29h-161q-11 -88 -18 -130l-14 -89l-24 -138l2 -3q4 10 12 25.5t34.5 56.5t54 72t68 56.5
t80.5 25.5q49 0 73 -35t13 -104l-54 -339h-53z" />
    <glyph glyph-name="afii10109" unicode="&#x45c;" horiz-adv-x="464" 
d="M53 0l48 300l22 165l7 7h47q-7 -72 -23 -172l-7 -40l67 4l28 29q50 52 87 95t49 60l11 18l10 6h51l-197 -214l34 -69q30 -54 57 -99t39 -64l12 -18l-1 -8h-55l-134 235h-62l-37 -235h-53zM258 566l-4 6l105 137q14 0 24.5 -2t14.5 -4l4 -2l-1 -6l-123 -129h-20z" />
    <glyph glyph-name="uni045D" unicode="&#x45d;" horiz-adv-x="556" 
d="M129 472h48q-5 -70 -22 -172l-26 -167q-16 -102 53 -102q108 0 236 271l-12 -72l13 73v1l25 161l7 7h48l-48 -300q-7 -44 -10.5 -85.5t-3.5 -60.5v-19l-6 -7h-47q-3 56 13 153l12 74l-3 3q-4 -10 -12 -25.5t-33.5 -56.5t-52.5 -72t-67.5 -56.5t-79.5 -25.5
q-49 0 -72.5 35t-12.5 104l26 167l21 165zM352 572l-6 -6h-21l-81 129l1 6q14 8 45 8zM419 303v1l-1 -2z" />
    <glyph glyph-name="afii10110" unicode="&#x45e;" horiz-adv-x="484" 
d="M-58 -256q-8 0 -17 2t-14 4l-5 2q0 14 3.5 26.5t6.5 17.5l4 5q15 -9 33 -9q38 0 100 55.5t130 145.5l-73 307q-13 53 -25 95t-17 57l-6 15l5 5h56l97 -429q80 112 134.5 220.5t54.5 164.5l-6 38l6 6h37q6 -15 6 -34q0 -55 -59.5 -172t-140 -232t-169.5 -202.5t-141 -87.5
zM275 544q-52 0 -82.5 21t-30.5 54q0 9 2.5 18.5t5.5 14.5l2 4q14 7 37 7l4 -6q-9 -16 -9 -32q0 -22 20.5 -36t54.5 -14q39 0 64.5 18.5t25.5 47.5v15l6 6q10 0 19 -1.5t12 -2.5l4 -2q1 -10 1 -18q0 -40 -38 -67t-98 -27z" />
    <glyph glyph-name="afii10193" unicode="&#x45f;" horiz-adv-x="556" 
d="M129 472h48q-5 -70 -22 -172l-26 -167q-16 -102 53 -102q108 0 236 271l1 2l25 161l7 7h48l-48 -300q-7 -44 -10.5 -85.5t-3.5 -60.5v-19l-6 -7h-47q-3 56 13 153l12 74l-3 3q-7 -15 -20 -40t-53 -79.5t-81 -83.5q-3 -78 -25 -173h-28l-6 7q16 79 16 142q-24 -9 -48 -9
q-49 0 -72.5 35t-12.5 104l26 167l21 165z" />
    <glyph glyph-name="afii10050" unicode="&#x490;" horiz-adv-x="500" 
d="M61 0l111 700h309q18 60 32 150l8 6h29l-23 -180l-8 -7h-296l-106 -669h-56z" />
    <glyph glyph-name="afii10098" unicode="&#x491;" horiz-adv-x="391" 
d="M53 0l55 342q5 32 10 57.5t8.5 38.5t6.5 21.5t5 10.5l1 2h196q33 50 33 139l5 6h29q0 -45 -7.5 -87t-14.5 -62l-8 -20l-6 -7h-190l-70 -441h-53z" />
    <glyph glyph-name="uni04D8" unicode="&#x4d8;" horiz-adv-x="688" 
d="M64 197q0 35 8 68t16 48l8 15l11 9h472q5 37 5 70q0 124 -55.5 192.5t-158.5 68.5q-38 0 -75 -9.5t-62.5 -23t-45.5 -27.5t-30 -24l-10 -9l-11 15q4 5 10.5 12.5t31 27.5t51.5 35.5t70.5 28t89.5 12.5q121 0 188.5 -79t67.5 -215q0 -176 -105 -297t-261 -121
q-103 0 -159 54.5t-56 148.5zM282 22q107 0 187.5 81t105.5 208l-438 -10q-20 -54 -20 -112q0 -78 43.5 -122.5t121.5 -44.5z" />
    <glyph glyph-name="afii10846" unicode="&#x4d9;" horiz-adv-x="480" 
d="M86 385l-11 14q3 3 8 8.5t22.5 19t37 24t50.5 19t63 8.5q84 0 126.5 -53t42.5 -141q0 -128 -77.5 -209t-188.5 -81q-69 0 -96 29.5t-27 66.5q0 55 52 95t124 57.5t153 19.5q1 6 1 20q0 161 -130 161q-41 0 -78.5 -14.5t-54.5 -28.5zM163 21q77 0 132.5 59t67.5 155
q-46 -1 -91 -9t-89 -24t-71.5 -46t-27.5 -70q0 -65 79 -65z" />
    <glyph glyph-name="Wgrave" unicode="&#x1e80;" horiz-adv-x="959" 
d="M611 12l-84 481l-237 -493h-40l-10 12l-100 516q-10 52 -20 93.5t-14 56.5l-5 15l1 7h62l124 -636l230 479q-8 48 -16.5 85.5t-12.5 51.5l-4 13v7h64l110 -631l307 631h35l-341 -700h-39zM611 780l-6 -6h-21l-81 129l1 6q14 8 45 8z" />
    <glyph glyph-name="wgrave" unicode="&#x1e81;" horiz-adv-x="709" 
d="M433 12l-49 281q-49 -102 -175 -293h-37l-8 12l-58 288q-11 53 -22.5 94.5t-17.5 57.5l-5 15l5 5h56l85 -417q128 195 165 302q-7 34 -14.5 61.5t-11.5 37.5l-3 11l5 5h55l73 -417q104 152 143.5 235.5t39.5 137.5q0 13 -1.5 22.5t-3.5 12.5l-2 3l6 6h38q5 -8 6 -33
q0 -58 -48 -155t-178 -284h-35zM432 572l-6 -6h-21l-81 129l1 6q15 8 46 8z" />
    <glyph glyph-name="Wacute" unicode="&#x1e82;" horiz-adv-x="959" 
d="M611 12l-84 481l-237 -493h-40l-10 12l-100 516q-10 52 -20 93.5t-14 56.5l-5 15l1 7h62l124 -636l230 479q-8 48 -16.5 85.5t-12.5 51.5l-4 13v7h64l110 -631l307 631h35l-341 -700h-39zM539 774l-5 6l106 137q14 0 24.5 -2t14.5 -4l4 -2l-1 -6l-123 -129h-20z" />
    <glyph glyph-name="wacute" unicode="&#x1e83;" horiz-adv-x="709" 
d="M433 12l-49 281q-49 -102 -175 -293h-37l-8 12l-58 288q-11 53 -22.5 94.5t-17.5 57.5l-5 15l5 5h56l85 -417q128 195 165 302q-7 34 -14.5 61.5t-11.5 37.5l-3 11l5 5h55l73 -417q104 152 143.5 235.5t39.5 137.5q0 13 -1.5 22.5t-3.5 12.5l-2 3l6 6h38q5 -8 6 -33
q0 -58 -48 -155t-178 -284h-35zM367 566l-5 6l106 137q13 0 23.5 -2t14.5 -4l4 -2l-1 -6l-122 -129h-20z" />
    <glyph glyph-name="Wdieresis" unicode="&#x1e84;" horiz-adv-x="959" 
d="M611 12l-84 481l-237 -493h-40l-10 12l-100 516q-10 52 -20 93.5t-14 56.5l-5 15l1 7h62l124 -636l230 479q-8 48 -16.5 85.5t-12.5 51.5l-4 13v7h64l110 -631l307 631h35l-341 -700h-39zM642 809q0 15 10 25.5t24 10.5q27 0 27 -27q0 -16 -10 -26t-26 -10q-25 0 -25 27z
M452 809q0 15 10 25.5t24 10.5q27 0 27 -27q0 -16 -10 -26t-25 -10q-26 0 -26 27z" />
    <glyph glyph-name="wdieresis" unicode="&#x1e85;" horiz-adv-x="709" 
d="M433 12l-49 281q-49 -102 -175 -293h-37l-8 12l-58 288q-11 53 -22.5 94.5t-17.5 57.5l-5 15l5 5h56l85 -417q128 195 165 302q-7 34 -14.5 61.5t-11.5 37.5l-3 11l5 5h55l73 -417q104 152 143.5 235.5t39.5 137.5q0 13 -1.5 22.5t-3.5 12.5l-2 3l6 6h38q5 -8 6 -33
q0 -58 -48 -155t-178 -284h-35zM280 601q0 15 10.5 25t24.5 10q27 0 27 -26q0 -16 -10 -26t-25 -10q-27 0 -27 27zM471 601q0 15 10 25t24 10q27 0 27 -26q0 -16 -10 -26t-26 -10q-25 0 -25 27z" />
    <glyph glyph-name="Ygrave" unicode="&#x1ef2;" horiz-adv-x="586" 
d="M624 700l-293 -380l-50 -320h-55l49 316l-77 171q-26 56 -51 107.5t-37 75.5l-12 23l2 7h67l155 -346l264 346h38zM416 795l-6 -6h-21l-81 129l1 6q14 8 45 8z" />
    <glyph glyph-name="ygrave" unicode="&#x1ef3;" horiz-adv-x="484" 
d="M-58 -256q-8 0 -17 2t-14 4l-5 2q0 14 3.5 26.5t6.5 17.5l4 5q15 -9 33 -9q38 0 100 55.5t130 145.5l-73 307q-13 53 -25 95t-17 57l-6 15l5 5h56l97 -429q80 112 134.5 220.5t54.5 164.5l-6 38l6 6h37q6 -15 6 -34q0 -55 -59.5 -172t-140 -232t-169.5 -202.5t-141 -87.5
zM310 572l-6 -6h-21l-81 129l1 6q14 8 45 8z" />
    <glyph glyph-name="figuredash" unicode="&#x2012;" 
d="M74 334v32h451v-32h-451z" />
    <glyph glyph-name="endash" unicode="&#x2013;" horiz-adv-x="498" 
d="M74 259v32h351v-32h-351z" />
    <glyph glyph-name="emdash" unicode="&#x2014;" horiz-adv-x="798" 
d="M74 259v32h651v-32h-651z" />
    <glyph glyph-name="quoteleft" unicode="&#x2018;" horiz-adv-x="176" 
d="M222 754l10 -13q-8 -9 -20 -25t-32.5 -61.5t-20.5 -85.5l3 -24l-6 -6q-15 0 -27 2.5t-17 4.5l-4 2q-1 6 -1 15q0 29 12 59.5t28.5 53t33.5 41t29 27.5z" />
    <glyph glyph-name="quoteright" unicode="&#x2019;" horiz-adv-x="176" 
d="M99 540l-10 14q8 9 20 25t32.5 61.5t20.5 85.5l-3 24l7 5q14 0 26 -2t16 -4l5 -2q1 -6 1 -15q0 -47 -29 -95t-57 -73z" />
    <glyph glyph-name="quotesinglbase" unicode="&#x201a;" horiz-adv-x="176" 
d="M-20 -154l-10 14q8 9 20 25t32.5 61.5t20.5 85.5l-3 24l7 5q14 0 26 -2.5t17 -4.5l4 -2q1 -5 1 -14q0 -30 -12 -60.5t-28.5 -53t-33.5 -41t-29 -27.5z" />
    <glyph glyph-name="quotedblleft" unicode="&#x201c;" horiz-adv-x="292" 
d="M222 754l10 -13q-8 -9 -20 -25t-32.5 -61.5t-20.5 -85.5l3 -24l-6 -6q-15 0 -27 2.5t-17 4.5l-4 2q-1 6 -1 15q0 29 12 59.5t28.5 53t33.5 41t29 27.5zM338 754l10 -13q-8 -9 -20 -25t-32.5 -61.5t-20.5 -85.5l3 -24l-6 -6q-15 0 -27 2.5t-17 4.5l-4 2q-1 6 -1 15
q0 29 12 59.5t28.5 53t33.5 41t29 27.5z" />
    <glyph glyph-name="quotedblright" unicode="&#x201d;" horiz-adv-x="292" 
d="M99 540l-10 14q8 9 20 25t32.5 61.5t20.5 85.5l-3 24l7 5q14 0 26 -2t16 -4l5 -2q1 -6 1 -15q0 -47 -29 -95t-57 -73zM215 540l-10 14q8 9 20 25t32.5 61.5t20.5 85.5l-2 24l6 5q14 0 26 -2t16 -4l5 -2q1 -6 1 -15q0 -47 -29 -95t-57 -73z" />
    <glyph glyph-name="quotedblbase" unicode="&#x201e;" horiz-adv-x="292" 
d="M-20 -154l-10 14q8 9 20 25t32.5 61.5t20.5 85.5l-3 24l7 5q14 0 26 -2.5t17 -4.5l4 -2q1 -5 1 -14q0 -30 -12 -60.5t-28.5 -53t-33.5 -41t-29 -27.5zM96 -154l-10 14q8 9 20 25t32.5 61.5t20.5 85.5l-3 24l7 5q14 0 26 -2.5t17 -4.5l4 -2q1 -5 1 -14q0 -30 -12 -60.5
t-28.5 -53t-33.5 -41t-29 -27.5z" />
    <glyph glyph-name="dagger" unicode="&#x2020;" horiz-adv-x="466" 
d="M100 501l5 34l159 -2l32 217h32l-36 -217l158 2l-5 -34l-157 2l-88 -553h-30l88 553z" />
    <glyph glyph-name="daggerdbl" unicode="&#x2021;" horiz-adv-x="466" 
d="M100 501l5 34l159 -2l32 217h32l-36 -217l158 2l-5 -34l-157 2l-48 -306l157 2l-5 -34l-158 2l-32 -217h-32l35 217l-158 -2l5 34l157 -2l49 306z" />
    <glyph glyph-name="bullet" unicode="&#x2022;" horiz-adv-x="243" 
d="M67 290q0 32 21 53.5t51 21.5q25 0 39 -14.5t14 -40.5q0 -32 -21 -53.5t-52 -21.5q-25 0 -38.5 14.5t-13.5 40.5z" />
    <glyph glyph-name="ellipsis" unicode="&#x2026;" horiz-adv-x="531" 
d="M18 23q0 17 11 28.5t29 11.5q29 0 29 -30q0 -17 -11.5 -28.5t-28.5 -11.5q-29 0 -29 30zM195 23q0 17 11.5 28.5t28.5 11.5q30 0 30 -30q0 -17 -12 -28.5t-29 -11.5q-29 0 -29 30zM373 23q0 17 11.5 28.5t28.5 11.5q29 0 29 -30q0 -17 -11.5 -28.5t-28.5 -11.5
q-29 0 -29 30z" />
    <glyph glyph-name="perthousand" unicode="&#x2030;" horiz-adv-x="1117" 
d="M170 0h-34l497 700h35zM77 479q0 95 52.5 161t127.5 66q58 0 91 -42t33 -114q0 -95 -53 -160.5t-128 -65.5q-58 0 -90.5 41.5t-32.5 113.5zM119 477q0 -58 22.5 -91.5t62.5 -33.5q55 0 94.5 59t39.5 142q0 59 -22.5 92t-62.5 33q-55 0 -94.5 -59.5t-39.5 -141.5zM422 149
q0 95 53 161t128 66q58 0 91 -42t33 -114q0 -95 -53.5 -160.5t-128.5 -65.5q-58 0 -90.5 41.5t-32.5 113.5zM465 147q0 -58 22 -91.5t63 -33.5q54 0 93.5 59t39.5 142q0 59 -22.5 92t-62.5 33q-55 0 -94 -59.5t-39 -141.5zM767 149q0 96 53 161.5t128 65.5q58 0 90.5 -42
t32.5 -114q0 -95 -53 -160.5t-128 -65.5q-58 0 -90.5 41.5t-32.5 113.5zM809 147q0 -58 22.5 -91.5t62.5 -33.5q54 0 94 59t40 142q0 59 -22.5 92t-62.5 33q-55 0 -94.5 -59.5t-39.5 -141.5z" />
    <glyph glyph-name="guilsinglleft" unicode="&#x2039;" horiz-adv-x="267" 
d="M240 449l4 -6l-4 -24l-144 -144l99 -144l-4 -24l-7 -6l-135 167l2 14z" />
    <glyph glyph-name="guilsinglright" unicode="&#x203a;" horiz-adv-x="267" 
d="M84 443l6 6l136 -167l-2 -14l-189 -167l-5 6l4 24l145 144l-99 144z" />
    <glyph glyph-name="fraction" unicode="&#x2044;" horiz-adv-x="519" 
d="M61 -25h-36l432 750h36z" />
    <glyph glyph-name="Euro" unicode="&#x20ac;" horiz-adv-x="693" 
d="M48 405l5 31h59q37 122 128.5 196t223.5 74q43 0 81 -8.5t60.5 -20.5t39 -24t23.5 -21l6 -8q-2 -15 -9.5 -27t-14.5 -17l-6 -4h-10q-2 4 -6 11t-19.5 24.5t-34.5 31t-51 24.5t-69 11q-99 0 -173.5 -66t-107.5 -176h304l5 -5l-4 -26h-314q-13 -62 -13 -119h302l5 -5
l-3 -26h-304q6 -112 58.5 -172.5t147.5 -60.5q37 0 73 10.5t60 25.5t43 30t28 26l9 10h9q2 -2 5.5 -5t7.5 -15.5t2 -27.5q-3 -3 -9.5 -8.5t-28.5 -20t-47 -25t-66 -19.5t-84 -9q-126 0 -193 68t-74 193h-68l5 31h62v1q0 63 13 118h-56z" />
    <glyph glyph-name="uni20B4" unicode="&#x20b4;" horiz-adv-x="518" 
d="M88 405l5 31h267q80 65 80 134q0 45 -30.5 71.5t-90.5 26.5q-52 0 -96.5 -19.5t-62.5 -38.5l-19 -20l-11 15q2 4 7 11t24 24.5t41 30.5t59 24t79 11q76 0 117.5 -34.5t41.5 -92.5q0 -75 -76 -143h61l-5 -31h-95q-28 -20 -82.5 -55t-69.5 -45h231l-5 -31h-268
q-83 -68 -83 -140q0 -48 32.5 -75t95.5 -27q34 0 66 8t53 20t37 24t23 20l7 8l12 -14q-3 -4 -8 -11t-25 -25t-43 -32t-62 -25t-82 -11q-79 0 -122.5 34t-43.5 96q0 78 81 150h-61l5 31h96q25 18 77 51t74 49h-231z" />
    <glyph glyph-name="afii61352" unicode="&#x2116;" horiz-adv-x="1019" 
d="M721 479q0 96 53 161.5t128 65.5q58 0 90.5 -42t32.5 -113q0 -95 -52.5 -161t-127.5 -66q-59 0 -91.5 42t-32.5 113zM61 0l67 420q13 83 21 151.5t9 94.5l2 27l7 7h22l357 -602l96 602h33l-111 -700h-18l-358 601l-95 -601h-32zM764 477q0 -58 22 -91.5t63 -33.5
q55 0 94.5 59.5t39.5 141.5q0 59 -23 92t-63 33q-54 0 -93.5 -59.5t-39.5 -141.5zM680 200l6 31h285l-4 -31h-287z" />
    <glyph glyph-name="trademark" unicode="&#x2122;" horiz-adv-x="713" 
d="M669 350l11 309l-1 3l-143 -302h-28l-5 7l-54 293l-1 -2l-81 -308h-22l69 263q6 23 10 44t5 30l1 9l6 4h48l53 -290l139 290h47l-12 -350h-42zM242 681l-52 -331h-41l52 331h-40q-23 0 -42 -2.5t-27 -4.5l-7 -2l-3 4l3 24h279l-3 -24l-5 -4q-21 9 -74 9h-40z" />
    <glyph glyph-name="arrowleft" unicode="&#x2190;" horiz-adv-x="548" 
d="M259 475l6 -6v-23l-150 -155h360v-32h-360l150 -155v-23l-6 -6l-205 193v14z" />
    <glyph glyph-name="arrowup" unicode="&#x2191;" horiz-adv-x="546" 
d="M285 74h-31v360l-155 -150h-24l-6 6l193 206h14l193 -206l-6 -6h-23l-155 149v-359z" />
    <glyph glyph-name="arrowright" unicode="&#x2192;" horiz-adv-x="548" 
d="M74 259v32h358l-148 155v23l5 6l206 -193v-14l-206 -193l-5 6v23l148 155h-358z" />
    <glyph glyph-name="arrowdown" unicode="&#x2193;" horiz-adv-x="546" 
d="M69 260l6 6h24l155 -151v361h31v-360l155 150h23l6 -6l-193 -206h-14z" />
    <glyph glyph-name="uni2196" unicode="&#x2196;" horiz-adv-x="546" 
d="M132 137h-9l-7 282l9 9l282 -7v-9l-17 -17l-216 -4l255 -254l-22 -22l-255 254l-3 -215z" />
    <glyph glyph-name="uni2197" unicode="&#x2197;" horiz-adv-x="546" 
d="M138 115l-22 22l254 254l-216 4l-16 17v9l281 7l10 -9l-8 -282h-8l-17 17l-4 215z" />
    <glyph glyph-name="uni2198" unicode="&#x2198;" horiz-adv-x="546" 
d="M116 406l22 22l254 -255l4 217l17 17h8l8 -282l-10 -10l-281 8v8l16 17l216 3z" />
    <glyph glyph-name="uni2199" unicode="&#x2199;" horiz-adv-x="546" 
d="M407 131v-8l-282 -8l-9 10l7 282h9l17 -17l3 -217l255 255l22 -22l-255 -255l216 -3z" />
    <glyph glyph-name="minus" unicode="&#x2212;" 
d="M107 309v32h384v-32h-384z" />
    <glyph glyph-name="approxequal" unicode="&#x2248;" 
d="M107 382v33q47 50 95 50q33 0 97.5 -30.5t97.5 -30.5q46 0 94 50v-33q-45 -50 -93 -50q-33 0 -98 31t-97 31q-42 0 -96 -51zM398 174q-33 0 -98 31t-97 31q-42 0 -96 -51v33q47 50 95 50q32 0 97 -30.5t98 -30.5q46 0 94 50v-33q-45 -50 -93 -50z" />
    <glyph glyph-name="notequal" unicode="&#x2260;" 
d="M107 408v31h240l54 91l27 -16l-44 -75h107v-31h-125l-98 -166h223v-31h-241l-53 -91l-27 16l44 75h-107v31h125l97 166h-222z" />
    <glyph glyph-name="lessequal" unicode="&#x2264;" 
d="M501 574v-33l-363 -150l363 -151v-33l-404 167v33zM97 94v32h404v-32h-404z" />
    <glyph glyph-name="greaterequal" unicode="&#x2265;" 
d="M97 541v33l404 -167v-33l-404 -167v33l364 151zM97 94v32h404v-32h-404z" />
    <glyph glyph-name="commaaccent" unicode="&#xf6c3;" horiz-adv-x="172" 
d="M-26 -233l-8 11q7 6 16.5 17.5t26 48t16.5 72.5l-1 18l5 5q11 0 20.5 -1.5t13.5 -3.5l4 -2q1 -4 1 -14q0 -25 -9.5 -50t-23.5 -42.5t-28 -31.5t-23 -20z" />
    <glyph glyph-name="zerooldstyle" unicode="&#xf730;" horiz-adv-x="599" 
d="M58 199q0 119 80 199t195 80q94 0 147.5 -55.5t53.5 -150.5q0 -118 -79.5 -198t-194.5 -80q-94 0 -148 55t-54 150zM114 197q0 -82 40 -128.5t110 -46.5q91 0 153.5 72.5t62.5 179.5q0 82 -40.5 129t-110.5 47q-90 0 -152.5 -72.5t-62.5 -180.5z" />
    <glyph glyph-name="oneoldstyle" unicode="&#xf731;" horiz-adv-x="394" 
d="M184 0l66 415q-11 -8 -29.5 -20.5t-66.5 -33.5t-85 -21q-3 8 0 26l6 6q42 0 95.5 25t85.5 50l33 25h23l-74 -472h-54z" />
    <glyph glyph-name="twooldstyle" unicode="&#xf732;" horiz-adv-x="519" 
d="M471 360q0 -51 -37 -102.5t-89.5 -89.5t-105.5 -68.5t-90 -45.5l-37 -16h169q47 0 84 3t51 7l14 3l5 -7l-6 -44h-410l4 27q8 3 22 9.5t55 26t78 40.5t82 52.5t77.5 62t55 68.5t22.5 73q0 41 -30 66t-89 25q-76 0 -120.5 -42t-44.5 -112l2 -25l-7 -7q-13 0 -24.5 2
t-16.5 4l-5 1q-3 8 -3 26q0 79 59 130t166 51q82 0 125.5 -32t43.5 -86z" />
    <glyph glyph-name="threeoldstyle" unicode="&#xf733;" horiz-adv-x="576" 
d="M205 -228q91 0 145.5 59t54.5 146q0 64 -31 101t-90 37h-62l-5 6l4 27h48q78 0 121 48t43 128q0 126 -126 126q-77 0 -126 -43t-49 -121l2 -25l-7 -7q-13 0 -24.5 2t-16.5 4l-5 1q-3 9 -3 27q0 83 64 136.5t171 53.5q177 0 177 -151q0 -71 -37 -122.5t-103 -70.5
q55 -10 84 -52t29 -105q0 -102 -71 -167.5t-190 -65.5q-94 0 -143 41t-49 112q0 22 5 40t9 25l5 8q18 7 47 7l6 -7q-19 -28 -19 -75q0 -58 37.5 -90.5t104.5 -32.5z" />
    <glyph glyph-name="fouroldstyle" unicode="&#xf734;" horiz-adv-x="552" 
d="M-5 0l2 16l423 456h27l-70 -441h95l-5 -31h-95l-40 -250h-53l40 250h-324zM50 31h274l56 358z" />
    <glyph glyph-name="fiveoldstyle" unicode="&#xf735;" horiz-adv-x="555" 
d="M192 -228q92 0 146 68.5t54 170.5q0 78 -36 116t-113 38q-40 0 -80.5 -9.5t-60.5 -18.5l-21 -9l-8 11l88 329h164q47 0 84 3t51 7l14 3l6 -7l-8 -51h-291l-69 -260q74 37 154 37q95 0 139.5 -50t44.5 -137q0 -117 -70 -193t-192 -76q-88 0 -134.5 40.5t-46.5 110.5
q0 22 4.5 40t8.5 25l5 8q18 7 49 7l5 -7q-19 -27 -19 -74q0 -58 35 -90t97 -32z" />
    <glyph glyph-name="sixoldstyle" unicode="&#xf736;" horiz-adv-x="580" 
d="M368 678q-75 0 -129 -52.5t-79.5 -130.5t-31.5 -177q74 96 202 96q85 0 132.5 -46.5t47.5 -130.5q0 -106 -70 -174.5t-174 -68.5q-195 0 -195 272q0 80 16.5 154.5t50.5 140.5t95.5 105.5t142.5 39.5q77 0 123 -34t46 -95q0 -19 -4.5 -35.5t-8.5 -23.5l-4 -7
q-18 -7 -48 -7l-5 7q17 26 17 65q0 50 -35 76t-89 26zM314 386q-109 0 -188 -109v-20q0 -119 34 -177t108 -58q79 0 132.5 60.5t53.5 152.5q0 73 -36.5 112t-103.5 39z" />
    <glyph glyph-name="sevenoldstyle" unicode="&#xf737;" horiz-adv-x="512" 
d="M156 -250h-54q16 98 57.5 204t89.5 187t94 148t77 103l30 35h-222q-47 0 -84 -3.5t-51 -6.5l-14 -3l-5 7l7 51h419l-4 -28q-12 -14 -31.5 -39.5t-71.5 -103.5t-94.5 -156.5t-85 -187.5t-57.5 -207z" />
    <glyph glyph-name="eightoldstyle" unicode="&#xf738;" horiz-adv-x="568" 
d="M528 560q0 -40 -17 -76t-44 -62t-50.5 -42t-48.5 -28q59 -32 91.5 -68t32.5 -92q0 -81 -67 -139.5t-181 -58.5q-96 0 -145.5 42.5t-49.5 116.5q0 45 18.5 83t48.5 63t57 40.5t56 25.5q-102 59 -102 152q0 80 62.5 134.5t161.5 54.5q83 0 130 -39.5t47 -106.5zM439 180
q0 22 -8.5 41.5t-17.5 32t-33 28.5t-34.5 22.5t-44 23t-41.5 20.5q-25 -10 -47.5 -23.5t-50.5 -36.5t-44.5 -57t-16.5 -74q0 -61 39 -98t109 -37q80 0 135 47t55 111zM345 678q-72 0 -118 -42t-46 -103q0 -25 10 -47.5t21.5 -37t38 -32t40.5 -25t48 -24.5q20 11 40 26
t44.5 39t39.5 57t15 69q0 55 -35.5 87.5t-97.5 32.5z" />
    <glyph glyph-name="nineoldstyle" unicode="&#xf739;" horiz-adv-x="569" 
d="M188 -228q51 0 91.5 23.5t66.5 60t45 87t28 97t14 97.5q-69 -72 -187 -72q-84 0 -132.5 44t-48.5 129q0 104 69 172t172 68q97 0 142 -66.5t45 -200.5q0 -61 -8.5 -121.5t-31 -124.5t-56.5 -112t-89 -78.5t-125 -30.5q-78 0 -126.5 34.5t-48.5 96.5q0 18 4 33.5t8 22.5
l5 7q17 7 47 7l6 -7q-16 -25 -16 -62q0 -50 34.5 -77t91.5 -27zM261 93q98 0 175 80q1 18 1 51q0 115 -32 170.5t-103 55.5q-77 0 -128.5 -59t-51.5 -150q0 -73 37 -110.5t102 -37.5z" />
    <glyph glyph-name="A.smcp" horiz-adv-x="513" 
d="M115 147l-84 -147h-30l271 472l-5 12l1 6h57l127 -490h-54l-38 147h-245zM303 369l-20 71l-153 -267h223z" />
    <glyph glyph-name="Aacute.smcp" horiz-adv-x="513" 
d="M115 147l-84 -147h-30l270 473l-4 11l1 6h57l127 -490h-54l-38 147h-245zM303 369l-20 71l-153 -267h223zM274 551l-5 6l106 137q14 0 24.5 -2t14.5 -4l4 -2l-1 -6l-123 -129h-20z" />
    <glyph glyph-name="Abreve.smcp" horiz-adv-x="513" 
d="M115 147l-84 -147h-30l270 473l-4 11l1 6h57l127 -490h-54l-38 147h-245zM303 369l-20 71l-153 -267h223zM202 636l15 13q3 -6 9.5 -16t31 -26t54.5 -16q31 0 59.5 14.5t42.5 28.5l13 15l10 -13q-2 -3 -5.5 -8.5t-16 -19.5t-26 -24.5t-36 -19t-46.5 -8.5t-43.5 8
t-30.5 20t-18.5 24t-10.5 20z" />
    <glyph glyph-name="Acircumflex.smcp" horiz-adv-x="513" 
d="M115 147l-84 -147h-30l270 473l-4 11l1 6h57l127 -490h-54l-38 147h-245zM303 369l-20 71l-153 -267h223zM426 557l-7 -6h-23l-71 101l-104 -101h-23l-4 6l129 137h16z" />
    <glyph glyph-name="Agrave.smcp" horiz-adv-x="513" 
d="M115 147l-84 -147h-30l270 473l-4 11l1 6h57l127 -490h-54l-38 147h-245zM303 369l-20 71l-153 -267h223zM344 557l-6 -6h-21l-81 129l1 6q14 8 45 8z" />
    <glyph glyph-name="Adieresis.smcp" horiz-adv-x="513" 
d="M115 147l-84 -147h-30l270 473l-4 11l1 6h57l127 -490h-54l-38 147h-245zM303 369l-20 71l-153 -267h223zM379 589q0 16 10 26t25 10q26 0 26 -27q0 -15 -10 -25.5t-25 -10.5q-26 0 -26 27zM189 589q0 16 10 26t25 10q26 0 26 -27q0 -15 -9.5 -25.5t-24.5 -10.5
q-27 0 -27 27z" />
    <glyph glyph-name="Amacron.smcp" horiz-adv-x="513" 
d="M115 147l-84 -147h-30l270 473l-4 11l1 6h57l127 -490h-54l-38 147h-245zM303 369l-20 71l-153 -267h223zM209 580l5 31h207l-4 -31h-208z" />
    <glyph glyph-name="Aogonek.smcp" horiz-adv-x="513" 
d="M115 147l-84 -147h-30l270 473l-4 11l1 6h57l127 -490h-10q-45 -42 -45 -92q0 -36 32 -36q9 0 17.5 3t12.5 6l4 3l10 -13q-20 -27 -55 -27q-24 0 -39.5 15t-15.5 44q0 27 13.5 51t27.5 35l13 11h-19l-38 147h-245zM303 369l-20 71l-153 -267h223z" />
    <glyph glyph-name="Aring.smcp" horiz-adv-x="513" 
d="M115 147l-84 -147h-30l270 473l-4 11l1 6h57l127 -490h-54l-38 147h-245zM303 369l-20 71l-153 -267h223zM247 609q0 38 24 63t58 25q28 0 43.5 -17t15.5 -46q0 -38 -24 -64t-58 -26q-27 0 -43 17.5t-16 47.5zM276 614q0 -18 9.5 -29t25.5 -11q20 0 34.5 16t14.5 38
q0 39 -35 39q-20 0 -34.5 -15.5t-14.5 -37.5z" />
    <glyph glyph-name="Atilde.smcp" horiz-adv-x="513" 
d="M115 147l-84 -147h-30l270 473l-4 11l1 6h57l127 -490h-54l-38 147h-245zM303 369l-20 71l-153 -267h223zM279 633q22 0 42.5 -18t38.5 -18t35.5 9.5t26.5 19.5l8 10l10 -13q-4 -7 -11 -17t-31 -27t-49 -17q-22 0 -42.5 18t-38.5 18t-35 -10t-25 -20l-9 -9l-10 14
q4 7 11 17t30.5 26.5t48.5 16.5z" />
    <glyph glyph-name="AE.smcp" horiz-adv-x="616" 
d="M1 0l305 490h295l-5 -31l-5 -6q-31 12 -110 12h-118l-33 -202h193l3 -5l-2 -21h-198l-33 -212h124q36 0 64 3t39 6l10 3l5 -5l-5 -32h-293l24 152h-136l-94 -152h-30zM141 177h124l42 267z" />
    <glyph glyph-name="AEacute.smcp" horiz-adv-x="616" 
d="M1 0l305 490h295l-5 -31l-6 -6q-31 12 -110 12h-118l-33 -202h194l3 -5l-3 -21h-198l-33 -212h125q36 0 64 3t39 6l10 3l5 -5l-5 -32h-293l24 152h-136l-94 -152h-30zM141 177h124l42 267zM321 551l-5 6l106 137q14 0 24.5 -2t14.5 -4l4 -2l-1 -6l-123 -129h-20z" />
    <glyph glyph-name="B.smcp" horiz-adv-x="487" 
d="M53 0l78 490h168q137 0 137 -106q0 -48 -28 -82t-81 -47q97 -18 97 -110q0 -66 -50 -105.5t-137 -39.5h-184zM372 147q0 93 -105 93h-125l-34 -214h125q63 0 101 33.5t38 87.5zM383 379q0 85 -97 85h-108l-32 -198h109q61 0 94.5 31.5t33.5 81.5z" />
    <glyph glyph-name="C.smcp" horiz-adv-x="529" 
d="M338 472q-95 0 -157.5 -75.5t-62.5 -186.5q0 -88 41.5 -134.5t120.5 -46.5q43 0 84 13.5t60 27.5l20 13l9 -11q-3 -3 -8 -8.5t-23.5 -18.5t-39 -23t-53 -18.5t-66.5 -8.5q-95 0 -148.5 56.5t-53.5 155.5q0 122 79.5 205t202.5 83q76 0 116.5 -33t40.5 -88
q0 -17 -3.5 -30.5t-6.5 -18.5l-4 -5q-18 -6 -46 -6l-4 6q14 20 14 57q0 45 -29 70t-83 25z" />
    <glyph glyph-name="Cacute.smcp" horiz-adv-x="529" 
d="M338 472q-95 0 -157.5 -75.5t-62.5 -186.5q0 -88 41.5 -134.5t120.5 -46.5q43 0 84 13.5t60 27.5l20 13l9 -11q-3 -3 -8 -8.5t-23.5 -18.5t-39 -23t-53 -18.5t-66.5 -8.5q-95 0 -148.5 56.5t-53.5 155.5q0 122 79.5 205t202.5 83q76 0 116.5 -33t40.5 -88
q0 -17 -3.5 -30.5t-6.5 -18.5l-4 -5q-18 -6 -46 -6l-4 6q14 20 14 57q0 45 -29 70t-83 25zM305 551l-5 6l106 137q14 0 24.5 -2t14.5 -4l4 -2l-1 -6l-123 -129h-20z" />
    <glyph glyph-name="Ccaron.smcp" horiz-adv-x="529" 
d="M338 472q-95 0 -157.5 -75.5t-62.5 -186.5q0 -88 41.5 -134.5t120.5 -46.5q43 0 84 13.5t60 27.5l20 13l9 -11q-3 -3 -8 -8.5t-23.5 -18.5t-39 -23t-53 -18.5t-66.5 -8.5q-95 0 -148.5 56.5t-53.5 155.5q0 122 79.5 205t202.5 83q76 0 116.5 -33t40.5 -88
q0 -17 -3.5 -30.5t-6.5 -18.5l-4 -5q-18 -6 -46 -6l-4 6q14 20 14 57q0 45 -29 70t-83 25zM466 691l5 -6l-129 -137h-17l-86 137l6 6h23l72 -101l104 101h22z" />
    <glyph glyph-name="Ccedilla.smcp" horiz-adv-x="529" 
d="M233 -68l20 63q-90 3 -141 59.5t-51 152.5q0 122 79.5 205t202.5 83q76 0 116.5 -33t40.5 -88q0 -17 -3.5 -30.5t-6.5 -18.5l-4 -5q-18 -6 -46 -6l-4 6q14 20 14 57q0 45 -29 70t-83 25q-95 0 -157.5 -75.5t-62.5 -186.5q0 -88 41.5 -134.5t120.5 -46.5q43 0 84 13.5
t60 27.5l20 13l9 -11q-3 -3 -7.5 -8t-21.5 -17.5t-36 -22t-49 -18.5t-61 -10l-15 -48q23 0 37 -14t14 -38q0 -30 -21.5 -49t-53.5 -19q-20 0 -35 8.5t-20 17.5l-4 8l14 13q13 -20 43 -20q20 0 32 10.5t12 28.5q0 32 -44 32z" />
    <glyph glyph-name="Ccircumflex.smcp" horiz-adv-x="529" 
d="M338 472q-95 0 -157.5 -75.5t-62.5 -186.5q0 -88 41.5 -134.5t120.5 -46.5q43 0 84 13.5t60 27.5l20 13l9 -11q-3 -3 -8 -8.5t-23.5 -18.5t-39 -23t-53 -18.5t-66.5 -8.5q-95 0 -148.5 56.5t-53.5 155.5q0 122 79.5 205t202.5 83q76 0 116.5 -33t40.5 -88
q0 -17 -3.5 -30.5t-6.5 -18.5l-4 -5q-18 -6 -46 -6l-4 6q14 20 14 57q0 45 -29 70t-83 25zM457 557l-7 -6h-23l-71 101l-104 -101h-23l-4 6l129 137h16z" />
    <glyph glyph-name="Cdotaccent.smcp" horiz-adv-x="529" 
d="M338 472q-95 0 -157.5 -75.5t-62.5 -186.5q0 -88 41.5 -134.5t120.5 -46.5q43 0 84 13.5t60 27.5l20 13l9 -11q-3 -3 -8 -8.5t-23.5 -18.5t-39 -23t-53 -18.5t-66.5 -8.5q-95 0 -148.5 56.5t-53.5 155.5q0 122 79.5 205t202.5 83q76 0 116.5 -33t40.5 -88
q0 -17 -3.5 -30.5t-6.5 -18.5l-4 -5q-18 -6 -46 -6l-4 6q14 20 14 57q0 45 -29 70t-83 25zM315 606q0 16 10.5 27t26.5 11q28 0 28 -29q0 -16 -11 -27t-27 -11q-27 0 -27 29z" />
    <glyph glyph-name="D.smcp" horiz-adv-x="552" 
d="M53 0l78 490h178q93 0 146.5 -56.5t53.5 -152.5q0 -119 -79.5 -200t-197.5 -81h-179zM304 464h-126l-70 -438h126q93 0 155.5 73.5t62.5 184.5q0 85 -39 132.5t-109 47.5z" />
    <glyph glyph-name="Dcaron.smcp" horiz-adv-x="553" 
d="M53 0l78 490h178q93 0 146.5 -56.5t53.5 -152.5q0 -119 -79.5 -200t-197.5 -81h-179zM304 464h-126l-70 -438h126q93 0 155.5 73.5t62.5 184.5q0 85 -39 132.5t-109 47.5zM456 691l5 -6l-130 -137h-17l-86 137l7 6h23l72 -101l103 101h23z" />
    <glyph glyph-name="Dcroat.smcp" horiz-adv-x="553" 
d="M43 238l4 26h49l36 226h178q93 0 146.5 -56.5t53.5 -152.5q0 -119 -80 -200t-198 -81h-178l38 238h-49zM304 464h-125l-32 -200h116l-4 -26h-116l-34 -212h125q93 0 156 74t63 184q0 85 -39.5 132.5t-109.5 47.5z" />
    <glyph glyph-name="Eth.smcp" horiz-adv-x="553" 
d="M43 238l4 26h49l36 226h178q93 0 146.5 -56.5t53.5 -152.5q0 -119 -80 -200t-198 -81h-178l38 238h-49zM304 464h-125l-32 -200h116l-4 -26h-116l-34 -212h125q93 0 156 74t63 184q0 85 -39.5 132.5t-109.5 47.5z" />
    <glyph glyph-name="Thorn.smcp" horiz-adv-x="458" 
d="M53 0l78 490h51l-16 -99h103q71 0 110.5 -31.5t39.5 -91.5q0 -69 -54 -112t-140 -43h-103l-18 -113h-51zM257 366h-95l-36 -228h95q64 0 104 35.5t40 93.5q0 48 -28 73.5t-80 25.5z" />
    <glyph glyph-name="E.smcp" horiz-adv-x="444" 
d="M53 0l78 490h298l-5 -31l-6 -6q-31 12 -111 12h-129l-33 -202h205l5 -5l-4 -21h-210l-33 -212h137q35 0 63.5 3t39.5 6l11 3l4 -5l-5 -32h-305z" />
    <glyph glyph-name="Eacute.smcp" horiz-adv-x="444" 
d="M53 0l78 490h298l-5 -31l-6 -6q-31 12 -111 12h-129l-33 -202h205l5 -5l-4 -21h-210l-33 -212h137q35 0 63.5 3t39.5 6l11 3l4 -5l-5 -32h-305zM247 551l-5 6l106 137q14 0 24.5 -2t14.5 -4l4 -2l-1 -6l-123 -129h-20z" />
    <glyph glyph-name="Ebreve.smcp" horiz-adv-x="444" 
d="M53 0l78 490h298l-5 -31l-6 -6q-31 12 -111 12h-129l-33 -202h205l5 -5l-4 -21h-210l-33 -212h137q35 0 63.5 3t39.5 6l11 3l4 -5l-5 -32h-305zM181 636l15 13q3 -6 9.5 -16t31 -26t55.5 -16q30 0 58.5 14.5t41.5 28.5l14 15l11 -13q-2 -3 -5.5 -8.5t-16 -19.5
t-26.5 -24.5t-36.5 -19t-46.5 -8.5t-43.5 8t-30.5 20t-18.5 24t-9.5 20z" />
    <glyph glyph-name="Ecaron.smcp" horiz-adv-x="444" 
d="M53 0l78 490h298l-5 -31l-6 -6q-31 12 -111 12h-129l-33 -202h205l5 -5l-4 -21h-210l-33 -212h137q35 0 63.5 3t39.5 6l11 3l4 -5l-5 -32h-305zM416 695l5 -6l-129 -137h-17l-86 137l6 6h23l72 -101l104 101h22z" />
    <glyph glyph-name="Ecircumflex.smcp" horiz-adv-x="443" 
d="M53 0l78 490h298l-5 -31l-6 -6q-31 12 -111 12h-129l-33 -202h205l5 -5l-4 -21h-210l-33 -212h137q35 0 63.5 3t39.5 6l11 3l4 -5l-5 -32h-305zM405 557l-7 -6h-23l-71 101l-104 -101h-23l-4 6l129 137h16z" />
    <glyph glyph-name="Edieresis.smcp" horiz-adv-x="444" 
d="M53 0l78 490h298l-5 -31l-6 -6q-31 12 -111 12h-129l-33 -202h205l5 -5l-4 -21h-210l-33 -212h137q35 0 63.5 3t39.5 6l11 3l4 -5l-5 -32h-305zM167 584q0 15 10.5 25.5t24.5 10.5q27 0 27 -27q0 -16 -10 -26t-25 -10q-27 0 -27 27zM358 584q0 15 10 25.5t24 10.5
q27 0 27 -27q0 -16 -10 -26t-26 -10q-25 0 -25 27z" />
    <glyph glyph-name="Edotaccent.smcp" horiz-adv-x="444" 
d="M53 0l78 490h298l-5 -31l-6 -6q-31 12 -111 12h-129l-33 -202h205l5 -5l-4 -21h-210l-33 -212h137q35 0 63.5 3t39.5 6l11 3l4 -5l-5 -32h-305zM263 606q0 16 11 27t27 11q13 0 20.5 -8t7.5 -21q0 -16 -11 -27t-27 -11q-28 0 -28 29z" />
    <glyph glyph-name="Egrave.smcp" horiz-adv-x="444" 
d="M53 0l78 490h298l-5 -31l-6 -6q-31 12 -111 12h-129l-33 -202h205l5 -5l-4 -21h-210l-33 -212h137q35 0 63.5 3t39.5 6l11 3l4 -5l-5 -32h-305zM330 557l-6 -6h-21l-81 129l1 6q15 8 45 8z" />
    <glyph glyph-name="Emacron.smcp" horiz-adv-x="444" 
d="M53 0l78 490h298l-5 -31l-6 -6q-31 12 -111 12h-129l-33 -202h205l5 -5l-4 -21h-210l-33 -212h137q35 0 63.5 3t39.5 6l11 3l4 -5l-5 -32h-305zM187 580l5 31h208l-5 -31h-208z" />
    <glyph glyph-name="Eogonek.smcp" horiz-adv-x="444" 
d="M53 0l78 490h298l-5 -31l-6 -6q-31 12 -111 12h-129l-33 -202h205l5 -5l-4 -21h-210l-33 -212h137q35 0 63.5 3t39.5 6l11 3l4 -5l-5 -32h-35q-46 -42 -46 -91q0 -36 33 -36q9 0 17.5 2.5t12.5 5.5l4 3l10 -13q-20 -27 -56 -27q-24 0 -39 15t-15 44q0 27 13.5 51t26.5 35
l14 11h-245z" />
    <glyph glyph-name="F.smcp" horiz-adv-x="425" 
d="M53 0l78 490h297l-5 -31l-6 -6q-31 12 -110 12h-129l-33 -202h200l4 -5l-3 -21h-205l-37 -237h-51z" />
    <glyph glyph-name="G.smcp" horiz-adv-x="540" 
d="M350 210l3 21h73q13 0 25 1.5t17 3.5l6 1l5 -6l-27 -168q-8 -8 -22.5 -19t-63 -30t-101.5 -19q-96 0 -150 57t-54 155q0 123 79 205.5t204 82.5q75 0 116 -31t41 -85q0 -17 -3.5 -30.5t-7.5 -18.5l-4 -5q-17 -5 -45 -5l-6 5q15 20 15 57q0 90 -109 90q-98 0 -160.5 -75.5
t-62.5 -187.5q0 -88 41 -136t118 -48q62 0 126 32l10 56q10 58 8 92h-67z" />
    <glyph glyph-name="Gbreve.smcp" horiz-adv-x="539" 
d="M350 210l3 21h73q13 0 25 1.5t17 3.5l6 1l5 -6l-27 -168q-8 -8 -22.5 -19t-63 -30t-101.5 -19q-96 0 -150 57t-54 155q0 123 79 205.5t204 82.5q75 0 116 -31t41 -85q0 -17 -3.5 -30.5t-7.5 -18.5l-4 -5q-17 -5 -45 -5l-6 5q15 20 15 57q0 90 -109 90q-98 0 -160.5 -75.5
t-62.5 -187.5q0 -88 41 -136t118 -48q62 0 126 32l10 56q10 58 8 92h-67zM232 636l15 13q3 -6 9.5 -16t31 -26t54.5 -16q31 0 59.5 14.5t42.5 28.5l13 15l10 -13q-2 -3 -5.5 -8.5t-16 -19.5t-26 -24.5t-36 -19t-46.5 -8.5t-43.5 8t-30.5 20t-18.5 24t-10.5 20z" />
    <glyph glyph-name="Gcircumflex.smcp" horiz-adv-x="539" 
d="M350 210l3 21h73q13 0 25 1.5t17 3.5l6 1l5 -6l-27 -168q-8 -8 -22.5 -19t-63 -30t-101.5 -19q-96 0 -150 57t-54 155q0 123 79 205.5t204 82.5q75 0 116 -31t41 -85q0 -17 -3.5 -30.5t-7.5 -18.5l-4 -5q-17 -5 -45 -5l-6 5q15 20 15 57q0 90 -109 90q-98 0 -160.5 -75.5
t-62.5 -187.5q0 -88 41 -136t118 -48q62 0 126 32l10 56q10 58 8 92h-67zM457 557l-7 -6h-23l-71 101l-104 -101h-23l-4 6l129 137h16z" />
    <glyph glyph-name="Gcommaaccent.smcp" horiz-adv-x="539" 
d="M350 210l3 21h73q13 0 25 1.5t17 3.5l6 1l5 -6l-27 -168q-8 -8 -22.5 -19t-63 -30t-101.5 -19q-96 0 -150 57t-54 155q0 123 79 205.5t204 82.5q75 0 116 -31t41 -85q0 -17 -3.5 -30.5t-7.5 -18.5l-4 -5q-17 -5 -45 -5l-6 5q15 20 15 57q0 90 -109 90q-98 0 -160.5 -75.5
t-62.5 -187.5q0 -88 41 -136t118 -48q62 0 126 32l10 56q10 58 8 92h-67zM190 -212l-8 12q7 6 16.5 17.5t26 48t16.5 72.5l-1 18l5 5q11 0 20.5 -1.5t13.5 -3.5l4 -2q1 -4 1 -14q0 -40 -23.5 -78t-46.5 -56z" />
    <glyph glyph-name="Gdotaccent.smcp" horiz-adv-x="539" 
d="M350 210l3 21h73q13 0 25 1.5t17 3.5l6 1l5 -6l-27 -168q-8 -8 -22.5 -19t-63 -30t-101.5 -19q-96 0 -150 57t-54 155q0 123 79 205.5t204 82.5q75 0 116 -31t41 -85q0 -17 -3.5 -30.5t-7.5 -18.5l-4 -5q-17 -5 -45 -5l-6 5q15 20 15 57q0 90 -109 90q-98 0 -160.5 -75.5
t-62.5 -187.5q0 -88 41 -136t118 -48q62 0 126 32l10 56q10 58 8 92h-67zM315 606q0 16 10.5 27t26.5 11q28 0 28 -29q0 -16 -11 -27t-27 -11q-27 0 -27 29z" />
    <glyph glyph-name="H.smcp" horiz-adv-x="561" 
d="M396 0l37 237h-292l-37 -237h-51l78 490h51l-37 -227h292l36 227h52l-78 -490h-51z" />
    <glyph glyph-name="Hbar.smcp" horiz-adv-x="560" 
d="M396 0l37 237h-291l-38 -237h-51l58 367h-48l4 26h48l16 97h51l-16 -97h291l16 97h52l-16 -97h49l-4 -26h-49l-58 -367h-51zM162 367l-16 -104h291l16 104h-291z" />
    <glyph glyph-name="Hcircumflex.smcp" horiz-adv-x="561" 
d="M396 0l37 237h-292l-37 -237h-51l78 490h51l-37 -227h292l36 227h52l-78 -490h-51zM453 557l-7 -6h-23l-71 101l-104 -101h-23l-4 6l129 137h16z" />
    <glyph glyph-name="I.smcp" horiz-adv-x="218" 
d="M53 0l78 490h51l-78 -490h-51z" />
    <glyph glyph-name="Iacute.smcp" horiz-adv-x="218" 
d="M53 0l78 490h51l-78 -490h-51zM130 551l-5 6l106 137q14 0 24.5 -2t14.5 -4l4 -2l-1 -6l-123 -129h-20z" />
    <glyph glyph-name="Ibreve.smcp" horiz-adv-x="218" 
d="M53 0l78 490h51l-78 -490h-51zM58 636l15 13q3 -6 9.5 -16t31 -26t54.5 -16q31 0 59.5 14.5t42.5 28.5l13 15l10 -13q-2 -3 -5.5 -8.5t-16 -19.5t-26 -24.5t-36 -19t-46.5 -8.5t-43.5 8t-30.5 20t-18.5 24t-10.5 20z" />
    <glyph glyph-name="Icircumflex.smcp" horiz-adv-x="218" 
d="M53 0l78 490h51l-78 -490h-51zM281 557l-7 -6h-22l-72 101l-103 -101h-23l-5 6l130 137h16z" />
    <glyph glyph-name="Idieresis.smcp" horiz-adv-x="218" 
d="M53 0l78 490h51l-78 -490h-51zM43 589q0 15 10.5 25.5t24.5 10.5q27 0 27 -27q0 -15 -10 -25.5t-25 -10.5q-27 0 -27 27zM234 589q0 16 10 26t24 10q27 0 27 -27q0 -15 -10 -25.5t-26 -10.5q-25 0 -25 27z" />
    <glyph glyph-name="Idotaccent.smcp" horiz-adv-x="218" 
d="M53 0l78 490h51l-78 -490h-51zM134 607q0 18 12 30t30 12q30 0 30 -32q0 -18 -11.5 -30t-29.5 -12q-14 0 -22.5 9t-8.5 23z" />
    <glyph glyph-name="Igrave.smcp" horiz-adv-x="218" 
d="M53 0l78 490h51l-78 -490h-51zM199 557l-6 -6h-21l-81 129l1 6q14 8 45 8z" />
    <glyph glyph-name="Imacron.smcp" horiz-adv-x="218" 
d="M53 0l78 490h51l-78 -490h-51zM64 580l5 31h208l-5 -31h-208z" />
    <glyph glyph-name="Iogonek.smcp" horiz-adv-x="217" 
d="M53 0l78 490h51l-78 -490h-9q-46 -42 -46 -91q0 -36 33 -36q9 0 17.5 2.5t12.5 5.5l4 3l10 -13q-20 -27 -56 -27q-23 0 -38.5 15t-15.5 44q0 27 13.5 51t26.5 35l14 11h-17z" />
    <glyph glyph-name="Itilde.smcp" horiz-adv-x="218" 
d="M53 0l78 490h51l-78 -490h-51zM135 633q22 0 42.5 -18t38.5 -18t35.5 9.5t26.5 19.5l8 10l9 -13q-4 -7 -11 -17t-30.5 -27t-48.5 -17q-22 0 -42.5 18t-38.5 18t-35 -10t-25 -20l-9 -9l-10 14q4 7 11 17t30.5 26.5t48.5 16.5z" />
    <glyph glyph-name="IJ.smcp" horiz-adv-x="455" 
d="M89 228l42 262h51l-41 -262h-52zM187 18q52 0 85.5 38.5t44.5 111.5l51 322h52l-51 -322q-14 -82 -62 -127.5t-124 -45.5q-58 0 -90 25t-32 66q0 16 4 30t8 20l4 7q17 5 45 5l5 -5q-15 -25 -15 -57t20 -50t55 -18z" />
    <glyph glyph-name="J.smcp" horiz-adv-x="379" 
d="M237 147l55 343h51l-55 -342q-24 -153 -163 -153q-36 0 -63.5 10.5t-36.5 20.5l-9 11q2 14 9 26.5t13 18.5l7 5h6l2.5 -7.5t7.5 -16.5t14 -21t22.5 -16.5t32.5 -7.5q86 0 107 129z" />
    <glyph glyph-name="Jcircumflex.smcp" horiz-adv-x="378" 
d="M237 147l55 343h51l-55 -342q-24 -153 -163 -153q-36 0 -63.5 10.5t-36.5 20.5l-9 11q2 14 9 26.5t13 18.5l7 5h6l2.5 -7.5t7.5 -16.5t14 -21t22.5 -16.5t32.5 -7.5q86 0 107 129zM443 566l-7 -6h-22l-72 102l-103 -102h-23l-5 6l130 137h16z" />
    <glyph glyph-name="K.smcp" horiz-adv-x="473" 
d="M53 0l78 490h51l-35 -220h39l232 220h37l-229 -218l82 -132q24 -37 49 -70.5t37 -48.5l13 -15l-1 -6h-63l-162 244h-38l-39 -244h-51z" />
    <glyph glyph-name="Kcommaaccent.smcp" horiz-adv-x="474" 
d="M53 0l78 490h51l-35 -220h39l232 220h37l-229 -218l82 -132q24 -37 49 -70.5t37 -48.5l13 -15l-1 -6h-63l-162 244h-38l-39 -244h-51zM147 -212l-9 12l6.5 6.5t14.5 18.5t18 29t14.5 38t6.5 46l-1 18l4 5q12 0 21.5 -1.5t13.5 -3.5l3 -2q2 -4 2 -14q0 -40 -23.5 -78
t-47.5 -56z" />
    <glyph glyph-name="L.smcp" horiz-adv-x="410" 
d="M53 0l78 490h51l-74 -465h121q35 0 63.5 3t39.5 6l11 3l4 -5l-4 -32h-290z" />
    <glyph glyph-name="Lacute.smcp" horiz-adv-x="411" 
d="M53 0l78 490h51l-74 -465h121q35 0 63.5 3t39.5 6l11 3l4 -5l-4 -32h-290zM124 551l-5 6l106 137q13 0 23.5 -2t14.5 -4l4 -2l-1 -6l-122 -129h-20z" />
    <glyph glyph-name="Lcaron.smcp" horiz-adv-x="411" 
d="M53 0l78 490h51l-74 -465h121q35 0 63.5 3t39.5 6l11 3l4 -5l-4 -32h-290zM295 324l-8 11q7 6 16.5 18t26 48.5t16.5 72.5v18l4 4q11 0 20.5 -1.5t13.5 -2.5l4 -2q1 -4 1 -14q0 -26 -9.5 -51t-23.5 -42.5t-28 -31.5t-24 -21z" />
    <glyph glyph-name="Lcommaaccent.smcp" horiz-adv-x="411" 
d="M53 0l78 490h51l-74 -465h121q35 0 63.5 3t39.5 6l11 3l4 -5l-4 -32h-290zM125 -212l-8 12q7 6 16.5 17.5t26 48t16.5 72.5l-1 18l5 5q11 0 20.5 -1.5t13.5 -3.5l4 -2q1 -4 1 -14q0 -40 -23.5 -78t-47.5 -56z" />
    <glyph glyph-name="Ldot.smcp" horiz-adv-x="411" 
d="M53 0l78 490h51l-74 -465h121q35 0 63.5 3t39.5 6l11 3l4 -5l-4 -32h-290zM283 243q0 15 10.5 25.5t24.5 10.5q26 0 26 -27q0 -15 -10 -25.5t-25 -10.5q-26 0 -26 27z" />
    <glyph glyph-name="Lslash.smcp" horiz-adv-x="415" 
d="M28 191l-8 19l77 39l39 241h52l-34 -213l78 40l8 -19l-90 -46l-36 -227h120q36 0 64.5 3t39.5 6l11 3l3 -5l-4 -32h-290l35 224z" />
    <glyph glyph-name="M.smcp" horiz-adv-x="654" 
d="M514 0l11 437l-2 2l-214 -425h-36l-7 10l-87 413l-3 -3l-118 -434h-29l101 369q8 32 14 61t8 42l2 12l6 6h61l88 -414l210 414h61l-13 -490h-53z" />
    <glyph glyph-name="N.smcp" horiz-adv-x="549" 
d="M53 0l47 294q9 56 14 103.5t6 66.5v20l6 6h19l274 -404l65 404h29l-78 -490h-16l-275 402l-63 -402h-28z" />
    <glyph glyph-name="Nacute.smcp" horiz-adv-x="549" 
d="M53 0l47 294q9 56 14 103.5t6 66.5v20l6 6h19l274 -404l65 404h29l-78 -490h-16l-275 402l-63 -402h-28zM294 551l-4 6l105 137q14 0 24.5 -2t14.5 -4l4 -2l-1 -6l-123 -129h-20z" />
    <glyph glyph-name="Ncaron.smcp" horiz-adv-x="549" 
d="M53 0l47 294q9 56 14 103.5t6 66.5v20l6 6h19l274 -404l65 404h29l-78 -490h-16l-275 402l-63 -402h-28zM456 691l4 -6l-129 -137h-17l-86 137l7 6h22l72 -101l104 101h23z" />
    <glyph glyph-name="Ncommaaccent.smcp" horiz-adv-x="549" 
d="M53 0l47 294q9 56 14 103.5t6 66.5v20l6 6h19l274 -404l65 404h29l-78 -490h-16l-275 402l-63 -402h-28zM185 -212l-8 12q7 6 16.5 17.5t26 48t16.5 72.5l-1 18l5 5q11 0 20.5 -1.5t13.5 -3.5l4 -2q1 -4 1 -14q0 -40 -23.5 -78t-47.5 -56z" />
    <glyph glyph-name="Ntilde.smcp" horiz-adv-x="549" 
d="M53 0l47 294q9 56 14 103.5t6 66.5v20l6 6h19l274 -404l65 404h29l-78 -490h-16l-275 402l-63 -402h-28zM299 633q22 0 42.5 -18t38.5 -18t35.5 9.5t26.5 19.5l8 10l10 -13q-4 -7 -11 -17t-30.5 -27t-48.5 -17q-23 0 -43 18t-38 18t-35.5 -10t-25.5 -20l-9 -9l-10 14
q4 7 11 17t30.5 26.5t48.5 16.5z" />
    <glyph glyph-name="Eng.smcp" horiz-adv-x="549" 
d="M53 0l47 294q9 58 14 105.5t6 66.5v18l6 6h19l273 -404l66 404h29l-81 -517q-25 -153 -158 -153q-35 0 -62 10.5t-36 21.5l-10 10q3 14 10.5 26.5t13.5 17.5l6 6h6l2.5 -7.5t7.5 -16.5t14 -21t22.5 -16.5t32.5 -7.5q84 0 107 129l8 53l-252 378l-63 -403h-28z" />
    <glyph glyph-name="O.smcp" horiz-adv-x="580" 
d="M61 206q0 123 79.5 206t195.5 83q93 0 147 -57t54 -154q0 -123 -79.5 -206t-196.5 -83q-94 0 -147 57t-53 154zM117 202q0 -87 38.5 -135.5t109.5 -48.5q90 0 153 78.5t63 192.5q0 87 -39 135t-109 48q-91 0 -153.5 -78t-62.5 -192z" />
    <glyph glyph-name="Oacute.smcp" horiz-adv-x="581" 
d="M61 206q0 123 79.5 206t195.5 83q93 0 147 -57t54 -154q0 -123 -79.5 -206t-196.5 -83q-94 0 -147 57t-53 154zM117 202q0 -87 38.5 -135.5t109.5 -48.5q90 0 153 78.5t63 192.5q0 87 -39 135t-109 48q-91 0 -153.5 -78t-62.5 -192zM311 542l-5 6l105 137q14 0 24.5 -2
t14.5 -4l4 -2l-1 -5l-122 -130h-20z" />
    <glyph glyph-name="Obreve.smcp" horiz-adv-x="581" 
d="M61 206q0 123 79.5 206t195.5 83q93 0 147 -57t54 -154q0 -123 -79.5 -206t-196.5 -83q-94 0 -147 57t-53 154zM117 202q0 -87 38.5 -135.5t109.5 -48.5q90 0 153 78.5t63 192.5q0 87 -39 135t-109 48q-91 0 -153.5 -78t-62.5 -192zM238 636l15 13q3 -6 9.5 -16t31 -26
t55.5 -16q30 0 58.5 14.5t42.5 28.5l13 15l11 -13q-2 -3 -5.5 -8.5t-16 -19.5t-26.5 -24.5t-36.5 -19t-46.5 -8.5t-43.5 8t-30.5 20t-18.5 24t-10.5 20z" />
    <glyph glyph-name="Ocircumflex.smcp" horiz-adv-x="581" 
d="M61 206q0 123 79.5 206t195.5 83q93 0 147 -57t54 -154q0 -123 -79.5 -206t-196.5 -83q-94 0 -147 57t-53 154zM117 202q0 -87 38.5 -135.5t109.5 -48.5q90 0 153 78.5t63 192.5q0 87 -39 135t-109 48q-91 0 -153.5 -78t-62.5 -192zM463 557l-7 -6h-23l-71 101l-104 -101
h-22l-5 6l129 137h17z" />
    <glyph glyph-name="Odieresis.smcp" horiz-adv-x="581" 
d="M61 206q0 123 79.5 206t195.5 83q93 0 147 -57t54 -154q0 -123 -79.5 -206t-196.5 -83q-94 0 -147 57t-53 154zM117 202q0 -87 38.5 -135.5t109.5 -48.5q90 0 153 78.5t63 192.5q0 87 -39 135t-109 48q-91 0 -153.5 -78t-62.5 -192zM225 589q0 16 10 26t25 10
q26 0 26 -27q0 -15 -9.5 -25.5t-24.5 -10.5q-27 0 -27 27zM415 589q0 15 10.5 25.5t24.5 10.5q26 0 26 -27q0 -15 -10 -25.5t-25 -10.5q-26 0 -26 27z" />
    <glyph glyph-name="Ograve.smcp" horiz-adv-x="581" 
d="M61 206q0 123 79.5 206t195.5 83q93 0 147 -57t54 -154q0 -123 -79.5 -206t-196.5 -83q-94 0 -147 57t-53 154zM117 202q0 -87 38.5 -135.5t109.5 -48.5q90 0 153 78.5t63 192.5q0 87 -39 135t-109 48q-91 0 -153.5 -78t-62.5 -192zM380 557l-6 -6h-21l-81 129l1 6
q15 8 46 8z" />
    <glyph glyph-name="Ohungarumlaut.smcp" horiz-adv-x="581" 
d="M61 206q0 123 79.5 206t195.5 83q93 0 147 -57t54 -154q0 -123 -79.5 -206t-196.5 -83q-94 0 -147 57t-53 154zM117 202q0 -87 38.5 -135.5t109.5 -48.5q90 0 153 78.5t63 192.5q0 87 -39 135t-109 48q-91 0 -153.5 -78t-62.5 -192zM240 551l-5 6l105 137q14 0 24.5 -2
t14.5 -4l4 -2l-1 -6l-122 -129h-20zM382 551l-5 6l110 137q13 0 23 -2t14 -4l3 -2v-6l-125 -129h-20z" />
    <glyph glyph-name="Omacron.smcp" horiz-adv-x="581" 
d="M61 206q0 123 79.5 206t195.5 83q93 0 147 -57t54 -154q0 -123 -79.5 -206t-196.5 -83q-94 0 -147 57t-53 154zM117 202q0 -87 38.5 -135.5t109.5 -48.5q90 0 153 78.5t63 192.5q0 87 -39 135t-109 48q-91 0 -153.5 -78t-62.5 -192zM244 580l5 31h208l-5 -31h-208z" />
    <glyph glyph-name="Oslash.smcp" horiz-adv-x="580" 
d="M126 -18h-30l37 52q-72 57 -72 172q0 123 79.5 206t195.5 83q63 0 108 -27l29 40h28l-37 -52q73 -56 73 -172q0 -123 -79.5 -206t-196.5 -83q-63 0 -107 26zM116 202q0 -88 40 -137l269 376q-37 31 -92 31q-91 0 -154 -78t-63 -192zM482 288q0 88 -40 137l-269 -377
q36 -30 92 -30q91 0 154 78t63 192z" />
    <glyph glyph-name="Oslashacute.smcp" horiz-adv-x="581" 
d="M126 -18h-30l37 52q-72 57 -72 172q0 123 79.5 206t195.5 83q63 0 108 -27l29 40h28l-37 -52q73 -56 73 -172q0 -123 -79.5 -206t-196.5 -83q-63 0 -107 26zM116 202q0 -88 40 -137l269 376q-37 31 -92 31q-91 0 -154 -78t-63 -192zM482 288q0 88 -40 137l-269 -377
q36 -30 92 -30q91 0 154 78t63 192zM304 551l-4 6l105 137q14 0 24.5 -2t14.5 -4l4 -2l-1 -6l-122 -129h-21z" />
    <glyph glyph-name="Otilde.smcp" horiz-adv-x="581" 
d="M61 206q0 123 79.5 206t195.5 83q93 0 147 -57t54 -154q0 -123 -79.5 -206t-196.5 -83q-94 0 -147 57t-53 154zM117 202q0 -87 38.5 -135.5t109.5 -48.5q90 0 153 78.5t63 192.5q0 87 -39 135t-109 48q-91 0 -153.5 -78t-62.5 -192zM315 633q23 0 43 -18t38 -18t35.5 9.5
t26.5 19.5l8 10l10 -13q-4 -7 -11 -17t-30.5 -27t-48.5 -17q-23 0 -43 18t-38 18t-35.5 -10t-25.5 -20l-9 -9l-10 14q4 7 11 17t30.5 26.5t48.5 16.5z" />
    <glyph glyph-name="OE.smcp" horiz-adv-x="742" 
d="M363 0l3 22q-48 -27 -108 -27q-90 0 -143.5 57.5t-53.5 154.5q0 122 80 205t194 83q57 0 101 -28l4 23h288l-6 -31l-6 -6q-30 12 -109 12h-119l-33 -202h194l4 -5l-3 -21h-199l-33 -212h125q36 0 64.5 3t38.5 6l11 3l4 -5l-4 -32h-294zM264 18q62 0 109 48l57 360
q-34 46 -96 46q-92 0 -154.5 -78t-62.5 -192q0 -87 39 -135.5t108 -48.5z" />
    <glyph glyph-name="P.smcp" horiz-adv-x="458" 
d="M53 0l78 490h156q71 0 110.5 -32t39.5 -91q0 -70 -54 -113t-141 -43h-105l-33 -211h-51zM275 464h-97l-37 -227h97q65 0 105 35.5t40 93.5q0 48 -28.5 73t-79.5 25z" />
    <glyph glyph-name="Q.smcp" horiz-adv-x="580" 
d="M258 -9q-93 1 -145.5 58.5t-52.5 154.5q0 123 80 207t196 84q94 0 147.5 -57t53.5 -156q0 -104 -58.5 -181.5t-149.5 -100.5q18 -6 45 -20.5t50 -23t48 -8.5q13 0 23.5 2.5t14.5 5.5l3 2l3 -5q-2 -12 -5 -22.5t-5 -15.5l-3 -5q-11 -7 -37 -7q-45 0 -106.5 44t-101.5 44z
M117 199q0 -88 38.5 -136.5t108.5 -48.5q91 0 154 79t63 194q0 88 -39 136.5t-109 48.5q-91 0 -153.5 -78.5t-62.5 -194.5z" />
    <glyph glyph-name="R.smcp" horiz-adv-x="469" 
d="M53 0l78 490h148q71 0 111 -31t40 -89q0 -56 -37.5 -94.5t-101.5 -50.5l46 -104q16 -35 31 -64.5t22 -40.5l8 -12l-4 -4h-58l-97 220h-100l-35 -220h-51zM267 464h-89l-35 -218h89q64 0 104 34.5t40 89.5q0 46 -28.5 70t-80.5 24z" />
    <glyph glyph-name="Racute.smcp" horiz-adv-x="469" 
d="M53 0l78 490h148q71 0 111 -31t40 -89q0 -56 -37.5 -94.5t-101.5 -50.5l46 -104q16 -35 31 -64.5t22 -40.5l8 -12l-4 -4h-58l-97 220h-100l-35 -220h-51zM267 464h-89l-35 -218h89q64 0 104 34.5t40 89.5q0 46 -28.5 70t-80.5 24zM247 551l-5 6l105 137q14 0 24.5 -2
t14.5 -4l4 -2l-1 -6l-122 -129h-20z" />
    <glyph glyph-name="Rcaron.smcp" horiz-adv-x="469" 
d="M53 0l78 490h148q71 0 111 -31t40 -89q0 -56 -37.5 -94.5t-101.5 -50.5l46 -104q16 -35 31 -64.5t22 -40.5l8 -12l-4 -4h-58l-97 220h-100l-35 -220h-51zM267 464h-89l-35 -218h89q64 0 104 34.5t40 89.5q0 46 -28.5 70t-80.5 24zM414 691l5 -6l-129 -137h-17l-86 137
l6 6h23l72 -101l103 101h23z" />
    <glyph glyph-name="Rcommaaccent.smcp" horiz-adv-x="469" 
d="M53 0l78 490h148q71 0 111 -31t40 -89q0 -56 -37.5 -94.5t-101.5 -50.5l46 -104q16 -35 31 -64.5t22 -40.5l8 -12l-4 -4h-58l-97 220h-100l-35 -220h-51zM267 464h-89l-35 -218h89q64 0 104 34.5t40 89.5q0 46 -28.5 70t-80.5 24zM146 -212l-9 12l6.5 6.5t14.5 18.5
t18 29t14.5 38t6.5 46l-1 18l4 5q12 0 21.5 -1.5t12.5 -3.5l4 -2q2 -4 2 -14q0 -40 -23.5 -78t-46.5 -56z" />
    <glyph glyph-name="S.smcp" horiz-adv-x="453" 
d="M262 472q-57 0 -86 -26t-29 -65q0 -31 21 -51t91 -63q75 -48 98 -71.5t23 -62.5q0 -61 -48 -99.5t-138 -38.5q-52 0 -90.5 13.5t-51.5 26.5l-12 13q2 13 9.5 25t14.5 17l7 5h7q1 -3 4 -8.5t14 -18.5t24 -23t35 -18.5t47 -8.5q56 0 92 26.5t36 69.5q0 33 -23.5 54.5
t-80.5 54.5q-6 3 -9 5q-69 39 -93.5 65t-24.5 69q0 61 45 97t128 36q45 0 79 -11t45 -22l12 -11q-1 -14 -8.5 -26t-14.5 -17l-7 -5h-7q-1 3 -3 7.5t-10.5 16.5t-19.5 21t-31.5 16.5t-44.5 7.5z" />
    <glyph glyph-name="Sacute.smcp" horiz-adv-x="453" 
d="M262 472q-57 0 -86 -26t-29 -65q0 -31 21 -51t91 -63q75 -48 98 -71.5t23 -62.5q0 -61 -48 -99.5t-138 -38.5q-52 0 -90.5 13.5t-51.5 26.5l-12 13q2 13 9.5 25t14.5 17l7 5h7q1 -3 4 -8.5t14 -18.5t24 -23t35 -18.5t47 -8.5q56 0 92 26.5t36 69.5q0 33 -23.5 54.5
t-80.5 54.5q-6 3 -9 5q-69 39 -93.5 65t-24.5 69q0 61 45 97t128 36q45 0 79 -11t45 -22l12 -11q-1 -14 -8.5 -26t-14.5 -17l-7 -5h-7q-1 3 -3 7.5t-10.5 16.5t-19.5 21t-31.5 16.5t-44.5 7.5zM240 551l-4 6l105 137q14 0 24.5 -2t14.5 -4l4 -2l-1 -6l-123 -129h-20z" />
    <glyph glyph-name="Scaron.smcp" horiz-adv-x="453" 
d="M262 472q-57 0 -86 -26t-29 -65q0 -31 21 -51t91 -63q75 -48 98 -71.5t23 -62.5q0 -61 -48 -99.5t-138 -38.5q-52 0 -90.5 13.5t-51.5 26.5l-12 13q2 13 9.5 25t14.5 17l7 5h7q1 -3 4 -8.5t14 -18.5t24 -23t35 -18.5t47 -8.5q56 0 92 26.5t36 69.5q0 33 -23.5 54.5
t-80.5 54.5q-6 3 -9 5q-69 39 -93.5 65t-24.5 69q0 61 45 97t128 36q45 0 79 -11t45 -22l12 -11q-1 -14 -8.5 -26t-14.5 -17l-7 -5h-7q-1 3 -3 7.5t-10.5 16.5t-19.5 21t-31.5 16.5t-44.5 7.5zM408 691l5 -6l-129 -137h-17l-86 137l6 6h23l72 -101l104 101h22z" />
    <glyph glyph-name="Scedilla.smcp" horiz-adv-x="453" 
d="M170 -68l20 63q-51 0 -88.5 13.5t-49.5 26.5l-12 13q2 13 9.5 25t14.5 17l7 5h7q1 -3 4 -8.5t14 -18.5t24 -23t35 -18.5t47 -8.5q56 0 92 26.5t36 69.5q0 33 -23.5 54.5t-80.5 54.5q-6 3 -9 5q-69 39 -93.5 65t-24.5 69q0 61 45 97t128 36q45 0 79 -11t45 -22l12 -11
q-1 -14 -8.5 -26t-14.5 -17l-7 -5h-7q-1 3 -3 7.5t-10.5 16.5t-19.5 21t-31.5 16.5t-44.5 7.5q-57 0 -86 -26t-29 -65q0 -31 21 -51t91 -63q75 -48 98 -71.5t23 -62.5q0 -58 -42.5 -95.5t-122.5 -41.5l-15 -48q23 0 36.5 -14t13.5 -38q0 -30 -21.5 -49t-53.5 -19
q-20 0 -34.5 8.5t-18.5 17.5l-5 8l13 13q14 -20 44 -20q20 0 32 10.5t12 28.5q0 32 -44 32z" />
    <glyph glyph-name="Scircumflex.smcp" horiz-adv-x="453" 
d="M262 472q-57 0 -86 -26t-29 -65q0 -31 21 -51t91 -63q75 -48 98 -71.5t23 -62.5q0 -61 -48 -99.5t-138 -38.5q-52 0 -90.5 13.5t-51.5 26.5l-12 13q2 13 9.5 25t14.5 17l7 5h7q1 -3 4 -8.5t14 -18.5t24 -23t35 -18.5t47 -8.5q56 0 92 26.5t36 69.5q0 33 -23.5 54.5
t-80.5 54.5q-6 3 -9 5q-69 39 -93.5 65t-24.5 69q0 61 45 97t128 36q45 0 79 -11t45 -22l12 -11q-1 -14 -8.5 -26t-14.5 -17l-7 -5h-7q-1 3 -3 7.5t-10.5 16.5t-19.5 21t-31.5 16.5t-44.5 7.5zM400 571l-7 -6h-23l-71 101l-103 -101h-23l-5 6l130 137h16z" />
    </font>
</defs>
</svg>
