<?xml version="1.0" standalone="no"?>
<!DOCTYPE svg PUBLIC "-//W3C//DTD SVG 1.1//EN" "http://www.w3.org/Graphics/SVG/1.1/DTD/svg11.dtd" >
<svg xmlns="http://www.w3.org/2000/svg" xmlns:xlink="http://www.w3.org/1999/xlink" version="1.1">
<metadata>
Created by FontForge 20170731 at Sun Dec 25 14:57:49 2016
 By Aleksey,,,
Copyright (c) 2017 by Andriy Konstantynov. All rights reserved.
</metadata>
<defs>
<font id="OrchideaPro-LightItalic" horiz-adv-x="597" >
  <font-face 
    font-family="Orchidea Pro Lt"
    font-weight="300"
    font-style="italic"
    font-stretch="normal"
    units-per-em="1000"
    panose-1="2 11 0 3 3 2 0 0 0 2"
    ascent="800"
    descent="-200"
    x-height="473"
    cap-height="700"
    bbox="-94 -258 1090 948"
    underline-thickness="50"
    underline-position="-250"
    slope="-9"
    unicode-range="U+0020-FB04"
  />
<missing-glyph horiz-adv-x="218" 
 />
    <glyph glyph-name="ff" unicode="ff" horiz-adv-x="585" 
d="M325 -15l72 454h-196l-72 -455q-8 -48 -29.5 -90.5t-47.5 -69t-51 -46t-41 -28.5l-17 -8l-12 15q4 3 11.5 8.5t26.5 25.5t35 42t32 58t22 74l74 475h-82l3 21l85 13l24 151q21 133 128 133q31 0 55 -11.5t32 -22.5l8 -12l-16 -15q-19 25 -59 25q-65 0 -79 -92l-25 -157
h196l24 150q10 67 44 101t87 34q31 0 55 -11.5t32 -22.5l9 -12l-17 -15q-20 25 -59 25q-67 0 -82 -95l-25 -154h138l-5 -34h-138l-68 -435q-8 -48 -30 -90.5t-48 -69t-51 -46t-42 -28.5l-16 -8l-11 15q4 3 11.5 8.5t26.5 25.5t35 42t31.5 58t21.5 74z" />
    <glyph glyph-name="fi" unicode="fi" horiz-adv-x="515" 
d="M318 0l48 300q12 76 19 139h-184l-72 -455q-8 -48 -29.5 -90.5t-47.5 -69t-51 -46t-41 -28.5l-17 -8l-12 15q4 3 11.5 8.5t26.5 25.5t35 42t32 58t22 74l74 475h-82l3 21l84 13l17 107q12 80 66.5 128t138.5 48q61 0 95 -29.5t34 -79.5q0 -17 -4 -33t-8 -23l-4 -8
q-21 -7 -57 -7l-6 7q14 29 14 63q0 79 -74 79q-50 0 -83 -37.5t-42 -100.5l-19 -115h252q-6 -73 -22 -173l-48 -300h-69z" />
    <glyph glyph-name="fl" unicode="fl" horiz-adv-x="522" 
d="M327 0l75 473q19 123 28 228q-27 21 -77 21q-107 0 -128 -124l-20 -125h109l-5 -34h-108l-72 -455q-8 -48 -29.5 -90t-47.5 -69t-51 -46.5t-41 -28.5l-17 -8l-12 15q4 3 11.5 8.5t26.5 25.5t35 42.5t32 58t22 73.5l74 475h-82l3 21l84 13l19 120q26 164 183 164
q31 0 56 -6.5t35 -13.5l10 -6h61q-4 -94 -30 -259l-76 -473h-68z" />
    <glyph glyph-name="ffi" unicode="ffi" horiz-adv-x="780" 
d="M325 -15l72 454h-196l-72 -455q-8 -48 -29.5 -90.5t-47.5 -69t-51 -46t-41 -28.5l-17 -8l-12 15q4 3 11.5 8.5t26.5 25.5t35 42t32 58t22 74l74 475h-82l3 21l85 13l24 151q21 133 128 133q31 0 55 -11.5t32 -22.5l8 -12l-16 -15q-19 25 -59 25q-65 0 -79 -92l-25 -157
h195l17 108q13 80 67.5 128t138.5 48q61 0 94.5 -29.5t33.5 -79.5q0 -17 -4 -33t-8 -23l-4 -8q-20 -7 -57 -7l-6 7q15 29 15 63q0 38 -19.5 58.5t-54.5 20.5q-50 0 -83 -37.5t-43 -100.5l-19 -115h253q-6 -73 -22 -173l-48 -300h-68l48 300q12 76 19 139h-186l-68 -435
q-8 -48 -30 -90.5t-48 -69t-51 -46t-42 -28.5l-16 -8l-11 15q4 3 11.5 8.5t26.5 25.5t35 42t31.5 58t21.5 74z" />
    <glyph glyph-name="ffl" unicode="ffl" horiz-adv-x="788" 
d="M325 -15l72 454h-196l-72 -455q-8 -48 -29.5 -90t-47.5 -69t-51 -46.5t-41 -28.5l-17 -8l-12 15q4 3 11.5 8.5t26.5 25.5t35 42.5t32 58t22 73.5l74 475h-82l3 21l85 13l24 151q21 133 128 133q31 0 55 -11.5t32 -22.5l8 -12l-16 -15q-19 25 -59 25q-65 0 -79 -92
l-25 -157h196l19 121q27 164 183 164q31 0 56 -6.5t35 -13.5l10 -6h61q-4 -94 -30 -259l-76 -473h-68l75 473q19 123 28 228q-28 21 -77 21q-108 0 -127 -124l-21 -125h109l-5 -34h-109l-68 -435q-8 -48 -30 -90t-48 -69t-51 -46.5t-42 -28.5l-16 -8l-11 15q4 3 11.5 8.5
t26.5 25.5t35 42t31.5 58t21.5 74z" />
    <glyph glyph-name="f_f_j" unicode="ffj" horiz-adv-x="780" 
d="M325 -15l72 454h-196l-72 -455q-8 -48 -29.5 -90.5t-47.5 -69t-51 -46t-41 -28.5l-17 -8l-12 15q4 3 11.5 8.5t26.5 25.5t35 42t32 58t22 74l74 475h-82l3 21l85 13l24 151q21 133 128 133q31 0 55 -11.5t32 -22.5l8 -12l-16 -15q-19 25 -59 25q-65 0 -79 -92l-25 -157
h195l17 108q13 80 67.5 128t138.5 48q61 0 94.5 -29.5t33.5 -79.5q0 -17 -4 -33t-8 -23l-4 -8q-20 -7 -57 -7l-6 7q15 29 15 63q0 38 -19.5 58.5t-54.5 20.5q-50 0 -83 -37.5t-43 -100.5l-19 -115h253q-6 -73 -22 -173l-43 -271q-8 -48 -30 -90.5t-48 -69t-51 -46t-42 -27.5
l-16 -9l-11 15q4 3 11.5 8.5t26.5 25.5t35 42t31.5 58t21.5 74l47 290q12 76 19 139h-186l-68 -435q-8 -48 -30 -90.5t-48 -69t-51 -46t-42 -28.5l-16 -8l-11 15q4 3 11.5 8.5t26.5 25.5t35 42t31.5 58t21.5 74z" />
    <glyph glyph-name="f_j" unicode="fj" horiz-adv-x="515" 
d="M317 -15l50 315q12 76 19 139h-185l-72 -455q-8 -48 -29.5 -90.5t-47.5 -69t-51 -46t-41 -28.5l-17 -8l-12 15q4 3 11.5 8.5t26.5 25.5t35 42t32 58t22 74l74 475h-82l3 21l84 13l17 107q12 80 66.5 128t138.5 48q61 0 95 -29.5t34 -79.5q0 -17 -4 -33t-8 -23l-4 -8
q-21 -7 -57 -7l-6 7q14 29 14 63q0 79 -74 79q-50 0 -83 -37.5t-42 -100.5l-19 -115h253q-6 -73 -22 -173l-48 -296q-8 -48 -29.5 -90.5t-47.5 -69t-51 -46t-42 -28.5l-16 -8l-12 15q4 3 11.5 8.5t26.5 25.5t35 42t32 58t22 74z" />
    <glyph glyph-name="afii10104_afii10104" unicode="&#x457;&#x457;" horiz-adv-x="493" 
d="M65 602q0 18 12 30t30 12q30 0 30 -31q0 -18 -12 -30t-30 -12q-30 0 -30 31zM267 602q0 18 12 30t30 12q30 0 30 -31q0 -18 -12 -30t-30 -12q-30 0 -30 31zM49 0l48 300l22 165l7 8h61q-6 -73 -22 -173l-48 -300h-68zM468 602q0 18 12.5 30t30.5 12q30 0 30 -31
q0 -18 -12 -30t-30 -12q-31 0 -31 31zM297 0l48 300l22 165l7 8h61q-6 -73 -22 -173l-48 -300h-68z" />
    <glyph glyph-name=".notdef" horiz-adv-x="218" 
 />
    <glyph glyph-name=".null" horiz-adv-x="0" 
 />
    <glyph glyph-name="nonmarkingreturn" horiz-adv-x="333" 
 />
    <glyph glyph-name="space" unicode=" " horiz-adv-x="218" 
 />
    <glyph glyph-name="exclam" unicode="!" horiz-adv-x="237" 
d="M43 28q0 21 13.5 35t34.5 14q17 0 26.5 -9.5t9.5 -26.5q0 -21 -14 -35t-35 -14q-35 0 -35 36zM83 196l71 504h72l-89 -504h-54z" />
    <glyph glyph-name="quotedbl" unicode="&#x22;" horiz-adv-x="301" 
d="M121 519l21 181h48l-37 -187h-27zM231 519l21 181h50l-38 -187h-28z" />
    <glyph glyph-name="numbersign" unicode="#" horiz-adv-x="560" 
d="M92 469l6 36h108l50 195h35l-50 -195h185l50 195h35l-50 -195h107l-6 -36h-110l-60 -238h106l-5 -36h-110l-49 -195h-35l49 195h-185l-49 -195h-36l49 195h-104l5 36h108l61 238h-105zM232 469l-60 -238h185l60 238h-185z" />
    <glyph glyph-name="dollar" unicode="$" horiz-adv-x="579" 
d="M341 675q-74 0 -113 -38t-39 -95q0 -42 28 -71t120 -90q98 -66 129 -100t31 -90q0 -85 -59.5 -139t-172.5 -58l-14 -94h-35l14 93q-41 1 -75.5 9.5t-54.5 19t-34.5 22t-20 18.5t-5.5 9q3 18 14.5 35.5t21.5 25.5l10 9h10q2 -5 5.5 -12.5t17 -27.5t30.5 -35.5t46 -28
t63 -12.5q73 0 121.5 39t48.5 100q0 26 -9 47t-33 42t-44 34t-64 40q-62 39 -89.5 59.5t-47 53.5t-19.5 77q0 85 57.5 135.5t163.5 54.5l15 93h36l-15 -94q54 -3 93.5 -18.5t53.5 -29t13 -16.5q-3 -19 -14 -36.5t-21 -25.5l-10 -9h-9q-1 4 -3.5 11t-13.5 25t-25.5 32
t-41.5 25t-60 11z" />
    <glyph glyph-name="percent" unicode="%" horiz-adv-x="783" 
d="M176 0h-40l502 700h40zM75 480q0 95 54 161t131 66q60 0 94 -42.5t34 -115.5q0 -95 -54 -160.5t-132 -65.5q-60 0 -93.5 42.5t-33.5 114.5zM128 475q0 -56 20.5 -88t58.5 -32q52 0 89.5 59t37.5 141q0 57 -20.5 88t-58.5 31q-52 0 -89.5 -59t-37.5 -140zM426 150
q0 96 54 161.5t131 65.5q60 0 94 -42.5t34 -115.5q0 -95 -54.5 -160.5t-131.5 -65.5q-61 0 -94 42.5t-33 114.5zM479 145q0 -57 20.5 -88.5t58.5 -31.5q52 0 89.5 59t37.5 141q0 57 -21 88t-59 31q-52 0 -89 -59t-37 -140z" />
    <glyph glyph-name="ampersand" unicode="&#x26;" horiz-adv-x="760" 
d="M432 296l4 21l134 26l29 7l7 -21h140l-5 -33h-128q4 -26 4 -43q0 -109 -74.5 -184.5t-199.5 -75.5q-127 0 -196.5 82.5t-69.5 222.5q0 94 31.5 173t83 129.5t114.5 78.5t128 28q60 0 91 -24t31 -67q0 -62 -63.5 -108t-149 -66.5t-175.5 -22.5q-14 -54 -14 -114
q0 -125 58.5 -194.5t155.5 -69.5q95 0 155 62t60 156q0 21 -3 37h-148zM422 676q-69 0 -140.5 -62t-105.5 -164q128 3 223.5 49.5t95.5 117.5q0 59 -73 59z" />
    <glyph glyph-name="quotesingle" unicode="'" horiz-adv-x="190" 
d="M121 519l21 181h48l-37 -187h-27z" />
    <glyph glyph-name="parenleft" unicode="(" horiz-adv-x="286" 
d="M191 -135l-25 -21q-4 4 -11.5 12t-26.5 38t-33.5 66.5t-26.5 98.5t-12 132q0 81 14 155.5t36.5 130t49.5 103t54.5 79t50 54.5t36.5 33l14 10l18 -21q-8 -7 -22 -21.5t-49.5 -66.5t-62.5 -111t-49.5 -155.5t-22.5 -201.5q0 -60 7 -114.5t17 -89.5t20 -61t17 -38z" />
    <glyph glyph-name="parenright" unicode=")" horiz-adv-x="286" 
d="M-10 -156l-17 21q8 7 22 21.5t49 66.5t62 111t49 156t22 202q0 95 -16.5 173.5t-32.5 108.5l-17 31l24 21q5 -4 12 -12t26.5 -38t34 -66t26.5 -98t12 -132q0 -81 -14 -156t-36.5 -130t-50 -103t-55 -79.5t-50 -54.5t-36.5 -33z" />
    <glyph glyph-name="asterisk" unicode="*" horiz-adv-x="381" 
d="M223 550l16 150h46l-31 -150l135 54l6 -45l-136 -39l66 -117l-41 -28l-54 126l-93 -126l-32 28l103 117l-124 39l21 45z" />
    <glyph glyph-name="plus" unicode="+" 
d="M106 307v36h175v175h36v-175h174v-36h-174v-175h-36v175h-175z" />
    <glyph glyph-name="comma" unicode="," horiz-adv-x="183" 
d="M-31 -157l-11 15q8 10 20.5 26.5t33.5 64t21 90.5l-3 29l7 5q18 0 33 -2.5t20 -4.5l6 -3q1 -6 1 -16q0 -32 -13 -65t-32 -57t-38 -43t-32 -29z" />
    <glyph glyph-name="hyphen" unicode="-" horiz-adv-x="356" 
d="M71 258v36h215v-36h-215z" />
    <glyph glyph-name="period" unicode="." horiz-adv-x="184" 
d="M16 28q0 21 13.5 35t34.5 14q35 0 35 -36q0 -21 -14 -35t-34 -14q-35 0 -35 36z" />
    <glyph glyph-name="slash" unicode="/" horiz-adv-x="372" 
d="M-7 -150h-37l438 900h37z" />
    <glyph glyph-name="zero" unicode="0" horiz-adv-x="606" 
d="M69 274q0 180 89 306.5t213 126.5q93 0 145 -75.5t52 -205.5q0 -180 -89.5 -306.5t-213.5 -126.5q-93 0 -144.5 76t-51.5 205zM140 255q0 -108 34 -169t96 -61q90 0 158 127t68 293q0 108 -33.5 169t-95.5 61q-60 0 -112.5 -58.5t-83.5 -155.5t-31 -206z" />
    <glyph glyph-name="one" unicode="1" horiz-adv-x="404" 
d="M182 0l100 633q-11 -8 -29 -20t-65.5 -31.5t-84.5 -19.5q-3 10 1 32l6 6q44 0 99 25t89 50l33 25h30l-110 -700h-69z" />
    <glyph glyph-name="two" unicode="2" horiz-adv-x="545" 
d="M535 549q0 -69 -44.5 -144.5t-107.5 -135t-126 -109t-107 -76.5l-45 -27h205q47 0 84.5 4t51.5 8l15 4l7 -8l-10 -65h-443l5 37q9 6 25 16.5t62 44.5t87.5 68.5t92.5 84.5t88 97t62 102t25 103q0 56 -31.5 89t-93.5 33q-73 0 -120.5 -47.5t-47.5 -129.5l3 -28l-9 -8
q-17 0 -32 2t-21 4l-7 2q-3 9 -3 30q0 91 66 149t178 58q93 0 142 -43t49 -115z" />
    <glyph glyph-name="three" unicode="3" horiz-adv-x="582" 
d="M250 25q86 0 136.5 53t50.5 136q0 127 -120 127h-59l-5 6l5 32h46q76 0 118 47t42 128q0 121 -118 121q-74 0 -120.5 -42.5t-46.5 -117.5l2 -28l-8 -7q-17 0 -32 2t-21 4l-7 1q-3 10 -3 29q0 84 65.5 137.5t177.5 53.5q183 0 183 -153q0 -71 -37 -122t-105 -70
q117 -23 117 -149q0 -100 -72 -160t-193 -60q-100 0 -150.5 41.5t-50.5 112.5q0 23 4.5 41.5t9.5 25.5l5 8q24 8 63 8l6 -8q-20 -28 -20 -78q0 -57 35.5 -88t101.5 -31z" />
    <glyph glyph-name="four" unicode="4" horiz-adv-x="558" 
d="M17 156l3 18l439 526h34l-81 -508h94l-6 -36h-94l-24 -156h-68l24 156h-321zM78 192h266l63 395z" />
    <glyph glyph-name="five" unicode="5" horiz-adv-x="560" 
d="M236 25q86 0 136 61.5t50 158.5q0 77 -34.5 110.5t-110.5 33.5q-43 0 -84 -9.5t-61 -18.5l-19 -9l-8 11l89 332h171q47 0 85 4t52 8l15 4l6 -7l-10 -66h-296l-66 -246q72 37 157 37q189 0 189 -182q0 -115 -70.5 -184.5t-193.5 -69.5q-95 0 -143.5 41t-48.5 111
q0 22 5 40.5t10 26.5l5 7q23 8 63 8l5 -8q-20 -27 -20 -77q0 -56 33 -86.5t94 -30.5z" />
    <glyph glyph-name="six" unicode="6" horiz-adv-x="589" 
d="M370 675q-55 0 -98 -31.5t-68.5 -85t-40.5 -111t-21 -122.5q73 90 196 90q86 0 135.5 -47t49.5 -132q0 -105 -73.5 -174t-179.5 -69q-203 0 -203 275q0 80 17.5 155t52.5 140t97 104.5t143 39.5q79 0 129 -36t50 -99q0 -19 -4.5 -36t-9.5 -24l-4 -7q-24 -8 -62 -8l-7 8
q19 25 19 68q0 50 -33 76t-85 26zM317 382q-102 0 -178 -107v-30q0 -220 133 -220q75 0 126 59.5t51 150.5q0 72 -35 109.5t-97 37.5z" />
    <glyph glyph-name="seven" unicode="7" horiz-adv-x="518" 
d="M206 0h-68q15 99 56.5 201.5t89.5 178t93.5 137.5t76.5 94l30 32h-221q-47 0 -85 -4t-52 -8l-15 -4l-6 8l10 65h429l-5 -34q-11 -13 -30 -36t-70 -96.5t-92.5 -148t-83 -181t-57.5 -204.5z" />
    <glyph glyph-name="eight" unicode="8" horiz-adv-x="575" 
d="M538 559q0 -39 -16 -74t-43 -60t-50.5 -41t-49.5 -29q59 -33 91.5 -69.5t32.5 -92.5q0 -82 -68.5 -141t-187.5 -59q-100 0 -151 43t-51 117q0 141 177 210q-99 59 -99 151q0 83 64 138t168 55q87 0 135 -40t48 -108zM434 177q0 18 -4.5 34t-16.5 30t-21.5 24t-30 22.5
t-31.5 18.5t-36.5 19t-35.5 18q-24 -10 -46 -24t-46.5 -36t-39.5 -54.5t-15 -70.5q0 -60 38 -96.5t105 -36.5q76 0 128 45.5t52 106.5zM347 675q-68 0 -111.5 -40t-43.5 -98q0 -30 11.5 -54.5t38 -45.5t45.5 -32.5t58 -31.5q48 28 89 74.5t41 110.5q0 53 -34.5 85t-93.5 32z
" />
    <glyph glyph-name="nine" unicode="9" horiz-adv-x="578" 
d="M234 25q47 0 85.5 22t63 55.5t42.5 80t26.5 90t13.5 91.5q-69 -72 -183 -72q-86 0 -135.5 44t-49.5 130q0 105 71.5 173t179.5 68q100 0 147 -65.5t47 -198.5q0 -61 -9 -120.5t-32 -120t-57.5 -106t-90 -74.5t-125.5 -29q-82 0 -133 35.5t-51 98.5q0 18 4 34.5t8 23.5
l5 7q24 7 62 7l7 -7q-17 -26 -17 -66q0 -48 33 -74.5t88 -26.5zM302 325q93 0 166 81q2 40 2 55q0 110 -29.5 162t-96.5 52q-75 0 -124 -58.5t-49 -148.5q0 -72 34.5 -107.5t96.5 -35.5z" />
    <glyph glyph-name="colon" unicode=":" horiz-adv-x="184" 
d="M16 28q0 21 13.5 35t34.5 14q35 0 35 -36q0 -21 -14 -35t-34 -14q-35 0 -35 36zM79 431q0 21 14 35t34 14q36 0 36 -36q0 -21 -14 -35t-35 -14q-35 0 -35 36z" />
    <glyph glyph-name="semicolon" unicode=";" horiz-adv-x="183" 
d="M79 428q0 21 13.5 35t34.5 14q35 0 35 -36q0 -21 -13.5 -35t-34.5 -14q-35 0 -35 36zM-31 -157l-11 15q8 10 20.5 26.5t33.5 64t21 90.5l-3 29l7 5q18 0 33 -2.5t20 -4.5l6 -3q1 -6 1 -16q0 -32 -13 -65t-32 -57t-38 -43t-32 -29z" />
    <glyph glyph-name="less" unicode="&#x3c;" 
d="M491 511v-40l-354 -146l354 -146v-40l-405 166v40z" />
    <glyph glyph-name="equal" unicode="=" 
d="M106 404v36h385v-36h-385zM106 210v36h385v-36h-385z" />
    <glyph glyph-name="greater" unicode="&#x3e;" 
d="M106 471v40l405 -166v-40l-405 -166v40l355 146z" />
    <glyph glyph-name="question" unicode="?" horiz-adv-x="510" 
d="M175 29q0 20 14 34t34 14q36 0 36 -36q0 -21 -13.5 -35t-34.5 -14q-17 0 -26.5 10t-9.5 27zM507 550q0 -50 -22.5 -94t-54.5 -71.5t-64.5 -47.5t-55.5 -29l-22 -8l-18 -104h-53l18 138q8 2 21.5 6.5t48 22t61 40t48 63t21.5 87.5q0 56 -29.5 89t-88.5 33
q-67 0 -111.5 -44.5t-44.5 -120.5l2 -29l-8 -7q-17 0 -32.5 2t-22.5 4l-6 1q-3 8 -3 28q0 87 63 142.5t169 55.5q90 0 137 -42.5t47 -114.5z" />
    <glyph glyph-name="at" unicode="@" horiz-adv-x="1133" 
d="M1062 326q0 -139 -71 -236t-195 -97q-70 0 -98 37t-14 119l10 64l-2 4q-4 -9 -12 -24t-34 -54t-52.5 -68.5t-65.5 -53.5t-76 -24q-54 0 -82 44.5t-28 119.5q0 140 87.5 231.5t222.5 91.5q50 0 84 -13.5t44 -26.5l9 -14l-42 -261q-12 -72 7 -104t66 -32q62 0 105 47
t61 111.5t18 136.5q0 162 -96 254.5t-260 92.5q-148 0 -268.5 -75t-186 -197.5t-65.5 -264.5q0 -169 97 -260t274 -91q60 0 119 10.5t100 26t74 31t49 25.5l16 11l14 -17q-6 -5 -17 -13.5t-49 -30.5t-80 -39t-107 -30.5t-132 -13.5q-195 0 -305.5 105.5t-110.5 285.5
q0 112 44 216.5t120 183t186 126t234 47.5q190 0 299 -105t109 -276zM415 156q0 -118 66 -118q34 0 71 32t70 85t47.5 79.5t28.5 57.5q2 3 2 4l-8 -79l8 78v2l18 114q-2 4 -6.5 10t-25.5 16.5t-50 10.5q-89 0 -155 -85.5t-66 -206.5z" />
    <glyph glyph-name="A" unicode="A" horiz-adv-x="658" 
d="M143 210l-114 -210h-41l367 674l-6 18l1 8h79l162 -700h-74l-48 210h-326zM396 527q-13 54 -26 101l-208 -382h298z" />
    <glyph glyph-name="B" unicode="B" horiz-adv-x="624" 
d="M57 0l111 700h225q184 0 184 -150q0 -68 -38.5 -117.5t-110.5 -68.5q129 -26 129 -155q0 -95 -67.5 -152t-186.5 -57h-246zM483 212q0 131 -137 131h-164l-49 -307h164q86 0 136 48.5t50 127.5zM503 543q0 121 -127 121h-143l-45 -285h143q81 0 126.5 45.5t45.5 118.5z
" />
    <glyph glyph-name="C" unicode="C" horiz-adv-x="679" 
d="M445 675q-128 0 -211.5 -109.5t-83.5 -270.5q0 -123 54.5 -189t157.5 -66q57 0 111.5 19.5t80.5 38.5l27 20l12 -16q-4 -4 -11 -11.5t-31.5 -26.5t-52 -33t-71 -26t-89.5 -12q-125 0 -196 80t-71 219q0 175 107.5 295t272.5 120q101 0 155.5 -46.5t54.5 -124.5
q0 -24 -5.5 -44t-10.5 -28l-5 -7q-24 -7 -63 -7l-6 7q20 30 20 84q0 63 -38 98.5t-108 35.5z" />
    <glyph glyph-name="D" unicode="D" horiz-adv-x="711" 
d="M57 0l111 700h239q123 0 193.5 -79.5t70.5 -214.5q0 -172 -108 -289t-267 -117h-239zM399 664h-166l-100 -628h166q125 0 209.5 107t84.5 267q0 119 -51.5 186.5t-142.5 67.5z" />
    <glyph glyph-name="E" unicode="E" horiz-adv-x="565" 
d="M57 0l111 700h399l-7 -44l-8 -7q-42 16 -147 16h-172l-46 -291h272l5 -6l-4 -30h-279l-47 -303h180q47 0 85 4t53 8l14 4l6 -7l-7 -44h-408z" />
    <glyph glyph-name="F" unicode="F" horiz-adv-x="539" 
d="M57 0l111 700h398l-7 -44l-8 -7q-42 16 -148 16h-170l-46 -291h264l6 -6l-5 -30h-271l-53 -338h-71z" />
    <glyph glyph-name="G" unicode="G" horiz-adv-x="693" 
d="M456 300l5 30h96q18 0 34.5 2t24.5 4l7 2l7 -8l-38 -239q-4 -4 -11 -10.5t-31.5 -23.5t-51.5 -30t-69.5 -23.5t-87.5 -10.5q-128 0 -199 80t-71 219q0 176 107 295.5t276 119.5q99 0 153 -43.5t54 -121.5q0 -24 -5.5 -43.5t-10.5 -26.5l-5 -7q-24 -8 -62 -8l-7 8
q20 29 20 82q0 62 -37 95t-106 33q-130 0 -214.5 -110t-84.5 -271q0 -123 54 -191.5t155 -68.5q86 0 166 46l13 81q13 79 13 133h-89z" />
    <glyph glyph-name="H" unicode="H" horiz-adv-x="722" 
d="M514 0l53 338h-386l-53 -338h-71l111 700h71l-52 -326h386l52 326h71l-111 -700h-71z" />
    <glyph glyph-name="I" unicode="I" horiz-adv-x="265" 
d="M57 0l111 700h71l-111 -700h-71z" />
    <glyph glyph-name="J" unicode="J" horiz-adv-x="478" 
d="M303 211l78 489h71l-77 -488q-35 -219 -222 -219q-48 0 -84.5 15t-48.5 30l-13 15q3 19 13.5 36.5t19.5 25.5l9 8h8q1 -4 2.5 -10.5t9.5 -23.5t18.5 -30t29.5 -23.5t43 -10.5q115 0 143 186z" />
    <glyph glyph-name="K" unicode="K" horiz-adv-x="606" 
d="M57 0l111 700h71l-51 -316h52l312 316h51l-309 -311l109 -190q32 -53 64 -100.5t49 -68.5l16 -22l-1 -8h-87l-211 348h-50l-55 -348h-71z" />
    <glyph glyph-name="L" unicode="L" horiz-adv-x="522" 
d="M57 0l111 700h71l-105 -665h160q47 0 85 4t52 8l14 4l7 -7l-7 -44h-388z" />
    <glyph glyph-name="M" unicode="M" horiz-adv-x="848" 
d="M671 0l23 625l-3 3l-291 -608h-49l-10 14l-109 591l-4 -3l-163 -622h-40l140 527q12 46 20 87t10 60l2 18l10 8h85l110 -590l283 590h85l-25 -700h-74z" />
    <glyph glyph-name="N" unicode="N" horiz-adv-x="705" 
d="M57 0l67 420q13 80 20 148t8 96v28l9 8h27l359 -578l92 578h40l-111 -700h-22l-361 577l-91 -577h-37z" />
    <glyph glyph-name="O" unicode="O" horiz-adv-x="748" 
d="M71 290q0 177 108 297t264 120q124 0 195 -80t71 -218q0 -176 -108.5 -296t-265.5 -120q-124 0 -194 80t-70 217zM148 282q0 -121 50 -189t142 -68q122 0 206.5 113.5t84.5 279.5q0 122 -50.5 189.5t-142.5 67.5q-122 0 -206 -113.5t-84 -279.5z" />
    <glyph glyph-name="P" unicode="P" horiz-adv-x="585" 
d="M57 0l111 700h210q94 0 146.5 -44.5t52.5 -128.5q0 -101 -73 -163t-190 -62h-138l-48 -302h-71zM361 664h-128l-52 -326h128q86 0 140 51.5t54 135.5q0 68 -37 103.5t-105 35.5z" />
    <glyph glyph-name="Q" unicode="Q" horiz-adv-x="748" 
d="M331 -12q-123 1 -192 81.5t-69 217.5q0 177 108 298.5t265 121.5q124 0 195 -80.5t71 -219.5q0 -150 -80.5 -262.5t-205.5 -144.5q12 -4 80.5 -39.5t112.5 -35.5q18 0 32 3.5t18 6.5l5 3l5 -6q-3 -16 -7.5 -31t-8.5 -22l-3 -7q-14 -10 -49 -10q-33 0 -63.5 13t-55 31.5
t-48 37t-52 31.5t-58.5 13zM147 278q0 -123 50.5 -190.5t142.5 -67.5q122 0 206.5 114.5t84.5 281.5q0 123 -50.5 191t-142.5 68q-122 0 -206.5 -115t-84.5 -282z" />
    <glyph glyph-name="R" unicode="R" horiz-adv-x="601" 
d="M57 0l111 700h199q95 0 147.5 -43.5t52.5 -124.5q0 -80 -50 -136t-136 -74l60 -149q20 -50 40 -92t30 -59l10 -16l-6 -6h-79l-127 315h-131l-50 -315h-71zM350 664h-117l-50 -313h117q86 0 139.5 49t53.5 130q0 65 -37.5 99.5t-105.5 34.5z" />
    <glyph glyph-name="S" unicode="S" horiz-adv-x="579" 
d="M342 675q-75 0 -113.5 -38t-38.5 -95q0 -43 28 -71.5t120 -89.5q97 -66 128 -100.5t31 -88.5q0 -89 -64.5 -144t-187.5 -55q-44 0 -81.5 7.5t-59 18.5t-37 22.5t-21.5 18.5l-6 8q3 20 14.5 38.5t21.5 26.5l10 8h10q2 -5 5.5 -12.5t17 -27.5t30.5 -35.5t46 -28t63 -12.5
q73 0 121.5 39t48.5 100q0 26 -9 47t-33.5 42.5t-43.5 34t-63 39.5q-92 56 -124 92.5t-32 95.5q0 88 61 140t174 52q38 0 71 -6.5t52.5 -15.5t33.5 -18t19 -15l6 -7q-3 -20 -14.5 -38.5t-21.5 -26.5l-10 -9h-9q-1 4 -3.5 11t-13 25t-25 32t-41.5 25t-60 11z" />
    <glyph glyph-name="T" unicode="T" horiz-adv-x="618" 
d="M409 665l-104 -665h-72l105 665h-83q-47 0 -85 -4t-52 -8l-14 -4l-7 7l7 44h551l-7 -44l-8 -7q-41 16 -147 16h-84z" />
    <glyph glyph-name="U" unicode="U" horiz-adv-x="681" 
d="M554 256l70 444h37l-70 -443q-18 -116 -98.5 -190t-194.5 -74t-170 74t-37 190l70 443h71l-71 -452q-15 -96 28.5 -157t129.5 -61q88 0 153.5 63t81.5 163z" />
    <glyph glyph-name="V" unicode="V" horiz-adv-x="649" 
d="M257 14l-114 513q-12 52 -23 93.5t-16 56.5l-6 15l1 8h81l140 -625l332 625h41l-372 -700h-52z" />
    <glyph glyph-name="W" unicode="W" horiz-adv-x="972" 
d="M615 14l-83 465l-229 -479h-52l-11 14l-101 513q-10 52 -20.5 93.5t-15.5 56.5l-5 15l1 8h81l122 -620l220 459q-8 48 -17 86.5t-13 52.5l-5 14l1 8h82l107 -616l298 616h42l-341 -700h-51z" />
    <glyph glyph-name="X" unicode="X" horiz-adv-x="623" 
d="M200 700l146 -297l245 297h49l-277 -331l83 -169q26 -52 51.5 -100t38.5 -70l12 -22l-1 -8h-85l-158 317l-264 -317h-46l293 352l-173 348h86z" />
    <glyph glyph-name="Y" unicode="Y" 
d="M638 700l-292 -379l-50 -321h-71l49 317l-78 170q-25 56 -50 107.5t-38 74.5l-12 23l1 8h88l151 -337l257 337h45z" />
    <glyph glyph-name="Z" unicode="Z" horiz-adv-x="629" 
d="M24 20l521 645h-257q-47 0 -85 -4t-53 -8l-14 -4l-5 7l6 44h507l-3 -20l-520 -645h263q47 0 85 4t53 8l14 4l6 -7l-7 -44h-514z" />
    <glyph glyph-name="bracketleft" unicode="[" horiz-adv-x="306" 
d="M30 -150l143 900h178l-6 -36h-110l-131 -828h110l-6 -36h-178z" />
    <glyph glyph-name="backslash" unicode="\" horiz-adv-x="372" 
d="M288 -150h-36l-153 900h37z" />
    <glyph glyph-name="bracketright" unicode="]" horiz-adv-x="306" 
d="M291 750l-142 -900h-179l6 36h110l131 828h-110l6 36h178z" />
    <glyph glyph-name="asciicircum" unicode="^" horiz-adv-x="406" 
d="M410 518l-7 -7h-38l-99 134l-143 -134h-37l-5 7l183 182h20z" />
    <glyph glyph-name="underscore" unicode="_" horiz-adv-x="500" 
d="M0 -86v36h500v-36h-500z" />
    <glyph glyph-name="grave" unicode="`" horiz-adv-x="242" 
d="M240 571l-7 -6h-24l-87 132l1 6q19 10 58 10z" />
    <glyph glyph-name="a" unicode="a" horiz-adv-x="554" 
d="M492 426l-41 -253q-7 -44 -10 -85.5t-2 -60.5l1 -19l-8 -8h-61q-5 54 10 145l11 68l-2 4q-4 -9 -11.5 -24t-32.5 -54t-51 -68.5t-64.5 -53.5t-75.5 -24q-54 0 -82 44.5t-28 119.5q0 140 87.5 231.5t222.5 91.5q50 0 84 -13.5t43 -26.5zM118 156q0 -118 66 -118q16 0 34 8
t34 22.5t32 32.5t30.5 39t27 41t24 40.5t18.5 34t13 25.5t6 13v1l-13 -78l13 77v1v2l18 114q-2 4 -6.5 10t-25.5 16.5t-50 10.5q-88 0 -154.5 -85.5t-66.5 -206.5z" />
    <glyph glyph-name="b" unicode="b" horiz-adv-x="552" 
d="M157 256q4 9 11.5 24t32.5 54t51 68.5t64 53.5t75 24q54 0 82 -45t28 -120q0 -139 -87 -230.5t-222 -91.5q-50 0 -84 13.5t-44 26.5l-9 13l68 427q12 74 19.5 141t9.5 98l1 30l8 8h61q-3 -104 -31 -277l-13 -84l-23 -130zM429 316q0 118 -67 118q-36 0 -75.5 -36
t-70.5 -88t-48 -84t-24 -49v-1l-19 -114q2 -4 6.5 -10.5t26 -17t50.5 -10.5q88 0 154.5 85.5t66.5 206.5z" />
    <glyph glyph-name="c" unicode="c" horiz-adv-x="482" 
d="M401 90l12 -14q-3 -3 -8 -9t-22.5 -20t-37 -25t-52 -20t-66.5 -9q-88 0 -135 54t-47 149q0 122 71.5 203t191.5 81q71 0 107.5 -29.5t36.5 -81.5q0 -17 -4 -32.5t-8 -22.5l-4 -7q-19 -8 -55 -8l-5 8q14 27 14 63q0 79 -86 79q-83 0 -132.5 -74.5t-49.5 -177.5
q0 -162 131 -162q40 0 77 13.5t54 27.5z" />
    <glyph glyph-name="d" unicode="d" horiz-adv-x="554" 
d="M500 473l-49 -300q-7 -44 -10 -85.5t-2 -60.5l1 -19l-8 -8h-61q-5 54 10 145l11 68l-2 4q-4 -9 -11.5 -24t-32.5 -54t-51 -68.5t-64 -53.5t-75 -24q-54 0 -82.5 44.5t-28.5 119.5q0 139 88 231t215 92q49 0 81 -16l2 9q12 74 19.5 141.5t9.5 97.5l2 30l7 8h62
q-4 -106 -31 -277zM118 156q0 -118 66 -118q29 0 62 26t57 58t49 75.5t34 63t16 34.5l1 2l18 116q-20 35 -82 35q-88 0 -154.5 -85.5t-66.5 -206.5z" />
    <glyph glyph-name="e" unicode="e" horiz-adv-x="483" 
d="M396 90l11 -14q-3 -3 -8 -9t-22.5 -20t-37.5 -25t-52 -20t-66 -9q-87 0 -131 53.5t-44 143.5q0 127 79 208.5t193 81.5q70 0 99 -29.5t29 -68.5q0 -54 -49.5 -94t-121 -58.5t-153.5 -20.5v-17q0 -157 126 -157q40 0 77 13.5t54 27.5zM312 449q-71 0 -123 -57.5
t-64 -151.5q44 2 86.5 10t83 24t65.5 45t25 67q0 63 -73 63z" />
    <glyph glyph-name="f" unicode="f" horiz-adv-x="320" 
d="M58 -35l74 475h-82l3 21l85 13l23 149q22 135 131 135q32 0 56 -11.5t32 -22.5l8 -12l-16 -15q-20 25 -60 25q-66 0 -82 -95l-24 -154h137l-5 -34h-137l-72 -455q-8 -48 -29.5 -90.5t-47.5 -69t-51 -46t-41 -28.5l-17 -8l-12 15q4 3 11.5 8.5t26.5 25.5t35 42t32 58
t22 74z" />
    <glyph glyph-name="g" unicode="g" horiz-adv-x="552" 
d="M352 -24l4 24l23 145l13 68l-2 4q-4 -9 -11.5 -24t-32.5 -54t-51 -68.5t-64.5 -53.5t-75.5 -24q-54 0 -82 44.5t-28 119.5q0 140 87.5 231.5t222.5 91.5q50 0 84 -13.5t43 -26.5l10 -14l-68 -426l-4 -24q-18 -107 -88 -170t-174 -63q-71 0 -116.5 30t-45.5 81
q0 14 3.5 27.5t7.5 20.5l4 7q20 7 57 7l6 -7q-14 -26 -14 -56q0 -37 29.5 -58t74.5 -21q72 0 122 55t66 147zM118 156q0 -118 66 -118q19 0 39 10.5t37.5 27.5t36 40t33 45.5t28.5 46.5t22.5 41l15.5 31l7 15l-13 -78l13 77v3l18 114q-2 4 -6.5 10t-25.5 16.5t-50 10.5
q-88 0 -154.5 -85.5t-66.5 -206.5z" />
    <glyph glyph-name="h" unicode="h" horiz-adv-x="560" 
d="M364 0l54 341q15 93 -50 93q-38 0 -79 -36t-72.5 -88t-48.5 -84t-24 -49v-1l-28 -176h-69l76 473q12 74 19.5 141.5t9.5 97.5l1 30l8 8h61q-4 -110 -31 -277l-13 -84l-23 -130l2 -3q4 9 11.5 24t32.5 54t51.5 68.5t66.5 53.5t80 24q51 0 74.5 -35t12.5 -104l-54 -341h-68
z" />
    <glyph glyph-name="i" unicode="i" horiz-adv-x="246" 
d="M132 625q0 23 15 38t38 15q18 0 28.5 -11t10.5 -28q0 -23 -15.5 -38t-38.5 -15q-17 0 -27.5 11t-10.5 28zM49 0l48 300l22 165l7 8h61q-6 -73 -22 -173l-48 -300h-68z" />
    <glyph glyph-name="j" unicode="j" horiz-adv-x="245" 
d="M132 625q0 23 15 38t37 15q18 0 28.5 -11t10.5 -28q0 -23 -15 -38t-38 -15q-18 0 -28 10.5t-10 28.5zM43 -35l54 335l22 165l7 8h61q-6 -73 -22 -173l-50 -316q-8 -48 -29.5 -90.5t-47.5 -69t-51 -46t-41 -28.5l-17 -8l-12 15q4 3 11.5 8.5t26.5 25.5t35 42t31.5 58
t21.5 74z" />
    <glyph glyph-name="k" unicode="k" horiz-adv-x="470" 
d="M363 473h58q5 -6 5 -20q0 -30 -36.5 -68.5t-140.5 -113.5l39 -78q13 -28 43 -74t53 -78l23 -32l-2 -9h-73l-147 243h-31l-38 -243h-69l76 473q11 72 18.5 139.5t9.5 98.5l2 31l8 8h61q-5 -115 -31 -277l-32 -201l28 3q101 65 137.5 104t36.5 67l-5 20z" />
    <glyph glyph-name="l" unicode="l" horiz-adv-x="244" 
d="M47 0l76 473q12 74 19.5 141.5t9.5 97.5l1 30l8 8h61q-4 -110 -31 -277l-75 -473h-69z" />
    <glyph glyph-name="m" unicode="m" horiz-adv-x="812" 
d="M332 0l54 340q8 49 -5 71.5t-37 22.5q-32 0 -67 -34.5t-65.5 -89.5t-43.5 -81.5t-23 -51.5v-1l-28 -176h-68l48 300q4 28 7 55.5t4 46t1.5 33.5t0.5 23l-1 7l7 8h61q5 -54 -10 -145l-11 -69l3 -3q4 9 10.5 24t29 54t46 68.5t59 53.5t71.5 24q46 0 68.5 -35t11.5 -104
l-13 -77q10 24 25.5 51t44 69t67.5 69t79 27q48 0 69.5 -35.5t10.5 -103.5l-54 -341h-68l54 340q8 49 -5 71.5t-38 22.5q-26 0 -56 -26t-52 -57.5t-44.5 -74t-30.5 -60t-14 -31.5l-29 -185h-69z" />
    <glyph glyph-name="n" unicode="n" horiz-adv-x="561" 
d="M365 0l54 341q15 93 -49 93q-31 0 -65 -26t-59 -58.5t-50 -75.5t-34.5 -62.5t-16.5 -34.5v-1l-28 -176h-68l48 300q4 28 7 55.5t4 46t1.5 33.5t0.5 23l-1 7l7 8h61q5 -54 -10 -145l-11 -69l3 -3q4 9 11.5 24t32.5 54t51.5 68.5t66.5 53.5t79 24q51 0 74.5 -35t12.5 -104
l-53 -341h-69z" />
    <glyph glyph-name="o" unicode="o" horiz-adv-x="543" 
d="M46 197q0 120 74.5 201.5t183.5 81.5q87 0 137.5 -55t50.5 -150q0 -120 -75 -201t-185 -81q-87 0 -136.5 55t-49.5 149zM120 180q0 -72 31 -114t87 -42q74 0 127 83t53 186q0 72 -31.5 114t-87.5 42q-74 0 -126.5 -83t-52.5 -186z" />
    <glyph glyph-name="p" unicode="p" horiz-adv-x="554" 
d="M9 -250l88 550q4 28 7 55.5t4 46.5t1.5 34t0.5 22l-1 7l7 8h61q5 -54 -10 -145l-11 -69l3 -3q4 9 11.5 24t32 54t50.5 68.5t64 53.5t75 24q54 0 82.5 -44.5t28.5 -119.5q0 -139 -87.5 -231t-213.5 -92q-52 0 -83 17l-41 -260h-69zM430 316q0 118 -66 118q-36 0 -75 -35
t-71.5 -89t-48 -83t-24.5 -50v-1l-18 -114q2 -4 6.5 -10.5t25.5 -17t50 -10.5q88 0 154.5 85.5t66.5 206.5z" />
    <glyph glyph-name="q" unicode="q" horiz-adv-x="552" 
d="M316 -250l64 409l12 54l-2 4q-4 -9 -11.5 -24t-32.5 -54t-51 -68.5t-64 -53.5t-75 -24q-54 0 -82 44.5t-28 119.5q0 140 87 231.5t222 91.5q50 0 84 -13.5t43 -26.5l10 -14l-107 -676h-69zM118 156q0 -118 67 -118q35 0 74 35t71.5 89t47 82.5t24.5 50.5l1 2l19 114
q-2 4 -6.5 10t-26 16.5t-50.5 10.5q-88 0 -154.5 -85.5t-66.5 -206.5z" />
    <glyph glyph-name="r" unicode="r" horiz-adv-x="374" 
d="M49 0l48 300q4 28 7 55.5t4 46t1.5 33.5t0.5 23l-1 7l7 8h61q5 -54 -10 -145l-11 -71l2 -4l10 23q11 23 30 56.5t43.5 67t59 57t69.5 23.5q3 -29 -3 -70l-9 -7q-12 9 -30 9q-28 0 -60.5 -32.5t-60.5 -83t-41 -77t-22 -48.5v-1l-27 -170h-68z" />
    <glyph glyph-name="s" unicode="s" horiz-adv-x="458" 
d="M142 365q0 -28 22.5 -47t92.5 -58q71 -39 98 -65.5t27 -68.5q0 -59 -49.5 -96t-141.5 -37q-76 0 -117 28t-41 78q0 16 3.5 30.5t7.5 21.5l3 7q21 7 56 7l6 -7q-13 -24 -13 -55q0 -38 26 -58.5t75 -20.5q56 0 87.5 25t31.5 63q0 31 -24.5 52t-90.5 55q-35 18 -52 28
t-36.5 26t-27 34t-7.5 42q0 58 46.5 94.5t134.5 36.5q143 0 143 -103q0 -16 -3 -30.5t-7 -21.5l-3 -7q-20 -9 -55 -9l-7 9q13 23 13 56q0 75 -90 75q-52 0 -80 -24t-28 -60z" />
    <glyph glyph-name="t" unicode="t" horiz-adv-x="338" 
d="M48 439l4 21l82 24l39 115h45l-20 -126h131l-5 -34h-131l-52 -328q-12 -76 53 -76q18 0 35 6.5t25 12.5l8 6l12 -14q-5 -6 -14.5 -15t-40 -23.5t-63.5 -14.5q-48 0 -71 28.5t-14 82.5l53 335h-76z" />
    <glyph glyph-name="u" unicode="u" horiz-adv-x="559" 
d="M126 473h61q-5 -73 -21 -173l-27 -168q-15 -94 49 -94q101 0 221 257l-13 -78l14 79v1l26 168l8 8h62l-48 -300q-4 -28 -7 -55.5t-4 -46t-1.5 -33.5t0.5 -22v-8l-7 -8h-61q-5 54 10 145l11 68l-3 4q-2 -5 -6 -13t-17 -31t-27 -44.5t-36 -47t-44 -44.5t-51 -31.5
t-57 -12.5q-50 0 -74 35.5t-13 103.5l27 168q7 44 12 85.5t6 60.5l2 19zM410 297l-1 -2l1 1v1z" />
    <glyph glyph-name="v" unicode="v" horiz-adv-x="493" 
d="M407 473h48q5 -9 5 -34q0 -59 -48.5 -156.5t-178.5 -282.5h-50l-11 14l-64 286q-12 52 -24 94t-18 58l-7 15l5 6h72l93 -415q101 148 139.5 229.5t38.5 137.5q0 14 -1.5 24t-3.5 13l-1 4z" />
    <glyph glyph-name="w" unicode="w" horiz-adv-x="718" 
d="M433 14l-46 265q-51 -104 -167 -279h-47l-10 14l-58 286q-11 52 -23 94t-18 58l-7 15l6 6h73l83 -405q122 188 154 288q-8 34 -15.5 62t-11.5 38l-4 11l6 6h70l71 -405q97 142 134 222t36 135q0 14 -1.5 24t-3.5 13l-2 4l7 7h47q6 -9 6 -34q0 -60 -47.5 -157t-176.5 -282
h-45z" />
    <glyph glyph-name="x" unicode="x" horiz-adv-x="482" 
d="M76 0h-53q-4 8 -4 25q0 37 36 83.5t144 136.5l-27 55q-24 48 -46.5 89t-33.5 59l-11 17v8h79l99 -199q75 64 100.5 101t25.5 68l-4 23l7 7h52q4 -8 4 -25q0 -35 -32.5 -77t-135.5 -130l21 -41q32 -63 58.5 -111t36.5 -65l11 -16v-8h-81l-106 212q-79 -69 -108 -109
t-29 -74l3 -23z" />
    <glyph glyph-name="y" unicode="y" horiz-adv-x="489" 
d="M-55 -257q-9 0 -19 2.5t-15 4.5l-5 2q0 18 4.5 33.5t9.5 22.5l4 6q16 -9 36 -9q38 0 97 50.5t124 133.5l-73 311q-12 53 -24.5 94.5t-18.5 57.5l-6 15l5 6h72l94 -420q76 107 127 211t51 161q0 11 -2 21.5t-4 15.5l-1 4l6 7h48q6 -15 6 -34q0 -56 -59.5 -173.5
t-140 -232.5t-171 -202.5t-145.5 -87.5z" />
    <glyph glyph-name="z" unicode="z" horiz-adv-x="472" 
d="M16 20l345 419h-117q-47 0 -85 -4t-53 -8l-14 -4l-6 7l7 43h363l-4 -21l-344 -418h124q47 0 85 4t52 8l14 4l7 -8l-7 -42h-370z" />
    <glyph glyph-name="braceleft" unicode="{" horiz-adv-x="315" 
d="M81 8l41 162q13 54 -8.5 83t-72.5 29l6 36q51 0 81.5 28.5t34.5 83.5l11 162q5 80 53 121.5t132 41.5l-5 -36q-103 0 -111 -119l-11 -162q-7 -106 -100 -138q82 -32 56 -138l-40 -162q-29 -119 73 -119l-6 -36q-85 0 -119 42t-15 121z" />
    <glyph glyph-name="bar" unicode="|" horiz-adv-x="256" 
d="M146 -150h-36v900h36v-900z" />
    <glyph glyph-name="braceright" unicode="}" horiz-adv-x="316" 
d="M169 170l-11 -162q-5 -79 -52.5 -121t-132.5 -42l5 36q102 0 111 119l11 162q8 107 99 138q-82 32 -55 138l40 162q29 119 -73 119l6 36q84 0 118 -41.5t15 -121.5l-40 -162q-13 -55 8.5 -83.5t71.5 -28.5l-1 -5h1l-5 -31q-51 0 -81.5 -28.5t-34.5 -83.5z" />
    <glyph glyph-name="asciitilde" unicode="~" horiz-adv-x="455" 
d="M179 352q33 0 65.5 -31t59.5 -31q25 0 51.5 16t40.5 32l14 16l16 -20q-2 -3 -7 -9t-19.5 -20.5t-29.5 -26t-37 -20.5t-43 -9q-32 0 -64.5 30.5t-58.5 30.5q-24 0 -51 -16t-42 -32l-14 -16l-16 20q7 10 19 24t47.5 38t68.5 24z" />
    <glyph glyph-name="exclamdown" unicode="&#xa1;" horiz-adv-x="238" 
d="M191 444q0 -21 -14 -35t-35 -14q-35 0 -35 36q0 21 13.5 35t34.5 14q17 0 26.5 -10t9.5 -26zM149 276l-70 -504h-72l89 504h53z" />
    <glyph glyph-name="cent" unicode="&#xa2;" horiz-adv-x="485" 
d="M401 90l12 -14q-6 -8 -18.5 -20.5t-55.5 -35t-91 -26.5l-14 -94h-35l14 94q-82 4 -125 57.5t-43 144.5q0 116 66 196t178 87l15 94h35l-15 -94q63 -3 96.5 -32.5t33.5 -77.5q0 -17 -4 -32.5t-8 -22.5l-3 -7q-20 -8 -55 -8l-6 8q15 27 15 63q0 79 -89 79q-82 0 -132 -74.5
t-50 -177.5q0 -162 131 -162q40 0 77 13.5t54 27.5z" />
    <glyph glyph-name="sterling" unicode="&#xa3;" horiz-adv-x="547" 
d="M107 483q0 104 62.5 164t174.5 60q94 0 140.5 -41.5t46.5 -113.5q0 -24 -4.5 -44.5t-9.5 -29.5l-5 -8q-24 -8 -63 -8l-6 8q21 32 21 87q0 58 -32 88t-91 30q-77 0 -119 -50.5t-42 -142.5q0 -46 24 -137h165l5 -6l-5 -30h-158q3 -17 3 -32q0 -57 -30 -116t-60 -89l-30 -31
h202q47 0 84.5 4t51.5 8l15 4l7 -8l-8 -49h-418l4 25q5 5 13 14t28.5 36t36.5 54.5t29 65.5t13 72q0 20 -5 42h-70l6 36h53q-29 85 -29 138z" />
    <glyph glyph-name="currency" unicode="&#xa4;" horiz-adv-x="613" 
d="M125 300q0 65 41 115l-94 94l26 26l94 -94q51 41 115 41q63 0 115 -41l94 94l25 -26l-93 -94q41 -52 41 -115q0 -64 -41 -115l93 -94l-25 -26l-94 94q-50 -41 -115 -41q-66 0 -116 41l-93 -94l-26 26l94 94q-41 49 -41 115zM161 300q0 -60 43 -103t103 -43t102.5 43
t42.5 103t-42.5 103t-102.5 43t-103 -43t-43 -103z" />
    <glyph glyph-name="yen" unicode="&#xa5;" 
d="M638 700l-292 -379l-3 -21h130l-6 -36h-130l-16 -100h130l-6 -36h-129l-20 -128h-71l20 128h-130l6 36h129l16 100h-129l6 36h128l3 17l-78 170q-25 56 -50 107.5t-38 74.5l-12 23l1 8h88l151 -337l257 337h45z" />
    <glyph glyph-name="brokenbar" unicode="&#xa6;" horiz-adv-x="256" 
d="M146 -150h-36v400h36v-400zM146 750v-400h-36v400h36z" />
    <glyph glyph-name="section" unicode="&#xa7;" horiz-adv-x="454" 
d="M179 594q0 -29 24.5 -51t59 -38t69 -34t59 -47t24.5 -67q0 -46 -31.5 -82.5t-89.5 -49.5q40 -21 62 -45t22 -60q0 -55 -50 -91t-140 -36q-74 0 -114.5 27.5t-40.5 79.5q0 15 3.5 29.5t6.5 20.5l3 7q21 8 56 8l6 -8q-13 -23 -13 -54q0 -38 26 -58.5t74 -20.5q55 0 87 25
t32 60q0 28 -24.5 49t-59 36t-69 32t-59 46t-24.5 69q0 45 29.5 82.5t85.5 51.5q-77 42 -77 102q0 55 48 92.5t134 37.5q68 0 104 -27t36 -76q0 -16 -3 -30.5t-7 -21.5l-3 -7q-20 -9 -55 -9l-6 9q12 23 12 55q0 76 -88 76q-50 0 -79.5 -24t-29.5 -58zM139 357
q0 -37 26.5 -60t79.5 -48q50 3 79.5 31.5t29.5 65.5q0 19 -8 34.5t-28.5 29.5t-33.5 21.5t-45 22.5q-45 -4 -72.5 -32t-27.5 -65z" />
    <glyph glyph-name="dieresis" unicode="&#xa8;" horiz-adv-x="415" 
d="M131 602q0 18 12 30t29 12q31 0 31 -31q0 -18 -11.5 -30t-29.5 -12q-31 0 -31 31zM324 602q0 18 12 30t29 12q31 0 31 -31q0 -18 -11.5 -30t-29.5 -12q-31 0 -31 31z" />
    <glyph glyph-name="copyright" unicode="&#xa9;" horiz-adv-x="862" 
d="M74 350q0 148 104.5 252.5t252.5 104.5t252.5 -104.5t104.5 -252.5t-104.5 -252.5t-252.5 -104.5t-252.5 104.5t-104.5 252.5zM110 350q0 -133 94 -227t227 -94t227 94t94 227t-94 227t-227 94t-227 -94t-94 -227zM469 509q-58 0 -97.5 -54t-39.5 -132q0 -121 101 -121
q28 0 55 9t40 19l13 9l8 -9q-5 -7 -15 -16.5t-45 -26t-74 -16.5q-64 0 -101 40.5t-37 110.5q0 88 55.5 147.5t140.5 59.5q53 0 81.5 -23.5t28.5 -62.5q0 -13 -3 -23t-6 -14l-3 -4q-17 -4 -43 -4l-4 4q11 15 11 44q0 63 -66 63z" />
    <glyph glyph-name="ordfeminine" unicode="&#xaa;" horiz-adv-x="289" 
d="M311 677l-20 -127q-2 -14 -3.5 -27.5t-2 -23.5t-0.5 -17.5v-11.5v-3l-4 -4h-40q-2 26 4 67l5 30l-2 3l-5.5 -11t-15 -25t-24 -32t-31 -25t-36.5 -11q-27 0 -41.5 22.5t-14.5 60.5q0 70 44.5 115.5t115.5 45.5q26 0 43.5 -6.5t22.5 -12.5zM127 541q0 -54 30 -54
q20 0 45 29.5t40 59.5l14 30l10 62q-8 17 -37 17q-40 0 -71 -43t-31 -101z" />
    <glyph glyph-name="guillemotleft" unicode="&#xab;" horiz-adv-x="439" 
d="M246 452l5 -6l-5 -28l-142 -143l98 -143l-5 -28l-7 -6l-144 170l3 14zM414 452l5 -6l-4 -28l-143 -143l97 -143l-4 -28l-7 -6l-143 170l2 14z" />
    <glyph glyph-name="logicalnot" unicode="&#xac;" 
d="M106 357v36h385v-185h-36v149h-349z" />
    <glyph glyph-name="uni00AD" unicode="&#xad;" horiz-adv-x="356" 
d="M71 258v36h215v-36h-215z" />
    <glyph glyph-name="registered" unicode="&#xae;" horiz-adv-x="862" 
d="M74 350q0 148 104.5 252.5t252.5 104.5t252.5 -104.5t104.5 -252.5t-104.5 -252.5t-252.5 -104.5t-252.5 104.5t-104.5 252.5zM110 350q0 -133 94 -227t227 -94t227 94t94 227t-94 227t-227 94t-227 -94t-94 -227zM298 175l55 350h108q50 0 78.5 -22t28.5 -63
q0 -39 -24 -66t-66 -38l28 -74q10 -25 20 -46t15 -30l5 -8l-3 -3h-54l-60 156h-58l-24 -156h-49zM449 503h-51l-23 -150h50q41 0 66 23.5t25 62.5q0 64 -67 64z" />
    <glyph glyph-name="macron" unicode="&#xaf;" horiz-adv-x="273" 
d="M83 595l5 36h217l-5 -36h-217z" />
    <glyph glyph-name="degree" unicode="&#xb0;" horiz-adv-x="284" 
d="M98 583q0 52 33.5 87.5t82.5 35.5q39 0 61 -23.5t22 -65.5q0 -53 -32.5 -88.5t-81.5 -35.5q-40 0 -62.5 24.5t-22.5 65.5zM135 590q0 -27 14.5 -43.5t38.5 -16.5q29 0 50.5 24t21.5 57q0 26 -14 42t-38 16q-30 0 -51.5 -23t-21.5 -56z" />
    <glyph glyph-name="plusminus" unicode="&#xb1;" 
d="M106 332v36h175v175h36v-175h174v-36h-174v-175h-36v175h-175zM106 52v36h385v-36h-385z" />
    <glyph glyph-name="twosuperior" unicode="&#xb2;" horiz-adv-x="288" 
d="M316 625q0 -41 -30.5 -85t-73.5 -77t-70 -51t-39 -24h99q24 0 43.5 3t26.5 5l8 3l3 -4l-7 -45h-232l4 24q9 6 23.5 16t52 40t66.5 59t52.5 68t23.5 71q0 26 -14 41t-42 15q-33 0 -54.5 -22.5t-21.5 -61.5l1 -16l-5 -5l-42 5q-2 4 -2 16q0 46 34.5 75t94.5 29
q48 0 74.5 -21.5t26.5 -57.5z" />
    <glyph glyph-name="threesuperior" unicode="&#xb3;" horiz-adv-x="305" 
d="M167 366q40 0 63 26t23 66q0 60 -57 60h-28l-3 3l4 21h21q36 0 56 22.5t20 63.5q0 56 -52 56q-33 0 -54.5 -20.5t-21.5 -56.5l1 -15l-5 -4l-42 4q-2 5 -2 16q0 42 34.5 69t94.5 27q97 0 97 -78q0 -35 -19 -60t-54 -35q61 -12 61 -75q0 -51 -38 -80.5t-101 -29.5
q-53 0 -80 21t-27 57q0 12 2.5 21.5t5.5 12.5l2 4q17 5 44 5l4 -5q-11 -14 -11 -41q0 -55 62 -55z" />
    <glyph glyph-name="acute" unicode="&#xb4;" horiz-adv-x="242" 
d="M107 565l-5 6l105 142q17 0 30.5 -2.5t18.5 -4.5l5 -3l-1 -6l-129 -132h-24z" />
    <glyph glyph-name="paragraph" unicode="&#xb6;" horiz-adv-x="578" 
d="M223 -35l53 337q-85 0 -132.5 44t-47.5 126q0 102 68 165t175 63h55l-113 -716q-8 -48 -28.5 -90.5t-44.5 -69t-47 -46t-38 -28.5l-15 -8l-11 15q4 3 11.5 8.5t26.5 25.5t35 42t31.5 58t21.5 74zM387 0l111 700h55l-111 -700h-55z" />
    <glyph glyph-name="periodcentered" unicode="&#xb7;" horiz-adv-x="183" 
d="M57 294q0 21 14 34.5t34 13.5q36 0 36 -35q0 -21 -13.5 -35t-34.5 -14q-17 0 -26.5 10t-9.5 26z" />
    <glyph glyph-name="cedilla" unicode="&#xb8;" horiz-adv-x="214" 
d="M29 -72l23 72h28l-17 -54q24 0 38.5 -14t14.5 -39q0 -31 -23 -51t-56 -20q-21 0 -36.5 9t-20.5 18l-4 9l14 13q13 -19 42 -19q20 0 32 10.5t12 28.5q0 31 -42 31z" />
    <glyph glyph-name="onesuperior" unicode="&#xb9;" horiz-adv-x="221" 
d="M129 350l49 308q-46 -32 -88 -32q-2 7 0 20l4 4q24 0 53 12.5t47 25.5l17 12h20l-55 -350h-47z" />
    <glyph glyph-name="ordmasculine" unicode="&#xba;" horiz-adv-x="285" 
d="M81 562q0 60 38.5 100.5t94.5 40.5q45 0 71.5 -27.5t26.5 -75.5q0 -60 -39 -100.5t-95 -40.5q-45 0 -71 28t-26 75zM129 549q0 -33 14 -53t38 -20q34 0 58 43.5t24 94.5q0 34 -13.5 53t-38.5 19q-34 0 -58 -43t-24 -94z" />
    <glyph glyph-name="guillemotright" unicode="&#xbb;" horiz-adv-x="439" 
d="M81 446l7 6l143 -170l-2 -14l-197 -170l-5 6l4 28l143 143l-97 143zM250 446l6 6l144 -170l-2 -14l-198 -170l-5 6l4 28l143 143l-97 143z" />
    <glyph glyph-name="onequarter" unicode="&#xbc;" horiz-adv-x="746" 
d="M448 75l1 11l225 264h23l-41 -252h46l-4 -23h-45l-12 -75h-47l12 75h-158zM194 -25h-42l432 750h42zM129 350l49 308q-46 -32 -88 -32q-2 7 0 20l4 4q24 0 53 12.5t47 25.5l17 12h20l-55 -350h-47zM487 98h122l29 179z" />
    <glyph glyph-name="onehalf" unicode="&#xbd;" horiz-adv-x="759" 
d="M194 -25h-42l432 750h42zM737 275q0 -41 -30.5 -85t-73.5 -77t-70 -51t-39 -24h99q24 0 43.5 3t27.5 5l7 3l3 -4l-6 -45h-233l4 24q9 6 23.5 16t52.5 40t67 59t52.5 68t23.5 71q0 56 -57 56q-33 0 -54.5 -22.5t-21.5 -61.5l2 -16l-5 -5l-43 5q-2 4 -2 16q0 46 34.5 75
t94.5 29q48 0 74.5 -21.5t26.5 -57.5zM129 350l49 308q-46 -32 -88 -32q-2 7 0 20l4 4q24 0 53 12.5t47 25.5l17 12h20l-55 -350h-47z" />
    <glyph glyph-name="threequarters" unicode="&#xbe;" horiz-adv-x="830" 
d="M532 75l2 11l224 264h24l-41 -252h46l-4 -23h-45l-12 -75h-47l12 75h-159zM167 366q40 0 63 26t23 66q0 60 -57 60h-28l-3 3l4 21h21q36 0 56 22.5t20 63.5q0 56 -52 56q-33 0 -54.5 -20.5t-21.5 -56.5l1 -15l-5 -4l-42 4q-2 5 -2 16q0 42 34.5 69t94.5 27q97 0 97 -78
q0 -35 -19 -60t-54 -35q61 -12 61 -75q0 -51 -38 -80.5t-101 -29.5q-53 0 -80 21t-27 57q0 12 2.5 21.5t5.5 12.5l2 4q17 5 44 5l4 -5q-11 -14 -11 -41q0 -55 62 -55zM278 -25h-41l432 750h41zM571 98h123l29 179z" />
    <glyph glyph-name="questiondown" unicode="&#xbf;" horiz-adv-x="510" 
d="M328 440q-2 -20 -15 -32.5t-32 -12.5q-36 0 -36 36q0 21 14 35t35 14q17 0 26.5 -11t7.5 -29zM-2 -72q3 46 25.5 88t56.5 72t68 50.5t68 33.5l19 104h53l-19 -138q-8 -2 -21.5 -6.5t-48 -22t-60.5 -40.5t-47.5 -63t-21.5 -88q0 -55 29.5 -88t88.5 -33q67 0 111.5 44.5
t44.5 120.5l-2 29l8 7q17 0 32 -2t22 -4l6 -1q3 -8 3 -28q0 -87 -62.5 -142.5t-168.5 -55.5q-93 0 -140.5 45.5t-43.5 117.5z" />
    <glyph glyph-name="Agrave" unicode="&#xc0;" horiz-adv-x="658" 
d="M143 210l-114 -210h-41l367 674l-6 18l1 8h79l162 -700h-74l-48 210h-326zM396 527q-13 54 -26 101l-208 -382h298zM442 778l-7 -6h-25l-86 132l1 7q18 10 57 10z" />
    <glyph glyph-name="Aacute" unicode="&#xc1;" horiz-adv-x="658" 
d="M143 210l-114 -210h-41l367 674l-6 18l1 8h79l162 -700h-74l-48 210h-326zM396 527q-13 54 -26 101l-208 -382h298zM381 772l-5 6l105 143q17 0 30.5 -2.5t18.5 -4.5l5 -3l-1 -7l-129 -132h-24z" />
    <glyph glyph-name="Acircumflex" unicode="&#xc2;" horiz-adv-x="658" 
d="M143 210l-114 -210h-41l367 674l-6 18l1 8h79l162 -700h-74l-48 210h-326zM396 527q-13 54 -26 101l-208 -382h298zM532 778l-8 -6h-27l-73 98l-105 -98h-27l-5 6l135 143h20z" />
    <glyph glyph-name="Atilde" unicode="&#xc3;" horiz-adv-x="658" 
d="M143 210l-114 -210h-41l367 674l-6 18l1 8h79l162 -700h-74l-48 210h-326zM396 527q-13 54 -26 101l-208 -382h298zM380 857q23 0 44.5 -18t39.5 -18t36 9.5t26 19.5l9 10l12 -15q-4 -7 -12 -18t-33 -29t-51 -18q-23 0 -44 18t-40 18q-18 0 -36 -10t-27 -20l-8 -9l-12 15
q4 7 12 18t33 29t51 18z" />
    <glyph glyph-name="Adieresis" unicode="&#xc4;" horiz-adv-x="658" 
d="M143 210l-114 -210h-41l367 674l-6 18l1 8h79l162 -700h-74l-48 210h-326zM396 527q-13 54 -26 101l-208 -382h298zM476 809q0 19 12 30.5t29 11.5q31 0 31 -31q0 -18 -11.5 -30t-30.5 -12q-30 0 -30 31zM283 809q0 19 11.5 30.5t29.5 11.5q31 0 31 -31q0 -18 -12 -30
t-29 -12q-31 0 -31 31z" />
    <glyph glyph-name="Aring" unicode="&#xc5;" horiz-adv-x="658" 
d="M143 210l-114 -210h-41l367 674l-6 18l1 8h79l162 -700h-74l-48 210h-326zM396 527q-13 54 -26 101l-208 -382h298zM346 831q0 39 25 65t61 26q29 0 45 -17.5t16 -48.5q0 -38 -24.5 -65t-60.5 -27q-29 0 -45.5 18.5t-16.5 48.5zM379 836q0 -17 9 -27.5t25 -10.5
q20 0 34 15t14 37q0 17 -9 27.5t-25 10.5q-20 0 -34 -15t-14 -37z" />
    <glyph glyph-name="AE" unicode="&#xc6;" horiz-adv-x="795" 
d="M-12 0l413 700h396l-7 -44l-9 -7q-40 16 -146 16h-157l-46 -291h257l4 -6l-4 -30h-263l-47 -303h165q47 0 85 4t53 8l14 4l6 -7l-7 -44h-393l34 217h-180l-127 -217h-41zM177 253h164l61 382z" />
    <glyph glyph-name="Ccedilla" unicode="&#xc7;" horiz-adv-x="679" 
d="M299 -72l21 66q-117 5 -183 84.5t-66 213.5q0 175 107.5 295t272.5 120q101 0 155.5 -46.5t54.5 -124.5q0 -24 -5.5 -44t-10.5 -28l-5 -7q-24 -7 -63 -7l-6 7q20 30 20 84q0 63 -38 98.5t-108 35.5q-128 0 -211.5 -109.5t-83.5 -270.5q0 -123 54.5 -189t157.5 -66
q57 0 111.5 19.5t80.5 38.5l27 20l12 -16q-4 -4 -10.5 -11t-30.5 -25.5t-50 -32.5t-68 -26.5t-86 -13.5l-14 -47q23 0 37.5 -14t14.5 -39q0 -31 -23 -51t-56 -20q-21 0 -36.5 9t-20.5 18l-4 9l14 13q13 -19 43 -19q20 0 32 10.5t12 28.5q0 31 -43 31z" />
    <glyph glyph-name="Egrave" unicode="&#xc8;" horiz-adv-x="565" 
d="M57 0l111 700h399l-7 -44l-8 -7q-42 16 -147 16h-172l-46 -291h272l5 -6l-4 -30h-279l-47 -303h180q47 0 85 4t53 8l14 4l6 -7l-7 -44h-408zM423 778l-7 -6h-24l-87 132l1 7q18 10 57 10z" />
    <glyph glyph-name="Eacute" unicode="&#xc9;" horiz-adv-x="565" 
d="M57 0l111 700h399l-7 -44l-8 -7q-42 16 -147 16h-172l-46 -291h272l5 -6l-4 -30h-279l-47 -303h180q47 0 85 4t53 8l14 4l6 -7l-7 -44h-408zM344 772l-5 6l105 143q17 0 30.5 -2.5t18.5 -4.5l5 -3l-1 -7l-129 -132h-24z" />
    <glyph glyph-name="Ecircumflex" unicode="&#xca;" horiz-adv-x="565" 
d="M57 0l111 700h399l-7 -44l-8 -7q-42 16 -147 16h-172l-46 -291h272l5 -6l-4 -30h-279l-47 -303h180q47 0 85 4t53 8l14 4l6 -7l-7 -44h-408zM504 778l-8 -6h-27l-73 98l-105 -98h-27l-5 6l135 143h19z" />
    <glyph glyph-name="Edieresis" unicode="&#xcb;" horiz-adv-x="565" 
d="M57 0l111 700h399l-7 -44l-8 -7q-42 16 -147 16h-172l-46 -291h272l5 -6l-4 -30h-279l-47 -303h180q47 0 85 4t53 8l14 4l6 -7l-7 -44h-408zM446 802q0 18 12 30t29 12q31 0 31 -31q0 -18 -11.5 -30t-30.5 -12q-30 0 -30 31zM253 802q0 18 12 30t29 12q31 0 31 -31
q0 -18 -11.5 -30t-29.5 -12q-31 0 -31 31z" />
    <glyph glyph-name="Igrave" unicode="&#xcc;" horiz-adv-x="265" 
d="M57 0l111 700h71l-111 -700h-71zM248 778l-7 -6h-24l-87 132l1 7q19 10 58 10z" />
    <glyph glyph-name="Iacute" unicode="&#xcd;" horiz-adv-x="265" 
d="M57 0l111 700h71l-111 -700h-71zM187 772l-5 6l105 143q17 0 30.5 -2.5t18.5 -4.5l5 -3l-1 -7l-129 -132h-24z" />
    <glyph glyph-name="Icircumflex" unicode="&#xce;" horiz-adv-x="265" 
d="M57 0l111 700h71l-111 -700h-71zM338 778l-7 -6h-28l-73 98l-104 -98h-28l-5 6l135 143h20z" />
    <glyph glyph-name="Idieresis" unicode="&#xcf;" horiz-adv-x="265" 
d="M57 0l111 700h71l-111 -700h-71zM89 809q0 19 11.5 30.5t29.5 11.5q31 0 31 -31q0 -18 -12 -30t-29 -12q-31 0 -31 31zM282 809q0 19 12 30.5t29 11.5q31 0 31 -31q0 -18 -11.5 -30t-30.5 -12q-30 0 -30 31z" />
    <glyph glyph-name="Eth" unicode="&#xd0;" horiz-adv-x="711" 
d="M46 341l6 36h64l52 323h239q123 0 193.5 -79.5t70.5 -214.5q0 -172 -108 -289t-267 -117h-239l54 341h-65zM399 664h-166l-46 -287h155l-6 -36h-154l-49 -305h166q125 0 209.5 107.5t84.5 266.5q0 120 -51.5 187t-142.5 67z" />
    <glyph glyph-name="Ntilde" unicode="&#xd1;" horiz-adv-x="705" 
d="M57 0l67 420q13 80 20 148t8 96v28l9 8h27l359 -578l92 578h40l-111 -700h-22l-361 577l-91 -577h-37zM407 857q23 0 44 -18t39 -18t36 9.5t27 19.5l9 10l11 -15q-4 -7 -11.5 -18t-32.5 -29t-52 -18q-23 0 -44 18t-39 18q-19 0 -37 -10t-27 -20l-8 -9l-11 15q4 7 11.5 18
t32.5 29t52 18z" />
    <glyph glyph-name="Ograve" unicode="&#xd2;" horiz-adv-x="749" 
d="M71 290q0 177 108 297t264 120q124 0 195 -80t71 -218q0 -176 -108.5 -296t-265.5 -120q-124 0 -194 80t-70 217zM148 282q0 -121 50 -189t142 -68q122 0 206.5 113.5t84.5 279.5q0 122 -50.5 189.5t-142.5 67.5q-122 0 -206 -113.5t-84 -279.5zM490 778l-6 -6h-25
l-87 132l1 7q19 10 58 10z" />
    <glyph glyph-name="Oacute" unicode="&#xd3;" horiz-adv-x="749" 
d="M71 290q0 177 108 297t264 120q124 0 195 -80t71 -218q0 -176 -108.5 -296t-265.5 -120q-124 0 -194 80t-70 217zM148 282q0 -121 50 -189t142 -68q122 0 206.5 113.5t84.5 279.5q0 122 -50.5 189.5t-142.5 67.5q-122 0 -206 -113.5t-84 -279.5zM430 772l-5 6l104 143
q17 0 31 -2.5t19 -4.5l5 -3l-1 -7l-130 -132h-23z" />
    <glyph glyph-name="Ocircumflex" unicode="&#xd4;" horiz-adv-x="749" 
d="M71 290q0 177 108 297t264 120q124 0 195 -80t71 -218q0 -176 -108.5 -296t-265.5 -120q-124 0 -194 80t-70 217zM148 282q0 -121 50 -189t142 -68q122 0 206.5 113.5t84.5 279.5q0 122 -50.5 189.5t-142.5 67.5q-122 0 -206 -113.5t-84 -279.5zM581 778l-8 -6h-27
l-74 98l-104 -98h-27l-5 6l135 143h19z" />
    <glyph glyph-name="Otilde" unicode="&#xd5;" horiz-adv-x="749" 
d="M71 290q0 177 108 297t264 120q124 0 195 -80t71 -218q0 -176 -108.5 -296t-265.5 -120q-124 0 -194 80t-70 217zM148 282q0 -121 50 -189t142 -68q122 0 206.5 113.5t84.5 279.5q0 122 -50.5 189.5t-142.5 67.5q-122 0 -206 -113.5t-84 -279.5zM428 857q23 0 44 -18
t40 -18q18 0 36 9.5t26 19.5l9 10l12 -15q-4 -7 -12 -18t-33 -29t-52 -18q-23 0 -43.5 18t-39.5 18q-18 0 -36 -10t-27 -20l-8 -9l-12 15q4 7 11.5 18t32.5 29t52 18z" />
    <glyph glyph-name="Odieresis" unicode="&#xd6;" horiz-adv-x="749" 
d="M71 290q0 177 108 297t264 120q124 0 195 -80t71 -218q0 -176 -108.5 -296t-265.5 -120q-124 0 -194 80t-70 217zM148 282q0 -121 50 -189t142 -68q122 0 206.5 113.5t84.5 279.5q0 122 -50.5 189.5t-142.5 67.5q-122 0 -206 -113.5t-84 -279.5zM330 809q0 19 12 30.5
t30 11.5q30 0 30 -31q0 -18 -11.5 -30t-29.5 -12q-31 0 -31 31zM524 809q0 19 11.5 30.5t29.5 11.5q31 0 31 -31q0 -18 -12 -30t-30 -12q-30 0 -30 31z" />
    <glyph glyph-name="multiply" unicode="&#xd7;" 
d="M129 130l-25 26l169 169l-169 169l25 26l169 -170l170 170l25 -26l-169 -169l169 -169l-25 -26l-170 169z" />
    <glyph glyph-name="Oslash" unicode="&#xd8;" horiz-adv-x="748" 
d="M155 -25h-41l51 74q-94 79 -94 241q0 177 108 297t264 120q85 0 144 -38l38 56h40l-51 -75q95 -79 95 -241q0 -176 -108.5 -296t-265.5 -120q-83 0 -143 37zM147 283q0 -121 49 -188l364 535q-48 45 -122 45q-122 0 -206.5 -113t-84.5 -279zM632 417q0 120 -49 187
l-364 -535q47 -44 121 -44q122 0 207 113t85 279z" />
    <glyph glyph-name="Ugrave" unicode="&#xd9;" horiz-adv-x="681" 
d="M554 256l70 444h37l-70 -443q-18 -116 -98.5 -190t-194.5 -74t-170 74t-37 190l70 443h71l-71 -452q-15 -96 28.5 -157t129.5 -61q88 0 153.5 63t81.5 163zM459 778l-7 -6h-24l-87 132l1 7q19 10 58 10z" />
    <glyph glyph-name="Uacute" unicode="&#xda;" horiz-adv-x="681" 
d="M554 256l70 444h37l-70 -443q-18 -116 -98.5 -190t-194.5 -74t-170 74t-37 190l70 443h71l-71 -452q-15 -96 28.5 -157t129.5 -61q88 0 153.5 63t81.5 163zM399 772l-5 6l105 143q17 0 30.5 -2.5t18.5 -4.5l5 -3l-1 -7l-129 -132h-24z" />
    <glyph glyph-name="Ucircumflex" unicode="&#xdb;" horiz-adv-x="681" 
d="M554 256l70 444h37l-70 -443q-18 -116 -98.5 -190t-194.5 -74t-170 74t-37 190l70 443h71l-71 -452q-15 -96 28.5 -157t129.5 -61q88 0 153.5 63t81.5 163zM549 778l-7 -6h-27l-74 98l-104 -98h-28l-5 6l136 143h19z" />
    <glyph glyph-name="Udieresis" unicode="&#xdc;" horiz-adv-x="681" 
d="M554 256l70 444h37l-70 -443q-18 -116 -98.5 -190t-194.5 -74t-170 74t-37 190l70 443h71l-71 -452q-15 -96 28.5 -157t129.5 -61q88 0 153.5 63t81.5 163zM300 809q0 19 12 30.5t29 11.5q31 0 31 -31q0 -18 -11.5 -30t-29.5 -12q-31 0 -31 31zM493 809q0 19 11.5 30.5
t29.5 11.5q31 0 31 -31q0 -18 -11.5 -30t-29.5 -12q-31 0 -31 31z" />
    <glyph glyph-name="Yacute" unicode="&#xdd;" 
d="M638 700l-292 -379l-50 -321h-71l49 317l-78 170q-25 56 -50 107.5t-38 74.5l-12 23l1 8h88l151 -337l257 337h45zM347 772l-5 6l105 143q17 0 30.5 -2.5t18.5 -4.5l5 -3l-1 -7l-129 -132h-24z" />
    <glyph glyph-name="Thorn" unicode="&#xde;" horiz-adv-x="585" 
d="M57 0l111 700h71l-23 -141h136q95 0 147.5 -44.5t52.5 -128.5q0 -101 -73 -163t-190 -62h-136l-25 -161h-71zM335 523h-124l-52 -326h124q86 0 140 51.5t54 135.5q0 68 -37 103.5t-105 35.5z" />
    <glyph glyph-name="germandbls" unicode="&#xdf;" horiz-adv-x="559" 
d="M42 -35l95 599q30 194 208 194q142 0 142 -128q0 -36 -9.5 -67.5t-22.5 -51t-26 -33.5t-23 -20l-9 -6q-36 0 -61 -26.5t-25 -65.5q0 -29 19 -47.5t70 -51.5q54 -35 75 -58.5t21 -64.5q0 -69 -42.5 -107t-123.5 -38q-45 0 -78 15t-44 30l-11 15q2 14 9 26t13 17l6 5h8
q1 -3 3.5 -8t11 -18t19 -23t29 -18t39.5 -8q46 0 72.5 25.5t26.5 66.5q0 16 -4.5 28t-20 25t-26 20t-40.5 25q-48 27 -71 52t-23 69q0 33 11 59.5t26.5 41.5t31.5 25t27 13l11 4q4 0 18.5 13t32 49t17.5 84q0 96 -86 96q-108 0 -132 -153l-92 -585q-8 -48 -30 -90.5t-48 -69
t-51 -46t-41 -28.5l-17 -8l-11 15q4 3 11.5 8.5t26.5 25.5t35 42t31.5 58t21.5 74z" />
    <glyph glyph-name="agrave" unicode="&#xe0;" horiz-adv-x="554" 
d="M492 426l-41 -253q-7 -44 -10 -85.5t-2 -60.5l1 -19l-8 -8h-61q-5 54 10 145l11 68l-2 4q-4 -9 -11.5 -24t-32.5 -54t-51 -68.5t-64.5 -53.5t-75.5 -24q-54 0 -82 44.5t-28 119.5q0 140 87.5 231.5t222.5 91.5q50 0 84 -13.5t43 -26.5zM118 156q0 -118 66 -118
q29 0 62 26t57 58t49 75.5t34 63t16 34.5l1 2l18 114q-2 4 -6.5 10t-25.5 16.5t-50 10.5q-88 0 -154.5 -85.5t-66.5 -206.5zM375 571l-6 -6h-25l-87 132l2 6q18 10 57 10z" />
    <glyph glyph-name="aacute" unicode="&#xe1;" horiz-adv-x="554" 
d="M492 426l-41 -253q-7 -44 -10 -85.5t-2 -60.5l1 -19l-8 -8h-61q-5 54 10 145l11 68l-2 4q-4 -9 -11.5 -24t-32.5 -54t-51 -68.5t-64.5 -53.5t-75.5 -24q-54 0 -82 44.5t-28 119.5q0 140 87.5 231.5t222.5 91.5q50 0 84 -13.5t43 -26.5zM118 156q0 -118 66 -118
q29 0 62 26t57 58t49 75.5t34 63t16 34.5l1 2l18 114q-2 4 -6.5 10t-25.5 16.5t-50 10.5q-88 0 -154.5 -85.5t-66.5 -206.5zM302 565l-5 6l105 142q17 0 30.5 -2.5t18.5 -4.5l5 -3l-1 -6l-129 -132h-24z" />
    <glyph glyph-name="acircumflex" unicode="&#xe2;" horiz-adv-x="554" 
d="M492 426l-41 -253q-7 -44 -10 -85.5t-2 -60.5l1 -19l-8 -8h-61q-5 54 10 145l11 68l-2 4q-4 -9 -11.5 -24t-32.5 -54t-51 -68.5t-64.5 -53.5t-75.5 -24q-54 0 -82 44.5t-28 119.5q0 140 87.5 231.5t222.5 91.5q50 0 84 -13.5t43 -26.5zM118 156q0 -118 66 -118
q29 0 62 26t57 58t49 75.5t34 63t16 34.5l1 2l18 114q-2 4 -6.5 10t-25.5 16.5t-50 10.5q-88 0 -154.5 -85.5t-66.5 -206.5zM469 571l-7 -6h-27l-74 98l-104 -98h-28l-5 6l136 142h19z" />
    <glyph glyph-name="atilde" unicode="&#xe3;" horiz-adv-x="554" 
d="M492 426l-41 -253q-7 -44 -10 -85.5t-2 -60.5l1 -19l-8 -8h-61q-5 54 10 145l11 68l-2 4q-4 -9 -11.5 -24t-32.5 -54t-51 -68.5t-64.5 -53.5t-75.5 -24q-54 0 -82 44.5t-28 119.5q0 140 87.5 231.5t222.5 91.5q50 0 84 -13.5t43 -26.5zM118 156q0 -118 66 -118
q29 0 62 26t57 58t49 75.5t34 63t16 34.5l1 2l18 114q-2 4 -6.5 10t-25.5 16.5t-50 10.5q-88 0 -154.5 -85.5t-66.5 -206.5zM312 650q23 0 44 -18t39 -18t36 10t27 20l9 9l11 -15q-4 -7 -11.5 -18t-32.5 -29t-52 -18q-23 0 -44 18t-39 18q-19 0 -37 -9.5t-26 -19.5l-9 -10
l-11 14q4 7 11.5 18t32.5 29.5t52 18.5z" />
    <glyph glyph-name="adieresis" unicode="&#xe4;" horiz-adv-x="554" 
d="M492 426l-41 -253q-7 -44 -10 -85.5t-2 -60.5l1 -19l-8 -8h-61q-5 54 10 145l11 68l-2 4q-4 -9 -11.5 -24t-32.5 -54t-51 -68.5t-64.5 -53.5t-75.5 -24q-54 0 -82 44.5t-28 119.5q0 140 87.5 231.5t222.5 91.5q50 0 84 -13.5t43 -26.5zM118 156q0 -118 66 -118q16 0 34 8
t34 22.5t32 32.5t30.5 39t27 41t24 40.5t18.5 34t13 25.5t6 13v1l-13 -78l13 77v1v2l18 114q-2 4 -6.5 10t-25.5 16.5t-50 10.5q-88 0 -154.5 -85.5t-66.5 -206.5zM408 602q0 18 11.5 30t29.5 12q31 0 31 -31q0 -18 -12 -30t-30 -12q-30 0 -30 31zM214 602q0 18 12 30t30 12
q30 0 30 -31q0 -18 -11.5 -30t-29.5 -12q-31 0 -31 31z" />
    <glyph glyph-name="aring" unicode="&#xe5;" horiz-adv-x="554" 
d="M492 426l-41 -253q-7 -44 -10 -85.5t-2 -60.5l1 -19l-8 -8h-61q-5 54 10 145l11 68l-2 4q-4 -9 -11.5 -24t-32.5 -54t-51 -68.5t-64.5 -53.5t-75.5 -24q-54 0 -82 44.5t-28 119.5q0 140 87.5 231.5t222.5 91.5q50 0 84 -13.5t43 -26.5zM118 156q0 -118 66 -118
q29 0 62 26t57 58t49 75.5t34 63t16 34.5l1 2l18 114q-2 4 -6.5 10t-25.5 16.5t-50 10.5q-88 0 -154.5 -85.5t-66.5 -206.5zM273 624q0 39 25 64.5t61 25.5q29 0 45 -17.5t16 -47.5q0 -39 -24.5 -65.5t-60.5 -26.5q-29 0 -45.5 18t-16.5 49zM306 629q0 -17 9 -28t25 -11
q20 0 34 15.5t14 37.5q0 17 -9 27.5t-25 10.5q-20 0 -34 -15t-14 -37z" />
    <glyph glyph-name="ae" unicode="&#xe6;" horiz-adv-x="772" 
d="M699 90l11 -14q-3 -3 -8 -9t-22.5 -20t-37.5 -25t-52.5 -20t-66.5 -9q-122 0 -168 96q-17 -17 -38.5 -35t-70.5 -39.5t-99 -21.5q-110 0 -110 101q0 58 41.5 96t143.5 53l117 15q2 10 4 15l12 80q15 96 -76 96q-55 0 -90 -34t-35 -88l2 -20l-9 -8q-16 0 -29 2t-18 4l-6 2
q-3 9 -3 23q0 65 52.5 107.5t139.5 42.5q116 0 129 -82q79 82 194 82q70 0 98.5 -29.5t28.5 -68.5q0 -54 -50 -94t-121.5 -58.5t-152.5 -20.5v-9q0 -80 36 -122.5t105 -42.5q40 0 77.5 13.5t54.5 27.5zM599 449q-71 0 -124 -59.5t-64 -149.5q44 1 86.5 9t83.5 24t66 45.5
t25 67.5q0 63 -73 63zM110 108q0 -72 74 -72q79 0 161 79q-12 36 -12 82q0 20 1 29l-110 -14q-114 -16 -114 -104z" />
    <glyph glyph-name="ccedilla" unicode="&#xe7;" horiz-adv-x="482" 
d="M187 -72l21 66q-80 5 -121.5 58.5t-41.5 143.5q0 122 71.5 203t191.5 81q71 0 107.5 -29.5t36.5 -81.5q0 -17 -4 -32.5t-8 -22.5l-4 -7q-19 -8 -55 -8l-5 8q14 27 14 63q0 79 -86 79q-83 0 -132.5 -74.5t-49.5 -177.5q0 -162 131 -162q40 0 77 13.5t54 27.5l17 14l12 -14
q-2 -3 -7 -8.5t-21.5 -19.5t-35.5 -24.5t-49.5 -20t-63.5 -10.5l-15 -47q24 0 38.5 -14t14.5 -39q0 -31 -23 -51t-56 -20q-22 0 -37.5 9t-19.5 18l-5 9l15 13q13 -19 42 -19q20 0 32 10.5t12 28.5q0 31 -42 31z" />
    <glyph glyph-name="egrave" unicode="&#xe8;" horiz-adv-x="483" 
d="M396 90l11 -14q-3 -3 -8 -9t-22.5 -20t-37.5 -25t-52 -20t-66 -9q-87 0 -131 53.5t-44 143.5q0 127 79 208.5t193 81.5q70 0 99 -29.5t29 -68.5q0 -54 -49.5 -94t-121 -58.5t-153.5 -20.5v-17q0 -157 126 -157q40 0 77 13.5t54 27.5zM312 449q-71 0 -123 -57.5
t-64 -151.5q44 2 86.5 10t83 24t65.5 45t25 67q0 63 -73 63zM340 571l-6 -6h-25l-87 132l1 6q19 10 58 10z" />
    <glyph glyph-name="eacute" unicode="&#xe9;" horiz-adv-x="483" 
d="M396 90l11 -14q-3 -3 -8 -9t-22.5 -20t-37.5 -25t-52 -20t-66 -9q-87 0 -131 53.5t-44 143.5q0 127 79 208.5t193 81.5q70 0 99 -29.5t29 -68.5q0 -54 -49.5 -94t-121 -58.5t-153.5 -20.5v-17q0 -157 126 -157q40 0 77 13.5t54 27.5zM312 449q-71 0 -123 -57.5
t-64 -151.5q44 2 86.5 10t83 24t65.5 45t25 67q0 63 -73 63zM267 565l-5 6l105 142q17 0 30.5 -2.5t18.5 -4.5l5 -3l-1 -6l-129 -132h-24z" />
    <glyph glyph-name="ecircumflex" unicode="&#xea;" horiz-adv-x="483" 
d="M396 90l11 -14q-3 -3 -8 -9t-22.5 -20t-37.5 -25t-52 -20t-66 -9q-87 0 -131 53.5t-44 143.5q0 127 79 208.5t193 81.5q70 0 99 -29.5t29 -68.5q0 -54 -49.5 -94t-121 -58.5t-153.5 -20.5v-17q0 -157 126 -157q40 0 77 13.5t54 27.5zM312 449q-71 0 -123 -57.5
t-64 -151.5q44 2 86.5 10t83 24t65.5 45t25 67q0 63 -73 63zM434 571l-8 -6h-27l-73 98l-105 -98h-27l-5 6l135 142h20z" />
    <glyph glyph-name="edieresis" unicode="&#xeb;" horiz-adv-x="483" 
d="M396 90l11 -14q-3 -3 -8 -9t-22.5 -20t-37.5 -25t-52 -20t-66 -9q-87 0 -131 53.5t-44 143.5q0 127 79 208.5t193 81.5q70 0 99 -29.5t29 -68.5q0 -54 -49.5 -94t-121 -58.5t-153.5 -20.5v-17q0 -157 126 -157q40 0 77 13.5t54 27.5zM312 449q-71 0 -123 -57.5
t-64 -151.5q44 2 86.5 10t83 24t65.5 45t25 67q0 63 -73 63zM179 602q0 18 12 30t29 12q31 0 31 -31q0 -18 -11.5 -30t-29.5 -12q-31 0 -31 31zM372 602q0 18 12 30t29 12q31 0 31 -31q0 -18 -11.5 -30t-30.5 -12q-30 0 -30 31z" />
    <glyph glyph-name="igrave" unicode="&#xec;" horiz-adv-x="246" 
d="M206 571l-6 -6h-25l-87 132l1 6q19 10 58 10zM49 0l48 300l22 165l7 8h61q-6 -73 -22 -173l-48 -300h-68z" />
    <glyph glyph-name="iacute" unicode="&#xed;" horiz-adv-x="246" 
d="M125 565l-5 6l105 142q17 0 30.5 -2.5t18.5 -4.5l5 -3l-1 -6l-129 -132h-24zM49 0l48 300l22 165l7 8h61q-6 -73 -22 -173l-48 -300h-68z" />
    <glyph glyph-name="icircumflex" unicode="&#xee;" horiz-adv-x="246" 
d="M49 0l48 300l22 165l7 8h61q-6 -73 -22 -173l-48 -300h-68zM292 571l-8 -6h-27l-73 98l-105 -98h-27l-5 6l135 142h20z" />
    <glyph glyph-name="idieresis" unicode="&#xef;" horiz-adv-x="246" 
d="M37 602q0 18 12 30t29 12q31 0 31 -31q0 -18 -11.5 -30t-29.5 -12q-31 0 -31 31zM230 602q0 18 12 30t29 12q31 0 31 -31q0 -18 -11.5 -30t-30.5 -12q-30 0 -30 31zM49 0l48 300l22 165l7 8h61q-6 -73 -22 -173l-48 -300h-68z" />
    <glyph glyph-name="eth" unicode="&#xf0;" horiz-adv-x="551" 
d="M282 553l-21 26l80 75q-25 28 -54 48t-45 26l-17 6l26 23q60 -17 122 -73l78 73l21 -26l-75 -70q131 -143 102 -388q-1 -119 -77 -199.5t-187 -80.5q-89 0 -139 55t-50 149q0 120 76 201.5t186 81.5q76 0 126 -42q-14 110 -72 189zM120 180q0 -72 31.5 -114t89.5 -42
q75 0 129.5 83t54.5 186q0 72 -32.5 114t-89.5 42q-75 0 -129 -83t-54 -186z" />
    <glyph glyph-name="ntilde" unicode="&#xf1;" horiz-adv-x="561" 
d="M365 0l54 341q15 93 -49 93q-31 0 -65 -26t-59 -58.5t-50 -75.5t-34.5 -62.5t-16.5 -34.5v-1l-28 -176h-68l48 300q4 28 7 55.5t4 46t1.5 33.5t0.5 23l-1 7l7 8h61q5 -54 -10 -145l-11 -69l3 -3q4 9 11.5 24t32.5 54t51.5 68.5t66.5 53.5t79 24q51 0 74.5 -35t12.5 -104
l-53 -341h-69zM296 650q23 0 44 -18t39 -18t36 10t27 20l9 9l11 -15q-4 -7 -12 -18t-33 -29t-51 -18q-23 0 -44 18t-40 18q-18 0 -36 -9.5t-26 -19.5l-9 -10l-12 14q4 7 12 18t33 29.5t52 18.5z" />
    <glyph glyph-name="ograve" unicode="&#xf2;" horiz-adv-x="543" 
d="M46 197q0 120 74.5 201.5t183.5 81.5q87 0 137.5 -55t50.5 -150q0 -120 -75 -201t-185 -81q-87 0 -136.5 55t-49.5 149zM120 180q0 -72 31 -114t87 -42q74 0 127 83t53 186q0 72 -31.5 114t-87.5 42q-74 0 -126.5 -83t-52.5 -186zM350 571l-6 -6h-25l-87 132l2 6
q18 10 57 10z" />
    <glyph glyph-name="oacute" unicode="&#xf3;" horiz-adv-x="543" 
d="M46 197q0 120 74.5 201.5t183.5 81.5q87 0 137.5 -55t50.5 -150q0 -120 -75 -201t-185 -81q-87 0 -136.5 55t-49.5 149zM120 180q0 -72 31 -114t87 -42q74 0 127 83t53 186q0 72 -31.5 114t-87.5 42q-74 0 -126.5 -83t-52.5 -186zM277 565l-5 6l105 142q17 0 30.5 -2.5
t18.5 -4.5l5 -3l-1 -6l-129 -132h-24z" />
    <glyph glyph-name="ocircumflex" unicode="&#xf4;" horiz-adv-x="543" 
d="M46 197q0 120 74.5 201.5t183.5 81.5q87 0 137.5 -55t50.5 -150q0 -120 -75 -201t-185 -81q-87 0 -136.5 55t-49.5 149zM120 180q0 -72 31 -114t87 -42q74 0 127 83t53 186q0 72 -31.5 114t-87.5 42q-74 0 -126.5 -83t-52.5 -186zM444 571l-7 -6h-28l-73 98l-104 -98h-28
l-5 6l135 142h20z" />
    <glyph glyph-name="otilde" unicode="&#xf5;" horiz-adv-x="543" 
d="M46 197q0 120 74.5 201.5t183.5 81.5q87 0 137.5 -55t50.5 -150q0 -120 -75 -201t-185 -81q-87 0 -136.5 55t-49.5 149zM120 180q0 -72 31 -114t87 -42q74 0 127 83t53 186q0 72 -31.5 114t-87.5 42q-74 0 -126.5 -83t-52.5 -186zM287 650q23 0 44 -18t39 -18q19 0 37 10
t27 20l8 9l11 -15q-4 -7 -11.5 -18t-32.5 -29t-52 -18q-23 0 -44 18t-39 18q-19 0 -37 -9.5t-27 -19.5l-8 -10l-11 14q4 7 11.5 18t32.5 29.5t52 18.5z" />
    <glyph glyph-name="odieresis" unicode="&#xf6;" horiz-adv-x="543" 
d="M46 197q0 120 74.5 201.5t183.5 81.5q87 0 137.5 -55t50.5 -150q0 -120 -75 -201t-185 -81q-87 0 -136.5 55t-49.5 149zM120 180q0 -72 31 -114t87 -42q74 0 127 83t53 186q0 72 -31.5 114t-87.5 42q-74 0 -126.5 -83t-52.5 -186zM189 602q0 18 12 30t29 12q31 0 31 -31
q0 -18 -11.5 -30t-29.5 -12q-31 0 -31 31zM382 602q0 18 12 30t30 12q30 0 30 -31q0 -18 -11.5 -30t-29.5 -12q-31 0 -31 31z" />
    <glyph glyph-name="divide" unicode="&#xf7;" 
d="M101 307v36h396v-36h-396zM262 161q0 17 10 26.5t26 9.5q17 0 27 -9.5t10 -26.5t-10 -27t-27 -10q-16 0 -26 10t-10 27zM262 489q0 17 10 27t26 10t26.5 -10t10.5 -27q0 -16 -10 -26t-27 -10q-16 0 -26 9.5t-10 26.5z" />
    <glyph glyph-name="oslash" unicode="&#xf8;" horiz-adv-x="543" 
d="M61 -1l37 46q-52 55 -52 152q0 120 74.5 201.5t183.5 81.5q65 0 112 -33l32 40l25 -17l-34 -43q53 -55 53 -152q0 -120 -75 -201t-185 -81q-66 0 -112 32l-34 -43zM118 183q0 -56 16 -92l252 317q-33 41 -87 41q-75 0 -128 -80.5t-53 -185.5zM419 290q0 52 -17 91
l-251 -317q31 -40 86 -40q75 0 128.5 80t53.5 186z" />
    <glyph glyph-name="ugrave" unicode="&#xf9;" horiz-adv-x="559" 
d="M126 473h61q-5 -73 -21 -173l-27 -168q-15 -94 49 -94q101 0 221 257l-13 -78l14 79v1l26 168l8 8h62l-48 -300q-4 -28 -7 -55.5t-4 -46t-1.5 -33.5t0.5 -22v-8l-7 -8h-61q-5 54 10 145l11 68l-3 4q-2 -5 -6 -13t-17 -31t-27 -44.5t-36 -47t-44 -44.5t-51 -31.5
t-57 -12.5q-50 0 -74 35.5t-13 103.5l27 168q7 44 12 85.5t6 60.5l2 19zM358 571l-6 -6h-25l-87 132l1 6q19 10 58 10zM410 296v1l-1 -2z" />
    <glyph glyph-name="uacute" unicode="&#xfa;" horiz-adv-x="559" 
d="M126 473h61q-5 -73 -21 -173l-27 -168q-15 -94 49 -94q35 0 74 33t70 82.5t48.5 82.5t27.5 56l1 3l1 2l26 168l8 8h62l-48 -300q-4 -28 -7 -55.5t-4 -46t-1.5 -33.5t0.5 -22v-8l-7 -8h-61q-5 54 10 145l11 68l-3 4q-2 -5 -6 -13t-17 -31t-27 -44.5t-36 -47t-44 -44.5
t-51 -31.5t-57 -12.5q-50 0 -74 35.5t-13 103.5l27 168q7 44 12 85.5t6 60.5l2 19zM285 565l-5 6l105 142q17 0 30.5 -2.5t18.5 -4.5l5 -3l-1 -6l-129 -132h-24z" />
    <glyph glyph-name="ucircumflex" unicode="&#xfb;" horiz-adv-x="559" 
d="M126 473h61q-5 -73 -21 -173l-27 -168q-15 -94 49 -94q35 0 74 33t70 82.5t48.5 82.5t27.5 56l1 3l1 2l26 168l8 8h62l-48 -300q-4 -28 -7 -55.5t-4 -46t-1.5 -33.5t0.5 -22v-8l-7 -8h-61q-5 54 10 145l11 68l-3 4q-2 -5 -6 -13t-17 -31t-27 -44.5t-36 -47t-44 -44.5
t-51 -31.5t-57 -12.5q-50 0 -74 35.5t-13 103.5l27 168q7 44 12 85.5t6 60.5l2 19zM452 571l-7 -6h-28l-73 98l-104 -98h-28l-5 6l135 142h20z" />
    <glyph glyph-name="udieresis" unicode="&#xfc;" horiz-adv-x="559" 
d="M126 473h61q-5 -73 -21 -173l-27 -168q-15 -94 49 -94q35 0 74 33t70 82.5t48.5 82.5t27.5 56l1 3l1 2l26 168l8 8h62l-48 -300q-4 -28 -7 -55.5t-4 -46t-1.5 -33.5t0.5 -22v-8l-7 -8h-61q-5 54 10 145l11 68l-3 4q-2 -5 -6 -13t-17 -31t-27 -44.5t-36 -47t-44 -44.5
t-51 -31.5t-57 -12.5q-50 0 -74 35.5t-13 103.5l27 168q7 44 12 85.5t6 60.5l2 19zM390 602q0 18 12 30t30 12q31 0 31 -31q0 -18 -12 -30t-30 -12q-31 0 -31 31zM197 602q0 18 12 30t29 12q31 0 31 -31q0 -18 -11.5 -30t-29.5 -12q-31 0 -31 31z" />
    <glyph glyph-name="yacute" unicode="&#xfd;" horiz-adv-x="489" 
d="M-55 -257q-9 0 -19 2.5t-15 4.5l-5 2q0 18 4.5 33.5t9.5 22.5l4 6q16 -9 36 -9q38 0 97 50.5t124 133.5l-73 311q-12 53 -24.5 94.5t-18.5 57.5l-6 15l5 6h72l94 -420q76 107 127 211t51 161q0 11 -2 21.5t-4 15.5l-1 4l6 7h48q6 -15 6 -34q0 -56 -59.5 -173.5
t-140 -232.5t-171 -202.5t-145.5 -87.5zM246 565l-6 6l105 142q17 0 31 -2.5t19 -4.5l5 -3l-1 -6l-130 -132h-23z" />
    <glyph glyph-name="thorn" unicode="&#xfe;" horiz-adv-x="554" 
d="M9 -250l115 723q12 74 19.5 141t8.5 98l2 30l8 8h61q-4 -110 -30 -277l-13 -84l-24 -130l3 -3q4 9 11.5 24t32 54t50.5 68.5t64 53.5t75 24q54 0 82.5 -44.5t28.5 -119.5q0 -139 -87.5 -231t-213.5 -92q-52 0 -83 17l-41 -260h-69zM430 316q0 118 -66 118q-36 0 -75 -35
t-71.5 -89t-48 -83t-24.5 -50v-1l-18 -114q2 -4 6.5 -10.5t25.5 -17t50 -10.5q88 0 154.5 85.5t66.5 206.5z" />
    <glyph glyph-name="ydieresis" unicode="&#xff;" horiz-adv-x="489" 
d="M-55 -257q-9 0 -19 2.5t-15 4.5l-5 2q0 18 4.5 33.5t9.5 22.5l4 6q16 -9 36 -9q38 0 97 50.5t124 133.5l-73 311q-12 53 -24.5 94.5t-18.5 57.5l-6 15l5 6h72l94 -420q76 107 127 211t51 161q0 11 -2 21.5t-4 15.5l-1 4l6 7h48q6 -15 6 -34q0 -56 -59.5 -173.5
t-140 -232.5t-171 -202.5t-145.5 -87.5zM351 602q0 18 12 30t29 12q31 0 31 -31q0 -18 -11.5 -30t-30.5 -12q-30 0 -30 31zM158 602q0 18 12 30t29 12q31 0 31 -31q0 -18 -11.5 -30t-29.5 -12q-31 0 -31 31z" />
    <glyph glyph-name="Amacron" unicode="&#x100;" horiz-adv-x="658" 
d="M143 210l-114 -210h-41l367 674l-6 18l1 8h79l162 -700h-74l-48 210h-326zM396 527q-13 54 -26 101l-208 -382h298zM305 802l6 36h217l-6 -36h-217z" />
    <glyph glyph-name="amacron" unicode="&#x101;" horiz-adv-x="554" 
d="M492 426l-41 -253q-7 -44 -10 -85.5t-2 -60.5l1 -19l-8 -8h-61q-5 54 10 145l11 68l-2 4q-4 -9 -11.5 -24t-32.5 -54t-51 -68.5t-64.5 -53.5t-75.5 -24q-54 0 -82 44.5t-28 119.5q0 140 87.5 231.5t222.5 91.5q50 0 84 -13.5t43 -26.5zM118 156q0 -118 66 -118
q28 0 60.5 25t55.5 55.5t49 74.5t34.5 62t18.5 39l1 2v1l18 114q-2 4 -6.5 10t-25.5 16.5t-50 10.5q-88 0 -154.5 -85.5t-66.5 -206.5zM235 595l6 36h217l-6 -36h-217z" />
    <glyph glyph-name="Abreve" unicode="&#x102;" horiz-adv-x="658" 
d="M143 210l-114 -210h-41l367 674l-6 18l1 8h79l162 -700h-74l-48 210h-326zM396 527q-13 54 -26 101l-208 -382h298zM299 859l17 14q3 -6 10 -16t32.5 -26t56.5 -16t61 14.5t44 28.5l14 15l11 -14q-2 -3 -5.5 -9t-16.5 -20.5t-27.5 -26t-38 -20.5t-48.5 -9q-40 0 -67.5 21
t-35.5 43z" />
    <glyph glyph-name="abreve" unicode="&#x103;" horiz-adv-x="554" 
d="M492 426l-41 -253q-7 -44 -10 -85.5t-2 -60.5l1 -19l-8 -8h-61q-5 54 10 145l11 68l-2 4q-4 -9 -11.5 -24t-32.5 -54t-51 -68.5t-64.5 -53.5t-75.5 -24q-54 0 -82 44.5t-28 119.5q0 140 87.5 231.5t222.5 91.5q50 0 84 -13.5t43 -26.5zM118 156q0 -118 66 -118q16 0 34 8
t34 22.5t32 32.5t30.5 39t27 41t24 40.5t18.5 34t13 25.5t6 13v1l-13 -78l13 77v1v2l18 114q-2 4 -6.5 10t-25.5 16.5t-50 10.5q-88 0 -154.5 -85.5t-66.5 -206.5zM224 651l17 15q3 -6 10 -16t32.5 -26t56.5 -16t60.5 14.5t43.5 29.5l14 14l12 -15q-2 -3 -5.5 -9
t-16.5 -20.5t-27.5 -25.5t-38 -20t-48.5 -9q-40 0 -67.5 21t-34.5 42z" />
    <glyph glyph-name="Aogonek" unicode="&#x104;" horiz-adv-x="658" 
d="M143 210l-114 -210h-41l367 674l-6 18l1 8h79l162 -700h-17q-47 -44 -47 -93q0 -36 33 -36q9 0 17 2.5t12 5.5l4 3l12 -15q-21 -29 -59 -29q-26 0 -42.5 16t-16.5 46q0 28 14.5 53t28.5 36l15 11h-28l-48 210h-326zM396 527q-13 54 -26 101l-208 -382h298z" />
    <glyph glyph-name="aogonek" unicode="&#x105;" horiz-adv-x="554" 
d="M492 426l-41 -253q-7 -44 -10 -85.5t-2 -60.5l1 -19l-8 -8h-7q-42 -42 -42 -89q0 -36 32 -36q9 0 17.5 2.5t12.5 4.5l4 3l11 -15q-21 -28 -59 -28q-26 0 -42.5 16t-16.5 46q0 54 53 96h-24q-5 54 10 145l11 68l-2 4q-4 -9 -11.5 -24t-32.5 -54t-51 -68.5t-64.5 -53.5
t-75.5 -24q-54 0 -82 44.5t-28 119.5q0 140 87.5 231.5t222.5 91.5q50 0 84 -13.5t43 -26.5zM118 156q0 -118 66 -118q29 0 62 26t57 58t49 75.5t34 63t16 34.5l-12 -78l13 79v1l18 114q-2 4 -6.5 10t-25.5 16.5t-50 10.5q-88 0 -154.5 -85.5t-66.5 -206.5zM403 296v1l-1 -2
z" />
    <glyph glyph-name="Cacute" unicode="&#x106;" horiz-adv-x="679" 
d="M445 675q-128 0 -211.5 -109.5t-83.5 -270.5q0 -123 54.5 -189t157.5 -66q57 0 111.5 19.5t80.5 38.5l27 20l12 -16q-4 -4 -11 -11.5t-31.5 -26.5t-52 -33t-71 -26t-89.5 -12q-125 0 -196 80t-71 219q0 175 107.5 295t272.5 120q101 0 155.5 -46.5t54.5 -124.5
q0 -24 -5.5 -44t-10.5 -28l-5 -7q-24 -7 -63 -7l-6 7q20 30 20 84q0 63 -38 98.5t-108 35.5zM422 772l-5 6l105 143q17 0 30.5 -2.5t18.5 -4.5l5 -3l-1 -7l-129 -132h-24z" />
    <glyph glyph-name="cacute" unicode="&#x107;" horiz-adv-x="482" 
d="M401 90l12 -14q-3 -3 -8 -9t-22.5 -20t-37 -25t-52 -20t-66.5 -9q-88 0 -135 54t-47 149q0 122 71.5 203t191.5 81q71 0 107.5 -29.5t36.5 -81.5q0 -17 -4 -32.5t-8 -22.5l-4 -7q-19 -8 -55 -8l-5 8q14 27 14 63q0 79 -86 79q-83 0 -132.5 -74.5t-49.5 -177.5
q0 -162 131 -162q40 0 77 13.5t54 27.5zM269 565l-5 6l105 142q17 0 30.5 -2.5t18.5 -4.5l5 -3l-1 -6l-129 -132h-24z" />
    <glyph glyph-name="Ccircumflex" unicode="&#x108;" horiz-adv-x="679" 
d="M445 675q-128 0 -211.5 -109.5t-83.5 -270.5q0 -123 54.5 -189t157.5 -66q57 0 111.5 19.5t80.5 38.5l27 20l12 -16q-4 -4 -11 -11.5t-31.5 -26.5t-52 -33t-71 -26t-89.5 -12q-125 0 -196 80t-71 219q0 175 107.5 295t272.5 120q101 0 155.5 -46.5t54.5 -124.5
q0 -24 -5.5 -44t-10.5 -28l-5 -7q-24 -7 -63 -7l-6 7q20 30 20 84q0 63 -38 98.5t-108 35.5zM572 778l-7 -6h-27l-74 98l-104 -98h-28l-5 6l136 143h19z" />
    <glyph glyph-name="ccircumflex" unicode="&#x109;" horiz-adv-x="482" 
d="M401 90l12 -14q-3 -3 -8 -9t-22.5 -20t-37 -25t-52 -20t-66.5 -9q-88 0 -135 54t-47 149q0 122 71.5 203t191.5 81q71 0 107.5 -29.5t36.5 -81.5q0 -17 -4 -32.5t-8 -22.5l-4 -7q-19 -8 -55 -8l-5 8q14 27 14 63q0 79 -86 79q-83 0 -132.5 -74.5t-49.5 -177.5
q0 -162 131 -162q40 0 77 13.5t54 27.5zM436 571l-7 -6h-28l-73 98l-104 -98h-28l-5 6l135 142h20z" />
    <glyph glyph-name="Cdotaccent" unicode="&#x10a;" horiz-adv-x="679" 
d="M445 675q-128 0 -211.5 -109.5t-83.5 -270.5q0 -123 54.5 -189t157.5 -66q57 0 111.5 19.5t80.5 38.5l27 20l12 -16q-4 -4 -11 -11.5t-31.5 -26.5t-52 -33t-71 -26t-89.5 -12q-125 0 -196 80t-71 219q0 175 107.5 295t272.5 120q101 0 155.5 -46.5t54.5 -124.5
q0 -24 -5.5 -44t-10.5 -28l-5 -7q-24 -7 -63 -7l-6 7q20 30 20 84q0 63 -38 98.5t-108 35.5zM420 833q0 19 13 32t32 13q33 0 33 -34q0 -20 -13 -32.5t-32 -12.5q-15 0 -24 9t-9 25z" />
    <glyph glyph-name="cdotaccent" unicode="&#x10b;" horiz-adv-x="482" 
d="M401 90l12 -14q-3 -3 -8 -9t-22.5 -20t-37 -25t-52 -20t-66.5 -9q-88 0 -135 54t-47 149q0 122 71.5 203t191.5 81q71 0 107.5 -29.5t36.5 -81.5q0 -17 -4 -32.5t-8 -22.5l-4 -7q-19 -8 -55 -8l-5 8q14 27 14 63q0 79 -86 79q-83 0 -132.5 -74.5t-49.5 -177.5
q0 -162 131 -162q40 0 77 13.5t54 27.5zM275 620q0 20 12.5 32.5t32.5 12.5q15 0 24 -9t9 -25q0 -19 -13 -32t-32 -13q-15 0 -24 9.5t-9 24.5z" />
    <glyph glyph-name="Ccaron" unicode="&#x10c;" horiz-adv-x="679" 
d="M445 675q-128 0 -211.5 -109.5t-83.5 -270.5q0 -123 54.5 -189t157.5 -66q57 0 111.5 19.5t80.5 38.5l27 20l12 -16q-4 -4 -11 -11.5t-31.5 -26.5t-52 -33t-71 -26t-89.5 -12q-125 0 -196 80t-71 219q0 175 107.5 295t272.5 120q101 0 155.5 -46.5t54.5 -124.5
q0 -24 -5.5 -44t-10.5 -28l-5 -7q-24 -7 -63 -7l-6 7q20 30 20 84q0 63 -38 98.5t-108 35.5zM589 916l5 -7l-135 -142h-20l-90 142l7 7h27l74 -99l104 99h28z" />
    <glyph glyph-name="ccaron" unicode="&#x10d;" horiz-adv-x="482" 
d="M401 90l12 -14q-3 -3 -8 -9t-22.5 -20t-37 -25t-52 -20t-66.5 -9q-88 0 -135 54t-47 149q0 122 71.5 203t191.5 81q71 0 107.5 -29.5t36.5 -81.5q0 -17 -4 -32.5t-8 -22.5l-4 -7q-19 -8 -55 -8l-5 8q14 27 14 63q0 79 -86 79q-83 0 -132.5 -74.5t-49.5 -177.5
q0 -162 131 -162q40 0 77 13.5t54 27.5zM431 708l5 -6l-135 -142h-20l-90 142l7 6h28l73 -98l105 98h27z" />
    <glyph glyph-name="Dcaron" unicode="&#x10e;" horiz-adv-x="711" 
d="M57 0l111 700h239q123 0 193.5 -79.5t70.5 -214.5q0 -172 -108 -289t-267 -117h-239zM399 664h-166l-100 -628h166q125 0 209.5 107t84.5 267q0 119 -51.5 186.5t-142.5 67.5zM574 916l5 -7l-135 -142h-20l-90 142l7 7h28l74 -99l104 99h27z" />
    <glyph glyph-name="dcaron" unicode="&#x10f;" horiz-adv-x="646" 
d="M500 473l-49 -300q-7 -44 -10 -85.5t-2 -60.5l1 -19l-8 -8h-61q-5 54 10 145l11 68l-2 4q-4 -9 -11.5 -24t-32.5 -54t-51 -68.5t-64 -53.5t-75 -24q-54 0 -82.5 44.5t-28.5 119.5q0 139 88 231t215 92q49 0 81 -16l2 9q12 74 19.5 141.5t9.5 97.5l2 30l7 8h62
q-4 -106 -31 -277zM118 156q0 -118 66 -118q29 0 62 26t57 58t49 75.5t34 63t16 34.5l1 2l18 116q-20 35 -82 35q-88 0 -154.5 -85.5t-66.5 -206.5zM597 579l-9 12q7 6 16.5 18t26 49t16.5 74l-1 20l5 5q13 0 24.5 -2t16.5 -4l5 -2q1 -4 1 -14q0 -27 -10.5 -53t-25 -43.5
t-29.5 -31.5t-25 -21z" />
    <glyph glyph-name="Dcroat" unicode="&#x110;" horiz-adv-x="711" 
d="M46 341l6 36h64l52 323h239q123 0 193.5 -79.5t70.5 -214.5q0 -172 -108 -289t-267 -117h-239l54 341h-65zM399 664h-166l-46 -287h155l-6 -36h-154l-49 -305h166q125 0 209.5 107.5t84.5 266.5q0 120 -51.5 187t-142.5 67z" />
    <glyph glyph-name="dcroat" unicode="&#x111;" horiz-adv-x="554" 
d="M315 586l6 36h130l11 120l7 8h62q-3 -50 -11 -128h66l-6 -36h-64q-6 -53 -16 -113l-49 -300q-7 -44 -10 -85.5t-2 -60.5l1 -19l-8 -8h-61q-5 54 10 145l11 68l-2 4q-4 -9 -11.5 -24t-32.5 -54t-51 -68.5t-64 -53.5t-75 -24q-54 0 -82.5 44.5t-28.5 119.5q0 139 88 231
t215 92q49 0 81 -16l2 9q15 106 16 113h-132zM118 156q0 -118 66 -118q29 0 62 26t57 58t49 75.5t34 63t16 34.5l1 2l18 116q-20 35 -82 35q-88 0 -154.5 -85.5t-66.5 -206.5z" />
    <glyph glyph-name="Emacron" unicode="&#x112;" horiz-adv-x="565" 
d="M57 0l111 700h399l-7 -44l-8 -7q-42 16 -147 16h-172l-46 -291h272l5 -6l-4 -30h-279l-47 -303h180q47 0 85 4t53 8l14 4l6 -7l-7 -44h-408zM276 802l6 36h217l-6 -36h-217z" />
    <glyph glyph-name="emacron" unicode="&#x113;" horiz-adv-x="483" 
d="M396 90l11 -14q-3 -3 -8 -9t-22.5 -20t-37.5 -25t-52 -20t-66 -9q-87 0 -131 53.5t-44 143.5q0 127 79 208.5t193 81.5q70 0 99 -29.5t29 -68.5q0 -54 -49.5 -94t-121 -58.5t-153.5 -20.5v-17q0 -157 126 -157q40 0 77 13.5t54 27.5zM312 449q-71 0 -123 -57.5
t-64 -151.5q44 2 86.5 10t83 24t65.5 45t25 67q0 63 -73 63zM200 595l6 36h216l-5 -36h-217z" />
    <glyph glyph-name="Ebreve" unicode="&#x114;" horiz-adv-x="565" 
d="M57 0l111 700h399l-7 -44l-8 -7q-42 16 -147 16h-172l-46 -291h272l5 -6l-4 -30h-279l-47 -303h180q47 0 85 4t53 8l14 4l6 -7l-7 -44h-408zM271 859l17 14q3 -6 10 -16t32.5 -26t56.5 -16t60.5 14.5t43.5 28.5l14 15l12 -14q-2 -3 -5.5 -9t-16.5 -20.5t-27.5 -26
t-38 -20.5t-48.5 -9q-40 0 -67.5 21t-35.5 43z" />
    <glyph glyph-name="ebreve" unicode="&#x115;" horiz-adv-x="483" 
d="M396 90l11 -14q-3 -3 -8 -9t-22.5 -20t-37.5 -25t-52 -20t-66 -9q-87 0 -131 53.5t-44 143.5q0 127 79 208.5t193 81.5q70 0 99 -29.5t29 -68.5q0 -54 -49.5 -94t-121 -58.5t-153.5 -20.5v-17q0 -157 126 -157q40 0 77 13.5t54 27.5zM312 449q-71 0 -123 -57.5
t-64 -151.5q44 2 86.5 10t83 24t65.5 45t25 67q0 63 -73 63zM188 651l17 15q3 -6 10 -16t32.5 -26t57.5 -16q31 0 60.5 14.5t43.5 29.5l14 14l11 -15q-2 -3 -5.5 -9t-16.5 -20.5t-27.5 -25.5t-38 -20t-48.5 -9q-40 0 -67.5 21t-34.5 42z" />
    <glyph glyph-name="Edotaccent" unicode="&#x116;" horiz-adv-x="565" 
d="M57 0l111 700h399l-7 -44l-8 -7q-42 16 -147 16h-172l-46 -291h272l5 -6l-4 -30h-279l-47 -303h180q47 0 85 4t53 8l14 4l6 -7l-7 -44h-408zM351 833q0 19 13 32t32 13q34 0 34 -34q0 -20 -13 -32.5t-32 -12.5q-34 0 -34 34z" />
    <glyph glyph-name="edotaccent" unicode="&#x117;" horiz-adv-x="483" 
d="M396 90l11 -14q-3 -3 -8 -9t-22.5 -20t-37.5 -25t-52 -20t-66 -9q-87 0 -131 53.5t-44 143.5q0 127 79 208.5t193 81.5q70 0 99 -29.5t29 -68.5q0 -54 -49.5 -94t-121 -58.5t-153.5 -20.5v-17q0 -157 126 -157q40 0 77 13.5t54 27.5zM312 449q-71 0 -123 -57.5
t-64 -151.5q44 2 86.5 10t83 24t65.5 45t25 67q0 63 -73 63zM272 620q0 20 13 32.5t32 12.5q33 0 33 -34q0 -19 -12.5 -32t-31.5 -13q-16 0 -25 9.5t-9 24.5z" />
    <glyph glyph-name="Eogonek" unicode="&#x118;" horiz-adv-x="565" 
d="M57 0l111 700h399l-7 -44l-8 -7q-42 16 -147 16h-172l-46 -291h272l5 -6l-4 -30h-279l-47 -303h180q47 0 85 4t53 8l14 4l6 -7l-7 -44h-52q-46 -44 -46 -93q0 -36 33 -36q9 0 17 2.5t12 5.5l4 3l11 -15q-21 -29 -59 -29q-26 0 -42.5 16t-16.5 46q0 28 15 53t29 36l15 11
h-328z" />
    <glyph glyph-name="eogonek" unicode="&#x119;" horiz-adv-x="483" 
d="M396 90l11 -14q-23 -27 -61 -50q-42 -42 -42 -89q0 -36 32 -36q9 0 17.5 2.5t12.5 5.5l4 3l11 -15q-21 -29 -59 -29q-26 0 -42.5 16t-16.5 46q0 40 29 73q-37 -10 -71 -10q-87 0 -131 53.5t-44 143.5q0 127 79 208.5t193 81.5q70 0 99 -29.5t29 -68.5q0 -54 -49.5 -94
t-121 -58.5t-153.5 -20.5v-17q0 -157 126 -157q40 0 77 13.5t54 27.5zM312 449q-71 0 -123 -57.5t-64 -151.5q44 2 86.5 10t83 24t65.5 45t25 67q0 63 -73 63z" />
    <glyph glyph-name="Ecaron" unicode="&#x11a;" horiz-adv-x="565" 
d="M57 0l111 700h399l-7 -44l-8 -7q-42 16 -147 16h-172l-46 -291h272l5 -6l-4 -30h-279l-47 -303h180q47 0 85 4t53 8l14 4l6 -7l-7 -44h-408zM521 923l5 -6l-135 -143h-20l-90 143l7 6h27l74 -98l105 98h27z" />
    <glyph glyph-name="ecaron" unicode="&#x11b;" horiz-adv-x="483" 
d="M396 90l11 -14q-3 -3 -8 -9t-22.5 -20t-37.5 -25t-52 -20t-66 -9q-87 0 -131 53.5t-44 143.5q0 127 79 208.5t193 81.5q70 0 99 -29.5t29 -68.5q0 -54 -49.5 -94t-121 -58.5t-153.5 -20.5v-17q0 -157 126 -157q40 0 77 13.5t54 27.5zM312 449q-71 0 -123 -57.5
t-64 -151.5q44 2 86.5 10t83 24t65.5 45t25 67q0 63 -73 63zM429 708l5 -6l-135 -142h-20l-90 142l7 6h27l74 -98l105 98h27z" />
    <glyph glyph-name="Gcircumflex" unicode="&#x11c;" horiz-adv-x="693" 
d="M456 300l5 30h96q18 0 34.5 2t24.5 4l7 2l7 -8l-38 -239q-4 -4 -11 -10.5t-31.5 -23.5t-51.5 -30t-69.5 -23.5t-87.5 -10.5q-128 0 -199 80t-71 219q0 176 107 295.5t276 119.5q99 0 153 -43.5t54 -121.5q0 -24 -5.5 -43.5t-10.5 -26.5l-5 -7q-24 -8 -62 -8l-7 8
q20 29 20 82q0 62 -37 95t-106 33q-130 0 -214.5 -110t-84.5 -271q0 -123 54 -191.5t155 -68.5q86 0 166 46l13 81q13 79 13 133h-89zM572 778l-7 -6h-27l-74 98l-104 -98h-28l-5 6l136 143h19z" />
    <glyph glyph-name="gcircumflex" unicode="&#x11d;" horiz-adv-x="552" 
d="M352 -24l4 24l23 145l13 68l-2 4q-4 -9 -11.5 -24t-32.5 -54t-51 -68.5t-64.5 -53.5t-75.5 -24q-54 0 -82 44.5t-28 119.5q0 140 87.5 231.5t222.5 91.5q50 0 84 -13.5t43 -26.5l10 -14l-68 -426l-4 -24q-18 -107 -88 -170t-174 -63q-71 0 -116.5 30t-45.5 81
q0 14 3.5 27.5t7.5 20.5l4 7q20 7 57 7l6 -7q-14 -26 -14 -56q0 -37 29.5 -58t74.5 -21q72 0 122 55t66 147zM118 156q0 -118 66 -118q28 0 60.5 25t55.5 55.5t49 74.5t34.5 62t18.5 39l1 2v1l18 114q-2 4 -6.5 10t-25.5 16.5t-50 10.5q-88 0 -154.5 -85.5t-66.5 -206.5z
M469 571l-8 -6h-27l-73 98l-105 -98h-27l-5 6l135 142h19z" />
    <glyph glyph-name="Gbreve" unicode="&#x11e;" horiz-adv-x="693" 
d="M456 300l5 30h96q18 0 34.5 2t24.5 4l7 2l7 -8l-38 -239q-4 -4 -11 -10.5t-31.5 -23.5t-51.5 -30t-69.5 -23.5t-87.5 -10.5q-128 0 -199 80t-71 219q0 176 107 295.5t276 119.5q99 0 153 -43.5t54 -121.5q0 -24 -5.5 -43.5t-10.5 -26.5l-5 -7q-24 -8 -62 -8l-7 8
q20 29 20 82q0 62 -37 95t-106 33q-130 0 -214.5 -110t-84.5 -271q0 -123 54 -191.5t155 -68.5q86 0 166 46l13 81q13 79 13 133h-89zM340 859l16 14q1 -2 3.5 -6t11.5 -14t19.5 -17.5t28 -14t37.5 -6.5q31 0 60.5 14.5t43.5 28.5l14 15l12 -14q-2 -3 -5.5 -9t-16.5 -20.5
t-28 -26t-38.5 -20.5t-48.5 -9t-45.5 9t-32 21t-19 24.5t-10.5 21.5z" />
    <glyph glyph-name="gbreve" unicode="&#x11f;" horiz-adv-x="552" 
d="M352 -24l4 24l23 145l13 68l-2 4q-4 -9 -11.5 -24t-32.5 -54t-51 -68.5t-64.5 -53.5t-75.5 -24q-54 0 -82 44.5t-28 119.5q0 140 87.5 231.5t222.5 91.5q50 0 84 -13.5t43 -26.5l10 -14l-68 -426l-4 -24q-18 -107 -88 -170t-174 -63q-71 0 -116.5 30t-45.5 81
q0 14 3.5 27.5t7.5 20.5l4 7q20 7 57 7l6 -7q-14 -26 -14 -56q0 -37 29.5 -58t74.5 -21q72 0 122 55t66 147zM118 156q0 -118 66 -118q19 0 39 10.5t37.5 27.5t36 40t33 45.5t28.5 46.5t22.5 41l15.5 31l7 15l-13 -78l13 77v3l18 114q-2 4 -6.5 10t-25.5 16.5t-50 10.5
q-88 0 -154.5 -85.5t-66.5 -206.5zM223 651l17 15q3 -6 10 -16t32.5 -26t56.5 -16t61 14.5t44 29.5l14 14l11 -15q-2 -3 -5.5 -9t-16.5 -20.5t-27.5 -25.5t-38 -20t-48.5 -9q-40 0 -67.5 21t-35.5 42z" />
    <glyph glyph-name="Gdotaccent" unicode="&#x120;" horiz-adv-x="693" 
d="M456 300l5 30h96q18 0 34.5 2t24.5 4l7 2l7 -8l-38 -239q-4 -4 -11 -10.5t-31.5 -23.5t-51.5 -30t-69.5 -23.5t-87.5 -10.5q-128 0 -199 80t-71 219q0 176 107 295.5t276 119.5q99 0 153 -43.5t54 -121.5q0 -24 -5.5 -43.5t-10.5 -26.5l-5 -7q-24 -8 -62 -8l-7 8
q20 29 20 82q0 62 -37 95t-106 33q-130 0 -214.5 -110t-84.5 -271q0 -123 54 -191.5t155 -68.5q86 0 166 46l13 81q13 79 13 133h-89zM420 833q0 19 13 32t32 13q33 0 33 -34q0 -20 -13 -32.5t-32 -12.5q-15 0 -24 9t-9 25z" />
    <glyph glyph-name="gdotaccent" unicode="&#x121;" horiz-adv-x="552" 
d="M352 -24l4 24l23 145l13 68l-2 4q-4 -9 -11.5 -24t-32.5 -54t-51 -68.5t-64.5 -53.5t-75.5 -24q-54 0 -82 44.5t-28 119.5q0 140 87.5 231.5t222.5 91.5q50 0 84 -13.5t43 -26.5l10 -14l-68 -426l-4 -24q-18 -107 -88 -170t-174 -63q-71 0 -116.5 30t-45.5 81
q0 14 3.5 27.5t7.5 20.5l4 7q20 7 57 7l6 -7q-14 -26 -14 -56q0 -37 29.5 -58t74.5 -21q72 0 122 55t66 147zM118 156q0 -118 66 -118q16 0 34 8t34 22.5t32 32.5t30.5 39t27 41t24 40.5t18.5 34t13 25.5t6 13v1l-13 -78l13 77v1v2l18 114q-2 4 -6.5 10t-25.5 16.5t-50 10.5
q-88 0 -154.5 -85.5t-66.5 -206.5zM307 620q0 20 12.5 32.5t32.5 12.5q33 0 33 -34q0 -19 -13 -32t-32 -13q-15 0 -24 9.5t-9 24.5z" />
    <glyph glyph-name="Gcommaaccent" unicode="&#x122;" horiz-adv-x="693" 
d="M456 300l5 30h96q18 0 34.5 2t24.5 4l7 2l7 -8l-38 -239q-4 -4 -11 -10.5t-31.5 -23.5t-51.5 -30t-69.5 -23.5t-87.5 -10.5q-128 0 -199 80t-71 219q0 176 107 295.5t276 119.5q99 0 153 -43.5t54 -121.5q0 -24 -5.5 -43.5t-10.5 -26.5l-5 -7q-24 -8 -62 -8l-7 8
q20 29 20 82q0 62 -37 95t-106 33q-130 0 -214.5 -110t-84.5 -271q0 -123 54 -191.5t155 -68.5q86 0 166 46l13 81q13 79 13 133h-89zM250 -236l-9 11q7 6 17 18t26.5 49t16.5 74l-1 20l4 5q13 0 24.5 -2t16.5 -4l5 -2q1 -4 1 -14q0 -27 -10.5 -53t-25.5 -43.5t-29.5 -31.5
t-25.5 -21z" />
    <glyph glyph-name="gcommaaccent" unicode="&#x123;" horiz-adv-x="552" 
d="M352 -24l4 24l23 145l13 68l-2 4q-4 -9 -11.5 -24t-32.5 -54t-51 -68.5t-64.5 -53.5t-75.5 -24q-54 0 -82 44.5t-28 119.5q0 140 87.5 231.5t222.5 91.5q50 0 84 -13.5t43 -26.5l10 -14l-68 -426l-4 -24q-18 -107 -88 -170t-174 -63q-71 0 -116.5 30t-45.5 81
q0 14 3.5 27.5t7.5 20.5l4 7q20 7 57 7l6 -7q-14 -26 -14 -56q0 -37 29.5 -58t74.5 -21q72 0 122 55t66 147zM118 156q0 -118 66 -118q29 0 62 26t57 58t49 75.5t34 63t16 34.5l1 2l18 114q-2 4 -6.5 10t-25.5 16.5t-50 10.5q-88 0 -154.5 -85.5t-66.5 -206.5zM489 739
l9 -12q-7 -6 -17 -18t-26.5 -48.5t-16.5 -73.5l1 -21l-4 -4q-13 0 -24.5 2t-16.5 4l-5 1q-1 4 -1 15q0 27 10.5 52.5t25 43.5t29.5 32t25 20z" />
    <glyph glyph-name="Hcircumflex" unicode="&#x124;" horiz-adv-x="722" 
d="M514 0l53 338h-386l-53 -338h-71l111 700h71l-52 -326h386l52 326h71l-111 -700h-71zM567 778l-8 -6h-27l-73 98l-105 -98h-27l-5 6l135 143h20z" />
    <glyph glyph-name="hcircumflex" unicode="&#x125;" horiz-adv-x="560" 
d="M364 0l54 341q15 93 -50 93q-38 0 -79 -36t-72.5 -88t-48.5 -84t-24 -49v-1l-28 -176h-69l76 473q12 74 19.5 141.5t9.5 97.5l1 30l8 8h61q-4 -110 -31 -277l-13 -84l-23 -130l2 -3q4 9 11.5 24t32.5 54t51.5 68.5t66.5 53.5t80 24q51 0 74.5 -35t12.5 -104l-54 -341h-68
zM313 776l-7 -6h-28l-73 98l-104 -98h-28l-5 6l135 143h20z" />
    <glyph glyph-name="Hbar" unicode="&#x126;" horiz-adv-x="722" 
d="M514 0l53 338h-386l-53 -338h-71l83 526h-64l6 36h64l22 138h71l-22 -138h386l22 138h71l-22 -138h64l-6 -36h-64l-83 -526h-71zM211 526l-24 -152h386l24 152h-386z" />
    <glyph glyph-name="hbar" unicode="&#x127;" horiz-adv-x="562" 
d="M367 0l54 341q15 93 -50 93q-32 0 -66.5 -26.5t-61.5 -64.5t-49.5 -76t-34.5 -65l-12 -26l-28 -176h-69l75 473l18 125h-77l2 18l79 20l9 106l7 8h61q-2 -47 -9 -119h160l-5 -33h-159q-4 -33 -17 -125l-13 -84l-24 -130l3 -3q4 9 11.5 24t32.5 54t51.5 68.5t66.5 53.5
t80 24q50 0 74 -35.5t13 -103.5l-54 -341h-68z" />
    <glyph glyph-name="Itilde" unicode="&#x128;" horiz-adv-x="265" 
d="M57 0l111 700h71l-111 -700h-71zM187 857q23 0 44 -18t39 -18q19 0 37 9.5t27 19.5l8 10l11 -15q-4 -7 -11.5 -18t-32.5 -29t-52 -18q-23 0 -44 18t-39 18q-19 0 -37 -10t-27 -20l-8 -9l-11 15q4 7 11.5 18t32.5 29t52 18z" />
    <glyph glyph-name="itilde" unicode="&#x129;" horiz-adv-x="246" 
d="M134 650q23 0 44 -18t40 -18q18 0 36 10t26 20l9 9l12 -15q-4 -7 -12 -18t-33 -29t-52 -18q-23 0 -43.5 18t-39.5 18q-18 0 -36 -9.5t-27 -19.5l-8 -10l-12 14q2 3 4.5 7.5t12 15.5t20 20t26.5 16t33 7zM49 0l48 300l22 165l7 8h61q-6 -73 -22 -173l-48 -300h-68z" />
    <glyph glyph-name="Imacron" unicode="&#x12a;" horiz-adv-x="265" 
d="M57 0l111 700h71l-111 -700h-71zM111 802l6 36h217l-6 -36h-217z" />
    <glyph glyph-name="imacron" unicode="&#x12b;" horiz-adv-x="246" 
d="M59 595l5 36h217l-6 -36h-216zM49 0l48 300l22 165l7 8h61q-6 -73 -22 -173l-48 -300h-68z" />
    <glyph glyph-name="Ibreve" unicode="&#x12c;" horiz-adv-x="265" 
d="M57 0l111 700h71l-111 -700h-71zM107 859l17 14q3 -6 10 -16t32.5 -26t56.5 -16t60.5 14.5t43.5 28.5l14 15l12 -14q-2 -3 -5.5 -9t-16.5 -20.5t-27.5 -26t-38 -20.5t-48.5 -9q-40 0 -67.5 21t-35.5 43z" />
    <glyph glyph-name="ibreve" unicode="&#x12d;" horiz-adv-x="246" 
d="M46 651l16 15q1 -2 3.5 -6t11.5 -14t19.5 -17.5t28 -14t37.5 -6.5q31 0 60.5 14.5t43.5 29.5l14 14l12 -15q-2 -3 -5.5 -9t-16.5 -20.5t-27.5 -25.5t-38 -20t-48.5 -9q-40 0 -67.5 21t-34.5 42zM49 0l48 300l22 165l7 8h61q-6 -73 -22 -173l-48 -300h-68z" />
    <glyph glyph-name="Iogonek" unicode="&#x12e;" horiz-adv-x="265" 
d="M57 0l111 700h71l-111 -700h-15q-47 -44 -47 -93q0 -36 33 -36q9 0 17 2.5t12 5.5l4 3l12 -15q-22 -29 -60 -29q-25 0 -42 16t-17 46q0 28 14.5 53t29.5 36l15 11h-27z" />
    <glyph glyph-name="iogonek" unicode="&#x12f;" horiz-adv-x="246" 
d="M49 0l48 300l22 165l7 8h61q-6 -73 -22 -173l-48 -300h-12q-46 -44 -46 -93q0 -36 32 -36q9 0 17.5 2.5t12.5 5.5l4 3l11 -15q-21 -29 -59 -29q-26 0 -42.5 16t-16.5 46q0 28 14.5 53t29.5 36l14 11h-27zM132 625q0 23 15 38t38 15q18 0 28.5 -11t10.5 -28
q0 -23 -15.5 -38t-38.5 -15q-17 0 -27.5 11t-10.5 28z" />
    <glyph glyph-name="Idotaccent" unicode="&#x130;" horiz-adv-x="265" 
d="M57 0l111 700h71l-111 -700h-71zM179 837q0 22 14 36.5t36 14.5q18 0 28 -10.5t10 -27.5q0 -22 -14.5 -36.5t-36.5 -14.5q-17 0 -27 10.5t-10 27.5z" />
    <glyph glyph-name="dotlessi" unicode="&#x131;" horiz-adv-x="246" 
d="M49 0l48 300l22 165l7 8h61q-6 -73 -22 -173l-48 -300h-68z" />
    <glyph glyph-name="IJ" unicode="&#x132;" horiz-adv-x="582" 
d="M108 325l59 375h72l-59 -375h-72zM238 25q68 0 113 55t61 160l72 460h72l-73 -459q-18 -118 -84 -183t-168 -65q-77 0 -120 35t-43 94q0 22 6 42.5t12 29.5l6 10q22 7 62 7l7 -7q-22 -36 -22 -82t26 -71.5t73 -25.5z" />
    <glyph glyph-name="ij" unicode="&#x133;" horiz-adv-x="491" 
d="M132 625q0 23 15 38t38 15q18 0 28.5 -11t10.5 -28q0 -23 -15.5 -38t-38.5 -15q-17 0 -27.5 11t-10.5 28zM49 0l48 300l22 165l7 8h61q-6 -73 -22 -173l-48 -300h-68zM378 625q0 23 15 38t38 15q17 0 27.5 -11t10.5 -28q0 -23 -15 -38t-38 -15q-18 0 -28 10.5t-10 28.5z
M289 -35l54 335l22 165l7 8h61q-6 -73 -22 -173l-50 -316q-8 -48 -29.5 -90.5t-47.5 -69t-51 -46t-41 -28.5l-17 -8l-12 15q4 3 11.5 8.5t26.5 25.5t35 42t31.5 58t21.5 74z" />
    <glyph glyph-name="Jcircumflex" unicode="&#x134;" horiz-adv-x="478" 
d="M303 211l78 489h71l-77 -488q-35 -219 -222 -219q-48 0 -84.5 15t-48.5 30l-13 15q3 19 13.5 36.5t19.5 25.5l9 8h8q1 -4 2.5 -10.5t9.5 -23.5t18.5 -30t29.5 -23.5t43 -10.5q115 0 143 186zM555 793l-8 -7h-27l-73 99l-105 -99h-27l-5 7l135 142h19z" />
    <glyph glyph-name="jcircumflex" unicode="&#x135;" horiz-adv-x="245" 
d="M43 -35l54 335l22 165l7 8h61q-6 -73 -22 -173l-50 -316q-8 -48 -29.5 -90.5t-47.5 -69t-51 -46t-41 -28.5l-17 -8l-12 15q4 3 11.5 8.5t26.5 25.5t35 42t31.5 58t21.5 74zM289 571l-8 -6h-27l-74 98l-104 -98h-27l-5 6l135 142h19z" />
    <glyph glyph-name="Kcommaaccent" unicode="&#x136;" horiz-adv-x="606" 
d="M57 0l111 700h71l-51 -316h52l312 316h51l-309 -311l109 -190q32 -53 64 -100.5t49 -68.5l16 -22l-1 -8h-87l-211 348h-50l-55 -348h-71zM192 -236l-9 11q7 6 17 18t26.5 49t16.5 74l-1 20l4 5q13 0 24.5 -2t16.5 -4l5 -2q2 -4 2 -14q0 -27 -10.5 -53t-25.5 -43.5
t-30 -31.5t-26 -21z" />
    <glyph glyph-name="kcommaaccent" unicode="&#x137;" horiz-adv-x="470" 
d="M363 473h58q5 -6 5 -20q0 -30 -36.5 -68.5t-140.5 -113.5l39 -78q13 -28 43 -74t53 -78l23 -32l-2 -9h-73l-147 243h-31l-38 -243h-69l76 473q11 72 18.5 139.5t9.5 98.5l2 31l8 8h61q-5 -115 -31 -277l-32 -201l28 3q101 65 137.5 104t36.5 67l-5 20zM140 -236l-9 11
q7 6 17 18t26.5 49t16.5 74l-2 20l5 5q13 0 24.5 -2t16.5 -4l5 -2q1 -4 1 -14q0 -43 -25.5 -81.5t-50.5 -55.5z" />
    <glyph glyph-name="Lacute" unicode="&#x139;" horiz-adv-x="522" 
d="M57 0l111 700h71l-105 -665h160q47 0 85 4t52 8l14 4l7 -7l-7 -44h-388zM179 772l-5 6l105 143q17 0 30.5 -2.5t18.5 -4.5l5 -3l-1 -7l-129 -132h-24z" />
    <glyph glyph-name="lacute" unicode="&#x13a;" horiz-adv-x="244" 
d="M47 0l76 473q12 74 19.5 141.5t9.5 97.5l1 30l8 8h61q-4 -110 -31 -277l-75 -473h-69zM148 770l-5 6l105 143q17 0 30.5 -2.5t18.5 -4.5l5 -3l-1 -7l-129 -132h-24z" />
    <glyph glyph-name="Lcommaaccent" unicode="&#x13b;" horiz-adv-x="522" 
d="M57 0l111 700h71l-105 -665h160q47 0 85 4t52 8l14 4l7 -7l-7 -44h-388zM162 -236l-9 11q7 6 17 18t26.5 49t16.5 74l-1 20l4 5q13 0 24.5 -2t16.5 -4l5 -2q2 -4 2 -14q0 -27 -10.5 -53t-25.5 -43.5t-30 -31.5t-26 -21z" />
    <glyph glyph-name="lcommaaccent" unicode="&#x13c;" horiz-adv-x="244" 
d="M47 0l76 473q12 74 19.5 141.5t9.5 97.5l1 30l8 8h61q-4 -110 -31 -277l-75 -473h-69zM6 -236l-9 11q7 6 16.5 18t26 49t16.5 74l-1 20l5 5q13 0 24.5 -2t16.5 -4l5 -2q1 -4 1 -14q0 -43 -25.5 -81.5t-50.5 -55.5z" />
    <glyph glyph-name="Lcaron" unicode="&#x13d;" horiz-adv-x="522" 
d="M57 0l111 700h71l-105 -665h160q47 0 85 4t52 8l14 4l7 -7l-7 -44h-388zM399 529l-9 12q7 6 16.5 18t26 49t16.5 74l-1 20l5 5q13 0 24.5 -2t16.5 -4l5 -2q1 -4 1 -14q0 -27 -10.5 -53t-25 -43.5t-29.5 -31.5t-25 -21z" />
    <glyph glyph-name="lcaron" unicode="&#x13e;" horiz-adv-x="337" 
d="M47 0l76 473q12 74 19.5 141.5t9.5 97.5l1 30l8 8h61q-4 -110 -31 -277l-75 -473h-69zM287 579l-9 12q7 6 17 18t26.5 49t16.5 74l-1 20l4 5q13 0 24.5 -2t16.5 -4l5 -2q1 -4 1 -14q0 -27 -10.5 -53t-25 -43.5t-29.5 -31.5t-25 -21z" />
    <glyph glyph-name="Ldot" unicode="&#x13f;" horiz-adv-x="522" 
d="M57 0l111 700h71l-105 -665h160q47 0 85 4t52 8l14 4l7 -7l-7 -44h-388zM366 343q0 21 14 35t35 14q35 0 35 -36q0 -21 -13.5 -34.5t-34.5 -13.5q-16 0 -26 9.5t-10 25.5z" />
    <glyph glyph-name="ldot" unicode="&#x140;" horiz-adv-x="358" 
d="M47 0l76 473q12 74 19.5 141.5t9.5 97.5l1 30l8 8h61q-4 -110 -31 -277l-75 -473h-69zM267 318q0 21 14 35t34 14q17 0 26.5 -9.5t9.5 -26.5q0 -21 -14 -34.5t-35 -13.5q-16 0 -25.5 9.5t-9.5 25.5z" />
    <glyph glyph-name="Lslash" unicode="&#x141;" horiz-adv-x="528" 
d="M27 273l-11 27l103 55l55 345h72l-48 -303l104 56l11 -28l-121 -64l-51 -326h160q47 0 85 4t52 8l15 4l5 -7l-6 -44h-388l50 319z" />
    <glyph glyph-name="lslash" unicode="&#x142;" horiz-adv-x="255" 
d="M27 273l-11 27l93 48l20 125q12 74 19.5 141.5t9.5 97.5l1 30l8 8h61q-4 -110 -30 -277l-14 -85l75 39l10 -27l-91 -48l-56 -352h-69l50 313z" />
    <glyph glyph-name="Nacute" unicode="&#x143;" horiz-adv-x="705" 
d="M57 0l67 420q13 80 20 148t8 96v28l9 8h27l359 -578l92 578h40l-111 -700h-22l-361 577l-91 -577h-37zM407 772l-5 6l105 143q17 0 30.5 -2.5t18.5 -4.5l5 -3l-1 -7l-129 -132h-24z" />
    <glyph glyph-name="nacute" unicode="&#x144;" horiz-adv-x="561" 
d="M365 0l54 341q15 93 -49 93q-31 0 -65 -26t-59 -58.5t-50 -75.5t-34.5 -62.5t-16.5 -34.5v-1l-28 -176h-68l48 300q4 28 7 55.5t4 46t1.5 33.5t0.5 23l-1 7l7 8h61q5 -54 -10 -145l-11 -69l3 -3q4 9 11.5 24t32.5 54t51.5 68.5t66.5 53.5t79 24q51 0 74.5 -35t12.5 -104
l-53 -341h-69zM286 565l-6 6l105 142q17 0 31 -2.5t19 -4.5l5 -3l-1 -6l-130 -132h-23z" />
    <glyph glyph-name="Ncommaaccent" unicode="&#x145;" horiz-adv-x="705" 
d="M57 0l67 420q13 80 20 148t8 96v28l9 8h27l359 -578l92 578h40l-111 -700h-22l-361 577l-91 -577h-37zM242 -236l-9 11q7 6 16.5 18t26 49t16.5 74l-1 20l5 5q13 0 24.5 -2t16.5 -4l5 -2q1 -4 1 -14q0 -27 -10.5 -53t-25.5 -43.5t-29.5 -31.5t-25.5 -21z" />
    <glyph glyph-name="ncommaaccent" unicode="&#x146;" horiz-adv-x="561" 
d="M365 0l54 341q15 93 -49 93q-31 0 -65 -26t-59 -58.5t-50 -75.5t-34.5 -62.5t-16.5 -34.5v-1l-28 -176h-68l48 300q4 28 7 55.5t4 46t1.5 33.5t0.5 23l-1 7l7 8h61q5 -54 -10 -145l-11 -69l3 -3q4 9 11.5 24t32.5 54t51.5 68.5t66.5 53.5t79 24q51 0 74.5 -35t12.5 -104
l-53 -341h-69zM171 -236l-9 11q7 6 17 18t26.5 49t16.5 74l-1 20l4 5q13 0 24.5 -2t16.5 -4l5 -2q1 -4 1 -14q0 -27 -10.5 -53t-25 -43.5t-29.5 -31.5t-25 -21z" />
    <glyph glyph-name="Ncaron" unicode="&#x147;" horiz-adv-x="705" 
d="M57 0l67 420q13 80 20 148t8 96v28l9 8h27l359 -578l92 578h40l-111 -700h-22l-361 577l-91 -577h-37zM574 916l5 -7l-135 -142h-20l-90 142l7 7h27l74 -99l105 99h27z" />
    <glyph glyph-name="ncaron" unicode="&#x148;" horiz-adv-x="561" 
d="M365 0l54 341q15 93 -49 93q-31 0 -65 -26t-59 -58.5t-50 -75.5t-34.5 -62.5t-16.5 -34.5v-1l-28 -176h-68l48 300q4 28 7 55.5t4 46t1.5 33.5t0.5 23l-1 7l7 8h61q5 -54 -10 -145l-11 -69l3 -3q4 9 11.5 24t32.5 54t51.5 68.5t66.5 53.5t79 24q51 0 74.5 -35t12.5 -104
l-53 -341h-69zM448 708l5 -6l-135 -142h-20l-90 142l7 6h27l74 -98l105 98h27z" />
    <glyph glyph-name="Eng" unicode="&#x14a;" horiz-adv-x="705" 
d="M57 0l67 420q13 83 20 151t8 95v26l9 8h27l358 -581l93 581h40l-116 -738q-36 -219 -213 -219q-47 0 -83 15t-49 30l-12 15q4 19 14.5 36.5t19.5 25.5l8 8h8q1 -4 2.5 -10.5t9.5 -23.5t18.5 -30t30 -23.5t43.5 -10.5q112 0 142 186l12 75l-329 542l-91 -578h-37z" />
    <glyph glyph-name="eng" unicode="&#x14b;" horiz-adv-x="561" 
d="M360 -35l59 376q15 93 -49 93q-31 0 -65.5 -26.5t-60 -60.5t-50 -75.5t-35 -63.5t-14.5 -32l-28 -176h-68l48 300q4 28 7 55.5t4 46t1.5 33.5t0.5 23l-1 7l7 8h61q5 -54 -10 -145l-11 -69l3 -3q4 9 11.5 24t32.5 54t51.5 68.5t66.5 53.5t79 24q51 0 74.5 -35t12.5 -104
l-56 -357q-8 -48 -29.5 -90.5t-47.5 -69t-51 -46t-41 -28.5l-17 -8l-11 15q4 3 11.5 8.5t26.5 25.5t34.5 42t31.5 58t22 74z" />
    <glyph glyph-name="Omacron" unicode="&#x14c;" horiz-adv-x="749" 
d="M71 290q0 177 108 297t264 120q124 0 195 -80t71 -218q0 -176 -108.5 -296t-265.5 -120q-124 0 -194 80t-70 217zM148 282q0 -121 50 -189t142 -68q122 0 206.5 113.5t84.5 279.5q0 122 -50.5 189.5t-142.5 67.5q-122 0 -206 -113.5t-84 -279.5zM353 802l5 36h217l-5 -36
h-217z" />
    <glyph glyph-name="omacron" unicode="&#x14d;" horiz-adv-x="543" 
d="M46 197q0 120 74.5 201.5t183.5 81.5q87 0 137.5 -55t50.5 -150q0 -120 -75 -201t-185 -81q-87 0 -136.5 55t-49.5 149zM120 180q0 -72 31 -114t87 -42q74 0 127 83t53 186q0 72 -31.5 114t-87.5 42q-74 0 -126.5 -83t-52.5 -186zM210 595l6 36h217l-6 -36h-217z" />
    <glyph glyph-name="Obreve" unicode="&#x14e;" horiz-adv-x="749" 
d="M71 290q0 177 108 297t264 120q124 0 195 -80t71 -218q0 -176 -108.5 -296t-265.5 -120q-124 0 -194 80t-70 217zM148 282q0 -121 50 -189t142 -68q122 0 206.5 113.5t84.5 279.5q0 122 -50.5 189.5t-142.5 67.5q-122 0 -206 -113.5t-84 -279.5zM348 859l16 14
q1 -2 3.5 -6t11.5 -14t19.5 -17.5t28 -14t37.5 -6.5q31 0 60.5 14.5t43.5 28.5l14 15l12 -14q-2 -3 -5.5 -9t-16.5 -20.5t-27.5 -26t-38 -20.5t-48.5 -9q-40 0 -67.5 21t-34.5 43z" />
    <glyph glyph-name="obreve" unicode="&#x14f;" horiz-adv-x="543" 
d="M46 197q0 120 74.5 201.5t183.5 81.5q87 0 137.5 -55t50.5 -150q0 -120 -75 -201t-185 -81q-87 0 -136.5 55t-49.5 149zM120 180q0 -72 31 -114t87 -42q74 0 127 83t53 186q0 72 -31.5 114t-87.5 42q-74 0 -126.5 -83t-52.5 -186zM198 651l17 15q3 -6 10 -16t32.5 -26
t56.5 -16t60.5 14.5t43.5 29.5l14 14l12 -15q-2 -3 -5.5 -9t-16.5 -20.5t-27.5 -25.5t-38 -20t-48.5 -9q-40 0 -67.5 21t-34.5 42z" />
    <glyph glyph-name="Ohungarumlaut" unicode="&#x150;" horiz-adv-x="749" 
d="M71 290q0 177 108 297t264 120q124 0 195 -80t71 -218q0 -176 -108.5 -296t-265.5 -120q-124 0 -194 80t-70 217zM148 282q0 -121 50 -189t142 -68q122 0 206.5 113.5t84.5 279.5q0 122 -50.5 189.5t-142.5 67.5q-122 0 -206 -113.5t-84 -279.5zM355 772l-5 6l104 143
q17 0 30.5 -2.5t18.5 -4.5l5 -3l-1 -7l-128 -132h-24zM502 772l-5 6l110 143q17 0 29.5 -2.5t17.5 -4.5l4 -3v-7l-132 -132h-24z" />
    <glyph glyph-name="ohungarumlaut" unicode="&#x151;" horiz-adv-x="543" 
d="M46 197q0 120 74.5 201.5t183.5 81.5q87 0 137.5 -55t50.5 -150q0 -120 -75 -201t-185 -81q-87 0 -136.5 55t-49.5 149zM120 180q0 -72 31 -114t87 -42q74 0 127 83t53 186q0 72 -31.5 114t-87.5 42q-74 0 -126.5 -83t-52.5 -186zM203 565l-5 6l103 142q17 0 30.5 -2.5
t18.5 -4.5l5 -3l-1 -6l-127 -132h-24zM350 565l-6 6l111 142q17 0 29.5 -2.5t17.5 -4.5l4 -3v-6l-133 -132h-23z" />
    <glyph glyph-name="OE" unicode="&#x152;" horiz-adv-x="964" 
d="M470 0l4 30q-65 -37 -144 -37q-119 0 -189 81t-70 217q0 176 108.5 296t261.5 120q78 0 135 -38l5 31h384l-6 -44l-9 -7q-41 16 -147 16h-156l-47 -291h257l5 -6l-5 -30h-262l-48 -303h166q47 0 85 4t52 8l15 4l5 -7l-6 -44h-394zM339 25q82 0 145 66l83 519
q-45 65 -127 65q-123 0 -207.5 -113.5t-84.5 -279.5q0 -121 50.5 -189t140.5 -68z" />
    <glyph glyph-name="oe" unicode="&#x153;" horiz-adv-x="848" 
d="M766 90l11 -14q-3 -3 -8 -9t-22.5 -20t-37.5 -25t-52.5 -20t-66.5 -9q-125 0 -159 110q-34 -51 -85.5 -80.5t-113.5 -29.5q-86 0 -136 55.5t-50 149.5q0 119 75 200.5t182 81.5q126 0 164 -115q36 54 91.5 84.5t122.5 30.5q70 0 99 -30t29 -69q0 -54 -50 -93.5
t-121.5 -58t-152.5 -20.5v-13q0 -161 133 -161q40 0 77 13.5t54 27.5zM120 180q0 -72 31 -114t87 -42q74 0 127 83t53 186q0 72 -31.5 114t-87.5 42q-74 0 -126.5 -83t-52.5 -186zM675 449q-71 0 -123.5 -58.5t-63.5 -150.5q44 2 86.5 10t83 24t65.5 45t25 67q0 63 -73 63z
" />
    <glyph glyph-name="Racute" unicode="&#x154;" horiz-adv-x="601" 
d="M57 0l111 700h199q95 0 147.5 -43.5t52.5 -124.5q0 -80 -50 -136t-136 -74l60 -149q20 -50 40 -92t30 -59l10 -16l-6 -6h-79l-127 315h-131l-50 -315h-71zM350 664h-117l-50 -313h117q86 0 139.5 49t53.5 130q0 65 -37.5 99.5t-105.5 34.5zM344 772l-5 6l105 143
q17 0 30.5 -2.5t18.5 -4.5l5 -3l-1 -7l-129 -132h-24z" />
    <glyph glyph-name="racute" unicode="&#x155;" horiz-adv-x="374" 
d="M49 0l48 300q4 28 7 55.5t4 46t1.5 33.5t0.5 23l-1 7l7 8h61q5 -54 -10 -145l-11 -71l2 -4l10 23q11 23 30 56.5t43.5 67t59 57t69.5 23.5q3 -29 -3 -70l-9 -7q-12 9 -30 9q-28 0 -60 -31.5t-60.5 -82.5t-40.5 -76t-23 -50v-2l-27 -170h-68zM213 565l-5 6l105 142
q17 0 30.5 -2.5t18.5 -4.5l5 -3l-1 -6l-129 -132h-24z" />
    <glyph glyph-name="Rcommaaccent" unicode="&#x156;" horiz-adv-x="601" 
d="M57 0l111 700h199q95 0 147.5 -43.5t52.5 -124.5q0 -80 -50 -136t-136 -74l60 -149q20 -50 40 -92t30 -59l10 -16l-6 -6h-79l-127 315h-131l-50 -315h-71zM350 664h-117l-50 -313h117q86 0 139.5 49t53.5 130q0 65 -37.5 99.5t-105.5 34.5zM192 -236l-9 11q7 6 16.5 18
t26 49t16.5 74l-1 20l5 5q13 0 24.5 -2t16.5 -4l5 -2q1 -4 1 -14q0 -27 -10.5 -53t-25.5 -43.5t-29.5 -31.5t-25.5 -21z" />
    <glyph glyph-name="rcommaaccent" unicode="&#x157;" horiz-adv-x="374" 
d="M370 480q3 -29 -3 -70l-9 -7q-12 9 -30 9q-78 0 -184 -240v-2l-27 -170h-68l48 300q4 28 7 55.5t4 46t1.5 33.5t0.5 23l-1 7l7 8h61q5 -54 -10 -145l-11 -71l2 -4l10 23q11 23 30 56.5t43.5 67t59 57t69.5 23.5zM6 -236l-9 11q7 6 17 18t26.5 49t16.5 74l-1 20l4 5
q13 0 24.5 -2t16.5 -4l5 -2q1 -4 1 -14q0 -43 -25.5 -81.5t-50.5 -55.5z" />
    <glyph glyph-name="Rcaron" unicode="&#x158;" horiz-adv-x="601" 
d="M57 0l111 700h199q95 0 147.5 -43.5t52.5 -124.5q0 -80 -50 -136t-136 -74l60 -149q20 -50 40 -92t30 -59l10 -16l-6 -6h-79l-127 315h-131l-50 -315h-71zM350 664h-117l-50 -313h117q86 0 139.5 49t53.5 130q0 65 -37.5 99.5t-105.5 34.5zM519 916l5 -7l-135 -142h-20
l-90 142l7 7h27l74 -99l105 99h27z" />
    <glyph glyph-name="rcaron" unicode="&#x159;" horiz-adv-x="374" 
d="M49 0l48 300q4 28 7 55.5t4 46t1.5 33.5t0.5 23l-1 7l7 8h61q5 -54 -10 -145l-11 -71l2 -4l10 23q11 23 30 56.5t43.5 67t59 57t69.5 23.5q3 -29 -3 -70l-9 -7q-12 9 -30 9q-28 0 -60 -31.5t-60.5 -82.5t-40.5 -76t-23 -50v-2l-27 -170h-68zM375 708l5 -6l-135 -142h-20
l-90 142l7 6h27l74 -98l105 98h27z" />
    <glyph glyph-name="Sacute" unicode="&#x15a;" horiz-adv-x="579" 
d="M342 675q-75 0 -113.5 -38t-38.5 -95q0 -43 28 -71.5t120 -89.5q97 -66 128 -100.5t31 -88.5q0 -89 -64.5 -144t-187.5 -55q-44 0 -81.5 7.5t-59 18.5t-37 22.5t-21.5 18.5l-6 8q3 20 14.5 38.5t21.5 26.5l10 8h10q2 -5 5.5 -12.5t17 -27.5t30.5 -35.5t46 -28t63 -12.5
q73 0 121.5 39t48.5 100q0 26 -9 47t-33.5 42.5t-43.5 34t-63 39.5q-92 56 -124 92.5t-32 95.5q0 88 61 140t174 52q38 0 71 -6.5t52.5 -15.5t33.5 -18t19 -15l6 -7q-3 -20 -14.5 -38.5t-21.5 -26.5l-10 -9h-9q-1 4 -3.5 11t-13 25t-25 32t-41.5 25t-60 11zM335 772l-5 6
l105 143q17 0 30.5 -2.5t18.5 -4.5l5 -3l-1 -7l-129 -132h-24z" />
    <glyph glyph-name="sacute" unicode="&#x15b;" horiz-adv-x="458" 
d="M142 365q0 -28 22.5 -47t92.5 -58q71 -39 98 -65.5t27 -68.5q0 -59 -49.5 -96t-141.5 -37q-76 0 -117 28t-41 78q0 16 3.5 30.5t7.5 21.5l3 7q21 7 56 7l6 -7q-13 -24 -13 -55q0 -38 26 -58.5t75 -20.5q56 0 87.5 25t31.5 63q0 31 -24.5 52t-90.5 55q-35 18 -52 28
t-36.5 26t-27 34t-7.5 42q0 58 46.5 94.5t134.5 36.5q143 0 143 -103q0 -16 -3 -30.5t-7 -21.5l-3 -7q-20 -9 -55 -9l-7 9q13 23 13 56q0 75 -90 75q-52 0 -80 -24t-28 -60zM233 565l-5 6l105 142q17 0 30.5 -2.5t18.5 -4.5l5 -3l-1 -6l-129 -132h-24z" />
    <glyph glyph-name="Scircumflex" unicode="&#x15c;" horiz-adv-x="579" 
d="M342 675q-75 0 -113.5 -38t-38.5 -95q0 -43 28 -71.5t120 -89.5q97 -66 128 -100.5t31 -88.5q0 -89 -64.5 -144t-187.5 -55q-44 0 -81.5 7.5t-59 18.5t-37 22.5t-21.5 18.5l-6 8q3 20 14.5 38.5t21.5 26.5l10 8h10q2 -5 5.5 -12.5t17 -27.5t30.5 -35.5t46 -28t63 -12.5
q73 0 121.5 39t48.5 100q0 26 -9 47t-33.5 42.5t-43.5 34t-63 39.5q-92 56 -124 92.5t-32 95.5q0 88 61 140t174 52q38 0 71 -6.5t52.5 -15.5t33.5 -18t19 -15l6 -7q-3 -20 -14.5 -38.5t-21.5 -26.5l-10 -9h-9q-1 4 -3.5 11t-13 25t-25 32t-41.5 25t-60 11zM498 798l-7 -6
h-28l-73 98l-104 -98h-28l-5 6l135 143h20z" />
    <glyph glyph-name="scircumflex" unicode="&#x15d;" horiz-adv-x="458" 
d="M142 365q0 -28 22.5 -47t92.5 -58q71 -39 98 -65.5t27 -68.5q0 -59 -49.5 -96t-141.5 -37q-76 0 -117 28t-41 78q0 16 3.5 30.5t7.5 21.5l3 7q21 7 56 7l6 -7q-13 -24 -13 -55q0 -38 26 -58.5t75 -20.5q56 0 87.5 25t31.5 63q0 31 -24.5 52t-90.5 55q-35 18 -52 28
t-36.5 26t-27 34t-7.5 42q0 58 46.5 94.5t134.5 36.5q143 0 143 -103q0 -16 -3 -30.5t-7 -21.5l-3 -7q-20 -9 -55 -9l-7 9q13 23 13 56q0 75 -90 75q-52 0 -80 -24t-28 -60zM395 571l-7 -6h-28l-73 98l-104 -98h-28l-5 6l135 142h20z" />
    <glyph glyph-name="Scedilla" unicode="&#x15e;" horiz-adv-x="579" 
d="M215 -72l20 65q-42 1 -77.5 9t-56 19t-35.5 21.5t-20 17.5l-6 8q3 20 14.5 38.5t21.5 26.5l10 8h10q2 -5 5.5 -12.5t17 -27.5t30.5 -35.5t46 -28t63 -12.5q73 0 121.5 39t48.5 100q0 26 -9 47t-33.5 42.5t-43.5 34t-63 39.5q-92 56 -124 92.5t-32 95.5q0 88 61 140
t174 52q38 0 71 -6.5t52.5 -15.5t33.5 -18t19 -15l6 -7q-3 -20 -14.5 -38.5t-21.5 -26.5l-10 -9h-9q-1 4 -3.5 11t-13 25t-25 32t-41.5 25t-60 11q-75 0 -113.5 -38t-38.5 -95q0 -43 28 -71.5t120 -89.5q97 -66 128 -100.5t31 -88.5q0 -85 -59.5 -139.5t-173.5 -58.5
l-15 -48q23 0 37.5 -14t14.5 -39q0 -31 -23 -51t-56 -20q-21 0 -36.5 9t-19.5 18l-5 9l15 13q13 -19 42 -19q20 0 32 10.5t12 28.5q0 31 -43 31z" />
    <glyph glyph-name="scedilla" unicode="&#x15f;" horiz-adv-x="458" 
d="M160 -72l21 65q-71 2 -109.5 29.5t-38.5 76.5q0 16 3.5 30.5t7.5 21.5l3 7q21 7 56 7l6 -7q-13 -24 -13 -55q0 -38 26 -58.5t75 -20.5q56 0 87.5 25t31.5 63q0 31 -24.5 52t-90.5 55q-35 18 -52 28t-36.5 26t-27 34t-7.5 42q0 58 46.5 94.5t134.5 36.5q143 0 143 -103
q0 -16 -3 -30.5t-7 -21.5l-3 -7q-20 -9 -55 -9l-7 9q13 23 13 56q0 75 -90 75q-52 0 -80 -24t-28 -60q0 -28 22.5 -47t92.5 -58q71 -39 98 -65.5t27 -68.5q0 -56 -44.5 -92t-128.5 -40l-15 -48q23 0 38 -14t15 -39q0 -31 -23 -51t-56 -20q-22 0 -37.5 9t-20.5 18l-4 9l15 13
q13 -19 42 -19q20 0 32 10.5t12 28.5q0 31 -42 31z" />
    <glyph glyph-name="Scaron" unicode="&#x160;" horiz-adv-x="579" 
d="M342 675q-75 0 -113.5 -38t-38.5 -95q0 -43 28 -71.5t120 -89.5q97 -66 128 -100.5t31 -88.5q0 -89 -64.5 -144t-187.5 -55q-44 0 -81.5 7.5t-59 18.5t-37 22.5t-21.5 18.5l-6 8q3 20 14.5 38.5t21.5 26.5l10 8h10q2 -5 5.5 -12.5t17 -27.5t30.5 -35.5t46 -28t63 -12.5
q73 0 121.5 39t48.5 100q0 26 -9 47t-33.5 42.5t-43.5 34t-63 39.5q-92 56 -124 92.5t-32 95.5q0 88 61 140t174 52q38 0 71 -6.5t52.5 -15.5t33.5 -18t19 -15l6 -7q-3 -20 -14.5 -38.5t-21.5 -26.5l-10 -9h-9q-1 4 -3.5 11t-13 25t-25 32t-41.5 25t-60 11zM511 916l5 -7
l-135 -142h-20l-90 142l7 7h28l74 -99l104 99h27z" />
    <glyph glyph-name="scaron" unicode="&#x161;" horiz-adv-x="458" 
d="M142 365q0 -28 22.5 -47t92.5 -58q71 -39 98 -65.5t27 -68.5q0 -59 -49.5 -96t-141.5 -37q-76 0 -117 28t-41 78q0 16 3.5 30.5t7.5 21.5l3 7q21 7 56 7l6 -7q-13 -24 -13 -55q0 -38 26 -58.5t75 -20.5q56 0 87.5 25t31.5 63q0 31 -24.5 52t-90.5 55q-35 18 -52 28
t-36.5 26t-27 34t-7.5 42q0 58 46.5 94.5t134.5 36.5q143 0 143 -103q0 -16 -3 -30.5t-7 -21.5l-3 -7q-20 -9 -55 -9l-7 9q13 23 13 56q0 75 -90 75q-52 0 -80 -24t-28 -60zM396 708l5 -6l-135 -142h-21l-89 142l6 6h28l74 -98l104 98h28z" />
    <glyph glyph-name="Tcommaaccent" unicode="&#x162;" horiz-adv-x="618" 
d="M409 665l-104 -665h-72l105 665h-83q-47 0 -85 -4t-52 -8l-14 -4l-7 7l7 44h551l-7 -44l-8 -7q-41 16 -147 16h-84zM186 -236l-9 11q7 6 16.5 18t26 49t16.5 74l-1 20l5 5q13 0 24.5 -2t16.5 -4l5 -2q1 -4 1 -14q0 -27 -10.5 -53t-25 -43.5t-29.5 -31.5t-26 -21z" />
    <glyph glyph-name="tcommaaccent" unicode="&#x163;" horiz-adv-x="338" 
d="M48 439l4 21l82 24l39 115h45l-20 -126h131l-5 -34h-131l-52 -328q-12 -76 53 -76q18 0 35 6.5t25 12.5l8 6l12 -14q-5 -6 -14.5 -15t-40 -23.5t-63.5 -14.5q-48 0 -71 28.5t-14 82.5l53 335h-76zM75 -236l-9 11q7 6 17 18t26.5 49t16.5 74l-1 20l4 5q13 0 24.5 -2
t16.5 -4l5 -2q2 -4 2 -14q0 -27 -10.5 -53t-25.5 -43.5t-30 -31.5t-25 -21z" />
    <glyph glyph-name="Tcaron" unicode="&#x164;" horiz-adv-x="618" 
d="M409 665l-104 -665h-72l105 665h-83q-47 0 -85 -4t-52 -8l-14 -4l-7 7l7 44h551l-7 -44l-8 -7q-41 16 -147 16h-84zM530 908l5 -6l-135 -142h-21l-89 142l6 6h28l74 -98l104 98h28z" />
    <glyph glyph-name="tcaron" unicode="&#x165;" horiz-adv-x="361" 
d="M48 439l4 21l82 24l39 115h45l-20 -126h131l-5 -34h-131l-52 -328q-12 -76 53 -76q18 0 35 6.5t25 12.5l8 6l12 -14q-5 -6 -14.5 -15t-40 -23.5t-63.5 -14.5q-48 0 -71 28.5t-14 82.5l53 335h-76zM311 579l-9 12q7 6 17 18t26.5 49t16.5 74l-1 20l4 5q13 0 24.5 -2
t16.5 -4l5 -2q1 -4 1 -14q0 -27 -10.5 -53t-25 -43.5t-29.5 -31.5t-25 -21z" />
    <glyph glyph-name="Tbar" unicode="&#x166;" horiz-adv-x="618" 
d="M167 358l6 36h122l43 271h-83q-47 0 -85 -4t-52 -8l-14 -4l-7 7l7 44h551l-7 -44l-8 -7q-41 16 -147 16h-84l-43 -271h123l-6 -36h-122l-56 -358h-72l56 358h-122z" />
    <glyph glyph-name="tbar" unicode="&#x167;" horiz-adv-x="338" 
d="M22 273l5 34h76l21 132h-76l4 21l82 24l39 115h45l-20 -126h131l-5 -34h-131l-21 -132h130l-5 -34h-131l-25 -162q-12 -76 53 -76q18 0 35 6.5t25 12.5l8 6l12 -14q-5 -6 -14.5 -15t-40 -23.5t-63.5 -14.5q-48 0 -71 28.5t-14 82.5l26 169h-75z" />
    <glyph glyph-name="Utilde" unicode="&#x168;" horiz-adv-x="681" 
d="M554 256l70 444h37l-70 -443q-18 -116 -98.5 -190t-194.5 -74t-170 74t-37 190l70 443h71l-71 -452q-15 -96 28.5 -157t129.5 -61q88 0 153.5 63t81.5 163zM398 857q23 0 44 -18t39 -18q19 0 37 9.5t26 19.5l9 10l11 -15q-4 -7 -11.5 -18t-32.5 -29t-52 -18q-23 0 -44 18
t-39 18q-19 0 -37 -10t-26 -20l-9 -9l-11 15q4 7 11.5 18t32.5 29t52 18z" />
    <glyph glyph-name="utilde" unicode="&#x169;" horiz-adv-x="559" 
d="M126 473h61q-5 -73 -21 -173l-27 -168q-15 -94 49 -94q98 1 222 258v1l26 168l8 8h62l-48 -300q-4 -28 -7 -55.5t-4 -46t-1.5 -33.5t0.5 -22v-8l-7 -8h-61q-5 54 10 145l11 68l-3 4q-2 -5 -6 -13t-17 -31t-27 -44.5t-36 -47t-44 -44.5t-51 -31.5t-57 -12.5
q-50 0 -74 35.5t-13 103.5l27 168q7 44 12 85.5t6 60.5l2 19zM295 650q23 0 44 -18t39 -18t36 10t27 20l9 9l11 -15q-4 -7 -11.5 -18t-32.5 -29t-52 -18q-23 0 -44 18t-40 18q-18 0 -36 -9.5t-27 -19.5l-8 -10l-12 14q4 7 12 18t33 29.5t52 18.5z" />
    <glyph glyph-name="Umacron" unicode="&#x16a;" horiz-adv-x="681" 
d="M554 256l70 444h37l-70 -443q-18 -116 -98.5 -190t-194.5 -74t-170 74t-37 190l70 443h71l-71 -452q-15 -96 28.5 -157t129.5 -61q88 0 153.5 63t81.5 163zM322 802l5 36h217l-5 -36h-217z" />
    <glyph glyph-name="umacron" unicode="&#x16b;" horiz-adv-x="559" 
d="M126 473h61q-5 -73 -21 -173l-27 -168q-15 -94 49 -94q37 0 78 36.5t72.5 88.5t48.5 84.5t23 48.5v1l26 168l8 8h62l-48 -300q-4 -28 -7 -55.5t-4 -46t-1.5 -33.5t0.5 -22v-8l-7 -8h-61q-5 54 10 145l11 68l-3 4q-2 -5 -6 -13t-17 -31t-27 -44.5t-36 -47t-44 -44.5
t-51 -31.5t-57 -12.5q-50 0 -74 35.5t-13 103.5l27 168q7 44 12 85.5t6 60.5l2 19zM218 595l6 36h217l-6 -36h-217z" />
    <glyph glyph-name="Ubreve" unicode="&#x16c;" horiz-adv-x="681" 
d="M554 256l70 444h37l-70 -443q-18 -116 -98.5 -190t-194.5 -74t-170 74t-37 190l70 443h71l-71 -452q-15 -96 28.5 -157t129.5 -61q88 0 153.5 63t81.5 163zM317 859l16 14q1 -2 3.5 -6t11.5 -14t19.5 -17.5t28 -14t37.5 -6.5q31 0 60.5 14.5t43.5 28.5l14 15l12 -14
q-2 -3 -5.5 -9t-16.5 -20.5t-28 -26t-38.5 -20.5t-48.5 -9q-40 0 -67 21t-35 43z" />
    <glyph glyph-name="ubreve" unicode="&#x16d;" horiz-adv-x="559" 
d="M126 473h61q-5 -73 -21 -173l-27 -168q-15 -94 49 -94q35 0 74 33t70 82.5t48.5 82.5t27.5 56l1 3l1 2l26 168l8 8h62l-48 -300q-4 -28 -7 -55.5t-4 -46t-1.5 -33.5t0.5 -22v-8l-7 -8h-61q-5 54 10 145l11 68l-3 4q-2 -5 -6 -13t-17 -31t-27 -44.5t-36 -47t-44 -44.5
t-51 -31.5t-57 -12.5q-50 0 -74 35.5t-13 103.5l27 168q7 44 12 85.5t6 60.5l2 19zM207 651l17 15q3 -6 10 -16t32.5 -26t56.5 -16t60.5 14.5t43.5 29.5l14 14l12 -15q-2 -3 -5.5 -9t-16.5 -20.5t-27.5 -25.5t-38 -20t-48.5 -9q-40 0 -67.5 21t-35.5 42z" />
    <glyph glyph-name="Uring" unicode="&#x16e;" horiz-adv-x="681" 
d="M554 256l70 444h37l-70 -443q-18 -116 -98.5 -190t-194.5 -74t-170 74t-37 190l70 443h71l-71 -452q-15 -96 28.5 -157t129.5 -61q88 0 153.5 63t81.5 163zM363 831q0 39 25 65t61 26q28 0 44.5 -17.5t16.5 -48.5q0 -38 -24.5 -65t-61.5 -27q-28 0 -44.5 18.5t-16.5 48.5
zM396 836q0 -17 9 -27.5t25 -10.5q20 0 34 15t14 37q0 17 -9.5 27.5t-25.5 10.5q-20 0 -33.5 -15t-13.5 -37z" />
    <glyph glyph-name="uring" unicode="&#x16f;" horiz-adv-x="559" 
d="M126 473h61q-5 -73 -21 -173l-27 -168q-15 -94 49 -94q37 0 77 35.5t71 86t48.5 84.5t24.5 51l-13 -78l14 79v1l26 168l8 8h62l-48 -300q-4 -28 -7 -55.5t-4 -46t-1.5 -33.5t0.5 -22v-8l-7 -8h-61q-5 54 10 145l11 68l-3 4q-2 -5 -6 -13t-17 -31t-27 -44.5t-36 -47
t-44 -44.5t-51 -31.5t-57 -12.5q-50 0 -74 35.5t-13 103.5l27 168q7 44 12 85.5t6 60.5l2 19zM256 624q0 39 25 64.5t61 25.5q29 0 45 -17.5t16 -47.5q0 -39 -24.5 -65.5t-60.5 -26.5q-29 0 -45.5 18t-16.5 49zM289 629q0 -17 9 -28t25 -11q20 0 34 15.5t14 37.5
q0 17 -9 27.5t-25 10.5q-20 0 -34 -15t-14 -37zM410 297l-1 -2q1 0 1 1v1z" />
    <glyph glyph-name="Uhungarumlaut" unicode="&#x170;" horiz-adv-x="681" 
d="M554 256l70 444h37l-70 -443q-18 -116 -98.5 -190t-194.5 -74t-170 74t-37 190l70 443h71l-71 -452q-15 -96 28.5 -157t129.5 -61q88 0 153.5 63t81.5 163zM324 772l-5 6l104 143q17 0 30.5 -2.5t18.5 -4.5l5 -3l-1 -7l-128 -132h-24zM471 772l-5 6l110 143
q17 0 29.5 -2.5t16.5 -4.5l5 -3v-7l-132 -132h-24z" />
    <glyph glyph-name="uhungarumlaut" unicode="&#x171;" horiz-adv-x="559" 
d="M126 473h61q-5 -73 -21 -173l-27 -168q-15 -94 49 -94q35 0 74 33t70 82.5t48.5 82.5t27.5 56l1 3l1 2l26 168l8 8h62l-48 -300q-4 -28 -7 -55.5t-4 -46t-1.5 -33.5t0.5 -22v-8l-7 -8h-61q-5 54 10 145l11 68l-3 4q-2 -5 -6 -13t-17 -31t-27 -44.5t-36 -47t-44 -44.5
t-51 -31.5t-57 -12.5q-50 0 -74 35.5t-13 103.5l27 168q7 44 12 85.5t6 60.5l2 19zM211 565l-5 6l103 142q17 0 30.5 -2.5t18.5 -4.5l5 -3l-1 -6l-127 -132h-24zM357 565l-5 6l110 142q17 0 30 -2.5t18 -4.5l4 -3v-6l-133 -132h-24z" />
    <glyph glyph-name="Uogonek" unicode="&#x172;" horiz-adv-x="681" 
d="M554 256l70 444h37l-70 -443q-16 -100 -78.5 -169.5t-154.5 -88.5q-45 -45 -45 -92q0 -36 33 -36q9 0 17 2.5t12 5.5l4 3l12 -15q-21 -29 -59 -29q-26 0 -42.5 16t-16.5 46q0 53 50 94q-4 0 -12.5 -0.5t-12.5 -0.5q-114 0 -170 74t-37 190l70 443h71l-71 -452
q-15 -96 28.5 -157t129.5 -61q88 0 153.5 63t81.5 163z" />
    <glyph glyph-name="uogonek" unicode="&#x173;" horiz-adv-x="559" 
d="M126 473h61q-5 -73 -21 -173l-27 -168q-15 -94 49 -94q35 0 74 33t70 82.5t48.5 82.5t27.5 56l1 3l1 2l26 168l8 8h62l-48 -300q-4 -28 -7 -55.5t-4 -46t-1.5 -33.5t0.5 -22v-8l-7 -8h-7q-42 -42 -42 -89q0 -36 33 -36q9 0 17 2.5t12 4.5l4 3l11 -15q-21 -28 -59 -28
q-26 0 -42.5 16t-16.5 46q0 54 53 96h-24q-5 54 10 145l11 68l-3 4q-2 -5 -6 -13t-17 -31t-27 -44.5t-36 -47t-44 -44.5t-51 -31.5t-57 -12.5q-50 0 -74 35.5t-13 103.5l27 168q7 44 12 85.5t6 60.5l2 19z" />
    <glyph glyph-name="Wcircumflex" unicode="&#x174;" horiz-adv-x="972" 
d="M615 14l-83 465l-229 -479h-52l-11 14l-101 513q-10 52 -20.5 93.5t-15.5 56.5l-5 15l1 8h81l122 -620l220 459q-8 48 -17 86.5t-13 52.5l-5 14l1 8h82l107 -616l298 616h42l-341 -700h-51zM703 778l-8 -6h-27l-73 98l-105 -98h-27l-5 6l135 143h19z" />
    <glyph glyph-name="wcircumflex" unicode="&#x175;" horiz-adv-x="718" 
d="M433 14l-46 265q-51 -104 -167 -279h-47l-10 14l-58 286q-11 52 -23 94t-18 58l-7 15l6 6h73l83 -405q122 188 154 288q-8 34 -15.5 62t-11.5 38l-4 11l6 6h70l71 -405q97 142 134 222t36 135q0 14 -1.5 24t-3.5 13l-2 4l7 7h47q6 -9 6 -34q0 -60 -47.5 -157t-176.5 -282
h-45zM534 571l-8 -6h-27l-73 98l-105 -98h-27l-5 6l135 142h20z" />
    <glyph glyph-name="Ycircumflex" unicode="&#x176;" 
d="M638 700l-292 -379l-50 -321h-71l49 317l-78 170q-25 56 -50 107.5t-38 74.5l-12 23l1 8h88l151 -337l257 337h45zM506 778l-8 -6h-27l-73 98l-105 -98h-27l-5 6l135 143h20z" />
    <glyph glyph-name="ycircumflex" unicode="&#x177;" horiz-adv-x="489" 
d="M-55 -257q-9 0 -19 2.5t-15 4.5l-5 2q0 18 4.5 33.5t9.5 22.5l4 6q16 -9 36 -9q38 0 97 50.5t124 133.5l-73 311q-12 53 -24.5 94.5t-18.5 57.5l-6 15l5 6h72l94 -420q76 107 127 211t51 161q0 11 -2 21.5t-4 15.5l-1 4l6 7h48q6 -15 6 -34q0 -56 -59.5 -173.5
t-140 -232.5t-171 -202.5t-145.5 -87.5zM412 571l-7 -6h-28l-73 98l-104 -98h-28l-5 6l135 142h20z" />
    <glyph glyph-name="Ydieresis" unicode="&#x178;" 
d="M638 700l-292 -379l-50 -321h-71l49 317l-78 170q-25 56 -50 107.5t-38 74.5l-12 23l1 8h88l151 -337l257 337h45zM449 809q0 19 11.5 30.5t29.5 11.5q31 0 31 -31q0 -18 -11.5 -30t-30.5 -12q-30 0 -30 31zM256 809q0 19 12 30.5t29 11.5q31 0 31 -31q0 -18 -12 -30
t-29 -12q-31 0 -31 31z" />
    <glyph glyph-name="Zacute" unicode="&#x179;" horiz-adv-x="629" 
d="M24 20l521 645h-257q-47 0 -85 -4t-53 -8l-14 -4l-5 7l6 44h507l-3 -20l-520 -645h263q47 0 85 4t53 8l14 4l6 -7l-7 -44h-514zM370 772l-6 6l105 143q17 0 30.5 -2.5t18.5 -4.5l5 -3l-1 -7l-129 -132h-23z" />
    <glyph glyph-name="zacute" unicode="&#x17a;" horiz-adv-x="472" 
d="M16 20l345 419h-117q-47 0 -85 -4t-53 -8l-14 -4l-6 7l7 43h363l-4 -21l-344 -418h124q47 0 85 4t52 8l14 4l7 -8l-7 -42h-370zM249 565l-5 6l105 142q17 0 30.5 -2.5t18.5 -4.5l5 -3l-1 -6l-129 -132h-24z" />
    <glyph glyph-name="Zdotaccent" unicode="&#x17b;" horiz-adv-x="629" 
d="M24 20l521 645h-257q-47 0 -85 -4t-53 -8l-14 -4l-5 7l6 44h507l-3 -20l-520 -645h263q47 0 85 4t53 8l14 4l6 -7l-7 -44h-514zM368 833q0 19 13 32t32 13q33 0 33 -34q0 -20 -13 -32.5t-32 -12.5q-15 0 -24 9t-9 25z" />
    <glyph glyph-name="zdotaccent" unicode="&#x17c;" horiz-adv-x="472" 
d="M16 20l345 419h-117q-47 0 -85 -4t-53 -8l-14 -4l-6 7l7 43h363l-4 -21l-344 -418h124q47 0 85 4t52 8l14 4l7 -8l-7 -42h-370zM254 620q0 20 13 32.5t32 12.5q33 0 33 -34q0 -19 -13 -32t-32 -13q-15 0 -24 9.5t-9 24.5z" />
    <glyph glyph-name="Zcaron" unicode="&#x17d;" horiz-adv-x="629" 
d="M24 20l521 645h-257q-47 0 -85 -4t-53 -8l-14 -4l-5 7l6 44h507l-3 -20l-520 -645h263q47 0 85 4t53 8l14 4l6 -7l-7 -44h-514zM536 916l5 -7l-135 -142h-20l-90 142l7 7h27l74 -99l105 99h27z" />
    <glyph glyph-name="zcaron" unicode="&#x17e;" horiz-adv-x="472" 
d="M16 20l345 419h-117q-47 0 -85 -4t-53 -8l-14 -4l-6 7l7 43h363l-4 -21l-344 -418h124q47 0 85 4t52 8l14 4l7 -8l-7 -42h-370zM411 708l5 -6l-135 -142h-20l-90 142l7 6h28l74 -98l104 98h27z" />
    <glyph glyph-name="uni018F" unicode="&#x18f;" horiz-adv-x="693" 
d="M60 198q0 35 8 67.5t16 47.5l8 15l11 9h467q5 37 5 68q0 122 -54 188.5t-155 66.5q-60 0 -115 -22.5t-81 -45.5l-25 -22l-13 16q4 5 11 13t31.5 29t52 37t72 29t92.5 13q124 0 193.5 -80t69.5 -217q0 -176 -107 -296.5t-266 -120.5q-105 0 -163 56t-58 149zM284 25
q102 0 179.5 78.5t101.5 203.5l-418 -13q-18 -54 -18 -106q0 -77 40.5 -120t114.5 -43z" />
    <glyph glyph-name="florin" unicode="&#x192;" horiz-adv-x="350" 
d="M78 -35l84 475h-92l4 21l94 13l26 149q12 67 49 101t94 34q34 0 59.5 -11.5t34.5 -22.5l9 -12l-17 -15q-23 25 -68 25q-75 0 -91 -95l-28 -154h154l-6 -34h-153l-81 -455q-8 -48 -32 -90.5t-51.5 -69t-54 -46t-44.5 -28.5l-17 -8l-12 15q5 3 13 8.5t29 25.5t38.5 42
t35 58t23.5 74z" />
    <glyph glyph-name="uni01DD" unicode="&#x1dd;" horiz-adv-x="484" 
d="M83 382l-12 15q3 3 8 9t22.5 20t37.5 25t52 20t66 9q87 0 131.5 -53.5t44.5 -143.5q0 -128 -79.5 -209t-193.5 -81q-70 0 -99 30t-29 68q0 54 49.5 93.5t121 58t152.5 20.5q0 2 0.5 8t0.5 9q0 158 -125 158q-40 0 -77 -14t-54 -28zM166 24q71 0 123 57.5t64 150.5
q-44 -1 -86.5 -9t-83 -24t-65.5 -45t-25 -67q0 -63 73 -63z" />
    <glyph glyph-name="Aringacute" unicode="&#x1fa;" horiz-adv-x="658" 
d="M143 210l-114 -210h-41l367 674l-6 18v1q-14 19 -14 47q0 39 24.5 65t60.5 26q7 0 19 -2l88 119q17 0 30.5 -2.5t18.5 -5.5l5 -2l-1 -6l-115 -119q17 -17 17 -48q0 -27 -13.5 -50t-35.5 -34l158 -681h-74l-48 210h-326zM396 527q-13 54 -26 101l-208 -382h298zM368 745
q0 -17 9 -27.5t25 -10.5q19 0 33 15.5t14 36.5q0 17 -9 27.5t-25 10.5q-20 0 -33.5 -15t-13.5 -37z" />
    <glyph glyph-name="aringacute" unicode="&#x1fb;" horiz-adv-x="554" 
d="M492 426l-41 -253q-7 -44 -10 -85.5t-2 -60.5l1 -19l-8 -8h-61q-5 54 10 145l11 68l-2 4q-4 -9 -11.5 -24t-32.5 -54t-51 -68.5t-64.5 -53.5t-75.5 -24q-54 0 -82 44.5t-28 119.5q0 140 87.5 231.5t222.5 91.5q50 0 84 -13.5t43 -26.5zM118 156q0 -118 66 -118
q28 0 60.5 25t55.5 55.5t49 74.5t34.5 62t18.5 39l1 2v1l18 114q-2 4 -6.5 10t-25.5 16.5t-50 10.5q-88 0 -154.5 -85.5t-66.5 -206.5zM273 601q0 39 25 65t61 26h7l88 119q17 0 30.5 -2.5t18.5 -5.5l5 -3l-1 -6l-111 -113q24 -17 24 -55t-24.5 -65t-60.5 -27
q-29 0 -45.5 18.5t-16.5 48.5zM306 606q0 -17 9 -27.5t25 -10.5q20 0 34 15t14 37q0 17 -9 27.5t-25 10.5q-20 0 -34 -15t-14 -37z" />
    <glyph glyph-name="AEacute" unicode="&#x1fc;" horiz-adv-x="795" 
d="M-12 0l413 700h396l-7 -44l-9 -7q-40 16 -146 16h-157l-46 -291h257l4 -6l-4 -30h-263l-47 -303h165q47 0 85 4t53 8l14 4l6 -7l-7 -44h-393l34 217h-180l-127 -217h-41zM177 253h164l61 382zM443 772l-5 6l105 143q17 0 30.5 -2.5t18.5 -4.5l5 -3l-1 -7l-129 -132h-24z
" />
    <glyph glyph-name="aeacute" unicode="&#x1fd;" horiz-adv-x="772" 
d="M699 90l11 -14q-3 -3 -8 -9t-22.5 -20t-37.5 -25t-52.5 -20t-66.5 -9q-122 0 -168 96q-17 -17 -38.5 -35t-70.5 -39.5t-99 -21.5q-110 0 -110 101q0 58 41.5 96t143.5 53l117 15q2 10 4 15l12 80q15 96 -76 96q-55 0 -90 -34t-35 -88l2 -20l-9 -8q-16 0 -29 2t-18 4l-6 2
q-3 9 -3 23q0 65 52.5 107.5t139.5 42.5q116 0 129 -82q79 82 194 82q70 0 98.5 -29.5t28.5 -68.5q0 -54 -50 -94t-121.5 -58.5t-152.5 -20.5v-9q0 -80 36 -122.5t105 -42.5q40 0 77.5 13.5t54.5 27.5zM599 449q-71 0 -124 -59.5t-64 -149.5q44 1 86.5 9t83.5 24t66 45.5
t25 67.5q0 63 -73 63zM110 108q0 -72 74 -72q79 0 161 79q-12 36 -12 82q0 20 1 29l-110 -14q-114 -16 -114 -104zM411 565l-5 6l105 142q17 0 30.5 -2.5t18.5 -4.5l5 -3l-1 -6l-129 -132h-24z" />
    <glyph glyph-name="Oslashacute" unicode="&#x1fe;" horiz-adv-x="748" 
d="M155 -25h-41l51 74q-94 79 -94 241q0 177 108 297t264 120q85 0 144 -38l38 56h40l-51 -75q95 -79 95 -241q0 -176 -108.5 -296t-265.5 -120q-83 0 -143 37zM147 283q0 -121 49 -188l364 535q-48 45 -122 45q-122 0 -206.5 -113t-84.5 -279zM632 417q0 120 -49 187
l-364 -535q47 -44 121 -44q122 0 207 113t85 279zM420 772l-5 6l105 143q17 0 30.5 -2.5t18.5 -4.5l5 -3l-1 -7l-129 -132h-24z" />
    <glyph glyph-name="oslashacute" unicode="&#x1ff;" horiz-adv-x="543" 
d="M61 -1l37 46q-52 55 -52 152q0 120 74.5 201.5t183.5 81.5q65 0 112 -33l32 40l25 -17l-34 -43q53 -55 53 -152q0 -120 -75 -201t-185 -81q-66 0 -112 32l-34 -43zM118 183q0 -56 16 -92l252 317q-33 41 -87 41q-75 0 -128 -80.5t-53 -185.5zM419 290q0 52 -17 91
l-251 -317q31 -40 86 -40q75 0 128.5 80t53.5 186zM277 565l-5 6l105 142q17 0 30.5 -2.5t18.5 -4.5l5 -3l-1 -6l-129 -132h-24z" />
    <glyph glyph-name="Scommaaccent" unicode="&#x218;" horiz-adv-x="579" 
d="M342 675q-75 0 -113.5 -38t-38.5 -95q0 -43 28 -71.5t120 -89.5q97 -66 128 -100.5t31 -88.5q0 -89 -64.5 -144t-187.5 -55q-44 0 -81.5 7.5t-59 18.5t-37 22.5t-21.5 18.5l-6 8q3 20 14.5 38.5t21.5 26.5l10 8h10q2 -5 5.5 -12.5t17 -27.5t30.5 -35.5t46 -28t63 -12.5
q73 0 121.5 39t48.5 100q0 26 -9 47t-33.5 42.5t-43.5 34t-63 39.5q-92 56 -124 92.5t-32 95.5q0 88 61 140t174 52q38 0 71 -6.5t52.5 -15.5t33.5 -18t19 -15l6 -7q-3 -20 -14.5 -38.5t-21.5 -26.5l-10 -9h-9q-1 4 -3.5 11t-13 25t-25 32t-41.5 25t-60 11zM169 -236l-9 11
q7 6 16.5 18t26 49t16.5 74l-1 20l5 5q13 0 24.5 -2t16.5 -4l5 -2q1 -4 1 -14q0 -27 -10.5 -53t-25 -43.5t-29.5 -31.5t-25 -21z" />
    <glyph glyph-name="scommaaccent" unicode="&#x219;" horiz-adv-x="458" 
d="M142 365q0 -28 22.5 -47t92.5 -58q71 -39 98 -65.5t27 -68.5q0 -59 -49.5 -96t-141.5 -37q-76 0 -117 28t-41 78q0 16 3.5 30.5t7.5 21.5l3 7q21 7 56 7l6 -7q-13 -24 -13 -55q0 -38 26 -58.5t75 -20.5q56 0 87.5 25t31.5 63q0 31 -24.5 52t-90.5 55q-35 18 -52 28
t-36.5 26t-27 34t-7.5 42q0 58 46.5 94.5t134.5 36.5q143 0 143 -103q0 -16 -3 -30.5t-7 -21.5l-3 -7q-20 -9 -55 -9l-7 9q13 23 13 56q0 75 -90 75q-52 0 -80 -24t-28 -60zM121 -236l-9 11q7 6 17 18t26.5 49t16.5 74l-1 20l4 5q13 0 24.5 -2t16.5 -4l5 -2q2 -4 2 -14
q0 -27 -10.5 -53t-25.5 -43.5t-30 -31.5t-25 -21z" />
    <glyph glyph-name="uni021A" unicode="&#x21a;" horiz-adv-x="618" 
d="M409 665l-104 -665h-72l105 665h-83q-47 0 -85 -4t-52 -8l-14 -4l-7 7l7 44h551l-7 -44l-8 -7q-41 16 -147 16h-84zM186 -236l-9 11q7 6 16.5 18t26 49t16.5 74l-1 20l5 5q13 0 24.5 -2t16.5 -4l5 -2q1 -4 1 -14q0 -27 -10.5 -53t-25 -43.5t-29.5 -31.5t-26 -21z" />
    <glyph glyph-name="uni021B" unicode="&#x21b;" horiz-adv-x="338" 
d="M48 439l4 21l82 24l39 115h45l-20 -126h131l-5 -34h-131l-52 -328q-12 -76 53 -76q18 0 35 6.5t25 12.5l8 6l12 -14q-5 -6 -14.5 -15t-40 -23.5t-63.5 -14.5q-48 0 -71 28.5t-14 82.5l53 335h-76zM75 -236l-9 11q7 6 17 18t26.5 49t16.5 74l-1 20l4 5q13 0 24.5 -2
t16.5 -4l5 -2q2 -4 2 -14q0 -27 -10.5 -53t-25.5 -43.5t-30 -31.5t-25 -21z" />
    <glyph glyph-name="dotlessj" unicode="&#x237;" horiz-adv-x="245" 
d="M43 -35l54 335l22 165l7 8h61q-6 -73 -22 -173l-50 -316q-8 -48 -29.5 -90.5t-47.5 -69t-51 -46t-41 -28.5l-17 -8l-12 15q4 3 11.5 8.5t26.5 25.5t35 42t31.5 58t21.5 74z" />
    <glyph glyph-name="circumflex" unicode="&#x2c6;" horiz-adv-x="327" 
d="M336 571l-7 -6h-28l-73 98l-104 -98h-28l-5 6l135 142h20z" />
    <glyph glyph-name="caron" unicode="&#x2c7;" horiz-adv-x="327" 
d="M352 708l5 -6l-135 -142h-20l-90 142l7 6h28l74 -98l104 98h27z" />
    <glyph glyph-name="breve" unicode="&#x2d8;" horiz-adv-x="349" 
d="M115 651l16 15q3 -6 10 -16t32.5 -26t57.5 -16q31 0 60.5 14.5t43.5 29.5l14 14l12 -15q-2 -3 -5.5 -9t-16.5 -20.5t-28 -25.5t-38.5 -20t-48.5 -9q-40 0 -67 21t-35 42z" />
    <glyph glyph-name="dotaccent" unicode="&#x2d9;" horiz-adv-x="238" 
d="M139 620q0 20 12.5 32.5t32.5 12.5q33 0 33 -34q0 -19 -13 -32t-32 -13q-15 0 -24 9.5t-9 24.5z" />
    <glyph glyph-name="ring" unicode="&#x2da;" horiz-adv-x="233" 
d="M104 624q0 39 25 64.5t61 25.5q29 0 45 -17.5t16 -47.5q0 -39 -24.5 -65.5t-61.5 -26.5q-28 0 -44.5 18t-16.5 49zM137 629q0 -17 9 -28t25 -11q20 0 34 15.5t14 37.5q0 17 -9 27.5t-25 10.5q-20 0 -34 -15t-14 -37z" />
    <glyph glyph-name="ogonek" unicode="&#x2db;" horiz-adv-x="217" 
d="M50 0h29q-47 -44 -47 -93q0 -36 33 -36q9 0 17.5 2.5t11.5 5.5l4 3l12 -15q-21 -29 -59 -29q-26 0 -42.5 16t-16.5 46q0 28 14.5 53t29.5 36z" />
    <glyph glyph-name="tilde" unicode="&#x2dc;" horiz-adv-x="349" 
d="M197 650q23 0 44 -18t39 -18t36 10t27 20l9 9l11 -15q-4 -7 -12 -18t-33 -29t-51 -18q-23 0 -44 18t-40 18q-18 0 -36 -9.5t-27 -19.5l-8 -10l-12 14q4 7 12 18t33 29.5t52 18.5z" />
    <glyph glyph-name="hungarumlaut" unicode="&#x2dd;" horiz-adv-x="390" 
d="M107 565l-5 6l103 142q17 0 31 -2.5t19 -4.5l5 -3l-1 -6l-128 -132h-24zM254 565l-5 6l110 142q17 0 29.5 -2.5t17.5 -4.5l4 -3v-6l-132 -132h-24z" />
    <glyph glyph-name="uni0400" unicode="&#x400;" horiz-adv-x="565" 
d="M57 0l111 700h399l-7 -44l-8 -7q-42 16 -147 16h-172l-46 -291h272l5 -6l-4 -30h-279l-47 -303h180q47 0 85 4t53 8l14 4l6 -7l-7 -44h-408zM432 778l-7 -6h-24l-87 132l1 7q19 10 58 10z" />
    <glyph glyph-name="afii10023" unicode="&#x401;" horiz-adv-x="565" 
d="M57 0l111 700h399l-7 -44l-8 -7q-42 16 -147 16h-172l-46 -291h272l5 -6l-4 -30h-279l-47 -303h180q47 0 85 4t53 8l14 4l6 -7l-7 -44h-408zM446 809q0 19 12 30.5t30 11.5q31 0 31 -31q0 -18 -12 -30t-30 -12q-31 0 -31 31zM253 809q0 19 11.5 30.5t29.5 11.5
q31 0 31 -31q0 -18 -11.5 -30t-29.5 -12q-31 0 -31 31z" />
    <glyph glyph-name="afii10051" unicode="&#x402;" horiz-adv-x="815" 
d="M652 211l4 29q23 139 -114 139q-92 0 -186 -53l-51 -326h-72l105 665h-83q-47 0 -85 -4t-52 -8l-14 -4l-7 7l7 44h551l-7 -44l-8 -7q-41 16 -147 16h-84l-47 -300q16 9 39 19.5t76.5 25t101.5 14.5q174 0 145 -180l-5 -32q-35 -219 -200 -219q-27 0 -50.5 6t-36.5 15
t-22.5 18t-13.5 15l-3 6q3 17 12 31t17 20l8 6h8q1 -3 2 -9t7.5 -20.5t15.5 -26t25 -20.5t36 -9q98 0 128 186z" />
    <glyph glyph-name="afii10052" unicode="&#x403;" horiz-adv-x="519" 
d="M343 772l-5 6l105 143q17 0 30.5 -2.5t18.5 -4.5l5 -3l-1 -7l-129 -132h-24zM57 0l111 700h388l-7 -44l-8 -7q-41 16 -147 16h-161l-105 -665h-71z" />
    <glyph glyph-name="afii10053" unicode="&#x404;" horiz-adv-x="680" 
d="M447 675q-113 0 -192.5 -85t-99.5 -217h353l4 -6l-5 -30h-356q-1 -14 -1 -41q0 -124 54.5 -190t157.5 -66q57 0 111.5 19.5t80.5 38.5l27 20l12 -16q-4 -4 -11 -11.5t-31.5 -26.5t-52 -33t-71 -26t-89.5 -12q-125 0 -196 80t-71 219q0 176 107.5 295.5t274.5 119.5
q99 0 154.5 -43.5t55.5 -117.5q0 -23 -5.5 -41t-10.5 -25l-5 -6q-23 -8 -62 -8l-6 8q18 27 18 75q0 60 -37.5 93t-107.5 33z" />
    <glyph glyph-name="afii10054" unicode="&#x405;" horiz-adv-x="579" 
d="M342 675q-75 0 -113.5 -38t-38.5 -95q0 -42 28 -71t120 -90q97 -65 128 -99.5t31 -90.5q0 -88 -64.5 -143t-187.5 -55q-44 0 -81.5 7.5t-59 18.5t-37 22.5t-21.5 18.5l-6 8q3 20 14.5 38.5t21.5 26.5l10 8h10q2 -5 5.5 -12.5t17 -27.5t30.5 -35.5t46 -28t63 -12.5
q73 0 121.5 39t48.5 100q0 26 -9 47t-32.5 41.5t-43.5 34.5t-64 40q-47 29 -70.5 45.5t-46.5 39.5t-31 47t-8 57q0 87 61.5 139t173.5 52q38 0 71 -6.5t52.5 -15.5t33.5 -18t19 -15l6 -7q-3 -20 -14.5 -38.5t-21.5 -26.5l-10 -9h-9q-1 4 -3.5 11t-13 25t-25 32t-41.5 25
t-60 11z" />
    <glyph glyph-name="afii10055" unicode="&#x406;" horiz-adv-x="265" 
d="M57 0l111 700h71l-111 -700h-71z" />
    <glyph glyph-name="afii10056" unicode="&#x407;" horiz-adv-x="265" 
d="M86 789q0 19 12 30.5t29 11.5q31 0 31 -31q0 -18 -12 -30t-29 -12q-31 0 -31 31zM279 789q0 19 11.5 30.5t29.5 11.5q31 0 31 -31q0 -18 -11.5 -30t-30.5 -12q-30 0 -30 31zM57 0l111 700h71l-111 -700h-71z" />
    <glyph glyph-name="afii10057" unicode="&#x408;" horiz-adv-x="478" 
d="M303 211l78 489h71l-77 -488q-35 -219 -222 -219q-48 0 -84.5 15t-48.5 30l-13 15q3 19 13.5 36.5t19.5 25.5l9 8h8q1 -4 2.5 -10.5t9.5 -23.5t18.5 -30t29.5 -23.5t43 -10.5q115 0 143 186z" />
    <glyph glyph-name="afii10058" unicode="&#x409;" horiz-adv-x="999" 
d="M2 59l8 8q17 -10 38 -10q60 0 106.5 114.5t71.5 350.5q7 52 11.5 94.5t5.5 59.5l1 16l9 8h404l-50 -312h131q95 0 148 -43.5t53 -125.5q0 -98 -72.5 -158.5t-189.5 -60.5h-202l104 664h-286l-27 -174q-43 -264 -95 -380.5t-128 -116.5q-12 0 -22.5 2.5t-15.5 4.5l-5 3
q-4 22 2 56zM865 217q0 66 -37.5 100.5t-106.5 34.5h-120l-50 -316h121q86 0 139.5 50t53.5 131z" />
    <glyph glyph-name="afii10059" unicode="&#x40a;" horiz-adv-x="1017" 
d="M492 0l55 347h-364l-55 -347h-71l111 700h71l-51 -317h364l51 317h72l-51 -317h131q96 0 148.5 -42.5t52.5 -123.5q0 -98 -72.5 -157.5t-189.5 -59.5h-202zM882 214q0 66 -37 99.5t-106 33.5h-120l-50 -311h121q86 0 139 48.5t53 129.5z" />
    <glyph glyph-name="afii10060" unicode="&#x40b;" horiz-adv-x="815" 
d="M615 0l37 240q23 139 -112 139q-90 0 -184 -53l-51 -326h-72l105 665h-83q-47 0 -85 -4t-52 -8l-14 -4l-7 7l7 44h551l-7 -44l-8 -7q-41 16 -147 16h-84l-47 -300q16 9 39 19.5t76.5 25t101.5 14.5q173 0 146 -180l-39 -244h-71z" />
    <glyph glyph-name="afii10061" unicode="&#x40c;" horiz-adv-x="606" 
d="M57 0l111 700h71l-51 -316h52l312 316h51l-309 -311l109 -190q32 -53 64 -100.5t49 -68.5l16 -22l-1 -8h-87l-211 348h-50l-55 -348h-71zM349 772l-6 6l105 143q17 0 30.5 -2.5t18.5 -4.5l5 -3l-1 -7l-129 -132h-23z" />
    <glyph glyph-name="uni040D" unicode="&#x40d;" horiz-adv-x="722" 
d="M116 0h-59l111 700h71l-97 -606l495 606h59l-111 -700h-71l96 605zM486 778l-7 -6h-24l-87 132l1 7q19 10 58 10z" />
    <glyph glyph-name="afii10062" unicode="&#x40e;" horiz-adv-x="596" 
d="M90 57l9 7q14 -12 49 -12q36 0 65.5 23.5t74.5 91.5l-136 400q-15 44 -28.5 76t-19.5 41l-6 10l1 6h86l152 -450l260 450h43l-281 -480q-79 -136 -122 -181.5t-95 -45.5q-16 0 -29 3.5t-18 6.5l-5 3q-5 18 0 51zM398 751q-56 0 -88 21.5t-32 55.5q0 9 3 18.5t5 14.5l3 5
q19 7 47 7l5 -6q-10 -17 -10 -33q0 -21 19.5 -34.5t52.5 -13.5q37 0 61.5 17.5t24.5 46.5l-1 16l6 7q13 0 24 -2t16 -4l5 -2q2 -10 2 -18q0 -41 -40.5 -68.5t-102.5 -27.5z" />
    <glyph glyph-name="afii10145" unicode="&#x40f;" horiz-adv-x="722" 
d="M239 700l-106 -664h386l106 664h71l-111 -700h-233l-37 -177h-37l-7 8l18 169h-232l111 700h71z" />
    <glyph glyph-name="afii10017" unicode="&#x410;" horiz-adv-x="658" 
d="M143 210l-114 -210h-41l367 674l-6 18l1 8h79l162 -700h-74l-48 210h-326zM396 527q-13 54 -26 101l-208 -382h298z" />
    <glyph glyph-name="afii10018" unicode="&#x411;" horiz-adv-x="591" 
d="M57 0l111 700h384l-7 -44l-8 -7q-41 16 -148 16h-156l-43 -268h139q95 0 148 -44.5t53 -128.5q0 -101 -73.5 -162.5t-189.5 -61.5h-210zM455 222q0 68 -37 103.5t-105 35.5h-128l-52 -325h128q87 0 140.5 51t53.5 135z" />
    <glyph glyph-name="afii10019" unicode="&#x412;" horiz-adv-x="624" 
d="M57 0l111 700h225q184 0 184 -150q0 -68 -38.5 -117.5t-110.5 -68.5q129 -26 129 -155q0 -95 -67.5 -152t-186.5 -57h-246zM483 212q0 131 -137 131h-164l-49 -307h164q86 0 136 48.5t50 127.5zM503 543q0 121 -127 121h-143l-45 -285h143q81 0 126.5 45.5t45.5 118.5z
" />
    <glyph glyph-name="afii10020" unicode="&#x413;" horiz-adv-x="519" 
d="M57 0l111 700h388l-7 -44l-8 -7q-41 16 -147 16h-161l-105 -665h-71z" />
    <glyph glyph-name="afii10021" unicode="&#x414;" horiz-adv-x="740" 
d="M658 36l6 -8l-37 -205h-37l-7 8q7 44 10.5 86t2.5 63v20h-532q-26 -70 -42 -169l-8 -8h-37l27 205l9 8h51q52 13 103.5 131.5t75.5 356.5q7 47 12 89t7 61l1 18l8 8h414l-106 -664h79zM284 490q-60 -371 -151 -454h374l100 628h-295z" />
    <glyph glyph-name="afii10022" unicode="&#x415;" horiz-adv-x="565" 
d="M57 0l111 700h399l-7 -44l-8 -7q-42 16 -147 16h-172l-46 -291h272l5 -6l-4 -30h-279l-47 -303h180q47 0 85 4t53 8l14 4l6 -7l-7 -44h-408z" />
    <glyph glyph-name="afii10024" unicode="&#x416;" horiz-adv-x="881" 
d="M166 199l154 191l-182 310h49l183 -314h56l50 314h71l-50 -314h54l285 314h48l-282 -310l95 -191q27 -53 54 -100.5t41 -68.5l14 -22l-1 -8h-81l-180 350h-53l-55 -350h-71l55 350h-54l-289 -350h-81l1 8q71 73 169 191z" />
    <glyph glyph-name="afii10025" unicode="&#x417;" horiz-adv-x="590" 
d="M254 25q87 0 141 52t54 135q0 64 -35 97t-102 33h-88l-6 6l5 30h74q88 0 131.5 49.5t43.5 128.5q0 57 -30 88t-87 31q-33 0 -64.5 -12t-53.5 -28.5t-39.5 -33.5t-25.5 -29l-9 -12h-11q-3 2 -7 6.5t-10 21.5t-3 37l8.5 8.5t25.5 20t44 25t63 19.5t82 9q189 0 189 -154
q0 -69 -38.5 -120t-109.5 -71q126 -24 126 -152q0 -100 -75 -158.5t-203 -58.5q-48 0 -86.5 8.5t-60 20.5t-36 24t-19.5 20l-4 9q3 20 13 36.5t19 22.5l8 6h10q1 -5 4 -12.5t16 -27.5t29.5 -35t47.5 -27.5t69 -12.5z" />
    <glyph glyph-name="afii10026" unicode="&#x418;" horiz-adv-x="722" 
d="M116 0h-59l111 700h71l-97 -606l495 606h59l-111 -700h-71l96 605z" />
    <glyph glyph-name="afii10027" unicode="&#x419;" horiz-adv-x="722" 
d="M116 0h-59l111 700h71l-97 -606l495 606h59l-111 -700h-71l96 605zM441 751q-55 0 -87 21.5t-32 55.5q0 9 3 18.5t5 14.5l3 5q18 7 47 7l5 -6q-9 -17 -9 -33q0 -21 19 -34.5t51 -13.5q38 0 62 17.5t24 46.5l-1 16l7 7q13 0 24 -2t16 -4l5 -2q2 -9 2 -19q0 -41 -40.5 -68
t-103.5 -27z" />
    <glyph glyph-name="afii10028" unicode="&#x41a;" horiz-adv-x="606" 
d="M57 0l111 700h71l-51 -316h52l312 316h51l-309 -311l109 -190q32 -53 64 -100.5t49 -68.5l16 -22l-1 -8h-87l-211 348h-50l-55 -348h-71z" />
    <glyph glyph-name="afii10029" unicode="&#x41b;" horiz-adv-x="683" 
d="M2 59l8 8q17 -10 38 -10q60 0 106.5 114.5t71.5 350.5q7 52 11.5 94.5t5.5 59.5l1 16l9 8h404l-111 -700h-71l104 664h-286l-27 -174q-43 -264 -95 -380.5t-128 -116.5q-12 0 -22.5 2.5t-15.5 4.5l-5 3q-4 22 2 56z" />
    <glyph glyph-name="afii10030" unicode="&#x41c;" horiz-adv-x="848" 
d="M671 0l23 625l-3 3l-291 -608h-49l-10 14l-109 591l-4 -3l-163 -622h-40l140 527q12 46 20 87t10 60l2 18l10 8h85l110 -590l283 590h85l-25 -700h-74z" />
    <glyph glyph-name="afii10031" unicode="&#x41d;" horiz-adv-x="722" 
d="M514 0l53 338h-386l-53 -338h-71l111 700h71l-52 -326h386l52 326h71l-111 -700h-71z" />
    <glyph glyph-name="afii10032" unicode="&#x41e;" horiz-adv-x="748" 
d="M71 290q0 177 108 297t264 120q124 0 195 -80t71 -218q0 -176 -108.5 -296t-265.5 -120q-124 0 -194 80t-70 217zM148 282q0 -121 50 -189t142 -68q122 0 206.5 113.5t84.5 279.5q0 122 -50.5 189.5t-142.5 67.5q-122 0 -206 -113.5t-84 -279.5z" />
    <glyph glyph-name="afii10033" unicode="&#x41f;" horiz-adv-x="722" 
d="M514 0l105 664h-386l-105 -664h-71l111 700h528l-111 -700h-71z" />
    <glyph glyph-name="afii10034" unicode="&#x420;" horiz-adv-x="585" 
d="M57 0l111 700h210q94 0 146.5 -44.5t52.5 -128.5q0 -101 -73 -163t-190 -62h-138l-48 -302h-71zM361 664h-128l-52 -326h128q86 0 140 51.5t54 135.5q0 68 -37 103.5t-105 35.5z" />
    <glyph glyph-name="afii10035" unicode="&#x421;" horiz-adv-x="679" 
d="M445 675q-128 0 -211.5 -109.5t-83.5 -270.5q0 -123 54.5 -189t157.5 -66q57 0 111.5 19.5t80.5 38.5l27 20l12 -16q-4 -4 -11 -11.5t-31.5 -26.5t-52 -33t-71 -26t-89.5 -12q-125 0 -196 80t-71 219q0 175 107.5 295t272.5 120q101 0 155.5 -46.5t54.5 -124.5
q0 -24 -5.5 -44t-10.5 -28l-5 -7q-24 -7 -63 -7l-6 7q20 30 20 84q0 63 -38 98.5t-108 35.5z" />
    <glyph glyph-name="afii10036" unicode="&#x422;" horiz-adv-x="618" 
d="M409 665l-104 -665h-72l105 665h-83q-47 0 -85 -4t-52 -8l-14 -4l-7 7l7 44h551l-7 -44l-8 -7q-41 16 -147 16h-84z" />
    <glyph glyph-name="afii10037" unicode="&#x423;" horiz-adv-x="596" 
d="M90 57l9 7q14 -12 49 -12q36 0 65.5 23.5t74.5 91.5l-136 400q-15 44 -28.5 76t-19.5 41l-6 10l1 6h86l152 -450l260 450h43l-281 -480q-79 -136 -122 -181.5t-95 -45.5q-16 0 -29 3.5t-18 6.5l-5 3q-5 18 0 51z" />
    <glyph glyph-name="afii10038" unicode="&#x424;" horiz-adv-x="820" 
d="M334 0l10 66q-126 1 -200.5 68t-74.5 180q0 137 104.5 229t261.5 94l10 63h71l-10 -63q127 -1 202 -68.5t75 -180.5q0 -138 -105 -230t-263 -92l-10 -66h-71zM708 391q0 99 -55.5 156t-151.5 58l-81 -507q124 0 206 83.5t82 209.5zM144 311q0 -99 55 -155.5t150 -57.5
l81 507q-123 -2 -204.5 -85t-81.5 -209z" />
    <glyph glyph-name="afii10039" unicode="&#x425;" horiz-adv-x="623" 
d="M200 700l146 -297l245 297h49l-277 -331l83 -169q26 -52 51.5 -100t38.5 -70l12 -22l-1 -8h-85l-158 317l-264 -317h-46l293 352l-173 348h86z" />
    <glyph glyph-name="afii10040" unicode="&#x426;" horiz-adv-x="742" 
d="M57 0l111 700h71l-106 -664h377l106 664h71l-106 -664h80l5 -8l-40 -205h-37l-6 8q7 44 11 86t4 63l1 20h-542z" />
    <glyph glyph-name="afii10041" unicode="&#x427;" horiz-adv-x="633" 
d="M217 700l-38 -240q-21 -139 116 -139q44 0 91.5 13.5t73.5 27.5l25 14l51 324h72l-111 -700h-72l57 358l-4 -21q-11 -7 -31 -17t-78 -27t-111 -17q-178 0 -151 180l39 244h71z" />
    <glyph glyph-name="afii10042" unicode="&#x428;" horiz-adv-x="986" 
d="M57 0l111 700h71l-106 -664h290l106 664h71l-106 -664h289l106 664h72l-111 -700h-793z" />
    <glyph glyph-name="afii10043" unicode="&#x429;" horiz-adv-x="1017" 
d="M57 0l111 700h71l-106 -664h290l106 664h71l-106 -664h289l106 664h72l-106 -664h80l5 -8l-40 -205h-37l-7 8q8 44 12 86.5t4 62.5v20h-815z" />
    <glyph glyph-name="afii10044" unicode="&#x42a;" horiz-adv-x="717" 
d="M104 700h271l-50 -312h131q95 0 148 -43.5t53 -125.5q0 -98 -72.5 -158.5t-189.5 -60.5h-202l104 665h-41q-48 0 -86 -4t-52 -8l-14 -4l-7 7zM583 217q0 66 -37.5 100.5t-105.5 34.5h-121l-50 -316h120q87 0 140.5 50t53.5 131z" />
    <glyph glyph-name="afii10045" unicode="&#x42b;" horiz-adv-x="814" 
d="M57 0l111 700h71l-50 -312h131q95 0 148 -43.5t53 -125.5q0 -98 -72.5 -158.5t-189.5 -60.5h-202zM446 217q0 66 -37 100.5t-106 34.5h-120l-50 -316h120q86 0 139.5 50t53.5 131zM606 0l111 700h71l-111 -700h-71z" />
    <glyph glyph-name="afii10046" unicode="&#x42c;" horiz-adv-x="581" 
d="M57 0l111 700h71l-50 -312h131q95 0 148 -43.5t53 -125.5q0 -98 -72.5 -158.5t-189.5 -60.5h-202zM446 217q0 66 -37 100.5t-106 34.5h-120l-50 -316h120q86 0 139.5 50t53.5 131z" />
    <glyph glyph-name="afii10047" unicode="&#x42d;" horiz-adv-x="682" 
d="M371 707q134 0 202.5 -77.5t68.5 -218.5q0 -179 -102.5 -298.5t-284.5 -119.5q-46 0 -85.5 8.5t-63 20.5t-40 24t-22.5 20l-6 9q3 20 13.5 36.5t18.5 22.5l9 6h10q2 -5 5.5 -12.5t18.5 -27.5t33.5 -35t51.5 -27.5t71 -12.5q115 0 193 87t97 225h-289l-5 6l5 30h293
q2 30 2 45q0 124 -49.5 190.5t-141.5 66.5q-35 0 -69.5 -12t-59 -28.5t-44 -33.5t-29.5 -29l-9 -12h-11q-3 2 -7 6.5t-10 21.5t-3 37q3 3 9.5 8.5t29.5 20t48.5 25t66.5 19.5t85 9z" />
    <glyph glyph-name="afii10048" unicode="&#x42e;" horiz-adv-x="957" 
d="M337 285q0 17 2 53h-158l-53 -338h-71l111 700h71l-52 -326h157q25 146 118.5 239.5t217.5 93.5q111 0 174.5 -78.5t63.5 -214.5q0 -177 -101 -299t-244 -122q-111 0 -173.5 79t-62.5 213zM412 272q0 -116 43.5 -181.5t122.5 -65.5q109 0 186 118.5t77 284.5
q0 117 -43.5 182t-122.5 65q-108 0 -185.5 -118.5t-77.5 -284.5z" />
    <glyph glyph-name="afii10049" unicode="&#x42f;" horiz-adv-x="593" 
d="M166 199l86 117q-70 12 -108 54t-38 111q0 98 72.5 158.5t189.5 60.5h206l-111 -700h-72l49 312h-121l-234 -312h-73l1 8q65 72 153 191zM181 483q0 -66 37 -100.5t105 -34.5h123l50 316h-123q-86 0 -139 -50t-53 -131z" />
    <glyph glyph-name="afii10065" unicode="&#x430;" horiz-adv-x="554" 
d="M492 426l-41 -253q-7 -44 -10 -85.5t-2 -60.5l1 -19l-8 -8h-61q-5 54 10 145l11 68l-2 4q-4 -9 -11.5 -24t-32.5 -54t-51 -68.5t-64.5 -53.5t-75.5 -24q-54 0 -82 44.5t-28 119.5q0 140 87.5 231.5t222.5 91.5q50 0 84 -13.5t43 -26.5zM118 156q0 -118 66 -118q16 0 34 8
t34 22.5t32 32.5t30.5 39t27 41t24 40.5t18.5 34t13 25.5t6 13v1l-13 -78l13 77v1v2l18 114q-2 4 -6.5 10t-25.5 16.5t-50 10.5q-88 0 -154.5 -85.5t-66.5 -206.5z" />
    <glyph glyph-name="afii10066" unicode="&#x431;" horiz-adv-x="564" 
d="M515 287q0 -126 -73 -210t-191 -84q-100 0 -144 66t-44 198q0 186 76.5 315.5t216.5 154.5l173 30l3 -6t4.5 -17.5t-0.5 -27.5l-7 -7l-165 -30q-118 -21 -180.5 -131t-67.5 -284l3 -4q7 21 19 46t34 59t48.5 60.5t64 45.5t78.5 19q69 0 110.5 -50t41.5 -143zM347 441
q-66 0 -130 -88t-78 -167q0 -7 0.5 -17.5t6.5 -38.5t16.5 -49.5t35 -39t57.5 -17.5q79 0 133 82.5t54 191.5q0 68 -27 105.5t-68 37.5z" />
    <glyph glyph-name="afii10067" unicode="&#x432;" horiz-adv-x="508" 
d="M63 138l34 205q11 63 72.5 100t145.5 37q134 0 134 -97q0 -83 -87 -125q82 -24 82 -100q0 -69 -63.5 -117t-160.5 -48q-85 0 -126.5 38.5t-30.5 106.5zM264 232q-56 0 -119 -14l-14 -84q-17 -105 88 -105q66 0 110.5 36t44.5 91q0 76 -110 76zM151 255q73 13 129 13
q40 6 70.5 37t30.5 78q0 31 -17 45.5t-55 14.5q-55 0 -95.5 -28t-47.5 -71z" />
    <glyph glyph-name="afii10068" unicode="&#x433;" horiz-adv-x="414" 
d="M98 395l6 37q7 5 19 13t52 21.5t83 13.5q119 0 119 -93q0 -41 -28 -73t-68.5 -53t-80.5 -41t-68 -48t-28 -64q0 -70 99 -70q36 0 70.5 9.5t50.5 18.5l16 10l-6 -35q-6 -5 -17.5 -13t-53 -21.5t-88.5 -13.5q-76 0 -108 29t-32 73q0 42 28 74t68.5 53t80.5 41t68 47t28 62
q0 62 -80 62q-31 0 -63.5 -10t-49.5 -20z" />
    <glyph glyph-name="afii10069" unicode="&#x434;" horiz-adv-x="554" 
d="M46 197q0 118 74 200.5t178 82.5q54 0 90 -24t50 -65h4q0 179 -46.5 253.5t-144.5 74.5q-23 0 -43 -3.5t-28 -7t-8 -4.5l5 36q26 17 89 17q120 0 180.5 -85.5t60.5 -265.5q0 -95 -16.5 -169.5t-42.5 -119.5t-62 -73.5t-72 -39.5t-75 -11q-91 0 -142 55t-51 149zM120 179
q0 -71 32 -113t89 -42q75 0 128 83.5t53 186.5q0 72 -31 113.5t-87 41.5q-75 0 -129.5 -84t-54.5 -186z" />
    <glyph glyph-name="afii10070" unicode="&#x435;" horiz-adv-x="483" 
d="M396 90l11 -14q-3 -3 -8 -9t-22.5 -20t-37.5 -25t-52 -20t-66 -9q-87 0 -131 53.5t-44 143.5q0 127 79 208.5t193 81.5q70 0 99 -29.5t29 -68.5q0 -54 -49.5 -94t-121 -58.5t-153.5 -20.5v-17q0 -157 126 -157q40 0 77 13.5t54 27.5zM312 449q-71 0 -123 -57.5
t-64 -151.5q44 2 86.5 10t83 24t65.5 45t25 67q0 63 -73 63z" />
    <glyph glyph-name="afii10072" unicode="&#x436;" horiz-adv-x="671" 
d="M653 473l-178 -208l31 -74q25 -56 48.5 -101.5t34.5 -63.5l11 -17l-1 -9h-72l-111 233h-50l-37 -233h-66l37 233h-50l-178 -227l-10 -6h-70l206 266l-108 199l1 8h56q22 -59 85 -176l16 -29l58 -5l26 202l7 8h59q-5 -73 -27 -210l53 4l26 30q45 52 78.5 94t44.5 59l11 16
l10 7h59z" />
    <glyph glyph-name="afii10073" unicode="&#x437;" horiz-adv-x="445" 
d="M175 25q60 0 98 32.5t38 85.5q0 39 -21 62.5t-59 23.5h-73l-5 6l5 29h60q47 0 78 28t31 72q0 38 -23 60.5t-65 22.5q-36 0 -69 -19.5t-48 -39.5l-15 -19h-7q-3 2 -7 6t-10 17.5t-4 28.5q6 7 18.5 16.5t56 26t91.5 16.5q70 0 109 -29t39 -80q0 -43 -25 -75t-69 -47
q38 -8 59.5 -37.5t21.5 -68.5q0 -66 -58 -108t-151 -42q-70 0 -109 24.5t-39 66.5q0 11 2.5 22.5t5.5 17.5l3 6q18 7 48 7l6 -7q-11 -20 -11 -41q0 -29 27.5 -46.5t70.5 -17.5z" />
    <glyph glyph-name="afii10074" unicode="&#x438;" horiz-adv-x="559" 
d="M126 473h62q-5 -70 -22 -173l-27 -168q-15 -94 49 -94q35 0 74 33t70 82.5t48.5 82.5t27.5 56l1 3l1 2l26 168l8 8h62l-48 -300q-4 -28 -7 -55.5t-4 -46t-1.5 -33.5t0.5 -22v-8l-7 -8h-61q-5 54 10 145l11 68l-3 4q-2 -5 -6 -13t-17 -31t-27 -44.5t-36 -47t-44 -44.5
t-51 -31.5t-57 -12.5q-50 0 -74 35.5t-13 103.5l27 168q7 44 12 85.5t6 60.5l2 19z" />
    <glyph glyph-name="afii10075" unicode="&#x439;" horiz-adv-x="558" 
d="M126 473h62q-4 -63 -22 -173l-27 -168q-15 -94 49 -94q37 0 77 35.5t71 86t48.5 84.5t24.5 51l-13 -78l14 79v1l26 168l8 8h62l-48 -300q-4 -28 -7 -55.5t-4 -46t-1.5 -33.5t0.5 -22v-8l-7 -8h-61q-5 53 10 145l11 68l-3 4q-2 -5 -6 -13t-17 -31t-27 -44.5t-36 -47
t-44 -44.5t-51 -31.5t-57 -12.5q-50 0 -74 35.5t-13 103.5l27 168l20 165zM328 542q-55 0 -87 21.5t-32 55.5q0 9 2.5 18.5t4.5 14.5l3 5q19 7 48 7l4 -6q-9 -17 -9 -33q0 -21 19 -34.5t51 -13.5q38 0 62.5 17.5t24.5 45.5l-1 17l7 7q13 0 24 -2t16 -4l5 -2q1 -10 1 -18
q0 -41 -40 -68.5t-103 -27.5zM410 297l-1 -2q1 0 1 1v1z" />
    <glyph glyph-name="afii10076" unicode="&#x43a;" horiz-adv-x="476" 
d="M49 0l48 300l22 165l7 8h61q-6 -73 -22 -173l-6 -38l61 6l28 29q49 51 84.5 93t47.5 59l11 17l9 7h63l-192 -208l34 -74q28 -54 54.5 -99.5t38.5 -63.5l13 -19l-2 -9h-70l-129 233h-56l-37 -233h-68z" />
    <glyph glyph-name="afii10077" unicode="&#x43b;" horiz-adv-x="530" 
d="M0 54l8 7q12 -8 29 -8q45 0 72.5 74.5t51.5 215.5q18 103 35 130h281l-76 -473h-68l69 436h-185l-17 -103q-54 -340 -169 -340q-10 0 -20 2t-15 5l-4 2q0 15 2 28t4 18z" />
    <glyph glyph-name="afii10078" unicode="&#x43c;" horiz-adv-x="681" 
d="M535 0v397l-3 4l-182 -401h-50l-9 9l-86 389l-4 -4l-11 -68q-29 -174 -65 -253.5t-94 -79.5q-10 0 -20 2t-15 5l-4 2q0 15 2 28t4 18l2 6l8 7q12 -8 28 -8q43 0 67.5 72t49.5 218q15 92 34 130h69l87 -403l175 396l7 7h77v-473h-67z" />
    <glyph glyph-name="afii10079" unicode="&#x43d;" horiz-adv-x="561" 
d="M364 0l36 227h-247l-36 -227h-68l48 300l22 165l7 8h61q-6 -73 -22 -173l-6 -37h247l6 37l25 165l8 8h61q-9 -73 -25 -173l-48 -300h-69z" />
    <glyph glyph-name="afii10080" unicode="&#x43e;" horiz-adv-x="543" 
d="M46 197q0 120 74.5 201.5t183.5 81.5q87 0 137.5 -55t50.5 -150q0 -120 -75 -201t-185 -81q-87 0 -136.5 55t-49.5 149zM120 180q0 -72 31 -114t87 -42q74 0 127 83t53 186q0 72 -31.5 114t-87.5 42q-74 0 -126.5 -83t-52.5 -186z" />
    <glyph glyph-name="afii10081" unicode="&#x43f;" horiz-adv-x="561" 
d="M365 0l54 341q15 93 -49 93q-31 0 -65 -26t-59 -58.5t-50 -75.5t-34.5 -62.5t-16.5 -34.5v-1l-28 -176h-68l48 300q4 28 7 55.5t4 46t1.5 33.5t0.5 23l-1 7l7 8h61q5 -54 -10 -145l-11 -69l3 -3q4 9 11.5 24t32.5 54t51.5 68.5t66.5 53.5t79 24q51 0 74.5 -35t12.5 -104
l-53 -341h-69z" />
    <glyph glyph-name="afii10082" unicode="&#x440;" horiz-adv-x="554" 
d="M9 -250l88 550q4 28 7 55.5t4 46.5t1.5 34t0.5 22l-1 7l7 8h61q5 -54 -10 -145l-11 -69l3 -3q4 9 11.5 24t32 54t50.5 68.5t64 53.5t75 24q54 0 82.5 -44.5t28.5 -119.5q0 -139 -87.5 -231t-213.5 -92q-52 0 -83 17l-41 -260h-69zM430 316q0 118 -66 118q-36 0 -75 -35
t-71.5 -89t-48 -83t-24.5 -50v-1l-18 -114q2 -4 6.5 -10.5t25.5 -17t50 -10.5q88 0 154.5 85.5t66.5 206.5z" />
    <glyph glyph-name="afii10083" unicode="&#x441;" horiz-adv-x="482" 
d="M401 90l12 -14q-3 -3 -8 -9t-22.5 -20t-37 -25t-52 -20t-66.5 -9q-88 0 -135 54t-47 149q0 122 71.5 203t191.5 81q71 0 107.5 -29.5t36.5 -81.5q0 -17 -4 -32.5t-8 -22.5l-4 -7q-19 -8 -55 -8l-5 8q14 27 14 63q0 79 -86 79q-83 0 -132.5 -74.5t-49.5 -177.5
q0 -162 131 -162q40 0 77 13.5t54 27.5z" />
    <glyph glyph-name="afii10084" unicode="&#x442;" horiz-adv-x="812" 
d="M332 0l54 340q8 49 -5 71.5t-37 22.5q-32 0 -67 -34.5t-65.5 -89.5t-43.5 -81.5t-23 -51.5v-1l-28 -176h-68l48 300q4 28 7 55.5t4 46t1.5 33.5t0.5 23l-1 7l7 8h61q5 -54 -10 -145l-11 -69l3 -3q4 9 10.5 24t29 54t46 68.5t59 53.5t71.5 24q46 0 68.5 -35t11.5 -104
l-13 -77q10 24 25.5 51t44 69t67.5 69t79 27q48 0 69.5 -35.5t10.5 -103.5l-54 -341h-68l54 340q8 49 -5 71.5t-38 22.5q-26 0 -56 -26t-52 -57.5t-44.5 -74t-30.5 -60t-14 -31.5l-29 -185h-69z" />
    <glyph glyph-name="afii10085" unicode="&#x443;" horiz-adv-x="489" 
d="M-55 -257q-9 0 -19 2.5t-15 4.5l-5 2q0 18 4.5 33.5t9.5 22.5l4 6q16 -9 36 -9q38 0 97 50.5t124 133.5l-73 311q-12 53 -24.5 94.5t-18.5 57.5l-6 15l5 6h72l94 -420q76 107 127 211t51 161q0 11 -2 21.5t-4 15.5l-1 4l6 7h48q6 -15 6 -34q0 -56 -59.5 -173.5
t-140 -232.5t-171 -202.5t-145.5 -87.5z" />
    <glyph glyph-name="afii10086" unicode="&#x444;" horiz-adv-x="699" 
d="M235 -250l43 271q-45 -27 -85 -27q-60 0 -103.5 51t-43.5 144q0 125 76.5 208t183.5 83q26 0 44 -5q12 72 19.5 139t8.5 98l2 30l8 8h61q-4 -112 -30 -277l-4 -22q42 27 87 27q61 0 103.5 -52.5t42.5 -143.5q0 -124 -77 -206.5t-183 -82.5q-28 0 -45 5l-39 -248h-69z
M576 297q0 71 -25.5 111t-65.5 40q-34 0 -75 -32l-62 -388q28 -4 38 -4q78 0 134 87t56 186zM118 175q0 -71 25.5 -110.5t65.5 -39.5q33 0 74 32l62 387q-15 5 -36 5q-79 0 -135 -90t-56 -184z" />
    <glyph glyph-name="afii10087" unicode="&#x445;" horiz-adv-x="482" 
d="M76 0h-53q-4 8 -4 25q0 37 36 83.5t144 136.5l-27 55q-24 48 -46.5 89t-33.5 59l-11 17v8h79l99 -199q75 64 100.5 101t25.5 68l-4 23l7 7h52q4 -8 4 -25q0 -35 -32.5 -77t-135.5 -130l21 -41q32 -63 58.5 -111t36.5 -65l11 -16v-8h-81l-106 212q-79 -69 -108 -109
t-29 -74l3 -23z" />
    <glyph glyph-name="afii10088" unicode="&#x446;" horiz-adv-x="584" 
d="M126 473h62q-5 -70 -22 -173l-27 -168q-15 -94 49 -94q35 0 74 33t70 82.5t48.5 82.5t27.5 56l1 3l1 2l26 168l8 8h62l-48 -300q-10 -65 -13 -137h69l7 -8q4 -68 -23 -176h-35l-7 8q8 39 10.5 74t0.5 50l-2 16h-87q-5 54 10 145l11 68l-3 4q-2 -5 -6 -13t-17 -31
t-27 -44.5t-36 -47t-44 -44.5t-51 -31.5t-57 -12.5q-50 0 -74 35.5t-13 103.5l27 168q7 44 12 85.5t6 60.5l2 19z" />
    <glyph glyph-name="afii10089" unicode="&#x447;" horiz-adv-x="516" 
d="M106 473h62q-6 -77 -21 -167q-7 -46 8.5 -66t61.5 -20q73 0 142 40l33 205l8 8h62l-75 -473h-69l36 225q-84 -49 -174 -49q-67 0 -89.5 32.5t-11.5 98.5q8 44 12.5 83.5t5.5 57.5l1 17z" />
    <glyph glyph-name="afii10090" unicode="&#x448;" horiz-adv-x="812" 
d="M475 473l-54 -340q-8 -49 5 -71.5t38 -22.5q30 0 64.5 33t62.5 82t44.5 82t25.5 56l1 3l1 2l26 168l8 8h62l-48 -300q-4 -28 -7 -55.5t-4 -46.5t-1.5 -33.5t-0.5 -21.5l1 -8l-8 -8h-61q-5 53 10 145l12 68l-3 4q-4 -9 -10.5 -24t-29 -54t-46 -68.5t-59.5 -53.5t-72 -24
q-46 0 -68 35t-11 104l12 75q-8 -18 -18 -37.5t-32 -53.5t-45 -59t-55.5 -44.5t-65.5 -19.5q-47 0 -68.5 35.5t-11.5 103.5l27 168q7 44 12 85.5t6 60.5l2 19l8 8h62q-6 -73 -22 -173l-26 -167q-8 -49 5 -71.5t37 -22.5q32 0 68 35t65 85.5t43.5 80.5t21.5 47v1l28 177l7 8
h62z" />
    <glyph glyph-name="afii10091" unicode="&#x449;" horiz-adv-x="836" 
d="M663 297l26 168l8 8h62l-48 -300q-10 -65 -13 -137h69l7 -8q3 -68 -23 -176h-35l-7 8q8 39 10 74t0 50l-2 16h-87q-5 53 10 145l12 68l-3 4q-4 -9 -10.5 -24t-29 -54t-46 -68.5t-59.5 -53.5t-72 -24q-46 0 -68 35t-11 104l12 75q-8 -18 -18 -37.5t-32 -53.5t-45 -59
t-55.5 -44.5t-65.5 -19.5q-47 0 -68.5 35.5t-11.5 103.5l27 168q7 44 12 85.5t6 60.5l2 19l8 8h62q-6 -73 -22 -173l-26 -167q-8 -49 5 -71.5t37 -22.5q32 0 68 35t65 85.5t43.5 80.5t21.5 47v1l28 177l7 8h62l-54 -340q-8 -49 5 -71.5t38 -22.5q31 0 66.5 35t64 86t44 83.5
t23.5 51.5l-13 -78l14 79v1zM663 297l-1 -2q1 0 1 1v1z" />
    <glyph glyph-name="afii10092" unicode="&#x44a;" horiz-adv-x="564" 
d="M150 120l28 180q3 21 19 139h-22q-37 0 -66.5 -4.5t-40.5 -8.5l-12 -5l-7 8l7 44h213q-12 -108 -22 -173l-5 -32q52 18 109 18q76 0 113.5 -32.5t37.5 -91.5q0 -71 -52 -120t-148 -49q-76 0 -118.5 33t-33.5 94zM335 250q-53 0 -99 -19l-19 -116q-5 -39 18 -62.5
t71 -23.5q59 0 92 38t33 96q0 44 -22.5 65.5t-73.5 21.5z" />
    <glyph glyph-name="afii10093" unicode="&#x44b;" horiz-adv-x="686" 
d="M68 117l29 183l22 165l7 8h61q-5 -67 -22 -173l-5 -33q52 19 110 19q151 0 151 -123q0 -72 -52.5 -121t-148.5 -49q-77 0 -119 33t-33 91zM253 250q-53 0 -99 -19l-18 -117q-6 -40 19 -62.5t70 -22.5q59 0 92 38t33 96q0 44 -23 65.5t-74 21.5zM489 0l48 300l22 165l8 8
h61q-6 -73 -22 -173l-48 -300h-69z" />
    <glyph glyph-name="afii10094" unicode="&#x44c;" horiz-adv-x="482" 
d="M68 116l29 184l22 165l7 8h61q-4 -60 -22 -173l-5 -33q52 19 110 19q151 0 151 -123q0 -72 -52.5 -121t-147.5 -49q-78 0 -120 33t-33 90zM253 250q-53 0 -99 -19l-18 -117q-6 -38 16.5 -61.5t71.5 -23.5q60 0 93 38t33 95q0 45 -22.5 66.5t-74.5 21.5z" />
    <glyph glyph-name="afii10095" unicode="&#x44d;" horiz-adv-x="477" 
d="M171 27q69 0 116.5 53.5t60.5 144.5h-173l-6 7l5 27h177q1 8 1 26q0 162 -116 162q-24 0 -46.5 -7.5t-37.5 -18.5t-27 -22.5t-18 -18.5l-6 -8h-7q-3 2 -7 6t-10 17.5t-4 27.5q7 6 19.5 15.5t55.5 25.5t91 16q93 0 140 -54t47 -149q0 -122 -69.5 -203t-190.5 -81
q-65 0 -101.5 24.5t-36.5 66.5q0 11 3 22.5t6 17.5l3 6q17 7 48 7l5 -7q-11 -19 -11 -40q0 -28 24.5 -45.5t64.5 -17.5z" />
    <glyph glyph-name="afii10096" unicode="&#x44e;" horiz-adv-x="711" 
d="M49 0l48 300l22 165l7 8h61q-6 -73 -22 -173l-6 -37h95q20 97 86 157t154 60q79 0 124.5 -54.5t45.5 -144.5q0 -124 -71 -206t-176 -82q-78 0 -124 54.5t-46 143.5q0 12 2 36h-96l-36 -227h-68zM316 176q0 -69 28.5 -110.5t76.5 -41.5q72 0 123 87t51 186
q0 69 -28.5 110.5t-77.5 41.5q-71 0 -122 -87t-51 -186z" />
    <glyph glyph-name="afii10097" unicode="&#x44f;" horiz-adv-x="495" 
d="M13 51l8 8q13 -8 29 -8q22 0 40 22.5t43.5 65t50.5 69.5q-50 7 -78 36.5t-28 77.5q0 66 49.5 108.5t124.5 42.5h191l-76 -473h-68l33 207h-92q-32 -35 -66 -94.5t-61.5 -89.5t-67.5 -30q-11 0 -21 2t-14 5l-4 2q0 15 2 27t4 17zM227 243h110l31 193h-110
q-48 0 -79.5 -30.5t-31.5 -80.5q0 -39 21.5 -60.5t58.5 -21.5z" />
    <glyph glyph-name="uni0450" unicode="&#x450;" horiz-adv-x="483" 
d="M396 90l11 -14q-3 -3 -8 -9t-22.5 -20t-37.5 -25t-52 -20t-66 -9q-87 0 -131 53.5t-44 143.5q0 127 79 208.5t193 81.5q70 0 99 -29.5t29 -68.5q0 -54 -49.5 -94t-121 -58.5t-153.5 -20.5v-17q0 -157 126 -157q40 0 77 13.5t54 27.5zM312 449q-71 0 -123 -57.5
t-64 -151.5q44 2 86.5 10t83 24t65.5 45t25 67q0 63 -73 63zM337 571l-6 -6h-25l-87 132l2 6q18 10 57 10z" />
    <glyph glyph-name="afii10071" unicode="&#x451;" horiz-adv-x="483" 
d="M396 90l11 -14q-3 -3 -8 -9t-22.5 -20t-37.5 -25t-52 -20t-66 -9q-87 0 -131 53.5t-44 143.5q0 127 79 208.5t193 81.5q70 0 99 -29.5t29 -68.5q0 -54 -49.5 -94t-121 -58.5t-153.5 -20.5v-17q0 -157 126 -157q40 0 77 13.5t54 27.5zM312 449q-71 0 -123 -57.5
t-64 -151.5q44 2 86.5 10t83 24t65.5 45t25 67q0 63 -73 63zM179 602q0 18 12 30t29 12q31 0 31 -31q0 -18 -11.5 -30t-29.5 -12q-31 0 -31 31zM372 602q0 18 12 30t29 12q31 0 31 -31q0 -18 -11.5 -30t-30.5 -12q-30 0 -30 31z" />
    <glyph glyph-name="afii10099" unicode="&#x452;" horiz-adv-x="562" 
d="M361 -35l60 376q15 93 -50 93q-22 0 -46.5 -14.5t-43 -32t-41.5 -49.5t-34.5 -50t-29.5 -52t-19 -37t-10 -21v-2l-28 -176h-69l75 473l18 125h-77l2 18l79 20l9 106l7 8h61q-2 -47 -9 -119h160l-5 -33h-159q-4 -33 -17 -125l-13 -84l-24 -130l3 -3q4 9 11.5 24t32.5 54
t51.5 68.5t66.5 53.5t80 24q50 0 74 -35.5t13 -103.5l-56 -357q-8 -48 -29.5 -90.5t-47.5 -69t-51 -46t-41 -28.5l-17 -8l-12 15q4 3 11.5 8.5t26.5 25.5t35 42t31.5 58t21.5 74z" />
    <glyph glyph-name="afii10100" unicode="&#x453;" horiz-adv-x="414" 
d="M233 565l-5 6l105 142q17 0 30.5 -2.5t18.5 -4.5l5 -3l-1 -6l-129 -132h-24zM98 395l6 37q7 5 19 13t52 21.5t83 13.5q119 0 119 -93q0 -41 -28 -73t-68.5 -53t-80.5 -41t-68 -48t-28 -64q0 -70 99 -70q36 0 70.5 9.5t50.5 18.5l16 10l-6 -35q-6 -5 -17.5 -13t-53 -21.5
t-88.5 -13.5q-76 0 -108 29t-32 73q0 42 28 74t68.5 53t80.5 41t68 47t28 62q0 62 -80 62q-31 0 -63.5 -10t-49.5 -20z" />
    <glyph glyph-name="afii10101" unicode="&#x454;" horiz-adv-x="486" 
d="M403 90l11 -14q-3 -3 -8 -9t-22 -20t-37 -25t-52 -20t-66 -9q-89 0 -136 54.5t-47 149.5q0 121 72.5 202t194.5 81q68 0 105 -27.5t37 -75.5q0 -14 -3.5 -27.5t-7.5 -19.5l-3 -6q-18 -7 -53 -7l-7 7q13 23 13 52q0 34 -22.5 53.5t-66.5 19.5q-69 0 -116.5 -54.5
t-61.5 -135.5h216l5 -6l-5 -27h-220q-1 -10 -1 -30q0 -161 133 -161q40 0 77 13.5t54 27.5z" />
    <glyph glyph-name="afii10102" unicode="&#x455;" horiz-adv-x="458" 
d="M142 365q0 -28 22.5 -47t92.5 -58q71 -39 98 -65.5t27 -68.5q0 -59 -49.5 -96t-141.5 -37q-76 0 -117 28t-41 78q0 16 3.5 30.5t7.5 21.5l3 7q21 7 56 7l6 -7q-13 -24 -13 -55q0 -38 26 -58.5t75 -20.5q56 0 87.5 25t31.5 63q0 31 -24.5 52t-90.5 55q-35 18 -52 28
t-36.5 26t-27 34t-7.5 42q0 58 46.5 94.5t134.5 36.5q143 0 143 -103q0 -16 -3 -30.5t-7 -21.5l-3 -7q-20 -9 -55 -9l-7 9q13 23 13 56q0 75 -90 75q-52 0 -80 -24t-28 -60z" />
    <glyph glyph-name="afii10103" unicode="&#x456;" horiz-adv-x="246" 
d="M132 625q0 23 15 38t38 15q18 0 28.5 -11t10.5 -28q0 -23 -15.5 -38t-38.5 -15q-17 0 -27.5 11t-10.5 28zM49 0l48 300l22 165l7 8h61q-6 -73 -22 -173l-48 -300h-68z" />
    <glyph glyph-name="afii10104" unicode="&#x457;" horiz-adv-x="245" 
d="M65 602q0 18 12 30t30 12q30 0 30 -31q0 -18 -12 -30t-30 -12q-30 0 -30 31zM220 602q0 18 12.5 30t30.5 12q30 0 30 -31q0 -18 -12 -30t-30 -12q-31 0 -31 31zM49 0l48 300l22 165l7 8h61q-6 -73 -22 -173l-48 -300h-68z" />
    <glyph glyph-name="afii10105" unicode="&#x458;" horiz-adv-x="245" 
d="M132 625q0 23 15 38t37 15q18 0 28.5 -11t10.5 -28q0 -23 -15 -38t-38 -15q-18 0 -28 10.5t-10 28.5zM43 -35l54 335l22 165l7 8h61q-6 -73 -22 -173l-50 -316q-8 -48 -29.5 -90.5t-47.5 -69t-51 -46t-41 -28.5l-17 -8l-12 15q4 3 11.5 8.5t26.5 25.5t35 42t31.5 58
t21.5 74z" />
    <glyph glyph-name="afii10106" unicode="&#x459;" horiz-adv-x="766" 
d="M351 116l51 320h-185l-17 -103q-27 -171 -68 -255.5t-105 -84.5q-12 0 -20 2.5t-11.5 5.5t-3.5 6q0 11 2 23t4 18l2 6l8 7q12 -8 29 -8q45 0 72.5 74.5t51.5 215.5q18 102 35 130h281l-33 -205q52 18 109 18q151 0 151 -123q0 -72 -52.5 -121t-148.5 -49q-77 0 -118.5 33
t-33.5 90zM537 250q-53 0 -99 -19l-19 -117q-6 -38 16.5 -61.5t71.5 -23.5q60 0 93 38t33 95q0 45 -22.5 66.5t-73.5 21.5z" />
    <glyph glyph-name="afii10107" unicode="&#x45a;" horiz-adv-x="783" 
d="M369 116l17 111h-233l-36 -227h-68l48 300l22 165l7 8h61q-6 -73 -22 -173l-6 -37h233l6 37l24 165l7 8h61q-6 -66 -24 -173l-5 -33q52 19 110 19q151 0 151 -123q0 -72 -52.5 -121t-148.5 -49q-77 0 -119 33t-33 90zM554 250q-53 0 -99 -19l-18 -117q-6 -38 16.5 -61.5
t71.5 -23.5q60 0 93 38t33 95q0 45 -22.5 66.5t-74.5 21.5z" />
    <glyph glyph-name="afii10108" unicode="&#x45b;" horiz-adv-x="562" 
d="M367 0l54 341q15 93 -50 93q-32 0 -66.5 -26.5t-61.5 -64.5t-49.5 -76t-34.5 -65l-12 -26l-28 -176h-69l75 473l18 125h-77l2 18l79 20l9 106l7 8h61q-2 -47 -9 -119h160l-5 -33h-159q-4 -33 -17 -125l-13 -84l-24 -130l3 -3q4 9 11.5 24t32.5 54t51.5 68.5t66.5 53.5
t80 24q50 0 74 -35.5t13 -103.5l-54 -341h-68z" />
    <glyph glyph-name="afii10109" unicode="&#x45c;" horiz-adv-x="476" 
d="M49 0l48 300l22 165l7 8h61q-6 -73 -22 -173l-6 -38l61 6l28 29q49 51 84.5 93t47.5 59l11 17l9 7h63l-192 -208l34 -74q28 -54 54.5 -99.5t38.5 -63.5l13 -19l-2 -9h-70l-129 233h-56l-37 -233h-68zM258 565l-5 6l105 142q17 0 30.5 -2.5t18.5 -4.5l5 -3l-1 -6
l-129 -132h-24z" />
    <glyph glyph-name="uni045D" unicode="&#x45d;" horiz-adv-x="559" 
d="M126 473h62q-5 -70 -22 -173l-27 -168q-15 -94 49 -94q37 0 77 35.5t71 86t48.5 84.5t24.5 51l-13 -78l14 79v1l26 168l8 8h62l-48 -300q-4 -28 -7 -55.5t-4 -46t-1.5 -33.5t0.5 -22v-8l-7 -8h-61q-5 54 10 145l11 68l-3 4q-2 -5 -6 -13t-17 -31t-27 -44.5t-36 -47
t-44 -44.5t-51 -31.5t-57 -12.5q-50 0 -74 35.5t-13 103.5l27 168q7 44 12 85.5t6 60.5l2 19zM358 571l-6 -6h-25l-87 132l1 6q19 10 58 10zM410 296v1l-1 -2q1 0 1 1z" />
    <glyph glyph-name="afii10110" unicode="&#x45e;" horiz-adv-x="489" 
d="M-55 -257q-9 0 -19 2.5t-15 4.5l-5 2q0 18 4.5 33.5t9.5 22.5l4 6q16 -9 36 -9q38 0 97 50.5t124 133.5l-73 311q-12 53 -24.5 94.5t-18.5 57.5l-6 15l5 6h72l94 -420q76 107 127 211t51 161q0 11 -2 21.5t-4 15.5l-1 4l6 7h48q6 -15 6 -34q0 -56 -59.5 -173.5
t-140 -232.5t-171 -202.5t-145.5 -87.5zM279 542q-56 0 -87.5 21.5t-31.5 55.5q0 9 2.5 18.5t5.5 14.5l2 5q19 7 47 7l5 -6q-10 -17 -10 -33q0 -21 19 -34.5t52 -13.5q38 0 62 17.5t24 45.5l-1 17l7 7q13 0 24 -2t16 -4l5 -2q2 -10 2 -18q0 -41 -40.5 -68.5t-102.5 -27.5z
" />
    <glyph glyph-name="afii10193" unicode="&#x45f;" horiz-adv-x="559" 
d="M410 297l26 168l8 8h62l-48 -300q-4 -28 -7 -55.5t-4 -46t-1.5 -33.5t0.5 -22v-8l-7 -8h-61q-5 54 10 145l11 68l-3 4q-6 -14 -17.5 -36.5t-48 -72.5t-74.5 -78q-3 -82 -27 -178h-35l-7 8q14 69 14 140q-25 -7 -43 -7q-50 0 -74 35.5t-13 103.5l27 168q7 44 12 85.5
t6 60.5l2 19l8 8h62q-5 -70 -22 -173l-27 -168q-15 -94 49 -94q37 0 77 35.5t71 86t48.5 84.5t24.5 51l-13 -78l14 79v1zM410 297l-1 -2q1 0 1 1v1z" />
    <glyph glyph-name="afii10050" unicode="&#x490;" horiz-adv-x="504" 
d="M57 0l111 700h307q20 60 35 152l9 7h37l-23 -188l-8 -7h-292l-105 -664h-71z" />
    <glyph glyph-name="afii10098" unicode="&#x491;" horiz-adv-x="397" 
d="M49 0l55 347q8 49 16 80.5t12 38.5l5 7h195q36 50 36 140l6 8h35q0 -47 -7.5 -91.5t-14.5 -65.5l-7 -20l-7 -8h-187l-69 -436h-68z" />
    <glyph glyph-name="uni04D8" unicode="&#x4d8;" horiz-adv-x="693" 
d="M60 199q0 35 8 67t16 47l8 15l11 9h467q5 37 5 68q0 122 -54 188.5t-155 66.5q-60 0 -115 -22.5t-81 -45.5l-25 -22l-13 16q4 5 11 13t31.5 29t52 37t72 29t92.5 13q124 0 193.5 -80t69.5 -217q0 -176 -107 -296.5t-266 -120.5q-105 0 -163 55.5t-58 150.5zM284 25
q102 0 179.5 79t101.5 203l-418 -13q-18 -54 -18 -106q0 -77 41 -120t114 -43z" />
    <glyph glyph-name="afii10846" unicode="&#x4d9;" horiz-adv-x="484" 
d="M83 382l-12 15q3 3 8 9t22.5 20t37.5 25t52 20t66 9q87 0 131.5 -53.5t44.5 -143.5q0 -128 -79.5 -209t-193.5 -81q-70 0 -99 30t-29 68q0 54 49.5 93.5t121 58t152.5 20.5q0 2 0.5 8t0.5 9q0 158 -125 158q-40 0 -77 -14t-54 -28zM166 24q71 0 123 57.5t64 150.5
q-44 -1 -86.5 -9t-83 -24t-65.5 -45t-25 -67q0 -63 73 -63z" />
    <glyph glyph-name="Wgrave" unicode="&#x1e80;" horiz-adv-x="972" 
d="M615 14l-83 465l-229 -479h-52l-11 14l-101 513q-10 52 -20.5 93.5t-15.5 56.5l-5 15l1 8h81l122 -620l220 459q-8 48 -17 86.5t-13 52.5l-5 14l1 8h82l107 -616l298 616h42l-341 -700h-51zM624 778l-6 -6h-25l-87 132l2 7q18 10 57 10z" />
    <glyph glyph-name="wgrave" unicode="&#x1e81;" horiz-adv-x="718" 
d="M433 14l-46 265q-51 -104 -167 -279h-47l-10 14l-58 286q-11 52 -23 94t-18 58l-7 15l6 6h73l83 -405q122 188 154 288q-8 34 -15.5 62t-11.5 38l-4 11l6 6h70l71 -405q97 142 134 222t36 135q0 14 -1.5 24t-3.5 13l-2 4l7 7h47q6 -9 6 -34q0 -60 -47.5 -157t-176.5 -282
h-45zM444 571l-7 -6h-25l-86 132l1 6q18 10 57 10z" />
    <glyph glyph-name="Wacute" unicode="&#x1e82;" horiz-adv-x="972" 
d="M615 14l-83 465l-229 -479h-52l-11 14l-101 513q-10 52 -20.5 93.5t-15.5 56.5l-5 15l1 8h81l122 -620l220 459q-8 48 -17 86.5t-13 52.5l-5 14l1 8h82l107 -616l298 616h42l-341 -700h-51zM543 772l-6 6l105 143q17 0 30.5 -2.5t18.5 -4.5l5 -3l-1 -7l-129 -132h-23z
" />
    <glyph glyph-name="wacute" unicode="&#x1e83;" horiz-adv-x="718" 
d="M433 14l-46 265q-51 -104 -167 -279h-47l-10 14l-58 286q-11 52 -23 94t-18 58l-7 15l6 6h73l83 -405q122 188 154 288q-8 34 -15.5 62t-11.5 38l-4 11l6 6h70l71 -405q97 142 134 222t36 135q0 14 -1.5 24t-3.5 13l-2 4l7 7h47q6 -9 6 -34q0 -60 -47.5 -157t-176.5 -282
h-45zM367 565l-5 6l105 142q17 0 30.5 -2.5t18.5 -4.5l5 -3l-1 -6l-129 -132h-24z" />
    <glyph glyph-name="Wdieresis" unicode="&#x1e84;" horiz-adv-x="972" 
d="M615 14l-83 465l-229 -479h-52l-11 14l-101 513q-10 52 -20.5 93.5t-15.5 56.5l-5 15l1 8h81l122 -620l220 459q-8 48 -17 86.5t-13 52.5l-5 14l1 8h82l107 -616l298 616h42l-341 -700h-51zM453 809q0 19 11.5 30.5t29.5 11.5q31 0 31 -31q0 -18 -11.5 -30t-29.5 -12
q-31 0 -31 31zM646 809q0 19 12 30.5t29 11.5q31 0 31 -31q0 -18 -11.5 -30t-30.5 -12q-30 0 -30 31z" />
    <glyph glyph-name="wdieresis" unicode="&#x1e85;" horiz-adv-x="718" 
d="M433 14l-46 265q-51 -104 -167 -279h-47l-10 14l-58 286q-11 52 -23 94t-18 58l-7 15l6 6h73l83 -405q122 188 154 288q-8 34 -15.5 62t-11.5 38l-4 11l6 6h70l71 -405q97 142 134 222t36 135q0 14 -1.5 24t-3.5 13l-2 4l7 7h47q6 -9 6 -34q0 -60 -47.5 -157t-176.5 -282
h-45zM472 602q0 18 12 30t29 12q31 0 31 -31q0 -18 -11.5 -30t-29.5 -12q-31 0 -31 31zM279 602q0 18 12 30t29 12q31 0 31 -31q0 -18 -11.5 -30t-29.5 -12q-31 0 -31 31z" />
    <glyph glyph-name="Ygrave" unicode="&#x1ef2;" 
d="M638 700l-292 -379l-50 -321h-71l49 317l-78 170q-25 56 -50 107.5t-38 74.5l-12 23l1 8h88l151 -337l257 337h45zM427 791l-7 -6h-24l-87 132l1 7q19 10 58 10z" />
    <glyph glyph-name="ygrave" unicode="&#x1ef3;" horiz-adv-x="489" 
d="M-55 -257q-9 0 -19 2.5t-15 4.5l-5 2q0 18 4.5 33.5t9.5 22.5l4 6q16 -9 36 -9q38 0 97 50.5t124 133.5l-73 311q-12 53 -24.5 94.5t-18.5 57.5l-6 15l5 6h72l94 -420q76 107 127 211t51 161q0 11 -2 21.5t-4 15.5l-1 4l6 7h48q6 -15 6 -34q0 -56 -59.5 -173.5
t-140 -232.5t-171 -202.5t-145.5 -87.5zM319 571l-7 -6h-24l-87 132l1 6q19 10 57 10z" />
    <glyph glyph-name="figuredash" unicode="&#x2012;" 
d="M71 332v36h456v-36h-456z" />
    <glyph glyph-name="endash" unicode="&#x2013;" horiz-adv-x="497" 
d="M71 257v36h356v-36h-356z" />
    <glyph glyph-name="emdash" unicode="&#x2014;" horiz-adv-x="797" 
d="M71 257v36h656v-36h-656z" />
    <glyph glyph-name="quoteleft" unicode="&#x2018;" horiz-adv-x="184" 
d="M231 755l11 -15q-8 -10 -20.5 -26.5t-33.5 -64t-21 -90.5l3 -29l-7 -6q-18 0 -33 3t-20 5l-6 3q-1 6 -1 16q0 32 13 65t32 57t38 43t32 29z" />
    <glyph glyph-name="quoteright" unicode="&#x2019;" horiz-adv-x="184" 
d="M96 525l-12 15q9 10 21.5 26.5t33.5 64t21 90.5l-3 29l7 6q18 0 32.5 -3t20.5 -5l6 -3q1 -6 1 -16q0 -32 -13 -65t-32 -57t-38 -43t-32 -29z" />
    <glyph glyph-name="quotesinglbase" unicode="&#x201a;" horiz-adv-x="184" 
d="M-22 -157l-11 15q8 10 20.5 26.5t33.5 64t21 90.5l-2 29l6 5q18 0 33 -2.5t21 -4.5l5 -3q1 -6 1 -16q0 -32 -13 -65t-32 -57t-38 -43t-32 -29z" />
    <glyph glyph-name="quotedblleft" unicode="&#x201c;" horiz-adv-x="309" 
d="M231 755l11 -15q-8 -10 -20.5 -26.5t-33.5 -64t-21 -90.5l3 -29l-7 -6q-18 0 -33 3t-20 5l-6 3q-1 6 -1 16q0 32 13 65t32 57t38 43t32 29zM356 755l11 -15q-8 -10 -20.5 -26.5t-33.5 -64t-21 -90.5l2 -29l-6 -6q-18 0 -33 3t-21 5l-5 3q-1 6 -1 16q0 32 13 65t32 57
t38 43t32 29z" />
    <glyph glyph-name="quotedblright" unicode="&#x201d;" horiz-adv-x="309" 
d="M96 525l-12 15q9 10 21.5 26.5t33.5 64t21 90.5l-3 29l7 6q18 0 32.5 -3t20.5 -5l6 -3q1 -6 1 -16q0 -32 -13 -65t-32 -57t-38 -43t-32 -29zM221 525l-12 15q9 10 21.5 26.5t33.5 64t21 90.5l-3 29l7 6q18 0 32.5 -3t20.5 -5l6 -3v-16q0 -32 -13 -65t-32 -57t-37.5 -43
t-31.5 -29z" />
    <glyph glyph-name="quotedblbase" unicode="&#x201e;" horiz-adv-x="309" 
d="M-22 -157l-11 15q8 10 20.5 26.5t33.5 64t21 90.5l-2 29l6 5q18 0 33 -2.5t21 -4.5l5 -3q1 -6 1 -16q0 -32 -13 -65t-32 -57t-38 -43t-32 -29zM103 -157l-11 15q8 10 20.5 26.5t33.5 64t21 90.5l-3 29l7 5q18 0 33 -2.5t20 -4.5l6 -3q1 -6 1 -16q0 -32 -13 -65t-32 -57
t-38 -43t-32 -29z" />
    <glyph glyph-name="dagger" unicode="&#x2020;" horiz-adv-x="469" 
d="M96 499l6 40l161 -3l31 214h38l-36 -214l161 3l-6 -40l-159 3l-88 -552h-35l87 552z" />
    <glyph glyph-name="daggerdbl" unicode="&#x2021;" horiz-adv-x="469" 
d="M96 499l6 40l161 -3l31 214h39l-37 -214l161 3l-6 -40l-159 3l-49 -304l161 3l-7 -40l-160 3l-31 -214h-38l36 214l-161 -3l6 40l159 -3l49 304z" />
    <glyph glyph-name="bullet" unicode="&#x2022;" horiz-adv-x="251" 
d="M64 289q0 36 22.5 59.5t57.5 23.5q28 0 43.5 -16t15.5 -45q0 -36 -23.5 -59.5t-57.5 -23.5q-27 0 -42.5 16.5t-15.5 44.5z" />
    <glyph glyph-name="ellipsis" unicode="&#x2026;" horiz-adv-x="557" 
d="M16 28q0 21 13.5 35t34.5 14q35 0 35 -36q0 -21 -14 -35t-34 -14q-35 0 -35 36zM202 28q0 21 14 35t35 14q35 0 35 -36q0 -21 -14 -35t-35 -14q-35 0 -35 36zM389 28q0 21 14 35t34 14q35 0 35 -36q0 -21 -13.5 -35t-34.5 -14q-35 0 -35 36z" />
    <glyph glyph-name="perthousand" unicode="&#x2030;" horiz-adv-x="1134" 
d="M176 0h-40l502 700h40zM75 480q0 95 54 161t131 66q60 0 94 -42.5t34 -115.5q0 -95 -54 -160.5t-132 -65.5q-60 0 -93.5 42.5t-33.5 114.5zM128 475q0 -56 20.5 -88t58.5 -32q52 0 89.5 59t37.5 141q0 57 -20.5 88t-58.5 31q-52 0 -89.5 -59t-37.5 -140zM426 150
q0 96 54 161.5t131 65.5q60 0 94 -42.5t34 -115.5q0 -95 -54.5 -160.5t-131.5 -65.5q-61 0 -94 42.5t-33 114.5zM479 145q0 -57 20.5 -88.5t58.5 -31.5q52 0 89.5 59t37.5 141q0 57 -21 88t-59 31q-52 0 -89 -59t-37 -140zM777 150q0 95 54 161t131 66q60 0 94 -42.5
t34 -115.5q0 -95 -54.5 -160.5t-131.5 -65.5q-61 0 -94 42.5t-33 114.5zM830 145q0 -57 20.5 -88.5t58.5 -31.5q51 0 88.5 59t37.5 141q0 57 -20.5 88t-58.5 31q-52 0 -89 -59t-37 -140z" />
    <glyph glyph-name="guilsinglleft" unicode="&#x2039;" horiz-adv-x="271" 
d="M246 452l5 -6l-5 -28l-142 -143l98 -143l-5 -28l-7 -6l-144 170l3 14z" />
    <glyph glyph-name="guilsinglright" unicode="&#x203a;" horiz-adv-x="271" 
d="M81 446l7 6l143 -170l-2 -14l-197 -170l-5 6l4 28l143 143l-97 143z" />
    <glyph glyph-name="fraction" unicode="&#x2044;" horiz-adv-x="520" 
d="M65 -25h-42l432 750h42z" />
    <glyph glyph-name="Euro" unicode="&#x20ac;" horiz-adv-x="698" 
d="M47 403l5 36h60q37 122 130.5 195t227.5 73q45 0 83.5 -8.5t61.5 -20.5t39.5 -24t23.5 -20l6 -9q-3 -19 -12.5 -34t-17.5 -20l-8 -5h-11q-2 4 -6 11.5t-19 26.5t-33.5 33t-50 26t-67.5 12q-94 0 -165.5 -64.5t-104.5 -171.5h297l5 -6l-5 -30h-306q-13 -59 -13 -114h295
l5 -6l-4 -30h-296q6 -110 55.5 -169t140.5 -59q37 0 72 11t59 27.5t43 32.5t28 27l9 11h10q3 -2 7 -5.5t10 -19t3 -34.5q-3 -3 -9.5 -8.5t-28.5 -20t-47.5 -25t-66.5 -19.5t-86 -9q-129 0 -198 67.5t-77 192.5h-68l5 36h62q0 59 12 114h-55z" />
    <glyph glyph-name="uni20B4" unicode="&#x20b4;" horiz-adv-x="526" 
d="M84 403l6 36h270q73 61 73 127q0 44 -29.5 69t-87.5 25q-52 0 -96.5 -19t-63.5 -37l-18 -19l-12 16q3 4 8 11.5t24.5 25.5t42.5 32t62 25.5t82 11.5q79 0 121.5 -35t42.5 -94q0 -72 -72 -139h59l-6 -36h-98q-26 -19 -77.5 -52t-67.5 -44h228l-6 -36h-270
q-77 -64 -77 -133q0 -47 31.5 -72.5t92.5 -25.5q34 0 65 8t52 19t37 22.5t24 19.5l7 8l13 -16q-3 -4 -8.5 -11.5t-26 -26t-44.5 -33t-64.5 -26t-85.5 -11.5q-81 0 -125.5 35t-44.5 97q0 76 77 146h-59l5 36h100q25 18 74.5 50t70.5 46h-229z" />
    <glyph glyph-name="afii61352" unicode="&#x2116;" horiz-adv-x="1026" 
d="M57 0l67 420q13 83 20 151t8 95v26l9 8h27l359 -577l92 577h40l-111 -700h-22l-361 577l-91 -577h-37zM721 480q0 95 54.5 161t131.5 66q60 0 94 -42t34 -115q0 -95 -54.5 -161t-130.5 -66q-60 0 -94.5 42.5t-34.5 114.5zM776 475q0 -56 20.5 -88t58.5 -32q52 0 89 59.5
t37 140.5q0 57 -20.5 88t-58.5 31q-52 0 -89 -59t-37 -140zM681 198l6 36h294l-6 -36h-294z" />
    <glyph glyph-name="trademark" unicode="&#x2122;" horiz-adv-x="726" 
d="M673 350l12 304l-2 2l-139 -296h-34l-5 8l-52 286l-2 -2l-78 -302h-25l68 263q6 23 9.5 43.5t4.5 29.5l1 9l6 5h59l50 -278l133 278h58l-13 -350h-51zM248 678l-52 -328h-49l51 328h-37q-24 0 -43 -2.5t-26 -5.5l-8 -2l-4 4l4 28h285l-4 -28l-6 -4q-20 10 -74 10h-37z
" />
    <glyph glyph-name="arrowleft" unicode="&#x2190;" horiz-adv-x="547" 
d="M260 477l7 -6v-28l-142 -150h352v-36h-352l142 -150v-28l-7 -6l-209 195v14z" />
    <glyph glyph-name="arrowup" unicode="&#x2191;" horiz-adv-x="545" 
d="M287 72h-36v352l-150 -142h-28l-6 6l194 210h15l195 -210l-7 -6h-28l-149 142v-352z" />
    <glyph glyph-name="arrowright" unicode="&#x2192;" horiz-adv-x="547" 
d="M71 257v36h351l-141 150v28l6 6l210 -195v-14l-210 -195l-6 6v28l141 150h-351z" />
    <glyph glyph-name="arrowdown" unicode="&#x2193;" horiz-adv-x="545" 
d="M67 262l6 6h28l150 -142v352h36v-352l149 142h28l7 -6l-195 -210h-15z" />
    <glyph glyph-name="uni2196" unicode="&#x2196;" horiz-adv-x="545" 
d="M132 134h-9l-10 286l11 11l286 -11v-9l-20 -19l-207 -6l249 -249l-25 -25l-250 248l-5 -206z" />
    <glyph glyph-name="uni2197" unicode="&#x2197;" horiz-adv-x="545" 
d="M138 112l-25 25l249 249l-206 6l-20 19v9l285 11l11 -11l-10 -286h-9l-20 20l-6 206z" />
    <glyph glyph-name="uni2198" unicode="&#x2198;" horiz-adv-x="545" 
d="M113 405l25 26l249 -250l6 207l20 20h9l10 -286l-11 -10l-285 10v9l20 20l205 5z" />
    <glyph glyph-name="uni2199" unicode="&#x2199;" horiz-adv-x="545" 
d="M410 131v-9l-286 -10l-11 10l10 286h9l20 -20l5 -207l250 250l25 -26l-249 -249l207 -5z" />
    <glyph glyph-name="minus" unicode="&#x2212;" 
d="M106 307v36h385v-36h-385z" />
    <glyph glyph-name="approxequal" unicode="&#x2248;" 
d="M106 378v39q47 50 95 50q33 0 98 -30t98 -30q46 0 94 51v-40q-45 -50 -93 -50q-33 0 -98.5 30.5t-97.5 30.5q-43 0 -96 -51zM398 173q-33 0 -98.5 30.5t-97.5 30.5q-42 0 -96 -51v39q47 50 95 50q33 0 98 -30.5t97 -30.5q47 0 95 51v-39q-44 -50 -93 -50z" />
    <glyph glyph-name="notequal" unicode="&#x2260;" 
d="M106 404v36h238l56 95l32 -18l-45 -77h104v-36h-125l-93 -158h218v-36h-239l-56 -95l-32 18l45 77h-103v36h124l93 158h-217z" />
    <glyph glyph-name="lessequal" unicode="&#x2264;" 
d="M501 576v-39l-357 -146l357 -147v-38l-405 166v38zM96 92v36h405v-36h-405z" />
    <glyph glyph-name="greaterequal" unicode="&#x2265;" 
d="M96 537v39l405 -166v-38l-405 -166v38l357 147zM96 92v36h405v-36h-405z" />
    <glyph glyph-name="commaaccent" unicode="&#xf6c3;" horiz-adv-x="178" 
d="M-26 -236l-9 11q7 6 16.5 18t26 49t16.5 74l-1 20l5 5q13 0 24.5 -2t16.5 -4l5 -2q1 -4 1 -14q0 -27 -10.5 -53t-25 -43.5t-29.5 -31.5t-26 -21z" />
    <glyph glyph-name="zerooldstyle" unicode="&#xf730;" horiz-adv-x="606" 
d="M55 201q0 119 81.5 199t200.5 80q96 0 152 -56t56 -152q0 -119 -81.5 -199t-199.5 -80q-97 0 -153 56t-56 152zM126 196q0 -80 37.5 -125.5t104.5 -45.5q87 0 147 72t60 179q0 81 -37.5 126t-105.5 45q-87 0 -146.5 -72t-59.5 -179z" />
    <glyph glyph-name="oneoldstyle" unicode="&#xf731;" horiz-adv-x="404" 
d="M181 0l64 405q-11 -8 -28.5 -19.5t-65 -31t-84.5 -19.5q-4 9 0 31l7 7q44 0 99 25t89 50l33 25h29l-74 -473h-69z" />
    <glyph glyph-name="twooldstyle" unicode="&#xf732;" horiz-adv-x="523" 
d="M480 362q0 -50 -36.5 -100.5t-88.5 -87.5t-104 -67t-89 -45l-36 -16h161q47 0 85 4t52 8l15 4l6 -8l-9 -54h-421l5 33q8 3 22 9.5t54.5 26t77 40.5t81 52t77 61t54.5 67.5t22 71.5q0 40 -28 63t-83 23q-71 0 -113 -40.5t-42 -108.5l3 -26l-9 -8q-17 0 -32 2t-22 4l-6 2
q-3 8 -3 27q0 79 60 130t171 51q85 0 130.5 -32t45.5 -86z" />
    <glyph glyph-name="threeoldstyle" unicode="&#xf733;" horiz-adv-x="582" 
d="M207 -225q88 0 140 59t52 144q0 63 -30 99t-88 36h-60l-4 7l4 32h46q76 0 118.5 47t42.5 127q0 121 -119 121q-73 0 -119.5 -42t-46.5 -118l2 -27l-8 -8q-17 0 -32.5 2t-22.5 4l-6 2q-3 10 -3 28q0 84 66 138t177 54q184 0 184 -154q0 -71 -37 -121.5t-105 -69.5
q56 -11 85.5 -53t29.5 -105q0 -103 -73 -168.5t-196 -65.5q-98 0 -148.5 41.5t-50.5 112.5q0 23 5 41.5t10 25.5l5 8q23 8 62 8l6 -8q-19 -28 -19 -78q0 -56 34.5 -87.5t98.5 -31.5z" />
    <glyph glyph-name="fouroldstyle" unicode="&#xf734;" horiz-adv-x="558" 
d="M-7 0l3 18l427 455h35l-70 -437h93l-5 -36h-93l-40 -250h-69l40 250h-321zM59 36h260l54 336z" />
    <glyph glyph-name="fiveoldstyle" unicode="&#xf735;" horiz-adv-x="560" 
d="M195 -225q87 0 139 67.5t52 167.5q0 77 -36 114t-112 37q-40 0 -80 -9.5t-60 -18.5l-20 -9l-9 12l89 332h172q47 0 84.5 4t51.5 8l15 4l6 -8l-10 -65h-295l-66 -246q72 37 155 37q97 0 143 -50.5t46 -139.5q0 -117 -71.5 -193t-198.5 -76q-92 0 -140 41t-48 111
q0 22 5 40.5t10 26.5l5 7q23 8 63 8l5 -8q-20 -27 -20 -77q0 -55 33 -86t92 -31z" />
    <glyph glyph-name="sixoldstyle" unicode="&#xf736;" horiz-adv-x="589" 
d="M372 675q-70 0 -121 -49t-77 -125.5t-33 -176.5q71 91 197 91q87 0 136 -47t49 -132q0 -105 -73 -174t-180 -69q-203 0 -203 275q0 80 17 154t52 140t98 105.5t147 39.5q80 0 128 -34.5t48 -96.5q0 -19 -4.5 -35.5t-8.5 -23.5l-5 -7q-24 -8 -62 -8l-7 8q18 26 18 67
q0 49 -32.5 73.5t-83.5 24.5zM317 382q-103 0 -178 -108v-20q0 -116 31.5 -172.5t101.5 -56.5q75 0 126 59.5t51 150.5q0 72 -34.5 109.5t-97.5 37.5z" />
    <glyph glyph-name="sevenoldstyle" unicode="&#xf737;" horiz-adv-x="518" 
d="M167 -250h-68q15 99 57 203.5t90 184t94.5 144.5t77.5 100l30 34h-221q-47 0 -85 -4t-52 -8l-14 -4l-7 7l10 66h430l-5 -34q-11 -14 -30.5 -39t-71 -102t-94 -154.5t-84 -186.5t-57.5 -207z" />
    <glyph glyph-name="eightoldstyle" unicode="&#xf738;" horiz-adv-x="575" 
d="M538 559q0 -39 -16 -74t-43 -60t-50.5 -41t-49.5 -29q59 -33 91.5 -69.5t32.5 -92.5q0 -82 -68.5 -141t-187.5 -59q-100 0 -151 43t-51 117q0 141 177 210q-99 59 -99 151q0 83 64 138t168 55q87 0 135 -40t48 -108zM434 177q0 18 -4.5 34t-16.5 30t-21.5 24t-30 22.5
t-31.5 18.5t-36.5 19t-35.5 18q-24 -10 -46 -24t-46.5 -36t-39.5 -54.5t-15 -70.5q0 -60 38 -96.5t105 -36.5q76 0 128 45.5t52 106.5zM347 675q-68 0 -111.5 -40t-43.5 -98q0 -30 11.5 -54.5t38 -45.5t45.5 -32.5t58 -31.5q48 28 89 74.5t41 110.5q0 53 -34.5 85t-93.5 32z
" />
    <glyph glyph-name="nineoldstyle" unicode="&#xf739;" horiz-adv-x="578" 
d="M194 -225q59 0 103.5 33.5t70.5 90t40 114.5t20 122q-67 -70 -182 -70q-85 0 -135 44.5t-50 129.5q0 104 72 172.5t177 68.5q101 0 148 -68t47 -203q0 -62 -9 -123t-32.5 -124t-58.5 -110.5t-91.5 -78t-126.5 -30.5q-80 0 -131 35.5t-51 98.5q0 18 4.5 34.5t8.5 23.5l4 7
q24 7 62 7l7 -7q-17 -26 -17 -66q0 -48 33 -74.5t87 -26.5zM267 97q89 0 164 80q2 38 2 52q0 110 -30 164t-96 54q-73 0 -122.5 -58.5t-49.5 -147.5q0 -72 35 -108t97 -36z" />
    <glyph glyph-name="A.smcp" horiz-adv-x="520" 
d="M117 143l-81 -143h-37l267 468l-6 16l1 6h73l126 -490h-68l-37 143h-238zM297 369l-17 60l-146 -256h213z" />
    <glyph glyph-name="Aacute.smcp" horiz-adv-x="520" 
d="M116 143l-81 -143h-36l267 468l-6 16l1 6h72l127 -490h-68l-37 143h-239zM297 369l-17 61l-147 -257h214zM272 548l-5 7l105 142q17 0 30.5 -2.5t18.5 -4.5l5 -3l-1 -7l-129 -132h-24z" />
    <glyph glyph-name="Abreve.smcp" horiz-adv-x="520" 
d="M116 143l-81 -143h-36l267 468l-6 16l1 6h72l127 -490h-68l-37 143h-239zM297 369l-17 61l-147 -257h214zM199 637l17 15q3 -6 10 -16t32.5 -26t56.5 -16t61 14.5t44 29.5l14 14l11 -15q-2 -3 -5.5 -9t-16.5 -20.5t-27.5 -25.5t-38 -20t-48.5 -9q-40 0 -67.5 21t-35.5 42
z" />
    <glyph glyph-name="Acircumflex.smcp" horiz-adv-x="520" 
d="M116 143l-81 -143h-36l267 468l-6 16l1 6h72l127 -490h-68l-37 143h-239zM297 369l-17 61l-147 -257h214zM435 555l-8 -7h-27l-74 99l-104 -99h-27l-6 7l136 142h19z" />
    <glyph glyph-name="Agrave.smcp" horiz-adv-x="520" 
d="M116 143l-81 -143h-36l267 468l-6 16l1 6h72l127 -490h-68l-37 143h-239zM297 369l-17 61l-147 -257h214zM351 555l-7 -7h-24l-87 132l1 7q19 10 57 10z" />
    <glyph glyph-name="Adieresis.smcp" horiz-adv-x="520" 
d="M116 143l-81 -143h-36l267 468l-6 16l1 6h72l127 -490h-68l-37 143h-239zM297 369l-17 61l-147 -257h214zM378 590q0 18 12 30t29 12q31 0 31 -31q0 -18 -12 -30.5t-30 -12.5q-30 0 -30 32zM185 590q0 18 12 30t29 12q31 0 31 -31q0 -18 -12 -30.5t-29 -12.5
q-31 0 -31 32z" />
    <glyph glyph-name="Amacron.smcp" horiz-adv-x="520" 
d="M116 143l-81 -143h-36l267 468l-6 16l1 6h72l127 -490h-68l-37 143h-239zM297 369l-17 61l-147 -257h214zM206 577l6 37h217l-6 -37h-217z" />
    <glyph glyph-name="Aogonek.smcp" horiz-adv-x="520" 
d="M116 143l-81 -143h-36l267 468l-6 16l1 6h72l127 -490h-13q-47 -44 -47 -93q0 -36 33 -36q9 0 17.5 2.5t12.5 5.5l4 3l11 -15q-21 -29 -59 -29q-26 0 -42.5 16t-16.5 46q0 28 14.5 53t29.5 36l14 11h-26l-37 143h-239zM297 369l-17 61l-147 -257h214z" />
    <glyph glyph-name="Aring.smcp" horiz-adv-x="520" 
d="M116 143l-81 -143h-36l267 468l-6 16l1 6h72l127 -490h-68l-37 143h-239zM297 369l-17 61l-147 -257h214zM246 609q0 39 25 64.5t61 25.5q29 0 45.5 -17.5t16.5 -47.5q0 -39 -25 -65.5t-61 -26.5q-29 0 -45.5 18t-16.5 49zM280 614q0 -39 34 -39q19 0 33 15.5t14 37.5
q0 17 -9 27.5t-25 10.5q-20 0 -33.5 -15t-13.5 -37z" />
    <glyph glyph-name="Atilde.smcp" horiz-adv-x="520" 
d="M116 143l-81 -143h-36l267 468l-6 16l1 6h72l127 -490h-68l-37 143h-239zM297 369l-17 61l-147 -257h214zM281 636q23 0 44 -18t40 -18q18 0 36 10t27 20l8 9l12 -15q-4 -7 -12 -18t-33 -29t-52 -18q-23 0 -43.5 18t-39.5 18q-18 0 -36 -9.5t-26 -19.5l-9 -10l-12 15
q4 7 12 18t33 29t51 18z" />
    <glyph glyph-name="AE.smcp" horiz-adv-x="622" 
d="M-1 0l305 490h306l-6 -37l-7 -7q-32 14 -111 14h-111l-31 -195h186l3 -5l-3 -25h-191l-33 -205h118q36 0 64.5 3.5t39.5 6.5l11 4l6 -6l-6 -38h-304l24 150h-131l-92 -150h-37zM146 179h117l41 254z" />
    <glyph glyph-name="AEacute.smcp" horiz-adv-x="622" 
d="M-1 0l305 490h306l-6 -37l-7 -7q-32 14 -111 14h-111l-31 -195h186l3 -5l-3 -25h-191l-33 -205h118q36 0 64.5 3.5t39.5 6.5l11 4l5 -6l-6 -38h-303l23 150h-131l-92 -150h-36zM145 179h118l40 255zM319 548l-5 7l105 142q17 0 30.5 -2.5t18.5 -4.5l5 -3l-1 -7l-129 -132
h-24z" />
    <glyph glyph-name="B.smcp" horiz-adv-x="493" 
d="M48 0l78 490h175q145 0 145 -107q0 -47 -28.5 -80.5t-81.5 -47.5q98 -18 98 -110q0 -67 -51.5 -106t-144.5 -39h-190zM367 149q0 89 -102 89h-113l-33 -208h113q62 0 98.5 32.5t36.5 86.5zM378 378q0 82 -93 82h-98l-30 -192h98q58 0 90.5 30.5t32.5 79.5z" />
    <glyph glyph-name="C.smcp" horiz-adv-x="532" 
d="M340 469q-90 0 -149 -74.5t-59 -183.5q0 -175 156 -175q42 0 83 13.5t61 26.5l19 13l10 -13q-3 -3 -8 -8.5t-24 -20t-40 -25t-54.5 -19.5t-69.5 -9q-97 0 -152 57.5t-55 156.5q0 122 81 205t206 83q78 0 120.5 -33.5t42.5 -89.5q0 -17 -4 -30.5t-8 -18.5l-3 -6
q-24 -6 -60 -6l-4 6q15 21 15 61q0 43 -27.5 66.5t-76.5 23.5z" />
    <glyph glyph-name="Cacute.smcp" horiz-adv-x="533" 
d="M340 469q-90 0 -149 -74.5t-59 -183.5q0 -175 156 -175q42 0 83 13.5t61 26.5l19 13l10 -13q-3 -3 -8 -8.5t-24 -20t-40 -25t-54.5 -19.5t-69.5 -9q-97 0 -152 57.5t-55 156.5q0 122 81 205t206 83q78 0 120.5 -33.5t42.5 -89.5q0 -17 -4 -30.5t-8 -18.5l-3 -6
q-24 -6 -60 -6l-4 6q15 21 15 61q0 43 -27.5 66.5t-76.5 23.5zM302 548l-5 7l105 142q17 0 30.5 -2.5t18.5 -4.5l5 -3l-1 -7l-129 -132h-24z" />
    <glyph glyph-name="Ccaron.smcp" horiz-adv-x="533" 
d="M340 469q-90 0 -149 -74.5t-59 -183.5q0 -175 156 -175q42 0 83 13.5t61 26.5l19 13l10 -13q-3 -3 -8 -8.5t-24 -20t-40 -25t-54.5 -19.5t-69.5 -9q-97 0 -152 57.5t-55 156.5q0 122 81 205t206 83q78 0 120.5 -33.5t42.5 -89.5q0 -17 -4 -30.5t-8 -18.5l-3 -6
q-24 -6 -60 -6l-4 6q15 21 15 61q0 43 -27.5 66.5t-76.5 23.5zM475 694l5 -6l-135 -143h-20l-90 143l7 6h27l74 -98l105 98h27z" />
    <glyph glyph-name="Ccedilla.smcp" horiz-adv-x="533" 
d="M233 -69l19 63q-91 4 -142.5 61t-51.5 153q0 122 81 205t206 83q78 0 120.5 -33.5t42.5 -89.5q0 -17 -4 -30.5t-8 -18.5l-3 -6q-24 -6 -60 -6l-4 6q15 21 15 61q0 43 -27.5 66.5t-76.5 23.5q-90 0 -149 -74.5t-59 -183.5q0 -175 156 -175q42 0 83 13.5t61 26.5l19 13
l10 -13q-3 -3 -7.5 -8t-22 -18.5t-36.5 -24t-50 -19.5t-64 -11l-14 -46q23 0 37.5 -14.5t14.5 -39.5q0 -31 -22.5 -50.5t-56.5 -19.5q-21 0 -36.5 8.5t-19.5 17.5l-5 9l14 13q13 -19 43 -19q20 0 32 10.5t12 28.5q0 31 -43 31z" />
    <glyph glyph-name="Ccircumflex.smcp" horiz-adv-x="533" 
d="M340 469q-90 0 -149 -74.5t-59 -183.5q0 -175 156 -175q42 0 83 13.5t61 26.5l19 13l10 -13q-3 -3 -8 -8.5t-24 -20t-40 -25t-54.5 -19.5t-69.5 -9q-97 0 -152 57.5t-55 156.5q0 122 81 205t206 83q78 0 120.5 -33.5t42.5 -89.5q0 -17 -4 -30.5t-8 -18.5l-3 -6
q-24 -6 -60 -6l-4 6q15 21 15 61q0 43 -27.5 66.5t-76.5 23.5zM465 555l-8 -7h-27l-73 99l-105 -99h-27l-5 7l135 142h19z" />
    <glyph glyph-name="Cdotaccent.smcp" horiz-adv-x="533" 
d="M340 469q-90 0 -149 -74.5t-59 -183.5q0 -175 156 -175q42 0 83 13.5t61 26.5l19 13l10 -13q-3 -3 -8 -8.5t-24 -20t-40 -25t-54.5 -19.5t-69.5 -9q-97 0 -152 57.5t-55 156.5q0 122 81 205t206 83q78 0 120.5 -33.5t42.5 -89.5q0 -17 -4 -30.5t-8 -18.5l-3 -6
q-24 -6 -60 -6l-4 6q15 21 15 61q0 43 -27.5 66.5t-76.5 23.5zM310 605q0 19 13 32t32 13q33 0 33 -34q0 -19 -12.5 -32t-31.5 -13q-34 0 -34 34z" />
    <glyph glyph-name="D.smcp" horiz-adv-x="558" 
d="M48 0l78 490h186q96 0 151 -56.5t55 -153.5q0 -119 -81 -199.5t-202 -80.5h-187zM305 460h-118l-68 -430h118q89 0 148.5 72.5t59.5 182.5q0 83 -37 129t-103 46z" />
    <glyph glyph-name="Dcaron.smcp" horiz-adv-x="558" 
d="M48 0l78 490h186q96 0 151 -56.5t55 -153.5q0 -119 -81 -199.5t-202 -80.5h-187zM305 460h-118l-68 -430h118q89 0 148.5 72.5t59.5 182.5q0 83 -37 129t-103 46zM465 694l5 -6l-135 -143h-21l-89 143l6 6h28l74 -98l104 98h28z" />
    <glyph glyph-name="Dcroat.smcp" horiz-adv-x="559" 
d="M40 236l4 30h47l36 224h186q95 0 150.5 -56.5t55.5 -153.5q0 -119 -81.5 -199.5t-202.5 -80.5h-186l37 236h-46zM306 460h-118l-31 -194h112l-4 -30h-113l-32 -206h117q89 0 149 72.5t60 181.5q0 84 -37 130t-103 46z" />
    <glyph glyph-name="Eth.smcp" horiz-adv-x="559" 
d="M40 236l4 30h47l36 224h186q95 0 150.5 -56.5t55.5 -153.5q0 -119 -81.5 -199.5t-202.5 -80.5h-186l37 236h-46zM306 460h-118l-31 -194h112l-4 -30h-113l-32 -206h117q89 0 149 72.5t60 181.5q0 84 -37 130t-103 46z" />
    <glyph glyph-name="Thorn.smcp" horiz-adv-x="466" 
d="M48 0l78 490h66l-16 -97h97q74 0 116 -32.5t42 -92.5q0 -71 -56 -114t-147 -43h-97l-17 -111h-66zM258 362h-87l-35 -220h87q62 0 100 34.5t38 90.5q0 95 -103 95z" />
    <glyph glyph-name="E.smcp" horiz-adv-x="446" 
d="M48 0l78 490h308l-6 -37l-7 -7q-31 14 -112 14h-121l-31 -195h197l4 -5l-3 -25h-203l-33 -205h129q36 0 65 3.5t40 6.5l11 4l5 -6l-6 -38h-315z" />
    <glyph glyph-name="Eacute.smcp" horiz-adv-x="446" 
d="M48 0l78 490h308l-6 -37l-7 -7q-31 14 -112 14h-121l-31 -195h197l4 -5l-3 -25h-203l-33 -205h129q36 0 65 3.5t40 6.5l11 4l5 -6l-6 -38h-315zM243 548l-5 7l105 142q17 0 30.5 -2.5t18.5 -4.5l5 -3l-1 -7l-129 -132h-24z" />
    <glyph glyph-name="Ebreve.smcp" horiz-adv-x="446" 
d="M48 0l78 490h308l-6 -37l-7 -7q-31 14 -112 14h-121l-31 -195h197l4 -5l-3 -25h-203l-33 -205h129q36 0 65 3.5t40 6.5l11 4l5 -6l-6 -38h-315zM177 637l16 15q1 -2 3.5 -6t11.5 -14t19.5 -17.5t28 -14t37.5 -6.5q31 0 60.5 14.5t43.5 29.5l14 14l12 -15q-2 -3 -5.5 -9
t-16.5 -20.5t-27.5 -25.5t-38 -20t-48.5 -9q-40 0 -67.5 21t-35.5 42z" />
    <glyph glyph-name="Ecaron.smcp" horiz-adv-x="446" 
d="M48 0l78 490h308l-6 -37l-7 -7q-31 14 -112 14h-121l-31 -195h197l4 -5l-3 -25h-203l-33 -205h129q36 0 65 3.5t40 6.5l11 4l5 -6l-6 -38h-315zM423 698l5 -6l-135 -143h-20l-90 143l7 6h28l74 -98l104 98h27z" />
    <glyph glyph-name="Ecircumflex.smcp" horiz-adv-x="446" 
d="M48 0l78 490h308l-6 -37l-7 -7q-31 14 -112 14h-121l-31 -195h197l4 -5l-3 -25h-203l-33 -205h129q36 0 65 3.5t40 6.5l11 4l5 -6l-6 -38h-315zM412 555l-8 -7h-27l-74 99l-104 -99h-27l-5 7l135 142h19z" />
    <glyph glyph-name="Edieresis.smcp" horiz-adv-x="446" 
d="M48 0l78 490h308l-6 -37l-7 -7q-31 14 -112 14h-121l-31 -195h197l4 -5l-3 -25h-203l-33 -205h129q36 0 65 3.5t40 6.5l11 4l5 -6l-6 -38h-315zM355 585q0 19 11.5 30.5t29.5 11.5q31 0 31 -31q0 -18 -12 -30t-30 -12q-30 0 -30 31zM161 585q0 19 12 30.5t30 11.5
q30 0 30 -31q0 -18 -11.5 -30t-29.5 -12q-31 0 -31 31z" />
    <glyph glyph-name="Edotaccent.smcp" horiz-adv-x="446" 
d="M48 0l78 490h308l-6 -37l-7 -7q-31 14 -112 14h-121l-31 -195h197l4 -5l-3 -25h-203l-33 -205h129q36 0 65 3.5t40 6.5l11 4l5 -6l-6 -38h-315zM257 605q0 19 12.5 32t32.5 13q34 0 34 -34q0 -19 -13 -32t-32 -13q-34 0 -34 34z" />
    <glyph glyph-name="Egrave.smcp" horiz-adv-x="446" 
d="M48 0l78 490h308l-6 -37l-7 -7q-31 14 -112 14h-121l-31 -195h197l4 -5l-3 -25h-203l-33 -205h129q36 0 65 3.5t40 6.5l11 4l5 -6l-6 -38h-315zM335 555l-6 -7h-25l-87 132l2 7q18 10 57 10z" />
    <glyph glyph-name="Emacron.smcp" horiz-adv-x="446" 
d="M48 0l78 490h308l-6 -37l-7 -7q-31 14 -112 14h-121l-31 -195h197l4 -5l-3 -25h-203l-33 -205h129q36 0 65 3.5t40 6.5l11 4l5 -6l-6 -38h-315zM183 577l6 37h217l-6 -37h-217z" />
    <glyph glyph-name="Eogonek.smcp" horiz-adv-x="446" 
d="M48 0l78 490h308l-6 -37l-7 -7q-31 14 -112 14h-121l-31 -195h197l4 -5l-3 -25h-203l-33 -205h129q36 0 65 3.5t40 6.5l11 4l5 -6l-6 -38h-37q-45 -45 -45 -93q0 -36 33 -36q9 0 17.5 2.5t12.5 5.5l4 3l11 -15q-21 -28 -59 -28q-26 0 -42.5 15.5t-16.5 46.5q0 26 13 50
t23.5 33.5t19.5 15.5h-249z" />
    <glyph glyph-name="F.smcp" horiz-adv-x="427" 
d="M48 0l78 490h307l-6 -37l-7 -7q-32 14 -112 14h-120l-31 -195h193l4 -5l-4 -25h-198l-38 -235h-66z" />
    <glyph glyph-name="G.smcp" horiz-adv-x="542" 
d="M347 207l4 25h68q17 0 32.5 2t22.5 4l7 1l6 -7l-27 -167q-3 -3 -8.5 -7.5t-24 -17t-39 -22t-53.5 -17t-67 -7.5q-100 0 -155 57.5t-55 156.5q0 123 80.5 205.5t208.5 82.5q77 0 119 -31.5t42 -86.5q0 -16 -4 -29.5t-8 -18.5l-4 -6q-22 -6 -58 -6l-6 6q16 21 16 59
q0 86 -101 86q-93 0 -152.5 -74.5t-59.5 -184.5q0 -86 39.5 -133t113.5 -47q56 0 114 27l9 56q8 48 8 89h-64z" />
    <glyph glyph-name="Gbreve.smcp" horiz-adv-x="541" 
d="M347 207l4 25h68q17 0 32.5 2t22.5 4l7 1l6 -7l-27 -167q-3 -3 -8.5 -7.5t-24 -17t-39 -22t-53.5 -17t-67 -7.5q-100 0 -155 57.5t-55 156.5q0 123 80.5 205.5t208.5 82.5q77 0 119 -31.5t42 -86.5q0 -16 -4 -29.5t-8 -18.5l-4 -6q-22 -6 -58 -6l-6 6q16 21 16 59
q0 86 -101 86q-93 0 -152.5 -74.5t-59.5 -184.5q0 -86 39.5 -133t113.5 -47q56 0 114 27l9 56q8 48 8 89h-64zM229 637l16 15q1 -2 3.5 -6t11.5 -14t19.5 -17.5t28 -14t37.5 -6.5q31 0 60.5 14.5t43.5 29.5l14 14l12 -15q-2 -3 -5.5 -9t-16.5 -20.5t-27.5 -25.5t-38 -20
t-48.5 -9q-40 0 -67.5 21t-35.5 42z" />
    <glyph glyph-name="Gcircumflex.smcp" horiz-adv-x="541" 
d="M347 207l4 25h68q17 0 32.5 2t22.5 4l7 1l6 -7l-27 -167q-3 -3 -8.5 -7.5t-24 -17t-39 -22t-53.5 -17t-67 -7.5q-100 0 -155 57.5t-55 156.5q0 123 80.5 205.5t208.5 82.5q77 0 119 -31.5t42 -86.5q0 -16 -4 -29.5t-8 -18.5l-4 -6q-22 -6 -58 -6l-6 6q16 21 16 59
q0 86 -101 86q-93 0 -152.5 -74.5t-59.5 -184.5q0 -86 39.5 -133t113.5 -47q56 0 114 27l9 56q8 48 8 89h-64zM465 555l-8 -7h-27l-73 99l-105 -99h-27l-5 7l135 142h19z" />
    <glyph glyph-name="Gcommaaccent.smcp" horiz-adv-x="541" 
d="M347 207l4 25h68q17 0 32.5 2t22.5 4l7 1l6 -7l-27 -167q-3 -3 -8.5 -7.5t-24 -17t-39 -22t-53.5 -17t-67 -7.5q-100 0 -155 57.5t-55 156.5q0 123 80.5 205.5t208.5 82.5q77 0 119 -31.5t42 -86.5q0 -16 -4 -29.5t-8 -18.5l-4 -6q-22 -6 -58 -6l-6 6q16 21 16 59
q0 86 -101 86q-93 0 -152.5 -74.5t-59.5 -184.5q0 -86 39.5 -133t113.5 -47q56 0 114 27l9 56q8 48 8 89h-64zM189 -215l-9 12q7 6 17 18t26.5 49t16.5 74l-1 20l4 5q13 0 24.5 -2t16.5 -4l5 -2q2 -4 2 -14q0 -27 -10.5 -53t-25.5 -43.5t-30 -31.5t-25 -21z" />
    <glyph glyph-name="Gdotaccent.smcp" horiz-adv-x="541" 
d="M347 207l4 25h68q17 0 32.5 2t22.5 4l7 1l6 -7l-27 -167q-3 -3 -8.5 -7.5t-24 -17t-39 -22t-53.5 -17t-67 -7.5q-100 0 -155 57.5t-55 156.5q0 123 80.5 205.5t208.5 82.5q77 0 119 -31.5t42 -86.5q0 -16 -4 -29.5t-8 -18.5l-4 -6q-22 -6 -58 -6l-6 6q16 21 16 59
q0 86 -101 86q-93 0 -152.5 -74.5t-59.5 -184.5q0 -86 39.5 -133t113.5 -47q56 0 114 27l9 56q8 48 8 89h-64zM310 605q0 19 13 32t32 13q33 0 33 -34q0 -19 -12.5 -32t-31.5 -13q-34 0 -34 34z" />
    <glyph glyph-name="H.smcp" horiz-adv-x="566" 
d="M391 0l37 235h-277l-37 -235h-66l78 490h66l-36 -225h276l36 225h67l-78 -490h-66z" />
    <glyph glyph-name="Hbar.smcp" horiz-adv-x="565" 
d="M391 0l37 235h-277l-37 -235h-66l58 365h-46l4 30h47l15 95h66l-15 -95h276l15 95h67l-15 -95h46l-4 -30h-47l-58 -365h-66zM172 365l-16 -100h276l16 100h-276z" />
    <glyph glyph-name="Hcircumflex.smcp" horiz-adv-x="566" 
d="M391 0l37 235h-277l-37 -235h-66l78 490h66l-36 -225h276l36 225h67l-78 -490h-66zM461 555l-7 -7h-28l-73 99l-104 -99h-28l-5 7l135 142h20z" />
    <glyph glyph-name="I.smcp" horiz-adv-x="223" 
d="M48 0l78 490h66l-78 -490h-66z" />
    <glyph glyph-name="Iacute.smcp" horiz-adv-x="223" 
d="M48 0l78 490h66l-78 -490h-66zM128 548l-5 7l105 142q17 0 30.5 -2.5t18.5 -4.5l5 -3l-1 -7l-129 -132h-24z" />
    <glyph glyph-name="Ibreve.smcp" horiz-adv-x="224" 
d="M48 0l78 490h66l-78 -490h-66zM55 637l17 15q3 -6 10 -16t32.5 -26t56.5 -16t61 14.5t44 29.5l14 14l11 -15q-2 -3 -5.5 -9t-16.5 -20.5t-27.5 -25.5t-38 -20t-48.5 -9q-40 0 -67.5 21t-35.5 42z" />
    <glyph glyph-name="Icircumflex.smcp" horiz-adv-x="223" 
d="M48 0l78 490h66l-78 -490h-66zM290 555l-7 -7h-28l-73 99l-104 -99h-28l-5 7l135 142h20z" />
    <glyph glyph-name="Idieresis.smcp" horiz-adv-x="223" 
d="M48 0l78 490h66l-78 -490h-66zM40 590q0 18 11.5 30t29.5 12q31 0 31 -31q0 -18 -12 -30.5t-29 -12.5q-31 0 -31 32zM233 590q0 18 12 30t29 12q31 0 31 -31q0 -18 -12 -30.5t-30 -12.5q-30 0 -30 32z" />
    <glyph glyph-name="Idotaccent.smcp" horiz-adv-x="223" 
d="M48 0l78 490h66l-78 -490h-66zM129 608q0 22 14.5 36.5t36.5 14.5q17 0 27 -10.5t10 -27.5q0 -22 -14 -36.5t-36 -14.5q-18 0 -28 10.5t-10 27.5z" />
    <glyph glyph-name="Igrave.smcp" horiz-adv-x="223" 
d="M48 0l78 490h66l-78 -490h-66zM206 555l-6 -7h-25l-87 132l1 7q19 10 58 10z" />
    <glyph glyph-name="Imacron.smcp" horiz-adv-x="223" 
d="M48 0l78 490h66l-78 -490h-66zM62 577l6 37h217l-6 -37h-217z" />
    <glyph glyph-name="Iogonek.smcp" horiz-adv-x="223" 
d="M48 0l78 490h66l-78 -490h-14q-45 -45 -45 -93q0 -36 33 -36q9 0 17 2.5t12 5.5l4 3l12 -15q-21 -28 -60 -28q-25 0 -41.5 15.5t-16.5 46.5q0 26 13 50t23.5 33.5t19.5 15.5h-23z" />
    <glyph glyph-name="Itilde.smcp" horiz-adv-x="223" 
d="M48 0l78 490h66l-78 -490h-66zM138 636q23 0 44 -18t39 -18t36 10t27 20l9 9l11 -15q-4 -7 -11.5 -18t-32.5 -29t-52 -18q-23 0 -44 18t-39 18q-19 0 -37 -9.5t-26 -19.5l-9 -10l-11 15q4 7 11.5 18t32.5 29t52 18z" />
    <glyph glyph-name="IJ.smcp" horiz-adv-x="462" 
d="M84 228l42 262h66l-41 -262h-67zM192 21q98 0 121 144l52 325h66l-52 -324q-13 -81 -63 -126.5t-130 -45.5q-61 0 -95.5 25.5t-34.5 67.5q0 16 4 30t8 20l5 6q22 7 58 7l7 -7q-17 -25 -17 -57q0 -31 19 -48t52 -17z" />
    <glyph glyph-name="J.smcp" horiz-adv-x="382" 
d="M230 148l55 342h65l-54 -341q-24 -155 -171 -155q-38 0 -66 10t-37 20l-10 11q3 18 12 34t17 23l8 7h7q1 -3 2 -8.5t7 -19t13.5 -23.5t21.5 -18.5t31 -8.5q78 0 99 127z" />
    <glyph glyph-name="Jcircumflex.smcp" horiz-adv-x="381" 
d="M230 148l55 342h65l-54 -341q-24 -155 -171 -155q-38 0 -66 10t-37 20l-10 11q3 18 12 34t17 23l8 7h7q1 -3 2 -8.5t7 -19t13.5 -23.5t21.5 -18.5t31 -8.5q78 0 99 127zM450 563l-8 -6h-27l-73 98l-105 -98h-27l-5 6l135 142h20z" />
    <glyph glyph-name="K.smcp" horiz-adv-x="483" 
d="M48 0l78 490h66l-35 -218h37l227 218h45l-223 -212l82 -139q23 -37 47 -70t36 -48l12 -15l-1 -6h-80l-152 242h-35l-38 -242h-66z" />
    <glyph glyph-name="Kcommaaccent.smcp" horiz-adv-x="484" 
d="M48 0l78 490h66l-35 -218h37l227 218h45l-223 -212l82 -139q23 -37 47 -70t36 -48l12 -15l-1 -6h-80l-152 242h-35l-38 -242h-66zM148 -215l-8 12q7 6 16.5 18t26 49t16.5 74l-1 20l5 5q13 0 24 -2t16 -4l5 -2q2 -4 2 -14q0 -27 -10.5 -53t-25.5 -43.5t-30 -31.5t-26 -21
z" />
    <glyph glyph-name="L.smcp" horiz-adv-x="413" 
d="M48 0l78 490h66l-73 -460h113q35 0 64 3.5t40 6.5l11 4l5 -6l-5 -38h-299z" />
    <glyph glyph-name="Lacute.smcp" horiz-adv-x="414" 
d="M48 0l78 490h66l-73 -460h113q35 0 64 3.5t40 6.5l11 4l5 -6l-5 -38h-299zM122 548l-5 7l105 142q17 0 30.5 -2.5t18.5 -4.5l5 -3l-1 -7l-129 -132h-24z" />
    <glyph glyph-name="Lcaron.smcp" horiz-adv-x="414" 
d="M48 0l78 490h66l-73 -460h113q35 0 64 3.5t40 6.5l11 4l5 -6l-5 -38h-299zM295 320l-9 12q7 6 17 18t26.5 48.5t16.5 73.5l-2 21l5 4q13 0 24.5 -2t16.5 -4l5 -2q1 -4 1 -14q0 -27 -10.5 -52.5t-25 -43.5t-29.5 -31.5t-25 -20.5z" />
    <glyph glyph-name="Lcommaaccent.smcp" horiz-adv-x="414" 
d="M48 0l78 490h66l-73 -460h113q35 0 64 3.5t40 6.5l11 4l5 -6l-5 -38h-299zM121 -215l-9 12q7 6 17 18t26.5 49t16.5 74l-1 20l4 5q13 0 24.5 -2t16.5 -4l5 -2q2 -4 2 -14q0 -27 -10.5 -53t-25.5 -43.5t-30 -31.5t-25 -21z" />
    <glyph glyph-name="Ldot.smcp" horiz-adv-x="414" 
d="M48 0l78 490h66l-73 -460h113q35 0 64 3.5t40 6.5l11 4l5 -6l-5 -38h-299zM282 242q0 18 12 30.5t29 12.5q31 0 31 -31q0 -19 -11.5 -31t-29.5 -12q-31 0 -31 31z" />
    <glyph glyph-name="Lslash.smcp" horiz-adv-x="420" 
d="M27 187l-9 21l77 39l38 243h67l-33 -206l75 38l10 -22l-90 -45l-35 -225h112q36 0 65 3.5t40 6.5l11 4l4 -6l-5 -38h-298l34 219z" />
    <glyph glyph-name="M.smcp" horiz-adv-x="666" 
d="M513 0l13 427l-2 3l-209 -416h-44l-9 11l-83 403l-3 -3l-115 -425h-35l100 369q8 32 13.5 60.5t6.5 41.5l2 13l7 6h79l83 -399l201 399h77l-14 -490h-68z" />
    <glyph glyph-name="N.smcp" horiz-adv-x="548" 
d="M48 0l47 294q9 56 13.5 103.5t4.5 66.5v20l7 6h24l276 -383l61 383h36l-78 -490h-20l-277 381l-60 -381h-34z" />
    <glyph glyph-name="Nacute.smcp" horiz-adv-x="548" 
d="M48 0l47 294q9 56 13.5 103.5t4.5 66.5v20l7 6h24l276 -383l61 383h36l-78 -490h-20l-277 381l-60 -381h-34zM289 548l-5 7l105 142q17 0 30.5 -2.5t18.5 -4.5l5 -3l-1 -7l-129 -132h-24z" />
    <glyph glyph-name="Ncaron.smcp" horiz-adv-x="548" 
d="M48 0l47 294q9 56 13.5 103.5t4.5 66.5v20l7 6h24l276 -383l61 383h36l-78 -490h-20l-277 381l-60 -381h-34zM462 694l5 -6l-135 -143h-20l-90 143l7 6h27l74 -98l105 98h27z" />
    <glyph glyph-name="Ncommaaccent.smcp" horiz-adv-x="548" 
d="M48 0l47 294q9 56 13.5 103.5t4.5 66.5v20l7 6h24l276 -383l61 383h36l-78 -490h-20l-277 381l-60 -381h-34zM181 -215l-9 12q7 6 17 18t26.5 49t16.5 74l-1 20l4 5q13 0 24.5 -2t16.5 -4l5 -2q1 -4 1 -14q0 -27 -10.5 -53t-25 -43.5t-29.5 -31.5t-25 -21z" />
    <glyph glyph-name="Ntilde.smcp" horiz-adv-x="548" 
d="M48 0l47 294q9 56 13.5 103.5t4.5 66.5v20l7 6h24l276 -383l61 383h36l-78 -490h-20l-277 381l-60 -381h-34zM299 636q23 0 44 -18t39 -18t36 10t27 20l9 9l11 -15q-4 -7 -11.5 -18t-32.5 -29t-52 -18q-23 0 -44 18t-39 18q-19 0 -37 -9.5t-27 -19.5l-8 -10l-11 15
q4 7 11.5 18t32.5 29t52 18z" />
    <glyph glyph-name="Eng.smcp" horiz-adv-x="548" 
d="M48 0l47 294q9 57 13.5 104.5t4.5 66.5v19l7 6h24l275 -383l62 383h36l-82 -516q-23 -155 -162 -155q-36 0 -64 10.5t-37 20.5l-10 10q3 18 12.5 34t17.5 23l8 7h6q1 -3 2 -8.5t7 -19t13.5 -23.5t22 -18.5t31.5 -8.5q77 0 98 127l9 58l-247 351l-60 -382h-34z" />
    <glyph glyph-name="O.smcp" horiz-adv-x="585" 
d="M58 207q0 122 81 205.5t200 83.5q96 0 151 -57.5t55 -155.5q0 -122 -81 -205.5t-200 -83.5q-96 0 -151 57.5t-55 155.5zM130 200q0 -86 35.5 -132.5t102.5 -46.5q86 0 146 78t60 192q0 85 -36.5 131.5t-102.5 46.5q-86 0 -145.5 -77.5t-59.5 -191.5z" />
    <glyph glyph-name="Oacute.smcp" horiz-adv-x="586" 
d="M58 207q0 122 81 205.5t200 83.5q96 0 151 -57.5t55 -155.5q0 -122 -81 -205.5t-200 -83.5q-96 0 -151 57.5t-55 155.5zM130 200q0 -86 35.5 -132.5t102.5 -46.5q86 0 146 78t60 192q0 85 -36.5 131.5t-102.5 46.5q-86 0 -145.5 -77.5t-59.5 -191.5zM309 541l-6 6
l105 143q17 0 30.5 -3t18.5 -5l5 -3l-1 -6l-129 -132h-23z" />
    <glyph glyph-name="Obreve.smcp" horiz-adv-x="586" 
d="M58 207q0 122 81 205.5t200 83.5q96 0 151 -57.5t55 -155.5q0 -122 -81 -205.5t-200 -83.5q-96 0 -151 57.5t-55 155.5zM130 200q0 -86 35.5 -132.5t102.5 -46.5q86 0 146 78t60 192q0 85 -36.5 131.5t-102.5 46.5q-86 0 -145.5 -77.5t-59.5 -191.5zM236 637l16 15
q1 -2 3.5 -6t11.5 -14t19.5 -17.5t28 -14t37.5 -6.5q31 0 60.5 14.5t43.5 29.5l14 14l12 -15q-2 -3 -5.5 -9t-16.5 -20.5t-28 -25.5t-38.5 -20t-48.5 -9t-45.5 8.5t-32 21t-19 25t-10.5 20.5z" />
    <glyph glyph-name="Ocircumflex.smcp" horiz-adv-x="586" 
d="M58 207q0 122 81 205.5t200 83.5q96 0 151 -57.5t55 -155.5q0 -122 -81 -205.5t-200 -83.5q-96 0 -151 57.5t-55 155.5zM130 200q0 -86 35.5 -132.5t102.5 -46.5q86 0 146 78t60 192q0 85 -36.5 131.5t-102.5 46.5q-86 0 -145.5 -77.5t-59.5 -191.5zM472 555l-8 -7h-27
l-73 99l-105 -99h-27l-5 7l135 142h19z" />
    <glyph glyph-name="Odieresis.smcp" horiz-adv-x="586" 
d="M58 207q0 122 81 205.5t200 83.5q96 0 151 -57.5t55 -155.5q0 -122 -81 -205.5t-200 -83.5q-96 0 -151 57.5t-55 155.5zM130 200q0 -86 35.5 -132.5t102.5 -46.5q86 0 146 78t60 192q0 85 -36.5 131.5t-102.5 46.5q-86 0 -145.5 -77.5t-59.5 -191.5zM221 590q0 18 12 30
t29 12q31 0 31 -31q0 -18 -11.5 -30.5t-29.5 -12.5q-14 0 -22.5 9t-8.5 23zM414 590q0 18 12 30t29 12q31 0 31 -31q0 -18 -11.5 -30.5t-29.5 -12.5q-31 0 -31 32z" />
    <glyph glyph-name="Ograve.smcp" horiz-adv-x="586" 
d="M58 207q0 122 81 205.5t200 83.5q96 0 151 -57.5t55 -155.5q0 -122 -81 -205.5t-200 -83.5q-96 0 -151 57.5t-55 155.5zM130 200q0 -86 35.5 -132.5t102.5 -46.5q86 0 146 78t60 192q0 85 -36.5 131.5t-102.5 46.5q-86 0 -145.5 -77.5t-59.5 -191.5zM387 555l-6 -7h-25
l-87 132l2 7q18 10 57 10z" />
    <glyph glyph-name="Ohungarumlaut.smcp" horiz-adv-x="586" 
d="M58 207q0 122 81 205.5t200 83.5q96 0 151 -57.5t55 -155.5q0 -122 -81 -205.5t-200 -83.5q-96 0 -151 57.5t-55 155.5zM130 200q0 -86 35.5 -132.5t102.5 -46.5q86 0 146 78t60 192q0 85 -36.5 131.5t-102.5 46.5q-86 0 -145.5 -77.5t-59.5 -191.5zM235 548l-5 7
l103 142q17 0 31 -2.5t19 -4.5l5 -3l-1 -7l-128 -132h-24zM382 548l-5 7l110 142q17 0 29.5 -2.5t17.5 -4.5l4 -3v-7l-132 -132h-24z" />
    <glyph glyph-name="Omacron.smcp" horiz-adv-x="586" 
d="M58 207q0 122 81 205.5t200 83.5q96 0 151 -57.5t55 -155.5q0 -122 -81 -205.5t-200 -83.5q-96 0 -151 57.5t-55 155.5zM130 200q0 -86 35.5 -132.5t102.5 -46.5q86 0 146 78t60 192q0 85 -36.5 131.5t-102.5 46.5q-86 0 -145.5 -77.5t-59.5 -191.5zM242 577l6 37h217
l-6 -37h-217z" />
    <glyph glyph-name="Oslash.smcp" horiz-adv-x="585" 
d="M129 -18h-35l38 52q-74 57 -74 173q0 122 81 205.5t200 83.5q62 0 109 -25l27 37h34l-38 -53q74 -57 74 -172q0 -122 -81 -205.5t-200 -83.5q-65 0 -109 25zM128 200q0 -80 32 -127l264 365q-36 31 -89 31q-87 0 -147 -77.5t-60 -191.5zM475 290q0 80 -32 126l-264 -364
q36 -31 89 -31q87 0 147 77.5t60 191.5z" />
    <glyph glyph-name="Oslashacute.smcp" horiz-adv-x="586" 
d="M129 -18h-35l38 52q-74 57 -74 173q0 122 81 205.5t200 83.5q62 0 109 -25l27 37h34l-38 -53q74 -57 74 -172q0 -122 -81 -205.5t-200 -83.5q-65 0 -109 25zM128 200q0 -80 32 -127l264 365q-36 31 -89 31q-87 0 -147 -77.5t-60 -191.5zM475 290q0 80 -32 126l-264 -364
q36 -31 89 -31q87 0 147 77.5t60 191.5zM302 548l-5 7l105 142q17 0 30.5 -2.5t18.5 -4.5l5 -3l-1 -7l-129 -132h-24z" />
    <glyph glyph-name="Otilde.smcp" horiz-adv-x="586" 
d="M58 207q0 122 81 205.5t200 83.5q96 0 151 -57.5t55 -155.5q0 -122 -81 -205.5t-200 -83.5q-96 0 -151 57.5t-55 155.5zM130 200q0 -86 35.5 -132.5t102.5 -46.5q86 0 146 78t60 192q0 85 -36.5 131.5t-102.5 46.5q-86 0 -145.5 -77.5t-59.5 -191.5zM318 636q23 0 44 -18
t39 -18q19 0 37 10t26 20l9 9l11 -15q-4 -7 -11.5 -18t-32.5 -29t-52 -18q-23 0 -44 18t-39 18t-36 -9.5t-27 -19.5l-9 -10l-11 15q4 7 11.5 18t32.5 29t52 18z" />
    <glyph glyph-name="OE.smcp" horiz-adv-x="749" 
d="M362 0l3 20q-49 -26 -106 -26q-92 0 -146.5 58.5t-54.5 155.5q0 121 81.5 204.5t197.5 83.5q58 0 99 -27l4 21h297l-6 -37l-7 -7q-32 14 -111 14h-112l-31 -195h187l4 -5l-4 -25h-192l-33 -205h119q36 0 65 3.5t40 6.5l11 4l4 -6l-5 -38h-304zM267 21q62 0 106 53l55 345
q-30 50 -92 50q-87 0 -146.5 -77.5t-59.5 -191.5q0 -86 36 -132.5t101 -46.5z" />
    <glyph glyph-name="P.smcp" horiz-adv-x="466" 
d="M48 0l78 490h165q74 0 115.5 -32t41.5 -92q0 -71 -56 -114t-147 -43h-98l-33 -209h-66zM275 460h-88l-35 -221h88q62 0 100.5 34.5t38.5 91.5q0 46 -27 70.5t-77 24.5z" />
    <glyph glyph-name="Q.smcp" horiz-adv-x="585" 
d="M261 -9q-96 1 -150 58.5t-54 155.5q0 123 81.5 207t200.5 84q96 0 151 -58t55 -157q0 -102 -57.5 -178.5t-148.5 -101.5q16 -6 43 -19.5t49 -21t47 -7.5q14 0 24.5 3t13.5 6l4 2l4 -5q-2 -15 -6.5 -29t-7.5 -20l-3 -6q-10 -7 -36 -7q-38 0 -73.5 23.5t-69 47t-67.5 23.5z
M129 197q0 -86 36 -133t102 -47q87 0 147 78.5t60 193.5q0 86 -36 133t-103 47q-87 0 -146.5 -78.5t-59.5 -193.5z" />
    <glyph glyph-name="R.smcp" horiz-adv-x="478" 
d="M48 0l78 490h156q75 0 117 -31t42 -90q0 -54 -36.5 -92t-98.5 -52l44 -104q15 -35 30.5 -64t23.5 -41l7 -12l-4 -4h-73l-94 218h-92l-34 -218h-66zM268 460h-81l-34 -211h81q62 0 100 33t38 87q0 91 -104 91z" />
    <glyph glyph-name="Racute.smcp" horiz-adv-x="478" 
d="M48 0l78 490h156q75 0 117 -31t42 -90q0 -54 -36.5 -92t-98.5 -52l44 -104q15 -35 30.5 -64t23.5 -41l7 -12l-4 -4h-73l-94 218h-92l-34 -218h-66zM268 460h-81l-34 -211h81q62 0 100 33t38 87q0 91 -104 91zM245 548l-5 7l105 142q17 0 30.5 -2.5t18.5 -4.5l5 -3l-1 -7
l-129 -132h-24z" />
    <glyph glyph-name="Rcaron.smcp" horiz-adv-x="478" 
d="M48 0l78 490h156q75 0 117 -31t42 -90q0 -54 -36.5 -92t-98.5 -52l44 -104q15 -35 30.5 -64t23.5 -41l7 -12l-4 -4h-73l-94 218h-92l-34 -218h-66zM268 460h-81l-34 -211h81q62 0 100 33t38 87q0 91 -104 91zM424 694l5 -6l-135 -143h-20l-90 143l7 6h28l74 -98l104 98
h27z" />
    <glyph glyph-name="Rcommaaccent.smcp" horiz-adv-x="478" 
d="M48 0l78 490h156q75 0 117 -31t42 -90q0 -54 -36.5 -92t-98.5 -52l44 -104q15 -35 30.5 -64t23.5 -41l7 -12l-4 -4h-73l-94 218h-92l-34 -218h-66zM268 460h-81l-34 -211h81q62 0 100 33t38 87q0 91 -104 91zM147 -215l-9 12q7 6 17 18t26.5 49t16.5 74l-1 20l4 5
q13 0 24.5 -2t16.5 -4l5 -2q1 -4 1 -14q0 -27 -10.5 -53t-25 -43.5t-29.5 -31.5t-25 -21z" />
    <glyph glyph-name="S.smcp" horiz-adv-x="458" 
d="M261 469q-52 0 -79 -24t-27 -60q0 -28 21 -48t90 -65q77 -50 100 -74.5t23 -63.5q0 -62 -49 -101t-143 -39q-55 0 -95.5 13.5t-53.5 26.5l-13 14q3 17 13 31.5t18 20.5l9 6h8q1 -3 4 -9t14 -20.5t24 -26t35 -20.5t47 -9q51 0 84.5 25t33.5 64q0 17 -6.5 30.5t-25 28.5
t-32.5 24t-49 30q-69 40 -93.5 66.5t-24.5 70.5q0 62 47 99t134 37q47 0 82.5 -11t47.5 -22l12 -11q-2 -17 -11.5 -32t-17.5 -22l-9 -6h-8q-1 3 -3 8.5t-10.5 18.5t-20 23t-32 18.5t-44.5 8.5z" />
    <glyph glyph-name="Sacute.smcp" horiz-adv-x="458" 
d="M261 469q-52 0 -79 -24t-27 -60q0 -28 21 -48t90 -65q77 -50 100 -74.5t23 -63.5q0 -62 -49 -101t-143 -39q-55 0 -95.5 13.5t-53.5 26.5l-13 14q3 17 13 31.5t18 20.5l9 6h8q1 -3 4 -9t14 -20.5t24 -26t35 -20.5t47 -9q51 0 84.5 25t33.5 64q0 17 -6.5 30.5t-25 28.5
t-32.5 24t-49 30q-69 40 -93.5 66.5t-24.5 70.5q0 62 47 99t134 37q47 0 82.5 -11t47.5 -22l12 -11q-2 -17 -11.5 -32t-17.5 -22l-9 -6h-8q-1 3 -3 8.5t-10.5 18.5t-20 23t-32 18.5t-44.5 8.5zM238 548l-5 7l104 142q17 0 31 -2.5t19 -4.5l5 -3l-1 -7l-129 -132h-24z" />
    <glyph glyph-name="Scaron.smcp" horiz-adv-x="458" 
d="M261 469q-52 0 -79 -24t-27 -60q0 -28 21 -48t90 -65q77 -50 100 -74.5t23 -63.5q0 -62 -49 -101t-143 -39q-55 0 -95.5 13.5t-53.5 26.5l-13 14q3 17 13 31.5t18 20.5l9 6h8q1 -3 4 -9t14 -20.5t24 -26t35 -20.5t47 -9q51 0 84.5 25t33.5 64q0 17 -6.5 30.5t-25 28.5
t-32.5 24t-49 30q-69 40 -93.5 66.5t-24.5 70.5q0 62 47 99t134 37q47 0 82.5 -11t47.5 -22l12 -11q-2 -17 -11.5 -32t-17.5 -22l-9 -6h-8q-1 3 -3 8.5t-10.5 18.5t-20 23t-32 18.5t-44.5 8.5zM417 694l5 -6l-135 -143h-21l-89 143l7 6h27l74 -98l104 98h28z" />
    <glyph glyph-name="Scedilla.smcp" horiz-adv-x="458" 
d="M170 -69l19 63q-52 1 -90.5 14.5t-50.5 26.5l-13 13q3 17 13 31.5t18 20.5l9 6h8q1 -3 4 -9t14 -20.5t24 -26t35 -20.5t47 -9q51 0 84.5 25t33.5 64q0 17 -6.5 30.5t-25 28.5t-32.5 24t-49 30q-69 40 -93.5 66.5t-24.5 70.5q0 62 47 99t134 37q47 0 82.5 -11t47.5 -22
l12 -11q-2 -17 -11.5 -32t-17.5 -22l-9 -6h-8q-1 3 -3 8.5t-10.5 18.5t-20 23t-32 18.5t-44.5 8.5q-52 0 -79 -24t-27 -60q0 -28 21 -48t90 -65q77 -50 100 -74.5t23 -63.5q0 -59 -43.5 -97t-127.5 -42l-14 -46q23 0 37.5 -14.5t14.5 -39.5q0 -31 -22.5 -50.5t-56.5 -19.5
q-21 0 -36.5 8.5t-20.5 17.5l-4 9l15 13q12 -19 42 -19q20 0 32 10.5t12 28.5q0 31 -43 31z" />
    <glyph glyph-name="Scircumflex.smcp" horiz-adv-x="458" 
d="M261 469q-52 0 -79 -24t-27 -60q0 -28 21 -48t90 -65q77 -50 100 -74.5t23 -63.5q0 -62 -49 -101t-143 -39q-55 0 -95.5 13.5t-53.5 26.5l-13 14q3 17 13 31.5t18 20.5l9 6h8q1 -3 4 -9t14 -20.5t24 -26t35 -20.5t47 -9q51 0 84.5 25t33.5 64q0 17 -6.5 30.5t-25 28.5
t-32.5 24t-49 30q-69 40 -93.5 66.5t-24.5 70.5q0 62 47 99t134 37q47 0 82.5 -11t47.5 -22l12 -11q-2 -17 -11.5 -32t-17.5 -22l-9 -6h-8q-1 3 -3 8.5t-10.5 18.5t-20 23t-32 18.5t-44.5 8.5zM409 569l-8 -7h-27l-73 99l-105 -99h-27l-5 7l135 142h19z" />
    </font>
</defs>
</svg>
