<?xml version="1.0" standalone="no"?>
<!DOCTYPE svg PUBLIC "-//W3C//DTD SVG 1.1//EN" "http://www.w3.org/Graphics/SVG/1.1/DTD/svg11.dtd" >
<svg xmlns="http://www.w3.org/2000/svg" xmlns:xlink="http://www.w3.org/1999/xlink" version="1.1">
<metadata>
Created by FontForge 20170731 at Sat Dec 31 14:07:08 2016
 By Aleksey,,,
Copyright (c) 2017 by Andriy Konstantynov. All rights reserved.
</metadata>
<defs>
<font id="OrchideaPro-ExtraLight" horiz-adv-x="598" >
  <font-face 
    font-family="Orchidea Pro ExLt"
    font-weight="250"
    font-stretch="normal"
    units-per-em="1000"
    panose-1="2 11 0 3 6 2 0 0 0 3"
    ascent="800"
    descent="-200"
    x-height="472"
    cap-height="700"
    bbox="-59 -257 1204 944"
    underline-thickness="50"
    underline-position="-250"
    unicode-range="U+0020-FB04"
  />
<missing-glyph horiz-adv-x="244" 
 />
    <glyph glyph-name="ff" unicode="ff" horiz-adv-x="631" 
d="M173 443v-443h-53v443h-95v17l95 13v157q0 63 29 95t82 32q31 0 57.5 -11t37.5 -22l10 -11l-13 -13q-28 26 -75 26q-75 0 -75 -93v-161h234v156q0 64 29.5 96.5t82.5 32.5q32 0 58.5 -11t36.5 -22l11 -11l-13 -13q-28 26 -75 26q-76 0 -76 -95v-159h157v-29h-157v-443
h-54v443h-234z" />
    <glyph glyph-name="fi" unicode="fi" horiz-adv-x="558" 
d="M173 594v-122h220q14 0 27 2t19 4l6 1l6 -7v-472h-53v300q0 76 -8 143h-217v-443h-53v443h-95v17l95 13v116q0 76 47.5 121.5t131.5 45.5q72 0 112.5 -35t40.5 -94q0 -12 -2 -22.5t-4 -14.5l-1 -5q-14 -6 -42 -6l-7 6q5 18 5 41q0 49 -28 76t-78 27q-58 0 -90 -37
t-32 -98z" />
    <glyph glyph-name="fl" unicode="fl" horiz-adv-x="567" 
d="M407 0v450q0 166 -10 253q-36 23 -99 23q-125 0 -125 -127v-127h127v-29h-127v-443h-53v443h-95v17l95 13v123q0 161 165 161q35 0 64 -6.5t41 -13.5l12 -7q14 0 27 2t19 4l6 1l7 -7v-730h-54z" />
    <glyph glyph-name="ffi" unicode="ffi" horiz-adv-x="845" 
d="M686 0v300q0 89 -9 143h-216v-443h-54v443h-234v-443h-53v443h-95v17l95 13v157q0 63 29 95t82 32q31 0 57.5 -11t37.5 -22l10 -11l-13 -13q-28 26 -75 26q-75 0 -75 -93v-161h234v117q0 76 47.5 121.5t131.5 45.5q72 0 112.5 -35t40.5 -94q0 -12 -1.5 -22.5t-3.5 -14.5
l-2 -5q-14 -6 -42 -6l-7 6q5 18 5 41q0 49 -27.5 76t-78.5 27q-58 0 -89.5 -36.5t-31.5 -98.5v-122h219q14 0 27 2t19 4l6 1l7 -7v-472h-53z" />
    <glyph glyph-name="ffl" unicode="ffl" horiz-adv-x="854" 
d="M173 443v-443h-53v443h-95v17l95 13v157q0 63 29 95t82 32q31 0 57.5 -11t37.5 -22l10 -11l-13 -13q-28 26 -75 26q-75 0 -75 -93v-161h234v124q0 161 165 161q35 0 64 -6.5t41 -13.5l12 -7q14 0 27 2t19 4l6 1l7 -7v-730h-53v450q0 157 -11 253q-36 23 -99 23
q-61 0 -92.5 -30t-31.5 -97v-127h127v-29h-127v-443h-54v443h-234z" />
    <glyph glyph-name="f_f_j" unicode="ffj" horiz-adv-x="845" 
d="M686 -36v336q0 89 -9 143h-216v-443h-54v443h-234v-443h-53v443h-95v17l95 13v157q0 63 29 95t82 32q31 0 57.5 -11t37.5 -22l10 -11l-13 -13q-28 26 -75 26q-75 0 -75 -93v-161h234v117q0 76 47.5 121.5t131.5 45.5q72 0 112.5 -35t40.5 -94q0 -12 -1.5 -22.5
t-3.5 -14.5l-2 -5q-14 -6 -42 -6l-7 6q5 18 5 41q0 49 -27.5 76t-78.5 27q-58 0 -89.5 -36.5t-31.5 -98.5v-122h219q14 0 27 2t19 4l6 1l7 -7v-495q0 -46 -15 -87t-36.5 -67t-43 -45t-36.5 -27l-15 -8l-14 13q4 3 11.5 8.5t26 25t32.5 41.5t25.5 58t11.5 75z" />
    <glyph glyph-name="f_j" unicode="fj" horiz-adv-x="558" 
d="M398 -36v336q0 76 -8 143h-217v-443h-53v443h-95v17l95 13v116q0 76 47.5 121.5t131.5 45.5q72 0 112.5 -35t40.5 -94q0 -12 -2 -22.5t-4 -14.5l-1 -5q-14 -6 -42 -6l-7 6q5 18 5 41q0 49 -28 76t-78 27q-58 0 -90 -37t-32 -98v-122h220q14 0 27 2t19 4l6 1l6 -7v-495
q0 -46 -15 -87t-36.5 -67t-43 -45t-36.5 -27l-15 -8l-13 13q4 3 11.5 8.5t25.5 25t32 41.5t25.5 58t11.5 75z" />
    <glyph glyph-name="afii10104_afii10104" unicode="&#x457;&#x457;" horiz-adv-x="533" 
d="M107 0v300q0 52 -3 93.5t-6 56.5l-3 15l7 7q14 0 26.5 2t18.5 4l6 1l7 -7v-472h-53zM18 605q0 14 9 22.5t23 8.5t22.5 -8.5t8.5 -22.5t-8.5 -22.5t-22.5 -8.5t-23 8.5t-9 22.5zM235 605q0 14 9 22.5t23 8.5q31 0 31 -31t-31 -31q-14 0 -23 8.5t-9 22.5zM374 0v300
q0 52 -3 93.5t-7 56.5l-3 15l7 7q14 0 27 2t19 4l6 1l7 -7v-472h-53zM452 605q0 14 9 22.5t23 8.5q31 0 31 -31t-31 -31q-14 0 -23 8.5t-9 22.5z" />
    <glyph glyph-name=".notdef" horiz-adv-x="244" 
 />
    <glyph glyph-name=".null" horiz-adv-x="0" 
 />
    <glyph glyph-name="nonmarkingreturn" horiz-adv-x="333" 
 />
    <glyph glyph-name="space" unicode=" " horiz-adv-x="244" 
 />
    <glyph glyph-name="exclam" unicode="!" horiz-adv-x="261" 
d="M95 28q0 16 10 25.5t26 9.5t25.5 -9.5t9.5 -25.5t-9.5 -25.5t-25.5 -9.5t-26 9.5t-10 25.5zM110 191l-8 509h57l-7 -509h-42z" />
    <glyph glyph-name="quotedbl" unicode="&#x22;" horiz-adv-x="332" 
d="M92 523l-6 177h42l-6 -183h-24zM210 523l-6 177h42l-7 -183h-23z" />
    <glyph glyph-name="numbersign" unicode="#" horiz-adv-x="619" 
d="M66 473v31h120l21 196h31l-21 -196h215l21 196h32l-21 -196h117v-31h-120l-26 -246h118v-31h-121l-20 -196h-32l20 196h-215l-20 -196h-31l20 196h-117v31h120l26 246h-117zM214 473l-26 -246h215l26 246h-215z" />
    <glyph glyph-name="dollar" unicode="$" horiz-adv-x="649" 
d="M314 678q-82 0 -122 -33.5t-40 -92.5q0 -52 37 -82.5t160 -93.5q41 -22 58.5 -31t46.5 -26t40 -26.5t27.5 -25t22 -28.5t10.5 -30.5t5 -38.5q0 -79 -55 -125t-162 -50v-95h-31v94q-45 1 -84 9t-63 18.5t-41.5 21t-24.5 17.5l-8 8q0 16 7 30t13 20l7 7h9q3 -4 8 -11
t23.5 -25t40 -31.5t57 -24.5t73.5 -11q80 0 130 35.5t50 96.5q0 30 -12.5 54t-39.5 44t-54.5 35t-71.5 37q-13 6 -19 9q-119 57 -163.5 97t-44.5 110q0 78 53 121t155 45v94h31v-95q57 -2 103 -17.5t63 -29.5l18 -14q0 -16 -6.5 -30.5t-13.5 -21.5l-6 -6h-9q-2 4 -5.5 10
t-18.5 22t-33 28t-50.5 22t-69.5 10z" />
    <glyph glyph-name="percent" unicode="%" horiz-adv-x="864" 
d="M234 0h-36l432 700h36zM44 515q0 85 46 138t119 53q74 0 120 -53t46 -138t-46 -138t-120 -53q-73 0 -119 53t-46 138zM88 515q0 -74 33.5 -118.5t87.5 -44.5t88 44.5t34 118.5t-34 118.5t-88 44.5t-87.5 -44.5t-33.5 -118.5zM489 185q0 85 45.5 138t119.5 53t119.5 -53
t45.5 -138t-45.5 -138t-119.5 -53t-119.5 53t-45.5 138zM533 185q0 -74 33.5 -118.5t87.5 -44.5t87.5 44.5t33.5 118.5t-33.5 118.5t-87.5 44.5t-87.5 -44.5t-33.5 -118.5z" />
    <glyph glyph-name="ampersand" unicode="&#x26;" horiz-adv-x="835" 
d="M598 390h47l6 -7q0 -176 -110 -289q85 -65 134 -65q22 0 50 13.5t45 26.5l17 13l13 -13q-8 -8 -21 -20.5t-48.5 -33.5t-64.5 -21q-58 0 -156 72q-89 -72 -215 -72q-107 0 -168.5 53t-61.5 137q0 43 16 81t42.5 64t47 41t41.5 25q-55 94 -55 154q0 61 51 109t136 48
q74 0 121.5 -37.5t47.5 -98.5q0 -12 -1.5 -23t-3.5 -16l-2 -5q-16 -7 -46 -7l-7 7q8 20 8 45q0 49 -35 78t-85 29q-57 0 -92 -38t-35 -83q0 -76 95.5 -212t207.5 -231q81 99 81 276zM487 83q-72 57 -143 135t-119 154q-23 -14 -43.5 -32.5t-41.5 -58t-21 -84.5
q0 -78 54.5 -125t145.5 -47q101 0 168 58z" />
    <glyph glyph-name="quotesingle" unicode="'" horiz-adv-x="214" 
d="M92 523l-6 177h42l-6 -183h-24z" />
    <glyph glyph-name="parenleft" unicode="(" horiz-adv-x="309" 
d="M267 -138l-18 -18q-7 5 -19 16t-42 51t-53 87.5t-42 129t-19 172.5q0 92 18 172.5t43.5 130t51.5 86.5t44 52l18 15l18 -18q-6 -6 -15.5 -16.5t-33.5 -50.5t-42.5 -86.5t-33.5 -123t-15 -161.5t14.5 -161t35 -124.5t41 -84.5t34.5 -52z" />
    <glyph glyph-name="parenright" unicode=")" horiz-adv-x="309" 
d="M61 -156l-18 18q6 6 15 16.5t33 50.5t42.5 86.5t33.5 123t15 161.5t-14.5 161t-35 124.5t-40.5 84.5t-34 52l-15 16l18 18q7 -5 19 -16t42 -50.5t52.5 -87.5t41.5 -129t19 -173q0 -91 -18 -171.5t-43.5 -130.5t-51 -86.5t-43.5 -51.5z" />
    <glyph glyph-name="asterisk" unicode="*" horiz-adv-x="423" 
d="M198 549l-6 151h40l-6 -151l142 53l12 -39l-146 -41l94 -119l-32 -23l-84 126l-85 -126l-32 23l94 119l-145 41l12 39z" />
    <glyph glyph-name="plus" unicode="+" 
d="M107 309v32h177v176h31v-176h176v-32h-176v-176h-31v176h-177z" />
    <glyph glyph-name="comma" unicode="," horiz-adv-x="194" 
d="M40 -154l-13 14q6 8 14.5 21.5t23 53t14.5 75.5q0 13 -1.5 24.5t-3.5 16.5l-2 5l5 5q15 0 27.5 -2.5t17.5 -4.5l5 -2q4 -10 4 -31q0 -28 -9.5 -56.5t-22.5 -48.5t-26.5 -36.5t-22.5 -25.5z" />
    <glyph glyph-name="hyphen" unicode="-" horiz-adv-x="361" 
d="M74 260v31h213v-31h-213z" />
    <glyph glyph-name="period" unicode="." horiz-adv-x="194" 
d="M62 28q0 16 9.5 25.5t25.5 9.5t25.5 -9.5t9.5 -25.5t-9.5 -25.5t-25.5 -9.5t-25.5 9.5t-9.5 25.5z" />
    <glyph glyph-name="slash" unicode="/" horiz-adv-x="410" 
d="M58 -150h-33l326 900h33z" />
    <glyph glyph-name="zero" unicode="0" horiz-adv-x="670" 
d="M75 350q0 159 72 257.5t187 98.5q116 0 188 -98.5t72 -257.5t-72 -257.5t-188 -98.5q-115 0 -187 98.5t-72 257.5zM132 350q0 -149 56 -238.5t146 -89.5q91 0 147 89.5t56 238.5t-56 238.5t-147 89.5q-90 0 -146 -89.5t-56 -238.5z" />
    <glyph glyph-name="one" unicode="1" horiz-adv-x="439" 
d="M254 0v643q-11 -8 -29.5 -20.5t-69 -33.5t-92.5 -21q-4 8 -4 26l5 6q45 0 100 25t87 50l32 25h24v-700h-53z" />
    <glyph glyph-name="two" unicode="2" horiz-adv-x="602" 
d="M535 521q0 -67 -41 -140.5t-100 -131t-117.5 -105t-99.5 -73.5l-41 -26h237q52 0 93.5 3.5t56.5 6.5l15 3l7 -7v-51h-477v30q9 6 23.5 15.5t57 41.5t81.5 65t86 80.5t81 93t57.5 99t23.5 100.5q0 69 -45.5 111t-129.5 42q-80 0 -127 -39.5t-47 -113.5q0 -16 2 -29.5
t4 -19.5l2 -5l-7 -7q-13 0 -24.5 2t-16.5 4l-5 1q-9 16 -9 52q0 84 60 133.5t168 49.5q111 0 171.5 -51.5t60.5 -133.5z" />
    <glyph glyph-name="three" unicode="3" horiz-adv-x="646" 
d="M316 22q92 0 143 43t51 122q0 74 -43 115.5t-122 41.5h-71l-6 5v27h54q78 0 117 39t39 111q0 73 -42 112.5t-125 39.5q-79 0 -127 -36.5t-48 -103.5q0 -14 2 -26.5t4 -17.5l3 -5l-7 -6q-13 0 -24.5 1.5t-16.5 3.5l-5 1q-9 15 -9 48q0 77 60.5 123t169.5 46t165 -47
t56 -133q0 -131 -123 -164q76 -12 116 -58.5t40 -116.5q0 -92 -65.5 -142.5t-183.5 -50.5q-117 0 -179.5 48t-62.5 130q0 15 2 27t4 17l3 4q16 7 46 7l7 -7q-9 -17 -9 -50q0 -70 49.5 -109t137.5 -39z" />
    <glyph glyph-name="four" unicode="4" horiz-adv-x="618" 
d="M39 160v15l392 525h27v-509h108v-31h-108v-160h-53v160h-366zM90 191h315v420z" />
    <glyph glyph-name="five" unicode="5" horiz-adv-x="621" 
d="M301 22q90 0 138.5 49t48.5 143q0 93 -49 136t-146 43q-48 0 -93 -9.5t-66 -18.5l-20 -9l-10 11l39 329h181q53 0 94 3t56 7l15 3l7 -7v-51h-325l-31 -261q76 38 170 38q120 0 177.5 -57.5t57.5 -156.5q0 -106 -63 -163t-179 -57q-110 0 -170.5 48t-60.5 128q0 15 2 27
t4 17l3 4q16 7 46 7l7 -7q-9 -17 -9 -50q0 -69 47 -107.5t129 -38.5z" />
    <glyph glyph-name="six" unicode="6" horiz-adv-x="649" 
d="M132 353v-29q68 90 206 90q108 0 171.5 -56.5t63.5 -152.5q0 -97 -64 -154t-168 -57q-131 0 -198.5 93t-67.5 265q0 164 64 259t201 95q90 0 150.5 -41t60.5 -112q0 -13 -2.5 -24.5t-4.5 -16.5l-2 -4q-16 -7 -46 -7l-7 7q9 17 9 46q0 61 -46.5 92.5t-113.5 31.5
q-206 0 -206 -325zM329 386q-124 0 -194 -107q21 -257 204 -257q80 0 128.5 49t48.5 133q0 85 -50.5 133.5t-136.5 48.5z" />
    <glyph glyph-name="seven" unicode="7" horiz-adv-x="573" 
d="M259 0h-53q0 72 15 146.5t38.5 137t52 121.5t57.5 103t52.5 78t38.5 52l15 17h-250q-52 0 -93.5 -3.5t-56.5 -6.5l-15 -3l-6 7v51h466v-28q-11 -13 -28.5 -37t-62.5 -98.5t-79.5 -150t-62.5 -182t-28 -204.5z" />
    <glyph glyph-name="eight" unicode="8" horiz-adv-x="636" 
d="M536 539q0 -36 -15 -68.5t-39 -55.5t-45.5 -37.5t-44.5 -25.5q80 -35 124.5 -75.5t44.5 -104.5q0 -77 -64.5 -127.5t-180.5 -50.5q-115 0 -178.5 50t-63.5 131q0 129 165 190q-67 31 -105 71t-38 101q0 76 58.5 122.5t159.5 46.5t161.5 -46t60.5 -121zM509 165
q0 21 -6 39t-22 34t-28 26.5t-40 24.5t-41.5 20t-49.5 20.5t-47 19.5q-23 -9 -44.5 -21t-47.5 -32.5t-42 -51.5t-16 -67q0 -67 52.5 -111t139.5 -44q86 0 139 41t53 102zM312 678q-75 0 -119.5 -36t-44.5 -94q0 -28 12 -51.5t28.5 -40t47 -33.5t53 -27t60.5 -26q7 -3 10 -4
q19 10 37 23.5t40.5 35t36 51.5t13.5 62q0 62 -48 101t-126 39z" />
    <glyph glyph-name="nine" unicode="9" horiz-adv-x="635" 
d="M293 22q112 0 160.5 85t48.5 248v5q-67 -67 -192 -67q-107 0 -170.5 53.5t-63.5 150.5t62 153t167 56q254 0 254 -349q0 -363 -268 -363q-92 0 -153.5 40t-61.5 111q0 12 2 22.5t4 15.5l2 5q17 7 46 7l7 -7q-7 -17 -7 -44q0 -58 46 -90t117 -32zM320 321q107 0 181 77
q-6 143 -54 211.5t-141 68.5q-81 0 -127.5 -47t-46.5 -131q0 -86 51 -132.5t137 -46.5z" />
    <glyph glyph-name="colon" unicode=":" horiz-adv-x="194" 
d="M62 28q0 16 9.5 25.5t25.5 9.5t25.5 -9.5t9.5 -25.5t-9.5 -25.5t-25.5 -9.5t-25.5 9.5t-9.5 25.5zM62 443q0 16 9.5 25.5t25.5 9.5t25.5 -9.5t9.5 -25.5t-9.5 -25.5t-25.5 -9.5t-25.5 9.5t-9.5 25.5z" />
    <glyph glyph-name="semicolon" unicode=";" horiz-adv-x="194" 
d="M62 441q0 16 9.5 25.5t25.5 9.5t25.5 -9.5t9.5 -25.5t-9.5 -25.5t-25.5 -9.5t-25.5 9.5t-9.5 25.5zM40 -154l-13 14q6 8 14.5 21.5t23 53t14.5 75.5q0 13 -1.5 24.5t-3.5 16.5l-2 5l5 5q15 0 27.5 -2.5t17.5 -4.5l5 -2q4 -10 4 -31q0 -28 -9.5 -56.5t-22.5 -48.5
t-26.5 -36.5t-22.5 -25.5z" />
    <glyph glyph-name="less" unicode="&#x3c;" 
d="M491 509v-34l-361 -150l361 -150v-34l-404 167v34z" />
    <glyph glyph-name="equal" unicode="=" 
d="M107 408v31h384v-31h-384zM107 211v31h384v-31h-384z" />
    <glyph glyph-name="greater" unicode="&#x3e;" 
d="M107 475v34l404 -167v-34l-404 -167v34l361 150z" />
    <glyph glyph-name="question" unicode="?" horiz-adv-x="561" 
d="M243 28q0 16 9.5 25.5t25.5 9.5t26 -9.5t10 -25.5t-10 -25.5t-26 -9.5t-25.5 9.5t-9.5 25.5zM500 526q0 -46 -20.5 -86t-50 -64.5t-58.5 -42.5t-49 -25l-21 -8l-1 -109h-43l-2 137q8 2 20.5 6t45 20.5t57.5 37t45.5 57.5t20.5 80q0 65 -43.5 107t-123.5 42
q-74 0 -118.5 -37.5t-44.5 -106.5q0 -16 2 -29t4 -18l3 -5l-7 -7q-13 0 -24.5 1.5t-16.5 3.5l-5 2q-9 15 -9 50q0 79 57 126.5t160 47.5q107 0 164.5 -51t57.5 -129z" />
    <glyph glyph-name="at" unicode="@" horiz-adv-x="1134" 
d="M1059 326q0 -137 -68.5 -234.5t-187.5 -97.5q-69 0 -97.5 38t-13.5 124l12 71l-3 3q-5 -10 -13 -25.5t-34.5 -56.5t-54 -72t-67 -56.5t-77.5 -25.5q-52 0 -79.5 44t-27.5 118q0 139 85.5 230.5t216.5 91.5q31 0 55.5 -5.5t38 -13t23 -15.5t12.5 -14l3 -5l-41 -258
q-12 -76 8 -109t71 -33q65 0 110.5 48t64 113.5t18.5 138.5q0 162 -98 256t-266 94q-149 0 -271 -75t-189.5 -198.5t-67.5 -267.5q0 -171 98.5 -264t277.5 -93q61 0 120.5 11t101 26.5t75 31.5t49.5 27l16 11l11 -16q-6 -5 -17 -13.5t-49 -30t-79.5 -37.5t-106 -29.5
t-130.5 -13.5q-194 0 -303.5 105t-109.5 285q0 150 73.5 280.5t207.5 211t298 80.5q188 0 296.5 -104t108.5 -276zM404 156q0 -125 72 -125q27 0 55.5 18t55 51t46 60.5t40 67.5t25 49t12.5 26v1l17 107q-2 4 -7 10.5t-27.5 17.5t-54.5 11q-95 0 -164.5 -85.5t-69.5 -208.5z
" />
    <glyph glyph-name="A" unicode="A" horiz-adv-x="729" 
d="M164 215l-93 -215h-37l298 682l-6 11v7h61l308 -700h-58l-94 215h-379zM406 528q-34 78 -55 116l-173 -398h351z" />
    <glyph glyph-name="B" unicode="B" horiz-adv-x="691" 
d="M116 0v700h243q107 0 163.5 -46t56.5 -127q0 -128 -130 -163q81 -14 124.5 -60.5t43.5 -119.5q0 -87 -61.5 -135.5t-172.5 -48.5h-267zM560 188q0 75 -49 116t-137 41h-203v-314h203q88 0 137 41t49 116zM523 523q0 69 -44.5 107.5t-127.5 38.5h-180v-293h180
q83 0 127.5 39t44.5 108z" />
    <glyph glyph-name="C" unicode="C" horiz-adv-x="758" 
d="M424 678q-134 0 -211.5 -88t-77.5 -236q0 -149 79.5 -235.5t217.5 -86.5q41 0 80.5 8t66 20t47.5 24t30 20l10 8l14 -15q-3 -4 -10 -11t-30.5 -25t-51 -31.5t-73 -24.5t-94.5 -11q-157 0 -251.5 98.5t-94.5 258.5t94.5 257.5t255.5 97.5q119 0 187 -53.5t68 -143.5
q0 -16 -2.5 -28.5t-5.5 -16.5l-2 -5q-16 -6 -46 -6l-7 6q9 17 9 53q0 77 -54 121.5t-148 44.5z" />
    <glyph glyph-name="D" unicode="D" horiz-adv-x="789" 
d="M116 0v700h257q152 0 246.5 -97t94.5 -253t-94.5 -253t-246.5 -97h-257zM371 669h-200v-638h200q127 0 205 87t78 232t-78 232t-205 87z" />
    <glyph glyph-name="E" unicode="E" horiz-adv-x="631" 
d="M116 0v700h433v-37l-7 -6q-47 13 -165 13h-206v-299h318l6 -5v-26h-324v-310h216q52 0 93.5 3t56.5 7l15 3l7 -6v-37h-443z" />
    <glyph glyph-name="F" unicode="F" horiz-adv-x="602" 
d="M116 0v700h432v-37l-7 -6q-47 13 -165 13h-205v-299h308l6 -5v-26h-314v-340h-55z" />
    <glyph glyph-name="G" unicode="G" horiz-adv-x="774" 
d="M508 303v25h115q14 0 26.5 2t18.5 4l5 1l7 -7v-238q-3 -4 -10 -10.5t-31 -23t-51 -29t-72 -23t-94 -10.5q-158 0 -252.5 98t-94.5 259q0 160 94.5 257.5t257.5 97.5q117 0 184.5 -51t67.5 -139q0 -16 -2.5 -28.5t-4.5 -17.5l-2 -4q-17 -7 -47 -7l-6 7q8 17 8 53
q0 76 -53 117.5t-146 41.5q-135 0 -213 -87.5t-78 -235.5q0 -149 79.5 -238t215.5 -89q108 0 199 56v77q0 88 -8 136h-107z" />
    <glyph glyph-name="H" unicode="H" horiz-adv-x="803" 
d="M631 0v340h-460v-340h-55v700h55v-329h460v329h55v-700h-55z" />
    <glyph glyph-name="I" unicode="I" horiz-adv-x="287" 
d="M116 0v700h55v-700h-55z" />
    <glyph glyph-name="J" unicode="J" horiz-adv-x="532" 
d="M360 210v490h56v-488q0 -218 -198 -218q-52 0 -94 15t-58 30l-16 15q0 16 6 29.5t12 19.5l6 6h8q2 -4 5 -9.5t15 -20.5t26.5 -26.5t39 -21t52.5 -9.5q140 0 140 188z" />
    <glyph glyph-name="K" unicode="K" horiz-adv-x="663" 
d="M116 0v700h55v-319h63l301 319h44l-300 -319l156 -181q47 -53 92.5 -101.5t67.5 -70.5l22 -21v-7h-68l-313 350h-65v-350h-55z" />
    <glyph glyph-name="L" unicode="L" horiz-adv-x="582" 
d="M116 0v700h55v-670h194q53 0 94 3t56 7l15 3l7 -6v-37h-421z" />
    <glyph glyph-name="M" unicode="M" horiz-adv-x="933" 
d="M800 0l-90 635l-4 4l-226 -619h-39l-12 12l-237 603l-3 -3l-78 -632h-34l65 528q6 46 8.5 87t2.5 59v19l7 7h65l242 -612l226 612h65l99 -700h-57z" />
    <glyph glyph-name="N" unicode="N" horiz-adv-x="794" 
d="M116 0v420q0 80 -3 148t-6 96l-3 29l7 7h23l509 -605v605h35v-700h-20l-509 604v-604h-33z" />
    <glyph glyph-name="O" unicode="O" horiz-adv-x="832" 
d="M75 350q0 159 94 257.5t246 98.5q153 0 247.5 -98.5t94.5 -257.5t-94.5 -257.5t-247.5 -98.5q-152 0 -246 98.5t-94 257.5zM135 350q0 -149 77.5 -238.5t202.5 -89.5q127 0 204.5 89.5t77.5 238.5t-77.5 238.5t-204.5 89.5q-125 0 -202.5 -89.5t-77.5 -238.5z" />
    <glyph glyph-name="P" unicode="P" horiz-adv-x="644" 
d="M116 0v700h223q112 0 177.5 -53t65.5 -145t-65.5 -145t-177.5 -53h-168v-304h-55zM330 669h-159v-333h159q90 0 142.5 43.5t52.5 122.5t-52.5 123t-142.5 44z" />
    <glyph glyph-name="Q" unicode="Q" horiz-adv-x="832" 
d="M415 -12q-152 0 -246 99.5t-94 259.5t94 259.5t246 99.5q153 0 247.5 -99t94.5 -260q0 -135 -68.5 -228.5t-184.5 -120.5q25 -7 106.5 -43.5t131.5 -36.5q20 0 34 3.5t18 6.5l5 4l6 -6q0 -12 -2.5 -24t-4.5 -18l-2 -5q-14 -10 -53 -10q-43 0 -89 18.5t-79 41t-76.5 41
t-83.5 18.5zM135 347q0 -150 77.5 -240.5t202.5 -90.5q127 0 204.5 90t77.5 241t-77.5 241t-204.5 90q-125 0 -202.5 -90.5t-77.5 -240.5z" />
    <glyph glyph-name="R" unicode="R" horiz-adv-x="660" 
d="M116 0v700h210q111 0 177 -51t66 -141q0 -75 -47 -124t-130 -63l95 -149q34 -53 63.5 -94.5t41.5 -57.5l13 -15l-4 -5h-62l-204 316h-164v-316h-55zM317 669h-146v-322h146q90 0 142.5 42.5t52.5 118.5t-52.5 118.5t-142.5 42.5z" />
    <glyph glyph-name="S" unicode="S" horiz-adv-x="649" 
d="M315 678q-82 0 -122 -33.5t-40 -92.5q0 -52 37 -82.5t159 -93.5q55 -29 79.5 -42.5t56.5 -35t44 -37.5t21 -39t9 -52q0 -83 -60.5 -129.5t-177.5 -46.5q-46 0 -87 7.5t-66.5 18.5t-44 22t-25.5 18l-8 8q0 16 7 30t13 20l7 7h9q3 -4 8 -11t23.5 -25t40 -31.5t57 -24.5
t73.5 -11q80 0 130 35.5t50 96.5q0 30 -12.5 54t-39.5 44t-54.5 35t-71.5 37q-13 6 -19 9q-49 24 -76 38.5t-56.5 34t-43 38t-22.5 42.5t-9 54q0 80 56 123t162 43q64 0 115.5 -15.5t70.5 -30.5l19 -16q0 -16 -6.5 -30.5t-12.5 -21.5l-7 -6h-9q-2 4 -5.5 10t-18.5 22t-33 28
t-50.5 22t-69.5 10z" />
    <glyph glyph-name="T" unicode="T" horiz-adv-x="682" 
d="M368 670v-670h-55v670h-101q-52 0 -93.5 -3t-56.5 -7l-15 -3l-7 6v37h601v-37l-6 -6q-47 13 -165 13h-102z" />
    <glyph glyph-name="U" unicode="U" horiz-adv-x="761" 
d="M620 257v443h33v-443q0 -115 -75.5 -189t-198.5 -74q-122 0 -196.5 74t-74.5 189v443h55v-449q0 -99 62.5 -162t163.5 -63q103 0 167 64.5t64 166.5z" />
    <glyph glyph-name="V" unicode="V" horiz-adv-x="718" 
d="M335 12l-222 516q-22 52 -41.5 93.5t-27.5 56.5l-8 15v7h62l278 -644l272 644h35l-295 -700h-41z" />
    <glyph glyph-name="W" unicode="W" horiz-adv-x="1071" 
d="M728 12l-183 485l-179 -497h-40l-12 12l-205 516q-21 52 -39 93.5t-26 56.5l-8 15v7h62l255 -637l174 482q-18 47 -33.5 84t-21.5 51l-7 13v7h62l240 -635l235 635h36l-258 -700h-40z" />
    <glyph glyph-name="X" unicode="X" horiz-adv-x="682" 
d="M121 700l225 -307l230 307h42l-251 -335l121 -165q39 -52 76 -100.5t54 -70.5l18 -22v-7h-66l-242 328l-246 -328h-39l265 355l-254 345h67z" />
    <glyph glyph-name="Y" unicode="Y" horiz-adv-x="653" 
d="M616 700l-262 -386v-314h-55v313l-118 174q-38 56 -75 107.5t-54 75.5l-18 23v7h67l237 -346l238 346h40z" />
    <glyph glyph-name="Z" unicode="Z" horiz-adv-x="702" 
d="M75 19l485 651h-308q-52 0 -93.5 -3t-56.5 -7l-15 -3l-6 6v37h553v-19l-485 -651h315q53 0 94 3t56 7l15 3l7 -6v-37h-561v19z" />
    <glyph glyph-name="bracketleft" unicode="[" horiz-adv-x="339" 
d="M114 -150v900h182v-31h-128v-838h128v-31h-182z" />
    <glyph glyph-name="backslash" unicode="\" horiz-adv-x="410" 
d="M384 -150h-33l-326 900h33z" />
    <glyph glyph-name="bracketright" unicode="]" horiz-adv-x="339" 
d="M225 750v-900h-182v31h128v838h-128v31h182z" />
    <glyph glyph-name="asciicircum" unicode="^" horiz-adv-x="442" 
d="M397 524l-6 -6h-33l-137 137l-137 -137h-33l-6 6l167 176h18z" />
    <glyph glyph-name="underscore" unicode="_" horiz-adv-x="500" 
d="M0 -81v31h500v-31h-500z" />
    <glyph glyph-name="grave" unicode="`" horiz-adv-x="256" 
d="M198 572l-6 -6h-22l-112 129v6q14 8 45 8z" />
    <glyph glyph-name="a" unicode="a" horiz-adv-x="560" 
d="M276 478q164 0 164 -136v-269q0 -47 41 -47q8 0 16 2t11 4l4 3l13 -13q-21 -28 -68 -28q-63 0 -70 62q-12 -10 -30.5 -21.5t-61 -26t-85.5 -14.5q-67 0 -101 32t-34 90q0 54 37 83t133 41l142 17v92q0 102 -112 102q-61 0 -96.5 -29t-35.5 -78l5 -38l-7 -7
q-12 0 -22.5 1.5t-14.5 3.5l-4 2q-7 15 -7 39q0 60 47.5 96.5t135.5 36.5zM130 120q0 -91 103 -91q39 0 77.5 13.5t57.5 27.5l19 14v145l-136 -16q-67 -8 -94 -30t-27 -63z" />
    <glyph glyph-name="b" unicode="b" horiz-adv-x="615" 
d="M94 743l7 7q14 0 27 2t19 4l6 1l6 -7v-276l-3 -55l3 -3q7 7 20.5 17.5t57.5 27.5t92 17q98 0 159.5 -65t61.5 -177q0 -113 -65 -177.5t-188 -64.5q-56 0 -103.5 13t-67.5 27l-20 13v403q0 84 -3 157.5t-6 104.5zM492 231q0 99 -51 155t-132 56q-40 0 -77.5 -13.5
t-55.5 -26.5l-17 -14v-328q57 -39 142 -39q89 0 140 56t51 154z" />
    <glyph glyph-name="c" unicode="c" horiz-adv-x="552" 
d="M481 87l14 -14q-2 -3 -6.5 -8.5t-21 -19t-36.5 -24t-53.5 -19t-71.5 -8.5q-111 0 -176 66t-65 176t65 176t182 66q84 0 130.5 -35t46.5 -96q0 -11 -1.5 -21t-3.5 -14l-1 -5q-14 -7 -41 -7l-7 7q6 18 6 41q0 49 -34.5 76t-96.5 27q-89 0 -138 -57t-49 -152
q0 -100 52 -156.5t145 -56.5q48 0 88 14.5t56 28.5z" />
    <glyph glyph-name="d" unicode="d" horiz-adv-x="616" 
d="M443 743l7 7q14 0 27 2t19 4l6 1l7 -7v-447q0 -84 3 -158t6 -106l3 -32l-7 -7q-14 0 -27 -2t-19 -4l-6 -1l-6 7l3 52l-3 4q-7 -7 -20 -17.5t-56.5 -27.5t-91.5 -17q-98 0 -160.5 64t-62.5 174q0 112 64 179t174 67q100 0 153 -53v25q0 84 -3 157.5t-7 104.5zM123 239
q0 -99 51.5 -154t133.5 -55q40 0 77 13.5t54 26.5l17 14v266q-2 44 -45 72t-104 28q-84 0 -134 -57t-50 -154z" />
    <glyph glyph-name="e" unicode="e" horiz-adv-x="568" 
d="M483 87l13 -14q-2 -3 -6.5 -8.5t-21 -19t-36.5 -24t-53.5 -19t-71.5 -8.5q-112 0 -177 66t-65 176q0 111 66.5 176.5t182.5 65.5q88 0 136.5 -40.5t48.5 -114.5q0 -18 -2.5 -36t-5.5 -27l-3 -8l-7 -7h-358v-3q0 -100 52 -156.5t146 -56.5q48 0 88.5 14.5t56.5 28.5z
M313 451q-84 0 -133 -48.5t-56 -133.5l320 7q6 28 6 51q0 60 -35 92t-102 32z" />
    <glyph glyph-name="f" unicode="f" horiz-adv-x="344" 
d="M25 443v17l95 13v155q0 64 29.5 96.5t82.5 32.5q32 0 58.5 -11t37.5 -22l10 -11l-14 -13q-28 26 -75 26q-76 0 -76 -95v-159h158v-29h-158v-443h-53v443h-95z" />
    <glyph glyph-name="g" unicode="g" horiz-adv-x="566" 
d="M107 -21l6 -7q-19 -31 -19 -76q0 -60 46 -91.5t129 -31.5q91 0 148.5 36t57.5 92q0 23 -10.5 39t-25 25t-41.5 14.5t-47 7.5t-54 4q-43 3 -63.5 4.5t-50.5 5.5t-44 10.5t-29 16.5t-20.5 26t-5.5 37q0 68 53 110q-55 46 -55 117t54.5 115.5t141.5 44.5q64 0 112 -25
q71 54 144 54q7 -19 7 -52l-7 -7q-13 9 -40 9q-36 0 -76 -21q57 -44 57 -118q0 -72 -54.5 -116.5t-142.5 -44.5q-69 0 -117 28q-36 -31 -36 -76q0 -16 4.5 -27t17 -18.5t24 -12t35.5 -7.5t41.5 -4t51.5 -3q44 -2 70.5 -4.5t58.5 -10t49.5 -19.5t29.5 -33t12 -51
q0 -79 -72 -127t-189 -48q-100 0 -156.5 38.5t-56.5 111.5q0 23 5 42.5t10 27.5l5 8q14 7 42 7zM136 318q0 -60 39.5 -96.5t102.5 -36.5q64 0 104 36.5t40 96.5t-40 96.5t-104 36.5q-63 0 -102.5 -36.5t-39.5 -96.5z" />
    <glyph glyph-name="h" unicode="h" horiz-adv-x="626" 
d="M106 0v426q0 84 -3 163.5t-6 116.5l-3 37l7 7q14 0 27 2t19 4l6 1l6 -7v-277l-3 -55l3 -3q10 7 27.5 17.5t74 28t113.5 17.5q78 0 112 -34t34 -105v-339h-53v335q0 57 -27 82t-89 25q-48 0 -96 -13.5t-72 -26.5l-24 -14v-388h-53z" />
    <glyph glyph-name="i" unicode="i" horiz-adv-x="266" 
d="M107 0v300q0 52 -3 93.5t-6 56.5l-3 15l7 7q14 0 26.5 2t18.5 4l6 1l7 -7v-472h-53zM94 631q0 17 10 27.5t27 10.5t27.5 -10.5t10.5 -27.5t-10.5 -27.5t-27.5 -10.5t-27 10.5t-10 27.5z" />
    <glyph glyph-name="j" unicode="j" horiz-adv-x="266" 
d="M107 -36v336q0 52 -3 93.5t-6 56.5l-3 15l7 7q14 0 26.5 2t18.5 4l6 1l7 -7v-495q0 -46 -15 -87t-36.5 -67t-43 -45t-36.5 -27l-15 -8l-13 13q4 3 11.5 8.5t25.5 25t32 41.5t25.5 58t11.5 75zM94 631q0 17 10 27.5t27 10.5t27.5 -10.5t10.5 -27.5t-10.5 -27.5
t-27.5 -10.5t-27 10.5t-10 27.5z" />
    <glyph glyph-name="k" unicode="k" horiz-adv-x="510" 
d="M106 0v450q0 84 -3 157.5t-6 104.5l-3 31l7 7q14 0 27 2t19 4l6 1l6 -7v-483l57 5l23 25q48 51 84.5 93.5t48.5 59.5l12 16l10 6h51l-192 -209l53 -71q44 -53 84.5 -99t58.5 -65l18 -20v-8q-16 0 -29.5 -1.5t-19.5 -2.5l-6 -2l-207 248h-46v-242h-53z" />
    <glyph glyph-name="l" unicode="l" horiz-adv-x="266" 
d="M106 0v450q0 84 -3 157.5t-6 104.5l-3 31l7 7q14 0 27 2t19 4l6 1l6 -7v-750h-53z" />
    <glyph glyph-name="m" unicode="m" horiz-adv-x="907" 
d="M427 0v335q0 56 -24.5 81.5t-79.5 25.5q-42 0 -82.5 -13.5t-60.5 -26.5l-20 -14v-388h-53v300q0 52 -3 93.5t-6 56.5l-3 15l7 7q14 0 26.5 2t18.5 4l6 1l7 -7l-3 -54l3 -3q8 7 23 17.5t63.5 28t99.5 17.5q94 0 122 -63q88 63 197 63q72 0 104 -34t32 -105v-339h-54v335
q0 57 -24.5 82t-79.5 25q-89 0 -168 -51q6 -23 6 -52v-339h-54z" />
    <glyph glyph-name="n" unicode="n" horiz-adv-x="627" 
d="M468 0v335q0 57 -27 82t-89 25q-48 0 -96 -13.5t-72 -26.5l-24 -14v-388h-53v300q0 52 -3 93.5t-6 56.5l-3 15l7 7q14 0 26.5 2t18.5 4l6 1l7 -7l-3 -54l3 -3q10 7 27.5 17.5t73.5 28t113 17.5q79 0 113 -33.5t34 -105.5v-339h-53z" />
    <glyph glyph-name="o" unicode="o" horiz-adv-x="613" 
d="M65 236q0 108 66.5 175t173.5 67q108 0 175 -67t67 -175t-67 -175t-175 -67q-107 0 -173.5 67t-66.5 175zM123 236q0 -98 50 -156.5t132 -58.5q83 0 133.5 58.5t50.5 156.5t-50.5 156.5t-133.5 58.5q-82 0 -132 -58.5t-50 -156.5z" />
    <glyph glyph-name="p" unicode="p" horiz-adv-x="616" 
d="M160 -250h-53v447q0 84 -3 151t-6 92l-3 25l7 7q14 0 26.5 2t18.5 4l6 1l7 -7l-3 -53l3 -3q7 7 20.5 17.5t57.5 27.5t92 17q98 0 159.5 -64.5t61.5 -174.5q0 -113 -64 -179t-173 -66q-102 0 -154 52v-296zM493 232q0 99 -51 154.5t-132 55.5q-40 0 -77.5 -13.5
t-54.5 -26.5l-18 -14v-262q0 -47 43 -76t106 -29q83 0 133.5 56.5t50.5 154.5z" />
    <glyph glyph-name="q" unicode="q" horiz-adv-x="615" 
d="M456 -250v248l3 55l-3 3q-7 -7 -20.5 -17.5t-57.5 -27.5t-91 -17q-99 0 -160.5 64.5t-61.5 177.5t65 177.5t189 64.5q55 0 102.5 -13.5t67.5 -26.5l20 -14v-674h-53zM123 240q0 -99 51 -154.5t133 -55.5q39 0 76.5 13.5t54.5 26.5l18 14v327q-56 39 -141 39
q-90 0 -141 -56t-51 -154z" />
    <glyph glyph-name="r" unicode="r" horiz-adv-x="410" 
d="M363 478q7 -24 7 -58l-7 -7q-12 9 -41 9q-40 0 -80.5 -24t-61.5 -48l-20 -23v-327h-53v300q0 52 -3 93.5t-6 56.5l-3 15l7 7q14 0 26.5 2t18.5 4l6 1l7 -7l-3 -105l3 -4q3 5 8.5 12.5t25.5 27.5t41.5 35t56.5 27.5t71 12.5z" />
    <glyph glyph-name="s" unicode="s" horiz-adv-x="482" 
d="M238 450q-119 0 -119 -79q0 -14 3 -24.5t14 -20.5t18.5 -16.5t30 -16.5t35 -15.5t45.5 -18.5q89 -38 122.5 -65t33.5 -78q0 -122 -175 -122q-37 0 -69.5 6t-52.5 14t-35 16.5t-21 14.5l-6 6q0 12 6 22.5t12 15.5l6 5h7q2 -3 5.5 -8t17 -17t29.5 -21.5t43.5 -17.5t58.5 -8
q57 0 92 21.5t35 63.5q0 39 -31.5 60.5t-113.5 52.5q-82 30 -119 59t-37 82q0 56 43.5 86.5t125.5 30.5q49 0 89 -11t55 -22l15 -11q0 -12 -6.5 -23t-12.5 -16l-6 -5h-7q-1 2 -3.5 6.5t-13 14.5t-23.5 18t-37.5 14.5t-53.5 6.5z" />
    <glyph glyph-name="t" unicode="t" horiz-adv-x="368" 
d="M24 443v17l86 21l19 115h34v-124h150v-29h-150v-337q0 -77 74 -77q22 0 41 6.5t27 13.5l8 7l13 -14q-4 -5 -12 -13t-36.5 -21.5t-62.5 -13.5q-49 0 -77 26.5t-28 80.5v342h-86z" />
    <glyph glyph-name="u" unicode="u" horiz-adv-x="624" 
d="M160 472v-324q0 -62 29 -90t93 -28q47 0 92.5 13.5t67.5 26.5l22 14v216q0 52 -2 93.5t-4 56.5l-2 15l7 7q13 0 25 2t17 4l5 1l7 -7v-272q0 -52 3 -100.5t6 -70.5l3 -22l-7 -7q-14 0 -26.5 -2t-18.5 -4l-6 -1l-7 7l3 54l-3 3q-9 -7 -25.5 -17.5t-69.5 -28t-108 -17.5
q-82 0 -118 37t-36 113v156q0 52 -3 93.5t-6 56.5l-3 15l7 7q14 0 26.5 2t18.5 4l6 1z" />
    <glyph glyph-name="v" unicode="v" horiz-adv-x="544" 
d="M247 12l-128 288q-24 52 -45.5 94t-31.5 58l-9 15l5 5l56 4l191 -426l113 250q24 53 40 94.5t20 57.5l4 15l5 5l39 5l5 -5l-212 -472h-40z" />
    <glyph glyph-name="w" unicode="w" horiz-adv-x="797" 
d="M532 12l-107 288l-20 51l-126 -351h-39l-12 12l-116 288q-22 53 -41.5 95t-28.5 57l-9 15l5 5l56 4l171 -421l121 340l-34 72l5 5l53 4l159 -421l94 245q20 53 33 95t16 57l2 15l5 5l40 5l5 -5l-180 -472h-39z" />
    <glyph glyph-name="x" unicode="x" horiz-adv-x="528" 
d="M119 478l152 -204l21 26q41 53 71.5 94.5t40.5 56.5l9 15l9 6h46l-177 -225l36 -47q40 -53 78 -101t56 -70l18 -22v-7q-17 0 -32.5 -1.5t-22.5 -2.5l-7 -2l-163 218l-10 -12q-42 -53 -78 -101.5t-51 -70.5l-15 -22l-9 -6h-37l-5 5l184 234l-45 61q-40 52 -72.5 93.5
t-45.5 56.5l-13 15v7q17 0 32.5 1.5t22.5 2.5z" />
    <glyph glyph-name="y" unicode="y" horiz-adv-x="539" 
d="M506 472l-251 -550l-71 -169l-5 -5q-14 0 -27.5 3.5t-20.5 6.5l-7 4v7q53 64 99 164l31 67l-136 300q-23 52 -44.5 93.5t-31.5 57.5l-9 16l5 5l57 4l186 -418l112 242q24 52 40 94t20 58l4 15l5 5l39 5z" />
    <glyph glyph-name="z" unicode="z" horiz-adv-x="526" 
d="M65 19l325 423h-148q-52 0 -93.5 -3t-56.5 -7l-15 -3l-6 7v36h392v-19l-328 -424h158q52 0 93.5 3.5t56.5 6.5l15 3l7 -6v-36h-400v19z" />
    <glyph glyph-name="braceleft" unicode="{" horiz-adv-x="347" 
d="M141 7l16 163q5 56 -25 85t-88 29v32q58 0 88 29t25 85l-15 163q-7 79 34 120.5t127 41.5v-31q-120 0 -109 -125l16 -163q9 -105 -82 -136q91 -31 82 -136l-16 -163q-11 -125 109 -125v-31q-86 0 -127.5 41.5t-34.5 120.5z" />
    <glyph glyph-name="bar" unicode="|" horiz-adv-x="264" 
d="M147 -150h-31v900h31v-900z" />
    <glyph glyph-name="braceright" unicode="}" horiz-adv-x="347" 
d="M191 170l15 -163q8 -79 -33.5 -120.5t-128.5 -41.5v31q121 0 109 125l-15 163q-10 105 81 136q-91 31 -81 136l15 163q12 125 -109 125v31q87 0 128.5 -41.5t33.5 -120.5l-15 -163q-5 -56 25 -85t87 -29v-32q-57 0 -87 -29t-25 -85z" />
    <glyph glyph-name="asciitilde" unicode="~" horiz-adv-x="504" 
d="M180 348q36 0 77 -31t72 -31q28 0 54.5 16t38.5 32l12 17l18 -18q-6 -9 -16 -22.5t-43.5 -36t-68.5 -22.5q-37 0 -77.5 31t-70.5 31q-28 0 -55 -16t-39 -32l-13 -17l-17 18q6 9 16 22.5t43.5 36t68.5 22.5z" />
    <glyph glyph-name="exclamdown" unicode="&#xa1;" horiz-adv-x="261" 
d="M166 443q0 -16 -9.5 -25.5t-25.5 -9.5t-25.5 9.5t-9.5 25.5t9.5 25.5t25.5 9.5t25.5 -9.5t9.5 -25.5zM152 280l7 -509h-57l8 509h42z" />
    <glyph glyph-name="cent" unicode="&#xa2;" horiz-adv-x="552" 
d="M481 87l14 -14q-2 -3 -6 -8t-19.5 -18t-34 -23t-49.5 -19t-66 -11v-94h-31v95q-104 4 -164 69.5t-60 171.5q0 104 59 169t165 72v95h31v-94q80 -2 124.5 -37t44.5 -94q0 -11 -1.5 -21t-3.5 -14l-1 -5q-14 -7 -41 -7l-7 7q6 18 6 41q0 49 -34.5 76t-96.5 27
q-89 0 -138 -57t-49 -152q0 -100 52 -156.5t145 -56.5q48 0 88 14.5t56 28.5z" />
    <glyph glyph-name="sterling" unicode="&#xa3;" horiz-adv-x="604" 
d="M81 517q0 93 56.5 141t163.5 48q111 0 169.5 -49t58.5 -134q0 -16 -2.5 -29t-4.5 -18l-2 -5q-16 -7 -46 -7l-7 7q8 19 8 55q0 74 -45.5 113t-126.5 39q-166 0 -166 -159q0 -23 3 -43.5t10.5 -40.5t12 -30.5t16 -33t14.5 -27.5h196l6 -6v-25h-189q14 -37 14 -71
q0 -49 -22 -101t-44 -79l-23 -28h227q52 0 93.5 3t56.5 7l15 3l6 -7v-40h-448v22q4 4 10 12t21.5 32t27.5 48.5t22 58t10 64.5q0 37 -17 76h-74v31h58q-1 2 -11 19t-12.5 22t-10 20.5t-10 25t-7 24.5t-6 30t-1.5 32z" />
    <glyph glyph-name="currency" unicode="&#xa4;" horiz-adv-x="616" 
d="M127 300q0 66 42 116l-95 96l22 22l95 -96q51 43 117 43q67 0 116 -43l96 96l22 -22l-96 -96q43 -49 43 -116q0 -66 -43 -117l96 -95l-22 -22l-96 95q-50 -42 -116 -42q-65 0 -117 42l-95 -95l-22 22l95 95q-42 52 -42 117zM158 300q0 -62 44 -106t106 -44t106 44t44 106
t-44 106t-106 44t-106 -44t-44 -106z" />
    <glyph glyph-name="yen" unicode="&#xa5;" horiz-adv-x="653" 
d="M616 700l-262 -386v-15h150v-31h-150v-105h150v-31h-150v-132h-55v132h-150v31h150v105h-150v31h150v14l-118 174q-38 56 -75 107.5t-54 75.5l-18 23v7h67l237 -346l238 346h40z" />
    <glyph glyph-name="brokenbar" unicode="&#xa6;" horiz-adv-x="264" 
d="M147 -150h-31v400h31v-400zM147 750v-400h-31v400h31z" />
    <glyph glyph-name="section" unicode="&#xa7;" horiz-adv-x="504" 
d="M128 601q0 -33 31.5 -57.5t77 -41.5t91 -35.5t77 -50.5t31.5 -75t-30.5 -75.5t-86.5 -42.5q56 -24 86.5 -50.5t30.5 -66.5q0 -50 -46.5 -81t-134.5 -31q-87 0 -136 33t-49 93q0 10 1.5 19.5t2.5 14.5l2 4q15 7 42 7l7 -7q-6 -16 -6 -36q0 -48 36 -74.5t101 -26.5
q62 0 96 23t34 58q0 31 -31.5 54.5t-77 39.5t-90.5 34.5t-76.5 50.5t-31.5 77q0 43 28 75.5t82 43.5q-52 22 -80.5 49t-28.5 66q0 49 44 81.5t127 32.5q81 0 124.5 -32.5t43.5 -90.5q0 -11 -1.5 -21t-3.5 -14l-1 -4q-14 -9 -41 -9l-7 9q4 15 4 37q0 47 -31 72.5t-90 25.5
q-58 0 -89 -22t-31 -56zM126 367q0 -24 11 -42.5t34.5 -33.5t43.5 -24.5t54 -22.5q56 2 87.5 29t31.5 64q0 15 -5 28.5t-19.5 25.5t-23 19t-34 18.5t-33.5 15t-39 15.5q-51 -3 -79.5 -29t-28.5 -63z" />
    <glyph glyph-name="dieresis" unicode="&#xa8;" horiz-adv-x="459" 
d="M92 605q0 14 9 22.5t23 8.5q31 0 31 -31t-31 -31q-14 0 -23 8.5t-9 22.5zM304 605q0 14 9 22.5t23 8.5q31 0 31 -31t-31 -31q-14 0 -23 8.5t-9 22.5z" />
    <glyph glyph-name="copyright" unicode="&#xa9;" horiz-adv-x="868" 
d="M78 350q0 148 104 252t252 104t252 -104t104 -252t-104 -252t-252 -104t-252 104t-104 252zM109 350q0 -135 95 -230t230 -95t230 95t95 230t-95 230t-230 95t-230 -95t-95 -230zM447 511q-61 0 -96.5 -42.5t-35.5 -115.5t37.5 -114.5t102.5 -41.5q32 0 60.5 9.5
t40.5 19.5l13 10l9 -8q-5 -6 -14 -15.5t-43.5 -25.5t-75.5 -16q-79 0 -126.5 49.5t-47.5 130.5q0 80 47.5 129t129.5 49q60 0 95 -27.5t35 -71.5q0 -9 -1.5 -15.5t-2.5 -8.5l-2 -3q-12 -4 -34 -4l-4 4q5 9 5 29q0 37 -24.5 58t-67.5 21z" />
    <glyph glyph-name="ordfeminine" unicode="&#xaa;" horiz-adv-x="291" 
d="M143 703q87 0 87 -69v-132q0 -22 19 -22l15 4l8 -8q-13 -16 -41 -16q-33 0 -38 30q-40 -30 -86 -30q-68 0 -68 61q0 28 19.5 43t69.5 21l65 8v47q0 47 -51 47q-28 0 -44 -13.5t-16 -36.5l3 -20l-4 -4l-29 4q-4 8 -4 20q0 30 25 48t70 18zM76 525q0 -43 48 -43q18 0 35 6
t25 12l9 6v70l-61 -7q-31 -4 -43.5 -14.5t-12.5 -29.5z" />
    <glyph glyph-name="guillemotleft" unicode="&#xab;" horiz-adv-x="481" 
d="M232 449l6 -6v-24l-138 -144l138 -144v-24l-6 -6l-178 167v14zM414 449l6 -6v-24l-139 -144l139 -144v-24l-6 -6l-179 167v14z" />
    <glyph glyph-name="logicalnot" unicode="&#xac;" 
d="M107 359v32h384v-184h-31v152h-353z" />
    <glyph glyph-name="uni00AD" unicode="&#xad;" horiz-adv-x="361" 
d="M74 260v31h213v-31h-213z" />
    <glyph glyph-name="registered" unicode="&#xae;" horiz-adv-x="868" 
d="M78 350q0 148 104 252t252 104t252 -104t104 -252t-104 -252t-252 -104t-252 104t-104 252zM109 350q0 -135 95 -230t230 -95t230 95t95 230t-95 230t-230 95t-230 -95t-95 -230zM326 175v350h110q58 0 92.5 -26t34.5 -71q0 -74 -85 -92l46 -74q16 -26 30.5 -47t21.5 -29
l6 -8l-3 -3h-44l-97 157h-72v-157h-40zM430 506h-64v-155h64q42 0 66.5 20.5t24.5 56.5t-24.5 57t-66.5 21z" />
    <glyph glyph-name="macron" unicode="&#xaf;" horiz-adv-x="303" 
d="M37 596v31h229v-31h-229z" />
    <glyph glyph-name="degree" unicode="&#xb0;" horiz-adv-x="313" 
d="M54 603q0 46 28.5 74t75.5 28q46 0 74 -28t28 -74q0 -47 -28 -75.5t-74 -28.5q-47 0 -75.5 28.5t-28.5 75.5zM86 603q0 -31 20 -51.5t51 -20.5t50.5 20.5t19.5 51.5t-19.5 51t-50.5 20t-51 -20t-20 -51z" />
    <glyph glyph-name="plusminus" unicode="&#xb1;" 
d="M107 334v32h177v176h31v-176h176v-32h-176v-176h-31v176h-177zM107 54v32h384v-32h-384z" />
    <glyph glyph-name="twosuperior" unicode="&#xb2;" horiz-adv-x="311" 
d="M276 611q0 -39 -28 -82t-67 -74.5t-64.5 -49.5t-35.5 -23h112q26 0 47 2t28 4l8 3l4 -4v-37h-244v20l2 1q16 10 39.5 28.5t63.5 54t67 79t27 81.5q0 33 -20.5 52.5t-58.5 19.5q-36 0 -57.5 -18.5t-21.5 -54.5q0 -8 1.5 -15t2.5 -10l1 -3l-4 -5l-35 5q-4 8 -4 27
q0 42 30.5 67t86.5 25q57 0 88.5 -25.5t31.5 -67.5z" />
    <glyph glyph-name="threesuperior" unicode="&#xb3;" horiz-adv-x="331" 
d="M161 364q42 0 65 21t23 59q0 75 -77 75h-33l-3 4v18h25q74 0 74 73q0 72 -75 72q-37 0 -58.5 -17t-21.5 -50l5 -26l-5 -4l-34 4q-4 8 -4 25q0 39 31 62.5t88 23.5q56 0 85.5 -24t29.5 -67q0 -65 -64 -82q79 -13 79 -88q0 -46 -34.5 -71.5t-94.5 -25.5q-61 0 -92.5 24.5
t-31.5 66.5l4 24q13 4 35 4l4 -4q-5 -8 -5 -26q0 -34 22.5 -52.5t62.5 -18.5z" />
    <glyph glyph-name="acute" unicode="&#xb4;" horiz-adv-x="256" 
d="M64 566l-6 6l95 137q14 0 25 -2t16 -4l4 -2v-6l-112 -129h-22z" />
    <glyph glyph-name="paragraph" unicode="&#xb6;" horiz-adv-x="631" 
d="M302 -36v340q-105 0 -167.5 53t-62.5 145t62.5 145t167.5 53h44v-723q0 -46 -14 -87t-34 -67t-40.5 -45t-34.5 -27l-14 -8l-13 13q4 3 11.5 8.5t25.5 25t32 41.5t25.5 58t11.5 75zM471 0v700h44v-700h-44z" />
    <glyph glyph-name="periodcentered" unicode="&#xb7;" horiz-adv-x="194" 
d="M62 300q0 16 9.5 25.5t25.5 9.5t25.5 -9.5t9.5 -25.5t-9.5 -25.5t-25.5 -9.5t-25.5 9.5t-9.5 25.5z" />
    <glyph glyph-name="cedilla" unicode="&#xb8;" horiz-adv-x="231" 
d="M89 -70l12 70h27l-9 -54q28 0 46.5 -16.5t18.5 -43.5q0 -28 -20 -44t-51 -16q-22 0 -39.5 8.5t-23.5 17.5l-7 8l13 12q18 -19 51 -19q43 0 43 34q0 37 -55 37z" />
    <glyph glyph-name="onesuperior" unicode="&#xb9;" horiz-adv-x="234" 
d="M127 350v314q-46 -35 -92 -35q-3 6 -3 17l4 4q24 0 52 12.5t44 25.5l17 12h17v-350h-39z" />
    <glyph glyph-name="ordmasculine" unicode="&#xba;" horiz-adv-x="313" 
d="M34 581q0 55 33.5 88.5t88.5 33.5t89 -33.5t34 -88.5q0 -54 -34 -87.5t-89 -33.5t-88.5 33.5t-33.5 87.5zM74 581q0 -49 22.5 -77.5t59.5 -28.5t60 28.5t23 77.5t-23 77.5t-60 28.5t-59.5 -28.5t-22.5 -77.5z" />
    <glyph glyph-name="guillemotright" unicode="&#xbb;" horiz-adv-x="481" 
d="M62 443l6 6l178 -167v-14l-178 -167l-6 6v24l138 144l-138 144v24zM243 443l6 6l179 -167v-14l-179 -167l-6 6v24l138 144l-138 144v24z" />
    <glyph glyph-name="onequarter" unicode="&#xbc;" horiz-adv-x="725" 
d="M429 77v10l197 263h19v-253h51v-20h-51v-77h-38v77h-178zM170 -25h-36l432 750h36zM127 350v314q-46 -35 -92 -35q-3 6 -3 17l4 4q24 0 52 12.5t44 25.5l17 12h17v-350h-39zM461 97h146v194z" />
    <glyph glyph-name="onehalf" unicode="&#xbd;" horiz-adv-x="761" 
d="M170 -25h-36l432 750h36zM726 261q0 -39 -28 -82t-67 -74.5t-64.5 -49.5t-35.5 -23h112q26 0 47 2t28 4l8 3l4 -4v-37h-245v20l2 1q16 10 39.5 28.5t64 54t67.5 79t27 81.5q0 33 -20.5 52.5t-58.5 19.5q-36 0 -57.5 -18.5t-21.5 -54.5q0 -8 1.5 -15t2.5 -10l1 -3l-4 -5
l-35 5q-4 8 -4 27q0 42 30.5 67t86.5 25q57 0 88.5 -25.5t31.5 -67.5zM127 350v314q-46 -35 -92 -35q-3 6 -3 17l4 4q24 0 52 12.5t44 25.5l17 12h17v-350h-39z" />
    <glyph glyph-name="threequarters" unicode="&#xbe;" horiz-adv-x="785" 
d="M489 77v10l197 263h19v-253h51v-20h-51v-77h-38v77h-178zM161 364q42 0 65 21t23 59q0 75 -77 75h-33l-3 4v18h25q74 0 74 73q0 72 -75 72q-37 0 -58.5 -17t-21.5 -50l5 -26l-5 -4l-34 4q-4 8 -4 25q0 39 31 62.5t88 23.5q56 0 85.5 -24t29.5 -67q0 -65 -64 -82
q79 -13 79 -88q0 -46 -34.5 -71.5t-94.5 -25.5q-61 0 -92.5 24.5t-31.5 66.5l4 24q13 4 35 4l4 -4q-5 -8 -5 -26q0 -34 22.5 -52.5t62.5 -18.5zM230 -25h-36l432 750h36zM521 97h146v194z" />
    <glyph glyph-name="questiondown" unicode="&#xbf;" horiz-adv-x="561" 
d="M318 443q0 -16 -9.5 -25.5t-25.5 -9.5t-26 9.5t-10 25.5t10 25.5t26 9.5t25.5 -9.5t9.5 -25.5zM61 -55q0 46 20.5 86t49.5 64.5t58.5 42.5t50.5 26l20 7l1 109h43l2 -137q-8 -2 -20.5 -6t-45 -20.5t-57.5 -37t-45.5 -57.5t-20.5 -80q0 -65 43.5 -107t123.5 -42
q74 0 118.5 37.5t44.5 106.5q0 16 -2.5 29t-4.5 18l-2 5l7 7q13 0 24.5 -2t16.5 -4l5 -1q9 -15 9 -50q0 -79 -57 -126.5t-160 -47.5q-107 0 -164.5 51t-57.5 129z" />
    <glyph glyph-name="Agrave" unicode="&#xc0;" horiz-adv-x="729" 
d="M164 215l-93 -215h-37l298 682l-6 11v7h61l308 -700h-58l-94 215h-379zM406 528q-34 78 -55 116l-173 -398h351zM392 780l-6 -6h-22l-112 129v6q14 8 45 8z" />
    <glyph glyph-name="Aacute" unicode="&#xc1;" horiz-adv-x="729" 
d="M164 215l-93 -215h-37l298 682l-6 11v7h61l308 -700h-58l-94 215h-379zM406 528q-34 78 -55 116l-173 -398h351zM338 774l-6 6l95 137q14 0 25 -2t16 -4l4 -2v-6l-112 -129h-22z" />
    <glyph glyph-name="Acircumflex" unicode="&#xc2;" horiz-adv-x="729" 
d="M164 215l-93 -215h-37l298 682l-6 11v7h61l308 -700h-58l-94 215h-379zM406 528q-34 78 -55 116l-173 -398h351zM490 780l-6 -6h-24l-98 102l-98 -102h-23l-6 6l119 137h17z" />
    <glyph glyph-name="Atilde" unicode="&#xc3;" horiz-adv-x="729" 
d="M164 215l-93 -215h-37l298 682l-6 11v7h61l308 -700h-58l-94 215h-379zM406 528q-34 78 -55 116l-173 -398h351zM317 854q25 0 50.5 -18t46.5 -18q20 0 37.5 10t24.5 20l8 9l13 -13q-3 -7 -9 -17t-29 -26.5t-51 -16.5q-25 0 -50.5 18t-45.5 18t-38 -10t-26 -20l-7 -9
l-13 13q1 2 3 6.5t10 14.5t17.5 18t25.5 14.5t33 6.5z" />
    <glyph glyph-name="Adieresis" unicode="&#xc4;" horiz-adv-x="729" 
d="M164 215l-93 -215h-37l298 682l-6 11v7h61l308 -700h-58l-94 215h-379zM406 528q-34 78 -55 116l-173 -398h351zM225 813q0 14 8.5 23t22.5 9t23 -9t9 -23t-9 -22.5t-23 -8.5q-31 0 -31 31zM437 813q0 14 8.5 23t23.5 9q14 0 22.5 -9t8.5 -23t-8.5 -22.5t-22.5 -8.5
q-32 0 -32 31z" />
    <glyph glyph-name="Aring" unicode="&#xc5;" horiz-adv-x="729" 
d="M164 215l-93 -215h-37l298 682l-6 11v7h61l308 -700h-58l-94 215h-379zM406 528q-34 78 -55 116l-173 -398h351zM286 843q0 34 21.5 55t55.5 21t55 -21t21 -55t-21 -55t-55 -21t-55.5 21t-21.5 55zM316 843q0 -20 13.5 -33.5t33.5 -13.5t33 13.5t13 33.5t-13 33.5
t-33 13.5t-33.5 -13.5t-13.5 -33.5z" />
    <glyph glyph-name="AE" unicode="&#xc6;" horiz-adv-x="883" 
d="M34 0l341 700h426v-37l-6 -6q-47 13 -165 13h-188v-299h299l6 -5v-26h-305v-310h198q52 0 93.5 3t56.5 7l15 3l6 -6v-37h-424v219h-210l-106 -219h-37zM192 250h195v403z" />
    <glyph glyph-name="Ccedilla" unicode="&#xc7;" horiz-adv-x="758" 
d="M394 -70l11 65q-150 4 -240 101.5t-90 254.5q0 160 94.5 257.5t255.5 97.5q119 0 187 -53.5t68 -143.5q0 -16 -2.5 -28.5t-5.5 -16.5l-2 -5q-16 -6 -46 -6l-7 6q9 17 9 53q0 77 -54 121.5t-148 44.5q-134 0 -211.5 -88t-77.5 -236q0 -149 79.5 -235.5t217.5 -86.5
q41 0 80.5 8t66 20t47.5 24t30 20l10 8l14 -15q-3 -4 -9.5 -10.5t-29.5 -24t-49 -30.5t-69.5 -25t-90.5 -13l-8 -48q28 0 46.5 -16.5t18.5 -43.5q0 -28 -20 -44t-51 -16q-22 0 -39.5 8.5t-24.5 17.5l-6 8l12 12q19 -19 52 -19q43 0 43 34q0 37 -55 37z" />
    <glyph glyph-name="Egrave" unicode="&#xc8;" horiz-adv-x="631" 
d="M116 0v700h433v-37l-7 -6q-47 13 -165 13h-206v-299h318l6 -5v-26h-324v-310h216q52 0 93.5 3t56.5 7l15 3l7 -6v-37h-443zM373 780l-6 -6h-21l-112 129v6q13 8 44 8z" />
    <glyph glyph-name="Eacute" unicode="&#xc9;" horiz-adv-x="631" 
d="M116 0v700h433v-37l-7 -6q-47 13 -165 13h-206v-299h318l6 -5v-26h-324v-310h216q52 0 93.5 3t56.5 7l15 3l7 -6v-37h-443zM300 774l-6 6l95 137q14 0 25 -2t15 -4l4 -2v-6l-112 -129h-21z" />
    <glyph glyph-name="Ecircumflex" unicode="&#xca;" horiz-adv-x="631" 
d="M116 0v700h433v-37l-7 -6q-47 13 -165 13h-206v-299h318l6 -5v-26h-324v-310h216q52 0 93.5 3t56.5 7l15 3l7 -6v-37h-443zM461 780l-6 -6h-24l-97 102l-98 -102h-24l-6 6l119 137h17z" />
    <glyph glyph-name="Edieresis" unicode="&#xcb;" horiz-adv-x="631" 
d="M116 0v700h433v-37l-7 -6q-47 13 -165 13h-206v-299h318l6 -5v-26h-324v-310h216q52 0 93.5 3t56.5 7l15 3l7 -6v-37h-443zM408 805q0 14 9 22.5t23 8.5t22.5 -8.5t8.5 -22.5t-8.5 -22.5t-22.5 -8.5t-23 8.5t-9 22.5zM196 805q0 14 9 22.5t23 8.5t22.5 -8.5t8.5 -22.5
t-8.5 -22.5t-22.5 -8.5t-23 8.5t-9 22.5z" />
    <glyph glyph-name="Igrave" unicode="&#xcc;" horiz-adv-x="287" 
d="M116 0v700h55v-700h-55zM174 780l-6 -6h-22l-112 129v6q14 8 44 8z" />
    <glyph glyph-name="Iacute" unicode="&#xcd;" horiz-adv-x="287" 
d="M116 0v700h55v-700h-55zM120 774l-6 6l95 137q14 0 25 -2t16 -4l4 -2v-6l-112 -129h-22z" />
    <glyph glyph-name="Icircumflex" unicode="&#xce;" horiz-adv-x="287" 
d="M116 0v700h55v-700h-55zM271 780l-6 -6h-23l-98 102l-98 -102h-24l-6 6l119 137h17z" />
    <glyph glyph-name="Idieresis" unicode="&#xcf;" horiz-adv-x="287" 
d="M116 0v700h55v-700h-55zM6 813q0 14 9 23t23 9t22.5 -9t8.5 -23q0 -31 -31 -31q-14 0 -23 8.5t-9 22.5zM218 813q0 14 9 23t23 9t22.5 -9t8.5 -23q0 -31 -31 -31q-14 0 -23 8.5t-9 22.5z" />
    <glyph glyph-name="Eth" unicode="&#xd0;" horiz-adv-x="789" 
d="M42 344v31h74v325h257q152 0 246.5 -97t94.5 -253t-94.5 -253t-246.5 -97h-257v344h-74zM371 669h-200v-294h180v-31h-180v-313h200q127 0 205 87t78 232t-78 232t-205 87z" />
    <glyph glyph-name="Ntilde" unicode="&#xd1;" horiz-adv-x="794" 
d="M116 0v420q0 80 -3 148t-6 96l-3 29l7 7h23l509 -605v605h35v-700h-20l-509 604v-604h-33zM351 854q25 0 50.5 -18t46.5 -18q20 0 37.5 10t24.5 20l8 9l13 -13q-3 -7 -9 -17t-28.5 -26.5t-50.5 -16.5q-25 0 -51 18t-46 18t-37.5 -10t-24.5 -20l-8 -9l-14 13q1 2 3 6.5
t10 14.5t17.5 18t25.5 14.5t33 6.5z" />
    <glyph glyph-name="Ograve" unicode="&#xd2;" horiz-adv-x="833" 
d="M75 350q0 159 94 257.5t246 98.5q153 0 247.5 -98.5t94.5 -257.5t-94.5 -257.5t-247.5 -98.5q-152 0 -246 98.5t-94 257.5zM135 350q0 -149 77.5 -238.5t202.5 -89.5q127 0 204.5 89.5t77.5 238.5t-77.5 238.5t-204.5 89.5q-125 0 -202.5 -89.5t-77.5 -238.5zM446 780
l-6 -6h-22l-112 129v6q14 8 45 8z" />
    <glyph glyph-name="Oacute" unicode="&#xd3;" horiz-adv-x="833" 
d="M75 350q0 159 94 257.5t246 98.5q153 0 247.5 -98.5t94.5 -257.5t-94.5 -257.5t-247.5 -98.5q-152 0 -246 98.5t-94 257.5zM135 350q0 -149 77.5 -238.5t202.5 -89.5q127 0 204.5 89.5t77.5 238.5t-77.5 238.5t-204.5 89.5q-125 0 -202.5 -89.5t-77.5 -238.5zM392 774
l-6 6l96 137q13 0 24 -2t16 -4l4 -2v-6l-112 -129h-22z" />
    <glyph glyph-name="Ocircumflex" unicode="&#xd4;" horiz-adv-x="833" 
d="M75 350q0 159 94 257.5t246 98.5q153 0 247.5 -98.5t94.5 -257.5t-94.5 -257.5t-247.5 -98.5q-152 0 -246 98.5t-94 257.5zM135 350q0 -149 77.5 -238.5t202.5 -89.5q127 0 204.5 89.5t77.5 238.5t-77.5 238.5t-204.5 89.5q-125 0 -202.5 -89.5t-77.5 -238.5zM544 780
l-6 -6h-24l-98 102l-98 -102h-23l-6 6l119 137h17z" />
    <glyph glyph-name="Otilde" unicode="&#xd5;" horiz-adv-x="833" 
d="M75 350q0 159 94 257.5t246 98.5q153 0 247.5 -98.5t94.5 -257.5t-94.5 -257.5t-247.5 -98.5q-152 0 -246 98.5t-94 257.5zM135 350q0 -149 77.5 -238.5t202.5 -89.5q127 0 204.5 89.5t77.5 238.5t-77.5 238.5t-204.5 89.5q-125 0 -202.5 -89.5t-77.5 -238.5zM370 854
q25 0 50.5 -18t46.5 -18q20 0 37.5 10t25.5 20l7 9l13 -13q-3 -7 -9 -17t-28.5 -26.5t-50.5 -16.5q-25 0 -50.5 18t-46.5 18q-20 0 -37.5 -10t-25.5 -20l-7 -9l-14 13q1 2 3 6.5t10 14.5t17.5 18t25.5 14.5t33 6.5z" />
    <glyph glyph-name="Odieresis" unicode="&#xd6;" horiz-adv-x="833" 
d="M75 350q0 159 94 257.5t246 98.5q153 0 247.5 -98.5t94.5 -257.5t-94.5 -257.5t-247.5 -98.5q-152 0 -246 98.5t-94 257.5zM135 350q0 -149 77.5 -238.5t202.5 -89.5q127 0 204.5 89.5t77.5 238.5t-77.5 238.5t-204.5 89.5q-125 0 -202.5 -89.5t-77.5 -238.5zM279 813
q0 14 8.5 23t22.5 9t23 -9t9 -23t-9 -22.5t-23 -8.5q-31 0 -31 31zM491 813q0 14 8.5 23t22.5 9t23 -9t9 -23t-9 -22.5t-23 -8.5q-31 0 -31 31z" />
    <glyph glyph-name="multiply" unicode="&#xd7;" 
d="M127 131l-22 22l172 172l-172 172l22 22l172 -172l172 172l22 -22l-172 -172l172 -172l-22 -22l-172 172z" />
    <glyph glyph-name="Oslash" unicode="&#xd8;" horiz-adv-x="832" 
d="M218 -25h-36l41 72q-70 45 -109 124t-39 179q0 159 94 257.5t246 98.5q90 0 166 -38l33 57h36l-42 -73q71 -46 110 -124t39 -178q0 -159 -94.5 -257.5t-247.5 -98.5q-93 0 -164 38zM698 350q0 179 -110 268l-320 -556q65 -40 147 -40q127 0 205 89.5t78 238.5zM134 350
q0 -179 109 -269l320 556q-64 41 -148 41q-125 0 -203 -89.5t-78 -238.5z" />
    <glyph glyph-name="Ugrave" unicode="&#xd9;" horiz-adv-x="761" 
d="M620 257v443h33v-443q0 -115 -75.5 -189t-198.5 -74q-122 0 -196.5 74t-74.5 189v443h55v-449q0 -99 62.5 -162t163.5 -63q103 0 167 64.5t64 166.5zM412 780l-6 -6h-21l-112 129v6q14 8 44 8z" />
    <glyph glyph-name="Uacute" unicode="&#xda;" horiz-adv-x="761" 
d="M620 257v443h33v-443q0 -115 -75.5 -189t-198.5 -74q-122 0 -196.5 74t-74.5 189v443h55v-449q0 -99 62.5 -162t163.5 -63q103 0 167 64.5t64 166.5zM359 774l-6 6l95 137q14 0 25 -2t15 -4l4 -2v-6l-112 -129h-21z" />
    <glyph glyph-name="Ucircumflex" unicode="&#xdb;" horiz-adv-x="761" 
d="M620 257v443h33v-443q0 -115 -75.5 -189t-198.5 -74q-122 0 -196.5 74t-74.5 189v443h55v-449q0 -99 62.5 -162t163.5 -63q103 0 167 64.5t64 166.5zM510 780l-6 -6h-24l-97 102l-98 -102h-24l-6 6l119 137h17z" />
    <glyph glyph-name="Udieresis" unicode="&#xdc;" horiz-adv-x="761" 
d="M620 257v443h33v-443q0 -115 -75.5 -189t-198.5 -74q-122 0 -196.5 74t-74.5 189v443h55v-449q0 -99 62.5 -162t163.5 -63q103 0 167 64.5t64 166.5zM245 813q0 14 9 23t23 9t22.5 -9t8.5 -23t-8.5 -22.5t-22.5 -8.5t-23 8.5t-9 22.5zM457 813q0 14 9 23t23 9t22.5 -9
t8.5 -23q0 -31 -31 -31q-14 0 -23 8.5t-9 22.5z" />
    <glyph glyph-name="Yacute" unicode="&#xdd;" horiz-adv-x="653" 
d="M616 700l-262 -386v-314h-55v313l-118 174q-38 56 -75 107.5t-54 75.5l-18 23v7h67l237 -346l238 346h40zM293 774l-6 6l95 137q14 0 25 -2t15 -4l4 -2v-6l-112 -129h-21z" />
    <glyph glyph-name="Thorn" unicode="&#xde;" horiz-adv-x="644" 
d="M116 0v700h55v-142h164q111 0 177 -53t66 -145t-66 -145t-177 -53h-164v-162h-55zM326 527h-155v-334h155q90 0 142.5 44t52.5 123t-52.5 123t-142.5 44z" />
    <glyph glyph-name="germandbls" unicode="&#xdf;" horiz-adv-x="610" 
d="M159 0h-53v568q0 188 183 188q84 0 127 -39.5t43 -114.5q0 -31 -7.5 -58t-18 -43t-21 -27.5t-18.5 -15.5l-7 -5q-36 0 -60.5 -24t-24.5 -60t25.5 -57t95.5 -55q76 -37 103.5 -63t27.5 -78q0 -122 -156 -122q-34 0 -62.5 6t-44.5 14.5t-27.5 17.5t-15.5 15.5t-4 8.5
q0 8 5 17t10 14l5 5h7l5 -7.5t14.5 -16.5t25.5 -21t37 -16.5t49 -7.5q50 0 77.5 22.5t27.5 61.5q0 21 -6.5 35.5t-27 29.5t-34.5 22t-53 26q-68 31 -99 58.5t-31 79.5q0 45 24.5 75t49.5 37l24 8q5 2 16 11t25.5 39.5t14.5 71.5q0 61 -31.5 93.5t-90.5 32.5
q-129 0 -129 -155v-571z" />
    <glyph glyph-name="agrave" unicode="&#xe0;" horiz-adv-x="560" 
d="M276 478q164 0 164 -136v-269q0 -47 41 -47q8 0 16 2t11 4l4 3l13 -13q-21 -28 -68 -28q-63 0 -70 62q-12 -10 -30.5 -21.5t-61 -26t-85.5 -14.5q-67 0 -101 32t-34 90q0 54 37 83t133 41l142 17v92q0 102 -112 102q-61 0 -96.5 -29t-35.5 -78l5 -38l-7 -7
q-12 0 -22.5 1.5t-14.5 3.5l-4 2q-7 15 -7 39q0 60 47.5 96.5t135.5 36.5zM130 120q0 -91 103 -91q39 0 77.5 13.5t57.5 27.5l19 14v145l-136 -16q-67 -8 -94 -30t-27 -63zM301 572l-5 -6h-22l-112 129v6q14 8 44 8z" />
    <glyph glyph-name="aacute" unicode="&#xe1;" horiz-adv-x="560" 
d="M276 478q164 0 164 -136v-269q0 -47 41 -47q8 0 16 2t11 4l4 3l13 -13q-21 -28 -68 -28q-63 0 -70 62q-12 -10 -30.5 -21.5t-61 -26t-85.5 -14.5q-67 0 -101 32t-34 90q0 54 37 83t133 41l142 17v92q0 102 -112 102q-61 0 -96.5 -29t-35.5 -78l5 -38l-7 -7
q-12 0 -22.5 1.5t-14.5 3.5l-4 2q-7 15 -7 39q0 60 47.5 96.5t135.5 36.5zM130 120q0 -91 103 -91q39 0 77.5 13.5t57.5 27.5l19 14v145l-136 -16q-67 -8 -94 -30t-27 -63zM247 566l-6 6l96 137q13 0 24 -2t15 -4l5 -2v-6l-112 -129h-22z" />
    <glyph glyph-name="acircumflex" unicode="&#xe2;" horiz-adv-x="560" 
d="M276 478q164 0 164 -136v-269q0 -47 41 -47q8 0 16 2t11 4l4 3l13 -13q-21 -28 -68 -28q-63 0 -70 62q-12 -10 -30.5 -21.5t-61 -26t-85.5 -14.5q-67 0 -101 32t-34 90q0 54 37 83t133 41l142 17v92q0 102 -112 102q-61 0 -96.5 -29t-35.5 -78l5 -38l-7 -7
q-12 0 -22.5 1.5t-14.5 3.5l-4 2q-7 15 -7 39q0 60 47.5 96.5t135.5 36.5zM130 120q0 -91 103 -91q39 0 77.5 13.5t57.5 27.5l19 14v145l-136 -16q-67 -8 -94 -30t-27 -63zM402 572l-6 -6h-23l-98 101l-98 -101h-24l-6 6l119 137h17z" />
    <glyph glyph-name="atilde" unicode="&#xe3;" horiz-adv-x="560" 
d="M276 478q164 0 164 -136v-269q0 -47 41 -47q8 0 16 2t11 4l4 3l13 -13q-21 -28 -68 -28q-63 0 -70 62q-12 -10 -30.5 -21.5t-61 -26t-85.5 -14.5q-67 0 -101 32t-34 90q0 54 37 83t133 41l142 17v92q0 102 -112 102q-61 0 -96.5 -29t-35.5 -78l5 -38l-7 -7
q-12 0 -22.5 1.5t-14.5 3.5l-4 2q-7 15 -7 39q0 60 47.5 96.5t135.5 36.5zM130 120q0 -91 103 -91q39 0 77.5 13.5t57.5 27.5l19 14v145l-136 -16q-67 -8 -94 -30t-27 -63zM228 646q25 0 50.5 -18t45.5 -18t38 10t26 20l7 9l13 -13q-1 -2 -3 -6.5t-10 -14.5t-17.5 -18
t-25.5 -14.5t-33 -6.5q-25 0 -50.5 18t-46.5 18q-20 0 -37.5 -10t-24.5 -20l-8 -9l-13 13q3 7 9 17t29 26.5t51 16.5z" />
    <glyph glyph-name="adieresis" unicode="&#xe4;" horiz-adv-x="560" 
d="M276 478q164 0 164 -136v-269q0 -47 41 -47q8 0 16 2t11 4l4 3l13 -13q-21 -28 -68 -28q-63 0 -70 62q-12 -10 -30.5 -21.5t-61 -26t-85.5 -14.5q-67 0 -101 32t-34 90q0 54 37 83t133 41l142 17v92q0 102 -112 102q-61 0 -96.5 -29t-35.5 -78l5 -38l-7 -7
q-12 0 -22.5 1.5t-14.5 3.5l-4 2q-7 15 -7 39q0 60 47.5 96.5t135.5 36.5zM130 120q0 -91 103 -91q39 0 77.5 13.5t57.5 27.5l19 14v145l-136 -16q-67 -8 -94 -30t-27 -63zM133 605q0 31 31 31q14 0 23 -8.5t9 -22.5t-9 -22.5t-23 -8.5q-31 0 -31 31zM345 605q0 31 31 31
q14 0 23 -8.5t9 -22.5t-9 -22.5t-23 -8.5q-31 0 -31 31z" />
    <glyph glyph-name="aring" unicode="&#xe5;" horiz-adv-x="560" 
d="M276 478q164 0 164 -136v-269q0 -47 41 -47q8 0 16 2t11 4l4 3l13 -13q-21 -28 -68 -28q-63 0 -70 62q-12 -10 -30.5 -21.5t-61 -26t-85.5 -14.5q-67 0 -101 32t-34 90q0 54 37 83t133 41l142 17v92q0 102 -112 102q-61 0 -96.5 -29t-35.5 -78l5 -38l-7 -7
q-12 0 -22.5 1.5t-14.5 3.5l-4 2q-7 15 -7 39q0 60 47.5 96.5t135.5 36.5zM130 120q0 -91 103 -91q39 0 77.5 13.5t57.5 27.5l19 14v145l-136 -16q-67 -8 -94 -30t-27 -63zM196 635q0 34 21.5 55t55.5 21t55 -21t21 -55t-21 -55t-55 -21t-55.5 21t-21.5 55zM226 635
q0 -20 13.5 -33.5t33.5 -13.5t33 13.5t13 33.5t-13 33.5t-33 13.5t-33.5 -13.5t-13.5 -33.5z" />
    <glyph glyph-name="ae" unicode="&#xe6;" horiz-adv-x="893" 
d="M805 87l13 -14q-2 -3 -6.5 -8.5t-21 -19t-36.5 -24t-53.5 -19t-71.5 -8.5q-142 0 -205 100q-8 -11 -21.5 -23.5t-40 -32t-66 -32t-83.5 -12.5q-70 0 -104 32t-34 89q0 54 37.5 83.5t132.5 41.5l142 17v92q0 102 -112 102q-61 0 -96.5 -29t-35.5 -78l5 -38l-7 -7
q-12 0 -22.5 1.5t-14.5 3.5l-4 2q-7 15 -7 39q0 60 47.5 96.5t133.5 36.5q133 0 155 -95q65 95 207 95q88 0 136.5 -40.5t48.5 -114.5q0 -18 -2.5 -36t-5.5 -27l-3 -8l-7 -7h-358v-3q0 -100 52 -156.5t146 -56.5q48 0 88.5 14.5t56.5 28.5zM635 451q-84 0 -133 -48.5
t-56 -133.5l320 7q6 28 6 51q0 60 -35 92t-102 32zM130 120q0 -43 26.5 -67t77.5 -24q104 0 178 88q-25 52 -25 113l-136 -17q-67 -8 -94 -30.5t-27 -62.5z" />
    <glyph glyph-name="ccedilla" unicode="&#xe7;" horiz-adv-x="552" 
d="M276 -70l12 65q-104 5 -163.5 70.5t-59.5 170.5q0 110 65 176t182 66q84 0 130.5 -35t46.5 -96q0 -11 -1.5 -21t-3.5 -14l-1 -5q-14 -7 -41 -7l-7 7q6 18 6 41q0 49 -34.5 76t-96.5 27q-89 0 -138 -57t-49 -152q0 -100 52 -156.5t145 -56.5q48 0 88 14.5t56 28.5l17 15
l14 -14q-2 -3 -6.5 -8t-20.5 -18.5t-34.5 -23.5t-51 -19t-68.5 -10l-7 -48q27 0 45.5 -16.5t18.5 -43.5q0 -28 -20 -44t-51 -16q-22 0 -39.5 8.5t-24.5 17.5l-6 8l13 12q18 -19 51 -19q43 0 43 34q0 37 -55 37z" />
    <glyph glyph-name="egrave" unicode="&#xe8;" horiz-adv-x="568" 
d="M483 87l13 -14q-2 -3 -6.5 -8.5t-21 -19t-36.5 -24t-53.5 -19t-71.5 -8.5q-112 0 -177 66t-65 176q0 111 66.5 176.5t182.5 65.5q88 0 136.5 -40.5t48.5 -114.5q0 -18 -2.5 -36t-5.5 -27l-3 -8l-7 -7h-358v-3q0 -100 52 -156.5t146 -56.5q48 0 88.5 14.5t56.5 28.5z
M313 451q-84 0 -133 -48.5t-56 -133.5l320 7q6 28 6 51q0 60 -35 92t-102 32zM329 572l-6 -6h-22l-112 129v6q14 8 45 8z" />
    <glyph glyph-name="eacute" unicode="&#xe9;" horiz-adv-x="568" 
d="M483 87l13 -14q-2 -3 -6.5 -8.5t-21 -19t-36.5 -24t-53.5 -19t-71.5 -8.5q-112 0 -177 66t-65 176q0 111 66.5 176.5t182.5 65.5q88 0 136.5 -40.5t48.5 -114.5q0 -18 -2.5 -36t-5.5 -27l-3 -8l-7 -7h-358v-3q0 -100 52 -156.5t146 -56.5q48 0 88.5 14.5t56.5 28.5z
M313 451q-84 0 -133 -48.5t-56 -133.5l320 7q6 28 6 51q0 60 -35 92t-102 32zM275 566l-6 6l95 137q14 0 25 -2t15 -4l5 -2v-6l-112 -129h-22z" />
    <glyph glyph-name="ecircumflex" unicode="&#xea;" horiz-adv-x="568" 
d="M483 87l13 -14q-2 -3 -6.5 -8.5t-21 -19t-36.5 -24t-53.5 -19t-71.5 -8.5q-112 0 -177 66t-65 176q0 111 66.5 176.5t182.5 65.5q88 0 136.5 -40.5t48.5 -114.5q0 -18 -2.5 -36t-5.5 -27l-3 -8l-7 -7h-358v-3q0 -100 52 -156.5t146 -56.5q48 0 88.5 14.5t56.5 28.5z
M313 451q-84 0 -133 -48.5t-56 -133.5l320 7q6 28 6 51q0 60 -35 92t-102 32zM424 572l-6 -6h-24l-98 101l-98 -101h-23l-6 6l119 137h17z" />
    <glyph glyph-name="edieresis" unicode="&#xeb;" horiz-adv-x="568" 
d="M483 87l13 -14q-2 -3 -6.5 -8.5t-21 -19t-36.5 -24t-53.5 -19t-71.5 -8.5q-112 0 -177 66t-65 176q0 111 66.5 176.5t182.5 65.5q88 0 136.5 -40.5t48.5 -114.5q0 -18 -2.5 -36t-5.5 -27l-3 -8l-7 -7h-358v-3q0 -100 52 -156.5t146 -56.5q48 0 88.5 14.5t56.5 28.5z
M313 451q-84 0 -133 -48.5t-56 -133.5l320 7q6 28 6 51q0 60 -35 92t-102 32zM166 605q0 31 31 31q14 0 23 -8.5t9 -22.5t-9 -22.5t-23 -8.5q-31 0 -31 31zM378 605q0 31 31 31q14 0 23 -8.5t9 -22.5t-9 -22.5t-23 -8.5q-31 0 -31 31z" />
    <glyph glyph-name="igrave" unicode="&#xec;" horiz-adv-x="266" 
d="M163 572l-6 -6h-22l-111 129v6q13 8 44 8zM107 0v300q0 52 -3 93.5t-6 56.5l-3 15l7 7q14 0 26.5 2t18.5 4l6 1l7 -7v-472h-53z" />
    <glyph glyph-name="iacute" unicode="&#xed;" horiz-adv-x="266" 
d="M107 566l-6 6l95 137q14 0 25 -2t15 -4l4 -2v-6l-112 -129h-21zM107 0v300q0 52 -3 93.5t-6 56.5l-3 15l7 7q14 0 26.5 2t18.5 4l6 1l7 -7v-472h-53z" />
    <glyph glyph-name="icircumflex" unicode="&#xee;" horiz-adv-x="266" 
d="M107 0v300q0 52 -3 93.5t-6 56.5l-3 15l7 7q14 0 26.5 2t18.5 4l6 1l7 -7v-472h-53zM261 572l-6 -6h-24l-98 101l-98 -101h-23l-6 6l119 137h17z" />
    <glyph glyph-name="idieresis" unicode="&#xef;" horiz-adv-x="266" 
d="M107 0v300q0 52 -3 93.5t-6 56.5l-3 15l7 7q14 0 26.5 2t18.5 4l6 1l7 -7v-472h-53zM18 605q0 14 9 22.5t23 8.5t22.5 -8.5t8.5 -22.5t-8.5 -22.5t-22.5 -8.5t-23 8.5t-9 22.5zM186 605q0 31 31 31t31 -31t-31 -31t-31 31z" />
    <glyph glyph-name="eth" unicode="&#xf0;" horiz-adv-x="613" 
d="M264 556l-22 22l78 78q-33 28 -69.5 48t-56.5 26l-19 6l20 20q70 -18 149 -76l76 76l22 -22l-73 -73q174 -148 178 -415v-10q0 -108 -67 -175t-175 -67q-107 0 -173.5 67t-66.5 175t66.5 175t173.5 67q101 0 167 -60q-37 130 -129 217zM123 236q0 -98 50 -156.5
t132 -58.5q83 0 133.5 58.5t50.5 156.5t-50.5 156.5t-133.5 58.5q-82 0 -132 -58.5t-50 -156.5z" />
    <glyph glyph-name="ntilde" unicode="&#xf1;" horiz-adv-x="627" 
d="M468 0v335q0 57 -27 82t-89 25q-48 0 -96 -13.5t-72 -26.5l-24 -14v-388h-53v300q0 52 -3 93.5t-6 56.5l-3 15l7 7q14 0 26.5 2t18.5 4l6 1l7 -7l-3 -54l3 -3q10 7 27.5 17.5t73.5 28t113 17.5q79 0 113 -33.5t34 -105.5v-339h-53zM267 646q25 0 51 -18t46 -18t37.5 10
t24.5 20l8 9l14 -13q-1 -2 -3 -6.5t-10 -14.5t-17.5 -18t-25.5 -14.5t-33 -6.5q-25 0 -50.5 18t-46.5 18q-20 0 -37.5 -10t-24.5 -20l-8 -9l-13 13q3 7 9 17t28.5 26.5t50.5 16.5z" />
    <glyph glyph-name="ograve" unicode="&#xf2;" horiz-adv-x="613" 
d="M65 236q0 108 66.5 175t173.5 67q108 0 175 -67t67 -175t-67 -175t-175 -67q-107 0 -173.5 67t-66.5 175zM123 236q0 -98 50 -156.5t132 -58.5q83 0 133.5 58.5t50.5 156.5t-50.5 156.5t-133.5 58.5q-82 0 -132 -58.5t-50 -156.5zM336 572l-6 -6h-22l-112 129v6
q14 8 45 8z" />
    <glyph glyph-name="oacute" unicode="&#xf3;" horiz-adv-x="613" 
d="M65 236q0 108 66.5 175t173.5 67q108 0 175 -67t67 -175t-67 -175t-175 -67q-107 0 -173.5 67t-66.5 175zM123 236q0 -98 50 -156.5t132 -58.5q83 0 133.5 58.5t50.5 156.5t-50.5 156.5t-133.5 58.5q-82 0 -132 -58.5t-50 -156.5zM282 566l-6 6l96 137q13 0 24 -2t16 -4
l4 -2v-6l-112 -129h-22z" />
    <glyph glyph-name="ocircumflex" unicode="&#xf4;" horiz-adv-x="613" 
d="M65 236q0 108 66.5 175t173.5 67q108 0 175 -67t67 -175t-67 -175t-175 -67q-107 0 -173.5 67t-66.5 175zM123 236q0 -98 50 -156.5t132 -58.5q83 0 133.5 58.5t50.5 156.5t-50.5 156.5t-133.5 58.5q-82 0 -132 -58.5t-50 -156.5zM434 572l-6 -6h-24l-98 101l-98 -101
h-23l-6 6l119 137h17z" />
    <glyph glyph-name="otilde" unicode="&#xf5;" horiz-adv-x="613" 
d="M65 236q0 108 66.5 175t173.5 67q108 0 175 -67t67 -175t-67 -175t-175 -67q-107 0 -173.5 67t-66.5 175zM123 236q0 -98 50 -156.5t132 -58.5q83 0 133.5 58.5t50.5 156.5t-50.5 156.5t-133.5 58.5q-82 0 -132 -58.5t-50 -156.5zM260 646q25 0 50.5 -18t46.5 -18
q20 0 37.5 10t25.5 20l7 9l13 -13q-3 -7 -9 -17t-28.5 -26.5t-50.5 -16.5q-25 0 -50.5 18t-46.5 18q-20 0 -37.5 -10t-25.5 -20l-7 -9l-14 13q1 2 3 6.5t10 14.5t17.5 18t25.5 14.5t33 6.5z" />
    <glyph glyph-name="odieresis" unicode="&#xf6;" horiz-adv-x="613" 
d="M65 236q0 108 66.5 175t173.5 67q108 0 175 -67t67 -175t-67 -175t-175 -67q-107 0 -173.5 67t-66.5 175zM123 236q0 -98 50 -156.5t132 -58.5q83 0 133.5 58.5t50.5 156.5t-50.5 156.5t-133.5 58.5q-82 0 -132 -58.5t-50 -156.5zM169 605q0 31 31 31q14 0 23 -8.5
t9 -22.5t-9 -22.5t-23 -8.5q-31 0 -31 31zM381 605q0 31 31 31q14 0 23 -8.5t9 -22.5t-9 -22.5t-23 -8.5q-31 0 -31 31z" />
    <glyph glyph-name="divide" unicode="&#xf7;" 
d="M104 309v32h391v-32h-391zM267 160q0 14 9 23t23 9t22.5 -9t8.5 -23t-8.5 -22.5t-22.5 -8.5t-23 8.5t-9 22.5zM268 489q0 14 8.5 23t22.5 9t22.5 -9t8.5 -23t-8.5 -22.5t-22.5 -8.5t-22.5 8.5t-8.5 22.5z" />
    <glyph glyph-name="oslash" unicode="&#xf8;" horiz-adv-x="613" 
d="M123 -1l30 43q-88 66 -88 194q0 108 66.5 175t173.5 67q72 0 130 -33l29 41l23 -15l-29 -41q89 -68 89 -194q0 -108 -67 -175t-175 -67q-72 0 -129 33l-30 -43zM490 236q0 101 -55 161l-239 -341q46 -35 109 -35q83 0 134 58.5t51 156.5zM122 236q0 -101 54 -161l238 340
q-45 36 -109 36q-82 0 -132.5 -58.5t-50.5 -156.5z" />
    <glyph glyph-name="ugrave" unicode="&#xf9;" horiz-adv-x="624" 
d="M160 472v-324q0 -62 29 -90t93 -28q47 0 92.5 13.5t67.5 26.5l22 14v216q0 52 -2 93.5t-4 56.5l-2 15l7 7q13 0 25 2t17 4l5 1l7 -7v-272q0 -52 3 -100.5t6 -70.5l3 -22l-7 -7q-14 0 -26.5 -2t-18.5 -4l-6 -1l-7 7l3 54l-3 3q-9 -7 -25.5 -17.5t-69.5 -28t-108 -17.5
q-82 0 -118 37t-36 113v156q0 52 -3 93.5t-6 56.5l-3 15l7 7q14 0 26.5 2t18.5 4l6 1zM341 572l-6 -6h-21l-112 129v6q14 8 44 8z" />
    <glyph glyph-name="uacute" unicode="&#xfa;" horiz-adv-x="624" 
d="M160 472v-324q0 -62 29 -90t93 -28q47 0 92.5 13.5t67.5 26.5l22 14v216q0 52 -2 93.5t-4 56.5l-2 15l7 7q13 0 25 2t17 4l5 1l7 -7v-272q0 -52 3 -100.5t6 -70.5l3 -22l-7 -7q-14 0 -26.5 -2t-18.5 -4l-6 -1l-7 7l3 54l-3 3q-9 -7 -25.5 -17.5t-69.5 -28t-108 -17.5
q-82 0 -118 37t-36 113v156q0 52 -3 93.5t-6 56.5l-3 15l7 7q14 0 26.5 2t18.5 4l6 1zM288 566l-6 6l95 137q14 0 25 -2t15 -4l4 -2v-6l-112 -129h-21z" />
    <glyph glyph-name="ucircumflex" unicode="&#xfb;" horiz-adv-x="624" 
d="M160 472v-324q0 -62 29 -90t93 -28q47 0 92.5 13.5t67.5 26.5l22 14v216q0 52 -2 93.5t-4 56.5l-2 15l7 7q13 0 25 2t17 4l5 1l7 -7v-272q0 -52 3 -100.5t6 -70.5l3 -22l-7 -7q-14 0 -26.5 -2t-18.5 -4l-6 -1l-7 7l3 54l-3 3q-9 -7 -25.5 -17.5t-69.5 -28t-108 -17.5
q-82 0 -118 37t-36 113v156q0 52 -3 93.5t-6 56.5l-3 15l7 7q14 0 26.5 2t18.5 4l6 1zM439 572l-6 -6h-24l-97 101l-98 -101h-24l-6 6l119 137h17z" />
    <glyph glyph-name="udieresis" unicode="&#xfc;" horiz-adv-x="624" 
d="M160 472v-324q0 -62 29 -90t93 -28q47 0 92.5 13.5t67.5 26.5l22 14v216q0 52 -2 93.5t-4 56.5l-2 15l7 7q13 0 25 2t17 4l5 1l7 -7v-272q0 -52 3 -100.5t6 -70.5l3 -22l-7 -7q-14 0 -26.5 -2t-18.5 -4l-6 -1l-7 7l3 54l-3 3q-9 -7 -25.5 -17.5t-69.5 -28t-108 -17.5
q-82 0 -118 37t-36 113v156q0 52 -3 93.5t-6 56.5l-3 15l7 7q14 0 26.5 2t18.5 4l6 1zM386 605q0 14 9 22.5t23 8.5q31 0 31 -31t-31 -31q-14 0 -23 8.5t-9 22.5zM174 605q0 14 9 22.5t23 8.5q31 0 31 -31t-31 -31q-14 0 -23 8.5t-9 22.5z" />
    <glyph glyph-name="yacute" unicode="&#xfd;" horiz-adv-x="539" 
d="M506 472l-251 -550l-71 -169l-5 -5q-14 0 -27.5 3.5t-20.5 6.5l-7 4v7q53 64 99 164l31 67l-136 300q-23 52 -44.5 93.5t-31.5 57.5l-9 16l5 5l57 4l186 -418l112 242q24 52 40 94t20 58l4 15l5 5l39 5zM248 566l-6 6l95 137q14 0 25 -2t16 -4l4 -2v-6l-112 -129h-22z
" />
    <glyph glyph-name="thorn" unicode="&#xfe;" horiz-adv-x="616" 
d="M160 -250h-53v676q0 84 -3 163.5t-6 116.5l-3 37l7 7q14 0 26.5 2t18.5 4l6 1l7 -7v-277q0 -9 -0.5 -17.5t-1 -14.5t-0.5 -11v-8l-1 -3l3 -3q7 7 20.5 17.5t57.5 27.5t92 17q98 0 159.5 -64.5t61.5 -174.5q0 -113 -64 -179t-173 -66q-102 0 -154 52v-296zM493 232
q0 99 -51 154.5t-132 55.5q-40 0 -77.5 -13.5t-54.5 -26.5l-18 -14v-267q2 -45 45 -72.5t104 -27.5q83 0 133.5 56.5t50.5 154.5z" />
    <glyph glyph-name="ydieresis" unicode="&#xff;" horiz-adv-x="539" 
d="M506 472l-251 -550l-71 -169l-5 -5q-14 0 -27.5 3.5t-20.5 6.5l-7 4v7q53 64 99 164l31 67l-136 300q-23 52 -44.5 93.5t-31.5 57.5l-9 16l5 5l57 4l186 -418l112 242q24 52 40 94t20 58l4 15l5 5l39 5zM348 605q0 14 9 22.5t23 8.5q31 0 31 -31t-31 -31q-14 0 -23 8.5
t-9 22.5zM136 605q0 14 9 22.5t23 8.5q31 0 31 -31t-31 -31q-14 0 -23 8.5t-9 22.5z" />
    <glyph glyph-name="Amacron" unicode="&#x100;" horiz-adv-x="729" 
d="M164 215l-93 -215h-37l298 682l-6 11v7h61l308 -700h-58l-94 215h-379zM406 528q-34 78 -55 116l-173 -398h351zM248 804v32h230v-32h-230z" />
    <glyph glyph-name="amacron" unicode="&#x101;" horiz-adv-x="560" 
d="M276 478q164 0 164 -136v-269q0 -47 41 -47q8 0 16 2t11 4l4 3l13 -13q-21 -28 -68 -28q-63 0 -70 62q-12 -10 -30.5 -21.5t-61 -26t-85.5 -14.5q-67 0 -101 32t-34 90q0 54 37 83t133 41l142 17v92q0 102 -112 102q-61 0 -96.5 -29t-35.5 -78l5 -38l-7 -7
q-12 0 -22.5 1.5t-14.5 3.5l-4 2q-7 15 -7 39q0 60 47.5 96.5t135.5 36.5zM130 120q0 -91 103 -91q39 0 77.5 13.5t57.5 27.5l19 14v145l-136 -16q-67 -8 -94 -30t-27 -63zM158 596v31h230v-31h-230z" />
    <glyph glyph-name="Abreve" unicode="&#x102;" horiz-adv-x="729" 
d="M164 215l-93 -215h-37l298 682l-6 11v7h61l308 -700h-58l-94 215h-379zM406 528q-34 78 -55 116l-173 -398h351zM232 857l14 14q4 -7 13 -16.5t39 -26t64 -16.5t63.5 15t41.5 29l12 15l13 -14q-1 -3 -4 -8.5t-14.5 -19t-25 -24t-37 -19t-49.5 -8.5t-49 8t-37.5 20
t-24.5 23.5t-15 19.5z" />
    <glyph glyph-name="abreve" unicode="&#x103;" horiz-adv-x="560" 
d="M276 478q164 0 164 -136v-269q0 -47 41 -47q8 0 16 2t11 4l4 3l13 -13q-21 -28 -68 -28q-63 0 -70 62q-12 -10 -30.5 -21.5t-61 -26t-85.5 -14.5q-67 0 -101 32t-34 90q0 54 37 83t133 41l142 17v92q0 102 -112 102q-61 0 -96.5 -29t-35.5 -78l5 -38l-7 -7
q-12 0 -22.5 1.5t-14.5 3.5l-4 2q-7 15 -7 39q0 60 47.5 96.5t135.5 36.5zM130 120q0 -91 103 -91q39 0 77.5 13.5t57.5 27.5l19 14v145l-136 -16q-67 -8 -94 -30t-27 -63zM144 649l13 14q4 -7 13 -16.5t39.5 -26t64.5 -16.5t63 15t41 29l12 15l14 -14q-1 -3 -4 -8.5
t-14.5 -19.5t-25 -24.5t-37 -19t-49.5 -8.5q-27 0 -50 8t-37 20t-24.5 24t-14.5 20z" />
    <glyph glyph-name="Aogonek" unicode="&#x104;" horiz-adv-x="729" 
d="M164 215l-93 -215h-37l298 682l-6 11v7h61l308 -700h-12q-36 -35 -36 -82q0 -46 44 -46q11 0 20 3t13 6l3 3l13 -13q-17 -27 -57 -27q-29 0 -49.5 18.5t-20.5 52.5q0 54 41 85h-17l-94 215h-379zM406 528q-34 78 -55 116l-173 -398h351z" />
    <glyph glyph-name="aogonek" unicode="&#x105;" horiz-adv-x="560" 
d="M276 478q164 0 164 -136v-269q0 -47 41 -47q8 0 16 2t11 4l4 3l13 -13q-20 -26 -64 -28q-30 -33 -30 -76q0 -46 44 -46q11 0 20 3t13 6l4 3l13 -13q-17 -27 -57 -27q-29 0 -49.5 18.5t-20.5 52.5q0 48 37 82q-43 9 -48 59q-12 -10 -30.5 -21.5t-61 -26t-85.5 -14.5
q-67 0 -101 32t-34 90q0 54 37 83t133 41l142 17v92q0 102 -112 102q-61 0 -96.5 -29t-35.5 -78l5 -38l-7 -7q-12 0 -22.5 1.5t-14.5 3.5l-4 2q-7 15 -7 39q0 60 47.5 96.5t135.5 36.5zM130 120q0 -91 103 -91q39 0 77.5 13.5t57.5 27.5l19 14v145l-136 -16q-67 -8 -94 -30
t-27 -63z" />
    <glyph glyph-name="Cacute" unicode="&#x106;" horiz-adv-x="758" 
d="M424 678q-134 0 -211.5 -88t-77.5 -236q0 -149 79.5 -235.5t217.5 -86.5q41 0 80.5 8t66 20t47.5 24t30 20l10 8l14 -15q-3 -4 -10 -11t-30.5 -25t-51 -31.5t-73 -24.5t-94.5 -11q-157 0 -251.5 98.5t-94.5 258.5t94.5 257.5t255.5 97.5q119 0 187 -53.5t68 -143.5
q0 -16 -2.5 -28.5t-5.5 -16.5l-2 -5q-16 -6 -46 -6l-7 6q9 17 9 53q0 77 -54 121.5t-148 44.5zM385 774l-6 6l95 137q14 0 25 -2t15 -4l5 -2v-6l-112 -129h-22z" />
    <glyph glyph-name="cacute" unicode="&#x107;" horiz-adv-x="552" 
d="M481 87l14 -14q-2 -3 -6.5 -8.5t-21 -19t-36.5 -24t-53.5 -19t-71.5 -8.5q-111 0 -176 66t-65 176t65 176t182 66q84 0 130.5 -35t46.5 -96q0 -11 -1.5 -21t-3.5 -14l-1 -5q-14 -7 -41 -7l-7 7q6 18 6 41q0 49 -34.5 76t-96.5 27q-89 0 -138 -57t-49 -152
q0 -100 52 -156.5t145 -56.5q48 0 88 14.5t56 28.5zM273 566l-6 6l96 137q13 0 24 -2t15 -4l5 -2v-6l-112 -129h-22z" />
    <glyph glyph-name="Ccircumflex" unicode="&#x108;" horiz-adv-x="758" 
d="M424 678q-134 0 -211.5 -88t-77.5 -236q0 -149 79.5 -235.5t217.5 -86.5q41 0 80.5 8t66 20t47.5 24t30 20l10 8l14 -15q-3 -4 -10 -11t-30.5 -25t-51 -31.5t-73 -24.5t-94.5 -11q-157 0 -251.5 98.5t-94.5 258.5t94.5 257.5t255.5 97.5q119 0 187 -53.5t68 -143.5
q0 -16 -2.5 -28.5t-5.5 -16.5l-2 -5q-16 -6 -46 -6l-7 6q9 17 9 53q0 77 -54 121.5t-148 44.5zM536 780l-6 -6h-23l-98 102l-98 -102h-24l-6 6l119 137h17z" />
    <glyph glyph-name="ccircumflex" unicode="&#x109;" horiz-adv-x="552" 
d="M481 87l14 -14q-2 -3 -6.5 -8.5t-21 -19t-36.5 -24t-53.5 -19t-71.5 -8.5q-111 0 -176 66t-65 176t65 176t182 66q84 0 130.5 -35t46.5 -96q0 -11 -1.5 -21t-3.5 -14l-1 -5q-14 -7 -41 -7l-7 7q6 18 6 41q0 49 -34.5 76t-96.5 27q-89 0 -138 -57t-49 -152
q0 -100 52 -156.5t145 -56.5q48 0 88 14.5t56 28.5zM423 572l-6 -6h-24l-98 101l-98 -101h-23l-6 6l119 137h17z" />
    <glyph glyph-name="Cdotaccent" unicode="&#x10a;" horiz-adv-x="758" 
d="M424 678q-134 0 -211.5 -88t-77.5 -236q0 -149 79.5 -235.5t217.5 -86.5q41 0 80.5 8t66 20t47.5 24t30 20l10 8l14 -15q-3 -4 -10 -11t-30.5 -25t-51 -31.5t-73 -24.5t-94.5 -11q-157 0 -251.5 98.5t-94.5 258.5t94.5 257.5t255.5 97.5q119 0 187 -53.5t68 -143.5
q0 -16 -2.5 -28.5t-5.5 -16.5l-2 -5q-16 -6 -46 -6l-7 6q9 17 9 53q0 77 -54 121.5t-148 44.5zM375 839q0 15 9.5 24t24.5 9t24 -9t9 -24t-9 -24.5t-24 -9.5t-24.5 9.5t-9.5 24.5z" />
    <glyph glyph-name="cdotaccent" unicode="&#x10b;" horiz-adv-x="552" 
d="M481 87l14 -14q-2 -3 -6.5 -8.5t-21 -19t-36.5 -24t-53.5 -19t-71.5 -8.5q-111 0 -176 66t-65 176t65 176t182 66q84 0 130.5 -35t46.5 -96q0 -11 -1.5 -21t-3.5 -14l-1 -5q-14 -7 -41 -7l-7 7q6 18 6 41q0 49 -34.5 76t-96.5 27q-89 0 -138 -57t-49 -152
q0 -100 52 -156.5t145 -56.5q48 0 88 14.5t56 28.5zM267 627q0 15 9 24t24 9t24 -9t9 -24t-9 -24.5t-24 -9.5t-24 9.5t-9 24.5z" />
    <glyph glyph-name="Ccaron" unicode="&#x10c;" horiz-adv-x="758" 
d="M424 678q-134 0 -211.5 -88t-77.5 -236q0 -149 79.5 -235.5t217.5 -86.5q41 0 80.5 8t66 20t47.5 24t30 20l10 8l14 -15q-3 -4 -10 -11t-30.5 -25t-51 -31.5t-73 -24.5t-94.5 -11q-157 0 -251.5 98.5t-94.5 258.5t94.5 257.5t255.5 97.5q119 0 187 -53.5t68 -143.5
q0 -16 -2.5 -28.5t-5.5 -16.5l-2 -5q-16 -6 -46 -6l-7 6q9 17 9 53q0 77 -54 121.5t-148 44.5zM530 912l6 -6l-119 -137h-17l-119 137l6 6h24l98 -101l98 101h23z" />
    <glyph glyph-name="ccaron" unicode="&#x10d;" horiz-adv-x="552" 
d="M481 87l14 -14q-2 -3 -6.5 -8.5t-21 -19t-36.5 -24t-53.5 -19t-71.5 -8.5q-111 0 -176 66t-65 176t65 176t182 66q84 0 130.5 -35t46.5 -96q0 -11 -1.5 -21t-3.5 -14l-1 -5q-14 -7 -41 -7l-7 7q6 18 6 41q0 49 -34.5 76t-96.5 27q-89 0 -138 -57t-49 -152
q0 -100 52 -156.5t145 -56.5q48 0 88 14.5t56 28.5zM417 704l6 -6l-119 -137h-17l-119 137l6 6h23l98 -101l98 101h24z" />
    <glyph glyph-name="Dcaron" unicode="&#x10e;" horiz-adv-x="789" 
d="M116 0v700h257q152 0 246.5 -97t94.5 -253t-94.5 -253t-246.5 -97h-257zM371 669h-200v-638h200q127 0 205 87t78 232t-78 232t-205 87zM514 912l6 -6l-119 -137h-17l-119 137l6 6h24l98 -101l97 101h24z" />
    <glyph glyph-name="dcaron" unicode="&#x10f;" horiz-adv-x="660" 
d="M443 743l7 7q14 0 27 2t19 4l6 1l7 -7v-447q0 -84 3 -158t6 -106l3 -32l-7 -7q-14 0 -27 -2t-19 -4l-6 -1l-6 7l3 52l-3 4q-7 -7 -20 -17.5t-56.5 -27.5t-91.5 -17q-98 0 -160.5 64t-62.5 174q0 112 64 179t174 67q100 0 153 -53v25q0 84 -3 157.5t-7 104.5zM123 239
q0 -99 51.5 -154t133.5 -55q40 0 77 13.5t54 26.5l17 14v266q-2 44 -45 72t-104 28q-84 0 -134 -57t-50 -154zM598 583l-11 11q5 5 12.5 14.5t19.5 41t12 63.5q0 11 -1.5 20.5t-3.5 13.5l-1 4l4 4q12 0 22 -1.5t15 -3.5l4 -2q4 -8 4 -26q0 -25 -8 -48t-19 -39t-22 -28
t-19 -18z" />
    <glyph glyph-name="Dcroat" unicode="&#x110;" horiz-adv-x="789" 
d="M42 344v31h74v325h257q152 0 246.5 -97t94.5 -253t-94.5 -253t-246.5 -97h-257v344h-74zM371 669h-200v-294h180v-31h-180v-313h200q127 0 205 87t78 232t-78 232t-205 87z" />
    <glyph glyph-name="dcroat" unicode="&#x111;" horiz-adv-x="616" 
d="M301 589v31h151l-9 123l7 7q14 0 27 2t19 4l6 1l7 -7v-130h73v-31h-73v-286q0 -84 3 -158t6 -106l3 -32l-7 -7q-14 0 -27 -2t-19 -4l-6 -1l-6 7l3 52l-3 4q-7 -7 -20 -17.5t-56.5 -27.5t-91.5 -17q-98 0 -160.5 64t-62.5 174q0 112 64 179t174 67q100 0 153 -53v25
q0 79 -3 139h-152zM123 239q0 -99 51.5 -154t133.5 -55q40 0 77 13.5t54 26.5l17 14v262q0 45 -43.5 74.5t-105.5 29.5q-84 0 -134 -57t-50 -154z" />
    <glyph glyph-name="Emacron" unicode="&#x112;" horiz-adv-x="631" 
d="M116 0v700h433v-37l-7 -6q-47 13 -165 13h-206v-299h318l6 -5v-26h-324v-310h216q52 0 93.5 3t56.5 7l15 3l7 -6v-37h-443zM218 804v32h230v-32h-230z" />
    <glyph glyph-name="emacron" unicode="&#x113;" horiz-adv-x="568" 
d="M483 87l13 -14q-2 -3 -6.5 -8.5t-21 -19t-36.5 -24t-53.5 -19t-71.5 -8.5q-112 0 -177 66t-65 176q0 111 66.5 176.5t182.5 65.5q88 0 136.5 -40.5t48.5 -114.5q0 -18 -2.5 -36t-5.5 -27l-3 -8l-7 -7h-358v-3q0 -100 52 -156.5t146 -56.5q48 0 88.5 14.5t56.5 28.5z
M313 451q-84 0 -133 -48.5t-56 -133.5l320 7q6 28 6 51q0 60 -35 92t-102 32zM183 596v31h229v-31h-229z" />
    <glyph glyph-name="Ebreve" unicode="&#x114;" horiz-adv-x="631" 
d="M116 0v700h433v-37l-7 -6q-47 13 -165 13h-206v-299h318l6 -5v-26h-324v-310h216q52 0 93.5 3t56.5 7l15 3l7 -6v-37h-443zM204 857l13 14q4 -7 13 -16.5t39.5 -26t64.5 -16.5t63 15t41 29l12 15l13 -14q-1 -3 -4 -8.5t-14 -19t-24.5 -24t-37 -19t-49.5 -8.5
q-42 0 -74.5 20t-43.5 40z" />
    <glyph glyph-name="ebreve" unicode="&#x115;" horiz-adv-x="568" 
d="M483 87l13 -14q-2 -3 -6.5 -8.5t-21 -19t-36.5 -24t-53.5 -19t-71.5 -8.5q-112 0 -177 66t-65 176q0 111 66.5 176.5t182.5 65.5q88 0 136.5 -40.5t48.5 -114.5q0 -18 -2.5 -36t-5.5 -27l-3 -8l-7 -7h-358v-3q0 -100 52 -156.5t146 -56.5q48 0 88.5 14.5t56.5 28.5z
M313 451q-84 0 -133 -48.5t-56 -133.5l320 7q6 28 6 51q0 60 -35 92t-102 32zM168 649l13 14q4 -7 13 -16.5t39.5 -26t64.5 -16.5t63.5 15t41.5 29l12 15l13 -14q-1 -3 -4 -8.5t-14.5 -19.5t-25 -24.5t-37 -19t-49.5 -8.5t-49 8t-37.5 20t-24.5 24t-15 20z" />
    <glyph glyph-name="Edotaccent" unicode="&#x116;" horiz-adv-x="631" 
d="M116 0v700h433v-37l-7 -6q-47 13 -165 13h-206v-299h318l6 -5v-26h-324v-310h216q52 0 93.5 3t56.5 7l15 3l7 -6v-37h-443zM300 839q0 15 9.5 24t24.5 9q14 0 23.5 -9t9.5 -24t-9.5 -24.5t-23.5 -9.5q-15 0 -24.5 9.5t-9.5 24.5z" />
    <glyph glyph-name="edotaccent" unicode="&#x117;" horiz-adv-x="568" 
d="M483 87l13 -14q-2 -3 -6.5 -8.5t-21 -19t-36.5 -24t-53.5 -19t-71.5 -8.5q-112 0 -177 66t-65 176q0 111 66.5 176.5t182.5 65.5q88 0 136.5 -40.5t48.5 -114.5q0 -18 -2.5 -36t-5.5 -27l-3 -8l-7 -7h-358v-3q0 -100 52 -156.5t146 -56.5q48 0 88.5 14.5t56.5 28.5z
M313 451q-84 0 -133 -48.5t-56 -133.5l320 7q6 28 6 51q0 60 -35 92t-102 32zM266 627q0 15 9 24t24 9t24 -9t9 -24t-9 -24.5t-24 -9.5t-24 9.5t-9 24.5z" />
    <glyph glyph-name="Eogonek" unicode="&#x118;" horiz-adv-x="631" 
d="M116 0v700h433v-37l-7 -6q-47 13 -165 13h-206v-299h318l6 -5v-26h-324v-310h216q52 0 93.5 3t56.5 7l15 3l7 -6v-37h-58q-35 -35 -35 -82q0 -46 43 -46q11 0 20 3t13 6l4 3l13 -13q-17 -27 -57 -27q-29 0 -49.5 18.5t-20.5 52.5q0 54 41 85h-357z" />
    <glyph glyph-name="eogonek" unicode="&#x119;" horiz-adv-x="568" 
d="M483 87l13 -14q-30 -41 -94 -64q-35 -35 -35 -81t44 -46q11 0 20 3t13 6l3 3l14 -13q-18 -27 -57 -27q-30 0 -50.5 18.5t-20.5 52.5q0 42 31 75q-27 -6 -57 -6q-112 0 -177 66t-65 176q0 111 66.5 176.5t182.5 65.5q88 0 136.5 -40.5t48.5 -114.5q0 -18 -2.5 -36
t-5.5 -27l-3 -8l-7 -7h-358v-3q0 -100 52 -156.5t146 -56.5q48 0 88.5 14.5t56.5 28.5zM313 451q-84 0 -133 -48.5t-56 -133.5l320 7q6 28 6 51q0 60 -35 92t-102 32z" />
    <glyph glyph-name="Ecaron" unicode="&#x11a;" horiz-adv-x="631" 
d="M116 0v700h433v-37l-7 -6q-47 13 -165 13h-206v-299h318l6 -5v-26h-324v-310h216q52 0 93.5 3t56.5 7l15 3l7 -6v-37h-443zM455 921l6 -6l-119 -137h-17l-119 137l6 6h24l98 -102l97 102h24z" />
    <glyph glyph-name="ecaron" unicode="&#x11b;" horiz-adv-x="568" 
d="M483 87l13 -14q-2 -3 -6.5 -8.5t-21 -19t-36.5 -24t-53.5 -19t-71.5 -8.5q-112 0 -177 66t-65 176q0 111 66.5 176.5t182.5 65.5q88 0 136.5 -40.5t48.5 -114.5q0 -18 -2.5 -36t-5.5 -27l-3 -8l-7 -7h-358v-3q0 -100 52 -156.5t146 -56.5q48 0 88.5 14.5t56.5 28.5z
M313 451q-84 0 -133 -48.5t-56 -133.5l320 7q6 28 6 51q0 60 -35 92t-102 32zM418 704l6 -6l-119 -137h-17l-119 137l6 6h23l98 -101l98 101h24z" />
    <glyph glyph-name="Gcircumflex" unicode="&#x11c;" horiz-adv-x="774" 
d="M508 303v25h115q14 0 26.5 2t18.5 4l5 1l7 -7v-238q-3 -4 -10 -10.5t-31 -23t-51 -29t-72 -23t-94 -10.5q-158 0 -252.5 98t-94.5 259q0 160 94.5 257.5t257.5 97.5q117 0 184.5 -51t67.5 -139q0 -16 -2.5 -28.5t-4.5 -17.5l-2 -4q-17 -7 -47 -7l-6 7q8 17 8 53
q0 76 -53 117.5t-146 41.5q-135 0 -213 -87.5t-78 -235.5q0 -149 79.5 -238t215.5 -89q108 0 199 56v77q0 88 -8 136h-107zM536 780l-6 -6h-23l-98 102l-98 -102h-24l-6 6l119 137h17z" />
    <glyph glyph-name="gcircumflex" unicode="&#x11d;" horiz-adv-x="566" 
d="M107 -21l6 -7q-19 -31 -19 -76q0 -60 46 -91.5t129 -31.5q91 0 148.5 36t57.5 92q0 23 -10.5 39t-25 25t-41.5 14.5t-47 7.5t-54 4q-43 3 -63.5 4.5t-50.5 5.5t-44 10.5t-29 16.5t-20.5 26t-5.5 37q0 68 53 110q-55 46 -55 117t54.5 115.5t141.5 44.5q64 0 112 -25
q71 54 144 54q7 -19 7 -52l-7 -7q-13 9 -40 9q-36 0 -76 -21q57 -44 57 -118q0 -72 -54.5 -116.5t-142.5 -44.5q-69 0 -117 28q-36 -31 -36 -76q0 -16 4.5 -27t17 -18.5t24 -12t35.5 -7.5t41.5 -4t51.5 -3q44 -2 70.5 -4.5t58.5 -10t49.5 -19.5t29.5 -33t12 -51
q0 -79 -72 -127t-189 -48q-100 0 -156.5 38.5t-56.5 111.5q0 23 5 42.5t10 27.5l5 8q14 7 42 7zM136 318q0 -60 39.5 -96.5t102.5 -36.5q64 0 104 36.5t40 96.5t-40 96.5t-104 36.5q-63 0 -102.5 -36.5t-39.5 -96.5zM406 572l-6 -6h-24l-98 101l-98 -101h-23l-6 6l119 137
h17z" />
    <glyph glyph-name="Gbreve" unicode="&#x11e;" horiz-adv-x="774" 
d="M508 303v25h115q14 0 26.5 2t18.5 4l5 1l7 -7v-238q-3 -4 -10 -10.5t-31 -23t-51 -29t-72 -23t-94 -10.5q-158 0 -252.5 98t-94.5 259q0 160 94.5 257.5t257.5 97.5q117 0 184.5 -51t67.5 -139q0 -16 -2.5 -28.5t-4.5 -17.5l-2 -4q-17 -7 -47 -7l-6 7q8 17 8 53
q0 76 -53 117.5t-146 41.5q-135 0 -213 -87.5t-78 -235.5q0 -149 79.5 -238t215.5 -89q108 0 199 56v77q0 88 -8 136h-107zM279 857l13 14q4 -7 13 -16.5t39.5 -26t64.5 -16.5t63 15t41 29l12 15l14 -14q-1 -3 -4 -8.5t-14.5 -19t-25 -24t-37 -19t-49.5 -8.5q-42 0 -74.5 20
t-44.5 40z" />
    <glyph glyph-name="gbreve" unicode="&#x11f;" horiz-adv-x="566" 
d="M107 -21l6 -7q-19 -31 -19 -76q0 -60 46 -91.5t129 -31.5q91 0 148.5 36t57.5 92q0 23 -10.5 39t-25 25t-41.5 14.5t-47 7.5t-54 4q-43 3 -63.5 4.5t-50.5 5.5t-44 10.5t-29 16.5t-20.5 26t-5.5 37q0 68 53 110q-55 46 -55 117t54.5 115.5t141.5 44.5q64 0 112 -25
q71 54 144 54q7 -19 7 -52l-7 -7q-13 9 -40 9q-36 0 -76 -21q57 -44 57 -118q0 -72 -54.5 -116.5t-142.5 -44.5q-69 0 -117 28q-36 -31 -36 -76q0 -16 4.5 -27t17 -18.5t24 -12t35.5 -7.5t41.5 -4t51.5 -3q44 -2 70.5 -4.5t58.5 -10t49.5 -19.5t29.5 -33t12 -51
q0 -79 -72 -127t-189 -48q-100 0 -156.5 38.5t-56.5 111.5q0 23 5 42.5t10 27.5l5 8q14 7 42 7zM136 318q0 -60 39.5 -96.5t102.5 -36.5q64 0 104 36.5t40 96.5t-40 96.5t-104 36.5q-63 0 -102.5 -36.5t-39.5 -96.5zM147 649l14 14q4 -7 13 -16.5t39 -26t64 -16.5t63.5 15
t41.5 29l12 15l13 -14q-1 -3 -4 -8.5t-14.5 -19.5t-25 -24.5t-37 -19t-49.5 -8.5t-49 8t-37.5 20t-24.5 24t-14 20z" />
    <glyph glyph-name="Gdotaccent" unicode="&#x120;" horiz-adv-x="774" 
d="M508 303v25h115q14 0 26.5 2t18.5 4l5 1l7 -7v-238q-3 -4 -10 -10.5t-31 -23t-51 -29t-72 -23t-94 -10.5q-158 0 -252.5 98t-94.5 259q0 160 94.5 257.5t257.5 97.5q117 0 184.5 -51t67.5 -139q0 -16 -2.5 -28.5t-4.5 -17.5l-2 -4q-17 -7 -47 -7l-6 7q8 17 8 53
q0 76 -53 117.5t-146 41.5q-135 0 -213 -87.5t-78 -235.5q0 -149 79.5 -238t215.5 -89q108 0 199 56v77q0 88 -8 136h-107zM375 839q0 15 9.5 24t24.5 9t24 -9t9 -24t-9 -24.5t-24 -9.5t-24.5 9.5t-9.5 24.5z" />
    <glyph glyph-name="gdotaccent" unicode="&#x121;" horiz-adv-x="566" 
d="M107 -21l6 -7q-19 -31 -19 -76q0 -60 46 -91.5t129 -31.5q91 0 148.5 36t57.5 92q0 23 -10.5 39t-25 25t-41.5 14.5t-47 7.5t-54 4q-43 3 -63.5 4.5t-50.5 5.5t-44 10.5t-29 16.5t-20.5 26t-5.5 37q0 68 53 110q-55 46 -55 117t54.5 115.5t141.5 44.5q64 0 112 -25
q71 54 144 54q7 -19 7 -52l-7 -7q-13 9 -40 9q-36 0 -76 -21q57 -44 57 -118q0 -72 -54.5 -116.5t-142.5 -44.5q-69 0 -117 28q-36 -31 -36 -76q0 -16 4.5 -27t17 -18.5t24 -12t35.5 -7.5t41.5 -4t51.5 -3q44 -2 70.5 -4.5t58.5 -10t49.5 -19.5t29.5 -33t12 -51
q0 -79 -72 -127t-189 -48q-100 0 -156.5 38.5t-56.5 111.5q0 23 5 42.5t10 27.5l5 8q14 7 42 7zM136 318q0 -60 39.5 -96.5t102.5 -36.5q64 0 104 36.5t40 96.5t-40 96.5t-104 36.5q-63 0 -102.5 -36.5t-39.5 -96.5zM245 627q0 15 9 24t24 9t24.5 -9t9.5 -24t-9.5 -24.5
t-24.5 -9.5t-24 9.5t-9 24.5z" />
    <glyph glyph-name="Gcommaaccent" unicode="&#x122;" horiz-adv-x="774" 
d="M508 303v25h115q14 0 26.5 2t18.5 4l5 1l7 -7v-238q-3 -4 -10 -10.5t-31 -23t-51 -29t-72 -23t-94 -10.5q-158 0 -252.5 98t-94.5 259q0 160 94.5 257.5t257.5 97.5q117 0 184.5 -51t67.5 -139q0 -16 -2.5 -28.5t-4.5 -17.5l-2 -4q-17 -7 -47 -7l-6 7q8 17 8 53
q0 76 -53 117.5t-146 41.5q-135 0 -213 -87.5t-78 -235.5q0 -149 79.5 -238t215.5 -89q108 0 199 56v77q0 88 -8 136h-107zM369 -233l-12 11q5 5 12.5 14.5t19.5 40.5t12 64q0 11 -1.5 20t-3.5 13l-1 4l5 5q12 0 22 -1.5t14 -3.5l5 -2q3 -9 3 -26q0 -39 -19 -74t-37 -50z
" />
    <glyph glyph-name="gcommaaccent" unicode="&#x123;" horiz-adv-x="566" 
d="M107 -21l6 -7q-19 -31 -19 -76q0 -60 46 -91.5t129 -31.5q91 0 148.5 36t57.5 92q0 23 -10.5 39t-25 25t-41.5 14.5t-47 7.5t-54 4q-43 3 -63.5 4.5t-50.5 5.5t-44 10.5t-29 16.5t-20.5 26t-5.5 37q0 68 53 110q-55 46 -55 117t54.5 115.5t141.5 44.5q64 0 112 -25
q71 54 144 54q7 -19 7 -52l-7 -7q-13 9 -40 9q-36 0 -76 -21q57 -44 57 -118q0 -72 -54.5 -116.5t-142.5 -44.5q-69 0 -117 28q-36 -31 -36 -76q0 -16 4.5 -27t17 -18.5t24 -12t35.5 -7.5t41.5 -4t51.5 -3q44 -2 70.5 -4.5t58.5 -10t49.5 -19.5t29.5 -33t12 -51
q0 -79 -72 -127t-189 -48q-100 0 -156.5 38.5t-56.5 111.5q0 23 5 42.5t10 27.5l5 8q14 7 42 7zM136 318q0 -60 39.5 -96.5t102.5 -36.5q64 0 104 36.5t40 96.5t-40 96.5t-104 36.5q-63 0 -102.5 -36.5t-39.5 -96.5zM320 708l11 -11q-5 -5 -12.5 -14.5t-19.5 -41t-12 -63.5
q0 -11 1.5 -20.5t3.5 -13.5l1 -4l-4 -4q-12 0 -22 2t-15 4l-4 1q-4 9 -4 26q0 25 8 48t19 39t22 28t19 18z" />
    <glyph glyph-name="Hcircumflex" unicode="&#x124;" horiz-adv-x="803" 
d="M631 0v340h-460v-340h-55v700h55v-329h460v329h55v-700h-55zM529 780l-6 -6h-24l-98 102l-98 -102h-23l-6 6l119 137h17z" />
    <glyph glyph-name="hcircumflex" unicode="&#x125;" horiz-adv-x="626" 
d="M106 0v426q0 84 -3 163.5t-6 116.5l-3 37l7 7q14 0 27 2t19 4l6 1l6 -7v-277l-3 -55l3 -3q10 7 27.5 17.5t74 28t113.5 17.5q78 0 112 -34t34 -105v-339h-53v335q0 57 -27 82t-89 25q-48 0 -96 -13.5t-72 -26.5l-24 -14v-388h-53zM259 778l-6 -6h-23l-98 101l-98 -101
h-24l-6 6l119 137h17z" />
    <glyph glyph-name="Hbar" unicode="&#x126;" horiz-adv-x="803" 
d="M631 0v340h-460v-340h-55v529h-74v31h74v140h55v-140h460v140h55v-140h75v-31h-75v-529h-55zM171 529v-158h460v158h-460z" />
    <glyph glyph-name="hbar" unicode="&#x127;" horiz-adv-x="629" 
d="M22 602v15l87 19v114h53v-119h182v-29h-182v-129l-3 -55l3 -3q10 7 27.5 17.5t73.5 28t113 17.5q79 0 113 -33.5t34 -105.5v-339h-54v335q0 57 -26.5 82t-88.5 25q-48 0 -96 -13.5t-72 -26.5l-24 -14v-388h-53v602h-87z" />
    <glyph glyph-name="Itilde" unicode="&#x128;" horiz-adv-x="287" 
d="M116 0v700h55v-700h-55zM98 854q25 0 50.5 -18t46.5 -18q20 0 37.5 10t25.5 20l7 9l14 -13q-1 -2 -3 -6.5t-10 -14.5t-17.5 -18t-25.5 -14.5t-33 -6.5q-25 0 -50.5 18t-46.5 18q-20 0 -37.5 -10t-25.5 -20l-7 -9l-13 13q3 7 9 17t28.5 26.5t50.5 16.5z" />
    <glyph glyph-name="itilde" unicode="&#x129;" horiz-adv-x="266" 
d="M88 646q25 0 50.5 -18t46.5 -18q20 0 37.5 10t25.5 20l7 9l13 -13q-3 -7 -9 -17t-28.5 -26.5t-50.5 -16.5q-25 0 -51 18t-46 18t-37.5 -10t-25.5 -20l-7 -9l-14 13q1 2 3 6.5t10 14.5t17.5 18t25.5 14.5t33 6.5zM107 0v300q0 52 -3 93.5t-6 56.5l-3 15l7 7q14 0 26.5 2
t18.5 4l6 1l7 -7v-472h-53z" />
    <glyph glyph-name="Imacron" unicode="&#x12a;" horiz-adv-x="287" 
d="M116 0v700h55v-700h-55zM29 804v32h230v-32h-230z" />
    <glyph glyph-name="imacron" unicode="&#x12b;" horiz-adv-x="266" 
d="M19 596v31h230v-31h-230zM107 0v300q0 52 -3 93.5t-6 56.5l-3 15l7 7q14 0 26.5 2t18.5 4l6 1l7 -7v-472h-53z" />
    <glyph glyph-name="Ibreve" unicode="&#x12c;" horiz-adv-x="287" 
d="M116 0v700h55v-700h-55zM14 857l13 14q4 -7 13 -16.5t39.5 -26t64.5 -16.5t63 15t41 29l12 15l14 -14q-1 -3 -4 -8.5t-14.5 -19t-25 -24t-37 -19t-49.5 -8.5q-42 0 -74.5 20t-43.5 40z" />
    <glyph glyph-name="ibreve" unicode="&#x12d;" horiz-adv-x="266" 
d="M3 649l13 14q4 -7 13 -16.5t39 -26t64 -16.5t63.5 15t41.5 29l12 15l13 -14q-1 -3 -4 -8.5t-14.5 -19.5t-25 -24.5t-36.5 -19t-50 -8.5q-26 0 -49 8t-37 20t-24.5 24t-14.5 20zM107 0v300q0 52 -3 93.5t-6 56.5l-3 15l7 7q14 0 26.5 2t18.5 4l6 1l7 -7v-472h-53z" />
    <glyph glyph-name="Iogonek" unicode="&#x12e;" horiz-adv-x="287" 
d="M116 0v700h55v-700h-10q-36 -35 -36 -82q0 -46 44 -46q11 0 20 3t13 6l3 3l14 -13q-18 -27 -58 -27q-29 0 -49.5 18.5t-20.5 52.5q0 53 42 85h-17z" />
    <glyph glyph-name="iogonek" unicode="&#x12f;" horiz-adv-x="266" 
d="M107 0v300q0 52 -3 93.5t-6 56.5l-3 15l7 7q14 0 26.5 2t18.5 4l6 1l7 -7v-472h-9q-36 -35 -36 -82q0 -46 44 -46q11 0 20 3t13 6l3 3l14 -13q-18 -27 -57 -27q-30 0 -50.5 18.5t-20.5 52.5q0 53 42 85h-16zM94 631q0 17 10 27.5t27 10.5t27.5 -10.5t10.5 -27.5
t-10.5 -27.5t-27.5 -10.5t-27 10.5t-10 27.5z" />
    <glyph glyph-name="Idotaccent" unicode="&#x130;" horiz-adv-x="287" 
d="M116 0v700h55v-700h-55zM107 842q0 16 10.5 26.5t26.5 10.5t26 -10t10 -27t-10 -27t-26 -10t-26.5 10.5t-10.5 26.5z" />
    <glyph glyph-name="dotlessi" unicode="&#x131;" horiz-adv-x="266" 
d="M107 0v300q0 52 -3 93.5t-6 56.5l-3 15l7 7q14 0 26.5 2t18.5 4l6 1l7 -7v-472h-53z" />
    <glyph glyph-name="IJ" unicode="&#x132;" horiz-adv-x="643" 
d="M116 325v375h55v-375h-55zM301 22q83 0 126.5 56t43.5 165v457h55v-457q0 -120 -59 -184.5t-168 -64.5q-90 0 -141.5 41t-51.5 109q0 16 3 31t6 21l3 7q16 7 46 7l8 -7q-11 -24 -11 -59q0 -57 37.5 -89.5t102.5 -32.5z" />
    <glyph glyph-name="ij" unicode="&#x133;" horiz-adv-x="533" 
d="M107 0v300q0 52 -3 93.5t-6 56.5l-3 15l7 7q14 0 26.5 2t18.5 4l6 1l7 -7v-472h-53zM94 631q0 17 10 27.5t27 10.5t27.5 -10.5t10.5 -27.5t-10.5 -27.5t-27.5 -10.5t-27 10.5t-10 27.5zM374 -36v336q0 52 -3 93.5t-7 56.5l-3 15l7 7q14 0 27 2t19 4l6 1l7 -7v-495
q0 -46 -15 -87t-36.5 -67t-43 -45t-36.5 -27l-15 -8l-14 13q4 3 11.5 8.5t26 25t32.5 41.5t25.5 58t11.5 75zM360 631q0 17 10.5 27.5t27.5 10.5t27 -10.5t10 -27.5t-10 -27.5t-27 -10.5t-27.5 10.5t-10.5 27.5z" />
    <glyph glyph-name="Jcircumflex" unicode="&#x134;" horiz-adv-x="532" 
d="M360 210v490h56v-488q0 -218 -198 -218q-52 0 -94 15t-58 30l-16 15q0 16 6 29.5t12 19.5l6 6h8q2 -4 5 -9.5t15 -20.5t26.5 -26.5t39 -21t52.5 -9.5q140 0 140 188zM516 797l-6 -6h-23l-98 101l-98 -101h-24l-6 6l119 137h17z" />
    <glyph glyph-name="jcircumflex" unicode="&#x135;" horiz-adv-x="266" 
d="M107 -36v336q0 52 -3 93.5t-6 56.5l-3 15l7 7q14 0 26.5 2t18.5 4l6 1l7 -7v-495q0 -46 -15 -87t-36.5 -67t-43 -45t-36.5 -27l-15 -8l-13 13q4 3 11.5 8.5t25.5 25t32 41.5t25.5 58t11.5 75zM261 572l-6 -6h-24l-98 101l-98 -101h-23l-6 6l119 137h17z" />
    <glyph glyph-name="Kcommaaccent" unicode="&#x136;" horiz-adv-x="663" 
d="M116 0v700h55v-319h63l301 319h44l-300 -319l156 -181q47 -53 92.5 -101.5t67.5 -70.5l22 -21v-7h-68l-313 350h-65v-350h-55zM299 -233l-11 11q5 5 12 14.5t19 40.5t12 64l-5 37l4 5q12 0 22 -1.5t14 -3.5l5 -2q3 -9 3 -26q0 -39 -19 -74t-37 -50z" />
    <glyph glyph-name="kcommaaccent" unicode="&#x137;" horiz-adv-x="510" 
d="M106 0v450q0 84 -3 157.5t-6 104.5l-3 31l7 7q14 0 27 2t19 4l6 1l6 -7v-483l57 5l23 25q48 51 84.5 93.5t48.5 59.5l12 16l10 6h51l-192 -209l53 -71q44 -53 84.5 -99t58.5 -65l18 -20v-8q-16 0 -29.5 -1.5t-19.5 -2.5l-6 -2l-207 248h-46v-242h-53zM227 -233l-11 11
q5 5 12 14.5t19 40.5t12 64l-5 37l4 5q12 0 22 -1.5t14 -3.5l5 -2q3 -9 3 -26q0 -39 -19 -74t-37 -50z" />
    <glyph glyph-name="Lacute" unicode="&#x139;" horiz-adv-x="582" 
d="M116 0v700h55v-670h194q53 0 94 3t56 7l15 3l7 -6v-37h-421zM110 774l-6 6l95 137q14 0 25 -2t16 -4l4 -2v-6l-112 -129h-22z" />
    <glyph glyph-name="lacute" unicode="&#x13a;" horiz-adv-x="266" 
d="M106 0v450q0 84 -3 157.5t-6 104.5l-3 31l7 7q14 0 27 2t19 4l6 1l6 -7v-750h-53zM109 788l-6 6l95 137q14 0 25 -2t15 -4l5 -2v-6l-112 -129h-22z" />
    <glyph glyph-name="Lcommaaccent" unicode="&#x13b;" horiz-adv-x="582" 
d="M116 0v700h55v-670h194q53 0 94 3t56 7l15 3l7 -6v-37h-421zM275 -233l-11 11q5 5 12 14.5t19 40.5t12 64l-5 37l4 5q12 0 22 -1.5t14 -3.5l5 -2q3 -9 3 -26q0 -39 -19 -74t-37 -50z" />
    <glyph glyph-name="lcommaaccent" unicode="&#x13c;" horiz-adv-x="266" 
d="M106 0v450q0 84 -3 157.5t-6 104.5l-3 31l7 7q14 0 27 2t19 4l6 1l6 -7v-750h-53zM92 -233l-12 11q5 5 12.5 14.5t19.5 40.5t12 64q0 11 -1.5 20t-2.5 13l-2 4l5 5q12 0 22 -1.5t15 -3.5l4 -2q3 -9 3 -26q0 -25 -7.5 -48t-18.5 -39t-22.5 -28t-18.5 -18z" />
    <glyph glyph-name="Lcaron" unicode="&#x13d;" horiz-adv-x="582" 
d="M116 0v700h55v-670h194q53 0 94 3t56 7l15 3l7 -6v-37h-421zM398 534l-11 11q5 5 12.5 14.5t19.5 41t12 63.5q0 11 -1.5 20.5t-3.5 13.5l-1 4l5 4q12 0 22 -2t14 -4l4 -1q4 -8 4 -26q0 -25 -8 -48t-19 -39t-22 -28t-19 -18z" />
    <glyph glyph-name="lcaron" unicode="&#x13e;" horiz-adv-x="311" 
d="M106 0v450q0 84 -3 157.5t-6 104.5l-3 31l7 7q14 0 27 2t19 4l6 1l6 -7v-750h-53zM249 581l-12 11q5 5 12.5 14.5t19.5 41t12 63.5q0 11 -1.5 20.5t-3.5 13.5l-1 4l5 4q12 0 22 -1.5t14 -3.5l5 -2q3 -8 3 -26q0 -39 -19 -74t-37 -50z" />
    <glyph glyph-name="Ldot" unicode="&#x13f;" horiz-adv-x="582" 
d="M116 0v700h55v-670h194q53 0 94 3t56 7l15 3l7 -6v-37h-421zM399 350q0 16 9.5 25.5t25.5 9.5t26 -9.5t10 -25.5t-10 -25.5t-26 -9.5t-25.5 9.5t-9.5 25.5z" />
    <glyph glyph-name="ldot" unicode="&#x140;" horiz-adv-x="349" 
d="M106 0v450q0 84 -3 157.5t-6 104.5l-3 31l7 7q14 0 27 2t19 4l6 1l6 -7v-750h-53zM273 325q0 16 9.5 25.5t25.5 9.5t25.5 -9.5t9.5 -25.5t-9.5 -25.5t-25.5 -9.5t-25.5 9.5t-9.5 25.5z" />
    <glyph glyph-name="Lslash" unicode="&#x141;" horiz-adv-x="586" 
d="M38 277l-14 24l97 56v343h55v-312l101 59l13 -25l-114 -66v-326h194q52 0 93.5 3t56.5 7l15 3l7 -6v-37h-421v325z" />
    <glyph glyph-name="lslash" unicode="&#x142;" horiz-adv-x="273" 
d="M38 277l-14 24l86 49v100q0 84 -3 157.5t-6 104.5l-3 31l6 7q14 0 27 2t19 4l6 1l7 -7v-369l72 42l13 -24l-85 -50v-349h-53v319z" />
    <glyph glyph-name="Nacute" unicode="&#x143;" horiz-adv-x="794" 
d="M116 0v420q0 80 -3 148t-6 96l-3 29l7 7h23l509 -605v605h35v-700h-20l-509 604v-604h-33zM373 774l-6 6l95 137q13 0 24 -2t16 -4l4 -2v-6l-112 -129h-21z" />
    <glyph glyph-name="nacute" unicode="&#x144;" horiz-adv-x="627" 
d="M468 0v335q0 57 -27 82t-89 25q-48 0 -96 -13.5t-72 -26.5l-24 -14v-388h-53v300q0 52 -3 93.5t-6 56.5l-3 15l7 7q14 0 26.5 2t18.5 4l6 1l7 -7l-3 -54l3 -3q10 7 27.5 17.5t73.5 28t113 17.5q79 0 113 -33.5t34 -105.5v-339h-53zM290 566l-6 6l95 137q14 0 25 -2t15 -4
l4 -2v-6l-111 -129h-22z" />
    <glyph glyph-name="Ncommaaccent" unicode="&#x145;" horiz-adv-x="794" 
d="M116 0v420q0 80 -3 148t-6 96l-3 29l7 7h23l509 -605v605h35v-700h-20l-509 604v-604h-33zM364 -233l-11 11q5 5 12.5 14.5t19.5 40.5t12 64q0 11 -1.5 20t-3.5 13l-1 4l4 5q12 0 22 -1.5t15 -3.5l4 -2q4 -9 4 -26q0 -25 -8 -48t-19 -39t-22 -28t-19 -18z" />
    <glyph glyph-name="ncommaaccent" unicode="&#x146;" horiz-adv-x="627" 
d="M468 0v335q0 57 -27 82t-89 25q-48 0 -96 -13.5t-72 -26.5l-24 -14v-388h-53v300q0 52 -3 93.5t-6 56.5l-3 15l7 7q14 0 26.5 2t18.5 4l6 1l7 -7l-3 -54l3 -3q10 7 27.5 17.5t73.5 28t113 17.5q79 0 113 -33.5t34 -105.5v-339h-53zM273 -233l-11 11q5 5 12 14.5t19 40.5
t12 64l-5 37l4 5q12 0 22 -1.5t14 -3.5l5 -2q3 -9 3 -26q0 -39 -19 -74t-37 -50z" />
    <glyph glyph-name="Ncaron" unicode="&#x147;" horiz-adv-x="794" 
d="M116 0v420q0 80 -3 148t-6 96l-3 29l7 7h23l509 -605v605h35v-700h-20l-509 604v-604h-33zM518 912l6 -6l-119 -137h-17l-119 137l6 6h24l97 -101l98 101h24z" />
    <glyph glyph-name="ncaron" unicode="&#x148;" horiz-adv-x="627" 
d="M468 0v335q0 57 -27 82t-89 25q-48 0 -96 -13.5t-72 -26.5l-24 -14v-388h-53v300q0 52 -3 93.5t-6 56.5l-3 15l7 7q14 0 26.5 2t18.5 4l6 1l7 -7l-3 -54l3 -3q10 7 27.5 17.5t73.5 28t113 17.5q79 0 113 -33.5t34 -105.5v-339h-53zM435 704l6 -6l-119 -137h-17l-119 137
l6 6h24l98 -101l98 101h23z" />
    <glyph glyph-name="Eng" unicode="&#x14a;" horiz-adv-x="794" 
d="M630 -40v73l-481 571v-604h-33v420q0 80 -3 148t-6 96l-3 29l7 7h23l509 -605v605h35v-738q0 -218 -190 -218q-53 0 -95 15t-58 30l-16 15q0 16 6 29.5t12 19.5l6 6h8q2 -4 5 -9.5t15.5 -20.5t27 -26.5t39 -21t51.5 -9.5q141 0 141 188z" />
    <glyph glyph-name="eng" unicode="&#x14b;" horiz-adv-x="627" 
d="M468 -36v371q0 57 -27 82t-89 25q-48 0 -96 -13.5t-72 -26.5l-24 -14v-388h-53v300q0 52 -3 93.5t-6 56.5l-3 15l7 7q14 0 26.5 2t18.5 4l6 1l7 -7l-3 -54l3 -3q10 7 27.5 17.5t73.5 28t113 17.5q79 0 113 -33.5t34 -105.5v-362q0 -46 -15 -87t-36.5 -67t-43 -45
t-36.5 -27l-15 -8l-13 13q4 3 11.5 8.5t25.5 25t32 41.5t25.5 58t11.5 75z" />
    <glyph glyph-name="Omacron" unicode="&#x14c;" horiz-adv-x="833" 
d="M75 350q0 159 94 257.5t246 98.5q153 0 247.5 -98.5t94.5 -257.5t-94.5 -257.5t-247.5 -98.5q-152 0 -246 98.5t-94 257.5zM135 350q0 -149 77.5 -238.5t202.5 -89.5q127 0 204.5 89.5t77.5 238.5t-77.5 238.5t-204.5 89.5q-125 0 -202.5 -89.5t-77.5 -238.5zM301 804v32
h230v-32h-230z" />
    <glyph glyph-name="omacron" unicode="&#x14d;" horiz-adv-x="613" 
d="M65 236q0 108 66.5 175t173.5 67q108 0 175 -67t67 -175t-67 -175t-175 -67q-107 0 -173.5 67t-66.5 175zM123 236q0 -98 50 -156.5t132 -58.5q83 0 133.5 58.5t50.5 156.5t-50.5 156.5t-133.5 58.5q-82 0 -132 -58.5t-50 -156.5zM191 596v31h230v-31h-230z" />
    <glyph glyph-name="Obreve" unicode="&#x14e;" horiz-adv-x="833" 
d="M75 350q0 159 94 257.5t246 98.5q153 0 247.5 -98.5t94.5 -257.5t-94.5 -257.5t-247.5 -98.5q-152 0 -246 98.5t-94 257.5zM135 350q0 -149 77.5 -238.5t202.5 -89.5q127 0 204.5 89.5t77.5 238.5t-77.5 238.5t-204.5 89.5q-125 0 -202.5 -89.5t-77.5 -238.5zM286 857
l14 14q4 -7 13 -16.5t39 -26t64 -16.5t63.5 15t41.5 29l12 15l13 -14q-1 -3 -4 -8.5t-14.5 -19t-25 -24t-37 -19t-49.5 -8.5t-49 8t-37.5 20t-24.5 23.5t-15 19.5z" />
    <glyph glyph-name="obreve" unicode="&#x14f;" horiz-adv-x="613" 
d="M65 236q0 108 66.5 175t173.5 67q108 0 175 -67t67 -175t-67 -175t-175 -67q-107 0 -173.5 67t-66.5 175zM123 236q0 -98 50 -156.5t132 -58.5q83 0 133.5 58.5t50.5 156.5t-50.5 156.5t-133.5 58.5q-82 0 -132 -58.5t-50 -156.5zM176 649l14 14q4 -7 13 -16.5t39 -26
t64 -16.5t63.5 15t41.5 29l12 15l13 -14q-1 -3 -4 -8.5t-14.5 -19.5t-25 -24.5t-37 -19t-49.5 -8.5t-49 8t-37.5 20t-24.5 24t-15 20z" />
    <glyph glyph-name="Ohungarumlaut" unicode="&#x150;" horiz-adv-x="833" 
d="M75 350q0 159 94 257.5t246 98.5q153 0 247.5 -98.5t94.5 -257.5t-94.5 -257.5t-247.5 -98.5q-152 0 -246 98.5t-94 257.5zM135 350q0 -149 77.5 -238.5t202.5 -89.5q127 0 204.5 89.5t77.5 238.5t-77.5 238.5t-204.5 89.5q-125 0 -202.5 -89.5t-77.5 -238.5zM313 774
l-6 6l94 137q14 0 25 -2t16 -4l4 -2v-6l-111 -129h-22zM470 774l-6 6l98 137q14 0 25 -2t15 -4l4 -2v-6l-114 -129h-22z" />
    <glyph glyph-name="ohungarumlaut" unicode="&#x151;" horiz-adv-x="613" 
d="M65 236q0 108 66.5 175t173.5 67q108 0 175 -67t67 -175t-67 -175t-175 -67q-107 0 -173.5 67t-66.5 175zM123 236q0 -98 50 -156.5t132 -58.5q83 0 133.5 58.5t50.5 156.5t-50.5 156.5t-133.5 58.5q-82 0 -132 -58.5t-50 -156.5zM203 566l-6 6l94 137q14 0 25 -2t16 -4
l4 -2v-6l-111 -129h-22zM360 566l-6 6l98 137q14 0 25 -2t15 -4l4 -2v-6l-114 -129h-22z" />
    <glyph glyph-name="OE" unicode="&#x152;" horiz-adv-x="1071" 
d="M574 0v34q-69 -40 -161 -40q-149 0 -243.5 99t-94.5 257t94.5 257t243.5 99q89 0 161 -42v36h415v-37l-7 -6q-47 13 -165 13h-188v-299h300l6 -5v-26h-306v-310h198q52 0 93.5 3t56.5 7l15 3l7 -6v-37h-425zM415 22q97 0 159 61v535q-64 60 -159 60q-125 0 -202.5 -89.5
t-77.5 -238.5t77.5 -238.5t202.5 -89.5z" />
    <glyph glyph-name="oe" unicode="&#x153;" horiz-adv-x="993" 
d="M908 87l13 -14q-2 -3 -6.5 -8.5t-21.5 -19t-36.5 -24t-53 -19t-70.5 -8.5q-79 0 -134.5 35t-80.5 97q-26 -62 -82 -97t-131 -35q-106 0 -173 67t-67 175t67 175t173 67q75 0 130.5 -35.5t82.5 -97.5q26 63 83 98t139 35q88 0 136 -40.5t48 -114.5q0 -18 -3 -36t-5 -27
l-3 -8l-7 -7h-358v-3q0 -100 52 -156.5t146 -56.5q48 0 88.5 14.5t57.5 28.5zM123 236q0 -98 50 -156.5t132 -58.5q83 0 133.5 58.5t50.5 156.5t-50.5 156.5t-133.5 58.5q-82 0 -132 -58.5t-50 -156.5zM738 451q-84 0 -133 -48.5t-56 -133.5l320 7q6 28 6 51q0 60 -35 92
t-102 32z" />
    <glyph glyph-name="Racute" unicode="&#x154;" horiz-adv-x="660" 
d="M116 0v700h210q111 0 177 -51t66 -141q0 -75 -47 -124t-130 -63l95 -149q34 -53 63.5 -94.5t41.5 -57.5l13 -15l-4 -5h-62l-204 316h-164v-316h-55zM317 669h-146v-322h146q90 0 142.5 42.5t52.5 118.5t-52.5 118.5t-142.5 42.5zM294 774l-6 6l95 137q14 0 25 -2t16 -4
l4 -2v-6l-112 -129h-22z" />
    <glyph glyph-name="racute" unicode="&#x155;" horiz-adv-x="410" 
d="M363 478q7 -24 7 -58l-7 -7q-12 9 -41 9q-40 0 -80.5 -24t-61.5 -48l-20 -23v-327h-53v300q0 52 -3 93.5t-6 56.5l-3 15l7 7q14 0 26.5 2t18.5 4l6 1l7 -7l-3 -105l3 -4q3 5 8.5 12.5t25.5 27.5t41.5 35t56.5 27.5t71 12.5zM209 566l-6 6l95 137q14 0 25 -2t15 -4l5 -2
v-6l-112 -129h-22z" />
    <glyph glyph-name="Rcommaaccent" unicode="&#x156;" horiz-adv-x="660" 
d="M116 0v700h210q111 0 177 -51t66 -141q0 -75 -47 -124t-130 -63l95 -149q34 -53 63.5 -94.5t41.5 -57.5l13 -15l-4 -5h-62l-204 316h-164v-316h-55zM317 669h-146v-322h146q90 0 142.5 42.5t52.5 118.5t-52.5 118.5t-142.5 42.5zM299 -233l-12 11q5 5 12.5 14.5
t19.5 40.5t12 64l-5 37l4 5q12 0 22 -1.5t14 -3.5l5 -2q3 -9 3 -26q0 -39 -19 -74t-37 -50z" />
    <glyph glyph-name="rcommaaccent" unicode="&#x157;" horiz-adv-x="410" 
d="M363 478q7 -24 7 -58l-7 -7q-12 9 -41 9q-40 0 -80.5 -24t-61.5 -48l-20 -23v-327h-53v300q0 52 -3 93.5t-6 56.5l-3 15l7 7q14 0 26.5 2t18.5 4l6 1l7 -7l-3 -105l3 -4q3 5 8.5 12.5t25.5 27.5t41.5 35t56.5 27.5t71 12.5zM93 -233l-12 11q5 5 12.5 14.5t19.5 40.5
t12 64q0 11 -1.5 20t-3.5 13l-1 4l5 5q12 0 22 -1.5t14 -3.5l4 -2q4 -9 4 -26q0 -39 -19 -74t-37 -50z" />
    <glyph glyph-name="Rcaron" unicode="&#x158;" horiz-adv-x="660" 
d="M116 0v700h210q111 0 177 -51t66 -141q0 -75 -47 -124t-130 -63l95 -149q34 -53 63.5 -94.5t41.5 -57.5l13 -15l-4 -5h-62l-204 316h-164v-316h-55zM317 669h-146v-322h146q90 0 142.5 42.5t52.5 118.5t-52.5 118.5t-142.5 42.5zM450 912l6 -6l-119 -137h-17l-119 137
l6 6h23l98 -101l98 101h24z" />
    <glyph glyph-name="rcaron" unicode="&#x159;" horiz-adv-x="410" 
d="M363 478q7 -24 7 -58l-7 -7q-12 9 -41 9q-40 0 -80.5 -24t-61.5 -48l-20 -23v-327h-53v300q0 52 -3 93.5t-6 56.5l-3 15l7 7q14 0 26.5 2t18.5 4l6 1l7 -7l-3 -105l3 -4q3 5 8.5 12.5t25.5 27.5t41.5 35t56.5 27.5t71 12.5zM354 704l6 -6l-119 -137h-17l-119 137l6 6h24
l98 -101l98 101h23z" />
    <glyph glyph-name="Sacute" unicode="&#x15a;" horiz-adv-x="649" 
d="M315 678q-82 0 -122 -33.5t-40 -92.5q0 -52 37 -82.5t159 -93.5q55 -29 79.5 -42.5t56.5 -35t44 -37.5t21 -39t9 -52q0 -83 -60.5 -129.5t-177.5 -46.5q-46 0 -87 7.5t-66.5 18.5t-44 22t-25.5 18l-8 8q0 16 7 30t13 20l7 7h9q3 -4 8 -11t23.5 -25t40 -31.5t57 -24.5
t73.5 -11q80 0 130 35.5t50 96.5q0 30 -12.5 54t-39.5 44t-54.5 35t-71.5 37q-13 6 -19 9q-49 24 -76 38.5t-56.5 34t-43 38t-22.5 42.5t-9 54q0 80 56 123t162 43q64 0 115.5 -15.5t70.5 -30.5l19 -16q0 -16 -6.5 -30.5t-12.5 -21.5l-7 -6h-9q-2 4 -5.5 10t-18.5 22t-33 28
t-50.5 22t-69.5 10zM292 774l-6 6l96 137q13 0 24 -2t16 -4l4 -2v-6l-112 -129h-22z" />
    <glyph glyph-name="sacute" unicode="&#x15b;" horiz-adv-x="482" 
d="M238 450q-119 0 -119 -79q0 -14 3 -24.5t14 -20.5t18.5 -16.5t30 -16.5t35 -15.5t45.5 -18.5q89 -38 122.5 -65t33.5 -78q0 -122 -175 -122q-37 0 -69.5 6t-52.5 14t-35 16.5t-21 14.5l-6 6q0 12 6 22.5t12 15.5l6 5h7q2 -3 5.5 -8t17 -17t29.5 -21.5t43.5 -17.5t58.5 -8
q57 0 92 21.5t35 63.5q0 39 -31.5 60.5t-113.5 52.5q-82 30 -119 59t-37 82q0 56 43.5 86.5t125.5 30.5q49 0 89 -11t55 -22l15 -11q0 -12 -6.5 -23t-12.5 -16l-6 -5h-7q-1 2 -3.5 6.5t-13 14.5t-23.5 18t-37.5 14.5t-53.5 6.5zM219 566l-6 6l95 137q14 0 25 -2t15 -4l5 -2
v-6l-112 -129h-22z" />
    <glyph glyph-name="Scircumflex" unicode="&#x15c;" horiz-adv-x="649" 
d="M315 678q-82 0 -122 -33.5t-40 -92.5q0 -52 37 -82.5t159 -93.5q55 -29 79.5 -42.5t56.5 -35t44 -37.5t21 -39t9 -52q0 -83 -60.5 -129.5t-177.5 -46.5q-46 0 -87 7.5t-66.5 18.5t-44 22t-25.5 18l-8 8q0 16 7 30t13 20l7 7h9q3 -4 8 -11t23.5 -25t40 -31.5t57 -24.5
t73.5 -11q80 0 130 35.5t50 96.5q0 30 -12.5 54t-39.5 44t-54.5 35t-71.5 37q-13 6 -19 9q-49 24 -76 38.5t-56.5 34t-43 38t-22.5 42.5t-9 54q0 80 56 123t162 43q64 0 115.5 -15.5t70.5 -30.5l19 -16q0 -16 -6.5 -30.5t-12.5 -21.5l-7 -6h-9q-2 4 -5.5 10t-18.5 22t-33 28
t-50.5 22t-69.5 10zM454 800l-6 -6h-24l-98 102l-98 -102h-23l-6 6l119 137h17z" />
    <glyph glyph-name="scircumflex" unicode="&#x15d;" horiz-adv-x="482" 
d="M238 450q-119 0 -119 -79q0 -14 3 -24.5t14 -20.5t18.5 -16.5t30 -16.5t35 -15.5t45.5 -18.5q89 -38 122.5 -65t33.5 -78q0 -122 -175 -122q-37 0 -69.5 6t-52.5 14t-35 16.5t-21 14.5l-6 6q0 12 6 22.5t12 15.5l6 5h7q2 -3 5.5 -8t17 -17t29.5 -21.5t43.5 -17.5t58.5 -8
q57 0 92 21.5t35 63.5q0 39 -31.5 60.5t-113.5 52.5q-82 30 -119 59t-37 82q0 56 43.5 86.5t125.5 30.5q49 0 89 -11t55 -22l15 -11q0 -12 -6.5 -23t-12.5 -16l-6 -5h-7q-1 2 -3.5 6.5t-13 14.5t-23.5 18t-37.5 14.5t-53.5 6.5zM368 572l-6 -6h-23l-98 101l-98 -101h-24
l-6 6l119 137h17z" />
    <glyph glyph-name="Scedilla" unicode="&#x15e;" horiz-adv-x="649" 
d="M303 -70l11 64q-45 1 -84.5 8.5t-64 18.5t-42.5 21.5t-25 17.5l-8 8q0 16 7 30t13 20l7 7h9q3 -4 8 -11t23.5 -25t40 -31.5t57 -24.5t73.5 -11q80 0 130 35.5t50 96.5q0 30 -12.5 54t-39.5 44t-54.5 35t-71.5 37q-13 6 -19 9q-49 24 -76 38.5t-56.5 34t-43 38t-22.5 42.5
t-9 54q0 80 56 123t162 43q64 0 115.5 -15.5t70.5 -30.5l19 -16q0 -16 -6.5 -30.5t-12.5 -21.5l-7 -6h-9q-2 4 -5.5 10t-18.5 22t-33 28t-50.5 22t-69.5 10q-82 0 -122 -33.5t-40 -92.5q0 -52 37 -82.5t159 -93.5q55 -29 79.5 -42.5t56.5 -35t44 -37.5t21 -39t9 -52
q0 -80 -55 -125.5t-163 -49.5l-8 -49q28 0 46 -16.5t18 -43.5q0 -28 -19.5 -44t-51.5 -16q-22 0 -39.5 8.5t-24.5 17.5l-6 8l13 12q19 -19 52 -19q43 0 43 34q0 37 -55 37z" />
    <glyph glyph-name="scedilla" unicode="&#x15f;" horiz-adv-x="482" 
d="M221 -70l11 64q-54 2 -96.5 16t-57.5 28l-16 13q0 12 6 22.5t12 15.5l6 5h7q2 -3 5.5 -8t17 -17t29.5 -21.5t43.5 -17.5t58.5 -8q57 0 92 21.5t35 63.5q0 39 -31.5 60.5t-113.5 52.5q-82 30 -119 59t-37 82q0 56 43.5 86.5t125.5 30.5q49 0 89 -11t55 -22l15 -11
q0 -12 -6.5 -23t-12.5 -16l-6 -5h-7q-1 2 -3.5 6.5t-13 14.5t-23.5 18t-37.5 14.5t-53.5 6.5q-119 0 -119 -79q0 -14 3 -24.5t14 -20.5t18.5 -16.5t30 -16.5t35 -15.5t45.5 -18.5q89 -38 122.5 -65t33.5 -78q0 -117 -162 -122l-8 -48q28 0 46.5 -16.5t18.5 -43.5
q0 -28 -20 -44t-51 -16q-22 0 -39.5 8.5t-23.5 17.5l-7 8l12 12q19 -19 52 -19q43 0 43 34q0 37 -55 37z" />
    <glyph glyph-name="Scaron" unicode="&#x160;" horiz-adv-x="649" 
d="M315 678q-82 0 -122 -33.5t-40 -92.5q0 -52 37 -82.5t159 -93.5q55 -29 79.5 -42.5t56.5 -35t44 -37.5t21 -39t9 -52q0 -83 -60.5 -129.5t-177.5 -46.5q-46 0 -87 7.5t-66.5 18.5t-44 22t-25.5 18l-8 8q0 16 7 30t13 20l7 7h9q3 -4 8 -11t23.5 -25t40 -31.5t57 -24.5
t73.5 -11q80 0 130 35.5t50 96.5q0 30 -12.5 54t-39.5 44t-54.5 35t-71.5 37q-13 6 -19 9q-49 24 -76 38.5t-56.5 34t-43 38t-22.5 42.5t-9 54q0 80 56 123t162 43q64 0 115.5 -15.5t70.5 -30.5l19 -16q0 -16 -6.5 -30.5t-12.5 -21.5l-7 -6h-9q-2 4 -5.5 10t-18.5 22t-33 28
t-50.5 22t-69.5 10zM448 912l6 -6l-119 -137h-17l-119 137l6 6h23l98 -101l98 101h24z" />
    <glyph glyph-name="scaron" unicode="&#x161;" horiz-adv-x="482" 
d="M238 450q-119 0 -119 -79q0 -14 3 -24.5t14 -20.5t18.5 -16.5t30 -16.5t35 -15.5t45.5 -18.5q89 -38 122.5 -65t33.5 -78q0 -122 -175 -122q-37 0 -69.5 6t-52.5 14t-35 16.5t-21 14.5l-6 6q0 12 6 22.5t12 15.5l6 5h7q2 -3 5.5 -8t17 -17t29.5 -21.5t43.5 -17.5t58.5 -8
q57 0 92 21.5t35 63.5q0 39 -31.5 60.5t-113.5 52.5q-82 30 -119 59t-37 82q0 56 43.5 86.5t125.5 30.5q49 0 89 -11t55 -22l15 -11q0 -12 -6.5 -23t-12.5 -16l-6 -5h-7q-1 2 -3.5 6.5t-13 14.5t-23.5 18t-37.5 14.5t-53.5 6.5zM362 704l6 -6l-119 -137h-17l-119 137l6 6h24
l98 -101l98 101h23z" />
    <glyph glyph-name="Tcommaaccent" unicode="&#x162;" horiz-adv-x="682" 
d="M368 670v-670h-55v670h-101q-52 0 -93.5 -3t-56.5 -7l-15 -3l-7 6v37h601v-37l-6 -6q-47 13 -165 13h-102zM293 -233l-12 11q5 5 12.5 14.5t19.5 40.5t12 64q0 11 -1.5 20t-3.5 13l-1 4l5 5q12 0 22 -1.5t14 -3.5l4 -2q4 -9 4 -26q0 -39 -19 -74t-37 -50z" />
    <glyph glyph-name="tcommaaccent" unicode="&#x163;" horiz-adv-x="368" 
d="M24 443v17l86 21l19 115h34v-124h150v-29h-150v-337q0 -77 74 -77q22 0 41 6.5t27 13.5l8 7l13 -14q-4 -5 -12 -13t-36.5 -21.5t-62.5 -13.5q-49 0 -77 26.5t-28 80.5v342h-86zM166 -233l-11 11q5 5 12.5 14.5t19.5 40.5t12 64q0 11 -1.5 20t-3.5 13l-1 4l4 5
q12 0 22 -1.5t15 -3.5l4 -2q4 -9 4 -26q0 -25 -8 -48t-19 -39t-22 -28t-19 -18z" />
    <glyph glyph-name="Tcaron" unicode="&#x164;" horiz-adv-x="682" 
d="M368 670v-670h-55v670h-101q-52 0 -93.5 -3t-56.5 -7l-15 -3l-7 6v37h601v-37l-6 -6q-47 13 -165 13h-102zM462 904l6 -6l-119 -137h-17l-119 137l6 6h24l98 -101l98 101h23z" />
    <glyph glyph-name="tcaron" unicode="&#x165;" horiz-adv-x="378" 
d="M24 443v17l86 21l19 115h34v-124h150v-29h-150v-337q0 -77 74 -77q22 0 41 6.5t27 13.5l8 7l13 -14q-4 -5 -12 -13t-36.5 -21.5t-62.5 -13.5q-49 0 -77 26.5t-28 80.5v342h-86zM260 583l-11 11q5 5 12 14.5t19 41t12 63.5l-5 38l4 4q12 0 22 -1.5t15 -3.5l4 -2
q4 -8 4 -26q0 -25 -8 -48t-19 -39t-22 -28t-19 -18z" />
    <glyph glyph-name="Tbar" unicode="&#x166;" horiz-adv-x="682" 
d="M172 362v31h141v277h-101q-52 0 -93.5 -3t-56.5 -7l-15 -3l-7 6v37h601v-37l-6 -6q-47 13 -165 13h-102v-277h141v-31h-141v-362h-55v362h-141z" />
    <glyph glyph-name="tbar" unicode="&#x167;" horiz-adv-x="368" 
d="M24 275v30h86v138h-86v17l86 21l19 115h34v-124h150v-29h-150v-138h150v-30h-150v-169q0 -77 74 -77q22 0 41 6.5t27 13.5l8 7l13 -14q-4 -5 -12 -13t-36.5 -21.5t-62.5 -13.5q-49 0 -77 26.5t-28 80.5v174h-86z" />
    <glyph glyph-name="Utilde" unicode="&#x168;" horiz-adv-x="761" 
d="M620 257v443h33v-443q0 -115 -75.5 -189t-198.5 -74q-122 0 -196.5 74t-74.5 189v443h55v-449q0 -99 62.5 -162t163.5 -63q103 0 167 64.5t64 166.5zM336 854q25 0 51 -18t46 -18t37.5 10t25.5 20l7 9l14 -13q-1 -2 -3 -6.5t-10 -14.5t-17.5 -18t-25.5 -14.5t-33 -6.5
q-25 0 -50.5 18t-46.5 18q-20 0 -37.5 -10t-25.5 -20l-7 -9l-13 13q3 7 9 17t28.5 26.5t50.5 16.5z" />
    <glyph glyph-name="utilde" unicode="&#x169;" horiz-adv-x="624" 
d="M160 472v-324q0 -62 29 -90t93 -28q47 0 92.5 13.5t67.5 26.5l22 14v216q0 52 -2 93.5t-4 56.5l-2 15l7 7q13 0 25 2t17 4l5 1l7 -7v-272q0 -52 3 -100.5t6 -70.5l3 -22l-7 -7q-14 0 -26.5 -2t-18.5 -4l-6 -1l-7 7l3 54l-3 3q-9 -7 -25.5 -17.5t-69.5 -28t-108 -17.5
q-82 0 -118 37t-36 113v156q0 52 -3 93.5t-6 56.5l-3 15l7 7q14 0 26.5 2t18.5 4l6 1zM266 646q25 0 50.5 -18t46.5 -18q20 0 37.5 10t25.5 20l7 9l13 -13q-3 -7 -9 -17t-28.5 -26.5t-50.5 -16.5q-25 0 -50.5 18t-46.5 18q-20 0 -37.5 -10t-25.5 -20l-7 -9l-14 13q1 2 3 6.5
t10 14.5t17.5 18t25.5 14.5t33 6.5z" />
    <glyph glyph-name="Umacron" unicode="&#x16a;" horiz-adv-x="761" 
d="M620 257v443h33v-443q0 -115 -75.5 -189t-198.5 -74q-122 0 -196.5 74t-74.5 189v443h55v-449q0 -99 62.5 -162t163.5 -63q103 0 167 64.5t64 166.5zM267 804v32h230v-32h-230z" />
    <glyph glyph-name="umacron" unicode="&#x16b;" horiz-adv-x="624" 
d="M160 472v-324q0 -62 29 -90t93 -28q47 0 92.5 13.5t67.5 26.5l22 14v216q0 52 -2 93.5t-4 56.5l-2 15l7 7q13 0 25 2t17 4l5 1l7 -7v-272q0 -52 3 -100.5t6 -70.5l3 -22l-7 -7q-14 0 -26.5 -2t-18.5 -4l-6 -1l-7 7l3 54l-3 3q-9 -7 -25.5 -17.5t-69.5 -28t-108 -17.5
q-82 0 -118 37t-36 113v156q0 52 -3 93.5t-6 56.5l-3 15l7 7q14 0 26.5 2t18.5 4l6 1zM197 596v31h230v-31h-230z" />
    <glyph glyph-name="Ubreve" unicode="&#x16c;" horiz-adv-x="761" 
d="M620 257v443h33v-443q0 -115 -75.5 -189t-198.5 -74q-122 0 -196.5 74t-74.5 189v443h55v-449q0 -99 62.5 -162t163.5 -63q103 0 167 64.5t64 166.5zM253 857l13 14q4 -7 13 -16.5t39.5 -26t64.5 -16.5t63 15t41 29l12 15l13 -14q-1 -3 -4 -8.5t-14 -19t-24.5 -24
t-37 -19t-49.5 -8.5q-42 0 -74.5 20t-44.5 40z" />
    <glyph glyph-name="ubreve" unicode="&#x16d;" horiz-adv-x="624" 
d="M160 472v-324q0 -62 29 -90t93 -28q47 0 92.5 13.5t67.5 26.5l22 14v216q0 52 -2 93.5t-4 56.5l-2 15l7 7q13 0 25 2t17 4l5 1l7 -7v-272q0 -52 3 -100.5t6 -70.5l3 -22l-7 -7q-14 0 -26.5 -2t-18.5 -4l-6 -1l-7 7l3 54l-3 3q-9 -7 -25.5 -17.5t-69.5 -28t-108 -17.5
q-82 0 -118 37t-36 113v156q0 52 -3 93.5t-6 56.5l-3 15l7 7q14 0 26.5 2t18.5 4l6 1zM182 649l13 14q4 -7 13 -16.5t39.5 -26t64.5 -16.5t63 15t41 29l12 15l13 -14q-1 -3 -4 -8.5t-14 -19.5t-24.5 -24.5t-37 -19t-49.5 -8.5q-27 0 -50 8t-37 20t-24.5 24t-14.5 20z" />
    <glyph glyph-name="Uring" unicode="&#x16e;" horiz-adv-x="761" 
d="M620 257v443h33v-443q0 -115 -75.5 -189t-198.5 -74q-122 0 -196.5 74t-74.5 189v443h55v-449q0 -99 62.5 -162t163.5 -63q103 0 167 64.5t64 166.5zM306 843q0 34 21 55t56 21q34 0 54.5 -21t20.5 -55t-20.5 -55t-54.5 -21t-55.5 21t-21.5 55zM335 843q0 -20 13.5 -33.5
t34.5 -13.5q20 0 33 13.5t13 33.5t-13 33.5t-33 13.5q-21 0 -34.5 -13.5t-13.5 -33.5z" />
    <glyph glyph-name="uring" unicode="&#x16f;" horiz-adv-x="624" 
d="M160 472v-324q0 -62 29 -90t93 -28q47 0 92.5 13.5t67.5 26.5l22 14v216q0 52 -2 93.5t-4 56.5l-2 15l7 7q13 0 25 2t17 4l5 1l7 -7v-272q0 -52 3 -100.5t6 -70.5l3 -22l-7 -7q-14 0 -26.5 -2t-18.5 -4l-6 -1l-7 7l3 54l-3 3q-9 -7 -25.5 -17.5t-69.5 -28t-108 -17.5
q-82 0 -118 37t-36 113v156q0 52 -3 93.5t-6 56.5l-3 15l7 7q14 0 26.5 2t18.5 4l6 1zM236 635q0 34 21 55t56 21q34 0 54.5 -21t20.5 -55t-20.5 -55t-54.5 -21t-55.5 21t-21.5 55zM265 635q0 -20 13.5 -33.5t34.5 -13.5q20 0 33 13.5t13 33.5t-13 33.5t-33 13.5
q-21 0 -34.5 -13.5t-13.5 -33.5z" />
    <glyph glyph-name="Uhungarumlaut" unicode="&#x170;" horiz-adv-x="761" 
d="M620 257v443h33v-443q0 -115 -75.5 -189t-198.5 -74q-122 0 -196.5 74t-74.5 189v443h55v-449q0 -99 62.5 -162t163.5 -63q103 0 167 64.5t64 166.5zM279 774l-6 6l94 137q14 0 25 -2t16 -4l4 -2v-6l-111 -129h-22zM436 774l-5 6l98 137q14 0 24.5 -2t14.5 -4l4 -2v-6
l-114 -129h-22z" />
    <glyph glyph-name="uhungarumlaut" unicode="&#x171;" horiz-adv-x="624" 
d="M160 472v-324q0 -62 29 -90t93 -28q47 0 92.5 13.5t67.5 26.5l22 14v216q0 52 -2 93.5t-4 56.5l-2 15l7 7q13 0 25 2t17 4l5 1l7 -7v-272q0 -52 3 -100.5t6 -70.5l3 -22l-7 -7q-14 0 -26.5 -2t-18.5 -4l-6 -1l-7 7l3 54l-3 3q-9 -7 -25.5 -17.5t-69.5 -28t-108 -17.5
q-82 0 -118 37t-36 113v156q0 52 -3 93.5t-6 56.5l-3 15l7 7q14 0 26.5 2t18.5 4l6 1zM208 566l-6 6l94 137q14 0 25 -2t15 -4l5 -2v-6l-111 -129h-22zM365 566l-5 6l98 137q14 0 24.5 -2t14.5 -4l4 -2v-6l-114 -129h-22z" />
    <glyph glyph-name="Uogonek" unicode="&#x172;" horiz-adv-x="761" 
d="M620 257v443h33v-443q0 -99 -57.5 -169t-154.5 -88q-35 -35 -35 -82q0 -46 44 -46q11 0 20 3t12 6l4 3l14 -13q-18 -27 -58 -27q-29 0 -49.5 18.5t-20.5 52.5q0 44 37 81q-20 -2 -30 -2q-122 0 -196.5 74t-74.5 189v443h55v-449q0 -99 62.5 -162t163.5 -63
q103 0 167 64.5t64 166.5z" />
    <glyph glyph-name="uogonek" unicode="&#x173;" horiz-adv-x="624" 
d="M160 472v-324q0 -62 29 -90t93 -28q47 0 92.5 13.5t67.5 26.5l22 14v216q0 52 -2 93.5t-4 56.5l-2 15l7 7q13 0 25 2t17 4l5 1l7 -7v-272q0 -52 3 -100.5t6 -70.5l3 -22l-7 -7h-9q-36 -35 -36 -82q0 -46 44 -46q11 0 20 3t13 6l3 3l14 -13q-18 -27 -57 -27
q-30 0 -50.5 18.5t-20.5 52.5q0 44 37 81l-9 -3l-7 7l3 54l-3 3q-9 -7 -25.5 -17.5t-69.5 -28t-108 -17.5q-82 0 -118 37t-36 113v156q0 52 -3 93.5t-6 56.5l-3 15l7 7q14 0 26.5 2t18.5 4l6 1z" />
    <glyph glyph-name="Wcircumflex" unicode="&#x174;" horiz-adv-x="1071" 
d="M728 12l-183 485l-179 -497h-40l-12 12l-205 516q-21 52 -39 93.5t-26 56.5l-8 15v7h62l255 -637l174 482q-18 47 -33.5 84t-21.5 51l-7 13v7h62l240 -635l235 635h36l-258 -700h-40zM674 780l-6 -6h-24l-98 102l-97 -102h-24l-6 6l119 137h17z" />
    <glyph glyph-name="wcircumflex" unicode="&#x175;" horiz-adv-x="797" 
d="M532 12l-107 288l-20 51l-126 -351h-39l-12 12l-116 288q-22 53 -41.5 95t-28.5 57l-9 15l5 5l56 4l171 -421l121 340l-34 72l5 5l53 4l159 -421l94 245q20 53 33 95t16 57l2 15l5 5l40 5l5 -5l-180 -472h-39zM531 572l-6 -6h-24l-97 101l-98 -101h-24l-6 6l119 137h17z
" />
    <glyph glyph-name="Ycircumflex" unicode="&#x176;" horiz-adv-x="653" 
d="M616 700l-262 -386v-314h-55v313l-118 174q-38 56 -75 107.5t-54 75.5l-18 23v7h67l237 -346l238 346h40zM454 780l-6 -6h-24l-98 102l-98 -102h-23l-6 6l119 137h17z" />
    <glyph glyph-name="ycircumflex" unicode="&#x177;" horiz-adv-x="539" 
d="M506 472l-251 -550l-71 -169l-5 -5q-14 0 -27.5 3.5t-20.5 6.5l-7 4v7q53 64 99 164l31 67l-136 300q-23 52 -44.5 93.5t-31.5 57.5l-9 16l5 5l57 4l186 -418l112 242q24 52 40 94t20 58l4 15l5 5l39 5zM399 572l-6 -6h-23l-98 101l-98 -101h-24l-6 6l119 137h17z" />
    <glyph glyph-name="Ydieresis" unicode="&#x178;" horiz-adv-x="653" 
d="M616 700l-262 -386v-314h-55v313l-118 174q-38 56 -75 107.5t-54 75.5l-18 23v7h67l237 -346l238 346h40zM189 813q0 14 8.5 23t22.5 9t23 -9t9 -23t-9 -22.5t-23 -8.5q-31 0 -31 31zM401 813q0 14 8.5 23t23.5 9q14 0 22.5 -9t8.5 -23t-8.5 -22.5t-22.5 -8.5
q-32 0 -32 31z" />
    <glyph glyph-name="Zacute" unicode="&#x179;" horiz-adv-x="702" 
d="M75 19l485 651h-308q-52 0 -93.5 -3t-56.5 -7l-15 -3l-6 6v37h553v-19l-485 -651h315q53 0 94 3t56 7l15 3l7 -6v-37h-561v19zM327 774l-6 6l95 137q14 0 25 -2t15 -4l5 -2v-6l-112 -129h-22z" />
    <glyph glyph-name="zacute" unicode="&#x17a;" horiz-adv-x="526" 
d="M65 19l325 423h-148q-52 0 -93.5 -3t-56.5 -7l-15 -3l-6 7v36h392v-19l-328 -424h158q52 0 93.5 3.5t56.5 6.5l15 3l7 -6v-36h-400v19zM239 566l-6 6l95 137q14 0 25 -2t15 -4l5 -2v-6l-112 -129h-22z" />
    <glyph glyph-name="Zdotaccent" unicode="&#x17b;" horiz-adv-x="702" 
d="M75 19l485 651h-308q-52 0 -93.5 -3t-56.5 -7l-15 -3l-6 6v37h553v-19l-485 -651h315q53 0 94 3t56 7l15 3l7 -6v-37h-561v19zM318 839q0 15 9 24t24 9t24 -9t9 -24t-9 -24.5t-24 -9.5t-24 9.5t-9 24.5z" />
    <glyph glyph-name="zdotaccent" unicode="&#x17c;" horiz-adv-x="526" 
d="M65 19l325 423h-148q-52 0 -93.5 -3t-56.5 -7l-15 -3l-6 7v36h392v-19l-328 -424h158q52 0 93.5 3.5t56.5 6.5l15 3l7 -6v-36h-400v19zM230 627q0 15 9 24t24 9t24 -9t9 -24t-9 -24.5t-24 -9.5t-24 9.5t-9 24.5z" />
    <glyph glyph-name="Zcaron" unicode="&#x17d;" horiz-adv-x="702" 
d="M75 19l485 651h-308q-52 0 -93.5 -3t-56.5 -7l-15 -3l-6 6v37h553v-19l-485 -651h315q53 0 94 3t56 7l15 3l7 -6v-37h-561v19zM473 912l5 -6l-118 -137h-18l-118 137l5 6h24l98 -101l98 101h24z" />
    <glyph glyph-name="zcaron" unicode="&#x17e;" horiz-adv-x="526" 
d="M65 19l325 423h-148q-52 0 -93.5 -3t-56.5 -7l-15 -3l-6 7v36h392v-19l-328 -424h158q52 0 93.5 3.5t56.5 6.5l15 3l7 -6v-36h-400v19zM384 704l6 -6l-119 -137h-17l-119 137l6 6h24l98 -101l98 101h23z" />
    <glyph glyph-name="uni018F" unicode="&#x18f;" horiz-adv-x="771" 
d="M80 235q0 27 4 50t8 33l4 10l10 9h530v9q0 147 -78.5 234.5t-213.5 87.5q-44 0 -84 -9.5t-66.5 -23t-47 -27.5t-29.5 -24l-9 -9l-14 15q3 5 9.5 12.5t29.5 27.5t50.5 35.5t74 28t98.5 12.5q155 0 247.5 -98.5t92.5 -256.5q0 -160 -93.5 -258.5t-248.5 -98.5
q-126 0 -200 66t-74 175zM353 22q119 0 195 78t86 210l-493 -10q-7 -32 -7 -70q0 -97 59.5 -152.5t159.5 -55.5z" />
    <glyph glyph-name="florin" unicode="&#x192;" horiz-adv-x="344" 
d="M83 -36l85 479h-95l3 17l96 13l28 155q11 64 46.5 96.5t88.5 32.5q32 0 56.5 -11t32.5 -22l9 -11l-16 -13q-23 26 -70 26q-76 0 -93 -95l-29 -159h158l-5 -29h-157l-83 -466q-8 -46 -30 -87t-48 -67t-50.5 -45t-40.5 -27l-16 -8l-12 13q5 3 13 8.5t29.5 25t39.5 41.5
t35.5 58t24.5 75z" />
    <glyph glyph-name="uni01DD" unicode="&#x1dd;" horiz-adv-x="562" 
d="M79 385l-13 14q2 3 6.5 8.5t21 19t36.5 24t53.5 19t71.5 8.5q112 0 177 -66t65 -176q0 -111 -66 -176.5t-182 -65.5q-89 0 -137.5 40.5t-48.5 114.5q0 18 2.5 36t5.5 27l3 8l7 7h358v3q0 100 -52 156.5t-146 56.5q-48 0 -88.5 -14.5t-56.5 -28.5zM250 21q82 0 131 48
t57 133l-319 -6q-6 -22 -6 -51q0 -60 35 -92t102 -32z" />
    <glyph glyph-name="Aringacute" unicode="&#x1fa;" horiz-adv-x="729" 
d="M164 215l-93 -215h-37l298 682q-44 20 -44 71q0 34 21.5 55t55.5 21q14 0 25 -4l82 119q13 0 24 -2t16 -4l4 -2v-6l-102 -117q27 -22 27 -60q0 -54 -46 -72l300 -681h-58l-94 215h-379zM406 528q-34 78 -55 116l-173 -398h351zM318 753q0 -20 13.5 -33.5t33.5 -13.5
t33 13.5t13 33.5t-13 33t-33 13t-33.5 -13t-13.5 -33z" />
    <glyph glyph-name="aringacute" unicode="&#x1fb;" horiz-adv-x="560" 
d="M276 478q164 0 164 -136v-269q0 -47 41 -47q8 0 16 2t11 4l4 3l13 -13q-21 -28 -68 -28q-63 0 -70 62q-12 -10 -30.5 -21.5t-61 -26t-85.5 -14.5q-67 0 -101 32t-34 90q0 54 37 83t133 41l142 17v92q0 102 -112 102q-61 0 -96.5 -29t-35.5 -78l5 -38l-7 -7
q-12 0 -22.5 1.5t-14.5 3.5l-4 2q-7 15 -7 39q0 60 47.5 96.5t135.5 36.5zM130 120q0 -91 103 -91q39 0 77.5 13.5t57.5 27.5l19 14v145l-136 -16q-67 -8 -94 -30t-27 -63zM201 590q0 34 21 55t55 21q15 0 26 -4l82 119q14 0 25 -2t16 -4l4 -2v-6l-103 -118q26 -23 26 -59
q0 -34 -21 -55.5t-55 -21.5t-55 21.5t-21 55.5zM230 590q0 -20 13.5 -33.5t33.5 -13.5t33.5 13.5t13.5 33.5t-13.5 33t-33.5 13t-33.5 -13t-13.5 -33z" />
    <glyph glyph-name="AEacute" unicode="&#x1fc;" horiz-adv-x="883" 
d="M34 0l341 700h426v-37l-6 -6q-47 13 -165 13h-188v-299h299l6 -5v-26h-305v-310h198q52 0 93.5 3t56.5 7l15 3l6 -6v-37h-424v219h-210l-106 -219h-37zM192 250h195v403zM408 774l-6 6l95 137q14 0 25 -2t15 -4l4 -2v-6l-112 -129h-21z" />
    <glyph glyph-name="aeacute" unicode="&#x1fd;" horiz-adv-x="893" 
d="M805 87l13 -14q-2 -3 -6.5 -8.5t-21 -19t-36.5 -24t-53.5 -19t-71.5 -8.5q-142 0 -205 100q-8 -11 -21.5 -23.5t-40 -32t-66 -32t-83.5 -12.5q-70 0 -104 32t-34 89q0 54 37.5 83.5t132.5 41.5l142 17v92q0 102 -112 102q-61 0 -96.5 -29t-35.5 -78l5 -38l-7 -7
q-12 0 -22.5 1.5t-14.5 3.5l-4 2q-7 15 -7 39q0 60 47.5 96.5t133.5 36.5q133 0 155 -95q65 95 207 95q88 0 136.5 -40.5t48.5 -114.5q0 -18 -2.5 -36t-5.5 -27l-3 -8l-7 -7h-358v-3q0 -100 52 -156.5t146 -56.5q48 0 88.5 14.5t56.5 28.5zM635 451q-84 0 -133 -48.5
t-56 -133.5l320 7q6 28 6 51q0 60 -35 92t-102 32zM130 120q0 -43 26.5 -67t77.5 -24q104 0 178 88q-25 52 -25 113l-136 -17q-67 -8 -94 -30.5t-27 -62.5zM400 566l-6 6l96 137q13 0 24 -2t16 -4l4 -2v-6l-112 -129h-22z" />
    <glyph glyph-name="Oslashacute" unicode="&#x1fe;" horiz-adv-x="832" 
d="M218 -25h-36l41 72q-70 45 -109 124t-39 179q0 159 94 257.5t246 98.5q90 0 166 -38l33 57h36l-42 -73q71 -46 110 -124t39 -178q0 -159 -94.5 -257.5t-247.5 -98.5q-93 0 -164 38zM698 350q0 179 -110 268l-320 -556q65 -40 147 -40q127 0 205 89.5t78 238.5zM134 350
q0 -179 109 -269l320 556q-64 41 -148 41q-125 0 -203 -89.5t-78 -238.5zM382 774l-6 6l95 137q14 0 25 -2t15 -4l4 -2v-6l-112 -129h-21z" />
    <glyph glyph-name="oslashacute" unicode="&#x1ff;" horiz-adv-x="613" 
d="M123 -1l30 43q-88 66 -88 194q0 108 66.5 175t173.5 67q72 0 130 -33l29 41l23 -15l-29 -41q89 -68 89 -194q0 -108 -67 -175t-175 -67q-72 0 -129 33l-30 -43zM490 236q0 101 -55 161l-239 -341q46 -35 109 -35q83 0 134 58.5t51 156.5zM122 236q0 -101 54 -161l238 340
q-45 36 -109 36q-82 0 -132.5 -58.5t-50.5 -156.5zM282 566l-6 6l96 137q13 0 24 -2t16 -4l4 -2v-6l-112 -129h-22z" />
    <glyph glyph-name="Scommaaccent" unicode="&#x218;" horiz-adv-x="649" 
d="M315 678q-82 0 -122 -33.5t-40 -92.5q0 -52 37 -82.5t159 -93.5q55 -29 79.5 -42.5t56.5 -35t44 -37.5t21 -39t9 -52q0 -83 -60.5 -129.5t-177.5 -46.5q-46 0 -87 7.5t-66.5 18.5t-44 22t-25.5 18l-8 8q0 16 7 30t13 20l7 7h9q3 -4 8 -11t23.5 -25t40 -31.5t57 -24.5
t73.5 -11q80 0 130 35.5t50 96.5q0 30 -12.5 54t-39.5 44t-54.5 35t-71.5 37q-13 6 -19 9q-49 24 -76 38.5t-56.5 34t-43 38t-22.5 42.5t-9 54q0 80 56 123t162 43q64 0 115.5 -15.5t70.5 -30.5l19 -16q0 -16 -6.5 -30.5t-12.5 -21.5l-7 -6h-9q-2 4 -5.5 10t-18.5 22t-33 28
t-50.5 22t-69.5 10zM281 -233l-11 11q5 5 12.5 14.5t19.5 40.5t12 64q0 11 -1.5 20t-2.5 13l-2 4l4 5q12 0 22 -1.5t14 -3.5l5 -2q4 -9 4 -26q0 -25 -8 -48t-19 -39t-22 -28t-19 -18z" />
    <glyph glyph-name="scommaaccent" unicode="&#x219;" horiz-adv-x="482" 
d="M238 450q-119 0 -119 -79q0 -14 3 -24.5t14 -20.5t18.5 -16.5t30 -16.5t35 -15.5t45.5 -18.5q89 -38 122.5 -65t33.5 -78q0 -122 -175 -122q-37 0 -69.5 6t-52.5 14t-35 16.5t-21 14.5l-6 6q0 12 6 22.5t12 15.5l6 5h7q2 -3 5.5 -8t17 -17t29.5 -21.5t43.5 -17.5t58.5 -8
q57 0 92 21.5t35 63.5q0 39 -31.5 60.5t-113.5 52.5q-82 30 -119 59t-37 82q0 56 43.5 86.5t125.5 30.5q49 0 89 -11t55 -22l15 -11q0 -12 -6.5 -23t-12.5 -16l-6 -5h-7q-1 2 -3.5 6.5t-13 14.5t-23.5 18t-37.5 14.5t-53.5 6.5zM199 -233l-11 11q5 5 12.5 14.5t19.5 40.5
t12 64q0 11 -1.5 20t-2.5 13l-2 4l5 5q12 0 22 -1.5t14 -3.5l4 -2q4 -9 4 -26q0 -25 -8 -48t-19 -39t-22 -28t-19 -18z" />
    <glyph glyph-name="uni021A" unicode="&#x21a;" horiz-adv-x="682" 
d="M368 670v-670h-55v670h-101q-52 0 -93.5 -3t-56.5 -7l-15 -3l-7 6v37h601v-37l-6 -6q-47 13 -165 13h-102zM293 -233l-12 11q5 5 12.5 14.5t19.5 40.5t12 64q0 11 -1.5 20t-3.5 13l-1 4l5 5q12 0 22 -1.5t14 -3.5l4 -2q4 -9 4 -26q0 -39 -19 -74t-37 -50z" />
    <glyph glyph-name="uni021B" unicode="&#x21b;" horiz-adv-x="368" 
d="M24 443v17l86 21l19 115h34v-124h150v-29h-150v-337q0 -77 74 -77q22 0 41 6.5t27 13.5l8 7l13 -14q-4 -5 -12 -13t-36.5 -21.5t-62.5 -13.5q-49 0 -77 26.5t-28 80.5v342h-86zM166 -233l-11 11q5 5 12.5 14.5t19.5 40.5t12 64q0 11 -1.5 20t-3.5 13l-1 4l4 5
q12 0 22 -1.5t15 -3.5l4 -2q4 -9 4 -26q0 -25 -8 -48t-19 -39t-22 -28t-19 -18z" />
    <glyph glyph-name="dotlessj" unicode="&#x237;" horiz-adv-x="266" 
d="M107 -36v336q0 52 -3 93.5t-6 56.5l-3 15l7 7q14 0 26.5 2t18.5 4l6 1l7 -7v-495q0 -46 -15 -87t-36.5 -67t-43 -45t-36.5 -27l-15 -8l-13 13q4 3 11.5 8.5t25.5 25t32 41.5t25.5 58t11.5 75z" />
    <glyph glyph-name="circumflex" unicode="&#x2c6;" horiz-adv-x="349" 
d="M302 572l-6 -6h-23l-98 101l-98 -101h-24l-6 6l119 137h17z" />
    <glyph glyph-name="caron" unicode="&#x2c7;" horiz-adv-x="349" 
d="M296 704l6 -6l-119 -137h-17l-119 137l6 6h24l98 -101l98 101h23z" />
    <glyph glyph-name="breve" unicode="&#x2d8;" horiz-adv-x="376" 
d="M58 649l13 14q4 -7 13 -16.5t39.5 -26t64.5 -16.5t63.5 15t41.5 29l12 15l13 -14q-1 -3 -4 -8.5t-14.5 -19.5t-25 -24.5t-37 -19t-49.5 -8.5t-49 8t-37.5 20t-24.5 24t-15 20z" />
    <glyph glyph-name="dotaccent" unicode="&#x2d9;" horiz-adv-x="261" 
d="M97 627q0 15 9.5 24t24.5 9t24 -9t9 -24t-9 -24.5t-24 -9.5t-24.5 9.5t-9.5 24.5z" />
    <glyph glyph-name="ring" unicode="&#x2da;" horiz-adv-x="259" 
d="M54 635q0 34 21 55t55 21t55 -21t21 -55t-21 -55t-55 -21t-55 21t-21 55zM83 635q0 -20 13.5 -33.5t33.5 -13.5t33 13.5t13 33.5t-13 33.5t-33 13.5t-33.5 -13.5t-13.5 -33.5z" />
    <glyph glyph-name="ogonek" unicode="&#x2db;" horiz-adv-x="237" 
d="M98 0h27q-36 -35 -36 -82q0 -46 44 -46q11 0 20 3t13 6l3 3l14 -13q-18 -27 -57 -27q-30 0 -50.5 18.5t-20.5 52.5q0 24 10.5 45.5t21.5 30.5z" />
    <glyph glyph-name="tilde" unicode="&#x2dc;" horiz-adv-x="376" 
d="M143 646q25 0 50.5 -18t45.5 -18t37.5 10t25.5 20l8 9l13 -13q-1 -2 -3 -6.5t-10 -14.5t-17.5 -18t-25.5 -14.5t-33 -6.5q-25 0 -50.5 18t-45.5 18t-37.5 -10t-25.5 -20l-8 -9l-13 13q3 7 9 17t29 26.5t51 16.5z" />
    <glyph glyph-name="hungarumlaut" unicode="&#x2dd;" horiz-adv-x="415" 
d="M64 566l-6 6l94 137q14 0 25 -2t15 -4l5 -2v-6l-111 -129h-22zM221 566l-6 6l99 137q13 0 24 -2t15 -4l4 -2v-6l-114 -129h-22z" />
    <glyph glyph-name="uni0400" unicode="&#x400;" horiz-adv-x="631" 
d="M116 0v700h433v-37l-7 -6q-47 13 -165 13h-206v-299h318l6 -5v-26h-324v-310h216q52 0 93.5 3t56.5 7l15 3l7 -6v-37h-443zM383 780l-6 -6h-21l-112 129v6q13 8 44 8z" />
    <glyph glyph-name="afii10023" unicode="&#x401;" horiz-adv-x="631" 
d="M116 0v700h433v-37l-7 -6q-47 13 -165 13h-206v-299h318l6 -5v-26h-324v-310h216q52 0 93.5 3t56.5 7l15 3l7 -6v-37h-443zM407 813q0 14 9 23t23 9t22.5 -9t8.5 -23q0 -31 -31 -31q-14 0 -23 8.5t-9 22.5zM195 813q0 14 9 23t23 9t22.5 -9t8.5 -23q0 -31 -31 -31
q-14 0 -23 8.5t-9 22.5z" />
    <glyph glyph-name="afii10051" unicode="&#x402;" horiz-adv-x="902" 
d="M742 210v30q0 144 -158 144q-52 0 -106 -15t-82 -29l-28 -15v-325h-55v670h-101q-52 0 -93.5 -3t-56.5 -7l-15 -3l-7 6v37h601v-37l-6 -6q-47 13 -165 13h-102v-311q12 7 32.5 17.5t82 27.5t119.5 17q192 0 192 -178v-31q0 -218 -176 -218q-47 0 -84.5 15t-51.5 30
l-14 15q0 14 5.5 25.5t10.5 16.5l6 5h8q1 -3 4 -8.5t13.5 -19t23 -24t34 -19t45.5 -8.5q124 0 124 188z" />
    <glyph glyph-name="afii10052" unicode="&#x403;" horiz-adv-x="576" 
d="M299 774l-6 6l95 137q14 0 25 -2t15 -4l4 -2v-6l-112 -129h-21zM116 0v700h420v-37l-7 -6q-47 13 -165 13h-193v-670h-55z" />
    <glyph glyph-name="afii10053" unicode="&#x404;" horiz-adv-x="758" 
d="M426 678q-131 0 -208.5 -83t-82.5 -224h407l6 -6v-26h-413q5 -143 84 -225t213 -82q41 0 80.5 8t66 20t47.5 24t30 20l10 8l14 -15q-3 -4 -10 -11t-30.5 -25t-51 -31.5t-73 -24.5t-94.5 -11q-157 0 -251.5 98.5t-94.5 258.5t94.5 257.5t256.5 97.5q117 0 185.5 -50.5
t68.5 -133.5q0 -15 -2.5 -27t-5.5 -16l-2 -4q-16 -7 -46 -7l-7 7q9 16 9 49q0 72 -54 113t-146 41z" />
    <glyph glyph-name="afii10054" unicode="&#x405;" horiz-adv-x="649" 
d="M315 678q-82 0 -122 -33.5t-40 -92.5q0 -52 37 -82.5t159 -93.5q55 -29 79.5 -42.5t56.5 -35t44 -37.5t21 -39t9 -52q0 -83 -60.5 -129.5t-177.5 -46.5q-46 0 -87 7.5t-66.5 18.5t-44 22t-25.5 18l-8 8q0 16 7 30t13 20l7 7h9q3 -4 8 -11t23.5 -25t40 -31.5t57 -24.5
t73.5 -11q80 0 130 35.5t50 96.5q0 30 -12.5 54t-39.5 44t-54.5 35t-71.5 37q-13 6 -19 9q-49 24 -76 38.5t-56.5 34t-43 38t-22.5 42.5t-9 54q0 80 56 123t162 43q64 0 115.5 -15.5t70.5 -30.5l19 -16q0 -16 -6.5 -30.5t-12.5 -21.5l-7 -6h-9q-2 4 -5.5 10t-18.5 22t-33 28
t-50.5 22t-69.5 10z" />
    <glyph glyph-name="afii10055" unicode="&#x406;" horiz-adv-x="287" 
d="M116 0v700h55v-700h-55z" />
    <glyph glyph-name="afii10056" unicode="&#x407;" horiz-adv-x="287" 
d="M6 793q0 14 9 23t23 9t22.5 -9t8.5 -23q0 -31 -31 -31q-14 0 -23 8.5t-9 22.5zM218 793q0 14 9 23t23 9t22.5 -9t8.5 -23q0 -31 -31 -31q-14 0 -23 8.5t-9 22.5zM116 0v700h55v-700h-55z" />
    <glyph glyph-name="afii10057" unicode="&#x408;" horiz-adv-x="532" 
d="M360 210v490h56v-488q0 -218 -198 -218q-52 0 -94 15t-58 30l-16 15q0 16 6 29.5t12 19.5l6 6h8q2 -4 5 -9.5t15 -20.5t26.5 -26.5t39 -21t52.5 -9.5q140 0 140 188z" />
    <glyph glyph-name="afii10058" unicode="&#x409;" horiz-adv-x="1110" 
d="M39 47l7 6q20 -9 43 -9q65 0 93 107.5t28 329.5q0 63 -2 116t-4 75l-3 21l7 7h435v-314h158q112 0 178 -51.5t66 -141.5t-66 -141.5t-178 -51.5h-213v669h-342v-177q0 -264 -35.5 -381t-118.5 -117q-12 0 -23.5 2t-16.5 4l-6 3q-7 17 -7 44zM988 193q0 76 -52.5 118.5
t-142.5 42.5h-150v-323h150q90 0 142.5 43t52.5 119z" />
    <glyph glyph-name="afii10059" unicode="&#x40a;" horiz-adv-x="1128" 
d="M605 0v349h-434v-349h-55v700h55v-319h434v319h55v-319h159q112 0 177.5 -50t65.5 -140t-65.5 -140.5t-177.5 -50.5h-214zM1005 191q0 76 -52 117t-143 41h-150v-318h150q90 0 142.5 42t52.5 118z" />
    <glyph glyph-name="afii10060" unicode="&#x40b;" horiz-adv-x="902" 
d="M739 0v240q0 144 -156 144q-51 0 -105 -15t-82 -29l-28 -15v-325h-55v670h-101q-52 0 -93.5 -3t-56.5 -7l-15 -3l-7 6v37h601v-37l-6 -6q-47 13 -165 13h-102v-311q12 7 32.5 17.5t82 27.5t119.5 17q192 0 192 -178v-243h-55z" />
    <glyph glyph-name="afii10061" unicode="&#x40c;" horiz-adv-x="663" 
d="M116 0v700h55v-319h63l301 319h44l-300 -319l156 -181q47 -53 92.5 -101.5t67.5 -70.5l22 -21v-7h-68l-313 350h-65v-350h-55zM297 774l-6 6l95 137q14 0 25 -2t15 -4l5 -2v-6l-112 -129h-22z" />
    <glyph glyph-name="uni040D" unicode="&#x40d;" horiz-adv-x="803" 
d="M162 0h-46v700h55v-626l470 626h45v-700h-55v625zM441 780l-6 -6h-22l-112 129v6q14 8 45 8z" />
    <glyph glyph-name="afii10062" unicode="&#x40e;" horiz-adv-x="657" 
d="M134 46l7 7q18 -13 55 -13q38 0 67 26t71 106l-218 395q-24 44 -44 76t-28 42l-8 10v5h67l260 -468l2 3l221 465h36l-230 -482q-65 -136 -102.5 -180t-92.5 -44q-16 0 -30 3t-20 7l-6 3q-7 14 -7 39zM348 752q-62 0 -99.5 24t-37.5 60q0 7 1.5 14t3.5 10l1 4q13 7 35 7
l6 -6q-4 -13 -4 -25q0 -25 26 -41.5t68 -16.5t67.5 16.5t25.5 41.5l-4 24l6 6q10 0 19 -2t13 -4l4 -1q6 -12 6 -28q0 -35 -37.5 -59t-99.5 -24z" />
    <glyph glyph-name="afii10145" unicode="&#x40f;" horiz-adv-x="803" 
d="M171 700v-669h460v669h55v-700h-260l-7 -175h-29l-7 7l-7 168h-260v700h55z" />
    <glyph glyph-name="afii10017" unicode="&#x410;" horiz-adv-x="729" 
d="M164 215l-93 -215h-37l298 682l-6 11v7h61l308 -700h-58l-94 215h-379zM406 528q-34 78 -55 116l-173 -398h351z" />
    <glyph glyph-name="afii10018" unicode="&#x411;" horiz-adv-x="652" 
d="M116 0v700h409v-37l-7 -6q-46 13 -165 13h-182v-277h168q112 0 177.5 -52t65.5 -144q0 -93 -65.5 -145t-177.5 -52h-223zM525 197q0 79 -52.5 122t-142.5 43h-159v-331h159q90 0 142.5 43.5t52.5 122.5z" />
    <glyph glyph-name="afii10019" unicode="&#x412;" horiz-adv-x="691" 
d="M116 0v700h243q107 0 163.5 -46t56.5 -127q0 -128 -130 -163q81 -14 124.5 -60.5t43.5 -119.5q0 -87 -61.5 -135.5t-172.5 -48.5h-267zM560 188q0 75 -49 116t-137 41h-203v-314h203q88 0 137 41t49 116zM523 523q0 69 -44.5 107.5t-127.5 38.5h-180v-293h180
q83 0 127.5 39t44.5 108z" />
    <glyph glyph-name="afii10020" unicode="&#x413;" horiz-adv-x="576" 
d="M116 0v700h420v-37l-7 -6q-47 13 -165 13h-193v-670h-55z" />
    <glyph glyph-name="afii10021" unicode="&#x414;" horiz-adv-x="818" 
d="M760 31l7 -7l-4 -199h-29l-7 7q0 44 -2.5 86t-4.5 62l-3 20h-616q-10 -70 -10 -168l-7 -7h-29l-4 199l7 7h54q117 26 117 449q0 60 -2.5 113.5t-4.5 76.5l-2 23l7 7h445v-669h88zM266 492q0 -382 -89 -461h440v638h-351v-177z" />
    <glyph glyph-name="afii10022" unicode="&#x415;" horiz-adv-x="631" 
d="M116 0v700h433v-37l-7 -6q-47 13 -165 13h-206v-299h318l6 -5v-26h-324v-310h216q52 0 93.5 3t56.5 7l15 3l7 -6v-37h-443z" />
    <glyph glyph-name="afii10024" unicode="&#x416;" horiz-adv-x="962" 
d="M205 200l137 182l-264 318h41l265 -318h70v318h55v-318h68l266 318h42l-266 -319l137 -181q42 -53 82 -101.5t60 -70.5l19 -21v-7h-63l-275 351h-70v-351h-55v351h-72l-273 -351h-63v7q67 73 159 193z" />
    <glyph glyph-name="afii10025" unicode="&#x417;" horiz-adv-x="655" 
d="M322 22q93 0 147.5 43.5t54.5 121.5q0 75 -49 116t-137 41h-105l-6 6v26h87q85 0 129 39.5t44 111.5q0 71 -42.5 111t-123.5 40q-38 0 -72.5 -11t-56.5 -26.5t-38.5 -31t-23.5 -26.5l-7 -11h-9q-24 16 -24 52q2 3 7.5 8.5t25 20t43 25t64 19.5t86.5 9q111 0 169 -47.5
t58 -131.5q0 -130 -131 -165q80 -13 124.5 -59t44.5 -118q0 -90 -70.5 -140.5t-195.5 -50.5q-50 0 -92.5 8.5t-67.5 20.5t-42.5 24t-24.5 21l-7 8q0 16 6 29t12 18l6 5h10q2 -4 6.5 -11.5t22.5 -25.5t39.5 -32t58.5 -25.5t80 -11.5z" />
    <glyph glyph-name="afii10026" unicode="&#x418;" horiz-adv-x="803" 
d="M162 0h-46v700h55v-626l470 626h45v-700h-55v625z" />
    <glyph glyph-name="afii10027" unicode="&#x419;" horiz-adv-x="803" 
d="M162 0h-46v700h55v-626l470 626h45v-700h-55v625zM401 752q-62 0 -99 24t-37 60l5 28q13 7 36 7l6 -6q-5 -13 -5 -25q0 -25 26 -41.5t68 -16.5t68 16.5t26 41.5l-5 24l6 6q11 0 20 -2t13 -4l4 -1q5 -12 5 -28q0 -35 -37.5 -59t-99.5 -24z" />
    <glyph glyph-name="afii10028" unicode="&#x41a;" horiz-adv-x="663" 
d="M116 0v700h55v-319h63l301 319h44l-300 -319l156 -181q47 -53 92.5 -101.5t67.5 -70.5l22 -21v-7h-68l-313 350h-65v-350h-55z" />
    <glyph glyph-name="afii10029" unicode="&#x41b;" horiz-adv-x="759" 
d="M39 47l7 6q20 -9 43 -9q65 0 93 107.5t28 329.5q0 63 -2 116t-4 75l-3 21l7 7h435v-700h-55v669h-342v-177q0 -264 -35.5 -381t-118.5 -117q-12 0 -23.5 2t-16.5 4l-6 3q-7 17 -7 44z" />
    <glyph glyph-name="afii10030" unicode="&#x41c;" horiz-adv-x="933" 
d="M800 0l-90 635l-4 4l-226 -619h-39l-12 12l-237 603l-3 -3l-78 -632h-34l65 528q6 46 8.5 87t2.5 59v19l7 7h65l242 -612l226 612h65l99 -700h-57z" />
    <glyph glyph-name="afii10031" unicode="&#x41d;" horiz-adv-x="803" 
d="M631 0v340h-460v-340h-55v700h55v-329h460v329h55v-700h-55z" />
    <glyph glyph-name="afii10032" unicode="&#x41e;" horiz-adv-x="832" 
d="M75 350q0 159 94 257.5t246 98.5q153 0 247.5 -98.5t94.5 -257.5t-94.5 -257.5t-247.5 -98.5q-152 0 -246 98.5t-94 257.5zM135 350q0 -149 77.5 -238.5t202.5 -89.5q127 0 204.5 89.5t77.5 238.5t-77.5 238.5t-204.5 89.5q-125 0 -202.5 -89.5t-77.5 -238.5z" />
    <glyph glyph-name="afii10033" unicode="&#x41f;" horiz-adv-x="803" 
d="M631 0v669h-460v-669h-55v700h570v-700h-55z" />
    <glyph glyph-name="afii10034" unicode="&#x420;" horiz-adv-x="644" 
d="M116 0v700h223q112 0 177.5 -53t65.5 -145t-65.5 -145t-177.5 -53h-168v-304h-55zM330 669h-159v-333h159q90 0 142.5 43.5t52.5 122.5t-52.5 123t-142.5 44z" />
    <glyph glyph-name="afii10035" unicode="&#x421;" horiz-adv-x="758" 
d="M424 678q-134 0 -211.5 -88t-77.5 -236q0 -149 79.5 -235.5t217.5 -86.5q41 0 80.5 8t66 20t47.5 24t30 20l10 8l14 -15q-3 -4 -10 -11t-30.5 -25t-51 -31.5t-73 -24.5t-94.5 -11q-157 0 -251.5 98.5t-94.5 258.5t94.5 257.5t255.5 97.5q119 0 187 -53.5t68 -143.5
q0 -16 -2.5 -28.5t-5.5 -16.5l-2 -5q-16 -6 -46 -6l-7 6q9 17 9 53q0 77 -54 121.5t-148 44.5z" />
    <glyph glyph-name="afii10036" unicode="&#x422;" horiz-adv-x="682" 
d="M368 670v-670h-55v670h-101q-52 0 -93.5 -3t-56.5 -7l-15 -3l-7 6v37h601v-37l-6 -6q-47 13 -165 13h-102z" />
    <glyph glyph-name="afii10037" unicode="&#x423;" horiz-adv-x="657" 
d="M134 46l7 7q18 -13 55 -13q38 0 67 26t71 106l-218 395q-24 44 -44 76t-28 42l-8 10v5h67l260 -468l2 3l221 465h36l-230 -482q-65 -136 -102.5 -180t-92.5 -44q-16 0 -30 3t-20 7l-6 3q-7 14 -7 39z" />
    <glyph glyph-name="afii10038" unicode="&#x424;" horiz-adv-x="891" 
d="M473 66v-66h-55v66q-155 0 -251.5 79t-96.5 206t96.5 206t251.5 79v64h55v-64q156 0 252.5 -79t96.5 -206t-96.5 -206t-252.5 -79zM764 351q0 116 -80.5 186.5t-210.5 70.5v-514q130 0 210.5 70.5t80.5 186.5zM418 94v514q-130 0 -210 -70t-80 -187t80 -187t210 -70z" />
    <glyph glyph-name="afii10039" unicode="&#x425;" horiz-adv-x="682" 
d="M121 700l225 -307l230 307h42l-251 -335l121 -165q39 -52 76 -100.5t54 -70.5l18 -22v-7h-66l-242 328l-246 -328h-39l265 355l-254 345h67z" />
    <glyph glyph-name="afii10040" unicode="&#x426;" horiz-adv-x="822" 
d="M116 0v700h55v-669h450v669h55v-669h89l6 -7l-6 -199h-29l-7 7q0 44 -2 86t-4 62l-2 20h-605z" />
    <glyph glyph-name="afii10041" unicode="&#x427;" horiz-adv-x="697" 
d="M145 700v-240q0 -144 161 -144q52 0 107 15t84 29l29 15v325h55v-700h-55v341q-12 -7 -33 -17.5t-83.5 -27.5t-122.5 -17q-197 0 -197 178v243h55z" />
    <glyph glyph-name="afii10042" unicode="&#x428;" horiz-adv-x="1090" 
d="M116 0v700h55v-669h346v669h56v-669h346v669h55v-700h-858z" />
    <glyph glyph-name="afii10043" unicode="&#x429;" horiz-adv-x="1121" 
d="M116 0v700h55v-669h346v669h56v-669h346v669h55v-669h88l7 -7l-6 -199h-29l-7 7q0 44 -2 86t-4 62l-2 20h-903z" />
    <glyph glyph-name="afii10044" unicode="&#x42a;" horiz-adv-x="786" 
d="M40 700h278v-314h159q112 0 177.5 -51.5t65.5 -141.5t-65.5 -141.5t-177.5 -51.5h-214v671h-51q-52 0 -93.5 -3.5t-56.5 -7.5l-15 -3l-7 6v37zM663 193q0 76 -52.5 118.5t-142.5 42.5h-150v-323h150q90 0 142.5 42.5t52.5 119.5z" />
    <glyph glyph-name="afii10045" unicode="&#x42b;" horiz-adv-x="888" 
d="M116 0v700h55v-314h159q111 0 177 -51.5t66 -141.5t-66 -141.5t-177 -51.5h-214zM516 193q0 76 -52.5 118.5t-142.5 42.5h-150v-323h150q90 0 142.5 42.5t52.5 119.5zM716 0v700h55v-700h-55z" />
    <glyph glyph-name="afii10046" unicode="&#x42c;" horiz-adv-x="639" 
d="M116 0v700h55v-314h159q111 0 177 -51.5t66 -141.5t-66 -141.5t-177 -51.5h-214zM516 193q0 76 -52.5 118.5t-142.5 42.5h-150v-323h150q90 0 142.5 42.5t52.5 119.5z" />
    <glyph glyph-name="afii10047" unicode="&#x42d;" horiz-adv-x="760" 
d="M339 706q166 0 256 -97t90 -260t-90.5 -259t-261.5 -96q-49 0 -93 8.5t-71.5 20.5t-48 24t-29.5 21l-9 8q0 16 6 29t12 18l6 5h9q3 -4 9 -11.5t27 -25.5t45 -32t63 -25.5t82 -11.5q131 0 206.5 85.5t78.5 231.5h-336l-6 6v26h341q-5 141 -80 224t-199 83q-41 0 -79 -11
t-63 -26.5t-44 -31t-28 -26.5l-9 -11h-9q-24 16 -24 52q3 3 9.5 8.5t29 20t49 25t70 19.5t91.5 9z" />
    <glyph glyph-name="afii10048" unicode="&#x42e;" horiz-adv-x="1054" 
d="M116 0v700h55v-329h192q6 150 90.5 242.5t217.5 92.5q137 0 222.5 -98.5t85.5 -257.5t-85.5 -257.5t-222.5 -98.5q-135 0 -220 95.5t-88 250.5h-192v-340h-55zM423 350q0 -149 68.5 -238.5t179.5 -89.5t179.5 89.5t68.5 238.5t-68.5 238.5t-179.5 89.5t-179.5 -89.5
t-68.5 -238.5z" />
    <glyph glyph-name="afii10049" unicode="&#x42f;" horiz-adv-x="653" 
d="M207 200l76 116q-93 10 -146 60t-53 131q0 90 66 141.5t177 51.5h218v-700h-55v314h-151l-214 -314h-58v7q58 73 140 193zM141 507q0 -76 52.5 -118.5t142.5 -42.5h154v323h-154q-90 0 -142.5 -42.5t-52.5 -119.5z" />
    <glyph glyph-name="afii10065" unicode="&#x430;" horiz-adv-x="560" 
d="M276 478q164 0 164 -136v-269q0 -47 41 -47q8 0 16 2t11 4l4 3l13 -13q-21 -28 -68 -28q-63 0 -70 62q-12 -10 -30.5 -21.5t-61 -26t-85.5 -14.5q-67 0 -101 32t-34 90q0 54 37 83t133 41l142 17v92q0 102 -112 102q-61 0 -96.5 -29t-35.5 -78l5 -38l-7 -7
q-12 0 -22.5 1.5t-14.5 3.5l-4 2q-7 15 -7 39q0 60 47.5 96.5t135.5 36.5zM130 120q0 -91 103 -91q39 0 77.5 13.5t57.5 27.5l19 14v145l-136 -16q-67 -8 -94 -30t-27 -63z" />
    <glyph glyph-name="afii10066" unicode="&#x431;" horiz-adv-x="630" 
d="M565 239q0 -114 -64.5 -179.5t-182.5 -65.5q-127 0 -185.5 84.5t-58.5 269.5q0 128 28.5 208.5t79 118.5t131.5 51l189 30q11 -16 11 -41l-5 -6l-182 -29q-115 -18 -163 -92.5t-49 -201.5l3 -3q2 4 7 10.5t23 22.5t40 28.5t59.5 23t80.5 10.5q112 0 175 -63.5t63 -175.5z
M319 448q-35 0 -66.5 -9.5t-51.5 -22.5t-35.5 -26t-21.5 -22l-7 -10q-5 -11 -5 -64q0 -273 188 -273q86 0 136.5 57.5t50.5 157.5t-51 156t-137 56z" />
    <glyph glyph-name="afii10067" unicode="&#x432;" horiz-adv-x="558" 
d="M107 0v300q0 52 -2.5 93.5t-4.5 56.5l-3 15l7 7h212q70 0 110 -33t40 -87q0 -82 -83 -109q52 -10 81.5 -42t29.5 -78q0 -55 -42 -89t-114 -34h-231zM330 225h-170v-194h170q49 0 79.5 26.5t30.5 70.5t-30.5 70.5t-79.5 26.5zM309 441h-149v-186h149q48 0 76.5 25.5
t28.5 67.5t-28.5 67.5t-76.5 25.5z" />
    <glyph glyph-name="afii10068" unicode="&#x433;" horiz-adv-x="443" 
d="M251 442h-91v-442h-53v300q0 52 -2.5 93.5t-4.5 56.5l-3 15l7 7h312v-36l-7 -7q-44 13 -158 13z" />
    <glyph glyph-name="afii10069" unicode="&#x434;" horiz-adv-x="622" 
d="M570 31l7 -7l-5 -170h-29l-7 7q0 38 -2 73t-4 50l-3 16h-440q-9 -53 -9 -139l-7 -7h-29l-4 170l6 7h52q74 36 74 294q0 43 -2 78t-4 49l-3 13l6 7h325v-441h78zM205 335q0 -237 -59 -304h293v410h-234v-106z" />
    <glyph glyph-name="afii10070" unicode="&#x435;" horiz-adv-x="568" 
d="M483 87l13 -14q-2 -3 -6.5 -8.5t-21 -19t-36.5 -24t-53.5 -19t-71.5 -8.5q-112 0 -177 66t-65 176q0 111 66.5 176.5t182.5 65.5q88 0 136.5 -40.5t48.5 -114.5q0 -18 -2.5 -36t-5.5 -27l-3 -8l-7 -7h-358v-3q0 -100 52 -156.5t146 -56.5q48 0 88.5 14.5t56.5 28.5z
M313 451q-84 0 -133 -48.5t-56 -133.5l320 7q6 28 6 51q0 60 -35 92t-102 32z" />
    <glyph glyph-name="afii10072" unicode="&#x436;" horiz-adv-x="729" 
d="M664 472l-168 -214l47 -69q40 -56 75.5 -101t50.5 -62l15 -18v-8q-16 0 -29.5 -1.5t-18.5 -2.5l-6 -2l-179 241h-59v-235h-53v235h-61l-171 -229l-9 -6h-54l187 259l-160 206v7q12 0 23.5 1.5t16.5 2.5l5 2q37 -64 133 -185l22 -28l68 -5v40q0 52 -2 93.5t-4 56.5l-2 15
l7 7h54v-212l65 4l23 29q43 54 74 97.5t40 59.5l10 16l10 6h50z" />
    <glyph glyph-name="afii10073" unicode="&#x437;" horiz-adv-x="491" 
d="M239 24q63 0 101.5 28.5t38.5 75.5q0 43 -30.5 70t-79.5 27h-106l-6 6v25h91q49 0 78.5 25.5t29.5 67.5q0 45 -32 73t-88 28q-27 0 -51.5 -7.5t-40 -18t-27.5 -21.5t-17 -19l-6 -7h-7q-24 16 -24 42q6 7 18.5 16.5t57 26t96.5 16.5q80 0 126.5 -34.5t46.5 -91.5
q0 -80 -84 -109q51 -9 80 -41.5t29 -76.5q0 -59 -52.5 -95t-141.5 -36q-56 0 -102 15.5t-63 30.5l-18 16q0 11 6 21.5t12 15.5l5 5h7q2 -3 5.5 -8t17 -18t30 -22.5t43.5 -17.5t57 -8z" />
    <glyph glyph-name="afii10074" unicode="&#x438;" horiz-adv-x="623" 
d="M148 0h-41v300q0 52 -2.5 93.5t-4.5 56.5l-3 15l7 7h56v-325l-3 -72l3 -3l316 400h41v-472h-53v350l2 48l-2 2z" />
    <glyph glyph-name="afii10075" unicode="&#x439;" horiz-adv-x="623" 
d="M148 0h-41v300q0 52 -2.5 93.5t-4.5 56.5l-3 15l7 7h56v-325l-3 -72l3 -3l316 400h41v-472h-53v350l2 48l-2 2zM313 544q-62 0 -99.5 24t-37.5 61l6 27q13 7 35 7l6 -6q-4 -13 -4 -25q0 -25 26 -41t68 -16t67.5 16t25.5 41l-4 24l6 6q10 0 19 -1.5t13 -2.5l4 -2
q6 -13 6 -28q0 -36 -37.5 -60t-99.5 -24z" />
    <glyph glyph-name="afii10076" unicode="&#x43a;" horiz-adv-x="516" 
d="M107 0v300q0 52 -2.5 93.5t-4.5 56.5l-3 15l7 7h56v-212l67 5l26 28q47 52 81 95t44 60l11 18l10 6h52l-184 -213l50 -70q43 -54 82 -99t57 -64l17 -18v-8q-16 0 -29.5 -1.5t-19.5 -2.5l-6 -2l-197 241h-61v-235h-53z" />
    <glyph glyph-name="afii10077" unicode="&#x43b;" horiz-adv-x="589" 
d="M34 42l7 7q17 -8 35 -8q90 0 90 283q0 44 -2 79t-4 49l-3 13l6 7h320v-472h-53v441h-229v-107q0 -170 -28.5 -255t-92.5 -85q-10 0 -20 2t-14 4l-5 2q-7 15 -7 40z" />
    <glyph glyph-name="afii10078" unicode="&#x43c;" horiz-adv-x="713" 
d="M589 0l-56 407l-4 3l-156 -410h-41l-11 12l-155 395l-4 -3l-50 -404h-34l-6 6q18 72 30 180l13 114q5 46 8.5 87t4.5 59v19l6 7h60l164 -419l94 247q20 52 33.5 93.5t16.5 56.5l4 16l5 6h65l65 -472h-52z" />
    <glyph glyph-name="afii10079" unicode="&#x43d;" horiz-adv-x="627" 
d="M468 0v229h-308v-229h-53v300q0 52 -2.5 93.5t-4.5 56.5l-3 15l7 7h56v-211h308v39q0 52 -1.5 93.5t-2.5 56.5l-2 16l6 6h53v-472h-53z" />
    <glyph glyph-name="afii10080" unicode="&#x43e;" horiz-adv-x="613" 
d="M65 236q0 108 66.5 175t173.5 67q108 0 175 -67t67 -175t-67 -175t-175 -67q-107 0 -173.5 67t-66.5 175zM123 236q0 -98 50 -156.5t132 -58.5q83 0 133.5 58.5t50.5 156.5t-50.5 156.5t-133.5 58.5q-82 0 -132 -58.5t-50 -156.5z" />
    <glyph glyph-name="afii10081" unicode="&#x43f;" horiz-adv-x="623" 
d="M464 0v441h-304v-441h-53v300q0 52 -2.5 93.5t-4.5 56.5l-3 15l7 7h413v-472h-53z" />
    <glyph glyph-name="afii10082" unicode="&#x440;" horiz-adv-x="616" 
d="M160 -250h-53v447q0 84 -3 151t-6 92l-3 25l7 7q14 0 26.5 2t18.5 4l6 1l7 -7l-3 -53l3 -3q7 7 20.5 17.5t57.5 27.5t92 17q98 0 159.5 -64.5t61.5 -174.5q0 -113 -64 -179t-173 -66q-102 0 -154 52v-296zM493 232q0 99 -51 154.5t-132 55.5q-40 0 -77.5 -13.5
t-54.5 -26.5l-18 -14v-262q0 -47 43 -76t106 -29q83 0 133.5 56.5t50.5 154.5z" />
    <glyph glyph-name="afii10083" unicode="&#x441;" horiz-adv-x="552" 
d="M481 87l14 -14q-2 -3 -6.5 -8.5t-21 -19t-36.5 -24t-53.5 -19t-71.5 -8.5q-111 0 -176 66t-65 176t65 176t182 66q84 0 130.5 -35t46.5 -96q0 -11 -1.5 -21t-3.5 -14l-1 -5q-14 -7 -41 -7l-7 7q6 18 6 41q0 49 -34.5 76t-96.5 27q-89 0 -138 -57t-49 -152
q0 -100 52 -156.5t145 -56.5q48 0 88 14.5t56 28.5z" />
    <glyph glyph-name="afii10084" unicode="&#x442;" horiz-adv-x="493" 
d="M466 436l-6 -7q-45 13 -159 13h-29v-442h-53v442h-27q-51 0 -90.5 -3t-53.5 -7l-15 -3l-7 7v36h440v-36z" />
    <glyph glyph-name="afii10085" unicode="&#x443;" horiz-adv-x="539" 
d="M506 472l-251 -550l-71 -169l-5 -5q-14 0 -27.5 3.5t-20.5 6.5l-7 4v7q53 64 99 164l31 67l-136 300q-23 52 -44.5 93.5t-31.5 57.5l-9 16l5 5l57 4l186 -418l112 242q24 52 40 94t20 58l4 15l5 5l39 5z" />
    <glyph glyph-name="afii10086" unicode="&#x444;" horiz-adv-x="754" 
d="M350 -250v250q-16 -6 -48 -6q-104 0 -170.5 67t-66.5 175t66.5 175t170.5 67q14 0 26 -1.5t17 -2.5l5 -2v18q0 76 -3 139t-6 89l-3 25l7 7q14 0 26.5 2t18.5 4l6 1l7 -7v-278q18 6 48 6q104 0 171 -67t67 -175t-67 -175t-171 -67q-13 0 -25 1.5t-18 2.5l-5 2v-250h-53z
M632 236q0 98 -50.5 156.5t-133.5 58.5q-12 0 -23 -1.5t-17 -3.5l-5 -1v-418q19 -6 45 -6q83 0 133.5 58.5t50.5 156.5zM122 236q0 -98 50.5 -156.5t133.5 -58.5q12 0 23 1.5t16 3.5l5 1v418q-17 6 -44 6q-83 0 -133.5 -58.5t-50.5 -156.5z" />
    <glyph glyph-name="afii10087" unicode="&#x445;" horiz-adv-x="528" 
d="M119 478l152 -204l21 26q41 53 71.5 94.5t40.5 56.5l9 15l9 6h46l-177 -225l36 -47q40 -53 78 -101t56 -70l18 -22v-7q-17 0 -32.5 -1.5t-22.5 -2.5l-7 -2l-163 218l-10 -12q-42 -53 -78 -101.5t-51 -70.5l-15 -22l-9 -6h-37l-5 5l184 234l-45 61q-40 52 -72.5 93.5
t-45.5 56.5l-13 15v7q17 0 32.5 1.5t22.5 2.5z" />
    <glyph glyph-name="afii10088" unicode="&#x446;" horiz-adv-x="647" 
d="M107 0v300q0 52 -2.5 93.5t-4.5 56.5l-3 15l7 7h56v-441h304v269q0 52 -1.5 93.5t-2.5 56.5l-2 16l6 6h53v-441h78l7 -7l-7 -170h-29l-7 7q0 38 -2 73t-4 50l-2 16h-444z" />
    <glyph glyph-name="afii10089" unicode="&#x447;" horiz-adv-x="569" 
d="M138 472v-165q0 -49 23 -70.5t74 -21.5q46 0 89.5 11.5t63.5 23.5l21 11v39q0 52 -2 93.5t-4 56.5l-2 15l7 7h54v-472h-53v231q-8 -6 -24 -14.5t-67 -23t-104 -14.5q-69 0 -99 31.5t-30 94.5v20q0 45 -3 80t-6 47l-3 13l6 7h59z" />
    <glyph glyph-name="afii10090" unicode="&#x448;" horiz-adv-x="867" 
d="M107 0v300q0 52 -2.5 93.5t-4.5 56.5l-3 15l7 7h56v-441h247v269q0 52 -1.5 93.5t-3.5 56.5l-1 16l6 6h54v-441h247v269q0 52 -1.5 93.5t-2.5 56.5l-2 16l6 6h53v-472h-654z" />
    <glyph glyph-name="afii10091" unicode="&#x449;" horiz-adv-x="891" 
d="M107 0v300q0 52 -2.5 93.5t-4.5 56.5l-3 15l7 7h56v-441h247v269q0 52 -1.5 93.5t-3.5 56.5l-1 16l6 6h54v-441h247v269q0 52 -1.5 93.5t-2.5 56.5l-2 16l6 6h53v-441h78l7 -7l-7 -170h-29l-7 7q0 38 -2 73t-4 50l-2 16h-688z" />
    <glyph glyph-name="afii10092" unicode="&#x44a;" horiz-adv-x="606" 
d="M193 0v442h-29q-42 0 -75 -3.5t-45 -6.5l-11 -4l-7 7v37h220v-201h148q70 0 113 -38t43 -98t-43 -97.5t-113 -37.5h-201zM386 239h-140v-208h140q49 0 79.5 28.5t30.5 75.5t-30.5 75.5t-79.5 28.5z" />
    <glyph glyph-name="afii10093" unicode="&#x44b;" horiz-adv-x="740" 
d="M107 0v300q0 52 -2.5 93.5t-4.5 56.5l-3 15l7 7h56v-201h148q70 0 113.5 -38t43.5 -98t-43.5 -97.5t-113.5 -37.5h-201zM300 239h-140v-208h140q50 0 80 28.5t30 75.5t-30 75.5t-80 28.5zM580 0v300q0 52 -1.5 93.5t-2.5 56.5l-2 16l6 6h53v-472h-53z" />
    <glyph glyph-name="afii10094" unicode="&#x44c;" horiz-adv-x="520" 
d="M107 0v300q0 52 -2.5 93.5t-4.5 56.5l-3 15l7 7h56v-201h148q70 0 113.5 -38t43.5 -98t-43.5 -97.5t-113.5 -37.5h-201zM300 239h-140v-208h140q50 0 80 28.5t30 75.5t-30 75.5t-80 28.5z" />
    <glyph glyph-name="afii10095" unicode="&#x44d;" horiz-adv-x="542" 
d="M234 24q86 0 134 53.5t51 148.5h-219l-6 6v24h224q-5 91 -52.5 142.5t-130.5 51.5q-45 0 -82 -18t-51 -36l-15 -17h-7q-24 17 -24 43q6 6 19 15.5t59 25t99 15.5q117 0 180.5 -66t63.5 -176t-64 -176t-180 -66q-56 0 -101 15t-62 30l-18 15q0 11 6 21.5t12 14.5l5 5h7
q2 -3 5.5 -7.5t17.5 -17t30 -22t42.5 -17t56.5 -7.5z" />
    <glyph glyph-name="afii10096" unicode="&#x44e;" horiz-adv-x="781" 
d="M107 0v300q0 52 -2.5 93.5t-4.5 56.5l-3 15l7 7h56v-211h120q8 98 67.5 157.5t151.5 59.5q99 0 160.5 -67t61.5 -175t-61.5 -175t-160.5 -67q-97 0 -157.5 65t-62.5 170h-119v-229h-53zM334 236q0 -98 45.5 -156.5t119.5 -58.5q75 0 120.5 58.5t45.5 156.5t-45.5 156.5
t-120.5 58.5q-74 0 -119.5 -58.5t-45.5 -156.5z" />
    <glyph glyph-name="afii10097" unicode="&#x44f;" horiz-adv-x="551" 
d="M73 0v8q55 54 145 181l12 18q-65 4 -104 39.5t-39 93.5q0 59 43 95.5t113 36.5h202v-472h-53v207h-108l-157 -213q-21 6 -54 6zM251 238h141v203h-141q-49 0 -80 -27.5t-31 -73.5q0 -47 30.5 -74.5t80.5 -27.5z" />
    <glyph glyph-name="uni0450" unicode="&#x450;" horiz-adv-x="568" 
d="M483 87l13 -14q-2 -3 -6.5 -8.5t-21 -19t-36.5 -24t-53.5 -19t-71.5 -8.5q-112 0 -177 66t-65 176q0 111 66.5 176.5t182.5 65.5q88 0 136.5 -40.5t48.5 -114.5q0 -18 -2.5 -36t-5.5 -27l-3 -8l-7 -7h-358v-3q0 -100 52 -156.5t146 -56.5q48 0 88.5 14.5t56.5 28.5z
M313 451q-84 0 -133 -48.5t-56 -133.5l320 7q6 28 6 51q0 60 -35 92t-102 32zM335 572l-6 -6h-22l-112 129v6q14 8 44 8z" />
    <glyph glyph-name="afii10071" unicode="&#x451;" horiz-adv-x="568" 
d="M483 87l13 -14q-2 -3 -6.5 -8.5t-21 -19t-36.5 -24t-53.5 -19t-71.5 -8.5q-112 0 -177 66t-65 176q0 111 66.5 176.5t182.5 65.5q88 0 136.5 -40.5t48.5 -114.5q0 -18 -2.5 -36t-5.5 -27l-3 -8l-7 -7h-358v-3q0 -100 52 -156.5t146 -56.5q48 0 88.5 14.5t56.5 28.5z
M313 451q-84 0 -133 -48.5t-56 -133.5l320 7q6 28 6 51q0 60 -35 92t-102 32zM160 605q0 14 9 22.5t23 8.5q31 0 31 -31t-31 -31q-14 0 -23 8.5t-9 22.5zM373 605q0 31 31 31t31 -31t-31 -31t-31 31z" />
    <glyph glyph-name="afii10099" unicode="&#x452;" horiz-adv-x="629" 
d="M469 -36v371q0 57 -26.5 82t-88.5 25q-48 0 -96 -13.5t-72 -26.5l-24 -14v-388h-53v602h-87v15l87 19v114h53v-119h182v-29h-182v-129l-3 -55l3 -3q10 7 27.5 17.5t73.5 28t113 17.5q79 0 113 -33.5t34 -105.5v-362q0 -46 -15 -87t-36.5 -67t-43 -45t-36.5 -27l-15 -8
l-14 13q4 3 11.5 8.5t25.5 25t32 41.5t25.5 58t11.5 75z" />
    <glyph glyph-name="afii10100" unicode="&#x453;" horiz-adv-x="443" 
d="M251 442h-91v-442h-53v300q0 52 -2.5 93.5t-4.5 56.5l-3 15l7 7h312v-36l-7 -7q-44 13 -158 13zM197 566l-6 6l95 137q14 0 25 -2t15 -4l5 -2v-6l-112 -129h-22z" />
    <glyph glyph-name="afii10101" unicode="&#x454;" horiz-adv-x="550" 
d="M481 87l14 -14q-2 -3 -6.5 -8.5t-21 -19t-36.5 -24t-53.5 -19t-71.5 -8.5q-111 0 -176 66t-65 176t65.5 176t182.5 66q81 0 128.5 -32.5t47.5 -87.5q0 -10 -1.5 -19t-3.5 -13l-1 -4q-13 -7 -40 -7l-7 7q5 16 5 34q0 45 -35 70t-95 25q-86 0 -135 -53t-53 -142h246l6 -5
v-24h-252q5 -94 56 -146t141 -52q48 0 88 14.5t56 28.5z" />
    <glyph glyph-name="afii10102" unicode="&#x455;" horiz-adv-x="482" 
d="M238 450q-119 0 -119 -79q0 -14 3 -24.5t14 -20.5t18.5 -16.5t30 -16.5t35 -15.5t45.5 -18.5q89 -38 122.5 -65t33.5 -78q0 -122 -175 -122q-37 0 -69.5 6t-52.5 14t-35 16.5t-21 14.5l-6 6q0 12 6 22.5t12 15.5l6 5h7q2 -3 5.5 -8t17 -17t29.5 -21.5t43.5 -17.5t58.5 -8
q57 0 92 21.5t35 63.5q0 39 -31.5 60.5t-113.5 52.5q-82 30 -119 59t-37 82q0 56 43.5 86.5t125.5 30.5q49 0 89 -11t55 -22l15 -11q0 -12 -6.5 -23t-12.5 -16l-6 -5h-7q-1 2 -3.5 6.5t-13 14.5t-23.5 18t-37.5 14.5t-53.5 6.5z" />
    <glyph glyph-name="afii10103" unicode="&#x456;" horiz-adv-x="266" 
d="M107 0v300q0 52 -3 93.5t-6 56.5l-3 15l7 7q14 0 26.5 2t18.5 4l6 1l7 -7v-472h-53zM94 631q0 17 10 27.5t27 10.5t27.5 -10.5t10.5 -27.5t-10.5 -27.5t-27.5 -10.5t-27 10.5t-10 27.5z" />
    <glyph glyph-name="afii10104" unicode="&#x457;" horiz-adv-x="266" 
d="M107 0v300q0 52 -3 93.5t-6 56.5l-3 15l7 7q14 0 26.5 2t18.5 4l6 1l7 -7v-472h-53zM18 605q0 14 9 22.5t23 8.5t22.5 -8.5t8.5 -22.5t-8.5 -22.5t-22.5 -8.5t-23 8.5t-9 22.5zM186 605q0 31 31 31t31 -31t-31 -31t-31 31z" />
    <glyph glyph-name="afii10105" unicode="&#x458;" horiz-adv-x="266" 
d="M107 -36v336q0 52 -3 93.5t-6 56.5l-3 15l7 7q14 0 26.5 2t18.5 4l6 1l7 -7v-495q0 -46 -15 -87t-36.5 -67t-43 -45t-36.5 -27l-15 -8l-13 13q4 3 11.5 8.5t25.5 25t32 41.5t25.5 58t11.5 75zM94 631q0 17 10 27.5t27 10.5t27.5 -10.5t10.5 -27.5t-10.5 -27.5
t-27.5 -10.5t-27 10.5t-10 27.5z" />
    <glyph glyph-name="afii10106" unicode="&#x459;" horiz-adv-x="831" 
d="M34 41l7 7q17 -7 35 -7q91 0 91 284q0 43 -2.5 78t-4.5 49l-3 13l7 7h319v-201h135q70 0 113.5 -38t43.5 -98t-43.5 -97.5t-113.5 -37.5h-188v441h-229v-107q0 -169 -28.5 -254.5t-92.5 -85.5q-10 0 -19.5 2t-14.5 4l-5 2q-7 14 -7 39zM611 239h-128v-208h128
q49 0 79.5 28.5t30.5 75.5t-30.5 75.5t-79.5 28.5z" />
    <glyph glyph-name="afii10107" unicode="&#x45a;" horiz-adv-x="844" 
d="M443 0v235h-283v-235h-53v300q0 52 -2.5 93.5t-4.5 56.5l-3 15l7 7h56v-206h283v34q0 52 -1.5 93.5t-3.5 56.5l-1 16l6 6h54v-205h135q70 0 113.5 -37t43.5 -97t-43.5 -96.5t-113.5 -36.5h-189zM625 235h-128v-204h128q49 0 79 28t30 74q0 47 -30 74.5t-79 27.5z" />
    <glyph glyph-name="afii10108" unicode="&#x45b;" horiz-adv-x="629" 
d="M22 602v15l87 19v114h53v-119h182v-29h-182v-129l-3 -55l3 -3q10 7 27.5 17.5t73.5 28t113 17.5q79 0 113 -33.5t34 -105.5v-339h-54v335q0 57 -26.5 82t-88.5 25q-48 0 -96 -13.5t-72 -26.5l-24 -14v-388h-53v602h-87z" />
    <glyph glyph-name="afii10109" unicode="&#x45c;" horiz-adv-x="516" 
d="M107 0v300q0 52 -2.5 93.5t-4.5 56.5l-3 15l7 7h56v-212l67 5l26 28q47 52 81 95t44 60l11 18l10 6h52l-184 -213l50 -70q43 -54 82 -99t57 -64l17 -18v-8q-16 0 -29.5 -1.5t-19.5 -2.5l-6 -2l-197 241h-61v-235h-53zM234 566l-6 6l95 137q14 0 25 -2t16 -4l4 -2v-6
l-112 -129h-22z" />
    <glyph glyph-name="uni045D" unicode="&#x45d;" horiz-adv-x="623" 
d="M148 0h-41v300q0 52 -2.5 93.5t-4.5 56.5l-3 15l7 7h56v-325l-3 -72l3 -3l316 400h41v-472h-53v350l2 48l-2 2zM341 572l-6 -6h-22l-112 129v6q14 8 45 8z" />
    <glyph glyph-name="afii10110" unicode="&#x45e;" horiz-adv-x="539" 
d="M506 472l-251 -550l-71 -169l-5 -5q-14 0 -27.5 3.5t-20.5 6.5l-7 4v7q53 64 99 164l31 67l-135 300q-24 52 -45.5 93.5t-31.5 57.5l-9 16l5 5l57 4l186 -418l112 242q24 52 40 94t20 58l4 15l5 5l39 5zM273 544q-62 0 -99.5 24t-37.5 61l6 27q13 7 36 7l6 -6
q-5 -13 -5 -25q0 -25 26 -41t68 -16t68 16t26 41l-5 24l6 6q11 0 20 -1.5t13 -2.5l4 -2q5 -13 5 -28q0 -36 -37.5 -60t-99.5 -24z" />
    <glyph glyph-name="afii10193" unicode="&#x45f;" horiz-adv-x="631" 
d="M107 0v300q0 52 -2.5 93.5t-4.5 56.5l-3 15l7 7h56v-441h304v269q0 52 -1.5 93.5t-2.5 56.5l-2 16l6 6h53v-472h-180l-7 -146h-29l-7 7l-7 139h-180z" />
    <glyph glyph-name="afii10050" unicode="&#x490;" horiz-adv-x="559" 
d="M116 0v700h347q9 60 9 150l6 6h30l6 -180l-7 -7h-336v-669h-55z" />
    <glyph glyph-name="afii10098" unicode="&#x491;" horiz-adv-x="447" 
d="M107 0v300q0 52 -2.5 93.5t-4.5 56.5l-3 15l7 7h250q7 53 7 139l7 6h29l6 -169l-7 -7h-236v-441h-53z" />
    <glyph glyph-name="uni04D8" unicode="&#x4d8;" horiz-adv-x="771" 
d="M80 236q0 26 4 49t8 33l4 10l10 9h530v9q0 147 -78.5 234.5t-213.5 87.5q-44 0 -84 -9.5t-66.5 -23t-47 -27.5t-29.5 -24l-9 -9l-14 15q3 5 9.5 12.5t29.5 27.5t50.5 35.5t74 28t98.5 12.5q155 0 247.5 -98.5t92.5 -256.5q0 -160 -93.5 -258.5t-248.5 -98.5
q-126 0 -200 66t-74 176zM353 22q119 0 195 78t86 210l-493 -10q-7 -32 -7 -69q0 -98 59 -153.5t160 -55.5z" />
    <glyph glyph-name="afii10846" unicode="&#x4d9;" horiz-adv-x="562" 
d="M79 385l-13 14q2 3 6.5 8.5t21 19t36.5 24t53.5 19t71.5 8.5q112 0 177 -66t65 -176q0 -111 -66 -176.5t-182 -65.5q-89 0 -137.5 40.5t-48.5 114.5q0 18 2.5 36t5.5 27l3 8l7 7h358v3q0 100 -52 156.5t-146 56.5q-48 0 -88.5 -14.5t-56.5 -28.5zM250 21q82 0 131 48
t57 133l-319 -6q-6 -22 -6 -51q0 -60 35 -92t102 -32z" />
    <glyph glyph-name="Wgrave" unicode="&#x1e80;" horiz-adv-x="1071" 
d="M728 12l-183 485l-179 -497h-40l-12 12l-205 516q-21 52 -39 93.5t-26 56.5l-8 15v7h62l255 -637l174 482q-18 47 -33.5 84t-21.5 51l-7 13v7h62l240 -635l235 635h36l-258 -700h-40zM587 780l-6 -6h-21l-112 129v6q13 8 44 8z" />
    <glyph glyph-name="wgrave" unicode="&#x1e81;" horiz-adv-x="797" 
d="M532 12l-107 288l-20 51l-126 -351h-39l-12 12l-116 288q-22 53 -41.5 95t-28.5 57l-9 15l5 5l56 4l171 -421l121 340l-34 72l5 5l53 4l159 -421l94 245q20 53 33 95t16 57l2 15l5 5l40 5l5 -5l-180 -472h-39zM433 572l-6 -6h-21l-112 129v6q13 8 44 8z" />
    <glyph glyph-name="Wacute" unicode="&#x1e82;" horiz-adv-x="1071" 
d="M728 12l-183 485l-179 -497h-40l-12 12l-205 516q-21 52 -39 93.5t-26 56.5l-8 15v7h62l255 -637l174 482q-18 47 -33.5 84t-21.5 51l-7 13v7h62l240 -635l235 635h36l-258 -700h-40zM512 774l-6 6l95 137q14 0 25 -2t15 -4l4 -2v-6l-111 -129h-22z" />
    <glyph glyph-name="wacute" unicode="&#x1e83;" horiz-adv-x="797" 
d="M532 12l-107 288l-20 51l-126 -351h-39l-12 12l-116 288q-22 53 -41.5 95t-28.5 57l-9 15l5 5l56 4l171 -421l121 340l-34 72l5 5l53 4l159 -421l94 245q20 53 33 95t16 57l2 15l5 5l40 5l5 -5l-180 -472h-39zM380 566l-6 6l95 137q14 0 25 -2t15 -4l4 -2v-6l-112 -129
h-21z" />
    <glyph glyph-name="Wdieresis" unicode="&#x1e84;" horiz-adv-x="1071" 
d="M728 12l-183 485l-179 -497h-40l-12 12l-205 516q-21 52 -39 93.5t-26 56.5l-8 15v7h62l255 -637l174 482q-18 47 -33.5 84t-21.5 51l-7 13v7h62l240 -635l235 635h36l-258 -700h-40zM408 813q0 14 9 23t23 9t22.5 -9t8.5 -23q0 -31 -31 -31q-14 0 -23 8.5t-9 22.5z
M620 813q0 14 9 23t23 9t22.5 -9t8.5 -23q0 -31 -31 -31q-14 0 -23 8.5t-9 22.5z" />
    <glyph glyph-name="wdieresis" unicode="&#x1e85;" horiz-adv-x="797" 
d="M532 12l-107 288l-20 51l-126 -351h-39l-12 12l-116 288q-22 53 -41.5 95t-28.5 57l-9 15l5 5l56 4l171 -421l121 340l-34 72l5 5l53 4l159 -421l94 245q20 53 33 95t16 57l2 15l5 5l40 5l5 -5l-180 -472h-39zM269 605q0 14 9 22.5t23 8.5q31 0 31 -31t-31 -31
q-14 0 -23 8.5t-9 22.5zM481 605q0 14 9 22.5t23 8.5q31 0 31 -31t-31 -31q-14 0 -23 8.5t-9 22.5z" />
    <glyph glyph-name="Ygrave" unicode="&#x1ef2;" horiz-adv-x="653" 
d="M616 700l-262 -386v-314h-55v313l-118 174q-38 56 -75 107.5t-54 75.5l-18 23v7h67l237 -346l238 346h40zM366 795l-6 -6h-21l-112 129v6q13 8 44 8z" />
    <glyph glyph-name="ygrave" unicode="&#x1ef3;" horiz-adv-x="539" 
d="M506 472l-251 -550l-71 -169l-5 -5q-14 0 -27.5 3.5t-20.5 6.5l-7 4v7q53 64 99 164l31 67l-136 300q-23 52 -44.5 93.5t-31.5 57.5l-9 16l5 5l57 4l186 -418l112 242q24 52 40 94t20 58l4 15l5 5l39 5zM302 572l-6 -6h-22l-112 129v6q14 8 44 8z" />
    <glyph glyph-name="figuredash" unicode="&#x2012;" 
d="M74 334v32h451v-32h-451z" />
    <glyph glyph-name="endash" unicode="&#x2013;" horiz-adv-x="498" 
d="M74 259v32h351v-32h-351z" />
    <glyph glyph-name="emdash" unicode="&#x2014;" horiz-adv-x="798" 
d="M74 259v32h651v-32h-651z" />
    <glyph glyph-name="quoteleft" unicode="&#x2018;" horiz-adv-x="194" 
d="M156 754l13 -13q-6 -8 -14.5 -21.5t-23 -53.5t-14.5 -76q0 -13 1.5 -24t3.5 -16l2 -5l-5 -6q-15 0 -27 2.5t-17 4.5l-5 2q-5 11 -5 31q0 28 9.5 56.5t22.5 48.5t26.5 36.5t22.5 25.5z" />
    <glyph glyph-name="quoteright" unicode="&#x2019;" horiz-adv-x="194" 
d="M60 540l-13 14q6 8 14.5 21.5t23 53t14.5 75.5q0 13 -1.5 24.5t-3.5 16.5l-2 5l5 5q15 0 27.5 -2t17.5 -4l5 -2q4 -11 4 -32q0 -28 -9.5 -56.5t-22.5 -48.5t-26.5 -36.5t-22.5 -25.5z" />
    <glyph glyph-name="quotesinglbase" unicode="&#x201a;" horiz-adv-x="194" 
d="M50 -154l-13 14q6 8 14.5 21.5t23 53t14.5 75.5q0 13 -1.5 24.5t-3.5 16.5l-2 5l5 5q15 0 27.5 -2.5t17.5 -4.5l5 -2q4 -10 4 -31q0 -28 -9.5 -56.5t-22.5 -48.5t-26.5 -36.5t-22.5 -25.5z" />
    <glyph glyph-name="quotedblleft" unicode="&#x201c;" horiz-adv-x="321" 
d="M156 754l13 -13q-6 -8 -14.5 -21.5t-23 -53.5t-14.5 -76q0 -13 1.5 -24t3.5 -16l2 -5l-5 -6q-15 0 -27 2.5t-17 4.5l-5 2q-5 11 -5 31q0 28 9.5 56.5t22.5 48.5t26.5 36.5t22.5 25.5zM283 754l13 -13q-6 -8 -14.5 -21.5t-23 -53.5t-14.5 -76q0 -13 2 -24t4 -16l1 -5
l-5 -6q-15 0 -27.5 2.5t-17.5 4.5l-5 2q-4 11 -4 31q0 28 9.5 56.5t23 48.5t26.5 36.5t23 25.5z" />
    <glyph glyph-name="quotedblright" unicode="&#x201d;" horiz-adv-x="321" 
d="M60 540l-13 14q6 8 14.5 21.5t23 53t14.5 75.5q0 13 -1.5 24.5t-3.5 16.5l-2 5l5 5q15 0 27.5 -2t17.5 -4l5 -2q4 -11 4 -32q0 -28 -9.5 -56.5t-22.5 -48.5t-26.5 -36.5t-22.5 -25.5zM187 540l-13 14q6 8 14.5 21.5t23 53t14.5 75.5q0 13 -2 24.5t-4 16.5l-1 5l5 5
q15 0 27.5 -2t17.5 -4l5 -2q4 -11 4 -32q0 -28 -9.5 -56.5t-23 -48.5t-26.5 -36.5t-23 -25.5z" />
    <glyph glyph-name="quotedblbase" unicode="&#x201e;" horiz-adv-x="321" 
d="M50 -154l-13 14q6 8 14.5 21.5t23 53t14.5 75.5q0 13 -1.5 24.5t-3.5 16.5l-2 5l5 5q15 0 27.5 -2.5t17.5 -4.5l5 -2q4 -10 4 -31q0 -28 -9.5 -56.5t-22.5 -48.5t-26.5 -36.5t-22.5 -25.5zM177 -154l-13 14q6 8 14.5 21.5t23 53t14.5 75.5q0 13 -2 24.5t-4 16.5l-1 5l5 5
q15 0 27.5 -2.5t17.5 -4.5l5 -2q4 -10 4 -31q0 -28 -9.5 -56.5t-23 -48.5t-26.5 -36.5t-23 -25.5z" />
    <glyph glyph-name="dagger" unicode="&#x2020;" horiz-adv-x="523" 
d="M70 501v34l176 -2l-2 217h34l-2 -217l177 2v-34l-176 2v-553h-31v553z" />
    <glyph glyph-name="daggerdbl" unicode="&#x2021;" horiz-adv-x="523" 
d="M70 501v34l176 -2l-2 217h34l-2 -217l177 2v-34l-176 2v-306l176 2v-34l-177 2l2 -217h-34l2 217l-176 -2v34l176 -2v306z" />
    <glyph glyph-name="bullet" unicode="&#x2022;" horiz-adv-x="270" 
d="M70 300q0 29 18 47t47 18t47 -18t18 -47t-18 -47t-47 -18t-47 18t-18 47z" />
    <glyph glyph-name="ellipsis" unicode="&#x2026;" horiz-adv-x="585" 
d="M62 28q0 16 9.5 25.5t25.5 9.5t25.5 -9.5t9.5 -25.5t-9.5 -25.5t-25.5 -9.5t-25.5 9.5t-9.5 25.5zM257 28q0 16 10 25.5t26 9.5t25.5 -9.5t9.5 -25.5t-9.5 -25.5t-25.5 -9.5t-26 9.5t-10 25.5zM453 28q0 16 9.5 25.5t25.5 9.5t26 -9.5t10 -25.5t-10 -25.5t-26 -9.5
t-25.5 9.5t-9.5 25.5z" />
    <glyph glyph-name="perthousand" unicode="&#x2030;" horiz-adv-x="1249" 
d="M234 0h-36l432 700h36zM44 515q0 85 46 138t119 53q74 0 120 -53t46 -138t-46 -138t-120 -53q-73 0 -119 53t-46 138zM88 515q0 -74 33.5 -118.5t87.5 -44.5t88 44.5t34 118.5t-34 118.5t-88 44.5t-87.5 -44.5t-33.5 -118.5zM489 185q0 85 45.5 138t119.5 53t119.5 -53
t45.5 -138t-45.5 -138t-119.5 -53t-119.5 53t-45.5 138zM533 185q0 -74 33.5 -118.5t87.5 -44.5t87.5 44.5t33.5 118.5t-33.5 118.5t-87.5 44.5t-87.5 -44.5t-33.5 -118.5zM874 185q0 85 45.5 138t119.5 53t119.5 -53t45.5 -138t-45.5 -138t-119.5 -53t-119.5 53t-45.5 138z
M918 185q0 -74 33.5 -118.5t87.5 -44.5t87.5 44.5t33.5 118.5t-33.5 118.5t-87.5 44.5t-87.5 -44.5t-33.5 -118.5z" />
    <glyph glyph-name="guilsinglleft" unicode="&#x2039;" horiz-adv-x="300" 
d="M232 449l6 -6v-24l-138 -144l138 -144v-24l-6 -6l-178 167v14z" />
    <glyph glyph-name="guilsinglright" unicode="&#x203a;" horiz-adv-x="300" 
d="M62 443l6 6l178 -167v-14l-178 -167l-6 6v24l138 144l-138 144v24z" />
    <glyph glyph-name="fraction" unicode="&#x2044;" horiz-adv-x="519" 
d="M61 -25h-36l432 750h36z" />
    <glyph glyph-name="Euro" unicode="&#x20ac;" horiz-adv-x="777" 
d="M27 405v31h73q23 126 110.5 198t229.5 72q47 0 90 -8.5t70.5 -20.5t48 -24t29.5 -21l9 -8q0 -15 -5.5 -27t-11.5 -17l-6 -4h-9q-3 4 -9 11t-27 24.5t-45 31t-62 24.5t-79 11q-109 0 -181 -64.5t-92 -177.5h341l5 -5v-26h-350q-3 -27 -3 -56q0 -36 4 -63h344l5 -5v-26
h-344q21 -110 92.5 -171.5t183.5 -61.5q43 0 81.5 10.5t63.5 25.5t44 30t27 26l9 10h9q23 -14 23 -48q-3 -3 -9 -8.5t-28.5 -20t-48.5 -25t-70 -19.5t-93 -9q-144 0 -232 69.5t-112 191.5h-75v31h70q-4 27 -4 63q0 29 3 56h-69z" />
    <glyph glyph-name="uni20B4" unicode="&#x20b4;" horiz-adv-x="580" 
d="M74 405v31h299q69 57 69 120q0 50 -41 81t-116 31q-38 0 -70.5 -8t-53 -19.5t-35.5 -23t-21 -19.5l-6 -8l-14 15q2 4 6.5 11t22 24.5t39.5 30.5t61 24t85 11q94 0 147 -40t53 -104q0 -67 -64 -126h71v-31h-108q-27 -20 -81 -55t-68 -45h257v-31h-298q-73 -61 -73 -126
q0 -53 43.5 -84.5t121.5 -31.5q39 0 73.5 8t56 20t37 24t21.5 20l7 8l14 -14q-2 -4 -7 -11t-23.5 -25t-41.5 -32t-64 -25t-89 -11q-96 0 -151.5 40t-55.5 107q0 68 68 133h-71v31h109q25 18 76 51t73 49h-258z" />
    <glyph glyph-name="afii61352" unicode="&#x2116;" horiz-adv-x="1142" 
d="M767 515q0 85 46 138t119 53q74 0 120 -53t46 -138t-46 -138t-120 -53q-73 0 -119 53t-46 138zM116 0v420q0 80 -3 148t-6 96l-3 29l7 7h23l509 -605v605h35v-700h-20l-509 604v-604h-33zM811 515q0 -74 33.5 -118.5t87.5 -44.5t88 44.5t34 118.5t-34 118.5t-88 44.5
t-87.5 -44.5t-33.5 -118.5zM773 200v31h319v-31h-319z" />
    <glyph glyph-name="trademark" unicode="&#x2122;" horiz-adv-x="797" 
d="M727 350l-42 309l-1 3l-108 -302h-27l-7 7l-112 293l-1 -2l-37 -308h-22l32 263q3 23 3.5 44t0.5 30l-1 9l4 4h48l112 -293l105 293h47l48 -350h-42zM200 681v-331h-39v331h-46q-26 0 -46.5 -2.5t-28.5 -4.5l-7 -2l-5 4v24h305v-24l-4 -4q-25 9 -82 9h-47z" />
    <glyph glyph-name="arrowleft" unicode="&#x2190;" horiz-adv-x="548" 
d="M259 475l6 -6v-23l-150 -155h360v-32h-360l150 -155v-23l-6 -6l-205 193v14z" />
    <glyph glyph-name="arrowup" unicode="&#x2191;" horiz-adv-x="546" 
d="M285 74h-31v360l-155 -150h-24l-6 6l193 206h14l193 -206l-6 -6h-23l-155 149v-359z" />
    <glyph glyph-name="arrowright" unicode="&#x2192;" horiz-adv-x="548" 
d="M74 259v32h358l-148 155v23l5 6l206 -193v-14l-206 -193l-5 6v23l148 155h-358z" />
    <glyph glyph-name="arrowdown" unicode="&#x2193;" horiz-adv-x="546" 
d="M69 260l6 6h24l155 -151v361h31v-360l155 150h23l6 -6l-193 -206h-14z" />
    <glyph glyph-name="uni2196" unicode="&#x2196;" horiz-adv-x="546" 
d="M132 137h-9l-7 282l9 9l282 -7v-9l-17 -17l-216 -4l255 -254l-22 -22l-255 254l-3 -215z" />
    <glyph glyph-name="uni2197" unicode="&#x2197;" horiz-adv-x="546" 
d="M138 115l-22 22l254 254l-216 4l-16 17v9l281 7l10 -9l-8 -282h-8l-17 17l-4 215z" />
    <glyph glyph-name="uni2198" unicode="&#x2198;" horiz-adv-x="546" 
d="M116 406l22 22l254 -255l4 217l17 17h8l8 -282l-10 -10l-281 8v8l16 17l216 3z" />
    <glyph glyph-name="uni2199" unicode="&#x2199;" horiz-adv-x="546" 
d="M407 131v-8l-282 -8l-9 10l7 282h9l17 -17l3 -217l255 255l22 -22l-255 -255l216 -3z" />
    <glyph glyph-name="minus" unicode="&#x2212;" 
d="M107 309v32h384v-32h-384z" />
    <glyph glyph-name="approxequal" unicode="&#x2248;" 
d="M107 382v33q47 50 95 50q33 0 97.5 -30.5t97.5 -30.5q46 0 94 50v-33q-45 -50 -93 -50q-33 0 -98 31t-97 31q-42 0 -96 -51zM398 174q-33 0 -98 31t-97 31q-42 0 -96 -51v33q47 50 95 50q32 0 97 -30.5t98 -30.5q46 0 94 50v-33q-45 -50 -93 -50z" />
    <glyph glyph-name="notequal" unicode="&#x2260;" 
d="M107 408v31h240l54 91l27 -16l-44 -75h107v-31h-125l-98 -166h223v-31h-241l-53 -91l-27 16l44 75h-107v31h125l97 166h-222z" />
    <glyph glyph-name="lessequal" unicode="&#x2264;" 
d="M501 574v-33l-363 -150l363 -151v-33l-404 167v33zM97 94v32h404v-32h-404z" />
    <glyph glyph-name="greaterequal" unicode="&#x2265;" 
d="M97 541v33l404 -167v-33l-404 -167v33l364 151zM97 94v32h404v-32h-404z" />
    <glyph glyph-name="commaaccent" unicode="&#xf6c3;" horiz-adv-x="190" 
d="M58 -233l-12 11q5 5 12.5 14.5t19.5 40.5t12 64q0 11 -1.5 20t-2.5 13l-2 4l5 5q12 0 22 -1.5t15 -3.5l4 -2q3 -9 3 -26q0 -25 -7.5 -48t-18.5 -39t-22.5 -28t-18.5 -18z" />
    <glyph glyph-name="zerooldstyle" unicode="&#xf730;" horiz-adv-x="670" 
d="M75 236q0 108 72 175t187 67q116 0 188 -67t72 -175t-72 -175t-188 -67q-115 0 -187 67t-72 175zM130 236q0 -97 56.5 -155.5t147.5 -58.5q92 0 148.5 58t56.5 156q0 97 -56.5 155.5t-148.5 58.5q-91 0 -147.5 -58.5t-56.5 -155.5z" />
    <glyph glyph-name="oneoldstyle" unicode="&#xf731;" horiz-adv-x="439" 
d="M254 0v415q-11 -8 -29.5 -20.5t-69 -33.5t-92.5 -21q-4 8 -4 26l5 6q45 0 100 25t87 50l32 25h24v-472h-53z" />
    <glyph glyph-name="twooldstyle" unicode="&#xf732;" horiz-adv-x="580" 
d="M507 343q0 -47 -35.5 -96t-81.5 -83t-102.5 -64.5t-86 -43.5t-43.5 -18h193q53 0 94 3t56 7l15 3l7 -7v-44h-455v27q8 3 22 9t53.5 24.5t75.5 38.5t80.5 50t76 59.5t53.5 65.5t22 70q0 48 -40 77t-113 29q-78 0 -121.5 -34.5t-43.5 -96.5q0 -14 2 -26t4 -17l2 -5l-6 -7
q-13 0 -25 2t-17 4l-5 1q-9 13 -9 46q0 73 56.5 117t164.5 44q99 0 153 -37t54 -98z" />
    <glyph glyph-name="threeoldstyle" unicode="&#xf733;" horiz-adv-x="646" 
d="M313 -228q94 0 145.5 48t51.5 128q0 74 -43.5 120.5t-121.5 46.5h-71l-6 6v27h54q78 0 117 39t39 111q0 73 -42 112.5t-125 39.5q-79 0 -127 -36.5t-48 -103.5q0 -14 2 -26.5t4 -17.5l3 -5l-7 -7q-13 0 -24.5 2t-16.5 4l-5 1q-9 15 -9 48q0 77 60.5 123t169.5 46t165 -47
t56 -133q0 -131 -123 -164q75 -12 115.5 -63.5t40.5 -124.5q0 -92 -66.5 -147t-186.5 -55q-113 0 -175.5 48.5t-62.5 129.5q0 15 2 27t4 17l3 4q16 7 46 7l7 -7q-9 -17 -9 -50q0 -69 49.5 -108.5t134.5 -39.5z" />
    <glyph glyph-name="fouroldstyle" unicode="&#xf734;" horiz-adv-x="618" 
d="M39 0v16l392 456h27v-441h108v-31h-108v-250h-53v250h-366zM93 31h312v362z" />
    <glyph glyph-name="fiveoldstyle" unicode="&#xf735;" horiz-adv-x="621" 
d="M298 -228q91 0 140.5 53.5t49.5 149.5q0 190 -198 190q-45 0 -89 -9.5t-65 -18.5l-22 -9l-10 11l39 329h181q53 0 94 3t56 7l15 3l7 -7v-51h-325l-31 -262q74 39 167 39q121 0 179.5 -62t58.5 -163q0 -108 -63.5 -169.5t-182.5 -61.5q-106 0 -166.5 48t-60.5 128
q0 15 2 27t4 17l3 4q16 7 46 7l7 -7q-9 -17 -9 -50q0 -68 47 -107t126 -39z" />
    <glyph glyph-name="sixoldstyle" unicode="&#xf736;" horiz-adv-x="649" 
d="M132 353v-29q68 90 206 90q108 0 171.5 -56.5t63.5 -152.5q0 -97 -64 -154t-168 -57q-131 0 -198.5 93.5t-67.5 265.5q0 164 64 258.5t203 94.5q90 0 149.5 -39.5t59.5 -109.5q0 -13 -2.5 -24.5t-4.5 -16.5l-2 -5q-16 -7 -46 -7l-7 7q9 18 9 46q0 59 -46.5 90t-112.5 31
q-207 0 -207 -325zM329 386q-124 0 -194 -107q21 -257 204 -257q80 0 128.5 49t48.5 133q0 85 -50.5 133.5t-136.5 48.5z" />
    <glyph glyph-name="sevenoldstyle" unicode="&#xf737;" horiz-adv-x="573" 
d="M259 -250h-53q0 98 27.5 204t67 187t79.5 148t68 103l27 35h-250q-52 0 -93.5 -3.5t-56.5 -6.5l-15 -3l-6 7v51h466v-28q-11 -14 -28.5 -39.5t-62.5 -103.5t-79.5 -156.5t-62.5 -187.5t-28 -207z" />
    <glyph glyph-name="eightoldstyle" unicode="&#xf738;" horiz-adv-x="636" 
d="M536 539q0 -36 -15 -68.5t-39 -55.5t-45.5 -37.5t-44.5 -25.5q80 -35 124.5 -75.5t44.5 -104.5q0 -77 -64.5 -127.5t-180.5 -50.5q-115 0 -178.5 50t-63.5 131q0 129 165 190q-67 31 -105 71t-38 101q0 76 58.5 122.5t159.5 46.5t161.5 -46t60.5 -121zM509 165
q0 21 -6 39t-22 34t-28 26.5t-40 24.5t-41.5 20t-49.5 20.5t-47 19.5q-23 -9 -44.5 -21t-47.5 -32.5t-42 -51.5t-16 -67q0 -67 52.5 -111t139.5 -44q86 0 139 41t53 102zM312 678q-75 0 -119.5 -36t-44.5 -94q0 -28 12 -51.5t28.5 -40t47 -33.5t53 -27t60.5 -26q7 -3 10 -4
q19 10 37 23.5t40.5 35t36 51.5t13.5 62q0 62 -48 101t-126 39z" />
    <glyph glyph-name="nineoldstyle" unicode="&#xf739;" horiz-adv-x="635" 
d="M292 -228q112 0 161 88.5t49 255.5v16q-67 -67 -192 -67q-107 0 -170.5 53t-63.5 151q0 97 62 153t165 56q256 0 256 -360q0 -84 -14.5 -150t-45.5 -117.5t-84 -79t-125 -27.5q-91 0 -152.5 40t-61.5 111q0 12 2 22.5t4 15.5l2 5q17 7 46 7l7 -7q-7 -17 -7 -43
q0 -58 46.5 -90.5t115.5 -32.5zM320 93q108 0 180 77q-15 280 -196 280q-79 0 -125.5 -47.5t-46.5 -130.5q0 -86 51 -132.5t137 -46.5z" />
    <glyph glyph-name="A.smcp" horiz-adv-x="566" 
d="M134 147l-68 -147h-32l219 474l-6 10v6h57l228 -490h-53l-69 147h-276zM307 369q-22 47 -37 74l-124 -270h252z" />
    <glyph glyph-name="Aacute.smcp" horiz-adv-x="566" 
d="M134 147l-68 -147h-32l219 474l-6 10v6h57l228 -490h-53l-69 147h-276zM307 369q-22 47 -37 74l-124 -270h252zM247 551l-6 6l95 137q13 0 24 -2t16 -4l4 -2v-6l-112 -129h-21z" />
    <glyph glyph-name="Abreve.smcp" horiz-adv-x="566" 
d="M134 147l-68 -147h-32l219 474l-6 10v6h57l228 -490h-53l-69 147h-276zM307 369q-22 47 -37 74l-124 -270h252zM151 636l13 13q4 -6 13 -16t39 -26t64 -16t63.5 14.5t41.5 28.5l12 15l13 -13q-1 -3 -4 -8.5t-14.5 -19.5t-25 -24.5t-36.5 -19t-50 -8.5q-26 0 -49 8t-37 20
t-24.5 24t-14.5 20z" />
    <glyph glyph-name="Acircumflex.smcp" horiz-adv-x="566" 
d="M134 147l-68 -147h-32l219 474l-6 10v6h57l228 -490h-53l-69 147h-276zM307 369q-22 47 -37 74l-124 -270h252zM408 557l-6 -6h-23l-98 101l-98 -101h-24l-6 6l119 137h17z" />
    <glyph glyph-name="Agrave.smcp" horiz-adv-x="566" 
d="M134 147l-68 -147h-32l219 474l-6 10v6h57l228 -490h-53l-69 147h-276zM307 369q-22 47 -37 74l-124 -270h252zM320 557l-6 -6h-21l-112 129v6q13 8 44 8z" />
    <glyph glyph-name="Adieresis.smcp" horiz-adv-x="566" 
d="M134 147l-68 -147h-32l219 474l-6 10v6h57l228 -490h-53l-69 147h-276zM307 369q-22 47 -37 74l-124 -270h252zM143 594q0 14 9 22.5t23 8.5q31 0 31 -31q0 -14 -8.5 -23t-22.5 -9t-23 9t-9 23zM355 594q0 14 9 22.5t23 8.5q31 0 31 -31q0 -14 -8.5 -23t-22.5 -9t-23 9
t-9 23z" />
    <glyph glyph-name="Amacron.smcp" horiz-adv-x="566" 
d="M134 147l-68 -147h-32l219 474l-6 10v6h57l228 -490h-53l-69 147h-276zM307 369q-22 47 -37 74l-124 -270h252zM166 580v31h230v-31h-230z" />
    <glyph glyph-name="Aogonek.smcp" horiz-adv-x="566" 
d="M134 147l-68 -147h-32l219 474l-6 10v6h57l228 -490h-11q-34 -34 -34 -81q0 -45 43 -45q11 0 20 3t13 5l4 3l13 -13q-17 -27 -57 -27q-29 0 -49.5 18.5t-20.5 52.5q0 51 40 84h-14l-69 147h-276zM307 369q-22 47 -37 74l-124 -270h252z" />
    <glyph glyph-name="Aring.smcp" horiz-adv-x="566" 
d="M134 147l-68 -147h-32l219 474l-6 10v6h57l228 -490h-53l-69 147h-276zM307 369q-22 47 -37 74l-124 -270h252zM205 621q0 34 21 55t55 21t55 -21t21 -55t-21 -55.5t-55 -21.5t-55 21.5t-21 55.5zM234 621q0 -20 13.5 -33.5t33.5 -13.5t33.5 13.5t13.5 33.5t-13.5 33
t-33.5 13t-33.5 -13t-13.5 -33z" />
    <glyph glyph-name="Atilde.smcp" horiz-adv-x="566" 
d="M134 147l-68 -147h-32l219 474l-6 10v6h57l228 -490h-53l-69 147h-276zM307 369q-22 47 -37 74l-124 -270h252zM235 633q25 0 50.5 -18t46.5 -18q20 0 37.5 9.5t24.5 19.5l8 10l13 -13q-1 -2 -3 -6.5t-10 -15t-17 -18.5t-25 -14.5t-33 -6.5q-25 0 -51 18t-46 18
t-37.5 -10t-24.5 -20l-8 -9l-14 14q1 2 3 6.5t10 14.5t17.5 18t25.5 14.5t33 6.5z" />
    <glyph glyph-name="AE.smcp" horiz-adv-x="681" 
d="M34 0l253 490h324v-31l-5 -6q-36 12 -124 12h-134v-202h218l4 -5v-21h-222v-212h142q39 0 70 3t42 6l12 3l5 -5v-32h-323v152h-152l-78 -152h-32zM157 177h139v270z" />
    <glyph glyph-name="AEacute.smcp" horiz-adv-x="681" 
d="M34 0l253 490h324v-31l-5 -6q-36 12 -124 12h-134v-202h218l4 -5v-21h-222v-212h142q39 0 70 3t42 6l12 3l5 -5v-32h-323v152h-152l-78 -152h-32zM157 177h139v270zM298 551l-6 6l95 137q14 0 25 -2t16 -4l4 -2v-6l-112 -129h-22z" />
    <glyph glyph-name="B.smcp" horiz-adv-x="538" 
d="M93 0v490h185q82 0 125.5 -32t43.5 -89q0 -89 -98 -114q61 -10 93.5 -42t32.5 -84q0 -62 -47 -95.5t-133 -33.5h-202zM422 133q0 51 -36 79t-99 28h-143v-214h143q63 0 99 28t36 79zM394 365q0 47 -32 73t-92 26h-126v-198h126q60 0 92 26t32 73z" />
    <glyph glyph-name="C.smcp" horiz-adv-x="586" 
d="M327 472q-96 0 -152 -60t-56 -162q0 -103 57.5 -162t158.5 -59q49 0 92.5 13.5t62.5 27.5l19 13l12 -11q-3 -3 -8 -8.5t-23 -18.5t-38.5 -23t-55.5 -18.5t-73 -8.5q-117 0 -188.5 69t-71.5 182q0 112 71.5 180.5t192.5 68.5q90 0 142 -38t52 -101q0 -12 -2 -21t-4 -12
l-2 -3q-16 -6 -45 -6l-5 6q7 12 7 39q0 54 -38 83.5t-105 29.5z" />
    <glyph glyph-name="Cacute.smcp" horiz-adv-x="586" 
d="M327 472q-96 0 -152 -60t-56 -162q0 -103 57.5 -162t158.5 -59q49 0 92.5 13.5t62.5 27.5l19 13l12 -11q-3 -3 -8 -8.5t-23 -18.5t-38.5 -23t-55.5 -18.5t-73 -8.5q-117 0 -188.5 69t-71.5 182q0 112 71.5 180.5t192.5 68.5q90 0 142 -38t52 -101q0 -12 -2 -21t-4 -12
l-2 -3q-16 -6 -45 -6l-5 6q7 12 7 39q0 54 -38 83.5t-105 29.5zM280 551l-5 6l95 137q13 0 24 -2t16 -4l4 -2v-6l-112 -129h-22z" />
    <glyph glyph-name="Ccaron.smcp" horiz-adv-x="586" 
d="M327 472q-96 0 -152 -60t-56 -162q0 -103 57.5 -162t158.5 -59q49 0 92.5 13.5t62.5 27.5l19 13l12 -11q-3 -3 -8 -8.5t-23 -18.5t-38.5 -23t-55.5 -18.5t-73 -8.5q-117 0 -188.5 69t-71.5 182q0 112 71.5 180.5t192.5 68.5q90 0 142 -38t52 -101q0 -12 -2 -21t-4 -12
l-2 -3q-16 -6 -45 -6l-5 6q7 12 7 39q0 54 -38 83.5t-105 29.5zM436 691l6 -6l-119 -137h-17l-119 137l6 6h24l98 -101l97 101h24z" />
    <glyph glyph-name="Ccedilla.smcp" horiz-adv-x="586" 
d="M299 -68l11 63q-112 4 -179.5 72.5t-67.5 178.5q0 112 71.5 180.5t192.5 68.5q90 0 142 -38t52 -101q0 -12 -2 -21t-4 -12l-2 -3q-16 -6 -45 -6l-5 6q7 12 7 39q0 54 -38 83.5t-105 29.5q-96 0 -152 -60t-56 -162q0 -103 57.5 -162t158.5 -59q49 0 92.5 13.5t62.5 27.5
l19 13l12 -11q-2 -3 -7 -8t-21.5 -17.5t-36 -22.5t-52 -19t-67.5 -10l-8 -47q28 0 46 -16.5t18 -43.5t-19.5 -43.5t-51.5 -16.5q-22 0 -39.5 8.5t-24.5 17.5l-6 8l13 13q19 -20 52 -20q43 0 43 34q0 37 -56 37z" />
    <glyph glyph-name="Ccircumflex.smcp" horiz-adv-x="586" 
d="M327 472q-96 0 -152 -60t-56 -162q0 -103 57.5 -162t158.5 -59q49 0 92.5 13.5t62.5 27.5l19 13l12 -11q-3 -3 -8 -8.5t-23 -18.5t-38.5 -23t-55.5 -18.5t-73 -8.5q-117 0 -188.5 69t-71.5 182q0 112 71.5 180.5t192.5 68.5q90 0 142 -38t52 -101q0 -12 -2 -21t-4 -12
l-2 -3q-16 -6 -45 -6l-5 6q7 12 7 39q0 54 -38 83.5t-105 29.5zM442 557l-6 -6h-24l-97 101l-98 -101h-24l-6 6l119 137h17z" />
    <glyph glyph-name="Cdotaccent.smcp" horiz-adv-x="586" 
d="M327 472q-96 0 -152 -60t-56 -162q0 -103 57.5 -162t158.5 -59q49 0 92.5 13.5t62.5 27.5l19 13l12 -11q-3 -3 -8 -8.5t-23 -18.5t-38.5 -23t-55.5 -18.5t-73 -8.5q-117 0 -188.5 69t-71.5 182q0 112 71.5 180.5t192.5 68.5q90 0 142 -38t52 -101q0 -12 -2 -21t-4 -12
l-2 -3q-16 -6 -45 -6l-5 6q7 12 7 39q0 54 -38 83.5t-105 29.5zM282 610q0 15 9 24.5t24 9.5t24.5 -9.5t9.5 -24.5t-9.5 -24t-24.5 -9t-24 9t-9 24z" />
    <glyph glyph-name="D.smcp" horiz-adv-x="610" 
d="M93 0v490h196q115 0 186.5 -67.5t71.5 -177.5t-71.5 -177.5t-186.5 -67.5h-196zM287 464h-143v-438h143q91 0 147 59.5t56 159.5t-56 159.5t-147 59.5z" />
    <glyph glyph-name="Dcaron.smcp" horiz-adv-x="610" 
d="M93 0v490h196q115 0 186.5 -67.5t71.5 -177.5t-71.5 -177.5t-186.5 -67.5h-196zM287 464h-143v-438h143q91 0 147 59.5t56 159.5t-56 159.5t-147 59.5zM424 691l6 -6l-119 -137h-17l-119 137l6 6h23l98 -101l98 101h24z" />
    <glyph glyph-name="Dcroat.smcp" horiz-adv-x="610" 
d="M39 238v26h54v226h196q115 0 186.5 -68t71.5 -177t-71.5 -177t-186.5 -68h-196v238h-54zM287 464h-143v-200h131v-26h-131v-212h143q91 0 147 59.5t56 159.5t-56 159.5t-147 59.5z" />
    <glyph glyph-name="Eth.smcp" horiz-adv-x="610" 
d="M39 238v26h54v226h196q115 0 186.5 -68t71.5 -177t-71.5 -177t-186.5 -68h-196v238h-54zM287 464h-143v-200h131v-26h-131v-212h143q91 0 147 59.5t56 159.5t-56 159.5t-147 59.5z" />
    <glyph glyph-name="Thorn.smcp" horiz-adv-x="504" 
d="M93 0v490h51v-99h117q86 0 136.5 -37t50.5 -102t-50.5 -102t-136.5 -37h-117v-113h-51zM253 366h-109v-228h109q64 0 102.5 30.5t38.5 83.5t-38.5 83.5t-102.5 30.5z" />
    <glyph glyph-name="E.smcp" horiz-adv-x="490" 
d="M93 0v490h328v-31l-5 -6q-36 12 -124 12h-148v-202h231l5 -5v-21h-236v-212h156q39 0 69.5 3t42.5 6l11 3l5 -5v-32h-335z" />
    <glyph glyph-name="Eacute.smcp" horiz-adv-x="490" 
d="M93 0v490h328v-31l-5 -6q-36 12 -124 12h-148v-202h231l5 -5v-21h-236v-212h156q39 0 69.5 3t42.5 6l11 3l5 -5v-32h-335zM216 551l-6 6l96 137q13 0 24 -2t16 -4l4 -2v-6l-112 -129h-22z" />
    <glyph glyph-name="Ebreve.smcp" horiz-adv-x="490" 
d="M93 0v490h328v-31l-5 -6q-36 12 -124 12h-148v-202h231l5 -5v-21h-236v-212h156q39 0 69.5 3t42.5 6l11 3l5 -5v-32h-335zM128 636l14 13q4 -6 13 -16t39 -26t64 -16t63.5 14.5t41.5 28.5l12 15l13 -13q-1 -3 -4 -8.5t-14.5 -19.5t-25 -24.5t-37 -19t-49.5 -8.5t-49 8
t-37.5 20t-24.5 24t-15 20z" />
    <glyph glyph-name="Ecaron.smcp" horiz-adv-x="490" 
d="M93 0v490h328v-31l-5 -6q-36 12 -124 12h-148v-202h231l5 -5v-21h-236v-212h156q39 0 69.5 3t42.5 6l11 3l5 -5v-32h-335zM379 695l6 -6l-119 -137h-17l-119 137l6 6h24l97 -101l98 101h24z" />
    <glyph glyph-name="Ecircumflex.smcp" horiz-adv-x="490" 
d="M93 0v490h328v-31l-5 -6q-36 12 -124 12h-148v-202h231l5 -5v-21h-236v-212h156q39 0 69.5 3t42.5 6l11 3l5 -5v-32h-335zM385 557l-6 -6h-24l-98 101l-97 -101h-24l-6 6l119 137h17z" />
    <glyph glyph-name="Edieresis.smcp" horiz-adv-x="490" 
d="M93 0v490h328v-31l-5 -6q-36 12 -124 12h-148v-202h231l5 -5v-21h-236v-212h156q39 0 69.5 3t42.5 6l11 3l5 -5v-32h-335zM120 588q0 14 8.5 23t23.5 9q14 0 22.5 -9t8.5 -23t-8.5 -22.5t-22.5 -8.5q-32 0 -32 31zM332 588q0 14 9 23t23 9t22.5 -9t8.5 -23t-8.5 -22.5
t-22.5 -8.5t-23 8.5t-9 22.5z" />
    <glyph glyph-name="Edotaccent.smcp" horiz-adv-x="490" 
d="M93 0v490h328v-31l-5 -6q-36 12 -124 12h-148v-202h231l5 -5v-21h-236v-212h156q39 0 69.5 3t42.5 6l11 3l5 -5v-32h-335zM225 610q0 15 9 24.5t24 9.5t24.5 -9.5t9.5 -24.5t-9.5 -24t-24.5 -9t-24 9t-9 24z" />
    <glyph glyph-name="Egrave.smcp" horiz-adv-x="490" 
d="M93 0v490h328v-31l-5 -6q-36 12 -124 12h-148v-202h231l5 -5v-21h-236v-212h156q39 0 69.5 3t42.5 6l11 3l5 -5v-32h-335zM305 557l-6 -6h-22l-112 129v6q14 8 45 8z" />
    <glyph glyph-name="Emacron.smcp" horiz-adv-x="490" 
d="M93 0v490h328v-31l-5 -6q-36 12 -124 12h-148v-202h231l5 -5v-21h-236v-212h156q39 0 69.5 3t42.5 6l11 3l5 -5v-32h-335zM143 580v31h230v-31h-230z" />
    <glyph glyph-name="Eogonek.smcp" horiz-adv-x="490" 
d="M93 0v490h328v-31l-5 -6q-36 12 -124 12h-148v-202h231l5 -5v-21h-236v-212h156q39 0 69.5 3t42.5 6l11 3l5 -5v-32h-43q-36 -35 -36 -82q0 -45 44 -45q11 0 20 2.5t13 5.5l3 3l14 -13q-17 -27 -57 -27q-29 0 -49.5 18.5t-20.5 52.5q0 54 41 85h-264z" />
    <glyph glyph-name="F.smcp" horiz-adv-x="469" 
d="M93 0v490h328v-31l-6 -6q-36 12 -124 12h-147v-202h224l5 -5v-21h-229v-237h-51z" />
    <glyph glyph-name="G.smcp" horiz-adv-x="597" 
d="M385 210v21h83q13 0 25 1.5t17 3.5l5 1l6 -6v-168q-3 -3 -8 -7.5t-23 -16t-39 -20.5t-54.5 -16.5t-70.5 -7.5q-120 0 -191.5 69t-71.5 182q0 112 71.5 180.5t194.5 68.5q88 0 139.5 -35.5t51.5 -97.5q0 -12 -2 -21t-4 -13l-1 -3q-17 -5 -45 -5l-6 5q8 13 8 39
q0 52 -38 80t-104 28q-97 0 -153 -60t-56 -162q0 -104 57.5 -164.5t157.5 -60.5q73 0 139 34v54q0 58 -6 92h-77z" />
    <glyph glyph-name="Gbreve.smcp" horiz-adv-x="597" 
d="M385 210v21h83q13 0 25 1.5t17 3.5l5 1l6 -6v-168q-3 -3 -8 -7.5t-23 -16t-39 -20.5t-54.5 -16.5t-70.5 -7.5q-120 0 -191.5 69t-71.5 182q0 112 71.5 180.5t194.5 68.5q88 0 139.5 -35.5t51.5 -97.5q0 -12 -2 -21t-4 -13l-1 -3q-17 -5 -45 -5l-6 5q8 13 8 39
q0 52 -38 80t-104 28q-97 0 -153 -60t-56 -162q0 -104 57.5 -164.5t157.5 -60.5q73 0 139 34v54q0 58 -6 92h-77zM185 636l14 13q4 -6 13 -16t39 -26t64 -16t63.5 14.5t41.5 28.5l12 15l13 -13q-1 -3 -4 -8.5t-14.5 -19.5t-25 -24.5t-36.5 -19t-50 -8.5q-26 0 -49 8
t-37.5 20t-24.5 24t-14 20z" />
    <glyph glyph-name="Gcircumflex.smcp" horiz-adv-x="597" 
d="M385 210v21h83q13 0 25 1.5t17 3.5l5 1l6 -6v-168q-3 -3 -8 -7.5t-23 -16t-39 -20.5t-54.5 -16.5t-70.5 -7.5q-120 0 -191.5 69t-71.5 182q0 112 71.5 180.5t194.5 68.5q88 0 139.5 -35.5t51.5 -97.5q0 -12 -2 -21t-4 -13l-1 -3q-17 -5 -45 -5l-6 5q8 13 8 39
q0 52 -38 80t-104 28q-97 0 -153 -60t-56 -162q0 -104 57.5 -164.5t157.5 -60.5q73 0 139 34v54q0 58 -6 92h-77zM442 557l-6 -6h-24l-97 101l-98 -101h-24l-6 6l119 137h17z" />
    <glyph glyph-name="Gcommaaccent.smcp" horiz-adv-x="597" 
d="M385 210v21h83q13 0 25 1.5t17 3.5l5 1l6 -6v-168q-3 -3 -8 -7.5t-23 -16t-39 -20.5t-54.5 -16.5t-70.5 -7.5q-120 0 -191.5 69t-71.5 182q0 112 71.5 180.5t194.5 68.5q88 0 139.5 -35.5t51.5 -97.5q0 -12 -2 -21t-4 -13l-1 -3q-17 -5 -45 -5l-6 5q8 13 8 39
q0 52 -38 80t-104 28q-97 0 -153 -60t-56 -162q0 -104 57.5 -164.5t157.5 -60.5q73 0 139 34v54q0 58 -6 92h-77zM277 -212l-11 12q5 5 12 14.5t19 40.5t12 64l-5 37l4 5q12 0 22 -1.5t14 -3.5l5 -2q3 -9 3 -27q0 -39 -19 -74t-37 -50z" />
    <glyph glyph-name="Gdotaccent.smcp" horiz-adv-x="597" 
d="M385 210v21h83q13 0 25 1.5t17 3.5l5 1l6 -6v-168q-3 -3 -8 -7.5t-23 -16t-39 -20.5t-54.5 -16.5t-70.5 -7.5q-120 0 -191.5 69t-71.5 182q0 112 71.5 180.5t194.5 68.5q88 0 139.5 -35.5t51.5 -97.5q0 -12 -2 -21t-4 -13l-1 -3q-17 -5 -45 -5l-6 5q8 13 8 39
q0 52 -38 80t-104 28q-97 0 -153 -60t-56 -162q0 -104 57.5 -164.5t157.5 -60.5q73 0 139 34v54q0 58 -6 92h-77zM282 610q0 15 9 24.5t24 9.5t24.5 -9.5t9.5 -24.5t-9.5 -24t-24.5 -9t-24 9t-9 24z" />
    <glyph glyph-name="H.smcp" horiz-adv-x="620" 
d="M475 0v237h-331v-237h-51v490h51v-227h331v227h52v-490h-52z" />
    <glyph glyph-name="Hbar.smcp" horiz-adv-x="619" 
d="M475 0v237h-331v-237h-51v367h-54v26h54v97h51v-97h331v97h52v-97h54v-26h-54v-367h-52zM144 367v-104h331v104h-331z" />
    <glyph glyph-name="Hcircumflex.smcp" horiz-adv-x="620" 
d="M475 0v237h-331v-237h-51v490h51v-227h331v227h52v-490h-52zM437 557l-6 -6h-24l-98 101l-98 -101h-24l-5 6l119 137h17z" />
    <glyph glyph-name="I.smcp" horiz-adv-x="237" 
d="M93 0v490h51v-490h-51z" />
    <glyph glyph-name="Iacute.smcp" horiz-adv-x="237" 
d="M93 0v490h51v-490h-51zM84 551l-5 6l95 137q13 0 24 -2t16 -4l4 -2v-6l-112 -129h-22z" />
    <glyph glyph-name="Ibreve.smcp" horiz-adv-x="237" 
d="M93 0v490h51v-490h-51zM-11 636l13 13q4 -6 13 -16t39.5 -26t64.5 -16t63 14.5t41 28.5l12 15l13 -13q-1 -3 -4 -8.5t-14 -19.5t-24.5 -24.5t-37 -19t-49.5 -8.5q-27 0 -50 8t-37 20t-24.5 24t-14.5 20z" />
    <glyph glyph-name="Icircumflex.smcp" horiz-adv-x="237" 
d="M93 0v490h51v-490h-51zM247 557l-6 -6h-24l-98 101l-98 -101h-23l-6 6l119 137h17z" />
    <glyph glyph-name="Idieresis.smcp" horiz-adv-x="237" 
d="M93 0v490h51v-490h-51zM-18 594q0 31 31 31q14 0 23 -8.5t9 -22.5t-9 -23t-23 -9t-22.5 9t-8.5 23zM194 594q0 31 31 31q14 0 23 -8.5t9 -22.5t-9 -23t-23 -9t-22.5 9t-8.5 23z" />
    <glyph glyph-name="Idotaccent.smcp" horiz-adv-x="237" 
d="M93 0v490h51v-490h-51zM82 612q0 16 10 26.5t27 10.5q16 0 26 -10t10 -27t-10 -27t-26 -10q-17 0 -27 10.5t-10 26.5z" />
    <glyph glyph-name="Igrave.smcp" horiz-adv-x="237" 
d="M93 0v490h51v-490h-51zM159 557l-6 -6h-22l-111 129v6q13 8 44 8z" />
    <glyph glyph-name="Imacron.smcp" horiz-adv-x="237" 
d="M93 0v490h51v-490h-51zM4 580v31h230v-31h-230z" />
    <glyph glyph-name="Iogonek.smcp" horiz-adv-x="237" 
d="M93 0v490h51v-490h-9q-36 -35 -36 -82q0 -45 44 -45q11 0 20 2.5t13 5.5l3 3l14 -13q-18 -27 -57 -27q-30 0 -50.5 18.5t-20.5 52.5q0 53 42 85h-14z" />
    <glyph glyph-name="Itilde.smcp" horiz-adv-x="237" 
d="M93 0v490h51v-490h-51zM73 633q25 0 50.5 -18t46.5 -18q20 0 37.5 9.5t24.5 19.5l8 10l13 -13q-1 -2 -3 -6.5t-10 -15t-17 -18.5t-25 -14.5t-33 -6.5q-25 0 -50.5 18t-46.5 18q-20 0 -37.5 -10t-24.5 -20l-8 -9l-14 14q1 2 3 6.5t10 14.5t17.5 18t25.5 14.5t33 6.5z" />
    <glyph glyph-name="IJ.smcp" horiz-adv-x="502" 
d="M94 228v262h51v-262h-51zM236 18q121 0 121 150v322h52v-322q0 -83 -45.5 -128t-128.5 -45q-69 0 -109 29t-40 77q0 12 2 22.5t4 14.5l3 5q15 5 44 5l6 -5q-9 -18 -9 -43q0 -39 27 -60.5t73 -21.5z" />
    <glyph glyph-name="J.smcp" horiz-adv-x="417" 
d="M273 147v343h51v-342q0 -153 -152 -153q-40 0 -72 10.5t-44 20.5l-12 11q0 14 5.5 26.5t10.5 18.5l6 5h6q1 -3 3.5 -7.5t11.5 -16.5t19.5 -21t28.5 -16.5t38 -7.5q100 0 100 129z" />
    <glyph glyph-name="Jcircumflex.smcp" horiz-adv-x="417" 
d="M273 147v343h51v-342q0 -153 -152 -153q-40 0 -72 10.5t-44 20.5l-12 11q0 14 5.5 26.5t10.5 18.5l6 5h6q1 -3 3.5 -7.5t11.5 -16.5t19.5 -21t28.5 -16.5t38 -7.5q100 0 100 129zM426 566l-5 -6h-24l-98 102l-98 -102h-24l-6 6l119 137h17z" />
    <glyph glyph-name="K.smcp" horiz-adv-x="520" 
d="M93 0v490h51v-220h47l219 220h38l-219 -220l115 -130q34 -37 67.5 -70.5t50.5 -48.5l16 -15v-6h-63l-225 244h-46v-244h-51z" />
    <glyph glyph-name="Kcommaaccent.smcp" horiz-adv-x="520" 
d="M93 0v490h51v-220h47l219 220h38l-219 -220l115 -130q34 -37 67.5 -70.5t50.5 -48.5l16 -15v-6h-63l-225 244h-46v-244h-51zM227 -212l-11 12q5 5 12.5 14.5t19.5 40.5t12 64q0 11 -1.5 20t-2.5 13l-2 4l4 5q12 0 22 -1.5t14 -3.5l5 -2q4 -9 4 -27q0 -25 -8 -48t-19 -39
t-22 -28t-19 -18z" />
    <glyph glyph-name="L.smcp" horiz-adv-x="454" 
d="M93 0v490h51v-465h138q39 0 70 3t42 6l12 3l6 -5v-32h-319z" />
    <glyph glyph-name="Lacute.smcp" horiz-adv-x="454" 
d="M93 0v490h51v-465h138q39 0 70 3t42 6l12 3l6 -5v-32h-319zM78 551l-6 6l95 137q14 0 25 -2t15 -4l4 -2v-6l-112 -129h-21z" />
    <glyph glyph-name="Lcaron.smcp" horiz-adv-x="454" 
d="M93 0v490h51v-465h138q39 0 70 3t42 6l12 3l6 -5v-32h-319zM300 324l-12 11q5 5 12.5 15t19.5 41t12 64q0 11 -1.5 20t-2.5 13l-2 4l5 4q12 0 22 -1.5t15 -2.5l4 -2q3 -9 3 -27q0 -25 -7.5 -48t-18.5 -39t-22.5 -28t-18.5 -18z" />
    <glyph glyph-name="Lcommaaccent.smcp" horiz-adv-x="454" 
d="M93 0v490h51v-465h138q39 0 70 3t42 6l12 3l6 -5v-32h-319zM206 -212l-12 12q5 5 12.5 14.5t19.5 40.5t12 64q0 11 -1.5 20t-2.5 13l-2 4l5 5q12 0 22 -1.5t15 -3.5l4 -2q3 -9 3 -27q0 -25 -7.5 -48t-18.5 -39t-22.5 -28t-18.5 -18z" />
    <glyph glyph-name="Ldot.smcp" horiz-adv-x="454" 
d="M93 0v490h51v-465h138q39 0 70 3t42 6l12 3l6 -5v-32h-319zM305 247q0 31 31 31q14 0 23 -8.5t9 -22.5t-9 -22.5t-23 -8.5q-31 0 -31 31z" />
    <glyph glyph-name="Lslash.smcp" horiz-adv-x="459" 
d="M38 191l-11 19l71 39v241h52v-213l73 40l11 -19l-84 -46v-227h138q39 0 70 3t42 6l12 3l5 -5v-32h-319v224z" />
    <glyph glyph-name="M.smcp" horiz-adv-x="722" 
d="M605 0l-66 437l-2 2l-166 -425h-36l-9 10l-172 413l-3 -3l-55 -434h-30l48 369q4 32 5.5 60.5t0.5 41.5v13l6 6h61l175 -417l162 417h61l73 -490h-53z" />
    <glyph glyph-name="N.smcp" horiz-adv-x="608" 
d="M93 0v294q0 56 -2.5 103.5t-5.5 66.5l-3 20l6 6h20l377 -404v404h31v-490h-18l-377 404v-404h-28z" />
    <glyph glyph-name="Nacute.smcp" horiz-adv-x="608" 
d="M93 0v294q0 56 -2.5 103.5t-5.5 66.5l-3 20l6 6h20l377 -404v404h31v-490h-18l-377 404v-404h-28zM270 551l-6 6l95 137q14 0 25 -2t15 -4l4 -2v-6l-112 -129h-21z" />
    <glyph glyph-name="Ncaron.smcp" horiz-adv-x="608" 
d="M93 0v294q0 56 -2.5 103.5t-5.5 66.5l-3 20l6 6h20l377 -404v404h31v-490h-18l-377 404v-404h-28zM425 691l6 -6l-119 -137h-17l-119 137l6 6h24l98 -101l98 101h23z" />
    <glyph glyph-name="Ncommaaccent.smcp" horiz-adv-x="608" 
d="M93 0v294q0 56 -2.5 103.5t-5.5 66.5l-3 20l6 6h20l377 -404v404h31v-490h-18l-377 404v-404h-28zM272 -212l-11 12q5 5 12.5 14.5t19.5 40.5t12 64q0 11 -1.5 20t-3.5 13l-1 4l4 5q12 0 22 -1.5t15 -3.5l4 -2q4 -9 4 -27q0 -25 -8 -48t-19 -39t-22 -28t-19 -18z" />
    <glyph glyph-name="Ntilde.smcp" horiz-adv-x="608" 
d="M93 0v294q0 56 -2.5 103.5t-5.5 66.5l-3 20l6 6h20l377 -404v404h31v-490h-18l-377 404v-404h-28zM259 633q25 0 50.5 -18t46.5 -18q20 0 37.5 9.5t24.5 19.5l8 10l13 -13q-1 -2 -3 -6.5t-10 -15t-17 -18.5t-25 -14.5t-33 -6.5q-25 0 -51 18t-46 18t-37.5 -10t-24.5 -20
l-8 -9l-14 14q1 2 3 6.5t10 14.5t17.5 18t25.5 14.5t33 6.5z" />
    <glyph glyph-name="Eng.smcp" horiz-adv-x="608" 
d="M472 -28v56l-351 376v-404h-28v294q0 56 -2.5 103.5t-5.5 66.5l-3 20l6 6h20l377 -404v404h31v-517q0 -153 -145 -153q-40 0 -71.5 10.5t-43.5 21.5l-12 10q0 14 5.5 26.5t10.5 17.5l6 6h7q1 -3 3.5 -7.5t11 -16.5t19 -21t28.5 -16.5t38 -7.5q99 0 99 129z" />
    <glyph glyph-name="O.smcp" horiz-adv-x="642" 
d="M63 245q0 112 71.5 181t186.5 69t186.5 -69t71.5 -181t-71.5 -181t-186.5 -69t-186.5 69t-71.5 181zM119 245q0 -104 55.5 -165.5t146.5 -61.5q90 0 145.5 61.5t55.5 165.5t-55.5 165.5t-145.5 61.5q-91 0 -146.5 -61.5t-55.5 -165.5z" />
    <glyph glyph-name="Oacute.smcp" horiz-adv-x="642" 
d="M63 245q0 112 71.5 181t186.5 69t186.5 -69t71.5 -181t-71.5 -181t-186.5 -69t-186.5 69t-71.5 181zM119 245q0 -104 55.5 -165.5t146.5 -61.5q90 0 145.5 61.5t55.5 165.5t-55.5 165.5t-145.5 61.5q-91 0 -146.5 -61.5t-55.5 -165.5zM287 551l-6 6l95 137q14 0 25 -2
t15 -4l4 -2v-6l-111 -129h-22z" />
    <glyph glyph-name="Obreve.smcp" horiz-adv-x="642" 
d="M63 245q0 112 71.5 181t186.5 69t186.5 -69t71.5 -181t-71.5 -181t-186.5 -69t-186.5 69t-71.5 181zM119 245q0 -104 55.5 -165.5t146.5 -61.5q90 0 145.5 61.5t55.5 165.5t-55.5 165.5t-145.5 61.5q-91 0 -146.5 -61.5t-55.5 -165.5zM191 636l13 13q4 -6 13 -16
t39.5 -26t64.5 -16t63 14.5t41 28.5l12 15l14 -13q-1 -3 -4 -8.5t-14.5 -19.5t-25 -24.5t-37 -19t-49.5 -8.5q-27 0 -50 8t-37 20t-24.5 24t-14.5 20z" />
    <glyph glyph-name="Ocircumflex.smcp" horiz-adv-x="642" 
d="M63 245q0 112 71.5 181t186.5 69t186.5 -69t71.5 -181t-71.5 -181t-186.5 -69t-186.5 69t-71.5 181zM119 245q0 -104 55.5 -165.5t146.5 -61.5q90 0 145.5 61.5t55.5 165.5t-55.5 165.5t-145.5 61.5q-91 0 -146.5 -61.5t-55.5 -165.5zM448 557l-6 -6h-23l-98 101
l-98 -101h-24l-6 6l119 137h17z" />
    <glyph glyph-name="Odieresis.smcp" horiz-adv-x="642" 
d="M63 245q0 112 71.5 181t186.5 69t186.5 -69t71.5 -181t-71.5 -181t-186.5 -69t-186.5 69t-71.5 181zM119 245q0 -104 55.5 -165.5t146.5 -61.5q90 0 145.5 61.5t55.5 165.5t-55.5 165.5t-145.5 61.5q-91 0 -146.5 -61.5t-55.5 -165.5zM183 594q0 14 9 22.5t23 8.5
q31 0 31 -31q0 -14 -8.5 -23t-22.5 -9t-23 9t-9 23zM395 594q0 14 9 22.5t23 8.5q31 0 31 -31q0 -14 -8.5 -23t-22.5 -9t-23 9t-9 23z" />
    <glyph glyph-name="Ograve.smcp" horiz-adv-x="642" 
d="M63 245q0 112 71.5 181t186.5 69t186.5 -69t71.5 -181t-71.5 -181t-186.5 -69t-186.5 69t-71.5 181zM119 245q0 -104 55.5 -165.5t146.5 -61.5q90 0 145.5 61.5t55.5 165.5t-55.5 165.5t-145.5 61.5q-91 0 -146.5 -61.5t-55.5 -165.5zM360 557l-5 -6h-22l-112 129v6
q14 8 44 8z" />
    <glyph glyph-name="Ohungarumlaut.smcp" horiz-adv-x="642" 
d="M63 245q0 112 71.5 181t186.5 69t186.5 -69t71.5 -181t-71.5 -181t-186.5 -69t-186.5 69t-71.5 181zM119 245q0 -104 55.5 -165.5t146.5 -61.5q90 0 145.5 61.5t55.5 165.5t-55.5 165.5t-145.5 61.5q-91 0 -146.5 -61.5t-55.5 -165.5zM208 551l-6 6l94 137q14 0 25 -2
t15 -4l4 -2v-6l-111 -129h-21zM365 551l-6 6l98 137q14 0 24.5 -2t14.5 -4l4 -2v-6l-113 -129h-22z" />
    <glyph glyph-name="Omacron.smcp" horiz-adv-x="642" 
d="M63 245q0 112 71.5 181t186.5 69t186.5 -69t71.5 -181t-71.5 -181t-186.5 -69t-186.5 69t-71.5 181zM119 245q0 -104 55.5 -165.5t146.5 -61.5q90 0 145.5 61.5t55.5 165.5t-55.5 165.5t-145.5 61.5q-91 0 -146.5 -61.5t-55.5 -165.5zM205 580v31h230v-31h-230z" />
    <glyph glyph-name="Oslash.smcp" horiz-adv-x="642" 
d="M174 -18h-31l31 51q-111 67 -111 212q0 112 71.5 181t186.5 69q68 0 122 -26l24 39h31l-32 -51q53 -33 83 -88t30 -124q0 -112 -71.5 -181t-186.5 -69q-69 0 -123 26zM523 245q0 120 -74 183l-235 -382q47 -28 107 -28q91 0 146.5 61.5t55.5 165.5zM119 245
q0 -121 73 -183l235 381q-46 29 -106 29q-91 0 -146.5 -61.5t-55.5 -165.5z" />
    <glyph glyph-name="Oslashacute.smcp" horiz-adv-x="642" 
d="M174 -18h-31l31 51q-111 67 -111 212q0 112 71.5 181t186.5 69q68 0 122 -26l24 39h31l-32 -51q53 -33 83 -88t30 -124q0 -112 -71.5 -181t-186.5 -69q-69 0 -123 26zM523 245q0 120 -74 183l-235 -382q47 -28 107 -28q91 0 146.5 61.5t55.5 165.5zM119 245
q0 -121 73 -183l235 381q-46 29 -106 29q-91 0 -146.5 -61.5t-55.5 -165.5zM279 551l-6 6l95 137q14 0 25 -2t15 -4l5 -2v-6l-112 -129h-22z" />
    <glyph glyph-name="Otilde.smcp" horiz-adv-x="642" 
d="M63 245q0 112 71.5 181t186.5 69t186.5 -69t71.5 -181t-71.5 -181t-186.5 -69t-186.5 69t-71.5 181zM119 245q0 -104 55.5 -165.5t146.5 -61.5q90 0 145.5 61.5t55.5 165.5t-55.5 165.5t-145.5 61.5q-91 0 -146.5 -61.5t-55.5 -165.5zM275 633q25 0 50.5 -18t46.5 -18
q20 0 37.5 9.5t24.5 19.5l8 10l14 -13q-3 -7 -9 -17t-29 -27t-51 -17q-25 0 -50.5 18t-46.5 18q-20 0 -37.5 -10t-24.5 -20l-8 -9l-13 14q3 7 9 17t28.5 26.5t50.5 16.5z" />
    <glyph glyph-name="OE.smcp" horiz-adv-x="821" 
d="M436 0v24q-48 -29 -118 -29q-112 0 -183.5 69.5t-71.5 180.5t71 180.5t183 69.5q65 0 119 -30v25h315v-31l-5 -6q-36 12 -124 12h-135v-202h218l5 -5v-21h-223v-212h142q40 0 71 3t42 6l11 3l6 -5v-32h-323zM321 18q70 0 115 48v359q-47 47 -115 47q-91 0 -146.5 -61.5
t-55.5 -165.5t55.5 -165.5t146.5 -61.5z" />
    <glyph glyph-name="P.smcp" horiz-adv-x="503" 
d="M93 0v490h171q85 0 135.5 -37t50.5 -102t-50.5 -102.5t-135.5 -37.5h-120v-211h-51zM256 464h-112v-227h112q65 0 103 30t38 84q0 53 -38 83t-103 30z" />
    <glyph glyph-name="Q.smcp" horiz-adv-x="642" 
d="M321 -9q-115 0 -186.5 69.5t-71.5 182.5t71.5 182.5t186.5 69.5t186.5 -70t71.5 -182q0 -92 -49.5 -157t-133.5 -86q22 -6 54 -20.5t59.5 -23t54.5 -8.5q15 0 26 2.5t14 5.5l4 2l5 -5q0 -12 -2 -22.5t-4 -15.5l-2 -5q-10 -7 -39 -7q-42 0 -84.5 22t-83 44t-77.5 22z
M119 243q0 -105 55.5 -167t146.5 -62q90 0 145.5 62t55.5 167t-55.5 167t-145.5 62q-91 0 -146.5 -62t-55.5 -167z" />
    <glyph glyph-name="R.smcp" horiz-adv-x="517" 
d="M93 0v490h162q85 0 135.5 -36t50.5 -99q0 -52 -34.5 -85.5t-94.5 -44.5l69 -104q25 -36 47 -65.5t32 -40.5l9 -11l-3 -4h-58l-150 220h-114v-220h-51zM247 464h-103v-218h103q65 0 103 29t38 80q0 52 -38 80.5t-103 28.5z" />
    <glyph glyph-name="Racute.smcp" horiz-adv-x="517" 
d="M93 0v490h162q85 0 135.5 -36t50.5 -99q0 -52 -34.5 -85.5t-94.5 -44.5l69 -104q25 -36 47 -65.5t32 -40.5l9 -11l-3 -4h-58l-150 220h-114v-220h-51zM247 464h-103v-218h103q65 0 103 29t38 80q0 52 -38 80.5t-103 28.5zM214 551l-6 6l95 137q14 0 25 -2t16 -4l4 -2v-6
l-112 -129h-22z" />
    <glyph glyph-name="Rcaron.smcp" horiz-adv-x="517" 
d="M93 0v490h162q85 0 135.5 -36t50.5 -99q0 -52 -34.5 -85.5t-94.5 -44.5l69 -104q25 -36 47 -65.5t32 -40.5l9 -11l-3 -4h-58l-150 220h-114v-220h-51zM247 464h-103v-218h103q65 0 103 29t38 80q0 52 -38 80.5t-103 28.5zM378 691l6 -6l-119 -137h-17l-119 137l6 6h23
l98 -101l98 101h24z" />
    <glyph glyph-name="Rcommaaccent.smcp" horiz-adv-x="517" 
d="M93 0v490h162q85 0 135.5 -36t50.5 -99q0 -52 -34.5 -85.5t-94.5 -44.5l69 -104q25 -36 47 -65.5t32 -40.5l9 -11l-3 -4h-58l-150 220h-114v-220h-51zM247 464h-103v-218h103q65 0 103 29t38 80q0 52 -38 80.5t-103 28.5zM227 -212l-11 12q5 5 12.5 14.5t19.5 40.5t12 64
q0 11 -1.5 20t-2.5 13l-2 4l4 5q12 0 22 -1.5t14 -3.5l5 -2q4 -9 4 -27q0 -25 -8 -48t-19 -39t-22 -28t-19 -18z" />
    <glyph glyph-name="S.smcp" horiz-adv-x="505" 
d="M245 472q-115 0 -115 -82q0 -35 26.5 -55.5t117.5 -66.5q96 -50 127 -76t31 -72q0 -59 -45.5 -92t-135.5 -33q-57 0 -101 13.5t-60 26.5l-16 13q0 14 5.5 25.5t10.5 16.5l6 5h8q2 -3 6 -8.5t19 -18.5t31 -23t42.5 -18.5t54.5 -8.5q57 0 92 23.5t35 63.5q0 26 -21 48.5
t-41.5 33.5t-73.5 36l-3 1.5l-3 1.5l-4 2q-88 42 -121 70t-33 78q0 58 43 88.5t125 30.5q49 0 88 -11t54 -22l14 -11q0 -14 -5.5 -26t-10.5 -17l-6 -5h-8q-1 3 -4 7.5t-14.5 16.5t-25.5 21t-38 16.5t-51 7.5z" />
    <glyph glyph-name="Sacute.smcp" horiz-adv-x="505" 
d="M245 472q-115 0 -115 -82q0 -35 26.5 -55.5t117.5 -66.5q96 -50 127 -76t31 -72q0 -59 -45.5 -92t-135.5 -33q-57 0 -101 13.5t-60 26.5l-16 13q0 14 5.5 25.5t10.5 16.5l6 5h8q2 -3 6 -8.5t19 -18.5t31 -23t42.5 -18.5t54.5 -8.5q57 0 92 23.5t35 63.5q0 26 -21 48.5
t-41.5 33.5t-73.5 36l-3 1.5l-3 1.5l-4 2q-88 42 -121 70t-33 78q0 58 43 88.5t125 30.5q49 0 88 -11t54 -22l14 -11q0 -14 -5.5 -26t-10.5 -17l-6 -5h-8q-1 3 -4 7.5t-14.5 16.5t-25.5 21t-38 16.5t-51 7.5zM212 551l-6 6l95 137q14 0 25 -2t15 -4l4 -2v-6l-111 -129h-22z
" />
    <glyph glyph-name="Scaron.smcp" horiz-adv-x="505" 
d="M245 472q-115 0 -115 -82q0 -35 26.5 -55.5t117.5 -66.5q96 -50 127 -76t31 -72q0 -59 -45.5 -92t-135.5 -33q-57 0 -101 13.5t-60 26.5l-16 13q0 14 5.5 25.5t10.5 16.5l6 5h8q2 -3 6 -8.5t19 -18.5t31 -23t42.5 -18.5t54.5 -8.5q57 0 92 23.5t35 63.5q0 26 -21 48.5
t-41.5 33.5t-73.5 36l-3 1.5l-3 1.5l-4 2q-88 42 -121 70t-33 78q0 58 43 88.5t125 30.5q49 0 88 -11t54 -22l14 -11q0 -14 -5.5 -26t-10.5 -17l-6 -5h-8q-1 3 -4 7.5t-14.5 16.5t-25.5 21t-38 16.5t-51 7.5zM374 691l6 -6l-119 -137h-17l-119 137l6 6h24l98 -101l98 101h23
z" />
    <glyph glyph-name="Scedilla.smcp" horiz-adv-x="505" 
d="M230 -68l11 63q-54 1 -95.5 14.5t-56.5 26.5l-15 12q0 14 5.5 25.5t10.5 16.5l6 5h8q2 -3 6 -8.5t19 -18.5t31 -23t42.5 -18.5t54.5 -8.5q57 0 92 23.5t35 63.5q0 26 -21 48.5t-41.5 33.5t-73.5 36l-3 1.5l-3 1.5l-4 2q-88 42 -121 70t-33 78q0 58 43 88.5t125 30.5
q49 0 88 -11t54 -22l14 -11q0 -14 -5.5 -26t-10.5 -17l-6 -5h-8q-1 3 -4 7.5t-14.5 16.5t-25.5 21t-38 16.5t-51 7.5q-115 0 -115 -82q0 -35 26.5 -55.5t117.5 -66.5q96 -50 127 -76t31 -72q0 -56 -41.5 -88.5t-122.5 -35.5l-8 -48q28 0 46.5 -16.5t18.5 -43.5t-20 -43.5
t-51 -16.5q-22 0 -39.5 8.5t-24.5 17.5l-6 8l12 13q19 -20 52 -20q43 0 43 34q0 37 -55 37z" />
    <glyph glyph-name="Scircumflex.smcp" horiz-adv-x="505" 
d="M245 472q-115 0 -115 -82q0 -35 26.5 -55.5t117.5 -66.5q96 -50 127 -76t31 -72q0 -59 -45.5 -92t-135.5 -33q-57 0 -101 13.5t-60 26.5l-16 13q0 14 5.5 25.5t10.5 16.5l6 5h8q2 -3 6 -8.5t19 -18.5t31 -23t42.5 -18.5t54.5 -8.5q57 0 92 23.5t35 63.5q0 26 -21 48.5
t-41.5 33.5t-73.5 36l-3 1.5l-3 1.5l-4 2q-88 42 -121 70t-33 78q0 58 43 88.5t125 30.5q49 0 88 -11t54 -22l14 -11q0 -14 -5.5 -26t-10.5 -17l-6 -5h-8q-1 3 -4 7.5t-14.5 16.5t-25.5 21t-38 16.5t-51 7.5zM380 571l-6 -6h-23l-98 101l-98 -101h-24l-6 6l119 137h17z" />
    <glyph glyph-name="Scommaaccent.smcp" horiz-adv-x="505" 
d="M245 472q-115 0 -115 -82q0 -35 26.5 -55.5t117.5 -66.5q96 -50 127 -76t31 -72q0 -59 -45.5 -92t-135.5 -33q-57 0 -101 13.5t-60 26.5l-16 13q0 14 5.5 25.5t10.5 16.5l6 5h8q2 -3 6 -8.5t19 -18.5t31 -23t42.5 -18.5t54.5 -8.5q57 0 92 23.5t35 63.5q0 26 -21 48.5
t-41.5 33.5t-73.5 36l-3 1.5l-3 1.5l-4 2q-88 42 -121 70t-33 78q0 58 43 88.5t125 30.5q49 0 88 -11t54 -22l14 -11q0 -14 -5.5 -26t-10.5 -17l-6 -5h-8q-1 3 -4 7.5t-14.5 16.5t-25.5 21t-38 16.5t-51 7.5zM212 -212l-11 12q5 5 12.5 14.5t19.5 40.5t12 64q0 11 -1.5 20
t-3.5 13l-1 4l4 5q12 0 22 -1.5t15 -3.5l4 -2q4 -9 4 -27q0 -25 -8 -48t-19 -39t-22 -28t-19 -18z" />
    <glyph glyph-name="T.smcp" horiz-adv-x="532" 
d="M291 465v-465h-51v465h-71q-40 0 -71 -3t-42 -6l-11 -3l-6 6v31h454v-31l-6 -6q-35 12 -124 12h-72z" />
    <glyph glyph-name="Tbar.smcp" horiz-adv-x="532" 
d="M137 251v25h103v189h-71q-40 0 -71 -3t-42 -6l-11 -3l-6 6v31h454v-31l-6 -6q-35 12 -124 12h-72v-189h103v-25h-103v-251h-51v251h-103z" />
    <glyph glyph-name="Tcaron.smcp" horiz-adv-x="532" 
d="M291 465v-465h-51v465h-71q-40 0 -71 -3t-42 -6l-11 -3l-6 6v31h454v-31l-6 -6q-35 12 -124 12h-72zM387 685l6 -6l-119 -137h-17l-119 137l6 6h23l98 -101l98 101h24z" />
    <glyph glyph-name="Tcommaaccent.smcp" horiz-adv-x="532" 
d="M291 465v-465h-51v465h-71q-40 0 -71 -3t-42 -6l-11 -3l-6 6v31h454v-31l-6 -6q-35 12 -124 12h-72zM223 -212l-12 12q5 5 12.5 14.5t19.5 40.5t12 64l-5 37l4 5q12 0 22 -1.5t14 -3.5l5 -2q3 -9 3 -27q0 -39 -19 -74t-37 -50z" />
    <glyph glyph-name="uni021A.smcp" horiz-adv-x="532" 
d="M291 465v-465h-51v465h-71q-40 0 -71 -3t-42 -6l-11 -3l-6 6v31h454v-31l-6 -6q-35 12 -124 12h-72zM223 -212l-12 12q5 5 12.5 14.5t19.5 40.5t12 64l-5 37l4 5q12 0 22 -1.5t14 -3.5l5 -2q3 -9 3 -27q0 -39 -19 -74t-37 -50z" />
    <glyph glyph-name="U.smcp" horiz-adv-x="587" 
d="M471 179v311h28v-311q0 -81 -56.5 -132.5t-149.5 -51.5q-94 0 -150 51.5t-56 132.5v311h52v-317q0 -67 45.5 -109.5t118.5 -42.5q75 0 121.5 44t46.5 114z" />
    <glyph glyph-name="Uacute.smcp" horiz-adv-x="587" 
d="M471 179v311h28v-311q0 -81 -56.5 -132.5t-149.5 -51.5q-94 0 -150 51.5t-56 132.5v311h52v-317q0 -67 45.5 -109.5t118.5 -42.5q75 0 121.5 44t46.5 114zM261 551l-6 6l95 137q14 0 25 -2t15 -4l5 -2v-6l-112 -129h-22z" />
    <glyph glyph-name="Ubreve.smcp" horiz-adv-x="587" 
d="M471 179v311h28v-311q0 -81 -56.5 -132.5t-149.5 -51.5q-94 0 -150 51.5t-56 132.5v311h52v-317q0 -67 45.5 -109.5t118.5 -42.5q75 0 121.5 44t46.5 114zM166 636l14 13q4 -6 13 -16t39 -26t64 -16t63.5 14.5t41.5 28.5l12 15l13 -13q-1 -3 -4 -8.5t-14.5 -19.5
t-25 -24.5t-37 -19t-49.5 -8.5t-49 8t-37.5 20t-24.5 24t-15 20z" />
    <glyph glyph-name="Ucircumflex.smcp" horiz-adv-x="587" 
d="M471 179v311h28v-311q0 -81 -56.5 -132.5t-149.5 -51.5q-94 0 -150 51.5t-56 132.5v311h52v-317q0 -67 45.5 -109.5t118.5 -42.5q75 0 121.5 44t46.5 114zM423 557l-6 -6h-24l-98 101l-98 -101h-23l-6 6l119 137h17z" />
    <glyph glyph-name="Udieresis.smcp" horiz-adv-x="587" 
d="M471 179v311h28v-311q0 -81 -56.5 -132.5t-149.5 -51.5q-94 0 -150 51.5t-56 132.5v311h52v-317q0 -67 45.5 -109.5t118.5 -42.5q75 0 121.5 44t46.5 114zM158 594q0 31 31 31t31 -31q0 -14 -8.5 -23t-22.5 -9t-22.5 9t-8.5 23zM370 594q0 31 31 31q14 0 23 -8.5t9 -22.5
t-9 -23t-23 -9t-22.5 9t-8.5 23z" />
    <glyph glyph-name="Ugrave.smcp" horiz-adv-x="587" 
d="M471 179v311h28v-311q0 -81 -56.5 -132.5t-149.5 -51.5q-94 0 -150 51.5t-56 132.5v311h52v-317q0 -67 45.5 -109.5t118.5 -42.5q75 0 121.5 44t46.5 114zM335 557l-6 -6h-22l-112 129v6q14 8 45 8z" />
    <glyph glyph-name="Uhungarumlaut.smcp" horiz-adv-x="587" 
d="M471 179v311h28v-311q0 -81 -56.5 -132.5t-149.5 -51.5q-94 0 -150 51.5t-56 132.5v311h52v-317q0 -67 45.5 -109.5t118.5 -42.5q75 0 121.5 44t46.5 114zM182 551l-6 6l94 137q14 0 25 -2t15 -4l5 -2v-6l-111 -129h-22zM339 551l-6 6l98 137q14 0 24.5 -2t14.5 -4l4 -2
v-6l-113 -129h-22z" />
    <glyph glyph-name="Umacron.smcp" horiz-adv-x="587" 
d="M471 179v311h28v-311q0 -81 -56.5 -132.5t-149.5 -51.5q-94 0 -150 51.5t-56 132.5v311h52v-317q0 -67 45.5 -109.5t118.5 -42.5q75 0 121.5 44t46.5 114zM180 580v31h230v-31h-230z" />
    <glyph glyph-name="Uogonek.smcp" horiz-adv-x="587" 
d="M471 179v311h28v-311q0 -69 -43 -118t-116 -62q-34 -34 -34 -81q0 -45 43 -45q11 0 20 2.5t13 5.5l4 3l13 -13q-17 -27 -57 -27q-29 0 -49.5 18.5t-20.5 52.5q0 48 36 81q-5 -1 -15 -1q-94 0 -150 51.5t-56 132.5v311h52v-317q0 -67 45.5 -109.5t118.5 -42.5
q75 0 121.5 44t46.5 114z" />
    <glyph glyph-name="Uring.smcp" horiz-adv-x="587" 
d="M471 179v311h28v-311q0 -81 -56.5 -132.5t-149.5 -51.5q-94 0 -150 51.5t-56 132.5v311h52v-317q0 -67 45.5 -109.5t118.5 -42.5q75 0 121.5 44t46.5 114zM220 621q0 34 21 55t55 21t55 -21t21 -55t-21 -55.5t-55 -21.5t-55 21.5t-21 55.5zM249 621q0 -20 13.5 -33.5
t33.5 -13.5t33 13.5t13 33.5t-13 33t-33 13t-33.5 -13t-13.5 -33z" />
    <glyph glyph-name="Utilde.smcp" horiz-adv-x="587" 
d="M471 179v311h28v-311q0 -81 -56.5 -132.5t-149.5 -51.5q-94 0 -150 51.5t-56 132.5v311h52v-317q0 -67 45.5 -109.5t118.5 -42.5q75 0 121.5 44t46.5 114zM250 633q25 0 50.5 -18t45.5 -18t38 9.5t26 19.5l7 10l13 -13q-3 -7 -9 -17t-29 -27t-51 -17q-25 0 -50.5 18
t-45.5 18t-37.5 -10t-25.5 -20l-8 -9l-13 14q1 2 3 6.5t10 14.5t17.5 18t25.5 14.5t33 6.5z" />
    <glyph glyph-name="V.smcp" horiz-adv-x="559" 
d="M257 10l-164 359q-17 37 -31.5 65.5t-20.5 39.5l-6 10v6h58l203 -441l198 441h31l-220 -490h-37z" />
    <glyph glyph-name="W.smcp" horiz-adv-x="824" 
d="M553 10l-133 332l-130 -342h-37l-10 10l-153 359q-15 37 -29 65.5t-20 39.5l-6 10v6h58l186 -437l125 327q-13 33 -24.5 59t-17.5 35l-5 10v6h59l174 -436l170 436h31l-191 -490h-37z" />
    <glyph glyph-name="Wacute.smcp" horiz-adv-x="824" 
d="M553 10l-133 332l-130 -342h-37l-10 10l-153 359q-15 37 -29 65.5t-20 39.5l-6 10v6h58l186 -437l125 327q-13 33 -24.5 59t-17.5 35l-5 10v6h59l174 -436l170 436h31l-191 -490h-37zM378 551l-6 6l96 137q13 0 24 -2t16 -4l4 -2v-6l-112 -129h-22z" />
    <glyph glyph-name="Wcircumflex.smcp" horiz-adv-x="824" 
d="M553 10l-133 332l-130 -342h-37l-10 10l-153 359q-15 37 -29 65.5t-20 39.5l-6 10v6h58l186 -437l125 327q-13 33 -24.5 59t-17.5 35l-5 10v6h59l174 -436l170 436h31l-191 -490h-37zM548 557l-6 -6h-24l-98 101l-98 -101h-23l-6 6l119 137h17z" />
    <glyph glyph-name="Wdieresis.smcp" horiz-adv-x="824" 
d="M553 10l-133 332l-130 -342h-37l-10 10l-153 359q-15 37 -29 65.5t-20 39.5l-6 10v6h58l186 -437l125 327q-13 33 -24.5 59t-17.5 35l-5 10v6h59l174 -436l170 436h31l-191 -490h-37zM283 594q0 31 32 31q14 0 22.5 -8.5t8.5 -22.5t-8.5 -23t-22.5 -9q-15 0 -23.5 9
t-8.5 23zM495 594q0 14 9 22.5t23 8.5t22.5 -8.5t8.5 -22.5t-8.5 -23t-22.5 -9t-23 9t-9 23z" />
    <glyph glyph-name="Wgrave.smcp" horiz-adv-x="824" 
d="M553 10l-133 332l-130 -342h-37l-10 10l-153 359q-15 37 -29 65.5t-20 39.5l-6 10v6h58l186 -437l125 327q-13 33 -24.5 59t-17.5 35l-5 10v6h59l174 -436l170 436h31l-191 -490h-37zM470 557l-6 -6h-22l-112 129v6q14 8 44 8z" />
    <glyph glyph-name="X.smcp" horiz-adv-x="534" 
d="M109 490l164 -212l168 212h37l-188 -233l91 -117q28 -37 56 -70.5t41 -48.5l14 -15v-6h-61l-177 225l-180 -225h-34l197 248l-189 242h61z" />
    <glyph glyph-name="Y.smcp" horiz-adv-x="513" 
d="M477 490l-194 -271v-219h-52v216l-87 125q-28 40 -56 75.5t-42 51.5l-13 16v6h64l172 -235l173 235h35z" />
    <glyph glyph-name="Yacute.smcp" horiz-adv-x="513" 
d="M477 490l-194 -271v-219h-52v216l-87 125q-28 40 -56 75.5t-42 51.5l-13 16v6h64l172 -235l173 235h35zM215 551l-6 6l95 137q14 0 25 -2t15 -4l5 -2v-6l-112 -129h-22z" />
    <glyph glyph-name="Ycircumflex.smcp" horiz-adv-x="513" 
d="M477 490l-194 -271v-219h-52v216l-87 125q-28 40 -56 75.5t-42 51.5l-13 16v6h64l172 -235l173 235h35zM384 557l-6 -6h-23l-98 101l-98 -101h-24l-6 6l119 137h17z" />
    </font>
</defs>
</svg>
