<?xml version="1.0" standalone="no"?>
<!DOCTYPE svg PUBLIC "-//W3C//DTD SVG 1.1//EN" "http://www.w3.org/Graphics/SVG/1.1/DTD/svg11.dtd" >
<svg xmlns="http://www.w3.org/2000/svg" xmlns:xlink="http://www.w3.org/1999/xlink" version="1.1">
<metadata>
Created by FontForge 20170731 at Sun Dec 25 14:57:52 2016
 By Aleksey,,,
Copyright (c) 2017 by Andriy Konstantynov. All rights reserved.
</metadata>
<defs>
<font id="OrchideaPro-BoldItalic" horiz-adv-x="593" >
  <font-face 
    font-family="Orchidea Pro"
    font-weight="700"
    font-style="italic"
    font-stretch="normal"
    units-per-em="1000"
    panose-1="2 11 0 3 3 2 0 0 0 2"
    ascent="800"
    descent="-200"
    x-height="477"
    cap-height="700"
    bbox="-104 -262 1183 970"
    underline-thickness="50"
    underline-position="-250"
    slope="-9"
    unicode-range="U+0020-FB04"
  />
<missing-glyph horiz-adv-x="219" 
 />
    <glyph glyph-name="ff" unicode="ff" horiz-adv-x="669" 
d="M343 -6l68 428h-150l-63 -398q-9 -57 -39 -107t-66.5 -81.5t-71.5 -54.5t-59 -33l-23 -10l-19 23q4 3 11 9.5t25.5 28t34 45t30.5 59t21 71.5l71 449h-75l6 38l78 20l19 121q13 77 56.5 118.5t114.5 41.5q42 0 72.5 -14t40.5 -28l10 -13l-26 -23q-15 18 -45 18
q-60 0 -73 -89l-22 -136h150l19 118q26 167 177 167q42 0 73.5 -14t41.5 -28l10 -13l-26 -23q-15 18 -47 18q-63 0 -79 -96l-21 -129h127l-9 -55h-126l-60 -378q-9 -57 -39 -107t-66.5 -81.5t-71.5 -54.5t-58 -33l-24 -10l-19 23q4 3 11 9.5t25.5 28t34 45t30.5 59t21 71.5z
" />
    <glyph glyph-name="fi" unicode="fi" horiz-adv-x="587" 
d="M337 0l48 300q10 63 16 122h-140l-63 -398q-9 -57 -39 -107t-66.5 -81.5t-71.5 -54.5t-59 -33l-23 -10l-19 23q4 3 11 9.5t25.5 28t34 45t30.5 59t21 71.5l71 449h-75l6 38l78 20l9 58q15 100 89.5 160.5t189.5 60.5q78 0 123.5 -30t45.5 -84q0 -18 -5.5 -35t-10.5 -25
l-5 -8q-46 -12 -126 -12l-9 12q19 34 19 73q0 61 -51 61q-41 0 -69.5 -41.5t-39.5 -110.5l-14 -83h285q-4 -77 -20 -177l-48 -300h-148z" />
    <glyph glyph-name="fl" unicode="fl" 
d="M344 0l75 477q18 118 25 213q-22 12 -52 12q-87 0 -104 -108l-19 -117h89l-9 -55h-88l-63 -398q-9 -56 -39 -106.5t-66.5 -81.5t-71.5 -54.5t-59 -33.5l-23 -10l-19 23q4 3 11 9.5t25.5 28.5t34 45t30.5 58.5t21 71.5l71 449h-75l6 38l78 20l16 102q14 91 66.5 135
t147.5 44q31 0 58 -5t38 -9l11 -5h136q-2 -108 -27 -266l-77 -477h-147z" />
    <glyph glyph-name="ffi" unicode="ffi" horiz-adv-x="885" 
d="M343 -6l68 428h-150l-63 -398q-9 -57 -39 -107t-66.5 -81.5t-71.5 -54.5t-59 -33l-23 -10l-19 23q4 3 11 9.5t25.5 28t34 45t30.5 59t21 71.5l71 449h-75l6 38l78 20l19 121q13 77 56.5 118.5t114.5 41.5q42 0 72.5 -14t40.5 -28l10 -13l-26 -23q-15 18 -45 18
q-60 0 -73 -89l-22 -136h150l10 62q15 100 89.5 160.5t189.5 60.5q78 0 123.5 -30t45.5 -84q0 -18 -5.5 -35t-10.5 -25l-5 -8q-46 -12 -126 -12l-9 12q19 34 19 73q0 61 -51 61q-41 0 -69.5 -41.5t-39.5 -110.5l-14 -83h285q-4 -77 -20 -177l-48 -300h-148l48 300
q10 63 16 122h-140l-60 -378q-9 -57 -39 -107t-66.5 -81.5t-71.5 -54.5t-58 -33l-24 -10l-19 23q4 3 11 9.5t25.5 28t34 45t30.5 59t21 71.5z" />
    <glyph glyph-name="ffl" unicode="ffl" horiz-adv-x="892" 
d="M343 -6l68 428h-150l-63 -398q-9 -56 -39 -106.5t-66.5 -81.5t-71.5 -54.5t-59 -33.5l-23 -10l-19 23q4 3 11 9.5t25.5 28.5t34 45t30.5 58.5t21 71.5l71 449h-75l6 38l78 20l19 121q13 77 56.5 118.5t114.5 41.5q42 0 72.5 -14t40.5 -28l10 -13l-26 -23q-15 18 -45 18
q-60 0 -73 -89l-22 -136h150l17 106q15 92 67.5 135.5t146.5 43.5q31 0 58 -5t38 -9l11 -5h136q-2 -108 -27 -266l-76 -477h-148l76 477q18 118 25 212q-20 13 -53 13q-86 0 -104 -108l-19 -117h89l-9 -55h-88l-60 -378q-9 -56 -39 -106.5t-66.5 -81.5t-71.5 -54.5
t-58 -33.5l-24 -10l-19 23q4 3 11 9.5t25.5 28t34 45t30.5 59t21 71.5z" />
    <glyph glyph-name="f_f_j" unicode="ffj" horiz-adv-x="885" 
d="M343 -6l68 428h-150l-63 -398q-9 -57 -39 -107t-66.5 -81.5t-71.5 -54.5t-59 -33l-23 -10l-19 23q4 3 11 9.5t25.5 28t34 45t30.5 59t21 71.5l71 449h-75l6 38l78 20l19 121q13 77 56.5 118.5t114.5 41.5q42 0 72.5 -14t40.5 -28l10 -13l-26 -23q-15 18 -45 18
q-60 0 -73 -89l-22 -136h150l10 62q15 100 89.5 160.5t189.5 60.5q78 0 123.5 -30t45.5 -84q0 -18 -5.5 -35t-10.5 -25l-5 -8q-46 -12 -126 -12l-9 12q19 34 19 73q0 61 -51 61q-41 0 -69.5 -41.5t-39.5 -110.5l-14 -83h285q-3 -77 -20 -177l-38 -231q-9 -57 -39 -107
t-66.5 -81.5t-71 -54.5t-58.5 -33l-23 -10l-19 23q4 3 11 9.5t25.5 28t33.5 45t30 59t21 71.5l46 281q10 63 16 122h-140l-60 -378q-9 -57 -39 -107t-66.5 -81.5t-71.5 -54.5t-58 -33l-24 -10l-19 23q4 3 11 9.5t25.5 28t34 45t30.5 59t21 71.5z" />
    <glyph glyph-name="f_j" unicode="fj" horiz-adv-x="587" 
d="M336 -6l49 306q10 63 16 122h-140l-63 -398q-9 -57 -39 -107t-66.5 -81.5t-71.5 -54.5t-59 -33l-23 -10l-19 23q4 3 11 9.5t25.5 28t34 45t30.5 59t21 71.5l71 449h-75l6 38l78 20l9 58q15 100 89.5 160.5t189.5 60.5q78 0 123.5 -30t45.5 -84q0 -18 -5.5 -35t-10.5 -25
l-5 -8q-46 -12 -126 -12l-9 12q19 34 19 73q0 61 -51 61q-41 0 -69.5 -41.5t-39.5 -110.5l-14 -83h285q-4 -77 -20 -177l-42 -256q-9 -57 -39 -107t-66 -81.5t-71 -54.5t-59 -33l-23 -10l-19 23q4 3 11 9.5t25.5 28t34 45t30.5 59t21 71.5z" />
    <glyph glyph-name="afii10104_afii10104" unicode="&#x457;&#x457;" horiz-adv-x="558" 
d="M40 610q0 32 21.5 52.5t53.5 20.5q25 0 39.5 -14.5t14.5 -38.5q0 -33 -21 -54t-54 -21q-25 0 -39.5 15t-14.5 40zM272 610q0 32 21.5 52.5t53.5 20.5q25 0 40 -14.5t15 -38.5q0 -33 -21 -54t-54 -21q-25 0 -40 15t-15 40zM25 0l48 300l21 165l12 12h135q-4 -77 -20 -177
l-48 -300h-148zM505 610q0 32 21.5 52.5t53.5 20.5q25 0 40 -14.5t15 -38.5q0 -33 -21.5 -54t-53.5 -21q-25 0 -40 15t-15 40zM308 0l48 300q7 44 12 85.5t6 60.5l2 19l12 12h136q-4 -77 -20 -177l-48 -300h-148z" />
    <glyph glyph-name=".notdef" horiz-adv-x="219" 
 />
    <glyph glyph-name=".null" horiz-adv-x="0" 
 />
    <glyph glyph-name="nonmarkingreturn" horiz-adv-x="333" 
 />
    <glyph glyph-name="space" unicode=" " horiz-adv-x="219" 
 />
    <glyph glyph-name="exclam" unicode="!" horiz-adv-x="256" 
d="M19 56q0 39 26 65t65 26q32 0 50 -18t18 -49q0 -39 -26 -64.5t-65 -25.5q-32 0 -50 17.5t-18 48.5zM67 223l54 477h156l-98 -477h-112z" />
    <glyph glyph-name="quotedbl" unicode="&#x22;" horiz-adv-x="325" 
d="M104 502l16 198h92l-48 -207h-53zM238 502l17 198h91l-48 -207h-53z" />
    <glyph glyph-name="numbersign" unicode="#" horiz-adv-x="594" 
d="M86 452l10 62h115l48 186h63l-48 -186h162l48 186h63l-48 -186h109l-10 -62h-115l-53 -204h110l-10 -62h-116l-48 -186h-63l48 186h-162l-48 -186h-63l48 186h-109l11 62h114l53 204h-109zM258 452l-53 -204h162l53 204h-162z" />
    <glyph glyph-name="dollar" unicode="$" horiz-adv-x="604" 
d="M337 658q-47 0 -73.5 -25t-26.5 -64q0 -32 26.5 -59.5t117.5 -98.5q107 -85 138.5 -122.5t31.5 -93.5q0 -88 -64 -143t-197 -61l-14 -91h-62l14 91q-46 3 -85 11.5t-62 19.5t-39 22.5t-22 18.5t-6 9q6 40 31 77.5t47 54.5l22 18h16q2 -7 5.5 -19.5t16.5 -43.5t29.5 -54.5
t45 -43t61.5 -19.5q49 0 82 27.5t33 67.5q0 38 -33 69t-119 89q-88 60 -122.5 101.5t-34.5 107.5q0 89 63 143.5t185 61.5l15 91h62l-15 -91q63 -3 109 -19t62 -29.5t15 -16.5q-6 -40 -31 -78t-47 -56l-22 -18h-14q-1 3 -2 9t-6 23.5t-11.5 33t-18 35t-25 33t-33.5 23
t-43 9.5z" />
    <glyph glyph-name="percent" unicode="%" horiz-adv-x="834" 
d="M205 0h-72l527 700h72zM65 483q0 96 60.5 161.5t147.5 65.5q69 0 109 -44t40 -119q0 -96 -60.5 -161.5t-147.5 -65.5q-70 0 -109.5 44t-39.5 119zM175 464q0 -92 47 -92q37 0 63.5 59t26.5 134q0 92 -48 92q-37 0 -63 -59t-26 -134zM443 154q0 96 60 161t148 65
q70 0 109.5 -44t39.5 -119q0 -96 -60.5 -161.5t-147.5 -65.5q-70 0 -109.5 44t-39.5 120zM552 134q0 -92 48 -92q37 0 63.5 59t26.5 134q0 92 -48 92q-37 0 -63.5 -59.5t-26.5 -133.5z" />
    <glyph glyph-name="ampersand" unicode="&#x26;" horiz-adv-x="808" 
d="M446 289l6 39l140 43l48 16q9 -16 16 -42h142l-8 -56h-126q1 -5 1 -15q0 -121 -90 -202.5t-230 -81.5q-134 0 -209.5 80t-75.5 217q0 178 115.5 301t281.5 123q74 0 111.5 -26.5t37.5 -71.5t-36 -82.5t-92.5 -60t-116 -35.5t-116.5 -16q-15 -55 -15 -114
q0 -100 48.5 -161t131.5 -61t139.5 59t57.5 147h-161zM433 662q-45 0 -93.5 -55.5t-79.5 -138.5q86 6 151.5 47.5t65.5 101.5q0 45 -44 45z" />
    <glyph glyph-name="quotesingle" unicode="'" horiz-adv-x="190" 
d="M104 502l16 198h92l-48 -207h-53z" />
    <glyph glyph-name="parenleft" unicode="(" horiz-adv-x="328" 
d="M249 -120l-44 -39q-7 4 -18 12.5t-40 40.5t-51.5 71.5t-40.5 106.5t-18 144q0 79 17 151.5t44.5 125.5t61 99t67 75.5t61 51t44.5 31.5l17 9l33 -39q-8 -7 -21.5 -21t-48 -63.5t-61 -106.5t-48 -150.5t-21.5 -194.5q0 -92 17 -168t33 -106z" />
    <glyph glyph-name="parenright" unicode=")" horiz-adv-x="328" 
d="M-7 -159l-32 39q8 7 21.5 21t48 63.5t60.5 106.5t47.5 150.5t21.5 194.5q0 92 -16.5 168t-33.5 106l-16 30l45 39q3 -2 9.5 -6t23.5 -20t33 -34.5t35 -50.5t33 -68.5t23.5 -87.5t9.5 -107q0 -62 -10.5 -120t-29 -104.5t-42 -88t-49 -73t-51.5 -58.5t-49.5 -45t-42 -30.5
t-28.5 -18.5z" />
    <glyph glyph-name="asterisk" unicode="*" horiz-adv-x="400" 
d="M222 559l7 141h84l-37 -141l133 58l13 -81l-137 -29l75 -105l-76 -50l-48 122l-88 -122l-60 50l108 105l-128 29l40 81z" />
    <glyph glyph-name="plus" unicode="+" 
d="M99 294v62h166v166h63v-166h166v-62h-166v-166h-63v166h-166z" />
    <glyph glyph-name="comma" unicode="," horiz-adv-x="227" 
d="M-39 -173l-19 23q4 4 10 11.5t21.5 31.5t27.5 49t21.5 61.5t9.5 72.5q0 14 -1.5 27.5t-2.5 19.5l-2 6l10 9q36 0 66 -5t42 -9l11 -5q2 -10 2 -28q0 -47 -20 -91.5t-49 -74t-58 -53t-49 -34.5z" />
    <glyph glyph-name="hyphen" unicode="-" horiz-adv-x="334" 
d="M55 244v63h224v-63h-224z" />
    <glyph glyph-name="period" unicode="." horiz-adv-x="227" 
d="M5 56q0 39 26 65t65 26q31 0 49.5 -18t18.5 -49q0 -39 -26 -64.5t-65 -25.5q-32 0 -50 17.5t-18 48.5z" />
    <glyph glyph-name="slash" unicode="/" horiz-adv-x="402" 
d="M13 -150h-66l457 900h65z" />
    <glyph glyph-name="zero" unicode="0" horiz-adv-x="645" 
d="M51 282q0 180 99.5 304t241.5 124q110 0 171.5 -79t61.5 -213q0 -179 -99.5 -303.5t-241.5 -124.5q-109 0 -171 78.5t-62 213.5zM206 229q0 -187 86 -187q48 0 89.5 64.5t64.5 162.5t23 201q0 188 -86 188q-48 0 -89.5 -64t-64.5 -163t-23 -202z" />
    <glyph glyph-name="one" unicode="1" horiz-adv-x="456" 
d="M166 0l91 580q-84 -46 -166 -46q-6 16 1 57l9 9q56 0 121 25t102 50l37 25h63l-110 -700h-148z" />
    <glyph glyph-name="two" unicode="2" horiz-adv-x="575" 
d="M585 550q0 -65 -43 -133.5t-104 -119.5t-122 -92.5t-104 -63.5l-43 -22h181q48 0 89 7.5t58 15.5l17 8l10 -13l-22 -137h-510l11 72q9 6 24.5 16t59.5 42t84.5 65t89.5 80.5t84.5 92.5t59.5 97.5t24 98.5q0 44 -21.5 69t-62.5 25q-53 0 -87 -41.5t-34 -114.5q0 -12 1 -22
t3 -14l1 -3l-15 -12q-38 0 -72 3t-48 6l-15 3q-5 11 -5 37q0 92 75 151t209 59q109 0 168 -41.5t59 -118.5z" />
    <glyph glyph-name="three" unicode="3" horiz-adv-x="609" 
d="M261 42q66 0 103 50t37 124q0 56 -24 82.5t-77 26.5h-46l-7 9l10 61h37q65 0 102 41t37 124q0 50 -18.5 74t-59.5 24q-54 0 -88 -38t-34 -106l4 -38l-14 -12q-38 0 -72 3t-49 6l-14 3q-5 12 -5 36q0 86 75 142t209 56q222 0 222 -162q0 -68 -40 -116.5t-115 -69.5
q128 -28 128 -150q0 -104 -82.5 -163t-222.5 -59q-121 0 -179.5 43t-58.5 118q0 24 5.5 44.5t11.5 28.5l6 8q54 12 140 12l10 -12q-26 -33 -26 -92q0 -98 95 -98z" />
    <glyph glyph-name="four" unicode="4" horiz-adv-x="589" 
d="M4 139l5 31l466 530h74l-79 -499h82l-10 -62h-82l-22 -139h-148l22 139h-308zM112 201h210l46 291z" />
    <glyph glyph-name="five" unicode="5" horiz-adv-x="587" 
d="M248 42q64 0 101.5 56t37.5 139q0 70 -30.5 98.5t-99.5 28.5q-44 0 -84.5 -9t-59.5 -18l-19 -9l-10 14l97 349h208q48 0 89 7.5t58 15.5l16 7l10 -12l-22 -137h-322l-48 -170q74 36 162 36q107 0 162.5 -51.5t55.5 -145.5q0 -115 -80.5 -183t-225.5 -68q-115 0 -171 42
t-56 114q0 23 5.5 43t11.5 28l6 8q54 12 140 12l10 -12q-26 -31 -26 -90q0 -93 84 -93z" />
    <glyph glyph-name="six" unicode="6" horiz-adv-x="635" 
d="M388 658q-39 0 -70 -27t-51 -73.5t-33 -96.5t-20 -107q61 61 166 61q93 0 150 -48.5t57 -132.5q0 -107 -87.5 -175.5t-208.5 -68.5q-120 0 -180.5 75t-60.5 214q0 64 12 124t39.5 116.5t67 98.5t98.5 67t131 25q95 0 156.5 -40t61.5 -109q0 -20 -5 -38t-11 -26l-5 -8
q-54 -12 -140 -12l-9 12q23 29 23 81q0 44 -22.5 66t-58.5 22zM332 363q-70 0 -125 -87q-2 -22 -2 -59q0 -175 89 -175q53 0 92.5 55.5t39.5 139.5q0 63 -25 94.5t-69 31.5z" />
    <glyph glyph-name="seven" unicode="7" horiz-adv-x="548" 
d="M265 0h-148q12 73 37.5 144.5t58 127.5t68.5 106.5t70 86.5t61.5 63t43.5 40l17 13h-217q-48 0 -89 -7.5t-58 -15.5l-17 -8l-10 13l22 137h484l-10 -65q-10 -11 -28 -32t-65 -88t-86 -137t-78.5 -174t-55.5 -204z" />
    <glyph glyph-name="eight" unicode="8" horiz-adv-x="611" 
d="M588 557q0 -117 -146 -188q55 -35 85.5 -74.5t30.5 -95.5q0 -87 -74 -148t-218 -61q-123 0 -182 45t-59 120q0 126 160 196q-84 59 -84 151q0 90 72.5 149t200.5 59q108 0 161 -42t53 -111zM410 160q0 16 -3.5 29.5t-15 26.5t-18.5 21t-27.5 20.5t-27.5 17t-34 18.5
t-32 17q-86 -59 -86 -149q0 -54 29.5 -86.5t83.5 -32.5q58 0 94.5 35.5t36.5 82.5zM358 658q-48 0 -77.5 -29t-29.5 -73q0 -47 32 -80t93 -69q78 65 78 149q0 48 -26 75t-70 27z" />
    <glyph glyph-name="nine" unicode="9" horiz-adv-x="625" 
d="M261 42q42 0 75.5 28t54 76t33 97.5t19.5 107.5q-59 -61 -164 -61q-88 0 -144.5 45.5t-56.5 131.5q0 107 86 175t207 68q236 0 236 -282q0 -81 -20 -156t-60.5 -139.5t-111.5 -103.5t-164 -39q-98 0 -161 40t-63 109q0 20 5.5 37.5t10.5 25.5l5 7q54 12 140 12l10 -12
q-23 -29 -23 -79q0 -43 23.5 -65.5t62.5 -22.5zM329 342q62 0 120 74q2 52 2 67q0 175 -85 175q-52 0 -89.5 -55.5t-37.5 -138.5q0 -122 90 -122z" />
    <glyph glyph-name="colon" unicode=":" horiz-adv-x="227" 
d="M5 56q0 39 26 65t65 26q31 0 49.5 -18t18.5 -49q0 -39 -26 -64.5t-65 -25.5q-32 0 -50 17.5t-18 48.5zM59 397q0 39 25.5 64.5t64.5 25.5q32 0 50 -17.5t18 -49.5q0 -39 -26 -64.5t-65 -25.5q-32 0 -49.5 18t-17.5 49z" />
    <glyph glyph-name="semicolon" unicode=";" horiz-adv-x="227" 
d="M57 390q0 39 26 64.5t65 25.5q32 0 50 -17.5t18 -49.5q0 -39 -26 -64.5t-65 -25.5q-32 0 -50 17.5t-18 49.5zM-39 -173l-19 23q4 4 10 11.5t21.5 31.5t27.5 49t21.5 61.5t9.5 72.5q0 14 -1.5 27.5t-2.5 19.5l-2 6l10 9q36 0 66 -5t42 -9l11 -5q2 -10 2 -28
q0 -47 -20 -91.5t-49 -74t-58 -53t-49 -34.5z" />
    <glyph glyph-name="less" unicode="&#x3c;" 
d="M494 518v-67l-324 -126l324 -126v-67l-415 159v68z" />
    <glyph glyph-name="equal" unicode="=" 
d="M99 387v62h395v-62h-395zM99 201v62h395v-62h-395z" />
    <glyph glyph-name="greater" unicode="&#x3e;" 
d="M99 451v67l415 -159v-68l-415 -159v67l324 126z" />
    <glyph glyph-name="question" unicode="?" horiz-adv-x="549" 
d="M158 57q0 38 26 64t64 26q32 0 50.5 -18t18.5 -50q0 -38 -26 -63.5t-65 -25.5q-32 0 -50 17.5t-18 49.5zM564 549q0 -50 -24 -94t-58 -71t-67.5 -47t-57.5 -29l-24 -8l-15 -77h-111l15 139q4 1 10.5 2.5t26 8t37 15.5t39 25.5t37 36t26 49.5t10.5 65q0 94 -75 94
q-47 0 -78 -38.5t-31 -104.5l4 -38l-13 -12q-38 0 -72.5 3t-49.5 6l-15 3q-4 10 -4 34q0 87 71.5 143t199.5 56q105 0 162 -41.5t57 -119.5z" />
    <glyph glyph-name="at" unicode="@" horiz-adv-x="1126" 
d="M1078 325q0 -151 -85.5 -243t-230.5 -92q-77 0 -105 29.5t-16 95.5l5 29l-4 4q-4 -6 -10.5 -17t-28 -38t-44 -48t-56.5 -38t-67 -17q-60 0 -92.5 48t-32.5 126q0 140 96 231.5t253 91.5q57 0 97.5 -13t52.5 -26l13 -13l-45 -278q-9 -56 3 -80t43 -24q43 0 74.5 40t46 99
t14.5 128q0 161 -84.5 244t-233.5 83q-107 0 -198 -42.5t-151 -114t-93.5 -163t-33.5 -190.5q0 -162 88 -243.5t253 -81.5q57 0 113.5 9.5t96.5 23t72 27.5t48 24l16 9l19 -24q-6 -6 -16.5 -15.5t-48 -33.5t-80 -43t-110.5 -34t-140 -15q-200 0 -315 107t-115 289
q0 114 46.5 219t126.5 183t194 125t242 47q199 0 311 -106.5t112 -278.5zM470 159q0 -82 36 -82q52 0 142 181v1l23 151q-1 3 -3.5 7.5t-14 12t-28.5 7.5q-59 0 -107 -86.5t-48 -191.5z" />
    <glyph glyph-name="A" unicode="A" horiz-adv-x="696" 
d="M153 186l-99 -186h-77l348 645l-18 43l3 12h169l160 -700h-159l-43 186h-284zM361 523l-9 37l-166 -312h237z" />
    <glyph glyph-name="B" unicode="B" horiz-adv-x="658" 
d="M32 0l111 700h260q231 0 231 -154q0 -138 -158 -180q138 -31 138 -156q0 -99 -77.5 -154.5t-226.5 -55.5h-278zM453 219q0 113 -114 113h-101l-42 -269h101q73 0 114.5 42.5t41.5 113.5zM473 535q0 102 -105 102h-81l-39 -242h82q68 0 105.5 38.5t37.5 101.5z" />
    <glyph glyph-name="C" unicode="C" horiz-adv-x="700" 
d="M456 658q-97 0 -163.5 -103t-66.5 -253q0 -114 44.5 -168t136.5 -54q34 0 69 7.5t60 18t45 20.5t30 18l10 7l20 -25q-4 -6 -11.5 -15t-34.5 -32.5t-58 -41.5t-82 -32.5t-106 -14.5q-138 0 -217.5 82.5t-79.5 223.5q0 176 117 295t297 119q114 0 177 -49t63 -129
q0 -26 -7 -47.5t-13 -30.5l-7 -8q-54 -12 -140 -12l-10 12q27 36 27 102q0 110 -100 110z" />
    <glyph glyph-name="D" unicode="D" horiz-adv-x="745" 
d="M32 0l111 700h283q137 0 217 -81t80 -219q0 -170 -117 -285t-291 -115h-283zM409 637h-122l-91 -574h122q102 0 168.5 99.5t66.5 254.5q0 109 -37 164.5t-107 55.5z" />
    <glyph glyph-name="E" unicode="E" horiz-adv-x="580" 
d="M32 0l111 700h454l-13 -81l-14 -12q-46 31 -154 31h-129l-39 -248h231l8 -9l-8 -54h-241l-41 -265h138q48 0 88.5 8t57.5 16l17 7l10 -12l-13 -81h-463z" />
    <glyph glyph-name="F" unicode="F" horiz-adv-x="555" 
d="M32 0l111 700h450l-13 -81l-13 -12q-47 31 -155 31h-125l-39 -248h230l8 -9l-9 -54h-239l-52 -327h-154z" />
    <glyph glyph-name="G" unicode="G" horiz-adv-x="705" 
d="M439 284l9 54h71q41 0 77.5 3t52.5 6l16 3l9 -12l-38 -241l-11.5 -11.5t-34 -26t-56 -32.5t-77.5 -25.5t-100 -11.5q-145 0 -225 82t-80 224q0 177 116.5 295.5t301.5 118.5q111 0 173.5 -44.5t62.5 -123.5q0 -26 -7 -47t-13 -29l-7 -8q-54 -12 -140 -12l-10 12
q27 33 27 99q0 101 -96 101q-102 0 -168.5 -103.5t-66.5 -256.5q0 -232 171 -232q47 0 98 17l12 79q9 56 7 113h-66z" />
    <glyph glyph-name="H" unicode="H" horiz-adv-x="751" 
d="M484 0l52 327h-298l-52 -327h-154l111 700h154l-49 -310h298l49 310h155l-111 -700h-155z" />
    <glyph glyph-name="I" unicode="I" horiz-adv-x="298" 
d="M32 0l111 700h154l-111 -700h-154z" />
    <glyph glyph-name="J" unicode="J" horiz-adv-x="496" 
d="M263 211l78 489h155l-77 -484q-37 -226 -267 -226q-56 0 -98 13.5t-56 26.5l-13 14q7 40 29 76.5t41 53.5l19 16h11q0 -6 1.5 -16t7 -35.5t13.5 -45t23.5 -35.5t35.5 -16q35 0 59 38.5t38 130.5z" />
    <glyph glyph-name="K" unicode="K" horiz-adv-x="667" 
d="M32 0l111 700h154l-48 -300h33l290 300h92l-269 -275l103 -226q24 -52 52.5 -98.5t45.5 -67.5l16 -21l-2 -12h-187l-160 337h-24l-53 -337h-154z" />
    <glyph glyph-name="L" unicode="L" horiz-adv-x="536" 
d="M32 0l111 700h154l-100 -638h111q48 0 89 8t58 16l17 7l10 -12l-13 -81h-437z" />
    <glyph glyph-name="M" unicode="M" horiz-adv-x="919" 
d="M671 0l27 571l-3 4l-256 -555h-102l-18 21l-88 533l-5 -4l-141 -570h-74l132 523q11 44 17 85.5t6 60.5l1 19l15 12h188l81 -490l227 490h185l-32 -700h-160z" />
    <glyph glyph-name="N" unicode="N" horiz-adv-x="702" 
d="M32 0l67 420q13 80 16.5 147t0.5 94l-2 27l14 12h53l372 -456l72 456h76l-111 -700h-45l-372 454l-72 -454h-69z" />
    <glyph glyph-name="O" unicode="O" horiz-adv-x="779" 
d="M52 295q0 176 117.5 295.5t289.5 119.5q140 0 219.5 -82t79.5 -223q0 -176 -117 -295.5t-290 -119.5q-139 0 -219 82.5t-80 222.5zM221 268q0 -226 137 -226q98 0 165 112t67 278q0 226 -139 226q-98 0 -164 -112t-66 -278z" />
    <glyph glyph-name="P" unicode="P" horiz-adv-x="633" 
d="M32 0l111 700h254q115 0 178.5 -47t63.5 -135q0 -104 -84.5 -166.5t-223.5 -62.5h-99l-46 -289h-154zM362 637h-75l-45 -286h75q73 0 116.5 45.5t43.5 121.5q0 119 -115 119z" />
    <glyph glyph-name="Q" unicode="Q" horiz-adv-x="779" 
d="M347 -15q-139 1 -217 84t-78 224q0 178 117 297.5t290 119.5q140 0 219.5 -82.5t79.5 -224.5q0 -139 -75 -246t-197 -150q14 -5 39 -16t40.5 -17t38.5 -11t46 -5q22 0 38.5 3.5t21.5 7.5l6 4l7 -8q-6 -36 -15.5 -68t-16.5 -46l-7 -14q-16 -10 -49 -10q-36 0 -69 16.5
t-58 39.5t-48.5 46t-52.5 39.5t-60 16.5zM221 264q0 -227 137 -227q99 0 165.5 113t66.5 280q0 228 -139 228q-99 0 -164.5 -113t-65.5 -281z" />
    <glyph glyph-name="R" unicode="R" horiz-adv-x="653" 
d="M32 0l111 700h246q116 0 180 -45t64 -130q0 -72 -44.5 -124.5t-124.5 -76.5l52 -147q17 -49 37.5 -91t32.5 -60l12 -18l-9 -8h-169l-106 306h-80l-48 -306h-154zM355 637h-68l-43 -269h68q72 0 115.5 42.5t43.5 113.5q0 113 -116 113z" />
    <glyph glyph-name="S" unicode="S" horiz-adv-x="604" 
d="M338 658q-46 0 -72.5 -25t-26.5 -63q0 -33 26 -61t116 -98q106 -84 138 -122.5t32 -93.5q0 -92 -71.5 -148.5t-217.5 -56.5q-53 0 -98.5 8t-72 19.5t-45.5 23t-26 19.5l-7 8q4 27 16 52.5t26 43t27.5 31.5t22.5 21l9 6h16q2 -7 5.5 -19.5t16.5 -43.5t29.5 -54.5t45 -43
t61.5 -19.5q49 0 82 27.5t33 67.5q0 20 -8.5 37.5t-33 39t-44 36t-65.5 45.5q-89 60 -123 102t-34 105q0 96 71.5 152t208.5 56q72 0 126 -15.5t73 -30.5l18 -16q-7 -43 -32 -82t-46 -56l-22 -18h-15q-1 7 -3.5 18t-13 39.5t-24.5 50.5t-40 40t-58 18z" />
    <glyph glyph-name="T" unicode="T" horiz-adv-x="661" 
d="M469 638l-101 -638h-155l101 638h-57q-48 0 -89 -8t-58 -16l-16 -7l-11 12l13 81h611l-13 -81l-14 -12q-45 31 -154 31h-57z" />
    <glyph glyph-name="U" unicode="U" horiz-adv-x="696" 
d="M558 253l71 447h69l-71 -445q-18 -120 -104 -192.5t-217 -72.5t-193.5 72.5t-43.5 192.5l71 445h155l-74 -469q-13 -80 24.5 -128t109.5 -48q77 0 132.5 53.5t70.5 144.5z" />
    <glyph glyph-name="V" unicode="V" horiz-adv-x="690" 
d="M252 21l-116 502q-12 50 -25 91.5t-21 57.5l-7 16l2 12h176l125 -547l284 547h77l-368 -700h-110z" />
    <glyph glyph-name="W" unicode="W" horiz-adv-x="1040" 
d="M632 21l-68 393l-197 -414h-113l-18 21l-103 502q-10 50 -22.5 91t-20.5 57l-7 16l2 13h175l110 -544l174 372q-9 48 -19.5 88t-16.5 56l-7 15l2 13h175l91 -536l253 536h76l-336 -700h-112z" />
    <glyph glyph-name="X" unicode="X" horiz-adv-x="683" 
d="M277 700l125 -257l216 257h91l-277 -318l89 -182q24 -51 50.5 -98t40.5 -68l15 -22l-2 -12h-185l-138 278l-239 -278h-83l292 339l-179 361h184z" />
    <glyph glyph-name="Y" unicode="Y" horiz-adv-x="658" 
d="M714 700l-289 -374l-51 -326h-155l50 316l-78 172q-25 55 -52 104.5t-42 71.5l-15 23l2 13h191l132 -290l223 290h84z" />
    <glyph glyph-name="Z" unicode="Z" horiz-adv-x="646" 
d="M7 29l463 609h-191q-48 0 -89 -8t-58 -16l-16 -7l-10 12l12 81h560l-4 -29l-462 -609h197q48 0 89 8t58 16l17 7l10 -12l-13 -81h-568z" />
    <glyph glyph-name="bracketleft" unicode="[" horiz-adv-x="323" 
d="M0 -150l143 900h240l-10 -63h-92l-123 -774h92l-10 -63h-240z" />
    <glyph glyph-name="backslash" unicode="\" horiz-adv-x="402" 
d="M327 -150h-66l-171 900h66z" />
    <glyph glyph-name="bracketright" unicode="]" horiz-adv-x="323" 
d="M338 750l-143 -900h-239l10 63h92l122 774h-92l11 63h239z" />
    <glyph glyph-name="asciicircum" unicode="^" horiz-adv-x="454" 
d="M461 483l-10 -9h-73l-96 120l-135 -120h-73l-7 9l213 217h37z" />
    <glyph glyph-name="underscore" unicode="_" horiz-adv-x="500" 
d="M0 -113v63h500v-63h-500z" />
    <glyph glyph-name="grave" unicode="`" horiz-adv-x="293" 
d="M291 564l-10 -8h-43l-116 149l2 8q38 22 120 22z" />
    <glyph glyph-name="a" unicode="a" horiz-adv-x="573" 
d="M536 435l-41 -258q-7 -44 -8.5 -85.5t0.5 -60.5l2 -19l-12 -12h-136q-1 5 -3 13.5t-4 36.5t4 53l7 41l-3 4l-8.5 -17t-25 -38t-40 -48t-53 -38t-65.5 -17q-60 0 -92.5 48t-32.5 126q0 140 96 231.5t252 91.5q57 0 97.5 -13t53.5 -26zM183 159q0 -82 36 -82q19 0 43.5 25
t46.5 62t33 58t18 35l-18 -109l19 110v1l23 151q-1 3 -3.5 7.5t-14 12t-28.5 7.5q-59 0 -107 -86.5t-48 -191.5zM361 259l-1 -2l1 1v1z" />
    <glyph glyph-name="b" unicode="b" horiz-adv-x="569" 
d="M28 42l70 435q9 61 16 126t9 100l2 35l12 12h136q-1 -110 -27 -273l-9 -56l-18 -88l4 -4l8.5 17t24.5 38t40 48t53.5 38t65.5 17q60 0 92.5 -48t32.5 -126q0 -140 -96 -231.5t-253 -91.5q-57 0 -97.5 13t-53.5 26zM381 319q0 81 -36 81q-25 0 -60.5 -45.5t-54.5 -82
t-26 -53.5v-1l-24 -151q1 -3 3.5 -7.5t14.5 -12t29 -7.5q58 0 106 86.5t48 192.5z" />
    <glyph glyph-name="c" unicode="c" horiz-adv-x="498" 
d="M434 111l19 -23q-3 -4 -8.5 -10.5t-25.5 -23.5t-43 -30t-61 -23.5t-79 -10.5q-100 0 -155 56.5t-55 156.5q0 122 79 203t215 81q81 0 126.5 -30.5t45.5 -83.5q0 -18 -5 -35t-11 -25l-5 -8q-43 -12 -119 -12l-9 12q19 33 19 76q0 58 -50 58q-54 0 -86.5 -74t-32.5 -161
q0 -72 26 -104.5t81 -32.5q34 0 67.5 11t50.5 22z" />
    <glyph glyph-name="d" unicode="d" horiz-adv-x="573" 
d="M543 477l-48 -300q-7 -44 -8.5 -85t0.5 -60l2 -20l-12 -12h-136q-1 5 -3 13.5t-4 36.5t4 53l7 41l-3 4l-8.5 -17t-25 -38t-40 -48t-53 -38t-65.5 -17q-60 0 -92.5 47.5t-32.5 125.5q0 139 96.5 231.5t231.5 92.5q23 0 43 -3q11 67 17.5 130.5t8.5 93.5l1 30l12 12h137
q-2 -109 -29 -273zM183 159q0 -82 36 -82q19 0 43.5 25t46.5 62t33 58t18 35l1 2l24 155q-13 23 -47 23q-59 0 -107 -86.5t-48 -191.5z" />
    <glyph glyph-name="e" unicode="e" horiz-adv-x="504" 
d="M433 111l19 -23q-3 -4 -8.5 -10.5t-26 -23.5t-43.5 -30t-61 -23.5t-79 -10.5q-99 0 -153 56.5t-54 152.5q0 127 87 207.5t218 80.5q81 0 119.5 -30.5t38.5 -75.5q0 -71 -84.5 -119t-211.5 -53v-3q0 -74 23.5 -106.5t79.5 -32.5q35 0 69 11t50 22zM317 439
q-44 0 -77.5 -51t-42.5 -130q71 7 117 39t46 89q0 53 -43 53z" />
    <glyph glyph-name="f" unicode="f" horiz-adv-x="371" 
d="M42 -26l71 449h-75l6 38l78 20l18 114q26 167 177 167q42 0 73.5 -14t41.5 -28l10 -13l-26 -23q-15 18 -47 18q-63 0 -79 -96l-21 -129h127l-9 -55h-126l-63 -398q-9 -57 -39 -107t-66.5 -81.5t-71.5 -54.5t-59 -33l-23 -10l-19 23q4 3 11 9.5t25.5 28t34 45t30.5 59
t21 71.5z" />
    <glyph glyph-name="g" unicode="g" horiz-adv-x="569" 
d="M536 435l-68 -435l-4 -21q-21 -109 -99.5 -174t-204.5 -65q-83 0 -133.5 29t-50.5 82q0 16 4.5 31.5t9.5 23.5l5 7q47 12 127 12l10 -12q-19 -31 -19 -68q0 -57 60 -57q50 0 88 52t55 139l4 21l16 103l9 41l-3 4l-8.5 -17t-25 -38t-40 -48t-53 -38t-65.5 -17
q-60 0 -92.5 48t-32.5 126q0 140 96 231.5t252 91.5q57 0 97.5 -13t53.5 -26zM384 410q-1 3 -3.5 7.5t-14 12t-28.5 7.5q-59 0 -107 -86.5t-48 -191.5q0 -82 36 -82q19 0 43.5 25t46.5 62t33 58t18 35l-18 -109l19 110v1zM361 258v1l-1 -2z" />
    <glyph glyph-name="h" unicode="h" horiz-adv-x="569" 
d="M319 0l56 350q8 50 -26 50q-29 0 -65.5 -45.5t-57.5 -90.5l-22 -46l-34 -218h-148l76 477q11 73 18 138t8 94l1 29l12 12h136q-1 -110 -27 -273l-9 -56l-18 -88l4 -4q3 6 8 17t24 38t41 48t57.5 38t74.5 17q117 0 94 -137l-55 -350h-148z" />
    <glyph glyph-name="i" unicode="i" horiz-adv-x="276" 
d="M105 623q0 44 29 72.5t73 28.5q34 0 54.5 -20t20.5 -54q0 -44 -29.5 -72.5t-73.5 -28.5q-34 0 -54 20.5t-20 53.5zM25 0l48 300l21 165l12 12h135q-4 -77 -20 -177l-48 -300h-148z" />
    <glyph glyph-name="j" unicode="j" horiz-adv-x="275" 
d="M104 623q0 44 29 72.5t73 28.5q35 0 55 -20t20 -54q0 -44 -29 -72.5t-73 -28.5q-35 0 -55 20.5t-20 53.5zM21 -26l52 326l21 165l12 12h135q-4 -77 -20 -177l-45 -276q-9 -57 -39 -107t-66 -81.5t-71 -54.5t-58 -33l-24 -10l-19 23q4 3 11 9.5t25.5 28t34 45t30.5 59
t21 71.5z" />
    <glyph glyph-name="k" unicode="k" horiz-adv-x="534" 
d="M363 477h129q6 -6 6 -21q0 -29 -33 -64.5t-118 -95.5l39 -99q16 -41 41.5 -86.5t42.5 -70.5l18 -24l-3 -16h-159l-116 243h-2l-38 -243h-148l76 477q11 71 18 136t8 95l1 30l12 12h136q-2 -115 -27 -273l-29 -182l14 2q130 76 130 143q0 9 -1.5 16.5t-3.5 9.5l-1 3z" />
    <glyph glyph-name="l" unicode="l" horiz-adv-x="272" 
d="M22 0l76 477q11 72 18 137.5t8 94.5l1 29l12 12h136q-1 -110 -27 -273l-76 -477h-148z" />
    <glyph glyph-name="m" unicode="m" horiz-adv-x="834" 
d="M305 0l56 348q8 51 -23 51q-9 0 -18.5 -5.5t-19.5 -15.5t-19 -22t-18 -27t-16.5 -28.5t-15 -28.5t-11.5 -24t-8 -19l-5 -10v-1l-34 -218h-148l48 300q7 44 8.5 85.5t-0.5 60.5l-2 19l12 12h136q1 -5 3 -13.5t4 -36.5t-4 -53l-7 -41l3 -4q3 6 7.5 17t22.5 38t38.5 48
t54 38t69.5 17q112 0 90 -137l-4 -20q9 21 21.5 40.5t36.5 49.5t59.5 48.5t76.5 18.5q111 0 90 -137l-56 -350h-147l55 348q9 51 -22 51q-25 0 -58 -44.5t-50 -80t-23 -51.5v-1l-34 -222h-148z" />
    <glyph glyph-name="n" unicode="n" horiz-adv-x="572" 
d="M323 0l56 350q8 50 -26 50q-29 0 -65.5 -46t-54.5 -80.5t-26 -54.5v-1l-34 -218h-148l48 300q7 44 8.5 85.5t-0.5 60.5l-2 19l12 12h136q1 -5 3 -13.5t4 -36.5t-4 -53l-7 -41l3 -4q3 6 8 17t24 38t41 48t57.5 38t74.5 17q116 0 95 -137l-55 -350h-148z" />
    <glyph glyph-name="o" unicode="o" horiz-adv-x="565" 
d="M27 203q0 121 84 202.5t206 81.5q101 0 159 -57t58 -155q0 -121 -84 -203t-207 -82q-101 0 -158.5 57.5t-57.5 155.5zM187 152q0 -54 17 -84t48 -30q33 0 62.5 49t44.5 115t15 124q0 53 -17 83t-48 30q-33 0 -62.5 -49t-44.5 -114.5t-15 -123.5z" />
    <glyph glyph-name="p" unicode="p" horiz-adv-x="573" 
d="M-14 -250l87 550q7 44 8.5 85.5t-0.5 60.5l-2 19l12 12h136q1 -5 3 -13.5t4 -36.5t-4 -53l-7 -41l3 -4l8.5 17t25 38t40 48t52.5 38t65 17q61 0 93.5 -47.5t32.5 -125.5q0 -139 -96.5 -231.5t-231.5 -92.5q-25 0 -44 3l-38 -243h-147zM385 319q0 81 -36 81
q-25 0 -61 -45.5t-55 -82t-26 -53.5v-1l-24 -151h1q1 -3 3.5 -7.5t14 -12t28.5 -7.5q59 0 107 86.5t48 192.5z" />
    <glyph glyph-name="q" unicode="q" horiz-adv-x="569" 
d="M184 159q0 -82 36 -82q25 0 60.5 46t53 79t27.5 55l1 2l23 151l152 25l-109 -685h-149l54 344l13 50l-4 4l-8.5 -17t-24.5 -38t-40 -48t-53.5 -38t-65.5 -17q-60 0 -92.5 48t-32.5 126q0 140 96 231.5t253 91.5q57 0 97.5 -13t52.5 -26l13 -13l-152 -25q-1 3 -3.5 7.5
t-14 12t-28.5 7.5q-59 0 -107 -86.5t-48 -191.5z" />
    <glyph glyph-name="r" unicode="r" horiz-adv-x="409" 
d="M414 487q3 -52 -9 -126l-13 -12q-15 11 -41 11q-34 0 -70 -37.5t-52 -66t-23 -45.5v-1l-33 -210h-148l48 300q7 44 8.5 85.5t-0.5 60.5l-2 19l12 12h136q1 -5 3 -13.5t4 -36.5t-4 -53l-8 -48l4 -4l4 9q5 9 14 23.5t21 32t28.5 35t34.5 32.5t40.5 24t45.5 9z" />
    <glyph glyph-name="s" unicode="s" horiz-adv-x="480" 
d="M188 378q0 -25 24 -43.5t91 -54.5q69 -38 98 -67t29 -76q0 -66 -58.5 -106.5t-174.5 -40.5q-88 0 -138 26t-50 78q0 15 4.5 29.5t8.5 21.5l5 7q46 13 121 13l11 -13q-18 -22 -18 -55q0 -59 67 -59q39 0 61.5 19.5t22.5 46.5q0 26 -26 45t-93 51q-31 15 -48 25t-36 27
t-27.5 38t-8.5 49q0 67 55 107.5t168 40.5q173 0 173 -102q0 -15 -4 -28.5t-8 -19.5l-4 -6q-45 -13 -120 -13l-10 13q14 18 14 52q0 56 -57 56q-34 0 -53 -18t-19 -43z" />
    <glyph glyph-name="t" unicode="t" horiz-adv-x="378" 
d="M37 422l7 38l90 38l52 117h102l-22 -138h124l-8 -55h-125l-45 -285q-11 -70 51 -70q16 0 29.5 4.5t19.5 8.5l6 5l19 -22q-2 -3 -7 -8t-20.5 -17.5t-33.5 -22t-46 -17.5t-58 -8q-63 0 -92 33.5t-19 94.5l49 304h-73z" />
    <glyph glyph-name="u" unicode="u" horiz-adv-x="575" 
d="M105 477h136q-4 -77 -20 -177l-27 -173q-8 -50 25 -50q28 0 64 45.5t53.5 79.5t26.5 55l1 2l32 206l12 12h138l-48 -300q-7 -44 -8.5 -85.5t0.5 -60.5l3 -19l-13 -12h-135q-2 5 -3.5 13.5t-4 36.5t3.5 53l7 41l-3 4q-3 -6 -8 -17t-24 -38t-41 -48t-57.5 -38t-73.5 -17
q-115 0 -94 137l27 173q7 44 12 85.5t6 60.5l1 19z" />
    <glyph glyph-name="v" unicode="v" horiz-adv-x="526" 
d="M401 477h100q6 -10 6 -38q0 -63 -49.5 -163.5t-179.5 -275.5h-104l-18 21l-57 279q-11 51 -24.5 93.5t-22.5 58.5l-8 17l8 8h155l73 -362q69 103 95.5 170.5t26.5 123.5q0 19 -2 34t-4 21l-3 5z" />
    <glyph glyph-name="w" unicode="w" horiz-adv-x="766" 
d="M434 21l-30 185q-44 -79 -129 -206h-96l-19 21l-61 279q-11 51 -26 93.5t-24 58.5l-9 17l9 8h154l77 -346q79 133 99 219q-8 36 -18 65.5t-16 41.5l-6 12l8 8h148l59 -348q110 172 108 280q0 19 -3 34t-5 21l-3 5l8 8h100q6 -10 7 -38q1 -63 -46.5 -163t-173.5 -276h-94z
" />
    <glyph glyph-name="x" unicode="x" horiz-adv-x="529" 
d="M122 0h-115q-4 7 -4 29q0 46 36 92.5t140 123.5l-26 55q-22 46 -46 87.5t-37 59.5l-13 18v12h174l81 -170q73 64 73 129q0 11 -1.5 19.5t-2.5 10.5l-1 3l8 8h115q4 -7 4 -28q0 -43 -33.5 -85t-133.5 -117l23 -47q27 -56 53.5 -103t39.5 -66l14 -19v-12h-175l-88 185
q-82 -73 -82 -145q0 -11 1 -18.5t2 -9.5l2 -3z" />
    <glyph glyph-name="y" unicode="y" horiz-adv-x="516" 
d="M-38 -260q-14 0 -29 4t-23 8l-8 3q0 38 10 70.5t20 46.5l9 13q26 -15 59 -15q72 0 176 106l-77 324q-12 52 -26 94t-21 58l-8 17l8 8h155l75 -370q120 181 120 305q0 17 -2 31t-4 20l-3 6l9 8h99q6 -13 6 -35q0 -58 -59 -176t-141 -234t-179.5 -204t-165.5 -88z" />
    <glyph glyph-name="z" unicode="z" horiz-adv-x="488" 
d="M-2 29l294 389h-57q-48 0 -88.5 -7.5t-57.5 -14.5l-17 -8l-11 12l13 77h415l-5 -29l-294 -389h65q48 0 88.5 7.5t57.5 15.5l17 7l10 -12l-12 -77h-423z" />
    <glyph glyph-name="braceleft" unicode="{" horiz-adv-x="339" 
d="M59 12l42 158q13 48 -6 73.5t-66 25.5l6 34l4 28q98 0 103 99l9 158q9 167 244 167l-9 -63q-82 0 -86 -83l-8 -158q-6 -112 -111 -151q91 -39 62 -151l-41 -158q-20 -83 59 -83l-10 -63q-113 0 -163 43.5t-29 123.5z" />
    <glyph glyph-name="bar" unicode="|" horiz-adv-x="217" 
d="M139 -150h-62v900h62v-900z" />
    <glyph glyph-name="braceright" unicode="}" horiz-adv-x="339" 
d="M215 170l-8 -158q-4 -80 -68 -123.5t-177 -43.5l10 63q80 0 86 83l8 158q6 112 111 151q-92 39 -63 151l42 158q21 83 -60 83l10 63q113 0 163 -41.5t29 -125.5l-41 -158q-26 -99 71 -99l-2 -9h1l-8 -53q-98 0 -104 -99z" />
    <glyph glyph-name="asciitilde" unicode="~" horiz-adv-x="481" 
d="M195 369q34 0 71 -31t63 -31q25 0 52.5 16t42.5 32l16 16l28 -34q-3 -4 -9 -11t-24.5 -25.5t-37.5 -32t-45.5 -25t-50.5 -11.5q-34 0 -72 30.5t-61 30.5t-51 -15.5t-45 -31.5l-17 -16l-28 34q3 4 9 11t25 25.5t38 32t45.5 25t50.5 11.5z" />
    <glyph glyph-name="exclamdown" unicode="&#xa1;" horiz-adv-x="256" 
d="M232 420q0 -39 -26 -64.5t-64 -25.5q-32 0 -50 17.5t-18 49.5q0 39 26 64.5t65 25.5q31 0 49 -17.5t18 -49.5zM184 254l-54 -477h-155l98 477h111z" />
    <glyph glyph-name="cent" unicode="&#xa2;" horiz-adv-x="501" 
d="M434 111l19 -23q-7 -9 -20 -23t-60 -40.5t-102 -32.5l-14 -92h-62l14 91q-87 7 -135 63.5t-48 148.5q0 114 70 193t191 89l15 92h62l-15 -91q68 -5 106.5 -35t38.5 -78q0 -18 -5 -35t-11 -25l-5 -8q-43 -12 -119 -12l-9 12q20 33 20 76q0 58 -52 58q-37 0 -65.5 -37.5
t-41.5 -90t-13 -107.5q0 -72 26 -104.5t81 -32.5q34 0 67.5 11t50.5 22z" />
    <glyph glyph-name="sterling" unicode="&#xa3;" horiz-adv-x="582" 
d="M92 490q0 104 73.5 162t199.5 58q110 0 165.5 -43.5t55.5 -118.5q0 -25 -6 -46t-12 -30l-5 -9q-54 -12 -139 -12l-10 12q26 34 26 101q0 94 -77 94q-53 0 -82.5 -45t-29.5 -127q0 -20 2 -40.5t4.5 -33t7 -32t5.5 -26.5h131l7 -8l-9 -54h-123q-1 -36 -15.5 -71.5
t-32.5 -59t-40 -44t-33 -29t-17 -11.5h203q48 0 88.5 7.5t57.5 15.5l17 7l11 -12l-15 -95h-489l7 43q5 5 14 13.5t31.5 34.5t39.5 52t31 62.5t14 69.5q0 3 -0.5 8.5t-0.5 8.5h-90l10 62h61q-2 3 -7 15.5l-7 17.5t-6.5 16t-6.5 19.5t-4.5 19.5t-3.5 23t-1 25z" />
    <glyph glyph-name="currency" unicode="&#xa4;" horiz-adv-x="599" 
d="M115 300q0 61 34 107l-90 89l44 45l90 -90q49 34 107 34q60 0 106 -34l90 90l45 -45l-90 -90q34 -49 34 -106q0 -58 -34 -107l90 -89l-45 -45l-90 89q-47 -33 -106 -33q-61 0 -107 34l-90 -90l-44 45l89 89q-33 47 -33 107zM177 300q0 -50 36 -86t87 -36q50 0 86 36
t36 86t-36 86t-86 36q-51 0 -87 -36t-36 -86z" />
    <glyph glyph-name="yen" unicode="&#xa5;" horiz-adv-x="658" 
d="M714 700l-289 -374l-3 -17h116l-10 -62h-115l-12 -76h115l-10 -63h-115l-17 -108h-155l17 108h-114l9 63h115l12 76h-114l10 62h114l1 7l-78 172q-25 55 -52 104.5t-42 71.5l-15 23l2 13h191l132 -290l223 290h84z" />
    <glyph glyph-name="brokenbar" unicode="&#xa6;" horiz-adv-x="217" 
d="M139 -150h-62v400h62v-400zM139 750v-400h-62v400h62z" />
    <glyph glyph-name="section" unicode="&#xa7;" horiz-adv-x="475" 
d="M223 601q0 -31 37.5 -57t82 -44t82 -53.5t37.5 -81.5q0 -42 -29.5 -76.5t-85.5 -51.5q78 -45 78 -108q0 -60 -60 -99.5t-174 -39.5q-86 0 -135.5 26t-49.5 78q0 16 4 30t8 20l5 7q47 12 122 12l10 -12q-17 -21 -17 -54q0 -59 66 -59q39 0 61.5 19.5t22.5 45.5t-24.5 45
t-59.5 33.5t-70.5 31t-60 46.5t-24.5 71q0 43 26 78.5t78 52.5q-65 38 -65 103q0 66 57 106t167 40q171 0 171 -102q0 -15 -3.5 -28.5t-7.5 -19.5l-4 -6q-46 -12 -121 -12l-10 12q14 18 14 52q0 56 -56 56q-33 0 -52.5 -18t-19.5 -43zM176 366q0 -29 24.5 -49t72.5 -43
q28 7 43.5 25t15.5 40q0 15 -7.5 27.5t-25 24t-30.5 18t-41 18.5q-24 -5 -38 -22.5t-14 -38.5z" />
    <glyph glyph-name="dieresis" unicode="&#xa8;" horiz-adv-x="439" 
d="M108 610q0 32 21.5 52.5t52.5 20.5q26 0 40.5 -14.5t14.5 -39.5q0 -32 -21 -53t-52 -21q-26 0 -41 14.5t-15 40.5zM318 610q0 32 21 52.5t53 20.5q26 0 40.5 -14.5t14.5 -39.5q0 -32 -21 -53t-52 -21q-26 0 -41 14.5t-15 40.5z" />
    <glyph glyph-name="copyright" unicode="&#xa9;" horiz-adv-x="833" 
d="M57 350q0 149 105.5 254.5t254.5 105.5t254.5 -105.5t105.5 -254.5t-105.5 -254.5t-254.5 -105.5t-254.5 105.5t-105.5 254.5zM119 350q0 -123 87 -210t211 -87q123 0 210 87t87 210t-87 210t-210 87q-124 0 -211 -87t-87 -210zM455 500q-42 0 -71.5 -50t-29.5 -123
q0 -54 20.5 -78.5t63.5 -24.5q27 0 53.5 8t39.5 16l13 9l12 -14q-2 -3 -6 -8t-18 -18t-30.5 -22.5t-43.5 -17.5t-57 -8q-71 0 -112.5 42t-41.5 113q0 88 60.5 147.5t153.5 59.5q60 0 93.5 -25t33.5 -66q0 -13 -4 -24t-8 -16l-3 -4q-33 -7 -87 -7l-6 7q15 19 15 54
q0 50 -40 50z" />
    <glyph glyph-name="ordfeminine" unicode="&#xaa;" horiz-adv-x="299" 
d="M333 680l-20 -130q-4 -22 -4.5 -43t0.5 -31l1 -9l-6 -7h-77q-1 2 -2 6.5t-2 17.5t1 23l2 16l-1 3q-4 -8 -11 -20t-31 -31.5t-49 -19.5q-31 0 -47.5 24.5t-16.5 63.5q0 70 49 116t130 46q29 0 50 -6.5t27 -12.5zM160 540q0 -36 14 -36q10 0 25.5 20t25.5 40l10 21l12 80
q-3 13 -19 13q-25 0 -46.5 -44t-21.5 -94z" />
    <glyph glyph-name="guillemotleft" unicode="&#xab;" horiz-adv-x="482" 
d="M279 471l8 -9l-9 -51l-129 -136l86 -136l-8 -51l-10 -9l-183 185l4 22zM472 471l8 -9l-8 -51l-130 -136l86 -136l-8 -51l-10 -9l-182 185l3 22z" />
    <glyph glyph-name="logicalnot" unicode="&#xac;" 
d="M99 344v62h395v-194h-63v132h-332z" />
    <glyph glyph-name="uni00AD" unicode="&#xad;" horiz-adv-x="334" 
d="M55 244v63h224v-63h-224z" />
    <glyph glyph-name="registered" unicode="&#xae;" horiz-adv-x="833" 
d="M57 350q0 149 105.5 254.5t254.5 105.5t254.5 -105.5t105.5 -254.5t-105.5 -254.5t-254.5 -105.5t-254.5 105.5t-105.5 254.5zM119 350q0 -123 87 -210t211 -87q123 0 210 87t87 210t-87 210t-210 87q-124 0 -211 -87t-87 -210zM258 175l55 350h135q62 0 96.5 -22.5
t34.5 -66.5q0 -34 -21.5 -59.5t-60.5 -38.5l25 -73q8 -24 18.5 -45.5t16.5 -30.5l6 -9l-4 -5h-104l-50 151h-28l-23 -151h-96zM426 488h-23l-20 -125h23q33 0 53 19.5t20 52.5q0 53 -53 53z" />
    <glyph glyph-name="macron" unicode="&#xaf;" horiz-adv-x="286" 
d="M64 586l10 62h264l-10 -62h-264z" />
    <glyph glyph-name="degree" unicode="&#xb0;" horiz-adv-x="306" 
d="M84 567q0 61 40.5 102t100.5 41q49 0 76.5 -28t27.5 -78q0 -61 -40.5 -102t-100.5 -41q-49 0 -76.5 28t-27.5 78zM151 576q0 -23 12.5 -36.5t34.5 -13.5q27 0 45.5 20t18.5 49q0 23 -12.5 36t-34.5 13q-27 0 -45.5 -19.5t-18.5 -48.5z" />
    <glyph glyph-name="plusminus" unicode="&#xb1;" 
d="M99 319v62h166v166h63v-166h166v-62h-166v-166h-63v166h-166zM99 39v62h395v-62h-395z" />
    <glyph glyph-name="twosuperior" unicode="&#xb2;" horiz-adv-x="304" 
d="M344 625q0 -38 -29 -76.5t-71 -65.5t-67.5 -41t-37.5 -19h85q24 0 45.5 4.5t30.5 8.5l9 5l5 -6l-13 -85h-270l7 43l2 1l-1 -1q208 144 208 242q0 40 -33 40q-22 0 -36 -19t-14 -53l3 -23l-9 -7q-23 0 -44 1.5t-30 3.5l-9 2q-3 6 -3 20q0 47 39 76.5t111 29.5q58 0 90 -21
t32 -60z" />
    <glyph glyph-name="threesuperior" unicode="&#xb3;" horiz-adv-x="320" 
d="M172 375q29 0 44.5 24t15.5 59q0 27 -10.5 39.5t-35.5 12.5h-21l-3 4l6 36h17q64 0 64 82q0 43 -30 43q-22 0 -36.5 -18t-14.5 -50l2 -21l-8 -7q-24 0 -45 1.5t-30 3.5l-9 2q-3 6 -3 19q0 45 39.5 73t112.5 28q119 0 119 -83q0 -71 -81 -92q67 -15 67 -75
q0 -53 -44 -82.5t-118 -29.5q-126 0 -126 83q0 12 3 22.5t6 14.5l3 4q34 7 87 7l6 -7q-15 -17 -15 -49q0 -44 38 -44z" />
    <glyph glyph-name="acute" unicode="&#xb4;" horiz-adv-x="293" 
d="M107 556l-7 8l101 171q36 0 64.5 -5.5t38.5 -11.5l11 -5l-1 -8l-164 -149h-43z" />
    <glyph glyph-name="paragraph" unicode="&#xb6;" horiz-adv-x="641" 
d="M224 -26l50 315q-92 0 -143 45t-51 131q0 106 72 170.5t187 64.5h112l-107 -676q-9 -57 -35.5 -107t-57.5 -81.5t-61 -54.5t-50 -33l-20 -10l-19 23q4 3 11 9.5t26 28t34 45t30.5 59t21.5 71.5zM417 0l111 700h112l-111 -700h-112z" />
    <glyph glyph-name="periodcentered" unicode="&#xb7;" horiz-adv-x="227" 
d="M41 288q0 39 26 65t65 26q32 0 50 -18t18 -49q0 -39 -26 -64.5t-65 -25.5q-32 0 -50 17.5t-18 48.5z" />
    <glyph glyph-name="cedilla" unicode="&#xb8;" horiz-adv-x="244" 
d="M32 -77l24 77h46l-17 -50q27 0 45 -17t18 -45q0 -36 -28 -60.5t-70 -24.5q-27 0 -46.5 10.5t-25.5 21.5l-6 11l22 19q11 -17 38 -17q20 0 32 10.5t12 26.5q0 29 -38 29z" />
    <glyph glyph-name="onesuperior" unicode="&#xb9;" horiz-adv-x="249" 
d="M120 350l44 278q-40 -18 -81 -18q-3 11 0 35l5 5q32 0 66.5 12.5t53.5 25.5l19 12h39l-55 -350h-91z" />
    <glyph glyph-name="ordmasculine" unicode="&#xba;" horiz-adv-x="296" 
d="M71 563q0 60 43.5 101t106.5 41q52 0 82 -29t30 -78q0 -61 -43 -102t-106 -41q-52 0 -82.5 29t-30.5 79zM162 533q0 -51 26 -51q22 0 37.5 49.5t15.5 96.5q0 51 -25 51q-22 0 -38 -50.5t-16 -95.5z" />
    <glyph glyph-name="guillemotright" unicode="&#xbb;" horiz-adv-x="482" 
d="M68 462l10 9l183 -185l-4 -22l-241 -185l-7 9l8 51l129 136l-86 136zM262 462l9 9l184 -185l-4 -22l-242 -185l-7 9l8 51l129 136l-86 136z" />
    <glyph glyph-name="onequarter" unicode="&#xbc;" horiz-adv-x="784" 
d="M231 -25h-72l432 750h72zM462 65l2 19l240 266h45l-40 -247h40l-6 -38h-40l-10 -65h-91l10 65h-150zM120 350l44 278q-40 -18 -81 -18q-3 11 0 35l5 5q32 0 66.5 12.5t53.5 25.5l19 12h39l-55 -350h-91zM528 103h90l20 122z" />
    <glyph glyph-name="onehalf" unicode="&#xbd;" horiz-adv-x="797" 
d="M787 275q0 -38 -29.5 -76.5t-71.5 -65.5t-67.5 -41t-37.5 -19h86q24 0 45.5 4.5t30.5 8.5l9 5l5 -6l-13 -85h-270l7 43l2 1l-1 -1q208 144 208 242q0 40 -33 40q-22 0 -36 -19t-14 -53l3 -23l-9 -7q-24 0 -45 1.5t-30 3.5l-9 2q-3 6 -3 20q0 47 39.5 76.5t111.5 29.5
q58 0 90 -21t32 -60zM231 -25h-72l432 750h72zM120 350l44 278q-40 -18 -81 -18q-3 11 0 35l5 5q32 0 66.5 12.5t53.5 25.5l19 12h39l-55 -350h-91z" />
    <glyph glyph-name="threequarters" unicode="&#xbe;" horiz-adv-x="855" 
d="M172 375q29 0 44.5 24t15.5 59q0 27 -10.5 39.5t-35.5 12.5h-21l-3 4l6 36h17q64 0 64 82q0 43 -30 43q-22 0 -36.5 -18t-14.5 -50l2 -21l-8 -7q-24 0 -45 1.5t-30 3.5l-9 2q-3 6 -3 19q0 45 39.5 73t112.5 28q119 0 119 -83q0 -71 -81 -92q67 -15 67 -75
q0 -53 -44 -82.5t-118 -29.5q-126 0 -126 83q0 12 3 22.5t6 14.5l3 4q34 7 87 7l6 -7q-15 -17 -15 -49q0 -44 38 -44zM302 -25h-72l432 750h72zM533 65l2 19l240 266h45l-40 -247h40l-6 -38h-40l-10 -65h-91l10 65h-150zM599 103h90l20 122z" />
    <glyph glyph-name="questiondown" unicode="&#xbf;" horiz-adv-x="549" 
d="M385 410q-5 -36 -30 -58t-60 -22q-31 0 -49 18t-18 49q0 39 25.5 64.5t65.5 25.5q35 0 53 -20.5t13 -56.5zM-18 -58q6 43 29.5 82t49.5 63t62 46t52.5 29t35.5 15l16 77h111l-17 -139q-7 -1 -19.5 -4.5t-44.5 -18.5t-56 -35t-44 -58.5t-20 -86.5q0 -93 74 -93
q47 0 78.5 38.5t31.5 105.5l-4 37l13 12q38 0 72 -3t49 -6l15 -3q5 -10 5 -34q0 -87 -71.5 -143t-198.5 -56q-114 0 -171.5 46.5t-47.5 128.5z" />
    <glyph glyph-name="Agrave" unicode="&#xc0;" horiz-adv-x="696" 
d="M153 186l-99 -186h-77l348 645l-18 43l3 12h169l160 -700h-159l-43 186h-284zM361 523l-9 37l-166 -312h237zM479 767l-10 -8h-43l-116 149l2 8q38 22 120 22z" />
    <glyph glyph-name="Aacute" unicode="&#xc1;" horiz-adv-x="696" 
d="M153 186l-99 -186h-77l348 645l-18 43l3 12h169l160 -700h-159l-43 186h-284zM361 523l-9 37l-166 -312h237zM371 759l-6 8l101 171q36 0 64 -5.5t38 -10.5l11 -6l-1 -8l-163 -149h-44z" />
    <glyph glyph-name="Acircumflex" unicode="&#xc2;" horiz-adv-x="696" 
d="M153 186l-99 -186h-77l348 645l-18 43l3 12h169l160 -700h-159l-43 186h-284zM361 523l-9 37l-166 -312h237zM578 767l-10 -8h-51l-83 84l-111 -84h-50l-7 8l164 171h37z" />
    <glyph glyph-name="Atilde" unicode="&#xc3;" horiz-adv-x="696" 
d="M153 186l-99 -186h-77l348 645l-18 43l3 12h169l160 -700h-159l-43 186h-284zM361 523l-9 37l-166 -312h237zM396 872q25 0 50 -18.5t46 -18.5q20 0 40 10t30 20l10 10l18 -23q-2 -4 -6 -10t-16.5 -22t-26.5 -28t-35 -22t-43 -10q-25 0 -50 18.5t-45 18.5t-40 -10
t-30 -20l-10 -10l-20 23q2 4 6 10t16.5 22t26.5 28t35.5 22t43.5 10z" />
    <glyph glyph-name="Adieresis" unicode="&#xc4;" horiz-adv-x="696" 
d="M153 186l-99 -186h-77l348 645l-18 43l3 12h169l160 -700h-159l-43 186h-284zM361 523l-9 37l-166 -312h237zM261 813q0 32 21.5 52.5t52.5 20.5q26 0 41 -14.5t15 -40.5q0 -31 -21.5 -52t-52.5 -21q-26 0 -41 14.5t-15 40.5zM471 813q0 32 21.5 52.5t52.5 20.5
q55 0 55 -55q0 -31 -21 -52t-52 -21q-26 0 -41 14.5t-15 40.5z" />
    <glyph glyph-name="Aring" unicode="&#xc5;" horiz-adv-x="696" 
d="M153 186l-99 -186h-77l348 645l-18 43l3 12h169l160 -700h-159l-43 186h-284zM361 523l-9 37l-166 -312h237zM343 828q0 46 30.5 76t74.5 30q36 0 56.5 -21t20.5 -57q0 -45 -30 -75.5t-75 -30.5q-36 0 -56.5 21t-20.5 57zM400 836q0 -31 29 -31q16 0 28 12.5t12 29.5
q0 31 -29 31q-18 0 -29 -12t-11 -30z" />
    <glyph glyph-name="AE" unicode="&#xc6;" horiz-adv-x="830" 
d="M-23 0l411 700h459l-14 -81l-13 -12q-46 31 -154 31h-117l-39 -248h219l8 -9l-9 -54h-228l-41 -265h125q48 0 89 8t58 16l17 7l10 -12l-13 -81h-451l32 204h-154l-118 -204h-77zM208 266h127l48 302z" />
    <glyph glyph-name="Ccedilla" unicode="&#xc7;" horiz-adv-x="700" 
d="M299 -77l21 68q-126 9 -197 90t-71 215q0 176 117 295t297 119q114 0 177 -49t63 -129q0 -26 -7 -47.5t-13 -30.5l-7 -8q-54 -12 -140 -12l-10 12q27 36 27 102q0 110 -100 110q-97 0 -163.5 -103t-66.5 -253q0 -114 44.5 -168t136.5 -54q34 0 69 7.5t60 18t45 20.5
t30 18l10 7l20 -25q-4 -5 -11 -14t-32.5 -31t-55 -39.5t-77 -33t-99.5 -17.5l-13 -41q26 0 44 -17t18 -45q0 -36 -28 -60.5t-70 -24.5q-27 0 -46.5 10.5t-25.5 21.5l-6 11l22 19q11 -17 38 -17q20 0 32 10.5t12 26.5q0 29 -38 29z" />
    <glyph glyph-name="Egrave" unicode="&#xc8;" horiz-adv-x="580" 
d="M32 0l111 700h454l-13 -81l-14 -12q-46 31 -154 31h-129l-39 -248h231l8 -9l-8 -54h-241l-41 -265h138q48 0 88.5 8t57.5 16l17 7l10 -12l-13 -81h-463zM450 767l-9 -8h-44l-116 149l2 8q39 22 120 22z" />
    <glyph glyph-name="Eacute" unicode="&#xc9;" horiz-adv-x="580" 
d="M32 0l111 700h454l-13 -81l-14 -12q-46 31 -154 31h-129l-39 -248h231l8 -9l-8 -54h-241l-41 -265h138q48 0 88.5 8t57.5 16l17 7l10 -12l-13 -81h-463zM324 759l-7 8l101 171q36 0 64 -5.5t38 -10.5l11 -6l-1 -8l-163 -149h-43z" />
    <glyph glyph-name="Ecircumflex" unicode="&#xca;" horiz-adv-x="580" 
d="M32 0l111 700h454l-13 -81l-14 -12q-46 31 -154 31h-129l-39 -248h231l8 -9l-8 -54h-241l-41 -265h138q48 0 88.5 8t57.5 16l17 7l10 -12l-13 -81h-463zM540 767l-11 -8h-50l-84 84l-110 -84h-51l-6 8l164 171h37z" />
    <glyph glyph-name="Edieresis" unicode="&#xcb;" horiz-adv-x="580" 
d="M32 0l111 700h454l-13 -81l-14 -12q-46 31 -154 31h-129l-39 -248h231l8 -9l-8 -54h-241l-41 -265h138q48 0 88.5 8t57.5 16l17 7l10 -12l-13 -81h-463zM432 810q0 32 21 52.5t53 20.5q26 0 40.5 -14.5t14.5 -39.5q0 -32 -21 -53t-53 -21q-26 0 -40.5 14.5t-14.5 40.5z
M222 810q0 32 21 52.5t53 20.5q26 0 40.5 -14.5t14.5 -39.5q0 -32 -21 -53t-53 -21q-26 0 -40.5 14.5t-14.5 40.5z" />
    <glyph glyph-name="Igrave" unicode="&#xcc;" horiz-adv-x="298" 
d="M32 0l111 700h154l-111 -700h-154zM287 767l-9 -8h-44l-115 149l1 8q39 22 120 22z" />
    <glyph glyph-name="Iacute" unicode="&#xcd;" horiz-adv-x="298" 
d="M32 0l111 700h154l-111 -700h-154zM180 759l-7 8l101 171q36 0 64.5 -5.5t39.5 -10.5l10 -6l-1 -8l-164 -149h-43z" />
    <glyph glyph-name="Icircumflex" unicode="&#xce;" horiz-adv-x="298" 
d="M32 0l111 700h154l-111 -700h-154zM386 767l-10 -8h-51l-83 84l-110 -84h-51l-7 8l165 171h37z" />
    <glyph glyph-name="Idieresis" unicode="&#xcf;" horiz-adv-x="298" 
d="M32 0l111 700h154l-111 -700h-154zM70 813q0 32 21.5 52.5t52.5 20.5q55 0 55 -55q0 -31 -21 -52t-52 -21q-26 0 -41 14.5t-15 40.5zM280 813q0 32 21.5 52.5t52.5 20.5q55 0 55 -55q0 -31 -21 -52t-52 -21q-26 0 -41 14.5t-15 40.5z" />
    <glyph glyph-name="Eth" unicode="&#xd0;" horiz-adv-x="745" 
d="M27 325l11 63h55l50 312h283q137 0 217 -81t80 -219q0 -170 -117 -285t-291 -115h-283l51 325h-56zM409 637h-122l-40 -249h132l-10 -63h-132l-41 -262h122q102 0 168.5 99.5t66.5 253.5q0 110 -37 165.5t-107 55.5z" />
    <glyph glyph-name="Ntilde" unicode="&#xd1;" horiz-adv-x="702" 
d="M32 0l67 420q13 80 16.5 147t0.5 94l-2 27l14 12h53l372 -456l72 456h76l-111 -700h-45l-372 454l-72 -454h-69zM406 872q25 0 50.5 -18.5t45.5 -18.5t40 10t30 20l10 10l19 -23q-2 -4 -6 -10t-16.5 -22t-26.5 -28t-35.5 -22t-43.5 -10q-25 0 -49.5 18.5t-45.5 18.5
q-20 0 -40 -10t-30 -20l-10 -10l-19 23q2 4 6 10t16.5 22t26.5 28t35 22t43 10z" />
    <glyph glyph-name="Ograve" unicode="&#xd2;" horiz-adv-x="780" 
d="M52 295q0 176 117.5 295.5t289.5 119.5q140 0 219.5 -82t79.5 -223q0 -176 -117 -295.5t-290 -119.5q-139 0 -219 82.5t-80 222.5zM221 268q0 -226 137 -226q98 0 165 112t67 278q0 226 -139 226q-98 0 -164 -112t-66 -278zM528 767l-9 -8h-44l-116 149l2 8q39 22 120 22
z" />
    <glyph glyph-name="Oacute" unicode="&#xd3;" horiz-adv-x="780" 
d="M52 295q0 176 117.5 295.5t289.5 119.5q140 0 219.5 -82t79.5 -223q0 -176 -117 -295.5t-290 -119.5q-139 0 -219 82.5t-80 222.5zM221 268q0 -226 137 -226q98 0 165 112t67 278q0 226 -139 226q-98 0 -164 -112t-66 -278zM421 759l-7 8l101 171q36 0 64.5 -5.5
t38.5 -10.5l10 -6l-1 -8l-163 -149h-43z" />
    <glyph glyph-name="Ocircumflex" unicode="&#xd4;" horiz-adv-x="780" 
d="M52 295q0 176 117.5 295.5t289.5 119.5q140 0 219.5 -82t79.5 -223q0 -176 -117 -295.5t-290 -119.5q-139 0 -219 82.5t-80 222.5zM221 268q0 -226 137 -226q98 0 165 112t67 278q0 226 -139 226q-98 0 -164 -112t-66 -278zM627 767l-10 -8h-51l-83 84l-110 -84h-51l-7 8
l165 171h37z" />
    <glyph glyph-name="Otilde" unicode="&#xd5;" horiz-adv-x="780" 
d="M52 295q0 176 117.5 295.5t289.5 119.5q140 0 219.5 -82t79.5 -223q0 -176 -117 -295.5t-290 -119.5q-139 0 -219 82.5t-80 222.5zM221 268q0 -226 137 -226q98 0 165 112t67 278q0 226 -139 226q-98 0 -164 -112t-66 -278zM445 872q25 0 50 -18.5t46 -18.5q20 0 40 10
t30 20l10 10l18 -23q-2 -4 -6 -10t-16.5 -22t-26.5 -28t-35 -22t-43 -10q-25 0 -50 18.5t-45 18.5t-40 -10t-30 -20l-10 -10l-19 23q2 4 6 10t16.5 22t26.5 28t35 22t43 10z" />
    <glyph glyph-name="Odieresis" unicode="&#xd6;" horiz-adv-x="780" 
d="M52 295q0 176 117.5 295.5t289.5 119.5q140 0 219.5 -82t79.5 -223q0 -176 -117 -295.5t-290 -119.5q-139 0 -219 82.5t-80 222.5zM221 268q0 -226 137 -226q98 0 165 112t67 278q0 226 -139 226q-98 0 -164 -112t-66 -278zM310 813q0 32 21 52.5t53 20.5
q26 0 40.5 -14.5t14.5 -40.5q0 -31 -21 -52t-53 -21q-25 0 -40 15t-15 40zM520 813q0 32 21 52.5t53 20.5q26 0 40.5 -14.5t14.5 -40.5q0 -31 -21 -52t-53 -21q-26 0 -40.5 14.5t-14.5 40.5z" />
    <glyph glyph-name="multiply" unicode="&#xd7;" 
d="M140 124l-44 45l156 156l-156 156l44 45l156 -157l157 157l44 -45l-156 -156l156 -156l-44 -45l-157 156z" />
    <glyph glyph-name="Oslash" unicode="&#xd8;" horiz-adv-x="779" 
d="M174 -25h-72l54 75q-104 82 -104 245q0 176 117.5 295.5t289.5 119.5q80 0 146 -30l32 45h71l-54 -76q104 -81 104 -244q0 -176 -117 -295.5t-290 -119.5q-82 0 -145 29zM218 270q0 -69 13 -115l321 451q-37 52 -101 52q-99 0 -166 -111t-67 -277zM592 430q0 68 -13 114
l-321 -451q36 -51 100 -51q99 0 166.5 111.5t67.5 276.5z" />
    <glyph glyph-name="Ugrave" unicode="&#xd9;" horiz-adv-x="696" 
d="M558 253l71 447h69l-71 -445q-18 -120 -104 -192.5t-217 -72.5t-193.5 72.5t-43.5 192.5l71 445h155l-74 -469q-13 -80 24.5 -128t109.5 -48q77 0 132.5 53.5t70.5 144.5zM493 767l-9 -8h-43l-116 149l1 8q39 22 120 22z" />
    <glyph glyph-name="Uacute" unicode="&#xda;" horiz-adv-x="696" 
d="M558 253l71 447h69l-71 -445q-18 -120 -104 -192.5t-217 -72.5t-193.5 72.5t-43.5 192.5l71 445h155l-74 -469q-13 -80 24.5 -128t109.5 -48q77 0 132.5 53.5t70.5 144.5zM386 759l-6 8l101 171q36 0 64.5 -5.5t38.5 -10.5l10 -6l-1 -8l-163 -149h-44z" />
    <glyph glyph-name="Ucircumflex" unicode="&#xdb;" horiz-adv-x="696" 
d="M558 253l71 447h69l-71 -445q-18 -120 -104 -192.5t-217 -72.5t-193.5 72.5t-43.5 192.5l71 445h155l-74 -469q-13 -80 24.5 -128t109.5 -48q77 0 132.5 53.5t70.5 144.5zM593 767l-11 -8h-50l-84 84l-110 -84h-51l-6 8l164 171h37z" />
    <glyph glyph-name="Udieresis" unicode="&#xdc;" horiz-adv-x="696" 
d="M558 253l71 447h69l-71 -445q-18 -120 -104 -192.5t-217 -72.5t-193.5 72.5t-43.5 192.5l71 445h155l-74 -469q-13 -80 24.5 -128t109.5 -48q77 0 132.5 53.5t70.5 144.5zM275 813q0 32 21.5 52.5t52.5 20.5q26 0 41 -14.5t15 -40.5q0 -31 -21 -52t-53 -21
q-26 0 -41 14.5t-15 40.5zM485 813q0 32 21.5 52.5t52.5 20.5q26 0 41 -14.5t15 -40.5q0 -31 -21 -52t-53 -21q-26 0 -41 14.5t-15 40.5z" />
    <glyph glyph-name="Yacute" unicode="&#xdd;" horiz-adv-x="658" 
d="M714 700l-289 -374l-51 -326h-155l50 316l-78 172q-25 55 -52 104.5t-42 71.5l-15 23l2 13h191l132 -290l223 290h84zM358 759l-7 8l101 171q36 0 64 -5.5t38 -10.5l11 -6l-1 -8l-163 -149h-43z" />
    <glyph glyph-name="Thorn" unicode="&#xde;" horiz-adv-x="633" 
d="M32 0l111 700h154l-21 -134h98q115 0 179 -47t64 -135q0 -105 -84.5 -167.5t-223.5 -62.5h-99l-24 -154h-154zM340 503h-74l-46 -286h74q73 0 117 45t44 121q0 120 -115 120z" />
    <glyph glyph-name="germandbls" unicode="&#xdf;" horiz-adv-x="625" 
d="M18 -26l91 573q16 106 80 160.5t187 54.5q188 0 188 -139q0 -33 -9.5 -63.5t-22.5 -50t-26 -34t-22 -21.5l-10 -6q-33 0 -51.5 -19t-18.5 -47q0 -7 1.5 -13.5t3.5 -11.5t7 -11.5t8.5 -10t12.5 -11t14 -11.5t18 -14t20 -15q52 -40 72 -67.5t20 -69.5q0 -74 -51.5 -115.5
t-148.5 -41.5q-56 0 -95.5 15t-51.5 29l-11 15q4 28 18 52t26 34l12 10h12q2 -4 4.5 -11t12.5 -24t20.5 -30t27.5 -24t34 -11q28 0 44.5 15.5t16.5 41.5q0 25 -34 52q-12 9 -49 34l-9 7q-40 25 -61.5 54.5t-21.5 77.5q0 33 10 61.5t25 46t29.5 30t24.5 17.5l10 5
q3 0 14.5 12.5t25.5 44.5t14 73q0 85 -66 85q-82 0 -105 -143l-84 -535q-9 -57 -39 -107t-66.5 -81.5t-71.5 -54.5t-59 -33l-23 -10l-19 23q4 3 11 9.5t25.5 28t34 45t30.5 59t21 71.5z" />
    <glyph glyph-name="agrave" unicode="&#xe0;" horiz-adv-x="573" 
d="M536 435l-41 -258q-7 -44 -8.5 -85.5t0.5 -60.5l2 -19l-12 -12h-136q-1 5 -3 13.5t-4 36.5t4 53l7 41l-3 4l-8.5 -17t-25 -38t-40 -48t-53 -38t-65.5 -17q-60 0 -92.5 48t-32.5 126q0 140 96 231.5t252 91.5q57 0 97.5 -13t53.5 -26zM183 159q0 -82 36 -82q19 0 43.5 25
t46.5 62t33 58t18 35l1 2l23 151q-1 3 -3.5 7.5t-14 12t-28.5 7.5q-59 0 -107 -86.5t-48 -191.5zM410 564l-9 -8h-44l-116 149l2 8q39 22 120 22z" />
    <glyph glyph-name="aacute" unicode="&#xe1;" horiz-adv-x="573" 
d="M536 435l-41 -258q-7 -44 -8.5 -85.5t0.5 -60.5l2 -19l-12 -12h-136q-1 5 -3 13.5t-4 36.5t4 53l7 41l-3 4l-8.5 -17t-25 -38t-40 -48t-53 -38t-65.5 -17q-60 0 -92.5 48t-32.5 126q0 140 96 231.5t252 91.5q57 0 97.5 -13t53.5 -26zM183 159q0 -82 36 -82q19 0 43.5 25
t46.5 62t33 58t18 35l-18 -109l19 110v1l23 151q-1 3 -3.5 7.5t-14 12t-28.5 7.5q-59 0 -107 -86.5t-48 -191.5zM286 556l-7 8l101 171q36 0 64 -5.5t38 -11.5l11 -5l-1 -8l-163 -149h-43zM361 258v1l-1 -2z" />
    <glyph glyph-name="acircumflex" unicode="&#xe2;" horiz-adv-x="573" 
d="M536 435l-41 -258q-7 -44 -8.5 -85.5t0.5 -60.5l2 -19l-12 -12h-136q-1 5 -3 13.5t-4 36.5t4 53l7 41l-3 4l-8.5 -17t-25 -38t-40 -48t-53 -38t-65.5 -17q-60 0 -92.5 48t-32.5 126q0 140 96 231.5t252 91.5q57 0 97.5 -13t53.5 -26zM183 159q0 -82 36 -82q19 0 43.5 25
t46.5 62t33 58t18 35l-18 -109l19 110v1l23 151q-1 3 -3.5 7.5t-14 12t-28.5 7.5q-59 0 -107 -86.5t-48 -191.5zM513 564l-11 -8h-50l-84 84l-110 -84h-51l-6 8l164 171h37zM361 258v1l-1 -2z" />
    <glyph glyph-name="atilde" unicode="&#xe3;" horiz-adv-x="573" 
d="M536 435l-41 -258q-7 -44 -8.5 -85.5t0.5 -60.5l2 -19l-12 -12h-136q-1 5 -3 13.5t-4 36.5t4 53l7 41l-3 4l-8.5 -17t-25 -38t-40 -48t-53 -38t-65.5 -17q-60 0 -92.5 48t-32.5 126q0 140 96 231.5t252 91.5q57 0 97.5 -13t53.5 -26zM183 159q0 -82 36 -82q19 0 43.5 25
t46.5 62t33 58t18 35l-18 -109l19 110v1l23 151q-1 3 -3.5 7.5t-14 12t-28.5 7.5q-59 0 -107 -86.5t-48 -191.5zM323 669q25 0 50 -18t46 -18q20 0 40 9.5t30 19.5l10 10l18 -23q-2 -4 -6 -10t-16.5 -22t-26.5 -28t-35 -22t-43 -10q-25 0 -50 18.5t-45 18.5t-40 -10t-31 -20
l-10 -10l-19 23q2 4 6 10t16.5 22t26.5 28t35.5 22t43.5 10zM361 259l-1 -2l1 1v1z" />
    <glyph glyph-name="adieresis" unicode="&#xe4;" horiz-adv-x="573" 
d="M536 435l-41 -258q-7 -44 -8.5 -85.5t0.5 -60.5l2 -19l-12 -12h-136q-1 5 -3 13.5t-4 36.5t4 53l7 41l-3 4l-8.5 -17t-25 -38t-40 -48t-53 -38t-65.5 -17q-60 0 -92.5 48t-32.5 126q0 140 96 231.5t252 91.5q57 0 97.5 -13t53.5 -26zM183 159q0 -82 36 -82q51 0 141 180
l-18 -109l19 110v1l23 151q-1 3 -3.5 7.5t-14 12t-28.5 7.5q-59 0 -107 -86.5t-48 -191.5zM187 610q0 32 21 52.5t53 20.5q26 0 40.5 -14.5t14.5 -39.5q0 -32 -21 -53t-52 -21q-26 0 -41 14.5t-15 40.5zM397 610q0 32 21 52.5t53 20.5q26 0 40.5 -14.5t14.5 -39.5
q0 -32 -21 -53t-53 -21q-26 0 -40.5 14.5t-14.5 40.5zM361 258v1l-1 -2z" />
    <glyph glyph-name="aring" unicode="&#xe5;" horiz-adv-x="573" 
d="M536 435l-41 -258q-7 -44 -8.5 -85.5t0.5 -60.5l2 -19l-12 -12h-136q-1 5 -3 13.5t-4 36.5t4 53l7 41l-3 4l-8.5 -17t-25 -38t-40 -48t-53 -38t-65.5 -17q-60 0 -92.5 48t-32.5 126q0 140 96 231.5t252 91.5q57 0 97.5 -13t53.5 -26zM183 159q0 -82 36 -82q19 0 43.5 25
t46.5 62t33 58t18 35l1 2l23 151q-1 3 -3.5 7.5t-14 12t-28.5 7.5q-59 0 -107 -86.5t-48 -191.5zM265 625q0 45 30.5 75.5t74.5 30.5q36 0 56.5 -21t20.5 -57q0 -45 -30 -75.5t-75 -30.5q-36 0 -56.5 21t-20.5 57zM322 633q0 -31 29 -31q16 0 28 12.5t12 29.5q0 31 -29 31
q-18 0 -29 -12t-11 -30z" />
    <glyph glyph-name="ae" unicode="&#xe6;" horiz-adv-x="792" 
d="M729 111l19 -23q-3 -4 -8.5 -10.5t-25.5 -23.5t-43 -30t-61.5 -23.5t-79.5 -10.5q-125 0 -181 84q-17 -16 -40.5 -32.5t-71.5 -34t-98 -17.5q-126 0 -126 105q0 59 49 100t179 60l80 11l3 13l15 94q11 66 -49 66q-37 0 -59.5 -25.5t-22.5 -70.5l3 -31l-14 -12
q-33 0 -62.5 3t-42.5 6l-12 3q-6 12 -6 32q0 65 61 104t161 39q110 0 144 -51q80 51 180 51q80 0 118.5 -30.5t38.5 -75.5q0 -71 -84.5 -118.5t-211.5 -53.5q0 -75 27 -108.5t85 -33.5q36 0 70 11t50 22zM604 439q-44 0 -78 -51.5t-43 -129.5q71 6 117.5 38.5t46.5 89.5
q0 53 -43 53zM171 124q0 -54 53 -54q50 0 104 47q-14 39 -14 85v12l-65 -9q-78 -13 -78 -81z" />
    <glyph glyph-name="ccedilla" unicode="&#xe7;" horiz-adv-x="498" 
d="M188 -77l21 68q-88 7 -135.5 63t-47.5 149q0 122 79 203t215 81q81 0 126.5 -30.5t45.5 -83.5q0 -18 -5 -35t-11 -25l-5 -8q-43 -12 -119 -12l-9 12q19 33 19 76q0 58 -50 58q-54 0 -86.5 -74t-32.5 -161q0 -72 26 -104.5t81 -32.5q34 0 67.5 11t50.5 22l16 11l19 -23
q-3 -4 -8 -10t-23 -21.5t-39 -28t-55.5 -24t-72.5 -13.5l-13 -41q26 0 44 -17t18 -45q0 -36 -28 -60.5t-70 -24.5q-17 0 -31 4.5t-22.5 10.5t-14.5 12.5t-8 11.5l-2 4l22 19q11 -17 38 -17q20 0 32 10.5t12 26.5q0 29 -38 29z" />
    <glyph glyph-name="egrave" unicode="&#xe8;" horiz-adv-x="504" 
d="M433 111l19 -23q-3 -4 -8.5 -10.5t-26 -23.5t-43.5 -30t-61 -23.5t-79 -10.5q-99 0 -153 56.5t-54 152.5q0 127 87 207.5t218 80.5q81 0 119.5 -30.5t38.5 -75.5q0 -71 -84.5 -119t-211.5 -53v-3q0 -74 23.5 -106.5t79.5 -32.5q35 0 69 11t50 22zM317 439
q-44 0 -77.5 -51t-42.5 -130q71 7 117 39t46 89q0 53 -43 53zM376 564l-9 -8h-44l-115 149l1 8q39 22 120 22z" />
    <glyph glyph-name="eacute" unicode="&#xe9;" horiz-adv-x="504" 
d="M433 111l19 -23q-3 -4 -8.5 -10.5t-26 -23.5t-43.5 -30t-61 -23.5t-79 -10.5q-99 0 -153 56.5t-54 152.5q0 127 87 207.5t218 80.5q81 0 119.5 -30.5t38.5 -75.5q0 -71 -84.5 -119t-211.5 -53v-3q0 -74 23.5 -106.5t79.5 -32.5q35 0 69 11t50 22zM317 439
q-44 0 -77.5 -51t-42.5 -130q71 7 117 39t46 89q0 53 -43 53zM252 556l-7 8l101 171q36 0 64 -5.5t38 -11.5l11 -5l-1 -8l-163 -149h-43z" />
    <glyph glyph-name="ecircumflex" unicode="&#xea;" horiz-adv-x="504" 
d="M433 111l19 -23q-3 -4 -8.5 -10.5t-26 -23.5t-43.5 -30t-61 -23.5t-79 -10.5q-99 0 -153 56.5t-54 152.5q0 127 87 207.5t218 80.5q81 0 119.5 -30.5t38.5 -75.5q0 -71 -84.5 -119t-211.5 -53v-3q0 -74 23.5 -106.5t79.5 -32.5q35 0 69 11t50 22zM478 564l-10 -8h-51
l-83 84l-110 -84h-51l-7 8l165 171h36zM317 439q-44 0 -77.5 -51t-42.5 -130q71 7 117 39t46 89q0 53 -43 53z" />
    <glyph glyph-name="edieresis" unicode="&#xeb;" horiz-adv-x="504" 
d="M433 111l19 -23q-3 -4 -8.5 -10.5t-26 -23.5t-43.5 -30t-61 -23.5t-79 -10.5q-99 0 -153 56.5t-54 152.5q0 127 87 207.5t218 80.5q81 0 119.5 -30.5t38.5 -75.5q0 -71 -84.5 -119t-211.5 -53v-3q0 -74 23.5 -106.5t79.5 -32.5q35 0 69 11t50 22zM317 439
q-44 0 -77.5 -51t-42.5 -130q71 7 117 39t46 89q0 53 -43 53zM152 610q0 32 21.5 52.5t53.5 20.5q26 0 40.5 -14.5t14.5 -39.5q0 -32 -21 -53t-53 -21q-26 0 -41 14.5t-15 40.5zM362 610q0 32 21.5 52.5t53.5 20.5q26 0 40.5 -14.5t14.5 -39.5q0 -32 -21 -53t-53 -21
q-26 0 -41 14.5t-15 40.5z" />
    <glyph glyph-name="igrave" unicode="&#xec;" horiz-adv-x="276" 
d="M244 564l-9 -8h-44l-116 149l2 8q39 22 120 22zM25 0l48 300l21 165l12 12h135q-4 -77 -20 -177l-48 -300h-148z" />
    <glyph glyph-name="iacute" unicode="&#xed;" horiz-adv-x="276" 
d="M116 556l-7 8l102 171q36 0 64.5 -5.5t38.5 -11.5l10 -5l-1 -8l-164 -149h-43zM25 0l48 300l21 165l12 12h135q-4 -77 -20 -177l-48 -300h-148z" />
    <glyph glyph-name="icircumflex" unicode="&#xee;" horiz-adv-x="276" 
d="M25 0l48 300l21 165l12 12h135q-4 -77 -20 -177l-48 -300h-148zM343 564l-11 -8h-50l-84 84l-110 -84h-50l-7 8l164 171h37z" />
    <glyph glyph-name="idieresis" unicode="&#xef;" horiz-adv-x="276" 
d="M17 610q0 32 21 52.5t53 20.5q26 0 40.5 -14.5t14.5 -39.5q0 -32 -21 -53t-52 -21q-26 0 -41 14.5t-15 40.5zM227 610q0 32 21 52.5t53 20.5q26 0 40.5 -14.5t14.5 -39.5q0 -32 -21 -53t-53 -21q-26 0 -40.5 14.5t-14.5 40.5zM25 0l48 300l21 165l12 12h135
q-4 -77 -20 -177l-48 -300h-148z" />
    <glyph glyph-name="eth" unicode="&#xf0;" horiz-adv-x="568" 
d="M276 537l-37 45l68 61q-24 28 -52 48t-44 26l-16 6l44 37q62 -14 130 -62l70 62l37 -45l-61 -54q151 -143 122 -393q-3 -119 -87 -198.5t-206 -79.5q-101 0 -159 57.5t-58 155.5q0 120 84.5 202t207.5 82q35 0 69 -8q-15 65 -46 117zM187 152q0 -54 17 -84t49 -30
q50 0 87 97t37 191q0 53 -17.5 83t-49.5 30q-33 0 -62.5 -49t-45 -114.5t-15.5 -123.5z" />
    <glyph glyph-name="ntilde" unicode="&#xf1;" horiz-adv-x="572" 
d="M323 0l56 350q8 50 -26 50q-29 0 -65.5 -46t-54.5 -80.5t-26 -54.5v-1l-34 -218h-148l48 300q7 44 8.5 85.5t-0.5 60.5l-2 19l12 12h136q1 -5 3 -13.5t4 -36.5t-4 -53l-7 -41l3 -4q3 6 8 17t24 38t41 48t57.5 38t74.5 17q116 0 95 -137l-55 -350h-148zM303 669
q25 0 50.5 -18t45.5 -18t40 9.5t30 19.5l10 10l19 -23q-2 -4 -6 -10t-17 -22t-27 -28t-35 -22t-43 -10q-25 0 -50 18.5t-45 18.5t-40 -10t-30 -20l-10 -10l-19 23q2 4 6 10t16.5 22t26.5 28t35 22t43 10z" />
    <glyph glyph-name="ograve" unicode="&#xf2;" horiz-adv-x="565" 
d="M27 203q0 121 84 202.5t206 81.5q101 0 159 -57t58 -155q0 -121 -84 -203t-207 -82q-101 0 -158.5 57.5t-57.5 155.5zM187 152q0 -54 17 -84t48 -30q33 0 62.5 49t44.5 115t15 124q0 53 -17 83t-48 30q-33 0 -62.5 -49t-44.5 -114.5t-15 -123.5zM387 564l-9 -8h-44
l-116 149l2 8q39 22 120 22z" />
    <glyph glyph-name="oacute" unicode="&#xf3;" horiz-adv-x="565" 
d="M27 203q0 121 84 202.5t206 81.5q101 0 159 -57t58 -155q0 -121 -84 -203t-207 -82q-101 0 -158.5 57.5t-57.5 155.5zM187 152q0 -54 17 -84t48 -30q33 0 62.5 49t44.5 115t15 124q0 53 -17 83t-48 30q-33 0 -62.5 -49t-44.5 -114.5t-15 -123.5zM262 556l-7 8l101 171
q36 0 64 -5.5t38 -11.5l11 -5l-1 -8l-163 -149h-43z" />
    <glyph glyph-name="ocircumflex" unicode="&#xf4;" horiz-adv-x="565" 
d="M27 203q0 121 84 202.5t206 81.5q101 0 159 -57t58 -155q0 -121 -84 -203t-207 -82q-101 0 -158.5 57.5t-57.5 155.5zM187 152q0 -54 17 -84t48 -30q33 0 62.5 49t44.5 115t15 124q0 53 -17 83t-48 30q-33 0 -62.5 -49t-44.5 -114.5t-15 -123.5zM489 564l-11 -8h-50
l-84 84l-110 -84h-50l-7 8l164 171h37z" />
    <glyph glyph-name="otilde" unicode="&#xf5;" horiz-adv-x="565" 
d="M27 203q0 121 84 202.5t206 81.5q101 0 159 -57t58 -155q0 -121 -84 -203t-207 -82q-101 0 -158.5 57.5t-57.5 155.5zM187 152q0 -54 17 -84t48 -30q33 0 62.5 49t44.5 115t15 124q0 53 -17 83t-48 30q-33 0 -62.5 -49t-44.5 -114.5t-15 -123.5zM300 669q25 0 50 -18
t45 -18t40.5 9.5t30.5 19.5l10 10l18 -23q-2 -4 -6 -10t-16.5 -22t-26.5 -28t-35 -22t-43 -10q-25 0 -50 18.5t-46 18.5q-20 0 -40 -10t-30 -20l-10 -10l-19 23q2 4 6 10t16.5 22t26.5 28t35.5 22t43.5 10z" />
    <glyph glyph-name="odieresis" unicode="&#xf6;" horiz-adv-x="565" 
d="M27 203q0 121 84 202.5t206 81.5q101 0 159 -57t58 -155q0 -121 -84 -203t-207 -82q-101 0 -158.5 57.5t-57.5 155.5zM187 152q0 -54 17 -84t48 -30q33 0 62.5 49t44.5 115t15 124q0 53 -17 83t-48 30q-33 0 -62.5 -49t-44.5 -114.5t-15 -123.5zM163 610q0 32 21.5 52.5
t52.5 20.5q26 0 40.5 -14.5t14.5 -39.5q0 -32 -21 -53t-52 -21q-26 0 -41 14.5t-15 40.5zM373 610q0 32 21.5 52.5t52.5 20.5q26 0 40.5 -14.5t14.5 -39.5q0 -32 -21 -53t-52 -21q-26 0 -41 14.5t-15 40.5z" />
    <glyph glyph-name="divide" unicode="&#xf7;" 
d="M85 294v62h423v-62h-423zM232 161q0 29 17.5 46.5t46.5 17.5t46.5 -17.5t17.5 -46.5t-17.5 -46.5t-46.5 -17.5t-46.5 17.5t-17.5 46.5zM232 488q0 29 17.5 46.5t46.5 17.5q28 0 46 -18t18 -46t-17.5 -45.5t-46.5 -17.5t-46.5 17t-17.5 46z" />
    <glyph glyph-name="oslash" unicode="&#xf8;" horiz-adv-x="565" 
d="M50 -1l38 45q-61 56 -61 159q0 121 84 202.5t206 81.5q69 0 117 -27l30 36l41 -25l-32 -39q61 -58 61 -157q0 -121 -84 -203t-207 -82q-68 0 -117 26l-35 -42zM309 439q-51 0 -88 -90t-37 -189l185 222q-15 57 -60 57zM251 38q51 0 88.5 89.5t37.5 189.5l-186 -223
q16 -56 60 -56z" />
    <glyph glyph-name="ugrave" unicode="&#xf9;" horiz-adv-x="575" 
d="M364 259l32 206l12 12h138l-48 -300q-7 -44 -8.5 -85.5t0.5 -60.5l3 -19l-13 -12h-135q-2 5 -3.5 13.5t-4 36.5t3.5 53l7 41l-3 4q-3 -6 -8 -17t-24 -38t-41 -48t-57.5 -38t-73.5 -17q-115 0 -94 137l27 173q7 44 12 85.5t6 60.5l1 19l12 12h136q-4 -77 -20 -177
l-27 -173q-8 -50 25 -50q28 0 64 45.5t53.5 79.5t26.5 55l-18 -109l19 110v1zM391 564l-9 -8h-44l-115 149l1 8q39 22 120 22zM364 259l-1 -2l1 1v1z" />
    <glyph glyph-name="uacute" unicode="&#xfa;" horiz-adv-x="575" 
d="M105 477h136q-4 -77 -20 -177l-27 -173q-8 -50 25 -50q60 0 144 178q0 1 1 2v1v1l32 206l12 12h138l-48 -300q-7 -44 -8.5 -85.5t0.5 -60.5l3 -19l-13 -12h-135q-2 5 -3.5 13.5t-4 36.5t3.5 53l7 41l-3 4q-3 -6 -8 -17t-24 -38t-41 -48t-57.5 -38t-73.5 -17
q-115 0 -94 137l27 173q7 44 12 85.5t6 60.5l1 19zM267 556l-7 8l101 171q36 0 64.5 -5.5t38.5 -11.5l11 -5l-1 -8l-164 -149h-43z" />
    <glyph glyph-name="ucircumflex" unicode="&#xfb;" horiz-adv-x="575" 
d="M105 477h136q-4 -77 -20 -177l-27 -173q-8 -50 25 -50q28 0 64 45.5t53.5 79.5t26.5 55l1 2l32 206l12 12h138l-48 -300q-7 -44 -8.5 -85.5t0.5 -60.5l3 -19l-13 -12h-135q-2 5 -3.5 13.5t-4 36.5t3.5 53l7 41l-3 4q-3 -6 -8 -17t-24 -38t-41 -48t-57.5 -38t-73.5 -17
q-115 0 -94 137l27 173q7 44 12 85.5t6 60.5l1 19zM494 564l-11 -8h-50l-83 84l-111 -84h-50l-7 8l164 171h37z" />
    <glyph glyph-name="udieresis" unicode="&#xfc;" horiz-adv-x="575" 
d="M105 477h136q-4 -77 -20 -177l-27 -173q-8 -50 25 -50q28 0 64 45.5t53.5 79.5t26.5 55l1 2l32 206l12 12h138l-48 -300q-7 -44 -8.5 -85.5t0.5 -60.5l3 -19l-13 -12h-135q-2 5 -3.5 13.5t-4 36.5t3.5 53l7 41l-3 4q-3 -6 -8 -17t-24 -38t-41 -48t-57.5 -38t-73.5 -17
q-115 0 -94 137l27 173q7 44 12 85.5t6 60.5l1 19zM168 610q0 32 21.5 52.5t52.5 20.5q26 0 40.5 -14t14.5 -40q0 -32 -21 -53t-52 -21q-26 0 -41 14.5t-15 40.5zM378 610q0 32 21.5 52.5t52.5 20.5q26 0 40.5 -14t14.5 -40q0 -32 -21 -53t-52 -21q-26 0 -41 14.5t-15 40.5z
" />
    <glyph glyph-name="yacute" unicode="&#xfd;" horiz-adv-x="516" 
d="M-38 -260q-14 0 -29 4t-23 8l-8 3q0 38 10 70.5t20 46.5l9 13q26 -15 59 -15q72 0 176 106l-77 324q-12 52 -26 94t-21 58l-8 17l8 8h155l75 -370q120 181 120 305q0 17 -2 31t-4 20l-3 6l9 8h99q6 -13 6 -35q0 -58 -59 -176t-141 -234t-179.5 -204t-165.5 -88zM242 556
l-7 8l101 171q36 0 64 -5.5t38 -11.5l11 -5l-1 -8l-163 -149h-43z" />
    <glyph glyph-name="thorn" unicode="&#xfe;" horiz-adv-x="573" 
d="M-14 -250l115 727q11 71 18 136t9 95l1 30l12 12h136q-2 -113 -27 -273l-9 -56l-18 -88l3 -4l8.5 17t25 38t40 48t52.5 38t65 17q61 0 93.5 -47.5t32.5 -125.5q0 -139 -96.5 -231.5t-231.5 -92.5q-25 0 -44 3l-38 -243h-147zM385 319q0 81 -36 81q-25 0 -61 -45.5
t-55 -82t-26 -53.5v-1l-24 -151h1q1 -3 3.5 -7.5t14 -12t28.5 -7.5q59 0 107 86.5t48 192.5z" />
    <glyph glyph-name="ydieresis" unicode="&#xff;" horiz-adv-x="516" 
d="M-38 -260q-14 0 -29 4t-23 8l-8 3q0 38 10 70.5t20 46.5l9 13q26 -15 59 -15q72 0 176 106l-77 324q-12 52 -26 94t-21 58l-8 17l8 8h155l75 -370q120 181 120 305q0 17 -2 31t-4 20l-3 6l9 8h99q6 -13 6 -35q0 -58 -59 -176t-141 -234t-179.5 -204t-165.5 -88zM353 610
q0 32 21 52.5t53 20.5q26 0 40.5 -14.5t14.5 -39.5q0 -32 -21 -53t-53 -21q-26 0 -40.5 14.5t-14.5 40.5zM143 610q0 32 21 52.5t53 20.5q26 0 40.5 -14.5t14.5 -39.5q0 -32 -21 -53t-52 -21q-26 0 -41 14.5t-15 40.5z" />
    <glyph glyph-name="Amacron" unicode="&#x100;" horiz-adv-x="696" 
d="M153 186l-99 -186h-77l348 645l-18 43l3 12h169l160 -700h-159l-43 186h-284zM361 523l-9 37l-166 -312h237zM294 789l10 62h264l-10 -62h-264z" />
    <glyph glyph-name="amacron" unicode="&#x101;" horiz-adv-x="573" 
d="M536 435l-41 -258q-7 -44 -8.5 -85.5t0.5 -60.5l2 -19l-12 -12h-136q-1 5 -3 13.5t-4 36.5t4 53l7 41l-3 4l-8.5 -17t-25 -38t-40 -48t-53 -38t-65.5 -17q-60 0 -92.5 48t-32.5 126q0 140 96 231.5t252 91.5q57 0 97.5 -13t53.5 -26zM361 259l23 151q-1 3 -3.5 7.5
t-14 12t-28.5 7.5q-59 0 -107 -86.5t-48 -191.5q0 -82 36 -82q51 0 141 180l-18 -109l19 110v1zM219 586l10 62h264l-10 -62h-264zM361 259l-1 -2l1 1v1z" />
    <glyph glyph-name="Abreve" unicode="&#x102;" horiz-adv-x="696" 
d="M153 186l-99 -186h-77l348 645l-18 43l3 12h169l160 -700h-159l-43 186h-284zM361 523l-9 37l-166 -312h237zM286 864l26 23q5 -6 14 -15t40 -24.5t66 -15.5t69 14t51 28l17 13l19 -23q-2 -4 -6.5 -11.5t-19.5 -26t-33 -32.5t-47.5 -25.5t-61.5 -11.5t-57.5 11
t-39.5 26.5t-23 31.5t-12 27z" />
    <glyph glyph-name="abreve" unicode="&#x103;" horiz-adv-x="573" 
d="M536 435l-41 -258q-7 -44 -8.5 -85.5t0.5 -60.5l2 -19l-12 -12h-136q-1 5 -3 13.5t-4 36.5t4 53l7 41l-3 4l-8.5 -17t-25 -38t-40 -48t-53 -38t-65.5 -17q-60 0 -92.5 48t-32.5 126q0 140 96 231.5t252 91.5q57 0 97.5 -13t53.5 -26zM361 259l23 151q-1 3 -3.5 7.5
t-14 12t-28.5 7.5q-59 0 -107 -86.5t-48 -191.5q0 -82 36 -82q19 0 43.5 25t46.5 62t33 58t18 35l-18 -109l19 110v1zM206 661l26 23q5 -6 14 -15t39.5 -24.5t65.5 -15.5t69.5 13.5t51.5 27.5l16 14l19 -23q-2 -4 -6.5 -11.5t-19.5 -26t-33 -32.5t-47 -25.5t-61 -11.5
t-57.5 11t-39.5 27t-23 31.5t-12 26.5zM361 259l-1 -2l1 1v1z" />
    <glyph glyph-name="Aogonek" unicode="&#x104;" horiz-adv-x="696" 
d="M153 186l-99 -186h-77l348 645l-18 43l3 12h169l160 -700h-41q-6 -5 -14.5 -15t-22.5 -36.5t-14 -49.5q0 -36 34 -36q8 0 15.5 1.5t10.5 3.5l3 2l19 -23q-3 -4 -8.5 -10t-26 -16.5t-43.5 -10.5q-33 0 -56 19.5t-23 56.5q0 34 20 62.5t40 39.5l20 12h-72l-43 186h-284z
M361 523l-9 37l-166 -312h237z" />
    <glyph glyph-name="aogonek" unicode="&#x105;" horiz-adv-x="573" 
d="M536 435l-41 -258q-7 -44 -8.5 -85.5t0.5 -60.5l2 -19l-12 -12h-14q-50 -50 -50 -100q0 -36 34 -36q8 0 15.5 2t10.5 4l3 1l19 -23q-3 -4 -8.5 -10t-26 -16.5t-43.5 -10.5q-33 0 -56 19.5t-23 57.5q0 31 18 58t32.5 38t26.5 16h-74q-1 5 -3 13.5t-4 36.5t4 53l7 41l-3 4
l-8.5 -17t-25 -38t-40 -48t-53 -38t-65.5 -17q-60 0 -92.5 48t-32.5 126q0 140 96 231.5t252 91.5q57 0 97.5 -13t53.5 -26zM361 259l23 151q-1 3 -3.5 7.5t-14 12t-28.5 7.5q-59 0 -107 -86.5t-48 -191.5q0 -82 36 -82q19 0 43.5 25t46.5 62t33 58t18 35l-18 -109l19 110v1
zM361 259l-1 -2l1 1v1z" />
    <glyph glyph-name="Cacute" unicode="&#x106;" horiz-adv-x="700" 
d="M456 658q-97 0 -163.5 -103t-66.5 -253q0 -114 44.5 -168t136.5 -54q34 0 69 7.5t60 18t45 20.5t30 18l10 7l20 -25q-4 -6 -11.5 -15t-34.5 -32.5t-58 -41.5t-82 -32.5t-106 -14.5q-138 0 -217.5 82.5t-79.5 223.5q0 176 117 295t297 119q114 0 177 -49t63 -129
q0 -26 -7 -47.5t-13 -30.5l-7 -8q-54 -12 -140 -12l-10 12q27 36 27 102q0 110 -100 110zM409 759l-6 8l101 171q36 0 64 -5.5t38 -10.5l11 -6l-1 -8l-163 -149h-44z" />
    <glyph glyph-name="cacute" unicode="&#x107;" horiz-adv-x="498" 
d="M434 111l19 -23q-3 -4 -8.5 -10.5t-25.5 -23.5t-43 -30t-61 -23.5t-79 -10.5q-100 0 -155 56.5t-55 156.5q0 122 79 203t215 81q81 0 126.5 -30.5t45.5 -83.5q0 -18 -5 -35t-11 -25l-5 -8q-43 -12 -119 -12l-9 12q19 33 19 76q0 58 -50 58q-54 0 -86.5 -74t-32.5 -161
q0 -72 26 -104.5t81 -32.5q34 0 67.5 11t50.5 22zM256 556l-7 8l101 171q36 0 64 -5.5t38 -11.5l11 -5l-1 -8l-163 -149h-43z" />
    <glyph glyph-name="Ccircumflex" unicode="&#x108;" horiz-adv-x="700" 
d="M456 658q-97 0 -163.5 -103t-66.5 -253q0 -114 44.5 -168t136.5 -54q34 0 69 7.5t60 18t45 20.5t30 18l10 7l20 -25q-4 -6 -11.5 -15t-34.5 -32.5t-58 -41.5t-82 -32.5t-106 -14.5q-138 0 -217.5 82.5t-79.5 223.5q0 176 117 295t297 119q114 0 177 -49t63 -129
q0 -26 -7 -47.5t-13 -30.5l-7 -8q-54 -12 -140 -12l-10 12q27 36 27 102q0 110 -100 110zM616 767l-11 -8h-50l-84 84l-110 -84h-51l-6 8l164 171h37z" />
    <glyph glyph-name="ccircumflex" unicode="&#x109;" horiz-adv-x="498" 
d="M434 111l19 -23q-3 -4 -8.5 -10.5t-25.5 -23.5t-43 -30t-61 -23.5t-79 -10.5q-100 0 -155 56.5t-55 156.5q0 122 79 203t215 81q81 0 126.5 -30.5t45.5 -83.5q0 -18 -5 -35t-11 -25l-5 -8q-43 -12 -119 -12l-9 12q19 33 19 76q0 58 -50 58q-54 0 -86.5 -74t-32.5 -161
q0 -72 26 -104.5t81 -32.5q34 0 67.5 11t50.5 22zM483 564l-11 -8h-50l-84 84l-110 -84h-51l-6 8l164 171h37z" />
    <glyph glyph-name="Cdotaccent" unicode="&#x10a;" horiz-adv-x="700" 
d="M456 658q-97 0 -163.5 -103t-66.5 -253q0 -114 44.5 -168t136.5 -54q34 0 69 7.5t60 18t45 20.5t30 18l10 7l20 -25q-4 -6 -11.5 -15t-34.5 -32.5t-58 -41.5t-82 -32.5t-106 -14.5q-138 0 -217.5 82.5t-79.5 223.5q0 176 117 295t297 119q114 0 177 -49t63 -129
q0 -26 -7 -47.5t-13 -30.5l-7 -8q-54 -12 -140 -12l-10 12q27 36 27 102q0 110 -100 110zM399 827q0 35 23.5 58.5t58.5 23.5q29 0 45.5 -16.5t16.5 -44.5q0 -35 -24 -58.5t-59 -23.5q-28 0 -44.5 16.5t-16.5 44.5z" />
    <glyph glyph-name="cdotaccent" unicode="&#x10b;" horiz-adv-x="498" 
d="M434 111l19 -23q-3 -4 -8.5 -10.5t-25.5 -23.5t-43 -30t-61 -23.5t-79 -10.5q-100 0 -155 56.5t-55 156.5q0 122 79 203t215 81q81 0 126.5 -30.5t45.5 -83.5q0 -18 -5 -35t-11 -25l-5 -8q-43 -12 -119 -12l-9 12q19 33 19 76q0 58 -50 58q-54 0 -86.5 -74t-32.5 -161
q0 -72 26 -104.5t81 -32.5q34 0 67.5 11t50.5 22zM254 610q0 35 24 58.5t59 23.5q28 0 44.5 -16.5t16.5 -44.5q0 -35 -23.5 -58.5t-58.5 -23.5q-29 0 -45.5 16.5t-16.5 44.5z" />
    <glyph glyph-name="Ccaron" unicode="&#x10c;" horiz-adv-x="700" 
d="M456 658q-97 0 -163.5 -103t-66.5 -253q0 -114 44.5 -168t136.5 -54q34 0 69 7.5t60 18t45 20.5t30 18l10 7l20 -25q-4 -6 -11.5 -15t-34.5 -32.5t-58 -41.5t-82 -32.5t-106 -14.5q-138 0 -217.5 82.5t-79.5 223.5q0 176 117 295t297 119q114 0 177 -49t63 -129
q0 -26 -7 -47.5t-13 -30.5l-7 -8q-54 -12 -140 -12l-10 12q27 36 27 102q0 110 -100 110zM634 933l7 -8l-165 -171h-37l-110 171l10 8h51l83 -84l110 84h51z" />
    <glyph glyph-name="ccaron" unicode="&#x10d;" horiz-adv-x="498" 
d="M434 111l19 -23q-3 -4 -8.5 -10.5t-25.5 -23.5t-43 -30t-61 -23.5t-79 -10.5q-100 0 -155 56.5t-55 156.5q0 122 79 203t215 81q81 0 126.5 -30.5t45.5 -83.5q0 -18 -5 -35t-11 -25l-5 -8q-43 -12 -119 -12l-9 12q19 33 19 76q0 58 -50 58q-54 0 -86.5 -74t-32.5 -161
q0 -72 26 -104.5t81 -32.5q34 0 67.5 11t50.5 22zM476 730l7 -8l-165 -171h-37l-110 171l10 8h50l84 -84l110 84h51z" />
    <glyph glyph-name="Dcaron" unicode="&#x10e;" horiz-adv-x="745" 
d="M32 0l111 700h283q137 0 217 -81t80 -219q0 -170 -117 -285t-291 -115h-283zM409 637h-122l-91 -574h122q102 0 168.5 99.5t66.5 254.5q0 109 -37 164.5t-107 55.5zM621 933l6 -8l-164 -171h-37l-111 171l10 8h51l84 -84l110 84h51z" />
    <glyph glyph-name="dcaron" unicode="&#x10f;" horiz-adv-x="710" 
d="M543 477l-48 -300q-7 -44 -8.5 -85t0.5 -60l2 -20l-12 -12h-136q-1 5 -3 13.5t-4 36.5t4 53l7 41l-3 4l-8.5 -17t-25 -38t-40 -48t-53 -38t-65.5 -17q-60 0 -92.5 47.5t-32.5 125.5q0 139 96.5 231.5t231.5 92.5q23 0 43 -3q11 67 17.5 130.5t8.5 93.5l1 30l12 12h137
q-2 -109 -29 -273zM183 159q0 -82 36 -82q19 0 43.5 25t46.5 62t33 58t18 35l1 2l24 155q-13 23 -47 23q-59 0 -107 -86.5t-48 -191.5zM620 556l-12 15q7 7 17 19.5t27 52t17 79.5l-3 33l5 5q24 0 45.5 -3t31.5 -6l10 -3q1 -6 1 -19q0 -32 -14.5 -62t-34.5 -49t-40.5 -34
t-35.5 -22z" />
    <glyph glyph-name="Dcroat" unicode="&#x110;" horiz-adv-x="745" 
d="M27 325l11 63h55l50 312h283q137 0 217 -81t80 -219q0 -170 -117 -285t-291 -115h-283l51 325h-56zM409 637h-122l-40 -249h132l-10 -63h-132l-41 -262h122q102 0 168.5 99.5t66.5 253.5q0 110 -37 165.5t-107 55.5z" />
    <glyph glyph-name="dcroat" unicode="&#x111;" horiz-adv-x="573" 
d="M292 570l9 63h114l8 105l12 12h137q-1 -46 -8 -117h55l-9 -63h-54q-2 -16 -13 -93l-48 -300q-7 -44 -8.5 -85t0.5 -60l2 -20l-12 -12h-136q-1 5 -3 13.5t-4 36.5t4 53l7 41l-3 4l-8.5 -17t-25 -38t-40 -48t-53 -38t-65.5 -17q-60 0 -92.5 47.5t-32.5 125.5
q0 139 96.5 231.5t231.5 92.5q23 0 43 -3q7 45 12 86h-116zM183 159q0 -82 36 -82q19 0 43.5 25t46.5 62t33 58t18 35l1 2l24 155q-13 23 -47 23q-59 0 -107 -86.5t-48 -191.5z" />
    <glyph glyph-name="Emacron" unicode="&#x112;" horiz-adv-x="580" 
d="M32 0l111 700h454l-13 -81l-14 -12q-46 31 -154 31h-129l-39 -248h231l8 -9l-8 -54h-241l-41 -265h138q48 0 88.5 8t57.5 16l17 7l10 -12l-13 -81h-463zM255 789l10 62h264l-10 -62h-264z" />
    <glyph glyph-name="emacron" unicode="&#x113;" horiz-adv-x="504" 
d="M433 111l19 -23q-3 -4 -8.5 -10.5t-26 -23.5t-43.5 -30t-61 -23.5t-79 -10.5q-99 0 -153 56.5t-54 152.5q0 127 87 207.5t218 80.5q81 0 119.5 -30.5t38.5 -75.5q0 -71 -84.5 -119t-211.5 -53v-3q0 -74 23.5 -106.5t79.5 -32.5q35 0 69 11t50 22zM317 439
q-44 0 -77.5 -51t-42.5 -130q71 7 117 39t46 89q0 53 -43 53zM185 586l10 62h264l-10 -62h-264z" />
    <glyph glyph-name="Ebreve" unicode="&#x114;" horiz-adv-x="580" 
d="M32 0l111 700h454l-13 -81l-14 -12q-46 31 -154 31h-129l-39 -248h231l8 -9l-8 -54h-241l-41 -265h138q48 0 88.5 8t57.5 16l17 7l10 -12l-13 -81h-463zM248 864l26 23q5 -6 14 -15t40 -24.5t66 -15.5t69 14t51 28l16 13l20 -23q-2 -4 -6.5 -11.5t-20 -26t-33 -32.5
t-47 -25.5t-61.5 -11.5t-57.5 11t-39.5 26.5t-23 31.5t-12 27z" />
    <glyph glyph-name="ebreve" unicode="&#x115;" horiz-adv-x="504" 
d="M433 111l19 -23q-3 -4 -8.5 -10.5t-26 -23.5t-43.5 -30t-61 -23.5t-79 -10.5q-99 0 -153 56.5t-54 152.5q0 127 87 207.5t218 80.5q81 0 119.5 -30.5t38.5 -75.5q0 -71 -84.5 -119t-211.5 -53v-3q0 -74 23.5 -106.5t79.5 -32.5q35 0 69 11t50 22zM171 661l26 23
q5 -6 14 -15t40 -24.5t66 -15.5t69 13.5t51 27.5l17 14l19 -23q-2 -4 -6.5 -11.5t-20 -26t-33 -32.5t-47 -25.5t-61.5 -11.5t-57.5 11t-39.5 27t-23 31.5t-11 26.5zM317 439q-44 0 -77.5 -51t-42.5 -130q71 7 117 39t46 89q0 53 -43 53z" />
    <glyph glyph-name="Edotaccent" unicode="&#x116;" horiz-adv-x="580" 
d="M32 0l111 700h454l-13 -81l-14 -12q-46 31 -154 31h-129l-39 -248h231l8 -9l-8 -54h-241l-41 -265h138q48 0 88.5 8t57.5 16l17 7l10 -12l-13 -81h-463zM323 827q0 35 23.5 58.5t58.5 23.5q29 0 45.5 -16.5t16.5 -44.5q0 -35 -24 -58.5t-59 -23.5q-28 0 -44.5 16.5
t-16.5 44.5z" />
    <glyph glyph-name="edotaccent" unicode="&#x117;" horiz-adv-x="504" 
d="M433 111l19 -23q-3 -4 -8.5 -10.5t-26 -23.5t-43.5 -30t-61 -23.5t-79 -10.5q-99 0 -153 56.5t-54 152.5q0 127 87 207.5t218 80.5q81 0 119.5 -30.5t38.5 -75.5q0 -71 -84.5 -119t-211.5 -53v-3q0 -74 23.5 -106.5t79.5 -32.5q35 0 69 11t50 22zM317 439
q-44 0 -77.5 -51t-42.5 -130q71 7 117 39t46 89q0 53 -43 53zM250 610q0 35 23.5 58.5t58.5 23.5q29 0 45.5 -16.5t16.5 -44.5q0 -35 -24 -58.5t-59 -23.5q-28 0 -44.5 16.5t-16.5 44.5z" />
    <glyph glyph-name="Eogonek" unicode="&#x118;" horiz-adv-x="580" 
d="M32 0l111 700h454l-13 -81l-14 -12q-46 31 -154 31h-129l-39 -248h231l8 -9l-8 -54h-241l-41 -265h138q48 0 88.5 8t57.5 16l17 7l10 -12l-13 -81h-55q-6 -5 -14.5 -15t-22.5 -36.5t-14 -49.5q0 -36 34 -36q8 0 15.5 1.5t10.5 3.5l3 2l19 -23q-3 -4 -8.5 -10t-26 -16.5
t-43.5 -10.5q-33 0 -56 19.5t-23 56.5q0 34 20 62.5t40 39.5l20 12h-362z" />
    <glyph glyph-name="eogonek" unicode="&#x119;" horiz-adv-x="504" 
d="M433 111l19 -23q-28 -35 -77 -63q-46 -50 -46 -96q0 -36 34 -36q8 0 15.5 1.5t10.5 3.5l3 2l19 -23q-3 -4 -8.5 -10t-26 -16.5t-43.5 -10.5q-33 0 -56 19.5t-23 56.5q0 44 33 79q-28 -5 -53 -5q-99 0 -153 56.5t-54 152.5q0 127 87 207.5t218 80.5q81 0 119.5 -30.5
t38.5 -75.5q0 -71 -84.5 -119t-211.5 -53v-3q0 -74 23.5 -106.5t79.5 -32.5q35 0 69 11t50 22zM317 439q-44 0 -77.5 -51t-42.5 -130q71 7 117 39t46 89q0 53 -43 53z" />
    <glyph glyph-name="Ecaron" unicode="&#x11a;" horiz-adv-x="580" 
d="M32 0l111 700h454l-13 -81l-14 -12q-46 31 -154 31h-129l-39 -248h231l8 -9l-8 -54h-241l-41 -265h138q48 0 88.5 8t57.5 16l17 7l10 -12l-13 -81h-463zM558 936l7 -8l-164 -171h-37l-111 171l10 8h51l83 -84l111 84h50z" />
    <glyph glyph-name="ecaron" unicode="&#x11b;" horiz-adv-x="504" 
d="M433 111l19 -23q-3 -4 -8.5 -10.5t-26 -23.5t-43.5 -30t-61 -23.5t-79 -10.5q-99 0 -153 56.5t-54 152.5q0 127 87 207.5t218 80.5q81 0 119.5 -30.5t38.5 -75.5q0 -71 -84.5 -119t-211.5 -53v-3q0 -74 23.5 -106.5t79.5 -32.5q35 0 69 11t50 22zM471 730l7 -8l-165 -171
h-37l-110 171l10 8h51l83 -84l111 84h50zM317 439q-44 0 -77.5 -51t-42.5 -130q71 7 117 39t46 89q0 53 -43 53z" />
    <glyph glyph-name="Gcircumflex" unicode="&#x11c;" horiz-adv-x="705" 
d="M439 284l9 54h71q41 0 77.5 3t52.5 6l16 3l9 -12l-38 -241l-11.5 -11.5t-34 -26t-56 -32.5t-77.5 -25.5t-100 -11.5q-145 0 -225 82t-80 224q0 177 116.5 295.5t301.5 118.5q111 0 173.5 -44.5t62.5 -123.5q0 -26 -7 -47t-13 -29l-7 -8q-54 -12 -140 -12l-10 12
q27 33 27 99q0 101 -96 101q-102 0 -168.5 -103.5t-66.5 -256.5q0 -232 171 -232q47 0 98 17l12 79q9 56 7 113h-66zM616 767l-11 -8h-50l-84 84l-110 -84h-51l-6 8l164 171h37z" />
    <glyph glyph-name="gcircumflex" unicode="&#x11d;" horiz-adv-x="569" 
d="M316 -21l4 21l16 103l9 41l-3 4l-8.5 -17t-25 -38t-40 -48t-53 -38t-65.5 -17q-60 0 -92.5 48t-32.5 126q0 140 96 231.5t252 91.5q57 0 97.5 -13t53.5 -26l12 -13l-68 -435l-4 -21q-21 -109 -99.5 -174t-204.5 -65q-83 0 -133.5 29t-50.5 82q0 16 4.5 31.5t9.5 23.5l5 7
q47 12 127 12l10 -12q-19 -31 -19 -68q0 -57 60 -57q50 0 88 52t55 139zM183 159q0 -82 36 -82q19 0 43.5 25t46.5 62t33 58t18 35l1 2l23 151q-1 3 -3.5 7.5t-14 12t-28.5 7.5q-59 0 -107 -86.5t-48 -191.5zM510 564l-10 -8h-50l-84 84l-110 -84h-51l-6 8l164 171h37z" />
    <glyph glyph-name="Gbreve" unicode="&#x11e;" horiz-adv-x="705" 
d="M439 284l9 54h71q41 0 77.5 3t52.5 6l16 3l9 -12l-38 -241l-11.5 -11.5t-34 -26t-56 -32.5t-77.5 -25.5t-100 -11.5q-145 0 -225 82t-80 224q0 177 116.5 295.5t301.5 118.5q111 0 173.5 -44.5t62.5 -123.5q0 -26 -7 -47t-13 -29l-7 -8q-54 -12 -140 -12l-10 12
q27 33 27 99q0 101 -96 101q-102 0 -168.5 -103.5t-66.5 -256.5q0 -232 171 -232q47 0 98 17l12 79q9 56 7 113h-66zM324 864l26 23q5 -6 14 -15t40 -24.5t66 -15.5t69 14t51 28l17 13l19 -23q-2 -4 -6.5 -11.5t-20 -26t-33 -32.5t-47 -25.5t-61.5 -11.5t-57.5 11
t-39.5 26.5t-23 31.5t-12 27z" />
    <glyph glyph-name="gbreve" unicode="&#x11f;" horiz-adv-x="569" 
d="M536 435l-68 -435l-4 -21q-21 -109 -99.5 -174t-204.5 -65q-83 0 -133.5 29t-50.5 82q0 16 4.5 31.5t9.5 23.5l5 7q47 12 127 12l10 -12q-19 -31 -19 -68q0 -57 60 -57q50 0 88 52t55 139l4 21l16 103l9 41l-3 4l-8.5 -17t-25 -38t-40 -48t-53 -38t-65.5 -17
q-60 0 -92.5 48t-32.5 126q0 140 96 231.5t252 91.5q57 0 97.5 -13t53.5 -26zM384 410q-1 3 -3.5 7.5t-14 12t-28.5 7.5q-59 0 -107 -86.5t-48 -191.5q0 -82 36 -82q19 0 43.5 25t46.5 62t33 58t18 35l1 2zM204 661l26 23q5 -6 14 -15t39.5 -24.5t65.5 -15.5t69.5 13.5
t51.5 27.5l16 14l19 -23q-2 -4 -6.5 -11.5t-19.5 -26t-33 -32.5t-47 -25.5t-61 -11.5t-57.5 11t-39.5 27t-23 31.5t-12 26.5z" />
    <glyph glyph-name="Gdotaccent" unicode="&#x120;" horiz-adv-x="705" 
d="M439 284l9 54h71q41 0 77.5 3t52.5 6l16 3l9 -12l-38 -241l-11.5 -11.5t-34 -26t-56 -32.5t-77.5 -25.5t-100 -11.5q-145 0 -225 82t-80 224q0 177 116.5 295.5t301.5 118.5q111 0 173.5 -44.5t62.5 -123.5q0 -26 -7 -47t-13 -29l-7 -8q-54 -12 -140 -12l-10 12
q27 33 27 99q0 101 -96 101q-102 0 -168.5 -103.5t-66.5 -256.5q0 -232 171 -232q47 0 98 17l12 79q9 56 7 113h-66zM399 827q0 35 23.5 58.5t58.5 23.5q29 0 45.5 -16.5t16.5 -44.5q0 -35 -24 -58.5t-59 -23.5q-28 0 -44.5 16.5t-16.5 44.5z" />
    <glyph glyph-name="gdotaccent" unicode="&#x121;" horiz-adv-x="569" 
d="M536 435l-68 -435l-4 -21q-21 -109 -99.5 -174t-204.5 -65q-83 0 -133.5 29t-50.5 82q0 16 4.5 31.5t9.5 23.5l5 7q47 12 127 12l10 -12q-19 -31 -19 -68q0 -57 60 -57q50 0 88 52t55 139l4 21l16 103l9 41l-3 4l-8.5 -17t-25 -38t-40 -48t-53 -38t-65.5 -17
q-60 0 -92.5 48t-32.5 126q0 140 96 231.5t252 91.5q57 0 97.5 -13t53.5 -26zM361 259l23 151q-1 3 -3.5 7.5t-14 12t-28.5 7.5q-59 0 -107 -86.5t-48 -191.5q0 -82 36 -82q19 0 43.5 25t46.5 62t33 58t18 35l-18 -109l19 110v1zM282 610q0 35 24 58.5t59 23.5
q28 0 44.5 -16.5t16.5 -44.5q0 -35 -23.5 -58.5t-58.5 -23.5q-29 0 -45.5 16.5t-16.5 44.5zM361 259l-1 -2l1 1v1z" />
    <glyph glyph-name="Gcommaaccent" unicode="&#x122;" horiz-adv-x="705" 
d="M439 284l9 54h71q41 0 77.5 3t52.5 6l16 3l9 -12l-38 -241l-11.5 -11.5t-34 -26t-56 -32.5t-77.5 -25.5t-100 -11.5q-145 0 -225 82t-80 224q0 177 116.5 295.5t301.5 118.5q111 0 173.5 -44.5t62.5 -123.5q0 -26 -7 -47t-13 -29l-7 -8q-54 -12 -140 -12l-10 12
q27 33 27 99q0 101 -96 101q-102 0 -168.5 -103.5t-66.5 -256.5q0 -232 171 -232q47 0 98 17l12 79q9 56 7 113h-66zM247 -252l-12 15q7 7 17 19.5t26.5 52t16.5 79.5l-2 33l5 5q24 0 45.5 -3t30.5 -6l10 -3q2 -5 2 -18q0 -32 -14.5 -62t-35 -49.5t-40.5 -34.5t-34 -22z" />
    <glyph glyph-name="gcommaaccent" unicode="&#x123;" horiz-adv-x="569" 
d="M316 -21l4 21l16 103l9 41l-3 4l-8.5 -17t-25 -38t-40 -48t-53 -38t-65.5 -17q-60 0 -92.5 48t-32.5 126q0 140 96 231.5t252 91.5q57 0 97.5 -13t53.5 -26l12 -13l-68 -435l-4 -21q-21 -109 -99.5 -174t-204.5 -65q-83 0 -133.5 29t-50.5 82q0 16 4.5 31.5t9.5 23.5l5 7
q47 12 127 12l10 -12q-19 -31 -19 -68q0 -57 60 -57q50 0 88 52t55 139zM361 259l23 151q-1 3 -3.5 7.5t-14 12t-28.5 7.5q-59 0 -107 -86.5t-48 -191.5q0 -82 36 -82q19 0 43.5 25t46.5 62t33 58t18 35l-18 -109l19 110v1zM515 759l12 -15q-7 -7 -17 -19.5t-27 -52
t-17 -79.5l3 -33l-5 -5q-24 0 -45.5 3t-30.5 6l-10 3q-2 6 -2 18q0 32 14.5 62t35 49.5t40.5 34.5t34 21zM361 259l-1 -2l1 1v1z" />
    <glyph glyph-name="Hcircumflex" unicode="&#x124;" horiz-adv-x="751" 
d="M484 0l52 327h-298l-52 -327h-154l111 700h154l-49 -310h298l49 310h155l-111 -700h-155zM613 767l-10 -8h-51l-83 84l-111 -84h-50l-7 8l164 171h37z" />
    <glyph glyph-name="hcircumflex" unicode="&#x125;" horiz-adv-x="569" 
d="M319 0l56 350q8 50 -26 50q-29 0 -65.5 -46.5t-54 -80.5t-25.5 -54v-1l-34 -218h-148l76 477q11 73 18 138t8 94l1 29l12 12h136q-1 -110 -27 -273l-9 -56l-18 -88l4 -4q3 6 8 17t24 38t41 48t57.5 38t74.5 17q117 0 94 -137l-55 -350h-148zM361 779l-11 -9h-50l-84 84
l-110 -84h-50l-7 9l164 171h37z" />
    <glyph glyph-name="Hbar" unicode="&#x126;" horiz-adv-x="751" 
d="M484 0l52 327h-298l-52 -327h-154l81 510h-56l10 63h56l20 127h154l-20 -127h298l20 127h155l-20 -127h56l-10 -63h-56l-81 -510h-155zM267 510l-19 -120h298l19 120h-298z" />
    <glyph glyph-name="hbar" unicode="&#x127;" horiz-adv-x="573" 
d="M323 0l56 350q8 50 -25 50q-29 0 -65.5 -46t-54.5 -80.5t-26 -54.5v-1l-34 -218h-148l76 477l14 101h-75l5 31l76 29l7 100l12 12h136q-1 -46 -7 -116h152l-10 -56h-148q-9 -72 -14 -101l-9 -56l-18 -88l4 -4q3 6 8 17t24 38t41 48t57.5 38t74.5 17q117 0 94 -137
l-55 -350h-148z" />
    <glyph glyph-name="Itilde" unicode="&#x128;" horiz-adv-x="298" 
d="M32 0l111 700h154l-111 -700h-154zM204 872q25 0 50.5 -18.5t45.5 -18.5t40 10t30 20l10 10l19 -23q-2 -4 -6 -10t-16.5 -22t-26.5 -28t-35.5 -22t-43.5 -10q-25 0 -49.5 18.5t-45.5 18.5q-20 0 -40 -10t-30 -20l-10 -10l-19 23q2 4 6 10t16.5 22t26.5 28t35 22t43 10z
" />
    <glyph glyph-name="itilde" unicode="&#x129;" horiz-adv-x="276" 
d="M153 669q25 0 50 -18t46 -18q20 0 40 9.5t30 19.5l10 10l18 -23q-2 -4 -6 -10t-16.5 -22t-26.5 -28t-35 -22t-43 -10q-25 0 -50 18.5t-45 18.5t-40 -10t-31 -20l-10 -10l-19 23q2 4 6 10t16.5 22t26.5 28t35.5 22t43.5 10zM25 0l48 300l21 165l12 12h135q-4 -77 -20 -177
l-48 -300h-148z" />
    <glyph glyph-name="Imacron" unicode="&#x12a;" horiz-adv-x="298" 
d="M32 0l111 700h154l-111 -700h-154zM102 789l10 62h264l-10 -62h-264z" />
    <glyph glyph-name="imacron" unicode="&#x12b;" horiz-adv-x="276" 
d="M50 586l10 62h264l-10 -62h-264zM25 0l48 300l21 165l12 12h135q-4 -77 -20 -177l-48 -300h-148z" />
    <glyph glyph-name="Ibreve" unicode="&#x12c;" horiz-adv-x="298" 
d="M32 0l111 700h154l-111 -700h-154zM96 864l25 23q5 -6 14 -15t40 -24.5t66 -15.5t69.5 14t51.5 28l16 13l19 -23q-2 -4 -6.5 -11.5t-19.5 -26t-33 -32.5t-47 -25.5t-61 -11.5t-57.5 11t-39.5 26.5t-23 31.5t-12 27z" />
    <glyph glyph-name="ibreve" unicode="&#x12d;" horiz-adv-x="276" 
d="M36 661l26 23q5 -6 14 -15t39.5 -24.5t65.5 -15.5t69.5 13.5t51.5 27.5l16 14l19 -23q-2 -4 -6.5 -11.5t-19.5 -26t-33 -32.5t-47 -25.5t-61 -11.5t-57.5 11t-39.5 27t-23 31.5t-12 26.5zM25 0l48 300l21 165l12 12h135q-4 -77 -20 -177l-48 -300h-148z" />
    <glyph glyph-name="Iogonek" unicode="&#x12e;" horiz-adv-x="298" 
d="M32 0l111 700h154l-111 -700h-40q-6 -5 -14.5 -15t-22.5 -36.5t-14 -49.5q0 -36 34 -36q8 0 15 1.5t10 3.5l4 2l19 -23q-3 -4 -9 -10t-26 -16.5t-43 -10.5q-33 0 -56 19.5t-23 56.5q0 34 20 62.5t40 39.5l20 12h-68z" />
    <glyph glyph-name="iogonek" unicode="&#x12f;" horiz-adv-x="276" 
d="M25 0l48 300l21 165l12 12h135q-4 -77 -20 -177l-48 -300h-30q-6 -5 -14.5 -15t-22.5 -36.5t-14 -49.5q0 -36 34 -36q8 0 15 1.5t11 3.5l3 2l19 -23q-3 -4 -8.5 -10t-26 -16.5t-43.5 -10.5q-33 0 -56 19.5t-23 56.5q0 34 20 62.5t40 39.5l20 12h-72zM105 623
q0 44 29 72.5t73 28.5q34 0 54.5 -20t20.5 -54q0 -44 -29.5 -72.5t-73.5 -28.5q-34 0 -54 20.5t-20 53.5z" />
    <glyph glyph-name="Idotaccent" unicode="&#x130;" horiz-adv-x="298" 
d="M32 0l111 700h154l-111 -700h-154zM152 839q0 41 27.5 68.5t69.5 27.5q34 0 53.5 -19.5t19.5 -52.5q0 -41 -28 -69t-70 -28q-34 0 -53 19.5t-19 53.5z" />
    <glyph glyph-name="dotlessi" unicode="&#x131;" horiz-adv-x="276" 
d="M25 0l48 300l21 165l12 12h135q-4 -77 -20 -177l-48 -300h-148z" />
    <glyph glyph-name="IJ" unicode="&#x132;" horiz-adv-x="620" 
d="M83 325l59 375h155l-59 -375h-155zM263 42q96 0 125 181l76 477h155l-75 -472q-18 -112 -95.5 -175t-198.5 -63q-96 0 -151.5 37.5t-55.5 98.5q0 22 6.5 42.5t13.5 29.5l7 10q51 12 138 12l13 -12q-27 -38 -27 -89q0 -37 18 -57t51 -20z" />
    <glyph glyph-name="ij" unicode="&#x133;" horiz-adv-x="551" 
d="M105 623q0 44 29 72.5t73 28.5q34 0 54.5 -20t20.5 -54q0 -44 -29.5 -72.5t-73.5 -28.5q-34 0 -54 20.5t-20 53.5zM25 0l48 300l21 165l12 12h135q-4 -77 -20 -177l-48 -300h-148zM380 623q0 44 29 72.5t73 28.5q34 0 54.5 -20t20.5 -54q0 -44 -29.5 -72.5t-73.5 -28.5
q-34 0 -54 20.5t-20 53.5zM296 -26l53 326q7 44 12 85.5t7 60.5l1 19l12 12h136q-4 -77 -20 -177l-45 -276q-9 -57 -39 -107t-66.5 -81.5t-71 -54.5t-57.5 -33l-24 -10l-20 23q4 3 11 9.5t25.5 28t34 45t30.5 59t21 71.5z" />
    <glyph glyph-name="Jcircumflex" unicode="&#x134;" horiz-adv-x="496" 
d="M263 211l78 489h155l-77 -484q-37 -226 -267 -226q-56 0 -98 13.5t-56 26.5l-13 14q7 40 29 76.5t41 53.5l19 16h11q0 -6 1.5 -16t7 -35.5t13.5 -45t23.5 -35.5t35.5 -16q35 0 59 38.5t38 130.5zM589 773l-11 -9h-50l-84 85l-110 -85h-50l-7 9l164 171h37z" />
    <glyph glyph-name="jcircumflex" unicode="&#x135;" horiz-adv-x="275" 
d="M21 -26l52 326l21 165l12 12h135q-4 -77 -20 -177l-45 -276q-9 -57 -39 -107t-66 -81.5t-71 -54.5t-58 -33l-24 -10l-19 23q4 3 11 9.5t25.5 28t34 45t30.5 59t21 71.5zM335 564l-10 -8h-51l-83 84l-110 -84h-51l-7 8l165 171h37z" />
    <glyph glyph-name="Kcommaaccent" unicode="&#x136;" horiz-adv-x="667" 
d="M32 0l111 700h154l-48 -300h33l290 300h92l-269 -275l103 -226q24 -52 52.5 -98.5t45.5 -67.5l16 -21l-2 -12h-187l-160 337h-24l-53 -337h-154zM204 -252l-12 15q7 7 17 19.5t27 52t17 79.5l-3 33l5 5q24 0 45.5 -3t31.5 -6l10 -3q1 -5 1 -18q0 -32 -14.5 -62
t-34.5 -49.5t-40.5 -34.5t-35.5 -22z" />
    <glyph glyph-name="kcommaaccent" unicode="&#x137;" horiz-adv-x="534" 
d="M363 477h129q6 -6 6 -21q0 -29 -33 -64.5t-118 -95.5l39 -99q16 -41 41.5 -86.5t42.5 -70.5l18 -24l-3 -16h-159l-116 243h-2l-38 -243h-148l76 477q11 71 18 136t8 95l1 30l12 12h136q-2 -115 -27 -273l-29 -182l14 2q130 76 130 143q0 9 -1.5 16.5t-3.5 9.5l-1 3z
M148 -252l-12 15q7 7 17 19.5t26.5 52t16.5 79.5l-3 33l6 5q24 0 45.5 -3t31.5 -6l9 -3q2 -5 2 -18q0 -32 -14.5 -62t-34.5 -49.5t-40.5 -34.5t-35.5 -22z" />
    <glyph glyph-name="Lacute" unicode="&#x139;" horiz-adv-x="536" 
d="M32 0l111 700h154l-100 -638h111q48 0 89 8t58 16l17 7l10 -12l-13 -81h-437zM171 759l-7 8l102 171q36 0 64 -5.5t38 -10.5l11 -6l-1 -8l-164 -149h-43z" />
    <glyph glyph-name="lacute" unicode="&#x13a;" horiz-adv-x="272" 
d="M22 0l76 477q11 72 18 137.5t8 94.5l1 29l12 12h136q-1 -110 -27 -273l-76 -477h-148zM145 770l-7 9l102 171q36 0 64 -5.5t38 -10.5l11 -6l-1 -9l-164 -149h-43z" />
    <glyph glyph-name="Lcommaaccent" unicode="&#x13b;" horiz-adv-x="536" 
d="M32 0l111 700h154l-100 -638h111q48 0 89 8t58 16l17 7l10 -12l-13 -81h-437zM143 -252l-12 15q7 7 17 19.5t27 52t17 79.5l-3 33l5 5q24 0 46 -3t32 -6l9 -3q2 -5 2 -18q0 -32 -14.5 -62t-35 -49.5t-41 -34.5t-34.5 -22z" />
    <glyph glyph-name="lcommaaccent" unicode="&#x13c;" horiz-adv-x="272" 
d="M22 0l76 477q11 72 18 137.5t8 94.5l1 29l12 12h136q-1 -110 -27 -273l-76 -477h-148zM2 -252l-12 15q7 7 17 19.5t27 52t17 79.5l-3 33l5 5q24 0 46 -3t31 -6l10 -3q1 -5 1 -18q0 -32 -14.5 -62t-34.5 -49.5t-40.5 -34.5t-35.5 -22z" />
    <glyph glyph-name="Lcaron" unicode="&#x13d;" horiz-adv-x="536" 
d="M32 0l111 700h154l-100 -638h111q48 0 89 8t58 16l17 7l10 -12l-13 -81h-437zM398 506l-12 15q7 7 17 19.5t27 52t17 79.5l-3 33l5 5q24 0 45.5 -3t31.5 -6l10 -3q1 -6 1 -19q0 -32 -14.5 -62t-34.5 -49t-40.5 -34t-35.5 -22z" />
    <glyph glyph-name="lcaron" unicode="&#x13e;" horiz-adv-x="413" 
d="M22 0l76 477q11 72 18 137.5t8 94.5l1 29l12 12h136q-1 -110 -27 -273l-76 -477h-148zM320 556l-12 15q7 7 17 19.5t26.5 52t16.5 79.5l-3 33l6 5q24 0 45.5 -3t31.5 -6l9 -3q2 -6 2 -19q0 -32 -14.5 -62t-34.5 -49t-40.5 -34t-35.5 -22z" />
    <glyph glyph-name="Ldot" unicode="&#x13f;" horiz-adv-x="536" 
d="M32 0l111 700h154l-100 -638h111q48 0 89 8t58 16l17 7l10 -12l-13 -81h-437zM352 338q0 39 26 64.5t65 25.5q32 0 50 -17.5t18 -48.5q0 -40 -26 -65.5t-65 -25.5q-32 0 -50 18t-18 49z" />
    <glyph glyph-name="ldot" unicode="&#x140;" horiz-adv-x="447" 
d="M22 0l76 477q11 72 18 137.5t8 94.5l1 29l12 12h136q-1 -110 -27 -273l-76 -477h-148zM287 313q0 39 26 64.5t65 25.5q32 0 50 -17.5t18 -48.5q0 -40 -26 -65.5t-65 -25.5q-31 0 -49.5 18t-18.5 49z" />
    <glyph glyph-name="Lslash" unicode="&#x141;" horiz-adv-x="553" 
d="M21 251l-17 42l100 53l56 354h155l-41 -264l87 47l18 -42l-114 -61l-50 -318h111q48 0 89 8t58 16l17 7l10 -12l-13 -81h-437l45 290z" />
    <glyph glyph-name="lslash" unicode="&#x142;" horiz-adv-x="300" 
d="M21 251l-17 42l86 43l22 141q12 73 19 138t8 94l1 29l12 12h136q-2 -110 -27 -273l-9 -58l58 30l17 -42l-84 -43l-59 -364h-148l45 281z" />
    <glyph glyph-name="Nacute" unicode="&#x143;" horiz-adv-x="702" 
d="M32 0l67 420q13 80 16.5 147t0.5 94l-2 27l14 12h53l372 -456l72 456h76l-111 -700h-45l-372 454l-72 -454h-69zM382 759l-7 8l101 171q36 0 64 -5.5t38 -10.5l11 -6l-1 -8l-163 -149h-43z" />
    <glyph glyph-name="nacute" unicode="&#x144;" horiz-adv-x="572" 
d="M323 0l56 350q8 50 -26 50q-29 0 -65.5 -46t-54.5 -80.5t-26 -54.5v-1l-34 -218h-148l48 300q7 44 8.5 85.5t-0.5 60.5l-2 19l12 12h136q1 -5 3 -13.5t4 -36.5t-4 -53l-7 -41l3 -4q3 6 8 17t24 38t41 48t57.5 38t74.5 17q116 0 95 -137l-55 -350h-148zM265 556l-7 8
l102 171q36 0 64 -5.5t38 -11.5l11 -5l-1 -8l-163 -149h-44z" />
    <glyph glyph-name="Ncommaaccent" unicode="&#x145;" horiz-adv-x="702" 
d="M32 0l67 420q13 80 16.5 147t0.5 94l-2 27l14 12h53l372 -456l72 456h76l-111 -700h-45l-372 454l-72 -454h-69zM222 -252l-12 15q7 7 17 19.5t26.5 52t16.5 79.5l-2 33l5 5q24 0 45.5 -3t31.5 -6l9 -3q2 -5 2 -18q0 -32 -14.5 -62t-34.5 -49.5t-40.5 -34.5t-35.5 -22z
" />
    <glyph glyph-name="ncommaaccent" unicode="&#x146;" horiz-adv-x="572" 
d="M323 0l56 350q8 50 -26 50q-29 0 -65.5 -46t-54.5 -80.5t-26 -54.5v-1l-34 -218h-148l48 300q7 44 8.5 85.5t-0.5 60.5l-2 19l12 12h136q1 -5 3 -13.5t4 -36.5t-4 -53l-7 -41l3 -4q3 6 8 17t24 38t41 48t57.5 38t74.5 17q116 0 95 -137l-55 -350h-148zM155 -252l-12 15
q7 7 17 19.5t27 52t17 79.5l-3 33l5 5q24 0 46 -3t32 -6l9 -3q1 -5 1 -18q0 -32 -14.5 -62t-34.5 -49.5t-40.5 -34.5t-34.5 -22z" />
    <glyph glyph-name="Ncaron" unicode="&#x147;" horiz-adv-x="702" 
d="M32 0l67 420q13 80 16.5 147t0.5 94l-2 27l14 12h53l372 -456l72 456h76l-111 -700h-45l-372 454l-72 -454h-69zM607 933l6 -8l-164 -171h-37l-111 171l10 8h51l84 -84l110 84h51z" />
    <glyph glyph-name="ncaron" unicode="&#x148;" horiz-adv-x="572" 
d="M323 0l56 350q8 50 -26 50q-29 0 -65.5 -46t-54.5 -80.5t-26 -54.5v-1l-34 -218h-148l48 300q7 44 8.5 85.5t-0.5 60.5l-2 19l12 12h136q1 -5 3 -13.5t4 -36.5t-4 -53l-7 -41l3 -4q3 6 8 17t24 38t41 48t57.5 38t74.5 17q116 0 95 -137l-55 -350h-148zM485 730l7 -8
l-164 -171h-37l-111 171l10 8h51l83 -84l111 84h50z" />
    <glyph glyph-name="Eng" unicode="&#x14a;" horiz-adv-x="702" 
d="M32 0l67 420q13 81 16.5 148t0.5 94l-2 26l14 12h53l371 -459l73 459h76l-116 -734q-18 -112 -76.5 -169t-165.5 -57q-53 0 -93.5 13.5t-55.5 26.5l-14 14q7 40 29.5 76.5t41.5 53.5l19 16h11q0 -6 1 -16t6.5 -35.5t13.5 -45t23 -35.5t35 -16q35 0 59 38t39 131l17 110
l-302 383l-72 -454h-69z" />
    <glyph glyph-name="eng" unicode="&#x14b;" horiz-adv-x="572" 
d="M319 -26l60 376q8 50 -26 50q-22 0 -49 -26.5t-48.5 -63.5t-33.5 -60.5t-15 -31.5l-34 -218h-148l48 300q7 44 8.5 85.5t-0.5 60.5l-2 19l12 12h136q1 -5 3 -13.5t4 -36.5t-4 -53l-7 -41l3 -4q3 6 8 17t24 38t41 48t57.5 38t74.5 17q116 0 95 -137l-51 -326
q-9 -57 -39 -107t-66.5 -81.5t-71.5 -54.5t-58 -33l-24 -10l-19 23q4 3 11 9.5t25.5 28t34 45t30.5 59t21 71.5z" />
    <glyph glyph-name="Omacron" unicode="&#x14c;" horiz-adv-x="780" 
d="M52 295q0 176 117.5 295.5t289.5 119.5q140 0 219.5 -82t79.5 -223q0 -176 -117 -295.5t-290 -119.5q-139 0 -219 82.5t-80 222.5zM221 268q0 -226 137 -226q98 0 165 112t67 278q0 226 -139 226q-98 0 -164 -112t-66 -278zM343 789l10 62h264l-10 -62h-264z" />
    <glyph glyph-name="omacron" unicode="&#x14d;" horiz-adv-x="565" 
d="M27 203q0 121 84 202.5t206 81.5q101 0 159 -57t58 -155q0 -121 -84 -203t-207 -82q-101 0 -158.5 57.5t-57.5 155.5zM187 152q0 -54 17 -84t48 -30q33 0 62.5 49t44.5 115t15 124q0 53 -17 83t-48 30q-33 0 -62.5 -49t-44.5 -114.5t-15 -123.5zM196 586l10 62h264
l-10 -62h-264z" />
    <glyph glyph-name="Obreve" unicode="&#x14e;" horiz-adv-x="780" 
d="M52 295q0 176 117.5 295.5t289.5 119.5q140 0 219.5 -82t79.5 -223q0 -176 -117 -295.5t-290 -119.5q-139 0 -219 82.5t-80 222.5zM221 268q0 -226 137 -226q98 0 165 112t67 278q0 226 -139 226q-98 0 -164 -112t-66 -278zM336 864l26 23q5 -6 14 -15t39.5 -24.5
t65.5 -15.5t69.5 14t51.5 28l16 13l19 -23q-2 -4 -6.5 -11.5t-19.5 -26t-33 -32.5t-47 -25.5t-61 -11.5t-57.5 11t-39.5 26.5t-23 31.5t-12 27z" />
    <glyph glyph-name="obreve" unicode="&#x14f;" horiz-adv-x="565" 
d="M27 203q0 121 84 202.5t206 81.5q101 0 159 -57t58 -155q0 -121 -84 -203t-207 -82q-101 0 -158.5 57.5t-57.5 155.5zM187 152q0 -54 17 -84t48 -30q33 0 62.5 49t44.5 115t15 124q0 53 -17 83t-48 30q-33 0 -62.5 -49t-44.5 -114.5t-15 -123.5zM182 661l26 23
q5 -6 14 -15t39.5 -24.5t65.5 -15.5t69.5 13.5t51.5 27.5l16 14l19 -23q-2 -4 -6.5 -11.5t-19.5 -26t-33 -32.5t-47 -25.5t-61 -11.5t-57.5 11t-39.5 27t-23 31.5t-12 26.5z" />
    <glyph glyph-name="Ohungarumlaut" unicode="&#x150;" horiz-adv-x="780" 
d="M52 295q0 176 117.5 295.5t289.5 119.5q140 0 219.5 -82t79.5 -223q0 -176 -117 -295.5t-290 -119.5q-139 0 -219 82.5t-80 222.5zM221 268q0 -226 137 -226q98 0 165 112t67 278q0 226 -139 226q-98 0 -164 -112t-66 -278zM332 759l-7 8l98 171q36 0 64.5 -5.5
t38.5 -10.5l10 -6l-1 -8l-160 -149h-43zM504 759l-7 8l114 171q36 0 62.5 -5.5t35.5 -10.5l9 -6l-1 -8l-170 -149h-43z" />
    <glyph glyph-name="ohungarumlaut" unicode="&#x151;" horiz-adv-x="565" 
d="M27 203q0 121 84 202.5t206 81.5q101 0 159 -57t58 -155q0 -121 -84 -203t-207 -82q-101 0 -158.5 57.5t-57.5 155.5zM187 152q0 -54 17 -84t48 -30q33 0 62.5 49t44.5 115t15 124q0 53 -17 83t-48 30q-33 0 -62.5 -49t-44.5 -114.5t-15 -123.5zM173 556l-6 8l97 171
q36 0 64.5 -5.5t38.5 -11.5l10 -5l-1 -8l-159 -149h-44zM346 556l-7 8l113 171q36 0 63 -5.5t36 -11.5l9 -5l-1 -8l-170 -149h-43z" />
    <glyph glyph-name="OE" unicode="&#x152;" horiz-adv-x="1004" 
d="M467 0l2 17q-63 -27 -130 -27q-129 0 -208 83.5t-79 223.5q0 115 55 210.5t146.5 149t196.5 53.5q73 0 125 -29l3 19h442l-13 -81l-14 -12q-46 31 -154 31h-116l-39 -248h219l7 -9l-8 -54h-228l-42 -265h126q48 0 89 8t58 16l17 7l9 -12l-12 -81h-452zM356 42
q76 0 131 85l71 446q-29 85 -105 85q-99 0 -165.5 -112t-66.5 -278q0 -112 35 -169t100 -57z" />
    <glyph glyph-name="oe" unicode="&#x153;" horiz-adv-x="840" 
d="M770 111l19 -23q-3 -4 -8.5 -10.5t-26 -23.5t-43.5 -30t-61 -23.5t-79 -10.5q-107 0 -151 71q-74 -71 -180 -71q-97 0 -155 58.5t-58 155.5q0 120 85 201.5t202 81.5q106 0 156 -73q73 73 197 73q81 0 119 -30.5t38 -75.5q0 -72 -84.5 -119.5t-211.5 -52.5v-2
q0 -74 25 -107t82 -33q35 0 69 11t50 22zM187 152q0 -54 17 -84t48 -30q33 0 62.5 49t44.5 115t15 124q0 53 -17 83t-48 30q-33 0 -62.5 -49t-44.5 -114.5t-15 -123.5zM651 439q-43 0 -77 -51t-43 -130q71 6 117.5 38.5t46.5 89.5q0 53 -44 53z" />
    <glyph glyph-name="Racute" unicode="&#x154;" horiz-adv-x="653" 
d="M32 0l111 700h246q116 0 180 -45t64 -130q0 -72 -44.5 -124.5t-124.5 -76.5l52 -147q17 -49 37.5 -91t32.5 -60l12 -18l-9 -8h-169l-106 306h-80l-48 -306h-154zM355 637h-68l-43 -269h68q72 0 115.5 42.5t43.5 113.5q0 113 -116 113zM340 759l-7 8l102 171
q36 0 64.5 -5.5t38.5 -10.5l10 -6l-1 -8l-163 -149h-44z" />
    <glyph glyph-name="racute" unicode="&#x155;" horiz-adv-x="409" 
d="M25 0l48 300q7 44 8.5 85.5t-0.5 60.5l-2 19l12 12h136q1 -5 3 -13.5t4 -36.5t-4 -53l-8 -48l4 -4l4 9q5 9 14 23.5t21 32t28.5 35t34.5 32.5t40.5 24t45.5 9q3 -52 -9 -126l-13 -12q-15 11 -41 11t-53.5 -21t-47 -50.5t-30 -49t-14.5 -28.5v-1l-33 -210h-148zM205 556
l-7 8l101 171q36 0 64.5 -5.5t38.5 -11.5l10 -5l-1 -8l-163 -149h-43z" />
    <glyph glyph-name="Rcommaaccent" unicode="&#x156;" horiz-adv-x="653" 
d="M32 0l111 700h246q116 0 180 -45t64 -130q0 -72 -44.5 -124.5t-124.5 -76.5l52 -147q17 -49 37.5 -91t32.5 -60l12 -18l-9 -8h-169l-106 306h-80l-48 -306h-154zM355 637h-68l-43 -269h68q72 0 115.5 42.5t43.5 113.5q0 113 -116 113zM201 -252l-12 15q7 7 17 19.5
t26.5 52t16.5 79.5l-2 33l5 5q24 0 45.5 -3t30.5 -6l10 -3q2 -5 2 -18q0 -32 -14.5 -62t-35 -49.5t-40.5 -34.5t-34 -22z" />
    <glyph glyph-name="rcommaaccent" unicode="&#x157;" horiz-adv-x="409" 
d="M25 0l48 300q7 44 8.5 85.5t-0.5 60.5l-2 19l12 12h136q1 -5 3 -13.5t4 -36.5t-4 -53l-8 -48l4 -4l4 9q5 9 14 23.5t21 32t28.5 35t34.5 32.5t40.5 24t45.5 9q3 -52 -9 -126l-13 -12q-15 11 -41 11q-34 0 -70 -37.5t-52 -66t-23 -45.5v-1l-33 -210h-148zM6 -252l-12 15
q7 7 17 19.5t26.5 52t16.5 79.5l-2 33l5 5q24 0 45.5 -3t31.5 -6l9 -3q2 -5 2 -18q0 -32 -14.5 -62t-34.5 -49.5t-40.5 -34.5t-35.5 -22z" />
    <glyph glyph-name="Rcaron" unicode="&#x158;" horiz-adv-x="653" 
d="M32 0l111 700h246q116 0 180 -45t64 -130q0 -72 -44.5 -124.5t-124.5 -76.5l52 -147q17 -49 37.5 -91t32.5 -60l12 -18l-9 -8h-169l-106 306h-80l-48 -306h-154zM355 637h-68l-43 -269h68q72 0 115.5 42.5t43.5 113.5q0 113 -116 113zM574 933l7 -8l-164 -171h-37
l-111 171l10 8h51l84 -84l110 84h50z" />
    <glyph glyph-name="rcaron" unicode="&#x159;" horiz-adv-x="409" 
d="M25 0l48 300q7 44 8.5 85.5t-0.5 60.5l-2 19l12 12h136q1 -5 3 -13.5t4 -36.5t-4 -53l-8 -48l4 -4l4 9q5 9 14 23.5t21 32t28.5 35t34.5 32.5t40.5 24t45.5 9q3 -52 -9 -126l-13 -12q-15 11 -41 11t-53.5 -21t-47 -50.5t-30 -49t-14.5 -28.5v-1l-33 -210h-148zM424 730
l7 -8l-165 -171h-37l-110 171l10 8h50l84 -84l110 84h51z" />
    <glyph glyph-name="Sacute" unicode="&#x15a;" horiz-adv-x="604" 
d="M338 658q-46 0 -72.5 -25t-26.5 -63q0 -33 26 -61t116 -98q106 -84 138 -122.5t32 -93.5q0 -92 -71.5 -148.5t-217.5 -56.5q-53 0 -98.5 8t-72 19.5t-45.5 23t-26 19.5l-7 8q4 27 16 52.5t26 43t27.5 31.5t22.5 21l9 6h16q2 -7 5.5 -19.5t16.5 -43.5t29.5 -54.5t45 -43
t61.5 -19.5q49 0 82 27.5t33 67.5q0 20 -8.5 37.5t-33 39t-44 36t-65.5 45.5q-89 60 -123 102t-34 105q0 96 71.5 152t208.5 56q72 0 126 -15.5t73 -30.5l18 -16q-7 -43 -32 -82t-46 -56l-22 -18h-15q-1 7 -3.5 18t-13 39.5t-24.5 50.5t-40 40t-58 18zM323 759l-7 8l102 171
q36 0 64 -5.5t38 -10.5l11 -6l-1 -8l-164 -149h-43z" />
    <glyph glyph-name="sacute" unicode="&#x15b;" horiz-adv-x="480" 
d="M188 378q0 -25 24 -43.5t91 -54.5q69 -38 98 -67t29 -76q0 -66 -58.5 -106.5t-174.5 -40.5q-88 0 -138 26t-50 78q0 15 4.5 29.5t8.5 21.5l5 7q46 13 121 13l11 -13q-18 -22 -18 -55q0 -59 67 -59q39 0 61.5 19.5t22.5 46.5q0 26 -26 45t-93 51q-31 15 -48 25t-36 27
t-27.5 38t-8.5 49q0 67 55 107.5t168 40.5q173 0 173 -102q0 -15 -4 -28.5t-8 -19.5l-4 -6q-45 -13 -120 -13l-10 13q14 18 14 52q0 56 -57 56q-34 0 -53 -18t-19 -43zM220 556l-6 8l101 171q36 0 64.5 -5.5t38.5 -11.5l10 -5l-1 -8l-163 -149h-44z" />
    <glyph glyph-name="Scircumflex" unicode="&#x15c;" horiz-adv-x="604" 
d="M338 658q-46 0 -72.5 -25t-26.5 -63q0 -33 26 -61t116 -98q106 -84 138 -122.5t32 -93.5q0 -92 -71.5 -148.5t-217.5 -56.5q-53 0 -98.5 8t-72 19.5t-45.5 23t-26 19.5l-7 8q4 27 16 52.5t26 43t27.5 31.5t22.5 21l9 6h16q2 -7 5.5 -19.5t16.5 -43.5t29.5 -54.5t45 -43
t61.5 -19.5q49 0 82 27.5t33 67.5q0 20 -8.5 37.5t-33 39t-44 36t-65.5 45.5q-89 60 -123 102t-34 105q0 96 71.5 152t208.5 56q72 0 126 -15.5t73 -30.5l18 -16q-7 -43 -32 -82t-46 -56l-22 -18h-15q-1 7 -3.5 18t-13 39.5t-24.5 50.5t-40 40t-58 18zM543 787l-11 -8h-50
l-84 84l-110 -84h-50l-7 8l164 171h37z" />
    <glyph glyph-name="scircumflex" unicode="&#x15d;" horiz-adv-x="480" 
d="M188 378q0 -25 24 -43.5t91 -54.5q69 -38 98 -67t29 -76q0 -66 -58.5 -106.5t-174.5 -40.5q-88 0 -138 26t-50 78q0 15 4.5 29.5t8.5 21.5l5 7q46 13 121 13l11 -13q-18 -22 -18 -55q0 -59 67 -59q39 0 61.5 19.5t22.5 46.5q0 26 -26 45t-93 51q-31 15 -48 25t-36 27
t-27.5 38t-8.5 49q0 67 55 107.5t168 40.5q173 0 173 -102q0 -15 -4 -28.5t-8 -19.5l-4 -6q-45 -13 -120 -13l-10 13q14 18 14 52q0 56 -57 56q-34 0 -53 -18t-19 -43zM433 564l-10 -8h-51l-83 84l-110 -84h-51l-7 8l165 171h36z" />
    <glyph glyph-name="Scedilla" unicode="&#x15e;" horiz-adv-x="604" 
d="M216 -77l22 68q-48 2 -88.5 10.5t-64.5 19.5t-41.5 21.5t-23.5 17.5l-7 8q4 27 16 52.5t26 43t27.5 31.5t22.5 21l9 6h16q2 -7 5.5 -19.5t16.5 -43.5t29.5 -54.5t45 -43t61.5 -19.5q49 0 82 27.5t33 67.5q0 20 -8.5 37.5t-33 39t-44 36t-65.5 45.5q-89 60 -123 102
t-34 105q0 96 71.5 152t208.5 56q72 0 126 -15.5t73 -30.5l18 -16q-7 -43 -32 -82t-46 -56l-22 -18h-15q-1 7 -3.5 18t-13 39.5t-24.5 50.5t-40 40t-58 18q-46 0 -72.5 -25t-26.5 -63q0 -33 26 -61t116 -98q106 -84 138 -122.5t32 -93.5q0 -88 -66.5 -144.5t-201.5 -60.5
l-13 -40q26 0 44 -17t18 -45q0 -36 -28 -60.5t-70 -24.5q-17 0 -31 4.5t-22.5 10.5t-14.5 12.5t-8 11.5l-2 4l22 19q11 -17 38 -17q20 0 32 10.5t12 26.5q0 29 -37 29z" />
    <glyph glyph-name="scedilla" unicode="&#x15f;" horiz-adv-x="480" 
d="M159 -77l21 67q-171 5 -171 104q0 15 4.5 29.5t8.5 21.5l5 7q46 13 121 13l11 -13q-18 -22 -18 -55q0 -59 67 -59q39 0 61.5 19.5t22.5 46.5q0 26 -26 45t-93 51q-31 15 -48 25t-36 27t-27.5 38t-8.5 49q0 67 55 107.5t168 40.5q173 0 173 -102q0 -15 -4 -28.5t-8 -19.5
l-4 -6q-45 -13 -120 -13l-10 13q14 18 14 52q0 56 -57 56q-34 0 -53 -18t-19 -43t24 -43.5t91 -54.5q69 -38 98 -67t29 -76q0 -62 -51 -101.5t-153 -44.5l-13 -41q26 0 44 -17t18 -45q0 -36 -28 -60.5t-70 -24.5q-17 0 -31 4.5t-22.5 10.5t-14.5 12.5t-8 11.5l-2 4l22 19
q11 -17 38 -17q20 0 32 10.5t12 26.5q0 29 -38 29z" />
    <glyph glyph-name="Scaron" unicode="&#x160;" horiz-adv-x="604" 
d="M338 658q-46 0 -72.5 -25t-26.5 -63q0 -33 26 -61t116 -98q106 -84 138 -122.5t32 -93.5q0 -92 -71.5 -148.5t-217.5 -56.5q-53 0 -98.5 8t-72 19.5t-45.5 23t-26 19.5l-7 8q4 27 16 52.5t26 43t27.5 31.5t22.5 21l9 6h16q2 -7 5.5 -19.5t16.5 -43.5t29.5 -54.5t45 -43
t61.5 -19.5q49 0 82 27.5t33 67.5q0 20 -8.5 37.5t-33 39t-44 36t-65.5 45.5q-89 60 -123 102t-34 105q0 96 71.5 152t208.5 56q72 0 126 -15.5t73 -30.5l18 -16q-7 -43 -32 -82t-46 -56l-22 -18h-15q-1 7 -3.5 18t-13 39.5t-24.5 50.5t-40 40t-58 18zM558 933l6 -8
l-164 -171h-37l-111 171l10 8h51l84 -84l110 84h51z" />
    <glyph glyph-name="scaron" unicode="&#x161;" horiz-adv-x="480" 
d="M188 378q0 -25 24 -43.5t91 -54.5q69 -38 98 -67t29 -76q0 -66 -58.5 -106.5t-174.5 -40.5q-88 0 -138 26t-50 78q0 15 4.5 29.5t8.5 21.5l5 7q46 13 121 13l11 -13q-18 -22 -18 -55q0 -59 67 -59q39 0 61.5 19.5t22.5 46.5q0 26 -26 45t-93 51q-31 15 -48 25t-36 27
t-27.5 38t-8.5 49q0 67 55 107.5t168 40.5q173 0 173 -102q0 -15 -4 -28.5t-8 -19.5l-4 -6q-45 -13 -120 -13l-10 13q14 18 14 52q0 56 -57 56q-34 0 -53 -18t-19 -43zM440 730l7 -8l-164 -171h-37l-111 171l10 8h51l84 -84l110 84h50z" />
    <glyph glyph-name="Tcommaaccent" unicode="&#x162;" horiz-adv-x="661" 
d="M469 638l-101 -638h-155l101 638h-57q-48 0 -89 -8t-58 -16l-16 -7l-11 12l13 81h611l-13 -81l-14 -12q-45 31 -154 31h-57zM197 -252l-12 15q7 7 17 19.5t26.5 52t16.5 79.5l-3 33l6 5q24 0 45.5 -3t30.5 -6l10 -3q2 -5 2 -18q0 -32 -14.5 -62t-35 -49.5t-40.5 -34.5
t-34 -22z" />
    <glyph glyph-name="tcommaaccent" unicode="&#x163;" horiz-adv-x="378" 
d="M37 422l7 38l90 38l52 117h102l-22 -138h124l-8 -55h-125l-45 -285q-11 -70 51 -70q16 0 29.5 4.5t19.5 8.5l6 5l19 -22q-2 -3 -7 -8t-20.5 -17.5t-33.5 -22t-46 -17.5t-58 -8q-63 0 -92 33.5t-19 94.5l49 304h-73zM82 -252l-12 15q7 7 17 19.5t27 52t17 79.5l-3 33l5 5
q24 0 45.5 -3t31.5 -6l10 -3q1 -5 1 -18q0 -32 -14.5 -62t-34.5 -49.5t-40.5 -34.5t-35.5 -22z" />
    <glyph glyph-name="Tcaron" unicode="&#x164;" horiz-adv-x="661" 
d="M469 638l-101 -638h-155l101 638h-57q-48 0 -89 -8t-58 -16l-16 -7l-11 12l13 81h611l-13 -81l-14 -12q-45 31 -154 31h-57zM586 930l7 -8l-165 -171h-37l-110 171l10 8h50l84 -84l110 84h51z" />
    <glyph glyph-name="tcaron" unicode="&#x165;" horiz-adv-x="440" 
d="M37 422l7 38l90 38l52 117h102l-22 -138h124l-8 -55h-125l-45 -285q-11 -70 51 -70q16 0 29.5 4.5t19.5 8.5l6 5l19 -22q-2 -3 -7 -8t-20.5 -17.5t-33.5 -22t-46 -17.5t-58 -8q-63 0 -92 33.5t-19 94.5l49 304h-73zM356 556l-12 15q7 7 17 19.5t26.5 52t16.5 79.5l-3 33
l6 5q24 0 45.5 -3t31.5 -6l9 -3q2 -6 2 -19q0 -32 -14.5 -62t-34.5 -49t-40.5 -34t-35.5 -22z" />
    <glyph glyph-name="Tbar" unicode="&#x166;" horiz-adv-x="661" 
d="M157 338l10 63h109l38 237h-57q-48 0 -89 -8t-58 -16l-16 -7l-11 12l13 81h611l-13 -81l-14 -12q-45 31 -154 31h-57l-38 -237h109l-10 -63h-109l-53 -338h-155l53 338h-109z" />
    <glyph glyph-name="tbar" unicode="&#x167;" horiz-adv-x="378" 
d="M12 262l8 56h73l17 104h-73l6 38l91 38l52 117h102l-22 -138h124l-8 -55h-125l-17 -104h125l-9 -56h-125l-19 -125q-11 -70 51 -70q16 0 29.5 4.5t19.5 8.5l6 5l19 -22q-2 -3 -7 -8t-20.5 -17.5t-33.5 -22t-46 -17.5t-58 -8q-63 0 -92 33.5t-19 94.5l23 144h-72z" />
    <glyph glyph-name="Utilde" unicode="&#x168;" horiz-adv-x="696" 
d="M558 253l71 447h69l-71 -445q-18 -120 -104 -192.5t-217 -72.5t-193.5 72.5t-43.5 192.5l71 445h155l-74 -469q-13 -80 24.5 -128t109.5 -48q77 0 132.5 53.5t70.5 144.5zM411 872q25 0 50 -18.5t45 -18.5t40 10t30 20l11 10l18 -23q-2 -4 -6 -10t-16.5 -22t-26.5 -28
t-35 -22t-43 -10q-25 0 -50 18.5t-46 18.5q-20 0 -40 -10t-30 -20l-10 -10l-19 23q2 4 6 10t16.5 22t26.5 28t35.5 22t43.5 10z" />
    <glyph glyph-name="utilde" unicode="&#x169;" horiz-adv-x="575" 
d="M105 477h136q-4 -77 -20 -177l-27 -173q-8 -50 25 -50q28 0 64 45.5t53.5 79.5t26.5 55l1 2l32 206l12 12h138l-48 -300q-7 -44 -8.5 -85.5t0.5 -60.5l3 -19l-13 -12h-135q-2 5 -3.5 13.5t-4 36.5t3.5 53l7 41l-3 4q-3 -6 -8 -17t-24 -38t-41 -48t-57.5 -38t-73.5 -17
q-115 0 -94 137l27 173q7 44 12 85.5t6 60.5l1 19zM304 669q25 0 50 -18t46 -18q20 0 40 9.5t30 19.5l10 10l18 -23q-2 -4 -6 -10t-16.5 -22t-26.5 -28t-35 -22t-43 -10q-25 0 -50 18.5t-45 18.5t-40 -10t-30 -20l-10 -10l-20 23q2 4 6 10t17 22t27 28t35 22t43 10z" />
    <glyph glyph-name="Umacron" unicode="&#x16a;" horiz-adv-x="696" 
d="M558 253l71 447h69l-71 -445q-18 -120 -104 -192.5t-217 -72.5t-193.5 72.5t-43.5 192.5l71 445h155l-74 -469q-13 -80 24.5 -128t109.5 -48q77 0 132.5 53.5t70.5 144.5zM308 789l10 62h264l-10 -62h-264z" />
    <glyph glyph-name="umacron" unicode="&#x16b;" horiz-adv-x="575" 
d="M105 477h136q-4 -77 -20 -177l-27 -173q-8 -50 25 -50q28 0 64 45.5t53.5 79.5t26.5 55l-18 -109l19 110v1l32 206l12 12h138l-48 -300q-7 -44 -8.5 -85.5t0.5 -60.5l3 -19l-13 -12h-135q-2 5 -3.5 13.5t-4 36.5t3.5 53l7 41l-3 4q-3 -6 -8 -17t-24 -38t-41 -48
t-57.5 -38t-73.5 -17q-115 0 -94 137l27 173q7 44 12 85.5t6 60.5l1 19zM200 586l10 62h264l-10 -62h-264zM364 259l-1 -2l1 1v1z" />
    <glyph glyph-name="Ubreve" unicode="&#x16c;" horiz-adv-x="696" 
d="M558 253l71 447h69l-71 -445q-18 -120 -104 -192.5t-217 -72.5t-193.5 72.5t-43.5 192.5l71 445h155l-74 -469q-13 -80 24.5 -128t109.5 -48q77 0 132.5 53.5t70.5 144.5zM301 864l26 23q5 -6 14 -15t40 -24.5t66 -15.5t69 14t51 28l17 13l19 -23q-2 -4 -6.5 -11.5
t-20 -26t-33 -32.5t-47 -25.5t-61.5 -11.5t-57.5 11t-39.5 26.5t-23 31.5t-11 27z" />
    <glyph glyph-name="ubreve" unicode="&#x16d;" horiz-adv-x="575" 
d="M105 477h136q-4 -77 -20 -177l-27 -173q-8 -50 25 -50q28 0 64 45.5t53.5 79.5t26.5 55l1 2l32 206l12 12h138l-48 -300q-7 -44 -8.5 -85.5t0.5 -60.5l3 -19l-13 -12h-135q-2 5 -3.5 13.5t-4 36.5t3.5 53l7 41l-3 4q-3 -6 -8 -17t-24 -38t-41 -48t-57.5 -38t-73.5 -17
q-115 0 -94 137l27 173q7 44 12 85.5t6 60.5l1 19zM187 661l26 23q5 -6 14 -15t40 -24.5t66 -15.5t69 13.5t50 27.5l17 14l20 -23q-2 -4 -6.5 -11.5t-20 -26t-33 -32.5t-47 -25.5t-61.5 -11.5t-57.5 11t-39.5 27t-23 31.5t-11 26.5z" />
    <glyph glyph-name="Uring" unicode="&#x16e;" horiz-adv-x="696" 
d="M558 253l71 447h69l-71 -445q-18 -120 -104 -192.5t-217 -72.5t-193.5 72.5t-43.5 192.5l71 445h155l-74 -469q-13 -80 24.5 -128t109.5 -48q77 0 132.5 53.5t70.5 144.5zM357 828q0 45 30.5 75.5t75.5 30.5q36 0 56.5 -21t20.5 -57q0 -45 -30.5 -75.5t-75.5 -30.5
q-36 0 -56.5 21t-20.5 57zM414 836q0 -31 29 -31q17 0 28.5 12.5t11.5 29.5q0 31 -29 31q-18 0 -29 -12t-11 -30z" />
    <glyph glyph-name="uring" unicode="&#x16f;" horiz-adv-x="575" 
d="M105 477h136q-4 -77 -20 -177l-27 -173q-8 -50 25 -50q28 0 64 45.5t53.5 79.5t26.5 55l1 2l32 206l12 12h138l-48 -300q-7 -44 -8.5 -85.5t0.5 -60.5l3 -19l-13 -12h-135q-2 5 -3.5 13.5t-4 36.5t3.5 53l7 41l-3 4q-3 -6 -8 -17t-24 -38t-41 -48t-57.5 -38t-73.5 -17
q-115 0 -94 137l27 173q7 44 12 85.5t6 60.5l1 19zM246 625q0 46 30.5 76t75.5 30q36 0 56 -21t20 -57q0 -45 -30 -75.5t-75 -30.5q-36 0 -56.5 21t-20.5 57zM303 633q0 -31 29 -31q17 0 28.5 12.5t11.5 29.5q0 31 -29 31q-18 0 -29 -12t-11 -30z" />
    <glyph glyph-name="Uhungarumlaut" unicode="&#x170;" horiz-adv-x="696" 
d="M558 253l71 447h69l-71 -445q-18 -120 -104 -192.5t-217 -72.5t-193.5 72.5t-43.5 192.5l71 445h155l-74 -469q-13 -80 24.5 -128t109.5 -48q77 0 132.5 53.5t70.5 144.5zM297 759l-7 8l98 171q36 0 64 -5.5t38 -10.5l11 -6l-1 -8l-160 -149h-43zM469 759l-7 8l114 171
q36 0 63 -5.5t35 -10.5l9 -6l-1 -8l-170 -149h-43z" />
    <glyph glyph-name="uhungarumlaut" unicode="&#x171;" horiz-adv-x="575" 
d="M105 477h136q-4 -77 -20 -177l-27 -173q-8 -50 25 -50q28 0 64 45.5t53.5 79.5t26.5 55l1 2l32 206l12 12h138l-48 -300q-7 -44 -8.5 -85.5t0.5 -60.5l3 -19l-13 -12h-135q-2 5 -3.5 13.5t-4 36.5t3.5 53l7 41l-3 4q-3 -6 -8 -17t-24 -38t-41 -48t-57.5 -38t-73.5 -17
q-115 0 -94 137l27 173q7 44 12 85.5t6 60.5l1 19zM178 556l-7 8l98 171q36 0 64.5 -5.5t38.5 -11.5l10 -5l-1 -8l-160 -149h-43zM350 556l-7 8l114 171q36 0 62.5 -5.5t35.5 -11.5l9 -5l-1 -8l-170 -149h-43z" />
    <glyph glyph-name="Uogonek" unicode="&#x172;" horiz-adv-x="696" 
d="M558 253l71 447h69l-71 -445q-15 -98 -77 -166t-158 -90q-51 -51 -51 -100q0 -36 35 -36q8 0 15 1.5t10 3.5l3 2l20 -23q-3 -4 -9 -10t-26 -16.5t-43 -10.5q-34 0 -57 19.5t-23 56.5q0 65 64 105q-4 0 -12 -0.5t-12 -0.5q-131 0 -193.5 72.5t-43.5 192.5l71 445h155
l-74 -469q-13 -80 24.5 -128t109.5 -48q77 0 132.5 53.5t70.5 144.5z" />
    <glyph glyph-name="uogonek" unicode="&#x173;" horiz-adv-x="575" 
d="M105 477h136q-4 -77 -20 -177l-27 -173q-8 -50 25 -50q28 0 64 45.5t53.5 79.5t26.5 55l1 2l32 206l12 12h138l-48 -300q-7 -44 -8.5 -85.5t0.5 -60.5l3 -19l-13 -12h-13q-50 -50 -50 -100q0 -36 34 -36q8 0 15.5 2t10.5 4l3 1l19 -23q-3 -4 -8.5 -10t-26 -16.5
t-43.5 -10.5q-33 0 -56 19.5t-23 57.5q0 31 18 58t32.5 38t26.5 16h-74q-2 5 -3.5 13.5t-4 36.5t3.5 53l7 41l-3 4q-3 -6 -8 -17t-24 -38t-41 -48t-57.5 -38t-73.5 -17q-115 0 -94 137l27 173q7 44 12 85.5t6 60.5l1 19z" />
    <glyph glyph-name="Wcircumflex" unicode="&#x174;" horiz-adv-x="1040" 
d="M632 21l-68 393l-197 -414h-113l-18 21l-103 502q-10 50 -22.5 91t-20.5 57l-7 16l2 13h175l110 -544l174 372q-9 48 -19.5 88t-16.5 56l-7 15l2 13h175l91 -536l253 536h76l-336 -700h-112zM776 767l-10 -8h-51l-83 84l-111 -84h-50l-7 8l165 171h36z" />
    <glyph glyph-name="wcircumflex" unicode="&#x175;" horiz-adv-x="766" 
d="M434 21l-30 185q-44 -79 -129 -206h-96l-19 21l-61 279q-11 51 -26 93.5t-24 58.5l-9 17l9 8h154l77 -346q79 133 99 219q-8 36 -18 65.5t-16 41.5l-6 12l8 8h148l59 -348q110 172 108 280q0 19 -3 34t-5 21l-3 5l8 8h100q6 -10 7 -38q1 -63 -46.5 -163t-173.5 -276h-94z
M596 564l-10 -8h-51l-83 84l-110 -84h-51l-7 8l165 171h36z" />
    <glyph glyph-name="Ycircumflex" unicode="&#x176;" horiz-adv-x="658" 
d="M714 700l-289 -374l-51 -326h-155l50 316l-78 172q-25 55 -52 104.5t-42 71.5l-15 23l2 13h191l132 -290l223 290h84zM573 767l-10 -8h-51l-83 84l-111 -84h-50l-7 8l165 171h36z" />
    <glyph glyph-name="ycircumflex" unicode="&#x177;" horiz-adv-x="516" 
d="M-38 -260q-14 0 -29 4t-23 8l-8 3q0 38 10 70.5t20 46.5l9 13q26 -15 59 -15q72 0 176 106l-77 324q-12 52 -26 94t-21 58l-8 17l8 8h155l75 -370q120 181 120 305q0 17 -2 31t-4 20l-3 6l9 8h99q6 -13 6 -35q0 -58 -59 -176t-141 -234t-179.5 -204t-165.5 -88zM468 564
l-10 -8h-51l-83 84l-110 -84h-51l-7 8l165 171h37z" />
    <glyph glyph-name="Ydieresis" unicode="&#x178;" horiz-adv-x="658" 
d="M714 700l-289 -374l-51 -326h-155l50 316l-78 172q-25 55 -52 104.5t-42 71.5l-15 23l2 13h191l132 -290l223 290h84zM255 813q0 32 21.5 52.5t53.5 20.5q26 0 40.5 -14.5t14.5 -40.5q0 -31 -21 -52t-53 -21q-26 0 -41 14.5t-15 40.5zM465 813q0 32 21.5 52.5t53.5 20.5
q26 0 40.5 -14.5t14.5 -40.5q0 -31 -21 -52t-53 -21q-26 0 -41 14.5t-15 40.5z" />
    <glyph glyph-name="Zacute" unicode="&#x179;" horiz-adv-x="646" 
d="M7 29l463 609h-191q-48 0 -89 -8t-58 -16l-16 -7l-10 12l12 81h560l-4 -29l-462 -609h197q48 0 89 8t58 16l17 7l10 -12l-13 -81h-568zM354 759l-7 8l102 171q36 0 64.5 -5.5t38.5 -10.5l10 -6l-1 -8l-164 -149h-43z" />
    <glyph glyph-name="zacute" unicode="&#x17a;" horiz-adv-x="488" 
d="M-2 29l294 389h-57q-48 0 -88.5 -7.5t-57.5 -14.5l-17 -8l-11 12l13 77h415l-5 -29l-294 -389h65q48 0 88.5 7.5t57.5 15.5l17 7l10 -12l-12 -77h-423zM227 556l-7 8l101 171q36 0 64.5 -5.5t38.5 -11.5l10 -5l-1 -8l-163 -149h-43z" />
    <glyph glyph-name="Zdotaccent" unicode="&#x17b;" horiz-adv-x="646" 
d="M7 29l463 609h-191q-48 0 -89 -8t-58 -16l-16 -7l-10 12l12 81h560l-4 -29l-462 -609h197q48 0 89 8t58 16l17 7l10 -12l-13 -81h-568zM344 827q0 35 23.5 58.5t58.5 23.5q29 0 45.5 -16.5t16.5 -44.5q0 -35 -24 -58.5t-59 -23.5q-28 0 -44.5 16.5t-16.5 44.5z" />
    <glyph glyph-name="zdotaccent" unicode="&#x17c;" horiz-adv-x="488" 
d="M-2 29l294 389h-57q-48 0 -88.5 -7.5t-57.5 -14.5l-17 -8l-11 12l13 77h415l-5 -29l-294 -389h65q48 0 88.5 7.5t57.5 15.5l17 7l10 -12l-12 -77h-423zM224 610q0 35 24 58.5t59 23.5q28 0 44.5 -16.5t16.5 -44.5q0 -35 -23.5 -58.5t-58.5 -23.5q-29 0 -45.5 16.5
t-16.5 44.5z" />
    <glyph glyph-name="Zcaron" unicode="&#x17d;" horiz-adv-x="646" 
d="M7 29l463 609h-191q-48 0 -89 -8t-58 -16l-16 -7l-10 12l12 81h560l-4 -29l-462 -609h197q48 0 89 8t58 16l17 7l10 -12l-13 -81h-568zM579 933l7 -8l-165 -171h-37l-110 171l10 8h50l84 -84l110 84h51z" />
    <glyph glyph-name="zcaron" unicode="&#x17e;" horiz-adv-x="488" 
d="M-2 29l294 389h-57q-48 0 -88.5 -7.5t-57.5 -14.5l-17 -8l-11 12l13 77h415l-5 -29l-294 -389h65q48 0 88.5 7.5t57.5 15.5l17 7l10 -12l-12 -77h-423zM446 730l7 -8l-165 -171h-37l-110 171l10 8h51l83 -84l110 84h51z" />
    <glyph glyph-name="uni018F" unicode="&#x18f;" horiz-adv-x="720" 
d="M43 210q0 33 7 62.5t14 43.5l7 13l15 12h436q3 27 3 57q0 113 -44.5 167.5t-134.5 54.5q-56 0 -109.5 -19t-79.5 -37l-26 -19l-21 24q4 6 11.5 15.5t34.5 33.5t58 43t82.5 34t107.5 15q137 0 216 -82.5t79 -222.5q0 -176 -117 -295.5t-290 -119.5q-119 0 -184 60t-65 160
zM298 42q75 0 134 67.5t82 176.5l-314 -19q-10 -40 -10 -86q0 -139 108 -139z" />
    <glyph glyph-name="florin" unicode="&#x192;" horiz-adv-x="383" 
d="M56 -26l79 449h-79l7 38l82 20l20 114q14 82 61 124.5t122 42.5q44 0 76 -14t42 -28l11 -13l-27 -23q-17 18 -50 18q-68 0 -85 -96l-23 -129h134l-10 -55h-133l-71 -398q-10 -57 -41 -107t-68 -81.5t-73 -54.5t-60 -33l-24 -10l-19 23q4 3 11.5 9.5t27 28t35.5 45
t32.5 59t22.5 71.5z" />
    <glyph glyph-name="uni01DD" unicode="&#x1dd;" horiz-adv-x="504" 
d="M67 366l-19 23q3 4 8.5 10.5t25.5 23.5t43.5 30t61 23.5t78.5 10.5q100 0 154 -56.5t54 -152.5q0 -127 -87.5 -207.5t-218.5 -80.5q-80 0 -118.5 30.5t-38.5 75.5q0 71 84.5 119t211.5 53v3q0 74 -23.5 106.5t-79.5 32.5q-36 0 -70 -11t-50 -22zM183 38q43 0 76.5 50
t43.5 130q-71 -6 -117 -38t-46 -89q0 -53 43 -53z" />
    <glyph glyph-name="Aringacute" unicode="&#x1fa;" horiz-adv-x="696" 
d="M153 186l-99 -186h-77l348 645l-18 43l3 12h31q-6 15 -6 36q0 45 30.5 75.5t75.5 30.5h3l76 128q36 0 64.5 -5.5t38.5 -10.5l10 -6l-1 -9l-132 -121q18 -21 18 -54q0 -48 -35 -81l156 -683h-159l-43 186h-284zM361 523l-9 37l-166 -312h237zM392 744q0 -31 29 -31
q17 0 28.5 12t11.5 30q0 31 -29 31q-18 0 -29 -12t-11 -30z" />
    <glyph glyph-name="aringacute" unicode="&#x1fb;" horiz-adv-x="573" 
d="M536 435l-41 -258q-7 -44 -8.5 -85.5t0.5 -60.5l2 -19l-12 -12h-136q-1 5 -3 13.5t-4 36.5t4 53l7 41l-3 4l-8.5 -17t-25 -38t-40 -48t-53 -38t-65.5 -17q-60 0 -92.5 48t-32.5 126q0 140 96 231.5t252 91.5q57 0 97.5 -13t53.5 -26zM183 159q0 -82 36 -82q19 0 43.5 25
t46.5 62t33 58t18 35l-18 -109l19 110v1l23 151q-1 3 -3.5 7.5t-14 12t-28.5 7.5q-59 0 -107 -86.5t-48 -191.5zM265 598q0 46 30.5 76t74.5 30h5l75 127q36 0 64 -5.5t38 -11.5l11 -5l-1 -8l-133 -121q18 -21 18 -54q0 -45 -30 -75.5t-75 -30.5q-36 0 -56.5 21t-20.5 57z
M322 606q0 -31 29 -31q16 0 28 12.5t12 29.5q0 31 -29 31q-18 0 -29 -12t-11 -30zM361 258v1l-1 -2z" />
    <glyph glyph-name="AEacute" unicode="&#x1fc;" horiz-adv-x="830" 
d="M-23 0l411 700h459l-14 -81l-13 -12q-46 31 -154 31h-117l-39 -248h219l8 -9l-9 -54h-228l-41 -265h125q48 0 89 8t58 16l17 7l10 -12l-13 -81h-451l32 204h-154l-118 -204h-77zM208 266h127l48 302zM436 759l-7 8l101 171q36 0 64.5 -5.5t39.5 -10.5l10 -6l-1 -8
l-164 -149h-43z" />
    <glyph glyph-name="aeacute" unicode="&#x1fd;" horiz-adv-x="792" 
d="M729 111l19 -23q-3 -4 -8.5 -10.5t-25.5 -23.5t-43 -30t-61.5 -23.5t-79.5 -10.5q-125 0 -181 84q-17 -16 -40.5 -32.5t-71.5 -34t-98 -17.5q-126 0 -126 105q0 59 49 100t179 60l80 11l3 13l15 94q11 66 -49 66q-37 0 -59.5 -25.5t-22.5 -70.5l3 -31l-14 -12
q-33 0 -62.5 3t-42.5 6l-12 3q-6 12 -6 32q0 65 61 104t161 39q110 0 144 -51q80 51 180 51q80 0 118.5 -30.5t38.5 -75.5q0 -71 -84.5 -118.5t-211.5 -53.5q0 -75 27 -108.5t85 -33.5q36 0 70 11t50 22zM604 439q-44 0 -78 -51.5t-43 -129.5q71 6 117.5 38.5t46.5 89.5
q0 53 -43 53zM171 124q0 -54 53 -54q50 0 104 47q-14 39 -14 85v12l-65 -9q-78 -13 -78 -81zM395 556l-6 8l101 171q36 0 64 -5.5t38 -11.5l11 -5l-1 -8l-163 -149h-44z" />
    <glyph glyph-name="Oslashacute" unicode="&#x1fe;" horiz-adv-x="779" 
d="M174 -25h-72l54 75q-104 82 -104 245q0 176 117.5 295.5t289.5 119.5q80 0 146 -30l32 45h71l-54 -76q104 -81 104 -244q0 -176 -117 -295.5t-290 -119.5q-82 0 -145 29zM218 270q0 -69 13 -115l321 451q-37 52 -101 52q-99 0 -166 -111t-67 -277zM592 430q0 68 -13 114
l-321 -451q36 -51 100 -51q99 0 166.5 111.5t67.5 276.5zM411 759l-7 8l102 171q36 0 64 -5.5t38 -10.5l11 -6l-1 -8l-164 -149h-43z" />
    <glyph glyph-name="oslashacute" unicode="&#x1ff;" horiz-adv-x="565" 
d="M50 -1l38 45q-61 56 -61 159q0 121 84 202.5t206 81.5q69 0 117 -27l30 36l41 -25l-32 -39q61 -58 61 -157q0 -121 -84 -203t-207 -82q-68 0 -117 26l-35 -42zM309 439q-51 0 -88 -90t-37 -189l185 222q-15 57 -60 57zM251 38q51 0 88.5 89.5t37.5 189.5l-186 -223
q16 -56 60 -56zM262 556l-7 8l101 171q36 0 64 -5.5t38 -11.5l11 -5l-1 -8l-163 -149h-43z" />
    <glyph glyph-name="Scommaaccent" unicode="&#x218;" horiz-adv-x="604" 
d="M338 658q-46 0 -72.5 -25t-26.5 -63q0 -33 26 -61t116 -98q106 -84 138 -122.5t32 -93.5q0 -92 -71.5 -148.5t-217.5 -56.5q-53 0 -98.5 8t-72 19.5t-45.5 23t-26 19.5l-7 8q4 27 16 52.5t26 43t27.5 31.5t22.5 21l9 6h16q2 -7 5.5 -19.5t16.5 -43.5t29.5 -54.5t45 -43
t61.5 -19.5q49 0 82 27.5t33 67.5q0 20 -8.5 37.5t-33 39t-44 36t-65.5 45.5q-89 60 -123 102t-34 105q0 96 71.5 152t208.5 56q72 0 126 -15.5t73 -30.5l18 -16q-7 -43 -32 -82t-46 -56l-22 -18h-15q-1 7 -3.5 18t-13 39.5t-24.5 50.5t-40 40t-58 18zM166 -252l-12 15
q7 7 17 19.5t27 52t17 79.5l-3 33l5 5q24 0 46 -3t31 -6l10 -3q2 -5 2 -18q0 -32 -14.5 -62t-35 -49.5t-41 -34.5t-35.5 -22z" />
    <glyph glyph-name="scommaaccent" unicode="&#x219;" horiz-adv-x="480" 
d="M188 378q0 -25 24 -43.5t91 -54.5q69 -38 98 -67t29 -76q0 -66 -58.5 -106.5t-174.5 -40.5q-88 0 -138 26t-50 78q0 15 4.5 29.5t8.5 21.5l5 7q46 13 121 13l11 -13q-18 -22 -18 -55q0 -59 67 -59q39 0 61.5 19.5t22.5 46.5q0 26 -26 45t-93 51q-31 15 -48 25t-36 27
t-27.5 38t-8.5 49q0 67 55 107.5t168 40.5q173 0 173 -102q0 -15 -4 -28.5t-8 -19.5l-4 -6q-45 -13 -120 -13l-10 13q14 18 14 52q0 56 -57 56q-34 0 -53 -18t-19 -43zM117 -252l-12 15q7 7 17 19.5t26.5 52t16.5 79.5l-2 33l5 5q24 0 45.5 -3t30.5 -6l10 -3q2 -5 2 -18
q0 -32 -14.5 -62t-35 -49.5t-40.5 -34.5t-34 -22z" />
    <glyph glyph-name="uni021A" unicode="&#x21a;" horiz-adv-x="661" 
d="M469 638l-101 -638h-155l101 638h-57q-48 0 -89 -8t-58 -16l-16 -7l-11 12l13 81h611l-13 -81l-14 -12q-45 31 -154 31h-57zM197 -252l-12 15q7 7 17 19.5t26.5 52t16.5 79.5l-3 33l6 5q24 0 45.5 -3t30.5 -6l10 -3q2 -5 2 -18q0 -32 -14.5 -62t-35 -49.5t-40.5 -34.5
t-34 -22z" />
    <glyph glyph-name="uni021B" unicode="&#x21b;" horiz-adv-x="378" 
d="M37 422l7 38l90 38l52 117h102l-22 -138h124l-8 -55h-125l-45 -285q-11 -70 51 -70q16 0 29.5 4.5t19.5 8.5l6 5l19 -22q-2 -3 -7 -8t-20.5 -17.5t-33.5 -22t-46 -17.5t-58 -8q-63 0 -92 33.5t-19 94.5l49 304h-73zM82 -252l-12 15q7 7 17 19.5t27 52t17 79.5l-3 33l5 5
q24 0 45.5 -3t31.5 -6l10 -3q1 -5 1 -18q0 -32 -14.5 -62t-34.5 -49.5t-40.5 -34.5t-35.5 -22z" />
    <glyph glyph-name="dotlessj" unicode="&#x237;" horiz-adv-x="275" 
d="M21 -26l52 326l21 165l12 12h135q-4 -77 -20 -177l-45 -276q-9 -57 -39 -107t-66 -81.5t-71 -54.5t-58 -33l-24 -10l-19 23q4 3 11 9.5t25.5 28t34 45t30.5 59t21 71.5z" />
    <glyph glyph-name="circumflex" unicode="&#x2c6;" horiz-adv-x="387" 
d="M399 564l-10 -8h-51l-83 84l-111 -84h-50l-7 8l164 171h37z" />
    <glyph glyph-name="caron" unicode="&#x2c7;" horiz-adv-x="387" 
d="M417 730l6 -8l-164 -171h-37l-110 171l10 8h50l84 -84l110 84h51z" />
    <glyph glyph-name="breve" unicode="&#x2d8;" horiz-adv-x="403" 
d="M115 661l26 23q5 -6 14 -15t40 -24.5t66 -15.5t69 13.5t51 27.5l17 14l19 -23q-2 -4 -6.5 -11.5t-19.5 -26t-33 -32.5t-47.5 -25.5t-61.5 -11.5t-57.5 11t-39.5 27t-23 31.5t-11 26.5z" />
    <glyph glyph-name="dotaccent" unicode="&#x2d9;" horiz-adv-x="256" 
d="M114 610q0 35 24 58.5t59 23.5q28 0 44.5 -16.5t16.5 -44.5q0 -35 -23.5 -58.5t-58.5 -23.5q-29 0 -45.5 16.5t-16.5 44.5z" />
    <glyph glyph-name="ring" unicode="&#x2da;" horiz-adv-x="244" 
d="M93 625q0 45 30.5 75.5t74.5 30.5q36 0 56.5 -21t20.5 -57q0 -45 -30.5 -75.5t-75.5 -30.5q-36 0 -56 21t-20 57zM149 633q0 -31 29 -31q17 0 28.5 12.5t11.5 29.5q0 31 -29 31q-18 0 -29 -12t-11 -30z" />
    <glyph glyph-name="ogonek" unicode="&#x2db;" horiz-adv-x="239" 
d="M62 0h47q-6 -5 -14.5 -15t-23 -36.5t-14.5 -49.5q0 -36 35 -36q8 0 15 1.5t10 3.5l3 2l20 -23q-3 -4 -9 -10t-26 -16.5t-43 -10.5q-34 0 -57 19.5t-23 56.5q0 34 20 62.5t40 39.5z" />
    <glyph glyph-name="tilde" unicode="&#x2dc;" horiz-adv-x="403" 
d="M225 669q25 0 50.5 -18t45.5 -18t40 9.5t30 19.5l10 10l19 -23q-2 -4 -6 -10t-16.5 -22t-26.5 -28t-35.5 -22t-43.5 -10q-25 0 -50 18.5t-45 18.5t-40 -10t-30 -20l-10 -10l-19 23q2 4 6 10t16.5 22t26.5 28t35 22t43 10z" />
    <glyph glyph-name="hungarumlaut" unicode="&#x2dd;" horiz-adv-x="471" 
d="M107 556l-7 8l98 171q36 0 64 -5.5t38 -11.5l11 -5l-1 -8l-160 -149h-43zM279 556l-7 8l114 171q36 0 63 -5.5t35 -11.5l9 -5l-1 -8l-170 -149h-43z" />
    <glyph glyph-name="uni0400" unicode="&#x400;" horiz-adv-x="580" 
d="M32 0l111 700h454l-13 -81l-14 -12q-46 31 -154 31h-129l-39 -248h231l8 -9l-8 -54h-241l-41 -265h138q48 0 88.5 8t57.5 16l17 7l10 -12l-13 -81h-463zM460 767l-10 -8h-43l-116 149l2 8q38 22 120 22z" />
    <glyph glyph-name="afii10023" unicode="&#x401;" horiz-adv-x="580" 
d="M32 0l111 700h454l-13 -81l-14 -12q-46 31 -154 31h-129l-39 -248h231l8 -9l-8 -54h-241l-41 -265h138q48 0 88.5 8t57.5 16l17 7l10 -12l-13 -81h-463zM429 813q0 32 21.5 52.5t53.5 20.5q26 0 40.5 -14.5t14.5 -40.5q0 -31 -21 -52t-53 -21q-26 0 -41 14.5t-15 40.5z
M219 813q0 32 21.5 52.5t53.5 20.5q26 0 40.5 -14.5t14.5 -40.5q0 -31 -21 -52t-53 -21q-26 0 -41 14.5t-15 40.5z" />
    <glyph glyph-name="afii10051" unicode="&#x402;" horiz-adv-x="863" 
d="M646 211l5 26q9 57 -18 86t-84 29q-63 0 -131 -34l-50 -318h-155l101 638h-57q-48 0 -89 -8t-58 -16l-16 -7l-11 12l13 81h611l-13 -81l-14 -12q-45 31 -154 31h-57l-40 -253q98 53 211 53q187 0 156 -190l-5 -32q-36 -226 -233 -226q-31 0 -56 5.5t-39 13.5t-23.5 16
t-13.5 13l-3 6q5 33 24 61.5t35 40.5l17 12h11q0 -5 1 -12.5t4.5 -27.5t9 -35.5t16 -28t24.5 -12.5q27 0 46 37t35 132z" />
    <glyph glyph-name="afii10052" unicode="&#x403;" horiz-adv-x="544" 
d="M320 759l-7 8l102 171q36 0 64.5 -5.5t38.5 -10.5l10 -6l-1 -8l-164 -149h-43zM32 0l111 700h446l-13 -81l-13 -12q-46 31 -155 31h-121l-101 -638h-154z" />
    <glyph glyph-name="afii10053" unicode="&#x404;" horiz-adv-x="700" 
d="M457 658q-83 0 -145.5 -76t-79.5 -196h299l7 -8l-9 -54h-303v-21q0 -115 44.5 -169t135.5 -54q35 0 70 7.5t60 18t45 20.5t30 18l10 7l20 -25q-4 -6 -11.5 -15t-34.5 -32.5t-58 -41.5t-82 -32.5t-106 -14.5q-138 0 -217.5 82.5t-79.5 224.5q0 177 117 295t299 118
q112 0 176 -46t64 -121q0 -24 -6.5 -43.5t-13.5 -27.5l-6 -7q-54 -12 -140 -12l-10 12q25 32 25 90q0 103 -100 103z" />
    <glyph glyph-name="afii10054" unicode="&#x405;" horiz-adv-x="604" 
d="M338 658q-46 0 -72.5 -25t-26.5 -63q0 -33 26.5 -61.5t115.5 -97.5q107 -85 138.5 -122.5t31.5 -93.5q0 -92 -71.5 -148.5t-217.5 -56.5q-53 0 -98.5 8t-72 19.5t-45.5 23t-26 19.5l-7 8q4 27 16 52.5t26 43t27.5 31.5t22.5 21l9 6h16q2 -7 5.5 -19.5t16.5 -43.5
t29.5 -54.5t45 -43t61.5 -19.5q49 0 82 27.5t33 67.5q0 20 -8.5 37.5t-33 39t-44 36t-65.5 45.5q-89 60 -123 101.5t-34 106.5q0 95 71.5 151t208.5 56q72 0 126 -15.5t73 -30.5l18 -16q-7 -43 -32 -82t-46 -56l-22 -18h-15q-1 7 -3.5 18t-13 39.5t-24.5 50.5t-40 40t-58 18
z" />
    <glyph glyph-name="afii10055" unicode="&#x406;" horiz-adv-x="298" 
d="M32 0l111 700h154l-111 -700h-154z" />
    <glyph glyph-name="afii10056" unicode="&#x407;" horiz-adv-x="298" 
d="M67 793q0 32 21.5 52.5t52.5 20.5q55 0 55 -55q0 -31 -21 -52t-52 -21q-26 0 -41 14.5t-15 40.5zM277 793q0 32 21.5 52.5t52.5 20.5q55 0 55 -55q0 -31 -21 -52t-52 -21q-26 0 -41 14.5t-15 40.5zM32 0l111 700h154l-111 -700h-154z" />
    <glyph glyph-name="afii10057" unicode="&#x408;" horiz-adv-x="496" 
d="M263 211l78 489h155l-77 -484q-37 -226 -267 -226q-56 0 -98 13.5t-56 26.5l-13 14q7 40 29 76.5t41 53.5l19 16h11q0 -6 1.5 -16t7 -35.5t13.5 -45t23.5 -35.5t35.5 -16q35 0 59 38.5t38 130.5z" />
    <glyph glyph-name="afii10058" unicode="&#x409;" horiz-adv-x="1040" 
d="M2 125l14 12q20 -11 45 -11q28 0 52.5 20t48.5 67t40 138t21 219l7 118l13 12h466l-47 -299h93q116 0 180 -45.5t64 -132.5q0 -102 -84.5 -162.5t-223.5 -60.5h-247l100 637h-222l-24 -152q-43 -269 -102 -382t-145 -113q-15 0 -29 3t-20 5l-7 3q-5 50 7 124zM837 222
q0 117 -116 117h-69l-44 -276h69q73 0 116.5 43t43.5 116z" />
    <glyph glyph-name="afii10059" unicode="&#x40a;" horiz-adv-x="1067" 
d="M470 0l53 334h-284l-53 -334h-154l111 700h154l-48 -304h284l48 304h155l-48 -304h92q117 0 181 -44.5t64 -130.5q0 -101 -84 -161t-223 -60h-248zM863 219q0 115 -117 115h-68l-43 -271h69q72 0 115.5 42t43.5 114z" />
    <glyph glyph-name="afii10060" unicode="&#x40b;" horiz-adv-x="863" 
d="M603 0l37 237q19 115 -96 115q-63 0 -126 -34l-50 -318h-155l101 638h-57q-48 0 -89 -8t-58 -16l-16 -7l-11 12l13 81h611l-13 -81l-14 -12q-45 31 -154 31h-57l-40 -253q98 53 211 53q187 0 157 -190l-39 -248h-155z" />
    <glyph glyph-name="afii10061" unicode="&#x40c;" horiz-adv-x="667" 
d="M32 0l111 700h154l-48 -300h33l290 300h92l-269 -275l103 -226q24 -52 52.5 -98.5t45.5 -67.5l16 -21l-2 -12h-187l-160 337h-24l-53 -337h-154zM354 759l-7 8l102 171q36 0 64.5 -5.5t38.5 -10.5l10 -6l-1 -8l-164 -149h-43z" />
    <glyph glyph-name="uni040D" unicode="&#x40d;" horiz-adv-x="751" 
d="M164 0h-132l111 700h154l-83 -523l404 523h132l-111 -700h-155l84 524zM523 767l-9 -8h-43l-116 149l1 8q39 22 120 22z" />
    <glyph glyph-name="afii10062" unicode="&#x40e;" horiz-adv-x="637" 
d="M106 112l14 12q15 -12 56 -12q70 0 120 51l-151 407q-14 38 -29.5 68.5t-23.5 41.5l-8 11l1 9h185l135 -372l213 372h77l-279 -473q-80 -137 -131.5 -187t-120.5 -50q-19 0 -34.5 3t-21.5 6l-7 3q-6 41 5 110zM423 744q-68 0 -109 23.5t-41 62.5q0 11 3.5 22t6.5 16l3 5
q41 12 99 12l7 -9q-11 -18 -11 -35q0 -18 14 -28t37 -10q28 0 45.5 14t17.5 39l-2 20l9 9q26 0 50 -3t35 -6l11 -3q3 -12 3 -24q0 -46 -51 -75.5t-127 -29.5z" />
    <glyph glyph-name="afii10145" unicode="&#x40f;" horiz-adv-x="751" 
d="M297 700l-101 -637h298l101 637h155l-111 -700h-239l-49 -188h-79l-10 12l8 176h-238l111 700h154z" />
    <glyph glyph-name="afii10017" unicode="&#x410;" horiz-adv-x="696" 
d="M153 186l-99 -186h-77l348 645l-18 43l3 12h169l160 -700h-159l-43 186h-284zM361 523l-9 37l-166 -312h237z" />
    <glyph glyph-name="afii10018" unicode="&#x411;" horiz-adv-x="636" 
d="M32 0l111 700h460l-13 -81l-13 -12q-46 31 -155 31h-135l-35 -224h99q115 0 179 -46.5t64 -136.5q0 -105 -84.5 -168t-223.5 -63h-254zM432 230q0 122 -115 122h-75l-46 -289h75q74 0 117.5 45.5t43.5 121.5z" />
    <glyph glyph-name="afii10019" unicode="&#x412;" horiz-adv-x="658" 
d="M32 0l111 700h260q231 0 231 -154q0 -138 -158 -180q138 -31 138 -156q0 -99 -77.5 -154.5t-226.5 -55.5h-278zM453 219q0 113 -114 113h-101l-42 -269h101q73 0 114.5 42.5t41.5 113.5zM473 535q0 102 -105 102h-81l-39 -242h82q68 0 105.5 38.5t37.5 101.5z" />
    <glyph glyph-name="afii10020" unicode="&#x413;" horiz-adv-x="544" 
d="M32 0l111 700h446l-13 -81l-13 -12q-46 31 -155 31h-121l-101 -638h-154z" />
    <glyph glyph-name="afii10021" unicode="&#x414;" horiz-adv-x="787" 
d="M723 63l10 -13l-48 -238h-78l-11 12q7 52 6.5 91t-5.5 62l-5 23h-477q-44 -74 -61 -176l-13 -12h-78l27 238l14 13h61q10 2 26.5 13.5t43 47t49 88.5t41 149t22.5 217l8 110l14 12h476l-101 -637h79zM323 485q-52 -328 -140 -422h306l91 574h-233z" />
    <glyph glyph-name="afii10022" unicode="&#x415;" horiz-adv-x="580" 
d="M32 0l111 700h454l-13 -81l-14 -12q-46 31 -154 31h-129l-39 -248h231l8 -9l-8 -54h-241l-41 -265h138q48 0 88.5 8t57.5 16l17 7l10 -12l-13 -81h-463z" />
    <glyph glyph-name="afii10024" unicode="&#x416;" horiz-adv-x="973" 
d="M136 199l164 227l-167 274h91l178 -297h31l47 297h155l-47 -297h30l273 297h91l-255 -274l92 -227q21 -52 46 -98.5t39 -67.5l14 -21l-2 -12h-176l-142 341h-20l-54 -341h-155l54 341h-21l-249 -341h-176l2 12q72 71 157 187z" />
    <glyph glyph-name="afii10025" unicode="&#x417;" horiz-adv-x="618" 
d="M267 42q67 0 106.5 49t39.5 123q0 115 -114 115h-71l-7 8l9 54h60q87 0 118.5 47.5t31.5 126.5q0 93 -78 93q-30 0 -60.5 -16.5t-53.5 -40t-41.5 -47.5t-28.5 -40l-9 -17h-16q-2 1 -6 4.5t-14 14.5t-15 25t-10 37.5t1 50.5l8.5 8.5t27.5 19.5t49 24.5t73 19.5t98 9
q231 0 231 -161q0 -67 -40 -116t-118 -71q135 -30 135 -153q0 -103 -84 -161t-236 -58q-57 0 -103 8.5t-71 20t-41.5 23.5t-21.5 20l-5 9q4 27 14.5 50.5t22 37.5t23 24.5t19.5 14.5l7 5h16q1 -7 3.5 -17.5t14.5 -38.5t27.5 -49t44.5 -38.5t64 -17.5z" />
    <glyph glyph-name="afii10026" unicode="&#x418;" horiz-adv-x="751" 
d="M164 0h-132l111 700h154l-83 -523l404 523h132l-111 -700h-155l84 524z" />
    <glyph glyph-name="afii10027" unicode="&#x419;" horiz-adv-x="751" 
d="M164 0h-132l111 700h154l-83 -523l404 523h132l-111 -700h-155l84 524zM454 744q-67 0 -108 23.5t-41 63.5q0 10 3.5 20.5t6.5 16.5l3 5q40 12 99 12l7 -9q-11 -18 -11 -35q0 -18 13.5 -28t36.5 -10q28 0 46 14t18 38l-2 21l9 9q26 0 50 -3t35 -6l11 -3q3 -11 3 -24
q0 -46 -51 -75.5t-128 -29.5z" />
    <glyph glyph-name="afii10028" unicode="&#x41a;" horiz-adv-x="667" 
d="M32 0l111 700h154l-48 -300h33l290 300h92l-269 -275l103 -226q24 -52 52.5 -98.5t45.5 -67.5l16 -21l-2 -12h-187l-160 337h-24l-53 -337h-154z" />
    <glyph glyph-name="afii10029" unicode="&#x41b;" horiz-adv-x="710" 
d="M2 125l14 12q20 -11 45 -11q28 0 52.5 20t48.5 67t40 138t21 219l7 118l13 12h466l-111 -700h-154l100 637h-222l-24 -152q-43 -269 -102 -382t-145 -113q-15 0 -29 3t-20 5l-7 3q-5 50 7 124z" />
    <glyph glyph-name="afii10030" unicode="&#x41c;" horiz-adv-x="919" 
d="M671 0l27 571l-3 4l-256 -555h-102l-18 21l-88 533l-5 -4l-141 -570h-74l132 523q11 44 17 85.5t6 60.5l1 19l15 12h188l81 -490l227 490h185l-32 -700h-160z" />
    <glyph glyph-name="afii10031" unicode="&#x41d;" horiz-adv-x="751" 
d="M484 0l52 327h-298l-52 -327h-154l111 700h154l-49 -310h298l49 310h155l-111 -700h-155z" />
    <glyph glyph-name="afii10032" unicode="&#x41e;" horiz-adv-x="779" 
d="M52 295q0 176 117.5 295.5t289.5 119.5q140 0 219.5 -82t79.5 -223q0 -176 -117 -295.5t-290 -119.5q-139 0 -219 82.5t-80 222.5zM221 268q0 -226 137 -226q98 0 165 112t67 278q0 226 -139 226q-98 0 -164 -112t-66 -278z" />
    <glyph glyph-name="afii10033" unicode="&#x41f;" horiz-adv-x="751" 
d="M484 0l101 637h-298l-101 -637h-154l111 700h607l-111 -700h-155z" />
    <glyph glyph-name="afii10034" unicode="&#x420;" horiz-adv-x="633" 
d="M32 0l111 700h254q115 0 178.5 -47t63.5 -135q0 -104 -84.5 -166.5t-223.5 -62.5h-99l-46 -289h-154zM362 637h-75l-45 -286h75q73 0 116.5 45.5t43.5 121.5q0 119 -115 119z" />
    <glyph glyph-name="afii10035" unicode="&#x421;" horiz-adv-x="700" 
d="M456 658q-97 0 -163.5 -103t-66.5 -253q0 -114 44.5 -168t136.5 -54q34 0 69 7.5t60 18t45 20.5t30 18l10 7l20 -25q-4 -6 -11.5 -15t-34.5 -32.5t-58 -41.5t-82 -32.5t-106 -14.5q-138 0 -217.5 82.5t-79.5 223.5q0 176 117 295t297 119q114 0 177 -49t63 -129
q0 -26 -7 -47.5t-13 -30.5l-7 -8q-54 -12 -140 -12l-10 12q27 36 27 102q0 110 -100 110z" />
    <glyph glyph-name="afii10036" unicode="&#x422;" horiz-adv-x="661" 
d="M469 638l-101 -638h-155l101 638h-57q-48 0 -89 -8t-58 -16l-16 -7l-11 12l13 81h611l-13 -81l-14 -12q-45 31 -154 31h-57z" />
    <glyph glyph-name="afii10037" unicode="&#x423;" horiz-adv-x="637" 
d="M106 112l14 12q15 -12 56 -12q70 0 120 51l-151 407q-14 38 -29.5 68.5t-23.5 41.5l-8 11l1 9h185l135 -372l213 372h77l-279 -473q-80 -137 -131.5 -187t-120.5 -50q-19 0 -34.5 3t-21.5 6l-7 3q-6 41 5 110z" />
    <glyph glyph-name="afii10038" unicode="&#x424;" horiz-adv-x="922" 
d="M344 0l10 67q-140 1 -222 69.5t-82 182.5q0 137 112.5 228.5t282.5 92.5l10 60h155l-10 -60q140 -1 222.5 -69.5t82.5 -182.5q0 -137 -112.5 -228.5t-283.5 -92.5l-10 -67h-155zM214 307q0 -92 39 -139.5t110 -48.5l74 469q-98 -1 -160.5 -80t-62.5 -201zM741 400
q0 91 -39 138.5t-110 49.5l-74 -469q98 1 160.5 80t62.5 201z" />
    <glyph glyph-name="afii10039" unicode="&#x425;" horiz-adv-x="683" 
d="M277 700l125 -257l216 257h91l-277 -318l89 -182q24 -51 50.5 -98t40.5 -68l15 -22l-2 -12h-185l-138 278l-239 -278h-83l292 339l-179 361h184z" />
    <glyph glyph-name="afii10040" unicode="&#x426;" horiz-adv-x="783" 
d="M32 0l111 700h154l-101 -637h289l101 637h155l-101 -637h79l10 -13l-55 -238h-78l-10 12q7 45 7.5 89t-2.5 65l-3 22h-556z" />
    <glyph glyph-name="afii10041" unicode="&#x427;" horiz-adv-x="683" 
d="M282 700l-37 -237q-10 -57 17 -86t84 -29q33 0 65.5 9t48.5 18l17 9l-3 -20l53 336h155l-111 -700h-155l58 364l-8 -47q-11 -6 -30 -15t-75.5 -24.5t-109.5 -15.5q-193 0 -163 190l40 248h154z" />
    <glyph glyph-name="afii10042" unicode="&#x428;" horiz-adv-x="1049" 
d="M32 0l111 700h154l-101 -637h221l101 637h155l-101 -637h220l101 637h155l-111 -700h-905z" />
    <glyph glyph-name="afii10043" unicode="&#x429;" horiz-adv-x="1091" 
d="M32 0l111 700h154l-101 -637h221l101 637h155l-101 -637h220l101 637h155l-101 -637h80l9 -13l-55 -238h-78l-10 12q8 45 8.5 89t-2.5 65l-3 22h-864z" />
    <glyph glyph-name="afii10044" unicode="&#x42a;" horiz-adv-x="785" 
d="M96 700h358l-47 -299h93q115 0 179 -45.5t64 -132.5q0 -101 -84.5 -162t-222.5 -61h-248l101 638h-32q-48 0 -89 -8t-58 -16l-16 -7l-11 12zM581 222q0 117 -116 117h-68l-44 -276h68q73 0 116.5 43t43.5 116z" />
    <glyph glyph-name="afii10045" unicode="&#x42b;" horiz-adv-x="905" 
d="M32 0l111 700h154l-47 -299h93q116 0 180 -45.5t64 -132.5q0 -101 -84 -162t-224 -61h-247zM639 0l111 700h154l-111 -700h-154zM424 223q0 116 -115 116h-69l-44 -276h69q72 0 115.5 43.5t43.5 116.5z" />
    <glyph glyph-name="afii10046" unicode="&#x42c;" horiz-adv-x="629" 
d="M32 0l111 700h154l-47 -299h93q116 0 180 -45.5t64 -132.5q0 -101 -84 -162t-224 -61h-247zM424 223q0 116 -115 116h-69l-44 -276h69q72 0 115.5 43.5t43.5 116.5z" />
    <glyph glyph-name="afii10047" unicode="&#x42d;" horiz-adv-x="701" 
d="M367 710q157 0 235 -79t78 -224q0 -87 -27 -161.5t-78.5 -132t-135.5 -90.5t-190 -33q-53 0 -96.5 8.5t-68.5 20t-42 23.5t-23 20l-6 9q4 27 14.5 50.5t22.5 37.5t23 24.5t19 14.5l7 5h16q1 -7 4 -17.5t15 -38.5t27.5 -49t45.5 -38.5t66 -17.5q86 0 147.5 77.5
t81.5 204.5h-240l-7 8l9 54h245q1 14 1 44q0 228 -136 228q-33 0 -66 -16.5t-57 -40t-43 -47.5t-29 -40l-10 -17h-16q-2 1 -6 4.5t-14 14.5t-15 25t-10 37.5t1 50.5q3 3 9.5 8.5t29.5 19.5t50.5 24.5t73 19.5t95.5 9z" />
    <glyph glyph-name="afii10048" unicode="&#x42e;" horiz-adv-x="1028" 
d="M354 291q0 24 1 36h-117l-52 -327h-154l111 700h154l-49 -310h116q29 141 131.5 230.5t238.5 89.5q128 0 200.5 -81t72.5 -220q0 -178 -110.5 -298.5t-270.5 -120.5q-127 0 -199.5 81t-72.5 220zM521 253q0 -211 113 -211q86 0 146 120t60 285q0 211 -114 211
q-86 0 -145.5 -120t-59.5 -285z" />
    <glyph glyph-name="afii10049" unicode="&#x42f;" horiz-adv-x="640" 
d="M134 199l79 115q-128 38 -128 163q0 101 84 162t223 61h249l-111 -700h-155l47 299h-76l-206 -299h-156l1 12q69 71 149 187zM247 477q0 -116 116 -116h69l44 276h-70q-72 0 -115.5 -43.5t-43.5 -116.5z" />
    <glyph glyph-name="afii10065" unicode="&#x430;" horiz-adv-x="573" 
d="M536 435l-41 -258q-7 -44 -8.5 -85.5t0.5 -60.5l2 -19l-12 -12h-136q-1 5 -3 13.5t-4 36.5t4 53l7 41l-3 4l-8.5 -17t-25 -38t-40 -48t-53 -38t-65.5 -17q-60 0 -92.5 48t-32.5 126q0 140 96 231.5t252 91.5q57 0 97.5 -13t53.5 -26zM183 159q0 -82 36 -82q19 0 43.5 25
t46.5 62t33 58t18 35l-18 -109l19 110v1l23 151q-1 3 -3.5 7.5t-14 12t-28.5 7.5q-59 0 -107 -86.5t-48 -191.5zM361 259l-1 -2l1 1v1z" />
    <glyph glyph-name="afii10066" unicode="&#x431;" horiz-adv-x="578" 
d="M550 300q0 -136 -78 -223t-211 -87q-117 0 -166.5 71t-49.5 207q0 184 78.5 309t230.5 151l187 32q3 -4 6.5 -12.5t10 -37t-0.5 -58.5l-10 -10l-175 -31q-103 -18 -152.5 -91.5t-64.5 -196.5l4 -4q3 11 10.5 26.5t27 42t43.5 47.5t63.5 36.5t84.5 15.5q162 0 162 -187z
M346 419q-39 0 -86.5 -60t-60.5 -129q0 -4 -0.5 -11t0 -27t2.5 -38t6.5 -40t11 -38t18.5 -27t28 -11q33 0 63 46t47.5 114t17.5 134q0 87 -47 87z" />
    <glyph glyph-name="afii10067" unicode="&#x432;" horiz-adv-x="540" 
d="M40 145l32 194q11 67 81 107.5t175 40.5q171 0 171 -108q0 -73 -78 -117q71 -31 71 -100q0 -71 -72.5 -121.5t-186.5 -50.5q-105 0 -155 43.5t-38 111.5zM265 219q-32 0 -68 -9l-12 -79q-7 -43 5 -60.5t43 -17.5q43 0 75.5 29.5t32.5 74.5q0 62 -76 62zM207 270
q34 8 83 11q23 8 43.5 34t20.5 64q0 45 -42 45q-34 0 -61 -23t-32 -56z" />
    <glyph glyph-name="afii10068" unicode="&#x433;" horiz-adv-x="421" 
d="M76 372l11 62q8 6 23 15t63 23.5t98 14.5q131 0 131 -92q0 -37 -24 -68.5t-59 -54t-69.5 -44t-58.5 -48t-24 -56.5q0 -48 70 -48q30 0 61.5 8t48.5 16l17 8l-11 -61q-7 -6 -21.5 -15.5t-63 -25.5t-102.5 -16q-79 0 -113.5 29t-34.5 73q0 38 24 70t59 54t69.5 43t58.5 46
t24 53q0 43 -58 43q-25 0 -55 -7.5t-47 -14.5z" />
    <glyph glyph-name="afii10069" unicode="&#x434;" horiz-adv-x="570" 
d="M27 203q0 118 80 201t191 83q84 0 103 -49h4q0 134 -41.5 194t-125.5 60q-21 0 -41.5 -3.5t-30.5 -7t-10 -4.5l10 62q36 21 111 21q267 0 267 -354q0 -201 -79.5 -308.5t-217.5 -107.5q-103 0 -161.5 57.5t-58.5 155.5zM187 151q0 -53 17 -83t49 -30q50 0 86.5 97
t36.5 191q0 53 -17 83t-48 30q-33 0 -63 -49t-45.5 -115t-15.5 -124z" />
    <glyph glyph-name="afii10070" unicode="&#x435;" horiz-adv-x="504" 
d="M433 111l19 -23q-3 -4 -8.5 -10.5t-26 -23.5t-43.5 -30t-61 -23.5t-79 -10.5q-99 0 -153 56.5t-54 152.5q0 127 87 207.5t218 80.5q81 0 119.5 -30.5t38.5 -75.5q0 -71 -84.5 -119t-211.5 -53v-3q0 -74 23.5 -106.5t79.5 -32.5q35 0 69 11t50 22zM317 439
q-44 0 -77.5 -51t-42.5 -130q71 7 117 39t46 89q0 53 -43 53z" />
    <glyph glyph-name="afii10072" unicode="&#x436;" horiz-adv-x="760" 
d="M750 477l-155 -180l33 -101q20 -52 40.5 -97t31.5 -64l10 -19l-3 -16h-151l-86 228h-23l-36 -228h-141l36 228h-24l-148 -219l-11 -9h-148l200 297l-99 168l1 12h109q23 -65 78 -163l17 -30l36 -4q8 53 13 99.5t6 66.5l2 19l12 12h129q-4 -77 -24 -197l27 3l29 31
q40 43 69 81.5t38 56.5l9 17l11 8h112z" />
    <glyph glyph-name="afii10073" unicode="&#x437;" horiz-adv-x="482" 
d="M178 42q48 0 75.5 27.5t27.5 73.5q0 75 -66 75h-59l-7 9l8 52h52q44 0 68.5 21.5t24.5 60.5q0 34 -17.5 54t-48.5 20q-20 0 -40 -11t-33.5 -26.5t-24 -31t-16.5 -26.5l-5 -11h-12q-6 4 -14.5 11.5t-20 34t-7.5 56.5q6 6 18.5 15.5t61 25t108.5 15.5q90 0 141 -30.5
t51 -85.5q0 -40 -26.5 -71.5t-74.5 -47.5q42 -9 65.5 -39.5t23.5 -69.5q0 -66 -69.5 -109.5t-188.5 -43.5q-85 0 -128.5 24.5t-43.5 68.5q0 13 3.5 26t7.5 19l3 7q37 12 101 12l9 -12q-14 -19 -14 -44q0 -49 67 -49z" />
    <glyph glyph-name="afii10074" unicode="&#x438;" horiz-adv-x="575" 
d="M364 259l32 206l12 12h138l-48 -300q-7 -44 -8.5 -85.5t0.5 -60.5l3 -19l-13 -12h-135q-2 5 -3.5 13.5t-4 36.5t3.5 53l7 41l-3 4q-3 -6 -8 -17t-24 -38t-41 -48t-57.5 -38t-73.5 -17q-115 0 -94 137l27 173q7 44 12 85.5t6 60.5l1 19l12 12h138q-4 -70 -22 -177
l-27 -173q-8 -50 25 -50q54 0 144 180l-18 -109l19 110v1zM364 259l-1 -2l1 1v1z" />
    <glyph glyph-name="afii10075" unicode="&#x439;" horiz-adv-x="571" 
d="M105 477h138q-3 -62 -22 -177l-27 -173q-8 -50 25 -50q54 0 144 180l1 2l32 206l12 12h138l-48 -300q-7 -44 -8.5 -85.5t0.5 -60.5l3 -19l-13 -12h-135q-2 5 -3.5 13.5t-4 36.5t3.5 53l7 41l-3 4q-3 -6 -8 -17t-24 -38t-41 -48t-57.5 -38t-73.5 -17q-115 0 -94 137
l27 173q8 45 12.5 86.5t5.5 59.5l1 19zM335 529q-68 0 -109 23.5t-41 62.5q0 11 3 21.5t6 15.5l3 5q42 13 100 13l7 -10q-12 -17 -12 -35t14 -27.5t37 -9.5q28 0 46 13.5t18 38.5l-2 20l10 9q26 0 49.5 -3t34.5 -6l11 -3q2 -12 2 -23q0 -47 -50.5 -76t-126.5 -29z" />
    <glyph glyph-name="afii10076" unicode="&#x43a;" horiz-adv-x="542" 
d="M25 0l48 300l21 165l12 12h135q-4 -77 -20 -177l-4 -21l33 4l30 31q44 45 73.5 84t36.5 55l8 16l10 8h120l-166 -178l37 -103q20 -51 43.5 -96t36.5 -64l13 -20l-3 -16h-151l-102 228h-27l-36 -228h-148z" />
    <glyph glyph-name="afii10077" unicode="&#x43b;" horiz-adv-x="547" 
d="M2 114l14 12q11 -10 30 -10q26 0 46 23t33.5 68t20.5 78t15 86q3 19 6.5 34.5t7 26t7.5 18.5t7.5 13t6 7.5l4.5 4.5l2 2h318l-75 -477h-148l65 414h-119l-13 -83q-25 -157 -74 -249t-121 -92q-12 0 -24 3t-17 5l-6 3q0 31 3.5 59.5t6.5 41.5z" />
    <glyph glyph-name="afii10078" unicode="&#x43c;" horiz-adv-x="750" 
d="M536 0v348l-4 4l-138 -352h-104l-15 16l-49 335l-5 -5l-6 -34q-27 -162 -68.5 -242t-109.5 -80q-13 0 -25.5 3t-17.5 5l-6 3q0 31 3.5 59.5t6.5 41.5l4 12l14 12q11 -10 28 -10q16 0 30 10.5t24.5 33t18 43.5t14.5 55.5t11 55.5t9 57q3 19 6.5 35t7.5 26.5t8 18.5
t7.5 12.5t6 7.5t4.5 5l2 1h154l41 -319l117 307l12 12h163v-477h-144z" />
    <glyph glyph-name="afii10079" unicode="&#x43d;" horiz-adv-x="572" 
d="M323 0l34 214h-150l-34 -214h-148l48 300l21 165l12 12h135q-4 -77 -20 -177l-4 -24h150l4 24l23 165l12 12h136q-8 -77 -24 -177l-48 -300h-147z" />
    <glyph glyph-name="afii10080" unicode="&#x43e;" horiz-adv-x="565" 
d="M27 203q0 121 84 202.5t206 81.5q101 0 159 -57t58 -155q0 -121 -84 -203t-207 -82q-101 0 -158.5 57.5t-57.5 155.5zM187 152q0 -54 17 -84t48 -30q33 0 62.5 49t44.5 115t15 124q0 53 -17 83t-48 30q-33 0 -62.5 -49t-44.5 -114.5t-15 -123.5z" />
    <glyph glyph-name="afii10081" unicode="&#x43f;" horiz-adv-x="572" 
d="M323 0l56 350q8 50 -26 50q-29 0 -65.5 -46t-54.5 -80.5t-26 -54.5v-1l-34 -218h-148l48 300q7 44 8.5 85.5t-0.5 60.5l-2 19l12 12h136q1 -5 3 -13.5t4 -36.5t-4 -53l-7 -41l3 -4q3 6 8 17t24 38t41 48t57.5 38t74.5 17q116 0 95 -137l-55 -350h-148z" />
    <glyph glyph-name="afii10082" unicode="&#x440;" horiz-adv-x="573" 
d="M-14 -250l87 550q7 44 8.5 85.5t-0.5 60.5l-2 19l12 12h136q1 -5 3 -13.5t4 -36.5t-4 -53l-7 -41l3 -4l8.5 17t25 38t40 48t52.5 38t65 17q61 0 93.5 -47.5t32.5 -125.5q0 -139 -96.5 -231.5t-231.5 -92.5q-25 0 -44 3l-38 -243h-147zM385 319q0 81 -36 81
q-25 0 -61 -45.5t-55 -82t-26 -53.5v-1l-24 -151h1q1 -3 3.5 -7.5t14 -12t28.5 -7.5q59 0 107 86.5t48 192.5z" />
    <glyph glyph-name="afii10083" unicode="&#x441;" horiz-adv-x="498" 
d="M434 111l19 -23q-3 -4 -8.5 -10.5t-25.5 -23.5t-43 -30t-61 -23.5t-79 -10.5q-100 0 -155 56.5t-55 156.5q0 122 79 203t215 81q81 0 126.5 -30.5t45.5 -83.5q0 -18 -5 -35t-11 -25l-5 -8q-43 -12 -119 -12l-9 12q19 33 19 76q0 58 -50 58q-54 0 -86.5 -74t-32.5 -161
q0 -72 26 -104.5t81 -32.5q34 0 67.5 11t50.5 22z" />
    <glyph glyph-name="afii10084" unicode="&#x442;" horiz-adv-x="834" 
d="M305 0l56 348q8 51 -23 51q-9 0 -18.5 -5.5t-19.5 -15.5t-19 -22t-18 -27t-16.5 -28.5t-15 -28.5t-11.5 -24t-8 -19l-5 -10v-1l-34 -218h-148l48 300q7 44 8.5 85.5t-0.5 60.5l-2 19l12 12h136q1 -5 3 -13.5t4 -36.5t-4 -53l-7 -41l3 -4q3 6 7.5 17t22.5 38t38.5 48
t54 38t69.5 17q112 0 90 -137l-4 -20q9 21 21.5 40.5t36.5 49.5t59.5 48.5t76.5 18.5q111 0 90 -137l-56 -350h-147l55 348q9 51 -22 51q-25 0 -58 -44.5t-50 -80t-23 -51.5v-1l-34 -222h-148z" />
    <glyph glyph-name="afii10085" unicode="&#x443;" horiz-adv-x="516" 
d="M-38 -260q-14 0 -29 4t-23 8l-8 3q0 38 10 70.5t20 46.5l9 13q26 -15 59 -15q72 0 176 106l-77 324q-12 52 -26 94t-21 58l-8 17l8 8h155l75 -370q120 181 120 305q0 17 -2 31t-4 20l-3 6l9 8h99q6 -13 6 -35q0 -58 -59 -176t-141 -234t-179.5 -204t-165.5 -88z" />
    <glyph glyph-name="afii10086" unicode="&#x444;" horiz-adv-x="772" 
d="M233 -250l42 264q-42 -22 -82 -22q-66 0 -116 55.5t-50 151.5q0 125 82.5 206.5t196.5 81.5q23 0 43 -5q10 67 17 131t8 95l2 30l12 12h136q-2 -117 -27 -273l-2 -14q42 22 81 22q67 0 116 -56t49 -152q0 -124 -82.5 -205.5t-195.5 -81.5q-23 0 -43 5l-39 -245h-148z
M184 156q0 -117 49 -117q23 0 50 29l58 367q-12 4 -26 4q-33 0 -60 -37t-41.5 -87.5t-22 -93.5t-7.5 -65zM584 321q0 117 -47 117q-21 0 -51 -28l-59 -369q21 -3 27 -3q39 0 70.5 56t45.5 119.5t14 107.5z" />
    <glyph glyph-name="afii10087" unicode="&#x445;" horiz-adv-x="529" 
d="M122 0h-115q-4 7 -4 29q0 46 36 92.5t140 123.5l-26 55q-22 46 -46 87.5t-37 59.5l-13 18v12h174l81 -170q73 64 73 129q0 11 -1.5 19.5t-2.5 10.5l-1 3l8 8h115q4 -7 4 -28q0 -43 -33.5 -85t-133.5 -117l23 -47q27 -56 53.5 -103t39.5 -66l14 -19v-12h-175l-88 185
q-82 -73 -82 -145q0 -11 1 -18.5t2 -9.5l2 -3z" />
    <glyph glyph-name="afii10088" unicode="&#x446;" horiz-adv-x="607" 
d="M105 477h138q-4 -70 -22 -177l-27 -173q-8 -50 25 -50q55 0 145 181v1l32 206l12 12h138l-48 -300q-9 -54 -9 -114h62l10 -13q7 -78 -30 -211h-72l-10 12q7 49 6.5 82t-5.5 50l-4 17h-101q-2 5 -3.5 13.5t-4 36.5t3.5 53l7 41l-3 4q-3 -6 -8 -17t-24 -38t-41 -48
t-57.5 -38t-73.5 -17q-115 0 -94 137l27 173q7 44 12 85.5t6 60.5l1 19z" />
    <glyph glyph-name="afii10089" unicode="&#x447;" horiz-adv-x="552" 
d="M92 477h137q-8 -103 -21 -175q-5 -31 6.5 -44.5t43.5 -13.5q46 0 82 20l32 201l12 12h138l-76 -477h-148l32 205q-11 -7 -29.5 -15t-56.5 -18t-74 -10q-134 0 -110 141q8 44 12.5 84.5t5.5 58.5l1 19z" />
    <glyph glyph-name="afii10090" unicode="&#x448;" horiz-adv-x="834" 
d="M528 477l-56 -348q-8 -51 23 -51q19 0 41.5 24t42.5 61t29.5 57.5t16.5 36.5l1 2l32 206l12 12h138l-48 -300q-7 -44 -8.5 -85.5t0.5 -60.5l2 -19l-12 -12h-135q-2 5 -3.5 13.5t-4 36.5t3.5 53l7 41l-3 4q-2 -6 -7 -17t-22.5 -38t-38 -48t-54 -38t-70.5 -17
q-112 0 -90 137l3 19q-8 -19 -21 -40t-36.5 -50t-59 -47.5t-76.5 -18.5q-112 0 -89 137l27 173q7 44 12 85.5t6 60.5l1 19l12 12h137q-5 -77 -21 -177l-27 -171q-8 -51 22 -51q25 0 58 45t48 75.5t25 54.5l-1 -5v4l1 2v1l33 210l12 12h137z" />
    <glyph glyph-name="afii10091" unicode="&#x449;" horiz-adv-x="869" 
d="M528 477l-56 -348q-8 -51 23 -51q19 0 41.5 24t42.5 61t29.5 57.5t16.5 36.5l1 2l32 206l12 12h138l-48 -300q-11 -65 -9 -114h62l10 -13q7 -78 -31 -211h-71l-10 12q7 49 6.5 82t-5.5 50l-4 17h-101q-2 5 -3.5 13.5t-4 36.5t3.5 53l7 41l-3 4q-2 -6 -7 -17t-22.5 -38
t-38 -48t-54 -38t-70.5 -17q-112 0 -90 137l3 19q-8 -19 -21 -40t-36.5 -50t-59 -47.5t-76.5 -18.5q-112 0 -89 137l27 173q7 44 12 85.5t6 60.5l1 19l12 12h137q-5 -77 -21 -177l-27 -171q-8 -51 22 -51q51 0 131 176v1l33 210l12 12h137z" />
    <glyph glyph-name="afii10092" unicode="&#x44a;" horiz-adv-x="622" 
d="M146 126l27 174q11 75 15 118h-20q-34 0 -64 -8.5t-43 -17.5l-13 -8l-11 12l13 81h291q-6 -91 -20 -177l-2 -8q38 9 82 9q89 0 133.5 -35.5t44.5 -96.5q0 -75 -65.5 -127t-187.5 -52q-93 0 -141.5 34t-38.5 102zM357 239q-23 0 -47 -7l-19 -121q-8 -58 47 -58
q38 0 63.5 33.5t25.5 81.5q0 71 -70 71z" />
    <glyph glyph-name="afii10093" unicode="&#x44b;" horiz-adv-x="760" 
d="M46 121l27 179l21 165l12 12h135q-4 -75 -20 -177l-2 -8q38 9 82 9q89 0 133.5 -35t44.5 -96q0 -76 -65.5 -128t-186.5 -52q-93 0 -142 33.5t-39 97.5zM510 0l48 300q7 44 12 85.5t6 60.5l2 19l12 12h136q-5 -77 -21 -177l-48 -300h-147zM257 239q-23 0 -47 -7l-19 -121
q-4 -28 9 -43t38 -15q38 0 63.5 33.5t25.5 81.5q0 71 -70 71z" />
    <glyph glyph-name="afii10094" unicode="&#x44c;" horiz-adv-x="522" 
d="M45 117l28 183q7 44 12.5 85t6.5 61l2 19l12 12h135q-5 -81 -20 -177l-2 -8q38 9 82 9q89 0 133.5 -35t44.5 -96q0 -76 -65.5 -128t-185.5 -52q-93 0 -142.5 33.5t-40.5 93.5zM257 239q-23 0 -47 -7l-19 -121q-8 -58 47 -58q38 0 63.5 33.5t25.5 81.5q0 71 -70 71z" />
    <glyph glyph-name="afii10095" unicode="&#x44d;" horiz-adv-x="494" 
d="M170 46q45 0 80.5 44t46.5 128h-136l-8 8l8 47h140q0 3 0.5 10.5t0.5 11.5q0 74 -17.5 107t-55.5 33q-30 0 -58.5 -25.5t-42.5 -51.5l-14 -26h-12q-6 4 -14.5 11.5t-20 33.5t-7.5 55q6 6 19 15t59.5 24.5t100.5 15.5q109 0 166 -56.5t57 -155.5q0 -123 -80.5 -204
t-220.5 -81q-75 0 -115 24.5t-40 68.5q0 13 3 26t7 19l3 7q38 12 102 12l8 -12q-14 -17 -14 -41q0 -21 14.5 -34.5t40.5 -13.5z" />
    <glyph glyph-name="afii10096" unicode="&#x44e;" horiz-adv-x="773" 
d="M25 0l48 300l21 165l12 12h135q-4 -77 -20 -177l-4 -24h64q23 95 96 153t170 58q91 0 144 -56.5t53 -149.5q0 -126 -79 -208.5t-197 -82.5q-90 0 -143 57t-53 150v17h-65l-34 -214h-148zM420 152q0 -54 15 -84t41 -30q48 0 83.5 105t35.5 182q0 54 -15 84t-41 30
q-48 0 -83.5 -105t-35.5 -182z" />
    <glyph glyph-name="afii10097" unicode="&#x44f;" horiz-adv-x="532" 
d="M11 106l14 13q13 -10 33 -10q18 0 30.5 12.5t31 40.5t36.5 47q-103 27 -103 116q0 67 62 109.5t159 42.5h232l-76 -477h-148l32 200h-53q-26 -29 -60 -90.5t-66 -90.5t-86 -29q-16 0 -29 3t-18 5l-5 3q0 31 3.5 57.5t7.5 37.5zM270 262h54l24 152h-55q-40 0 -65.5 -22.5
t-25.5 -63.5q0 -66 68 -66z" />
    <glyph glyph-name="uni0450" unicode="&#x450;" horiz-adv-x="504" 
d="M433 111l19 -23q-3 -4 -8.5 -10.5t-26 -23.5t-43.5 -30t-61 -23.5t-79 -10.5q-99 0 -153 56.5t-54 152.5q0 127 87 207.5t218 80.5q81 0 119.5 -30.5t38.5 -75.5q0 -71 -84.5 -119t-211.5 -53v-3q0 -74 23.5 -106.5t79.5 -32.5q35 0 69 11t50 22zM317 439
q-44 0 -77.5 -51t-42.5 -130q71 7 117 39t46 89q0 53 -43 53zM369 564l-9 -8h-44l-116 149l2 8q39 22 120 22z" />
    <glyph glyph-name="afii10071" unicode="&#x451;" horiz-adv-x="504" 
d="M433 111l19 -23q-3 -4 -8.5 -10.5t-26 -23.5t-43.5 -30t-61 -23.5t-79 -10.5q-99 0 -153 56.5t-54 152.5q0 127 87 207.5t218 80.5q81 0 119.5 -30.5t38.5 -75.5q0 -71 -84.5 -119t-211.5 -53v-3q0 -74 23.5 -106.5t79.5 -32.5q35 0 69 11t50 22zM317 439
q-44 0 -77.5 -51t-42.5 -130q71 7 117 39t46 89q0 53 -43 53zM362 610q0 32 21.5 52.5t53.5 20.5q26 0 40.5 -14.5t14.5 -39.5q0 -32 -21 -53t-53 -21q-26 0 -41 14.5t-15 40.5zM152 610q0 32 21.5 52.5t53.5 20.5q26 0 40.5 -14.5t14.5 -39.5q0 -32 -21 -53t-53 -21
q-26 0 -41 14.5t-15 40.5z" />
    <glyph glyph-name="afii10099" unicode="&#x452;" horiz-adv-x="573" 
d="M320 -26l59 376q8 50 -25 50q-22 0 -49 -26.5t-48.5 -63.5t-33.5 -60.5t-15 -31.5l-34 -218h-148l76 477l14 101h-75l5 31l76 29l7 100l12 12h136q-1 -46 -7 -116h152l-10 -56h-148q-9 -72 -14 -101l-9 -56l-18 -88l4 -4q3 6 8 17t24 38t41 48t57.5 38t74.5 17
q117 0 94 -137l-51 -326q-9 -57 -39 -107t-66 -81.5t-71 -54.5t-59 -33l-23 -10l-19 23q4 3 11 9.5t25.5 28t34 45t30.5 59t21 71.5z" />
    <glyph glyph-name="afii10100" unicode="&#x453;" horiz-adv-x="421" 
d="M210 556l-7 8l102 171q36 0 64.5 -5.5t38.5 -11.5l10 -5l-1 -8l-164 -149h-43zM76 372l11 62q8 6 23 15t63 23.5t98 14.5q131 0 131 -92q0 -37 -24 -68.5t-59 -54t-69.5 -44t-58.5 -48t-24 -56.5q0 -48 70 -48q30 0 61.5 8t48.5 16l17 8l-11 -61q-7 -6 -21.5 -15.5
t-63 -25.5t-102.5 -16q-79 0 -113.5 29t-34.5 73q0 38 24 70t59 54t69.5 43t58.5 46t24 53q0 43 -58 43q-25 0 -55 -7.5t-47 -14.5z" />
    <glyph glyph-name="afii10101" unicode="&#x454;" horiz-adv-x="505" 
d="M439 111l19 -23q-3 -4 -8.5 -10.5t-25.5 -23.5t-43 -30t-61.5 -23.5t-79.5 -10.5q-100 0 -156.5 57.5t-56.5 156.5q0 122 81 202.5t221 80.5q78 0 122 -26t44 -73q0 -14 -4 -27.5t-8 -20.5l-4 -6q-40 -12 -116 -12l-10 12q15 25 15 54q0 51 -53 51q-44 0 -73.5 -48
t-41.5 -116h174l7 -9l-8 -47h-179v-16q0 -71 26.5 -103.5t83.5 -32.5q34 0 68 11t50 22z" />
    <glyph glyph-name="afii10102" unicode="&#x455;" horiz-adv-x="480" 
d="M188 378q0 -25 24 -43.5t91 -54.5q69 -38 98 -67t29 -76q0 -66 -58.5 -106.5t-174.5 -40.5q-88 0 -138 26t-50 78q0 15 4.5 29.5t8.5 21.5l5 7q46 13 121 13l11 -13q-18 -22 -18 -55q0 -59 67 -59q39 0 61.5 19.5t22.5 46.5q0 26 -26 45t-93 51q-31 15 -48 25t-36 27
t-27.5 38t-8.5 49q0 67 55 107.5t168 40.5q173 0 173 -102q0 -15 -4 -28.5t-8 -19.5l-4 -6q-45 -13 -120 -13l-10 13q14 18 14 52q0 56 -57 56q-34 0 -53 -18t-19 -43z" />
    <glyph glyph-name="afii10103" unicode="&#x456;" horiz-adv-x="276" 
d="M105 623q0 44 29 72.5t73 28.5q34 0 54.5 -20t20.5 -54q0 -44 -29.5 -72.5t-73.5 -28.5q-34 0 -54 20.5t-20 53.5zM25 0l48 300l21 165l12 12h135q-4 -77 -20 -177l-48 -300h-148z" />
    <glyph glyph-name="afii10104" unicode="&#x457;" horiz-adv-x="275" 
d="M40 610q0 32 21.5 52.5t53.5 20.5q25 0 39.5 -14.5t14.5 -38.5q0 -33 -21 -54t-54 -21q-25 0 -39.5 15t-14.5 40zM223 610q0 32 21.5 52.5t53.5 20.5q25 0 39.5 -14.5t14.5 -38.5q0 -33 -21 -54t-53 -21q-26 0 -40.5 15t-14.5 40zM25 0l48 300l21 165l12 12h135
q-4 -77 -20 -177l-48 -300h-148z" />
    <glyph glyph-name="afii10105" unicode="&#x458;" horiz-adv-x="275" 
d="M104 623q0 44 29 72.5t73 28.5q35 0 55 -20t20 -54q0 -44 -29 -72.5t-73 -28.5q-35 0 -55 20.5t-20 53.5zM21 -26l52 326l21 165l12 12h135q-4 -77 -20 -177l-45 -276q-9 -57 -39 -107t-66 -81.5t-71 -54.5t-58 -33l-24 -10l-19 23q4 3 11 9.5t25.5 28t34 45t30.5 59
t21 71.5z" />
    <glyph glyph-name="afii10106" unicode="&#x459;" horiz-adv-x="793" 
d="M315 117l47 297h-119l-13 -83q-53 -341 -206 -341q-36 0 -36 22q0 23 3.5 48.5t6.5 39.5l4 14l14 12q11 -10 30 -10q26 0 46 23t33.5 68t20.5 78t15 86q3 19 6.5 35t7 26.5t7.5 18.5t7.5 12.5t6 7.5t4.5 5l2 1h318l-30 -185q38 9 82 9q89 0 133 -35t44 -96
q0 -76 -65 -128t-186 -52q-93 0 -142.5 33.5t-40.5 93.5zM528 239q-24 0 -47 -7l-19 -121q-5 -27 7 -42.5t39 -15.5q38 0 63.5 33.5t25.5 81.5q0 71 -69 71z" />
    <glyph glyph-name="afii10107" unicode="&#x45a;" horiz-adv-x="813" 
d="M336 117l15 97h-144l-34 -214h-148l48 300l21 165l12 12h135q-4 -77 -20 -177l-4 -24h144l4 24l22 165l12 12h136q-7 -78 -22 -177l-2 -8q38 9 82 9q89 0 133 -35t44 -96q0 -76 -65 -128t-186 -52q-93 0 -142.5 33.5t-40.5 93.5zM549 239q-24 0 -47 -7l-19 -121
q-5 -27 7 -42.5t39 -15.5q38 0 63.5 33.5t25.5 81.5q0 71 -69 71z" />
    <glyph glyph-name="afii10108" unicode="&#x45b;" horiz-adv-x="573" 
d="M323 0l56 350q8 50 -25 50q-29 0 -65.5 -46t-54.5 -80.5t-26 -54.5v-1l-34 -218h-148l76 477l14 101h-75l5 31l76 29l7 100l12 12h136q-1 -46 -7 -116h152l-10 -56h-148q-9 -72 -14 -101l-9 -56l-18 -88l4 -4q3 6 8 17t24 38t41 48t57.5 38t74.5 17q117 0 94 -137
l-55 -350h-148z" />
    <glyph glyph-name="afii10109" unicode="&#x45c;" horiz-adv-x="542" 
d="M25 0l48 300l21 165l12 12h135q-4 -77 -20 -177l-4 -21l33 4l30 31q44 45 73.5 84t36.5 55l8 16l10 8h120l-166 -178l37 -103q20 -51 43.5 -96t36.5 -64l13 -20l-3 -16h-151l-102 228h-27l-36 -228h-148zM256 556l-7 8l102 171q36 0 64.5 -5.5t38.5 -11.5l10 -5l-1 -8
l-164 -149h-43z" />
    <glyph glyph-name="uni045D" unicode="&#x45d;" horiz-adv-x="575" 
d="M105 477h138q-4 -70 -22 -177l-27 -173q-8 -50 25 -50q54 0 144 180l1 2l32 206l12 12h138l-48 -300q-7 -44 -8.5 -85.5t0.5 -60.5l3 -19l-13 -12h-135q-2 5 -3.5 13.5t-4 36.5t3.5 53l7 41l-3 4q-3 -6 -8 -17t-24 -38t-41 -48t-57.5 -38t-73.5 -17q-115 0 -94 137
l27 173q7 44 12 85.5t6 60.5l1 19zM391 564l-9 -8h-44l-115 149l1 8q39 22 120 22z" />
    <glyph glyph-name="afii10110" unicode="&#x45e;" horiz-adv-x="516" 
d="M-38 -260q-14 0 -29 4t-23 8l-8 3q0 38 10 70.5t20 46.5l9 13q26 -15 59 -15q72 0 176 106l-77 324q-12 52 -26 94t-21 58l-8 17l8 8h155l75 -370q120 181 120 305q0 17 -2 31t-4 20l-3 6l9 8h99q6 -13 6 -35q0 -58 -59 -176t-141 -234t-179.5 -204t-165.5 -88zM298 529
q-68 0 -109 23.5t-41 62.5q0 11 3 21.5t6 15.5l3 5q42 13 100 13l6 -10q-11 -17 -11 -35t14 -27.5t37 -9.5q28 0 46 13.5t18 38.5l-2 20l10 9q26 0 49.5 -3t34.5 -6l10 -3q3 -12 3 -23q0 -47 -50.5 -76t-126.5 -29z" />
    <glyph glyph-name="afii10193" unicode="&#x45f;" horiz-adv-x="575" 
d="M364 259l32 206l12 12h138l-48 -300q-7 -44 -8.5 -85.5t0.5 -60.5l3 -19l-13 -12h-135q-2 5 -3.5 13.5t-4 36.5t3.5 53l7 41l-3 4q-24 -56 -72 -101q-3 -94 -34 -208h-72l-10 12q12 76 6 141q-14 -2 -22 -2q-115 0 -94 137l27 173q7 44 12 85.5t6 60.5l1 19l12 12h138
q-4 -70 -22 -177l-27 -173q-8 -50 25 -50q54 0 144 180l-18 -109l19 110v1zM364 259l-1 -2l1 1v1z" />
    <glyph glyph-name="afii10050" unicode="&#x490;" horiz-adv-x="523" 
d="M32 0l111 700h300q35 64 51 163l14 12h78l-18 -226l-14 -12h-267l-101 -637h-154z" />
    <glyph glyph-name="afii10098" unicode="&#x491;" horiz-adv-x="426" 
d="M25 0l60 373q6 39 15.5 65t16.5 32l7 7h193q6 6 14 17t22 49.5t14 82.5l11 12h71q0 -59 -7.5 -111.5t-14.5 -76.5l-7 -23l-10 -13h-171l-66 -414h-148z" />
    <glyph glyph-name="uni04D8" unicode="&#x4d8;" horiz-adv-x="720" 
d="M43 210q0 33 7 62.5t14 43.5l7 13l15 12h436q3 27 3 57q0 113 -44.5 167.5t-134.5 54.5q-56 0 -109.5 -19t-79.5 -37l-26 -19l-21 24q4 6 11.5 15.5t34.5 33.5t58 43t82.5 34t107.5 15q137 0 216 -82.5t79 -222.5q0 -176 -117 -295.5t-290 -119.5q-119 0 -184 60t-65 160
zM298 42q74 0 133.5 68t82.5 176l-314 -19q-10 -40 -10 -86q0 -139 108 -139z" />
    <glyph glyph-name="afii10846" unicode="&#x4d9;" horiz-adv-x="504" 
d="M67 366l-19 23q3 4 8.5 10.5t25.5 23.5t43.5 30t61 23.5t78.5 10.5q100 0 154 -56.5t54 -152.5q0 -127 -87.5 -207.5t-218.5 -80.5q-80 0 -118.5 30.5t-38.5 75.5q0 71 84.5 119t211.5 53v3q0 74 -23.5 106.5t-79.5 32.5q-36 0 -70 -11t-50 -22zM183 38q43 0 76.5 50
t43.5 130q-71 -6 -117 -38t-46 -89q0 -53 43 -53z" />
    <glyph glyph-name="Wgrave" unicode="&#x1e80;" horiz-adv-x="1040" 
d="M632 21l-68 393l-197 -414h-113l-18 21l-103 502q-10 50 -22.5 91t-20.5 57l-7 16l2 13h175l110 -544l174 372q-9 48 -19.5 88t-16.5 56l-7 15l2 13h175l91 -536l253 536h76l-336 -700h-112zM693 767l-9 -8h-43l-116 149l2 8q38 22 119 22z" />
    <glyph glyph-name="wgrave" unicode="&#x1e81;" horiz-adv-x="766" 
d="M434 21l-30 185q-44 -79 -129 -206h-96l-19 21l-61 279q-11 51 -26 93.5t-24 58.5l-9 17l9 8h154l77 -346q79 133 99 219q-8 36 -18 65.5t-16 41.5l-6 12l8 8h148l59 -348q110 172 108 280q0 19 -3 34t-5 21l-3 5l8 8h100q6 -10 7 -38q1 -63 -46.5 -163t-173.5 -276h-94z
M502 564l-10 -8h-43l-116 149l2 8q38 22 120 22z" />
    <glyph glyph-name="Wacute" unicode="&#x1e82;" horiz-adv-x="1040" 
d="M632 21l-68 393l-197 -414h-113l-18 21l-103 502q-10 50 -22.5 91t-20.5 57l-7 16l2 13h175l110 -544l174 372q-9 48 -19.5 88t-16.5 56l-7 15l2 13h175l91 -536l253 536h76l-336 -700h-112zM560 759l-7 8l101 171q36 0 64 -5.5t38 -10.5l11 -6l-1 -8l-163 -149h-43z" />
    <glyph glyph-name="wacute" unicode="&#x1e83;" horiz-adv-x="766" 
d="M434 21l-30 185q-44 -79 -129 -206h-96l-19 21l-61 279q-11 51 -26 93.5t-24 58.5l-9 17l9 8h154l77 -346q79 133 99 219q-8 36 -18 65.5t-16 41.5l-6 12l8 8h148l59 -348q110 172 108 280q0 19 -3 34t-5 21l-3 5l8 8h100q6 -10 7 -38q1 -63 -46.5 -163t-173.5 -276h-94z
M370 556l-7 8l101 171q36 0 64 -5.5t38 -11.5l11 -5l-1 -8l-163 -149h-43z" />
    <glyph glyph-name="Wdieresis" unicode="&#x1e84;" horiz-adv-x="1040" 
d="M632 21l-68 393l-197 -414h-113l-18 21l-103 502q-10 50 -22.5 91t-20.5 57l-7 16l2 13h175l110 -544l174 372q-9 48 -19.5 88t-16.5 56l-7 15l2 13h175l91 -536l253 536h76l-336 -700h-112zM459 813q0 32 21 52.5t53 20.5q26 0 40.5 -14.5t14.5 -40.5q0 -31 -21 -52
t-52 -21q-26 0 -41 14.5t-15 40.5zM669 813q0 32 21 52.5t53 20.5q26 0 40.5 -14.5t14.5 -40.5q0 -31 -21 -52t-53 -21q-26 0 -40.5 15t-14.5 40z" />
    <glyph glyph-name="wdieresis" unicode="&#x1e85;" horiz-adv-x="766" 
d="M434 21l-30 185q-44 -79 -129 -206h-96l-19 21l-61 279q-11 51 -26 93.5t-24 58.5l-9 17l9 8h154l77 -346q79 133 99 219q-8 36 -18 65.5t-16 41.5l-6 12l8 8h148l59 -348q110 172 108 280q0 19 -3 34t-5 21l-3 5l8 8h100q6 -10 7 -38q1 -63 -46.5 -163t-173.5 -276h-94z
M480 610q0 32 21.5 52.5t53.5 20.5q26 0 40.5 -14.5t14.5 -39.5q0 -32 -21 -53t-53 -21q-26 0 -41 14.5t-15 40.5zM271 610q0 32 21 52.5t53 20.5q26 0 40.5 -14.5t14.5 -39.5q0 -32 -21 -53t-53 -21q-26 0 -40.5 14.5t-14.5 40.5z" />
    <glyph glyph-name="Ygrave" unicode="&#x1ef2;" horiz-adv-x="658" 
d="M714 700l-289 -374l-51 -326h-155l50 316l-78 172q-25 55 -52 104.5t-42 71.5l-15 23l2 13h191l132 -290l223 290h84zM484 772l-9 -8h-43l-116 149l1 8q39 23 120 23z" />
    <glyph glyph-name="ygrave" unicode="&#x1ef3;" horiz-adv-x="516" 
d="M-38 -260q-14 0 -29 4t-23 8l-8 3q0 38 10 70.5t20 46.5l9 13q26 -15 59 -15q72 0 176 106l-77 324q-12 52 -26 94t-21 58l-8 17l8 8h155l75 -370q120 181 120 305q0 17 -2 31t-4 20l-3 6l9 8h99q6 -13 6 -35q0 -58 -59 -176t-141 -234t-179.5 -204t-165.5 -88zM366 564
l-9 -8h-44l-116 149l2 8q39 22 120 22z" />
    <glyph glyph-name="figuredash" unicode="&#x2012;" 
d="M55 319v62h483v-62h-483z" />
    <glyph glyph-name="endash" unicode="&#x2013;" horiz-adv-x="493" 
d="M55 244v62h383v-62h-383z" />
    <glyph glyph-name="emdash" unicode="&#x2014;" horiz-adv-x="793" 
d="M55 244v62h683v-62h-683z" />
    <glyph glyph-name="quoteleft" unicode="&#x2018;" horiz-adv-x="227" 
d="M276 757l19 -23q-4 -4 -10 -11.5t-21.5 -31t-27.5 -48.5t-21.5 -61.5t-9.5 -72.5q0 -14 1.5 -27.5t3.5 -19.5l1 -7l-9 -8q-37 0 -67 4.5t-41 9.5l-12 5q-2 10 -2 27q0 47 20 91.5t49 74.5t58 53t49 34z" />
    <glyph glyph-name="quoteright" unicode="&#x2019;" horiz-adv-x="227" 
d="M79 448l-19 23q10 11 25 31t40 79t25 115q0 15 -1.5 28.5t-2.5 19.5l-2 6l10 8q36 0 66 -4.5t42 -9.5l11 -4q2 -11 2 -28q0 -47 -20 -91.5t-49 -74.5t-58 -53t-49 -34z" />
    <glyph glyph-name="quotesinglbase" unicode="&#x201a;" horiz-adv-x="227" 
d="M-29 -173l-19 23q4 4 10 11.5t21.5 31.5t27.5 49t21.5 61.5t9.5 72.5q0 14 -1.5 27.5t-2.5 19.5l-2 6l10 9q36 0 66 -5t42 -9l11 -5q2 -10 2 -28q0 -47 -20 -91.5t-49 -74t-58 -53t-49 -34.5z" />
    <glyph glyph-name="quotedblleft" unicode="&#x201c;" horiz-adv-x="397" 
d="M276 757l19 -23q-4 -4 -10 -11.5t-21.5 -31t-27.5 -48.5t-21.5 -61.5t-9.5 -72.5q0 -14 1.5 -27.5t3.5 -19.5l1 -7l-9 -8q-37 0 -67 4.5t-41 9.5l-12 5q-2 10 -2 27q0 47 20 91.5t49 74.5t58 53t49 34zM446 757l19 -23q-10 -11 -25 -31t-39.5 -79t-24.5 -115
q0 -14 1.5 -27.5t2.5 -19.5l2 -7l-10 -8q-37 0 -67 4.5t-41 9.5l-12 5q-2 10 -2 27q0 47 20 91.5t49 74.5t58 53t49 34z" />
    <glyph glyph-name="quotedblright" unicode="&#x201d;" horiz-adv-x="397" 
d="M79 448l-19 23q10 11 25 31t40 79t25 115q0 15 -1.5 28.5t-2.5 19.5l-2 6l10 8q36 0 66 -4.5t42 -9.5l11 -4q2 -11 2 -28q0 -47 -20 -91.5t-49 -74.5t-58 -53t-49 -34zM249 448l-19 23q10 11 25 31t40 79t25 115q0 15 -1.5 28.5t-2.5 19.5l-2 6l10 8q36 0 66 -4.5
t42 -9.5l11 -4q2 -11 2 -28q0 -47 -20 -91.5t-49 -74.5t-58 -53t-49 -34z" />
    <glyph glyph-name="quotedblbase" unicode="&#x201e;" horiz-adv-x="397" 
d="M-29 -173l-19 23q4 4 10 11.5t21.5 31.5t27.5 49t21.5 61.5t9.5 72.5q0 14 -1.5 27.5t-2.5 19.5l-2 6l10 9q36 0 66 -5t42 -9l11 -5q2 -10 2 -28q0 -47 -20 -91.5t-49 -74t-58 -53t-49 -34.5zM141 -173l-19 23q4 4 10 11.5t21.5 31.5t27.5 49t21.5 61.5t9.5 72.5
q0 14 -1.5 27.5t-2.5 19.5l-2 6l10 9q36 0 66 -5t42 -9l11 -5q2 -10 2 -28q0 -47 -20 -91.5t-49 -74t-58 -53t-49 -34.5z" />
    <glyph glyph-name="dagger" unicode="&#x2020;" horiz-adv-x="482" 
d="M75 489l11 73l173 -7l24 195h72l-38 -195l176 7l-12 -73l-170 7l-87 -546h-62l86 546z" />
    <glyph glyph-name="daggerdbl" unicode="&#x2021;" horiz-adv-x="482" 
d="M75 489l11 73l173 -7l24 195h72l-38 -195l176 7l-12 -73l-170 7l-47 -292l173 7l-12 -73l-172 7l-24 -195h-72l38 195l-176 -7l12 73l170 -7l48 292z" />
    <glyph glyph-name="bullet" unicode="&#x2022;" horiz-adv-x="289" 
d="M43 284q0 54 36 89.5t90 35.5q43 0 67.5 -24.5t24.5 -67.5q0 -54 -35.5 -89.5t-89.5 -35.5q-43 0 -68 24.5t-25 67.5z" />
    <glyph glyph-name="ellipsis" unicode="&#x2026;" horiz-adv-x="695" 
d="M5 56q0 39 26 65t65 26q31 0 49.5 -18t18.5 -49q0 -39 -26 -64.5t-65 -25.5q-32 0 -50 17.5t-18 48.5zM239 56q0 39 26 65t65 26q31 0 49.5 -18t18.5 -49q0 -39 -26 -64.5t-66 -25.5q-31 0 -49 17.5t-18 48.5zM473 56q0 39 26 65t65 26q31 0 49 -18t18 -49
q0 -39 -26 -64.5t-65 -25.5q-31 0 -49 17.5t-18 48.5z" />
    <glyph glyph-name="perthousand" unicode="&#x2030;" horiz-adv-x="1218" 
d="M205 0h-72l527 700h72zM65 483q0 96 60.5 161.5t147.5 65.5q69 0 109 -44t40 -119q0 -96 -60.5 -161.5t-147.5 -65.5q-70 0 -109.5 44t-39.5 119zM175 464q0 -92 47 -92q37 0 63.5 59t26.5 134q0 92 -48 92q-37 0 -63 -59t-26 -134zM443 154q0 96 60 161t148 65
q70 0 109.5 -44t39.5 -119q0 -96 -60.5 -161.5t-147.5 -65.5q-70 0 -109.5 44t-39.5 120zM552 134q0 -92 48 -92q37 0 63.5 59t26.5 134q0 92 -48 92q-37 0 -63.5 -59.5t-26.5 -133.5zM826 154q0 95 60 160.5t148 65.5q70 0 109.5 -44t39.5 -119q0 -96 -60 -161.5
t-147 -65.5q-70 0 -110 44t-40 120zM935 134q0 -92 48 -92q37 0 64 59t27 134q0 92 -49 92q-37 0 -63.5 -59.5t-26.5 -133.5z" />
    <glyph glyph-name="guilsinglleft" unicode="&#x2039;" horiz-adv-x="288" 
d="M279 471l8 -9l-9 -51l-129 -136l86 -136l-8 -51l-10 -9l-183 185l4 22z" />
    <glyph glyph-name="guilsinglright" unicode="&#x203a;" horiz-adv-x="288" 
d="M68 462l10 9l183 -185l-4 -22l-241 -185l-7 9l8 51l129 136l-86 136z" />
    <glyph glyph-name="fraction" unicode="&#x2044;" horiz-adv-x="528" 
d="M84 -25h-72l432 750h72z" />
    <glyph glyph-name="Euro" unicode="&#x20ac;" horiz-adv-x="725" 
d="M40 392l9 63h61q42 117 143.5 186t251.5 69q51 0 93 -8.5t66.5 -20t41.5 -23.5t23 -20l6 -9q-4 -24 -13.5 -45.5t-20.5 -34t-21.5 -22t-17.5 -13.5l-7 -3h-16q-1 6 -4.5 16t-15.5 35t-28 44.5t-44.5 35.5t-61.5 16q-69 0 -123.5 -54.5t-83.5 -148.5h251l8 -9l-9 -54h-265
q-8 -46 -11 -87h254l7 -9l-9 -54h-251q7 -200 143 -200q34 0 67.5 15t56 37t40.5 43.5t26 36.5l9 15h16q2 -1 5.5 -4t13.5 -12.5t15 -22t10.5 -33.5t-0.5 -46q-3 -3 -9 -8.5t-29 -19.5t-50 -24.5t-72 -19.5t-96 -9q-287 0 -314 252h-69l10 63h57q1 45 9 87h-52z" />
    <glyph glyph-name="uni20B4" unicode="&#x20b4;" horiz-adv-x="564" 
d="M61 392l10 63h282q42 44 42 92q0 73 -95 73q-46 0 -90 -16t-65 -32l-21 -15l-20 24q3 5 9.5 14t30.5 31t52.5 39t76 31t100.5 14q91 0 140.5 -38t49.5 -100t-53 -117h48l-10 -63h-113q-22 -15 -63 -41.5t-49 -32.5h213l-10 -63h-281q-45 -48 -45 -98q0 -77 101 -77
q48 0 93.5 16t66.5 32l21 16l20 -24q-3 -5 -10 -14t-31.5 -31.5t-53.5 -39.5t-78 -31t-103 -14q-93 0 -144 37.5t-51 102.5t58 125h-50l10 63h116q15 10 53.5 35t58.5 39h-216z" />
    <glyph glyph-name="afii61352" unicode="&#x2116;" horiz-adv-x="1065" 
d="M32 0l67 420q13 81 16.5 148t0.5 94l-2 26l14 12h53l372 -455l72 455h76l-111 -700h-45l-372 454l-72 -454h-69zM725 483q0 96 60.5 161.5t148.5 65.5q69 0 109 -44t40 -119q0 -96 -60.5 -161.5t-147.5 -65.5q-69 0 -109.5 44t-40.5 119zM836 464q0 -92 47 -92
q37 0 63.5 59t26.5 134q0 92 -48 92q-37 0 -63 -59t-26 -134zM686 187l9 63h334l-9 -63h-334z" />
    <glyph glyph-name="trademark" unicode="&#x2122;" horiz-adv-x="795" 
d="M692 350l15 274l-2 2l-120 -266h-63l-9 12l-40 254l-3 -3l-66 -273h-44l64 260q5 22 7.5 43t2.5 31v9l9 7h116l34 -222l102 222h114l-17 -350h-100zM279 663l-50 -313h-95l48 313h-22q-24 0 -45 -4.5t-30 -8.5l-9 -5l-6 7l7 48h319l-8 -48l-8 -7q-24 18 -79 18h-22z" />
    <glyph glyph-name="arrowleft" unicode="&#x2190;" horiz-adv-x="543" 
d="M269 487l9 -9v-51l-104 -121h314v-62h-314l104 -121v-51l-9 -9l-234 201v22z" />
    <glyph glyph-name="arrowup" unicode="&#x2191;" horiz-adv-x="536" 
d="M298 59h-63v312l-121 -102h-51l-8 8l200 234h23l200 -234l-8 -8h-51l-121 102v-312z" />
    <glyph glyph-name="arrowright" unicode="&#x2192;" horiz-adv-x="543" 
d="M55 244v62h313l-103 121v51l9 9l234 -201v-22l-234 -201l-9 9v51l103 121h-313z" />
    <glyph glyph-name="arrowdown" unicode="&#x2193;" horiz-adv-x="536" 
d="M55 273l8 8h51l121 -103v313h63v-312l121 102h51l8 -8l-200 -234h-23z" />
    <glyph glyph-name="uni2196" unicode="&#x2196;" horiz-adv-x="536" 
d="M135 120h-13l-23 307l16 16l307 -23v-13l-36 -36l-159 -13l221 -221l-44 -44l-222 220l-12 -157z" />
    <glyph glyph-name="uni2197" unicode="&#x2197;" horiz-adv-x="536" 
d="M142 93l-43 44l220 221l-158 13l-36 36v13l307 23l16 -16l-23 -307h-13l-35 36l-14 157z" />
    <glyph glyph-name="uni2198" unicode="&#x2198;" horiz-adv-x="536" 
d="M99 399l43 44l221 -221l14 158l35 36h13l23 -307l-16 -16l-307 23v13l36 36l158 12z" />
    <glyph glyph-name="uni2199" unicode="&#x2199;" horiz-adv-x="536" 
d="M422 129v-13l-307 -23l-16 16l23 307h13l35 -36l12 -158l222 221l44 -44l-221 -222l159 -12z" />
    <glyph glyph-name="minus" unicode="&#x2212;" 
d="M99 294v62h395v-62h-395z" />
    <glyph glyph-name="approxequal" unicode="&#x2248;" 
d="M99 361v68q47 51 98 51q34 0 99 -28.5t100 -28.5q50 0 98 52v-69q-46 -52 -97 -52q-34 0 -98.5 29t-99.5 29q-50 0 -100 -51zM397 166q-34 0 -98.5 29t-99.5 29q-50 0 -100 -51v68q47 51 98 51q34 0 99 -28.5t100 -28.5q50 0 98 52v-69q-46 -52 -97 -52z" />
    <glyph glyph-name="notequal" unicode="&#x2260;" 
d="M99 387v62h231l68 114l53 -31l-49 -83h92v-62h-129l-73 -124h202v-62h-238l-67 -114l-54 31l49 83h-85v62h121l74 124h-195z" />
    <glyph glyph-name="lessequal" unicode="&#x2264;" 
d="M504 585v-67l-325 -126l325 -126v-67l-415 160v67zM89 79v62h415v-62h-415z" />
    <glyph glyph-name="greaterequal" unicode="&#x2265;" 
d="M89 518v67l415 -159v-67l-415 -160v67l325 126zM89 79v62h415v-62h-415z" />
    <glyph glyph-name="commaaccent" unicode="&#xf6c3;" horiz-adv-x="211" 
d="M-29 -252l-12 15q7 7 17 19.5t27 52t17 79.5l-3 33l5 5q24 0 46 -3t32 -6l9 -3q2 -5 2 -18q0 -32 -14.5 -62t-35 -49.5t-41 -34.5t-34.5 -22z" />
    <glyph glyph-name="zerooldstyle" unicode="&#xf730;" horiz-adv-x="645" 
d="M37 206q0 121 91.5 201t228.5 80q114 0 180 -58.5t66 -157.5q0 -121 -91.5 -201t-228.5 -80q-114 0 -180 58t-66 158zM190 191q0 -149 100 -149q69 0 115 69.5t46 174.5q0 149 -101 149q-69 0 -114.5 -69t-45.5 -175z" />
    <glyph glyph-name="oneoldstyle" unicode="&#xf731;" horiz-adv-x="456" 
d="M165 0l57 357q-84 -46 -166 -46q-7 16 0 58l10 8q56 0 121 25t102 50l37 25h63l-76 -477h-148z" />
    <glyph glyph-name="twooldstyle" unicode="&#xf732;" horiz-adv-x="548" 
d="M527 370q0 -43 -34 -87t-76.5 -75t-97.5 -60t-80.5 -40t-41.5 -17h123q48 0 89 7.5t57 15.5l17 7l10 -12l-17 -109h-484l10 61q15 7 39.5 18.5t88 48t112 72t88 84t39.5 90.5q0 28 -17.5 44.5t-50.5 16.5q-47 0 -74 -34t-27 -90q0 -12 1 -20.5t3 -11.5l1 -3l-14 -12
q-38 0 -72 3t-49 6l-15 3q-5 10 -5 33q0 79 67 128.5t198 49.5q100 0 156 -31t56 -86z" />
    <glyph glyph-name="threeoldstyle" unicode="&#xf733;" horiz-adv-x="609" 
d="M218 -208q69 0 107.5 57.5t38.5 134.5q0 118 -99 118h-46l-6 9l9 61h36q66 0 103 40.5t37 124.5q0 50 -18.5 74t-59.5 24q-53 0 -87.5 -37.5t-34.5 -106.5l4 -38l-14 -12q-38 0 -72 3t-49 6l-15 3q-4 13 -4 35q0 88 75.5 143.5t208.5 55.5q222 0 222 -161
q0 -69 -40 -117.5t-115 -69.5q62 -13 94 -55t32 -106q0 -107 -85 -172.5t-227 -65.5q-116 0 -174.5 43.5t-58.5 117.5q0 24 6 44.5t12 28.5l5 8q53 12 139 12l11 -12q-26 -33 -26 -92q0 -98 91 -98z" />
    <glyph glyph-name="fouroldstyle" unicode="&#xf734;" horiz-adv-x="589" 
d="M-18 0l5 31l453 446h74l-66 -414h83l-11 -63h-82l-40 -250h-147l39 250h-308zM103 63h197l37 230z" />
    <glyph glyph-name="fiveoldstyle" unicode="&#xf735;" horiz-adv-x="587" 
d="M207 -208q65 0 104.5 64t39.5 149q0 72 -32.5 104t-102.5 32q-39 0 -78.5 -9t-59.5 -18l-19 -9l-10 14l97 349h207q48 0 89 7.5t58 14.5l17 8l10 -12l-22 -137h-322l-47 -170q72 36 158 36q108 0 164 -56t56 -151q0 -119 -82.5 -193.5t-230.5 -74.5q-111 0 -167 42.5
t-56 113.5q0 23 6 43t12 28l5 8q54 12 140 12l10 -12q-26 -31 -26 -90q0 -46 21.5 -69.5t60.5 -23.5z" />
    <glyph glyph-name="sixoldstyle" unicode="&#xf736;" horiz-adv-x="635" 
d="M394 658q-70 0 -120.5 -79t-64.5 -230q62 66 172 66q93 0 150 -48.5t57 -132.5q0 -107 -87.5 -175.5t-208.5 -68.5q-120 0 -181 75t-61 215q0 80 19 152.5t59 136.5t112.5 102.5t168.5 38.5t152.5 -36.5t56.5 -99.5q0 -20 -5 -37.5t-11 -25.5l-5 -8q-54 -12 -139 -12
l-10 12q23 30 23 76q0 40 -21.5 59.5t-55.5 19.5zM333 363q-71 0 -128 -91v-31q0 -105 20.5 -152t67.5 -47q54 0 94 56t40 139q0 63 -25 94.5t-69 31.5z" />
    <glyph glyph-name="sevenoldstyle" unicode="&#xf737;" horiz-adv-x="548" 
d="M226 -250h-148q16 100 59 199.5t92.5 170t97 126.5t79.5 84l31 28h-217q-48 0 -88.5 -7.5t-57.5 -14.5l-17 -8l-10 12l21 137h484l-10 -65q-11 -12 -28.5 -35t-65.5 -94.5t-87.5 -145.5t-79 -180.5t-55.5 -206.5z" />
    <glyph glyph-name="eightoldstyle" unicode="&#xf738;" horiz-adv-x="611" 
d="M588 557q0 -117 -146 -188q55 -35 85.5 -74.5t30.5 -95.5q0 -87 -74 -148t-218 -61q-123 0 -182 45t-59 120q0 126 160 196q-84 59 -84 151q0 90 72.5 149t200.5 59q108 0 161 -42t53 -111zM410 160q0 16 -3.5 29.5t-15 26.5t-18.5 21t-27.5 20.5t-27.5 17t-34 18.5
t-32 17q-86 -59 -86 -149q0 -54 29.5 -86.5t83.5 -32.5q58 0 94.5 35.5t36.5 82.5zM358 658q-48 0 -77.5 -29t-29.5 -73q0 -47 32 -80t93 -69q78 65 78 149q0 48 -26 75t-70 27z" />
    <glyph glyph-name="nineoldstyle" unicode="&#xf739;" horiz-adv-x="625" 
d="M221 -208q42 0 76 30t55 82t34 106t20 116q-59 -59 -161 -59q-89 0 -146 45.5t-57 130.5q0 107 87 175.5t205 68.5q119 0 177.5 -76t58.5 -215q0 -82 -20.5 -159.5t-61 -145.5t-113 -109.5t-165.5 -41.5q-96 0 -159 40t-63 109q0 20 5 37.5t11 25.5l5 7q54 12 140 12
l10 -12q-23 -29 -23 -79q0 -43 23.5 -65.5t61.5 -22.5zM294 119q61 0 118 71q2 50 2 66q0 179 -84 179q-50 0 -88 -55.5t-38 -139.5q0 -121 90 -121z" />
    <glyph glyph-name="A.smcp" horiz-adv-x="554" 
d="M125 121l-67 -121h-68l250 445l-17 35l2 10h153l126 -490h-145l-31 121h-203zM267 365q-2 4 -2 8l-111 -199h161z" />
    <glyph glyph-name="Aacute.smcp" horiz-adv-x="553" 
d="M124 121l-67 -121h-68l251 444l-17 36l2 10h153l125 -490h-144l-31 121h-204zM261 535l-7 9l101 171q36 0 64.5 -5.5t38.5 -11.5l10 -5l-1 -9l-163 -149h-43zM266 365q-2 4 -2 8l-111 -199h161z" />
    <glyph glyph-name="Abreve.smcp" horiz-adv-x="553" 
d="M124 121l-67 -121h-68l251 444l-17 36l2 10h153l125 -490h-144l-31 121h-204zM185 644l25 23q5 -6 14 -15t40 -24.5t66 -15.5t69.5 14t50.5 28l17 13l19 -23q-2 -4 -6.5 -11.5t-19.5 -26t-33 -32.5t-47 -25.5t-61 -11.5t-57.5 11t-39.5 26.5t-23 31.5t-11 27zM266 365
q-2 4 -2 8l-111 -199h161z" />
    <glyph glyph-name="Acircumflex.smcp" horiz-adv-x="553" 
d="M124 121l-67 -121h-68l251 444l-17 36l2 10h153l125 -490h-144l-31 121h-204zM479 544l-10 -9h-50l-84 85l-110 -85h-51l-7 9l165 171h37zM266 365q-2 4 -2 8l-111 -199h161z" />
    <glyph glyph-name="Agrave.smcp" horiz-adv-x="553" 
d="M124 121l-67 -121h-68l251 444l-17 36l2 10h153l125 -490h-144l-31 121h-204zM387 544l-10 -9h-43l-116 149l2 9q38 22 119 22zM266 365q-2 4 -2 8l-111 -199h161z" />
    <glyph glyph-name="Adieresis.smcp" horiz-adv-x="553" 
d="M124 121l-67 -121h-68l251 444l-17 36l2 10h153l125 -490h-144l-31 121h-204zM266 365q-2 4 -2 8l-111 -199h161zM161 595q0 32 21.5 52.5t53.5 20.5q26 0 40.5 -15t14.5 -40q0 -32 -21 -53t-53 -21q-26 0 -41 15t-15 41zM371 595q0 32 21.5 52.5t53.5 20.5
q26 0 40.5 -15t14.5 -40q0 -32 -21 -53t-53 -21q-26 0 -41 15t-15 41z" />
    <glyph glyph-name="Amacron.smcp" horiz-adv-x="553" 
d="M124 121l-67 -121h-68l251 444l-17 36l2 10h153l125 -490h-144l-31 121h-204zM194 565l10 63h264l-10 -63h-264zM266 365q-2 4 -2 8l-111 -199h161z" />
    <glyph glyph-name="Aogonek.smcp" horiz-adv-x="553" 
d="M124 121l-67 -121h-68l251 444l-17 36l2 10h153l125 -490h-31q-6 -5 -14.5 -15t-22.5 -36.5t-14 -49.5q0 -36 34 -36q8 0 15.5 1.5t10.5 3.5l3 2l19 -23q-3 -4 -9 -10t-26 -16.5t-43 -10.5q-33 0 -56 19.5t-23 56.5q0 34 20 62.5t40 39.5l19 12h-66l-31 121h-204z
M266 365q-2 4 -2 8l-111 -199h161z" />
    <glyph glyph-name="Aring.smcp" horiz-adv-x="553" 
d="M124 121l-67 -121h-68l251 444l-17 36l2 10h153l125 -490h-144l-31 121h-204zM242 607q0 45 30 75.5t75 30.5q36 0 56.5 -21t20.5 -57q0 -45 -30.5 -75.5t-74.5 -30.5q-36 0 -56.5 21t-20.5 57zM266 365q-2 4 -2 8l-111 -199h161zM299 615q0 -31 29 -31q16 0 28 12.5
t12 29.5q0 14 -8.5 23t-21.5 9q-17 0 -28 -12.5t-11 -30.5z" />
    <glyph glyph-name="Atilde.smcp" horiz-adv-x="553" 
d="M124 121l-67 -121h-68l251 444l-17 36l2 10h153l125 -490h-144l-31 121h-204zM295 652q25 0 50 -18t46 -18q20 0 40 10t30 20l10 9l18 -23q-2 -4 -6 -10t-16.5 -22t-26.5 -28t-35 -22t-43 -10q-25 0 -50 18.5t-45 18.5t-40 -10t-30 -20l-10 -10l-19 23q2 4 6 10t16.5 22
t26.5 28t35 22t43 10zM266 365q-2 4 -2 8l-111 -199h161z" />
    <glyph glyph-name="AE.smcp" horiz-adv-x="653" 
d="M-10 0l303 490h361l-11 -70l-11 -11q-37 27 -118 27h-76l-25 -157h153l6 -7l-7 -47h-161l-27 -171h83q36 0 67.5 7t44.5 13l13 7l9 -10l-11 -71h-355l22 138h-108l-84 -138h-68zM173 190h85l30 188z" />
    <glyph glyph-name="AEacute.smcp" horiz-adv-x="653" 
d="M-11 0l303 490h361l-11 -70l-11 -11q-36 27 -118 27h-75l-26 -157h154l5 -7l-7 -47h-160l-28 -171h83q36 0 67.5 7t44.5 13l13 7l10 -10l-11 -71h-356l22 138h-108l-84 -138h-68zM310 535l-7 9l102 171q36 0 64.5 -5.5t38.5 -11.5l10 -5l-1 -9l-164 -149h-43zM172 190h85
l30 188z" />
    <glyph glyph-name="B.smcp" horiz-adv-x="523" 
d="M27 0l77 490h206q187 0 187 -111q0 -93 -115 -122q103 -24 103 -111q0 -70 -60.5 -108t-179.5 -38h-218zM340 154q0 74 -80 74h-58l-28 -174h58q51 0 79.5 27t28.5 73zM352 371q0 65 -73 65h-44l-25 -154h44q47 0 72.5 24t25.5 65z" />
    <glyph glyph-name="C.smcp" horiz-adv-x="550" 
d="M350 454q-63 0 -107 -68.5t-44 -167.5q0 -78 31 -112t97 -34q40 0 80 11.5t59 22.5l20 12l17 -20q-3 -4 -8.5 -11.5t-26 -25.5t-45 -32t-64.5 -25.5t-84 -11.5q-108 0 -170.5 59.5t-62.5 160.5q0 122 89 204t227 82q89 0 139.5 -35.5t50.5 -93.5q0 -18 -5 -33.5
t-10 -21.5l-5 -6q-50 -10 -128 -10l-8 10q21 27 21 76q0 70 -63 70z" />
    <glyph glyph-name="Cacute.smcp" horiz-adv-x="550" 
d="M350 454q-63 0 -107 -68.5t-44 -167.5q0 -78 31 -112t97 -34q40 0 80 11.5t59 22.5l20 12l17 -20q-3 -4 -8.5 -11.5t-26 -25.5t-45 -32t-64.5 -25.5t-84 -11.5q-108 0 -170.5 59.5t-62.5 160.5q0 122 89 204t227 82q89 0 139.5 -35.5t50.5 -93.5q0 -18 -5 -33.5
t-10 -21.5l-5 -6q-50 -10 -128 -10l-8 10q21 27 21 76q0 70 -63 70zM288 535l-7 9l102 171q36 0 64.5 -5.5t38.5 -11.5l10 -5l-1 -9l-163 -149h-44z" />
    <glyph glyph-name="Ccaron.smcp" horiz-adv-x="550" 
d="M350 454q-63 0 -107 -68.5t-44 -167.5q0 -78 31 -112t97 -34q40 0 80 11.5t59 22.5l20 12l17 -20q-3 -4 -8.5 -11.5t-26 -25.5t-45 -32t-64.5 -25.5t-84 -11.5q-108 0 -170.5 59.5t-62.5 160.5q0 122 89 204t227 82q89 0 139.5 -35.5t50.5 -93.5q0 -18 -5 -33.5
t-10 -21.5l-5 -6q-50 -10 -128 -10l-8 10q21 27 21 76q0 70 -63 70zM519 712l7 -8l-165 -172h-37l-110 172l10 8h51l83 -84l110 84h51z" />
    <glyph glyph-name="Ccedilla.smcp" horiz-adv-x="550" 
d="M230 -75l21 68q-97 6 -153 64.5t-56 154.5q0 122 89 204t227 82q89 0 139.5 -35.5t50.5 -93.5q0 -18 -5 -33.5t-10 -21.5l-5 -6q-50 -10 -128 -10l-8 10q21 27 21 76q0 70 -63 70t-107 -68.5t-44 -167.5q0 -78 31 -112t97 -34q40 0 80 11.5t59 22.5l20 12l17 -20
q-3 -4 -8 -10.5t-23.5 -23.5t-40.5 -30.5t-58 -25.5t-76 -15l-13 -40q27 0 45 -17t18 -45q0 -36 -28 -60.5t-71 -24.5q-27 0 -46 11t-25 21l-6 11l22 19q11 -17 37 -17q20 0 32 10.5t12 26.5q0 29 -37 29z" />
    <glyph glyph-name="Ccircumflex.smcp" horiz-adv-x="550" 
d="M350 454q-63 0 -107 -68.5t-44 -167.5q0 -78 31 -112t97 -34q40 0 80 11.5t59 22.5l20 12l17 -20q-3 -4 -8.5 -11.5t-26 -25.5t-45 -32t-64.5 -25.5t-84 -11.5q-108 0 -170.5 59.5t-62.5 160.5q0 122 89 204t227 82q89 0 139.5 -35.5t50.5 -93.5q0 -18 -5 -33.5
t-10 -21.5l-5 -6q-50 -10 -128 -10l-8 10q21 27 21 76q0 70 -63 70zM507 544l-10 -9h-51l-83 85l-110 -85h-51l-7 9l165 171h36z" />
    <glyph glyph-name="Cdotaccent.smcp" horiz-adv-x="550" 
d="M350 454q-63 0 -107 -68.5t-44 -167.5q0 -78 31 -112t97 -34q40 0 80 11.5t59 22.5l20 12l17 -20q-3 -4 -8.5 -11.5t-26 -25.5t-45 -32t-64.5 -25.5t-84 -11.5q-108 0 -170.5 59.5t-62.5 160.5q0 122 89 204t227 82q89 0 139.5 -35.5t50.5 -93.5q0 -18 -5 -33.5
t-10 -21.5l-5 -6q-50 -10 -128 -10l-8 10q21 27 21 76q0 70 -63 70zM288 601q0 35 23.5 58.5t58.5 23.5q29 0 45.5 -16.5t16.5 -44.5q0 -35 -24 -58.5t-59 -23.5q-28 0 -44.5 16.5t-16.5 44.5z" />
    <glyph glyph-name="D.smcp" horiz-adv-x="589" 
d="M27 0l77 490h225q109 0 172.5 -58t63.5 -156q0 -118 -89.5 -197t-223.5 -79h-225zM314 436h-79l-61 -382h79q69 0 112.5 65.5t43.5 169.5q0 147 -95 147z" />
    <glyph glyph-name="Dcaron.smcp" horiz-adv-x="588" 
d="M27 0l77 490h225q109 0 172.5 -58t63.5 -156q0 -118 -89.5 -197t-223.5 -79h-225zM314 436h-79l-61 -382h79q69 0 112.5 65.5t43.5 169.5q0 147 -95 147zM509 712l7 -8l-164 -172h-37l-111 172l10 8h51l84 -84l110 84h50z" />
    <glyph glyph-name="Dcroat.smcp" horiz-adv-x="589" 
d="M23 222l8 54h40l34 214h224q109 0 172.5 -58t63.5 -156q0 -118 -89.5 -197t-223.5 -79h-225l35 222h-39zM315 436h-79l-25 -160h91l-8 -54h-92l-27 -168h78q69 0 113 65.5t44 168.5q0 148 -95 148z" />
    <glyph glyph-name="Eth.smcp" horiz-adv-x="589" 
d="M23 222l8 54h40l34 214h224q109 0 172.5 -58t63.5 -156q0 -118 -89.5 -197t-223.5 -79h-225l35 222h-39zM315 436h-79l-25 -160h91l-8 -54h-92l-27 -168h78q69 0 113 65.5t44 168.5q0 148 -95 148z" />
    <glyph glyph-name="Thorn.smcp" horiz-adv-x="509" 
d="M27 0l77 490h140l-15 -92h63q94 0 145.5 -33.5t51.5 -97.5q0 -74 -66.5 -117.5t-176.5 -43.5h-63l-17 -106h-139zM263 345h-42l-30 -186h41q50 0 80 29t30 78q0 79 -79 79z" />
    <glyph glyph-name="E.smcp" horiz-adv-x="460" 
d="M27 0l77 490h357l-11 -70l-12 -11q-36 27 -118 27h-84l-25 -157h162l6 -7l-7 -47h-170l-27 -171h91q36 0 67.5 7t44.5 13l14 7l9 -10l-11 -71h-363z" />
    <glyph glyph-name="Eacute.smcp" horiz-adv-x="459" 
d="M27 0l77 490h357l-11 -70l-12 -11q-36 27 -118 27h-84l-25 -157h162l6 -7l-7 -47h-170l-27 -171h91q36 0 67.5 7t44.5 13l14 7l9 -10l-11 -71h-363zM222 535l-7 9l101 171q36 0 64.5 -5.5t39.5 -11.5l10 -5l-1 -9l-164 -149h-43z" />
    <glyph glyph-name="Ebreve.smcp" horiz-adv-x="459" 
d="M27 0l77 490h357l-11 -70l-12 -11q-36 27 -118 27h-84l-25 -157h162l6 -7l-7 -47h-170l-27 -171h91q36 0 67.5 7t44.5 13l14 7l9 -10l-11 -71h-363zM153 644l26 23q5 -6 14 -15t40 -24.5t66 -15.5t69 14t51 28l17 13l19 -23q-2 -4 -6.5 -11.5t-20 -26t-33 -32.5
t-47 -25.5t-61.5 -11.5t-57.5 11t-39.5 26.5t-23 31.5t-11 27z" />
    <glyph glyph-name="Ecaron.smcp" horiz-adv-x="459" 
d="M27 0l77 490h357l-11 -70l-12 -11q-36 27 -118 27h-84l-25 -157h162l6 -7l-7 -47h-170l-27 -171h91q36 0 67.5 7t44.5 13l14 7l9 -10l-11 -71h-363zM460 712l7 -8l-165 -171h-37l-110 171l10 8h50l84 -84l110 84h51z" />
    <glyph glyph-name="Ecircumflex.smcp" horiz-adv-x="459" 
d="M27 0l77 490h357l-11 -70l-12 -11q-36 27 -118 27h-84l-25 -157h162l6 -7l-7 -47h-170l-27 -171h91q36 0 67.5 7t44.5 13l14 7l9 -10l-11 -71h-363zM447 544l-10 -9h-51l-83 85l-111 -85h-50l-7 9l164 171h37z" />
    <glyph glyph-name="Edieresis.smcp" horiz-adv-x="459" 
d="M27 0l77 490h357l-11 -70l-12 -11q-36 27 -118 27h-84l-25 -157h162l6 -7l-7 -47h-170l-27 -171h91q36 0 67.5 7t44.5 13l14 7l9 -10l-11 -71h-363zM339 594q0 32 21.5 52.5t52.5 20.5q26 0 40.5 -14.5t14.5 -40.5q0 -31 -21 -52t-52 -21q-26 0 -41 14.5t-15 40.5z
M129 594q0 32 21.5 52.5t52.5 20.5q26 0 40.5 -14.5t14.5 -40.5q0 -31 -21 -52t-52 -21q-26 0 -41 14.5t-15 40.5z" />
    <glyph glyph-name="Edotaccent.smcp" horiz-adv-x="459" 
d="M27 0l77 490h357l-11 -70l-12 -11q-36 27 -118 27h-84l-25 -157h162l6 -7l-7 -47h-170l-27 -171h91q36 0 67.5 7t44.5 13l14 7l9 -10l-11 -71h-363zM229 601q0 35 23.5 58.5t58.5 23.5q29 0 45.5 -16.5t16.5 -44.5q0 -35 -24 -58.5t-59 -23.5q-28 0 -44.5 16.5
t-16.5 44.5z" />
    <glyph glyph-name="Egrave.smcp" horiz-adv-x="459" 
d="M27 0l77 490h357l-11 -70l-12 -11q-36 27 -118 27h-84l-25 -157h162l6 -7l-7 -47h-170l-27 -171h91q36 0 67.5 7t44.5 13l14 7l9 -10l-11 -71h-363zM362 544l-9 -9h-43l-116 149l1 9q39 22 120 22z" />
    <glyph glyph-name="Emacron.smcp" horiz-adv-x="459" 
d="M27 0l77 490h357l-11 -70l-12 -11q-36 27 -118 27h-84l-25 -157h162l6 -7l-7 -47h-170l-27 -171h91q36 0 67.5 7t44.5 13l14 7l9 -10l-11 -71h-363zM162 565l10 63h264l-10 -63h-264z" />
    <glyph glyph-name="Eogonek.smcp" horiz-adv-x="459" 
d="M27 0l77 490h357l-11 -70l-12 -11q-36 27 -118 27h-84l-25 -157h162l6 -7l-7 -47h-170l-27 -171h91q36 0 67.5 7t44.5 13l14 7l9 -10l-11 -71h-36q-51 -51 -51 -100q0 -36 35 -36q8 0 15 2t11 4l3 1l19 -23q-3 -4 -9 -10t-26 -16.5t-43 -10.5q-33 0 -56.5 20t-23.5 57
q0 31 18 58t32.5 38t26.5 16h-278z" />
    <glyph glyph-name="F.smcp" horiz-adv-x="441" 
d="M27 0l77 490h353l-11 -70l-11 -11q-36 27 -119 27h-80l-26 -157h163l7 -7l-7 -47h-171l-36 -225h-139z" />
    <glyph glyph-name="G.smcp" horiz-adv-x="553" 
d="M333 193l7 46h46q37 0 70 2.5t48 5.5l14 3l9 -11l-27 -169l-8.5 -8.5t-26 -19t-43.5 -23.5t-61 -18.5t-79 -8.5q-114 0 -177 59t-63 161q0 123 88.5 204.5t231.5 81.5q87 0 136.5 -31.5t49.5 -88.5q0 -18 -5 -33t-11 -21l-5 -6q-49 -10 -127 -10l-9 10q22 24 22 74
q0 33 -14.5 47.5t-44.5 14.5q-67 0 -111 -68.5t-44 -170.5q0 -157 119 -157q28 0 54 6l8 50q6 45 3 72h-44z" />
    <glyph glyph-name="Gbreve.smcp" horiz-adv-x="552" 
d="M333 193l7 46h46q37 0 70 2.5t48 5.5l14 3l9 -11l-27 -169l-8.5 -8.5t-26 -19t-43.5 -23.5t-61 -18.5t-79 -8.5q-114 0 -177 59t-63 161q0 123 88.5 204.5t231.5 81.5q87 0 136.5 -31.5t49.5 -88.5q0 -18 -5 -33t-11 -21l-5 -6q-49 -10 -127 -10l-9 10q22 24 22 74
q0 33 -14.5 47.5t-44.5 14.5q-67 0 -111 -68.5t-44 -170.5q0 -157 119 -157q28 0 54 6l8 50q6 45 3 72h-44zM212 644l26 23q5 -6 14 -15t40 -24.5t66 -15.5t69 14t51 28l16 13l19 -23q-2 -4 -6.5 -11.5t-19.5 -26t-33 -32.5t-47 -25.5t-61 -11.5t-57.5 11t-39.5 26.5
t-23 31.5t-12 27z" />
    <glyph glyph-name="Gcircumflex.smcp" horiz-adv-x="552" 
d="M333 193l7 46h46q37 0 70 2.5t48 5.5l14 3l9 -11l-27 -169l-8.5 -8.5t-26 -19t-43.5 -23.5t-61 -18.5t-79 -8.5q-114 0 -177 59t-63 161q0 123 88.5 204.5t231.5 81.5q87 0 136.5 -31.5t49.5 -88.5q0 -18 -5 -33t-11 -21l-5 -6q-49 -10 -127 -10l-9 10q22 24 22 74
q0 33 -14.5 47.5t-44.5 14.5q-67 0 -111 -68.5t-44 -170.5q0 -157 119 -157q28 0 54 6l8 50q6 45 3 72h-44zM507 544l-10 -9h-51l-83 85l-110 -85h-51l-7 9l165 171h36z" />
    <glyph glyph-name="Gcommaaccent.smcp" horiz-adv-x="552" 
d="M333 193l7 46h46q37 0 70 2.5t48 5.5l14 3l9 -11l-27 -169l-8.5 -8.5t-26 -19t-43.5 -23.5t-61 -18.5t-79 -8.5q-114 0 -177 59t-63 161q0 123 88.5 204.5t231.5 81.5q87 0 136.5 -31.5t49.5 -88.5q0 -18 -5 -33t-11 -21l-5 -6q-49 -10 -127 -10l-9 10q22 24 22 74
q0 33 -14.5 47.5t-44.5 14.5q-67 0 -111 -68.5t-44 -170.5q0 -157 119 -157q28 0 54 6l8 50q6 45 3 72h-44zM185 -231l-12 15q7 7 17 19.5t26.5 52t16.5 79.5l-2 33l5 6q24 0 45.5 -3t30.5 -6l10 -3q2 -6 2 -19q0 -32 -14.5 -62t-34.5 -49.5t-40.5 -34t-34.5 -21.5z" />
    <glyph glyph-name="Gdotaccent.smcp" horiz-adv-x="552" 
d="M333 193l7 46h46q37 0 70 2.5t48 5.5l14 3l9 -11l-27 -169l-8.5 -8.5t-26 -19t-43.5 -23.5t-61 -18.5t-79 -8.5q-114 0 -177 59t-63 161q0 123 88.5 204.5t231.5 81.5q87 0 136.5 -31.5t49.5 -88.5q0 -18 -5 -33t-11 -21l-5 -6q-49 -10 -127 -10l-9 10q22 24 22 74
q0 33 -14.5 47.5t-44.5 14.5q-67 0 -111 -68.5t-44 -170.5q0 -157 119 -157q28 0 54 6l8 50q6 45 3 72h-44zM288 601q0 35 23.5 58.5t58.5 23.5q29 0 45.5 -16.5t16.5 -44.5q0 -35 -24 -58.5t-59 -23.5q-28 0 -44.5 16.5t-16.5 44.5z" />
    <glyph glyph-name="H.smcp" horiz-adv-x="592" 
d="M365 0l36 225h-199l-36 -225h-139l77 490h140l-34 -211h199l34 211h140l-78 -490h-140z" />
    <glyph glyph-name="Hbar.smcp" horiz-adv-x="591" 
d="M365 0l36 225h-199l-36 -225h-139l55 351h-39l8 54h39l14 85h140l-14 -85h199l14 85h140l-14 -85h39l-8 -54h-39l-56 -351h-140zM222 351l-12 -72h199l12 72h-199z" />
    <glyph glyph-name="Hcircumflex.smcp" horiz-adv-x="591" 
d="M365 0l36 225h-199l-36 -225h-139l77 490h140l-34 -211h199l34 211h140l-78 -490h-140zM506 544l-11 -9h-50l-84 85l-110 -85h-50l-7 9l164 171h37z" />
    <glyph glyph-name="I.smcp" horiz-adv-x="253" 
d="M27 0l77 490h140l-78 -490h-139z" />
    <glyph glyph-name="Iacute.smcp" horiz-adv-x="253" 
d="M27 0l77 490h140l-78 -490h-139zM119 535l-7 9l102 171q36 0 64 -5.5t38 -11.5l11 -5l-1 -9l-164 -149h-43z" />
    <glyph glyph-name="Ibreve.smcp" horiz-adv-x="254" 
d="M27 0l77 490h140l-78 -490h-139zM42 644l26 23q5 -6 14 -15t40 -24.5t66 -15.5t69 14t51 28l17 13l19 -23q-2 -4 -6.5 -11.5t-19.5 -26t-33 -32.5t-47.5 -25.5t-61.5 -11.5t-57.5 11t-39.5 26.5t-23 31.5t-12 27z" />
    <glyph glyph-name="Icircumflex.smcp" horiz-adv-x="253" 
d="M27 0l77 490h140l-78 -490h-139zM337 544l-11 -9h-50l-84 85l-110 -85h-51l-6 9l164 171h37z" />
    <glyph glyph-name="Idieresis.smcp" horiz-adv-x="253" 
d="M27 0l77 490h140l-78 -490h-139zM19 595q0 32 21.5 52.5t53.5 20.5q26 0 40.5 -15t14.5 -40q0 -32 -21 -53t-53 -21q-26 0 -41 15t-15 41zM229 595q0 32 21.5 52.5t53.5 20.5q26 0 40.5 -15t14.5 -40q0 -32 -21 -53t-53 -21q-26 0 -41 15t-15 41z" />
    <glyph glyph-name="Idotaccent.smcp" horiz-adv-x="253" 
d="M27 0l77 490h140l-78 -490h-139zM103 617q0 41 28 68.5t69 27.5q34 0 53.5 -19t19.5 -53q0 -41 -27.5 -68.5t-69.5 -27.5q-34 0 -53.5 19t-19.5 53z" />
    <glyph glyph-name="Igrave.smcp" horiz-adv-x="253" 
d="M27 0l77 490h140l-78 -490h-139zM244 544l-9 -9h-44l-116 149l2 9q39 22 120 22z" />
    <glyph glyph-name="Imacron.smcp" horiz-adv-x="253" 
d="M27 0l77 490h140l-78 -490h-139zM51 565l10 63h264l-10 -63h-264z" />
    <glyph glyph-name="Iogonek.smcp" horiz-adv-x="253" 
d="M27 0l77 490h140l-78 -490h-31q-50 -50 -50 -100q0 -36 34 -36q8 0 15 2t10 4l4 1l19 -23q-3 -4 -9 -10t-26 -16.5t-43 -10.5q-33 0 -56.5 20t-23.5 57q0 31 18 58t32.5 38t26.5 16h-59z" />
    <glyph glyph-name="Itilde.smcp" horiz-adv-x="253" 
d="M27 0l77 490h140l-78 -490h-139zM154 652q25 0 50 -18t45 -18t40.5 10t30.5 20l10 9l18 -23q-2 -4 -6 -10t-16.5 -22t-26.5 -28t-35 -22t-43 -10q-25 0 -50 18.5t-46 18.5q-20 0 -40 -10t-30 -20l-10 -10l-19 23q2 4 6 10t16.5 22t26.5 28t35.5 22t43.5 10z" />
    <glyph glyph-name="IJ.smcp" horiz-adv-x="496" 
d="M62 228l42 262h140l-41 -262h-141zM214 36q61 0 79 114l54 340h140l-54 -335q-12 -76 -72.5 -119.5t-157.5 -43.5q-78 0 -123.5 27.5t-45.5 71.5q0 15 5 29t10 20l5 7q48 11 125 11l12 -11q-20 -27 -20 -64q0 -47 43 -47z" />
    <glyph glyph-name="J.smcp" horiz-adv-x="398" 
d="M194 148l55 342h140l-54 -337q-26 -161 -211 -161q-44 0 -77 8.5t-43 17.5l-11 9q5 36 24.5 69t36.5 48l17 15h10q0 -5 0.5 -13.5t4 -29.5t9 -37t16 -29.5t24.5 -13.5q21 0 35 24.5t24 87.5z" />
    <glyph glyph-name="Jcircumflex.smcp" horiz-adv-x="397" 
d="M194 148l55 342h140l-54 -337q-26 -161 -211 -161q-44 0 -77 8.5t-43 17.5l-11 9q5 36 24.5 69t36.5 48l17 15h10q0 -5 0.5 -13.5t4 -29.5t9 -37t16 -29.5t24.5 -13.5q21 0 35 24.5t24 87.5zM484 545l-10 -9h-51l-83 85l-110 -85h-51l-7 9l165 171h37z" />
    <glyph glyph-name="K.smcp" horiz-adv-x="538" 
d="M27 0l77 490h140l-32 -204h20l207 204h82l-188 -183l76 -168q17 -36 37.5 -68t32.5 -47l12 -14l-1 -10h-168l-109 232h-10l-37 -232h-139z" />
    <glyph glyph-name="Kcommaaccent.smcp" horiz-adv-x="538" 
d="M27 0l77 490h140l-32 -204h20l207 204h82l-188 -183l76 -168q17 -36 37.5 -68t32.5 -47l12 -14l-1 -10h-168l-109 232h-10l-37 -232h-139zM157 -231l-12 15q7 7 17 19.5t27 52t17 79.5l-3 33l5 6q24 0 46 -3t32 -6l9 -3q1 -6 1 -19q0 -32 -14.5 -62t-34.5 -49.5
t-40.5 -34t-34.5 -21.5z" />
    <glyph glyph-name="L.smcp" horiz-adv-x="426" 
d="M27 0l77 490h140l-69 -436h70q36 0 67.5 7t45.5 13l13 7l8 -10l-10 -71h-342z" />
    <glyph glyph-name="Lacute.smcp" horiz-adv-x="426" 
d="M27 0l77 490h140l-69 -436h70q36 0 67.5 7t45.5 13l13 7l8 -10l-10 -71h-342zM112 535l-6 9l101 171q36 0 64.5 -5.5t38.5 -11.5l10 -5l-1 -9l-163 -149h-44z" />
    <glyph glyph-name="Lcaron.smcp" horiz-adv-x="426" 
d="M27 0l77 490h140l-69 -436h70q36 0 67.5 7t45.5 13l13 7l8 -10l-10 -71h-342zM293 296l-12 15q7 7 17 19.5t27 52t17 79.5l-3 33l5 6q24 0 45.5 -3t31.5 -6l10 -3q1 -6 1 -19q0 -32 -14.5 -62t-35 -49.5t-40.5 -34t-34 -21.5z" />
    <glyph glyph-name="Lcommaaccent.smcp" horiz-adv-x="426" 
d="M27 0l77 490h140l-69 -436h70q36 0 67.5 7t45.5 13l13 7l8 -10l-10 -71h-342zM102 -231l-12 15q7 7 17 19.5t27 52t17 79.5l-3 33l5 6q24 0 46 -3t31 -6l10 -3q2 -6 2 -19q0 -32 -14.5 -62t-35 -49.5t-41 -34t-35.5 -21.5z" />
    <glyph glyph-name="Ldot.smcp" horiz-adv-x="426" 
d="M27 0l77 490h140l-69 -436h70q36 0 67.5 7t45.5 13l13 7l8 -10l-10 -71h-342zM276 240q0 31 21 52t53 21q26 0 40.5 -14t14.5 -40q0 -32 -20.5 -53t-52.5 -21q-26 0 -41 14.5t-15 40.5z" />
    <glyph glyph-name="Lslash.smcp" horiz-adv-x="442" 
d="M23 168l-16 35l74 37l39 250h141l-28 -172l61 31l16 -35l-84 -43l-35 -217h70q36 0 67.5 7t45.5 13l13 7l9 -10l-11 -71h-342l30 193z" />
    <glyph glyph-name="M.smcp" horiz-adv-x="729" 
d="M513 0l17 379l-2 3l-178 -368h-92l-15 18l-64 350l-4 -3l-95 -379h-66l93 365q8 31 11.5 59.5t3.5 41.5l-1 14l12 10h170l57 -315l151 315h167l-21 -490h-144z" />
    <glyph glyph-name="N.smcp" horiz-adv-x="546" 
d="M27 0l46 294q9 56 10.5 102.5t-1.5 65.5l-3 18l12 10h47l287 -277l44 277h68l-78 -490h-40l-287 274l-44 -274h-61z" />
    <glyph glyph-name="Nacute.smcp" horiz-adv-x="546" 
d="M27 0l46 294q9 56 10.5 102.5t-1.5 65.5l-3 18l12 10h47l287 -277l44 277h68l-78 -490h-40l-287 274l-44 -274h-61zM264 535l-7 9l101 171q36 0 64 -5.5t38 -11.5l11 -5l-1 -9l-163 -149h-43z" />
    <glyph glyph-name="Ncaron.smcp" horiz-adv-x="546" 
d="M27 0l46 294q9 56 10.5 102.5t-1.5 65.5l-3 18l12 10h47l287 -277l44 277h68l-78 -490h-40l-287 274l-44 -274h-61zM495 712l6 -8l-164 -172h-37l-111 172l10 8h51l84 -84l110 84h51z" />
    <glyph glyph-name="Ncommaaccent.smcp" horiz-adv-x="546" 
d="M27 0l46 294q9 56 10.5 102.5t-1.5 65.5l-3 18l12 10h47l287 -277l44 277h68l-78 -490h-40l-287 274l-44 -274h-61zM162 -231l-12 15q7 7 17 19.5t26.5 52t16.5 79.5l-3 33l6 6q24 0 45.5 -3t31.5 -6l9 -3q2 -6 2 -19q0 -32 -14.5 -62t-34.5 -49.5t-40.5 -34t-35.5 -21.5
z" />
    <glyph glyph-name="Ntilde.smcp" horiz-adv-x="546" 
d="M27 0l46 294q9 56 10.5 102.5t-1.5 65.5l-3 18l12 10h47l287 -277l44 277h68l-78 -490h-40l-287 274l-44 -274h-61zM298 652q25 0 50.5 -18t45.5 -18t40 10t30 20l10 9l19 -23q-2 -4 -6 -10t-16.5 -22t-26.5 -28t-35.5 -22t-43.5 -10q-25 0 -49.5 18.5t-45.5 18.5
q-20 0 -40 -10t-30 -20l-10 -10l-19 23q2 4 6 10t16.5 22t26.5 28t35 22t43 10z" />
    <glyph glyph-name="Eng.smcp" horiz-adv-x="546" 
d="M27 0l46 294q9 56 10.5 102.5t-1.5 65.5l-3 18l12 10h47l285 -275l46 275h68l-81 -512q-13 -81 -58.5 -121t-130.5 -40q-41 0 -73 8.5t-44 17.5l-11 9q6 36 26 69t37 48l17 15h9q0 -5 0.5 -13.5t4 -29.5t9 -37t16 -29.5t24.5 -13.5q21 0 35 24t24 88l13 90l-222 212
l-44 -275h-61z" />
    <glyph glyph-name="O.smcp" horiz-adv-x="613" 
d="M42 211q0 122 89 204.5t222 82.5q110 0 173.5 -59t63.5 -160q0 -122 -89.5 -204.5t-222.5 -82.5q-110 0 -173 59t-63 160zM195 189q0 -153 89 -153q66 0 109.5 76t43.5 189q0 153 -90 153q-65 0 -108.5 -76t-43.5 -189z" />
    <glyph glyph-name="Oacute.smcp" horiz-adv-x="614" 
d="M42 211q0 122 89 204.5t222 82.5q110 0 173.5 -59t63.5 -160q0 -122 -89.5 -204.5t-222.5 -82.5q-110 0 -173 59t-63 160zM195 189q0 -153 89 -153q66 0 109.5 76t43.5 189q0 153 -90 153q-65 0 -108.5 -76t-43.5 -189zM298 533l-7 8l101 171q36 0 64.5 -5.5t39.5 -10.5
l10 -6l-1 -9l-164 -148h-43z" />
    <glyph glyph-name="Obreve.smcp" horiz-adv-x="614" 
d="M42 211q0 122 89 204.5t222 82.5q110 0 173.5 -59t63.5 -160q0 -122 -89.5 -204.5t-222.5 -82.5q-110 0 -173 59t-63 160zM195 189q0 -153 89 -153q66 0 109.5 76t43.5 189q0 153 -90 153q-65 0 -108.5 -76t-43.5 -189zM222 644l26 23q5 -6 14 -15t40 -24.5t66 -15.5
t69 14t51 28l16 13l19 -23q-2 -4 -6.5 -11.5t-19.5 -26t-33 -32.5t-47 -25.5t-61 -11.5t-57.5 11t-39.5 26.5t-23 31.5t-12 27z" />
    <glyph glyph-name="Ocircumflex.smcp" horiz-adv-x="614" 
d="M42 211q0 122 89 204.5t222 82.5q110 0 173.5 -59t63.5 -160q0 -122 -89.5 -204.5t-222.5 -82.5q-110 0 -173 59t-63 160zM195 189q0 -153 89 -153q66 0 109.5 76t43.5 189q0 153 -90 153q-65 0 -108.5 -76t-43.5 -189zM517 544l-10 -9h-51l-83 85l-110 -85h-51l-7 9
l165 171h36z" />
    <glyph glyph-name="Odieresis.smcp" horiz-adv-x="614" 
d="M42 211q0 122 89 204.5t222 82.5q110 0 173.5 -59t63.5 -160q0 -122 -89.5 -204.5t-222.5 -82.5q-110 0 -173 59t-63 160zM195 189q0 -153 89 -153q66 0 109.5 76t43.5 189q0 153 -90 153q-65 0 -108.5 -76t-43.5 -189zM198 595q0 32 21.5 52.5t52.5 20.5q26 0 40.5 -15
t14.5 -40q0 -32 -21 -53t-52 -21q-26 0 -41 15t-15 41zM408 595q0 32 21 52.5t53 20.5q26 0 40.5 -15t14.5 -40q0 -32 -21 -53t-52 -21q-26 0 -41 15t-15 41z" />
    <glyph glyph-name="Ograve.smcp" horiz-adv-x="614" 
d="M42 211q0 122 89 204.5t222 82.5q110 0 173.5 -59t63.5 -160q0 -122 -89.5 -204.5t-222.5 -82.5q-110 0 -173 59t-63 160zM195 189q0 -153 89 -153q66 0 109.5 76t43.5 189q0 153 -90 153q-65 0 -108.5 -76t-43.5 -189zM424 544l-9 -9h-44l-116 149l2 9q39 22 120 22z
" />
    <glyph glyph-name="Ohungarumlaut.smcp" horiz-adv-x="614" 
d="M42 211q0 122 89 204.5t222 82.5q110 0 173.5 -59t63.5 -160q0 -122 -89.5 -204.5t-222.5 -82.5q-110 0 -173 59t-63 160zM195 189q0 -153 89 -153q66 0 109.5 76t43.5 189q0 153 -90 153q-65 0 -108.5 -76t-43.5 -189zM209 535l-7 9l98 171q36 0 64 -5.5t38 -11.5l11 -5
l-1 -9l-160 -149h-43zM381 535l-7 9l114 171q36 0 63 -5.5t35 -11.5l9 -5v-9l-170 -149h-44z" />
    <glyph glyph-name="Omacron.smcp" horiz-adv-x="614" 
d="M42 211q0 122 89 204.5t222 82.5q110 0 173.5 -59t63.5 -160q0 -122 -89.5 -204.5t-222.5 -82.5q-110 0 -173 59t-63 160zM195 189q0 -153 89 -153q66 0 109.5 76t43.5 189q0 153 -90 153q-65 0 -108.5 -76t-43.5 -189zM231 565l10 63h264l-10 -63h-264z" />
    <glyph glyph-name="Oslash.smcp" horiz-adv-x="613" 
d="M146 -18h-63l41 53q-82 59 -82 176q0 122 89 204.5t222 82.5q62 0 110 -20l23 30h62l-41 -54q83 -60 83 -175q0 -122 -89.5 -204.5t-222.5 -82.5q-59 0 -110 19zM192 190q0 -37 4 -61l220 288q-24 37 -69 37q-66 0 -110.5 -75t-44.5 -189zM439 300q0 36 -4 60l-220 -287
q24 -37 69 -37q66 0 110.5 75t44.5 189z" />
    <glyph glyph-name="Oslashacute.smcp" horiz-adv-x="614" 
d="M146 -18h-63l41 53q-82 59 -82 176q0 122 89 204.5t222 82.5q62 0 110 -20l23 30h62l-41 -54q83 -60 83 -175q0 -122 -89.5 -204.5t-222.5 -82.5q-59 0 -110 19zM192 190q0 -37 4 -61l220 288q-24 37 -69 37q-66 0 -110.5 -75t-44.5 -189zM439 300q0 36 -4 60l-220 -287
q24 -37 69 -37q66 0 110.5 75t44.5 189zM291 535l-7 9l102 171q36 0 64 -5.5t38 -11.5l11 -5l-1 -9l-164 -149h-43z" />
    <glyph glyph-name="Otilde.smcp" horiz-adv-x="614" 
d="M42 211q0 122 89 204.5t222 82.5q110 0 173.5 -59t63.5 -160q0 -122 -89.5 -204.5t-222.5 -82.5q-110 0 -173 59t-63 160zM195 189q0 -153 89 -153q66 0 109.5 76t43.5 189q0 153 -90 153q-65 0 -108.5 -76t-43.5 -189zM332 652q25 0 50.5 -18t45.5 -18t40 10t30 20l11 9
l18 -23q-2 -4 -6 -10t-16.5 -22t-26.5 -28t-35.5 -22t-43.5 -10q-25 0 -49.5 18.5t-45.5 18.5q-20 0 -40 -10t-30 -20l-10 -10l-19 23q2 4 6 10t16.5 22t26.5 28t35 22t43 10z" />
    <glyph glyph-name="OE.smcp" horiz-adv-x="785" 
d="M360 0l1 9q-44 -17 -94 -17q-100 0 -162.5 60t-62.5 160q0 121 90 203.5t213 82.5q49 0 90 -18l2 10h349l-11 -70l-12 -11q-36 27 -117 27h-77l-25 -157h153l7 -7l-7 -47h-162l-27 -171h83q36 0 67.5 7t45.5 13l13 7l8 -10l-9 -71h-356zM283 36q55 0 93 68l45 288
q-18 62 -73 62q-66 0 -109.5 -76t-43.5 -189q0 -153 88 -153z" />
    <glyph glyph-name="P.smcp" horiz-adv-x="509" 
d="M27 0l77 490h204q93 0 144 -34t51 -98q0 -73 -66 -117t-176 -44h-64l-31 -197h-139zM277 436h-42l-29 -185h41q50 0 79.5 29t29.5 78q0 78 -79 78z" />
    <glyph glyph-name="Q.smcp" horiz-adv-x="613" 
d="M275 -11q-109 1 -171.5 60.5t-62.5 159.5q0 124 89 206.5t223 82.5q110 0 173.5 -59.5t63.5 -161.5q0 -93 -53 -164.5t-140 -102.5q7 -2 25.5 -8.5t28 -9.5t26 -6t31.5 -3q17 0 30 3t18 6l4 3l5 -7q-4 -32 -12.5 -61t-14.5 -41l-6 -13q-12 -7 -37 -7q-34 0 -65 19
t-51 42.5t-48 42.5t-56 19zM195 187q0 -154 88 -154q66 0 110 76.5t44 190.5q0 154 -90 154q-66 0 -109 -76t-43 -191z" />
    <glyph glyph-name="R.smcp" horiz-adv-x="525" 
d="M27 0l77 490h199q94 0 145.5 -32.5t51.5 -94.5q0 -47 -32 -82.5t-89 -52.5l38 -103q13 -34 28.5 -63.5t24.5 -41.5l10 -13l-7 -7h-152l-77 211h-45l-33 -211h-139zM273 436h-38l-27 -171h37q50 0 79 26.5t29 71.5q0 73 -80 73z" />
    <glyph glyph-name="Racute.smcp" horiz-adv-x="525" 
d="M27 0l77 490h199q94 0 145.5 -32.5t51.5 -94.5q0 -47 -32 -82.5t-89 -52.5l38 -103q13 -34 28.5 -63.5t24.5 -41.5l10 -13l-7 -7h-152l-77 211h-45l-33 -211h-139zM273 436h-38l-27 -171h37q50 0 79 26.5t29 71.5q0 73 -80 73zM240 535l-7 9l101 171q36 0 64 -5.5
t38 -11.5l11 -5l-1 -9l-163 -149h-43z" />
    <glyph glyph-name="Rcaron.smcp" horiz-adv-x="525" 
d="M27 0l77 490h199q94 0 145.5 -32.5t51.5 -94.5q0 -47 -32 -82.5t-89 -52.5l38 -103q13 -34 28.5 -63.5t24.5 -41.5l10 -13l-7 -7h-152l-77 211h-45l-33 -211h-139zM477 712l7 -8l-165 -172h-37l-110 172l10 8h51l83 -84l111 84h50zM273 436h-38l-27 -171h37q50 0 79 26.5
t29 71.5q0 73 -80 73z" />
    <glyph glyph-name="Rcommaaccent.smcp" horiz-adv-x="525" 
d="M27 0l77 490h199q94 0 145.5 -32.5t51.5 -94.5q0 -47 -32 -82.5t-89 -52.5l38 -103q13 -34 28.5 -63.5t24.5 -41.5l10 -13l-7 -7h-152l-77 211h-45l-33 -211h-139zM273 436h-38l-27 -171h37q50 0 79 26.5t29 71.5q0 73 -80 73zM154 -231l-12 15q7 7 17 19.5t26.5 52
t16.5 79.5l-3 33l6 6q24 0 45.5 -3t31.5 -6l9 -3q2 -6 2 -19q0 -32 -14.5 -62t-34.5 -49.5t-40.5 -34t-35.5 -21.5z" />
    <glyph glyph-name="S.smcp" horiz-adv-x="480" 
d="M258 454q-28 0 -44 -12.5t-16 -32.5q0 -19 19 -38t88 -72q84 -68 108 -95.5t24 -65.5q0 -66 -54.5 -106t-171.5 -40q-68 0 -117.5 14t-65.5 28l-16 14q5 34 25.5 63t38.5 41l18 12h14q2 -5 5 -13.5t14.5 -31t24.5 -39t34.5 -30.5t45.5 -14q30 0 50.5 14.5t20.5 36.5
q0 21 -23.5 42t-90.5 66q-67 44 -93.5 75t-26.5 78q0 70 56 110t166 40q56 0 99.5 -11t58.5 -21l15 -11q-5 -35 -25.5 -65t-38.5 -42l-19 -13h-12q-1 5 -3.5 13t-12 28.5t-21 36t-31.5 28.5t-43 13z" />
    </font>
</defs>
</svg>
